<?xml version="1.0" encoding="UTF-8" standalone="no"?>
<!DOCTYPE svg PUBLIC "-//W3C//DTD SVG 1.1//EN"
 "http://www.w3.org/Graphics/SVG/1.1/DTD/svg11.dtd">
<!-- Generated by graphviz version 12.2.1 (20241206.2353)
 -->
<!-- Pages: 1 -->
<svg width="447pt" height="595pt"
 viewBox="0.00 0.00 447.23 595.00" xmlns="http://www.w3.org/2000/svg" xmlns:xlink="http://www.w3.org/1999/xlink">
<g id="graph0" class="graph" transform="scale(1 1) rotate(0) translate(4 591)">
<polygon fill="white" stroke="none" points="-4,4 -4,-591 443.23,-591 443.23,4 -4,4"/>
<g id="clust1" class="cluster">
<title>cluster~</title>
<path fill="none" stroke="lightgray" stroke-width="2.6" d="M31.23,-8C31.23,-8 419.23,-8 419.23,-8 425.23,-8 431.23,-14 431.23,-20 431.23,-20 431.23,-567 431.23,-567 431.23,-573 425.23,-579 419.23,-579 419.23,-579 31.23,-579 31.23,-579 25.23,-579 19.23,-573 19.23,-567 19.23,-567 19.23,-20 19.23,-20 19.23,-14 25.23,-8 31.23,-8"/>
<text text-anchor="middle" x="225.23" y="-562.65" font-family="Arial Black" font-size="13.00">fpaint</text>
</g>
<g id="clust2" class="cluster">
<title>cluster~/test</title>
<path fill="none" stroke="lightgray" stroke-width="2.6" d="M39.23,-473C39.23,-473 271.23,-473 271.23,-473 277.23,-473 283.23,-479 283.23,-485 283.23,-485 283.23,-536 283.23,-536 283.23,-542 277.23,-548 271.23,-548 271.23,-548 39.23,-548 39.23,-548 33.23,-548 27.23,-542 27.23,-536 27.23,-536 27.23,-485 27.23,-485 27.23,-479 33.23,-473 39.23,-473"/>
<text text-anchor="middle" x="155.23" y="-531.65" font-family="Arial Black" font-size="13.00">test</text>
</g>
<g id="clust3" class="cluster">
<title>cluster~/lib</title>
<path fill="none" stroke="lightgray" stroke-width="2.6" d="M51.23,-16C51.23,-16 411.23,-16 411.23,-16 417.23,-16 423.23,-22 423.23,-28 423.23,-28 423.23,-453 423.23,-453 423.23,-459 417.23,-465 411.23,-465 411.23,-465 51.23,-465 51.23,-465 45.23,-465 39.23,-459 39.23,-453 39.23,-453 39.23,-28 39.23,-28 39.23,-22 45.23,-16 51.23,-16"/>
<text text-anchor="middle" x="231.23" y="-448.65" font-family="Arial Black" font-size="13.00">lib</text>
</g>
<g id="clust4" class="cluster">
<title>cluster~/lib/panels</title>
<path fill="none" stroke="lightgray" stroke-width="2.6" d="M201.23,-168C201.23,-168 403.23,-168 403.23,-168 409.23,-168 415.23,-174 415.23,-180 415.23,-180 415.23,-306 415.23,-306 415.23,-312 409.23,-318 403.23,-318 403.23,-318 201.23,-318 201.23,-318 195.23,-318 189.23,-312 189.23,-306 189.23,-306 189.23,-180 189.23,-180 189.23,-174 195.23,-168 201.23,-168"/>
<text text-anchor="middle" x="302.23" y="-301.65" font-family="Arial Black" font-size="13.00">panels</text>
</g>
<g id="clust5" class="cluster">
<title>cluster~/lib/models</title>
<path fill="none" stroke="lightgray" stroke-width="2.6" d="M73.23,-24C73.23,-24 155.23,-24 155.23,-24 161.23,-24 167.23,-30 167.23,-36 167.23,-36 167.23,-231 167.23,-231 167.23,-237 161.23,-243 155.23,-243 155.23,-243 73.23,-243 73.23,-243 67.23,-243 61.23,-237 61.23,-231 61.23,-231 61.23,-36 61.23,-36 61.23,-30 67.23,-24 73.23,-24"/>
<text text-anchor="middle" x="114.23" y="-226.65" font-family="Arial Black" font-size="13.00">models</text>
</g>
<!-- /test/paint_model_test.dart -->
<g id="node1" class="node">
<title>/test/paint_model_test.dart</title>
<path fill="Lavender" stroke="black" stroke-width="1.3" d="M153.23,-517C153.23,-517 47.23,-517 47.23,-517 41.23,-517 35.23,-511 35.23,-505 35.23,-505 35.23,-493 35.23,-493 35.23,-487 41.23,-481 47.23,-481 47.23,-481 153.23,-481 153.23,-481 159.23,-481 165.23,-487 165.23,-493 165.23,-493 165.23,-505 165.23,-505 165.23,-511 159.23,-517 153.23,-517"/>
<text text-anchor="middle" x="100.23" y="-493.75" font-family="Arial" font-size="15.00">paint_model_test</text>
</g>
<!-- /lib/models/app_model.dart -->
<g id="node8" class="node">
<title>/lib/models/app_model.dart</title>
<path fill="Lavender" stroke="black" stroke-width="1.3" d="M146.98,-212C146.98,-212 81.48,-212 81.48,-212 75.48,-212 69.48,-206 69.48,-200 69.48,-200 69.48,-188 69.48,-188 69.48,-182 75.48,-176 81.48,-176 81.48,-176 146.98,-176 146.98,-176 152.98,-176 158.98,-182 158.98,-188 158.98,-188 158.98,-200 158.98,-200 158.98,-206 152.98,-212 146.98,-212"/>
<text text-anchor="middle" x="114.23" y="-188.75" font-family="Arial" font-size="15.00">app_model</text>
</g>
<!-- /test/paint_model_test.dart&#45;&gt;/lib/models/app_model.dart -->
<g id="edge1" class="edge">
<title>/test/paint_model_test.dart&#45;&gt;/lib/models/app_model.dart</title>
<path fill="none" stroke="#aabbaa" stroke-width="1.3" stroke-opacity="0.533333" d="M50.61,-480.54C44.5,-476.37 39.07,-471.26 35.23,-465 -14.53,-383.94 -8.45,-335.49 35.23,-251 42.05,-237.8 53.57,-227.04 65.74,-218.61"/>
<polygon fill="#aabbaa" fill-opacity="0.533333" stroke="#aabbaa" stroke-width="1.3" stroke-opacity="0.533333" points="67.36,-221.73 73.91,-213.4 63.59,-215.83 67.36,-221.73"/>
</g>
<!-- /test/widget_test.dart -->
<g id="node2" class="node">
<title>/test/widget_test.dart</title>
<path fill="Lavender" stroke="black" stroke-width="1.3" d="M263.1,-517C263.1,-517 195.35,-517 195.35,-517 189.35,-517 183.35,-511 183.35,-505 183.35,-505 183.35,-493 183.35,-493 183.35,-487 189.35,-481 195.35,-481 195.35,-481 263.1,-481 263.1,-481 269.1,-481 275.1,-487 275.1,-493 275.1,-493 275.1,-505 275.1,-505 275.1,-511 269.1,-517 263.1,-517"/>
<text text-anchor="middle" x="229.23" y="-493.75" font-family="Arial" font-size="15.00">widget_test</text>
</g>
<!-- /lib/main.dart -->
<g id="node9" class="node">
<title>/lib/main.dart</title>
<path fill="Lavender" stroke="black" stroke-width="1.3" d="M196.23,-434C196.23,-434 166.23,-434 166.23,-434 160.23,-434 154.23,-428 154.23,-422 154.23,-422 154.23,-410 154.23,-410 154.23,-404 160.23,-398 166.23,-398 166.23,-398 196.23,-398 196.23,-398 202.23,-398 208.23,-404 208.23,-410 208.23,-410 208.23,-422 208.23,-422 208.23,-428 202.23,-434 196.23,-434"/>
<text text-anchor="middle" x="181.23" y="-410.75" font-family="Arial" font-size="15.00">main</text>
</g>
<!-- /test/widget_test.dart&#45;&gt;/lib/main.dart -->
<g id="edge2" class="edge">
<title>/test/widget_test.dart&#45;&gt;/lib/main.dart</title>
<path fill="none" stroke="#aabbaa" stroke-width="1.3" stroke-opacity="0.533333" d="M219.05,-480.82C212.79,-470.26 204.63,-456.49 197.49,-444.45"/>
<polygon fill="#aabbaa" fill-opacity="0.533333" stroke="#aabbaa" stroke-width="1.3" stroke-opacity="0.533333" points="200.67,-442.94 192.56,-436.13 194.65,-446.51 200.67,-442.94"/>
</g>
<!-- /lib/panels/tools_panel.dart -->
<g id="node3" class="node">
<title>/lib/panels/tools_panel.dart</title>
<path fill="Lavender" stroke="black" stroke-width="1.3" d="M395.1,-287C395.1,-287 327.35,-287 327.35,-287 321.35,-287 315.35,-281 315.35,-275 315.35,-275 315.35,-263 315.35,-263 315.35,-257 321.35,-251 327.35,-251 327.35,-251 395.1,-251 395.1,-251 401.1,-251 407.1,-257 407.1,-263 407.1,-263 407.1,-275 407.1,-275 407.1,-281 401.1,-287 395.1,-287"/>
<text text-anchor="middle" x="361.23" y="-263.75" font-family="Arial" font-size="15.00">tools_panel</text>
</g>
<!-- /lib/panels/tool.dart -->
<g id="node5" class="node">
<title>/lib/panels/tool.dart</title>
<path fill="Lavender" stroke="black" stroke-width="1.3" d="M376.23,-212C376.23,-212 346.23,-212 346.23,-212 340.23,-212 334.23,-206 334.23,-200 334.23,-200 334.23,-188 334.23,-188 334.23,-182 340.23,-176 346.23,-176 346.23,-176 376.23,-176 376.23,-176 382.23,-176 388.23,-182 388.23,-188 388.23,-188 388.23,-200 388.23,-200 388.23,-206 382.23,-212 376.23,-212"/>
<text text-anchor="middle" x="361.23" y="-188.75" font-family="Arial" font-size="15.00">tool</text>
</g>
<!-- /lib/panels/tools_panel.dart&#45;&gt;/lib/panels/tool.dart -->
<g id="edge4" class="edge">
<title>/lib/panels/tools_panel.dart&#45;&gt;/lib/panels/tool.dart</title>
<path fill="none" stroke="#aabbaa" stroke-width="1.3" stroke-opacity="0.533333" d="M361.23,-250.7C361.23,-242.76 361.23,-233.12 361.23,-224.11"/>
<polygon fill="#aabbaa" fill-opacity="0.533333" stroke="#aabbaa" stroke-width="1.3" stroke-opacity="0.533333" points="364.73,-224.4 361.23,-214.4 357.73,-224.4 364.73,-224.4"/>
</g>
<!-- /lib/models/shapes.dart -->
<g id="node7" class="node">
<title>/lib/models/shapes.dart</title>
<path fill="Lavender" stroke="black" stroke-width="1.3" d="M134.23,-68C134.23,-68 94.23,-68 94.23,-68 88.23,-68 82.23,-62 82.23,-56 82.23,-56 82.23,-44 82.23,-44 82.23,-38 88.23,-32 94.23,-32 94.23,-32 134.23,-32 134.23,-32 140.23,-32 146.23,-38 146.23,-44 146.23,-44 146.23,-56 146.23,-56 146.23,-62 140.23,-68 134.23,-68"/>
<text text-anchor="middle" x="114.23" y="-44.75" font-family="Arial" font-size="15.00">shapes</text>
</g>
<!-- /lib/panels/tools_panel.dart&#45;&gt;/lib/models/shapes.dart -->
<g id="edge3" class="edge">
<title>/lib/panels/tools_panel.dart&#45;&gt;/lib/models/shapes.dart</title>
<path fill="none" stroke="#aabbaa" stroke-width="1.3" stroke-opacity="0.533333" d="M335.36,-250.65C331.9,-248.15 328.44,-245.56 325.23,-243 254.99,-187.06 178.42,-114.06 139.7,-76.22"/>
<polygon fill="#aabbaa" fill-opacity="0.533333" stroke="#aabbaa" stroke-width="1.3" stroke-opacity="0.533333" points="142.58,-74.14 132.99,-69.64 137.68,-79.14 142.58,-74.14"/>
</g>
<!-- /lib/panels/layers_panel.dart -->
<g id="node4" class="node">
<title>/lib/panels/layers_panel.dart</title>
<path fill="Lavender" stroke="black" stroke-width="1.3" d="M285.23,-287C285.23,-287 209.23,-287 209.23,-287 203.23,-287 197.23,-281 197.23,-275 197.23,-275 197.23,-263 197.23,-263 197.23,-257 203.23,-251 209.23,-251 209.23,-251 285.23,-251 285.23,-251 291.23,-251 297.23,-257 297.23,-263 297.23,-263 297.23,-275 297.23,-275 297.23,-281 291.23,-287 285.23,-287"/>
<text text-anchor="middle" x="247.23" y="-263.75" font-family="Arial" font-size="15.00">layers_panel</text>
</g>
<!-- /lib/panels/layers_panel.dart&#45;&gt;/lib/models/app_model.dart -->
<g id="edge5" class="edge">
<title>/lib/panels/layers_panel.dart&#45;&gt;/lib/models/app_model.dart</title>
<path fill="none" stroke="#aabbaa" stroke-width="1.3" stroke-opacity="0.533333" d="M201.02,-250.64C195.62,-248.24 190.25,-245.67 185.23,-243 172.09,-236.01 158.38,-227.16 146.55,-218.96"/>
<polygon fill="#aabbaa" fill-opacity="0.533333" stroke="#aabbaa" stroke-width="1.3" stroke-opacity="0.533333" points="148.91,-216.34 138.72,-213.43 144.87,-222.06 148.91,-216.34"/>
</g>
<!-- /lib/models/layers.dart -->
<g id="node6" class="node">
<title>/lib/models/layers.dart</title>
<path fill="Lavender" stroke="black" stroke-width="1.3" d="M130.1,-140C130.1,-140 98.35,-140 98.35,-140 92.35,-140 86.35,-134 86.35,-128 86.35,-128 86.35,-116 86.35,-116 86.35,-110 92.35,-104 98.35,-104 98.35,-104 130.1,-104 130.1,-104 136.1,-104 142.1,-110 142.1,-116 142.1,-116 142.1,-128 142.1,-128 142.1,-134 136.1,-140 130.1,-140"/>
<text text-anchor="middle" x="114.23" y="-116.75" font-family="Arial" font-size="15.00">layers</text>
</g>
<!-- /lib/models/layers.dart&#45;&gt;/lib/models/shapes.dart -->
<g id="edge6" class="edge">
<title>/lib/models/layers.dart&#45;&gt;/lib/models/shapes.dart</title>
<path fill="none" stroke="#aabbaa" stroke-width="1.3" stroke-opacity="0.533333" d="M108.31,-103.7C107.57,-96.49 107.32,-87.93 107.57,-79.82"/>
<polygon fill="#aabbaa" fill-opacity="0.533333" stroke="#aabbaa" stroke-width="1.3" stroke-opacity="0.533333" points="111.05,-80.27 108.2,-70.07 104.06,-79.82 111.05,-80.27"/>
</g>
<!-- /lib/models/layers.dart&#45;&gt;/lib/models/shapes.dart -->
<g id="edge7" class="edge">
<title>/lib/models/layers.dart&#45;&gt;/lib/models/shapes.dart</title>
<path fill="none" stroke="#aabbaa" stroke-width="1.3" stroke-dasharray="5,2" stroke-opacity="0.533333" d="M120.14,-103.7C120.88,-96.49 121.13,-87.93 120.88,-79.82"/>
<polygon fill="#aabbaa" fill-opacity="0.533333" stroke="#aabbaa" stroke-width="1.3" stroke-opacity="0.533333" points="124.39,-79.82 120.25,-70.07 117.4,-80.27 124.39,-79.82"/>
</g>
<!-- /lib/models/app_model.dart&#45;&gt;/lib/models/layers.dart -->
<g id="edge8" class="edge">
<title>/lib/models/app_model.dart&#45;&gt;/lib/models/layers.dart</title>
<path fill="none" stroke="#aabbaa" stroke-width="1.3" stroke-opacity="0.533333" d="M108.31,-175.7C107.57,-168.49 107.32,-159.93 107.57,-151.82"/>
<polygon fill="#aabbaa" fill-opacity="0.533333" stroke="#aabbaa" stroke-width="1.3" stroke-opacity="0.533333" points="111.05,-152.27 108.2,-142.07 104.06,-151.82 111.05,-152.27"/>
</g>
<!-- /lib/models/app_model.dart&#45;&gt;/lib/models/layers.dart -->
<g id="edge9" class="edge">
<title>/lib/models/app_model.dart&#45;&gt;/lib/models/layers.dart</title>
<path fill="none" stroke="#aabbaa" stroke-width="1.3" stroke-dasharray="5,2" stroke-opacity="0.533333" d="M120.14,-175.7C120.88,-168.49 121.13,-159.93 120.88,-151.82"/>
<polygon fill="#aabbaa" fill-opacity="0.533333" stroke="#aabbaa" stroke-width="1.3" stroke-opacity="0.533333" points="124.39,-151.82 120.25,-142.07 117.4,-152.27 124.39,-151.82"/>
</g>
<!-- /lib/main.dart&#45;&gt;/lib/models/app_model.dart -->
<g id="edge11" class="edge">
<title>/lib/main.dart&#45;&gt;/lib/models/app_model.dart</title>
<path fill="none" stroke="#aabbaa" stroke-width="1.3" stroke-opacity="0.533333" d="M153.88,-401.6C125.47,-385.96 82.63,-357.16 64.23,-318 51.56,-291.05 53.61,-278.82 64.23,-251 68.5,-239.79 76.16,-229.41 84.23,-220.7"/>
<polygon fill="#aabbaa" fill-opacity="0.533333" stroke="#aabbaa" stroke-width="1.3" stroke-opacity="0.533333" points="86.67,-223.21 91.26,-213.66 81.71,-218.26 86.67,-223.21"/>
</g>
<!-- /lib/home_screen.dart -->
<g id="node11" class="node">
<title>/lib/home_screen.dart</title>
<path fill="Lavender" stroke="black" stroke-width="1.3" d="M222.6,-362C222.6,-362 139.85,-362 139.85,-362 133.85,-362 127.85,-356 127.85,-350 127.85,-350 127.85,-338 127.85,-338 127.85,-332 133.85,-326 139.85,-326 139.85,-326 222.6,-326 222.6,-326 228.6,-326 234.6,-332 234.6,-338 234.6,-338 234.6,-350 234.6,-350 234.6,-356 228.6,-362 222.6,-362"/>
<text text-anchor="middle" x="181.23" y="-338.75" font-family="Arial" font-size="15.00">home_screen</text>
</g>
<!-- /lib/main.dart&#45;&gt;/lib/home_screen.dart -->
<g id="edge10" class="edge">
<title>/lib/main.dart&#45;&gt;/lib/home_screen.dart</title>
<path fill="none" stroke="#aabbaa" stroke-width="1.3" stroke-opacity="0.533333" d="M181.23,-397.7C181.23,-390.49 181.23,-381.93 181.23,-373.82"/>
<polygon fill="#aabbaa" fill-opacity="0.533333" stroke="#aabbaa" stroke-width="1.3" stroke-opacity="0.533333" points="184.73,-374.07 181.23,-364.07 177.73,-374.07 184.73,-374.07"/>
</g>
<!-- /lib/my_canvas.dart -->
<g id="node10" class="node">
<title>/lib/my_canvas.dart</title>
<path fill="Lavender" stroke="black" stroke-width="1.3" d="M167.1,-287C167.1,-287 99.35,-287 99.35,-287 93.35,-287 87.35,-281 87.35,-275 87.35,-275 87.35,-263 87.35,-263 87.35,-257 93.35,-251 99.35,-251 99.35,-251 167.1,-251 167.1,-251 173.1,-251 179.1,-257 179.1,-263 179.1,-263 179.1,-275 179.1,-275 179.1,-281 173.1,-287 167.1,-287"/>
<text text-anchor="middle" x="133.23" y="-263.75" font-family="Arial" font-size="15.00">my_canvas</text>
</g>
<!-- /lib/my_canvas.dart&#45;&gt;/lib/models/app_model.dart -->
<g id="edge12" class="edge">
<title>/lib/my_canvas.dart&#45;&gt;/lib/models/app_model.dart</title>
<path fill="none" stroke="#aabbaa" stroke-width="1.3" stroke-opacity="0.533333" d="M128.72,-250.7C126.63,-242.67 124.09,-232.9 121.72,-223.8"/>
<polygon fill="#aabbaa" fill-opacity="0.533333" stroke="#aabbaa" stroke-width="1.3" stroke-opacity="0.533333" points="125.16,-223.13 119.26,-214.33 118.39,-224.89 125.16,-223.13"/>
</g>
<!-- /lib/home_screen.dart&#45;&gt;/lib/panels/tools_panel.dart -->
<g id="edge14" class="edge">
<title>/lib/home_screen.dart&#45;&gt;/lib/panels/tools_panel.dart</title>
<path fill="none" stroke="#aabbaa" stroke-width="1.3" stroke-opacity="0.533333" d="M234.89,-338.47C257.76,-334.99 284.19,-328.85 306.23,-318 317.65,-312.37 328.58,-303.77 337.65,-295.39"/>
<polygon fill="#aabbaa" fill-opacity="0.533333" stroke="#aabbaa" stroke-width="1.3" stroke-opacity="0.533333" points="339.92,-298.07 344.63,-288.58 335.03,-293.05 339.92,-298.07"/>
</g>
<!-- /lib/home_screen.dart&#45;&gt;/lib/panels/layers_panel.dart -->
<g id="edge13" class="edge">
<title>/lib/home_screen.dart&#45;&gt;/lib/panels/layers_panel.dart</title>
<path fill="none" stroke="#aabbaa" stroke-width="1.3" stroke-opacity="0.533333" d="M196.87,-325.7C204.86,-316.86 214.76,-305.91 223.66,-296.07"/>
<polygon fill="#aabbaa" fill-opacity="0.533333" stroke="#aabbaa" stroke-width="1.3" stroke-opacity="0.533333" points="226.04,-298.65 230.15,-288.89 220.85,-293.96 226.04,-298.65"/>
</g>
<!-- /lib/home_screen.dart&#45;&gt;/lib/models/app_model.dart -->
<g id="edge15" class="edge">
<title>/lib/home_screen.dart&#45;&gt;/lib/models/app_model.dart</title>
<path fill="none" stroke="#aabbaa" stroke-width="1.3" stroke-opacity="0.533333" d="M127.58,-336.12C106.03,-332.16 84.74,-326.28 78.23,-318 56.15,-289.93 75.91,-248.71 93.72,-221.86"/>
<polygon fill="#aabbaa" fill-opacity="0.533333" stroke="#aabbaa" stroke-width="1.3" stroke-opacity="0.533333" points="96.39,-224.15 99.23,-213.95 90.64,-220.15 96.39,-224.15"/>
</g>
<!-- /lib/home_screen.dart&#45;&gt;/lib/my_canvas.dart -->
<g id="edge16" class="edge">
<title>/lib/home_screen.dart&#45;&gt;/lib/my_canvas.dart</title>
<path fill="none" stroke="#aabbaa" stroke-width="1.3" stroke-opacity="0.533333" d="M169.85,-325.7C164.27,-317.22 157.42,-306.8 151.16,-297.28"/>
<polygon fill="#aabbaa" fill-opacity="0.533333" stroke="#aabbaa" stroke-width="1.3" stroke-opacity="0.533333" points="154.19,-295.51 145.77,-289.07 148.34,-299.35 154.19,-295.51"/>
</g>
</g>
</svg>
