<?xml version="1.0" encoding="UTF-8" standalone="no"?>
<!DOCTYPE svg PUBLIC "-//W3C//DTD SVG 1.1//EN"
 "http://www.w3.org/Graphics/SVG/1.1/DTD/svg11.dtd">
<!-- Generated by graphviz version 12.2.1 (20241206.2353)
 -->
<!-- Pages: 1 -->
<svg width="600pt" height="448pt"
 viewBox="0.00 0.00 600.00 448.00" xmlns="http://www.w3.org/2000/svg" xmlns:xlink="http://www.w3.org/1999/xlink">
<g id="graph0" class="graph" transform="scale(1 1) rotate(0) translate(4 444)">
<polygon fill="white" stroke="none" points="-4,4 -4,-444 596,-444 596,4 -4,4"/>
<g id="clust1" class="cluster">
<title>cluster~</title>
<path fill="none" stroke="lightgray" stroke-width="2.6" d="M20,-8C20,-8 572,-8 572,-8 578,-8 584,-14 584,-20 584,-20 584,-420 584,-420 584,-426 578,-432 572,-432 572,-432 20,-432 20,-432 14,-432 8,-426 8,-420 8,-420 8,-20 8,-20 8,-14 14,-8 20,-8"/>
<text text-anchor="middle" x="296" y="-415.65" font-family="Arial Black" font-size="13.00">fpaint</text>
</g>
<g id="clust2" class="cluster">
<title>cluster~/test</title>
<path fill="none" stroke="lightgray" stroke-width="2.6" d="M28,-326C28,-326 260,-326 260,-326 266,-326 272,-332 272,-338 272,-338 272,-389 272,-389 272,-395 266,-401 260,-401 260,-401 28,-401 28,-401 22,-401 16,-395 16,-389 16,-389 16,-338 16,-338 16,-332 22,-326 28,-326"/>
<text text-anchor="middle" x="144" y="-384.65" font-family="Arial Black" font-size="13.00">test</text>
</g>
<g id="clust3" class="cluster">
<title>cluster~/lib</title>
<path fill="none" stroke="lightgray" stroke-width="2.6" d="M28,-16C28,-16 564,-16 564,-16 570,-16 576,-22 576,-28 576,-28 576,-306 576,-306 576,-312 570,-318 564,-318 564,-318 28,-318 28,-318 22,-318 16,-312 16,-306 16,-306 16,-28 16,-28 16,-22 22,-16 28,-16"/>
<text text-anchor="middle" x="296" y="-301.65" font-family="Arial Black" font-size="13.00">lib</text>
</g>
<g id="clust4" class="cluster">
<title>cluster~/lib/panels</title>
<path fill="none" stroke="lightgray" stroke-width="2.6" d="M354,-24C354,-24 556,-24 556,-24 562,-24 568,-30 568,-36 568,-36 568,-159 568,-159 568,-165 562,-171 556,-171 556,-171 354,-171 354,-171 348,-171 342,-165 342,-159 342,-159 342,-36 342,-36 342,-30 348,-24 354,-24"/>
<text text-anchor="middle" x="455" y="-154.65" font-family="Arial Black" font-size="13.00">panels</text>
</g>
<g id="clust5" class="cluster">
<title>cluster~/lib/models</title>
<path fill="none" stroke="lightgray" stroke-width="2.6" d="M36,-24C36,-24 200,-24 200,-24 206,-24 212,-30 212,-36 212,-36 212,-159 212,-159 212,-165 206,-171 200,-171 200,-171 36,-171 36,-171 30,-171 24,-165 24,-159 24,-159 24,-36 24,-36 24,-30 30,-24 36,-24"/>
<text text-anchor="middle" x="118" y="-154.65" font-family="Arial Black" font-size="13.00">models</text>
</g>
<!-- /test/paint_model_test.dart -->
<g id="node1" class="node">
<title>/test/paint_model_test.dart</title>
<path fill="Lavender" stroke="black" stroke-width="1.3" d="M142,-370C142,-370 36,-370 36,-370 30,-370 24,-364 24,-358 24,-358 24,-346 24,-346 24,-340 30,-334 36,-334 36,-334 142,-334 142,-334 148,-334 154,-340 154,-346 154,-346 154,-358 154,-358 154,-364 148,-370 142,-370"/>
<text text-anchor="middle" x="89" y="-346.75" font-family="Arial" font-size="15.00">paint_model_test</text>
</g>
<!-- /lib/models/app_model.dart -->
<g id="node8" class="node">
<title>/lib/models/app_model.dart</title>
<path fill="Lavender" stroke="black" stroke-width="1.3" d="M109.75,-68C109.75,-68 44.25,-68 44.25,-68 38.25,-68 32.25,-62 32.25,-56 32.25,-56 32.25,-44 32.25,-44 32.25,-38 38.25,-32 44.25,-32 44.25,-32 109.75,-32 109.75,-32 115.75,-32 121.75,-38 121.75,-44 121.75,-44 121.75,-56 121.75,-56 121.75,-62 115.75,-68 109.75,-68"/>
<text text-anchor="middle" x="77" y="-44.75" font-family="Arial" font-size="15.00">app_model</text>
</g>
<!-- /test/paint_model_test.dart&#45;&gt;/lib/models/app_model.dart -->
<g id="edge1" class="edge">
<title>/test/paint_model_test.dart&#45;&gt;/lib/models/app_model.dart</title>
<path fill="none" stroke="#aabbaa" stroke-width="1.3" stroke-opacity="0.533333" d="M84.67,-333.63C83.6,-328.62 82.59,-323.12 82,-318 72.16,-231.95 74.02,-129.31 75.74,-80.11"/>
<polygon fill="#aabbaa" fill-opacity="0.533333" stroke="#aabbaa" stroke-width="1.3" stroke-opacity="0.533333" points="79.24,-80.35 76.12,-70.22 72.24,-80.08 79.24,-80.35"/>
</g>
<!-- /test/widget_test.dart -->
<g id="node2" class="node">
<title>/test/widget_test.dart</title>
<path fill="Lavender" stroke="black" stroke-width="1.3" d="M251.88,-370C251.88,-370 184.12,-370 184.12,-370 178.12,-370 172.12,-364 172.12,-358 172.12,-358 172.12,-346 172.12,-346 172.12,-340 178.12,-334 184.12,-334 184.12,-334 251.88,-334 251.88,-334 257.88,-334 263.88,-340 263.88,-346 263.88,-346 263.88,-358 263.88,-358 263.88,-364 257.88,-370 251.88,-370"/>
<text text-anchor="middle" x="218" y="-346.75" font-family="Arial" font-size="15.00">widget_test</text>
</g>
<!-- /lib/main.dart -->
<g id="node9" class="node">
<title>/lib/main.dart</title>
<path fill="Lavender" stroke="black" stroke-width="1.3" d="M233,-287C233,-287 203,-287 203,-287 197,-287 191,-281 191,-275 191,-275 191,-263 191,-263 191,-257 197,-251 203,-251 203,-251 233,-251 233,-251 239,-251 245,-257 245,-263 245,-263 245,-275 245,-275 245,-281 239,-287 233,-287"/>
<text text-anchor="middle" x="218" y="-263.75" font-family="Arial" font-size="15.00">main</text>
</g>
<!-- /test/widget_test.dart&#45;&gt;/lib/main.dart -->
<g id="edge2" class="edge">
<title>/test/widget_test.dart&#45;&gt;/lib/main.dart</title>
<path fill="none" stroke="#aabbaa" stroke-width="1.3" stroke-opacity="0.533333" d="M218,-333.82C218,-323.8 218,-310.88 218,-299.29"/>
<polygon fill="#aabbaa" fill-opacity="0.533333" stroke="#aabbaa" stroke-width="1.3" stroke-opacity="0.533333" points="221.5,-299.4 218,-289.4 214.5,-299.4 221.5,-299.4"/>
</g>
<!-- /lib/panels/tools_panel.dart -->
<g id="node3" class="node">
<title>/lib/panels/tools_panel.dart</title>
<path fill="Lavender" stroke="black" stroke-width="1.3" d="M547.88,-140C547.88,-140 480.12,-140 480.12,-140 474.12,-140 468.12,-134 468.12,-128 468.12,-128 468.12,-116 468.12,-116 468.12,-110 474.12,-104 480.12,-104 480.12,-104 547.88,-104 547.88,-104 553.88,-104 559.88,-110 559.88,-116 559.88,-116 559.88,-128 559.88,-128 559.88,-134 553.88,-140 547.88,-140"/>
<text text-anchor="middle" x="514" y="-116.75" font-family="Arial" font-size="15.00">tools_panel</text>
</g>
<!-- /lib/panels/tool.dart -->
<g id="node5" class="node">
<title>/lib/panels/tool.dart</title>
<path fill="Lavender" stroke="black" stroke-width="1.3" d="M529,-68C529,-68 499,-68 499,-68 493,-68 487,-62 487,-56 487,-56 487,-44 487,-44 487,-38 493,-32 499,-32 499,-32 529,-32 529,-32 535,-32 541,-38 541,-44 541,-44 541,-56 541,-56 541,-62 535,-68 529,-68"/>
<text text-anchor="middle" x="514" y="-44.75" font-family="Arial" font-size="15.00">tool</text>
</g>
<!-- /lib/panels/tools_panel.dart&#45;&gt;/lib/panels/tool.dart -->
<g id="edge4" class="edge">
<title>/lib/panels/tools_panel.dart&#45;&gt;/lib/panels/tool.dart</title>
<path fill="none" stroke="#aabbaa" stroke-width="1.3" stroke-opacity="0.533333" d="M514,-103.7C514,-96.49 514,-87.93 514,-79.82"/>
<polygon fill="#aabbaa" fill-opacity="0.533333" stroke="#aabbaa" stroke-width="1.3" stroke-opacity="0.533333" points="517.5,-80.07 514,-70.07 510.5,-80.07 517.5,-80.07"/>
</g>
<!-- /lib/models/shapes.dart -->
<g id="node7" class="node">
<title>/lib/models/shapes.dart</title>
<path fill="Lavender" stroke="black" stroke-width="1.3" d="M192,-68C192,-68 152,-68 152,-68 146,-68 140,-62 140,-56 140,-56 140,-44 140,-44 140,-38 146,-32 152,-32 152,-32 192,-32 192,-32 198,-32 204,-38 204,-44 204,-44 204,-56 204,-56 204,-62 198,-68 192,-68"/>
<text text-anchor="middle" x="172" y="-44.75" font-family="Arial" font-size="15.00">shapes</text>
</g>
<!-- /lib/panels/tools_panel.dart&#45;&gt;/lib/models/shapes.dart -->
<g id="edge3" class="edge">
<title>/lib/panels/tools_panel.dart&#45;&gt;/lib/models/shapes.dart</title>
<path fill="none" stroke="#aabbaa" stroke-width="1.3" stroke-opacity="0.533333" d="M467.9,-106.32C464.9,-105.5 461.91,-104.72 459,-104 373.74,-83.03 272.4,-66.16 215.82,-57.46"/>
<polygon fill="#aabbaa" fill-opacity="0.533333" stroke="#aabbaa" stroke-width="1.3" stroke-opacity="0.533333" points="216.47,-54.01 206.06,-55.97 215.42,-60.93 216.47,-54.01"/>
</g>
<!-- /lib/panels/layers_panel.dart -->
<g id="node4" class="node">
<title>/lib/panels/layers_panel.dart</title>
<path fill="Lavender" stroke="black" stroke-width="1.3" d="M438,-140C438,-140 362,-140 362,-140 356,-140 350,-134 350,-128 350,-128 350,-116 350,-116 350,-110 356,-104 362,-104 362,-104 438,-104 438,-104 444,-104 450,-110 450,-116 450,-116 450,-128 450,-128 450,-134 444,-140 438,-140"/>
<text text-anchor="middle" x="400" y="-116.75" font-family="Arial" font-size="15.00">layers_panel</text>
</g>
<!-- /lib/panels/layers_panel.dart&#45;&gt;/lib/models/app_model.dart -->
<g id="edge5" class="edge">
<title>/lib/panels/layers_panel.dart&#45;&gt;/lib/models/app_model.dart</title>
<path fill="none" stroke="#aabbaa" stroke-width="1.3" stroke-opacity="0.533333" d="M349.76,-104.93C348.5,-104.61 347.24,-104.3 346,-104 255.38,-82.26 227.34,-89.95 133.69,-68.44"/>
<polygon fill="#aabbaa" fill-opacity="0.533333" stroke="#aabbaa" stroke-width="1.3" stroke-opacity="0.533333" points="134.7,-65.08 124.16,-66.2 133.09,-71.9 134.7,-65.08"/>
</g>
<!-- /lib/models/layers.dart -->
<g id="node6" class="node">
<title>/lib/models/layers.dart</title>
<path fill="Lavender" stroke="black" stroke-width="1.3" d="M139.88,-140C139.88,-140 108.12,-140 108.12,-140 102.12,-140 96.12,-134 96.12,-128 96.12,-128 96.12,-116 96.12,-116 96.12,-110 102.12,-104 108.12,-104 108.12,-104 139.88,-104 139.88,-104 145.88,-104 151.88,-110 151.88,-116 151.88,-116 151.88,-128 151.88,-128 151.88,-134 145.88,-140 139.88,-140"/>
<text text-anchor="middle" x="124" y="-116.75" font-family="Arial" font-size="15.00">layers</text>
</g>
<!-- /lib/models/layers.dart&#45;&gt;/lib/models/shapes.dart -->
<g id="edge7" class="edge">
<title>/lib/models/layers.dart&#45;&gt;/lib/models/shapes.dart</title>
<path fill="none" stroke="#aabbaa" stroke-width="1.3" stroke-opacity="0.533333" d="M129.95,-103.7C134.54,-95.81 140.84,-86.3 147.22,-77.55"/>
<polygon fill="#aabbaa" fill-opacity="0.533333" stroke="#aabbaa" stroke-width="1.3" stroke-opacity="0.533333" points="149.94,-79.76 153.19,-69.67 144.36,-75.53 149.94,-79.76"/>
</g>
<!-- /lib/models/layers.dart&#45;&gt;/lib/models/shapes.dart -->
<g id="edge8" class="edge">
<title>/lib/models/layers.dart&#45;&gt;/lib/models/shapes.dart</title>
<path fill="none" stroke="#aabbaa" stroke-width="1.3" stroke-dasharray="5,2" stroke-opacity="0.533333" d="M141.78,-103.7C147.87,-95.98 154.45,-86.71 160,-78.11"/>
<polygon fill="#aabbaa" fill-opacity="0.533333" stroke="#aabbaa" stroke-width="1.3" stroke-opacity="0.533333" points="162.87,-80.13 165.13,-69.78 156.91,-76.46 162.87,-80.13"/>
</g>
<!-- /lib/models/layers.dart&#45;&gt;/lib/models/app_model.dart -->
<g id="edge6" class="edge">
<title>/lib/models/layers.dart&#45;&gt;/lib/models/app_model.dart</title>
<path fill="none" stroke="#aabbaa" stroke-width="1.3" stroke-opacity="0.533333" d="M100.55,-103.7C93.85,-96.07 87.25,-86.92 82.18,-78.4"/>
<polygon fill="#aabbaa" fill-opacity="0.533333" stroke="#aabbaa" stroke-width="1.3" stroke-opacity="0.533333" points="85.41,-77.02 77.62,-69.84 79.24,-80.31 85.41,-77.02"/>
</g>
<!-- /lib/models/app_model.dart&#45;&gt;/lib/models/layers.dart -->
<g id="edge9" class="edge">
<title>/lib/models/app_model.dart&#45;&gt;/lib/models/layers.dart</title>
<path fill="none" stroke="#aabbaa" stroke-width="1.3" stroke-opacity="0.533333" d="M88.48,-68.1C93.7,-75.88 100,-85.26 105.84,-93.95"/>
<polygon fill="#aabbaa" fill-opacity="0.533333" stroke="#aabbaa" stroke-width="1.3" stroke-opacity="0.533333" points="102.81,-95.71 111.29,-102.06 108.62,-91.81 102.81,-95.71"/>
</g>
<!-- /lib/models/app_model.dart&#45;&gt;/lib/models/layers.dart -->
<g id="edge10" class="edge">
<title>/lib/models/app_model.dart&#45;&gt;/lib/models/layers.dart</title>
<path fill="none" stroke="#aabbaa" stroke-width="1.3" stroke-dasharray="5,2" stroke-opacity="0.533333" d="M100.27,-68.1C106.97,-75.71 113.59,-84.85 118.69,-93.38"/>
<polygon fill="#aabbaa" fill-opacity="0.533333" stroke="#aabbaa" stroke-width="1.3" stroke-opacity="0.533333" points="115.48,-94.8 123.28,-101.96 121.65,-91.49 115.48,-94.8"/>
</g>
<!-- /lib/main.dart&#45;&gt;/lib/models/app_model.dart -->
<g id="edge12" class="edge">
<title>/lib/main.dart&#45;&gt;/lib/models/app_model.dart</title>
<path fill="none" stroke="#aabbaa" stroke-width="1.3" stroke-opacity="0.533333" d="M215.81,-250.62C210.99,-218.55 196.9,-149.2 161,-104 151.61,-92.17 138.81,-82.24 126.03,-74.28"/>
<polygon fill="#aabbaa" fill-opacity="0.533333" stroke="#aabbaa" stroke-width="1.3" stroke-opacity="0.533333" points="127.96,-71.35 117.56,-69.32 124.42,-77.39 127.96,-71.35"/>
</g>
<!-- /lib/home_screen.dart -->
<g id="node11" class="node">
<title>/lib/home_screen.dart</title>
<path fill="Lavender" stroke="black" stroke-width="1.3" d="M372.38,-215C372.38,-215 289.62,-215 289.62,-215 283.62,-215 277.62,-209 277.62,-203 277.62,-203 277.62,-191 277.62,-191 277.62,-185 283.62,-179 289.62,-179 289.62,-179 372.38,-179 372.38,-179 378.38,-179 384.38,-185 384.38,-191 384.38,-191 384.38,-203 384.38,-203 384.38,-209 378.38,-215 372.38,-215"/>
<text text-anchor="middle" x="331" y="-191.75" font-family="Arial" font-size="15.00">home_screen</text>
</g>
<!-- /lib/main.dart&#45;&gt;/lib/home_screen.dart -->
<g id="edge11" class="edge">
<title>/lib/main.dart&#45;&gt;/lib/home_screen.dart</title>
<path fill="none" stroke="#aabbaa" stroke-width="1.3" stroke-opacity="0.533333" d="M245.35,-251.05C259.71,-242.16 277.53,-231.12 293.19,-221.42"/>
<polygon fill="#aabbaa" fill-opacity="0.533333" stroke="#aabbaa" stroke-width="1.3" stroke-opacity="0.533333" points="294.78,-224.55 301.44,-216.31 291.1,-218.6 294.78,-224.55"/>
</g>
<!-- /lib/my_canvas.dart -->
<g id="node10" class="node">
<title>/lib/my_canvas.dart</title>
<path fill="Lavender" stroke="black" stroke-width="1.3" d="M299.88,-140C299.88,-140 232.12,-140 232.12,-140 226.12,-140 220.12,-134 220.12,-128 220.12,-128 220.12,-116 220.12,-116 220.12,-110 226.12,-104 232.12,-104 232.12,-104 299.88,-104 299.88,-104 305.88,-104 311.88,-110 311.88,-116 311.88,-116 311.88,-128 311.88,-128 311.88,-134 305.88,-140 299.88,-140"/>
<text text-anchor="middle" x="266" y="-116.75" font-family="Arial" font-size="15.00">my_canvas</text>
</g>
<!-- /lib/my_canvas.dart&#45;&gt;/lib/models/app_model.dart -->
<g id="edge13" class="edge">
<title>/lib/my_canvas.dart&#45;&gt;/lib/models/app_model.dart</title>
<path fill="none" stroke="#aabbaa" stroke-width="1.3" stroke-opacity="0.533333" d="M219.77,-103.88C193.64,-94.2 160.79,-82.03 133.18,-71.81"/>
<polygon fill="#aabbaa" fill-opacity="0.533333" stroke="#aabbaa" stroke-width="1.3" stroke-opacity="0.533333" points="134.54,-68.58 123.95,-68.39 132.11,-75.14 134.54,-68.58"/>
</g>
<!-- /lib/home_screen.dart&#45;&gt;/lib/panels/tools_panel.dart -->
<g id="edge15" class="edge">
<title>/lib/home_screen.dart&#45;&gt;/lib/panels/tools_panel.dart</title>
<path fill="none" stroke="#aabbaa" stroke-width="1.3" stroke-opacity="0.533333" d="M384.69,-191.84C408.39,-188.44 436.02,-182.25 459,-171 470.44,-165.4 481.37,-156.8 490.44,-148.42"/>
<polygon fill="#aabbaa" fill-opacity="0.533333" stroke="#aabbaa" stroke-width="1.3" stroke-opacity="0.533333" points="492.71,-151.09 497.42,-141.6 487.82,-146.08 492.71,-151.09"/>
</g>
<!-- /lib/home_screen.dart&#45;&gt;/lib/panels/layers_panel.dart -->
<g id="edge14" class="edge">
<title>/lib/home_screen.dart&#45;&gt;/lib/panels/layers_panel.dart</title>
<path fill="none" stroke="#aabbaa" stroke-width="1.3" stroke-opacity="0.533333" d="M347.35,-178.7C355.71,-169.86 366.06,-158.91 375.36,-149.07"/>
<polygon fill="#aabbaa" fill-opacity="0.533333" stroke="#aabbaa" stroke-width="1.3" stroke-opacity="0.533333" points="377.85,-151.53 382.17,-141.86 372.76,-146.72 377.85,-151.53"/>
</g>
<!-- /lib/home_screen.dart&#45;&gt;/lib/models/app_model.dart -->
<g id="edge16" class="edge">
<title>/lib/home_screen.dart&#45;&gt;/lib/models/app_model.dart</title>
<path fill="none" stroke="#aabbaa" stroke-width="1.3" stroke-opacity="0.533333" d="M334.65,-178.62C337.86,-158.05 339.54,-124.06 321,-104 265.18,-43.59 218.53,-85.02 133.64,-68.22"/>
<polygon fill="#aabbaa" fill-opacity="0.533333" stroke="#aabbaa" stroke-width="1.3" stroke-opacity="0.533333" points="134.41,-64.81 123.89,-66.02 132.87,-71.64 134.41,-64.81"/>
</g>
<!-- /lib/home_screen.dart&#45;&gt;/lib/my_canvas.dart -->
<g id="edge17" class="edge">
<title>/lib/home_screen.dart&#45;&gt;/lib/my_canvas.dart</title>
<path fill="none" stroke="#aabbaa" stroke-width="1.3" stroke-opacity="0.533333" d="M315.6,-178.7C307.8,-169.95 298.17,-159.13 289.48,-149.37"/>
<polygon fill="#aabbaa" fill-opacity="0.533333" stroke="#aabbaa" stroke-width="1.3" stroke-opacity="0.533333" points="292.09,-147.04 282.83,-141.9 286.86,-151.69 292.09,-147.04"/>
</g>
</g>
</svg>
