<?xml version="1.0" encoding="UTF-8" standalone="no"?>
<!DOCTYPE svg PUBLIC "-//W3C//DTD SVG 1.1//EN"
 "http://www.w3.org/Graphics/SVG/1.1/DTD/svg11.dtd">
<!-- Generated by graphviz version 12.2.1 (20241206.2353)
 -->
<!-- Pages: 1 -->
<svg width="3708pt" height="922pt"
 viewBox="0.00 0.00 3707.60 922.00" xmlns="http://www.w3.org/2000/svg" xmlns:xlink="http://www.w3.org/1999/xlink">
<g id="graph0" class="graph" transform="scale(1 1) rotate(0) translate(4 918)">
<polygon fill="white" stroke="none" points="-4,4 -4,-918 3703.6,-918 3703.6,4 -4,4"/>
<g id="clust1" class="cluster">
<title>cluster~</title>
<path fill="none" stroke="lightgray" stroke-width="2.6" d="M20,-8C20,-8 3636,-8 3636,-8 3642,-8 3648,-14 3648,-20 3648,-20 3648,-894 3648,-894 3648,-900 3642,-906 3636,-906 3636,-906 20,-906 20,-906 14,-906 8,-900 8,-894 8,-894 8,-20 8,-20 8,-14 14,-8 20,-8"/>
<text text-anchor="middle" x="1828" y="-889.65" font-family="Arial Black" font-size="13.00">fpaint</text>
</g>
<g id="clust2" class="cluster">
<title>cluster~/test</title>
<path fill="none" stroke="lightgray" stroke-width="2.6" d="M28,-722C28,-722 785,-722 785,-722 791,-722 797,-728 797,-734 797,-734 797,-863 797,-863 797,-869 791,-875 785,-875 785,-875 28,-875 28,-875 22,-875 16,-869 16,-863 16,-863 16,-734 16,-734 16,-728 22,-722 28,-722"/>
<text text-anchor="middle" x="406.5" y="-858.65" font-family="Arial Black" font-size="13.00">test</text>
</g>
<g id="clust3" class="cluster">
<title>cluster~/test/panels</title>
<path fill="none" stroke="lightgray" stroke-width="2.6" d="M303,-730C303,-730 415,-730 415,-730 421,-730 427,-736 427,-742 427,-742 427,-832 427,-832 427,-838 421,-844 415,-844 415,-844 303,-844 303,-844 297,-844 291,-838 291,-832 291,-832 291,-742 291,-742 291,-736 297,-730 303,-730"/>
<text text-anchor="middle" x="359" y="-827.65" font-family="Arial Black" font-size="13.00">panels</text>
</g>
<g id="clust4" class="cluster">
<title>cluster~/test/panels/tools</title>
<path fill="none" stroke="lightgray" stroke-width="2.6" d="M311,-738C311,-738 407,-738 407,-738 413,-738 419,-744 419,-750 419,-750 419,-801 419,-801 419,-807 413,-813 407,-813 407,-813 311,-813 311,-813 305,-813 299,-807 299,-801 299,-801 299,-750 299,-750 299,-744 305,-738 311,-738"/>
<text text-anchor="middle" x="359" y="-796.65" font-family="Arial Black" font-size="13.00">tools</text>
</g>
<g id="clust5" class="cluster">
<title>cluster~/test/models</title>
<path fill="none" stroke="lightgray" stroke-width="2.6" d="M36,-738C36,-738 172,-738 172,-738 178,-738 184,-744 184,-750 184,-750 184,-801 184,-801 184,-807 178,-813 172,-813 172,-813 36,-813 36,-813 30,-813 24,-807 24,-801 24,-801 24,-750 24,-750 24,-744 30,-738 36,-738"/>
<text text-anchor="middle" x="104" y="-796.65" font-family="Arial Black" font-size="13.00">models</text>
</g>
<g id="clust6" class="cluster">
<title>cluster~/lib</title>
<path fill="none" stroke="lightgray" stroke-width="2.6" d="M60,-16C60,-16 3616,-16 3616,-16 3622,-16 3628,-22 3628,-28 3628,-28 3628,-702 3628,-702 3628,-708 3622,-714 3616,-714 3616,-714 60,-714 60,-714 54,-714 48,-708 48,-702 48,-702 48,-28 48,-28 48,-22 54,-16 60,-16"/>
<text text-anchor="middle" x="1838" y="-697.65" font-family="Arial Black" font-size="13.00">lib</text>
</g>
<g id="clust7" class="cluster">
<title>cluster~/lib/panels</title>
<path fill="none" stroke="lightgray" stroke-width="2.6" d="M1257,-251C1257,-251 2118,-251 2118,-251 2124,-251 2130,-257 2130,-263 2130,-263 2130,-555 2130,-555 2130,-561 2124,-567 2118,-567 2118,-567 1257,-567 1257,-567 1251,-567 1245,-561 1245,-555 1245,-555 1245,-263 1245,-263 1245,-257 1251,-251 1257,-251"/>
<text text-anchor="middle" x="1687.5" y="-550.65" font-family="Arial Black" font-size="13.00">panels</text>
</g>
<g id="clust8" class="cluster">
<title>cluster~/lib/panels/tools</title>
<path fill="none" stroke="lightgray" stroke-width="2.6" d="M1265,-342C1265,-342 1537,-342 1537,-342 1543,-342 1549,-348 1549,-354 1549,-354 1549,-480 1549,-480 1549,-486 1543,-492 1537,-492 1537,-492 1265,-492 1265,-492 1259,-492 1253,-486 1253,-480 1253,-480 1253,-354 1253,-354 1253,-348 1259,-342 1265,-342"/>
<text text-anchor="middle" x="1401" y="-475.65" font-family="Arial Black" font-size="13.00">tools</text>
</g>
<g id="clust9" class="cluster">
<title>cluster~/lib/panels/layers</title>
<path fill="none" stroke="lightgray" stroke-width="2.6" d="M1819,-259C1819,-259 2048,-259 2048,-259 2054,-259 2060,-265 2060,-271 2060,-271 2060,-480 2060,-480 2060,-486 2054,-492 2048,-492 2048,-492 1819,-492 1819,-492 1813,-492 1807,-486 1807,-480 1807,-480 1807,-271 1807,-271 1807,-265 1813,-259 1819,-259"/>
<text text-anchor="middle" x="1933.5" y="-475.65" font-family="Arial Black" font-size="13.00">layers</text>
</g>
<g id="clust10" class="cluster">
<title>cluster~/lib/models</title>
<path fill="none" stroke="lightgray" stroke-width="2.6" d="M991,-96C991,-96 1225,-96 1225,-96 1231,-96 1237,-102 1237,-108 1237,-108 1237,-405 1237,-405 1237,-411 1231,-417 1225,-417 1225,-417 991,-417 991,-417 985,-417 979,-411 979,-405 979,-405 979,-108 979,-108 979,-102 985,-96 991,-96"/>
<text text-anchor="middle" x="1108" y="-400.65" font-family="Arial Black" font-size="13.00">models</text>
</g>
<g id="clust11" class="cluster">
<title>cluster~/lib/files</title>
<path fill="none" stroke="lightgray" stroke-width="2.6" d="M100,-259C100,-259 887,-259 887,-259 893,-259 899,-265 899,-271 899,-271 899,-405 899,-405 899,-411 893,-417 887,-417 887,-417 100,-417 100,-417 94,-417 88,-411 88,-405 88,-405 88,-271 88,-271 88,-265 94,-259 100,-259"/>
<text text-anchor="middle" x="493.5" y="-400.65" font-family="Arial Black" font-size="13.00">files</text>
</g>
<g id="clust12" class="cluster">
<title>cluster~/lib/helpers</title>
<path fill="none" stroke="lightgray" stroke-width="2.6" d="M1257,-24C1257,-24 1355,-24 1355,-24 1361,-24 1367,-30 1367,-36 1367,-36 1367,-231 1367,-231 1367,-237 1361,-243 1355,-243 1355,-243 1257,-243 1257,-243 1251,-243 1245,-237 1245,-231 1245,-231 1245,-36 1245,-36 1245,-30 1251,-24 1257,-24"/>
<text text-anchor="middle" x="1306" y="-226.65" font-family="Arial Black" font-size="13.00">helpers</text>
</g>
<g id="clust13" class="cluster">
<title>cluster~/lib/widgets</title>
<path fill="none" stroke="lightgray" stroke-width="2.6" d="M2150,-168C2150,-168 3576,-168 3576,-168 3582,-168 3588,-174 3588,-180 3588,-180 3588,-322 3588,-322 3588,-328 3582,-334 3576,-334 3576,-334 2150,-334 2150,-334 2144,-334 2138,-328 2138,-322 2138,-322 2138,-180 2138,-180 2138,-174 2144,-168 2150,-168"/>
<text text-anchor="middle" x="2863" y="-317.65" font-family="Arial Black" font-size="13.00">widgets</text>
</g>
<!-- /test/paint_model_test.dart -->
<g id="node1" class="node">
<title>/test/paint_model_test.dart</title>
<path fill="Lavender" stroke="black" stroke-width="1.3" d="M777,-782C777,-782 671,-782 671,-782 665,-782 659,-776 659,-770 659,-770 659,-758 659,-758 659,-752 665,-746 671,-746 671,-746 777,-746 777,-746 783,-746 789,-752 789,-758 789,-758 789,-770 789,-770 789,-776 783,-782 777,-782"/>
<text text-anchor="middle" x="724" y="-758.75" font-family="Arial" font-size="15.00">paint_model_test</text>
</g>
<!-- /lib/models/app_model.dart -->
<g id="node25" class="node">
<title>/lib/models/app_model.dart</title>
<path fill="Lavender" stroke="black" stroke-width="1.3" d="M1084.75,-212C1084.75,-212 1019.25,-212 1019.25,-212 1013.25,-212 1007.25,-206 1007.25,-200 1007.25,-200 1007.25,-188 1007.25,-188 1007.25,-182 1013.25,-176 1019.25,-176 1019.25,-176 1084.75,-176 1084.75,-176 1090.75,-176 1096.75,-182 1096.75,-188 1096.75,-188 1096.75,-200 1096.75,-200 1096.75,-206 1090.75,-212 1084.75,-212"/>
<text text-anchor="middle" x="1052" y="-188.75" font-family="Arial" font-size="15.00">app_model</text>
</g>
<!-- /test/paint_model_test.dart&#45;&gt;/lib/models/app_model.dart -->
<g id="edge1" class="edge">
<title>/test/paint_model_test.dart&#45;&gt;/lib/models/app_model.dart</title>
<path fill="none" stroke="#aabbaa" stroke-width="1.3" stroke-opacity="0.533333" d="M789.32,-762.73C1220.37,-760.56 3639,-741.76 3639,-594 3639,-594 3639,-594 3639,-367 3639,-329.57 3615.37,-266.31 3592,-251 3577.68,-241.62 1142.41,-247.89 1126,-243 1109.86,-238.2 1093.93,-228.66 1081.01,-219.35"/>
<polygon fill="#aabbaa" fill-opacity="0.533333" stroke="#aabbaa" stroke-width="1.3" stroke-opacity="0.533333" points="1083.42,-216.78 1073.33,-213.54 1079.19,-222.36 1083.42,-216.78"/>
</g>
<!-- /test/panels/tools/flood_fill_test.dart -->
<g id="node2" class="node">
<title>/test/panels/tools/flood_fill_test.dart</title>
<path fill="Lavender" stroke="black" stroke-width="1.3" d="M398.5,-782C398.5,-782 319.5,-782 319.5,-782 313.5,-782 307.5,-776 307.5,-770 307.5,-770 307.5,-758 307.5,-758 307.5,-752 313.5,-746 319.5,-746 319.5,-746 398.5,-746 398.5,-746 404.5,-746 410.5,-752 410.5,-758 410.5,-758 410.5,-770 410.5,-770 410.5,-776 404.5,-782 398.5,-782"/>
<text text-anchor="middle" x="359" y="-758.75" font-family="Arial" font-size="15.00">flood_fill_test</text>
</g>
<!-- /lib/panels/tools/flood_fill.dart -->
<g id="node9" class="node">
<title>/lib/panels/tools/flood_fill.dart</title>
<path fill="Lavender" stroke="black" stroke-width="1.3" d="M1351,-461C1351,-461 1305,-461 1305,-461 1299,-461 1293,-455 1293,-449 1293,-449 1293,-437 1293,-437 1293,-431 1299,-425 1305,-425 1305,-425 1351,-425 1351,-425 1357,-425 1363,-431 1363,-437 1363,-437 1363,-449 1363,-449 1363,-455 1357,-461 1351,-461"/>
<text text-anchor="middle" x="1328" y="-437.75" font-family="Arial" font-size="15.00">flood_fill</text>
</g>
<!-- /test/panels/tools/flood_fill_test.dart&#45;&gt;/lib/panels/tools/flood_fill.dart -->
<g id="edge2" class="edge">
<title>/test/panels/tools/flood_fill_test.dart&#45;&gt;/lib/panels/tools/flood_fill.dart</title>
<path fill="none" stroke="#aabbaa" stroke-width="1.3" stroke-opacity="0.533333" d="M341.81,-745.86C331.7,-736.98 318.16,-726.97 304,-722 291.83,-717.73 81.4,-722.83 72,-714 49.43,-692.79 41.26,-598 62,-575 145.29,-482.65 1061.08,-451.42 1280.81,-445.23"/>
<polygon fill="#aabbaa" fill-opacity="0.533333" stroke="#aabbaa" stroke-width="1.3" stroke-opacity="0.533333" points="1280.65,-448.73 1290.55,-444.96 1280.46,-441.74 1280.65,-448.73"/>
</g>
<!-- /test/models/canvas_resize_test.dart -->
<g id="node3" class="node">
<title>/test/models/canvas_resize_test.dart</title>
<path fill="Lavender" stroke="black" stroke-width="1.3" d="M164.12,-782C164.12,-782 43.87,-782 43.87,-782 37.88,-782 31.88,-776 31.88,-770 31.88,-770 31.88,-758 31.88,-758 31.88,-752 37.88,-746 43.88,-746 43.88,-746 164.12,-746 164.12,-746 170.12,-746 176.12,-752 176.12,-758 176.12,-758 176.12,-770 176.12,-770 176.12,-776 170.12,-782 164.12,-782"/>
<text text-anchor="middle" x="104" y="-758.75" font-family="Arial" font-size="15.00">canvas_resize_test</text>
</g>
<!-- /lib/models/canvas_resize.dart -->
<g id="node23" class="node">
<title>/lib/models/canvas_resize.dart</title>
<path fill="Lavender" stroke="black" stroke-width="1.3" d="M1086.62,-140C1086.62,-140 999.38,-140 999.38,-140 993.38,-140 987.38,-134 987.38,-128 987.38,-128 987.38,-116 987.38,-116 987.38,-110 993.38,-104 999.38,-104 999.38,-104 1086.62,-104 1086.62,-104 1092.62,-104 1098.62,-110 1098.62,-116 1098.62,-116 1098.62,-128 1098.62,-128 1098.62,-134 1092.62,-140 1086.62,-140"/>
<text text-anchor="middle" x="1043" y="-116.75" font-family="Arial" font-size="15.00">canvas_resize</text>
</g>
<!-- /test/models/canvas_resize_test.dart&#45;&gt;/lib/models/canvas_resize.dart -->
<g id="edge3" class="edge">
<title>/test/models/canvas_resize_test.dart&#45;&gt;/lib/models/canvas_resize.dart</title>
<path fill="none" stroke="#aabbaa" stroke-width="1.3" stroke-opacity="0.533333" d="M58.53,-745.61C44.78,-738.04 31.17,-727.69 23,-714 -4.38,-668.15 17,-647.4 17,-594 17,-594 17,-594 17,-284 17,-269.17 11.38,-261.35 22,-251 90.47,-184.27 758.41,-139.63 975.34,-126.8"/>
<polygon fill="#aabbaa" fill-opacity="0.533333" stroke="#aabbaa" stroke-width="1.3" stroke-opacity="0.533333" points="975.41,-130.31 985.18,-126.23 975,-123.32 975.41,-130.31"/>
</g>
<!-- /test/widget_test.dart -->
<g id="node4" class="node">
<title>/test/widget_test.dart</title>
<path fill="Lavender" stroke="black" stroke-width="1.3" d="M514.88,-782C514.88,-782 447.12,-782 447.12,-782 441.12,-782 435.12,-776 435.12,-770 435.12,-770 435.12,-758 435.12,-758 435.12,-752 441.12,-746 447.12,-746 447.12,-746 514.88,-746 514.88,-746 520.88,-746 526.88,-752 526.88,-758 526.88,-758 526.88,-770 526.88,-770 526.88,-776 520.88,-782 514.88,-782"/>
<text text-anchor="middle" x="481" y="-758.75" font-family="Arial" font-size="15.00">widget_test</text>
</g>
<!-- /lib/main.dart -->
<g id="node27" class="node">
<title>/lib/main.dart</title>
<path fill="Lavender" stroke="black" stroke-width="1.3" d="M496,-683C496,-683 466,-683 466,-683 460,-683 454,-677 454,-671 454,-671 454,-659 454,-659 454,-653 460,-647 466,-647 466,-647 496,-647 496,-647 502,-647 508,-653 508,-659 508,-659 508,-671 508,-671 508,-677 502,-683 496,-683"/>
<text text-anchor="middle" x="481" y="-659.75" font-family="Arial" font-size="15.00">main</text>
</g>
<!-- /test/widget_test.dart&#45;&gt;/lib/main.dart -->
<g id="edge4" class="edge">
<title>/test/widget_test.dart&#45;&gt;/lib/main.dart</title>
<path fill="none" stroke="#aabbaa" stroke-width="1.3" stroke-opacity="0.533333" d="M481,-745.66C481,-731.59 481,-711.45 481,-694.95"/>
<polygon fill="#aabbaa" fill-opacity="0.533333" stroke="#aabbaa" stroke-width="1.3" stroke-opacity="0.533333" points="484.5,-695.16 481,-685.16 477.5,-695.16 484.5,-695.16"/>
</g>
<!-- /test/file_xcf_test.dart -->
<g id="node5" class="node">
<title>/test/file_xcf_test.dart</title>
<path fill="Lavender" stroke="black" stroke-width="1.3" d="M628.75,-782C628.75,-782 557.25,-782 557.25,-782 551.25,-782 545.25,-776 545.25,-770 545.25,-770 545.25,-758 545.25,-758 545.25,-752 551.25,-746 557.25,-746 557.25,-746 628.75,-746 628.75,-746 634.75,-746 640.75,-752 640.75,-758 640.75,-758 640.75,-770 640.75,-770 640.75,-776 634.75,-782 628.75,-782"/>
<text text-anchor="middle" x="593" y="-758.75" font-family="Arial" font-size="15.00">file_xcf_test</text>
</g>
<!-- /lib/files/xcf_reader.dart -->
<g id="node28" class="node">
<title>/lib/files/xcf_reader.dart</title>
<path fill="Lavender" stroke="black" stroke-width="1.3" d="M298.62,-386C298.62,-386 235.38,-386 235.38,-386 229.38,-386 223.38,-380 223.38,-374 223.38,-374 223.38,-362 223.38,-362 223.38,-356 229.38,-350 235.38,-350 235.38,-350 298.62,-350 298.62,-350 304.62,-350 310.62,-356 310.62,-362 310.62,-362 310.62,-374 310.62,-374 310.62,-380 304.62,-386 298.62,-386"/>
<text text-anchor="middle" x="267" y="-362.75" font-family="Arial" font-size="15.00">xcf_reader</text>
</g>
<!-- /test/file_xcf_test.dart&#45;&gt;/lib/files/xcf_reader.dart -->
<g id="edge6" class="edge">
<title>/test/file_xcf_test.dart&#45;&gt;/lib/files/xcf_reader.dart</title>
<path fill="none" stroke="#aabbaa" stroke-width="1.3" stroke-opacity="0.533333" d="M610.87,-745.69C621.35,-736.75 635.39,-726.74 650,-722 663.16,-717.73 2633.03,-723.6 2643,-714 2681.45,-676.97 2648,-647.38 2648,-594 2648,-594 2648,-594 2648,-517 2648,-385.62 2195.09,-433.76 2064,-425 2039.82,-423.38 341.55,-425.88 319,-417 307.17,-412.34 296.4,-403.61 287.78,-394.85"/>
<polygon fill="#aabbaa" fill-opacity="0.533333" stroke="#aabbaa" stroke-width="1.3" stroke-opacity="0.533333" points="290.56,-392.71 281.23,-387.69 285.39,-397.43 290.56,-392.71"/>
</g>
<!-- /lib/files/assets_helper.dart -->
<g id="node29" class="node">
<title>/lib/files/assets_helper.dart</title>
<path fill="Lavender" stroke="black" stroke-width="1.3" d="M193.5,-386C193.5,-386 108.5,-386 108.5,-386 102.5,-386 96.5,-380 96.5,-374 96.5,-374 96.5,-362 96.5,-362 96.5,-356 102.5,-350 108.5,-350 108.5,-350 193.5,-350 193.5,-350 199.5,-350 205.5,-356 205.5,-362 205.5,-362 205.5,-374 205.5,-374 205.5,-380 199.5,-386 193.5,-386"/>
<text text-anchor="middle" x="151" y="-362.75" font-family="Arial" font-size="15.00">assets_helper</text>
</g>
<!-- /test/file_xcf_test.dart&#45;&gt;/lib/files/assets_helper.dart -->
<g id="edge5" class="edge">
<title>/test/file_xcf_test.dart&#45;&gt;/lib/files/assets_helper.dart</title>
<path fill="none" stroke="#aabbaa" stroke-width="1.3" stroke-opacity="0.533333" d="M574.86,-745.55C564.39,-736.69 550.46,-726.8 536,-722 524.03,-718.03 91.03,-722.81 82,-714 62.9,-695.36 77,-620.69 77,-594 77,-594 77,-594 77,-517 77,-476.05 63.39,-461.48 82,-425 88.34,-412.56 98.82,-401.92 109.72,-393.36"/>
<polygon fill="#aabbaa" fill-opacity="0.533333" stroke="#aabbaa" stroke-width="1.3" stroke-opacity="0.533333" points="111.7,-396.25 117.73,-387.54 107.58,-390.59 111.7,-396.25"/>
</g>
<!-- /test/layers_test.dart -->
<g id="node6" class="node">
<title>/test/layers_test.dart</title>
<path fill="Lavender" stroke="black" stroke-width="1.3" d="M271.38,-782C271.38,-782 206.62,-782 206.62,-782 200.62,-782 194.62,-776 194.62,-770 194.62,-770 194.62,-758 194.62,-758 194.62,-752 200.62,-746 206.62,-746 206.62,-746 271.38,-746 271.38,-746 277.38,-746 283.38,-752 283.38,-758 283.38,-758 283.38,-770 283.38,-770 283.38,-776 277.38,-782 271.38,-782"/>
<text text-anchor="middle" x="239" y="-758.75" font-family="Arial" font-size="15.00">layers_test</text>
</g>
<!-- /lib/models/layer.dart -->
<g id="node26" class="node">
<title>/lib/models/layer.dart</title>
<path fill="Lavender" stroke="black" stroke-width="1.3" d="M1205,-303C1205,-303 1175,-303 1175,-303 1169,-303 1163,-297 1163,-291 1163,-291 1163,-279 1163,-279 1163,-273 1169,-267 1175,-267 1175,-267 1205,-267 1205,-267 1211,-267 1217,-273 1217,-279 1217,-279 1217,-291 1217,-291 1217,-297 1211,-303 1205,-303"/>
<text text-anchor="middle" x="1190" y="-279.75" font-family="Arial" font-size="15.00">layer</text>
</g>
<!-- /test/layers_test.dart&#45;&gt;/lib/models/layer.dart -->
<g id="edge7" class="edge">
<title>/test/layers_test.dart&#45;&gt;/lib/models/layer.dart</title>
<path fill="none" stroke="#aabbaa" stroke-width="1.3" stroke-opacity="0.533333" d="M222.79,-745.57C213.53,-736.83 201.15,-727.05 188,-722 173.35,-716.37 58.24,-724.95 47,-714 8.66,-676.66 37,-647.52 37,-594 37,-594 37,-594 37,-442 37,-392.89 42.67,-368.53 84,-342 103.15,-329.71 880.34,-335.99 903,-334 992.59,-326.12 1096.38,-305.98 1151.29,-294.45"/>
<polygon fill="#aabbaa" fill-opacity="0.533333" stroke="#aabbaa" stroke-width="1.3" stroke-opacity="0.533333" points="1151.9,-297.9 1160.95,-292.4 1150.44,-291.05 1151.9,-297.9"/>
</g>
<!-- /lib/panels/about.dart -->
<g id="node7" class="node">
<title>/lib/panels/about.dart</title>
<path fill="Lavender" stroke="black" stroke-width="1.3" d="M2110,-386C2110,-386 2080,-386 2080,-386 2074,-386 2068,-380 2068,-374 2068,-374 2068,-362 2068,-362 2068,-356 2074,-350 2080,-350 2080,-350 2110,-350 2110,-350 2116,-350 2122,-356 2122,-362 2122,-362 2122,-374 2122,-374 2122,-380 2116,-386 2110,-386"/>
<text text-anchor="middle" x="2095" y="-362.75" font-family="Arial" font-size="15.00">about</text>
</g>
<!-- /lib/panels/tools/tool_selector.dart -->
<g id="node8" class="node">
<title>/lib/panels/tools/tool_selector.dart</title>
<path fill="Lavender" stroke="black" stroke-width="1.3" d="M1349.38,-386C1349.38,-386 1272.62,-386 1272.62,-386 1266.62,-386 1260.62,-380 1260.62,-374 1260.62,-374 1260.62,-362 1260.62,-362 1260.62,-356 1266.62,-350 1272.62,-350 1272.62,-350 1349.38,-350 1349.38,-350 1355.38,-350 1361.38,-356 1361.38,-362 1361.38,-362 1361.38,-374 1361.38,-374 1361.38,-380 1355.38,-386 1349.38,-386"/>
<text text-anchor="middle" x="1311" y="-362.75" font-family="Arial" font-size="15.00">tool_selector</text>
</g>
<!-- /lib/panels/tools/tools_panel.dart -->
<g id="node10" class="node">
<title>/lib/panels/tools/tools_panel.dart</title>
<path fill="Lavender" stroke="black" stroke-width="1.3" d="M1528.88,-461C1528.88,-461 1461.12,-461 1461.12,-461 1455.12,-461 1449.12,-455 1449.12,-449 1449.12,-449 1449.12,-437 1449.12,-437 1449.12,-431 1455.12,-425 1461.12,-425 1461.12,-425 1528.88,-425 1528.88,-425 1534.88,-425 1540.88,-431 1540.88,-437 1540.88,-437 1540.88,-449 1540.88,-449 1540.88,-455 1534.88,-461 1528.88,-461"/>
<text text-anchor="middle" x="1495" y="-437.75" font-family="Arial" font-size="15.00">tools_panel</text>
</g>
<!-- /lib/panels/tools/tools_panel.dart&#45;&gt;/lib/panels/tools/tool_selector.dart -->
<g id="edge11" class="edge">
<title>/lib/panels/tools/tools_panel.dart&#45;&gt;/lib/panels/tools/tool_selector.dart</title>
<path fill="none" stroke="#aabbaa" stroke-width="1.3" stroke-opacity="0.533333" d="M1448.78,-438.16C1424.44,-434.82 1394.63,-428.6 1370,-417 1357.87,-411.29 1346.08,-402.55 1336.27,-394.09"/>
<polygon fill="#aabbaa" fill-opacity="0.533333" stroke="#aabbaa" stroke-width="1.3" stroke-opacity="0.533333" points="1338.74,-391.61 1328.98,-387.5 1334.04,-396.8 1338.74,-391.61"/>
</g>
<!-- /lib/panels/tools/tool_attributes_widget.dart -->
<g id="node11" class="node">
<title>/lib/panels/tools/tool_attributes_widget.dart</title>
<path fill="Lavender" stroke="black" stroke-width="1.3" d="M1528.75,-386C1528.75,-386 1391.25,-386 1391.25,-386 1385.25,-386 1379.25,-380 1379.25,-374 1379.25,-374 1379.25,-362 1379.25,-362 1379.25,-356 1385.25,-350 1391.25,-350 1391.25,-350 1528.75,-350 1528.75,-350 1534.75,-350 1540.75,-356 1540.75,-362 1540.75,-362 1540.75,-374 1540.75,-374 1540.75,-380 1534.75,-386 1528.75,-386"/>
<text text-anchor="middle" x="1460" y="-362.75" font-family="Arial" font-size="15.00">tool_attributes_widget</text>
</g>
<!-- /lib/panels/tools/tools_panel.dart&#45;&gt;/lib/panels/tools/tool_attributes_widget.dart -->
<g id="edge10" class="edge">
<title>/lib/panels/tools/tools_panel.dart&#45;&gt;/lib/panels/tools/tool_attributes_widget.dart</title>
<path fill="none" stroke="#aabbaa" stroke-width="1.3" stroke-opacity="0.533333" d="M1486.71,-424.7C1482.77,-416.49 1477.96,-406.46 1473.52,-397.19"/>
<polygon fill="#aabbaa" fill-opacity="0.533333" stroke="#aabbaa" stroke-width="1.3" stroke-opacity="0.533333" points="1476.69,-395.71 1469.21,-388.2 1470.37,-398.73 1476.69,-395.71"/>
</g>
<!-- /lib/panels/tools/tools_panel.dart&#45;&gt;/lib/models/app_model.dart -->
<g id="edge9" class="edge">
<title>/lib/panels/tools/tools_panel.dart&#45;&gt;/lib/models/app_model.dart</title>
<path fill="none" stroke="#aabbaa" stroke-width="1.3" stroke-opacity="0.533333" d="M1448.7,-434.33C1425.71,-430.84 1397.46,-427.05 1372,-425 1362.5,-424.24 1035.66,-423.82 1029,-417 978.22,-365.02 1014.18,-270.06 1037.05,-222.99"/>
<polygon fill="#aabbaa" fill-opacity="0.533333" stroke="#aabbaa" stroke-width="1.3" stroke-opacity="0.533333" points="1040.14,-224.64 1041.5,-214.13 1033.88,-221.49 1040.14,-224.64"/>
</g>
<!-- /lib/helpers/color_helper.dart -->
<g id="node39" class="node">
<title>/lib/helpers/color_helper.dart</title>
<path fill="Lavender" stroke="black" stroke-width="1.3" d="M1346.88,-140C1346.88,-140 1273.12,-140 1273.12,-140 1267.12,-140 1261.12,-134 1261.12,-128 1261.12,-128 1261.12,-116 1261.12,-116 1261.12,-110 1267.12,-104 1273.12,-104 1273.12,-104 1346.88,-104 1346.88,-104 1352.88,-104 1358.88,-110 1358.88,-116 1358.88,-116 1358.88,-128 1358.88,-128 1358.88,-134 1352.88,-140 1346.88,-140"/>
<text text-anchor="middle" x="1310" y="-116.75" font-family="Arial" font-size="15.00">color_helper</text>
</g>
<!-- /lib/panels/tools/tools_panel.dart&#45;&gt;/lib/helpers/color_helper.dart -->
<g id="edge8" class="edge">
<title>/lib/panels/tools/tools_panel.dart&#45;&gt;/lib/helpers/color_helper.dart</title>
<path fill="none" stroke="#aabbaa" stroke-width="1.3" stroke-opacity="0.533333" d="M1448.71,-434.29C1425.71,-430.8 1397.47,-427.01 1372,-425 1361,-424.13 982.72,-424.88 975,-417 897.54,-337.96 900.96,-250.25 975,-168 1014.77,-123.83 1182.45,-150.24 1241,-140 1243.72,-139.52 1246.49,-139 1249.28,-138.45"/>
<polygon fill="#aabbaa" fill-opacity="0.533333" stroke="#aabbaa" stroke-width="1.3" stroke-opacity="0.533333" points="1249.82,-141.91 1258.87,-136.4 1248.36,-135.06 1249.82,-141.91"/>
</g>
<!-- /lib/widgets/svg_icon.dart -->
<g id="node41" class="node">
<title>/lib/widgets/svg_icon.dart</title>
<path fill="Lavender" stroke="black" stroke-width="1.3" d="M3053.25,-303C3053.25,-303 3002.75,-303 3002.75,-303 2996.75,-303 2990.75,-297 2990.75,-291 2990.75,-291 2990.75,-279 2990.75,-279 2990.75,-273 2996.75,-267 3002.75,-267 3002.75,-267 3053.25,-267 3053.25,-267 3059.25,-267 3065.25,-273 3065.25,-279 3065.25,-279 3065.25,-291 3065.25,-291 3065.25,-297 3059.25,-303 3053.25,-303"/>
<text text-anchor="middle" x="3028" y="-279.75" font-family="Arial" font-size="15.00">svg_icon</text>
</g>
<!-- /lib/panels/tools/tools_panel.dart&#45;&gt;/lib/widgets/svg_icon.dart -->
<g id="edge15" class="edge">
<title>/lib/panels/tools/tools_panel.dart&#45;&gt;/lib/widgets/svg_icon.dart</title>
<path fill="none" stroke="#aabbaa" stroke-width="1.3" stroke-opacity="0.533333" d="M1541.16,-439.01C1601.38,-435.2 1710.02,-428.69 1803,-425 1876.52,-422.08 2061.59,-430.06 2134,-417 2234.42,-398.89 2250.48,-359.54 2351,-342 2385.48,-335.98 2948.82,-347.77 2981,-334 2991.87,-329.35 3001.5,-320.86 3009.16,-312.3"/>
<polygon fill="#aabbaa" fill-opacity="0.533333" stroke="#aabbaa" stroke-width="1.3" stroke-opacity="0.533333" points="3011.78,-314.62 3015.43,-304.68 3006.38,-310.18 3011.78,-314.62"/>
</g>
<!-- /lib/widgets/brush_size_picker.dart -->
<g id="node44" class="node">
<title>/lib/widgets/brush_size_picker.dart</title>
<path fill="Lavender" stroke="black" stroke-width="1.3" d="M3207,-303C3207,-303 3095,-303 3095,-303 3089,-303 3083,-297 3083,-291 3083,-291 3083,-279 3083,-279 3083,-273 3089,-267 3095,-267 3095,-267 3207,-267 3207,-267 3213,-267 3219,-273 3219,-279 3219,-279 3219,-291 3219,-291 3219,-297 3213,-303 3207,-303"/>
<text text-anchor="middle" x="3151" y="-279.75" font-family="Arial" font-size="15.00">brush_size_picker</text>
</g>
<!-- /lib/panels/tools/tools_panel.dart&#45;&gt;/lib/widgets/brush_size_picker.dart -->
<g id="edge12" class="edge">
<title>/lib/panels/tools/tools_panel.dart&#45;&gt;/lib/widgets/brush_size_picker.dart</title>
<path fill="none" stroke="#aabbaa" stroke-width="1.3" stroke-opacity="0.533333" d="M1541.16,-438.92C1601.37,-435.02 1710.01,-428.4 1803,-425 1852.42,-423.19 2199.32,-425.7 2248,-417 2347.62,-399.2 2363.33,-359.56 2463,-342 2529.87,-330.22 3008.85,-353.11 3074,-334 3090.62,-329.13 3107.17,-319.58 3120.65,-310.28"/>
<polygon fill="#aabbaa" fill-opacity="0.533333" stroke="#aabbaa" stroke-width="1.3" stroke-opacity="0.533333" points="3122.66,-313.15 3128.7,-304.45 3118.55,-307.47 3122.66,-313.15"/>
</g>
<!-- /lib/widgets/tolerance_picker.dart -->
<g id="node46" class="node">
<title>/lib/widgets/tolerance_picker.dart</title>
<path fill="Lavender" stroke="black" stroke-width="1.3" d="M3350.75,-303C3350.75,-303 3249.25,-303 3249.25,-303 3243.25,-303 3237.25,-297 3237.25,-291 3237.25,-291 3237.25,-279 3237.25,-279 3237.25,-273 3243.25,-267 3249.25,-267 3249.25,-267 3350.75,-267 3350.75,-267 3356.75,-267 3362.75,-273 3362.75,-279 3362.75,-279 3362.75,-291 3362.75,-291 3362.75,-297 3356.75,-303 3350.75,-303"/>
<text text-anchor="middle" x="3300" y="-279.75" font-family="Arial" font-size="15.00">tolerance_picker</text>
</g>
<!-- /lib/panels/tools/tools_panel.dart&#45;&gt;/lib/widgets/tolerance_picker.dart -->
<g id="edge16" class="edge">
<title>/lib/panels/tools/tools_panel.dart&#45;&gt;/lib/widgets/tolerance_picker.dart</title>
<path fill="none" stroke="#aabbaa" stroke-width="1.3" stroke-opacity="0.533333" d="M1541.15,-438.86C1601.36,-434.91 1710.01,-428.23 1803,-425 1833.98,-423.92 2330.72,-423.68 2361,-417 2440.85,-399.39 2449.12,-359.5 2529,-342 2566.94,-333.69 3190.9,-345.47 3228,-334 3243.63,-329.17 3258.99,-319.76 3271.48,-310.55"/>
<polygon fill="#aabbaa" fill-opacity="0.533333" stroke="#aabbaa" stroke-width="1.3" stroke-opacity="0.533333" points="3273.53,-313.39 3279.28,-304.5 3269.23,-307.86 3273.53,-313.39"/>
</g>
<!-- /lib/widgets/color_preview.dart -->
<g id="node48" class="node">
<title>/lib/widgets/color_preview.dart</title>
<path fill="Lavender" stroke="black" stroke-width="1.3" d="M3391.75,-212C3391.75,-212 3308.25,-212 3308.25,-212 3302.25,-212 3296.25,-206 3296.25,-200 3296.25,-200 3296.25,-188 3296.25,-188 3296.25,-182 3302.25,-176 3308.25,-176 3308.25,-176 3391.75,-176 3391.75,-176 3397.75,-176 3403.75,-182 3403.75,-188 3403.75,-188 3403.75,-200 3403.75,-200 3403.75,-206 3397.75,-212 3391.75,-212"/>
<text text-anchor="middle" x="3350" y="-188.75" font-family="Arial" font-size="15.00">color_preview</text>
</g>
<!-- /lib/panels/tools/tools_panel.dart&#45;&gt;/lib/widgets/color_preview.dart -->
<g id="edge14" class="edge">
<title>/lib/panels/tools/tools_panel.dart&#45;&gt;/lib/widgets/color_preview.dart</title>
<path fill="none" stroke="#aabbaa" stroke-width="1.3" stroke-opacity="0.533333" d="M1541.15,-438.81C1601.36,-434.79 1710,-428.05 1803,-425 2141.5,-413.89 2226.67,-432.47 2565,-417 2679.03,-411.79 3511.61,-417.91 3589,-334 3614.01,-306.88 3611.92,-279.91 3589,-251 3567.73,-224.18 3479.04,-208.97 3415.92,-201.36"/>
<polygon fill="#aabbaa" fill-opacity="0.533333" stroke="#aabbaa" stroke-width="1.3" stroke-opacity="0.533333" points="3416.35,-197.88 3406.02,-200.2 3415.55,-204.84 3416.35,-197.88"/>
</g>
<!-- /lib/widgets/top_colors.dart -->
<g id="node49" class="node">
<title>/lib/widgets/top_colors.dart</title>
<path fill="Lavender" stroke="black" stroke-width="1.3" d="M3453.5,-303C3453.5,-303 3392.5,-303 3392.5,-303 3386.5,-303 3380.5,-297 3380.5,-291 3380.5,-291 3380.5,-279 3380.5,-279 3380.5,-273 3386.5,-267 3392.5,-267 3392.5,-267 3453.5,-267 3453.5,-267 3459.5,-267 3465.5,-273 3465.5,-279 3465.5,-279 3465.5,-291 3465.5,-291 3465.5,-297 3459.5,-303 3453.5,-303"/>
<text text-anchor="middle" x="3423" y="-279.75" font-family="Arial" font-size="15.00">top_colors</text>
</g>
<!-- /lib/panels/tools/tools_panel.dart&#45;&gt;/lib/widgets/top_colors.dart -->
<g id="edge17" class="edge">
<title>/lib/panels/tools/tools_panel.dart&#45;&gt;/lib/widgets/top_colors.dart</title>
<path fill="none" stroke="#aabbaa" stroke-width="1.3" stroke-opacity="0.533333" d="M1541.15,-438.84C1601.36,-434.85 1710,-428.14 1803,-425 1838.93,-423.79 2415.47,-427 2450,-417 2511.14,-399.3 2510.84,-359.63 2572,-342 2614.71,-329.69 3330.77,-350.59 3372,-334 3383.55,-329.35 3394.03,-320.74 3402.43,-312.08"/>
<polygon fill="#aabbaa" fill-opacity="0.533333" stroke="#aabbaa" stroke-width="1.3" stroke-opacity="0.533333" points="3405.01,-314.44 3409.09,-304.66 3399.8,-309.77 3405.01,-314.44"/>
</g>
<!-- /lib/widgets/color_picker.dart -->
<g id="node52" class="node">
<title>/lib/widgets/color_picker.dart</title>
<path fill="Lavender" stroke="black" stroke-width="1.3" d="M3568.12,-303C3568.12,-303 3495.88,-303 3495.88,-303 3489.88,-303 3483.88,-297 3483.88,-291 3483.88,-291 3483.88,-279 3483.88,-279 3483.88,-273 3489.88,-267 3495.88,-267 3495.88,-267 3568.12,-267 3568.12,-267 3574.12,-267 3580.12,-273 3580.12,-279 3580.12,-279 3580.12,-291 3580.12,-291 3580.12,-297 3574.12,-303 3568.12,-303"/>
<text text-anchor="middle" x="3532" y="-279.75" font-family="Arial" font-size="15.00">color_picker</text>
</g>
<!-- /lib/panels/tools/tools_panel.dart&#45;&gt;/lib/widgets/color_picker.dart -->
<g id="edge13" class="edge">
<title>/lib/panels/tools/tools_panel.dart&#45;&gt;/lib/widgets/color_picker.dart</title>
<path fill="none" stroke="#aabbaa" stroke-width="1.3" stroke-opacity="0.533333" d="M1541.15,-438.82C1601.36,-434.81 1710,-428.09 1803,-425 1822.8,-424.34 2497.47,-424 2516,-417 2563.75,-398.95 2555.23,-360 2603,-342 2648.34,-324.92 3429.57,-350.82 3475,-334 3487.69,-329.3 3499.52,-320.43 3509.08,-311.58"/>
<polygon fill="#aabbaa" fill-opacity="0.533333" stroke="#aabbaa" stroke-width="1.3" stroke-opacity="0.533333" points="3511.46,-314.15 3516.11,-304.63 3506.54,-309.18 3511.46,-314.15"/>
</g>
<!-- /lib/panels/canvas_panel.dart -->
<g id="node12" class="node">
<title>/lib/panels/canvas_panel.dart</title>
<path fill="Lavender" stroke="black" stroke-width="1.3" d="M1634.75,-303C1634.75,-303 1551.25,-303 1551.25,-303 1545.25,-303 1539.25,-297 1539.25,-291 1539.25,-291 1539.25,-279 1539.25,-279 1539.25,-273 1545.25,-267 1551.25,-267 1551.25,-267 1634.75,-267 1634.75,-267 1640.75,-267 1646.75,-273 1646.75,-279 1646.75,-279 1646.75,-291 1646.75,-291 1646.75,-297 1640.75,-303 1634.75,-303"/>
<text text-anchor="middle" x="1593" y="-279.75" font-family="Arial" font-size="15.00">canvas_panel</text>
</g>
<!-- /lib/panels/canvas_panel.dart&#45;&gt;/lib/models/app_model.dart -->
<g id="edge18" class="edge">
<title>/lib/panels/canvas_panel.dart&#45;&gt;/lib/models/app_model.dart</title>
<path fill="none" stroke="#aabbaa" stroke-width="1.3" stroke-opacity="0.533333" d="M1557.5,-266.65C1543.11,-260.48 1526.11,-254.26 1510,-251 1468.17,-242.54 1166.79,-255.54 1126,-243 1110.02,-238.09 1094.21,-228.64 1081.33,-219.41"/>
<polygon fill="#aabbaa" fill-opacity="0.533333" stroke="#aabbaa" stroke-width="1.3" stroke-opacity="0.533333" points="1083.78,-216.87 1073.68,-213.66 1079.57,-222.46 1083.78,-216.87"/>
</g>
<!-- /lib/widgets/transparent_background.dart -->
<g id="node45" class="node">
<title>/lib/widgets/transparent_background.dart</title>
<path fill="Lavender" stroke="black" stroke-width="1.3" d="M2789.38,-212C2789.38,-212 2634.62,-212 2634.62,-212 2628.62,-212 2622.62,-206 2622.62,-200 2622.62,-200 2622.62,-188 2622.62,-188 2622.62,-182 2628.62,-176 2634.62,-176 2634.62,-176 2789.38,-176 2789.38,-176 2795.38,-176 2801.38,-182 2801.38,-188 2801.38,-188 2801.38,-200 2801.38,-200 2801.38,-206 2795.38,-212 2789.38,-212"/>
<text text-anchor="middle" x="2712" y="-188.75" font-family="Arial" font-size="15.00">transparent_background</text>
</g>
<!-- /lib/panels/canvas_panel.dart&#45;&gt;/lib/widgets/transparent_background.dart -->
<g id="edge19" class="edge">
<title>/lib/panels/canvas_panel.dart&#45;&gt;/lib/widgets/transparent_background.dart</title>
<path fill="none" stroke="#aabbaa" stroke-width="1.3" stroke-opacity="0.533333" d="M1647.2,-274.04C1689.5,-266.62 1749.8,-256.81 1803,-251 2095.22,-219.11 2442.41,-204 2610.62,-198.12"/>
<polygon fill="#aabbaa" fill-opacity="0.533333" stroke="#aabbaa" stroke-width="1.3" stroke-opacity="0.533333" points="2610.57,-201.63 2620.45,-197.78 2610.33,-194.63 2610.57,-201.63"/>
</g>
<!-- /lib/panels/layers/tools_and_layers_panel.dart -->
<g id="node13" class="node">
<title>/lib/panels/layers/tools_and_layers_panel.dart</title>
<path fill="Lavender" stroke="black" stroke-width="1.3" d="M1975.38,-461C1975.38,-461 1826.62,-461 1826.62,-461 1820.62,-461 1814.62,-455 1814.62,-449 1814.62,-449 1814.62,-437 1814.62,-437 1814.62,-431 1820.62,-425 1826.62,-425 1826.62,-425 1975.38,-425 1975.38,-425 1981.38,-425 1987.38,-431 1987.38,-437 1987.38,-437 1987.38,-449 1987.38,-449 1987.38,-455 1981.38,-461 1975.38,-461"/>
<text text-anchor="middle" x="1901" y="-437.75" font-family="Arial" font-size="15.00">tools_and_layers_panel</text>
</g>
<!-- /lib/panels/layers/tools_and_layers_panel.dart&#45;&gt;/lib/panels/about.dart -->
<g id="edge24" class="edge">
<title>/lib/panels/layers/tools_and_layers_panel.dart&#45;&gt;/lib/panels/about.dart</title>
<path fill="none" stroke="#aabbaa" stroke-width="1.3" stroke-opacity="0.533333" d="M1987.68,-425.5C1988.79,-425.33 1989.9,-425.16 1991,-425 2007.14,-422.59 2050.12,-425.58 2064,-417 2071.89,-412.13 2078.15,-404.41 2082.92,-396.58"/>
<polygon fill="#aabbaa" fill-opacity="0.533333" stroke="#aabbaa" stroke-width="1.3" stroke-opacity="0.533333" points="2085.98,-398.29 2087.59,-387.82 2079.8,-395 2085.98,-398.29"/>
</g>
<!-- /lib/panels/layers/layer_selector.dart -->
<g id="node14" class="node">
<title>/lib/panels/layers/layer_selector.dart</title>
<path fill="Lavender" stroke="black" stroke-width="1.3" d="M1990.5,-386C1990.5,-386 1905.5,-386 1905.5,-386 1899.5,-386 1893.5,-380 1893.5,-374 1893.5,-374 1893.5,-362 1893.5,-362 1893.5,-356 1899.5,-350 1905.5,-350 1905.5,-350 1990.5,-350 1990.5,-350 1996.5,-350 2002.5,-356 2002.5,-362 2002.5,-362 2002.5,-374 2002.5,-374 2002.5,-380 1996.5,-386 1990.5,-386"/>
<text text-anchor="middle" x="1948" y="-362.75" font-family="Arial" font-size="15.00">layer_selector</text>
</g>
<!-- /lib/panels/layers/tools_and_layers_panel.dart&#45;&gt;/lib/panels/layers/layer_selector.dart -->
<g id="edge26" class="edge">
<title>/lib/panels/layers/tools_and_layers_panel.dart&#45;&gt;/lib/panels/layers/layer_selector.dart</title>
<path fill="none" stroke="#aabbaa" stroke-width="1.3" stroke-opacity="0.533333" d="M1912.14,-424.7C1917.6,-416.22 1924.31,-405.8 1930.44,-396.28"/>
<polygon fill="#aabbaa" fill-opacity="0.533333" stroke="#aabbaa" stroke-width="1.3" stroke-opacity="0.533333" points="1933.24,-398.39 1935.71,-388.08 1927.36,-394.6 1933.24,-398.39"/>
</g>
<!-- /lib/panels/share_panel.dart -->
<g id="node18" class="node">
<title>/lib/panels/share_panel.dart</title>
<path fill="Lavender" stroke="black" stroke-width="1.3" d="M1644.88,-386C1644.88,-386 1571.12,-386 1571.12,-386 1565.12,-386 1559.12,-380 1559.12,-374 1559.12,-374 1559.12,-362 1559.12,-362 1559.12,-356 1565.12,-350 1571.12,-350 1571.12,-350 1644.88,-350 1644.88,-350 1650.88,-350 1656.88,-356 1656.88,-362 1656.88,-362 1656.88,-374 1656.88,-374 1656.88,-380 1650.88,-386 1644.88,-386"/>
<text text-anchor="middle" x="1608" y="-362.75" font-family="Arial" font-size="15.00">share_panel</text>
</g>
<!-- /lib/panels/layers/tools_and_layers_panel.dart&#45;&gt;/lib/panels/share_panel.dart -->
<g id="edge27" class="edge">
<title>/lib/panels/layers/tools_and_layers_panel.dart&#45;&gt;/lib/panels/share_panel.dart</title>
<path fill="none" stroke="#aabbaa" stroke-width="1.3" stroke-opacity="0.533333" d="M1814.17,-437.99C1758.58,-434.42 1692.14,-428.01 1666,-417 1653.59,-411.77 1641.77,-402.97 1632.08,-394.33"/>
<polygon fill="#aabbaa" fill-opacity="0.533333" stroke="#aabbaa" stroke-width="1.3" stroke-opacity="0.533333" points="1634.59,-391.88 1624.92,-387.56 1629.78,-396.97 1634.59,-391.88"/>
</g>
<!-- /lib/panels/canvas_settings.dart -->
<g id="node19" class="node">
<title>/lib/panels/canvas_settings.dart</title>
<path fill="Lavender" stroke="black" stroke-width="1.3" d="M1786.62,-386C1786.62,-386 1687.38,-386 1687.38,-386 1681.38,-386 1675.38,-380 1675.38,-374 1675.38,-374 1675.38,-362 1675.38,-362 1675.38,-356 1681.38,-350 1687.38,-350 1687.38,-350 1786.62,-350 1786.62,-350 1792.62,-350 1798.62,-356 1798.62,-362 1798.62,-362 1798.62,-374 1798.62,-374 1798.62,-380 1792.62,-386 1786.62,-386"/>
<text text-anchor="middle" x="1737" y="-362.75" font-family="Arial" font-size="15.00">canvas_settings</text>
</g>
<!-- /lib/panels/layers/tools_and_layers_panel.dart&#45;&gt;/lib/panels/canvas_settings.dart -->
<g id="edge25" class="edge">
<title>/lib/panels/layers/tools_and_layers_panel.dart&#45;&gt;/lib/panels/canvas_settings.dart</title>
<path fill="none" stroke="#aabbaa" stroke-width="1.3" stroke-opacity="0.533333" d="M1821.72,-424.57C1815.28,-422.32 1808.96,-419.8 1803,-417 1789.91,-410.85 1776.76,-401.97 1765.69,-393.52"/>
<polygon fill="#aabbaa" fill-opacity="0.533333" stroke="#aabbaa" stroke-width="1.3" stroke-opacity="0.533333" points="1768.1,-390.96 1758.08,-387.5 1763.75,-396.45 1768.1,-390.96"/>
</g>
<!-- /lib/models/menu_model.dart -->
<g id="node20" class="node">
<title>/lib/models/menu_model.dart</title>
<path fill="Lavender" stroke="black" stroke-width="1.3" d="M1143.12,-386C1143.12,-386 1064.88,-386 1064.88,-386 1058.88,-386 1052.88,-380 1052.88,-374 1052.88,-374 1052.88,-362 1052.88,-362 1052.88,-356 1058.88,-350 1064.88,-350 1064.88,-350 1143.12,-350 1143.12,-350 1149.12,-350 1155.12,-356 1155.12,-362 1155.12,-362 1155.12,-374 1155.12,-374 1155.12,-380 1149.12,-386 1143.12,-386"/>
<text text-anchor="middle" x="1104" y="-362.75" font-family="Arial" font-size="15.00">menu_model</text>
</g>
<!-- /lib/panels/layers/tools_and_layers_panel.dart&#45;&gt;/lib/models/menu_model.dart -->
<g id="edge23" class="edge">
<title>/lib/panels/layers/tools_and_layers_panel.dart&#45;&gt;/lib/models/menu_model.dart</title>
<path fill="none" stroke="#aabbaa" stroke-width="1.3" stroke-opacity="0.533333" d="M1814.15,-437.08C1743.76,-433.25 1642.02,-428.09 1553,-425 1531.4,-424.25 1184.32,-424.36 1164,-417 1150.75,-412.2 1138.22,-403.18 1128.06,-394.25"/>
<polygon fill="#aabbaa" fill-opacity="0.533333" stroke="#aabbaa" stroke-width="1.3" stroke-opacity="0.533333" points="1130.59,-391.82 1120.9,-387.54 1125.8,-396.93 1130.59,-391.82"/>
</g>
<!-- /lib/panels/layers/tools_and_layers_panel.dart&#45;&gt;/lib/models/app_model.dart -->
<g id="edge22" class="edge">
<title>/lib/panels/layers/tools_and_layers_panel.dart&#45;&gt;/lib/models/app_model.dart</title>
<path fill="none" stroke="#aabbaa" stroke-width="1.3" stroke-opacity="0.533333" d="M1814.15,-436.96C1743.77,-433.07 1642.02,-427.87 1553,-425 1538.87,-424.54 1053.92,-427.08 1044,-417 1017.9,-390.48 1035.69,-277.8 1046.04,-223.92"/>
<polygon fill="#aabbaa" fill-opacity="0.533333" stroke="#aabbaa" stroke-width="1.3" stroke-opacity="0.533333" points="1049.41,-224.89 1047.91,-214.4 1042.55,-223.54 1049.41,-224.89"/>
</g>
<!-- /lib/files/save.dart -->
<g id="node33" class="node">
<title>/lib/files/save.dart</title>
<path fill="Lavender" stroke="black" stroke-width="1.3" d="M879,-386C879,-386 849,-386 849,-386 843,-386 837,-380 837,-374 837,-374 837,-362 837,-362 837,-356 843,-350 849,-350 849,-350 879,-350 879,-350 885,-350 891,-356 891,-362 891,-362 891,-374 891,-374 891,-380 885,-386 879,-386"/>
<text text-anchor="middle" x="864" y="-362.75" font-family="Arial" font-size="15.00">save</text>
</g>
<!-- /lib/panels/layers/tools_and_layers_panel.dart&#45;&gt;/lib/files/save.dart -->
<g id="edge21" class="edge">
<title>/lib/panels/layers/tools_and_layers_panel.dart&#45;&gt;/lib/files/save.dart</title>
<path fill="none" stroke="#aabbaa" stroke-width="1.3" stroke-opacity="0.533333" d="M1814.15,-436.91C1743.77,-432.99 1642.03,-427.79 1553,-425 1520.9,-423.99 1006.4,-423.73 975,-417 949.59,-411.56 922.81,-400.16 901.92,-389.84"/>
<polygon fill="#aabbaa" fill-opacity="0.533333" stroke="#aabbaa" stroke-width="1.3" stroke-opacity="0.533333" points="903.52,-386.72 893.02,-385.31 900.35,-392.96 903.52,-386.72"/>
</g>
<!-- /lib/files/import_files.dart -->
<g id="node35" class="node">
<title>/lib/files/import_files.dart</title>
<path fill="Lavender" stroke="black" stroke-width="1.3" d="M807.25,-386C807.25,-386 738.75,-386 738.75,-386 732.75,-386 726.75,-380 726.75,-374 726.75,-374 726.75,-362 726.75,-362 726.75,-356 732.75,-350 738.75,-350 738.75,-350 807.25,-350 807.25,-350 813.25,-350 819.25,-356 819.25,-362 819.25,-362 819.25,-374 819.25,-374 819.25,-380 813.25,-386 807.25,-386"/>
<text text-anchor="middle" x="773" y="-362.75" font-family="Arial" font-size="15.00">import_files</text>
</g>
<!-- /lib/panels/layers/tools_and_layers_panel.dart&#45;&gt;/lib/files/import_files.dart -->
<g id="edge20" class="edge">
<title>/lib/panels/layers/tools_and_layers_panel.dart&#45;&gt;/lib/files/import_files.dart</title>
<path fill="none" stroke="#aabbaa" stroke-width="1.3" stroke-opacity="0.533333" d="M1814.15,-436.85C1743.78,-432.89 1642.03,-427.66 1553,-425 1532.87,-424.4 846.82,-424.18 828,-417 815.62,-412.28 804.17,-403.4 794.97,-394.56"/>
<polygon fill="#aabbaa" fill-opacity="0.533333" stroke="#aabbaa" stroke-width="1.3" stroke-opacity="0.533333" points="797.72,-392.37 788.24,-387.63 792.7,-397.24 797.72,-392.37"/>
</g>
<!-- /lib/panels/layers/layer_thumbnail.dart -->
<g id="node15" class="node">
<title>/lib/panels/layers/layer_thumbnail.dart</title>
<path fill="Lavender" stroke="black" stroke-width="1.3" d="M1924.5,-303C1924.5,-303 1827.5,-303 1827.5,-303 1821.5,-303 1815.5,-297 1815.5,-291 1815.5,-291 1815.5,-279 1815.5,-279 1815.5,-273 1821.5,-267 1827.5,-267 1827.5,-267 1924.5,-267 1924.5,-267 1930.5,-267 1936.5,-273 1936.5,-279 1936.5,-279 1936.5,-291 1936.5,-291 1936.5,-297 1930.5,-303 1924.5,-303"/>
<text text-anchor="middle" x="1876" y="-279.75" font-family="Arial" font-size="15.00">layer_thumbnail</text>
</g>
<!-- /lib/panels/layers/layer_selector.dart&#45;&gt;/lib/panels/layers/layer_thumbnail.dart -->
<g id="edge30" class="edge">
<title>/lib/panels/layers/layer_selector.dart&#45;&gt;/lib/panels/layers/layer_thumbnail.dart</title>
<path fill="none" stroke="#aabbaa" stroke-width="1.3" stroke-opacity="0.533333" d="M1932.73,-349.82C1923.06,-338.94 1910.36,-324.66 1899.43,-312.36"/>
<polygon fill="#aabbaa" fill-opacity="0.533333" stroke="#aabbaa" stroke-width="1.3" stroke-opacity="0.533333" points="1902.06,-310.05 1892.8,-304.9 1896.83,-314.7 1902.06,-310.05"/>
</g>
<!-- /lib/panels/layers/blend_mode.dart -->
<g id="node16" class="node">
<title>/lib/panels/layers/blend_mode.dart</title>
<path fill="Lavender" stroke="black" stroke-width="1.3" d="M2039.88,-303C2039.88,-303 1966.12,-303 1966.12,-303 1960.12,-303 1954.12,-297 1954.12,-291 1954.12,-291 1954.12,-279 1954.12,-279 1954.12,-273 1960.12,-267 1966.12,-267 1966.12,-267 2039.88,-267 2039.88,-267 2045.88,-267 2051.88,-273 2051.88,-279 2051.88,-279 2051.88,-291 2051.88,-291 2051.88,-297 2045.88,-303 2039.88,-303"/>
<text text-anchor="middle" x="2003" y="-279.75" font-family="Arial" font-size="15.00">blend_mode</text>
</g>
<!-- /lib/panels/layers/layer_selector.dart&#45;&gt;/lib/panels/layers/blend_mode.dart -->
<g id="edge29" class="edge">
<title>/lib/panels/layers/layer_selector.dart&#45;&gt;/lib/panels/layers/blend_mode.dart</title>
<path fill="none" stroke="#aabbaa" stroke-width="1.3" stroke-opacity="0.533333" d="M1959.66,-349.82C1966.91,-339.16 1976.37,-325.22 1984.61,-313.08"/>
<polygon fill="#aabbaa" fill-opacity="0.533333" stroke="#aabbaa" stroke-width="1.3" stroke-opacity="0.533333" points="1987.34,-315.3 1990.06,-305.06 1981.54,-311.37 1987.34,-315.3"/>
</g>
<!-- /lib/panels/layers/layer_selector.dart&#45;&gt;/lib/models/app_model.dart -->
<g id="edge28" class="edge">
<title>/lib/panels/layers/layer_selector.dart&#45;&gt;/lib/models/app_model.dart</title>
<path fill="none" stroke="#aabbaa" stroke-width="1.3" stroke-opacity="0.533333" d="M1913.45,-349.55C1905.9,-346.46 1897.82,-343.7 1890,-342 1869.37,-337.52 1525.65,-348.18 1510,-334 1482.46,-309.06 1527.53,-275.95 1500,-251 1484.6,-237.05 1145.86,-249.11 1126,-243 1110.02,-238.09 1094.21,-228.63 1081.34,-219.41"/>
<polygon fill="#aabbaa" fill-opacity="0.533333" stroke="#aabbaa" stroke-width="1.3" stroke-opacity="0.533333" points="1083.78,-216.86 1073.68,-213.66 1079.57,-222.46 1083.78,-216.86"/>
</g>
<!-- /lib/widgets/truncated_text.dart -->
<g id="node42" class="node">
<title>/lib/widgets/truncated_text.dart</title>
<path fill="Lavender" stroke="black" stroke-width="1.3" d="M2541,-303C2541,-303 2453,-303 2453,-303 2447,-303 2441,-297 2441,-291 2441,-291 2441,-279 2441,-279 2441,-273 2447,-267 2453,-267 2453,-267 2541,-267 2541,-267 2547,-267 2553,-273 2553,-279 2553,-279 2553,-291 2553,-291 2553,-297 2547,-303 2541,-303"/>
<text text-anchor="middle" x="2497" y="-279.75" font-family="Arial" font-size="15.00">truncated_text</text>
</g>
<!-- /lib/panels/layers/layer_selector.dart&#45;&gt;/lib/widgets/truncated_text.dart -->
<g id="edge32" class="edge">
<title>/lib/panels/layers/layer_selector.dart&#45;&gt;/lib/widgets/truncated_text.dart</title>
<path fill="none" stroke="#aabbaa" stroke-width="1.3" stroke-opacity="0.533333" d="M1983.17,-349.53C1990.85,-346.45 1999.06,-343.69 2007,-342 2053.19,-332.16 2387.28,-349.19 2432,-334 2446.07,-329.22 2459.63,-320.17 2470.69,-311.21"/>
<polygon fill="#aabbaa" fill-opacity="0.533333" stroke="#aabbaa" stroke-width="1.3" stroke-opacity="0.533333" points="2472.92,-313.92 2478.23,-304.75 2468.36,-308.6 2472.92,-313.92"/>
</g>
<!-- /lib/widgets/container_slider.dart -->
<g id="node43" class="node">
<title>/lib/widgets/container_slider.dart</title>
<path fill="Lavender" stroke="black" stroke-width="1.3" d="M2410.5,-303C2410.5,-303 2313.5,-303 2313.5,-303 2307.5,-303 2301.5,-297 2301.5,-291 2301.5,-291 2301.5,-279 2301.5,-279 2301.5,-273 2307.5,-267 2313.5,-267 2313.5,-267 2410.5,-267 2410.5,-267 2416.5,-267 2422.5,-273 2422.5,-279 2422.5,-279 2422.5,-291 2422.5,-291 2422.5,-297 2416.5,-303 2410.5,-303"/>
<text text-anchor="middle" x="2362" y="-279.75" font-family="Arial" font-size="15.00">container_slider</text>
</g>
<!-- /lib/panels/layers/layer_selector.dart&#45;&gt;/lib/widgets/container_slider.dart -->
<g id="edge31" class="edge">
<title>/lib/panels/layers/layer_selector.dart&#45;&gt;/lib/widgets/container_slider.dart</title>
<path fill="none" stroke="#aabbaa" stroke-width="1.3" stroke-opacity="0.533333" d="M1983.18,-349.59C1990.86,-346.5 1999.06,-343.73 2007,-342 2069.12,-328.47 2232.61,-353.87 2293,-334 2307.84,-329.12 2322.33,-319.93 2334.17,-310.89"/>
<polygon fill="#aabbaa" fill-opacity="0.533333" stroke="#aabbaa" stroke-width="1.3" stroke-opacity="0.533333" points="2336.31,-313.65 2341.91,-304.66 2331.93,-308.2 2336.31,-313.65"/>
</g>
<!-- /lib/panels/layers/layer_thumbnail.dart&#45;&gt;/lib/models/app_model.dart -->
<g id="edge33" class="edge">
<title>/lib/panels/layers/layer_thumbnail.dart&#45;&gt;/lib/models/app_model.dart</title>
<path fill="none" stroke="#aabbaa" stroke-width="1.3" stroke-opacity="0.533333" d="M1849.08,-266.58C1838.04,-260.41 1824.86,-254.2 1812,-251 1775.01,-241.8 1162.48,-254.03 1126,-243 1109.88,-238.13 1093.95,-228.58 1081.03,-219.28"/>
<polygon fill="#aabbaa" fill-opacity="0.533333" stroke="#aabbaa" stroke-width="1.3" stroke-opacity="0.533333" points="1083.44,-216.71 1073.35,-213.48 1079.22,-222.3 1083.44,-216.71"/>
</g>
<!-- /lib/panels/layers/layer_thumbnail.dart&#45;&gt;/lib/widgets/transparent_background.dart -->
<g id="edge35" class="edge">
<title>/lib/panels/layers/layer_thumbnail.dart&#45;&gt;/lib/widgets/transparent_background.dart</title>
<path fill="none" stroke="#aabbaa" stroke-width="1.3" stroke-opacity="0.533333" d="M1905.97,-266.66C1917.76,-260.65 1931.65,-254.54 1945,-251 2067.74,-218.42 2431.57,-203.34 2610.43,-197.74"/>
<polygon fill="#aabbaa" fill-opacity="0.533333" stroke="#aabbaa" stroke-width="1.3" stroke-opacity="0.533333" points="2610.35,-201.24 2620.23,-197.44 2610.13,-194.25 2610.35,-201.24"/>
</g>
<!-- /lib/widgets/image_painter.dart -->
<g id="node47" class="node">
<title>/lib/widgets/image_painter.dart</title>
<path fill="Lavender" stroke="black" stroke-width="1.3" d="M2960.25,-303C2960.25,-303 2873.75,-303 2873.75,-303 2867.75,-303 2861.75,-297 2861.75,-291 2861.75,-291 2861.75,-279 2861.75,-279 2861.75,-273 2867.75,-267 2873.75,-267 2873.75,-267 2960.25,-267 2960.25,-267 2966.25,-267 2972.25,-273 2972.25,-279 2972.25,-279 2972.25,-291 2972.25,-291 2972.25,-297 2966.25,-303 2960.25,-303"/>
<text text-anchor="middle" x="2917" y="-279.75" font-family="Arial" font-size="15.00">image_painter</text>
</g>
<!-- /lib/panels/layers/layer_thumbnail.dart&#45;&gt;/lib/widgets/image_painter.dart -->
<g id="edge34" class="edge">
<title>/lib/panels/layers/layer_thumbnail.dart&#45;&gt;/lib/widgets/image_painter.dart</title>
<path fill="none" stroke="#aabbaa" stroke-width="1.3" stroke-opacity="0.533333" d="M1894.18,-303.47C1908.84,-316.72 1930.78,-333.07 1954,-338 1978.16,-343.13 2818.84,-343.13 2843,-338 2861.34,-334.11 2878.57,-322.44 2891.78,-311.04"/>
<polygon fill="#aabbaa" fill-opacity="0.533333" stroke="#aabbaa" stroke-width="1.3" stroke-opacity="0.533333" points="2893.79,-313.96 2898.8,-304.62 2889.06,-308.79 2893.79,-313.96"/>
</g>
<!-- /lib/panels/side_panel.dart -->
<g id="node17" class="node">
<title>/lib/panels/side_panel.dart</title>
<path fill="Lavender" stroke="black" stroke-width="1.3" d="M1328.62,-536C1328.62,-536 1265.38,-536 1265.38,-536 1259.38,-536 1253.38,-530 1253.38,-524 1253.38,-524 1253.38,-512 1253.38,-512 1253.38,-506 1259.38,-500 1265.38,-500 1265.38,-500 1328.62,-500 1328.62,-500 1334.62,-500 1340.62,-506 1340.62,-512 1340.62,-512 1340.62,-524 1340.62,-524 1340.62,-530 1334.62,-536 1328.62,-536"/>
<text text-anchor="middle" x="1297" y="-512.75" font-family="Arial" font-size="15.00">side_panel</text>
</g>
<!-- /lib/panels/side_panel.dart&#45;&gt;/lib/panels/tools/tools_panel.dart -->
<g id="edge38" class="edge">
<title>/lib/panels/side_panel.dart&#45;&gt;/lib/panels/tools/tools_panel.dart</title>
<path fill="none" stroke="#aabbaa" stroke-width="1.3" stroke-opacity="0.533333" d="M1340.91,-501.34C1342.29,-500.89 1343.65,-500.44 1345,-500 1356.9,-496.13 1360.16,-496.06 1372,-492 1395.18,-484.06 1420.44,-474.38 1442,-465.81"/>
<polygon fill="#aabbaa" fill-opacity="0.533333" stroke="#aabbaa" stroke-width="1.3" stroke-opacity="0.533333" points="1443.11,-469.13 1451.09,-462.17 1440.5,-462.64 1443.11,-469.13"/>
</g>
<!-- /lib/panels/side_panel.dart&#45;&gt;/lib/panels/layers/tools_and_layers_panel.dart -->
<g id="edge37" class="edge">
<title>/lib/panels/side_panel.dart&#45;&gt;/lib/panels/layers/tools_and_layers_panel.dart</title>
<path fill="none" stroke="#aabbaa" stroke-width="1.3" stroke-opacity="0.533333" d="M1341.06,-500.83C1342.38,-500.53 1343.7,-500.25 1345,-500 1390.43,-491.29 1506.92,-496.05 1553,-492 1637.57,-484.56 1733.06,-471.02 1802.59,-460.21"/>
<polygon fill="#aabbaa" fill-opacity="0.533333" stroke="#aabbaa" stroke-width="1.3" stroke-opacity="0.533333" points="1803.11,-463.67 1812.44,-458.67 1802.02,-456.76 1803.11,-463.67"/>
</g>
<!-- /lib/panels/side_panel.dart&#45;&gt;/lib/models/app_model.dart -->
<g id="edge36" class="edge">
<title>/lib/panels/side_panel.dart&#45;&gt;/lib/models/app_model.dart</title>
<path fill="none" stroke="#aabbaa" stroke-width="1.3" stroke-opacity="0.533333" d="M1253.07,-501.4C1251.7,-500.93 1250.34,-500.46 1249,-500 1138.26,-462.01 1067.51,-511.93 999,-417 994.76,-411.13 996.56,-259.63 1000,-251 1004.54,-239.63 1012.56,-229.19 1020.96,-220.47"/>
<polygon fill="#aabbaa" fill-opacity="0.533333" stroke="#aabbaa" stroke-width="1.3" stroke-opacity="0.533333" points="1023.18,-223.19 1027.96,-213.73 1018.33,-218.15 1023.18,-223.19"/>
</g>
<!-- /lib/panels/share_panel.dart&#45;&gt;/lib/panels/canvas_panel.dart -->
<g id="edge40" class="edge">
<title>/lib/panels/share_panel.dart&#45;&gt;/lib/panels/canvas_panel.dart</title>
<path fill="none" stroke="#aabbaa" stroke-width="1.3" stroke-opacity="0.533333" d="M1604.82,-349.82C1602.94,-339.69 1600.52,-326.6 1598.36,-314.92"/>
<polygon fill="#aabbaa" fill-opacity="0.533333" stroke="#aabbaa" stroke-width="1.3" stroke-opacity="0.533333" points="1601.85,-314.56 1596.59,-305.37 1594.97,-315.84 1601.85,-314.56"/>
</g>
<!-- /lib/panels/share_panel.dart&#45;&gt;/lib/models/app_model.dart -->
<g id="edge39" class="edge">
<title>/lib/panels/share_panel.dart&#45;&gt;/lib/models/app_model.dart</title>
<path fill="none" stroke="#aabbaa" stroke-width="1.3" stroke-opacity="0.533333" d="M1574.64,-349.61C1567.65,-346.61 1560.21,-343.86 1553,-342 1508.54,-330.55 1494.85,-343.85 1450,-334 1346.3,-311.23 1329.67,-273.89 1226,-251 1182.46,-241.39 1168.21,-257.35 1126,-243 1110.44,-237.71 1094.92,-228.42 1082.15,-219.42"/>
<polygon fill="#aabbaa" fill-opacity="0.533333" stroke="#aabbaa" stroke-width="1.3" stroke-opacity="0.533333" points="1084.25,-216.62 1074.12,-213.5 1080.1,-222.25 1084.25,-216.62"/>
</g>
<!-- /lib/panels/canvas_settings.dart&#45;&gt;/lib/models/app_model.dart -->
<g id="edge41" class="edge">
<title>/lib/panels/canvas_settings.dart&#45;&gt;/lib/models/app_model.dart</title>
<path fill="none" stroke="#aabbaa" stroke-width="1.3" stroke-opacity="0.533333" d="M1694,-349.62C1684.89,-346.58 1675.23,-343.81 1666,-342 1593.51,-327.81 1571.24,-353.5 1500,-334 1423.87,-313.16 1419.24,-271.41 1343,-251 1296.39,-238.52 1172.01,-257.54 1126,-243 1110.06,-237.96 1094.26,-228.49 1081.37,-219.29"/>
<polygon fill="#aabbaa" fill-opacity="0.533333" stroke="#aabbaa" stroke-width="1.3" stroke-opacity="0.533333" points="1083.82,-216.74 1073.71,-213.55 1079.62,-222.35 1083.82,-216.74"/>
</g>
<!-- /lib/widgets/nine_grid_selector.dart -->
<g id="node51" class="node">
<title>/lib/widgets/nine_grid_selector.dart</title>
<path fill="Lavender" stroke="black" stroke-width="1.3" d="M2271.75,-303C2271.75,-303 2158.25,-303 2158.25,-303 2152.25,-303 2146.25,-297 2146.25,-291 2146.25,-291 2146.25,-279 2146.25,-279 2146.25,-273 2152.25,-267 2158.25,-267 2158.25,-267 2271.75,-267 2271.75,-267 2277.75,-267 2283.75,-273 2283.75,-279 2283.75,-279 2283.75,-291 2283.75,-291 2283.75,-297 2277.75,-303 2271.75,-303"/>
<text text-anchor="middle" x="2215" y="-279.75" font-family="Arial" font-size="15.00">nine_grid_selector</text>
</g>
<!-- /lib/panels/canvas_settings.dart&#45;&gt;/lib/widgets/nine_grid_selector.dart -->
<g id="edge42" class="edge">
<title>/lib/panels/canvas_settings.dart&#45;&gt;/lib/widgets/nine_grid_selector.dart</title>
<path fill="none" stroke="#aabbaa" stroke-width="1.3" stroke-opacity="0.533333" d="M1776.51,-349.61C1785.09,-346.53 1794.23,-343.75 1803,-342 1859.91,-330.68 2006.8,-343.77 2064,-334 2096.53,-328.44 2131.73,-317.55 2159.96,-307.55"/>
<polygon fill="#aabbaa" fill-opacity="0.533333" stroke="#aabbaa" stroke-width="1.3" stroke-opacity="0.533333" points="2161.14,-310.84 2169.35,-304.15 2158.76,-304.26 2161.14,-310.84"/>
</g>
<!-- /lib/models/layers.dart -->
<g id="node21" class="node">
<title>/lib/models/layers.dart</title>
<path fill="Lavender" stroke="black" stroke-width="1.3" d="M1216.88,-386C1216.88,-386 1185.12,-386 1185.12,-386 1179.12,-386 1173.12,-380 1173.12,-374 1173.12,-374 1173.12,-362 1173.12,-362 1173.12,-356 1179.12,-350 1185.12,-350 1185.12,-350 1216.88,-350 1216.88,-350 1222.88,-350 1228.88,-356 1228.88,-362 1228.88,-362 1228.88,-374 1228.88,-374 1228.88,-380 1222.88,-386 1216.88,-386"/>
<text text-anchor="middle" x="1201" y="-362.75" font-family="Arial" font-size="15.00">layers</text>
</g>
<!-- /lib/models/layers.dart&#45;&gt;/lib/models/layer.dart -->
<g id="edge45" class="edge">
<title>/lib/models/layers.dart&#45;&gt;/lib/models/layer.dart</title>
<path fill="none" stroke="#aabbaa" stroke-width="1.3" stroke-opacity="0.533333" d="M1193.03,-349.82C1190.59,-339.8 1188.54,-326.88 1187.46,-315.29"/>
<polygon fill="#aabbaa" fill-opacity="0.533333" stroke="#aabbaa" stroke-width="1.3" stroke-opacity="0.533333" points="1190.96,-315.15 1186.83,-305.4 1183.98,-315.6 1190.96,-315.15"/>
</g>
<!-- /lib/models/layers.dart&#45;&gt;/lib/models/layer.dart -->
<g id="edge46" class="edge">
<title>/lib/models/layers.dart&#45;&gt;/lib/models/layer.dart</title>
<path fill="none" stroke="#aabbaa" stroke-width="1.3" stroke-dasharray="5,2" stroke-opacity="0.533333" d="M1204.3,-349.82C1204.02,-339.69 1202.53,-326.6 1200.43,-314.92"/>
<polygon fill="#aabbaa" fill-opacity="0.533333" stroke="#aabbaa" stroke-width="1.3" stroke-opacity="0.533333" points="1203.9,-314.43 1198.43,-305.36 1197.05,-315.86 1203.9,-314.43"/>
</g>
<!-- /lib/helpers/list_helper.dart -->
<g id="node38" class="node">
<title>/lib/helpers/list_helper.dart</title>
<path fill="Lavender" stroke="black" stroke-width="1.3" d="M1339.75,-68C1339.75,-68 1280.25,-68 1280.25,-68 1274.25,-68 1268.25,-62 1268.25,-56 1268.25,-56 1268.25,-44 1268.25,-44 1268.25,-38 1274.25,-32 1280.25,-32 1280.25,-32 1339.75,-32 1339.75,-32 1345.75,-32 1351.75,-38 1351.75,-44 1351.75,-44 1351.75,-56 1351.75,-56 1351.75,-62 1345.75,-68 1339.75,-68"/>
<text text-anchor="middle" x="1310" y="-44.75" font-family="Arial" font-size="15.00">list_helper</text>
</g>
<!-- /lib/models/layers.dart&#45;&gt;/lib/helpers/list_helper.dart -->
<g id="edge44" class="edge">
<title>/lib/models/layers.dart&#45;&gt;/lib/helpers/list_helper.dart</title>
<path fill="none" stroke="#aabbaa" stroke-width="1.3" stroke-opacity="0.533333" d="M1229.05,-349.58C1235.39,-346.46 1242.25,-343.66 1249,-342 1264.8,-338.1 3580.51,-345.52 3592,-334 3921.38,-3.49 3404.96,-115.69 3224,-96 2848.94,-55.2 1633.99,-51.37 1363.64,-51.03"/>
<polygon fill="#aabbaa" fill-opacity="0.533333" stroke="#aabbaa" stroke-width="1.3" stroke-opacity="0.533333" points="1363.82,-47.53 1353.82,-51.02 1363.82,-54.53 1363.82,-47.53"/>
</g>
<!-- /lib/models/layers.dart&#45;&gt;/lib/helpers/color_helper.dart -->
<g id="edge43" class="edge">
<title>/lib/models/layers.dart&#45;&gt;/lib/helpers/color_helper.dart</title>
<path fill="none" stroke="#aabbaa" stroke-width="1.3" stroke-opacity="0.533333" d="M1216.41,-349.81C1220.05,-344.98 1223.57,-339.53 1226,-334 1241.06,-299.67 1212.94,-275.85 1241,-251 1264.16,-230.49 1358.76,-265.5 1380,-243 1402.88,-218.76 1395.97,-197.26 1380,-168 1375.52,-159.8 1368.84,-152.87 1361.35,-147.09"/>
<polygon fill="#aabbaa" fill-opacity="0.533333" stroke="#aabbaa" stroke-width="1.3" stroke-opacity="0.533333" points="1363.39,-144.25 1353.16,-141.49 1359.44,-150.02 1363.39,-144.25"/>
</g>
<!-- /lib/models/user_action.dart -->
<g id="node22" class="node">
<title>/lib/models/user_action.dart</title>
<path fill="Lavender" stroke="black" stroke-width="1.3" d="M1216.62,-212C1216.62,-212 1147.38,-212 1147.38,-212 1141.38,-212 1135.38,-206 1135.38,-200 1135.38,-200 1135.38,-188 1135.38,-188 1135.38,-182 1141.38,-176 1147.38,-176 1147.38,-176 1216.62,-176 1216.62,-176 1222.62,-176 1228.62,-182 1228.62,-188 1228.62,-188 1228.62,-200 1228.62,-200 1228.62,-206 1222.62,-212 1216.62,-212"/>
<text text-anchor="middle" x="1182" y="-188.75" font-family="Arial" font-size="15.00">user_action</text>
</g>
<!-- /lib/widgets/brush_style_picker.dart -->
<g id="node50" class="node">
<title>/lib/widgets/brush_style_picker.dart</title>
<path fill="Lavender" stroke="black" stroke-width="1.3" d="M2831.25,-303C2831.25,-303 2714.75,-303 2714.75,-303 2708.75,-303 2702.75,-297 2702.75,-291 2702.75,-291 2702.75,-279 2702.75,-279 2702.75,-273 2708.75,-267 2714.75,-267 2714.75,-267 2831.25,-267 2831.25,-267 2837.25,-267 2843.25,-273 2843.25,-279 2843.25,-279 2843.25,-291 2843.25,-291 2843.25,-297 2837.25,-303 2831.25,-303"/>
<text text-anchor="middle" x="2773" y="-279.75" font-family="Arial" font-size="15.00">brush_style_picker</text>
</g>
<!-- /lib/models/user_action.dart&#45;&gt;/lib/widgets/brush_style_picker.dart -->
<g id="edge47" class="edge">
<title>/lib/models/user_action.dart&#45;&gt;/lib/widgets/brush_style_picker.dart</title>
<path fill="none" stroke="#aabbaa" stroke-width="1.3" stroke-opacity="0.533333" d="M1189.53,-212.27C1199.04,-223.38 1214.85,-236.85 1232,-243 1269.99,-256.62 2645.45,-242.96 2685,-251 2696.58,-253.35 2708.59,-257.43 2719.91,-261.93"/>
<polygon fill="#aabbaa" fill-opacity="0.533333" stroke="#aabbaa" stroke-width="1.3" stroke-opacity="0.533333" points="2718.56,-265.16 2729.14,-265.77 2721.25,-258.7 2718.56,-265.16"/>
</g>
<!-- /lib/models/user_action.dart&#45;&gt;/lib/widgets/brush_style_picker.dart -->
<g id="edge48" class="edge">
<title>/lib/models/user_action.dart&#45;&gt;/lib/widgets/brush_style_picker.dart</title>
<path fill="none" stroke="#aabbaa" stroke-width="1.3" stroke-dasharray="5,2" stroke-opacity="0.533333" d="M1204.71,-212.27C1217.04,-223.38 1232.85,-236.85 1250,-243 1287.99,-256.62 2663.45,-242.96 2703,-251 2714.46,-253.33 2726.34,-257.34 2737.03,-261.79"/>
<polygon fill="#aabbaa" fill-opacity="0.533333" stroke="#aabbaa" stroke-width="1.3" stroke-opacity="0.533333" points="2735.32,-264.86 2745.88,-265.72 2738.17,-258.46 2735.32,-264.86"/>
</g>
<!-- /lib/models/canvas_model.dart -->
<g id="node24" class="node">
<title>/lib/models/canvas_model.dart</title>
<path fill="Lavender" stroke="black" stroke-width="1.3" d="M1217,-140C1217,-140 1129,-140 1129,-140 1123,-140 1117,-134 1117,-128 1117,-128 1117,-116 1117,-116 1117,-110 1123,-104 1129,-104 1129,-104 1217,-104 1217,-104 1223,-104 1229,-110 1229,-116 1229,-116 1229,-128 1229,-128 1229,-134 1223,-140 1217,-140"/>
<text text-anchor="middle" x="1173" y="-116.75" font-family="Arial" font-size="15.00">canvas_model</text>
</g>
<!-- /lib/models/canvas_model.dart&#45;&gt;/lib/models/layers.dart -->
<g id="edge49" class="edge">
<title>/lib/models/canvas_model.dart&#45;&gt;/lib/models/layers.dart</title>
<path fill="none" stroke="#aabbaa" stroke-width="1.3" stroke-dasharray="5,2" stroke-opacity="0.533333" d="M1147.85,-140.33C1139.24,-147.74 1130.61,-157.2 1126,-168 1112.91,-198.66 1121.04,-210.04 1126,-243 1132.29,-284.85 1129.12,-299.77 1154,-334 1154.59,-334.82 1159.53,-338.43 1166,-342.99"/>
<polygon fill="#aabbaa" fill-opacity="0.533333" stroke="#aabbaa" stroke-width="1.3" stroke-opacity="0.533333" points="1163.68,-345.64 1173.89,-348.48 1167.69,-339.89 1163.68,-345.64"/>
</g>
<!-- /lib/models/app_model.dart&#45;&gt;/lib/models/layers.dart -->
<g id="edge53" class="edge">
<title>/lib/models/app_model.dart&#45;&gt;/lib/models/layers.dart</title>
<path fill="none" stroke="#aabbaa" stroke-width="1.3" stroke-dasharray="5,2" stroke-opacity="0.533333" d="M1053.96,-212.34C1058.35,-242.34 1071.85,-303.64 1111,-334 1129.83,-348.6 1141.81,-333.34 1164,-342 1165.58,-342.62 1167.16,-343.31 1168.73,-344.06"/>
<polygon fill="#aabbaa" fill-opacity="0.533333" stroke="#aabbaa" stroke-width="1.3" stroke-opacity="0.533333" points="1166.64,-346.91 1177.08,-348.75 1170.07,-340.8 1166.64,-346.91"/>
</g>
<!-- /lib/models/app_model.dart&#45;&gt;/lib/models/canvas_resize.dart -->
<g id="edge52" class="edge">
<title>/lib/models/app_model.dart&#45;&gt;/lib/models/canvas_resize.dart</title>
<path fill="none" stroke="#aabbaa" stroke-width="1.3" stroke-opacity="0.533333" d="M1049.78,-175.7C1048.85,-168.49 1047.75,-159.93 1046.71,-151.82"/>
<polygon fill="#aabbaa" fill-opacity="0.533333" stroke="#aabbaa" stroke-width="1.3" stroke-opacity="0.533333" points="1050.2,-151.53 1045.45,-142.06 1043.25,-152.42 1050.2,-151.53"/>
</g>
<!-- /lib/models/app_model.dart&#45;&gt;/lib/models/canvas_model.dart -->
<g id="edge51" class="edge">
<title>/lib/models/app_model.dart&#45;&gt;/lib/models/canvas_model.dart</title>
<path fill="none" stroke="#aabbaa" stroke-width="1.3" stroke-opacity="0.533333" d="M1082.22,-175.52C1097.64,-166.6 1116.6,-155.63 1133.19,-146.03"/>
<polygon fill="#aabbaa" fill-opacity="0.533333" stroke="#aabbaa" stroke-width="1.3" stroke-opacity="0.533333" points="1134.56,-149.28 1141.46,-141.25 1131.05,-143.22 1134.56,-149.28"/>
</g>
<!-- /lib/models/app_model.dart&#45;&gt;/lib/helpers/color_helper.dart -->
<g id="edge50" class="edge">
<title>/lib/models/app_model.dart&#45;&gt;/lib/helpers/color_helper.dart</title>
<path fill="none" stroke="#aabbaa" stroke-width="1.3" stroke-opacity="0.533333" d="M1097.2,-177.04C1106.67,-173.89 1116.62,-170.72 1126,-168 1176.52,-153.35 1189.91,-152.51 1241,-140 1243.68,-139.34 1246.42,-138.67 1249.18,-137.99"/>
<polygon fill="#aabbaa" fill-opacity="0.533333" stroke="#aabbaa" stroke-width="1.3" stroke-opacity="0.533333" points="1249.84,-141.44 1258.72,-135.65 1248.17,-134.64 1249.84,-141.44"/>
</g>
<!-- /lib/models/layer.dart&#45;&gt;/lib/models/user_action.dart -->
<g id="edge57" class="edge">
<title>/lib/models/layer.dart&#45;&gt;/lib/models/user_action.dart</title>
<path fill="none" stroke="#aabbaa" stroke-width="1.3" stroke-dasharray="5,2" stroke-opacity="0.533333" d="M1188.46,-266.84C1187.37,-254.73 1185.88,-238.21 1184.61,-224.06"/>
<polygon fill="#aabbaa" fill-opacity="0.533333" stroke="#aabbaa" stroke-width="1.3" stroke-opacity="0.533333" points="1188.12,-224.02 1183.74,-214.37 1181.15,-224.64 1188.12,-224.02"/>
</g>
<!-- /lib/models/layer.dart&#45;&gt;/lib/models/app_model.dart -->
<g id="edge56" class="edge">
<title>/lib/models/layer.dart&#45;&gt;/lib/models/app_model.dart</title>
<path fill="none" stroke="#aabbaa" stroke-width="1.3" stroke-opacity="0.533333" d="M1162.89,-266.68C1151.49,-259.38 1138.09,-250.79 1126,-243 1113.86,-235.17 1100.61,-226.59 1088.72,-218.88"/>
<polygon fill="#aabbaa" fill-opacity="0.533333" stroke="#aabbaa" stroke-width="1.3" stroke-opacity="0.533333" points="1090.64,-215.95 1080.34,-213.44 1086.82,-221.82 1090.64,-215.95"/>
</g>
<!-- /lib/helpers/image_helper.dart -->
<g id="node37" class="node">
<title>/lib/helpers/image_helper.dart</title>
<path fill="Lavender" stroke="black" stroke-width="1.3" d="M1347,-212C1347,-212 1265,-212 1265,-212 1259,-212 1253,-206 1253,-200 1253,-200 1253,-188 1253,-188 1253,-182 1259,-176 1265,-176 1265,-176 1347,-176 1347,-176 1353,-176 1359,-182 1359,-188 1359,-188 1359,-200 1359,-200 1359,-206 1353,-212 1347,-212"/>
<text text-anchor="middle" x="1306" y="-188.75" font-family="Arial" font-size="15.00">image_helper</text>
</g>
<!-- /lib/models/layer.dart&#45;&gt;/lib/helpers/image_helper.dart -->
<g id="edge55" class="edge">
<title>/lib/models/layer.dart&#45;&gt;/lib/helpers/image_helper.dart</title>
<path fill="none" stroke="#aabbaa" stroke-width="1.3" stroke-opacity="0.533333" d="M1211.16,-266.72C1217.5,-261.61 1224.5,-256.04 1231,-251 1244.51,-240.53 1259.58,-229.21 1272.65,-219.5"/>
<polygon fill="#aabbaa" fill-opacity="0.533333" stroke="#aabbaa" stroke-width="1.3" stroke-opacity="0.533333" points="1274.65,-222.37 1280.61,-213.61 1270.49,-216.74 1274.65,-222.37"/>
</g>
<!-- /lib/models/layer.dart&#45;&gt;/lib/helpers/color_helper.dart -->
<g id="edge54" class="edge">
<title>/lib/models/layer.dart&#45;&gt;/lib/helpers/color_helper.dart</title>
<path fill="none" stroke="#aabbaa" stroke-width="1.3" stroke-opacity="0.533333" d="M1206.82,-266.53C1213.7,-260.51 1222.13,-254.42 1231,-251 1245.23,-245.51 1357.54,-254.09 1368,-243 1390.87,-218.75 1382.66,-197.94 1368,-168 1364.22,-160.29 1358.42,-153.52 1351.91,-147.73"/>
<polygon fill="#aabbaa" fill-opacity="0.533333" stroke="#aabbaa" stroke-width="1.3" stroke-opacity="0.533333" points="1354.28,-145.14 1344.27,-141.67 1349.93,-150.63 1354.28,-145.14"/>
</g>
<!-- /lib/main.dart&#45;&gt;/lib/models/app_model.dart -->
<g id="edge59" class="edge">
<title>/lib/main.dart&#45;&gt;/lib/models/app_model.dart</title>
<path fill="none" stroke="#aabbaa" stroke-width="1.3" stroke-opacity="0.533333" d="M453.71,-657.21C387.8,-639.68 217.4,-587.46 109,-492 27.1,-419.87 -12.96,-330.31 62,-251 94.23,-216.9 789.68,-200.26 995.26,-196.08"/>
<polygon fill="#aabbaa" fill-opacity="0.533333" stroke="#aabbaa" stroke-width="1.3" stroke-opacity="0.533333" points="995.05,-199.58 1004.98,-195.88 994.91,-192.59 995.05,-199.58"/>
</g>
<!-- /lib/main_screen.dart -->
<g id="node36" class="node">
<title>/lib/main_screen.dart</title>
<path fill="Lavender" stroke="black" stroke-width="1.3" d="M1171.75,-611C1171.75,-611 1094.25,-611 1094.25,-611 1088.25,-611 1082.25,-605 1082.25,-599 1082.25,-599 1082.25,-587 1082.25,-587 1082.25,-581 1088.25,-575 1094.25,-575 1094.25,-575 1171.75,-575 1171.75,-575 1177.75,-575 1183.75,-581 1183.75,-587 1183.75,-587 1183.75,-599 1183.75,-599 1183.75,-605 1177.75,-611 1171.75,-611"/>
<text text-anchor="middle" x="1133" y="-587.75" font-family="Arial" font-size="15.00">main_screen</text>
</g>
<!-- /lib/main.dart&#45;&gt;/lib/main_screen.dart -->
<g id="edge58" class="edge">
<title>/lib/main.dart&#45;&gt;/lib/main_screen.dart</title>
<path fill="none" stroke="#aabbaa" stroke-width="1.3" stroke-opacity="0.533333" d="M508.19,-661.08C604.67,-650.72 932.26,-615.55 1070.57,-600.7"/>
<polygon fill="#aabbaa" fill-opacity="0.533333" stroke="#aabbaa" stroke-width="1.3" stroke-opacity="0.533333" points="1070.64,-604.21 1080.21,-599.67 1069.9,-597.25 1070.64,-604.21"/>
</g>
<!-- /lib/files/xcf_reader.dart&#45;&gt;/lib/helpers/list_helper.dart -->
<g id="edge60" class="edge">
<title>/lib/files/xcf_reader.dart&#45;&gt;/lib/helpers/list_helper.dart</title>
<path fill="none" stroke="#aabbaa" stroke-width="1.3" stroke-opacity="0.533333" d="M296.39,-349.52C337.35,-325.55 414.31,-281.94 483,-251 664.42,-169.29 709.35,-141.72 903,-96 1027.38,-66.64 1177.78,-56.32 1256.32,-52.78"/>
<polygon fill="#aabbaa" fill-opacity="0.533333" stroke="#aabbaa" stroke-width="1.3" stroke-opacity="0.533333" points="1256.02,-56.3 1265.86,-52.37 1255.72,-49.31 1256.02,-56.3"/>
</g>
<!-- /lib/files/file_jpeg.dart -->
<g id="node30" class="node">
<title>/lib/files/file_jpeg.dart</title>
<path fill="Lavender" stroke="black" stroke-width="1.3" d="M550.38,-303C550.38,-303 503.62,-303 503.62,-303 497.62,-303 491.62,-297 491.62,-291 491.62,-291 491.62,-279 491.62,-279 491.62,-273 497.62,-267 503.62,-267 503.62,-267 550.38,-267 550.38,-267 556.38,-267 562.38,-273 562.38,-279 562.38,-279 562.38,-291 562.38,-291 562.38,-297 556.38,-303 550.38,-303"/>
<text text-anchor="middle" x="527" y="-279.75" font-family="Arial" font-size="15.00">file_jpeg</text>
</g>
<!-- /lib/files/export_download_web.dart -->
<g id="node31" class="node">
<title>/lib/files/export_download_web.dart</title>
<path fill="Lavender" stroke="black" stroke-width="1.3" d="M696.25,-386C696.25,-386 555.75,-386 555.75,-386 549.75,-386 543.75,-380 543.75,-374 543.75,-374 543.75,-362 543.75,-362 543.75,-356 549.75,-350 555.75,-350 555.75,-350 696.25,-350 696.25,-350 702.25,-350 708.25,-356 708.25,-362 708.25,-362 708.25,-374 708.25,-374 708.25,-380 702.25,-386 696.25,-386"/>
<text text-anchor="middle" x="626" y="-362.75" font-family="Arial" font-size="15.00">export_download_web</text>
</g>
<!-- /lib/files/export_download_web.dart&#45;&gt;/lib/panels/share_panel.dart -->
<g id="edge64" class="edge">
<title>/lib/files/export_download_web.dart&#45;&gt;/lib/panels/share_panel.dart</title>
<path fill="none" stroke="#aabbaa" stroke-width="1.3" stroke-opacity="0.533333" d="M651.47,-386.43C671.03,-399.27 699.3,-415.12 727,-421 749.2,-425.71 1521.8,-425.71 1544,-421 1560.53,-417.49 1575.33,-406.1 1586.53,-394.77"/>
<polygon fill="#aabbaa" fill-opacity="0.533333" stroke="#aabbaa" stroke-width="1.3" stroke-opacity="0.533333" points="1588.84,-397.43 1593.02,-387.7 1583.68,-392.69 1588.84,-397.43"/>
</g>
<!-- /lib/files/export_download_web.dart&#45;&gt;/lib/models/app_model.dart -->
<g id="edge63" class="edge">
<title>/lib/files/export_download_web.dart&#45;&gt;/lib/models/app_model.dart</title>
<path fill="none" stroke="#aabbaa" stroke-width="1.3" stroke-opacity="0.533333" d="M683.53,-349.52C694.87,-346.6 706.74,-343.91 718,-342 730.52,-339.88 822.26,-342.15 832,-334 861.19,-309.59 826.45,-278.26 853,-251 889.93,-213.08 950.35,-200.27 994.95,-196.21"/>
<polygon fill="#aabbaa" fill-opacity="0.533333" stroke="#aabbaa" stroke-width="1.3" stroke-opacity="0.533333" points="995.12,-199.71 1004.82,-195.46 994.58,-192.73 995.12,-199.71"/>
</g>
<!-- /lib/files/export_download_web.dart&#45;&gt;/lib/files/file_jpeg.dart -->
<g id="edge61" class="edge">
<title>/lib/files/export_download_web.dart&#45;&gt;/lib/files/file_jpeg.dart</title>
<path fill="none" stroke="#aabbaa" stroke-width="1.3" stroke-opacity="0.533333" d="M605,-349.82C591.19,-338.52 572.87,-323.53 557.46,-310.92"/>
<polygon fill="#aabbaa" fill-opacity="0.533333" stroke="#aabbaa" stroke-width="1.3" stroke-opacity="0.533333" points="559.79,-308.3 549.83,-304.68 555.35,-313.72 559.79,-308.3"/>
</g>
<!-- /lib/files/file_ora.dart -->
<g id="node32" class="node">
<title>/lib/files/file_ora.dart</title>
<path fill="Lavender" stroke="black" stroke-width="1.3" d="M793.38,-303C793.38,-303 752.62,-303 752.62,-303 746.62,-303 740.62,-297 740.62,-291 740.62,-291 740.62,-279 740.62,-279 740.62,-273 746.62,-267 752.62,-267 752.62,-267 793.38,-267 793.38,-267 799.38,-267 805.38,-273 805.38,-279 805.38,-279 805.38,-291 805.38,-291 805.38,-297 799.38,-303 793.38,-303"/>
<text text-anchor="middle" x="773" y="-279.75" font-family="Arial" font-size="15.00">file_ora</text>
</g>
<!-- /lib/files/export_download_web.dart&#45;&gt;/lib/files/file_ora.dart -->
<g id="edge62" class="edge">
<title>/lib/files/export_download_web.dart&#45;&gt;/lib/files/file_ora.dart</title>
<path fill="none" stroke="#aabbaa" stroke-width="1.3" stroke-opacity="0.533333" d="M657.54,-349.62C678.97,-337.81 707.57,-322.05 730.94,-309.18"/>
<polygon fill="#aabbaa" fill-opacity="0.533333" stroke="#aabbaa" stroke-width="1.3" stroke-opacity="0.533333" points="732.47,-312.33 739.54,-304.44 729.09,-306.2 732.47,-312.33"/>
</g>
<!-- /lib/files/file_ora.dart&#45;&gt;/lib/models/app_model.dart -->
<g id="edge66" class="edge">
<title>/lib/files/file_ora.dart&#45;&gt;/lib/models/app_model.dart</title>
<path fill="none" stroke="#aabbaa" stroke-width="1.3" stroke-opacity="0.533333" d="M794.96,-266.79C803.09,-261.08 812.62,-255.14 822,-251 837.86,-244 932.75,-221.89 995.59,-207.64"/>
<polygon fill="#aabbaa" fill-opacity="0.533333" stroke="#aabbaa" stroke-width="1.3" stroke-opacity="0.533333" points="996.02,-211.13 1005,-205.51 994.47,-204.3 996.02,-211.13"/>
</g>
<!-- /lib/files/file_ora.dart&#45;&gt;/lib/helpers/list_helper.dart -->
<g id="edge65" class="edge">
<title>/lib/files/file_ora.dart&#45;&gt;/lib/helpers/list_helper.dart</title>
<path fill="none" stroke="#aabbaa" stroke-width="1.3" stroke-opacity="0.533333" d="M785.55,-266.54C814.18,-228.2 888.59,-136.84 975,-96 1023.62,-73.02 1174.35,-59.88 1256.04,-54.27"/>
<polygon fill="#aabbaa" fill-opacity="0.533333" stroke="#aabbaa" stroke-width="1.3" stroke-opacity="0.533333" points="1256.11,-57.77 1265.85,-53.61 1255.64,-50.79 1256.11,-57.77"/>
</g>
<!-- /lib/files/save.dart&#45;&gt;/lib/models/app_model.dart -->
<g id="edge67" class="edge">
<title>/lib/files/save.dart&#45;&gt;/lib/models/app_model.dart</title>
<path fill="none" stroke="#aabbaa" stroke-width="1.3" stroke-opacity="0.533333" d="M869.21,-349.77C878.56,-319.28 897.88,-258.3 905,-251 929.1,-226.31 965.23,-212.35 995.63,-204.54"/>
<polygon fill="#aabbaa" fill-opacity="0.533333" stroke="#aabbaa" stroke-width="1.3" stroke-opacity="0.533333" points="996.13,-208.02 1005.05,-202.3 994.51,-201.21 996.13,-208.02"/>
</g>
<!-- /lib/files/export_download_non_web.dart -->
<g id="node34" class="node">
<title>/lib/files/export_download_non_web.dart</title>
<path fill="Lavender" stroke="black" stroke-width="1.3" d="M513.75,-386C513.75,-386 340.25,-386 340.25,-386 334.25,-386 328.25,-380 328.25,-374 328.25,-374 328.25,-362 328.25,-362 328.25,-356 334.25,-350 340.25,-350 340.25,-350 513.75,-350 513.75,-350 519.75,-350 525.75,-356 525.75,-362 525.75,-362 525.75,-374 525.75,-374 525.75,-380 519.75,-386 513.75,-386"/>
<text text-anchor="middle" x="427" y="-362.75" font-family="Arial" font-size="15.00">export_download_non_web</text>
</g>
<!-- /lib/files/export_download_non_web.dart&#45;&gt;/lib/panels/share_panel.dart -->
<g id="edge71" class="edge">
<title>/lib/files/export_download_non_web.dart&#45;&gt;/lib/panels/share_panel.dart</title>
<path fill="none" stroke="#aabbaa" stroke-width="1.3" stroke-opacity="0.533333" d="M457.51,-386.26C480.41,-398.84 513.02,-414.43 544,-421 557.59,-423.88 1530.41,-423.88 1544,-421 1560.53,-417.49 1575.33,-406.1 1586.53,-394.77"/>
<polygon fill="#aabbaa" fill-opacity="0.533333" stroke="#aabbaa" stroke-width="1.3" stroke-opacity="0.533333" points="1588.84,-397.43 1593.02,-387.7 1583.68,-392.69 1588.84,-397.43"/>
</g>
<!-- /lib/files/export_download_non_web.dart&#45;&gt;/lib/models/app_model.dart -->
<g id="edge70" class="edge">
<title>/lib/files/export_download_non_web.dart&#45;&gt;/lib/models/app_model.dart</title>
<path fill="none" stroke="#aabbaa" stroke-width="1.3" stroke-opacity="0.533333" d="M492.88,-349.56C506.7,-346.52 521.26,-343.77 535,-342 550.38,-340.02 802.07,-343.91 814,-334 843.04,-309.89 805.79,-278.16 832,-251 843.46,-239.13 934.06,-218.83 995.36,-206.2"/>
<polygon fill="#aabbaa" fill-opacity="0.533333" stroke="#aabbaa" stroke-width="1.3" stroke-opacity="0.533333" points="995.8,-209.69 1004.89,-204.26 994.4,-202.83 995.8,-209.69"/>
</g>
<!-- /lib/files/export_download_non_web.dart&#45;&gt;/lib/files/file_jpeg.dart -->
<g id="edge68" class="edge">
<title>/lib/files/export_download_non_web.dart&#45;&gt;/lib/files/file_jpeg.dart</title>
<path fill="none" stroke="#aabbaa" stroke-width="1.3" stroke-opacity="0.533333" d="M448.21,-349.82C462.17,-338.52 480.67,-323.53 496.23,-310.92"/>
<polygon fill="#aabbaa" fill-opacity="0.533333" stroke="#aabbaa" stroke-width="1.3" stroke-opacity="0.533333" points="498.38,-313.68 503.95,-304.67 493.98,-308.25 498.38,-313.68"/>
</g>
<!-- /lib/files/export_download_non_web.dart&#45;&gt;/lib/files/file_ora.dart -->
<g id="edge69" class="edge">
<title>/lib/files/export_download_non_web.dart&#45;&gt;/lib/files/file_ora.dart</title>
<path fill="none" stroke="#aabbaa" stroke-width="1.3" stroke-opacity="0.533333" d="M501.93,-349.57C513.01,-347.01 524.3,-344.43 535,-342 550.98,-338.37 555.03,-337.67 571,-334 625.35,-321.5 687.8,-306.58 728.69,-296.73"/>
<polygon fill="#aabbaa" fill-opacity="0.533333" stroke="#aabbaa" stroke-width="1.3" stroke-opacity="0.533333" points="729.33,-300.17 738.23,-294.42 727.69,-293.37 729.33,-300.17"/>
</g>
<!-- /lib/files/import_files.dart&#45;&gt;/lib/models/app_model.dart -->
<g id="edge73" class="edge">
<title>/lib/files/import_files.dart&#45;&gt;/lib/models/app_model.dart</title>
<path fill="none" stroke="#aabbaa" stroke-width="1.3" stroke-opacity="0.533333" d="M809.73,-349.59C815.78,-346.93 822.03,-344.3 828,-342 838.88,-337.8 845.01,-342.5 853,-334 879.06,-306.27 847.87,-278.66 874,-251 905.25,-217.92 955.8,-204.28 995.06,-198.71"/>
<polygon fill="#aabbaa" fill-opacity="0.533333" stroke="#aabbaa" stroke-width="1.3" stroke-opacity="0.533333" points="995.41,-202.19 1004.89,-197.47 994.53,-195.25 995.41,-202.19"/>
</g>
<!-- /lib/files/import_files.dart&#45;&gt;/lib/files/file_ora.dart -->
<g id="edge72" class="edge">
<title>/lib/files/import_files.dart&#45;&gt;/lib/files/file_ora.dart</title>
<path fill="none" stroke="#aabbaa" stroke-width="1.3" stroke-opacity="0.533333" d="M773,-349.82C773,-339.8 773,-326.88 773,-315.29"/>
<polygon fill="#aabbaa" fill-opacity="0.533333" stroke="#aabbaa" stroke-width="1.3" stroke-opacity="0.533333" points="776.5,-315.4 773,-305.4 769.5,-315.4 776.5,-315.4"/>
</g>
<!-- /lib/main_screen.dart&#45;&gt;/lib/panels/tools/flood_fill.dart -->
<g id="edge76" class="edge">
<title>/lib/main_screen.dart&#45;&gt;/lib/panels/tools/flood_fill.dart</title>
<path fill="none" stroke="#aabbaa" stroke-width="1.3" stroke-opacity="0.533333" d="M1184.08,-589.78C1246.09,-586.55 1343.81,-579.53 1355,-567 1378.41,-540.81 1361.8,-499.04 1346.18,-471.57"/>
<polygon fill="#aabbaa" fill-opacity="0.533333" stroke="#aabbaa" stroke-width="1.3" stroke-opacity="0.533333" points="1349.27,-469.91 1341.12,-463.14 1343.27,-473.52 1349.27,-469.91"/>
</g>
<!-- /lib/main_screen.dart&#45;&gt;/lib/panels/canvas_panel.dart -->
<g id="edge74" class="edge">
<title>/lib/main_screen.dart&#45;&gt;/lib/panels/canvas_panel.dart</title>
<path fill="none" stroke="#aabbaa" stroke-width="1.3" stroke-opacity="0.533333" d="M1107.06,-574.55C1045.7,-531.29 902.06,-417.17 975,-342 985.3,-331.39 1226.27,-335.22 1241,-334 1341.23,-325.68 1456.59,-308.49 1527.14,-297.1"/>
<polygon fill="#aabbaa" fill-opacity="0.533333" stroke="#aabbaa" stroke-width="1.3" stroke-opacity="0.533333" points="1527.67,-300.56 1536.98,-295.5 1526.55,-293.65 1527.67,-300.56"/>
</g>
<!-- /lib/main_screen.dart&#45;&gt;/lib/panels/side_panel.dart -->
<g id="edge75" class="edge">
<title>/lib/main_screen.dart&#45;&gt;/lib/panels/side_panel.dart</title>
<path fill="none" stroke="#aabbaa" stroke-width="1.3" stroke-opacity="0.533333" d="M1184.02,-587.41C1205.1,-583.93 1229.19,-577.79 1249,-567 1259.18,-561.45 1268.63,-553.08 1276.4,-544.87"/>
<polygon fill="#aabbaa" fill-opacity="0.533333" stroke="#aabbaa" stroke-width="1.3" stroke-opacity="0.533333" points="1278.8,-547.44 1282.83,-537.64 1273.57,-542.79 1278.8,-547.44"/>
</g>
<!-- /lib/main_screen.dart&#45;&gt;/lib/models/app_model.dart -->
<g id="edge78" class="edge">
<title>/lib/main_screen.dart&#45;&gt;/lib/models/app_model.dart</title>
<path fill="none" stroke="#aabbaa" stroke-width="1.3" stroke-opacity="0.533333" d="M1081.88,-584.38C873.77,-553.27 100.52,-436.5 84,-417 60.16,-388.85 58.68,-277.83 84,-251 115.42,-217.71 792.53,-200.56 995.19,-196.16"/>
<polygon fill="#aabbaa" fill-opacity="0.533333" stroke="#aabbaa" stroke-width="1.3" stroke-opacity="0.533333" points="995.12,-199.66 1005.04,-195.95 994.97,-192.66 995.12,-199.66"/>
</g>
<!-- /lib/widgets/canvas_widget.dart -->
<g id="node40" class="node">
<title>/lib/widgets/canvas_widget.dart</title>
<path fill="Lavender" stroke="black" stroke-width="1.3" d="M2673.12,-303C2673.12,-303 2582.88,-303 2582.88,-303 2576.88,-303 2570.88,-297 2570.88,-291 2570.88,-291 2570.88,-279 2570.88,-279 2570.88,-273 2576.88,-267 2582.88,-267 2582.88,-267 2673.12,-267 2673.12,-267 2679.12,-267 2685.12,-273 2685.12,-279 2685.12,-279 2685.12,-291 2685.12,-291 2685.12,-297 2679.12,-303 2673.12,-303"/>
<text text-anchor="middle" x="2628" y="-279.75" font-family="Arial" font-size="15.00">canvas_widget</text>
</g>
<!-- /lib/main_screen.dart&#45;&gt;/lib/widgets/canvas_widget.dart -->
<g id="edge77" class="edge">
<title>/lib/main_screen.dart&#45;&gt;/lib/widgets/canvas_widget.dart</title>
<path fill="none" stroke="#aabbaa" stroke-width="1.3" stroke-opacity="0.533333" d="M1183.91,-586.54C1231.11,-581.48 1303.3,-573.73 1366,-567 1676.22,-533.69 1758.66,-556.17 2064,-492 2291.24,-444.25 2354.76,-438.75 2562,-334 2574.59,-327.64 2587.36,-318.97 2598.28,-310.75"/>
<polygon fill="#aabbaa" fill-opacity="0.533333" stroke="#aabbaa" stroke-width="1.3" stroke-opacity="0.533333" points="2600.42,-313.51 2606.17,-304.61 2596.12,-307.99 2600.42,-313.51"/>
</g>
<!-- /lib/helpers/image_helper.dart&#45;&gt;/lib/helpers/color_helper.dart -->
<g id="edge79" class="edge">
<title>/lib/helpers/image_helper.dart&#45;&gt;/lib/helpers/color_helper.dart</title>
<path fill="none" stroke="#aabbaa" stroke-width="1.3" stroke-opacity="0.533333" d="M1306.99,-175.7C1307.4,-168.49 1307.89,-159.93 1308.35,-151.82"/>
<polygon fill="#aabbaa" fill-opacity="0.533333" stroke="#aabbaa" stroke-width="1.3" stroke-opacity="0.533333" points="1311.83,-152.25 1308.91,-142.07 1304.85,-151.85 1311.83,-152.25"/>
</g>
<!-- /lib/helpers/color_helper.dart&#45;&gt;/lib/helpers/list_helper.dart -->
<g id="edge80" class="edge">
<title>/lib/helpers/color_helper.dart&#45;&gt;/lib/helpers/list_helper.dart</title>
<path fill="none" stroke="#aabbaa" stroke-width="1.3" stroke-opacity="0.533333" d="M1310,-103.7C1310,-96.49 1310,-87.93 1310,-79.82"/>
<polygon fill="#aabbaa" fill-opacity="0.533333" stroke="#aabbaa" stroke-width="1.3" stroke-opacity="0.533333" points="1313.5,-80.07 1310,-70.07 1306.5,-80.07 1313.5,-80.07"/>
</g>
<!-- /lib/widgets/canvas_widget.dart&#45;&gt;/lib/models/app_model.dart -->
<g id="edge81" class="edge">
<title>/lib/widgets/canvas_widget.dart&#45;&gt;/lib/models/app_model.dart</title>
<path fill="none" stroke="#aabbaa" stroke-width="1.3" stroke-opacity="0.533333" d="M2600.18,-266.54C2588.79,-260.36 2575.21,-254.16 2562,-251 2523.2,-241.73 1164.22,-254.43 1126,-243 1109.87,-238.18 1093.94,-228.64 1081.02,-219.33"/>
<polygon fill="#aabbaa" fill-opacity="0.533333" stroke="#aabbaa" stroke-width="1.3" stroke-opacity="0.533333" points="1083.42,-216.76 1073.34,-213.52 1079.2,-222.35 1083.42,-216.76"/>
</g>
<!-- /lib/widgets/color_preview.dart&#45;&gt;/lib/helpers/color_helper.dart -->
<g id="edge82" class="edge">
<title>/lib/widgets/color_preview.dart&#45;&gt;/lib/helpers/color_helper.dart</title>
<path fill="none" stroke="#aabbaa" stroke-width="1.3" stroke-opacity="0.533333" d="M3295.98,-190.21C3198.78,-185.25 2987.95,-174.79 2810,-168 2251.26,-146.69 1575.12,-129.48 1371.12,-124.48"/>
<polygon fill="#aabbaa" fill-opacity="0.533333" stroke="#aabbaa" stroke-width="1.3" stroke-opacity="0.533333" points="1371.26,-120.98 1361.18,-124.23 1371.09,-127.98 1371.26,-120.98"/>
</g>
<!-- /lib/widgets/top_colors.dart&#45;&gt;/lib/models/app_model.dart -->
<g id="edge84" class="edge">
<title>/lib/widgets/top_colors.dart&#45;&gt;/lib/models/app_model.dart</title>
<path fill="none" stroke="#aabbaa" stroke-width="1.3" stroke-opacity="0.533333" d="M3402.03,-266.57C3393.3,-260.39 3382.72,-254.19 3372,-251 3312.2,-233.22 1185.79,-260.81 1126,-243 1109.86,-238.19 1093.93,-228.66 1081.01,-219.35"/>
<polygon fill="#aabbaa" fill-opacity="0.533333" stroke="#aabbaa" stroke-width="1.3" stroke-opacity="0.533333" points="1083.42,-216.78 1073.33,-213.54 1079.2,-222.36 1083.42,-216.78"/>
</g>
<!-- /lib/widgets/top_colors.dart&#45;&gt;/lib/helpers/color_helper.dart -->
<g id="edge83" class="edge">
<title>/lib/widgets/top_colors.dart&#45;&gt;/lib/helpers/color_helper.dart</title>
<path fill="none" stroke="#aabbaa" stroke-width="1.3" stroke-opacity="0.533333" d="M3427.7,-266.83C3433.57,-241.18 3439.84,-193.16 3413,-168 3374.76,-132.15 1712.67,-124.41 1371.01,-123.19"/>
<polygon fill="#aabbaa" fill-opacity="0.533333" stroke="#aabbaa" stroke-width="1.3" stroke-opacity="0.533333" points="1371.16,-119.69 1361.15,-123.16 1371.14,-126.69 1371.16,-119.69"/>
</g>
<!-- /lib/widgets/top_colors.dart&#45;&gt;/lib/widgets/transparent_background.dart -->
<g id="edge86" class="edge">
<title>/lib/widgets/top_colors.dart&#45;&gt;/lib/widgets/transparent_background.dart</title>
<path fill="none" stroke="#aabbaa" stroke-width="1.3" stroke-opacity="0.533333" d="M3401.39,-266.67C3392.74,-260.66 3382.38,-254.55 3372,-251 3368.73,-249.88 2998.05,-218.85 2813.71,-203.47"/>
<polygon fill="#aabbaa" fill-opacity="0.533333" stroke="#aabbaa" stroke-width="1.3" stroke-opacity="0.533333" points="2814.06,-199.99 2803.81,-202.65 2813.48,-206.97 2814.06,-199.99"/>
</g>
<!-- /lib/widgets/top_colors.dart&#45;&gt;/lib/widgets/color_preview.dart -->
<g id="edge85" class="edge">
<title>/lib/widgets/top_colors.dart&#45;&gt;/lib/widgets/color_preview.dart</title>
<path fill="none" stroke="#aabbaa" stroke-width="1.3" stroke-opacity="0.533333" d="M3408.92,-266.84C3398.39,-253.99 3383.78,-236.19 3371.75,-221.52"/>
<polygon fill="#aabbaa" fill-opacity="0.533333" stroke="#aabbaa" stroke-width="1.3" stroke-opacity="0.533333" points="3374.58,-219.44 3365.53,-213.93 3369.16,-223.88 3374.58,-219.44"/>
</g>
<!-- /lib/widgets/brush_style_picker.dart&#45;&gt;/lib/models/app_model.dart -->
<g id="edge87" class="edge">
<title>/lib/widgets/brush_style_picker.dart&#45;&gt;/lib/models/app_model.dart</title>
<path fill="none" stroke="#aabbaa" stroke-width="1.3" stroke-opacity="0.533333" d="M2739.32,-266.52C2725.64,-260.33 2709.44,-254.14 2694,-251 2651.32,-242.33 1167.73,-255.47 1126,-243 1109.86,-238.18 1093.94,-228.64 1081.02,-219.33"/>
<polygon fill="#aabbaa" fill-opacity="0.533333" stroke="#aabbaa" stroke-width="1.3" stroke-opacity="0.533333" points="1083.42,-216.77 1073.34,-213.53 1079.2,-222.35 1083.42,-216.77"/>
</g>
<!-- /lib/widgets/color_picker.dart&#45;&gt;/lib/helpers/list_helper.dart -->
<g id="edge89" class="edge">
<title>/lib/widgets/color_picker.dart&#45;&gt;/lib/helpers/list_helper.dart</title>
<path fill="none" stroke="#aabbaa" stroke-width="1.3" stroke-opacity="0.533333" d="M3527.76,-266.52C3520.29,-240 3502.06,-190.3 3466,-168 3282.15,-54.3 1679.18,-50.51 1363.75,-50.87"/>
<polygon fill="#aabbaa" fill-opacity="0.533333" stroke="#aabbaa" stroke-width="1.3" stroke-opacity="0.533333" points="1363.77,-47.37 1353.77,-50.88 1363.78,-54.37 1363.77,-47.37"/>
</g>
<!-- /lib/widgets/color_picker.dart&#45;&gt;/lib/helpers/color_helper.dart -->
<g id="edge88" class="edge">
<title>/lib/widgets/color_picker.dart&#45;&gt;/lib/helpers/color_helper.dart</title>
<path fill="none" stroke="#aabbaa" stroke-width="1.3" stroke-opacity="0.533333" d="M3515.12,-266.61C3508.19,-259.38 3500.13,-250.85 3493,-243 3463.35,-210.34 3467.93,-186.75 3428,-168 3332.58,-123.2 1708.98,-122.55 1371.24,-122.9"/>
<polygon fill="#aabbaa" fill-opacity="0.533333" stroke="#aabbaa" stroke-width="1.3" stroke-opacity="0.533333" points="1371.27,-119.4 1361.28,-122.92 1371.28,-126.4 1371.27,-119.4"/>
</g>
<!-- /lib/widgets/color_picker.dart&#45;&gt;/lib/widgets/transparent_background.dart -->
<g id="edge90" class="edge">
<title>/lib/widgets/color_picker.dart&#45;&gt;/lib/widgets/transparent_background.dart</title>
<path fill="none" stroke="#aabbaa" stroke-width="1.3" stroke-opacity="0.533333" d="M3507.93,-266.61C3498.19,-260.52 3486.53,-254.36 3475,-251 3434.86,-239.3 3328.73,-245.63 3287,-243 3120.92,-232.54 2928.26,-215.44 2813.45,-204.73"/>
<polygon fill="#aabbaa" fill-opacity="0.533333" stroke="#aabbaa" stroke-width="1.3" stroke-opacity="0.533333" points="2813.8,-201.24 2803.51,-203.8 2813.14,-208.21 2813.8,-201.24"/>
</g>
</g>
</svg>
