<?xml version="1.0" encoding="UTF-8" standalone="no"?>
<!DOCTYPE svg PUBLIC "-//W3C//DTD SVG 1.1//EN"
 "http://www.w3.org/Graphics/SVG/1.1/DTD/svg11.dtd">
<!-- Generated by graphviz version 12.2.1 (20241206.2353)
 -->
<!-- Pages: 1 -->
<svg width="824pt" height="614pt"
 viewBox="0.00 0.00 824.00 614.00" xmlns="http://www.w3.org/2000/svg" xmlns:xlink="http://www.w3.org/1999/xlink">
<g id="graph0" class="graph" transform="scale(1 1) rotate(0) translate(4 610)">
<polygon fill="white" stroke="none" points="-4,4 -4,-610 820,-610 820,4 -4,4"/>
<g id="clust1" class="cluster">
<title>cluster~</title>
<path fill="none" stroke="lightgray" stroke-width="2.6" d="M20,-8C20,-8 796,-8 796,-8 802,-8 808,-14 808,-20 808,-20 808,-586 808,-586 808,-592 802,-598 796,-598 796,-598 20,-598 20,-598 14,-598 8,-592 8,-586 8,-586 8,-20 8,-20 8,-14 14,-8 20,-8"/>
<text text-anchor="middle" x="408" y="-581.65" font-family="Arial Black" font-size="13.00">fpaint</text>
</g>
<g id="clust2" class="cluster">
<title>cluster~/test</title>
<path fill="none" stroke="lightgray" stroke-width="2.6" d="M57,-492C57,-492 289,-492 289,-492 295,-492 301,-498 301,-504 301,-504 301,-555 301,-555 301,-561 295,-567 289,-567 289,-567 57,-567 57,-567 51,-567 45,-561 45,-555 45,-555 45,-504 45,-504 45,-498 51,-492 57,-492"/>
<text text-anchor="middle" x="173" y="-550.65" font-family="Arial Black" font-size="13.00">test</text>
</g>
<g id="clust3" class="cluster">
<title>cluster~/lib</title>
<path fill="none" stroke="lightgray" stroke-width="2.6" d="M28,-16C28,-16 788,-16 788,-16 794,-16 800,-22 800,-28 800,-28 800,-472 800,-472 800,-478 794,-484 788,-484 788,-484 28,-484 28,-484 22,-484 16,-478 16,-472 16,-472 16,-28 16,-28 16,-22 22,-16 28,-16"/>
<text text-anchor="middle" x="408" y="-467.65" font-family="Arial Black" font-size="13.00">lib</text>
</g>
<g id="clust4" class="cluster">
<title>cluster~/lib/brushes</title>
<path fill="none" stroke="lightgray" stroke-width="2.6" d="M48,-96C48,-96 110,-96 110,-96 116,-96 122,-102 122,-108 122,-108 122,-159 122,-159 122,-165 116,-171 110,-171 110,-171 48,-171 48,-171 42,-171 36,-165 36,-159 36,-159 36,-108 36,-108 36,-102 42,-96 48,-96"/>
<text text-anchor="middle" x="79" y="-154.65" font-family="Arial Black" font-size="13.00">brushes</text>
</g>
<g id="clust5" class="cluster">
<title>cluster~/lib/panels</title>
<path fill="none" stroke="lightgray" stroke-width="2.6" d="M578,-179C578,-179 780,-179 780,-179 786,-179 792,-185 792,-191 792,-191 792,-325 792,-325 792,-331 786,-337 780,-337 780,-337 578,-337 578,-337 572,-337 566,-331 566,-325 566,-325 566,-191 566,-191 566,-185 572,-179 578,-179"/>
<text text-anchor="middle" x="679" y="-320.65" font-family="Arial Black" font-size="13.00">panels</text>
</g>
<g id="clust6" class="cluster">
<title>cluster~/lib/models</title>
<path fill="none" stroke="lightgray" stroke-width="2.6" d="M36,-179C36,-179 229,-179 229,-179 235,-179 241,-185 241,-191 241,-191 241,-325 241,-325 241,-331 235,-337 229,-337 229,-337 36,-337 36,-337 30,-337 24,-331 24,-325 24,-325 24,-191 24,-191 24,-185 30,-179 36,-179"/>
<text text-anchor="middle" x="132.5" y="-320.65" font-family="Arial Black" font-size="13.00">models</text>
</g>
<g id="clust7" class="cluster">
<title>cluster~/lib/files</title>
<path fill="none" stroke="lightgray" stroke-width="2.6" d="M261,-262C261,-262 307,-262 307,-262 313,-262 319,-268 319,-274 319,-274 319,-325 319,-325 319,-331 313,-337 307,-337 307,-337 261,-337 261,-337 255,-337 249,-331 249,-325 249,-325 249,-274 249,-274 249,-268 255,-262 261,-262"/>
<text text-anchor="middle" x="284" y="-320.65" font-family="Arial Black" font-size="13.00">files</text>
</g>
<g id="clust8" class="cluster">
<title>cluster~/lib/helpers</title>
<path fill="none" stroke="lightgray" stroke-width="2.6" d="M491,-24C491,-24 581,-24 581,-24 587,-24 593,-30 593,-36 593,-36 593,-159 593,-159 593,-165 587,-171 581,-171 581,-171 491,-171 491,-171 485,-171 479,-165 479,-159 479,-159 479,-36 479,-36 479,-30 485,-24 491,-24"/>
<text text-anchor="middle" x="536" y="-154.65" font-family="Arial Black" font-size="13.00">helpers</text>
</g>
<g id="clust9" class="cluster">
<title>cluster~/lib/widgets</title>
<path fill="none" stroke="lightgray" stroke-width="2.6" d="M261,-179C261,-179 546,-179 546,-179 552,-179 558,-185 558,-191 558,-191 558,-242 558,-242 558,-248 552,-254 546,-254 546,-254 261,-254 261,-254 255,-254 249,-248 249,-242 249,-242 249,-191 249,-191 249,-185 255,-179 261,-179"/>
<text text-anchor="middle" x="403.5" y="-237.65" font-family="Arial Black" font-size="13.00">widgets</text>
</g>
<!-- /test/paint_model_test.dart -->
<g id="node1" class="node">
<title>/test/paint_model_test.dart</title>
<path fill="Lavender" stroke="black" stroke-width="1.3" d="M171,-536C171,-536 65,-536 65,-536 59,-536 53,-530 53,-524 53,-524 53,-512 53,-512 53,-506 59,-500 65,-500 65,-500 171,-500 171,-500 177,-500 183,-506 183,-512 183,-512 183,-524 183,-524 183,-530 177,-536 171,-536"/>
<text text-anchor="middle" x="118" y="-512.75" font-family="Arial" font-size="15.00">paint_model_test</text>
</g>
<!-- /lib/models/app_model.dart -->
<g id="node9" class="node">
<title>/lib/models/app_model.dart</title>
<path fill="Lavender" stroke="black" stroke-width="1.3" d="M220.75,-223C220.75,-223 155.25,-223 155.25,-223 149.25,-223 143.25,-217 143.25,-211 143.25,-211 143.25,-199 143.25,-199 143.25,-193 149.25,-187 155.25,-187 155.25,-187 220.75,-187 220.75,-187 226.75,-187 232.75,-193 232.75,-199 232.75,-199 232.75,-211 232.75,-211 232.75,-217 226.75,-223 220.75,-223"/>
<text text-anchor="middle" x="188" y="-199.75" font-family="Arial" font-size="15.00">app_model</text>
</g>
<!-- /test/paint_model_test.dart&#45;&gt;/lib/models/app_model.dart -->
<g id="edge1" class="edge">
<title>/test/paint_model_test.dart&#45;&gt;/lib/models/app_model.dart</title>
<path fill="none" stroke="#aabbaa" stroke-width="1.3" stroke-opacity="0.533333" d="M113.16,-499.52C102.19,-456.11 79.6,-341.22 123,-262 126.08,-256.38 129.94,-257.94 135,-254 144.06,-246.94 153.5,-238.71 161.85,-231.08"/>
<polygon fill="#aabbaa" fill-opacity="0.533333" stroke="#aabbaa" stroke-width="1.3" stroke-opacity="0.533333" points="164.03,-233.83 168.98,-224.46 159.27,-228.7 164.03,-233.83"/>
</g>
<!-- /test/widget_test.dart -->
<g id="node2" class="node">
<title>/test/widget_test.dart</title>
<path fill="Lavender" stroke="black" stroke-width="1.3" d="M280.88,-536C280.88,-536 213.12,-536 213.12,-536 207.12,-536 201.12,-530 201.12,-524 201.12,-524 201.12,-512 201.12,-512 201.12,-506 207.12,-500 213.12,-500 213.12,-500 280.88,-500 280.88,-500 286.88,-500 292.88,-506 292.88,-512 292.88,-512 292.88,-524 292.88,-524 292.88,-530 286.88,-536 280.88,-536"/>
<text text-anchor="middle" x="247" y="-512.75" font-family="Arial" font-size="15.00">widget_test</text>
</g>
<!-- /lib/main.dart -->
<g id="node10" class="node">
<title>/lib/main.dart</title>
<path fill="Lavender" stroke="black" stroke-width="1.3" d="M262,-453C262,-453 232,-453 232,-453 226,-453 220,-447 220,-441 220,-441 220,-429 220,-429 220,-423 226,-417 232,-417 232,-417 262,-417 262,-417 268,-417 274,-423 274,-429 274,-429 274,-441 274,-441 274,-447 268,-453 262,-453"/>
<text text-anchor="middle" x="247" y="-429.75" font-family="Arial" font-size="15.00">main</text>
</g>
<!-- /test/widget_test.dart&#45;&gt;/lib/main.dart -->
<g id="edge2" class="edge">
<title>/test/widget_test.dart&#45;&gt;/lib/main.dart</title>
<path fill="none" stroke="#aabbaa" stroke-width="1.3" stroke-opacity="0.533333" d="M247,-499.82C247,-489.8 247,-476.88 247,-465.29"/>
<polygon fill="#aabbaa" fill-opacity="0.533333" stroke="#aabbaa" stroke-width="1.3" stroke-opacity="0.533333" points="250.5,-465.4 247,-455.4 243.5,-465.4 250.5,-465.4"/>
</g>
<!-- /lib/brushes/brushes.dart -->
<g id="node3" class="node">
<title>/lib/brushes/brushes.dart</title>
<path fill="Lavender" stroke="black" stroke-width="1.3" d="M101.62,-140C101.62,-140 56.38,-140 56.38,-140 50.38,-140 44.38,-134 44.38,-128 44.38,-128 44.38,-116 44.38,-116 44.38,-110 50.38,-104 56.38,-104 56.38,-104 101.62,-104 101.62,-104 107.62,-104 113.62,-110 113.62,-116 113.62,-116 113.62,-128 113.62,-128 113.62,-134 107.62,-140 101.62,-140"/>
<text text-anchor="middle" x="79" y="-116.75" font-family="Arial" font-size="15.00">brushes</text>
</g>
<!-- /lib/brushes/brushes.dart&#45;&gt;/lib/models/app_model.dart -->
<g id="edge3" class="edge">
<title>/lib/brushes/brushes.dart&#45;&gt;/lib/models/app_model.dart</title>
<path fill="none" stroke="#aabbaa" stroke-width="1.3" stroke-opacity="0.533333" d="M102.34,-140.35C117.71,-151.77 138.05,-166.88 155.05,-179.52"/>
<polygon fill="#aabbaa" fill-opacity="0.533333" stroke="#aabbaa" stroke-width="1.3" stroke-opacity="0.533333" points="152.92,-182.29 163.04,-185.45 157.1,-176.68 152.92,-182.29"/>
</g>
<!-- /lib/panels/tools_panel.dart -->
<g id="node4" class="node">
<title>/lib/panels/tools_panel.dart</title>
<path fill="Lavender" stroke="black" stroke-width="1.3" d="M771.88,-306C771.88,-306 704.12,-306 704.12,-306 698.12,-306 692.12,-300 692.12,-294 692.12,-294 692.12,-282 692.12,-282 692.12,-276 698.12,-270 704.12,-270 704.12,-270 771.88,-270 771.88,-270 777.88,-270 783.88,-276 783.88,-282 783.88,-282 783.88,-294 783.88,-294 783.88,-300 777.88,-306 771.88,-306"/>
<text text-anchor="middle" x="738" y="-282.75" font-family="Arial" font-size="15.00">tools_panel</text>
</g>
<!-- /lib/panels/tool.dart -->
<g id="node6" class="node">
<title>/lib/panels/tool.dart</title>
<path fill="Lavender" stroke="black" stroke-width="1.3" d="M753,-223C753,-223 723,-223 723,-223 717,-223 711,-217 711,-211 711,-211 711,-199 711,-199 711,-193 717,-187 723,-187 723,-187 753,-187 753,-187 759,-187 765,-193 765,-199 765,-199 765,-211 765,-211 765,-217 759,-223 753,-223"/>
<text text-anchor="middle" x="738" y="-199.75" font-family="Arial" font-size="15.00">tool</text>
</g>
<!-- /lib/panels/tools_panel.dart&#45;&gt;/lib/panels/tool.dart -->
<g id="edge5" class="edge">
<title>/lib/panels/tools_panel.dart&#45;&gt;/lib/panels/tool.dart</title>
<path fill="none" stroke="#aabbaa" stroke-width="1.3" stroke-opacity="0.533333" d="M738,-269.82C738,-259.8 738,-246.88 738,-235.29"/>
<polygon fill="#aabbaa" fill-opacity="0.533333" stroke="#aabbaa" stroke-width="1.3" stroke-opacity="0.533333" points="741.5,-235.4 738,-225.4 734.5,-235.4 741.5,-235.4"/>
</g>
<!-- /lib/panels/tools_panel.dart&#45;&gt;/lib/models/app_model.dart -->
<g id="edge4" class="edge">
<title>/lib/panels/tools_panel.dart&#45;&gt;/lib/models/app_model.dart</title>
<path fill="none" stroke="#aabbaa" stroke-width="1.3" stroke-opacity="0.533333" d="M705.31,-269.53C698.15,-266.45 690.47,-263.69 683,-262 635.52,-251.26 290.57,-271.1 245,-254 232.33,-249.25 220.5,-240.37 210.94,-231.52"/>
<polygon fill="#aabbaa" fill-opacity="0.533333" stroke="#aabbaa" stroke-width="1.3" stroke-opacity="0.533333" points="213.49,-229.12 203.91,-224.58 208.56,-234.1 213.49,-229.12"/>
</g>
<!-- /lib/widgets/transparent_background.dart -->
<g id="node16" class="node">
<title>/lib/widgets/transparent_background.dart</title>
<path fill="Lavender" stroke="black" stroke-width="1.3" d="M423.38,-223C423.38,-223 268.62,-223 268.62,-223 262.62,-223 256.62,-217 256.62,-211 256.62,-211 256.62,-199 256.62,-199 256.62,-193 262.62,-187 268.62,-187 268.62,-187 423.38,-187 423.38,-187 429.38,-187 435.38,-193 435.38,-199 435.38,-199 435.38,-211 435.38,-211 435.38,-217 429.38,-223 423.38,-223"/>
<text text-anchor="middle" x="346" y="-199.75" font-family="Arial" font-size="15.00">transparent_background</text>
</g>
<!-- /lib/panels/tools_panel.dart&#45;&gt;/lib/widgets/transparent_background.dart -->
<g id="edge7" class="edge">
<title>/lib/panels/tools_panel.dart&#45;&gt;/lib/widgets/transparent_background.dart</title>
<path fill="none" stroke="#aabbaa" stroke-width="1.3" stroke-opacity="0.533333" d="M705.29,-269.62C698.13,-266.53 690.45,-263.75 683,-262 631.48,-249.93 496.37,-266.71 445,-254 423.86,-248.77 401.92,-238.68 384.08,-229.1"/>
<polygon fill="#aabbaa" fill-opacity="0.533333" stroke="#aabbaa" stroke-width="1.3" stroke-opacity="0.533333" points="385.98,-226.15 375.54,-224.35 382.58,-232.27 385.98,-226.15"/>
</g>
<!-- /lib/widgets/color_picker.dart -->
<g id="node17" class="node">
<title>/lib/widgets/color_picker.dart</title>
<path fill="Lavender" stroke="black" stroke-width="1.3" d="M538.12,-223C538.12,-223 465.88,-223 465.88,-223 459.88,-223 453.88,-217 453.88,-211 453.88,-211 453.88,-199 453.88,-199 453.88,-193 459.88,-187 465.88,-187 465.88,-187 538.12,-187 538.12,-187 544.12,-187 550.12,-193 550.12,-199 550.12,-199 550.12,-211 550.12,-211 550.12,-217 544.12,-223 538.12,-223"/>
<text text-anchor="middle" x="502" y="-199.75" font-family="Arial" font-size="15.00">color_picker</text>
</g>
<!-- /lib/panels/tools_panel.dart&#45;&gt;/lib/widgets/color_picker.dart -->
<g id="edge6" class="edge">
<title>/lib/panels/tools_panel.dart&#45;&gt;/lib/widgets/color_picker.dart</title>
<path fill="none" stroke="#aabbaa" stroke-width="1.3" stroke-opacity="0.533333" d="M704.66,-269.55C697.67,-266.55 690.22,-263.82 683,-262 630.73,-248.86 612.24,-273.51 562,-254 549.05,-248.97 536.71,-240.09 526.62,-231.33"/>
<polygon fill="#aabbaa" fill-opacity="0.533333" stroke="#aabbaa" stroke-width="1.3" stroke-opacity="0.533333" points="529.22,-228.96 519.49,-224.76 524.47,-234.11 529.22,-228.96"/>
</g>
<!-- /lib/panels/layers_panel.dart -->
<g id="node5" class="node">
<title>/lib/panels/layers_panel.dart</title>
<path fill="Lavender" stroke="black" stroke-width="1.3" d="M662,-306C662,-306 586,-306 586,-306 580,-306 574,-300 574,-294 574,-294 574,-282 574,-282 574,-276 580,-270 586,-270 586,-270 662,-270 662,-270 668,-270 674,-276 674,-282 674,-282 674,-294 674,-294 674,-300 668,-306 662,-306"/>
<text text-anchor="middle" x="624" y="-282.75" font-family="Arial" font-size="15.00">layers_panel</text>
</g>
<!-- /lib/panels/layers_panel.dart&#45;&gt;/lib/models/app_model.dart -->
<g id="edge8" class="edge">
<title>/lib/panels/layers_panel.dart&#45;&gt;/lib/models/app_model.dart</title>
<path fill="none" stroke="#aabbaa" stroke-width="1.3" stroke-opacity="0.533333" d="M591.93,-269.56C584.89,-266.48 577.34,-263.71 570,-262 534.82,-253.8 278.78,-266.8 245,-254 232.35,-249.21 220.52,-240.32 210.96,-231.48"/>
<polygon fill="#aabbaa" fill-opacity="0.533333" stroke="#aabbaa" stroke-width="1.3" stroke-opacity="0.533333" points="213.5,-229.08 203.93,-224.54 208.58,-234.06 213.5,-229.08"/>
</g>
<!-- /lib/models/layers.dart -->
<g id="node7" class="node">
<title>/lib/models/layers.dart</title>
<path fill="Lavender" stroke="black" stroke-width="1.3" d="M220.88,-306C220.88,-306 189.12,-306 189.12,-306 183.12,-306 177.12,-300 177.12,-294 177.12,-294 177.12,-282 177.12,-282 177.12,-276 183.12,-270 189.12,-270 189.12,-270 220.88,-270 220.88,-270 226.88,-270 232.88,-276 232.88,-282 232.88,-282 232.88,-294 232.88,-294 232.88,-300 226.88,-306 220.88,-306"/>
<text text-anchor="middle" x="205" y="-282.75" font-family="Arial" font-size="15.00">layers</text>
</g>
<!-- /lib/models/user_action.dart -->
<g id="node8" class="node">
<title>/lib/models/user_action.dart</title>
<path fill="Lavender" stroke="black" stroke-width="1.3" d="M113.62,-223C113.62,-223 44.38,-223 44.38,-223 38.38,-223 32.38,-217 32.38,-211 32.38,-211 32.38,-199 32.38,-199 32.38,-193 38.38,-187 44.38,-187 44.38,-187 113.62,-187 113.62,-187 119.62,-187 125.62,-193 125.62,-199 125.62,-199 125.62,-211 125.62,-211 125.62,-217 119.62,-223 113.62,-223"/>
<text text-anchor="middle" x="79" y="-199.75" font-family="Arial" font-size="15.00">user_action</text>
</g>
<!-- /lib/models/layers.dart&#45;&gt;/lib/models/user_action.dart -->
<g id="edge10" class="edge">
<title>/lib/models/layers.dart&#45;&gt;/lib/models/user_action.dart</title>
<path fill="none" stroke="#aabbaa" stroke-width="1.3" stroke-dasharray="5,2" stroke-opacity="0.533333" d="M176.73,-276.04C163.31,-270.3 147.33,-262.67 134,-254 123.9,-247.44 113.73,-239.14 104.92,-231.29"/>
<polygon fill="#aabbaa" fill-opacity="0.533333" stroke="#aabbaa" stroke-width="1.3" stroke-opacity="0.533333" points="107.48,-228.89 97.75,-224.7 102.74,-234.04 107.48,-228.89"/>
</g>
<!-- /lib/models/layers.dart&#45;&gt;/lib/models/app_model.dart -->
<g id="edge9" class="edge">
<title>/lib/models/layers.dart&#45;&gt;/lib/models/app_model.dart</title>
<path fill="none" stroke="#aabbaa" stroke-width="1.3" stroke-opacity="0.533333" d="M190.12,-269.82C185.85,-259.8 182.55,-246.88 181.12,-235.29"/>
<polygon fill="#aabbaa" fill-opacity="0.533333" stroke="#aabbaa" stroke-width="1.3" stroke-opacity="0.533333" points="184.62,-235.14 180.46,-225.4 177.63,-235.61 184.62,-235.14"/>
</g>
<!-- /lib/models/user_action.dart&#45;&gt;/lib/brushes/brushes.dart -->
<g id="edge11" class="edge">
<title>/lib/models/user_action.dart&#45;&gt;/lib/brushes/brushes.dart</title>
<path fill="none" stroke="#aabbaa" stroke-width="1.3" stroke-opacity="0.533333" d="M73.36,-186.82C72.28,-176.8 71.99,-163.88 72.49,-152.29"/>
<polygon fill="#aabbaa" fill-opacity="0.533333" stroke="#aabbaa" stroke-width="1.3" stroke-opacity="0.533333" points="75.97,-152.62 73.2,-142.4 68.99,-152.12 75.97,-152.62"/>
</g>
<!-- /lib/models/user_action.dart&#45;&gt;/lib/brushes/brushes.dart -->
<g id="edge12" class="edge">
<title>/lib/models/user_action.dart&#45;&gt;/lib/brushes/brushes.dart</title>
<path fill="none" stroke="#aabbaa" stroke-width="1.3" stroke-dasharray="5,2" stroke-opacity="0.533333" d="M84.64,-186.82C85.72,-176.8 86.01,-163.88 85.51,-152.29"/>
<polygon fill="#aabbaa" fill-opacity="0.533333" stroke="#aabbaa" stroke-width="1.3" stroke-opacity="0.533333" points="89.01,-152.12 84.8,-142.4 82.03,-152.62 89.01,-152.12"/>
</g>
<!-- /lib/models/app_model.dart&#45;&gt;/lib/models/layers.dart -->
<g id="edge13" class="edge">
<title>/lib/models/app_model.dart&#45;&gt;/lib/models/layers.dart</title>
<path fill="none" stroke="#aabbaa" stroke-width="1.3" stroke-opacity="0.533333" d="M191.66,-223.43C193.8,-233.61 196.55,-246.72 198.99,-258.38"/>
<polygon fill="#aabbaa" fill-opacity="0.533333" stroke="#aabbaa" stroke-width="1.3" stroke-opacity="0.533333" points="195.51,-258.83 200.99,-267.9 202.36,-257.39 195.51,-258.83"/>
</g>
<!-- /lib/models/app_model.dart&#45;&gt;/lib/models/layers.dart -->
<g id="edge14" class="edge">
<title>/lib/models/app_model.dart&#45;&gt;/lib/models/layers.dart</title>
<path fill="none" stroke="#aabbaa" stroke-width="1.3" stroke-dasharray="5,2" stroke-opacity="0.533333" d="M202.99,-223.43C207.24,-233.51 210.51,-246.44 211.92,-258.01"/>
<polygon fill="#aabbaa" fill-opacity="0.533333" stroke="#aabbaa" stroke-width="1.3" stroke-opacity="0.533333" points="208.42,-258.1 212.54,-267.86 215.4,-257.66 208.42,-258.1"/>
</g>
<!-- /lib/main.dart&#45;&gt;/lib/models/app_model.dart -->
<g id="edge16" class="edge">
<title>/lib/main.dart&#45;&gt;/lib/models/app_model.dart</title>
<path fill="none" stroke="#aabbaa" stroke-width="1.3" stroke-opacity="0.533333" d="M220.93,-416.81C197.63,-399.73 165.06,-371.18 151,-337 138.32,-306.17 141.41,-293.92 151,-262 154.09,-251.73 159.73,-241.61 165.7,-232.86"/>
<polygon fill="#aabbaa" fill-opacity="0.533333" stroke="#aabbaa" stroke-width="1.3" stroke-opacity="0.533333" points="168.47,-235.01 171.56,-224.87 162.82,-230.87 168.47,-235.01"/>
</g>
<!-- /lib/main_screen.dart -->
<g id="node13" class="node">
<title>/lib/main_screen.dart</title>
<path fill="Lavender" stroke="black" stroke-width="1.3" d="M360.75,-381C360.75,-381 283.25,-381 283.25,-381 277.25,-381 271.25,-375 271.25,-369 271.25,-369 271.25,-357 271.25,-357 271.25,-351 277.25,-345 283.25,-345 283.25,-345 360.75,-345 360.75,-345 366.75,-345 372.75,-351 372.75,-357 372.75,-357 372.75,-369 372.75,-369 372.75,-375 366.75,-381 360.75,-381"/>
<text text-anchor="middle" x="322" y="-357.75" font-family="Arial" font-size="15.00">main_screen</text>
</g>
<!-- /lib/main.dart&#45;&gt;/lib/main_screen.dart -->
<g id="edge15" class="edge">
<title>/lib/main.dart&#45;&gt;/lib/main_screen.dart</title>
<path fill="none" stroke="#aabbaa" stroke-width="1.3" stroke-opacity="0.533333" d="M265.54,-416.7C274.37,-408.45 285.11,-398.43 294.84,-389.35"/>
<polygon fill="#aabbaa" fill-opacity="0.533333" stroke="#aabbaa" stroke-width="1.3" stroke-opacity="0.533333" points="297.05,-392.07 301.98,-382.69 292.28,-386.95 297.05,-392.07"/>
</g>
<!-- /lib/files/ora.dart -->
<g id="node11" class="node">
<title>/lib/files/ora.dart</title>
<path fill="Lavender" stroke="black" stroke-width="1.3" d="M299,-306C299,-306 269,-306 269,-306 263,-306 257,-300 257,-294 257,-294 257,-282 257,-282 257,-276 263,-270 269,-270 269,-270 299,-270 299,-270 305,-270 311,-276 311,-282 311,-282 311,-294 311,-294 311,-300 305,-306 299,-306"/>
<text text-anchor="middle" x="284" y="-282.75" font-family="Arial" font-size="15.00">ora</text>
</g>
<!-- /lib/files/ora.dart&#45;&gt;/lib/models/app_model.dart -->
<g id="edge17" class="edge">
<title>/lib/files/ora.dart&#45;&gt;/lib/models/app_model.dart</title>
<path fill="none" stroke="#aabbaa" stroke-width="1.3" stroke-opacity="0.533333" d="M263.64,-269.82C250.24,-258.52 232.48,-243.53 217.54,-230.92"/>
<polygon fill="#aabbaa" fill-opacity="0.533333" stroke="#aabbaa" stroke-width="1.3" stroke-opacity="0.533333" points="220.06,-228.48 210.16,-224.7 215.55,-233.83 220.06,-228.48"/>
</g>
<!-- /lib/canvas.dart -->
<g id="node12" class="node">
<title>/lib/canvas.dart</title>
<path fill="Lavender" stroke="black" stroke-width="1.3" d="M380.62,-306C380.62,-306 341.38,-306 341.38,-306 335.38,-306 329.38,-300 329.38,-294 329.38,-294 329.38,-282 329.38,-282 329.38,-276 335.38,-270 341.38,-270 341.38,-270 380.62,-270 380.62,-270 386.62,-270 392.62,-276 392.62,-282 392.62,-282 392.62,-294 392.62,-294 392.62,-300 386.62,-306 380.62,-306"/>
<text text-anchor="middle" x="361" y="-282.75" font-family="Arial" font-size="15.00">canvas</text>
</g>
<!-- /lib/canvas.dart&#45;&gt;/lib/models/app_model.dart -->
<g id="edge19" class="edge">
<title>/lib/canvas.dart&#45;&gt;/lib/models/app_model.dart</title>
<path fill="none" stroke="#aabbaa" stroke-width="1.3" stroke-opacity="0.533333" d="M338.22,-269.52C333.41,-266.56 328.21,-263.85 323,-262 290.17,-250.31 277.08,-267.6 245,-254 232.72,-248.79 221.09,-240 211.58,-231.35"/>
<polygon fill="#aabbaa" fill-opacity="0.533333" stroke="#aabbaa" stroke-width="1.3" stroke-opacity="0.533333" points="214.2,-229.01 204.57,-224.59 209.34,-234.05 214.2,-229.01"/>
</g>
<!-- /lib/canvas.dart&#45;&gt;/lib/widgets/transparent_background.dart -->
<g id="edge18" class="edge">
<title>/lib/canvas.dart&#45;&gt;/lib/widgets/transparent_background.dart</title>
<path fill="none" stroke="#aabbaa" stroke-width="1.3" stroke-opacity="0.533333" d="M357.82,-269.82C355.94,-259.69 353.52,-246.6 351.36,-234.92"/>
<polygon fill="#aabbaa" fill-opacity="0.533333" stroke="#aabbaa" stroke-width="1.3" stroke-opacity="0.533333" points="354.85,-234.56 349.59,-225.37 347.97,-235.84 354.85,-234.56"/>
</g>
<!-- /lib/main_screen.dart&#45;&gt;/lib/panels/tools_panel.dart -->
<g id="edge23" class="edge">
<title>/lib/main_screen.dart&#45;&gt;/lib/panels/tools_panel.dart</title>
<path fill="none" stroke="#aabbaa" stroke-width="1.3" stroke-opacity="0.533333" d="M372.99,-362.44C458.88,-362.51 628.38,-359.66 683,-337 694.94,-332.05 706.1,-323.42 715.2,-314.83"/>
<polygon fill="#aabbaa" fill-opacity="0.533333" stroke="#aabbaa" stroke-width="1.3" stroke-opacity="0.533333" points="717.62,-317.36 722.18,-307.79 712.65,-312.43 717.62,-317.36"/>
</g>
<!-- /lib/main_screen.dart&#45;&gt;/lib/panels/layers_panel.dart -->
<g id="edge22" class="edge">
<title>/lib/main_screen.dart&#45;&gt;/lib/panels/layers_panel.dart</title>
<path fill="none" stroke="#aabbaa" stroke-width="1.3" stroke-opacity="0.533333" d="M373.03,-360.54C435.1,-358.14 535.82,-352 570,-337 581.72,-331.86 592.67,-323.19 601.61,-314.63"/>
<polygon fill="#aabbaa" fill-opacity="0.533333" stroke="#aabbaa" stroke-width="1.3" stroke-opacity="0.533333" points="603.95,-317.23 608.45,-307.64 598.95,-312.34 603.95,-317.23"/>
</g>
<!-- /lib/main_screen.dart&#45;&gt;/lib/models/app_model.dart -->
<g id="edge24" class="edge">
<title>/lib/main_screen.dart&#45;&gt;/lib/models/app_model.dart</title>
<path fill="none" stroke="#aabbaa" stroke-width="1.3" stroke-opacity="0.533333" d="M271.03,-360.63C231.44,-358.36 181.12,-352.42 168,-337 143.65,-308.38 158.51,-262.96 172.46,-233.82"/>
<polygon fill="#aabbaa" fill-opacity="0.533333" stroke="#aabbaa" stroke-width="1.3" stroke-opacity="0.533333" points="175.58,-235.42 176.98,-224.91 169.34,-232.25 175.58,-235.42"/>
</g>
<!-- /lib/main_screen.dart&#45;&gt;/lib/files/ora.dart -->
<g id="edge21" class="edge">
<title>/lib/main_screen.dart&#45;&gt;/lib/files/ora.dart</title>
<path fill="none" stroke="#aabbaa" stroke-width="1.3" stroke-opacity="0.533333" d="M312.99,-344.7C308.67,-336.4 303.39,-326.24 298.52,-316.88"/>
<polygon fill="#aabbaa" fill-opacity="0.533333" stroke="#aabbaa" stroke-width="1.3" stroke-opacity="0.533333" points="301.7,-315.43 293.98,-308.17 295.49,-318.66 301.7,-315.43"/>
</g>
<!-- /lib/main_screen.dart&#45;&gt;/lib/canvas.dart -->
<g id="edge20" class="edge">
<title>/lib/main_screen.dart&#45;&gt;/lib/canvas.dart</title>
<path fill="none" stroke="#aabbaa" stroke-width="1.3" stroke-opacity="0.533333" d="M331.24,-344.7C335.68,-336.4 341.1,-326.24 346.1,-316.88"/>
<polygon fill="#aabbaa" fill-opacity="0.533333" stroke="#aabbaa" stroke-width="1.3" stroke-opacity="0.533333" points="349.14,-318.63 350.76,-308.16 342.96,-315.34 349.14,-318.63"/>
</g>
<!-- /lib/helpers/list_helper.dart -->
<g id="node14" class="node">
<title>/lib/helpers/list_helper.dart</title>
<path fill="Lavender" stroke="black" stroke-width="1.3" d="M561.75,-68C561.75,-68 502.25,-68 502.25,-68 496.25,-68 490.25,-62 490.25,-56 490.25,-56 490.25,-44 490.25,-44 490.25,-38 496.25,-32 502.25,-32 502.25,-32 561.75,-32 561.75,-32 567.75,-32 573.75,-38 573.75,-44 573.75,-44 573.75,-56 573.75,-56 573.75,-62 567.75,-68 561.75,-68"/>
<text text-anchor="middle" x="532" y="-44.75" font-family="Arial" font-size="15.00">list_helper</text>
</g>
<!-- /lib/helpers/color_helper.dart -->
<g id="node15" class="node">
<title>/lib/helpers/color_helper.dart</title>
<path fill="Lavender" stroke="black" stroke-width="1.3" d="M572.88,-140C572.88,-140 499.12,-140 499.12,-140 493.12,-140 487.12,-134 487.12,-128 487.12,-128 487.12,-116 487.12,-116 487.12,-110 493.12,-104 499.12,-104 499.12,-104 572.88,-104 572.88,-104 578.88,-104 584.88,-110 584.88,-116 584.88,-116 584.88,-128 584.88,-128 584.88,-134 578.88,-140 572.88,-140"/>
<text text-anchor="middle" x="536" y="-116.75" font-family="Arial" font-size="15.00">color_helper</text>
</g>
<!-- /lib/helpers/color_helper.dart&#45;&gt;/lib/helpers/list_helper.dart -->
<g id="edge25" class="edge">
<title>/lib/helpers/color_helper.dart&#45;&gt;/lib/helpers/list_helper.dart</title>
<path fill="none" stroke="#aabbaa" stroke-width="1.3" stroke-opacity="0.533333" d="M535.01,-103.7C534.6,-96.49 534.11,-87.93 533.65,-79.82"/>
<polygon fill="#aabbaa" fill-opacity="0.533333" stroke="#aabbaa" stroke-width="1.3" stroke-opacity="0.533333" points="537.15,-79.85 533.09,-70.07 530.17,-80.25 537.15,-79.85"/>
</g>
<!-- /lib/widgets/color_picker.dart&#45;&gt;/lib/helpers/list_helper.dart -->
<g id="edge27" class="edge">
<title>/lib/widgets/color_picker.dart&#45;&gt;/lib/helpers/list_helper.dart</title>
<path fill="none" stroke="#aabbaa" stroke-width="1.3" stroke-opacity="0.533333" d="M486.3,-186.64C482.9,-181.9 479.8,-176.52 478,-171 467.69,-139.3 463.86,-126.19 478,-96 481.56,-88.4 487.1,-81.64 493.3,-75.81"/>
<polygon fill="#aabbaa" fill-opacity="0.533333" stroke="#aabbaa" stroke-width="1.3" stroke-opacity="0.533333" points="495.14,-78.84 500.54,-69.72 490.64,-73.48 495.14,-78.84"/>
</g>
<!-- /lib/widgets/color_picker.dart&#45;&gt;/lib/helpers/color_helper.dart -->
<g id="edge26" class="edge">
<title>/lib/widgets/color_picker.dart&#45;&gt;/lib/helpers/color_helper.dart</title>
<path fill="none" stroke="#aabbaa" stroke-width="1.3" stroke-opacity="0.533333" d="M509.21,-186.82C513.55,-176.48 519.19,-163.05 524.17,-151.18"/>
<polygon fill="#aabbaa" fill-opacity="0.533333" stroke="#aabbaa" stroke-width="1.3" stroke-opacity="0.533333" points="527.28,-152.82 527.92,-142.25 520.82,-150.11 527.28,-152.82"/>
</g>
</g>
</svg>
