<?xml version="1.0" encoding="UTF-8" standalone="no"?>
<!DOCTYPE svg PUBLIC "-//W3C//DTD SVG 1.1//EN"
 "http://www.w3.org/Graphics/SVG/1.1/DTD/svg11.dtd">
<!-- Generated by graphviz version 12.2.1 (20241206.2353)
 -->
<!-- Pages: 1 -->
<svg width="2956pt" height="839pt"
 viewBox="0.00 0.00 2956.00 839.00" xmlns="http://www.w3.org/2000/svg" xmlns:xlink="http://www.w3.org/1999/xlink">
<g id="graph0" class="graph" transform="scale(1 1) rotate(0) translate(4 835)">
<polygon fill="white" stroke="none" points="-4,4 -4,-835 2952,-835 2952,4 -4,4"/>
<g id="clust1" class="cluster">
<title>cluster~</title>
<path fill="none" stroke="lightgray" stroke-width="2.6" d="M20,-8C20,-8 2928,-8 2928,-8 2934,-8 2940,-14 2940,-20 2940,-20 2940,-811 2940,-811 2940,-817 2934,-823 2928,-823 2928,-823 20,-823 20,-823 14,-823 8,-817 8,-811 8,-811 8,-20 8,-20 8,-14 14,-8 20,-8"/>
<text text-anchor="middle" x="1474" y="-806.65" font-family="Arial Black" font-size="13.00">fpaint</text>
</g>
<g id="clust2" class="cluster">
<title>cluster~/test</title>
<path fill="none" stroke="lightgray" stroke-width="2.6" d="M1032,-639C1032,-639 1618,-639 1618,-639 1624,-639 1630,-645 1630,-651 1630,-651 1630,-780 1630,-780 1630,-786 1624,-792 1618,-792 1618,-792 1032,-792 1032,-792 1026,-792 1020,-786 1020,-780 1020,-780 1020,-651 1020,-651 1020,-645 1026,-639 1032,-639"/>
<text text-anchor="middle" x="1325" y="-775.65" font-family="Arial Black" font-size="13.00">test</text>
</g>
<g id="clust3" class="cluster">
<title>cluster~/test/panels</title>
<path fill="none" stroke="lightgray" stroke-width="2.6" d="M1178,-647C1178,-647 1290,-647 1290,-647 1296,-647 1302,-653 1302,-659 1302,-659 1302,-749 1302,-749 1302,-755 1296,-761 1290,-761 1290,-761 1178,-761 1178,-761 1172,-761 1166,-755 1166,-749 1166,-749 1166,-659 1166,-659 1166,-653 1172,-647 1178,-647"/>
<text text-anchor="middle" x="1234" y="-744.65" font-family="Arial Black" font-size="13.00">panels</text>
</g>
<g id="clust4" class="cluster">
<title>cluster~/test/panels/tools</title>
<path fill="none" stroke="lightgray" stroke-width="2.6" d="M1186,-655C1186,-655 1282,-655 1282,-655 1288,-655 1294,-661 1294,-667 1294,-667 1294,-718 1294,-718 1294,-724 1288,-730 1282,-730 1282,-730 1186,-730 1186,-730 1180,-730 1174,-724 1174,-718 1174,-718 1174,-667 1174,-667 1174,-661 1180,-655 1186,-655"/>
<text text-anchor="middle" x="1234" y="-713.65" font-family="Arial Black" font-size="13.00">tools</text>
</g>
<g id="clust5" class="cluster">
<title>cluster~/lib</title>
<path fill="none" stroke="lightgray" stroke-width="2.6" d="M40,-16C40,-16 2920,-16 2920,-16 2926,-16 2932,-22 2932,-28 2932,-28 2932,-619 2932,-619 2932,-625 2926,-631 2920,-631 2920,-631 40,-631 40,-631 34,-631 28,-625 28,-619 28,-619 28,-28 28,-28 28,-22 34,-16 40,-16"/>
<text text-anchor="middle" x="1480" y="-614.65" font-family="Arial Black" font-size="13.00">lib</text>
</g>
<g id="clust6" class="cluster">
<title>cluster~/lib/panels</title>
<path fill="none" stroke="lightgray" stroke-width="2.6" d="M1122,-179C1122,-179 1712,-179 1712,-179 1718,-179 1724,-185 1724,-191 1724,-191 1724,-472 1724,-472 1724,-478 1718,-484 1712,-484 1712,-484 1122,-484 1122,-484 1116,-484 1110,-478 1110,-472 1110,-472 1110,-191 1110,-191 1110,-185 1116,-179 1122,-179"/>
<text text-anchor="middle" x="1417" y="-467.65" font-family="Arial Black" font-size="13.00">panels</text>
</g>
<g id="clust7" class="cluster">
<title>cluster~/lib/panels/tools</title>
<path fill="none" stroke="lightgray" stroke-width="2.6" d="M1432,-262C1432,-262 1704,-262 1704,-262 1710,-262 1716,-268 1716,-274 1716,-274 1716,-397 1716,-397 1716,-403 1710,-409 1704,-409 1704,-409 1432,-409 1432,-409 1426,-409 1420,-403 1420,-397 1420,-397 1420,-274 1420,-274 1420,-268 1426,-262 1432,-262"/>
<text text-anchor="middle" x="1568" y="-392.65" font-family="Arial Black" font-size="13.00">tools</text>
</g>
<g id="clust8" class="cluster">
<title>cluster~/lib/panels/layers</title>
<path fill="none" stroke="lightgray" stroke-width="2.6" d="M1236,-262C1236,-262 1400,-262 1400,-262 1406,-262 1412,-268 1412,-274 1412,-274 1412,-397 1412,-397 1412,-403 1406,-409 1400,-409 1400,-409 1236,-409 1236,-409 1230,-409 1224,-403 1224,-397 1224,-397 1224,-274 1224,-274 1224,-268 1230,-262 1236,-262"/>
<text text-anchor="middle" x="1318" y="-392.65" font-family="Arial Black" font-size="13.00">layers</text>
</g>
<g id="clust9" class="cluster">
<title>cluster~/lib/models</title>
<path fill="none" stroke="lightgray" stroke-width="2.6" d="M845,-179C845,-179 1038,-179 1038,-179 1044,-179 1050,-185 1050,-191 1050,-191 1050,-397 1050,-397 1050,-403 1044,-409 1038,-409 1038,-409 845,-409 845,-409 839,-409 833,-403 833,-397 833,-397 833,-191 833,-191 833,-185 839,-179 845,-179"/>
<text text-anchor="middle" x="941.5" y="-392.65" font-family="Arial Black" font-size="13.00">models</text>
</g>
<g id="clust10" class="cluster">
<title>cluster~/lib/files</title>
<path fill="none" stroke="lightgray" stroke-width="2.6" d="M98,-262C98,-262 813,-262 813,-262 819,-262 825,-268 825,-274 825,-274 825,-397 825,-397 825,-403 819,-409 813,-409 813,-409 98,-409 98,-409 92,-409 86,-403 86,-397 86,-397 86,-274 86,-274 86,-268 92,-262 98,-262"/>
<text text-anchor="middle" x="455.5" y="-392.65" font-family="Arial Black" font-size="13.00">files</text>
</g>
<g id="clust11" class="cluster">
<title>cluster~/lib/helpers</title>
<path fill="none" stroke="lightgray" stroke-width="2.6" d="M2810,-24C2810,-24 2900,-24 2900,-24 2906,-24 2912,-30 2912,-36 2912,-36 2912,-159 2912,-159 2912,-165 2906,-171 2900,-171 2900,-171 2810,-171 2810,-171 2804,-171 2798,-165 2798,-159 2798,-159 2798,-36 2798,-36 2798,-30 2804,-24 2810,-24"/>
<text text-anchor="middle" x="2855" y="-154.65" font-family="Arial Black" font-size="13.00">helpers</text>
</g>
<g id="clust12" class="cluster">
<title>cluster~/lib/widgets</title>
<path fill="none" stroke="lightgray" stroke-width="2.6" d="M1744,-96C1744,-96 2778,-96 2778,-96 2784,-96 2790,-102 2790,-108 2790,-108 2790,-242 2790,-242 2790,-248 2784,-254 2778,-254 2778,-254 1744,-254 1744,-254 1738,-254 1732,-248 1732,-242 1732,-242 1732,-108 1732,-108 1732,-102 1738,-96 1744,-96"/>
<text text-anchor="middle" x="2261" y="-237.65" font-family="Arial Black" font-size="13.00">widgets</text>
</g>
<!-- /test/paint_model_test.dart -->
<g id="node1" class="node">
<title>/test/paint_model_test.dart</title>
<path fill="Lavender" stroke="black" stroke-width="1.3" d="M1146,-699C1146,-699 1040,-699 1040,-699 1034,-699 1028,-693 1028,-687 1028,-687 1028,-675 1028,-675 1028,-669 1034,-663 1040,-663 1040,-663 1146,-663 1146,-663 1152,-663 1158,-669 1158,-675 1158,-675 1158,-687 1158,-687 1158,-693 1152,-699 1146,-699"/>
<text text-anchor="middle" x="1093" y="-675.75" font-family="Arial" font-size="15.00">paint_model_test</text>
</g>
<!-- /lib/models/app_model.dart -->
<g id="node17" class="node">
<title>/lib/models/app_model.dart</title>
<path fill="Lavender" stroke="black" stroke-width="1.3" d="M918.75,-223C918.75,-223 853.25,-223 853.25,-223 847.25,-223 841.25,-217 841.25,-211 841.25,-211 841.25,-199 841.25,-199 841.25,-193 847.25,-187 853.25,-187 853.25,-187 918.75,-187 918.75,-187 924.75,-187 930.75,-193 930.75,-199 930.75,-199 930.75,-211 930.75,-211 930.75,-217 924.75,-223 918.75,-223"/>
<text text-anchor="middle" x="886" y="-199.75" font-family="Arial" font-size="15.00">app_model</text>
</g>
<!-- /test/paint_model_test.dart&#45;&gt;/lib/models/app_model.dart -->
<g id="edge1" class="edge">
<title>/test/paint_model_test.dart&#45;&gt;/lib/models/app_model.dart</title>
<path fill="none" stroke="#aabbaa" stroke-width="1.3" stroke-opacity="0.533333" d="M1027.7,-679.42C800.68,-677.08 57.59,-666.73 22,-631 -15.67,-593.18 17,-564.38 17,-511 17,-511 17,-511 17,-359 17,-315.78 -6.67,-292.45 24,-262 80.99,-205.42 646.03,-204.32 829.09,-205.47"/>
<polygon fill="#aabbaa" fill-opacity="0.533333" stroke="#aabbaa" stroke-width="1.3" stroke-opacity="0.533333" points="828.85,-208.96 838.87,-205.53 828.89,-201.96 828.85,-208.96"/>
</g>
<!-- /test/panels/tools/flood_fill_test.dart -->
<g id="node2" class="node">
<title>/test/panels/tools/flood_fill_test.dart</title>
<path fill="Lavender" stroke="black" stroke-width="1.3" d="M1273.5,-699C1273.5,-699 1194.5,-699 1194.5,-699 1188.5,-699 1182.5,-693 1182.5,-687 1182.5,-687 1182.5,-675 1182.5,-675 1182.5,-669 1188.5,-663 1194.5,-663 1194.5,-663 1273.5,-663 1273.5,-663 1279.5,-663 1285.5,-669 1285.5,-675 1285.5,-675 1285.5,-687 1285.5,-687 1285.5,-693 1279.5,-699 1273.5,-699"/>
<text text-anchor="middle" x="1234" y="-675.75" font-family="Arial" font-size="15.00">flood_fill_test</text>
</g>
<!-- /lib/panels/tools/flood_fill.dart -->
<g id="node7" class="node">
<title>/lib/panels/tools/flood_fill.dart</title>
<path fill="Lavender" stroke="black" stroke-width="1.3" d="M1486,-378C1486,-378 1440,-378 1440,-378 1434,-378 1428,-372 1428,-366 1428,-366 1428,-354 1428,-354 1428,-348 1434,-342 1440,-342 1440,-342 1486,-342 1486,-342 1492,-342 1498,-348 1498,-354 1498,-354 1498,-366 1498,-366 1498,-372 1492,-378 1486,-378"/>
<text text-anchor="middle" x="1463" y="-354.75" font-family="Arial" font-size="15.00">flood_fill</text>
</g>
<!-- /test/panels/tools/flood_fill_test.dart&#45;&gt;/lib/panels/tools/flood_fill.dart -->
<g id="edge2" class="edge">
<title>/test/panels/tools/flood_fill_test.dart&#45;&gt;/lib/panels/tools/flood_fill.dart</title>
<path fill="none" stroke="#aabbaa" stroke-width="1.3" stroke-opacity="0.533333" d="M1216.86,-662.71C1206.77,-653.78 1193.23,-643.77 1179,-639 1164.03,-633.98 53.13,-642.21 42,-631 20.24,-609.08 20.94,-514.6 42,-492 122.8,-405.3 987.62,-422.7 1106,-417 1123.21,-416.17 1400.21,-415.88 1416,-409 1426.84,-404.28 1436.46,-395.77 1444.13,-387.22"/>
<polygon fill="#aabbaa" fill-opacity="0.533333" stroke="#aabbaa" stroke-width="1.3" stroke-opacity="0.533333" points="1446.74,-389.56 1450.4,-379.61 1441.34,-385.1 1446.74,-389.56"/>
</g>
<!-- /test/widget_test.dart -->
<g id="node3" class="node">
<title>/test/widget_test.dart</title>
<path fill="Lavender" stroke="black" stroke-width="1.3" d="M1389.88,-699C1389.88,-699 1322.12,-699 1322.12,-699 1316.12,-699 1310.12,-693 1310.12,-687 1310.12,-687 1310.12,-675 1310.12,-675 1310.12,-669 1316.12,-663 1322.12,-663 1322.12,-663 1389.88,-663 1389.88,-663 1395.88,-663 1401.88,-669 1401.88,-675 1401.88,-675 1401.88,-687 1401.88,-687 1401.88,-693 1395.88,-699 1389.88,-699"/>
<text text-anchor="middle" x="1356" y="-675.75" font-family="Arial" font-size="15.00">widget_test</text>
</g>
<!-- /lib/main.dart -->
<g id="node19" class="node">
<title>/lib/main.dart</title>
<path fill="Lavender" stroke="black" stroke-width="1.3" d="M1125,-600C1125,-600 1095,-600 1095,-600 1089,-600 1083,-594 1083,-588 1083,-588 1083,-576 1083,-576 1083,-570 1089,-564 1095,-564 1095,-564 1125,-564 1125,-564 1131,-564 1137,-570 1137,-576 1137,-576 1137,-588 1137,-588 1137,-594 1131,-600 1125,-600"/>
<text text-anchor="middle" x="1110" y="-576.75" font-family="Arial" font-size="15.00">main</text>
</g>
<!-- /test/widget_test.dart&#45;&gt;/lib/main.dart -->
<g id="edge3" class="edge">
<title>/test/widget_test.dart&#45;&gt;/lib/main.dart</title>
<path fill="none" stroke="#aabbaa" stroke-width="1.3" stroke-opacity="0.533333" d="M1335.02,-662.65C1324.43,-654.57 1311.09,-645.36 1298,-639 1249.11,-615.24 1188.11,-599.34 1149.1,-590.73"/>
<polygon fill="#aabbaa" fill-opacity="0.533333" stroke="#aabbaa" stroke-width="1.3" stroke-opacity="0.533333" points="1149.93,-587.33 1139.41,-588.66 1148.46,-594.18 1149.93,-587.33"/>
</g>
<!-- /test/file_xcf_test.dart -->
<g id="node4" class="node">
<title>/test/file_xcf_test.dart</title>
<path fill="Lavender" stroke="black" stroke-width="1.3" d="M1503.75,-699C1503.75,-699 1432.25,-699 1432.25,-699 1426.25,-699 1420.25,-693 1420.25,-687 1420.25,-687 1420.25,-675 1420.25,-675 1420.25,-669 1426.25,-663 1432.25,-663 1432.25,-663 1503.75,-663 1503.75,-663 1509.75,-663 1515.75,-669 1515.75,-675 1515.75,-675 1515.75,-687 1515.75,-687 1515.75,-693 1509.75,-699 1503.75,-699"/>
<text text-anchor="middle" x="1468" y="-675.75" font-family="Arial" font-size="15.00">file_xcf_test</text>
</g>
<!-- /lib/files/xcf_reader.dart -->
<g id="node20" class="node">
<title>/lib/files/xcf_reader.dart</title>
<path fill="Lavender" stroke="black" stroke-width="1.3" d="M169.62,-378C169.62,-378 106.38,-378 106.38,-378 100.38,-378 94.38,-372 94.38,-366 94.38,-366 94.38,-354 94.38,-354 94.38,-348 100.38,-342 106.38,-342 106.38,-342 169.62,-342 169.62,-342 175.62,-342 181.62,-348 181.62,-354 181.62,-354 181.62,-366 181.62,-366 181.62,-372 175.62,-378 169.62,-378"/>
<text text-anchor="middle" x="138" y="-354.75" font-family="Arial" font-size="15.00">xcf_reader</text>
</g>
<!-- /test/file_xcf_test.dart&#45;&gt;/lib/files/xcf_reader.dart -->
<g id="edge5" class="edge">
<title>/test/file_xcf_test.dart&#45;&gt;/lib/files/xcf_reader.dart</title>
<path fill="none" stroke="#aabbaa" stroke-width="1.3" stroke-opacity="0.533333" d="M1486.18,-662.67C1496.66,-653.85 1510.59,-643.96 1525,-639 1546.34,-631.65 1712.36,-647.27 1728,-631 1736.24,-622.43 1736.38,-425.43 1728,-417 1712.94,-401.87 210.9,-416.73 191,-409 179.02,-404.35 168.07,-395.61 159.27,-386.85"/>
<polygon fill="#aabbaa" fill-opacity="0.533333" stroke="#aabbaa" stroke-width="1.3" stroke-opacity="0.533333" points="161.95,-384.6 152.57,-379.68 156.83,-389.37 161.95,-384.6"/>
</g>
<!-- /lib/files/assets_helper.dart -->
<g id="node21" class="node">
<title>/lib/files/assets_helper.dart</title>
<path fill="Lavender" stroke="black" stroke-width="1.3" d="M296.5,-378C296.5,-378 211.5,-378 211.5,-378 205.5,-378 199.5,-372 199.5,-366 199.5,-366 199.5,-354 199.5,-354 199.5,-348 205.5,-342 211.5,-342 211.5,-342 296.5,-342 296.5,-342 302.5,-342 308.5,-348 308.5,-354 308.5,-354 308.5,-366 308.5,-366 308.5,-372 302.5,-378 296.5,-378"/>
<text text-anchor="middle" x="254" y="-354.75" font-family="Arial" font-size="15.00">assets_helper</text>
</g>
<!-- /test/file_xcf_test.dart&#45;&gt;/lib/files/assets_helper.dart -->
<g id="edge4" class="edge">
<title>/test/file_xcf_test.dart&#45;&gt;/lib/files/assets_helper.dart</title>
<path fill="none" stroke="#aabbaa" stroke-width="1.3" stroke-opacity="0.533333" d="M1486.18,-662.66C1496.66,-653.84 1510.59,-643.95 1525,-639 1536.2,-635.16 1729.79,-639.53 1738,-631 1770.99,-596.75 1771.53,-450.72 1738,-417 1724.09,-403.01 336.69,-415.29 318,-409 303.95,-404.27 290.49,-395.14 279.57,-386.1"/>
<polygon fill="#aabbaa" fill-opacity="0.533333" stroke="#aabbaa" stroke-width="1.3" stroke-opacity="0.533333" points="281.98,-383.56 272.16,-379.6 277.36,-388.82 281.98,-383.56"/>
</g>
<!-- /test/layers_test.dart -->
<g id="node5" class="node">
<title>/test/layers_test.dart</title>
<path fill="Lavender" stroke="black" stroke-width="1.3" d="M1610.38,-699C1610.38,-699 1545.62,-699 1545.62,-699 1539.62,-699 1533.62,-693 1533.62,-687 1533.62,-687 1533.62,-675 1533.62,-675 1533.62,-669 1539.62,-663 1545.62,-663 1545.62,-663 1610.38,-663 1610.38,-663 1616.38,-663 1622.38,-669 1622.38,-675 1622.38,-675 1622.38,-687 1622.38,-687 1622.38,-693 1616.38,-699 1610.38,-699"/>
<text text-anchor="middle" x="1578" y="-675.75" font-family="Arial" font-size="15.00">layers_test</text>
</g>
<!-- /lib/models/layer.dart -->
<g id="node18" class="node">
<title>/lib/models/layer.dart</title>
<path fill="Lavender" stroke="black" stroke-width="1.3" d="M1010,-306C1010,-306 980,-306 980,-306 974,-306 968,-300 968,-294 968,-294 968,-282 968,-282 968,-276 974,-270 980,-270 980,-270 1010,-270 1010,-270 1016,-270 1022,-276 1022,-282 1022,-282 1022,-294 1022,-294 1022,-300 1016,-306 1010,-306"/>
<text text-anchor="middle" x="995" y="-282.75" font-family="Arial" font-size="15.00">layer</text>
</g>
<!-- /test/layers_test.dart&#45;&gt;/lib/models/layer.dart -->
<g id="edge6" class="edge">
<title>/test/layers_test.dart&#45;&gt;/lib/models/layer.dart</title>
<path fill="none" stroke="#aabbaa" stroke-width="1.3" stroke-opacity="0.533333" d="M1622.51,-680.32C1662.92,-678.05 1721.07,-667.93 1754,-631 1789.93,-590.7 1773,-565 1773,-511 1773,-511 1773,-511 1773,-434 1773,-386.81 1760.15,-366.8 1720,-342 1661.86,-306.08 1173.96,-313.18 1106,-306 1082.01,-303.47 1055.29,-299.41 1034.07,-295.9"/>
<polygon fill="#aabbaa" fill-opacity="0.533333" stroke="#aabbaa" stroke-width="1.3" stroke-opacity="0.533333" points="1034.66,-292.45 1024.22,-294.23 1033.5,-299.35 1034.66,-292.45"/>
</g>
<!-- /lib/panels/tools/tool_selector.dart -->
<g id="node6" class="node">
<title>/lib/panels/tools/tool_selector.dart</title>
<path fill="Lavender" stroke="black" stroke-width="1.3" d="M1516.38,-306C1516.38,-306 1439.62,-306 1439.62,-306 1433.62,-306 1427.62,-300 1427.62,-294 1427.62,-294 1427.62,-282 1427.62,-282 1427.62,-276 1433.62,-270 1439.62,-270 1439.62,-270 1516.38,-270 1516.38,-270 1522.38,-270 1528.38,-276 1528.38,-282 1528.38,-282 1528.38,-294 1528.38,-294 1528.38,-300 1522.38,-306 1516.38,-306"/>
<text text-anchor="middle" x="1478" y="-282.75" font-family="Arial" font-size="15.00">tool_selector</text>
</g>
<!-- /lib/panels/tools/tools_panel.dart -->
<g id="node8" class="node">
<title>/lib/panels/tools/tools_panel.dart</title>
<path fill="Lavender" stroke="black" stroke-width="1.3" d="M1677.88,-378C1677.88,-378 1610.12,-378 1610.12,-378 1604.12,-378 1598.12,-372 1598.12,-366 1598.12,-366 1598.12,-354 1598.12,-354 1598.12,-348 1604.12,-342 1610.12,-342 1610.12,-342 1677.88,-342 1677.88,-342 1683.88,-342 1689.88,-348 1689.88,-354 1689.88,-354 1689.88,-366 1689.88,-366 1689.88,-372 1683.88,-378 1677.88,-378"/>
<text text-anchor="middle" x="1644" y="-354.75" font-family="Arial" font-size="15.00">tools_panel</text>
</g>
<!-- /lib/panels/tools/tools_panel.dart&#45;&gt;/lib/panels/tools/tool_selector.dart -->
<g id="edge9" class="edge">
<title>/lib/panels/tools/tools_panel.dart&#45;&gt;/lib/panels/tools/tool_selector.dart</title>
<path fill="none" stroke="#aabbaa" stroke-width="1.3" stroke-opacity="0.533333" d="M1602.54,-341.52C1580.57,-332.25 1553.37,-320.78 1530,-310.93"/>
<polygon fill="#aabbaa" fill-opacity="0.533333" stroke="#aabbaa" stroke-width="1.3" stroke-opacity="0.533333" points="1531.61,-307.81 1521.03,-307.15 1528.89,-314.26 1531.61,-307.81"/>
</g>
<!-- /lib/panels/tools/tool_attributes_widget.dart -->
<g id="node9" class="node">
<title>/lib/panels/tools/tool_attributes_widget.dart</title>
<path fill="Lavender" stroke="black" stroke-width="1.3" d="M1695.75,-306C1695.75,-306 1558.25,-306 1558.25,-306 1552.25,-306 1546.25,-300 1546.25,-294 1546.25,-294 1546.25,-282 1546.25,-282 1546.25,-276 1552.25,-270 1558.25,-270 1558.25,-270 1695.75,-270 1695.75,-270 1701.75,-270 1707.75,-276 1707.75,-282 1707.75,-282 1707.75,-294 1707.75,-294 1707.75,-300 1701.75,-306 1695.75,-306"/>
<text text-anchor="middle" x="1627" y="-282.75" font-family="Arial" font-size="15.00">tool_attributes_widget</text>
</g>
<!-- /lib/panels/tools/tools_panel.dart&#45;&gt;/lib/panels/tools/tool_attributes_widget.dart -->
<g id="edge8" class="edge">
<title>/lib/panels/tools/tools_panel.dart&#45;&gt;/lib/panels/tools/tool_attributes_widget.dart</title>
<path fill="none" stroke="#aabbaa" stroke-width="1.3" stroke-opacity="0.533333" d="M1639.8,-341.7C1638.03,-334.41 1635.92,-325.73 1633.93,-317.54"/>
<polygon fill="#aabbaa" fill-opacity="0.533333" stroke="#aabbaa" stroke-width="1.3" stroke-opacity="0.533333" points="1637.38,-316.91 1631.62,-308.02 1630.58,-318.56 1637.38,-316.91"/>
</g>
<!-- /lib/panels/tools/tools_panel.dart&#45;&gt;/lib/models/app_model.dart -->
<g id="edge7" class="edge">
<title>/lib/panels/tools/tools_panel.dart&#45;&gt;/lib/models/app_model.dart</title>
<path fill="none" stroke="#aabbaa" stroke-width="1.3" stroke-opacity="0.533333" d="M1597.75,-352.87C1571.22,-349.44 1537.27,-345.24 1507,-342 1418.04,-332.49 1185.61,-346.84 1106,-306 1083.01,-294.21 1091.15,-273.48 1068,-262 1042.27,-249.24 965.47,-265.16 939,-254 927.33,-249.08 916.55,-240.46 907.8,-231.87"/>
<polygon fill="#aabbaa" fill-opacity="0.533333" stroke="#aabbaa" stroke-width="1.3" stroke-opacity="0.533333" points="910.55,-229.69 901.12,-224.86 905.48,-234.51 910.55,-229.69"/>
</g>
<!-- /lib/widgets/svg_icon.dart -->
<g id="node30" class="node">
<title>/lib/widgets/svg_icon.dart</title>
<path fill="Lavender" stroke="black" stroke-width="1.3" d="M2770.25,-223C2770.25,-223 2719.75,-223 2719.75,-223 2713.75,-223 2707.75,-217 2707.75,-211 2707.75,-211 2707.75,-199 2707.75,-199 2707.75,-193 2713.75,-187 2719.75,-187 2719.75,-187 2770.25,-187 2770.25,-187 2776.25,-187 2782.25,-193 2782.25,-199 2782.25,-199 2782.25,-211 2782.25,-211 2782.25,-217 2776.25,-223 2770.25,-223"/>
<text text-anchor="middle" x="2745" y="-199.75" font-family="Arial" font-size="15.00">svg_icon</text>
</g>
<!-- /lib/panels/tools/tools_panel.dart&#45;&gt;/lib/widgets/svg_icon.dart -->
<g id="edge12" class="edge">
<title>/lib/panels/tools/tools_panel.dart&#45;&gt;/lib/widgets/svg_icon.dart</title>
<path fill="none" stroke="#aabbaa" stroke-width="1.3" stroke-opacity="0.533333" d="M1690.12,-358.23C1813.76,-355.67 2162.74,-345.24 2450,-306 2562.01,-290.7 2600.13,-308.82 2699,-254 2708.83,-248.55 2717.83,-240.3 2725.22,-232.18"/>
<polygon fill="#aabbaa" fill-opacity="0.533333" stroke="#aabbaa" stroke-width="1.3" stroke-opacity="0.533333" points="2727.76,-234.59 2731.56,-224.7 2722.42,-230.07 2727.76,-234.59"/>
</g>
<!-- /lib/widgets/brush_size_picker.dart -->
<g id="node33" class="node">
<title>/lib/widgets/brush_size_picker.dart</title>
<path fill="Lavender" stroke="black" stroke-width="1.3" d="M2420,-223C2420,-223 2308,-223 2308,-223 2302,-223 2296,-217 2296,-211 2296,-211 2296,-199 2296,-199 2296,-193 2302,-187 2308,-187 2308,-187 2420,-187 2420,-187 2426,-187 2432,-193 2432,-199 2432,-199 2432,-211 2432,-211 2432,-217 2426,-223 2420,-223"/>
<text text-anchor="middle" x="2364" y="-199.75" font-family="Arial" font-size="15.00">brush_size_picker</text>
</g>
<!-- /lib/panels/tools/tools_panel.dart&#45;&gt;/lib/widgets/brush_size_picker.dart -->
<g id="edge10" class="edge">
<title>/lib/panels/tools/tools_panel.dart&#45;&gt;/lib/widgets/brush_size_picker.dart</title>
<path fill="none" stroke="#aabbaa" stroke-width="1.3" stroke-opacity="0.533333" d="M1690.01,-357.66C1797.8,-353.21 2073.66,-334.21 2287,-254 2302.63,-248.12 2318.51,-238.89 2331.76,-230.08"/>
<polygon fill="#aabbaa" fill-opacity="0.533333" stroke="#aabbaa" stroke-width="1.3" stroke-opacity="0.533333" points="2333.46,-233.16 2339.72,-224.6 2329.49,-227.39 2333.46,-233.16"/>
</g>
<!-- /lib/widgets/tolerance_picker.dart -->
<g id="node35" class="node">
<title>/lib/widgets/tolerance_picker.dart</title>
<path fill="Lavender" stroke="black" stroke-width="1.3" d="M2563.75,-223C2563.75,-223 2462.25,-223 2462.25,-223 2456.25,-223 2450.25,-217 2450.25,-211 2450.25,-211 2450.25,-199 2450.25,-199 2450.25,-193 2456.25,-187 2462.25,-187 2462.25,-187 2563.75,-187 2563.75,-187 2569.75,-187 2575.75,-193 2575.75,-199 2575.75,-199 2575.75,-211 2575.75,-211 2575.75,-217 2569.75,-223 2563.75,-223"/>
<text text-anchor="middle" x="2513" y="-199.75" font-family="Arial" font-size="15.00">tolerance_picker</text>
</g>
<!-- /lib/panels/tools/tools_panel.dart&#45;&gt;/lib/widgets/tolerance_picker.dart -->
<g id="edge13" class="edge">
<title>/lib/panels/tools/tools_panel.dart&#45;&gt;/lib/widgets/tolerance_picker.dart</title>
<path fill="none" stroke="#aabbaa" stroke-width="1.3" stroke-opacity="0.533333" d="M1690.19,-356.1C1838.86,-346.28 2303.23,-311.62 2441,-254 2455.29,-248.02 2469.75,-239.07 2481.93,-230.51"/>
<polygon fill="#aabbaa" fill-opacity="0.533333" stroke="#aabbaa" stroke-width="1.3" stroke-opacity="0.533333" points="2483.95,-233.37 2489.97,-224.65 2479.83,-227.71 2483.95,-233.37"/>
</g>
<!-- /lib/widgets/color_picker.dart -->
<g id="node38" class="node">
<title>/lib/widgets/color_picker.dart</title>
<path fill="Lavender" stroke="black" stroke-width="1.3" d="M2678.12,-223C2678.12,-223 2605.88,-223 2605.88,-223 2599.88,-223 2593.88,-217 2593.88,-211 2593.88,-211 2593.88,-199 2593.88,-199 2593.88,-193 2599.88,-187 2605.88,-187 2605.88,-187 2678.12,-187 2678.12,-187 2684.12,-187 2690.12,-193 2690.12,-199 2690.12,-199 2690.12,-211 2690.12,-211 2690.12,-217 2684.12,-223 2678.12,-223"/>
<text text-anchor="middle" x="2642" y="-199.75" font-family="Arial" font-size="15.00">color_picker</text>
</g>
<!-- /lib/panels/tools/tools_panel.dart&#45;&gt;/lib/widgets/color_picker.dart -->
<g id="edge11" class="edge">
<title>/lib/panels/tools/tools_panel.dart&#45;&gt;/lib/widgets/color_picker.dart</title>
<path fill="none" stroke="#aabbaa" stroke-width="1.3" stroke-opacity="0.533333" d="M1690.31,-357.27C1800.42,-352.75 2086.39,-338.6 2323,-306 2440.6,-289.8 2478,-305.41 2585,-254 2596.72,-248.37 2608.02,-239.76 2617.43,-231.38"/>
<polygon fill="#aabbaa" fill-opacity="0.533333" stroke="#aabbaa" stroke-width="1.3" stroke-opacity="0.533333" points="2619.82,-233.94 2624.71,-224.54 2615.03,-228.84 2619.82,-233.94"/>
</g>
<!-- /lib/helpers/color_helper.dart -->
<g id="node29" class="node">
<title>/lib/helpers/color_helper.dart</title>
<path fill="Lavender" stroke="black" stroke-width="1.3" d="M2891.88,-140C2891.88,-140 2818.12,-140 2818.12,-140 2812.12,-140 2806.12,-134 2806.12,-128 2806.12,-128 2806.12,-116 2806.12,-116 2806.12,-110 2812.12,-104 2818.12,-104 2818.12,-104 2891.88,-104 2891.88,-104 2897.88,-104 2903.88,-110 2903.88,-116 2903.88,-116 2903.88,-128 2903.88,-128 2903.88,-134 2897.88,-140 2891.88,-140"/>
<text text-anchor="middle" x="2855" y="-116.75" font-family="Arial" font-size="15.00">color_helper</text>
</g>
<!-- /lib/panels/tools/tool_attributes_widget.dart&#45;&gt;/lib/helpers/color_helper.dart -->
<g id="edge14" class="edge">
<title>/lib/panels/tools/tool_attributes_widget.dart&#45;&gt;/lib/helpers/color_helper.dart</title>
<path fill="none" stroke="#aabbaa" stroke-width="1.3" stroke-opacity="0.533333" d="M1708.18,-284.45C1858.23,-279.76 2189.11,-269.57 2468,-262 2486.11,-261.51 2778.84,-263.92 2794,-254 2828.83,-231.19 2844.14,-182.89 2850.6,-151.75"/>
<polygon fill="#aabbaa" fill-opacity="0.533333" stroke="#aabbaa" stroke-width="1.3" stroke-opacity="0.533333" points="2853.97,-152.76 2852.37,-142.28 2847.09,-151.47 2853.97,-152.76"/>
</g>
<!-- /lib/widgets/transparent_background.dart -->
<g id="node34" class="node">
<title>/lib/widgets/transparent_background.dart</title>
<path fill="Lavender" stroke="black" stroke-width="1.3" d="M1906.38,-140C1906.38,-140 1751.62,-140 1751.62,-140 1745.62,-140 1739.62,-134 1739.62,-128 1739.62,-128 1739.62,-116 1739.62,-116 1739.62,-110 1745.62,-104 1751.62,-104 1751.62,-104 1906.38,-104 1906.38,-104 1912.38,-104 1918.38,-110 1918.38,-116 1918.38,-116 1918.38,-128 1918.38,-128 1918.38,-134 1912.38,-140 1906.38,-140"/>
<text text-anchor="middle" x="1829" y="-116.75" font-family="Arial" font-size="15.00">transparent_background</text>
</g>
<!-- /lib/panels/tools/tool_attributes_widget.dart&#45;&gt;/lib/widgets/transparent_background.dart -->
<g id="edge15" class="edge">
<title>/lib/panels/tools/tool_attributes_widget.dart&#45;&gt;/lib/widgets/transparent_background.dart</title>
<path fill="none" stroke="#aabbaa" stroke-width="1.3" stroke-opacity="0.533333" d="M1640.85,-269.81C1659.66,-247.18 1695.06,-206.99 1731,-179 1746.88,-166.64 1765.78,-155.18 1782.74,-145.89"/>
<polygon fill="#aabbaa" fill-opacity="0.533333" stroke="#aabbaa" stroke-width="1.3" stroke-opacity="0.533333" points="1784.09,-149.14 1791.26,-141.33 1780.79,-142.96 1784.09,-149.14"/>
</g>
<!-- /lib/panels/canvas_panel.dart -->
<g id="node10" class="node">
<title>/lib/panels/canvas_panel.dart</title>
<path fill="Lavender" stroke="black" stroke-width="1.3" d="M1213.75,-223C1213.75,-223 1130.25,-223 1130.25,-223 1124.25,-223 1118.25,-217 1118.25,-211 1118.25,-211 1118.25,-199 1118.25,-199 1118.25,-193 1124.25,-187 1130.25,-187 1130.25,-187 1213.75,-187 1213.75,-187 1219.75,-187 1225.75,-193 1225.75,-199 1225.75,-199 1225.75,-211 1225.75,-211 1225.75,-217 1219.75,-223 1213.75,-223"/>
<text text-anchor="middle" x="1172" y="-199.75" font-family="Arial" font-size="15.00">canvas_panel</text>
</g>
<!-- /lib/panels/canvas_panel.dart&#45;&gt;/lib/models/app_model.dart -->
<g id="edge16" class="edge">
<title>/lib/panels/canvas_panel.dart&#45;&gt;/lib/models/app_model.dart</title>
<path fill="none" stroke="#aabbaa" stroke-width="1.3" stroke-opacity="0.533333" d="M1148.35,-223.29C1129.84,-236.25 1102.82,-252.31 1076,-258 1062.09,-260.95 961.91,-260.95 948,-258 943.72,-257.09 942.66,-256.41 939,-254 929.31,-247.62 919.71,-239.46 911.39,-231.62"/>
<polygon fill="#aabbaa" fill-opacity="0.533333" stroke="#aabbaa" stroke-width="1.3" stroke-opacity="0.533333" points="913.93,-229.21 904.33,-224.73 909.04,-234.22 913.93,-229.21"/>
</g>
<!-- /lib/panels/canvas_panel.dart&#45;&gt;/lib/widgets/transparent_background.dart -->
<g id="edge17" class="edge">
<title>/lib/panels/canvas_panel.dart&#45;&gt;/lib/widgets/transparent_background.dart</title>
<path fill="none" stroke="#aabbaa" stroke-width="1.3" stroke-opacity="0.533333" d="M1226.04,-197.34C1335.84,-183.8 1586.51,-152.9 1727.63,-135.5"/>
<polygon fill="#aabbaa" fill-opacity="0.533333" stroke="#aabbaa" stroke-width="1.3" stroke-opacity="0.533333" points="1727.82,-139 1737.31,-134.3 1726.96,-132.05 1727.82,-139"/>
</g>
<!-- /lib/panels/layers/tools_and_layers_panel.dart -->
<g id="node11" class="node">
<title>/lib/panels/layers/tools_and_layers_panel.dart</title>
<path fill="Lavender" stroke="black" stroke-width="1.3" d="M1392.38,-378C1392.38,-378 1243.62,-378 1243.62,-378 1237.62,-378 1231.62,-372 1231.62,-366 1231.62,-366 1231.62,-354 1231.62,-354 1231.62,-348 1237.62,-342 1243.62,-342 1243.62,-342 1392.38,-342 1392.38,-342 1398.38,-342 1404.38,-348 1404.38,-354 1404.38,-354 1404.38,-366 1404.38,-366 1404.38,-372 1398.38,-378 1392.38,-378"/>
<text text-anchor="middle" x="1318" y="-354.75" font-family="Arial" font-size="15.00">tools_and_layers_panel</text>
</g>
<!-- /lib/panels/layers/layer_selector.dart -->
<g id="node12" class="node">
<title>/lib/panels/layers/layer_selector.dart</title>
<path fill="Lavender" stroke="black" stroke-width="1.3" d="M1391.5,-306C1391.5,-306 1306.5,-306 1306.5,-306 1300.5,-306 1294.5,-300 1294.5,-294 1294.5,-294 1294.5,-282 1294.5,-282 1294.5,-276 1300.5,-270 1306.5,-270 1306.5,-270 1391.5,-270 1391.5,-270 1397.5,-270 1403.5,-276 1403.5,-282 1403.5,-282 1403.5,-294 1403.5,-294 1403.5,-300 1397.5,-306 1391.5,-306"/>
<text text-anchor="middle" x="1349" y="-282.75" font-family="Arial" font-size="15.00">layer_selector</text>
</g>
<!-- /lib/panels/layers/tools_and_layers_panel.dart&#45;&gt;/lib/panels/layers/layer_selector.dart -->
<g id="edge20" class="edge">
<title>/lib/panels/layers/tools_and_layers_panel.dart&#45;&gt;/lib/panels/layers/layer_selector.dart</title>
<path fill="none" stroke="#aabbaa" stroke-width="1.3" stroke-opacity="0.533333" d="M1325.66,-341.7C1328.97,-334.24 1332.91,-325.32 1336.62,-316.97"/>
<polygon fill="#aabbaa" fill-opacity="0.533333" stroke="#aabbaa" stroke-width="1.3" stroke-opacity="0.533333" points="1339.78,-318.46 1340.63,-307.9 1333.38,-315.63 1339.78,-318.46"/>
</g>
<!-- /lib/panels/share_panel.dart -->
<g id="node14" class="node">
<title>/lib/panels/share_panel.dart</title>
<path fill="Lavender" stroke="black" stroke-width="1.3" d="M1203.88,-306C1203.88,-306 1130.12,-306 1130.12,-306 1124.12,-306 1118.12,-300 1118.12,-294 1118.12,-294 1118.12,-282 1118.12,-282 1118.12,-276 1124.12,-270 1130.12,-270 1130.12,-270 1203.88,-270 1203.88,-270 1209.88,-270 1215.88,-276 1215.88,-282 1215.88,-282 1215.88,-294 1215.88,-294 1215.88,-300 1209.88,-306 1203.88,-306"/>
<text text-anchor="middle" x="1167" y="-282.75" font-family="Arial" font-size="15.00">share_panel</text>
</g>
<!-- /lib/panels/layers/tools_and_layers_panel.dart&#45;&gt;/lib/panels/share_panel.dart -->
<g id="edge21" class="edge">
<title>/lib/panels/layers/tools_and_layers_panel.dart&#45;&gt;/lib/panels/share_panel.dart</title>
<path fill="none" stroke="#aabbaa" stroke-width="1.3" stroke-opacity="0.533333" d="M1280.29,-341.52C1260.57,-332.38 1236.23,-321.09 1215.17,-311.33"/>
<polygon fill="#aabbaa" fill-opacity="0.533333" stroke="#aabbaa" stroke-width="1.3" stroke-opacity="0.533333" points="1216.82,-308.24 1206.28,-307.21 1213.88,-314.59 1216.82,-308.24"/>
</g>
<!-- /lib/panels/layers/tools_and_layers_panel.dart&#45;&gt;/lib/models/app_model.dart -->
<g id="edge19" class="edge">
<title>/lib/panels/layers/tools_and_layers_panel.dart&#45;&gt;/lib/models/app_model.dart</title>
<path fill="none" stroke="#aabbaa" stroke-width="1.3" stroke-opacity="0.533333" d="M1231.23,-346.36C1188.64,-338.2 1137.31,-325.39 1094,-306 1062.83,-292.04 1063.1,-273.65 1031,-262 992.42,-248 976.62,-270.41 939,-254 927.39,-248.94 916.62,-240.29 907.86,-231.72"/>
<polygon fill="#aabbaa" fill-opacity="0.533333" stroke="#aabbaa" stroke-width="1.3" stroke-opacity="0.533333" points="910.62,-229.53 901.18,-224.73 905.56,-234.37 910.62,-229.53"/>
</g>
<!-- /lib/files/import_files.dart -->
<g id="node26" class="node">
<title>/lib/files/import_files.dart</title>
<path fill="Lavender" stroke="black" stroke-width="1.3" d="M407.25,-378C407.25,-378 338.75,-378 338.75,-378 332.75,-378 326.75,-372 326.75,-366 326.75,-366 326.75,-354 326.75,-354 326.75,-348 332.75,-342 338.75,-342 338.75,-342 407.25,-342 407.25,-342 413.25,-342 419.25,-348 419.25,-354 419.25,-354 419.25,-366 419.25,-366 419.25,-372 413.25,-378 407.25,-378"/>
<text text-anchor="middle" x="373" y="-354.75" font-family="Arial" font-size="15.00">import_files</text>
</g>
<!-- /lib/panels/layers/tools_and_layers_panel.dart&#45;&gt;/lib/files/import_files.dart -->
<g id="edge18" class="edge">
<title>/lib/panels/layers/tools_and_layers_panel.dart&#45;&gt;/lib/files/import_files.dart</title>
<path fill="none" stroke="#aabbaa" stroke-width="1.3" stroke-opacity="0.533333" d="M1243.54,-378.46C1188.97,-391.01 1112.88,-406.47 1045,-413 1011.38,-416.23 470.04,-420.01 437,-413 420.47,-409.49 405.67,-398.1 394.47,-386.77"/>
<polygon fill="#aabbaa" fill-opacity="0.533333" stroke="#aabbaa" stroke-width="1.3" stroke-opacity="0.533333" points="397.32,-384.69 387.98,-379.7 392.16,-389.43 397.32,-384.69"/>
</g>
<!-- /lib/panels/layers/layer_selector.dart&#45;&gt;/lib/models/app_model.dart -->
<g id="edge22" class="edge">
<title>/lib/panels/layers/layer_selector.dart&#45;&gt;/lib/models/app_model.dart</title>
<path fill="none" stroke="#aabbaa" stroke-width="1.3" stroke-opacity="0.533333" d="M1314.45,-269.56C1306.9,-266.47 1298.82,-263.71 1291,-262 1252.78,-253.66 975.34,-268.49 939,-254 927.06,-249.24 916.12,-240.49 907.31,-231.74"/>
<polygon fill="#aabbaa" fill-opacity="0.533333" stroke="#aabbaa" stroke-width="1.3" stroke-opacity="0.533333" points="910,-229.49 900.6,-224.59 904.89,-234.28 910,-229.49"/>
</g>
<!-- /lib/widgets/truncated_text.dart -->
<g id="node31" class="node">
<title>/lib/widgets/truncated_text.dart</title>
<path fill="Lavender" stroke="black" stroke-width="1.3" d="M1998,-223C1998,-223 1910,-223 1910,-223 1904,-223 1898,-217 1898,-211 1898,-211 1898,-199 1898,-199 1898,-193 1904,-187 1910,-187 1910,-187 1998,-187 1998,-187 2004,-187 2010,-193 2010,-199 2010,-199 2010,-211 2010,-211 2010,-217 2004,-223 1998,-223"/>
<text text-anchor="middle" x="1954" y="-199.75" font-family="Arial" font-size="15.00">truncated_text</text>
</g>
<!-- /lib/panels/layers/layer_selector.dart&#45;&gt;/lib/widgets/truncated_text.dart -->
<g id="edge26" class="edge">
<title>/lib/panels/layers/layer_selector.dart&#45;&gt;/lib/widgets/truncated_text.dart</title>
<path fill="none" stroke="#aabbaa" stroke-width="1.3" stroke-opacity="0.533333" d="M1389.11,-269.52C1397.82,-266.44 1407.09,-263.69 1416,-262 1467.65,-252.23 1839.21,-270.86 1889,-254 1903.08,-249.23 1916.64,-240.19 1927.7,-231.22"/>
<polygon fill="#aabbaa" fill-opacity="0.533333" stroke="#aabbaa" stroke-width="1.3" stroke-opacity="0.533333" points="1929.92,-233.93 1935.23,-224.76 1925.36,-228.62 1929.92,-233.93"/>
</g>
<!-- /lib/widgets/container_slider.dart -->
<g id="node32" class="node">
<title>/lib/widgets/container_slider.dart</title>
<path fill="Lavender" stroke="black" stroke-width="1.3" d="M2137.5,-223C2137.5,-223 2040.5,-223 2040.5,-223 2034.5,-223 2028.5,-217 2028.5,-211 2028.5,-211 2028.5,-199 2028.5,-199 2028.5,-193 2034.5,-187 2040.5,-187 2040.5,-187 2137.5,-187 2137.5,-187 2143.5,-187 2149.5,-193 2149.5,-199 2149.5,-199 2149.5,-211 2149.5,-211 2149.5,-217 2143.5,-223 2137.5,-223"/>
<text text-anchor="middle" x="2089" y="-199.75" font-family="Arial" font-size="15.00">container_slider</text>
</g>
<!-- /lib/panels/layers/layer_selector.dart&#45;&gt;/lib/widgets/container_slider.dart -->
<g id="edge23" class="edge">
<title>/lib/panels/layers/layer_selector.dart&#45;&gt;/lib/widgets/container_slider.dart</title>
<path fill="none" stroke="#aabbaa" stroke-width="1.3" stroke-opacity="0.533333" d="M1388.75,-269.62C1397.56,-266.49 1406.97,-263.69 1416,-262 1448.93,-255.83 1987.07,-264.13 2019,-254 2034.29,-249.15 2049.24,-239.74 2061.37,-230.53"/>
<polygon fill="#aabbaa" fill-opacity="0.533333" stroke="#aabbaa" stroke-width="1.3" stroke-opacity="0.533333" points="2063.28,-233.48 2068.91,-224.5 2058.91,-228.01 2063.28,-233.48"/>
</g>
<!-- /lib/panels/layers/layer_selector.dart&#45;&gt;/lib/widgets/transparent_background.dart -->
<g id="edge25" class="edge">
<title>/lib/panels/layers/layer_selector.dart&#45;&gt;/lib/widgets/transparent_background.dart</title>
<path fill="none" stroke="#aabbaa" stroke-width="1.3" stroke-opacity="0.533333" d="M1391.45,-269.58C1399.5,-266.73 1407.94,-264.04 1416,-262 1440.8,-255.71 1448.34,-260.8 1473,-254 1555.76,-231.18 1570.41,-208.58 1651,-179 1685.69,-166.27 1724.8,-153.77 1757.5,-143.82"/>
<polygon fill="#aabbaa" fill-opacity="0.533333" stroke="#aabbaa" stroke-width="1.3" stroke-opacity="0.533333" points="1758.34,-147.22 1766.9,-140.98 1756.32,-140.52 1758.34,-147.22"/>
</g>
<!-- /lib/widgets/image_painter.dart -->
<g id="node36" class="node">
<title>/lib/widgets/image_painter.dart</title>
<path fill="Lavender" stroke="black" stroke-width="1.3" d="M2266.25,-223C2266.25,-223 2179.75,-223 2179.75,-223 2173.75,-223 2167.75,-217 2167.75,-211 2167.75,-211 2167.75,-199 2167.75,-199 2167.75,-193 2173.75,-187 2179.75,-187 2179.75,-187 2266.25,-187 2266.25,-187 2272.25,-187 2278.25,-193 2278.25,-199 2278.25,-199 2278.25,-211 2278.25,-211 2278.25,-217 2272.25,-223 2266.25,-223"/>
<text text-anchor="middle" x="2223" y="-199.75" font-family="Arial" font-size="15.00">image_painter</text>
</g>
<!-- /lib/panels/layers/layer_selector.dart&#45;&gt;/lib/widgets/image_painter.dart -->
<g id="edge24" class="edge">
<title>/lib/panels/layers/layer_selector.dart&#45;&gt;/lib/widgets/image_painter.dart</title>
<path fill="none" stroke="#aabbaa" stroke-width="1.3" stroke-opacity="0.533333" d="M1388.75,-269.61C1397.56,-266.48 1406.97,-263.68 1416,-262 1456.58,-254.45 2119.91,-267.26 2159,-254 2173.04,-249.24 2186.5,-240.1 2197.42,-231.07"/>
<polygon fill="#aabbaa" fill-opacity="0.533333" stroke="#aabbaa" stroke-width="1.3" stroke-opacity="0.533333" points="2199.62,-233.79 2204.83,-224.56 2195.01,-228.53 2199.62,-233.79"/>
</g>
<!-- /lib/panels/side_panel.dart -->
<g id="node13" class="node">
<title>/lib/panels/side_panel.dart</title>
<path fill="Lavender" stroke="black" stroke-width="1.3" d="M1271.62,-453C1271.62,-453 1208.38,-453 1208.38,-453 1202.38,-453 1196.38,-447 1196.38,-441 1196.38,-441 1196.38,-429 1196.38,-429 1196.38,-423 1202.38,-417 1208.38,-417 1208.38,-417 1271.62,-417 1271.62,-417 1277.62,-417 1283.62,-423 1283.62,-429 1283.62,-429 1283.62,-441 1283.62,-441 1283.62,-447 1277.62,-453 1271.62,-453"/>
<text text-anchor="middle" x="1240" y="-429.75" font-family="Arial" font-size="15.00">side_panel</text>
</g>
<!-- /lib/panels/side_panel.dart&#45;&gt;/lib/panels/tools/tools_panel.dart -->
<g id="edge29" class="edge">
<title>/lib/panels/side_panel.dart&#45;&gt;/lib/panels/tools/tools_panel.dart</title>
<path fill="none" stroke="#aabbaa" stroke-width="1.3" stroke-opacity="0.533333" d="M1283.97,-433.15C1337.31,-431.38 1429.68,-425.9 1507,-409 1535.61,-402.75 1566.48,-392.28 1591.65,-382.71"/>
<polygon fill="#aabbaa" fill-opacity="0.533333" stroke="#aabbaa" stroke-width="1.3" stroke-opacity="0.533333" points="1592.9,-385.99 1600.96,-379.11 1590.37,-379.46 1592.9,-385.99"/>
</g>
<!-- /lib/panels/side_panel.dart&#45;&gt;/lib/panels/layers/tools_and_layers_panel.dart -->
<g id="edge28" class="edge">
<title>/lib/panels/side_panel.dart&#45;&gt;/lib/panels/layers/tools_and_layers_panel.dart</title>
<path fill="none" stroke="#aabbaa" stroke-width="1.3" stroke-opacity="0.533333" d="M1258.48,-416.7C1268.13,-407.67 1280.11,-396.46 1290.79,-386.46"/>
<polygon fill="#aabbaa" fill-opacity="0.533333" stroke="#aabbaa" stroke-width="1.3" stroke-opacity="0.533333" points="1293.03,-389.16 1297.94,-379.77 1288.25,-384.05 1293.03,-389.16"/>
</g>
<!-- /lib/panels/side_panel.dart&#45;&gt;/lib/models/app_model.dart -->
<g id="edge27" class="edge">
<title>/lib/panels/side_panel.dart&#45;&gt;/lib/models/app_model.dart</title>
<path fill="none" stroke="#aabbaa" stroke-width="1.3" stroke-opacity="0.533333" d="M1195.95,-417.78C1194.62,-417.49 1193.31,-417.23 1192,-417 1176.82,-414.33 92.86,-419.94 82,-409 70.49,-397.41 70.86,-273.94 82,-262 132.76,-207.58 654.45,-204.94 829.26,-205.6"/>
<polygon fill="#aabbaa" fill-opacity="0.533333" stroke="#aabbaa" stroke-width="1.3" stroke-opacity="0.533333" points="829.01,-209.09 839.03,-205.64 829.04,-202.09 829.01,-209.09"/>
</g>
<!-- /lib/panels/share_panel.dart&#45;&gt;/lib/panels/canvas_panel.dart -->
<g id="edge31" class="edge">
<title>/lib/panels/share_panel.dart&#45;&gt;/lib/panels/canvas_panel.dart</title>
<path fill="none" stroke="#aabbaa" stroke-width="1.3" stroke-opacity="0.533333" d="M1168.06,-269.82C1168.68,-259.8 1169.48,-246.88 1170.19,-235.29"/>
<polygon fill="#aabbaa" fill-opacity="0.533333" stroke="#aabbaa" stroke-width="1.3" stroke-opacity="0.533333" points="1173.68,-235.59 1170.8,-225.4 1166.69,-235.16 1173.68,-235.59"/>
</g>
<!-- /lib/panels/share_panel.dart&#45;&gt;/lib/models/app_model.dart -->
<g id="edge30" class="edge">
<title>/lib/panels/share_panel.dart&#45;&gt;/lib/models/app_model.dart</title>
<path fill="none" stroke="#aabbaa" stroke-width="1.3" stroke-opacity="0.533333" d="M1128.98,-269.6C1120.89,-266.55 1112.28,-263.79 1104,-262 1068.12,-254.24 972.92,-268.03 939,-254 927.3,-249.16 916.51,-240.56 907.76,-231.96"/>
<polygon fill="#aabbaa" fill-opacity="0.533333" stroke="#aabbaa" stroke-width="1.3" stroke-opacity="0.533333" points="910.51,-229.77 901.09,-224.93 905.43,-234.59 910.51,-229.77"/>
</g>
<!-- /lib/models/layers.dart -->
<g id="node15" class="node">
<title>/lib/models/layers.dart</title>
<path fill="Lavender" stroke="black" stroke-width="1.3" d="M1010.88,-378C1010.88,-378 979.12,-378 979.12,-378 973.12,-378 967.12,-372 967.12,-366 967.12,-366 967.12,-354 967.12,-354 967.12,-348 973.12,-342 979.12,-342 979.12,-342 1010.88,-342 1010.88,-342 1016.88,-342 1022.88,-348 1022.88,-354 1022.88,-354 1022.88,-366 1022.88,-366 1022.88,-372 1016.88,-378 1010.88,-378"/>
<text text-anchor="middle" x="995" y="-354.75" font-family="Arial" font-size="15.00">layers</text>
</g>
<!-- /lib/models/layers.dart&#45;&gt;/lib/models/layer.dart -->
<g id="edge33" class="edge">
<title>/lib/models/layers.dart&#45;&gt;/lib/models/layer.dart</title>
<path fill="none" stroke="#aabbaa" stroke-width="1.3" stroke-opacity="0.533333" d="M989.08,-341.7C988.34,-334.49 988.09,-325.93 988.34,-317.82"/>
<polygon fill="#aabbaa" fill-opacity="0.533333" stroke="#aabbaa" stroke-width="1.3" stroke-opacity="0.533333" points="991.82,-318.27 988.98,-308.07 984.84,-317.82 991.82,-318.27"/>
</g>
<!-- /lib/models/layers.dart&#45;&gt;/lib/models/layer.dart -->
<g id="edge34" class="edge">
<title>/lib/models/layers.dart&#45;&gt;/lib/models/layer.dart</title>
<path fill="none" stroke="#aabbaa" stroke-width="1.3" stroke-dasharray="5,2" stroke-opacity="0.533333" d="M1000.92,-341.7C1001.66,-334.49 1001.91,-325.93 1001.66,-317.82"/>
<polygon fill="#aabbaa" fill-opacity="0.533333" stroke="#aabbaa" stroke-width="1.3" stroke-opacity="0.533333" points="1005.16,-317.82 1001.02,-308.07 998.18,-318.27 1005.16,-317.82"/>
</g>
<!-- /lib/helpers/list_helper.dart -->
<g id="node28" class="node">
<title>/lib/helpers/list_helper.dart</title>
<path fill="Lavender" stroke="black" stroke-width="1.3" d="M2877.75,-68C2877.75,-68 2818.25,-68 2818.25,-68 2812.25,-68 2806.25,-62 2806.25,-56 2806.25,-56 2806.25,-44 2806.25,-44 2806.25,-38 2812.25,-32 2818.25,-32 2818.25,-32 2877.75,-32 2877.75,-32 2883.75,-32 2889.75,-38 2889.75,-44 2889.75,-44 2889.75,-56 2889.75,-56 2889.75,-62 2883.75,-68 2877.75,-68"/>
<text text-anchor="middle" x="2848" y="-44.75" font-family="Arial" font-size="15.00">list_helper</text>
</g>
<!-- /lib/models/layers.dart&#45;&gt;/lib/helpers/list_helper.dart -->
<g id="edge32" class="edge">
<title>/lib/models/layers.dart&#45;&gt;/lib/helpers/list_helper.dart</title>
<path fill="none" stroke="#aabbaa" stroke-width="1.3" stroke-opacity="0.533333" d="M1023.05,-356.69C1065.61,-353.24 1149.05,-346.63 1220,-342 1576,-318.78 2494.39,-392.9 2823,-254 2873.12,-232.82 2891.16,-220.84 2913,-171 2926.38,-140.47 2928.47,-125.53 2913,-96 2908.75,-87.88 2902.29,-80.93 2895.06,-75.1"/>
<polygon fill="#aabbaa" fill-opacity="0.533333" stroke="#aabbaa" stroke-width="1.3" stroke-opacity="0.533333" points="2897.37,-72.45 2887.21,-69.45 2893.28,-78.13 2897.37,-72.45"/>
</g>
<!-- /lib/models/user_action.dart -->
<g id="node16" class="node">
<title>/lib/models/user_action.dart</title>
<path fill="Lavender" stroke="black" stroke-width="1.3" d="M1029.62,-223C1029.62,-223 960.38,-223 960.38,-223 954.38,-223 948.38,-217 948.38,-211 948.38,-211 948.38,-199 948.38,-199 948.38,-193 954.38,-187 960.38,-187 960.38,-187 1029.62,-187 1029.62,-187 1035.62,-187 1041.62,-193 1041.62,-199 1041.62,-199 1041.62,-211 1041.62,-211 1041.62,-217 1035.62,-223 1029.62,-223"/>
<text text-anchor="middle" x="995" y="-199.75" font-family="Arial" font-size="15.00">user_action</text>
</g>
<!-- /lib/widgets/brush_style_picker.dart -->
<g id="node37" class="node">
<title>/lib/widgets/brush_style_picker.dart</title>
<path fill="Lavender" stroke="black" stroke-width="1.3" d="M1868.25,-223C1868.25,-223 1751.75,-223 1751.75,-223 1745.75,-223 1739.75,-217 1739.75,-211 1739.75,-211 1739.75,-199 1739.75,-199 1739.75,-193 1745.75,-187 1751.75,-187 1751.75,-187 1868.25,-187 1868.25,-187 1874.25,-187 1880.25,-193 1880.25,-199 1880.25,-199 1880.25,-211 1880.25,-211 1880.25,-217 1874.25,-223 1868.25,-223"/>
<text text-anchor="middle" x="1810" y="-199.75" font-family="Arial" font-size="15.00">brush_style_picker</text>
</g>
<!-- /lib/models/user_action.dart&#45;&gt;/lib/widgets/brush_style_picker.dart -->
<g id="edge35" class="edge">
<title>/lib/models/user_action.dart&#45;&gt;/lib/widgets/brush_style_picker.dart</title>
<path fill="none" stroke="#aabbaa" stroke-width="1.3" stroke-opacity="0.533333" d="M1026.56,-223.26C1049.44,-235.4 1081.58,-250.25 1112,-256.67 1127.25,-259.88 1657.67,-259.46 1673,-256.67 1703.39,-251.13 1735.8,-239.2 1761.46,-228.21"/>
<polygon fill="#aabbaa" fill-opacity="0.533333" stroke="#aabbaa" stroke-width="1.3" stroke-opacity="0.533333" points="1762.83,-231.43 1770.58,-224.2 1760.02,-225.02 1762.83,-231.43"/>
</g>
<!-- /lib/models/user_action.dart&#45;&gt;/lib/widgets/brush_style_picker.dart -->
<g id="edge36" class="edge">
<title>/lib/models/user_action.dart&#45;&gt;/lib/widgets/brush_style_picker.dart</title>
<path fill="none" stroke="#aabbaa" stroke-width="1.3" stroke-dasharray="5,2" stroke-opacity="0.533333" d="M1026.65,-223.38C1050.78,-236.29 1085.34,-252.44 1118,-259.33 1132.92,-262.48 1652,-262.09 1667,-259.33 1699.83,-253.31 1734.89,-240.1 1762.08,-228.22"/>
<polygon fill="#aabbaa" fill-opacity="0.533333" stroke="#aabbaa" stroke-width="1.3" stroke-opacity="0.533333" points="1763.35,-231.49 1771.05,-224.21 1760.49,-225.1 1763.35,-231.49"/>
</g>
<!-- /lib/models/app_model.dart&#45;&gt;/lib/models/layers.dart -->
<g id="edge37" class="edge">
<title>/lib/models/app_model.dart&#45;&gt;/lib/models/layers.dart</title>
<path fill="none" stroke="#aabbaa" stroke-width="1.3" stroke-opacity="0.533333" d="M893.82,-223.06C902.13,-233.86 914.32,-248.32 924,-262 937.12,-280.54 937.83,-286.82 950,-306 955.48,-314.64 961.67,-323.92 967.77,-332.26"/>
<polygon fill="#aabbaa" fill-opacity="0.533333" stroke="#aabbaa" stroke-width="1.3" stroke-opacity="0.533333" points="964.8,-334.13 973.65,-339.95 970.36,-329.88 964.8,-334.13"/>
</g>
<!-- /lib/models/app_model.dart&#45;&gt;/lib/models/layers.dart -->
<g id="edge38" class="edge">
<title>/lib/models/app_model.dart&#45;&gt;/lib/models/layers.dart</title>
<path fill="none" stroke="#aabbaa" stroke-width="1.3" stroke-dasharray="5,2" stroke-opacity="0.533333" d="M909.35,-223.06C920.13,-233.86 932.32,-248.32 942,-262 955.12,-280.54 955.83,-286.82 968,-306 973.3,-314.36 979.27,-323.31 984.42,-331.44"/>
<polygon fill="#aabbaa" fill-opacity="0.533333" stroke="#aabbaa" stroke-width="1.3" stroke-opacity="0.533333" points="981.36,-333.14 989.57,-339.84 987.33,-329.48 981.36,-333.14"/>
</g>
<!-- /lib/models/layer.dart&#45;&gt;/lib/models/user_action.dart -->
<g id="edge41" class="edge">
<title>/lib/models/layer.dart&#45;&gt;/lib/models/user_action.dart</title>
<path fill="none" stroke="#aabbaa" stroke-width="1.3" stroke-dasharray="5,2" stroke-opacity="0.533333" d="M995,-269.82C995,-259.8 995,-246.88 995,-235.29"/>
<polygon fill="#aabbaa" fill-opacity="0.533333" stroke="#aabbaa" stroke-width="1.3" stroke-opacity="0.533333" points="998.5,-235.4 995,-225.4 991.5,-235.4 998.5,-235.4"/>
</g>
<!-- /lib/models/layer.dart&#45;&gt;/lib/models/app_model.dart -->
<g id="edge39" class="edge">
<title>/lib/models/layer.dart&#45;&gt;/lib/models/app_model.dart</title>
<path fill="none" stroke="#aabbaa" stroke-width="1.3" stroke-opacity="0.533333" d="M967.52,-272.29C958.2,-266.92 947.91,-260.55 939,-254 929.75,-247.19 920.26,-239.04 911.91,-231.39"/>
<polygon fill="#aabbaa" fill-opacity="0.533333" stroke="#aabbaa" stroke-width="1.3" stroke-opacity="0.533333" points="914.5,-229.02 904.81,-224.74 909.71,-234.13 914.5,-229.02"/>
</g>
<!-- /lib/models/layer.dart&#45;&gt;/lib/widgets/transparent_background.dart -->
<g id="edge40" class="edge">
<title>/lib/models/layer.dart&#45;&gt;/lib/widgets/transparent_background.dart</title>
<path fill="none" stroke="#aabbaa" stroke-width="1.3" stroke-opacity="0.533333" d="M1014.24,-269.7C1017.98,-266.87 1021.98,-264.16 1026,-262 1036.27,-256.47 1041.53,-260.82 1051,-254 1084.55,-229.85 1069.88,-199.1 1106,-179 1158.98,-149.53 1541.55,-132.7 1727.73,-126.18"/>
<polygon fill="#aabbaa" fill-opacity="0.533333" stroke="#aabbaa" stroke-width="1.3" stroke-opacity="0.533333" points="1727.6,-129.69 1737.47,-125.84 1727.36,-122.69 1727.6,-129.69"/>
</g>
<!-- /lib/main.dart&#45;&gt;/lib/models/app_model.dart -->
<g id="edge43" class="edge">
<title>/lib/main.dart&#45;&gt;/lib/models/app_model.dart</title>
<path fill="none" stroke="#aabbaa" stroke-width="1.3" stroke-opacity="0.533333" d="M1082.75,-581C932.37,-580.37 205.69,-568.98 70,-409 27.74,-359.18 25.41,-309.75 70,-262 121.6,-206.73 652.22,-204.67 829.03,-205.53"/>
<polygon fill="#aabbaa" fill-opacity="0.533333" stroke="#aabbaa" stroke-width="1.3" stroke-opacity="0.533333" points="828.9,-209.03 838.92,-205.59 828.94,-202.03 828.9,-209.03"/>
</g>
<!-- /lib/main_screen.dart -->
<g id="node27" class="node">
<title>/lib/main_screen.dart</title>
<path fill="Lavender" stroke="black" stroke-width="1.3" d="M1148.75,-528C1148.75,-528 1071.25,-528 1071.25,-528 1065.25,-528 1059.25,-522 1059.25,-516 1059.25,-516 1059.25,-504 1059.25,-504 1059.25,-498 1065.25,-492 1071.25,-492 1071.25,-492 1148.75,-492 1148.75,-492 1154.75,-492 1160.75,-498 1160.75,-504 1160.75,-504 1160.75,-516 1160.75,-516 1160.75,-522 1154.75,-528 1148.75,-528"/>
<text text-anchor="middle" x="1110" y="-504.75" font-family="Arial" font-size="15.00">main_screen</text>
</g>
<!-- /lib/main.dart&#45;&gt;/lib/main_screen.dart -->
<g id="edge42" class="edge">
<title>/lib/main.dart&#45;&gt;/lib/main_screen.dart</title>
<path fill="none" stroke="#aabbaa" stroke-width="1.3" stroke-opacity="0.533333" d="M1110,-563.7C1110,-556.49 1110,-547.93 1110,-539.82"/>
<polygon fill="#aabbaa" fill-opacity="0.533333" stroke="#aabbaa" stroke-width="1.3" stroke-opacity="0.533333" points="1113.5,-540.07 1110,-530.07 1106.5,-540.07 1113.5,-540.07"/>
</g>
<!-- /lib/files/xcf_reader.dart&#45;&gt;/lib/helpers/list_helper.dart -->
<g id="edge44" class="edge">
<title>/lib/files/xcf_reader.dart&#45;&gt;/lib/helpers/list_helper.dart</title>
<path fill="none" stroke="#aabbaa" stroke-width="1.3" stroke-opacity="0.533333" d="M173.1,-341.6C276.02,-291.6 587.29,-147.82 864,-96 1058.15,-59.64 2496.49,-52.31 2794.17,-51.18"/>
<polygon fill="#aabbaa" fill-opacity="0.533333" stroke="#aabbaa" stroke-width="1.3" stroke-opacity="0.533333" points="2793.94,-54.68 2803.92,-51.14 2793.91,-47.68 2793.94,-54.68"/>
</g>
<!-- /lib/files/file_jpeg.dart -->
<g id="node22" class="node">
<title>/lib/files/file_jpeg.dart</title>
<path fill="Lavender" stroke="black" stroke-width="1.3" d="M758.38,-306C758.38,-306 711.62,-306 711.62,-306 705.62,-306 699.62,-300 699.62,-294 699.62,-294 699.62,-282 699.62,-282 699.62,-276 705.62,-270 711.62,-270 711.62,-270 758.38,-270 758.38,-270 764.38,-270 770.38,-276 770.38,-282 770.38,-282 770.38,-294 770.38,-294 770.38,-300 764.38,-306 758.38,-306"/>
<text text-anchor="middle" x="735" y="-282.75" font-family="Arial" font-size="15.00">file_jpeg</text>
</g>
<!-- /lib/files/export_download_web.dart -->
<g id="node23" class="node">
<title>/lib/files/export_download_web.dart</title>
<path fill="Lavender" stroke="black" stroke-width="1.3" d="M805.25,-378C805.25,-378 664.75,-378 664.75,-378 658.75,-378 652.75,-372 652.75,-366 652.75,-366 652.75,-354 652.75,-354 652.75,-348 658.75,-342 664.75,-342 664.75,-342 805.25,-342 805.25,-342 811.25,-342 817.25,-348 817.25,-354 817.25,-354 817.25,-366 817.25,-366 817.25,-372 811.25,-378 805.25,-378"/>
<text text-anchor="middle" x="735" y="-354.75" font-family="Arial" font-size="15.00">export_download_web</text>
</g>
<!-- /lib/files/export_download_web.dart&#45;&gt;/lib/panels/share_panel.dart -->
<g id="edge48" class="edge">
<title>/lib/files/export_download_web.dart&#45;&gt;/lib/panels/share_panel.dart</title>
<path fill="none" stroke="#aabbaa" stroke-width="1.3" stroke-opacity="0.533333" d="M817.51,-343.96C821.39,-343.29 825.24,-342.63 829,-342 925.69,-325.68 1038.24,-308.37 1105.98,-298.13"/>
<polygon fill="#aabbaa" fill-opacity="0.533333" stroke="#aabbaa" stroke-width="1.3" stroke-opacity="0.533333" points="1106.37,-301.61 1115.74,-296.66 1105.33,-294.69 1106.37,-301.61"/>
</g>
<!-- /lib/files/export_download_web.dart&#45;&gt;/lib/models/app_model.dart -->
<g id="edge47" class="edge">
<title>/lib/files/export_download_web.dart&#45;&gt;/lib/models/app_model.dart</title>
<path fill="none" stroke="#aabbaa" stroke-width="1.3" stroke-opacity="0.533333" d="M786.79,-341.58C805.71,-333.19 826.11,-321.51 841,-306 851.4,-295.16 866.08,-259.68 875.81,-234.06"/>
<polygon fill="#aabbaa" fill-opacity="0.533333" stroke="#aabbaa" stroke-width="1.3" stroke-opacity="0.533333" points="879,-235.54 879.21,-224.95 872.44,-233.09 879,-235.54"/>
</g>
<!-- /lib/files/export_download_web.dart&#45;&gt;/lib/files/file_jpeg.dart -->
<g id="edge45" class="edge">
<title>/lib/files/export_download_web.dart&#45;&gt;/lib/files/file_jpeg.dart</title>
<path fill="none" stroke="#aabbaa" stroke-width="1.3" stroke-opacity="0.533333" d="M735,-341.7C735,-334.49 735,-325.93 735,-317.82"/>
<polygon fill="#aabbaa" fill-opacity="0.533333" stroke="#aabbaa" stroke-width="1.3" stroke-opacity="0.533333" points="738.5,-318.07 735,-308.07 731.5,-318.07 738.5,-318.07"/>
</g>
<!-- /lib/files/file_ora.dart -->
<g id="node24" class="node">
<title>/lib/files/file_ora.dart</title>
<path fill="Lavender" stroke="black" stroke-width="1.3" d="M669.38,-306C669.38,-306 628.62,-306 628.62,-306 622.62,-306 616.62,-300 616.62,-294 616.62,-294 616.62,-282 616.62,-282 616.62,-276 622.62,-270 628.62,-270 628.62,-270 669.38,-270 669.38,-270 675.38,-270 681.38,-276 681.38,-282 681.38,-282 681.38,-294 681.38,-294 681.38,-300 675.38,-306 669.38,-306"/>
<text text-anchor="middle" x="649" y="-282.75" font-family="Arial" font-size="15.00">file_ora</text>
</g>
<!-- /lib/files/export_download_web.dart&#45;&gt;/lib/files/file_ora.dart -->
<g id="edge46" class="edge">
<title>/lib/files/export_download_web.dart&#45;&gt;/lib/files/file_ora.dart</title>
<path fill="none" stroke="#aabbaa" stroke-width="1.3" stroke-opacity="0.533333" d="M713.74,-341.7C703.4,-333.28 690.79,-323.02 679.46,-313.79"/>
<polygon fill="#aabbaa" fill-opacity="0.533333" stroke="#aabbaa" stroke-width="1.3" stroke-opacity="0.533333" points="681.8,-311.19 671.84,-307.59 677.38,-316.62 681.8,-311.19"/>
</g>
<!-- /lib/files/file_ora.dart&#45;&gt;/lib/models/app_model.dart -->
<g id="edge50" class="edge">
<title>/lib/files/file_ora.dart&#45;&gt;/lib/models/app_model.dart</title>
<path fill="none" stroke="#aabbaa" stroke-width="1.3" stroke-opacity="0.533333" d="M674.91,-269.55C680.07,-266.67 685.58,-263.98 691,-262 711.73,-254.45 718.56,-259.24 740,-254 770.05,-246.65 802.83,-236.12 829.7,-226.79"/>
<polygon fill="#aabbaa" fill-opacity="0.533333" stroke="#aabbaa" stroke-width="1.3" stroke-opacity="0.533333" points="830.7,-230.14 838.97,-223.53 828.37,-223.54 830.7,-230.14"/>
</g>
<!-- /lib/files/file_ora.dart&#45;&gt;/lib/helpers/list_helper.dart -->
<g id="edge49" class="edge">
<title>/lib/files/file_ora.dart&#45;&gt;/lib/helpers/list_helper.dart</title>
<path fill="none" stroke="#aabbaa" stroke-width="1.3" stroke-opacity="0.533333" d="M670.42,-269.7C702.64,-244.76 766.48,-199.46 829,-179 1209.31,-54.55 2512.17,-50.23 2793.97,-50.79"/>
<polygon fill="#aabbaa" fill-opacity="0.533333" stroke="#aabbaa" stroke-width="1.3" stroke-opacity="0.533333" points="2793.88,-54.29 2803.89,-50.81 2793.9,-47.29 2793.88,-54.29"/>
</g>
<!-- /lib/files/export_download_non_web.dart -->
<g id="node25" class="node">
<title>/lib/files/export_download_non_web.dart</title>
<path fill="Lavender" stroke="black" stroke-width="1.3" d="M622.75,-378C622.75,-378 449.25,-378 449.25,-378 443.25,-378 437.25,-372 437.25,-366 437.25,-366 437.25,-354 437.25,-354 437.25,-348 443.25,-342 449.25,-342 449.25,-342 622.75,-342 622.75,-342 628.75,-342 634.75,-348 634.75,-354 634.75,-354 634.75,-366 634.75,-366 634.75,-372 628.75,-378 622.75,-378"/>
<text text-anchor="middle" x="536" y="-354.75" font-family="Arial" font-size="15.00">export_download_non_web</text>
</g>
<!-- /lib/files/export_download_non_web.dart&#45;&gt;/lib/panels/share_panel.dart -->
<g id="edge54" class="edge">
<title>/lib/files/export_download_non_web.dart&#45;&gt;/lib/panels/share_panel.dart</title>
<path fill="none" stroke="#aabbaa" stroke-width="1.3" stroke-opacity="0.533333" d="M635.13,-343.13C638.12,-342.73 641.08,-342.36 644,-342 825.57,-319.77 872.36,-327.62 1054,-306 1071.05,-303.97 1089.48,-301.37 1106.41,-298.82"/>
<polygon fill="#aabbaa" fill-opacity="0.533333" stroke="#aabbaa" stroke-width="1.3" stroke-opacity="0.533333" points="1106.56,-302.34 1115.92,-297.36 1105.5,-295.42 1106.56,-302.34"/>
</g>
<!-- /lib/files/export_download_non_web.dart&#45;&gt;/lib/models/app_model.dart -->
<g id="edge53" class="edge">
<title>/lib/files/export_download_non_web.dart&#45;&gt;/lib/models/app_model.dart</title>
<path fill="none" stroke="#aabbaa" stroke-width="1.3" stroke-opacity="0.533333" d="M635.24,-341.81C711.25,-328.35 804.41,-311.07 812,-306 831.48,-292.99 827.2,-280.93 841,-262 848.2,-252.13 856.48,-241.61 863.95,-232.38"/>
<polygon fill="#aabbaa" fill-opacity="0.533333" stroke="#aabbaa" stroke-width="1.3" stroke-opacity="0.533333" points="866.5,-234.8 870.13,-224.85 861.09,-230.36 866.5,-234.8"/>
</g>
<!-- /lib/files/export_download_non_web.dart&#45;&gt;/lib/files/file_jpeg.dart -->
<g id="edge51" class="edge">
<title>/lib/files/export_download_non_web.dart&#45;&gt;/lib/files/file_jpeg.dart</title>
<path fill="none" stroke="#aabbaa" stroke-width="1.3" stroke-opacity="0.533333" d="M587.82,-341.59C615.18,-332.31 649.56,-320.48 688.17,-306.61"/>
<polygon fill="#aabbaa" fill-opacity="0.533333" stroke="#aabbaa" stroke-width="1.3" stroke-opacity="0.533333" points="689.1,-310 697.32,-303.31 686.73,-303.41 689.1,-310"/>
</g>
<!-- /lib/files/export_download_non_web.dart&#45;&gt;/lib/files/file_ora.dart -->
<g id="edge52" class="edge">
<title>/lib/files/export_download_non_web.dart&#45;&gt;/lib/files/file_ora.dart</title>
<path fill="none" stroke="#aabbaa" stroke-width="1.3" stroke-opacity="0.533333" d="M564.22,-341.52C578.49,-332.68 595.99,-321.84 611.38,-312.3"/>
<polygon fill="#aabbaa" fill-opacity="0.533333" stroke="#aabbaa" stroke-width="1.3" stroke-opacity="0.533333" points="612.81,-315.54 619.46,-307.3 609.12,-309.59 612.81,-315.54"/>
</g>
<!-- /lib/files/import_files.dart&#45;&gt;/lib/models/app_model.dart -->
<g id="edge56" class="edge">
<title>/lib/files/import_files.dart&#45;&gt;/lib/models/app_model.dart</title>
<path fill="none" stroke="#aabbaa" stroke-width="1.3" stroke-opacity="0.533333" d="M419.64,-343.9C422.46,-343.2 425.26,-342.56 428,-342 504.83,-326.35 710.75,-344.6 779,-306 800.28,-293.97 794.75,-279.32 812,-262 823.5,-250.45 837.48,-239.28 850.17,-229.99"/>
<polygon fill="#aabbaa" fill-opacity="0.533333" stroke="#aabbaa" stroke-width="1.3" stroke-opacity="0.533333" points="851.86,-233.09 857.96,-224.43 847.79,-227.39 851.86,-233.09"/>
</g>
<!-- /lib/files/import_files.dart&#45;&gt;/lib/files/file_ora.dart -->
<g id="edge55" class="edge">
<title>/lib/files/import_files.dart&#45;&gt;/lib/files/file_ora.dart</title>
<path fill="none" stroke="#aabbaa" stroke-width="1.3" stroke-opacity="0.533333" d="M419.75,-344.33C422.53,-343.52 425.3,-342.74 428,-342 488.82,-325.33 559.85,-308.81 604.63,-298.76"/>
<polygon fill="#aabbaa" fill-opacity="0.533333" stroke="#aabbaa" stroke-width="1.3" stroke-opacity="0.533333" points="605.34,-302.19 614.33,-296.59 603.81,-295.35 605.34,-302.19"/>
</g>
<!-- /lib/main_screen.dart&#45;&gt;/lib/panels/tools/flood_fill.dart -->
<g id="edge59" class="edge">
<title>/lib/main_screen.dart&#45;&gt;/lib/panels/tools/flood_fill.dart</title>
<path fill="none" stroke="#aabbaa" stroke-width="1.3" stroke-opacity="0.533333" d="M1161.19,-509.29C1228.5,-508.82 1342.41,-504.83 1378,-484 1414.78,-462.47 1439.35,-417.95 1452.24,-388.8"/>
<polygon fill="#aabbaa" fill-opacity="0.533333" stroke="#aabbaa" stroke-width="1.3" stroke-opacity="0.533333" points="1455.33,-390.48 1455.99,-379.9 1448.88,-387.76 1455.33,-390.48"/>
</g>
<!-- /lib/main_screen.dart&#45;&gt;/lib/panels/canvas_panel.dart -->
<g id="edge57" class="edge">
<title>/lib/main_screen.dart&#45;&gt;/lib/panels/canvas_panel.dart</title>
<path fill="none" stroke="#aabbaa" stroke-width="1.3" stroke-opacity="0.533333" d="M1105.23,-491.53C1094.76,-449.66 1073.43,-341.22 1109,-262 1114.46,-249.84 1124.02,-239.24 1134.06,-230.63"/>
<polygon fill="#aabbaa" fill-opacity="0.533333" stroke="#aabbaa" stroke-width="1.3" stroke-opacity="0.533333" points="1136.11,-233.47 1141.77,-224.52 1131.76,-227.99 1136.11,-233.47"/>
</g>
<!-- /lib/main_screen.dart&#45;&gt;/lib/panels/side_panel.dart -->
<g id="edge58" class="edge">
<title>/lib/main_screen.dart&#45;&gt;/lib/panels/side_panel.dart</title>
<path fill="none" stroke="#aabbaa" stroke-width="1.3" stroke-opacity="0.533333" d="M1161.09,-497.65C1171.72,-494.15 1182.56,-489.67 1192,-484 1201.69,-478.18 1210.86,-469.99 1218.53,-462.01"/>
<polygon fill="#aabbaa" fill-opacity="0.533333" stroke="#aabbaa" stroke-width="1.3" stroke-opacity="0.533333" points="1221.05,-464.45 1225.19,-454.7 1215.87,-459.74 1221.05,-464.45"/>
</g>
<!-- /lib/main_screen.dart&#45;&gt;/lib/models/app_model.dart -->
<g id="edge60" class="edge">
<title>/lib/main_screen.dart&#45;&gt;/lib/models/app_model.dart</title>
<path fill="none" stroke="#aabbaa" stroke-width="1.3" stroke-opacity="0.533333" d="M1069.79,-491.61C1035.65,-474.96 987.62,-446.79 958,-409 916.41,-355.95 897.69,-276.94 890.25,-234.85"/>
<polygon fill="#aabbaa" fill-opacity="0.533333" stroke="#aabbaa" stroke-width="1.3" stroke-opacity="0.533333" points="893.75,-234.51 888.66,-225.22 886.84,-235.66 893.75,-234.51"/>
</g>
<!-- /lib/helpers/color_helper.dart&#45;&gt;/lib/helpers/list_helper.dart -->
<g id="edge61" class="edge">
<title>/lib/helpers/color_helper.dart&#45;&gt;/lib/helpers/list_helper.dart</title>
<path fill="none" stroke="#aabbaa" stroke-width="1.3" stroke-opacity="0.533333" d="M2853.27,-103.7C2852.55,-96.49 2851.69,-87.93 2850.88,-79.82"/>
<polygon fill="#aabbaa" fill-opacity="0.533333" stroke="#aabbaa" stroke-width="1.3" stroke-opacity="0.533333" points="2854.38,-79.66 2849.91,-70.06 2847.42,-80.36 2854.38,-79.66"/>
</g>
<!-- /lib/widgets/brush_style_picker.dart&#45;&gt;/lib/models/app_model.dart -->
<g id="edge62" class="edge">
<title>/lib/widgets/brush_style_picker.dart&#45;&gt;/lib/models/app_model.dart</title>
<path fill="none" stroke="#aabbaa" stroke-width="1.3" stroke-opacity="0.533333" d="M1772.45,-223.48C1744.86,-236 1706.05,-251.41 1670,-258 1650.27,-261.61 967.62,-262.16 948,-258 931.93,-254.59 917.7,-243.39 906.93,-232.16"/>
<polygon fill="#aabbaa" fill-opacity="0.533333" stroke="#aabbaa" stroke-width="1.3" stroke-opacity="0.533333" points="909.63,-229.93 900.38,-224.77 904.39,-234.57 909.63,-229.93"/>
</g>
<!-- /lib/widgets/color_picker.dart&#45;&gt;/lib/helpers/list_helper.dart -->
<g id="edge64" class="edge">
<title>/lib/widgets/color_picker.dart&#45;&gt;/lib/helpers/list_helper.dart</title>
<path fill="none" stroke="#aabbaa" stroke-width="1.3" stroke-opacity="0.533333" d="M2665.23,-186.75C2701.86,-159.54 2773.16,-106.58 2815.06,-75.46"/>
<polygon fill="#aabbaa" fill-opacity="0.533333" stroke="#aabbaa" stroke-width="1.3" stroke-opacity="0.533333" points="2817.02,-78.37 2822.96,-69.6 2812.84,-72.75 2817.02,-78.37"/>
</g>
<!-- /lib/widgets/color_picker.dart&#45;&gt;/lib/helpers/color_helper.dart -->
<g id="edge63" class="edge">
<title>/lib/widgets/color_picker.dart&#45;&gt;/lib/helpers/color_helper.dart</title>
<path fill="none" stroke="#aabbaa" stroke-width="1.3" stroke-opacity="0.533333" d="M2676.93,-186.53C2684.08,-183.57 2691.67,-180.86 2699,-179 2740.07,-168.57 2754.58,-186.53 2794,-171 2807.05,-165.86 2819.58,-156.96 2829.85,-148.21"/>
<polygon fill="#aabbaa" fill-opacity="0.533333" stroke="#aabbaa" stroke-width="1.3" stroke-opacity="0.533333" points="2832.05,-150.94 2837.13,-141.64 2827.36,-145.74 2832.05,-150.94"/>
</g>
<!-- /lib/widgets/color_picker.dart&#45;&gt;/lib/widgets/transparent_background.dart -->
<g id="edge65" class="edge">
<title>/lib/widgets/color_picker.dart&#45;&gt;/lib/widgets/transparent_background.dart</title>
<path fill="none" stroke="#aabbaa" stroke-width="1.3" stroke-opacity="0.533333" d="M2607.39,-186.6C2600.15,-183.6 2592.45,-180.85 2585,-179 2463.89,-148.9 2107.34,-132.66 1930.64,-126.27"/>
<polygon fill="#aabbaa" fill-opacity="0.533333" stroke="#aabbaa" stroke-width="1.3" stroke-opacity="0.533333" points="1930.84,-122.77 1920.72,-125.91 1930.58,-129.77 1930.84,-122.77"/>
</g>
</g>
</svg>
