<?xml version="1.0" encoding="UTF-8" standalone="no"?>
<!DOCTYPE svg PUBLIC "-//W3C//DTD SVG 1.1//EN"
 "http://www.w3.org/Graphics/SVG/1.1/DTD/svg11.dtd">
<!-- Generated by graphviz version 12.2.1 (20241206.2353)
 -->
<!-- Pages: 1 -->
<svg width="1067pt" height="689pt"
 viewBox="0.00 0.00 1067.00 689.00" xmlns="http://www.w3.org/2000/svg" xmlns:xlink="http://www.w3.org/1999/xlink">
<g id="graph0" class="graph" transform="scale(1 1) rotate(0) translate(4 685)">
<polygon fill="white" stroke="none" points="-4,4 -4,-685 1063,-685 1063,4 -4,4"/>
<g id="clust1" class="cluster">
<title>cluster~</title>
<path fill="none" stroke="lightgray" stroke-width="2.6" d="M20,-8C20,-8 1039,-8 1039,-8 1045,-8 1051,-14 1051,-20 1051,-20 1051,-661 1051,-661 1051,-667 1045,-673 1039,-673 1039,-673 20,-673 20,-673 14,-673 8,-667 8,-661 8,-661 8,-20 8,-20 8,-14 14,-8 20,-8"/>
<text text-anchor="middle" x="529.5" y="-656.65" font-family="Arial Black" font-size="13.00">fpaint</text>
</g>
<g id="clust2" class="cluster">
<title>cluster~/test</title>
<path fill="none" stroke="lightgray" stroke-width="2.6" d="M344,-567C344,-567 576,-567 576,-567 582,-567 588,-573 588,-579 588,-579 588,-630 588,-630 588,-636 582,-642 576,-642 576,-642 344,-642 344,-642 338,-642 332,-636 332,-630 332,-630 332,-579 332,-579 332,-573 338,-567 344,-567"/>
<text text-anchor="middle" x="460" y="-625.65" font-family="Arial Black" font-size="13.00">test</text>
</g>
<g id="clust3" class="cluster">
<title>cluster~/lib</title>
<path fill="none" stroke="lightgray" stroke-width="2.6" d="M40,-16C40,-16 1031,-16 1031,-16 1037,-16 1043,-22 1043,-28 1043,-28 1043,-547 1043,-547 1043,-553 1037,-559 1031,-559 1031,-559 40,-559 40,-559 34,-559 28,-553 28,-547 28,-547 28,-28 28,-28 28,-22 34,-16 40,-16"/>
<text text-anchor="middle" x="535.5" y="-542.65" font-family="Arial Black" font-size="13.00">lib</text>
</g>
<g id="clust4" class="cluster">
<title>cluster~/lib/brushes</title>
<path fill="none" stroke="lightgray" stroke-width="2.6" d="M476,-96C476,-96 538,-96 538,-96 544,-96 550,-102 550,-108 550,-108 550,-159 550,-159 550,-165 544,-171 538,-171 538,-171 476,-171 476,-171 470,-171 464,-165 464,-159 464,-159 464,-108 464,-108 464,-102 470,-96 476,-96"/>
<text text-anchor="middle" x="507" y="-154.65" font-family="Arial Black" font-size="13.00">brushes</text>
</g>
<g id="clust5" class="cluster">
<title>cluster~/lib/panels</title>
<path fill="none" stroke="lightgray" stroke-width="2.6" d="M689,-262C689,-262 891,-262 891,-262 897,-262 903,-268 903,-274 903,-274 903,-400 903,-400 903,-406 897,-412 891,-412 891,-412 689,-412 689,-412 683,-412 677,-406 677,-400 677,-400 677,-274 677,-274 677,-268 683,-262 689,-262"/>
<text text-anchor="middle" x="790" y="-395.65" font-family="Arial Black" font-size="13.00">panels</text>
</g>
<g id="clust6" class="cluster">
<title>cluster~/lib/models</title>
<path fill="none" stroke="lightgray" stroke-width="2.6" d="M464,-179C464,-179 657,-179 657,-179 663,-179 669,-185 669,-191 669,-191 669,-325 669,-325 669,-331 663,-337 657,-337 657,-337 464,-337 464,-337 458,-337 452,-331 452,-325 452,-325 452,-191 452,-191 452,-185 458,-179 464,-179"/>
<text text-anchor="middle" x="560.5" y="-320.65" font-family="Arial Black" font-size="13.00">models</text>
</g>
<g id="clust7" class="cluster">
<title>cluster~/lib/files</title>
<path fill="none" stroke="lightgray" stroke-width="2.6" d="M60,-262C60,-262 432,-262 432,-262 438,-262 444,-268 444,-274 444,-274 444,-400 444,-400 444,-406 438,-412 432,-412 432,-412 60,-412 60,-412 54,-412 48,-406 48,-400 48,-400 48,-274 48,-274 48,-268 54,-262 60,-262"/>
<text text-anchor="middle" x="246" y="-395.65" font-family="Arial Black" font-size="13.00">files</text>
</g>
<g id="clust8" class="cluster">
<title>cluster~/lib/helpers</title>
<path fill="none" stroke="lightgray" stroke-width="2.6" d="M660,-24C660,-24 750,-24 750,-24 756,-24 762,-30 762,-36 762,-36 762,-159 762,-159 762,-165 756,-171 750,-171 750,-171 660,-171 660,-171 654,-171 648,-165 648,-159 648,-159 648,-36 648,-36 648,-30 654,-24 660,-24"/>
<text text-anchor="middle" x="705" y="-154.65" font-family="Arial Black" font-size="13.00">helpers</text>
</g>
<g id="clust9" class="cluster">
<title>cluster~/lib/widgets</title>
<path fill="none" stroke="lightgray" stroke-width="2.6" d="M738,-179C738,-179 1023,-179 1023,-179 1029,-179 1035,-185 1035,-191 1035,-191 1035,-242 1035,-242 1035,-248 1029,-254 1023,-254 1023,-254 738,-254 738,-254 732,-254 726,-248 726,-242 726,-242 726,-191 726,-191 726,-185 732,-179 738,-179"/>
<text text-anchor="middle" x="880.5" y="-237.65" font-family="Arial Black" font-size="13.00">widgets</text>
</g>
<!-- /test/paint_model_test.dart -->
<g id="node1" class="node">
<title>/test/paint_model_test.dart</title>
<path fill="Lavender" stroke="black" stroke-width="1.3" d="M458,-611C458,-611 352,-611 352,-611 346,-611 340,-605 340,-599 340,-599 340,-587 340,-587 340,-581 346,-575 352,-575 352,-575 458,-575 458,-575 464,-575 470,-581 470,-587 470,-587 470,-599 470,-599 470,-605 464,-611 458,-611"/>
<text text-anchor="middle" x="405" y="-587.75" font-family="Arial" font-size="15.00">paint_model_test</text>
</g>
<!-- /lib/models/app_model.dart -->
<g id="node10" class="node">
<title>/lib/models/app_model.dart</title>
<path fill="Lavender" stroke="black" stroke-width="1.3" d="M648.75,-223C648.75,-223 583.25,-223 583.25,-223 577.25,-223 571.25,-217 571.25,-211 571.25,-211 571.25,-199 571.25,-199 571.25,-193 577.25,-187 583.25,-187 583.25,-187 648.75,-187 648.75,-187 654.75,-187 660.75,-193 660.75,-199 660.75,-199 660.75,-211 660.75,-211 660.75,-217 654.75,-223 648.75,-223"/>
<text text-anchor="middle" x="616" y="-199.75" font-family="Arial" font-size="15.00">app_model</text>
</g>
<!-- /test/paint_model_test.dart&#45;&gt;/lib/models/app_model.dart -->
<g id="edge1" class="edge">
<title>/test/paint_model_test.dart&#45;&gt;/lib/models/app_model.dart</title>
<path fill="none" stroke="#aabbaa" stroke-width="1.3" stroke-opacity="0.533333" d="M339.53,-590.9C236.38,-588.51 45.49,-581.11 24,-559 -13.24,-520.7 17,-492.42 17,-439 17,-439 17,-439 17,-362 17,-315.96 7.67,-290.27 44,-262 66.76,-244.29 536.17,-264.58 563,-254 574.95,-249.29 585.9,-240.54 594.71,-231.79"/>
<polygon fill="#aabbaa" fill-opacity="0.533333" stroke="#aabbaa" stroke-width="1.3" stroke-opacity="0.533333" points="597.14,-234.32 601.41,-224.62 592.02,-229.53 597.14,-234.32"/>
</g>
<!-- /test/widget_test.dart -->
<g id="node2" class="node">
<title>/test/widget_test.dart</title>
<path fill="Lavender" stroke="black" stroke-width="1.3" d="M567.88,-611C567.88,-611 500.12,-611 500.12,-611 494.12,-611 488.12,-605 488.12,-599 488.12,-599 488.12,-587 488.12,-587 488.12,-581 494.12,-575 500.12,-575 500.12,-575 567.88,-575 567.88,-575 573.88,-575 579.88,-581 579.88,-587 579.88,-587 579.88,-599 579.88,-599 579.88,-605 573.88,-611 567.88,-611"/>
<text text-anchor="middle" x="534" y="-587.75" font-family="Arial" font-size="15.00">widget_test</text>
</g>
<!-- /lib/main.dart -->
<g id="node11" class="node">
<title>/lib/main.dart</title>
<path fill="Lavender" stroke="black" stroke-width="1.3" d="M864,-528C864,-528 834,-528 834,-528 828,-528 822,-522 822,-516 822,-516 822,-504 822,-504 822,-498 828,-492 834,-492 834,-492 864,-492 864,-492 870,-492 876,-498 876,-504 876,-504 876,-516 876,-516 876,-522 870,-528 864,-528"/>
<text text-anchor="middle" x="849" y="-504.75" font-family="Arial" font-size="15.00">main</text>
</g>
<!-- /test/widget_test.dart&#45;&gt;/lib/main.dart -->
<g id="edge2" class="edge">
<title>/test/widget_test.dart&#45;&gt;/lib/main.dart</title>
<path fill="none" stroke="#aabbaa" stroke-width="1.3" stroke-opacity="0.533333" d="M580.14,-580.14C642.49,-564.1 752.51,-535.81 810.6,-520.87"/>
<polygon fill="#aabbaa" fill-opacity="0.533333" stroke="#aabbaa" stroke-width="1.3" stroke-opacity="0.533333" points="811.11,-524.36 819.93,-518.48 809.37,-517.58 811.11,-524.36"/>
</g>
<!-- /lib/brushes/brushes.dart -->
<g id="node3" class="node">
<title>/lib/brushes/brushes.dart</title>
<path fill="Lavender" stroke="black" stroke-width="1.3" d="M529.62,-140C529.62,-140 484.38,-140 484.38,-140 478.38,-140 472.38,-134 472.38,-128 472.38,-128 472.38,-116 472.38,-116 472.38,-110 478.38,-104 484.38,-104 484.38,-104 529.62,-104 529.62,-104 535.62,-104 541.62,-110 541.62,-116 541.62,-116 541.62,-128 541.62,-128 541.62,-134 535.62,-140 529.62,-140"/>
<text text-anchor="middle" x="507" y="-116.75" font-family="Arial" font-size="15.00">brushes</text>
</g>
<!-- /lib/brushes/brushes.dart&#45;&gt;/lib/models/app_model.dart -->
<g id="edge3" class="edge">
<title>/lib/brushes/brushes.dart&#45;&gt;/lib/models/app_model.dart</title>
<path fill="none" stroke="#aabbaa" stroke-width="1.3" stroke-opacity="0.533333" d="M530.34,-140.35C545.71,-151.77 566.05,-166.88 583.05,-179.52"/>
<polygon fill="#aabbaa" fill-opacity="0.533333" stroke="#aabbaa" stroke-width="1.3" stroke-opacity="0.533333" points="580.92,-182.29 591.04,-185.45 585.1,-176.68 580.92,-182.29"/>
</g>
<!-- /lib/panels/tools_panel.dart -->
<g id="node4" class="node">
<title>/lib/panels/tools_panel.dart</title>
<path fill="Lavender" stroke="black" stroke-width="1.3" d="M882.88,-381C882.88,-381 815.12,-381 815.12,-381 809.12,-381 803.12,-375 803.12,-369 803.12,-369 803.12,-357 803.12,-357 803.12,-351 809.12,-345 815.12,-345 815.12,-345 882.88,-345 882.88,-345 888.88,-345 894.88,-351 894.88,-357 894.88,-357 894.88,-369 894.88,-369 894.88,-375 888.88,-381 882.88,-381"/>
<text text-anchor="middle" x="849" y="-357.75" font-family="Arial" font-size="15.00">tools_panel</text>
</g>
<!-- /lib/panels/tool.dart -->
<g id="node6" class="node">
<title>/lib/panels/tool.dart</title>
<path fill="Lavender" stroke="black" stroke-width="1.3" d="M799,-306C799,-306 769,-306 769,-306 763,-306 757,-300 757,-294 757,-294 757,-282 757,-282 757,-276 763,-270 769,-270 769,-270 799,-270 799,-270 805,-270 811,-276 811,-282 811,-282 811,-294 811,-294 811,-300 805,-306 799,-306"/>
<text text-anchor="middle" x="784" y="-282.75" font-family="Arial" font-size="15.00">tool</text>
</g>
<!-- /lib/panels/tools_panel.dart&#45;&gt;/lib/panels/tool.dart -->
<g id="edge5" class="edge">
<title>/lib/panels/tools_panel.dart&#45;&gt;/lib/panels/tool.dart</title>
<path fill="none" stroke="#aabbaa" stroke-width="1.3" stroke-opacity="0.533333" d="M833.6,-344.7C825.8,-335.95 816.17,-325.13 807.48,-315.37"/>
<polygon fill="#aabbaa" fill-opacity="0.533333" stroke="#aabbaa" stroke-width="1.3" stroke-opacity="0.533333" points="810.09,-313.04 800.83,-307.9 804.86,-317.69 810.09,-313.04"/>
</g>
<!-- /lib/panels/tools_panel.dart&#45;&gt;/lib/models/app_model.dart -->
<g id="edge4" class="edge">
<title>/lib/panels/tools_panel.dart&#45;&gt;/lib/models/app_model.dart</title>
<path fill="none" stroke="#aabbaa" stroke-width="1.3" stroke-opacity="0.533333" d="M852.02,-344.55C854.83,-321.89 855.68,-282.79 833,-262 823.89,-253.64 733.99,-257.04 722,-254 699.64,-248.32 676.13,-238.16 656.95,-228.64"/>
<polygon fill="#aabbaa" fill-opacity="0.533333" stroke="#aabbaa" stroke-width="1.3" stroke-opacity="0.533333" points="658.73,-225.62 648.24,-224.19 655.55,-231.86 658.73,-225.62"/>
</g>
<!-- /lib/widgets/transparent_background.dart -->
<g id="node19" class="node">
<title>/lib/widgets/transparent_background.dart</title>
<path fill="Lavender" stroke="black" stroke-width="1.3" d="M1015.38,-223C1015.38,-223 860.62,-223 860.62,-223 854.62,-223 848.62,-217 848.62,-211 848.62,-211 848.62,-199 848.62,-199 848.62,-193 854.62,-187 860.62,-187 860.62,-187 1015.38,-187 1015.38,-187 1021.38,-187 1027.38,-193 1027.38,-199 1027.38,-199 1027.38,-211 1027.38,-211 1027.38,-217 1021.38,-223 1015.38,-223"/>
<text text-anchor="middle" x="938" y="-199.75" font-family="Arial" font-size="15.00">transparent_background</text>
</g>
<!-- /lib/panels/tools_panel.dart&#45;&gt;/lib/widgets/transparent_background.dart -->
<g id="edge7" class="edge">
<title>/lib/panels/tools_panel.dart&#45;&gt;/lib/widgets/transparent_background.dart</title>
<path fill="none" stroke="#aabbaa" stroke-width="1.3" stroke-opacity="0.533333" d="M895.02,-362.2C942.5,-361.31 1011.96,-356.57 1029,-337 1050.89,-311.86 1045.26,-291.1 1029,-262 1021.36,-248.32 1008.85,-237.57 995.52,-229.31"/>
<polygon fill="#aabbaa" fill-opacity="0.533333" stroke="#aabbaa" stroke-width="1.3" stroke-opacity="0.533333" points="997.37,-226.33 986.95,-224.44 993.91,-232.42 997.37,-226.33"/>
</g>
<!-- /lib/widgets/color_picker.dart -->
<g id="node20" class="node">
<title>/lib/widgets/color_picker.dart</title>
<path fill="Lavender" stroke="black" stroke-width="1.3" d="M818.12,-223C818.12,-223 745.88,-223 745.88,-223 739.88,-223 733.88,-217 733.88,-211 733.88,-211 733.88,-199 733.88,-199 733.88,-193 739.88,-187 745.88,-187 745.88,-187 818.12,-187 818.12,-187 824.12,-187 830.12,-193 830.12,-199 830.12,-199 830.12,-211 830.12,-211 830.12,-217 824.12,-223 818.12,-223"/>
<text text-anchor="middle" x="782" y="-199.75" font-family="Arial" font-size="15.00">color_picker</text>
</g>
<!-- /lib/panels/tools_panel.dart&#45;&gt;/lib/widgets/color_picker.dart -->
<g id="edge6" class="edge">
<title>/lib/panels/tools_panel.dart&#45;&gt;/lib/widgets/color_picker.dart</title>
<path fill="none" stroke="#aabbaa" stroke-width="1.3" stroke-opacity="0.533333" d="M855.61,-344.68C862.48,-323.55 870.3,-287.5 855,-262 851.11,-255.52 846.28,-258.21 840,-254 829.85,-247.19 819.37,-238.95 810.17,-231.24"/>
<polygon fill="#aabbaa" fill-opacity="0.533333" stroke="#aabbaa" stroke-width="1.3" stroke-opacity="0.533333" points="812.46,-228.6 802.59,-224.75 807.91,-233.91 812.46,-228.6"/>
</g>
<!-- /lib/panels/layers_panel.dart -->
<g id="node5" class="node">
<title>/lib/panels/layers_panel.dart</title>
<path fill="Lavender" stroke="black" stroke-width="1.3" d="M773,-381C773,-381 697,-381 697,-381 691,-381 685,-375 685,-369 685,-369 685,-357 685,-357 685,-351 691,-345 697,-345 697,-345 773,-345 773,-345 779,-345 785,-351 785,-357 785,-357 785,-369 785,-369 785,-375 779,-381 773,-381"/>
<text text-anchor="middle" x="735" y="-357.75" font-family="Arial" font-size="15.00">layers_panel</text>
</g>
<!-- /lib/panels/share.dart -->
<g id="node7" class="node">
<title>/lib/panels/share.dart</title>
<path fill="Lavender" stroke="black" stroke-width="1.3" d="M727,-306C727,-306 697,-306 697,-306 691,-306 685,-300 685,-294 685,-294 685,-282 685,-282 685,-276 691,-270 697,-270 697,-270 727,-270 727,-270 733,-270 739,-276 739,-282 739,-282 739,-294 739,-294 739,-300 733,-306 727,-306"/>
<text text-anchor="middle" x="712" y="-282.75" font-family="Arial" font-size="15.00">share</text>
</g>
<!-- /lib/panels/layers_panel.dart&#45;&gt;/lib/panels/share.dart -->
<g id="edge9" class="edge">
<title>/lib/panels/layers_panel.dart&#45;&gt;/lib/panels/share.dart</title>
<path fill="none" stroke="#aabbaa" stroke-width="1.3" stroke-opacity="0.533333" d="M729.55,-344.7C727.02,-336.67 723.94,-326.9 721.07,-317.8"/>
<polygon fill="#aabbaa" fill-opacity="0.533333" stroke="#aabbaa" stroke-width="1.3" stroke-opacity="0.533333" points="724.43,-316.79 718.08,-308.31 717.75,-318.9 724.43,-316.79"/>
</g>
<!-- /lib/panels/layers_panel.dart&#45;&gt;/lib/models/app_model.dart -->
<g id="edge8" class="edge">
<title>/lib/panels/layers_panel.dart&#45;&gt;/lib/models/app_model.dart</title>
<path fill="none" stroke="#aabbaa" stroke-width="1.3" stroke-opacity="0.533333" d="M785.12,-347.58C803.37,-342.27 819.68,-337.43 820,-337 839.97,-310.31 842.59,-286.51 820,-262 812.6,-253.97 732.58,-256.74 722,-254 699.83,-248.26 676.5,-238.19 657.4,-228.75"/>
<polygon fill="#aabbaa" fill-opacity="0.533333" stroke="#aabbaa" stroke-width="1.3" stroke-opacity="0.533333" points="659.22,-225.75 648.72,-224.34 656.05,-231.99 659.22,-225.75"/>
</g>
<!-- /lib/panels/share.dart&#45;&gt;/lib/models/app_model.dart -->
<g id="edge11" class="edge">
<title>/lib/panels/share.dart&#45;&gt;/lib/models/app_model.dart</title>
<path fill="none" stroke="#aabbaa" stroke-width="1.3" stroke-opacity="0.533333" d="M691.64,-269.82C678.24,-258.52 660.48,-243.53 645.54,-230.92"/>
<polygon fill="#aabbaa" fill-opacity="0.533333" stroke="#aabbaa" stroke-width="1.3" stroke-opacity="0.533333" points="648.06,-228.48 638.16,-224.7 643.55,-233.83 648.06,-228.48"/>
</g>
<!-- /lib/canvas.dart -->
<g id="node15" class="node">
<title>/lib/canvas.dart</title>
<path fill="Lavender" stroke="black" stroke-width="1.3" d="M982.62,-306C982.62,-306 943.38,-306 943.38,-306 937.38,-306 931.38,-300 931.38,-294 931.38,-294 931.38,-282 931.38,-282 931.38,-276 937.38,-270 943.38,-270 943.38,-270 982.62,-270 982.62,-270 988.62,-270 994.62,-276 994.62,-282 994.62,-282 994.62,-294 994.62,-294 994.62,-300 988.62,-306 982.62,-306"/>
<text text-anchor="middle" x="963" y="-282.75" font-family="Arial" font-size="15.00">canvas</text>
</g>
<!-- /lib/panels/share.dart&#45;&gt;/lib/canvas.dart -->
<g id="edge10" class="edge">
<title>/lib/panels/share.dart&#45;&gt;/lib/canvas.dart</title>
<path fill="none" stroke="#aabbaa" stroke-width="1.3" stroke-opacity="0.533333" d="M719.94,-306.36C727.21,-320.16 739.52,-337.29 757,-341 773.41,-344.48 891.59,-344.48 908,-341 922.9,-337.84 935.5,-326.85 944.86,-315.69"/>
<polygon fill="#aabbaa" fill-opacity="0.533333" stroke="#aabbaa" stroke-width="1.3" stroke-opacity="0.533333" points="947.45,-318.07 950.75,-308 941.89,-313.81 947.45,-318.07"/>
</g>
<!-- /lib/models/layers.dart -->
<g id="node8" class="node">
<title>/lib/models/layers.dart</title>
<path fill="Lavender" stroke="black" stroke-width="1.3" d="M564.88,-306C564.88,-306 533.12,-306 533.12,-306 527.12,-306 521.12,-300 521.12,-294 521.12,-294 521.12,-282 521.12,-282 521.12,-276 527.12,-270 533.12,-270 533.12,-270 564.88,-270 564.88,-270 570.88,-270 576.88,-276 576.88,-282 576.88,-282 576.88,-294 576.88,-294 576.88,-300 570.88,-306 564.88,-306"/>
<text text-anchor="middle" x="549" y="-282.75" font-family="Arial" font-size="15.00">layers</text>
</g>
<!-- /lib/models/user_action.dart -->
<g id="node9" class="node">
<title>/lib/models/user_action.dart</title>
<path fill="Lavender" stroke="black" stroke-width="1.3" d="M541.62,-223C541.62,-223 472.38,-223 472.38,-223 466.38,-223 460.38,-217 460.38,-211 460.38,-211 460.38,-199 460.38,-199 460.38,-193 466.38,-187 472.38,-187 472.38,-187 541.62,-187 541.62,-187 547.62,-187 553.62,-193 553.62,-199 553.62,-199 553.62,-211 553.62,-211 553.62,-217 547.62,-223 541.62,-223"/>
<text text-anchor="middle" x="507" y="-199.75" font-family="Arial" font-size="15.00">user_action</text>
</g>
<!-- /lib/models/layers.dart&#45;&gt;/lib/models/user_action.dart -->
<g id="edge14" class="edge">
<title>/lib/models/layers.dart&#45;&gt;/lib/models/user_action.dart</title>
<path fill="none" stroke="#aabbaa" stroke-width="1.3" stroke-dasharray="5,2" stroke-opacity="0.533333" d="M540.09,-269.82C534.67,-259.37 527.62,-245.77 521.42,-233.81"/>
<polygon fill="#aabbaa" fill-opacity="0.533333" stroke="#aabbaa" stroke-width="1.3" stroke-opacity="0.533333" points="524.66,-232.45 516.94,-225.18 518.44,-235.67 524.66,-232.45"/>
</g>
<!-- /lib/models/layers.dart&#45;&gt;/lib/models/app_model.dart -->
<g id="edge13" class="edge">
<title>/lib/models/layers.dart&#45;&gt;/lib/models/app_model.dart</title>
<path fill="none" stroke="#aabbaa" stroke-width="1.3" stroke-opacity="0.533333" d="M551.94,-269.82C558.71,-258.73 570.36,-244.09 582.14,-231.64"/>
<polygon fill="#aabbaa" fill-opacity="0.533333" stroke="#aabbaa" stroke-width="1.3" stroke-opacity="0.533333" points="584.33,-234.4 588.87,-224.83 579.35,-229.48 584.33,-234.4"/>
</g>
<!-- /lib/helpers/list_helper.dart -->
<g id="node17" class="node">
<title>/lib/helpers/list_helper.dart</title>
<path fill="Lavender" stroke="black" stroke-width="1.3" d="M727.75,-68C727.75,-68 668.25,-68 668.25,-68 662.25,-68 656.25,-62 656.25,-56 656.25,-56 656.25,-44 656.25,-44 656.25,-38 662.25,-32 668.25,-32 668.25,-32 727.75,-32 727.75,-32 733.75,-32 739.75,-38 739.75,-44 739.75,-44 739.75,-56 739.75,-56 739.75,-62 733.75,-68 727.75,-68"/>
<text text-anchor="middle" x="698" y="-44.75" font-family="Arial" font-size="15.00">list_helper</text>
</g>
<!-- /lib/models/layers.dart&#45;&gt;/lib/helpers/list_helper.dart -->
<g id="edge12" class="edge">
<title>/lib/models/layers.dart&#45;&gt;/lib/helpers/list_helper.dart</title>
<path fill="none" stroke="#aabbaa" stroke-width="1.3" stroke-opacity="0.533333" d="M521.05,-286.01C498.07,-283.54 466.82,-276.02 451,-254 409.96,-196.88 412.26,-147.66 460,-96 484.33,-69.67 581.84,-58.45 644.24,-53.89"/>
<polygon fill="#aabbaa" fill-opacity="0.533333" stroke="#aabbaa" stroke-width="1.3" stroke-opacity="0.533333" points="644.14,-57.41 653.88,-53.23 643.66,-50.43 644.14,-57.41"/>
</g>
<!-- /lib/models/user_action.dart&#45;&gt;/lib/brushes/brushes.dart -->
<g id="edge15" class="edge">
<title>/lib/models/user_action.dart&#45;&gt;/lib/brushes/brushes.dart</title>
<path fill="none" stroke="#aabbaa" stroke-width="1.3" stroke-opacity="0.533333" d="M501.36,-186.82C500.28,-176.8 499.99,-163.88 500.49,-152.29"/>
<polygon fill="#aabbaa" fill-opacity="0.533333" stroke="#aabbaa" stroke-width="1.3" stroke-opacity="0.533333" points="503.97,-152.62 501.2,-142.4 496.99,-152.12 503.97,-152.62"/>
</g>
<!-- /lib/models/user_action.dart&#45;&gt;/lib/brushes/brushes.dart -->
<g id="edge16" class="edge">
<title>/lib/models/user_action.dart&#45;&gt;/lib/brushes/brushes.dart</title>
<path fill="none" stroke="#aabbaa" stroke-width="1.3" stroke-dasharray="5,2" stroke-opacity="0.533333" d="M512.64,-186.82C513.72,-176.8 514.01,-163.88 513.51,-152.29"/>
<polygon fill="#aabbaa" fill-opacity="0.533333" stroke="#aabbaa" stroke-width="1.3" stroke-opacity="0.533333" points="517.01,-152.12 512.8,-142.4 510.03,-152.62 517.01,-152.12"/>
</g>
<!-- /lib/models/app_model.dart&#45;&gt;/lib/models/layers.dart -->
<g id="edge17" class="edge">
<title>/lib/models/app_model.dart&#45;&gt;/lib/models/layers.dart</title>
<path fill="none" stroke="#aabbaa" stroke-width="1.3" stroke-opacity="0.533333" d="M601.58,-223.43C592.54,-234.36 580.71,-248.66 570.57,-260.93"/>
<polygon fill="#aabbaa" fill-opacity="0.533333" stroke="#aabbaa" stroke-width="1.3" stroke-opacity="0.533333" points="568.14,-258.37 564.46,-268.31 573.53,-262.83 568.14,-258.37"/>
</g>
<!-- /lib/models/app_model.dart&#45;&gt;/lib/models/layers.dart -->
<g id="edge18" class="edge">
<title>/lib/models/app_model.dart&#45;&gt;/lib/models/layers.dart</title>
<path fill="none" stroke="#aabbaa" stroke-width="1.3" stroke-dasharray="5,2" stroke-opacity="0.533333" d="M612.91,-223.43C606.06,-234.58 594.38,-249.22 582.59,-261.65"/>
<polygon fill="#aabbaa" fill-opacity="0.533333" stroke="#aabbaa" stroke-width="1.3" stroke-opacity="0.533333" points="580.43,-258.86 575.87,-268.43 585.4,-263.79 580.43,-258.86"/>
</g>
<!-- /lib/main.dart&#45;&gt;/lib/models/app_model.dart -->
<g id="edge20" class="edge">
<title>/lib/main.dart&#45;&gt;/lib/models/app_model.dart</title>
<path fill="none" stroke="#aabbaa" stroke-width="1.3" stroke-opacity="0.533333" d="M874.5,-491.73C934.82,-448.93 1075.99,-336.06 1004,-262 993.08,-250.76 737.27,-257.52 722,-254 699.35,-248.77 675.65,-238.55 656.42,-228.88"/>
<polygon fill="#aabbaa" fill-opacity="0.533333" stroke="#aabbaa" stroke-width="1.3" stroke-opacity="0.533333" points="658.17,-225.84 647.68,-224.35 654.95,-232.06 658.17,-225.84"/>
</g>
<!-- /lib/main_screen.dart -->
<g id="node16" class="node">
<title>/lib/main_screen.dart</title>
<path fill="Lavender" stroke="black" stroke-width="1.3" d="M887.75,-456C887.75,-456 810.25,-456 810.25,-456 804.25,-456 798.25,-450 798.25,-444 798.25,-444 798.25,-432 798.25,-432 798.25,-426 804.25,-420 810.25,-420 810.25,-420 887.75,-420 887.75,-420 893.75,-420 899.75,-426 899.75,-432 899.75,-432 899.75,-444 899.75,-444 899.75,-450 893.75,-456 887.75,-456"/>
<text text-anchor="middle" x="849" y="-432.75" font-family="Arial" font-size="15.00">main_screen</text>
</g>
<!-- /lib/main.dart&#45;&gt;/lib/main_screen.dart -->
<g id="edge19" class="edge">
<title>/lib/main.dart&#45;&gt;/lib/main_screen.dart</title>
<path fill="none" stroke="#aabbaa" stroke-width="1.3" stroke-opacity="0.533333" d="M849,-491.7C849,-484.49 849,-475.93 849,-467.82"/>
<polygon fill="#aabbaa" fill-opacity="0.533333" stroke="#aabbaa" stroke-width="1.3" stroke-opacity="0.533333" points="852.5,-468.07 849,-458.07 845.5,-468.07 852.5,-468.07"/>
</g>
<!-- /lib/files/ora.dart -->
<g id="node12" class="node">
<title>/lib/files/ora.dart</title>
<path fill="Lavender" stroke="black" stroke-width="1.3" d="M369,-306C369,-306 339,-306 339,-306 333,-306 327,-300 327,-294 327,-294 327,-282 327,-282 327,-276 333,-270 339,-270 339,-270 369,-270 369,-270 375,-270 381,-276 381,-282 381,-282 381,-294 381,-294 381,-300 375,-306 369,-306"/>
<text text-anchor="middle" x="354" y="-282.75" font-family="Arial" font-size="15.00">ora</text>
</g>
<!-- /lib/files/ora.dart&#45;&gt;/lib/models/app_model.dart -->
<g id="edge22" class="edge">
<title>/lib/files/ora.dart&#45;&gt;/lib/models/app_model.dart</title>
<path fill="none" stroke="#aabbaa" stroke-width="1.3" stroke-opacity="0.533333" d="M381.26,-278.27C399.86,-272.69 425.18,-265.79 448,-262 473.27,-257.8 539.43,-264.04 563,-254 574.65,-249.04 585.43,-240.41 594.18,-231.82"/>
<polygon fill="#aabbaa" fill-opacity="0.533333" stroke="#aabbaa" stroke-width="1.3" stroke-opacity="0.533333" points="596.5,-234.47 600.86,-224.82 591.43,-229.64 596.5,-234.47"/>
</g>
<!-- /lib/files/ora.dart&#45;&gt;/lib/helpers/list_helper.dart -->
<g id="edge21" class="edge">
<title>/lib/files/ora.dart&#45;&gt;/lib/helpers/list_helper.dart</title>
<path fill="none" stroke="#aabbaa" stroke-width="1.3" stroke-opacity="0.533333" d="M354.21,-269.5C355.69,-231.46 364.93,-141.02 418,-96 451.23,-67.81 572.37,-57.09 643.97,-53.16"/>
<polygon fill="#aabbaa" fill-opacity="0.533333" stroke="#aabbaa" stroke-width="1.3" stroke-opacity="0.533333" points="644.1,-56.66 653.91,-52.64 643.74,-49.67 644.1,-56.66"/>
</g>
<!-- /lib/files/export_download_web.dart -->
<g id="node13" class="node">
<title>/lib/files/export_download_web.dart</title>
<path fill="Lavender" stroke="black" stroke-width="1.3" d="M424.25,-381C424.25,-381 283.75,-381 283.75,-381 277.75,-381 271.75,-375 271.75,-369 271.75,-369 271.75,-357 271.75,-357 271.75,-351 277.75,-345 283.75,-345 283.75,-345 424.25,-345 424.25,-345 430.25,-345 436.25,-351 436.25,-357 436.25,-357 436.25,-369 436.25,-369 436.25,-375 430.25,-381 424.25,-381"/>
<text text-anchor="middle" x="354" y="-357.75" font-family="Arial" font-size="15.00">export_download_web</text>
</g>
<!-- /lib/files/export_download_web.dart&#45;&gt;/lib/panels/share.dart -->
<g id="edge25" class="edge">
<title>/lib/files/export_download_web.dart&#45;&gt;/lib/panels/share.dart</title>
<path fill="none" stroke="#aabbaa" stroke-width="1.3" stroke-opacity="0.533333" d="M436.45,-362.82C517.08,-362.33 633.34,-357.82 673,-337 682.19,-332.18 690,-324.15 696.17,-316.03"/>
<polygon fill="#aabbaa" fill-opacity="0.533333" stroke="#aabbaa" stroke-width="1.3" stroke-opacity="0.533333" points="698.97,-318.13 701.74,-307.9 693.19,-314.17 698.97,-318.13"/>
</g>
<!-- /lib/files/export_download_web.dart&#45;&gt;/lib/models/app_model.dart -->
<g id="edge24" class="edge">
<title>/lib/files/export_download_web.dart&#45;&gt;/lib/models/app_model.dart</title>
<path fill="none" stroke="#aabbaa" stroke-width="1.3" stroke-opacity="0.533333" d="M436.74,-358.71C503.89,-355.2 589.3,-348.54 601,-337 627.52,-310.83 626.38,-264.99 622.03,-235.06"/>
<polygon fill="#aabbaa" fill-opacity="0.533333" stroke="#aabbaa" stroke-width="1.3" stroke-opacity="0.533333" points="625.49,-234.53 620.37,-225.26 618.59,-235.7 625.49,-234.53"/>
</g>
<!-- /lib/files/export_download_web.dart&#45;&gt;/lib/files/ora.dart -->
<g id="edge23" class="edge">
<title>/lib/files/export_download_web.dart&#45;&gt;/lib/files/ora.dart</title>
<path fill="none" stroke="#aabbaa" stroke-width="1.3" stroke-opacity="0.533333" d="M354,-344.7C354,-336.76 354,-327.12 354,-318.11"/>
<polygon fill="#aabbaa" fill-opacity="0.533333" stroke="#aabbaa" stroke-width="1.3" stroke-opacity="0.533333" points="357.5,-318.4 354,-308.4 350.5,-318.4 357.5,-318.4"/>
</g>
<!-- /lib/files/export_download_non_web.dart -->
<g id="node14" class="node">
<title>/lib/files/export_download_non_web.dart</title>
<path fill="Lavender" stroke="black" stroke-width="1.3" d="M241.75,-381C241.75,-381 68.25,-381 68.25,-381 62.25,-381 56.25,-375 56.25,-369 56.25,-369 56.25,-357 56.25,-357 56.25,-351 62.25,-345 68.25,-345 68.25,-345 241.75,-345 241.75,-345 247.75,-345 253.75,-351 253.75,-357 253.75,-357 253.75,-369 253.75,-369 253.75,-375 247.75,-381 241.75,-381"/>
<text text-anchor="middle" x="155" y="-357.75" font-family="Arial" font-size="15.00">export_download_non_web</text>
</g>
<!-- /lib/files/export_download_non_web.dart&#45;&gt;/lib/models/app_model.dart -->
<g id="edge27" class="edge">
<title>/lib/files/export_download_non_web.dart&#45;&gt;/lib/models/app_model.dart</title>
<path fill="none" stroke="#aabbaa" stroke-width="1.3" stroke-opacity="0.533333" d="M254.1,-345.88C257.1,-345.56 260.07,-345.27 263,-345 280.88,-343.38 572.26,-348.55 586,-337 612.02,-315.12 593.26,-295.1 601,-262 603.11,-252.97 605.64,-243.19 608.02,-234.36"/>
<polygon fill="#aabbaa" fill-opacity="0.533333" stroke="#aabbaa" stroke-width="1.3" stroke-opacity="0.533333" points="611.33,-235.55 610.6,-224.98 604.58,-233.7 611.33,-235.55"/>
</g>
<!-- /lib/files/export_download_non_web.dart&#45;&gt;/lib/files/ora.dart -->
<g id="edge26" class="edge">
<title>/lib/files/export_download_non_web.dart&#45;&gt;/lib/files/ora.dart</title>
<path fill="none" stroke="#aabbaa" stroke-width="1.3" stroke-opacity="0.533333" d="M202.67,-344.51C237.18,-331.85 283.23,-314.96 315.44,-303.15"/>
<polygon fill="#aabbaa" fill-opacity="0.533333" stroke="#aabbaa" stroke-width="1.3" stroke-opacity="0.533333" points="316.6,-306.45 324.78,-299.72 314.19,-299.88 316.6,-306.45"/>
</g>
<!-- /lib/canvas.dart&#45;&gt;/lib/models/app_model.dart -->
<g id="edge29" class="edge">
<title>/lib/canvas.dart&#45;&gt;/lib/models/app_model.dart</title>
<path fill="none" stroke="#aabbaa" stroke-width="1.3" stroke-opacity="0.533333" d="M935.65,-269.52C929.71,-266.48 923.31,-263.74 917,-262 875.19,-250.46 764.2,-264.02 722,-254 699.38,-248.63 675.69,-238.39 656.45,-228.74"/>
<polygon fill="#aabbaa" fill-opacity="0.533333" stroke="#aabbaa" stroke-width="1.3" stroke-opacity="0.533333" points="658.2,-225.71 647.71,-224.23 654.99,-231.93 658.2,-225.71"/>
</g>
<!-- /lib/canvas.dart&#45;&gt;/lib/widgets/transparent_background.dart -->
<g id="edge28" class="edge">
<title>/lib/canvas.dart&#45;&gt;/lib/widgets/transparent_background.dart</title>
<path fill="none" stroke="#aabbaa" stroke-width="1.3" stroke-opacity="0.533333" d="M957.7,-269.82C954.54,-259.58 950.45,-246.33 946.81,-234.55"/>
<polygon fill="#aabbaa" fill-opacity="0.533333" stroke="#aabbaa" stroke-width="1.3" stroke-opacity="0.533333" points="950.25,-233.84 943.96,-225.31 943.57,-235.9 950.25,-233.84"/>
</g>
<!-- /lib/main_screen.dart&#45;&gt;/lib/panels/tools_panel.dart -->
<g id="edge33" class="edge">
<title>/lib/main_screen.dart&#45;&gt;/lib/panels/tools_panel.dart</title>
<path fill="none" stroke="#aabbaa" stroke-width="1.3" stroke-opacity="0.533333" d="M849,-419.7C849,-411.76 849,-402.12 849,-393.11"/>
<polygon fill="#aabbaa" fill-opacity="0.533333" stroke="#aabbaa" stroke-width="1.3" stroke-opacity="0.533333" points="852.5,-393.4 849,-383.4 845.5,-393.4 852.5,-393.4"/>
</g>
<!-- /lib/main_screen.dart&#45;&gt;/lib/panels/layers_panel.dart -->
<g id="edge32" class="edge">
<title>/lib/main_screen.dart&#45;&gt;/lib/panels/layers_panel.dart</title>
<path fill="none" stroke="#aabbaa" stroke-width="1.3" stroke-opacity="0.533333" d="M807.55,-419.56C802.89,-417.19 798.28,-414.65 794,-412 783.22,-405.32 772.23,-396.9 762.7,-388.99"/>
<polygon fill="#aabbaa" fill-opacity="0.533333" stroke="#aabbaa" stroke-width="1.3" stroke-opacity="0.533333" points="765.1,-386.43 755.22,-382.6 760.56,-391.75 765.1,-386.43"/>
</g>
<!-- /lib/main_screen.dart&#45;&gt;/lib/models/app_model.dart -->
<g id="edge34" class="edge">
<title>/lib/main_screen.dart&#45;&gt;/lib/models/app_model.dart</title>
<path fill="none" stroke="#aabbaa" stroke-width="1.3" stroke-opacity="0.533333" d="M900.08,-419.81C902.72,-417.52 905.07,-414.93 907,-412 916.16,-398.08 918.53,-274.04 907,-262 892.77,-247.14 742.01,-258.77 722,-254 699.39,-248.61 675.69,-238.36 656.45,-228.72"/>
<polygon fill="#aabbaa" fill-opacity="0.533333" stroke="#aabbaa" stroke-width="1.3" stroke-opacity="0.533333" points="658.21,-225.69 647.72,-224.21 655,-231.91 658.21,-225.69"/>
</g>
<!-- /lib/main_screen.dart&#45;&gt;/lib/files/ora.dart -->
<g id="edge31" class="edge">
<title>/lib/main_screen.dart&#45;&gt;/lib/files/ora.dart</title>
<path fill="none" stroke="#aabbaa" stroke-width="1.3" stroke-opacity="0.533333" d="M798,-437.34C625.5,-438.24 73.16,-438.99 47,-412 26.27,-390.62 27.93,-367.87 47,-345 80.69,-304.6 239.92,-293.27 314.84,-290.15"/>
<polygon fill="#aabbaa" fill-opacity="0.533333" stroke="#aabbaa" stroke-width="1.3" stroke-opacity="0.533333" points="314.71,-293.66 324.57,-289.78 314.44,-286.67 314.71,-293.66"/>
</g>
<!-- /lib/main_screen.dart&#45;&gt;/lib/canvas.dart -->
<g id="edge30" class="edge">
<title>/lib/main_screen.dart&#45;&gt;/lib/canvas.dart</title>
<path fill="none" stroke="#aabbaa" stroke-width="1.3" stroke-opacity="0.533333" d="M899.99,-424.93C906.99,-421.61 913.61,-417.38 919,-412 944.46,-386.56 955.26,-345.39 959.8,-317.77"/>
<polygon fill="#aabbaa" fill-opacity="0.533333" stroke="#aabbaa" stroke-width="1.3" stroke-opacity="0.533333" points="963.23,-318.49 961.19,-308.09 956.3,-317.49 963.23,-318.49"/>
</g>
<!-- /lib/helpers/color_helper.dart -->
<g id="node18" class="node">
<title>/lib/helpers/color_helper.dart</title>
<path fill="Lavender" stroke="black" stroke-width="1.3" d="M741.88,-140C741.88,-140 668.12,-140 668.12,-140 662.12,-140 656.12,-134 656.12,-128 656.12,-128 656.12,-116 656.12,-116 656.12,-110 662.12,-104 668.12,-104 668.12,-104 741.88,-104 741.88,-104 747.88,-104 753.88,-110 753.88,-116 753.88,-116 753.88,-128 753.88,-128 753.88,-134 747.88,-140 741.88,-140"/>
<text text-anchor="middle" x="705" y="-116.75" font-family="Arial" font-size="15.00">color_helper</text>
</g>
<!-- /lib/helpers/color_helper.dart&#45;&gt;/lib/helpers/list_helper.dart -->
<g id="edge35" class="edge">
<title>/lib/helpers/color_helper.dart&#45;&gt;/lib/helpers/list_helper.dart</title>
<path fill="none" stroke="#aabbaa" stroke-width="1.3" stroke-opacity="0.533333" d="M703.27,-103.7C702.55,-96.49 701.69,-87.93 700.88,-79.82"/>
<polygon fill="#aabbaa" fill-opacity="0.533333" stroke="#aabbaa" stroke-width="1.3" stroke-opacity="0.533333" points="704.38,-79.66 699.91,-70.06 697.42,-80.36 704.38,-79.66"/>
</g>
<!-- /lib/widgets/color_picker.dart&#45;&gt;/lib/helpers/list_helper.dart -->
<g id="edge37" class="edge">
<title>/lib/widgets/color_picker.dart&#45;&gt;/lib/helpers/list_helper.dart</title>
<path fill="none" stroke="#aabbaa" stroke-width="1.3" stroke-opacity="0.533333" d="M733.59,-192.89C695.43,-184.02 648.41,-172.8 647,-171 626.42,-144.78 633.29,-126.38 647,-96 650.33,-88.62 655.53,-81.97 661.36,-76.19"/>
<polygon fill="#aabbaa" fill-opacity="0.533333" stroke="#aabbaa" stroke-width="1.3" stroke-opacity="0.533333" points="663.58,-78.9 668.74,-69.65 658.94,-73.66 663.58,-78.9"/>
</g>
<!-- /lib/widgets/color_picker.dart&#45;&gt;/lib/helpers/color_helper.dart -->
<g id="edge36" class="edge">
<title>/lib/widgets/color_picker.dart&#45;&gt;/lib/helpers/color_helper.dart</title>
<path fill="none" stroke="#aabbaa" stroke-width="1.3" stroke-opacity="0.533333" d="M765.67,-186.82C755.23,-175.84 741.48,-161.38 729.71,-149"/>
<polygon fill="#aabbaa" fill-opacity="0.533333" stroke="#aabbaa" stroke-width="1.3" stroke-opacity="0.533333" points="732.35,-146.69 722.93,-141.86 727.28,-151.52 732.35,-146.69"/>
</g>
</g>
</svg>
