<?xml version="1.0" encoding="UTF-8" standalone="no"?>
<!DOCTYPE svg PUBLIC "-//W3C//DTD SVG 1.1//EN"
 "http://www.w3.org/Graphics/SVG/1.1/DTD/svg11.dtd">
<!-- Generated by graphviz version 12.2.1 (20241206.2353)
 -->
<!-- Pages: 1 -->
<svg width="3446pt" height="922pt"
 viewBox="0.00 0.00 3446.00 922.00" xmlns="http://www.w3.org/2000/svg" xmlns:xlink="http://www.w3.org/1999/xlink">
<g id="graph0" class="graph" transform="scale(1 1) rotate(0) translate(4 918)">
<polygon fill="white" stroke="none" points="-4,4 -4,-918 3442,-918 3442,4 -4,4"/>
<g id="clust1" class="cluster">
<title>cluster~</title>
<path fill="none" stroke="lightgray" stroke-width="2.6" d="M20,-8C20,-8 3418,-8 3418,-8 3424,-8 3430,-14 3430,-20 3430,-20 3430,-894 3430,-894 3430,-900 3424,-906 3418,-906 3418,-906 20,-906 20,-906 14,-906 8,-900 8,-894 8,-894 8,-20 8,-20 8,-14 14,-8 20,-8"/>
<text text-anchor="middle" x="1719" y="-889.65" font-family="Arial Black" font-size="13.00">fpaint</text>
</g>
<g id="clust2" class="cluster">
<title>cluster~/test</title>
<path fill="none" stroke="lightgray" stroke-width="2.6" d="M28,-722C28,-722 785,-722 785,-722 791,-722 797,-728 797,-734 797,-734 797,-863 797,-863 797,-869 791,-875 785,-875 785,-875 28,-875 28,-875 22,-875 16,-869 16,-863 16,-863 16,-734 16,-734 16,-728 22,-722 28,-722"/>
<text text-anchor="middle" x="406.5" y="-858.65" font-family="Arial Black" font-size="13.00">test</text>
</g>
<g id="clust3" class="cluster">
<title>cluster~/test/panels</title>
<path fill="none" stroke="lightgray" stroke-width="2.6" d="M303,-730C303,-730 415,-730 415,-730 421,-730 427,-736 427,-742 427,-742 427,-832 427,-832 427,-838 421,-844 415,-844 415,-844 303,-844 303,-844 297,-844 291,-838 291,-832 291,-832 291,-742 291,-742 291,-736 297,-730 303,-730"/>
<text text-anchor="middle" x="359" y="-827.65" font-family="Arial Black" font-size="13.00">panels</text>
</g>
<g id="clust4" class="cluster">
<title>cluster~/test/panels/tools</title>
<path fill="none" stroke="lightgray" stroke-width="2.6" d="M311,-738C311,-738 407,-738 407,-738 413,-738 419,-744 419,-750 419,-750 419,-801 419,-801 419,-807 413,-813 407,-813 407,-813 311,-813 311,-813 305,-813 299,-807 299,-801 299,-801 299,-750 299,-750 299,-744 305,-738 311,-738"/>
<text text-anchor="middle" x="359" y="-796.65" font-family="Arial Black" font-size="13.00">tools</text>
</g>
<g id="clust5" class="cluster">
<title>cluster~/test/models</title>
<path fill="none" stroke="lightgray" stroke-width="2.6" d="M36,-738C36,-738 172,-738 172,-738 178,-738 184,-744 184,-750 184,-750 184,-801 184,-801 184,-807 178,-813 172,-813 172,-813 36,-813 36,-813 30,-813 24,-807 24,-801 24,-801 24,-750 24,-750 24,-744 30,-738 36,-738"/>
<text text-anchor="middle" x="104" y="-796.65" font-family="Arial Black" font-size="13.00">models</text>
</g>
<g id="clust6" class="cluster">
<title>cluster~/lib</title>
<path fill="none" stroke="lightgray" stroke-width="2.6" d="M60,-16C60,-16 3398,-16 3398,-16 3404,-16 3410,-22 3410,-28 3410,-28 3410,-702 3410,-702 3410,-708 3404,-714 3398,-714 3398,-714 60,-714 60,-714 54,-714 48,-708 48,-702 48,-702 48,-28 48,-28 48,-22 54,-16 60,-16"/>
<text text-anchor="middle" x="1729" y="-697.65" font-family="Arial Black" font-size="13.00">lib</text>
</g>
<g id="clust7" class="cluster">
<title>cluster~/lib/panels</title>
<path fill="none" stroke="lightgray" stroke-width="2.6" d="M1185,-251C1185,-251 2054,-251 2054,-251 2060,-251 2066,-257 2066,-263 2066,-263 2066,-555 2066,-555 2066,-561 2060,-567 2054,-567 2054,-567 1185,-567 1185,-567 1179,-567 1173,-561 1173,-555 1173,-555 1173,-263 1173,-263 1173,-257 1179,-251 1185,-251"/>
<text text-anchor="middle" x="1619.5" y="-550.65" font-family="Arial Black" font-size="13.00">panels</text>
</g>
<g id="clust8" class="cluster">
<title>cluster~/lib/panels/tools</title>
<path fill="none" stroke="lightgray" stroke-width="2.6" d="M1774,-342C1774,-342 2046,-342 2046,-342 2052,-342 2058,-348 2058,-354 2058,-354 2058,-480 2058,-480 2058,-486 2052,-492 2046,-492 2046,-492 1774,-492 1774,-492 1768,-492 1762,-486 1762,-480 1762,-480 1762,-354 1762,-354 1762,-348 1768,-342 1774,-342"/>
<text text-anchor="middle" x="1910" y="-475.65" font-family="Arial Black" font-size="13.00">tools</text>
</g>
<g id="clust9" class="cluster">
<title>cluster~/lib/panels/layers</title>
<path fill="none" stroke="lightgray" stroke-width="2.6" d="M1513,-259C1513,-259 1742,-259 1742,-259 1748,-259 1754,-265 1754,-271 1754,-271 1754,-480 1754,-480 1754,-486 1748,-492 1742,-492 1742,-492 1513,-492 1513,-492 1507,-492 1501,-486 1501,-480 1501,-480 1501,-271 1501,-271 1501,-265 1507,-259 1513,-259"/>
<text text-anchor="middle" x="1627.5" y="-475.65" font-family="Arial Black" font-size="13.00">layers</text>
</g>
<g id="clust10" class="cluster">
<title>cluster~/lib/models</title>
<path fill="none" stroke="lightgray" stroke-width="2.6" d="M919,-96C919,-96 1153,-96 1153,-96 1159,-96 1165,-102 1165,-108 1165,-108 1165,-405 1165,-405 1165,-411 1159,-417 1153,-417 1153,-417 919,-417 919,-417 913,-417 907,-411 907,-405 907,-405 907,-108 907,-108 907,-102 913,-96 919,-96"/>
<text text-anchor="middle" x="1036" y="-400.65" font-family="Arial Black" font-size="13.00">models</text>
</g>
<g id="clust11" class="cluster">
<title>cluster~/lib/files</title>
<path fill="none" stroke="lightgray" stroke-width="2.6" d="M100,-259C100,-259 887,-259 887,-259 893,-259 899,-265 899,-271 899,-271 899,-405 899,-405 899,-411 893,-417 887,-417 887,-417 100,-417 100,-417 94,-417 88,-411 88,-405 88,-405 88,-271 88,-271 88,-265 94,-259 100,-259"/>
<text text-anchor="middle" x="493.5" y="-400.65" font-family="Arial Black" font-size="13.00">files</text>
</g>
<g id="clust12" class="cluster">
<title>cluster~/lib/helpers</title>
<path fill="none" stroke="lightgray" stroke-width="2.6" d="M1185,-24C1185,-24 1283,-24 1283,-24 1289,-24 1295,-30 1295,-36 1295,-36 1295,-231 1295,-231 1295,-237 1289,-243 1283,-243 1283,-243 1185,-243 1185,-243 1179,-243 1173,-237 1173,-231 1173,-231 1173,-36 1173,-36 1173,-30 1179,-24 1185,-24"/>
<text text-anchor="middle" x="1234" y="-226.65" font-family="Arial Black" font-size="13.00">helpers</text>
</g>
<g id="clust13" class="cluster">
<title>cluster~/lib/widgets</title>
<path fill="none" stroke="lightgray" stroke-width="2.6" d="M2086,-168C2086,-168 3378,-168 3378,-168 3384,-168 3390,-174 3390,-180 3390,-180 3390,-322 3390,-322 3390,-328 3384,-334 3378,-334 3378,-334 2086,-334 2086,-334 2080,-334 2074,-328 2074,-322 2074,-322 2074,-180 2074,-180 2074,-174 2080,-168 2086,-168"/>
<text text-anchor="middle" x="2732" y="-317.65" font-family="Arial Black" font-size="13.00">widgets</text>
</g>
<!-- /test/paint_model_test.dart -->
<g id="node1" class="node">
<title>/test/paint_model_test.dart</title>
<path fill="Lavender" stroke="black" stroke-width="1.3" d="M777,-782C777,-782 671,-782 671,-782 665,-782 659,-776 659,-770 659,-770 659,-758 659,-758 659,-752 665,-746 671,-746 671,-746 777,-746 777,-746 783,-746 789,-752 789,-758 789,-758 789,-770 789,-770 789,-776 783,-782 777,-782"/>
<text text-anchor="middle" x="724" y="-758.75" font-family="Arial" font-size="15.00">paint_model_test</text>
</g>
<!-- /lib/models/app_model.dart -->
<g id="node25" class="node">
<title>/lib/models/app_model.dart</title>
<path fill="Lavender" stroke="black" stroke-width="1.3" d="M1012.75,-212C1012.75,-212 947.25,-212 947.25,-212 941.25,-212 935.25,-206 935.25,-200 935.25,-200 935.25,-188 935.25,-188 935.25,-182 941.25,-176 947.25,-176 947.25,-176 1012.75,-176 1012.75,-176 1018.75,-176 1024.75,-182 1024.75,-188 1024.75,-188 1024.75,-200 1024.75,-200 1024.75,-206 1018.75,-212 1012.75,-212"/>
<text text-anchor="middle" x="980" y="-188.75" font-family="Arial" font-size="15.00">app_model</text>
</g>
<!-- /test/paint_model_test.dart&#45;&gt;/lib/models/app_model.dart -->
<g id="edge1" class="edge">
<title>/test/paint_model_test.dart&#45;&gt;/lib/models/app_model.dart</title>
<path fill="none" stroke="#aabbaa" stroke-width="1.3" stroke-opacity="0.533333" d="M789.33,-762.42C1201.21,-758.37 3421,-730.2 3421,-594 3421,-594 3421,-594 3421,-367 3421,-314.07 3435.4,-283.99 3394,-251 3381.29,-240.87 1069.57,-247.64 1054,-243 1037.86,-238.19 1021.93,-228.66 1009.01,-219.35"/>
<polygon fill="#aabbaa" fill-opacity="0.533333" stroke="#aabbaa" stroke-width="1.3" stroke-opacity="0.533333" points="1011.42,-216.78 1001.33,-213.54 1007.2,-222.36 1011.42,-216.78"/>
</g>
<!-- /test/panels/tools/flood_fill_test.dart -->
<g id="node2" class="node">
<title>/test/panels/tools/flood_fill_test.dart</title>
<path fill="Lavender" stroke="black" stroke-width="1.3" d="M398.5,-782C398.5,-782 319.5,-782 319.5,-782 313.5,-782 307.5,-776 307.5,-770 307.5,-770 307.5,-758 307.5,-758 307.5,-752 313.5,-746 319.5,-746 319.5,-746 398.5,-746 398.5,-746 404.5,-746 410.5,-752 410.5,-758 410.5,-758 410.5,-770 410.5,-770 410.5,-776 404.5,-782 398.5,-782"/>
<text text-anchor="middle" x="359" y="-758.75" font-family="Arial" font-size="15.00">flood_fill_test</text>
</g>
<!-- /lib/panels/tools/flood_fill.dart -->
<g id="node9" class="node">
<title>/lib/panels/tools/flood_fill.dart</title>
<path fill="Lavender" stroke="black" stroke-width="1.3" d="M1828,-461C1828,-461 1782,-461 1782,-461 1776,-461 1770,-455 1770,-449 1770,-449 1770,-437 1770,-437 1770,-431 1776,-425 1782,-425 1782,-425 1828,-425 1828,-425 1834,-425 1840,-431 1840,-437 1840,-437 1840,-449 1840,-449 1840,-455 1834,-461 1828,-461"/>
<text text-anchor="middle" x="1805" y="-437.75" font-family="Arial" font-size="15.00">flood_fill</text>
</g>
<!-- /test/panels/tools/flood_fill_test.dart&#45;&gt;/lib/panels/tools/flood_fill.dart -->
<g id="edge2" class="edge">
<title>/test/panels/tools/flood_fill_test.dart&#45;&gt;/lib/panels/tools/flood_fill.dart</title>
<path fill="none" stroke="#aabbaa" stroke-width="1.3" stroke-opacity="0.533333" d="M341.81,-745.86C331.7,-736.98 318.16,-726.97 304,-722 291.83,-717.73 81.4,-722.83 72,-714 49.43,-692.79 40.85,-597.63 62,-575 146.18,-484.93 1045.82,-505.01 1169,-500 1185.35,-499.34 1742.96,-498.44 1758,-492 1768.86,-487.35 1778.49,-478.85 1786.16,-470.29"/>
<polygon fill="#aabbaa" fill-opacity="0.533333" stroke="#aabbaa" stroke-width="1.3" stroke-opacity="0.533333" points="1788.78,-472.62 1792.43,-462.67 1783.37,-468.17 1788.78,-472.62"/>
</g>
<!-- /test/models/canvas_resize_test.dart -->
<g id="node3" class="node">
<title>/test/models/canvas_resize_test.dart</title>
<path fill="Lavender" stroke="black" stroke-width="1.3" d="M164.12,-782C164.12,-782 43.87,-782 43.87,-782 37.88,-782 31.88,-776 31.88,-770 31.88,-770 31.88,-758 31.88,-758 31.88,-752 37.88,-746 43.88,-746 43.88,-746 164.12,-746 164.12,-746 170.12,-746 176.12,-752 176.12,-758 176.12,-758 176.12,-770 176.12,-770 176.12,-776 170.12,-782 164.12,-782"/>
<text text-anchor="middle" x="104" y="-758.75" font-family="Arial" font-size="15.00">canvas_resize_test</text>
</g>
<!-- /lib/models/canvas_resize.dart -->
<g id="node23" class="node">
<title>/lib/models/canvas_resize.dart</title>
<path fill="Lavender" stroke="black" stroke-width="1.3" d="M1014.62,-140C1014.62,-140 927.38,-140 927.38,-140 921.38,-140 915.38,-134 915.38,-128 915.38,-128 915.38,-116 915.38,-116 915.38,-110 921.38,-104 927.38,-104 927.38,-104 1014.62,-104 1014.62,-104 1020.62,-104 1026.62,-110 1026.62,-116 1026.62,-116 1026.62,-128 1026.62,-128 1026.62,-134 1020.62,-140 1014.62,-140"/>
<text text-anchor="middle" x="971" y="-116.75" font-family="Arial" font-size="15.00">canvas_resize</text>
</g>
<!-- /test/models/canvas_resize_test.dart&#45;&gt;/lib/models/canvas_resize.dart -->
<g id="edge3" class="edge">
<title>/test/models/canvas_resize_test.dart&#45;&gt;/lib/models/canvas_resize.dart</title>
<path fill="none" stroke="#aabbaa" stroke-width="1.3" stroke-opacity="0.533333" d="M58.53,-745.61C44.78,-738.04 31.17,-727.69 23,-714 -4.38,-668.15 17,-647.4 17,-594 17,-594 17,-594 17,-284 17,-269.17 11.43,-261.4 22,-251 84.93,-189.09 696.67,-141.8 903.25,-127.49"/>
<polygon fill="#aabbaa" fill-opacity="0.533333" stroke="#aabbaa" stroke-width="1.3" stroke-opacity="0.533333" points="903.41,-130.99 913.15,-126.81 902.93,-124 903.41,-130.99"/>
</g>
<!-- /test/widget_test.dart -->
<g id="node4" class="node">
<title>/test/widget_test.dart</title>
<path fill="Lavender" stroke="black" stroke-width="1.3" d="M514.88,-782C514.88,-782 447.12,-782 447.12,-782 441.12,-782 435.12,-776 435.12,-770 435.12,-770 435.12,-758 435.12,-758 435.12,-752 441.12,-746 447.12,-746 447.12,-746 514.88,-746 514.88,-746 520.88,-746 526.88,-752 526.88,-758 526.88,-758 526.88,-770 526.88,-770 526.88,-776 520.88,-782 514.88,-782"/>
<text text-anchor="middle" x="481" y="-758.75" font-family="Arial" font-size="15.00">widget_test</text>
</g>
<!-- /lib/main.dart -->
<g id="node27" class="node">
<title>/lib/main.dart</title>
<path fill="Lavender" stroke="black" stroke-width="1.3" d="M496,-683C496,-683 466,-683 466,-683 460,-683 454,-677 454,-671 454,-671 454,-659 454,-659 454,-653 460,-647 466,-647 466,-647 496,-647 496,-647 502,-647 508,-653 508,-659 508,-659 508,-671 508,-671 508,-677 502,-683 496,-683"/>
<text text-anchor="middle" x="481" y="-659.75" font-family="Arial" font-size="15.00">main</text>
</g>
<!-- /test/widget_test.dart&#45;&gt;/lib/main.dart -->
<g id="edge4" class="edge">
<title>/test/widget_test.dart&#45;&gt;/lib/main.dart</title>
<path fill="none" stroke="#aabbaa" stroke-width="1.3" stroke-opacity="0.533333" d="M481,-745.66C481,-731.59 481,-711.45 481,-694.95"/>
<polygon fill="#aabbaa" fill-opacity="0.533333" stroke="#aabbaa" stroke-width="1.3" stroke-opacity="0.533333" points="484.5,-695.16 481,-685.16 477.5,-695.16 484.5,-695.16"/>
</g>
<!-- /test/file_xcf_test.dart -->
<g id="node5" class="node">
<title>/test/file_xcf_test.dart</title>
<path fill="Lavender" stroke="black" stroke-width="1.3" d="M628.75,-782C628.75,-782 557.25,-782 557.25,-782 551.25,-782 545.25,-776 545.25,-770 545.25,-770 545.25,-758 545.25,-758 545.25,-752 551.25,-746 557.25,-746 557.25,-746 628.75,-746 628.75,-746 634.75,-746 640.75,-752 640.75,-758 640.75,-758 640.75,-770 640.75,-770 640.75,-776 634.75,-782 628.75,-782"/>
<text text-anchor="middle" x="593" y="-758.75" font-family="Arial" font-size="15.00">file_xcf_test</text>
</g>
<!-- /lib/files/xcf_reader.dart -->
<g id="node28" class="node">
<title>/lib/files/xcf_reader.dart</title>
<path fill="Lavender" stroke="black" stroke-width="1.3" d="M298.62,-386C298.62,-386 235.38,-386 235.38,-386 229.38,-386 223.38,-380 223.38,-374 223.38,-374 223.38,-362 223.38,-362 223.38,-356 229.38,-350 235.38,-350 235.38,-350 298.62,-350 298.62,-350 304.62,-350 310.62,-356 310.62,-362 310.62,-362 310.62,-374 310.62,-374 310.62,-380 304.62,-386 298.62,-386"/>
<text text-anchor="middle" x="267" y="-362.75" font-family="Arial" font-size="15.00">xcf_reader</text>
</g>
<!-- /test/file_xcf_test.dart&#45;&gt;/lib/files/xcf_reader.dart -->
<g id="edge6" class="edge">
<title>/test/file_xcf_test.dart&#45;&gt;/lib/files/xcf_reader.dart</title>
<path fill="none" stroke="#aabbaa" stroke-width="1.3" stroke-opacity="0.533333" d="M610.87,-745.7C621.36,-736.76 635.39,-726.75 650,-722 669.47,-715.67 2109.26,-728.21 2124,-714 2162.42,-676.94 2129,-647.38 2129,-594 2129,-594 2129,-594 2129,-517 2129,-473.53 2077.94,-432.55 2062,-425 2018.24,-404.28 364.05,-434.73 319,-417 307.17,-412.34 296.4,-403.61 287.78,-394.85"/>
<polygon fill="#aabbaa" fill-opacity="0.533333" stroke="#aabbaa" stroke-width="1.3" stroke-opacity="0.533333" points="290.56,-392.71 281.23,-387.69 285.39,-397.43 290.56,-392.71"/>
</g>
<!-- /lib/files/assets_helper.dart -->
<g id="node29" class="node">
<title>/lib/files/assets_helper.dart</title>
<path fill="Lavender" stroke="black" stroke-width="1.3" d="M193.5,-386C193.5,-386 108.5,-386 108.5,-386 102.5,-386 96.5,-380 96.5,-374 96.5,-374 96.5,-362 96.5,-362 96.5,-356 102.5,-350 108.5,-350 108.5,-350 193.5,-350 193.5,-350 199.5,-350 205.5,-356 205.5,-362 205.5,-362 205.5,-374 205.5,-374 205.5,-380 199.5,-386 193.5,-386"/>
<text text-anchor="middle" x="151" y="-362.75" font-family="Arial" font-size="15.00">assets_helper</text>
</g>
<!-- /test/file_xcf_test.dart&#45;&gt;/lib/files/assets_helper.dart -->
<g id="edge5" class="edge">
<title>/test/file_xcf_test.dart&#45;&gt;/lib/files/assets_helper.dart</title>
<path fill="none" stroke="#aabbaa" stroke-width="1.3" stroke-opacity="0.533333" d="M574.86,-745.55C564.39,-736.69 550.46,-726.8 536,-722 524.03,-718.03 91.03,-722.81 82,-714 62.9,-695.36 77,-620.69 77,-594 77,-594 77,-594 77,-517 77,-470.49 106.6,-423.61 128.36,-395.43"/>
<polygon fill="#aabbaa" fill-opacity="0.533333" stroke="#aabbaa" stroke-width="1.3" stroke-opacity="0.533333" points="130.94,-397.81 134.44,-387.81 125.47,-393.45 130.94,-397.81"/>
</g>
<!-- /test/layers_test.dart -->
<g id="node6" class="node">
<title>/test/layers_test.dart</title>
<path fill="Lavender" stroke="black" stroke-width="1.3" d="M271.38,-782C271.38,-782 206.62,-782 206.62,-782 200.62,-782 194.62,-776 194.62,-770 194.62,-770 194.62,-758 194.62,-758 194.62,-752 200.62,-746 206.62,-746 206.62,-746 271.38,-746 271.38,-746 277.38,-746 283.38,-752 283.38,-758 283.38,-758 283.38,-770 283.38,-770 283.38,-776 277.38,-782 271.38,-782"/>
<text text-anchor="middle" x="239" y="-758.75" font-family="Arial" font-size="15.00">layers_test</text>
</g>
<!-- /lib/models/layer.dart -->
<g id="node26" class="node">
<title>/lib/models/layer.dart</title>
<path fill="Lavender" stroke="black" stroke-width="1.3" d="M1133,-303C1133,-303 1103,-303 1103,-303 1097,-303 1091,-297 1091,-291 1091,-291 1091,-279 1091,-279 1091,-273 1097,-267 1103,-267 1103,-267 1133,-267 1133,-267 1139,-267 1145,-273 1145,-279 1145,-279 1145,-291 1145,-291 1145,-297 1139,-303 1133,-303"/>
<text text-anchor="middle" x="1118" y="-279.75" font-family="Arial" font-size="15.00">layer</text>
</g>
<!-- /test/layers_test.dart&#45;&gt;/lib/models/layer.dart -->
<g id="edge7" class="edge">
<title>/test/layers_test.dart&#45;&gt;/lib/models/layer.dart</title>
<path fill="none" stroke="#aabbaa" stroke-width="1.3" stroke-opacity="0.533333" d="M222.79,-745.57C213.53,-736.83 201.15,-727.05 188,-722 173.35,-716.37 58.24,-724.95 47,-714 8.66,-676.66 37,-647.52 37,-594 37,-594 37,-594 37,-442 37,-392.89 42.67,-368.53 84,-342 103.15,-329.71 880.4,-336.6 903,-334 965.69,-326.78 1036.87,-308.93 1079.57,-297.15"/>
<polygon fill="#aabbaa" fill-opacity="0.533333" stroke="#aabbaa" stroke-width="1.3" stroke-opacity="0.533333" points="1080.24,-300.59 1088.93,-294.53 1078.36,-293.85 1080.24,-300.59"/>
</g>
<!-- /lib/panels/about.dart -->
<g id="node7" class="node">
<title>/lib/panels/about.dart</title>
<path fill="Lavender" stroke="black" stroke-width="1.3" d="M1339,-386C1339,-386 1309,-386 1309,-386 1303,-386 1297,-380 1297,-374 1297,-374 1297,-362 1297,-362 1297,-356 1303,-350 1309,-350 1309,-350 1339,-350 1339,-350 1345,-350 1351,-356 1351,-362 1351,-362 1351,-374 1351,-374 1351,-380 1345,-386 1339,-386"/>
<text text-anchor="middle" x="1324" y="-362.75" font-family="Arial" font-size="15.00">about</text>
</g>
<!-- /lib/panels/tools/tool_selector.dart -->
<g id="node8" class="node">
<title>/lib/panels/tools/tool_selector.dart</title>
<path fill="Lavender" stroke="black" stroke-width="1.3" d="M1858.38,-386C1858.38,-386 1781.62,-386 1781.62,-386 1775.62,-386 1769.62,-380 1769.62,-374 1769.62,-374 1769.62,-362 1769.62,-362 1769.62,-356 1775.62,-350 1781.62,-350 1781.62,-350 1858.38,-350 1858.38,-350 1864.38,-350 1870.38,-356 1870.38,-362 1870.38,-362 1870.38,-374 1870.38,-374 1870.38,-380 1864.38,-386 1858.38,-386"/>
<text text-anchor="middle" x="1820" y="-362.75" font-family="Arial" font-size="15.00">tool_selector</text>
</g>
<!-- /lib/panels/tools/tools_panel.dart -->
<g id="node10" class="node">
<title>/lib/panels/tools/tools_panel.dart</title>
<path fill="Lavender" stroke="black" stroke-width="1.3" d="M2037.88,-461C2037.88,-461 1970.12,-461 1970.12,-461 1964.12,-461 1958.12,-455 1958.12,-449 1958.12,-449 1958.12,-437 1958.12,-437 1958.12,-431 1964.12,-425 1970.12,-425 1970.12,-425 2037.88,-425 2037.88,-425 2043.88,-425 2049.88,-431 2049.88,-437 2049.88,-437 2049.88,-449 2049.88,-449 2049.88,-455 2043.88,-461 2037.88,-461"/>
<text text-anchor="middle" x="2004" y="-437.75" font-family="Arial" font-size="15.00">tools_panel</text>
</g>
<!-- /lib/panels/tools/tools_panel.dart&#45;&gt;/lib/panels/tools/tool_selector.dart -->
<g id="edge10" class="edge">
<title>/lib/panels/tools/tools_panel.dart&#45;&gt;/lib/panels/tools/tool_selector.dart</title>
<path fill="none" stroke="#aabbaa" stroke-width="1.3" stroke-opacity="0.533333" d="M1957.78,-438.16C1933.44,-434.82 1903.63,-428.6 1879,-417 1866.87,-411.29 1855.08,-402.55 1845.27,-394.09"/>
<polygon fill="#aabbaa" fill-opacity="0.533333" stroke="#aabbaa" stroke-width="1.3" stroke-opacity="0.533333" points="1847.74,-391.61 1837.98,-387.5 1843.04,-396.8 1847.74,-391.61"/>
</g>
<!-- /lib/panels/tools/tool_attributes_widget.dart -->
<g id="node11" class="node">
<title>/lib/panels/tools/tool_attributes_widget.dart</title>
<path fill="Lavender" stroke="black" stroke-width="1.3" d="M2037.75,-386C2037.75,-386 1900.25,-386 1900.25,-386 1894.25,-386 1888.25,-380 1888.25,-374 1888.25,-374 1888.25,-362 1888.25,-362 1888.25,-356 1894.25,-350 1900.25,-350 1900.25,-350 2037.75,-350 2037.75,-350 2043.75,-350 2049.75,-356 2049.75,-362 2049.75,-362 2049.75,-374 2049.75,-374 2049.75,-380 2043.75,-386 2037.75,-386"/>
<text text-anchor="middle" x="1969" y="-362.75" font-family="Arial" font-size="15.00">tool_attributes_widget</text>
</g>
<!-- /lib/panels/tools/tools_panel.dart&#45;&gt;/lib/panels/tools/tool_attributes_widget.dart -->
<g id="edge9" class="edge">
<title>/lib/panels/tools/tools_panel.dart&#45;&gt;/lib/panels/tools/tool_attributes_widget.dart</title>
<path fill="none" stroke="#aabbaa" stroke-width="1.3" stroke-opacity="0.533333" d="M1995.71,-424.7C1991.77,-416.49 1986.96,-406.46 1982.52,-397.19"/>
<polygon fill="#aabbaa" fill-opacity="0.533333" stroke="#aabbaa" stroke-width="1.3" stroke-opacity="0.533333" points="1985.69,-395.71 1978.21,-388.2 1979.37,-398.73 1985.69,-395.71"/>
</g>
<!-- /lib/panels/tools/tools_panel.dart&#45;&gt;/lib/models/app_model.dart -->
<g id="edge8" class="edge">
<title>/lib/panels/tools/tools_panel.dart&#45;&gt;/lib/models/app_model.dart</title>
<path fill="none" stroke="#aabbaa" stroke-width="1.3" stroke-opacity="0.533333" d="M1957.64,-435.69C1926.9,-431.81 1885.62,-427.17 1849,-425 1836.84,-424.28 980.57,-425.65 972,-417 945.81,-390.57 963.65,-277.85 974.02,-223.94"/>
<polygon fill="#aabbaa" fill-opacity="0.533333" stroke="#aabbaa" stroke-width="1.3" stroke-opacity="0.533333" points="977.4,-224.9 975.9,-214.41 970.53,-223.54 977.4,-224.9"/>
</g>
<!-- /lib/widgets/svg_icon.dart -->
<g id="node40" class="node">
<title>/lib/widgets/svg_icon.dart</title>
<path fill="Lavender" stroke="black" stroke-width="1.3" d="M3216.25,-303C3216.25,-303 3165.75,-303 3165.75,-303 3159.75,-303 3153.75,-297 3153.75,-291 3153.75,-291 3153.75,-279 3153.75,-279 3153.75,-273 3159.75,-267 3165.75,-267 3165.75,-267 3216.25,-267 3216.25,-267 3222.25,-267 3228.25,-273 3228.25,-279 3228.25,-279 3228.25,-291 3228.25,-291 3228.25,-297 3222.25,-303 3216.25,-303"/>
<text text-anchor="middle" x="3191" y="-279.75" font-family="Arial" font-size="15.00">svg_icon</text>
</g>
<!-- /lib/panels/tools/tools_panel.dart&#45;&gt;/lib/widgets/svg_icon.dart -->
<g id="edge13" class="edge">
<title>/lib/panels/tools/tools_panel.dart&#45;&gt;/lib/widgets/svg_icon.dart</title>
<path fill="none" stroke="#aabbaa" stroke-width="1.3" stroke-opacity="0.533333" d="M2050.25,-442.16C2155.68,-442.11 2421.82,-439.52 2643,-417 2671.12,-414.14 3120,-347.19 3145,-334 3154.94,-328.76 3163.97,-320.56 3171.35,-312.41"/>
<polygon fill="#aabbaa" fill-opacity="0.533333" stroke="#aabbaa" stroke-width="1.3" stroke-opacity="0.533333" points="3173.91,-314.81 3177.67,-304.9 3168.55,-310.3 3173.91,-314.81"/>
</g>
<!-- /lib/widgets/brush_size_picker.dart -->
<g id="node43" class="node">
<title>/lib/widgets/brush_size_picker.dart</title>
<path fill="Lavender" stroke="black" stroke-width="1.3" d="M3370,-303C3370,-303 3258,-303 3258,-303 3252,-303 3246,-297 3246,-291 3246,-291 3246,-279 3246,-279 3246,-273 3252,-267 3258,-267 3258,-267 3370,-267 3370,-267 3376,-267 3382,-273 3382,-279 3382,-279 3382,-291 3382,-291 3382,-297 3376,-303 3370,-303"/>
<text text-anchor="middle" x="3314" y="-279.75" font-family="Arial" font-size="15.00">brush_size_picker</text>
</g>
<!-- /lib/panels/tools/tools_panel.dart&#45;&gt;/lib/widgets/brush_size_picker.dart -->
<g id="edge11" class="edge">
<title>/lib/panels/tools/tools_panel.dart&#45;&gt;/lib/widgets/brush_size_picker.dart</title>
<path fill="none" stroke="#aabbaa" stroke-width="1.3" stroke-opacity="0.533333" d="M2050.19,-441.91C2207.09,-441.41 2718.87,-438.17 2882,-417 3042.68,-396.14 3087.35,-396.14 3237,-334 3252.04,-327.76 3267.49,-318.73 3280.56,-310.18"/>
<polygon fill="#aabbaa" fill-opacity="0.533333" stroke="#aabbaa" stroke-width="1.3" stroke-opacity="0.533333" points="3282.52,-313.09 3288.85,-304.6 3278.6,-307.28 3282.52,-313.09"/>
</g>
<!-- /lib/widgets/tolerance_picker.dart -->
<g id="node45" class="node">
<title>/lib/widgets/tolerance_picker.dart</title>
<path fill="Lavender" stroke="black" stroke-width="1.3" d="M2906.75,-303C2906.75,-303 2805.25,-303 2805.25,-303 2799.25,-303 2793.25,-297 2793.25,-291 2793.25,-291 2793.25,-279 2793.25,-279 2793.25,-273 2799.25,-267 2805.25,-267 2805.25,-267 2906.75,-267 2906.75,-267 2912.75,-267 2918.75,-273 2918.75,-279 2918.75,-279 2918.75,-291 2918.75,-291 2918.75,-297 2912.75,-303 2906.75,-303"/>
<text text-anchor="middle" x="2856" y="-279.75" font-family="Arial" font-size="15.00">tolerance_picker</text>
</g>
<!-- /lib/panels/tools/tools_panel.dart&#45;&gt;/lib/widgets/tolerance_picker.dart -->
<g id="edge14" class="edge">
<title>/lib/panels/tools/tools_panel.dart&#45;&gt;/lib/widgets/tolerance_picker.dart</title>
<path fill="none" stroke="#aabbaa" stroke-width="1.3" stroke-opacity="0.533333" d="M2050.18,-424.75C2053.41,-422.46 2056.4,-419.88 2059,-417 2082.51,-390.89 2055.61,-362.71 2084,-342 2099.71,-330.54 2765.42,-339.74 2784,-334 2799.63,-329.17 2814.99,-319.76 2827.48,-310.55"/>
<polygon fill="#aabbaa" fill-opacity="0.533333" stroke="#aabbaa" stroke-width="1.3" stroke-opacity="0.533333" points="2829.53,-313.39 2835.28,-304.5 2825.23,-307.86 2829.53,-313.39"/>
</g>
<!-- /lib/widgets/top_colors.dart -->
<g id="node48" class="node">
<title>/lib/widgets/top_colors.dart</title>
<path fill="Lavender" stroke="black" stroke-width="1.3" d="M3009.5,-303C3009.5,-303 2948.5,-303 2948.5,-303 2942.5,-303 2936.5,-297 2936.5,-291 2936.5,-291 2936.5,-279 2936.5,-279 2936.5,-273 2942.5,-267 2948.5,-267 2948.5,-267 3009.5,-267 3009.5,-267 3015.5,-267 3021.5,-273 3021.5,-279 3021.5,-279 3021.5,-291 3021.5,-291 3021.5,-297 3015.5,-303 3009.5,-303"/>
<text text-anchor="middle" x="2979" y="-279.75" font-family="Arial" font-size="15.00">top_colors</text>
</g>
<!-- /lib/panels/tools/tools_panel.dart&#45;&gt;/lib/widgets/top_colors.dart -->
<g id="edge15" class="edge">
<title>/lib/panels/tools/tools_panel.dart&#45;&gt;/lib/widgets/top_colors.dart</title>
<path fill="none" stroke="#aabbaa" stroke-width="1.3" stroke-opacity="0.533333" d="M2050.01,-432.06C2150.14,-410.92 2395.58,-361.84 2604,-342 2639.85,-338.59 2894.69,-347.69 2928,-334 2939.52,-329.27 2949.98,-320.64 2958.4,-311.99"/>
<polygon fill="#aabbaa" fill-opacity="0.533333" stroke="#aabbaa" stroke-width="1.3" stroke-opacity="0.533333" points="2960.97,-314.36 2965.06,-304.59 2955.76,-309.68 2960.97,-314.36"/>
</g>
<!-- /lib/widgets/color_picker.dart -->
<g id="node51" class="node">
<title>/lib/widgets/color_picker.dart</title>
<path fill="Lavender" stroke="black" stroke-width="1.3" d="M3124.12,-303C3124.12,-303 3051.88,-303 3051.88,-303 3045.88,-303 3039.88,-297 3039.88,-291 3039.88,-291 3039.88,-279 3039.88,-279 3039.88,-273 3045.88,-267 3051.88,-267 3051.88,-267 3124.12,-267 3124.12,-267 3130.12,-267 3136.12,-273 3136.12,-279 3136.12,-279 3136.12,-291 3136.12,-291 3136.12,-297 3130.12,-303 3124.12,-303"/>
<text text-anchor="middle" x="3088" y="-279.75" font-family="Arial" font-size="15.00">color_picker</text>
</g>
<!-- /lib/panels/tools/tools_panel.dart&#45;&gt;/lib/widgets/color_picker.dart -->
<g id="edge12" class="edge">
<title>/lib/panels/tools/tools_panel.dart&#45;&gt;/lib/widgets/color_picker.dart</title>
<path fill="none" stroke="#aabbaa" stroke-width="1.3" stroke-opacity="0.533333" d="M2050.31,-439.89C2119.86,-436.49 2255.34,-428.94 2370,-417 2608.81,-392.14 2666.13,-366.29 2905,-342 2932.91,-339.16 3004.96,-344.45 3031,-334 3043.37,-329.03 3055.02,-320.29 3064.53,-311.61"/>
<polygon fill="#aabbaa" fill-opacity="0.533333" stroke="#aabbaa" stroke-width="1.3" stroke-opacity="0.533333" points="3066.79,-314.29 3071.52,-304.8 3061.91,-309.27 3066.79,-314.29"/>
</g>
<!-- /lib/helpers/color_helper.dart -->
<g id="node39" class="node">
<title>/lib/helpers/color_helper.dart</title>
<path fill="Lavender" stroke="black" stroke-width="1.3" d="M1274.88,-140C1274.88,-140 1201.12,-140 1201.12,-140 1195.12,-140 1189.12,-134 1189.12,-128 1189.12,-128 1189.12,-116 1189.12,-116 1189.12,-110 1195.12,-104 1201.12,-104 1201.12,-104 1274.88,-104 1274.88,-104 1280.88,-104 1286.88,-110 1286.88,-116 1286.88,-116 1286.88,-128 1286.88,-128 1286.88,-134 1280.88,-140 1274.88,-140"/>
<text text-anchor="middle" x="1238" y="-116.75" font-family="Arial" font-size="15.00">color_helper</text>
</g>
<!-- /lib/panels/tools/tool_attributes_widget.dart&#45;&gt;/lib/helpers/color_helper.dart -->
<g id="edge16" class="edge">
<title>/lib/panels/tools/tool_attributes_widget.dart&#45;&gt;/lib/helpers/color_helper.dart</title>
<path fill="none" stroke="#aabbaa" stroke-width="1.3" stroke-opacity="0.533333" d="M1914.74,-349.58C1903.06,-346.49 1890.71,-343.72 1879,-342 1837,-335.83 1536.33,-349.97 1497,-334 1446.89,-313.65 1362.74,-199.81 1319,-168 1308.24,-160.18 1295.98,-152.71 1284.32,-146.19"/>
<polygon fill="#aabbaa" fill-opacity="0.533333" stroke="#aabbaa" stroke-width="1.3" stroke-opacity="0.533333" points="1286.01,-143.13 1275.55,-141.42 1282.67,-149.28 1286.01,-143.13"/>
</g>
<!-- /lib/widgets/transparent_background.dart -->
<g id="node44" class="node">
<title>/lib/widgets/transparent_background.dart</title>
<path fill="Lavender" stroke="black" stroke-width="1.3" d="M2248.38,-212C2248.38,-212 2093.62,-212 2093.62,-212 2087.62,-212 2081.62,-206 2081.62,-200 2081.62,-200 2081.62,-188 2081.62,-188 2081.62,-182 2087.62,-176 2093.62,-176 2093.62,-176 2248.38,-176 2248.38,-176 2254.38,-176 2260.38,-182 2260.38,-188 2260.38,-188 2260.38,-200 2260.38,-200 2260.38,-206 2254.38,-212 2248.38,-212"/>
<text text-anchor="middle" x="2171" y="-188.75" font-family="Arial" font-size="15.00">transparent_background</text>
</g>
<!-- /lib/panels/tools/tool_attributes_widget.dart&#45;&gt;/lib/widgets/transparent_background.dart -->
<g id="edge17" class="edge">
<title>/lib/panels/tools/tool_attributes_widget.dart&#45;&gt;/lib/widgets/transparent_background.dart</title>
<path fill="none" stroke="#aabbaa" stroke-width="1.3" stroke-opacity="0.533333" d="M1993.47,-349.53C1999.47,-344.78 2005.69,-339.44 2011,-334 2043.16,-301.05 2038.51,-281.51 2073,-251 2087.45,-238.22 2105.28,-226.99 2121.75,-218"/>
<polygon fill="#aabbaa" fill-opacity="0.533333" stroke="#aabbaa" stroke-width="1.3" stroke-opacity="0.533333" points="2123.37,-221.11 2130.58,-213.35 2120.11,-214.91 2123.37,-221.11"/>
</g>
<!-- /lib/panels/canvas_panel.dart -->
<g id="node12" class="node">
<title>/lib/panels/canvas_panel.dart</title>
<path fill="Lavender" stroke="black" stroke-width="1.3" d="M1945.75,-303C1945.75,-303 1862.25,-303 1862.25,-303 1856.25,-303 1850.25,-297 1850.25,-291 1850.25,-291 1850.25,-279 1850.25,-279 1850.25,-273 1856.25,-267 1862.25,-267 1862.25,-267 1945.75,-267 1945.75,-267 1951.75,-267 1957.75,-273 1957.75,-279 1957.75,-279 1957.75,-291 1957.75,-291 1957.75,-297 1951.75,-303 1945.75,-303"/>
<text text-anchor="middle" x="1904" y="-279.75" font-family="Arial" font-size="15.00">canvas_panel</text>
</g>
<!-- /lib/panels/canvas_panel.dart&#45;&gt;/lib/models/app_model.dart -->
<g id="edge18" class="edge">
<title>/lib/panels/canvas_panel.dart&#45;&gt;/lib/models/app_model.dart</title>
<path fill="none" stroke="#aabbaa" stroke-width="1.3" stroke-opacity="0.533333" d="M1850.05,-268.95C1822.7,-262.05 1788.84,-254.62 1758,-251 1719.15,-246.44 1091.44,-254.31 1054,-243 1037.88,-238.13 1021.95,-228.59 1009.03,-219.28"/>
<polygon fill="#aabbaa" fill-opacity="0.533333" stroke="#aabbaa" stroke-width="1.3" stroke-opacity="0.533333" points="1011.44,-216.72 1001.35,-213.48 1007.22,-222.3 1011.44,-216.72"/>
</g>
<!-- /lib/panels/canvas_panel.dart&#45;&gt;/lib/widgets/transparent_background.dart -->
<g id="edge19" class="edge">
<title>/lib/panels/canvas_panel.dart&#45;&gt;/lib/widgets/transparent_background.dart</title>
<path fill="none" stroke="#aabbaa" stroke-width="1.3" stroke-opacity="0.533333" d="M1956.43,-266.52C1999.79,-252.07 2061.5,-231.5 2107.62,-216.13"/>
<polygon fill="#aabbaa" fill-opacity="0.533333" stroke="#aabbaa" stroke-width="1.3" stroke-opacity="0.533333" points="2108.44,-219.54 2116.82,-213.06 2106.23,-212.9 2108.44,-219.54"/>
</g>
<!-- /lib/panels/layers/tools_and_layers_panel.dart -->
<g id="node13" class="node">
<title>/lib/panels/layers/tools_and_layers_panel.dart</title>
<path fill="Lavender" stroke="black" stroke-width="1.3" d="M1669.38,-461C1669.38,-461 1520.62,-461 1520.62,-461 1514.62,-461 1508.62,-455 1508.62,-449 1508.62,-449 1508.62,-437 1508.62,-437 1508.62,-431 1514.62,-425 1520.62,-425 1520.62,-425 1669.38,-425 1669.38,-425 1675.38,-425 1681.38,-431 1681.38,-437 1681.38,-437 1681.38,-449 1681.38,-449 1681.38,-455 1675.38,-461 1669.38,-461"/>
<text text-anchor="middle" x="1595" y="-437.75" font-family="Arial" font-size="15.00">tools_and_layers_panel</text>
</g>
<!-- /lib/panels/layers/tools_and_layers_panel.dart&#45;&gt;/lib/panels/about.dart -->
<g id="edge24" class="edge">
<title>/lib/panels/layers/tools_and_layers_panel.dart&#45;&gt;/lib/panels/about.dart</title>
<path fill="none" stroke="#aabbaa" stroke-width="1.3" stroke-opacity="0.533333" d="M1508.15,-439.93C1451.94,-437.25 1384.79,-431.09 1360,-417 1351.34,-412.08 1344.13,-404.14 1338.49,-396.12"/>
<polygon fill="#aabbaa" fill-opacity="0.533333" stroke="#aabbaa" stroke-width="1.3" stroke-opacity="0.533333" points="1341.54,-394.4 1333.24,-387.8 1335.62,-398.13 1341.54,-394.4"/>
</g>
<!-- /lib/panels/layers/layer_selector.dart -->
<g id="node14" class="node">
<title>/lib/panels/layers/layer_selector.dart</title>
<path fill="Lavender" stroke="black" stroke-width="1.3" d="M1682.5,-386C1682.5,-386 1597.5,-386 1597.5,-386 1591.5,-386 1585.5,-380 1585.5,-374 1585.5,-374 1585.5,-362 1585.5,-362 1585.5,-356 1591.5,-350 1597.5,-350 1597.5,-350 1682.5,-350 1682.5,-350 1688.5,-350 1694.5,-356 1694.5,-362 1694.5,-362 1694.5,-374 1694.5,-374 1694.5,-380 1688.5,-386 1682.5,-386"/>
<text text-anchor="middle" x="1640" y="-362.75" font-family="Arial" font-size="15.00">layer_selector</text>
</g>
<!-- /lib/panels/layers/tools_and_layers_panel.dart&#45;&gt;/lib/panels/layers/layer_selector.dart -->
<g id="edge26" class="edge">
<title>/lib/panels/layers/tools_and_layers_panel.dart&#45;&gt;/lib/panels/layers/layer_selector.dart</title>
<path fill="none" stroke="#aabbaa" stroke-width="1.3" stroke-opacity="0.533333" d="M1605.66,-424.7C1610.84,-416.31 1617.18,-406.02 1623,-396.58"/>
<polygon fill="#aabbaa" fill-opacity="0.533333" stroke="#aabbaa" stroke-width="1.3" stroke-opacity="0.533333" points="1625.96,-398.45 1628.22,-388.1 1620,-394.78 1625.96,-398.45"/>
</g>
<!-- /lib/panels/share_panel.dart -->
<g id="node18" class="node">
<title>/lib/panels/share_panel.dart</title>
<path fill="Lavender" stroke="black" stroke-width="1.3" d="M1266.88,-386C1266.88,-386 1193.12,-386 1193.12,-386 1187.12,-386 1181.12,-380 1181.12,-374 1181.12,-374 1181.12,-362 1181.12,-362 1181.12,-356 1187.12,-350 1193.12,-350 1193.12,-350 1266.88,-350 1266.88,-350 1272.88,-350 1278.88,-356 1278.88,-362 1278.88,-362 1278.88,-374 1278.88,-374 1278.88,-380 1272.88,-386 1266.88,-386"/>
<text text-anchor="middle" x="1230" y="-362.75" font-family="Arial" font-size="15.00">share_panel</text>
</g>
<!-- /lib/panels/layers/tools_and_layers_panel.dart&#45;&gt;/lib/panels/share_panel.dart -->
<g id="edge27" class="edge">
<title>/lib/panels/layers/tools_and_layers_panel.dart&#45;&gt;/lib/panels/share_panel.dart</title>
<path fill="none" stroke="#aabbaa" stroke-width="1.3" stroke-opacity="0.533333" d="M1508.38,-440.72C1431.85,-438.54 1326.58,-432.69 1288,-417 1275.52,-411.92 1263.69,-403.16 1254.01,-394.49"/>
<polygon fill="#aabbaa" fill-opacity="0.533333" stroke="#aabbaa" stroke-width="1.3" stroke-opacity="0.533333" points="1256.52,-392.05 1246.86,-387.69 1251.69,-397.12 1256.52,-392.05"/>
</g>
<!-- /lib/panels/canvas_settings.dart -->
<g id="node19" class="node">
<title>/lib/panels/canvas_settings.dart</title>
<path fill="Lavender" stroke="black" stroke-width="1.3" d="M1480.62,-386C1480.62,-386 1381.38,-386 1381.38,-386 1375.38,-386 1369.38,-380 1369.38,-374 1369.38,-374 1369.38,-362 1369.38,-362 1369.38,-356 1375.38,-350 1381.38,-350 1381.38,-350 1480.62,-350 1480.62,-350 1486.62,-350 1492.62,-356 1492.62,-362 1492.62,-362 1492.62,-374 1492.62,-374 1492.62,-380 1486.62,-386 1480.62,-386"/>
<text text-anchor="middle" x="1431" y="-362.75" font-family="Arial" font-size="15.00">canvas_settings</text>
</g>
<!-- /lib/panels/layers/tools_and_layers_panel.dart&#45;&gt;/lib/panels/canvas_settings.dart -->
<g id="edge25" class="edge">
<title>/lib/panels/layers/tools_and_layers_panel.dart&#45;&gt;/lib/panels/canvas_settings.dart</title>
<path fill="none" stroke="#aabbaa" stroke-width="1.3" stroke-opacity="0.533333" d="M1515.72,-424.57C1509.28,-422.32 1502.96,-419.8 1497,-417 1483.91,-410.85 1470.76,-401.97 1459.69,-393.52"/>
<polygon fill="#aabbaa" fill-opacity="0.533333" stroke="#aabbaa" stroke-width="1.3" stroke-opacity="0.533333" points="1462.1,-390.96 1452.08,-387.5 1457.75,-396.45 1462.1,-390.96"/>
</g>
<!-- /lib/models/menu_model.dart -->
<g id="node20" class="node">
<title>/lib/models/menu_model.dart</title>
<path fill="Lavender" stroke="black" stroke-width="1.3" d="M1071.12,-386C1071.12,-386 992.88,-386 992.88,-386 986.88,-386 980.88,-380 980.88,-374 980.88,-374 980.88,-362 980.88,-362 980.88,-356 986.88,-350 992.88,-350 992.88,-350 1071.12,-350 1071.12,-350 1077.12,-350 1083.12,-356 1083.12,-362 1083.12,-362 1083.12,-374 1083.12,-374 1083.12,-380 1077.12,-386 1071.12,-386"/>
<text text-anchor="middle" x="1032" y="-362.75" font-family="Arial" font-size="15.00">menu_model</text>
</g>
<!-- /lib/panels/layers/tools_and_layers_panel.dart&#45;&gt;/lib/models/menu_model.dart -->
<g id="edge23" class="edge">
<title>/lib/panels/layers/tools_and_layers_panel.dart&#45;&gt;/lib/models/menu_model.dart</title>
<path fill="none" stroke="#aabbaa" stroke-width="1.3" stroke-opacity="0.533333" d="M1508.3,-440.59C1374.66,-437.98 1129.74,-431.3 1092,-417 1078.82,-412.01 1066.3,-402.96 1056.14,-394.05"/>
<polygon fill="#aabbaa" fill-opacity="0.533333" stroke="#aabbaa" stroke-width="1.3" stroke-opacity="0.533333" points="1058.67,-391.62 1048.96,-387.38 1053.9,-396.75 1058.67,-391.62"/>
</g>
<!-- /lib/panels/layers/tools_and_layers_panel.dart&#45;&gt;/lib/models/app_model.dart -->
<g id="edge22" class="edge">
<title>/lib/panels/layers/tools_and_layers_panel.dart&#45;&gt;/lib/models/app_model.dart</title>
<path fill="none" stroke="#aabbaa" stroke-width="1.3" stroke-opacity="0.533333" d="M1508.42,-441.74C1338.42,-440.81 975.79,-436.54 957,-417 906.63,-364.62 942.4,-269.85 965.14,-222.9"/>
<polygon fill="#aabbaa" fill-opacity="0.533333" stroke="#aabbaa" stroke-width="1.3" stroke-opacity="0.533333" points="968.21,-224.58 969.56,-214.07 961.95,-221.45 968.21,-224.58"/>
</g>
<!-- /lib/files/save.dart -->
<g id="node33" class="node">
<title>/lib/files/save.dart</title>
<path fill="Lavender" stroke="black" stroke-width="1.3" d="M879,-386C879,-386 849,-386 849,-386 843,-386 837,-380 837,-374 837,-374 837,-362 837,-362 837,-356 843,-350 849,-350 849,-350 879,-350 879,-350 885,-350 891,-356 891,-362 891,-362 891,-374 891,-374 891,-380 885,-386 879,-386"/>
<text text-anchor="middle" x="864" y="-362.75" font-family="Arial" font-size="15.00">save</text>
</g>
<!-- /lib/panels/layers/tools_and_layers_panel.dart&#45;&gt;/lib/files/save.dart -->
<g id="edge21" class="edge">
<title>/lib/panels/layers/tools_and_layers_panel.dart&#45;&gt;/lib/files/save.dart</title>
<path fill="none" stroke="#aabbaa" stroke-width="1.3" stroke-opacity="0.533333" d="M1508.34,-425.35C1507.22,-425.23 1506.11,-425.11 1505,-425 1488.36,-423.33 918.05,-424.29 903,-417 893.52,-412.41 885.58,-404.29 879.39,-396.02"/>
<polygon fill="#aabbaa" fill-opacity="0.533333" stroke="#aabbaa" stroke-width="1.3" stroke-opacity="0.533333" points="882.29,-394.07 873.82,-387.71 876.48,-397.97 882.29,-394.07"/>
</g>
<!-- /lib/files/import_files.dart -->
<g id="node35" class="node">
<title>/lib/files/import_files.dart</title>
<path fill="Lavender" stroke="black" stroke-width="1.3" d="M807.25,-386C807.25,-386 738.75,-386 738.75,-386 732.75,-386 726.75,-380 726.75,-374 726.75,-374 726.75,-362 726.75,-362 726.75,-356 732.75,-350 738.75,-350 738.75,-350 807.25,-350 807.25,-350 813.25,-350 819.25,-356 819.25,-362 819.25,-362 819.25,-374 819.25,-374 819.25,-380 813.25,-386 807.25,-386"/>
<text text-anchor="middle" x="773" y="-362.75" font-family="Arial" font-size="15.00">import_files</text>
</g>
<!-- /lib/panels/layers/tools_and_layers_panel.dart&#45;&gt;/lib/files/import_files.dart -->
<g id="edge20" class="edge">
<title>/lib/panels/layers/tools_and_layers_panel.dart&#45;&gt;/lib/files/import_files.dart</title>
<path fill="none" stroke="#aabbaa" stroke-width="1.3" stroke-opacity="0.533333" d="M1508.34,-425.35C1507.22,-425.23 1506.11,-425.11 1505,-425 1467.57,-421.27 863.14,-430.41 828,-417 815.62,-412.27 804.17,-403.4 794.97,-394.55"/>
<polygon fill="#aabbaa" fill-opacity="0.533333" stroke="#aabbaa" stroke-width="1.3" stroke-opacity="0.533333" points="797.72,-392.36 788.24,-387.63 792.7,-397.24 797.72,-392.36"/>
</g>
<!-- /lib/panels/layers/layer_thumbnail.dart -->
<g id="node15" class="node">
<title>/lib/panels/layers/layer_thumbnail.dart</title>
<path fill="Lavender" stroke="black" stroke-width="1.3" d="M1733.5,-303C1733.5,-303 1636.5,-303 1636.5,-303 1630.5,-303 1624.5,-297 1624.5,-291 1624.5,-291 1624.5,-279 1624.5,-279 1624.5,-273 1630.5,-267 1636.5,-267 1636.5,-267 1733.5,-267 1733.5,-267 1739.5,-267 1745.5,-273 1745.5,-279 1745.5,-279 1745.5,-291 1745.5,-291 1745.5,-297 1739.5,-303 1733.5,-303"/>
<text text-anchor="middle" x="1685" y="-279.75" font-family="Arial" font-size="15.00">layer_thumbnail</text>
</g>
<!-- /lib/panels/layers/layer_selector.dart&#45;&gt;/lib/panels/layers/layer_thumbnail.dart -->
<g id="edge30" class="edge">
<title>/lib/panels/layers/layer_selector.dart&#45;&gt;/lib/panels/layers/layer_thumbnail.dart</title>
<path fill="none" stroke="#aabbaa" stroke-width="1.3" stroke-opacity="0.533333" d="M1649.54,-349.82C1655.35,-339.37 1662.9,-325.77 1669.55,-313.81"/>
<polygon fill="#aabbaa" fill-opacity="0.533333" stroke="#aabbaa" stroke-width="1.3" stroke-opacity="0.533333" points="1672.56,-315.59 1674.36,-305.15 1666.44,-312.19 1672.56,-315.59"/>
</g>
<!-- /lib/panels/layers/blend_mode.dart -->
<g id="node16" class="node">
<title>/lib/panels/layers/blend_mode.dart</title>
<path fill="Lavender" stroke="black" stroke-width="1.3" d="M1594.88,-303C1594.88,-303 1521.12,-303 1521.12,-303 1515.12,-303 1509.12,-297 1509.12,-291 1509.12,-291 1509.12,-279 1509.12,-279 1509.12,-273 1515.12,-267 1521.12,-267 1521.12,-267 1594.88,-267 1594.88,-267 1600.88,-267 1606.88,-273 1606.88,-279 1606.88,-279 1606.88,-291 1606.88,-291 1606.88,-297 1600.88,-303 1594.88,-303"/>
<text text-anchor="middle" x="1558" y="-279.75" font-family="Arial" font-size="15.00">blend_mode</text>
</g>
<!-- /lib/panels/layers/layer_selector.dart&#45;&gt;/lib/panels/layers/blend_mode.dart -->
<g id="edge29" class="edge">
<title>/lib/panels/layers/layer_selector.dart&#45;&gt;/lib/panels/layers/blend_mode.dart</title>
<path fill="none" stroke="#aabbaa" stroke-width="1.3" stroke-opacity="0.533333" d="M1622.61,-349.82C1611.38,-338.73 1596.56,-324.09 1583.95,-311.64"/>
<polygon fill="#aabbaa" fill-opacity="0.533333" stroke="#aabbaa" stroke-width="1.3" stroke-opacity="0.533333" points="1586.62,-309.35 1577.05,-304.82 1581.7,-314.33 1586.62,-309.35"/>
</g>
<!-- /lib/panels/layers/layer_selector.dart&#45;&gt;/lib/models/app_model.dart -->
<g id="edge28" class="edge">
<title>/lib/panels/layers/layer_selector.dart&#45;&gt;/lib/models/app_model.dart</title>
<path fill="none" stroke="#aabbaa" stroke-width="1.3" stroke-opacity="0.533333" d="M1605.1,-349.58C1597.65,-346.53 1589.69,-343.78 1582,-342 1563.68,-337.77 1428.68,-344.37 1413,-334 1378.85,-311.4 1407.4,-273.21 1373,-251 1358.11,-241.38 1070.93,-248.24 1054,-243 1038.03,-238.06 1022.22,-228.6 1009.34,-219.38"/>
<polygon fill="#aabbaa" fill-opacity="0.533333" stroke="#aabbaa" stroke-width="1.3" stroke-opacity="0.533333" points="1011.79,-216.83 1001.69,-213.63 1007.58,-222.43 1011.79,-216.83"/>
</g>
<!-- /lib/widgets/truncated_text.dart -->
<g id="node41" class="node">
<title>/lib/widgets/truncated_text.dart</title>
<path fill="Lavender" stroke="black" stroke-width="1.3" d="M2635,-303C2635,-303 2547,-303 2547,-303 2541,-303 2535,-297 2535,-291 2535,-291 2535,-279 2535,-279 2535,-273 2541,-267 2547,-267 2547,-267 2635,-267 2635,-267 2641,-267 2647,-273 2647,-279 2647,-279 2647,-291 2647,-291 2647,-297 2641,-303 2635,-303"/>
<text text-anchor="middle" x="2591" y="-279.75" font-family="Arial" font-size="15.00">truncated_text</text>
</g>
<!-- /lib/panels/layers/layer_selector.dart&#45;&gt;/lib/widgets/truncated_text.dart -->
<g id="edge32" class="edge">
<title>/lib/panels/layers/layer_selector.dart&#45;&gt;/lib/widgets/truncated_text.dart</title>
<path fill="none" stroke="#aabbaa" stroke-width="1.3" stroke-opacity="0.533333" d="M1694.86,-353.02C1714.63,-348.61 1737.18,-344.29 1758,-342 1800.41,-337.33 2485.54,-347.55 2526,-334 2540.2,-329.24 2553.86,-320.11 2564.96,-311.08"/>
<polygon fill="#aabbaa" fill-opacity="0.533333" stroke="#aabbaa" stroke-width="1.3" stroke-opacity="0.533333" points="2567.22,-313.74 2572.51,-304.56 2562.65,-308.44 2567.22,-313.74"/>
</g>
<!-- /lib/widgets/container_slider.dart -->
<g id="node42" class="node">
<title>/lib/widgets/container_slider.dart</title>
<path fill="Lavender" stroke="black" stroke-width="1.3" d="M2504.5,-303C2504.5,-303 2407.5,-303 2407.5,-303 2401.5,-303 2395.5,-297 2395.5,-291 2395.5,-291 2395.5,-279 2395.5,-279 2395.5,-273 2401.5,-267 2407.5,-267 2407.5,-267 2504.5,-267 2504.5,-267 2510.5,-267 2516.5,-273 2516.5,-279 2516.5,-279 2516.5,-291 2516.5,-291 2516.5,-297 2510.5,-303 2504.5,-303"/>
<text text-anchor="middle" x="2456" y="-279.75" font-family="Arial" font-size="15.00">container_slider</text>
</g>
<!-- /lib/panels/layers/layer_selector.dart&#45;&gt;/lib/widgets/container_slider.dart -->
<g id="edge31" class="edge">
<title>/lib/panels/layers/layer_selector.dart&#45;&gt;/lib/widgets/container_slider.dart</title>
<path fill="none" stroke="#aabbaa" stroke-width="1.3" stroke-opacity="0.533333" d="M1694.87,-353.04C1714.63,-348.64 1737.19,-344.31 1758,-342 1792.73,-338.14 2353.72,-344.67 2387,-334 2401.98,-329.2 2416.58,-319.93 2428.47,-310.8"/>
<polygon fill="#aabbaa" fill-opacity="0.533333" stroke="#aabbaa" stroke-width="1.3" stroke-opacity="0.533333" points="2430.66,-313.53 2436.23,-304.51 2426.26,-308.09 2430.66,-313.53"/>
</g>
<!-- /lib/panels/layers/layer_thumbnail.dart&#45;&gt;/lib/models/app_model.dart -->
<g id="edge33" class="edge">
<title>/lib/panels/layers/layer_thumbnail.dart&#45;&gt;/lib/models/app_model.dart</title>
<path fill="none" stroke="#aabbaa" stroke-width="1.3" stroke-opacity="0.533333" d="M1655.81,-266.6C1643.89,-260.42 1629.7,-254.21 1616,-251 1555.2,-236.75 1113.76,-261.15 1054,-243 1037.89,-238.11 1021.96,-228.56 1009.04,-219.26"/>
<polygon fill="#aabbaa" fill-opacity="0.533333" stroke="#aabbaa" stroke-width="1.3" stroke-opacity="0.533333" points="1011.45,-216.69 1001.36,-213.46 1007.23,-222.28 1011.45,-216.69"/>
</g>
<!-- /lib/panels/layers/layer_thumbnail.dart&#45;&gt;/lib/widgets/transparent_background.dart -->
<g id="edge35" class="edge">
<title>/lib/panels/layers/layer_thumbnail.dart&#45;&gt;/lib/widgets/transparent_background.dart</title>
<path fill="none" stroke="#aabbaa" stroke-width="1.3" stroke-opacity="0.533333" d="M1714.21,-266.52C1725.1,-260.73 1737.79,-254.79 1750,-251 1855.93,-218.12 1982.73,-204.54 2069.3,-198.94"/>
<polygon fill="#aabbaa" fill-opacity="0.533333" stroke="#aabbaa" stroke-width="1.3" stroke-opacity="0.533333" points="2069.51,-202.43 2079.28,-198.32 2069.08,-195.45 2069.51,-202.43"/>
</g>
<!-- /lib/widgets/image_painter.dart -->
<g id="node46" class="node">
<title>/lib/widgets/image_painter.dart</title>
<path fill="Lavender" stroke="black" stroke-width="1.3" d="M2763.25,-303C2763.25,-303 2676.75,-303 2676.75,-303 2670.75,-303 2664.75,-297 2664.75,-291 2664.75,-291 2664.75,-279 2664.75,-279 2664.75,-273 2670.75,-267 2676.75,-267 2676.75,-267 2763.25,-267 2763.25,-267 2769.25,-267 2775.25,-273 2775.25,-279 2775.25,-279 2775.25,-291 2775.25,-291 2775.25,-297 2769.25,-303 2763.25,-303"/>
<text text-anchor="middle" x="2720" y="-279.75" font-family="Arial" font-size="15.00">image_painter</text>
</g>
<!-- /lib/panels/layers/layer_thumbnail.dart&#45;&gt;/lib/widgets/image_painter.dart -->
<g id="edge34" class="edge">
<title>/lib/panels/layers/layer_thumbnail.dart&#45;&gt;/lib/widgets/image_painter.dart</title>
<path fill="none" stroke="#aabbaa" stroke-width="1.3" stroke-opacity="0.533333" d="M1701.75,-303.29C1715.54,-316.65 1736.43,-333.21 1759,-338 1783.13,-343.12 2622.87,-343.12 2647,-338 2665,-334.18 2681.85,-322.7 2694.82,-311.4"/>
<polygon fill="#aabbaa" fill-opacity="0.533333" stroke="#aabbaa" stroke-width="1.3" stroke-opacity="0.533333" points="2697.14,-314.02 2702.1,-304.66 2692.38,-308.89 2697.14,-314.02"/>
</g>
<!-- /lib/panels/side_panel.dart -->
<g id="node17" class="node">
<title>/lib/panels/side_panel.dart</title>
<path fill="Lavender" stroke="black" stroke-width="1.3" d="M1626.62,-536C1626.62,-536 1563.38,-536 1563.38,-536 1557.38,-536 1551.38,-530 1551.38,-524 1551.38,-524 1551.38,-512 1551.38,-512 1551.38,-506 1557.38,-500 1563.38,-500 1563.38,-500 1626.62,-500 1626.62,-500 1632.62,-500 1638.62,-506 1638.62,-512 1638.62,-512 1638.62,-524 1638.62,-524 1638.62,-530 1632.62,-536 1626.62,-536"/>
<text text-anchor="middle" x="1595" y="-512.75" font-family="Arial" font-size="15.00">side_panel</text>
</g>
<!-- /lib/panels/side_panel.dart&#45;&gt;/lib/panels/tools/tools_panel.dart -->
<g id="edge38" class="edge">
<title>/lib/panels/side_panel.dart&#45;&gt;/lib/panels/tools/tools_panel.dart</title>
<path fill="none" stroke="#aabbaa" stroke-width="1.3" stroke-opacity="0.533333" d="M1639.06,-500.83C1640.38,-500.53 1641.7,-500.25 1643,-500 1732.98,-482.73 1758.69,-507.46 1849,-492 1882.34,-486.29 1918.5,-475.38 1947.5,-465.4"/>
<polygon fill="#aabbaa" fill-opacity="0.533333" stroke="#aabbaa" stroke-width="1.3" stroke-opacity="0.533333" points="1948.51,-468.76 1956.79,-462.14 1946.2,-462.15 1948.51,-468.76"/>
</g>
<!-- /lib/panels/side_panel.dart&#45;&gt;/lib/panels/layers/tools_and_layers_panel.dart -->
<g id="edge37" class="edge">
<title>/lib/panels/side_panel.dart&#45;&gt;/lib/panels/layers/tools_and_layers_panel.dart</title>
<path fill="none" stroke="#aabbaa" stroke-width="1.3" stroke-opacity="0.533333" d="M1595,-499.7C1595,-491.76 1595,-482.12 1595,-473.11"/>
<polygon fill="#aabbaa" fill-opacity="0.533333" stroke="#aabbaa" stroke-width="1.3" stroke-opacity="0.533333" points="1598.5,-473.4 1595,-463.4 1591.5,-473.4 1598.5,-473.4"/>
</g>
<!-- /lib/panels/side_panel.dart&#45;&gt;/lib/models/app_model.dart -->
<g id="edge36" class="edge">
<title>/lib/panels/side_panel.dart&#45;&gt;/lib/models/app_model.dart</title>
<path fill="none" stroke="#aabbaa" stroke-width="1.3" stroke-opacity="0.533333" d="M1550.9,-501C1549.59,-500.64 1548.29,-500.31 1547,-500 1411.87,-467.4 1018.54,-521.61 927,-417 922.48,-411.83 924.21,-260.49 928,-251 932.54,-239.63 940.56,-229.19 948.96,-220.47"/>
<polygon fill="#aabbaa" fill-opacity="0.533333" stroke="#aabbaa" stroke-width="1.3" stroke-opacity="0.533333" points="951.18,-223.19 955.96,-213.73 946.33,-218.15 951.18,-223.19"/>
</g>
<!-- /lib/panels/share_panel.dart&#45;&gt;/lib/panels/canvas_panel.dart -->
<g id="edge40" class="edge">
<title>/lib/panels/share_panel.dart&#45;&gt;/lib/panels/canvas_panel.dart</title>
<path fill="none" stroke="#aabbaa" stroke-width="1.3" stroke-opacity="0.533333" d="M1264.54,-349.52C1272.1,-346.44 1280.17,-343.68 1288,-342 1339.06,-331.01 1706.5,-342.7 1758,-334 1789.79,-328.63 1824.11,-317.63 1851.47,-307.52"/>
<polygon fill="#aabbaa" fill-opacity="0.533333" stroke="#aabbaa" stroke-width="1.3" stroke-opacity="0.533333" points="1852.41,-310.91 1860.52,-304.1 1849.93,-304.36 1852.41,-310.91"/>
</g>
<!-- /lib/panels/share_panel.dart&#45;&gt;/lib/models/app_model.dart -->
<g id="edge39" class="edge">
<title>/lib/panels/share_panel.dart&#45;&gt;/lib/models/app_model.dart</title>
<path fill="none" stroke="#aabbaa" stroke-width="1.3" stroke-opacity="0.533333" d="M1224.23,-349.56C1214.45,-323.09 1191.9,-273.48 1154,-251 1134.83,-239.63 1075.11,-250.17 1054,-243 1038.44,-237.71 1022.92,-228.42 1010.15,-219.42"/>
<polygon fill="#aabbaa" fill-opacity="0.533333" stroke="#aabbaa" stroke-width="1.3" stroke-opacity="0.533333" points="1012.25,-216.62 1002.12,-213.5 1008.1,-222.25 1012.25,-216.62"/>
</g>
<!-- /lib/panels/canvas_settings.dart&#45;&gt;/lib/models/app_model.dart -->
<g id="edge41" class="edge">
<title>/lib/panels/canvas_settings.dart&#45;&gt;/lib/models/app_model.dart</title>
<path fill="none" stroke="#aabbaa" stroke-width="1.3" stroke-opacity="0.533333" d="M1398.99,-349.58C1343.97,-319.99 1233.33,-262 1191,-251 1131.97,-235.66 1111.96,-262.01 1054,-243 1038.39,-237.88 1022.86,-228.62 1010.09,-219.59"/>
<polygon fill="#aabbaa" fill-opacity="0.533333" stroke="#aabbaa" stroke-width="1.3" stroke-opacity="0.533333" points="1012.19,-216.79 1002.07,-213.65 1008.02,-222.41 1012.19,-216.79"/>
</g>
<!-- /lib/widgets/nine_grid_selector.dart -->
<g id="node50" class="node">
<title>/lib/widgets/nine_grid_selector.dart</title>
<path fill="Lavender" stroke="black" stroke-width="1.3" d="M2365.75,-303C2365.75,-303 2252.25,-303 2252.25,-303 2246.25,-303 2240.25,-297 2240.25,-291 2240.25,-291 2240.25,-279 2240.25,-279 2240.25,-273 2246.25,-267 2252.25,-267 2252.25,-267 2365.75,-267 2365.75,-267 2371.75,-267 2377.75,-273 2377.75,-279 2377.75,-279 2377.75,-291 2377.75,-291 2377.75,-297 2371.75,-303 2365.75,-303"/>
<text text-anchor="middle" x="2309" y="-279.75" font-family="Arial" font-size="15.00">nine_grid_selector</text>
</g>
<!-- /lib/panels/canvas_settings.dart&#45;&gt;/lib/widgets/nine_grid_selector.dart -->
<g id="edge42" class="edge">
<title>/lib/panels/canvas_settings.dart&#45;&gt;/lib/widgets/nine_grid_selector.dart</title>
<path fill="none" stroke="#aabbaa" stroke-width="1.3" stroke-opacity="0.533333" d="M1470.13,-349.61C1478.82,-346.48 1488.09,-343.68 1497,-342 1537.07,-334.44 2191.82,-345.32 2231,-334 2247.96,-329.1 2264.89,-319.42 2278.61,-310.03"/>
<polygon fill="#aabbaa" fill-opacity="0.533333" stroke="#aabbaa" stroke-width="1.3" stroke-opacity="0.533333" points="2280.3,-313.12 2286.4,-304.46 2276.23,-307.43 2280.3,-313.12"/>
</g>
<!-- /lib/models/layers.dart -->
<g id="node21" class="node">
<title>/lib/models/layers.dart</title>
<path fill="Lavender" stroke="black" stroke-width="1.3" d="M1144.88,-386C1144.88,-386 1113.12,-386 1113.12,-386 1107.12,-386 1101.12,-380 1101.12,-374 1101.12,-374 1101.12,-362 1101.12,-362 1101.12,-356 1107.12,-350 1113.12,-350 1113.12,-350 1144.88,-350 1144.88,-350 1150.88,-350 1156.88,-356 1156.88,-362 1156.88,-362 1156.88,-374 1156.88,-374 1156.88,-380 1150.88,-386 1144.88,-386"/>
<text text-anchor="middle" x="1129" y="-362.75" font-family="Arial" font-size="15.00">layers</text>
</g>
<!-- /lib/models/layers.dart&#45;&gt;/lib/models/layer.dart -->
<g id="edge45" class="edge">
<title>/lib/models/layers.dart&#45;&gt;/lib/models/layer.dart</title>
<path fill="none" stroke="#aabbaa" stroke-width="1.3" stroke-opacity="0.533333" d="M1121.03,-349.82C1118.59,-339.8 1116.54,-326.88 1115.46,-315.29"/>
<polygon fill="#aabbaa" fill-opacity="0.533333" stroke="#aabbaa" stroke-width="1.3" stroke-opacity="0.533333" points="1118.96,-315.15 1114.83,-305.4 1111.98,-315.6 1118.96,-315.15"/>
</g>
<!-- /lib/models/layers.dart&#45;&gt;/lib/models/layer.dart -->
<g id="edge46" class="edge">
<title>/lib/models/layers.dart&#45;&gt;/lib/models/layer.dart</title>
<path fill="none" stroke="#aabbaa" stroke-width="1.3" stroke-dasharray="5,2" stroke-opacity="0.533333" d="M1132.3,-349.82C1132.02,-339.69 1130.53,-326.6 1128.43,-314.92"/>
<polygon fill="#aabbaa" fill-opacity="0.533333" stroke="#aabbaa" stroke-width="1.3" stroke-opacity="0.533333" points="1131.9,-314.43 1126.43,-305.36 1125.05,-315.86 1131.9,-314.43"/>
</g>
<!-- /lib/helpers/list_helper.dart -->
<g id="node38" class="node">
<title>/lib/helpers/list_helper.dart</title>
<path fill="Lavender" stroke="black" stroke-width="1.3" d="M1267.75,-68C1267.75,-68 1208.25,-68 1208.25,-68 1202.25,-68 1196.25,-62 1196.25,-56 1196.25,-56 1196.25,-44 1196.25,-44 1196.25,-38 1202.25,-32 1208.25,-32 1208.25,-32 1267.75,-32 1267.75,-32 1273.75,-32 1279.75,-38 1279.75,-44 1279.75,-44 1279.75,-56 1279.75,-56 1279.75,-62 1273.75,-68 1267.75,-68"/>
<text text-anchor="middle" x="1238" y="-44.75" font-family="Arial" font-size="15.00">list_helper</text>
</g>
<!-- /lib/models/layers.dart&#45;&gt;/lib/helpers/list_helper.dart -->
<g id="edge44" class="edge">
<title>/lib/models/layers.dart&#45;&gt;/lib/helpers/list_helper.dart</title>
<path fill="none" stroke="#aabbaa" stroke-width="1.3" stroke-opacity="0.533333" d="M1152.08,-349.61C1157.38,-346.48 1163.18,-343.68 1169,-342 1183.85,-337.71 3383.09,-344.95 3394,-334 3446.07,-281.74 3444.21,-222.05 3394,-168 3320.2,-88.56 1618.27,-57.14 1291.86,-51.83"/>
<polygon fill="#aabbaa" fill-opacity="0.533333" stroke="#aabbaa" stroke-width="1.3" stroke-opacity="0.533333" points="1291.98,-48.33 1281.92,-51.67 1291.86,-55.33 1291.98,-48.33"/>
</g>
<!-- /lib/models/layers.dart&#45;&gt;/lib/helpers/color_helper.dart -->
<g id="edge43" class="edge">
<title>/lib/models/layers.dart&#45;&gt;/lib/helpers/color_helper.dart</title>
<path fill="none" stroke="#aabbaa" stroke-width="1.3" stroke-opacity="0.533333" d="M1155.42,-349.63C1204.18,-317.45 1303.77,-251.08 1308,-243 1323.47,-213.47 1323.97,-197.26 1308,-168 1303.52,-159.8 1296.84,-152.87 1289.35,-147.09"/>
<polygon fill="#aabbaa" fill-opacity="0.533333" stroke="#aabbaa" stroke-width="1.3" stroke-opacity="0.533333" points="1291.39,-144.25 1281.16,-141.49 1287.44,-150.02 1291.39,-144.25"/>
</g>
<!-- /lib/models/user_action.dart -->
<g id="node22" class="node">
<title>/lib/models/user_action.dart</title>
<path fill="Lavender" stroke="black" stroke-width="1.3" d="M1144.62,-212C1144.62,-212 1075.38,-212 1075.38,-212 1069.38,-212 1063.38,-206 1063.38,-200 1063.38,-200 1063.38,-188 1063.38,-188 1063.38,-182 1069.38,-176 1075.38,-176 1075.38,-176 1144.62,-176 1144.62,-176 1150.62,-176 1156.62,-182 1156.62,-188 1156.62,-188 1156.62,-200 1156.62,-200 1156.62,-206 1150.62,-212 1144.62,-212"/>
<text text-anchor="middle" x="1110" y="-188.75" font-family="Arial" font-size="15.00">user_action</text>
</g>
<!-- /lib/widgets/brush_style_picker.dart -->
<g id="node49" class="node">
<title>/lib/widgets/brush_style_picker.dart</title>
<path fill="Lavender" stroke="black" stroke-width="1.3" d="M2210.25,-303C2210.25,-303 2093.75,-303 2093.75,-303 2087.75,-303 2081.75,-297 2081.75,-291 2081.75,-291 2081.75,-279 2081.75,-279 2081.75,-273 2087.75,-267 2093.75,-267 2093.75,-267 2210.25,-267 2210.25,-267 2216.25,-267 2222.25,-273 2222.25,-279 2222.25,-279 2222.25,-291 2222.25,-291 2222.25,-297 2216.25,-303 2210.25,-303"/>
<text text-anchor="middle" x="2152" y="-279.75" font-family="Arial" font-size="15.00">brush_style_picker</text>
</g>
<!-- /lib/models/user_action.dart&#45;&gt;/lib/widgets/brush_style_picker.dart -->
<g id="edge47" class="edge">
<title>/lib/models/user_action.dart&#45;&gt;/lib/widgets/brush_style_picker.dart</title>
<path fill="none" stroke="#aabbaa" stroke-width="1.3" stroke-opacity="0.533333" d="M1117.53,-212.26C1127.05,-223.36 1142.86,-236.82 1160,-243 1207.09,-259.97 2011.9,-241.26 2061,-251 2073.09,-253.4 2085.67,-257.54 2097.51,-262.1"/>
<polygon fill="#aabbaa" fill-opacity="0.533333" stroke="#aabbaa" stroke-width="1.3" stroke-opacity="0.533333" points="2096.2,-265.34 2106.78,-265.81 2098.8,-258.84 2096.2,-265.34"/>
</g>
<!-- /lib/models/user_action.dart&#45;&gt;/lib/widgets/brush_style_picker.dart -->
<g id="edge48" class="edge">
<title>/lib/models/user_action.dart&#45;&gt;/lib/widgets/brush_style_picker.dart</title>
<path fill="none" stroke="#aabbaa" stroke-width="1.3" stroke-dasharray="5,2" stroke-opacity="0.533333" d="M1132.98,-212.5C1145.28,-223.55 1160.98,-236.87 1178,-243 1225.09,-259.97 2029.9,-241.26 2079,-251 2090.97,-253.37 2103.41,-257.45 2114.61,-261.95"/>
<polygon fill="#aabbaa" fill-opacity="0.533333" stroke="#aabbaa" stroke-width="1.3" stroke-opacity="0.533333" points="2112.95,-265.05 2123.52,-265.77 2115.71,-258.62 2112.95,-265.05"/>
</g>
<!-- /lib/models/canvas_model.dart -->
<g id="node24" class="node">
<title>/lib/models/canvas_model.dart</title>
<path fill="Lavender" stroke="black" stroke-width="1.3" d="M1145,-140C1145,-140 1057,-140 1057,-140 1051,-140 1045,-134 1045,-128 1045,-128 1045,-116 1045,-116 1045,-110 1051,-104 1057,-104 1057,-104 1145,-104 1145,-104 1151,-104 1157,-110 1157,-116 1157,-116 1157,-128 1157,-128 1157,-134 1151,-140 1145,-140"/>
<text text-anchor="middle" x="1101" y="-116.75" font-family="Arial" font-size="15.00">canvas_model</text>
</g>
<!-- /lib/models/canvas_model.dart&#45;&gt;/lib/models/layers.dart -->
<g id="edge49" class="edge">
<title>/lib/models/canvas_model.dart&#45;&gt;/lib/models/layers.dart</title>
<path fill="none" stroke="#aabbaa" stroke-width="1.3" stroke-dasharray="5,2" stroke-opacity="0.533333" d="M1075.85,-140.33C1067.24,-147.74 1058.61,-157.2 1054,-168 1040.91,-198.66 1049.04,-210.04 1054,-243 1060.29,-284.85 1057.12,-299.77 1082,-334 1082.59,-334.82 1087.53,-338.43 1094,-342.99"/>
<polygon fill="#aabbaa" fill-opacity="0.533333" stroke="#aabbaa" stroke-width="1.3" stroke-opacity="0.533333" points="1091.68,-345.64 1101.89,-348.48 1095.69,-339.89 1091.68,-345.64"/>
</g>
<!-- /lib/models/app_model.dart&#45;&gt;/lib/models/layers.dart -->
<g id="edge53" class="edge">
<title>/lib/models/app_model.dart&#45;&gt;/lib/models/layers.dart</title>
<path fill="none" stroke="#aabbaa" stroke-width="1.3" stroke-dasharray="5,2" stroke-opacity="0.533333" d="M981.96,-212.34C986.35,-242.34 999.85,-303.64 1039,-334 1057.83,-348.6 1069.81,-333.34 1092,-342 1093.58,-342.62 1095.16,-343.31 1096.73,-344.06"/>
<polygon fill="#aabbaa" fill-opacity="0.533333" stroke="#aabbaa" stroke-width="1.3" stroke-opacity="0.533333" points="1094.64,-346.91 1105.08,-348.75 1098.07,-340.8 1094.64,-346.91"/>
</g>
<!-- /lib/models/app_model.dart&#45;&gt;/lib/models/canvas_resize.dart -->
<g id="edge52" class="edge">
<title>/lib/models/app_model.dart&#45;&gt;/lib/models/canvas_resize.dart</title>
<path fill="none" stroke="#aabbaa" stroke-width="1.3" stroke-opacity="0.533333" d="M977.78,-175.7C976.85,-168.49 975.75,-159.93 974.71,-151.82"/>
<polygon fill="#aabbaa" fill-opacity="0.533333" stroke="#aabbaa" stroke-width="1.3" stroke-opacity="0.533333" points="978.2,-151.53 973.45,-142.06 971.25,-152.42 978.2,-151.53"/>
</g>
<!-- /lib/models/app_model.dart&#45;&gt;/lib/models/canvas_model.dart -->
<g id="edge51" class="edge">
<title>/lib/models/app_model.dart&#45;&gt;/lib/models/canvas_model.dart</title>
<path fill="none" stroke="#aabbaa" stroke-width="1.3" stroke-opacity="0.533333" d="M1010.22,-175.52C1025.64,-166.6 1044.6,-155.63 1061.19,-146.03"/>
<polygon fill="#aabbaa" fill-opacity="0.533333" stroke="#aabbaa" stroke-width="1.3" stroke-opacity="0.533333" points="1062.56,-149.28 1069.46,-141.25 1059.05,-143.22 1062.56,-149.28"/>
</g>
<!-- /lib/models/app_model.dart&#45;&gt;/lib/helpers/color_helper.dart -->
<g id="edge50" class="edge">
<title>/lib/models/app_model.dart&#45;&gt;/lib/helpers/color_helper.dart</title>
<path fill="none" stroke="#aabbaa" stroke-width="1.3" stroke-opacity="0.533333" d="M1025.2,-177.04C1034.67,-173.89 1044.62,-170.72 1054,-168 1104.52,-153.35 1117.91,-152.51 1169,-140 1171.68,-139.34 1174.42,-138.67 1177.18,-137.99"/>
<polygon fill="#aabbaa" fill-opacity="0.533333" stroke="#aabbaa" stroke-width="1.3" stroke-opacity="0.533333" points="1177.84,-141.44 1186.72,-135.65 1176.17,-134.64 1177.84,-141.44"/>
</g>
<!-- /lib/models/layer.dart&#45;&gt;/lib/models/user_action.dart -->
<g id="edge57" class="edge">
<title>/lib/models/layer.dart&#45;&gt;/lib/models/user_action.dart</title>
<path fill="none" stroke="#aabbaa" stroke-width="1.3" stroke-dasharray="5,2" stroke-opacity="0.533333" d="M1116.46,-266.84C1115.37,-254.73 1113.88,-238.21 1112.61,-224.06"/>
<polygon fill="#aabbaa" fill-opacity="0.533333" stroke="#aabbaa" stroke-width="1.3" stroke-opacity="0.533333" points="1116.12,-224.02 1111.74,-214.37 1109.15,-224.64 1116.12,-224.02"/>
</g>
<!-- /lib/models/layer.dart&#45;&gt;/lib/models/app_model.dart -->
<g id="edge56" class="edge">
<title>/lib/models/layer.dart&#45;&gt;/lib/models/app_model.dart</title>
<path fill="none" stroke="#aabbaa" stroke-width="1.3" stroke-opacity="0.533333" d="M1090.89,-266.68C1079.49,-259.38 1066.09,-250.79 1054,-243 1041.86,-235.17 1028.61,-226.59 1016.72,-218.88"/>
<polygon fill="#aabbaa" fill-opacity="0.533333" stroke="#aabbaa" stroke-width="1.3" stroke-opacity="0.533333" points="1018.64,-215.95 1008.34,-213.44 1014.82,-221.82 1018.64,-215.95"/>
</g>
<!-- /lib/helpers/image_helper.dart -->
<g id="node37" class="node">
<title>/lib/helpers/image_helper.dart</title>
<path fill="Lavender" stroke="black" stroke-width="1.3" d="M1275,-212C1275,-212 1193,-212 1193,-212 1187,-212 1181,-206 1181,-200 1181,-200 1181,-188 1181,-188 1181,-182 1187,-176 1193,-176 1193,-176 1275,-176 1275,-176 1281,-176 1287,-182 1287,-188 1287,-188 1287,-200 1287,-200 1287,-206 1281,-212 1275,-212"/>
<text text-anchor="middle" x="1234" y="-188.75" font-family="Arial" font-size="15.00">image_helper</text>
</g>
<!-- /lib/models/layer.dart&#45;&gt;/lib/helpers/image_helper.dart -->
<g id="edge55" class="edge">
<title>/lib/models/layer.dart&#45;&gt;/lib/helpers/image_helper.dart</title>
<path fill="none" stroke="#aabbaa" stroke-width="1.3" stroke-opacity="0.533333" d="M1139.16,-266.72C1145.5,-261.61 1152.5,-256.04 1159,-251 1172.51,-240.53 1187.58,-229.21 1200.65,-219.5"/>
<polygon fill="#aabbaa" fill-opacity="0.533333" stroke="#aabbaa" stroke-width="1.3" stroke-opacity="0.533333" points="1202.65,-222.37 1208.61,-213.61 1198.49,-216.74 1202.65,-222.37"/>
</g>
<!-- /lib/models/layer.dart&#45;&gt;/lib/helpers/color_helper.dart -->
<g id="edge54" class="edge">
<title>/lib/models/layer.dart&#45;&gt;/lib/helpers/color_helper.dart</title>
<path fill="none" stroke="#aabbaa" stroke-width="1.3" stroke-opacity="0.533333" d="M1134.82,-266.53C1141.7,-260.51 1150.13,-254.42 1159,-251 1173.23,-245.51 1285.54,-254.09 1296,-243 1318.87,-218.75 1310.66,-197.94 1296,-168 1292.22,-160.29 1286.42,-153.52 1279.91,-147.73"/>
<polygon fill="#aabbaa" fill-opacity="0.533333" stroke="#aabbaa" stroke-width="1.3" stroke-opacity="0.533333" points="1282.28,-145.14 1272.27,-141.67 1277.93,-150.63 1282.28,-145.14"/>
</g>
<!-- /lib/main.dart&#45;&gt;/lib/models/app_model.dart -->
<g id="edge59" class="edge">
<title>/lib/main.dart&#45;&gt;/lib/models/app_model.dart</title>
<path fill="none" stroke="#aabbaa" stroke-width="1.3" stroke-opacity="0.533333" d="M453.71,-657.21C387.8,-639.68 217.4,-587.46 109,-492 27.1,-419.87 -12.78,-330.48 62,-251 91.61,-219.53 727.51,-201.24 923.21,-196.34"/>
<polygon fill="#aabbaa" fill-opacity="0.533333" stroke="#aabbaa" stroke-width="1.3" stroke-opacity="0.533333" points="923.03,-199.85 932.94,-196.1 922.86,-192.85 923.03,-199.85"/>
</g>
<!-- /lib/main_screen.dart -->
<g id="node36" class="node">
<title>/lib/main_screen.dart</title>
<path fill="Lavender" stroke="black" stroke-width="1.3" d="M1633.75,-611C1633.75,-611 1556.25,-611 1556.25,-611 1550.25,-611 1544.25,-605 1544.25,-599 1544.25,-599 1544.25,-587 1544.25,-587 1544.25,-581 1550.25,-575 1556.25,-575 1556.25,-575 1633.75,-575 1633.75,-575 1639.75,-575 1645.75,-581 1645.75,-587 1645.75,-587 1645.75,-599 1645.75,-599 1645.75,-605 1639.75,-611 1633.75,-611"/>
<text text-anchor="middle" x="1595" y="-587.75" font-family="Arial" font-size="15.00">main_screen</text>
</g>
<!-- /lib/main.dart&#45;&gt;/lib/main_screen.dart -->
<g id="edge58" class="edge">
<title>/lib/main.dart&#45;&gt;/lib/main_screen.dart</title>
<path fill="none" stroke="#aabbaa" stroke-width="1.3" stroke-opacity="0.533333" d="M508.26,-662.29C651.95,-653.26 1322.73,-611.11 1532.28,-597.94"/>
<polygon fill="#aabbaa" fill-opacity="0.533333" stroke="#aabbaa" stroke-width="1.3" stroke-opacity="0.533333" points="1532.23,-601.45 1541.99,-597.33 1531.79,-594.46 1532.23,-601.45"/>
</g>
<!-- /lib/files/xcf_reader.dart&#45;&gt;/lib/helpers/list_helper.dart -->
<g id="edge60" class="edge">
<title>/lib/files/xcf_reader.dart&#45;&gt;/lib/helpers/list_helper.dart</title>
<path fill="none" stroke="#aabbaa" stroke-width="1.3" stroke-opacity="0.533333" d="M297.3,-349.58C338.68,-326.06 415.44,-283.36 483,-251 642.32,-174.68 678.19,-141.05 849,-96 966,-65.14 1108.34,-55.44 1184.23,-52.39"/>
<polygon fill="#aabbaa" fill-opacity="0.533333" stroke="#aabbaa" stroke-width="1.3" stroke-opacity="0.533333" points="1184,-55.9 1193.86,-52.03 1183.73,-48.91 1184,-55.9"/>
</g>
<!-- /lib/files/file_jpeg.dart -->
<g id="node30" class="node">
<title>/lib/files/file_jpeg.dart</title>
<path fill="Lavender" stroke="black" stroke-width="1.3" d="M550.38,-303C550.38,-303 503.62,-303 503.62,-303 497.62,-303 491.62,-297 491.62,-291 491.62,-291 491.62,-279 491.62,-279 491.62,-273 497.62,-267 503.62,-267 503.62,-267 550.38,-267 550.38,-267 556.38,-267 562.38,-273 562.38,-279 562.38,-279 562.38,-291 562.38,-291 562.38,-297 556.38,-303 550.38,-303"/>
<text text-anchor="middle" x="527" y="-279.75" font-family="Arial" font-size="15.00">file_jpeg</text>
</g>
<!-- /lib/files/export_download_web.dart -->
<g id="node31" class="node">
<title>/lib/files/export_download_web.dart</title>
<path fill="Lavender" stroke="black" stroke-width="1.3" d="M696.25,-386C696.25,-386 555.75,-386 555.75,-386 549.75,-386 543.75,-380 543.75,-374 543.75,-374 543.75,-362 543.75,-362 543.75,-356 549.75,-350 555.75,-350 555.75,-350 696.25,-350 696.25,-350 702.25,-350 708.25,-356 708.25,-362 708.25,-362 708.25,-374 708.25,-374 708.25,-380 702.25,-386 696.25,-386"/>
<text text-anchor="middle" x="626" y="-362.75" font-family="Arial" font-size="15.00">export_download_web</text>
</g>
<!-- /lib/files/export_download_web.dart&#45;&gt;/lib/panels/share_panel.dart -->
<g id="edge64" class="edge">
<title>/lib/files/export_download_web.dart&#45;&gt;/lib/panels/share_panel.dart</title>
<path fill="none" stroke="#aabbaa" stroke-width="1.3" stroke-opacity="0.533333" d="M651.47,-386.43C671.03,-399.27 699.3,-415.12 727,-421 750.53,-425.99 1136.47,-425.99 1160,-421 1177.52,-417.28 1193.7,-405.81 1206.08,-394.49"/>
<polygon fill="#aabbaa" fill-opacity="0.533333" stroke="#aabbaa" stroke-width="1.3" stroke-opacity="0.533333" points="1208.27,-397.25 1212.98,-387.76 1203.38,-392.24 1208.27,-397.25"/>
</g>
<!-- /lib/files/export_download_web.dart&#45;&gt;/lib/models/app_model.dart -->
<g id="edge63" class="edge">
<title>/lib/files/export_download_web.dart&#45;&gt;/lib/models/app_model.dart</title>
<path fill="none" stroke="#aabbaa" stroke-width="1.3" stroke-opacity="0.533333" d="M683.53,-349.53C694.87,-346.61 706.74,-343.91 718,-342 730.3,-339.91 820.09,-341.58 830,-334 861.04,-310.26 832.75,-279.94 859,-251 876.24,-231.99 901.24,-218.95 924.05,-210.26"/>
<polygon fill="#aabbaa" fill-opacity="0.533333" stroke="#aabbaa" stroke-width="1.3" stroke-opacity="0.533333" points="924.93,-213.66 933.17,-207 922.57,-207.07 924.93,-213.66"/>
</g>
<!-- /lib/files/export_download_web.dart&#45;&gt;/lib/files/file_jpeg.dart -->
<g id="edge61" class="edge">
<title>/lib/files/export_download_web.dart&#45;&gt;/lib/files/file_jpeg.dart</title>
<path fill="none" stroke="#aabbaa" stroke-width="1.3" stroke-opacity="0.533333" d="M605,-349.82C591.19,-338.52 572.87,-323.53 557.46,-310.92"/>
<polygon fill="#aabbaa" fill-opacity="0.533333" stroke="#aabbaa" stroke-width="1.3" stroke-opacity="0.533333" points="559.79,-308.3 549.83,-304.68 555.35,-313.72 559.79,-308.3"/>
</g>
<!-- /lib/files/file_ora.dart -->
<g id="node32" class="node">
<title>/lib/files/file_ora.dart</title>
<path fill="Lavender" stroke="black" stroke-width="1.3" d="M793.38,-303C793.38,-303 752.62,-303 752.62,-303 746.62,-303 740.62,-297 740.62,-291 740.62,-291 740.62,-279 740.62,-279 740.62,-273 746.62,-267 752.62,-267 752.62,-267 793.38,-267 793.38,-267 799.38,-267 805.38,-273 805.38,-279 805.38,-279 805.38,-291 805.38,-291 805.38,-297 799.38,-303 793.38,-303"/>
<text text-anchor="middle" x="773" y="-279.75" font-family="Arial" font-size="15.00">file_ora</text>
</g>
<!-- /lib/files/export_download_web.dart&#45;&gt;/lib/files/file_ora.dart -->
<g id="edge62" class="edge">
<title>/lib/files/export_download_web.dart&#45;&gt;/lib/files/file_ora.dart</title>
<path fill="none" stroke="#aabbaa" stroke-width="1.3" stroke-opacity="0.533333" d="M657.54,-349.62C678.97,-337.81 707.57,-322.05 730.94,-309.18"/>
<polygon fill="#aabbaa" fill-opacity="0.533333" stroke="#aabbaa" stroke-width="1.3" stroke-opacity="0.533333" points="732.47,-312.33 739.54,-304.44 729.09,-306.2 732.47,-312.33"/>
</g>
<!-- /lib/files/file_ora.dart&#45;&gt;/lib/models/app_model.dart -->
<g id="edge66" class="edge">
<title>/lib/files/file_ora.dart&#45;&gt;/lib/models/app_model.dart</title>
<path fill="none" stroke="#aabbaa" stroke-width="1.3" stroke-opacity="0.533333" d="M795.15,-266.57C802.75,-261.11 811.49,-255.37 820,-251 829.68,-246.03 881.61,-228.1 923.72,-213.85"/>
<polygon fill="#aabbaa" fill-opacity="0.533333" stroke="#aabbaa" stroke-width="1.3" stroke-opacity="0.533333" points="924.79,-217.18 933.15,-210.67 922.55,-210.55 924.79,-217.18"/>
</g>
<!-- /lib/files/file_ora.dart&#45;&gt;/lib/helpers/list_helper.dart -->
<g id="edge65" class="edge">
<title>/lib/files/file_ora.dart&#45;&gt;/lib/helpers/list_helper.dart</title>
<path fill="none" stroke="#aabbaa" stroke-width="1.3" stroke-opacity="0.533333" d="M779.34,-266.61C794.25,-228.43 835.5,-137.36 903,-96 948.98,-67.83 1101.57,-56.92 1184.02,-53"/>
<polygon fill="#aabbaa" fill-opacity="0.533333" stroke="#aabbaa" stroke-width="1.3" stroke-opacity="0.533333" points="1184.1,-56.5 1193.93,-52.55 1183.78,-49.51 1184.1,-56.5"/>
</g>
<!-- /lib/files/save.dart&#45;&gt;/lib/models/app_model.dart -->
<g id="edge67" class="edge">
<title>/lib/files/save.dart&#45;&gt;/lib/models/app_model.dart</title>
<path fill="none" stroke="#aabbaa" stroke-width="1.3" stroke-opacity="0.533333" d="M874.5,-349.77C877.4,-344.76 880.44,-339.22 883,-334 900.54,-298.2 893.95,-283.53 917,-251 925.18,-239.46 936.17,-228.64 946.67,-219.66"/>
<polygon fill="#aabbaa" fill-opacity="0.533333" stroke="#aabbaa" stroke-width="1.3" stroke-opacity="0.533333" points="948.66,-222.55 954.18,-213.51 944.23,-217.14 948.66,-222.55"/>
</g>
<!-- /lib/files/export_download_non_web.dart -->
<g id="node34" class="node">
<title>/lib/files/export_download_non_web.dart</title>
<path fill="Lavender" stroke="black" stroke-width="1.3" d="M513.75,-386C513.75,-386 340.25,-386 340.25,-386 334.25,-386 328.25,-380 328.25,-374 328.25,-374 328.25,-362 328.25,-362 328.25,-356 334.25,-350 340.25,-350 340.25,-350 513.75,-350 513.75,-350 519.75,-350 525.75,-356 525.75,-362 525.75,-362 525.75,-374 525.75,-374 525.75,-380 519.75,-386 513.75,-386"/>
<text text-anchor="middle" x="427" y="-362.75" font-family="Arial" font-size="15.00">export_download_non_web</text>
</g>
<!-- /lib/files/export_download_non_web.dart&#45;&gt;/lib/panels/share_panel.dart -->
<g id="edge71" class="edge">
<title>/lib/files/export_download_non_web.dart&#45;&gt;/lib/panels/share_panel.dart</title>
<path fill="none" stroke="#aabbaa" stroke-width="1.3" stroke-opacity="0.533333" d="M457.51,-386.26C480.41,-398.84 513.02,-414.43 544,-421 560.74,-424.55 1143.26,-424.55 1160,-421 1177.52,-417.28 1193.7,-405.81 1206.08,-394.49"/>
<polygon fill="#aabbaa" fill-opacity="0.533333" stroke="#aabbaa" stroke-width="1.3" stroke-opacity="0.533333" points="1208.27,-397.25 1212.98,-387.76 1203.38,-392.24 1208.27,-397.25"/>
</g>
<!-- /lib/files/export_download_non_web.dart&#45;&gt;/lib/models/app_model.dart -->
<g id="edge70" class="edge">
<title>/lib/files/export_download_non_web.dart&#45;&gt;/lib/models/app_model.dart</title>
<path fill="none" stroke="#aabbaa" stroke-width="1.3" stroke-opacity="0.533333" d="M492.88,-349.56C506.7,-346.52 521.26,-343.77 535,-342 550.38,-340.02 802.19,-344.04 814,-334 842.62,-309.67 805.74,-279.69 830,-251 842.61,-236.09 886.54,-220.68 923.63,-209.81"/>
<polygon fill="#aabbaa" fill-opacity="0.533333" stroke="#aabbaa" stroke-width="1.3" stroke-opacity="0.533333" points="924.33,-213.25 932.98,-207.13 922.41,-206.52 924.33,-213.25"/>
</g>
<!-- /lib/files/export_download_non_web.dart&#45;&gt;/lib/files/file_jpeg.dart -->
<g id="edge68" class="edge">
<title>/lib/files/export_download_non_web.dart&#45;&gt;/lib/files/file_jpeg.dart</title>
<path fill="none" stroke="#aabbaa" stroke-width="1.3" stroke-opacity="0.533333" d="M448.21,-349.82C462.17,-338.52 480.67,-323.53 496.23,-310.92"/>
<polygon fill="#aabbaa" fill-opacity="0.533333" stroke="#aabbaa" stroke-width="1.3" stroke-opacity="0.533333" points="498.38,-313.68 503.95,-304.67 493.98,-308.25 498.38,-313.68"/>
</g>
<!-- /lib/files/export_download_non_web.dart&#45;&gt;/lib/files/file_ora.dart -->
<g id="edge69" class="edge">
<title>/lib/files/export_download_non_web.dart&#45;&gt;/lib/files/file_ora.dart</title>
<path fill="none" stroke="#aabbaa" stroke-width="1.3" stroke-opacity="0.533333" d="M501.93,-349.57C513.01,-347.01 524.3,-344.43 535,-342 550.98,-338.37 555.03,-337.67 571,-334 625.35,-321.5 687.8,-306.58 728.69,-296.73"/>
<polygon fill="#aabbaa" fill-opacity="0.533333" stroke="#aabbaa" stroke-width="1.3" stroke-opacity="0.533333" points="729.33,-300.17 738.23,-294.42 727.69,-293.37 729.33,-300.17"/>
</g>
<!-- /lib/files/import_files.dart&#45;&gt;/lib/models/app_model.dart -->
<g id="edge73" class="edge">
<title>/lib/files/import_files.dart&#45;&gt;/lib/models/app_model.dart</title>
<path fill="none" stroke="#aabbaa" stroke-width="1.3" stroke-opacity="0.533333" d="M809.02,-349.55C815.27,-346.83 821.77,-344.2 828,-342 841.42,-337.26 848.79,-343.91 859,-334 886.54,-307.24 859.32,-281.23 883,-251 893.91,-237.07 909.32,-225.97 924.65,-217.44"/>
<polygon fill="#aabbaa" fill-opacity="0.533333" stroke="#aabbaa" stroke-width="1.3" stroke-opacity="0.533333" points="926.2,-220.58 933.45,-212.86 922.97,-214.37 926.2,-220.58"/>
</g>
<!-- /lib/files/import_files.dart&#45;&gt;/lib/files/file_ora.dart -->
<g id="edge72" class="edge">
<title>/lib/files/import_files.dart&#45;&gt;/lib/files/file_ora.dart</title>
<path fill="none" stroke="#aabbaa" stroke-width="1.3" stroke-opacity="0.533333" d="M773,-349.82C773,-339.8 773,-326.88 773,-315.29"/>
<polygon fill="#aabbaa" fill-opacity="0.533333" stroke="#aabbaa" stroke-width="1.3" stroke-opacity="0.533333" points="776.5,-315.4 773,-305.4 769.5,-315.4 776.5,-315.4"/>
</g>
<!-- /lib/main_screen.dart&#45;&gt;/lib/panels/tools/flood_fill.dart -->
<g id="edge76" class="edge">
<title>/lib/main_screen.dart&#45;&gt;/lib/panels/tools/flood_fill.dart</title>
<path fill="none" stroke="#aabbaa" stroke-width="1.3" stroke-opacity="0.533333" d="M1645.97,-591.79C1672.12,-589.46 1703.36,-583.05 1727,-567 1761.02,-543.91 1783.29,-500.53 1795.01,-471.95"/>
<polygon fill="#aabbaa" fill-opacity="0.533333" stroke="#aabbaa" stroke-width="1.3" stroke-opacity="0.533333" points="1798.17,-473.49 1798.54,-462.91 1791.65,-470.95 1798.17,-473.49"/>
</g>
<!-- /lib/main_screen.dart&#45;&gt;/lib/panels/canvas_panel.dart -->
<g id="edge74" class="edge">
<title>/lib/main_screen.dart&#45;&gt;/lib/panels/canvas_panel.dart</title>
<path fill="none" stroke="#aabbaa" stroke-width="1.3" stroke-opacity="0.533333" d="M1646.17,-589.03C1756.53,-581.42 2011.09,-557.05 2062,-492 2103.09,-439.5 2100.47,-396.45 2062,-342 2041.12,-312.45 2003.25,-298.39 1969.82,-291.75"/>
<polygon fill="#aabbaa" fill-opacity="0.533333" stroke="#aabbaa" stroke-width="1.3" stroke-opacity="0.533333" points="1970.61,-288.33 1960.15,-290.04 1969.39,-295.23 1970.61,-288.33"/>
</g>
<!-- /lib/main_screen.dart&#45;&gt;/lib/panels/side_panel.dart -->
<g id="edge75" class="edge">
<title>/lib/main_screen.dart&#45;&gt;/lib/panels/side_panel.dart</title>
<path fill="none" stroke="#aabbaa" stroke-width="1.3" stroke-opacity="0.533333" d="M1595,-574.7C1595,-566.76 1595,-557.12 1595,-548.11"/>
<polygon fill="#aabbaa" fill-opacity="0.533333" stroke="#aabbaa" stroke-width="1.3" stroke-opacity="0.533333" points="1598.5,-548.4 1595,-538.4 1591.5,-548.4 1598.5,-548.4"/>
</g>
<!-- /lib/main_screen.dart&#45;&gt;/lib/models/app_model.dart -->
<g id="edge77" class="edge">
<title>/lib/main_screen.dart&#45;&gt;/lib/models/app_model.dart</title>
<path fill="none" stroke="#aabbaa" stroke-width="1.3" stroke-opacity="0.533333" d="M1543.75,-590.3C1463.64,-587.34 1303.93,-580.26 1169,-567 1138.72,-564.02 103.99,-439.94 84,-417 59.77,-389.19 58.74,-277.89 84,-251 112.8,-220.35 730.14,-201.57 922.97,-196.44"/>
<polygon fill="#aabbaa" fill-opacity="0.533333" stroke="#aabbaa" stroke-width="1.3" stroke-opacity="0.533333" points="922.91,-199.94 932.82,-196.18 922.73,-192.94 922.91,-199.94"/>
</g>
<!-- /lib/helpers/image_helper.dart&#45;&gt;/lib/helpers/color_helper.dart -->
<g id="edge78" class="edge">
<title>/lib/helpers/image_helper.dart&#45;&gt;/lib/helpers/color_helper.dart</title>
<path fill="none" stroke="#aabbaa" stroke-width="1.3" stroke-opacity="0.533333" d="M1234.99,-175.7C1235.4,-168.49 1235.89,-159.93 1236.35,-151.82"/>
<polygon fill="#aabbaa" fill-opacity="0.533333" stroke="#aabbaa" stroke-width="1.3" stroke-opacity="0.533333" points="1239.83,-152.25 1236.91,-142.07 1232.85,-151.85 1239.83,-152.25"/>
</g>
<!-- /lib/helpers/color_helper.dart&#45;&gt;/lib/helpers/list_helper.dart -->
<g id="edge79" class="edge">
<title>/lib/helpers/color_helper.dart&#45;&gt;/lib/helpers/list_helper.dart</title>
<path fill="none" stroke="#aabbaa" stroke-width="1.3" stroke-opacity="0.533333" d="M1238,-103.7C1238,-96.49 1238,-87.93 1238,-79.82"/>
<polygon fill="#aabbaa" fill-opacity="0.533333" stroke="#aabbaa" stroke-width="1.3" stroke-opacity="0.533333" points="1241.5,-80.07 1238,-70.07 1234.5,-80.07 1241.5,-80.07"/>
</g>
<!-- /lib/widgets/color_preview.dart -->
<g id="node47" class="node">
<title>/lib/widgets/color_preview.dart</title>
<path fill="Lavender" stroke="black" stroke-width="1.3" d="M2373.75,-212C2373.75,-212 2290.25,-212 2290.25,-212 2284.25,-212 2278.25,-206 2278.25,-200 2278.25,-200 2278.25,-188 2278.25,-188 2278.25,-182 2284.25,-176 2290.25,-176 2290.25,-176 2373.75,-176 2373.75,-176 2379.75,-176 2385.75,-182 2385.75,-188 2385.75,-188 2385.75,-200 2385.75,-200 2385.75,-206 2379.75,-212 2373.75,-212"/>
<text text-anchor="middle" x="2332" y="-188.75" font-family="Arial" font-size="15.00">color_preview</text>
</g>
<!-- /lib/widgets/color_preview.dart&#45;&gt;/lib/models/app_model.dart -->
<g id="edge81" class="edge">
<title>/lib/widgets/color_preview.dart&#45;&gt;/lib/models/app_model.dart</title>
<path fill="none" stroke="#aabbaa" stroke-width="1.3" stroke-opacity="0.533333" d="M2315.82,-212.34C2302.47,-225.72 2282.17,-242.3 2260,-247 2243.74,-250.45 1079.26,-250.45 1063,-247 1043.11,-242.78 1023.78,-231.04 1008.79,-219.68"/>
<polygon fill="#aabbaa" fill-opacity="0.533333" stroke="#aabbaa" stroke-width="1.3" stroke-opacity="0.533333" points="1011.14,-217.08 1001.14,-213.58 1006.78,-222.55 1011.14,-217.08"/>
</g>
<!-- /lib/widgets/color_preview.dart&#45;&gt;/lib/helpers/color_helper.dart -->
<g id="edge80" class="edge">
<title>/lib/widgets/color_preview.dart&#45;&gt;/lib/helpers/color_helper.dart</title>
<path fill="none" stroke="#aabbaa" stroke-width="1.3" stroke-opacity="0.533333" d="M2293.99,-175.57C2285.89,-172.52 2277.29,-169.77 2269,-168 2082.15,-128.04 1490.92,-123.43 1298.89,-123"/>
<polygon fill="#aabbaa" fill-opacity="0.533333" stroke="#aabbaa" stroke-width="1.3" stroke-opacity="0.533333" points="1299.06,-119.5 1289.06,-122.98 1299.05,-126.5 1299.06,-119.5"/>
</g>
<!-- /lib/widgets/top_colors.dart&#45;&gt;/lib/helpers/color_helper.dart -->
<g id="edge82" class="edge">
<title>/lib/widgets/top_colors.dart&#45;&gt;/lib/helpers/color_helper.dart</title>
<path fill="none" stroke="#aabbaa" stroke-width="1.3" stroke-opacity="0.533333" d="M2956.5,-266.53C2947.99,-260.73 2937.95,-254.8 2928,-251 2914,-245.66 2409.91,-169.45 2395,-168 1977.35,-127.5 1471.55,-123.13 1299.03,-122.89"/>
<polygon fill="#aabbaa" fill-opacity="0.533333" stroke="#aabbaa" stroke-width="1.3" stroke-opacity="0.533333" points="1299.16,-119.39 1289.16,-122.89 1299.16,-126.39 1299.16,-119.39"/>
</g>
<!-- /lib/widgets/top_colors.dart&#45;&gt;/lib/widgets/transparent_background.dart -->
<g id="edge84" class="edge">
<title>/lib/widgets/top_colors.dart&#45;&gt;/lib/widgets/transparent_background.dart</title>
<path fill="none" stroke="#aabbaa" stroke-width="1.3" stroke-opacity="0.533333" d="M2958.01,-266.62C2949.28,-260.44 2938.7,-254.23 2928,-251 2857.9,-229.83 2340.24,-259.96 2269,-243 2247.74,-237.94 2225.74,-227.69 2207.98,-217.96"/>
<polygon fill="#aabbaa" fill-opacity="0.533333" stroke="#aabbaa" stroke-width="1.3" stroke-opacity="0.533333" points="2210.2,-215.19 2199.77,-213.3 2206.74,-221.28 2210.2,-215.19"/>
</g>
<!-- /lib/widgets/top_colors.dart&#45;&gt;/lib/widgets/color_preview.dart -->
<g id="edge83" class="edge">
<title>/lib/widgets/top_colors.dart&#45;&gt;/lib/widgets/color_preview.dart</title>
<path fill="none" stroke="#aabbaa" stroke-width="1.3" stroke-opacity="0.533333" d="M2957.98,-266.73C2949.24,-260.58 2938.67,-254.34 2928,-251 2902.43,-242.99 2713.7,-245.24 2687,-243 2585.58,-234.48 2468.77,-217.24 2397.68,-205.91"/>
<polygon fill="#aabbaa" fill-opacity="0.533333" stroke="#aabbaa" stroke-width="1.3" stroke-opacity="0.533333" points="2398.61,-202.51 2388.19,-204.39 2397.51,-209.43 2398.61,-202.51"/>
</g>
<!-- /lib/widgets/brush_style_picker.dart&#45;&gt;/lib/models/app_model.dart -->
<g id="edge85" class="edge">
<title>/lib/widgets/brush_style_picker.dart&#45;&gt;/lib/models/app_model.dart</title>
<path fill="none" stroke="#aabbaa" stroke-width="1.3" stroke-opacity="0.533333" d="M2116.97,-266.54C2102.76,-260.36 2085.96,-254.16 2070,-251 2014.63,-240.05 1108.06,-259.23 1054,-243 1037.87,-238.16 1021.94,-228.62 1009.02,-219.31"/>
<polygon fill="#aabbaa" fill-opacity="0.533333" stroke="#aabbaa" stroke-width="1.3" stroke-opacity="0.533333" points="1011.43,-216.74 1001.34,-213.51 1007.21,-222.33 1011.43,-216.74"/>
</g>
<!-- /lib/widgets/color_picker.dart&#45;&gt;/lib/helpers/list_helper.dart -->
<g id="edge87" class="edge">
<title>/lib/widgets/color_picker.dart&#45;&gt;/lib/helpers/list_helper.dart</title>
<path fill="none" stroke="#aabbaa" stroke-width="1.3" stroke-opacity="0.533333" d="M3059.74,-266.53C3050.71,-261.25 3040.57,-255.63 3031,-251 2940.66,-207.29 2918.83,-190.4 2821,-168 2520.17,-99.12 1533.97,-61.21 1291.98,-52.8"/>
<polygon fill="#aabbaa" fill-opacity="0.533333" stroke="#aabbaa" stroke-width="1.3" stroke-opacity="0.533333" points="1292.12,-49.3 1282.01,-52.46 1291.88,-56.3 1292.12,-49.3"/>
</g>
<!-- /lib/widgets/color_picker.dart&#45;&gt;/lib/helpers/color_helper.dart -->
<g id="edge86" class="edge">
<title>/lib/widgets/color_picker.dart&#45;&gt;/lib/helpers/color_helper.dart</title>
<path fill="none" stroke="#aabbaa" stroke-width="1.3" stroke-opacity="0.533333" d="M3061.9,-266.58C3052.48,-260.92 3041.56,-255.07 3031,-251 3029.71,-250.5 2643.37,-168.17 2642,-168 2376.09,-135.63 1532.67,-125.68 1298.7,-123.51"/>
<polygon fill="#aabbaa" fill-opacity="0.533333" stroke="#aabbaa" stroke-width="1.3" stroke-opacity="0.533333" points="1299.06,-120.01 1289.03,-123.42 1298.99,-127.01 1299.06,-120.01"/>
</g>
<!-- /lib/widgets/color_picker.dart&#45;&gt;/lib/widgets/transparent_background.dart -->
<g id="edge88" class="edge">
<title>/lib/widgets/color_picker.dart&#45;&gt;/lib/widgets/transparent_background.dart</title>
<path fill="none" stroke="#aabbaa" stroke-width="1.3" stroke-opacity="0.533333" d="M3064.26,-266.59C3054.47,-260.41 3042.69,-254.21 3031,-251 2949.34,-228.61 2351.38,-262.55 2269,-243 2247.74,-237.95 2225.74,-227.71 2207.98,-217.97"/>
<polygon fill="#aabbaa" fill-opacity="0.533333" stroke="#aabbaa" stroke-width="1.3" stroke-opacity="0.533333" points="2210.19,-215.21 2199.77,-213.32 2206.74,-221.29 2210.19,-215.21"/>
</g>
</g>
</svg>
