<?xml version="1.0" encoding="UTF-8" standalone="no"?>
<!DOCTYPE svg PUBLIC "-//W3C//DTD SVG 1.1//EN"
 "http://www.w3.org/Graphics/SVG/1.1/DTD/svg11.dtd">
<!-- Generated by graphviz version 12.2.1 (20241206.2353)
 -->
<!-- Pages: 1 -->
<svg width="418pt" height="595pt"
 viewBox="0.00 0.00 417.57 595.00" xmlns="http://www.w3.org/2000/svg" xmlns:xlink="http://www.w3.org/1999/xlink">
<g id="graph0" class="graph" transform="scale(1 1) rotate(0) translate(4 591)">
<polygon fill="white" stroke="none" points="-4,4 -4,-591 413.57,-591 413.57,4 -4,4"/>
<g id="clust1" class="cluster">
<title>cluster~</title>
<path fill="none" stroke="lightgray" stroke-width="2.6" d="M31.57,-8C31.57,-8 389.57,-8 389.57,-8 395.57,-8 401.57,-14 401.57,-20 401.57,-20 401.57,-567 401.57,-567 401.57,-573 395.57,-579 389.57,-579 389.57,-579 31.57,-579 31.57,-579 25.57,-579 19.57,-573 19.57,-567 19.57,-567 19.57,-20 19.57,-20 19.57,-14 25.57,-8 31.57,-8"/>
<text text-anchor="middle" x="210.57" y="-562.65" font-family="Arial Black" font-size="13.00">fpaint</text>
</g>
<g id="clust2" class="cluster">
<title>cluster~/test</title>
<path fill="none" stroke="lightgray" stroke-width="2.6" d="M39.57,-473C39.57,-473 271.57,-473 271.57,-473 277.57,-473 283.57,-479 283.57,-485 283.57,-485 283.57,-536 283.57,-536 283.57,-542 277.57,-548 271.57,-548 271.57,-548 39.57,-548 39.57,-548 33.57,-548 27.57,-542 27.57,-536 27.57,-536 27.57,-485 27.57,-485 27.57,-479 33.57,-473 39.57,-473"/>
<text text-anchor="middle" x="155.57" y="-531.65" font-family="Arial Black" font-size="13.00">test</text>
</g>
<g id="clust3" class="cluster">
<title>cluster~/lib</title>
<path fill="none" stroke="lightgray" stroke-width="2.6" d="M41.57,-16C41.57,-16 381.57,-16 381.57,-16 387.57,-16 393.57,-22 393.57,-28 393.57,-28 393.57,-453 393.57,-453 393.57,-459 387.57,-465 381.57,-465 381.57,-465 41.57,-465 41.57,-465 35.57,-465 29.57,-459 29.57,-453 29.57,-453 29.57,-28 29.57,-28 29.57,-22 35.57,-16 41.57,-16"/>
<text text-anchor="middle" x="211.57" y="-448.65" font-family="Arial Black" font-size="13.00">lib</text>
</g>
<g id="clust4" class="cluster">
<title>cluster~/lib/panels</title>
<path fill="none" stroke="lightgray" stroke-width="2.6" d="M171.57,-168C171.57,-168 373.57,-168 373.57,-168 379.57,-168 385.57,-174 385.57,-180 385.57,-180 385.57,-306 385.57,-306 385.57,-312 379.57,-318 373.57,-318 373.57,-318 171.57,-318 171.57,-318 165.57,-318 159.57,-312 159.57,-306 159.57,-306 159.57,-180 159.57,-180 159.57,-174 165.57,-168 171.57,-168"/>
<text text-anchor="middle" x="272.57" y="-301.65" font-family="Arial Black" font-size="13.00">panels</text>
</g>
<g id="clust5" class="cluster">
<title>cluster~/lib/models</title>
<path fill="none" stroke="lightgray" stroke-width="2.6" d="M49.57,-24C49.57,-24 139.57,-24 139.57,-24 145.57,-24 151.57,-30 151.57,-36 151.57,-36 151.57,-231 151.57,-231 151.57,-237 145.57,-243 139.57,-243 139.57,-243 49.57,-243 49.57,-243 43.57,-243 37.57,-237 37.57,-231 37.57,-231 37.57,-36 37.57,-36 37.57,-30 43.57,-24 49.57,-24"/>
<text text-anchor="middle" x="94.57" y="-226.65" font-family="Arial Black" font-size="13.00">models</text>
</g>
<!-- /test/paint_model_test.dart -->
<g id="node1" class="node">
<title>/test/paint_model_test.dart</title>
<path fill="Lavender" stroke="black" stroke-width="1.3" d="M153.57,-517C153.57,-517 47.57,-517 47.57,-517 41.57,-517 35.57,-511 35.57,-505 35.57,-505 35.57,-493 35.57,-493 35.57,-487 41.57,-481 47.57,-481 47.57,-481 153.57,-481 153.57,-481 159.57,-481 165.57,-487 165.57,-493 165.57,-493 165.57,-505 165.57,-505 165.57,-511 159.57,-517 153.57,-517"/>
<text text-anchor="middle" x="100.57" y="-493.75" font-family="Arial" font-size="15.00">paint_model_test</text>
</g>
<!-- /lib/models/paint_model.dart -->
<g id="node8" class="node">
<title>/lib/models/paint_model.dart</title>
<path fill="Lavender" stroke="black" stroke-width="1.3" d="M131.07,-212C131.07,-212 58.07,-212 58.07,-212 52.07,-212 46.07,-206 46.07,-200 46.07,-200 46.07,-188 46.07,-188 46.07,-182 52.07,-176 58.07,-176 58.07,-176 131.07,-176 131.07,-176 137.07,-176 143.07,-182 143.07,-188 143.07,-188 143.07,-200 143.07,-200 143.07,-206 137.07,-212 131.07,-212"/>
<text text-anchor="middle" x="94.57" y="-188.75" font-family="Arial" font-size="15.00">paint_model</text>
</g>
<!-- /test/paint_model_test.dart&#45;&gt;/lib/models/paint_model.dart -->
<g id="edge1" class="edge">
<title>/test/paint_model_test.dart&#45;&gt;/lib/models/paint_model.dart</title>
<path fill="none" stroke="#aabbaa" stroke-width="1.3" stroke-opacity="0.533333" d="M49.13,-480.56C42.96,-476.39 37.47,-471.28 33.57,-465 -16.68,-384.24 -4.7,-338.07 33.57,-251 38.84,-239.01 48.08,-228.46 57.8,-219.85"/>
<polygon fill="#aabbaa" fill-opacity="0.533333" stroke="#aabbaa" stroke-width="1.3" stroke-opacity="0.533333" points="59.73,-222.79 65.25,-213.74 55.3,-217.38 59.73,-222.79"/>
</g>
<!-- /test/widget_test.dart -->
<g id="node2" class="node">
<title>/test/widget_test.dart</title>
<path fill="Lavender" stroke="black" stroke-width="1.3" d="M263.44,-517C263.44,-517 195.69,-517 195.69,-517 189.69,-517 183.69,-511 183.69,-505 183.69,-505 183.69,-493 183.69,-493 183.69,-487 189.69,-481 195.69,-481 195.69,-481 263.44,-481 263.44,-481 269.44,-481 275.44,-487 275.44,-493 275.44,-493 275.44,-505 275.44,-505 275.44,-511 269.44,-517 263.44,-517"/>
<text text-anchor="middle" x="229.57" y="-493.75" font-family="Arial" font-size="15.00">widget_test</text>
</g>
<!-- /lib/main.dart -->
<g id="node9" class="node">
<title>/lib/main.dart</title>
<path fill="Lavender" stroke="black" stroke-width="1.3" d="M183.57,-434C183.57,-434 153.57,-434 153.57,-434 147.57,-434 141.57,-428 141.57,-422 141.57,-422 141.57,-410 141.57,-410 141.57,-404 147.57,-398 153.57,-398 153.57,-398 183.57,-398 183.57,-398 189.57,-398 195.57,-404 195.57,-410 195.57,-410 195.57,-422 195.57,-422 195.57,-428 189.57,-434 183.57,-434"/>
<text text-anchor="middle" x="168.57" y="-410.75" font-family="Arial" font-size="15.00">main</text>
</g>
<!-- /test/widget_test.dart&#45;&gt;/lib/main.dart -->
<g id="edge2" class="edge">
<title>/test/widget_test.dart&#45;&gt;/lib/main.dart</title>
<path fill="none" stroke="#aabbaa" stroke-width="1.3" stroke-opacity="0.533333" d="M216.63,-480.82C208.52,-470.05 197.89,-455.94 188.69,-443.72"/>
<polygon fill="#aabbaa" fill-opacity="0.533333" stroke="#aabbaa" stroke-width="1.3" stroke-opacity="0.533333" points="191.69,-441.89 182.88,-436 186.1,-446.1 191.69,-441.89"/>
</g>
<!-- /lib/panels/tools_panel.dart -->
<g id="node3" class="node">
<title>/lib/panels/tools_panel.dart</title>
<path fill="Lavender" stroke="black" stroke-width="1.3" d="M365.44,-287C365.44,-287 297.69,-287 297.69,-287 291.69,-287 285.69,-281 285.69,-275 285.69,-275 285.69,-263 285.69,-263 285.69,-257 291.69,-251 297.69,-251 297.69,-251 365.44,-251 365.44,-251 371.44,-251 377.44,-257 377.44,-263 377.44,-263 377.44,-275 377.44,-275 377.44,-281 371.44,-287 365.44,-287"/>
<text text-anchor="middle" x="331.57" y="-263.75" font-family="Arial" font-size="15.00">tools_panel</text>
</g>
<!-- /lib/panels/tool.dart -->
<g id="node5" class="node">
<title>/lib/panels/tool.dart</title>
<path fill="Lavender" stroke="black" stroke-width="1.3" d="M346.57,-212C346.57,-212 316.57,-212 316.57,-212 310.57,-212 304.57,-206 304.57,-200 304.57,-200 304.57,-188 304.57,-188 304.57,-182 310.57,-176 316.57,-176 316.57,-176 346.57,-176 346.57,-176 352.57,-176 358.57,-182 358.57,-188 358.57,-188 358.57,-200 358.57,-200 358.57,-206 352.57,-212 346.57,-212"/>
<text text-anchor="middle" x="331.57" y="-188.75" font-family="Arial" font-size="15.00">tool</text>
</g>
<!-- /lib/panels/tools_panel.dart&#45;&gt;/lib/panels/tool.dart -->
<g id="edge4" class="edge">
<title>/lib/panels/tools_panel.dart&#45;&gt;/lib/panels/tool.dart</title>
<path fill="none" stroke="#aabbaa" stroke-width="1.3" stroke-opacity="0.533333" d="M331.57,-250.7C331.57,-242.76 331.57,-233.12 331.57,-224.11"/>
<polygon fill="#aabbaa" fill-opacity="0.533333" stroke="#aabbaa" stroke-width="1.3" stroke-opacity="0.533333" points="335.07,-224.4 331.57,-214.4 328.07,-224.4 335.07,-224.4"/>
</g>
<!-- /lib/models/shapes.dart -->
<g id="node7" class="node">
<title>/lib/models/shapes.dart</title>
<path fill="Lavender" stroke="black" stroke-width="1.3" d="M114.57,-68C114.57,-68 74.57,-68 74.57,-68 68.57,-68 62.57,-62 62.57,-56 62.57,-56 62.57,-44 62.57,-44 62.57,-38 68.57,-32 74.57,-32 74.57,-32 114.57,-32 114.57,-32 120.57,-32 126.57,-38 126.57,-44 126.57,-44 126.57,-56 126.57,-56 126.57,-62 120.57,-68 114.57,-68"/>
<text text-anchor="middle" x="94.57" y="-44.75" font-family="Arial" font-size="15.00">shapes</text>
</g>
<!-- /lib/panels/tools_panel.dart&#45;&gt;/lib/models/shapes.dart -->
<g id="edge3" class="edge">
<title>/lib/panels/tools_panel.dart&#45;&gt;/lib/models/shapes.dart</title>
<path fill="none" stroke="#aabbaa" stroke-width="1.3" stroke-opacity="0.533333" d="M305.64,-250.72C302.19,-248.21 298.75,-245.6 295.57,-243 228.09,-187.9 155.82,-115.03 119.08,-76.86"/>
<polygon fill="#aabbaa" fill-opacity="0.533333" stroke="#aabbaa" stroke-width="1.3" stroke-opacity="0.533333" points="121.76,-74.59 112.31,-69.79 116.7,-79.43 121.76,-74.59"/>
</g>
<!-- /lib/panels/layers_panel.dart -->
<g id="node4" class="node">
<title>/lib/panels/layers_panel.dart</title>
<path fill="Lavender" stroke="black" stroke-width="1.3" d="M255.57,-287C255.57,-287 179.57,-287 179.57,-287 173.57,-287 167.57,-281 167.57,-275 167.57,-275 167.57,-263 167.57,-263 167.57,-257 173.57,-251 179.57,-251 179.57,-251 255.57,-251 255.57,-251 261.57,-251 267.57,-257 267.57,-263 267.57,-263 267.57,-275 267.57,-275 267.57,-281 261.57,-287 255.57,-287"/>
<text text-anchor="middle" x="217.57" y="-263.75" font-family="Arial" font-size="15.00">layers_panel</text>
</g>
<!-- /lib/panels/layers_panel.dart&#45;&gt;/lib/models/paint_model.dart -->
<g id="edge5" class="edge">
<title>/lib/panels/layers_panel.dart&#45;&gt;/lib/models/paint_model.dart</title>
<path fill="none" stroke="#aabbaa" stroke-width="1.3" stroke-opacity="0.533333" d="M170.18,-250.53C165.15,-248.2 160.19,-245.68 155.57,-243 144.17,-236.4 132.58,-227.84 122.61,-219.78"/>
<polygon fill="#aabbaa" fill-opacity="0.533333" stroke="#aabbaa" stroke-width="1.3" stroke-opacity="0.533333" points="125.04,-217.25 115.11,-213.54 120.56,-222.63 125.04,-217.25"/>
</g>
<!-- /lib/models/layers.dart -->
<g id="node6" class="node">
<title>/lib/models/layers.dart</title>
<path fill="Lavender" stroke="black" stroke-width="1.3" d="M110.44,-140C110.44,-140 78.69,-140 78.69,-140 72.69,-140 66.69,-134 66.69,-128 66.69,-128 66.69,-116 66.69,-116 66.69,-110 72.69,-104 78.69,-104 78.69,-104 110.44,-104 110.44,-104 116.44,-104 122.44,-110 122.44,-116 122.44,-116 122.44,-128 122.44,-128 122.44,-134 116.44,-140 110.44,-140"/>
<text text-anchor="middle" x="94.57" y="-116.75" font-family="Arial" font-size="15.00">layers</text>
</g>
<!-- /lib/models/layers.dart&#45;&gt;/lib/models/shapes.dart -->
<g id="edge6" class="edge">
<title>/lib/models/layers.dart&#45;&gt;/lib/models/shapes.dart</title>
<path fill="none" stroke="#aabbaa" stroke-width="1.3" stroke-opacity="0.533333" d="M88.65,-103.7C87.91,-96.49 87.66,-87.93 87.91,-79.82"/>
<polygon fill="#aabbaa" fill-opacity="0.533333" stroke="#aabbaa" stroke-width="1.3" stroke-opacity="0.533333" points="91.39,-80.27 88.54,-70.07 84.4,-79.82 91.39,-80.27"/>
</g>
<!-- /lib/models/layers.dart&#45;&gt;/lib/models/shapes.dart -->
<g id="edge7" class="edge">
<title>/lib/models/layers.dart&#45;&gt;/lib/models/shapes.dart</title>
<path fill="none" stroke="#aabbaa" stroke-width="1.3" stroke-dasharray="5,2" stroke-opacity="0.533333" d="M100.48,-103.7C101.22,-96.49 101.47,-87.93 101.22,-79.82"/>
<polygon fill="#aabbaa" fill-opacity="0.533333" stroke="#aabbaa" stroke-width="1.3" stroke-opacity="0.533333" points="104.73,-79.82 100.59,-70.07 97.74,-80.27 104.73,-79.82"/>
</g>
<!-- /lib/models/paint_model.dart&#45;&gt;/lib/models/layers.dart -->
<g id="edge8" class="edge">
<title>/lib/models/paint_model.dart&#45;&gt;/lib/models/layers.dart</title>
<path fill="none" stroke="#aabbaa" stroke-width="1.3" stroke-opacity="0.533333" d="M88.65,-175.7C87.91,-168.49 87.66,-159.93 87.91,-151.82"/>
<polygon fill="#aabbaa" fill-opacity="0.533333" stroke="#aabbaa" stroke-width="1.3" stroke-opacity="0.533333" points="91.39,-152.27 88.54,-142.07 84.4,-151.82 91.39,-152.27"/>
</g>
<!-- /lib/models/paint_model.dart&#45;&gt;/lib/models/layers.dart -->
<g id="edge9" class="edge">
<title>/lib/models/paint_model.dart&#45;&gt;/lib/models/layers.dart</title>
<path fill="none" stroke="#aabbaa" stroke-width="1.3" stroke-dasharray="5,2" stroke-opacity="0.533333" d="M100.48,-175.7C101.22,-168.49 101.47,-159.93 101.22,-151.82"/>
<polygon fill="#aabbaa" fill-opacity="0.533333" stroke="#aabbaa" stroke-width="1.3" stroke-opacity="0.533333" points="104.73,-151.82 100.59,-142.07 97.74,-152.27 104.73,-151.82"/>
</g>
<!-- /lib/main.dart&#45;&gt;/lib/models/paint_model.dart -->
<g id="edge11" class="edge">
<title>/lib/main.dart&#45;&gt;/lib/models/paint_model.dart</title>
<path fill="none" stroke="#aabbaa" stroke-width="1.3" stroke-opacity="0.533333" d="M141.47,-399.86C115.43,-383.55 77.84,-354.87 62.57,-318 51.17,-290.49 54.92,-279.78 62.57,-251 65.22,-241 70.13,-230.92 75.32,-222.12"/>
<polygon fill="#aabbaa" fill-opacity="0.533333" stroke="#aabbaa" stroke-width="1.3" stroke-opacity="0.533333" points="78.21,-224.1 80.6,-213.78 72.3,-220.36 78.21,-224.1"/>
</g>
<!-- /lib/home_screen.dart -->
<g id="node11" class="node">
<title>/lib/home_screen.dart</title>
<path fill="Lavender" stroke="black" stroke-width="1.3" d="M209.94,-362C209.94,-362 127.19,-362 127.19,-362 121.19,-362 115.19,-356 115.19,-350 115.19,-350 115.19,-338 115.19,-338 115.19,-332 121.19,-326 127.19,-326 127.19,-326 209.94,-326 209.94,-326 215.94,-326 221.94,-332 221.94,-338 221.94,-338 221.94,-350 221.94,-350 221.94,-356 215.94,-362 209.94,-362"/>
<text text-anchor="middle" x="168.57" y="-338.75" font-family="Arial" font-size="15.00">home_screen</text>
</g>
<!-- /lib/main.dart&#45;&gt;/lib/home_screen.dart -->
<g id="edge10" class="edge">
<title>/lib/main.dart&#45;&gt;/lib/home_screen.dart</title>
<path fill="none" stroke="#aabbaa" stroke-width="1.3" stroke-opacity="0.533333" d="M168.57,-397.7C168.57,-390.49 168.57,-381.93 168.57,-373.82"/>
<polygon fill="#aabbaa" fill-opacity="0.533333" stroke="#aabbaa" stroke-width="1.3" stroke-opacity="0.533333" points="172.07,-374.07 168.57,-364.07 165.07,-374.07 172.07,-374.07"/>
</g>
<!-- /lib/painter.dart -->
<g id="node10" class="node">
<title>/lib/painter.dart</title>
<path fill="Lavender" stroke="black" stroke-width="1.3" d="M137.44,-287C137.44,-287 99.69,-287 99.69,-287 93.69,-287 87.69,-281 87.69,-275 87.69,-275 87.69,-263 87.69,-263 87.69,-257 93.69,-251 99.69,-251 99.69,-251 137.44,-251 137.44,-251 143.44,-251 149.44,-257 149.44,-263 149.44,-263 149.44,-275 149.44,-275 149.44,-281 143.44,-287 137.44,-287"/>
<text text-anchor="middle" x="118.57" y="-263.75" font-family="Arial" font-size="15.00">painter</text>
</g>
<!-- /lib/painter.dart&#45;&gt;/lib/models/paint_model.dart -->
<g id="edge12" class="edge">
<title>/lib/painter.dart&#45;&gt;/lib/models/paint_model.dart</title>
<path fill="none" stroke="#aabbaa" stroke-width="1.3" stroke-opacity="0.533333" d="M112.88,-250.7C110.21,-242.58 106.95,-232.68 103.93,-223.5"/>
<polygon fill="#aabbaa" fill-opacity="0.533333" stroke="#aabbaa" stroke-width="1.3" stroke-opacity="0.533333" points="107.36,-222.7 100.91,-214.3 100.71,-224.89 107.36,-222.7"/>
</g>
<!-- /lib/home_screen.dart&#45;&gt;/lib/panels/tools_panel.dart -->
<g id="edge14" class="edge">
<title>/lib/home_screen.dart&#45;&gt;/lib/panels/tools_panel.dart</title>
<path fill="none" stroke="#aabbaa" stroke-width="1.3" stroke-opacity="0.533333" d="M222.29,-335.94C240.21,-332.2 259.86,-326.54 276.57,-318 287.91,-312.2 298.82,-303.56 307.89,-295.2"/>
<polygon fill="#aabbaa" fill-opacity="0.533333" stroke="#aabbaa" stroke-width="1.3" stroke-opacity="0.533333" points="310.14,-297.89 314.89,-288.42 305.27,-292.87 310.14,-297.89"/>
</g>
<!-- /lib/home_screen.dart&#45;&gt;/lib/panels/layers_panel.dart -->
<g id="edge13" class="edge">
<title>/lib/home_screen.dart&#45;&gt;/lib/panels/layers_panel.dart</title>
<path fill="none" stroke="#aabbaa" stroke-width="1.3" stroke-opacity="0.533333" d="M180.18,-325.7C185.87,-317.22 192.87,-306.8 199.26,-297.28"/>
<polygon fill="#aabbaa" fill-opacity="0.533333" stroke="#aabbaa" stroke-width="1.3" stroke-opacity="0.533333" points="202.1,-299.32 204.77,-289.06 196.29,-295.41 202.1,-299.32"/>
</g>
<!-- /lib/home_screen.dart&#45;&gt;/lib/models/paint_model.dart -->
<g id="edge15" class="edge">
<title>/lib/home_screen.dart&#45;&gt;/lib/models/paint_model.dart</title>
<path fill="none" stroke="#aabbaa" stroke-width="1.3" stroke-opacity="0.533333" d="M114.79,-339.63C100.84,-336.01 87.3,-329.49 78.57,-318 57.93,-290.85 68.95,-250.22 80.36,-223.17"/>
<polygon fill="#aabbaa" fill-opacity="0.533333" stroke="#aabbaa" stroke-width="1.3" stroke-opacity="0.533333" points="83.44,-224.84 84.37,-214.29 77.06,-221.96 83.44,-224.84"/>
</g>
<!-- /lib/home_screen.dart&#45;&gt;/lib/painter.dart -->
<g id="edge16" class="edge">
<title>/lib/home_screen.dart&#45;&gt;/lib/painter.dart</title>
<path fill="none" stroke="#aabbaa" stroke-width="1.3" stroke-opacity="0.533333" d="M156.72,-325.7C150.91,-317.22 143.77,-306.8 137.25,-297.28"/>
<polygon fill="#aabbaa" fill-opacity="0.533333" stroke="#aabbaa" stroke-width="1.3" stroke-opacity="0.533333" points="140.15,-295.32 131.62,-289.05 134.38,-299.28 140.15,-295.32"/>
</g>
</g>
</svg>
