<?xml version="1.0" encoding="UTF-8" standalone="no"?>
<!DOCTYPE svg PUBLIC "-//W3C//DTD SVG 1.1//EN"
 "http://www.w3.org/Graphics/SVG/1.1/DTD/svg11.dtd">
<!-- Generated by graphviz version 12.2.1 (20241206.2353)
 -->
<!-- Pages: 1 -->
<svg width="2711pt" height="839pt"
 viewBox="0.00 0.00 2711.00 839.00" xmlns="http://www.w3.org/2000/svg" xmlns:xlink="http://www.w3.org/1999/xlink">
<g id="graph0" class="graph" transform="scale(1 1) rotate(0) translate(4 835)">
<polygon fill="white" stroke="none" points="-4,4 -4,-835 2707,-835 2707,4 -4,4"/>
<g id="clust1" class="cluster">
<title>cluster~</title>
<path fill="none" stroke="lightgray" stroke-width="2.6" d="M20,-8C20,-8 2683,-8 2683,-8 2689,-8 2695,-14 2695,-20 2695,-20 2695,-811 2695,-811 2695,-817 2689,-823 2683,-823 2683,-823 20,-823 20,-823 14,-823 8,-817 8,-811 8,-811 8,-20 8,-20 8,-14 14,-8 20,-8"/>
<text text-anchor="middle" x="1351.5" y="-806.65" font-family="Arial Black" font-size="13.00">fpaint</text>
</g>
<g id="clust2" class="cluster">
<title>cluster~/test</title>
<path fill="none" stroke="lightgray" stroke-width="2.6" d="M961,-639C961,-639 1547,-639 1547,-639 1553,-639 1559,-645 1559,-651 1559,-651 1559,-780 1559,-780 1559,-786 1553,-792 1547,-792 1547,-792 961,-792 961,-792 955,-792 949,-786 949,-780 949,-780 949,-651 949,-651 949,-645 955,-639 961,-639"/>
<text text-anchor="middle" x="1254" y="-775.65" font-family="Arial Black" font-size="13.00">test</text>
</g>
<g id="clust3" class="cluster">
<title>cluster~/test/panels</title>
<path fill="none" stroke="lightgray" stroke-width="2.6" d="M1107,-647C1107,-647 1219,-647 1219,-647 1225,-647 1231,-653 1231,-659 1231,-659 1231,-749 1231,-749 1231,-755 1225,-761 1219,-761 1219,-761 1107,-761 1107,-761 1101,-761 1095,-755 1095,-749 1095,-749 1095,-659 1095,-659 1095,-653 1101,-647 1107,-647"/>
<text text-anchor="middle" x="1163" y="-744.65" font-family="Arial Black" font-size="13.00">panels</text>
</g>
<g id="clust4" class="cluster">
<title>cluster~/test/panels/tools</title>
<path fill="none" stroke="lightgray" stroke-width="2.6" d="M1115,-655C1115,-655 1211,-655 1211,-655 1217,-655 1223,-661 1223,-667 1223,-667 1223,-718 1223,-718 1223,-724 1217,-730 1211,-730 1211,-730 1115,-730 1115,-730 1109,-730 1103,-724 1103,-718 1103,-718 1103,-667 1103,-667 1103,-661 1109,-655 1115,-655"/>
<text text-anchor="middle" x="1163" y="-713.65" font-family="Arial Black" font-size="13.00">tools</text>
</g>
<g id="clust5" class="cluster">
<title>cluster~/lib</title>
<path fill="none" stroke="lightgray" stroke-width="2.6" d="M40,-16C40,-16 2675,-16 2675,-16 2681,-16 2687,-22 2687,-28 2687,-28 2687,-619 2687,-619 2687,-625 2681,-631 2675,-631 2675,-631 40,-631 40,-631 34,-631 28,-625 28,-619 28,-619 28,-28 28,-28 28,-22 34,-16 40,-16"/>
<text text-anchor="middle" x="1357.5" y="-614.65" font-family="Arial Black" font-size="13.00">lib</text>
</g>
<g id="clust6" class="cluster">
<title>cluster~/lib/panels</title>
<path fill="none" stroke="lightgray" stroke-width="2.6" d="M1082,-179C1082,-179 1611,-179 1611,-179 1617,-179 1623,-185 1623,-191 1623,-191 1623,-472 1623,-472 1623,-478 1617,-484 1611,-484 1611,-484 1082,-484 1082,-484 1076,-484 1070,-478 1070,-472 1070,-472 1070,-191 1070,-191 1070,-185 1076,-179 1082,-179"/>
<text text-anchor="middle" x="1346.5" y="-467.65" font-family="Arial Black" font-size="13.00">panels</text>
</g>
<g id="clust7" class="cluster">
<title>cluster~/lib/panels/tools</title>
<path fill="none" stroke="lightgray" stroke-width="2.6" d="M1331,-262C1331,-262 1603,-262 1603,-262 1609,-262 1615,-268 1615,-274 1615,-274 1615,-397 1615,-397 1615,-403 1609,-409 1603,-409 1603,-409 1331,-409 1331,-409 1325,-409 1319,-403 1319,-397 1319,-397 1319,-274 1319,-274 1319,-268 1325,-262 1331,-262"/>
<text text-anchor="middle" x="1467" y="-392.65" font-family="Arial Black" font-size="13.00">tools</text>
</g>
<g id="clust8" class="cluster">
<title>cluster~/lib/panels/layers</title>
<path fill="none" stroke="lightgray" stroke-width="2.6" d="M1197,-262C1197,-262 1299,-262 1299,-262 1305,-262 1311,-268 1311,-274 1311,-274 1311,-397 1311,-397 1311,-403 1305,-409 1299,-409 1299,-409 1197,-409 1197,-409 1191,-409 1185,-403 1185,-397 1185,-397 1185,-274 1185,-274 1185,-268 1191,-262 1197,-262"/>
<text text-anchor="middle" x="1248" y="-392.65" font-family="Arial Black" font-size="13.00">layers</text>
</g>
<g id="clust9" class="cluster">
<title>cluster~/lib/models</title>
<path fill="none" stroke="lightgray" stroke-width="2.6" d="M845,-179C845,-179 1038,-179 1038,-179 1044,-179 1050,-185 1050,-191 1050,-191 1050,-397 1050,-397 1050,-403 1044,-409 1038,-409 1038,-409 845,-409 845,-409 839,-409 833,-403 833,-397 833,-397 833,-191 833,-191 833,-185 839,-179 845,-179"/>
<text text-anchor="middle" x="941.5" y="-392.65" font-family="Arial Black" font-size="13.00">models</text>
</g>
<g id="clust10" class="cluster">
<title>cluster~/lib/files</title>
<path fill="none" stroke="lightgray" stroke-width="2.6" d="M98,-262C98,-262 813,-262 813,-262 819,-262 825,-268 825,-274 825,-274 825,-397 825,-397 825,-403 819,-409 813,-409 813,-409 98,-409 98,-409 92,-409 86,-403 86,-397 86,-397 86,-274 86,-274 86,-268 92,-262 98,-262"/>
<text text-anchor="middle" x="455.5" y="-392.65" font-family="Arial Black" font-size="13.00">files</text>
</g>
<g id="clust11" class="cluster">
<title>cluster~/lib/helpers</title>
<path fill="none" stroke="lightgray" stroke-width="2.6" d="M2565,-24C2565,-24 2655,-24 2655,-24 2661,-24 2667,-30 2667,-36 2667,-36 2667,-159 2667,-159 2667,-165 2661,-171 2655,-171 2655,-171 2565,-171 2565,-171 2559,-171 2553,-165 2553,-159 2553,-159 2553,-36 2553,-36 2553,-30 2559,-24 2565,-24"/>
<text text-anchor="middle" x="2610" y="-154.65" font-family="Arial Black" font-size="13.00">helpers</text>
</g>
<g id="clust12" class="cluster">
<title>cluster~/lib/widgets</title>
<path fill="none" stroke="lightgray" stroke-width="2.6" d="M1643,-96C1643,-96 2533,-96 2533,-96 2539,-96 2545,-102 2545,-108 2545,-108 2545,-242 2545,-242 2545,-248 2539,-254 2533,-254 2533,-254 1643,-254 1643,-254 1637,-254 1631,-248 1631,-242 1631,-242 1631,-108 1631,-108 1631,-102 1637,-96 1643,-96"/>
<text text-anchor="middle" x="2088" y="-237.65" font-family="Arial Black" font-size="13.00">widgets</text>
</g>
<!-- /test/paint_model_test.dart -->
<g id="node1" class="node">
<title>/test/paint_model_test.dart</title>
<path fill="Lavender" stroke="black" stroke-width="1.3" d="M1075,-699C1075,-699 969,-699 969,-699 963,-699 957,-693 957,-687 957,-687 957,-675 957,-675 957,-669 963,-663 969,-663 969,-663 1075,-663 1075,-663 1081,-663 1087,-669 1087,-675 1087,-675 1087,-687 1087,-687 1087,-693 1081,-699 1075,-699"/>
<text text-anchor="middle" x="1022" y="-675.75" font-family="Arial" font-size="15.00">paint_model_test</text>
</g>
<!-- /lib/models/app_model.dart -->
<g id="node17" class="node">
<title>/lib/models/app_model.dart</title>
<path fill="Lavender" stroke="black" stroke-width="1.3" d="M918.75,-223C918.75,-223 853.25,-223 853.25,-223 847.25,-223 841.25,-217 841.25,-211 841.25,-211 841.25,-199 841.25,-199 841.25,-193 847.25,-187 853.25,-187 853.25,-187 918.75,-187 918.75,-187 924.75,-187 930.75,-193 930.75,-199 930.75,-199 930.75,-211 930.75,-211 930.75,-217 924.75,-223 918.75,-223"/>
<text text-anchor="middle" x="886" y="-199.75" font-family="Arial" font-size="15.00">app_model</text>
</g>
<!-- /test/paint_model_test.dart&#45;&gt;/lib/models/app_model.dart -->
<g id="edge1" class="edge">
<title>/test/paint_model_test.dart&#45;&gt;/lib/models/app_model.dart</title>
<path fill="none" stroke="#aabbaa" stroke-width="1.3" stroke-opacity="0.533333" d="M956.56,-679.19C739.47,-676.21 54.95,-664.19 22,-631 -15.61,-593.12 17,-564.38 17,-511 17,-511 17,-511 17,-359 17,-315.78 -6.67,-292.45 24,-262 80.99,-205.42 646.03,-204.32 829.09,-205.47"/>
<polygon fill="#aabbaa" fill-opacity="0.533333" stroke="#aabbaa" stroke-width="1.3" stroke-opacity="0.533333" points="828.85,-208.96 838.87,-205.53 828.89,-201.96 828.85,-208.96"/>
</g>
<!-- /test/panels/tools/flood_fill_test.dart -->
<g id="node2" class="node">
<title>/test/panels/tools/flood_fill_test.dart</title>
<path fill="Lavender" stroke="black" stroke-width="1.3" d="M1202.5,-699C1202.5,-699 1123.5,-699 1123.5,-699 1117.5,-699 1111.5,-693 1111.5,-687 1111.5,-687 1111.5,-675 1111.5,-675 1111.5,-669 1117.5,-663 1123.5,-663 1123.5,-663 1202.5,-663 1202.5,-663 1208.5,-663 1214.5,-669 1214.5,-675 1214.5,-675 1214.5,-687 1214.5,-687 1214.5,-693 1208.5,-699 1202.5,-699"/>
<text text-anchor="middle" x="1163" y="-675.75" font-family="Arial" font-size="15.00">flood_fill_test</text>
</g>
<!-- /lib/panels/tools/flood_fill.dart -->
<g id="node7" class="node">
<title>/lib/panels/tools/flood_fill.dart</title>
<path fill="Lavender" stroke="black" stroke-width="1.3" d="M1530,-378C1530,-378 1484,-378 1484,-378 1478,-378 1472,-372 1472,-366 1472,-366 1472,-354 1472,-354 1472,-348 1478,-342 1484,-342 1484,-342 1530,-342 1530,-342 1536,-342 1542,-348 1542,-354 1542,-354 1542,-366 1542,-366 1542,-372 1536,-378 1530,-378"/>
<text text-anchor="middle" x="1507" y="-354.75" font-family="Arial" font-size="15.00">flood_fill</text>
</g>
<!-- /test/panels/tools/flood_fill_test.dart&#45;&gt;/lib/panels/tools/flood_fill.dart -->
<g id="edge2" class="edge">
<title>/test/panels/tools/flood_fill_test.dart&#45;&gt;/lib/panels/tools/flood_fill.dart</title>
<path fill="none" stroke="#aabbaa" stroke-width="1.3" stroke-opacity="0.533333" d="M1145.86,-662.72C1135.77,-653.78 1122.23,-643.78 1108,-639 1093.96,-634.29 52.43,-641.51 42,-631 20.24,-609.08 20.97,-514.63 42,-492 119.67,-408.44 952.04,-422.32 1066,-417 1088.04,-415.97 1442.9,-418.09 1463,-409 1473.33,-404.33 1482.32,-395.96 1489.43,-387.5"/>
<polygon fill="#aabbaa" fill-opacity="0.533333" stroke="#aabbaa" stroke-width="1.3" stroke-opacity="0.533333" points="1492.13,-389.72 1495.44,-379.66 1486.57,-385.47 1492.13,-389.72"/>
</g>
<!-- /test/widget_test.dart -->
<g id="node3" class="node">
<title>/test/widget_test.dart</title>
<path fill="Lavender" stroke="black" stroke-width="1.3" d="M1318.88,-699C1318.88,-699 1251.12,-699 1251.12,-699 1245.12,-699 1239.12,-693 1239.12,-687 1239.12,-687 1239.12,-675 1239.12,-675 1239.12,-669 1245.12,-663 1251.12,-663 1251.12,-663 1318.88,-663 1318.88,-663 1324.88,-663 1330.88,-669 1330.88,-675 1330.88,-675 1330.88,-687 1330.88,-687 1330.88,-693 1324.88,-699 1318.88,-699"/>
<text text-anchor="middle" x="1285" y="-675.75" font-family="Arial" font-size="15.00">widget_test</text>
</g>
<!-- /lib/main.dart -->
<g id="node19" class="node">
<title>/lib/main.dart</title>
<path fill="Lavender" stroke="black" stroke-width="1.3" d="M1105,-600C1105,-600 1075,-600 1075,-600 1069,-600 1063,-594 1063,-588 1063,-588 1063,-576 1063,-576 1063,-570 1069,-564 1075,-564 1075,-564 1105,-564 1105,-564 1111,-564 1117,-570 1117,-576 1117,-576 1117,-588 1117,-588 1117,-594 1111,-600 1105,-600"/>
<text text-anchor="middle" x="1090" y="-576.75" font-family="Arial" font-size="15.00">main</text>
</g>
<!-- /test/widget_test.dart&#45;&gt;/lib/main.dart -->
<g id="edge3" class="edge">
<title>/test/widget_test.dart&#45;&gt;/lib/main.dart</title>
<path fill="none" stroke="#aabbaa" stroke-width="1.3" stroke-opacity="0.533333" d="M1262.91,-662.59C1252.4,-654.79 1239.43,-645.82 1227,-639 1195.02,-621.46 1156.39,-606.15 1128.31,-596"/>
<polygon fill="#aabbaa" fill-opacity="0.533333" stroke="#aabbaa" stroke-width="1.3" stroke-opacity="0.533333" points="1129.8,-592.81 1119.2,-592.76 1127.45,-599.41 1129.8,-592.81"/>
</g>
<!-- /test/file_xcf_test.dart -->
<g id="node4" class="node">
<title>/test/file_xcf_test.dart</title>
<path fill="Lavender" stroke="black" stroke-width="1.3" d="M1432.75,-699C1432.75,-699 1361.25,-699 1361.25,-699 1355.25,-699 1349.25,-693 1349.25,-687 1349.25,-687 1349.25,-675 1349.25,-675 1349.25,-669 1355.25,-663 1361.25,-663 1361.25,-663 1432.75,-663 1432.75,-663 1438.75,-663 1444.75,-669 1444.75,-675 1444.75,-675 1444.75,-687 1444.75,-687 1444.75,-693 1438.75,-699 1432.75,-699"/>
<text text-anchor="middle" x="1397" y="-675.75" font-family="Arial" font-size="15.00">file_xcf_test</text>
</g>
<!-- /lib/files/xcf_reader.dart -->
<g id="node20" class="node">
<title>/lib/files/xcf_reader.dart</title>
<path fill="Lavender" stroke="black" stroke-width="1.3" d="M169.62,-378C169.62,-378 106.38,-378 106.38,-378 100.38,-378 94.38,-372 94.38,-366 94.38,-366 94.38,-354 94.38,-354 94.38,-348 100.38,-342 106.38,-342 106.38,-342 169.62,-342 169.62,-342 175.62,-342 181.62,-348 181.62,-354 181.62,-354 181.62,-366 181.62,-366 181.62,-372 175.62,-378 169.62,-378"/>
<text text-anchor="middle" x="138" y="-354.75" font-family="Arial" font-size="15.00">xcf_reader</text>
</g>
<!-- /test/file_xcf_test.dart&#45;&gt;/lib/files/xcf_reader.dart -->
<g id="edge5" class="edge">
<title>/test/file_xcf_test.dart&#45;&gt;/lib/files/xcf_reader.dart</title>
<path fill="none" stroke="#aabbaa" stroke-width="1.3" stroke-opacity="0.533333" d="M1415.45,-662.5C1425.9,-653.74 1439.72,-643.97 1454,-639 1472.17,-632.68 1613.71,-644.92 1627,-631 1635.21,-622.4 1635.38,-425.43 1627,-417 1612.94,-402.86 209.59,-416.23 191,-409 179.02,-404.34 168.07,-395.61 159.27,-386.85"/>
<polygon fill="#aabbaa" fill-opacity="0.533333" stroke="#aabbaa" stroke-width="1.3" stroke-opacity="0.533333" points="161.95,-384.6 152.57,-379.68 156.83,-389.37 161.95,-384.6"/>
</g>
<!-- /lib/files/assets_helper.dart -->
<g id="node21" class="node">
<title>/lib/files/assets_helper.dart</title>
<path fill="Lavender" stroke="black" stroke-width="1.3" d="M296.5,-378C296.5,-378 211.5,-378 211.5,-378 205.5,-378 199.5,-372 199.5,-366 199.5,-366 199.5,-354 199.5,-354 199.5,-348 205.5,-342 211.5,-342 211.5,-342 296.5,-342 296.5,-342 302.5,-342 308.5,-348 308.5,-354 308.5,-354 308.5,-366 308.5,-366 308.5,-372 302.5,-378 296.5,-378"/>
<text text-anchor="middle" x="254" y="-354.75" font-family="Arial" font-size="15.00">assets_helper</text>
</g>
<!-- /test/file_xcf_test.dart&#45;&gt;/lib/files/assets_helper.dart -->
<g id="edge4" class="edge">
<title>/test/file_xcf_test.dart&#45;&gt;/lib/files/assets_helper.dart</title>
<path fill="none" stroke="#aabbaa" stroke-width="1.3" stroke-opacity="0.533333" d="M1415.19,-662.7C1425.68,-653.88 1439.6,-643.99 1454,-639 1473.23,-632.34 1622.93,-645.7 1637,-631 1669.88,-596.65 1670.52,-450.73 1637,-417 1624.09,-404.01 335.36,-414.85 318,-409 303.95,-404.27 290.49,-395.14 279.57,-386.1"/>
<polygon fill="#aabbaa" fill-opacity="0.533333" stroke="#aabbaa" stroke-width="1.3" stroke-opacity="0.533333" points="281.98,-383.56 272.16,-379.59 277.36,-388.82 281.98,-383.56"/>
</g>
<!-- /test/layers_test.dart -->
<g id="node5" class="node">
<title>/test/layers_test.dart</title>
<path fill="Lavender" stroke="black" stroke-width="1.3" d="M1539.38,-699C1539.38,-699 1474.62,-699 1474.62,-699 1468.62,-699 1462.62,-693 1462.62,-687 1462.62,-687 1462.62,-675 1462.62,-675 1462.62,-669 1468.62,-663 1474.62,-663 1474.62,-663 1539.38,-663 1539.38,-663 1545.38,-663 1551.38,-669 1551.38,-675 1551.38,-675 1551.38,-687 1551.38,-687 1551.38,-693 1545.38,-699 1539.38,-699"/>
<text text-anchor="middle" x="1507" y="-675.75" font-family="Arial" font-size="15.00">layers_test</text>
</g>
<!-- /lib/models/layer.dart -->
<g id="node18" class="node">
<title>/lib/models/layer.dart</title>
<path fill="Lavender" stroke="black" stroke-width="1.3" d="M988,-306C988,-306 958,-306 958,-306 952,-306 946,-300 946,-294 946,-294 946,-282 946,-282 946,-276 952,-270 958,-270 958,-270 988,-270 988,-270 994,-270 1000,-276 1000,-282 1000,-282 1000,-294 1000,-294 1000,-300 994,-306 988,-306"/>
<text text-anchor="middle" x="973" y="-282.75" font-family="Arial" font-size="15.00">layer</text>
</g>
<!-- /test/layers_test.dart&#45;&gt;/lib/models/layer.dart -->
<g id="edge6" class="edge">
<title>/test/layers_test.dart&#45;&gt;/lib/models/layer.dart</title>
<path fill="none" stroke="#aabbaa" stroke-width="1.3" stroke-opacity="0.533333" d="M1551.76,-677C1584.75,-672.31 1628.05,-660.5 1653,-631 1687.87,-589.77 1672,-565 1672,-511 1672,-511 1672,-511 1672,-434 1672,-386.81 1659.07,-366.93 1619,-342 1566.72,-309.47 1127.11,-313.55 1066,-306 1048.04,-303.78 1028.3,-300.32 1011.65,-297.1"/>
<polygon fill="#aabbaa" fill-opacity="0.533333" stroke="#aabbaa" stroke-width="1.3" stroke-opacity="0.533333" points="1012.56,-293.71 1002.07,-295.2 1011.2,-300.58 1012.56,-293.71"/>
</g>
<!-- /lib/panels/tools/tool_selector.dart -->
<g id="node6" class="node">
<title>/lib/panels/tools/tool_selector.dart</title>
<path fill="Lavender" stroke="black" stroke-width="1.3" d="M1595.38,-306C1595.38,-306 1518.62,-306 1518.62,-306 1512.62,-306 1506.62,-300 1506.62,-294 1506.62,-294 1506.62,-282 1506.62,-282 1506.62,-276 1512.62,-270 1518.62,-270 1518.62,-270 1595.38,-270 1595.38,-270 1601.38,-270 1607.38,-276 1607.38,-282 1607.38,-282 1607.38,-294 1607.38,-294 1607.38,-300 1601.38,-306 1595.38,-306"/>
<text text-anchor="middle" x="1557" y="-282.75" font-family="Arial" font-size="15.00">tool_selector</text>
</g>
<!-- /lib/panels/tools/tools_panel.dart -->
<g id="node8" class="node">
<title>/lib/panels/tools/tools_panel.dart</title>
<path fill="Lavender" stroke="black" stroke-width="1.3" d="M1441.88,-378C1441.88,-378 1374.12,-378 1374.12,-378 1368.12,-378 1362.12,-372 1362.12,-366 1362.12,-366 1362.12,-354 1362.12,-354 1362.12,-348 1368.12,-342 1374.12,-342 1374.12,-342 1441.88,-342 1441.88,-342 1447.88,-342 1453.88,-348 1453.88,-354 1453.88,-354 1453.88,-366 1453.88,-366 1453.88,-372 1447.88,-378 1441.88,-378"/>
<text text-anchor="middle" x="1408" y="-354.75" font-family="Arial" font-size="15.00">tools_panel</text>
</g>
<!-- /lib/panels/tools/tools_panel.dart&#45;&gt;/lib/panels/tools/tool_selector.dart -->
<g id="edge9" class="edge">
<title>/lib/panels/tools/tools_panel.dart&#45;&gt;/lib/panels/tools/tool_selector.dart</title>
<path fill="none" stroke="#aabbaa" stroke-width="1.3" stroke-opacity="0.533333" d="M1445.21,-341.52C1464.58,-332.42 1488.47,-321.2 1509.18,-311.46"/>
<polygon fill="#aabbaa" fill-opacity="0.533333" stroke="#aabbaa" stroke-width="1.3" stroke-opacity="0.533333" points="1510.66,-314.64 1518.22,-307.22 1507.68,-308.3 1510.66,-314.64"/>
</g>
<!-- /lib/panels/tools/tool_attributes_widget.dart -->
<g id="node9" class="node">
<title>/lib/panels/tools/tool_attributes_widget.dart</title>
<path fill="Lavender" stroke="black" stroke-width="1.3" d="M1476.75,-306C1476.75,-306 1339.25,-306 1339.25,-306 1333.25,-306 1327.25,-300 1327.25,-294 1327.25,-294 1327.25,-282 1327.25,-282 1327.25,-276 1333.25,-270 1339.25,-270 1339.25,-270 1476.75,-270 1476.75,-270 1482.75,-270 1488.75,-276 1488.75,-282 1488.75,-282 1488.75,-294 1488.75,-294 1488.75,-300 1482.75,-306 1476.75,-306"/>
<text text-anchor="middle" x="1408" y="-282.75" font-family="Arial" font-size="15.00">tool_attributes_widget</text>
</g>
<!-- /lib/panels/tools/tools_panel.dart&#45;&gt;/lib/panels/tools/tool_attributes_widget.dart -->
<g id="edge8" class="edge">
<title>/lib/panels/tools/tools_panel.dart&#45;&gt;/lib/panels/tools/tool_attributes_widget.dart</title>
<path fill="none" stroke="#aabbaa" stroke-width="1.3" stroke-opacity="0.533333" d="M1408,-341.7C1408,-334.49 1408,-325.93 1408,-317.82"/>
<polygon fill="#aabbaa" fill-opacity="0.533333" stroke="#aabbaa" stroke-width="1.3" stroke-opacity="0.533333" points="1411.5,-318.07 1408,-308.07 1404.5,-318.07 1411.5,-318.07"/>
</g>
<!-- /lib/panels/tools/tools_panel.dart&#45;&gt;/lib/models/app_model.dart -->
<g id="edge7" class="edge">
<title>/lib/panels/tools/tools_panel.dart&#45;&gt;/lib/models/app_model.dart</title>
<path fill="none" stroke="#aabbaa" stroke-width="1.3" stroke-opacity="0.533333" d="M1361.7,-350.19C1346.81,-347.45 1330.23,-344.49 1315,-342 1204.65,-323.94 1164.42,-359.07 1066,-306 1043,-293.6 1050.32,-273.79 1027,-262 991.95,-244.28 974.97,-269.77 939,-254 927.4,-248.91 916.63,-240.26 907.87,-231.69"/>
<polygon fill="#aabbaa" fill-opacity="0.533333" stroke="#aabbaa" stroke-width="1.3" stroke-opacity="0.533333" points="910.63,-229.51 901.19,-224.7 905.57,-234.35 910.63,-229.51"/>
</g>
<!-- /lib/widgets/svg_icon.dart -->
<g id="node30" class="node">
<title>/lib/widgets/svg_icon.dart</title>
<path fill="Lavender" stroke="black" stroke-width="1.3" d="M2525.25,-223C2525.25,-223 2474.75,-223 2474.75,-223 2468.75,-223 2462.75,-217 2462.75,-211 2462.75,-211 2462.75,-199 2462.75,-199 2462.75,-193 2468.75,-187 2474.75,-187 2474.75,-187 2525.25,-187 2525.25,-187 2531.25,-187 2537.25,-193 2537.25,-199 2537.25,-199 2537.25,-211 2537.25,-211 2537.25,-217 2531.25,-223 2525.25,-223"/>
<text text-anchor="middle" x="2500" y="-199.75" font-family="Arial" font-size="15.00">svg_icon</text>
</g>
<!-- /lib/panels/tools/tools_panel.dart&#45;&gt;/lib/widgets/svg_icon.dart -->
<g id="edge12" class="edge">
<title>/lib/panels/tools/tools_panel.dart&#45;&gt;/lib/widgets/svg_icon.dart</title>
<path fill="none" stroke="#aabbaa" stroke-width="1.3" stroke-opacity="0.533333" d="M1454.31,-343.79C1457.23,-343.11 1460.15,-342.5 1463,-342 1786.42,-285.06 1875.2,-347.18 2201,-306 2314.89,-291.61 2353.52,-309.51 2454,-254 2463.84,-248.57 2472.84,-240.32 2480.23,-232.19"/>
<polygon fill="#aabbaa" fill-opacity="0.533333" stroke="#aabbaa" stroke-width="1.3" stroke-opacity="0.533333" points="2482.77,-234.61 2486.57,-224.72 2477.43,-230.08 2482.77,-234.61"/>
</g>
<!-- /lib/widgets/brush_size_picker.dart -->
<g id="node33" class="node">
<title>/lib/widgets/brush_size_picker.dart</title>
<path fill="Lavender" stroke="black" stroke-width="1.3" d="M2319,-223C2319,-223 2207,-223 2207,-223 2201,-223 2195,-217 2195,-211 2195,-211 2195,-199 2195,-199 2195,-193 2201,-187 2207,-187 2207,-187 2319,-187 2319,-187 2325,-187 2331,-193 2331,-199 2331,-199 2331,-211 2331,-211 2331,-217 2325,-223 2319,-223"/>
<text text-anchor="middle" x="2263" y="-199.75" font-family="Arial" font-size="15.00">brush_size_picker</text>
</g>
<!-- /lib/panels/tools/tools_panel.dart&#45;&gt;/lib/widgets/brush_size_picker.dart -->
<g id="edge10" class="edge">
<title>/lib/panels/tools/tools_panel.dart&#45;&gt;/lib/widgets/brush_size_picker.dart</title>
<path fill="none" stroke="#aabbaa" stroke-width="1.3" stroke-opacity="0.533333" d="M1454.36,-344.03C1457.27,-343.29 1460.17,-342.61 1463,-342 1779.56,-274.38 1880.75,-361.73 2186,-254 2201.98,-248.36 2218.13,-238.98 2231.48,-230.01"/>
<polygon fill="#aabbaa" fill-opacity="0.533333" stroke="#aabbaa" stroke-width="1.3" stroke-opacity="0.533333" points="2233.29,-233.01 2239.48,-224.42 2229.28,-227.27 2233.29,-233.01"/>
</g>
<!-- /lib/widgets/color_picker.dart -->
<g id="node37" class="node">
<title>/lib/widgets/color_picker.dart</title>
<path fill="Lavender" stroke="black" stroke-width="1.3" d="M2433.12,-223C2433.12,-223 2360.88,-223 2360.88,-223 2354.88,-223 2348.88,-217 2348.88,-211 2348.88,-211 2348.88,-199 2348.88,-199 2348.88,-193 2354.88,-187 2360.88,-187 2360.88,-187 2433.12,-187 2433.12,-187 2439.12,-187 2445.12,-193 2445.12,-199 2445.12,-199 2445.12,-211 2445.12,-211 2445.12,-217 2439.12,-223 2433.12,-223"/>
<text text-anchor="middle" x="2397" y="-199.75" font-family="Arial" font-size="15.00">color_picker</text>
</g>
<!-- /lib/panels/tools/tools_panel.dart&#45;&gt;/lib/widgets/color_picker.dart -->
<g id="edge11" class="edge">
<title>/lib/panels/tools/tools_panel.dart&#45;&gt;/lib/widgets/color_picker.dart</title>
<path fill="none" stroke="#aabbaa" stroke-width="1.3" stroke-opacity="0.533333" d="M1454.32,-343.83C1457.24,-343.14 1460.15,-342.52 1463,-342 1729.35,-293.68 1802.42,-339.76 2071,-306 2191.82,-290.81 2230.11,-306.46 2340,-254 2351.73,-248.4 2363.04,-239.8 2372.44,-231.41"/>
<polygon fill="#aabbaa" fill-opacity="0.533333" stroke="#aabbaa" stroke-width="1.3" stroke-opacity="0.533333" points="2374.84,-233.97 2379.73,-224.57 2370.04,-228.87 2374.84,-233.97"/>
</g>
<!-- /lib/helpers/color_helper.dart -->
<g id="node29" class="node">
<title>/lib/helpers/color_helper.dart</title>
<path fill="Lavender" stroke="black" stroke-width="1.3" d="M2646.88,-140C2646.88,-140 2573.12,-140 2573.12,-140 2567.12,-140 2561.12,-134 2561.12,-128 2561.12,-128 2561.12,-116 2561.12,-116 2561.12,-110 2567.12,-104 2573.12,-104 2573.12,-104 2646.88,-104 2646.88,-104 2652.88,-104 2658.88,-110 2658.88,-116 2658.88,-116 2658.88,-128 2658.88,-128 2658.88,-134 2652.88,-140 2646.88,-140"/>
<text text-anchor="middle" x="2610" y="-116.75" font-family="Arial" font-size="15.00">color_helper</text>
</g>
<!-- /lib/panels/tools/tool_attributes_widget.dart&#45;&gt;/lib/helpers/color_helper.dart -->
<g id="edge13" class="edge">
<title>/lib/panels/tools/tool_attributes_widget.dart&#45;&gt;/lib/helpers/color_helper.dart</title>
<path fill="none" stroke="#aabbaa" stroke-width="1.3" stroke-opacity="0.533333" d="M1461.77,-269.59C1473.58,-266.46 1486.12,-263.67 1498,-262 1512.46,-259.97 2536.72,-261.89 2549,-254 2584.03,-231.48 2599.28,-183.1 2605.67,-151.86"/>
<polygon fill="#aabbaa" fill-opacity="0.533333" stroke="#aabbaa" stroke-width="1.3" stroke-opacity="0.533333" points="2609.05,-152.82 2607.42,-142.36 2602.17,-151.56 2609.05,-152.82"/>
</g>
<!-- /lib/widgets/transparent_background.dart -->
<g id="node34" class="node">
<title>/lib/widgets/transparent_background.dart</title>
<path fill="Lavender" stroke="black" stroke-width="1.3" d="M1805.38,-140C1805.38,-140 1650.62,-140 1650.62,-140 1644.62,-140 1638.62,-134 1638.62,-128 1638.62,-128 1638.62,-116 1638.62,-116 1638.62,-110 1644.62,-104 1650.62,-104 1650.62,-104 1805.38,-104 1805.38,-104 1811.38,-104 1817.38,-110 1817.38,-116 1817.38,-116 1817.38,-128 1817.38,-128 1817.38,-134 1811.38,-140 1805.38,-140"/>
<text text-anchor="middle" x="1728" y="-116.75" font-family="Arial" font-size="15.00">transparent_background</text>
</g>
<!-- /lib/panels/tools/tool_attributes_widget.dart&#45;&gt;/lib/widgets/transparent_background.dart -->
<g id="edge14" class="edge">
<title>/lib/panels/tools/tool_attributes_widget.dart&#45;&gt;/lib/widgets/transparent_background.dart</title>
<path fill="none" stroke="#aabbaa" stroke-width="1.3" stroke-opacity="0.533333" d="M1441.94,-269.6C1500.15,-239.77 1618.96,-178.88 1683.64,-145.73"/>
<polygon fill="#aabbaa" fill-opacity="0.533333" stroke="#aabbaa" stroke-width="1.3" stroke-opacity="0.533333" points="1684.87,-149.04 1692.17,-141.36 1681.68,-142.81 1684.87,-149.04"/>
</g>
<!-- /lib/panels/canvas_panel.dart -->
<g id="node10" class="node">
<title>/lib/panels/canvas_panel.dart</title>
<path fill="Lavender" stroke="black" stroke-width="1.3" d="M1175.75,-223C1175.75,-223 1092.25,-223 1092.25,-223 1086.25,-223 1080.25,-217 1080.25,-211 1080.25,-211 1080.25,-199 1080.25,-199 1080.25,-193 1086.25,-187 1092.25,-187 1092.25,-187 1175.75,-187 1175.75,-187 1181.75,-187 1187.75,-193 1187.75,-199 1187.75,-199 1187.75,-211 1187.75,-211 1187.75,-217 1181.75,-223 1175.75,-223"/>
<text text-anchor="middle" x="1134" y="-199.75" font-family="Arial" font-size="15.00">canvas_panel</text>
</g>
<!-- /lib/panels/canvas_panel.dart&#45;&gt;/lib/models/app_model.dart -->
<g id="edge15" class="edge">
<title>/lib/panels/canvas_panel.dart&#45;&gt;/lib/models/app_model.dart</title>
<path fill="none" stroke="#aabbaa" stroke-width="1.3" stroke-opacity="0.533333" d="M1116.11,-223.5C1101.66,-236.76 1080.02,-253.12 1057,-258 1033.31,-263.03 971.69,-263.03 948,-258 943.72,-257.09 942.66,-256.41 939,-254 929.31,-247.62 919.71,-239.46 911.39,-231.62"/>
<polygon fill="#aabbaa" fill-opacity="0.533333" stroke="#aabbaa" stroke-width="1.3" stroke-opacity="0.533333" points="913.93,-229.21 904.33,-224.73 909.04,-234.22 913.93,-229.21"/>
</g>
<!-- /lib/panels/canvas_panel.dart&#45;&gt;/lib/widgets/transparent_background.dart -->
<g id="edge16" class="edge">
<title>/lib/panels/canvas_panel.dart&#45;&gt;/lib/widgets/transparent_background.dart</title>
<path fill="none" stroke="#aabbaa" stroke-width="1.3" stroke-opacity="0.533333" d="M1188.02,-196.63C1287.24,-183.1 1499.91,-154.1 1626.74,-136.81"/>
<polygon fill="#aabbaa" fill-opacity="0.533333" stroke="#aabbaa" stroke-width="1.3" stroke-opacity="0.533333" points="1626.97,-140.31 1636.41,-135.49 1626.03,-133.37 1626.97,-140.31"/>
</g>
<!-- /lib/panels/layers/layer_selector.dart -->
<g id="node11" class="node">
<title>/lib/panels/layers/layer_selector.dart</title>
<path fill="Lavender" stroke="black" stroke-width="1.3" d="M1290.5,-306C1290.5,-306 1205.5,-306 1205.5,-306 1199.5,-306 1193.5,-300 1193.5,-294 1193.5,-294 1193.5,-282 1193.5,-282 1193.5,-276 1199.5,-270 1205.5,-270 1205.5,-270 1290.5,-270 1290.5,-270 1296.5,-270 1302.5,-276 1302.5,-282 1302.5,-282 1302.5,-294 1302.5,-294 1302.5,-300 1296.5,-306 1290.5,-306"/>
<text text-anchor="middle" x="1248" y="-282.75" font-family="Arial" font-size="15.00">layer_selector</text>
</g>
<!-- /lib/panels/layers/layer_selector.dart&#45;&gt;/lib/models/app_model.dart -->
<g id="edge17" class="edge">
<title>/lib/panels/layers/layer_selector.dart&#45;&gt;/lib/models/app_model.dart</title>
<path fill="none" stroke="#aabbaa" stroke-width="1.3" stroke-opacity="0.533333" d="M1213.44,-269.61C1205.89,-266.52 1197.81,-263.74 1190,-262 1162.77,-255.93 964.87,-264.45 939,-254 927.09,-249.19 916.14,-240.42 907.33,-231.68"/>
<polygon fill="#aabbaa" fill-opacity="0.533333" stroke="#aabbaa" stroke-width="1.3" stroke-opacity="0.533333" points="910.02,-229.43 900.62,-224.54 904.92,-234.22 910.02,-229.43"/>
</g>
<!-- /lib/widgets/truncated_text.dart -->
<g id="node31" class="node">
<title>/lib/widgets/truncated_text.dart</title>
<path fill="Lavender" stroke="black" stroke-width="1.3" d="M1897,-223C1897,-223 1809,-223 1809,-223 1803,-223 1797,-217 1797,-211 1797,-211 1797,-199 1797,-199 1797,-193 1803,-187 1809,-187 1809,-187 1897,-187 1897,-187 1903,-187 1909,-193 1909,-199 1909,-199 1909,-211 1909,-211 1909,-217 1903,-223 1897,-223"/>
<text text-anchor="middle" x="1853" y="-199.75" font-family="Arial" font-size="15.00">truncated_text</text>
</g>
<!-- /lib/panels/layers/layer_selector.dart&#45;&gt;/lib/widgets/truncated_text.dart -->
<g id="edge21" class="edge">
<title>/lib/panels/layers/layer_selector.dart&#45;&gt;/lib/widgets/truncated_text.dart</title>
<path fill="none" stroke="#aabbaa" stroke-width="1.3" stroke-opacity="0.533333" d="M1288.11,-269.52C1296.82,-266.44 1306.09,-263.69 1315,-262 1366.65,-252.23 1738.21,-270.86 1788,-254 1802.08,-249.23 1815.64,-240.19 1826.7,-231.22"/>
<polygon fill="#aabbaa" fill-opacity="0.533333" stroke="#aabbaa" stroke-width="1.3" stroke-opacity="0.533333" points="1828.92,-233.93 1834.23,-224.76 1824.36,-228.62 1828.92,-233.93"/>
</g>
<!-- /lib/widgets/container_slider.dart -->
<g id="node32" class="node">
<title>/lib/widgets/container_slider.dart</title>
<path fill="Lavender" stroke="black" stroke-width="1.3" d="M2164.5,-223C2164.5,-223 2067.5,-223 2067.5,-223 2061.5,-223 2055.5,-217 2055.5,-211 2055.5,-211 2055.5,-199 2055.5,-199 2055.5,-193 2061.5,-187 2067.5,-187 2067.5,-187 2164.5,-187 2164.5,-187 2170.5,-187 2176.5,-193 2176.5,-199 2176.5,-199 2176.5,-211 2176.5,-211 2176.5,-217 2170.5,-223 2164.5,-223"/>
<text text-anchor="middle" x="2116" y="-199.75" font-family="Arial" font-size="15.00">container_slider</text>
</g>
<!-- /lib/panels/layers/layer_selector.dart&#45;&gt;/lib/widgets/container_slider.dart -->
<g id="edge18" class="edge">
<title>/lib/panels/layers/layer_selector.dart&#45;&gt;/lib/widgets/container_slider.dart</title>
<path fill="none" stroke="#aabbaa" stroke-width="1.3" stroke-opacity="0.533333" d="M1287.75,-269.61C1296.56,-266.48 1305.97,-263.68 1315,-262 1354.93,-254.57 2007.27,-266.24 2046,-254 2061.3,-249.17 2076.25,-239.76 2088.38,-230.55"/>
<polygon fill="#aabbaa" fill-opacity="0.533333" stroke="#aabbaa" stroke-width="1.3" stroke-opacity="0.533333" points="2090.29,-233.5 2095.92,-224.52 2085.92,-228.03 2090.29,-233.5"/>
</g>
<!-- /lib/panels/layers/layer_selector.dart&#45;&gt;/lib/widgets/transparent_background.dart -->
<g id="edge20" class="edge">
<title>/lib/panels/layers/layer_selector.dart&#45;&gt;/lib/widgets/transparent_background.dart</title>
<path fill="none" stroke="#aabbaa" stroke-width="1.3" stroke-opacity="0.533333" d="M1289.27,-269.55C1297.66,-266.59 1306.51,-263.87 1315,-262 1337.64,-257.01 1398.79,-265.35 1419,-254 1454.81,-233.88 1438.68,-201.56 1473,-179 1518.32,-149.21 1576.99,-135.03 1626.62,-128.38"/>
<polygon fill="#aabbaa" fill-opacity="0.533333" stroke="#aabbaa" stroke-width="1.3" stroke-opacity="0.533333" points="1626.93,-131.87 1636.42,-127.17 1626.06,-124.93 1626.93,-131.87"/>
</g>
<!-- /lib/widgets/image_painter.dart -->
<g id="node35" class="node">
<title>/lib/widgets/image_painter.dart</title>
<path fill="Lavender" stroke="black" stroke-width="1.3" d="M2025.25,-223C2025.25,-223 1938.75,-223 1938.75,-223 1932.75,-223 1926.75,-217 1926.75,-211 1926.75,-211 1926.75,-199 1926.75,-199 1926.75,-193 1932.75,-187 1938.75,-187 1938.75,-187 2025.25,-187 2025.25,-187 2031.25,-187 2037.25,-193 2037.25,-199 2037.25,-199 2037.25,-211 2037.25,-211 2037.25,-217 2031.25,-223 2025.25,-223"/>
<text text-anchor="middle" x="1982" y="-199.75" font-family="Arial" font-size="15.00">image_painter</text>
</g>
<!-- /lib/panels/layers/layer_selector.dart&#45;&gt;/lib/widgets/image_painter.dart -->
<g id="edge19" class="edge">
<title>/lib/panels/layers/layer_selector.dart&#45;&gt;/lib/widgets/image_painter.dart</title>
<path fill="none" stroke="#aabbaa" stroke-width="1.3" stroke-opacity="0.533333" d="M1287.75,-269.62C1296.56,-266.49 1305.97,-263.69 1315,-262 1347.93,-255.83 1886.29,-264.81 1918,-254 1931.93,-249.25 1945.29,-240.21 1956.17,-231.25"/>
<polygon fill="#aabbaa" fill-opacity="0.533333" stroke="#aabbaa" stroke-width="1.3" stroke-opacity="0.533333" points="1958.33,-234 1963.56,-224.79 1953.73,-228.73 1958.33,-234"/>
</g>
<!-- /lib/panels/layers/layers_panel.dart -->
<g id="node12" class="node">
<title>/lib/panels/layers/layers_panel.dart</title>
<path fill="Lavender" stroke="black" stroke-width="1.3" d="M1281,-378C1281,-378 1205,-378 1205,-378 1199,-378 1193,-372 1193,-366 1193,-366 1193,-354 1193,-354 1193,-348 1199,-342 1205,-342 1205,-342 1281,-342 1281,-342 1287,-342 1293,-348 1293,-354 1293,-354 1293,-366 1293,-366 1293,-372 1287,-378 1281,-378"/>
<text text-anchor="middle" x="1243" y="-354.75" font-family="Arial" font-size="15.00">layers_panel</text>
</g>
<!-- /lib/panels/layers/layers_panel.dart&#45;&gt;/lib/panels/layers/layer_selector.dart -->
<g id="edge24" class="edge">
<title>/lib/panels/layers/layers_panel.dart&#45;&gt;/lib/panels/layers/layer_selector.dart</title>
<path fill="none" stroke="#aabbaa" stroke-width="1.3" stroke-opacity="0.533333" d="M1244.24,-341.7C1244.75,-334.49 1245.36,-325.93 1245.94,-317.82"/>
<polygon fill="#aabbaa" fill-opacity="0.533333" stroke="#aabbaa" stroke-width="1.3" stroke-opacity="0.533333" points="1249.42,-318.29 1246.64,-308.07 1242.43,-317.79 1249.42,-318.29"/>
</g>
<!-- /lib/panels/share_panel.dart -->
<g id="node14" class="node">
<title>/lib/panels/share_panel.dart</title>
<path fill="Lavender" stroke="black" stroke-width="1.3" d="M1163.88,-306C1163.88,-306 1090.12,-306 1090.12,-306 1084.12,-306 1078.12,-300 1078.12,-294 1078.12,-294 1078.12,-282 1078.12,-282 1078.12,-276 1084.12,-270 1090.12,-270 1090.12,-270 1163.88,-270 1163.88,-270 1169.88,-270 1175.88,-276 1175.88,-282 1175.88,-282 1175.88,-294 1175.88,-294 1175.88,-300 1169.88,-306 1163.88,-306"/>
<text text-anchor="middle" x="1127" y="-282.75" font-family="Arial" font-size="15.00">share_panel</text>
</g>
<!-- /lib/panels/layers/layers_panel.dart&#45;&gt;/lib/panels/share_panel.dart -->
<g id="edge25" class="edge">
<title>/lib/panels/layers/layers_panel.dart&#45;&gt;/lib/panels/share_panel.dart</title>
<path fill="none" stroke="#aabbaa" stroke-width="1.3" stroke-opacity="0.533333" d="M1214.03,-341.52C1199.38,-332.68 1181.42,-321.84 1165.62,-312.3"/>
<polygon fill="#aabbaa" fill-opacity="0.533333" stroke="#aabbaa" stroke-width="1.3" stroke-opacity="0.533333" points="1167.66,-309.45 1157.29,-307.28 1164.04,-315.44 1167.66,-309.45"/>
</g>
<!-- /lib/panels/layers/layers_panel.dart&#45;&gt;/lib/models/app_model.dart -->
<g id="edge23" class="edge">
<title>/lib/panels/layers/layers_panel.dart&#45;&gt;/lib/models/app_model.dart</title>
<path fill="none" stroke="#aabbaa" stroke-width="1.3" stroke-opacity="0.533333" d="M1192.62,-357.18C1147.03,-353.18 1080.15,-341.17 1034,-306 1016.11,-292.37 1027.76,-274.4 1009,-262 982.88,-244.74 967.53,-266.91 939,-254 927.46,-248.78 916.71,-240.1 907.94,-231.55"/>
<polygon fill="#aabbaa" fill-opacity="0.533333" stroke="#aabbaa" stroke-width="1.3" stroke-opacity="0.533333" points="910.7,-229.37 901.24,-224.58 905.65,-234.22 910.7,-229.37"/>
</g>
<!-- /lib/files/import_files.dart -->
<g id="node26" class="node">
<title>/lib/files/import_files.dart</title>
<path fill="Lavender" stroke="black" stroke-width="1.3" d="M407.25,-378C407.25,-378 338.75,-378 338.75,-378 332.75,-378 326.75,-372 326.75,-366 326.75,-366 326.75,-354 326.75,-354 326.75,-348 332.75,-342 338.75,-342 338.75,-342 407.25,-342 407.25,-342 413.25,-342 419.25,-348 419.25,-354 419.25,-354 419.25,-366 419.25,-366 419.25,-372 413.25,-378 407.25,-378"/>
<text text-anchor="middle" x="373" y="-354.75" font-family="Arial" font-size="15.00">import_files</text>
</g>
<!-- /lib/panels/layers/layers_panel.dart&#45;&gt;/lib/files/import_files.dart -->
<g id="edge22" class="edge">
<title>/lib/panels/layers/layers_panel.dart&#45;&gt;/lib/files/import_files.dart</title>
<path fill="none" stroke="#aabbaa" stroke-width="1.3" stroke-opacity="0.533333" d="M1192.87,-377.33C1153.28,-390.05 1096.33,-406.25 1045,-413 1028.26,-415.2 453.52,-416.51 437,-413 420.47,-409.49 405.67,-398.1 394.47,-386.77"/>
<polygon fill="#aabbaa" fill-opacity="0.533333" stroke="#aabbaa" stroke-width="1.3" stroke-opacity="0.533333" points="397.32,-384.69 387.98,-379.7 392.16,-389.43 397.32,-384.69"/>
</g>
<!-- /lib/panels/side_panel.dart -->
<g id="node13" class="node">
<title>/lib/panels/side_panel.dart</title>
<path fill="Lavender" stroke="black" stroke-width="1.3" d="M1213.62,-453C1213.62,-453 1150.38,-453 1150.38,-453 1144.38,-453 1138.38,-447 1138.38,-441 1138.38,-441 1138.38,-429 1138.38,-429 1138.38,-423 1144.38,-417 1150.38,-417 1150.38,-417 1213.62,-417 1213.62,-417 1219.62,-417 1225.62,-423 1225.62,-429 1225.62,-429 1225.62,-441 1225.62,-441 1225.62,-447 1219.62,-453 1213.62,-453"/>
<text text-anchor="middle" x="1182" y="-429.75" font-family="Arial" font-size="15.00">side_panel</text>
</g>
<!-- /lib/panels/side_panel.dart&#45;&gt;/lib/panels/tools/tools_panel.dart -->
<g id="edge28" class="edge">
<title>/lib/panels/side_panel.dart&#45;&gt;/lib/panels/tools/tools_panel.dart</title>
<path fill="none" stroke="#aabbaa" stroke-width="1.3" stroke-opacity="0.533333" d="M1226.08,-417.93C1227.4,-417.6 1228.71,-417.29 1230,-417 1267.05,-408.83 1278.59,-419.67 1315,-409 1334.31,-403.34 1354.32,-393.59 1370.8,-384.36"/>
<polygon fill="#aabbaa" fill-opacity="0.533333" stroke="#aabbaa" stroke-width="1.3" stroke-opacity="0.533333" points="1372.48,-387.43 1379.38,-379.39 1368.97,-381.37 1372.48,-387.43"/>
</g>
<!-- /lib/panels/side_panel.dart&#45;&gt;/lib/panels/layers/layers_panel.dart -->
<g id="edge27" class="edge">
<title>/lib/panels/side_panel.dart&#45;&gt;/lib/panels/layers/layers_panel.dart</title>
<path fill="none" stroke="#aabbaa" stroke-width="1.3" stroke-opacity="0.533333" d="M1196.46,-416.7C1203.77,-407.95 1212.81,-397.13 1220.97,-387.37"/>
<polygon fill="#aabbaa" fill-opacity="0.533333" stroke="#aabbaa" stroke-width="1.3" stroke-opacity="0.533333" points="1223.45,-389.86 1227.17,-379.94 1218.08,-385.37 1223.45,-389.86"/>
</g>
<!-- /lib/panels/side_panel.dart&#45;&gt;/lib/models/app_model.dart -->
<g id="edge26" class="edge">
<title>/lib/panels/side_panel.dart&#45;&gt;/lib/models/app_model.dart</title>
<path fill="none" stroke="#aabbaa" stroke-width="1.3" stroke-opacity="0.533333" d="M1137.95,-417.78C1136.62,-417.49 1135.31,-417.23 1134,-417 1119.61,-414.47 92.29,-419.37 82,-409 70.49,-397.41 70.86,-273.94 82,-262 132.76,-207.58 654.45,-204.94 829.26,-205.6"/>
<polygon fill="#aabbaa" fill-opacity="0.533333" stroke="#aabbaa" stroke-width="1.3" stroke-opacity="0.533333" points="829.01,-209.09 839.03,-205.64 829.04,-202.09 829.01,-209.09"/>
</g>
<!-- /lib/panels/share_panel.dart&#45;&gt;/lib/panels/canvas_panel.dart -->
<g id="edge30" class="edge">
<title>/lib/panels/share_panel.dart&#45;&gt;/lib/panels/canvas_panel.dart</title>
<path fill="none" stroke="#aabbaa" stroke-width="1.3" stroke-opacity="0.533333" d="M1128.48,-269.82C1129.35,-259.8 1130.47,-246.88 1131.47,-235.29"/>
<polygon fill="#aabbaa" fill-opacity="0.533333" stroke="#aabbaa" stroke-width="1.3" stroke-opacity="0.533333" points="1134.95,-235.66 1132.32,-225.39 1127.98,-235.05 1134.95,-235.66"/>
</g>
<!-- /lib/panels/share_panel.dart&#45;&gt;/lib/models/app_model.dart -->
<g id="edge29" class="edge">
<title>/lib/panels/share_panel.dart&#45;&gt;/lib/models/app_model.dart</title>
<path fill="none" stroke="#aabbaa" stroke-width="1.3" stroke-opacity="0.533333" d="M1081.94,-269.53C1072.81,-266.57 1063.19,-263.86 1054,-262 1028.89,-256.92 962.57,-264.04 939,-254 927.35,-249.04 916.57,-240.41 907.82,-231.82"/>
<polygon fill="#aabbaa" fill-opacity="0.533333" stroke="#aabbaa" stroke-width="1.3" stroke-opacity="0.533333" points="910.57,-229.64 901.14,-224.82 905.5,-234.47 910.57,-229.64"/>
</g>
<!-- /lib/models/layers.dart -->
<g id="node15" class="node">
<title>/lib/models/layers.dart</title>
<path fill="Lavender" stroke="black" stroke-width="1.3" d="M988.88,-378C988.88,-378 957.12,-378 957.12,-378 951.12,-378 945.12,-372 945.12,-366 945.12,-366 945.12,-354 945.12,-354 945.12,-348 951.12,-342 957.12,-342 957.12,-342 988.88,-342 988.88,-342 994.88,-342 1000.88,-348 1000.88,-354 1000.88,-354 1000.88,-366 1000.88,-366 1000.88,-372 994.88,-378 988.88,-378"/>
<text text-anchor="middle" x="973" y="-354.75" font-family="Arial" font-size="15.00">layers</text>
</g>
<!-- /lib/models/layers.dart&#45;&gt;/lib/models/layer.dart -->
<g id="edge32" class="edge">
<title>/lib/models/layers.dart&#45;&gt;/lib/models/layer.dart</title>
<path fill="none" stroke="#aabbaa" stroke-width="1.3" stroke-opacity="0.533333" d="M967.08,-341.7C966.34,-334.49 966.09,-325.93 966.34,-317.82"/>
<polygon fill="#aabbaa" fill-opacity="0.533333" stroke="#aabbaa" stroke-width="1.3" stroke-opacity="0.533333" points="969.82,-318.27 966.98,-308.07 962.84,-317.82 969.82,-318.27"/>
</g>
<!-- /lib/models/layers.dart&#45;&gt;/lib/models/layer.dart -->
<g id="edge33" class="edge">
<title>/lib/models/layers.dart&#45;&gt;/lib/models/layer.dart</title>
<path fill="none" stroke="#aabbaa" stroke-width="1.3" stroke-dasharray="5,2" stroke-opacity="0.533333" d="M978.92,-341.7C979.66,-334.49 979.91,-325.93 979.66,-317.82"/>
<polygon fill="#aabbaa" fill-opacity="0.533333" stroke="#aabbaa" stroke-width="1.3" stroke-opacity="0.533333" points="983.16,-317.82 979.02,-308.07 976.18,-318.27 983.16,-317.82"/>
</g>
<!-- /lib/helpers/list_helper.dart -->
<g id="node28" class="node">
<title>/lib/helpers/list_helper.dart</title>
<path fill="Lavender" stroke="black" stroke-width="1.3" d="M2632.75,-68C2632.75,-68 2573.25,-68 2573.25,-68 2567.25,-68 2561.25,-62 2561.25,-56 2561.25,-56 2561.25,-44 2561.25,-44 2561.25,-38 2567.25,-32 2573.25,-32 2573.25,-32 2632.75,-32 2632.75,-32 2638.75,-32 2644.75,-38 2644.75,-44 2644.75,-44 2644.75,-56 2644.75,-56 2644.75,-62 2638.75,-68 2632.75,-68"/>
<text text-anchor="middle" x="2603" y="-44.75" font-family="Arial" font-size="15.00">list_helper</text>
</g>
<!-- /lib/models/layers.dart&#45;&gt;/lib/helpers/list_helper.dart -->
<g id="edge31" class="edge">
<title>/lib/models/layers.dart&#45;&gt;/lib/helpers/list_helper.dart</title>
<path fill="none" stroke="#aabbaa" stroke-width="1.3" stroke-opacity="0.533333" d="M1001.25,-356.52C1041.24,-353.05 1116.68,-346.65 1181,-342 1491.25,-319.55 2291.97,-376.26 2578,-254 2628.03,-232.61 2646.16,-220.84 2668,-171 2681.38,-140.47 2683.47,-125.53 2668,-96 2663.75,-87.88 2657.29,-80.93 2650.06,-75.1"/>
<polygon fill="#aabbaa" fill-opacity="0.533333" stroke="#aabbaa" stroke-width="1.3" stroke-opacity="0.533333" points="2652.37,-72.45 2642.21,-69.45 2648.28,-78.13 2652.37,-72.45"/>
</g>
<!-- /lib/models/user_action.dart -->
<g id="node16" class="node">
<title>/lib/models/user_action.dart</title>
<path fill="Lavender" stroke="black" stroke-width="1.3" d="M1029.62,-223C1029.62,-223 960.38,-223 960.38,-223 954.38,-223 948.38,-217 948.38,-211 948.38,-211 948.38,-199 948.38,-199 948.38,-193 954.38,-187 960.38,-187 960.38,-187 1029.62,-187 1029.62,-187 1035.62,-187 1041.62,-193 1041.62,-199 1041.62,-199 1041.62,-211 1041.62,-211 1041.62,-217 1035.62,-223 1029.62,-223"/>
<text text-anchor="middle" x="995" y="-199.75" font-family="Arial" font-size="15.00">user_action</text>
</g>
<!-- /lib/widgets/brush_style_picker.dart -->
<g id="node36" class="node">
<title>/lib/widgets/brush_style_picker.dart</title>
<path fill="Lavender" stroke="black" stroke-width="1.3" d="M1767.25,-223C1767.25,-223 1650.75,-223 1650.75,-223 1644.75,-223 1638.75,-217 1638.75,-211 1638.75,-211 1638.75,-199 1638.75,-199 1638.75,-193 1644.75,-187 1650.75,-187 1650.75,-187 1767.25,-187 1767.25,-187 1773.25,-187 1779.25,-193 1779.25,-199 1779.25,-199 1779.25,-211 1779.25,-211 1779.25,-217 1773.25,-223 1767.25,-223"/>
<text text-anchor="middle" x="1709" y="-199.75" font-family="Arial" font-size="15.00">brush_style_picker</text>
</g>
<!-- /lib/models/user_action.dart&#45;&gt;/lib/widgets/brush_style_picker.dart -->
<g id="edge34" class="edge">
<title>/lib/models/user_action.dart&#45;&gt;/lib/widgets/brush_style_picker.dart</title>
<path fill="none" stroke="#aabbaa" stroke-width="1.3" stroke-opacity="0.533333" d="M1013.3,-223.25C1027.79,-236.11 1049.32,-251.85 1072,-256.67 1083.98,-259.21 1500.85,-258.24 1513,-256.67 1557.12,-250.95 1605.46,-238.28 1643.1,-226.92"/>
<polygon fill="#aabbaa" fill-opacity="0.533333" stroke="#aabbaa" stroke-width="1.3" stroke-opacity="0.533333" points="1644,-230.3 1652.54,-224.02 1641.95,-223.61 1644,-230.3"/>
</g>
<!-- /lib/models/user_action.dart&#45;&gt;/lib/widgets/brush_style_picker.dart -->
<g id="edge35" class="edge">
<title>/lib/models/user_action.dart&#45;&gt;/lib/widgets/brush_style_picker.dart</title>
<path fill="none" stroke="#aabbaa" stroke-width="1.3" stroke-dasharray="5,2" stroke-opacity="0.533333" d="M1013.86,-223.3C1029.54,-236.94 1053.23,-254.08 1078,-259.33 1089.66,-261.81 1495.19,-260.89 1507,-259.33 1553.86,-253.14 1605.28,-239.2 1644.52,-226.99"/>
<polygon fill="#aabbaa" fill-opacity="0.533333" stroke="#aabbaa" stroke-width="1.3" stroke-opacity="0.533333" points="1645.41,-230.38 1653.89,-224.03 1643.3,-223.71 1645.41,-230.38"/>
</g>
<!-- /lib/models/app_model.dart&#45;&gt;/lib/models/layers.dart -->
<g id="edge36" class="edge">
<title>/lib/models/app_model.dart&#45;&gt;/lib/models/layers.dart</title>
<path fill="none" stroke="#aabbaa" stroke-width="1.3" stroke-opacity="0.533333" d="M889.77,-223.21C895.54,-234.06 904.37,-248.53 911,-262 920.25,-280.81 918.27,-287.43 928,-306 932.75,-315.06 938.74,-324.46 944.87,-332.78"/>
<polygon fill="#aabbaa" fill-opacity="0.533333" stroke="#aabbaa" stroke-width="1.3" stroke-opacity="0.533333" points="941.94,-334.71 950.87,-340.41 947.44,-330.38 941.94,-334.71"/>
</g>
<!-- /lib/models/app_model.dart&#45;&gt;/lib/models/layers.dart -->
<g id="edge37" class="edge">
<title>/lib/models/app_model.dart&#45;&gt;/lib/models/layers.dart</title>
<path fill="none" stroke="#aabbaa" stroke-width="1.3" stroke-dasharray="5,2" stroke-opacity="0.533333" d="M905.3,-223.21C913.54,-234.06 922.37,-248.53 929,-262 938.25,-280.81 936.27,-287.43 946,-306 950.59,-314.77 956.35,-323.85 961.52,-331.96"/>
<polygon fill="#aabbaa" fill-opacity="0.533333" stroke="#aabbaa" stroke-width="1.3" stroke-opacity="0.533333" points="958.48,-333.71 966.78,-340.29 964.4,-329.97 958.48,-333.71"/>
</g>
<!-- /lib/models/layer.dart&#45;&gt;/lib/models/user_action.dart -->
<g id="edge40" class="edge">
<title>/lib/models/layer.dart&#45;&gt;/lib/models/user_action.dart</title>
<path fill="none" stroke="#aabbaa" stroke-width="1.3" stroke-dasharray="5,2" stroke-opacity="0.533333" d="M977.67,-269.82C980.42,-259.69 983.97,-246.6 987.15,-234.92"/>
<polygon fill="#aabbaa" fill-opacity="0.533333" stroke="#aabbaa" stroke-width="1.3" stroke-opacity="0.533333" points="990.51,-235.9 989.75,-225.33 983.75,-234.06 990.51,-235.9"/>
</g>
<!-- /lib/models/layer.dart&#45;&gt;/lib/models/app_model.dart -->
<g id="edge38" class="edge">
<title>/lib/models/layer.dart&#45;&gt;/lib/models/app_model.dart</title>
<path fill="none" stroke="#aabbaa" stroke-width="1.3" stroke-opacity="0.533333" d="M954.55,-269.82C942.52,-258.62 926.61,-243.81 913.15,-231.28"/>
<polygon fill="#aabbaa" fill-opacity="0.533333" stroke="#aabbaa" stroke-width="1.3" stroke-opacity="0.533333" points="915.87,-229.03 906.16,-224.77 911.1,-234.15 915.87,-229.03"/>
</g>
<!-- /lib/models/layer.dart&#45;&gt;/lib/widgets/transparent_background.dart -->
<g id="edge39" class="edge">
<title>/lib/models/layer.dart&#45;&gt;/lib/widgets/transparent_background.dart</title>
<path fill="none" stroke="#aabbaa" stroke-width="1.3" stroke-opacity="0.533333" d="M991.33,-269.74C995.27,-266.76 999.59,-263.99 1004,-262 1023.32,-253.29 1035.8,-268.77 1051,-254 1075.38,-230.31 1040.64,-201.64 1066,-179 1106.84,-142.53 1451.32,-129.35 1626.52,-124.98"/>
<polygon fill="#aabbaa" fill-opacity="0.533333" stroke="#aabbaa" stroke-width="1.3" stroke-opacity="0.533333" points="1626.44,-128.48 1636.36,-124.74 1626.27,-121.48 1626.44,-128.48"/>
</g>
<!-- /lib/main.dart&#45;&gt;/lib/models/app_model.dart -->
<g id="edge42" class="edge">
<title>/lib/main.dart&#45;&gt;/lib/models/app_model.dart</title>
<path fill="none" stroke="#aabbaa" stroke-width="1.3" stroke-opacity="0.533333" d="M1062.79,-580.9C914.19,-579.75 202.76,-566.02 70,-409 27.82,-359.11 25.41,-309.75 70,-262 121.6,-206.73 652.22,-204.67 829.03,-205.53"/>
<polygon fill="#aabbaa" fill-opacity="0.533333" stroke="#aabbaa" stroke-width="1.3" stroke-opacity="0.533333" points="828.9,-209.03 838.92,-205.59 828.94,-202.03 828.9,-209.03"/>
</g>
<!-- /lib/main_screen.dart -->
<g id="node27" class="node">
<title>/lib/main_screen.dart</title>
<path fill="Lavender" stroke="black" stroke-width="1.3" d="M1128.75,-528C1128.75,-528 1051.25,-528 1051.25,-528 1045.25,-528 1039.25,-522 1039.25,-516 1039.25,-516 1039.25,-504 1039.25,-504 1039.25,-498 1045.25,-492 1051.25,-492 1051.25,-492 1128.75,-492 1128.75,-492 1134.75,-492 1140.75,-498 1140.75,-504 1140.75,-504 1140.75,-516 1140.75,-516 1140.75,-522 1134.75,-528 1128.75,-528"/>
<text text-anchor="middle" x="1090" y="-504.75" font-family="Arial" font-size="15.00">main_screen</text>
</g>
<!-- /lib/main.dart&#45;&gt;/lib/main_screen.dart -->
<g id="edge41" class="edge">
<title>/lib/main.dart&#45;&gt;/lib/main_screen.dart</title>
<path fill="none" stroke="#aabbaa" stroke-width="1.3" stroke-opacity="0.533333" d="M1090,-563.7C1090,-556.49 1090,-547.93 1090,-539.82"/>
<polygon fill="#aabbaa" fill-opacity="0.533333" stroke="#aabbaa" stroke-width="1.3" stroke-opacity="0.533333" points="1093.5,-540.07 1090,-530.07 1086.5,-540.07 1093.5,-540.07"/>
</g>
<!-- /lib/files/xcf_reader.dart&#45;&gt;/lib/helpers/list_helper.dart -->
<g id="edge43" class="edge">
<title>/lib/files/xcf_reader.dart&#45;&gt;/lib/helpers/list_helper.dart</title>
<path fill="none" stroke="#aabbaa" stroke-width="1.3" stroke-opacity="0.533333" d="M172.9,-341.64C275.24,-291.75 584.76,-148.24 860,-96 1029.14,-63.9 2274.1,-53.31 2549.27,-51.36"/>
<polygon fill="#aabbaa" fill-opacity="0.533333" stroke="#aabbaa" stroke-width="1.3" stroke-opacity="0.533333" points="2548.95,-54.86 2558.92,-51.29 2548.9,-47.86 2548.95,-54.86"/>
</g>
<!-- /lib/files/file_jpeg.dart -->
<g id="node22" class="node">
<title>/lib/files/file_jpeg.dart</title>
<path fill="Lavender" stroke="black" stroke-width="1.3" d="M758.38,-306C758.38,-306 711.62,-306 711.62,-306 705.62,-306 699.62,-300 699.62,-294 699.62,-294 699.62,-282 699.62,-282 699.62,-276 705.62,-270 711.62,-270 711.62,-270 758.38,-270 758.38,-270 764.38,-270 770.38,-276 770.38,-282 770.38,-282 770.38,-294 770.38,-294 770.38,-300 764.38,-306 758.38,-306"/>
<text text-anchor="middle" x="735" y="-282.75" font-family="Arial" font-size="15.00">file_jpeg</text>
</g>
<!-- /lib/files/export_download_web.dart -->
<g id="node23" class="node">
<title>/lib/files/export_download_web.dart</title>
<path fill="Lavender" stroke="black" stroke-width="1.3" d="M805.25,-378C805.25,-378 664.75,-378 664.75,-378 658.75,-378 652.75,-372 652.75,-366 652.75,-366 652.75,-354 652.75,-354 652.75,-348 658.75,-342 664.75,-342 664.75,-342 805.25,-342 805.25,-342 811.25,-342 817.25,-348 817.25,-354 817.25,-354 817.25,-366 817.25,-366 817.25,-372 811.25,-378 805.25,-378"/>
<text text-anchor="middle" x="735" y="-354.75" font-family="Arial" font-size="15.00">export_download_web</text>
</g>
<!-- /lib/files/export_download_web.dart&#45;&gt;/lib/panels/share_panel.dart -->
<g id="edge47" class="edge">
<title>/lib/files/export_download_web.dart&#45;&gt;/lib/panels/share_panel.dart</title>
<path fill="none" stroke="#aabbaa" stroke-width="1.3" stroke-opacity="0.533333" d="M817.52,-343.98C821.4,-343.3 825.24,-342.64 829,-342 928.83,-324.99 954.62,-325.5 1054,-306 1058.14,-305.19 1062.4,-304.31 1066.68,-303.39"/>
<polygon fill="#aabbaa" fill-opacity="0.533333" stroke="#aabbaa" stroke-width="1.3" stroke-opacity="0.533333" points="1067.08,-306.89 1076.1,-301.33 1065.58,-300.05 1067.08,-306.89"/>
</g>
<!-- /lib/files/export_download_web.dart&#45;&gt;/lib/models/app_model.dart -->
<g id="edge46" class="edge">
<title>/lib/files/export_download_web.dart&#45;&gt;/lib/models/app_model.dart</title>
<path fill="none" stroke="#aabbaa" stroke-width="1.3" stroke-opacity="0.533333" d="M801.87,-341.58C821.6,-333.57 841.71,-322.14 856,-306 873.38,-286.37 880.69,-257.01 883.77,-235.17"/>
<polygon fill="#aabbaa" fill-opacity="0.533333" stroke="#aabbaa" stroke-width="1.3" stroke-opacity="0.533333" points="887.25,-235.61 884.91,-225.27 880.29,-234.8 887.25,-235.61"/>
</g>
<!-- /lib/files/export_download_web.dart&#45;&gt;/lib/files/file_jpeg.dart -->
<g id="edge44" class="edge">
<title>/lib/files/export_download_web.dart&#45;&gt;/lib/files/file_jpeg.dart</title>
<path fill="none" stroke="#aabbaa" stroke-width="1.3" stroke-opacity="0.533333" d="M735,-341.7C735,-334.49 735,-325.93 735,-317.82"/>
<polygon fill="#aabbaa" fill-opacity="0.533333" stroke="#aabbaa" stroke-width="1.3" stroke-opacity="0.533333" points="738.5,-318.07 735,-308.07 731.5,-318.07 738.5,-318.07"/>
</g>
<!-- /lib/files/file_ora.dart -->
<g id="node24" class="node">
<title>/lib/files/file_ora.dart</title>
<path fill="Lavender" stroke="black" stroke-width="1.3" d="M669.38,-306C669.38,-306 628.62,-306 628.62,-306 622.62,-306 616.62,-300 616.62,-294 616.62,-294 616.62,-282 616.62,-282 616.62,-276 622.62,-270 628.62,-270 628.62,-270 669.38,-270 669.38,-270 675.38,-270 681.38,-276 681.38,-282 681.38,-282 681.38,-294 681.38,-294 681.38,-300 675.38,-306 669.38,-306"/>
<text text-anchor="middle" x="649" y="-282.75" font-family="Arial" font-size="15.00">file_ora</text>
</g>
<!-- /lib/files/export_download_web.dart&#45;&gt;/lib/files/file_ora.dart -->
<g id="edge45" class="edge">
<title>/lib/files/export_download_web.dart&#45;&gt;/lib/files/file_ora.dart</title>
<path fill="none" stroke="#aabbaa" stroke-width="1.3" stroke-opacity="0.533333" d="M713.74,-341.7C703.4,-333.28 690.79,-323.02 679.46,-313.79"/>
<polygon fill="#aabbaa" fill-opacity="0.533333" stroke="#aabbaa" stroke-width="1.3" stroke-opacity="0.533333" points="681.8,-311.19 671.84,-307.59 677.38,-316.62 681.8,-311.19"/>
</g>
<!-- /lib/files/file_ora.dart&#45;&gt;/lib/models/app_model.dart -->
<g id="edge49" class="edge">
<title>/lib/files/file_ora.dart&#45;&gt;/lib/models/app_model.dart</title>
<path fill="none" stroke="#aabbaa" stroke-width="1.3" stroke-opacity="0.533333" d="M674.91,-269.55C680.07,-266.67 685.58,-263.98 691,-262 711.73,-254.45 718.56,-259.24 740,-254 770.05,-246.65 802.83,-236.12 829.7,-226.79"/>
<polygon fill="#aabbaa" fill-opacity="0.533333" stroke="#aabbaa" stroke-width="1.3" stroke-opacity="0.533333" points="830.7,-230.14 838.97,-223.53 828.37,-223.54 830.7,-230.14"/>
</g>
<!-- /lib/files/file_ora.dart&#45;&gt;/lib/helpers/list_helper.dart -->
<g id="edge48" class="edge">
<title>/lib/files/file_ora.dart&#45;&gt;/lib/helpers/list_helper.dart</title>
<path fill="none" stroke="#aabbaa" stroke-width="1.3" stroke-opacity="0.533333" d="M670.72,-269.59C703.06,-244.72 766.77,-199.76 829,-179 1160.05,-68.55 2289.53,-53.35 2549.39,-51.31"/>
<polygon fill="#aabbaa" fill-opacity="0.533333" stroke="#aabbaa" stroke-width="1.3" stroke-opacity="0.533333" points="2549.16,-54.81 2559.13,-51.24 2549.1,-47.81 2549.16,-54.81"/>
</g>
<!-- /lib/files/export_download_non_web.dart -->
<g id="node25" class="node">
<title>/lib/files/export_download_non_web.dart</title>
<path fill="Lavender" stroke="black" stroke-width="1.3" d="M622.75,-378C622.75,-378 449.25,-378 449.25,-378 443.25,-378 437.25,-372 437.25,-366 437.25,-366 437.25,-354 437.25,-354 437.25,-348 443.25,-342 449.25,-342 449.25,-342 622.75,-342 622.75,-342 628.75,-342 634.75,-348 634.75,-354 634.75,-354 634.75,-366 634.75,-366 634.75,-372 628.75,-378 622.75,-378"/>
<text text-anchor="middle" x="536" y="-354.75" font-family="Arial" font-size="15.00">export_download_non_web</text>
</g>
<!-- /lib/files/export_download_non_web.dart&#45;&gt;/lib/panels/share_panel.dart -->
<g id="edge53" class="edge">
<title>/lib/files/export_download_non_web.dart&#45;&gt;/lib/panels/share_panel.dart</title>
<path fill="none" stroke="#aabbaa" stroke-width="1.3" stroke-opacity="0.533333" d="M635.13,-343.13C638.12,-342.73 641.08,-342.36 644,-342 825.57,-319.77 873.36,-334.82 1054,-306 1057.98,-305.37 1062.06,-304.64 1066.16,-303.84"/>
<polygon fill="#aabbaa" fill-opacity="0.533333" stroke="#aabbaa" stroke-width="1.3" stroke-opacity="0.533333" points="1066.69,-307.31 1075.78,-301.87 1065.28,-300.45 1066.69,-307.31"/>
</g>
<!-- /lib/files/export_download_non_web.dart&#45;&gt;/lib/models/app_model.dart -->
<g id="edge52" class="edge">
<title>/lib/files/export_download_non_web.dart&#45;&gt;/lib/models/app_model.dart</title>
<path fill="none" stroke="#aabbaa" stroke-width="1.3" stroke-opacity="0.533333" d="M634.92,-342.58C714.38,-329.1 814.03,-311.37 822,-306 835.69,-296.79 857.29,-259.98 871.55,-233.7"/>
<polygon fill="#aabbaa" fill-opacity="0.533333" stroke="#aabbaa" stroke-width="1.3" stroke-opacity="0.533333" points="874.62,-235.39 876.24,-224.92 868.44,-232.09 874.62,-235.39"/>
</g>
<!-- /lib/files/export_download_non_web.dart&#45;&gt;/lib/files/file_jpeg.dart -->
<g id="edge50" class="edge">
<title>/lib/files/export_download_non_web.dart&#45;&gt;/lib/files/file_jpeg.dart</title>
<path fill="none" stroke="#aabbaa" stroke-width="1.3" stroke-opacity="0.533333" d="M587.82,-341.59C615.18,-332.31 649.56,-320.48 688.17,-306.61"/>
<polygon fill="#aabbaa" fill-opacity="0.533333" stroke="#aabbaa" stroke-width="1.3" stroke-opacity="0.533333" points="689.1,-310 697.32,-303.31 686.73,-303.41 689.1,-310"/>
</g>
<!-- /lib/files/export_download_non_web.dart&#45;&gt;/lib/files/file_ora.dart -->
<g id="edge51" class="edge">
<title>/lib/files/export_download_non_web.dart&#45;&gt;/lib/files/file_ora.dart</title>
<path fill="none" stroke="#aabbaa" stroke-width="1.3" stroke-opacity="0.533333" d="M564.22,-341.52C578.49,-332.68 595.99,-321.84 611.38,-312.3"/>
<polygon fill="#aabbaa" fill-opacity="0.533333" stroke="#aabbaa" stroke-width="1.3" stroke-opacity="0.533333" points="612.81,-315.54 619.46,-307.3 609.12,-309.59 612.81,-315.54"/>
</g>
<!-- /lib/files/import_files.dart&#45;&gt;/lib/models/app_model.dart -->
<g id="edge55" class="edge">
<title>/lib/files/import_files.dart&#45;&gt;/lib/models/app_model.dart</title>
<path fill="none" stroke="#aabbaa" stroke-width="1.3" stroke-opacity="0.533333" d="M419.64,-343.9C422.46,-343.2 425.26,-342.56 428,-342 581.66,-310.69 637.76,-374.15 779,-306 803.63,-294.12 802.14,-280.79 822,-262 833.06,-251.53 845.59,-240.41 856.62,-230.86"/>
<polygon fill="#aabbaa" fill-opacity="0.533333" stroke="#aabbaa" stroke-width="1.3" stroke-opacity="0.533333" points="858.67,-233.72 863.97,-224.54 854.11,-228.41 858.67,-233.72"/>
</g>
<!-- /lib/files/import_files.dart&#45;&gt;/lib/files/file_ora.dart -->
<g id="edge54" class="edge">
<title>/lib/files/import_files.dart&#45;&gt;/lib/files/file_ora.dart</title>
<path fill="none" stroke="#aabbaa" stroke-width="1.3" stroke-opacity="0.533333" d="M419.75,-344.33C422.53,-343.52 425.3,-342.74 428,-342 488.82,-325.33 559.85,-308.81 604.63,-298.76"/>
<polygon fill="#aabbaa" fill-opacity="0.533333" stroke="#aabbaa" stroke-width="1.3" stroke-opacity="0.533333" points="605.34,-302.19 614.33,-296.59 603.81,-295.35 605.34,-302.19"/>
</g>
<!-- /lib/main_screen.dart&#45;&gt;/lib/panels/tools/flood_fill.dart -->
<g id="edge58" class="edge">
<title>/lib/main_screen.dart&#45;&gt;/lib/panels/tools/flood_fill.dart</title>
<path fill="none" stroke="#aabbaa" stroke-width="1.3" stroke-opacity="0.533333" d="M1140.98,-509.54C1217.26,-509.56 1356.87,-506.41 1401,-484 1442.64,-462.86 1474.77,-417.57 1492.27,-388.24"/>
<polygon fill="#aabbaa" fill-opacity="0.533333" stroke="#aabbaa" stroke-width="1.3" stroke-opacity="0.533333" points="1495.1,-390.35 1497.06,-379.94 1489.03,-386.85 1495.1,-390.35"/>
</g>
<!-- /lib/main_screen.dart&#45;&gt;/lib/panels/canvas_panel.dart -->
<g id="edge56" class="edge">
<title>/lib/main_screen.dart&#45;&gt;/lib/panels/canvas_panel.dart</title>
<path fill="none" stroke="#aabbaa" stroke-width="1.3" stroke-opacity="0.533333" d="M1086.31,-491.57C1076.24,-442.31 1050.21,-302.98 1069,-262 1074.61,-249.77 1084.35,-239.19 1094.62,-230.63"/>
<polygon fill="#aabbaa" fill-opacity="0.533333" stroke="#aabbaa" stroke-width="1.3" stroke-opacity="0.533333" points="1096.73,-233.42 1102.52,-224.55 1092.47,-227.87 1096.73,-233.42"/>
</g>
<!-- /lib/main_screen.dart&#45;&gt;/lib/panels/side_panel.dart -->
<g id="edge57" class="edge">
<title>/lib/main_screen.dart&#45;&gt;/lib/panels/side_panel.dart</title>
<path fill="none" stroke="#aabbaa" stroke-width="1.3" stroke-opacity="0.533333" d="M1122.83,-491.66C1126.7,-489.24 1130.51,-486.66 1134,-484 1142.62,-477.43 1151.25,-469.38 1158.76,-461.77"/>
<polygon fill="#aabbaa" fill-opacity="0.533333" stroke="#aabbaa" stroke-width="1.3" stroke-opacity="0.533333" points="1161.26,-464.21 1165.64,-454.57 1156.2,-459.38 1161.26,-464.21"/>
</g>
<!-- /lib/main_screen.dart&#45;&gt;/lib/models/app_model.dart -->
<g id="edge59" class="edge">
<title>/lib/main_screen.dart&#45;&gt;/lib/models/app_model.dart</title>
<path fill="none" stroke="#aabbaa" stroke-width="1.3" stroke-opacity="0.533333" d="M1046.56,-491.64C1011.5,-475.42 963.62,-447.84 936,-409 898.16,-355.79 888.81,-277.12 886.6,-235.05"/>
<polygon fill="#aabbaa" fill-opacity="0.533333" stroke="#aabbaa" stroke-width="1.3" stroke-opacity="0.533333" points="890.1,-235.05 886.19,-225.2 883.11,-235.34 890.1,-235.05"/>
</g>
<!-- /lib/helpers/color_helper.dart&#45;&gt;/lib/helpers/list_helper.dart -->
<g id="edge60" class="edge">
<title>/lib/helpers/color_helper.dart&#45;&gt;/lib/helpers/list_helper.dart</title>
<path fill="none" stroke="#aabbaa" stroke-width="1.3" stroke-opacity="0.533333" d="M2608.27,-103.7C2607.55,-96.49 2606.69,-87.93 2605.88,-79.82"/>
<polygon fill="#aabbaa" fill-opacity="0.533333" stroke="#aabbaa" stroke-width="1.3" stroke-opacity="0.533333" points="2609.38,-79.66 2604.91,-70.06 2602.42,-80.36 2609.38,-79.66"/>
</g>
<!-- /lib/widgets/brush_style_picker.dart&#45;&gt;/lib/models/app_model.dart -->
<g id="edge61" class="edge">
<title>/lib/widgets/brush_style_picker.dart&#45;&gt;/lib/models/app_model.dart</title>
<path fill="none" stroke="#aabbaa" stroke-width="1.3" stroke-opacity="0.533333" d="M1655.29,-223.38C1615.67,-235.93 1560.16,-251.43 1510,-258 1494.52,-260.03 963.27,-261.24 948,-258 931.93,-254.59 917.7,-243.39 906.93,-232.16"/>
<polygon fill="#aabbaa" fill-opacity="0.533333" stroke="#aabbaa" stroke-width="1.3" stroke-opacity="0.533333" points="909.63,-229.93 900.38,-224.77 904.39,-234.57 909.63,-229.93"/>
</g>
<!-- /lib/widgets/color_picker.dart&#45;&gt;/lib/helpers/list_helper.dart -->
<g id="edge63" class="edge">
<title>/lib/widgets/color_picker.dart&#45;&gt;/lib/helpers/list_helper.dart</title>
<path fill="none" stroke="#aabbaa" stroke-width="1.3" stroke-opacity="0.533333" d="M2420.23,-186.75C2456.86,-159.54 2528.16,-106.58 2570.06,-75.46"/>
<polygon fill="#aabbaa" fill-opacity="0.533333" stroke="#aabbaa" stroke-width="1.3" stroke-opacity="0.533333" points="2572.02,-78.37 2577.96,-69.6 2567.84,-72.75 2572.02,-78.37"/>
</g>
<!-- /lib/widgets/color_picker.dart&#45;&gt;/lib/helpers/color_helper.dart -->
<g id="edge62" class="edge">
<title>/lib/widgets/color_picker.dart&#45;&gt;/lib/helpers/color_helper.dart</title>
<path fill="none" stroke="#aabbaa" stroke-width="1.3" stroke-opacity="0.533333" d="M2431.93,-186.53C2439.08,-183.57 2446.67,-180.86 2454,-179 2495.07,-168.57 2509.58,-186.53 2549,-171 2562.05,-165.86 2574.58,-156.96 2584.85,-148.21"/>
<polygon fill="#aabbaa" fill-opacity="0.533333" stroke="#aabbaa" stroke-width="1.3" stroke-opacity="0.533333" points="2587.05,-150.94 2592.13,-141.64 2582.36,-145.74 2587.05,-150.94"/>
</g>
<!-- /lib/widgets/color_picker.dart&#45;&gt;/lib/widgets/transparent_background.dart -->
<g id="edge64" class="edge">
<title>/lib/widgets/color_picker.dart&#45;&gt;/lib/widgets/transparent_background.dart</title>
<path fill="none" stroke="#aabbaa" stroke-width="1.3" stroke-opacity="0.533333" d="M2362.05,-186.58C2354.91,-183.61 2347.32,-180.89 2340,-179 2164.35,-133.72 1952.08,-123.88 1829.3,-122.38"/>
<polygon fill="#aabbaa" fill-opacity="0.533333" stroke="#aabbaa" stroke-width="1.3" stroke-opacity="0.533333" points="1829.7,-118.89 1819.67,-122.28 1829.63,-125.89 1829.7,-118.89"/>
</g>
</g>
</svg>
