<?xml version="1.0" encoding="UTF-8" standalone="no"?>
<!DOCTYPE svg PUBLIC "-//W3C//DTD SVG 1.1//EN"
 "http://www.w3.org/Graphics/SVG/1.1/DTD/svg11.dtd">
<!-- Generated by graphviz version 12.2.1 (20241206.2353)
 -->
<!-- Pages: 1 -->
<svg width="2778pt" height="911pt"
 viewBox="0.00 0.00 2778.00 911.00" xmlns="http://www.w3.org/2000/svg" xmlns:xlink="http://www.w3.org/1999/xlink">
<g id="graph0" class="graph" transform="scale(1 1) rotate(0) translate(4 907)">
<polygon fill="white" stroke="none" points="-4,4 -4,-907 2774,-907 2774,4 -4,4"/>
<g id="clust1" class="cluster">
<title>cluster~</title>
<path fill="none" stroke="lightgray" stroke-width="2.6" d="M20,-8C20,-8 2750,-8 2750,-8 2756,-8 2762,-14 2762,-20 2762,-20 2762,-883 2762,-883 2762,-889 2756,-895 2750,-895 2750,-895 20,-895 20,-895 14,-895 8,-889 8,-883 8,-883 8,-20 8,-20 8,-14 14,-8 20,-8"/>
<text text-anchor="middle" x="1385" y="-878.65" font-family="Arial Black" font-size="13.00">fpaint</text>
</g>
<g id="clust2" class="cluster">
<title>cluster~/test</title>
<path fill="none" stroke="lightgray" stroke-width="2.6" d="M28,-711C28,-711 785,-711 785,-711 791,-711 797,-717 797,-723 797,-723 797,-852 797,-852 797,-858 791,-864 785,-864 785,-864 28,-864 28,-864 22,-864 16,-858 16,-852 16,-852 16,-723 16,-723 16,-717 22,-711 28,-711"/>
<text text-anchor="middle" x="406.5" y="-847.65" font-family="Arial Black" font-size="13.00">test</text>
</g>
<g id="clust3" class="cluster">
<title>cluster~/test/panels</title>
<path fill="none" stroke="lightgray" stroke-width="2.6" d="M303,-719C303,-719 415,-719 415,-719 421,-719 427,-725 427,-731 427,-731 427,-821 427,-821 427,-827 421,-833 415,-833 415,-833 303,-833 303,-833 297,-833 291,-827 291,-821 291,-821 291,-731 291,-731 291,-725 297,-719 303,-719"/>
<text text-anchor="middle" x="359" y="-816.65" font-family="Arial Black" font-size="13.00">panels</text>
</g>
<g id="clust4" class="cluster">
<title>cluster~/test/panels/tools</title>
<path fill="none" stroke="lightgray" stroke-width="2.6" d="M311,-727C311,-727 407,-727 407,-727 413,-727 419,-733 419,-739 419,-739 419,-790 419,-790 419,-796 413,-802 407,-802 407,-802 311,-802 311,-802 305,-802 299,-796 299,-790 299,-790 299,-739 299,-739 299,-733 305,-727 311,-727"/>
<text text-anchor="middle" x="359" y="-785.65" font-family="Arial Black" font-size="13.00">tools</text>
</g>
<g id="clust5" class="cluster">
<title>cluster~/test/models</title>
<path fill="none" stroke="lightgray" stroke-width="2.6" d="M36,-727C36,-727 172,-727 172,-727 178,-727 184,-733 184,-739 184,-739 184,-790 184,-790 184,-796 178,-802 172,-802 172,-802 36,-802 36,-802 30,-802 24,-796 24,-790 24,-790 24,-739 24,-739 24,-733 30,-727 36,-727"/>
<text text-anchor="middle" x="104" y="-785.65" font-family="Arial Black" font-size="13.00">models</text>
</g>
<g id="clust6" class="cluster">
<title>cluster~/lib</title>
<path fill="none" stroke="lightgray" stroke-width="2.6" d="M60,-16C60,-16 2742,-16 2742,-16 2748,-16 2754,-22 2754,-28 2754,-28 2754,-691 2754,-691 2754,-697 2748,-703 2742,-703 2742,-703 60,-703 60,-703 54,-703 48,-697 48,-691 48,-691 48,-28 48,-28 48,-22 54,-16 60,-16"/>
<text text-anchor="middle" x="1401" y="-686.65" font-family="Arial Black" font-size="13.00">lib</text>
</g>
<g id="clust7" class="cluster">
<title>cluster~/lib/panels</title>
<path fill="none" stroke="lightgray" stroke-width="2.6" d="M1311,-251C1311,-251 2183,-251 2183,-251 2189,-251 2195,-257 2195,-263 2195,-263 2195,-544 2195,-544 2195,-550 2189,-556 2183,-556 2183,-556 1311,-556 1311,-556 1305,-556 1299,-550 1299,-544 1299,-544 1299,-263 1299,-263 1299,-257 1305,-251 1311,-251"/>
<text text-anchor="middle" x="1747" y="-539.65" font-family="Arial Black" font-size="13.00">panels</text>
</g>
<g id="clust8" class="cluster">
<title>cluster~/lib/panels/tools</title>
<path fill="none" stroke="lightgray" stroke-width="2.6" d="M1319,-331C1319,-331 1591,-331 1591,-331 1597,-331 1603,-337 1603,-343 1603,-343 1603,-469 1603,-469 1603,-475 1597,-481 1591,-481 1591,-481 1319,-481 1319,-481 1313,-481 1307,-475 1307,-469 1307,-469 1307,-343 1307,-343 1307,-337 1313,-331 1319,-331"/>
<text text-anchor="middle" x="1455" y="-464.65" font-family="Arial Black" font-size="13.00">tools</text>
</g>
<g id="clust9" class="cluster">
<title>cluster~/lib/panels/layers</title>
<path fill="none" stroke="lightgray" stroke-width="2.6" d="M1829,-259C1829,-259 2058,-259 2058,-259 2064,-259 2070,-265 2070,-271 2070,-271 2070,-469 2070,-469 2070,-475 2064,-481 2058,-481 2058,-481 1829,-481 1829,-481 1823,-481 1817,-475 1817,-469 1817,-469 1817,-271 1817,-271 1817,-265 1823,-259 1829,-259"/>
<text text-anchor="middle" x="1943.5" y="-464.65" font-family="Arial Black" font-size="13.00">layers</text>
</g>
<g id="clust10" class="cluster">
<title>cluster~/lib/models</title>
<path fill="none" stroke="lightgray" stroke-width="2.6" d="M919,-96C919,-96 1153,-96 1153,-96 1159,-96 1165,-102 1165,-108 1165,-108 1165,-394 1165,-394 1165,-400 1159,-406 1153,-406 1153,-406 919,-406 919,-406 913,-406 907,-400 907,-394 907,-394 907,-108 907,-108 907,-102 913,-96 919,-96"/>
<text text-anchor="middle" x="1036" y="-389.65" font-family="Arial Black" font-size="13.00">models</text>
</g>
<g id="clust11" class="cluster">
<title>cluster~/lib/files</title>
<path fill="none" stroke="lightgray" stroke-width="2.6" d="M100,-259C100,-259 887,-259 887,-259 893,-259 899,-265 899,-271 899,-271 899,-394 899,-394 899,-400 893,-406 887,-406 887,-406 100,-406 100,-406 94,-406 88,-400 88,-394 88,-394 88,-271 88,-271 88,-265 94,-259 100,-259"/>
<text text-anchor="middle" x="493.5" y="-389.65" font-family="Arial Black" font-size="13.00">files</text>
</g>
<g id="clust12" class="cluster">
<title>cluster~/lib/helpers</title>
<path fill="none" stroke="lightgray" stroke-width="2.6" d="M1185,-24C1185,-24 1283,-24 1283,-24 1289,-24 1295,-30 1295,-36 1295,-36 1295,-231 1295,-231 1295,-237 1289,-243 1283,-243 1283,-243 1185,-243 1185,-243 1179,-243 1173,-237 1173,-231 1173,-231 1173,-36 1173,-36 1173,-30 1179,-24 1185,-24"/>
<text text-anchor="middle" x="1234" y="-226.65" font-family="Arial Black" font-size="13.00">helpers</text>
</g>
<g id="clust13" class="cluster">
<title>cluster~/lib/widgets</title>
<path fill="none" stroke="lightgray" stroke-width="2.6" d="M1369,-96C1369,-96 2662,-96 2662,-96 2668,-96 2674,-102 2674,-108 2674,-108 2674,-231 2674,-231 2674,-237 2668,-243 2662,-243 2662,-243 1369,-243 1369,-243 1363,-243 1357,-237 1357,-231 1357,-231 1357,-108 1357,-108 1357,-102 1363,-96 1369,-96"/>
<text text-anchor="middle" x="2015.5" y="-226.65" font-family="Arial Black" font-size="13.00">widgets</text>
</g>
<!-- /test/paint_model_test.dart -->
<g id="node1" class="node">
<title>/test/paint_model_test.dart</title>
<path fill="Lavender" stroke="black" stroke-width="1.3" d="M777,-771C777,-771 671,-771 671,-771 665,-771 659,-765 659,-759 659,-759 659,-747 659,-747 659,-741 665,-735 671,-735 671,-735 777,-735 777,-735 783,-735 789,-741 789,-747 789,-747 789,-759 789,-759 789,-765 783,-771 777,-771"/>
<text text-anchor="middle" x="724" y="-747.75" font-family="Arial" font-size="15.00">paint_model_test</text>
</g>
<!-- /lib/models/app_model.dart -->
<g id="node25" class="node">
<title>/lib/models/app_model.dart</title>
<path fill="Lavender" stroke="black" stroke-width="1.3" d="M1008.75,-212C1008.75,-212 943.25,-212 943.25,-212 937.25,-212 931.25,-206 931.25,-200 931.25,-200 931.25,-188 931.25,-188 931.25,-182 937.25,-176 943.25,-176 943.25,-176 1008.75,-176 1008.75,-176 1014.75,-176 1020.75,-182 1020.75,-188 1020.75,-188 1020.75,-200 1020.75,-200 1020.75,-206 1014.75,-212 1008.75,-212"/>
<text text-anchor="middle" x="976" y="-188.75" font-family="Arial" font-size="15.00">app_model</text>
</g>
<!-- /test/paint_model_test.dart&#45;&gt;/lib/models/app_model.dart -->
<g id="edge1" class="edge">
<title>/test/paint_model_test.dart&#45;&gt;/lib/models/app_model.dart</title>
<path fill="none" stroke="#aabbaa" stroke-width="1.3" stroke-opacity="0.533333" d="M789.49,-751.52C1040.36,-749.42 1940.37,-739.46 2224,-703 2463.12,-672.26 2753,-824.08 2753,-583 2753,-583 2753,-583 2753,-356 2753,-344.67 2756.22,-338.8 2748,-331 2658.56,-246.15 2321.93,-260.33 2199,-251 2166.73,-248.55 1064.41,-254.07 1034,-243 1021.02,-238.28 1008.88,-229.28 999.09,-220.33"/>
<polygon fill="#aabbaa" fill-opacity="0.533333" stroke="#aabbaa" stroke-width="1.3" stroke-opacity="0.533333" points="1001.82,-218.11 992.21,-213.63 996.93,-223.12 1001.82,-218.11"/>
</g>
<!-- /test/panels/tools/flood_fill_test.dart -->
<g id="node2" class="node">
<title>/test/panels/tools/flood_fill_test.dart</title>
<path fill="Lavender" stroke="black" stroke-width="1.3" d="M398.5,-771C398.5,-771 319.5,-771 319.5,-771 313.5,-771 307.5,-765 307.5,-759 307.5,-759 307.5,-747 307.5,-747 307.5,-741 313.5,-735 319.5,-735 319.5,-735 398.5,-735 398.5,-735 404.5,-735 410.5,-741 410.5,-747 410.5,-747 410.5,-759 410.5,-759 410.5,-765 404.5,-771 398.5,-771"/>
<text text-anchor="middle" x="359" y="-747.75" font-family="Arial" font-size="15.00">flood_fill_test</text>
</g>
<!-- /lib/panels/tools/flood_fill.dart -->
<g id="node9" class="node">
<title>/lib/panels/tools/flood_fill.dart</title>
<path fill="Lavender" stroke="black" stroke-width="1.3" d="M1373,-450C1373,-450 1327,-450 1327,-450 1321,-450 1315,-444 1315,-438 1315,-438 1315,-426 1315,-426 1315,-420 1321,-414 1327,-414 1327,-414 1373,-414 1373,-414 1379,-414 1385,-420 1385,-426 1385,-426 1385,-438 1385,-438 1385,-444 1379,-450 1373,-450"/>
<text text-anchor="middle" x="1350" y="-426.75" font-family="Arial" font-size="15.00">flood_fill</text>
</g>
<!-- /test/panels/tools/flood_fill_test.dart&#45;&gt;/lib/panels/tools/flood_fill.dart -->
<g id="edge2" class="edge">
<title>/test/panels/tools/flood_fill_test.dart&#45;&gt;/lib/panels/tools/flood_fill.dart</title>
<path fill="none" stroke="#aabbaa" stroke-width="1.3" stroke-opacity="0.533333" d="M341.81,-734.86C331.7,-725.98 318.16,-715.97 304,-711 291.83,-706.73 81.4,-711.83 72,-703 49.43,-681.79 41.24,-586.98 62,-564 146.89,-470.03 1080.49,-439.99 1302.73,-434.14"/>
<polygon fill="#aabbaa" fill-opacity="0.533333" stroke="#aabbaa" stroke-width="1.3" stroke-opacity="0.533333" points="1302.68,-437.64 1312.59,-433.89 1302.5,-430.65 1302.68,-437.64"/>
</g>
<!-- /test/models/canvas_resize_test.dart -->
<g id="node3" class="node">
<title>/test/models/canvas_resize_test.dart</title>
<path fill="Lavender" stroke="black" stroke-width="1.3" d="M164.12,-771C164.12,-771 43.87,-771 43.87,-771 37.88,-771 31.88,-765 31.88,-759 31.88,-759 31.88,-747 31.88,-747 31.88,-741 37.88,-735 43.88,-735 43.88,-735 164.12,-735 164.12,-735 170.12,-735 176.12,-741 176.12,-747 176.12,-747 176.12,-759 176.12,-759 176.12,-765 170.12,-771 164.12,-771"/>
<text text-anchor="middle" x="104" y="-747.75" font-family="Arial" font-size="15.00">canvas_resize_test</text>
</g>
<!-- /lib/models/canvas_resize.dart -->
<g id="node23" class="node">
<title>/lib/models/canvas_resize.dart</title>
<path fill="Lavender" stroke="black" stroke-width="1.3" d="M1014.62,-140C1014.62,-140 927.38,-140 927.38,-140 921.38,-140 915.38,-134 915.38,-128 915.38,-128 915.38,-116 915.38,-116 915.38,-110 921.38,-104 927.38,-104 927.38,-104 1014.62,-104 1014.62,-104 1020.62,-104 1026.62,-110 1026.62,-116 1026.62,-116 1026.62,-128 1026.62,-128 1026.62,-134 1020.62,-140 1014.62,-140"/>
<text text-anchor="middle" x="971" y="-116.75" font-family="Arial" font-size="15.00">canvas_resize</text>
</g>
<!-- /test/models/canvas_resize_test.dart&#45;&gt;/lib/models/canvas_resize.dart -->
<g id="edge3" class="edge">
<title>/test/models/canvas_resize_test.dart&#45;&gt;/lib/models/canvas_resize.dart</title>
<path fill="none" stroke="#aabbaa" stroke-width="1.3" stroke-opacity="0.533333" d="M58.53,-734.61C44.78,-727.04 31.17,-716.69 23,-703 -4.38,-657.15 17,-636.4 17,-583 17,-583 17,-583 17,-284 17,-268.54 16.1,-260.86 28,-251 161.49,-140.38 709.9,-125.11 903.19,-123.19"/>
<polygon fill="#aabbaa" fill-opacity="0.533333" stroke="#aabbaa" stroke-width="1.3" stroke-opacity="0.533333" points="903.19,-126.7 913.16,-123.11 903.13,-119.7 903.19,-126.7"/>
</g>
<!-- /test/widget_test.dart -->
<g id="node4" class="node">
<title>/test/widget_test.dart</title>
<path fill="Lavender" stroke="black" stroke-width="1.3" d="M514.88,-771C514.88,-771 447.12,-771 447.12,-771 441.12,-771 435.12,-765 435.12,-759 435.12,-759 435.12,-747 435.12,-747 435.12,-741 441.12,-735 447.12,-735 447.12,-735 514.88,-735 514.88,-735 520.88,-735 526.88,-741 526.88,-747 526.88,-747 526.88,-759 526.88,-759 526.88,-765 520.88,-771 514.88,-771"/>
<text text-anchor="middle" x="481" y="-747.75" font-family="Arial" font-size="15.00">widget_test</text>
</g>
<!-- /lib/main.dart -->
<g id="node27" class="node">
<title>/lib/main.dart</title>
<path fill="Lavender" stroke="black" stroke-width="1.3" d="M496,-672C496,-672 466,-672 466,-672 460,-672 454,-666 454,-660 454,-660 454,-648 454,-648 454,-642 460,-636 466,-636 466,-636 496,-636 496,-636 502,-636 508,-642 508,-648 508,-648 508,-660 508,-660 508,-666 502,-672 496,-672"/>
<text text-anchor="middle" x="481" y="-648.75" font-family="Arial" font-size="15.00">main</text>
</g>
<!-- /test/widget_test.dart&#45;&gt;/lib/main.dart -->
<g id="edge4" class="edge">
<title>/test/widget_test.dart&#45;&gt;/lib/main.dart</title>
<path fill="none" stroke="#aabbaa" stroke-width="1.3" stroke-opacity="0.533333" d="M481,-734.66C481,-720.59 481,-700.45 481,-683.95"/>
<polygon fill="#aabbaa" fill-opacity="0.533333" stroke="#aabbaa" stroke-width="1.3" stroke-opacity="0.533333" points="484.5,-684.16 481,-674.16 477.5,-684.16 484.5,-684.16"/>
</g>
<!-- /test/file_xcf_test.dart -->
<g id="node5" class="node">
<title>/test/file_xcf_test.dart</title>
<path fill="Lavender" stroke="black" stroke-width="1.3" d="M628.75,-771C628.75,-771 557.25,-771 557.25,-771 551.25,-771 545.25,-765 545.25,-759 545.25,-759 545.25,-747 545.25,-747 545.25,-741 551.25,-735 557.25,-735 557.25,-735 628.75,-735 628.75,-735 634.75,-735 640.75,-741 640.75,-747 640.75,-747 640.75,-759 640.75,-759 640.75,-765 634.75,-771 628.75,-771"/>
<text text-anchor="middle" x="593" y="-747.75" font-family="Arial" font-size="15.00">file_xcf_test</text>
</g>
<!-- /lib/files/xcf_reader.dart -->
<g id="node28" class="node">
<title>/lib/files/xcf_reader.dart</title>
<path fill="Lavender" stroke="black" stroke-width="1.3" d="M298.62,-375C298.62,-375 235.38,-375 235.38,-375 229.38,-375 223.38,-369 223.38,-363 223.38,-363 223.38,-351 223.38,-351 223.38,-345 229.38,-339 235.38,-339 235.38,-339 298.62,-339 298.62,-339 304.62,-339 310.62,-345 310.62,-351 310.62,-351 310.62,-363 310.62,-363 310.62,-369 304.62,-375 298.62,-375"/>
<text text-anchor="middle" x="267" y="-351.75" font-family="Arial" font-size="15.00">xcf_reader</text>
</g>
<!-- /test/file_xcf_test.dart&#45;&gt;/lib/files/xcf_reader.dart -->
<g id="edge6" class="edge">
<title>/test/file_xcf_test.dart&#45;&gt;/lib/files/xcf_reader.dart</title>
<path fill="none" stroke="#aabbaa" stroke-width="1.3" stroke-opacity="0.533333" d="M610.87,-734.69C621.36,-725.76 635.39,-715.75 650,-711 670.61,-704.3 2194.4,-718.04 2210,-703 2248.43,-665.95 2215,-636.38 2215,-583 2215,-583 2215,-583 2215,-506 2215,-430.17 2114.91,-424.63 2074,-414 2026.84,-401.74 365.42,-423.63 320,-406 308.02,-401.35 297.07,-392.62 288.26,-383.86"/>
<polygon fill="#aabbaa" fill-opacity="0.533333" stroke="#aabbaa" stroke-width="1.3" stroke-opacity="0.533333" points="290.95,-381.6 281.56,-376.68 285.83,-386.38 290.95,-381.6"/>
</g>
<!-- /lib/files/assets_helper.dart -->
<g id="node29" class="node">
<title>/lib/files/assets_helper.dart</title>
<path fill="Lavender" stroke="black" stroke-width="1.3" d="M193.5,-375C193.5,-375 108.5,-375 108.5,-375 102.5,-375 96.5,-369 96.5,-363 96.5,-363 96.5,-351 96.5,-351 96.5,-345 102.5,-339 108.5,-339 108.5,-339 193.5,-339 193.5,-339 199.5,-339 205.5,-345 205.5,-351 205.5,-351 205.5,-363 205.5,-363 205.5,-369 199.5,-375 193.5,-375"/>
<text text-anchor="middle" x="151" y="-351.75" font-family="Arial" font-size="15.00">assets_helper</text>
</g>
<!-- /test/file_xcf_test.dart&#45;&gt;/lib/files/assets_helper.dart -->
<g id="edge5" class="edge">
<title>/test/file_xcf_test.dart&#45;&gt;/lib/files/assets_helper.dart</title>
<path fill="none" stroke="#aabbaa" stroke-width="1.3" stroke-opacity="0.533333" d="M574.86,-734.55C564.39,-725.69 550.46,-715.8 536,-711 524.03,-707.03 91.03,-711.81 82,-703 62.9,-684.36 77,-609.69 77,-583 77,-583 77,-583 77,-506 77,-459.49 106.6,-412.61 128.36,-384.43"/>
<polygon fill="#aabbaa" fill-opacity="0.533333" stroke="#aabbaa" stroke-width="1.3" stroke-opacity="0.533333" points="130.94,-386.81 134.44,-376.81 125.47,-382.45 130.94,-386.81"/>
</g>
<!-- /test/layers_test.dart -->
<g id="node6" class="node">
<title>/test/layers_test.dart</title>
<path fill="Lavender" stroke="black" stroke-width="1.3" d="M271.38,-771C271.38,-771 206.62,-771 206.62,-771 200.62,-771 194.62,-765 194.62,-759 194.62,-759 194.62,-747 194.62,-747 194.62,-741 200.62,-735 206.62,-735 206.62,-735 271.38,-735 271.38,-735 277.38,-735 283.38,-741 283.38,-747 283.38,-747 283.38,-759 283.38,-759 283.38,-765 277.38,-771 271.38,-771"/>
<text text-anchor="middle" x="239" y="-747.75" font-family="Arial" font-size="15.00">layers_test</text>
</g>
<!-- /lib/models/layer.dart -->
<g id="node26" class="node">
<title>/lib/models/layer.dart</title>
<path fill="Lavender" stroke="black" stroke-width="1.3" d="M1125,-303C1125,-303 1095,-303 1095,-303 1089,-303 1083,-297 1083,-291 1083,-291 1083,-279 1083,-279 1083,-273 1089,-267 1095,-267 1095,-267 1125,-267 1125,-267 1131,-267 1137,-273 1137,-279 1137,-279 1137,-291 1137,-291 1137,-297 1131,-303 1125,-303"/>
<text text-anchor="middle" x="1110" y="-279.75" font-family="Arial" font-size="15.00">layer</text>
</g>
<!-- /test/layers_test.dart&#45;&gt;/lib/models/layer.dart -->
<g id="edge7" class="edge">
<title>/test/layers_test.dart&#45;&gt;/lib/models/layer.dart</title>
<path fill="none" stroke="#aabbaa" stroke-width="1.3" stroke-opacity="0.533333" d="M222.79,-734.57C213.53,-725.83 201.15,-716.05 188,-711 173.35,-705.37 58.24,-713.95 47,-703 8.66,-665.66 37,-636.52 37,-583 37,-583 37,-583 37,-431 37,-381.89 43,-358.03 84,-331 122.01,-305.94 857.55,-305.64 903,-303 961.52,-299.6 1029.19,-293.66 1070.79,-289.78"/>
<polygon fill="#aabbaa" fill-opacity="0.533333" stroke="#aabbaa" stroke-width="1.3" stroke-opacity="0.533333" points="1070.99,-293.28 1080.61,-288.86 1070.33,-286.31 1070.99,-293.28"/>
</g>
<!-- /lib/panels/about.dart -->
<g id="node7" class="node">
<title>/lib/panels/about.dart</title>
<path fill="Lavender" stroke="black" stroke-width="1.3" d="M1655,-375C1655,-375 1625,-375 1625,-375 1619,-375 1613,-369 1613,-363 1613,-363 1613,-351 1613,-351 1613,-345 1619,-339 1625,-339 1625,-339 1655,-339 1655,-339 1661,-339 1667,-345 1667,-351 1667,-351 1667,-363 1667,-363 1667,-369 1661,-375 1655,-375"/>
<text text-anchor="middle" x="1640" y="-351.75" font-family="Arial" font-size="15.00">about</text>
</g>
<!-- /lib/panels/tools/tool_selector.dart -->
<g id="node8" class="node">
<title>/lib/panels/tools/tool_selector.dart</title>
<path fill="Lavender" stroke="black" stroke-width="1.3" d="M1403.38,-375C1403.38,-375 1326.62,-375 1326.62,-375 1320.62,-375 1314.62,-369 1314.62,-363 1314.62,-363 1314.62,-351 1314.62,-351 1314.62,-345 1320.62,-339 1326.62,-339 1326.62,-339 1403.38,-339 1403.38,-339 1409.38,-339 1415.38,-345 1415.38,-351 1415.38,-351 1415.38,-363 1415.38,-363 1415.38,-369 1409.38,-375 1403.38,-375"/>
<text text-anchor="middle" x="1365" y="-351.75" font-family="Arial" font-size="15.00">tool_selector</text>
</g>
<!-- /lib/panels/tools/tools_panel.dart -->
<g id="node10" class="node">
<title>/lib/panels/tools/tools_panel.dart</title>
<path fill="Lavender" stroke="black" stroke-width="1.3" d="M1482.88,-450C1482.88,-450 1415.12,-450 1415.12,-450 1409.12,-450 1403.12,-444 1403.12,-438 1403.12,-438 1403.12,-426 1403.12,-426 1403.12,-420 1409.12,-414 1415.12,-414 1415.12,-414 1482.88,-414 1482.88,-414 1488.88,-414 1494.88,-420 1494.88,-426 1494.88,-426 1494.88,-438 1494.88,-438 1494.88,-444 1488.88,-450 1482.88,-450"/>
<text text-anchor="middle" x="1449" y="-426.75" font-family="Arial" font-size="15.00">tools_panel</text>
</g>
<!-- /lib/panels/tools/tools_panel.dart&#45;&gt;/lib/panels/tools/tool_selector.dart -->
<g id="edge10" class="edge">
<title>/lib/panels/tools/tools_panel.dart&#45;&gt;/lib/panels/tools/tool_selector.dart</title>
<path fill="none" stroke="#aabbaa" stroke-width="1.3" stroke-opacity="0.533333" d="M1429.09,-413.7C1418.6,-404.58 1405.54,-393.24 1393.96,-383.16"/>
<polygon fill="#aabbaa" fill-opacity="0.533333" stroke="#aabbaa" stroke-width="1.3" stroke-opacity="0.533333" points="1396.38,-380.64 1386.54,-376.72 1391.79,-385.92 1396.38,-380.64"/>
</g>
<!-- /lib/panels/tools/tool_attributes_widget.dart -->
<g id="node11" class="node">
<title>/lib/panels/tools/tool_attributes_widget.dart</title>
<path fill="Lavender" stroke="black" stroke-width="1.3" d="M1582.75,-375C1582.75,-375 1445.25,-375 1445.25,-375 1439.25,-375 1433.25,-369 1433.25,-363 1433.25,-363 1433.25,-351 1433.25,-351 1433.25,-345 1439.25,-339 1445.25,-339 1445.25,-339 1582.75,-339 1582.75,-339 1588.75,-339 1594.75,-345 1594.75,-351 1594.75,-351 1594.75,-363 1594.75,-363 1594.75,-369 1588.75,-375 1582.75,-375"/>
<text text-anchor="middle" x="1514" y="-351.75" font-family="Arial" font-size="15.00">tool_attributes_widget</text>
</g>
<!-- /lib/panels/tools/tools_panel.dart&#45;&gt;/lib/panels/tools/tool_attributes_widget.dart -->
<g id="edge9" class="edge">
<title>/lib/panels/tools/tools_panel.dart&#45;&gt;/lib/panels/tools/tool_attributes_widget.dart</title>
<path fill="none" stroke="#aabbaa" stroke-width="1.3" stroke-opacity="0.533333" d="M1464.4,-413.7C1472.2,-404.95 1481.83,-394.13 1490.52,-384.37"/>
<polygon fill="#aabbaa" fill-opacity="0.533333" stroke="#aabbaa" stroke-width="1.3" stroke-opacity="0.533333" points="1493.14,-386.69 1497.17,-376.9 1487.91,-382.04 1493.14,-386.69"/>
</g>
<!-- /lib/panels/tools/tools_panel.dart&#45;&gt;/lib/models/app_model.dart -->
<g id="edge8" class="edge">
<title>/lib/panels/tools/tools_panel.dart&#45;&gt;/lib/models/app_model.dart</title>
<path fill="none" stroke="#aabbaa" stroke-width="1.3" stroke-opacity="0.533333" d="M1402.71,-415.69C1399.78,-415.03 1396.86,-414.46 1394,-414 1382.01,-412.08 965.51,-414.66 957,-406 909.23,-357.35 940.6,-268.53 961.55,-223.22"/>
<polygon fill="#aabbaa" fill-opacity="0.533333" stroke="#aabbaa" stroke-width="1.3" stroke-opacity="0.533333" points="964.7,-224.73 965.87,-214.2 958.39,-221.7 964.7,-224.73"/>
</g>
<!-- /lib/widgets/svg_icon.dart -->
<g id="node40" class="node">
<title>/lib/widgets/svg_icon.dart</title>
<path fill="Lavender" stroke="black" stroke-width="1.3" d="M1947.25,-212C1947.25,-212 1896.75,-212 1896.75,-212 1890.75,-212 1884.75,-206 1884.75,-200 1884.75,-200 1884.75,-188 1884.75,-188 1884.75,-182 1890.75,-176 1896.75,-176 1896.75,-176 1947.25,-176 1947.25,-176 1953.25,-176 1959.25,-182 1959.25,-188 1959.25,-188 1959.25,-200 1959.25,-200 1959.25,-206 1953.25,-212 1947.25,-212"/>
<text text-anchor="middle" x="1922" y="-188.75" font-family="Arial" font-size="15.00">svg_icon</text>
</g>
<!-- /lib/panels/tools/tools_panel.dart&#45;&gt;/lib/widgets/svg_icon.dart -->
<g id="edge13" class="edge">
<title>/lib/panels/tools/tools_panel.dart&#45;&gt;/lib/widgets/svg_icon.dart</title>
<path fill="none" stroke="#aabbaa" stroke-width="1.3" stroke-opacity="0.533333" d="M1402.67,-415.89C1399.75,-415.18 1396.85,-414.54 1394,-414 1382.72,-411.85 1298.8,-414.43 1291,-406 1267.61,-380.72 1266.81,-275.52 1291,-251 1302.41,-239.43 1861.1,-249.48 1876,-243 1886.73,-238.34 1896.17,-229.84 1903.66,-221.28"/>
<polygon fill="#aabbaa" fill-opacity="0.533333" stroke="#aabbaa" stroke-width="1.3" stroke-opacity="0.533333" points="1906.24,-223.67 1909.77,-213.68 1900.78,-219.29 1906.24,-223.67"/>
</g>
<!-- /lib/widgets/brush_size_picker.dart -->
<g id="node43" class="node">
<title>/lib/widgets/brush_size_picker.dart</title>
<path fill="Lavender" stroke="black" stroke-width="1.3" d="M2101,-212C2101,-212 1989,-212 1989,-212 1983,-212 1977,-206 1977,-200 1977,-200 1977,-188 1977,-188 1977,-182 1983,-176 1989,-176 1989,-176 2101,-176 2101,-176 2107,-176 2113,-182 2113,-188 2113,-188 2113,-200 2113,-200 2113,-206 2107,-212 2101,-212"/>
<text text-anchor="middle" x="2045" y="-188.75" font-family="Arial" font-size="15.00">brush_size_picker</text>
</g>
<!-- /lib/panels/tools/tools_panel.dart&#45;&gt;/lib/widgets/brush_size_picker.dart -->
<g id="edge11" class="edge">
<title>/lib/panels/tools/tools_panel.dart&#45;&gt;/lib/widgets/brush_size_picker.dart</title>
<path fill="none" stroke="#aabbaa" stroke-width="1.3" stroke-opacity="0.533333" d="M1402.66,-415.93C1399.75,-415.22 1396.84,-414.56 1394,-414 1374.74,-410.19 1319.59,-420.17 1306,-406 1294.08,-393.56 1288.89,-263.26 1301,-251 1314.02,-237.82 1950.22,-248.2 1968,-243 1984.63,-238.13 2001.18,-228.59 2014.65,-219.29"/>
<polygon fill="#aabbaa" fill-opacity="0.533333" stroke="#aabbaa" stroke-width="1.3" stroke-opacity="0.533333" points="2016.66,-222.15 2022.71,-213.45 2012.55,-216.48 2016.66,-222.15"/>
</g>
<!-- /lib/widgets/tolerance_picker.dart -->
<g id="node45" class="node">
<title>/lib/widgets/tolerance_picker.dart</title>
<path fill="Lavender" stroke="black" stroke-width="1.3" d="M1636.75,-212C1636.75,-212 1535.25,-212 1535.25,-212 1529.25,-212 1523.25,-206 1523.25,-200 1523.25,-200 1523.25,-188 1523.25,-188 1523.25,-182 1529.25,-176 1535.25,-176 1535.25,-176 1636.75,-176 1636.75,-176 1642.75,-176 1648.75,-182 1648.75,-188 1648.75,-188 1648.75,-200 1648.75,-200 1648.75,-206 1642.75,-212 1636.75,-212"/>
<text text-anchor="middle" x="1586" y="-188.75" font-family="Arial" font-size="15.00">tolerance_picker</text>
</g>
<!-- /lib/panels/tools/tools_panel.dart&#45;&gt;/lib/widgets/tolerance_picker.dart -->
<g id="edge14" class="edge">
<title>/lib/panels/tools/tools_panel.dart&#45;&gt;/lib/widgets/tolerance_picker.dart</title>
<path fill="none" stroke="#aabbaa" stroke-width="1.3" stroke-opacity="0.533333" d="M1402.69,-415.79C1399.77,-415.11 1396.85,-414.5 1394,-414 1376.14,-410.85 1243.5,-419.13 1231,-406 1183.5,-356.11 1182.98,-300.4 1231,-251 1241.96,-239.72 1499.01,-247.77 1514,-243 1529.48,-238.07 1544.72,-228.75 1557.17,-219.62"/>
<polygon fill="#aabbaa" fill-opacity="0.533333" stroke="#aabbaa" stroke-width="1.3" stroke-opacity="0.533333" points="1559.16,-222.5 1564.95,-213.63 1554.89,-216.96 1559.16,-222.5"/>
</g>
<!-- /lib/widgets/top_colors.dart -->
<g id="node47" class="node">
<title>/lib/widgets/top_colors.dart</title>
<path fill="Lavender" stroke="black" stroke-width="1.3" d="M1854.5,-212C1854.5,-212 1793.5,-212 1793.5,-212 1787.5,-212 1781.5,-206 1781.5,-200 1781.5,-200 1781.5,-188 1781.5,-188 1781.5,-182 1787.5,-176 1793.5,-176 1793.5,-176 1854.5,-176 1854.5,-176 1860.5,-176 1866.5,-182 1866.5,-188 1866.5,-188 1866.5,-200 1866.5,-200 1866.5,-206 1860.5,-212 1854.5,-212"/>
<text text-anchor="middle" x="1824" y="-188.75" font-family="Arial" font-size="15.00">top_colors</text>
</g>
<!-- /lib/panels/tools/tools_panel.dart&#45;&gt;/lib/widgets/top_colors.dart -->
<g id="edge15" class="edge">
<title>/lib/panels/tools/tools_panel.dart&#45;&gt;/lib/widgets/top_colors.dart</title>
<path fill="none" stroke="#aabbaa" stroke-width="1.3" stroke-opacity="0.533333" d="M1402.68,-415.84C1399.76,-415.15 1396.85,-414.53 1394,-414 1380.53,-411.52 1280.36,-415.99 1271,-406 1247.45,-380.87 1246.84,-275.55 1271,-251 1280.76,-241.08 1759.08,-248.17 1772,-243 1783.81,-238.28 1794.56,-229.52 1803.19,-220.78"/>
<polygon fill="#aabbaa" fill-opacity="0.533333" stroke="#aabbaa" stroke-width="1.3" stroke-opacity="0.533333" points="1805.57,-223.37 1809.74,-213.63 1800.41,-218.64 1805.57,-223.37"/>
</g>
<!-- /lib/widgets/color_picker.dart -->
<g id="node50" class="node">
<title>/lib/widgets/color_picker.dart</title>
<path fill="Lavender" stroke="black" stroke-width="1.3" d="M1751.12,-212C1751.12,-212 1678.88,-212 1678.88,-212 1672.88,-212 1666.88,-206 1666.88,-200 1666.88,-200 1666.88,-188 1666.88,-188 1666.88,-182 1672.88,-176 1678.88,-176 1678.88,-176 1751.12,-176 1751.12,-176 1757.12,-176 1763.12,-182 1763.12,-188 1763.12,-188 1763.12,-200 1763.12,-200 1763.12,-206 1757.12,-212 1751.12,-212"/>
<text text-anchor="middle" x="1715" y="-188.75" font-family="Arial" font-size="15.00">color_picker</text>
</g>
<!-- /lib/panels/tools/tools_panel.dart&#45;&gt;/lib/widgets/color_picker.dart -->
<g id="edge12" class="edge">
<title>/lib/panels/tools/tools_panel.dart&#45;&gt;/lib/widgets/color_picker.dart</title>
<path fill="none" stroke="#aabbaa" stroke-width="1.3" stroke-opacity="0.533333" d="M1402.69,-415.81C1399.76,-415.13 1396.85,-414.51 1394,-414 1378.34,-411.18 1261.93,-417.56 1251,-406 1227.33,-380.97 1226.88,-275.59 1251,-251 1266.83,-234.85 1636.83,-250.96 1658,-243 1670.66,-238.24 1682.49,-229.35 1692.06,-220.51"/>
<polygon fill="#aabbaa" fill-opacity="0.533333" stroke="#aabbaa" stroke-width="1.3" stroke-opacity="0.533333" points="1694.43,-223.09 1699.08,-213.57 1689.51,-218.11 1694.43,-223.09"/>
</g>
<!-- /lib/helpers/color_helper.dart -->
<g id="node39" class="node">
<title>/lib/helpers/color_helper.dart</title>
<path fill="Lavender" stroke="black" stroke-width="1.3" d="M1274.88,-140C1274.88,-140 1201.12,-140 1201.12,-140 1195.12,-140 1189.12,-134 1189.12,-128 1189.12,-128 1189.12,-116 1189.12,-116 1189.12,-110 1195.12,-104 1201.12,-104 1201.12,-104 1274.88,-104 1274.88,-104 1280.88,-104 1286.88,-110 1286.88,-116 1286.88,-116 1286.88,-128 1286.88,-128 1286.88,-134 1280.88,-140 1274.88,-140"/>
<text text-anchor="middle" x="1238" y="-116.75" font-family="Arial" font-size="15.00">color_helper</text>
</g>
<!-- /lib/panels/tools/tool_attributes_widget.dart&#45;&gt;/lib/helpers/color_helper.dart -->
<g id="edge16" class="edge">
<title>/lib/panels/tools/tool_attributes_widget.dart&#45;&gt;/lib/helpers/color_helper.dart</title>
<path fill="none" stroke="#aabbaa" stroke-width="1.3" stroke-opacity="0.533333" d="M1450.57,-338.53C1407.95,-326.27 1358.27,-310.72 1351,-303 1311.02,-260.54 1351.88,-223.47 1318,-176 1309.68,-164.35 1297.93,-154.54 1285.99,-146.66"/>
<polygon fill="#aabbaa" fill-opacity="0.533333" stroke="#aabbaa" stroke-width="1.3" stroke-opacity="0.533333" points="1288.02,-143.8 1277.67,-141.53 1284.34,-149.76 1288.02,-143.8"/>
</g>
<!-- /lib/widgets/transparent_background.dart -->
<g id="node44" class="node">
<title>/lib/widgets/transparent_background.dart</title>
<path fill="Lavender" stroke="black" stroke-width="1.3" d="M2654.38,-140C2654.38,-140 2499.62,-140 2499.62,-140 2493.62,-140 2487.62,-134 2487.62,-128 2487.62,-128 2487.62,-116 2487.62,-116 2487.62,-110 2493.62,-104 2499.62,-104 2499.62,-104 2654.38,-104 2654.38,-104 2660.38,-104 2666.38,-110 2666.38,-116 2666.38,-116 2666.38,-128 2666.38,-128 2666.38,-134 2660.38,-140 2654.38,-140"/>
<text text-anchor="middle" x="2577" y="-116.75" font-family="Arial" font-size="15.00">transparent_background</text>
</g>
<!-- /lib/panels/tools/tool_attributes_widget.dart&#45;&gt;/lib/widgets/transparent_background.dart -->
<g id="edge17" class="edge">
<title>/lib/panels/tools/tool_attributes_widget.dart&#45;&gt;/lib/widgets/transparent_background.dart</title>
<path fill="none" stroke="#aabbaa" stroke-width="1.3" stroke-opacity="0.533333" d="M1566.14,-338.54C1576.9,-335.54 1588.23,-332.81 1599,-331 1722.43,-310.28 2638.69,-336.41 2722,-243 2741.82,-220.78 2739.06,-200.4 2722,-176 2711.13,-160.45 2695.17,-149.44 2677.79,-141.66"/>
<polygon fill="#aabbaa" fill-opacity="0.533333" stroke="#aabbaa" stroke-width="1.3" stroke-opacity="0.533333" points="2679.21,-138.46 2668.63,-137.96 2676.59,-144.95 2679.21,-138.46"/>
</g>
<!-- /lib/panels/canvas_panel.dart -->
<g id="node12" class="node">
<title>/lib/panels/canvas_panel.dart</title>
<path fill="Lavender" stroke="black" stroke-width="1.3" d="M2174.75,-303C2174.75,-303 2091.25,-303 2091.25,-303 2085.25,-303 2079.25,-297 2079.25,-291 2079.25,-291 2079.25,-279 2079.25,-279 2079.25,-273 2085.25,-267 2091.25,-267 2091.25,-267 2174.75,-267 2174.75,-267 2180.75,-267 2186.75,-273 2186.75,-279 2186.75,-279 2186.75,-291 2186.75,-291 2186.75,-297 2180.75,-303 2174.75,-303"/>
<text text-anchor="middle" x="2133" y="-279.75" font-family="Arial" font-size="15.00">canvas_panel</text>
</g>
<!-- /lib/panels/canvas_panel.dart&#45;&gt;/lib/models/app_model.dart -->
<g id="edge18" class="edge">
<title>/lib/panels/canvas_panel.dart&#45;&gt;/lib/models/app_model.dart</title>
<path fill="none" stroke="#aabbaa" stroke-width="1.3" stroke-opacity="0.533333" d="M2108.36,-266.57C2098.21,-260.39 2086.03,-254.18 2074,-251 2018.15,-236.21 1088.29,-262.79 1034,-243 1021.03,-238.27 1008.88,-229.27 999.09,-220.33"/>
<polygon fill="#aabbaa" fill-opacity="0.533333" stroke="#aabbaa" stroke-width="1.3" stroke-opacity="0.533333" points="1001.82,-218.1 992.22,-213.63 996.94,-223.11 1001.82,-218.1"/>
</g>
<!-- /lib/panels/canvas_panel.dart&#45;&gt;/lib/widgets/transparent_background.dart -->
<g id="edge19" class="edge">
<title>/lib/panels/canvas_panel.dart&#45;&gt;/lib/widgets/transparent_background.dart</title>
<path fill="none" stroke="#aabbaa" stroke-width="1.3" stroke-opacity="0.533333" d="M2186.9,-284.25C2323.46,-284.32 2674.79,-280.8 2710,-243 2730.3,-221.21 2726.71,-200.65 2710,-176 2701.02,-162.76 2688.15,-152.82 2673.91,-145.37"/>
<polygon fill="#aabbaa" fill-opacity="0.533333" stroke="#aabbaa" stroke-width="1.3" stroke-opacity="0.533333" points="2675.65,-142.32 2665.11,-141.21 2672.65,-148.65 2675.65,-142.32"/>
</g>
<!-- /lib/panels/layers/tools_and_layers_panel.dart -->
<g id="node13" class="node">
<title>/lib/panels/layers/tools_and_layers_panel.dart</title>
<path fill="Lavender" stroke="black" stroke-width="1.3" d="M1985.38,-450C1985.38,-450 1836.62,-450 1836.62,-450 1830.62,-450 1824.62,-444 1824.62,-438 1824.62,-438 1824.62,-426 1824.62,-426 1824.62,-420 1830.62,-414 1836.62,-414 1836.62,-414 1985.38,-414 1985.38,-414 1991.38,-414 1997.38,-420 1997.38,-426 1997.38,-426 1997.38,-438 1997.38,-438 1997.38,-444 1991.38,-450 1985.38,-450"/>
<text text-anchor="middle" x="1911" y="-426.75" font-family="Arial" font-size="15.00">tools_and_layers_panel</text>
</g>
<!-- /lib/panels/layers/tools_and_layers_panel.dart&#45;&gt;/lib/panels/about.dart -->
<g id="edge24" class="edge">
<title>/lib/panels/layers/tools_and_layers_panel.dart&#45;&gt;/lib/panels/about.dart</title>
<path fill="none" stroke="#aabbaa" stroke-width="1.3" stroke-opacity="0.533333" d="M1824.15,-428.93C1767.94,-426.25 1700.79,-420.09 1676,-406 1667.34,-401.08 1660.13,-393.14 1654.49,-385.12"/>
<polygon fill="#aabbaa" fill-opacity="0.533333" stroke="#aabbaa" stroke-width="1.3" stroke-opacity="0.533333" points="1657.54,-383.4 1649.24,-376.8 1651.62,-387.13 1657.54,-383.4"/>
</g>
<!-- /lib/panels/layers/layer_selector.dart -->
<g id="node14" class="node">
<title>/lib/panels/layers/layer_selector.dart</title>
<path fill="Lavender" stroke="black" stroke-width="1.3" d="M1923.5,-375C1923.5,-375 1838.5,-375 1838.5,-375 1832.5,-375 1826.5,-369 1826.5,-363 1826.5,-363 1826.5,-351 1826.5,-351 1826.5,-345 1832.5,-339 1838.5,-339 1838.5,-339 1923.5,-339 1923.5,-339 1929.5,-339 1935.5,-345 1935.5,-351 1935.5,-351 1935.5,-363 1935.5,-363 1935.5,-369 1929.5,-375 1923.5,-375"/>
<text text-anchor="middle" x="1881" y="-351.75" font-family="Arial" font-size="15.00">layer_selector</text>
</g>
<!-- /lib/panels/layers/tools_and_layers_panel.dart&#45;&gt;/lib/panels/layers/layer_selector.dart -->
<g id="edge26" class="edge">
<title>/lib/panels/layers/tools_and_layers_panel.dart&#45;&gt;/lib/panels/layers/layer_selector.dart</title>
<path fill="none" stroke="#aabbaa" stroke-width="1.3" stroke-opacity="0.533333" d="M1903.89,-413.7C1900.55,-405.58 1896.49,-395.68 1892.71,-386.5"/>
<polygon fill="#aabbaa" fill-opacity="0.533333" stroke="#aabbaa" stroke-width="1.3" stroke-opacity="0.533333" points="1895.95,-385.17 1888.91,-377.25 1889.47,-387.83 1895.95,-385.17"/>
</g>
<!-- /lib/panels/share_panel.dart -->
<g id="node18" class="node">
<title>/lib/panels/share_panel.dart</title>
<path fill="Lavender" stroke="black" stroke-width="1.3" d="M2163.88,-375C2163.88,-375 2090.12,-375 2090.12,-375 2084.12,-375 2078.12,-369 2078.12,-363 2078.12,-363 2078.12,-351 2078.12,-351 2078.12,-345 2084.12,-339 2090.12,-339 2090.12,-339 2163.88,-339 2163.88,-339 2169.88,-339 2175.88,-345 2175.88,-351 2175.88,-351 2175.88,-363 2175.88,-363 2175.88,-369 2169.88,-375 2163.88,-375"/>
<text text-anchor="middle" x="2127" y="-351.75" font-family="Arial" font-size="15.00">share_panel</text>
</g>
<!-- /lib/panels/layers/tools_and_layers_panel.dart&#45;&gt;/lib/panels/share_panel.dart -->
<g id="edge27" class="edge">
<title>/lib/panels/layers/tools_and_layers_panel.dart&#45;&gt;/lib/panels/share_panel.dart</title>
<path fill="none" stroke="#aabbaa" stroke-width="1.3" stroke-opacity="0.533333" d="M1997.68,-414.5C1998.79,-414.33 1999.9,-414.16 2001,-414 2033.28,-409.19 2044.23,-419.38 2074,-406 2085.55,-400.81 2096.31,-392.13 2105.07,-383.57"/>
<polygon fill="#aabbaa" fill-opacity="0.533333" stroke="#aabbaa" stroke-width="1.3" stroke-opacity="0.533333" points="2107.36,-386.24 2111.77,-376.61 2102.32,-381.39 2107.36,-386.24"/>
</g>
<!-- /lib/panels/canvas_settings.dart -->
<g id="node19" class="node">
<title>/lib/panels/canvas_settings.dart</title>
<path fill="Lavender" stroke="black" stroke-width="1.3" d="M1796.62,-375C1796.62,-375 1697.38,-375 1697.38,-375 1691.38,-375 1685.38,-369 1685.38,-363 1685.38,-363 1685.38,-351 1685.38,-351 1685.38,-345 1691.38,-339 1697.38,-339 1697.38,-339 1796.62,-339 1796.62,-339 1802.62,-339 1808.62,-345 1808.62,-351 1808.62,-351 1808.62,-363 1808.62,-363 1808.62,-369 1802.62,-375 1796.62,-375"/>
<text text-anchor="middle" x="1747" y="-351.75" font-family="Arial" font-size="15.00">canvas_settings</text>
</g>
<!-- /lib/panels/layers/tools_and_layers_panel.dart&#45;&gt;/lib/panels/canvas_settings.dart -->
<g id="edge25" class="edge">
<title>/lib/panels/layers/tools_and_layers_panel.dart&#45;&gt;/lib/panels/canvas_settings.dart</title>
<path fill="none" stroke="#aabbaa" stroke-width="1.3" stroke-opacity="0.533333" d="M1831.72,-413.57C1825.28,-411.32 1818.96,-408.8 1813,-406 1799.91,-399.85 1786.76,-390.97 1775.69,-382.52"/>
<polygon fill="#aabbaa" fill-opacity="0.533333" stroke="#aabbaa" stroke-width="1.3" stroke-opacity="0.533333" points="1778.1,-379.96 1768.08,-376.5 1773.75,-385.45 1778.1,-379.96"/>
</g>
<!-- /lib/models/menu_model.dart -->
<g id="node20" class="node">
<title>/lib/models/menu_model.dart</title>
<path fill="Lavender" stroke="black" stroke-width="1.3" d="M1071.12,-375C1071.12,-375 992.88,-375 992.88,-375 986.88,-375 980.88,-369 980.88,-363 980.88,-363 980.88,-351 980.88,-351 980.88,-345 986.88,-339 992.88,-339 992.88,-339 1071.12,-339 1071.12,-339 1077.12,-339 1083.12,-345 1083.12,-351 1083.12,-351 1083.12,-363 1083.12,-363 1083.12,-369 1077.12,-375 1071.12,-375"/>
<text text-anchor="middle" x="1032" y="-351.75" font-family="Arial" font-size="15.00">menu_model</text>
</g>
<!-- /lib/panels/layers/tools_and_layers_panel.dart&#45;&gt;/lib/models/menu_model.dart -->
<g id="edge23" class="edge">
<title>/lib/panels/layers/tools_and_layers_panel.dart&#45;&gt;/lib/models/menu_model.dart</title>
<path fill="none" stroke="#aabbaa" stroke-width="1.3" stroke-opacity="0.533333" d="M1824.23,-425.22C1763.44,-421.39 1680.3,-416.62 1607,-414 1578.4,-412.98 1118.93,-415.68 1092,-406 1078.74,-401.23 1066.2,-392.22 1056.05,-383.29"/>
<polygon fill="#aabbaa" fill-opacity="0.533333" stroke="#aabbaa" stroke-width="1.3" stroke-opacity="0.533333" points="1058.57,-380.85 1048.89,-376.57 1053.79,-385.96 1058.57,-380.85"/>
</g>
<!-- /lib/panels/layers/tools_and_layers_panel.dart&#45;&gt;/lib/models/app_model.dart -->
<g id="edge22" class="edge">
<title>/lib/panels/layers/tools_and_layers_panel.dart&#45;&gt;/lib/models/app_model.dart</title>
<path fill="none" stroke="#aabbaa" stroke-width="1.3" stroke-opacity="0.533333" d="M1824.23,-425.15C1763.45,-421.29 1680.3,-416.51 1607,-414 1598.19,-413.7 978.2,-412.28 972,-406 947.38,-381.07 961.78,-275.65 970.63,-223.9"/>
<polygon fill="#aabbaa" fill-opacity="0.533333" stroke="#aabbaa" stroke-width="1.3" stroke-opacity="0.533333" points="974.05,-224.66 972.35,-214.2 967.16,-223.44 974.05,-224.66"/>
</g>
<!-- /lib/files/save.dart -->
<g id="node33" class="node">
<title>/lib/files/save.dart</title>
<path fill="Lavender" stroke="black" stroke-width="1.3" d="M879,-375C879,-375 849,-375 849,-375 843,-375 837,-369 837,-363 837,-363 837,-351 837,-351 837,-345 843,-339 849,-339 849,-339 879,-339 879,-339 885,-339 891,-345 891,-351 891,-351 891,-363 891,-363 891,-369 885,-375 879,-375"/>
<text text-anchor="middle" x="864" y="-351.75" font-family="Arial" font-size="15.00">save</text>
</g>
<!-- /lib/panels/layers/tools_and_layers_panel.dart&#45;&gt;/lib/files/save.dart -->
<g id="edge21" class="edge">
<title>/lib/panels/layers/tools_and_layers_panel.dart&#45;&gt;/lib/files/save.dart</title>
<path fill="none" stroke="#aabbaa" stroke-width="1.3" stroke-opacity="0.533333" d="M1824.23,-425.12C1763.45,-421.25 1680.3,-416.46 1607,-414 1587.45,-413.34 920.61,-414.51 903,-406 893.41,-401.37 885.4,-393.12 879.18,-384.75"/>
<polygon fill="#aabbaa" fill-opacity="0.533333" stroke="#aabbaa" stroke-width="1.3" stroke-opacity="0.533333" points="882.28,-383.09 873.81,-376.72 876.46,-386.98 882.28,-383.09"/>
</g>
<!-- /lib/files/import_files.dart -->
<g id="node35" class="node">
<title>/lib/files/import_files.dart</title>
<path fill="Lavender" stroke="black" stroke-width="1.3" d="M807.25,-375C807.25,-375 738.75,-375 738.75,-375 732.75,-375 726.75,-369 726.75,-363 726.75,-363 726.75,-351 726.75,-351 726.75,-345 732.75,-339 738.75,-339 738.75,-339 807.25,-339 807.25,-339 813.25,-339 819.25,-345 819.25,-351 819.25,-351 819.25,-363 819.25,-363 819.25,-369 813.25,-375 807.25,-375"/>
<text text-anchor="middle" x="773" y="-351.75" font-family="Arial" font-size="15.00">import_files</text>
</g>
<!-- /lib/panels/layers/tools_and_layers_panel.dart&#45;&gt;/lib/files/import_files.dart -->
<g id="edge20" class="edge">
<title>/lib/panels/layers/tools_and_layers_panel.dart&#45;&gt;/lib/files/import_files.dart</title>
<path fill="none" stroke="#aabbaa" stroke-width="1.3" stroke-opacity="0.533333" d="M1824.23,-425.09C1763.45,-421.21 1680.3,-416.42 1607,-414 1585.37,-413.28 848.22,-413.7 828,-406 815.61,-401.28 804.17,-392.41 794.96,-383.56"/>
<polygon fill="#aabbaa" fill-opacity="0.533333" stroke="#aabbaa" stroke-width="1.3" stroke-opacity="0.533333" points="797.72,-381.37 788.24,-376.64 792.69,-386.25 797.72,-381.37"/>
</g>
<!-- /lib/panels/layers/layer_thumbnail.dart -->
<g id="node15" class="node">
<title>/lib/panels/layers/layer_thumbnail.dart</title>
<path fill="Lavender" stroke="black" stroke-width="1.3" d="M2049.5,-303C2049.5,-303 1952.5,-303 1952.5,-303 1946.5,-303 1940.5,-297 1940.5,-291 1940.5,-291 1940.5,-279 1940.5,-279 1940.5,-273 1946.5,-267 1952.5,-267 1952.5,-267 2049.5,-267 2049.5,-267 2055.5,-267 2061.5,-273 2061.5,-279 2061.5,-279 2061.5,-291 2061.5,-291 2061.5,-297 2055.5,-303 2049.5,-303"/>
<text text-anchor="middle" x="2001" y="-279.75" font-family="Arial" font-size="15.00">layer_thumbnail</text>
</g>
<!-- /lib/panels/layers/layer_selector.dart&#45;&gt;/lib/panels/layers/layer_thumbnail.dart -->
<g id="edge30" class="edge">
<title>/lib/panels/layers/layer_selector.dart&#45;&gt;/lib/panels/layers/layer_thumbnail.dart</title>
<path fill="none" stroke="#aabbaa" stroke-width="1.3" stroke-opacity="0.533333" d="M1910.97,-338.52C1926.26,-329.6 1945.06,-318.63 1961.52,-309.03"/>
<polygon fill="#aabbaa" fill-opacity="0.533333" stroke="#aabbaa" stroke-width="1.3" stroke-opacity="0.533333" points="1962.84,-312.31 1969.71,-304.25 1959.31,-306.27 1962.84,-312.31"/>
</g>
<!-- /lib/panels/layers/blend_mode.dart -->
<g id="node16" class="node">
<title>/lib/panels/layers/blend_mode.dart</title>
<path fill="Lavender" stroke="black" stroke-width="1.3" d="M1910.88,-303C1910.88,-303 1837.12,-303 1837.12,-303 1831.12,-303 1825.12,-297 1825.12,-291 1825.12,-291 1825.12,-279 1825.12,-279 1825.12,-273 1831.12,-267 1837.12,-267 1837.12,-267 1910.88,-267 1910.88,-267 1916.88,-267 1922.88,-273 1922.88,-279 1922.88,-279 1922.88,-291 1922.88,-291 1922.88,-297 1916.88,-303 1910.88,-303"/>
<text text-anchor="middle" x="1874" y="-279.75" font-family="Arial" font-size="15.00">blend_mode</text>
</g>
<!-- /lib/panels/layers/layer_selector.dart&#45;&gt;/lib/panels/layers/blend_mode.dart -->
<g id="edge29" class="edge">
<title>/lib/panels/layers/layer_selector.dart&#45;&gt;/lib/panels/layers/blend_mode.dart</title>
<path fill="none" stroke="#aabbaa" stroke-width="1.3" stroke-opacity="0.533333" d="M1879.27,-338.7C1878.55,-331.49 1877.69,-322.93 1876.88,-314.82"/>
<polygon fill="#aabbaa" fill-opacity="0.533333" stroke="#aabbaa" stroke-width="1.3" stroke-opacity="0.533333" points="1880.38,-314.66 1875.91,-305.06 1873.42,-315.36 1880.38,-314.66"/>
</g>
<!-- /lib/panels/layers/layer_selector.dart&#45;&gt;/lib/models/app_model.dart -->
<g id="edge28" class="edge">
<title>/lib/panels/layers/layer_selector.dart&#45;&gt;/lib/models/app_model.dart</title>
<path fill="none" stroke="#aabbaa" stroke-width="1.3" stroke-opacity="0.533333" d="M1841.59,-338.6C1809.49,-324.3 1769,-305.95 1766,-303 1747.72,-285.02 1762.63,-264.77 1741,-251 1724.43,-240.45 1052.44,-249.76 1034,-243 1021.03,-238.25 1008.89,-229.24 999.1,-220.3"/>
<polygon fill="#aabbaa" fill-opacity="0.533333" stroke="#aabbaa" stroke-width="1.3" stroke-opacity="0.533333" points="1001.83,-218.08 992.22,-213.61 996.95,-223.09 1001.83,-218.08"/>
</g>
<!-- /lib/widgets/truncated_text.dart -->
<g id="node41" class="node">
<title>/lib/widgets/truncated_text.dart</title>
<path fill="Lavender" stroke="black" stroke-width="1.3" d="M2526,-212C2526,-212 2438,-212 2438,-212 2432,-212 2426,-206 2426,-200 2426,-200 2426,-188 2426,-188 2426,-182 2432,-176 2438,-176 2438,-176 2526,-176 2526,-176 2532,-176 2538,-182 2538,-188 2538,-188 2538,-200 2538,-200 2538,-206 2532,-212 2526,-212"/>
<text text-anchor="middle" x="2482" y="-188.75" font-family="Arial" font-size="15.00">truncated_text</text>
</g>
<!-- /lib/panels/layers/layer_selector.dart&#45;&gt;/lib/widgets/truncated_text.dart -->
<g id="edge32" class="edge">
<title>/lib/panels/layers/layer_selector.dart&#45;&gt;/lib/widgets/truncated_text.dart</title>
<path fill="none" stroke="#aabbaa" stroke-width="1.3" stroke-opacity="0.533333" d="M1849.08,-338.54C1836.31,-329.72 1823,-317.73 1816,-303 1806.09,-282.12 1799.77,-267.45 1816,-251 1827.73,-239.12 2401.18,-248.33 2417,-243 2431.09,-238.26 2444.65,-229.22 2455.71,-220.25"/>
<polygon fill="#aabbaa" fill-opacity="0.533333" stroke="#aabbaa" stroke-width="1.3" stroke-opacity="0.533333" points="2457.93,-222.95 2463.24,-213.78 2453.37,-217.64 2457.93,-222.95"/>
</g>
<!-- /lib/widgets/container_slider.dart -->
<g id="node42" class="node">
<title>/lib/widgets/container_slider.dart</title>
<path fill="Lavender" stroke="black" stroke-width="1.3" d="M2395.5,-212C2395.5,-212 2298.5,-212 2298.5,-212 2292.5,-212 2286.5,-206 2286.5,-200 2286.5,-200 2286.5,-188 2286.5,-188 2286.5,-182 2292.5,-176 2298.5,-176 2298.5,-176 2395.5,-176 2395.5,-176 2401.5,-176 2407.5,-182 2407.5,-188 2407.5,-188 2407.5,-200 2407.5,-200 2407.5,-206 2401.5,-212 2395.5,-212"/>
<text text-anchor="middle" x="2347" y="-188.75" font-family="Arial" font-size="15.00">container_slider</text>
</g>
<!-- /lib/panels/layers/layer_selector.dart&#45;&gt;/lib/widgets/container_slider.dart -->
<g id="edge31" class="edge">
<title>/lib/panels/layers/layer_selector.dart&#45;&gt;/lib/widgets/container_slider.dart</title>
<path fill="none" stroke="#aabbaa" stroke-width="1.3" stroke-opacity="0.533333" d="M1843.8,-338.59C1816.92,-325.63 1784.71,-309.17 1781,-303 1769.08,-283.2 1764.79,-267.47 1781,-251 1790.68,-241.16 2264.86,-247.24 2278,-243 2292.86,-238.21 2307.36,-229.03 2319.2,-219.98"/>
<polygon fill="#aabbaa" fill-opacity="0.533333" stroke="#aabbaa" stroke-width="1.3" stroke-opacity="0.533333" points="2321.35,-222.74 2326.94,-213.73 2316.96,-217.29 2321.35,-222.74"/>
</g>
<!-- /lib/panels/layers/layer_thumbnail.dart&#45;&gt;/lib/models/app_model.dart -->
<g id="edge33" class="edge">
<title>/lib/panels/layers/layer_thumbnail.dart&#45;&gt;/lib/models/app_model.dart</title>
<path fill="none" stroke="#aabbaa" stroke-width="1.3" stroke-opacity="0.533333" d="M1971.82,-266.56C1959.9,-260.38 1945.71,-254.17 1932,-251 1883.39,-239.75 1080.86,-260.11 1034,-243 1021.03,-238.26 1008.88,-229.26 999.09,-220.32"/>
<polygon fill="#aabbaa" fill-opacity="0.533333" stroke="#aabbaa" stroke-width="1.3" stroke-opacity="0.533333" points="1001.82,-218.09 992.22,-213.62 996.94,-223.11 1001.82,-218.09"/>
</g>
<!-- /lib/panels/layers/layer_thumbnail.dart&#45;&gt;/lib/widgets/transparent_background.dart -->
<g id="edge35" class="edge">
<title>/lib/panels/layers/layer_thumbnail.dart&#45;&gt;/lib/widgets/transparent_background.dart</title>
<path fill="none" stroke="#aabbaa" stroke-width="1.3" stroke-opacity="0.533333" d="M2028.38,-266.59C2039.59,-260.42 2052.97,-254.21 2066,-251 2082.43,-246.95 2663.12,-255.04 2675,-243 2695.92,-221.81 2690.25,-201.58 2675,-176 2667.46,-163.35 2655.73,-153.53 2642.98,-145.99"/>
<polygon fill="#aabbaa" fill-opacity="0.533333" stroke="#aabbaa" stroke-width="1.3" stroke-opacity="0.533333" points="2644.79,-142.99 2634.33,-141.34 2641.48,-149.16 2644.79,-142.99"/>
</g>
<!-- /lib/widgets/image_painter.dart -->
<g id="node46" class="node">
<title>/lib/widgets/image_painter.dart</title>
<path fill="Lavender" stroke="black" stroke-width="1.3" d="M2654.25,-212C2654.25,-212 2567.75,-212 2567.75,-212 2561.75,-212 2555.75,-206 2555.75,-200 2555.75,-200 2555.75,-188 2555.75,-188 2555.75,-182 2561.75,-176 2567.75,-176 2567.75,-176 2654.25,-176 2654.25,-176 2660.25,-176 2666.25,-182 2666.25,-188 2666.25,-188 2666.25,-200 2666.25,-200 2666.25,-206 2660.25,-212 2654.25,-212"/>
<text text-anchor="middle" x="2611" y="-188.75" font-family="Arial" font-size="15.00">image_painter</text>
</g>
<!-- /lib/panels/layers/layer_thumbnail.dart&#45;&gt;/lib/widgets/image_painter.dart -->
<g id="edge34" class="edge">
<title>/lib/panels/layers/layer_thumbnail.dart&#45;&gt;/lib/widgets/image_painter.dart</title>
<path fill="none" stroke="#aabbaa" stroke-width="1.3" stroke-opacity="0.533333" d="M2028.39,-266.62C2039.6,-260.44 2052.98,-254.23 2066,-251 2117.88,-238.13 2496.43,-260.32 2547,-243 2560.92,-238.23 2574.28,-229.19 2585.16,-220.22"/>
<polygon fill="#aabbaa" fill-opacity="0.533333" stroke="#aabbaa" stroke-width="1.3" stroke-opacity="0.533333" points="2587.32,-222.98 2592.56,-213.77 2582.72,-217.71 2587.32,-222.98"/>
</g>
<!-- /lib/panels/side_panel.dart -->
<g id="node17" class="node">
<title>/lib/panels/side_panel.dart</title>
<path fill="Lavender" stroke="black" stroke-width="1.3" d="M1382.62,-525C1382.62,-525 1319.38,-525 1319.38,-525 1313.38,-525 1307.38,-519 1307.38,-513 1307.38,-513 1307.38,-501 1307.38,-501 1307.38,-495 1313.38,-489 1319.38,-489 1319.38,-489 1382.62,-489 1382.62,-489 1388.62,-489 1394.62,-495 1394.62,-501 1394.62,-501 1394.62,-513 1394.62,-513 1394.62,-519 1388.62,-525 1382.62,-525"/>
<text text-anchor="middle" x="1351" y="-501.75" font-family="Arial" font-size="15.00">side_panel</text>
</g>
<!-- /lib/panels/side_panel.dart&#45;&gt;/lib/panels/tools/tools_panel.dart -->
<g id="edge38" class="edge">
<title>/lib/panels/side_panel.dart&#45;&gt;/lib/panels/tools/tools_panel.dart</title>
<path fill="none" stroke="#aabbaa" stroke-width="1.3" stroke-opacity="0.533333" d="M1382.45,-488.66C1386.41,-486.2 1390.35,-483.62 1394,-481 1403.53,-474.17 1413.36,-466 1422.02,-458.36"/>
<polygon fill="#aabbaa" fill-opacity="0.533333" stroke="#aabbaa" stroke-width="1.3" stroke-opacity="0.533333" points="1424.35,-460.98 1429.43,-451.68 1419.66,-455.77 1424.35,-460.98"/>
</g>
<!-- /lib/panels/side_panel.dart&#45;&gt;/lib/panels/layers/tools_and_layers_panel.dart -->
<g id="edge37" class="edge">
<title>/lib/panels/side_panel.dart&#45;&gt;/lib/panels/layers/tools_and_layers_panel.dart</title>
<path fill="none" stroke="#aabbaa" stroke-width="1.3" stroke-opacity="0.533333" d="M1395.06,-489.83C1396.38,-489.53 1397.7,-489.25 1399,-489 1489.86,-471.58 1514.93,-490.01 1607,-481 1676.05,-474.24 1753.26,-461.99 1812.59,-451.56"/>
<polygon fill="#aabbaa" fill-opacity="0.533333" stroke="#aabbaa" stroke-width="1.3" stroke-opacity="0.533333" points="1813.04,-455.04 1822.27,-449.84 1811.81,-448.14 1813.04,-455.04"/>
</g>
<!-- /lib/panels/side_panel.dart&#45;&gt;/lib/models/app_model.dart -->
<g id="edge36" class="edge">
<title>/lib/panels/side_panel.dart&#45;&gt;/lib/models/app_model.dart</title>
<path fill="none" stroke="#aabbaa" stroke-width="1.3" stroke-opacity="0.533333" d="M1307.12,-490.22C1305.74,-489.8 1304.36,-489.39 1303,-489 1138.91,-441.97 1034.87,-539.11 928,-406 884.86,-352.27 906.91,-315.55 931,-251 935.04,-240.19 942.03,-229.88 949.32,-221.11"/>
<polygon fill="#aabbaa" fill-opacity="0.533333" stroke="#aabbaa" stroke-width="1.3" stroke-opacity="0.533333" points="951.86,-223.52 955.91,-213.73 946.64,-218.86 951.86,-223.52"/>
</g>
<!-- /lib/panels/share_panel.dart&#45;&gt;/lib/panels/canvas_panel.dart -->
<g id="edge40" class="edge">
<title>/lib/panels/share_panel.dart&#45;&gt;/lib/panels/canvas_panel.dart</title>
<path fill="none" stroke="#aabbaa" stroke-width="1.3" stroke-opacity="0.533333" d="M2128.48,-338.7C2129.1,-331.49 2129.83,-322.93 2130.53,-314.82"/>
<polygon fill="#aabbaa" fill-opacity="0.533333" stroke="#aabbaa" stroke-width="1.3" stroke-opacity="0.533333" points="2134,-315.33 2131.37,-305.06 2127.02,-314.73 2134,-315.33"/>
</g>
<!-- /lib/panels/share_panel.dart&#45;&gt;/lib/models/app_model.dart -->
<g id="edge39" class="edge">
<title>/lib/panels/share_panel.dart&#45;&gt;/lib/models/app_model.dart</title>
<path fill="none" stroke="#aabbaa" stroke-width="1.3" stroke-opacity="0.533333" d="M2094.29,-338.51C2087.72,-335.59 2080.76,-332.9 2074,-331 1961.68,-299.45 1918.72,-352.34 1813,-303 1782.81,-288.91 1789.83,-263.63 1759,-251 1721.73,-235.73 1071.82,-256.86 1034,-243 1021.03,-238.25 1008.89,-229.24 999.1,-220.3"/>
<polygon fill="#aabbaa" fill-opacity="0.533333" stroke="#aabbaa" stroke-width="1.3" stroke-opacity="0.533333" points="1001.83,-218.08 992.22,-213.61 996.95,-223.09 1001.83,-218.08"/>
</g>
<!-- /lib/panels/canvas_settings.dart&#45;&gt;/lib/models/app_model.dart -->
<g id="edge41" class="edge">
<title>/lib/panels/canvas_settings.dart&#45;&gt;/lib/models/app_model.dart</title>
<path fill="none" stroke="#aabbaa" stroke-width="1.3" stroke-opacity="0.533333" d="M1701.55,-338.57C1693.14,-335.76 1684.37,-333.09 1676,-331 1444.84,-273.41 1382.77,-277.28 1146,-251 1121.2,-248.25 1057.16,-252.29 1034,-243 1021.5,-237.99 1009.66,-229.23 999.98,-220.56"/>
<polygon fill="#aabbaa" fill-opacity="0.533333" stroke="#aabbaa" stroke-width="1.3" stroke-opacity="0.533333" points="1002.49,-218.11 992.83,-213.75 997.66,-223.18 1002.49,-218.11"/>
</g>
<!-- /lib/widgets/nine_grid_selector.dart -->
<g id="node49" class="node">
<title>/lib/widgets/nine_grid_selector.dart</title>
<path fill="Lavender" stroke="black" stroke-width="1.3" d="M2256.75,-212C2256.75,-212 2143.25,-212 2143.25,-212 2137.25,-212 2131.25,-206 2131.25,-200 2131.25,-200 2131.25,-188 2131.25,-188 2131.25,-182 2137.25,-176 2143.25,-176 2143.25,-176 2256.75,-176 2256.75,-176 2262.75,-176 2268.75,-182 2268.75,-188 2268.75,-188 2268.75,-200 2268.75,-200 2268.75,-206 2262.75,-212 2256.75,-212"/>
<text text-anchor="middle" x="2200" y="-188.75" font-family="Arial" font-size="15.00">nine_grid_selector</text>
</g>
<!-- /lib/panels/canvas_settings.dart&#45;&gt;/lib/widgets/nine_grid_selector.dart -->
<g id="edge42" class="edge">
<title>/lib/panels/canvas_settings.dart&#45;&gt;/lib/widgets/nine_grid_selector.dart</title>
<path fill="none" stroke="#aabbaa" stroke-width="1.3" stroke-opacity="0.533333" d="M1743.31,-338.78C1739.37,-315.07 1736.61,-272.83 1761,-251 1775.95,-237.62 2102.76,-248.68 2122,-243 2138.81,-238.04 2155.61,-228.45 2169.29,-219.14"/>
<polygon fill="#aabbaa" fill-opacity="0.533333" stroke="#aabbaa" stroke-width="1.3" stroke-opacity="0.533333" points="2170.93,-222.27 2177.05,-213.62 2166.87,-216.56 2170.93,-222.27"/>
</g>
<!-- /lib/models/layers.dart -->
<g id="node21" class="node">
<title>/lib/models/layers.dart</title>
<path fill="Lavender" stroke="black" stroke-width="1.3" d="M1144.88,-375C1144.88,-375 1113.12,-375 1113.12,-375 1107.12,-375 1101.12,-369 1101.12,-363 1101.12,-363 1101.12,-351 1101.12,-351 1101.12,-345 1107.12,-339 1113.12,-339 1113.12,-339 1144.88,-339 1144.88,-339 1150.88,-339 1156.88,-345 1156.88,-351 1156.88,-351 1156.88,-363 1156.88,-363 1156.88,-369 1150.88,-375 1144.88,-375"/>
<text text-anchor="middle" x="1129" y="-351.75" font-family="Arial" font-size="15.00">layers</text>
</g>
<!-- /lib/models/layers.dart&#45;&gt;/lib/models/layer.dart -->
<g id="edge45" class="edge">
<title>/lib/models/layers.dart&#45;&gt;/lib/models/layer.dart</title>
<path fill="none" stroke="#aabbaa" stroke-width="1.3" stroke-opacity="0.533333" d="M1118.39,-338.7C1115.69,-331.49 1113.12,-322.93 1111.17,-314.82"/>
<polygon fill="#aabbaa" fill-opacity="0.533333" stroke="#aabbaa" stroke-width="1.3" stroke-opacity="0.533333" points="1114.6,-314.12 1109.15,-305.03 1107.74,-315.53 1114.6,-314.12"/>
</g>
<!-- /lib/models/layers.dart&#45;&gt;/lib/models/layer.dart -->
<g id="edge46" class="edge">
<title>/lib/models/layers.dart&#45;&gt;/lib/models/layer.dart</title>
<path fill="none" stroke="#aabbaa" stroke-width="1.3" stroke-dasharray="5,2" stroke-opacity="0.533333" d="M1130.22,-338.7C1128.98,-331.32 1126.83,-322.52 1124.31,-314.25"/>
<polygon fill="#aabbaa" fill-opacity="0.533333" stroke="#aabbaa" stroke-width="1.3" stroke-opacity="0.533333" points="1127.69,-313.32 1121.17,-304.97 1121.05,-315.56 1127.69,-313.32"/>
</g>
<!-- /lib/helpers/list_helper.dart -->
<g id="node38" class="node">
<title>/lib/helpers/list_helper.dart</title>
<path fill="Lavender" stroke="black" stroke-width="1.3" d="M1267.75,-68C1267.75,-68 1208.25,-68 1208.25,-68 1202.25,-68 1196.25,-62 1196.25,-56 1196.25,-56 1196.25,-44 1196.25,-44 1196.25,-38 1202.25,-32 1208.25,-32 1208.25,-32 1267.75,-32 1267.75,-32 1273.75,-32 1279.75,-38 1279.75,-44 1279.75,-44 1279.75,-56 1279.75,-56 1279.75,-62 1273.75,-68 1267.75,-68"/>
<text text-anchor="middle" x="1238" y="-44.75" font-family="Arial" font-size="15.00">list_helper</text>
</g>
<!-- /lib/models/layers.dart&#45;&gt;/lib/helpers/list_helper.dart -->
<g id="edge44" class="edge">
<title>/lib/models/layers.dart&#45;&gt;/lib/helpers/list_helper.dart</title>
<path fill="none" stroke="#aabbaa" stroke-width="1.3" stroke-opacity="0.533333" d="M1157.17,-350.19C1250.23,-331.32 1556.44,-271.77 1813,-251 1824.98,-250.03 2669.54,-251.53 2678,-243 2723.98,-196.59 2723.47,-142.91 2678,-96 2653.41,-70.63 1549.6,-54.98 1291.55,-51.66"/>
<polygon fill="#aabbaa" fill-opacity="0.533333" stroke="#aabbaa" stroke-width="1.3" stroke-opacity="0.533333" points="1291.92,-48.17 1281.88,-51.54 1291.83,-55.17 1291.92,-48.17"/>
</g>
<!-- /lib/models/layers.dart&#45;&gt;/lib/helpers/color_helper.dart -->
<g id="edge43" class="edge">
<title>/lib/models/layers.dart&#45;&gt;/lib/helpers/color_helper.dart</title>
<path fill="none" stroke="#aabbaa" stroke-width="1.3" stroke-opacity="0.533333" d="M1138.01,-338.82C1153.07,-310.4 1182.53,-256.23 1191,-251 1212.99,-237.43 1289.37,-261.89 1307,-243 1327.32,-221.23 1320.16,-202.71 1307,-176 1301.38,-164.6 1292.01,-154.97 1281.95,-147.18"/>
<polygon fill="#aabbaa" fill-opacity="0.533333" stroke="#aabbaa" stroke-width="1.3" stroke-opacity="0.533333" points="1283.99,-144.33 1273.8,-141.41 1279.94,-150.05 1283.99,-144.33"/>
</g>
<!-- /lib/models/user_action.dart -->
<g id="node22" class="node">
<title>/lib/models/user_action.dart</title>
<path fill="Lavender" stroke="black" stroke-width="1.3" d="M1124.62,-212C1124.62,-212 1055.38,-212 1055.38,-212 1049.38,-212 1043.38,-206 1043.38,-200 1043.38,-200 1043.38,-188 1043.38,-188 1043.38,-182 1049.38,-176 1055.38,-176 1055.38,-176 1124.62,-176 1124.62,-176 1130.62,-176 1136.62,-182 1136.62,-188 1136.62,-188 1136.62,-200 1136.62,-200 1136.62,-206 1130.62,-212 1124.62,-212"/>
<text text-anchor="middle" x="1090" y="-188.75" font-family="Arial" font-size="15.00">user_action</text>
</g>
<!-- /lib/widgets/brush_style_picker.dart -->
<g id="node48" class="node">
<title>/lib/widgets/brush_style_picker.dart</title>
<path fill="Lavender" stroke="black" stroke-width="1.3" d="M1493.25,-212C1493.25,-212 1376.75,-212 1376.75,-212 1370.75,-212 1364.75,-206 1364.75,-200 1364.75,-200 1364.75,-188 1364.75,-188 1364.75,-182 1370.75,-176 1376.75,-176 1376.75,-176 1493.25,-176 1493.25,-176 1499.25,-176 1505.25,-182 1505.25,-188 1505.25,-188 1505.25,-200 1505.25,-200 1505.25,-206 1499.25,-212 1493.25,-212"/>
<text text-anchor="middle" x="1435" y="-188.75" font-family="Arial" font-size="15.00">brush_style_picker</text>
</g>
<!-- /lib/models/user_action.dart&#45;&gt;/lib/widgets/brush_style_picker.dart -->
<g id="edge47" class="edge">
<title>/lib/models/user_action.dart&#45;&gt;/lib/widgets/brush_style_picker.dart</title>
<path fill="none" stroke="#aabbaa" stroke-width="1.3" stroke-opacity="0.533333" d="M1117.61,-212.42C1132.53,-222.04 1151.45,-233.72 1169,-243 1171.58,-244.36 1172.15,-245.06 1175,-245.67 1184.24,-247.63 1335.76,-247.63 1345,-245.67 1365.72,-241.27 1386.4,-230.01 1402.7,-219.12"/>
<polygon fill="#aabbaa" fill-opacity="0.533333" stroke="#aabbaa" stroke-width="1.3" stroke-opacity="0.533333" points="1404.44,-222.18 1410.63,-213.58 1400.43,-216.44 1404.44,-222.18"/>
</g>
<!-- /lib/models/user_action.dart&#45;&gt;/lib/widgets/brush_style_picker.dart -->
<g id="edge48" class="edge">
<title>/lib/models/user_action.dart&#45;&gt;/lib/widgets/brush_style_picker.dart</title>
<path fill="none" stroke="#aabbaa" stroke-width="1.3" stroke-dasharray="5,2" stroke-opacity="0.533333" d="M1117.61,-212.42C1132.53,-222.04 1151.45,-233.72 1169,-243 1174.16,-245.73 1175.29,-247.12 1181,-248.33 1189.59,-250.16 1330.41,-250.16 1339,-248.33 1361.86,-243.48 1384.75,-230.91 1402.43,-219.08"/>
<polygon fill="#aabbaa" fill-opacity="0.533333" stroke="#aabbaa" stroke-width="1.3" stroke-opacity="0.533333" points="1404.39,-221.98 1410.59,-213.38 1400.39,-216.23 1404.39,-221.98"/>
</g>
<!-- /lib/models/canvas_model.dart -->
<g id="node24" class="node">
<title>/lib/models/canvas_model.dart</title>
<path fill="Lavender" stroke="black" stroke-width="1.3" d="M1145,-140C1145,-140 1057,-140 1057,-140 1051,-140 1045,-134 1045,-128 1045,-128 1045,-116 1045,-116 1045,-110 1051,-104 1057,-104 1057,-104 1145,-104 1145,-104 1151,-104 1157,-110 1157,-116 1157,-116 1157,-128 1157,-128 1157,-134 1151,-140 1145,-140"/>
<text text-anchor="middle" x="1101" y="-116.75" font-family="Arial" font-size="15.00">canvas_model</text>
</g>
<!-- /lib/models/canvas_model.dart&#45;&gt;/lib/models/layers.dart -->
<g id="edge49" class="edge">
<title>/lib/models/canvas_model.dart&#45;&gt;/lib/models/layers.dart</title>
<path fill="none" stroke="#aabbaa" stroke-width="1.3" stroke-dasharray="5,2" stroke-opacity="0.533333" d="M1121.38,-140.47C1130.81,-149.91 1141.01,-162.4 1146,-176 1165.46,-228.98 1154.72,-247.23 1146,-303 1144.73,-311.11 1142.43,-319.68 1139.92,-327.51"/>
<polygon fill="#aabbaa" fill-opacity="0.533333" stroke="#aabbaa" stroke-width="1.3" stroke-opacity="0.533333" points="1136.67,-326.21 1136.71,-336.81 1143.28,-328.5 1136.67,-326.21"/>
</g>
<!-- /lib/models/app_model.dart&#45;&gt;/lib/models/layers.dart -->
<g id="edge53" class="edge">
<title>/lib/models/app_model.dart&#45;&gt;/lib/models/layers.dart</title>
<path fill="none" stroke="#aabbaa" stroke-width="1.3" stroke-dasharray="5,2" stroke-opacity="0.533333" d="M990.93,-212.16C1009.86,-233.74 1043.67,-271.75 1074,-303 1082.87,-312.14 1092.82,-321.87 1101.79,-330.48"/>
<polygon fill="#aabbaa" fill-opacity="0.533333" stroke="#aabbaa" stroke-width="1.3" stroke-opacity="0.533333" points="1099.28,-332.92 1108.94,-337.28 1104.11,-327.85 1099.28,-332.92"/>
</g>
<!-- /lib/models/app_model.dart&#45;&gt;/lib/models/canvas_resize.dart -->
<g id="edge52" class="edge">
<title>/lib/models/app_model.dart&#45;&gt;/lib/models/canvas_resize.dart</title>
<path fill="none" stroke="#aabbaa" stroke-width="1.3" stroke-opacity="0.533333" d="M974.76,-175.7C974.25,-168.49 973.64,-159.93 973.06,-151.82"/>
<polygon fill="#aabbaa" fill-opacity="0.533333" stroke="#aabbaa" stroke-width="1.3" stroke-opacity="0.533333" points="976.57,-151.79 972.36,-142.07 969.58,-152.29 976.57,-151.79"/>
</g>
<!-- /lib/models/app_model.dart&#45;&gt;/lib/models/canvas_model.dart -->
<g id="edge51" class="edge">
<title>/lib/models/app_model.dart&#45;&gt;/lib/models/canvas_model.dart</title>
<path fill="none" stroke="#aabbaa" stroke-width="1.3" stroke-opacity="0.533333" d="M1007.22,-175.52C1023.15,-166.6 1042.73,-155.63 1059.87,-146.03"/>
<polygon fill="#aabbaa" fill-opacity="0.533333" stroke="#aabbaa" stroke-width="1.3" stroke-opacity="0.533333" points="1061.45,-149.16 1068.46,-141.22 1058.03,-143.05 1061.45,-149.16"/>
</g>
<!-- /lib/models/app_model.dart&#45;&gt;/lib/helpers/color_helper.dart -->
<g id="edge50" class="edge">
<title>/lib/models/app_model.dart&#45;&gt;/lib/helpers/color_helper.dart</title>
<path fill="none" stroke="#aabbaa" stroke-width="1.3" stroke-opacity="0.533333" d="M1021.24,-179.59C1025.55,-178.36 1029.85,-177.15 1034,-176 1082.09,-162.71 1136.83,-148.54 1177.49,-138.2"/>
<polygon fill="#aabbaa" fill-opacity="0.533333" stroke="#aabbaa" stroke-width="1.3" stroke-opacity="0.533333" points="1178.1,-141.66 1186.93,-135.8 1176.37,-134.87 1178.1,-141.66"/>
</g>
<!-- /lib/models/layer.dart&#45;&gt;/lib/models/user_action.dart -->
<g id="edge57" class="edge">
<title>/lib/models/layer.dart&#45;&gt;/lib/models/user_action.dart</title>
<path fill="none" stroke="#aabbaa" stroke-width="1.3" stroke-dasharray="5,2" stroke-opacity="0.533333" d="M1106.14,-266.84C1103.42,-254.73 1099.71,-238.21 1096.53,-224.06"/>
<polygon fill="#aabbaa" fill-opacity="0.533333" stroke="#aabbaa" stroke-width="1.3" stroke-opacity="0.533333" points="1099.95,-223.32 1094.34,-214.33 1093.12,-224.85 1099.95,-223.32"/>
</g>
<!-- /lib/models/layer.dart&#45;&gt;/lib/models/app_model.dart -->
<g id="edge56" class="edge">
<title>/lib/models/layer.dart&#45;&gt;/lib/models/app_model.dart</title>
<path fill="none" stroke="#aabbaa" stroke-width="1.3" stroke-opacity="0.533333" d="M1082.52,-270.83C1067.73,-263.33 1049.42,-253.39 1034,-243 1023.86,-236.17 1013.39,-227.92 1004.19,-220.21"/>
<polygon fill="#aabbaa" fill-opacity="0.533333" stroke="#aabbaa" stroke-width="1.3" stroke-opacity="0.533333" points="1006.48,-217.57 996.61,-213.72 1001.93,-222.88 1006.48,-217.57"/>
</g>
<!-- /lib/helpers/image_helper.dart -->
<g id="node37" class="node">
<title>/lib/helpers/image_helper.dart</title>
<path fill="Lavender" stroke="black" stroke-width="1.3" d="M1275,-212C1275,-212 1193,-212 1193,-212 1187,-212 1181,-206 1181,-200 1181,-200 1181,-188 1181,-188 1181,-182 1187,-176 1193,-176 1193,-176 1275,-176 1275,-176 1281,-176 1287,-182 1287,-188 1287,-188 1287,-200 1287,-200 1287,-206 1281,-212 1275,-212"/>
<text text-anchor="middle" x="1234" y="-188.75" font-family="Arial" font-size="15.00">image_helper</text>
</g>
<!-- /lib/models/layer.dart&#45;&gt;/lib/helpers/image_helper.dart -->
<g id="edge55" class="edge">
<title>/lib/models/layer.dart&#45;&gt;/lib/helpers/image_helper.dart</title>
<path fill="none" stroke="#aabbaa" stroke-width="1.3" stroke-opacity="0.533333" d="M1135.38,-266.6C1145.84,-259.37 1158.05,-250.85 1169,-243 1179.54,-235.45 1190.95,-227.09 1201.22,-219.49"/>
<polygon fill="#aabbaa" fill-opacity="0.533333" stroke="#aabbaa" stroke-width="1.3" stroke-opacity="0.533333" points="1203.13,-222.43 1209.07,-213.67 1198.96,-216.81 1203.13,-222.43"/>
</g>
<!-- /lib/models/layer.dart&#45;&gt;/lib/helpers/color_helper.dart -->
<g id="edge54" class="edge">
<title>/lib/models/layer.dart&#45;&gt;/lib/helpers/color_helper.dart</title>
<path fill="none" stroke="#aabbaa" stroke-width="1.3" stroke-opacity="0.533333" d="M1136.25,-266.57C1146.64,-260.55 1158.97,-254.46 1171,-251 1184.38,-247.16 1286.48,-253.15 1296,-243 1316.37,-221.28 1308.01,-203.25 1296,-176 1291.3,-165.35 1283.29,-155.91 1274.7,-148.05"/>
<polygon fill="#aabbaa" fill-opacity="0.533333" stroke="#aabbaa" stroke-width="1.3" stroke-opacity="0.533333" points="1277.06,-145.47 1267.15,-141.72 1272.56,-150.83 1277.06,-145.47"/>
</g>
<!-- /lib/main.dart&#45;&gt;/lib/models/app_model.dart -->
<g id="edge59" class="edge">
<title>/lib/main.dart&#45;&gt;/lib/models/app_model.dart</title>
<path fill="none" stroke="#aabbaa" stroke-width="1.3" stroke-opacity="0.533333" d="M453.65,-646.28C387.61,-628.9 216.93,-576.98 109,-481 31.16,-411.78 -7.83,-326.43 64,-251 93.57,-219.95 723.88,-201.4 918.97,-196.39"/>
<polygon fill="#aabbaa" fill-opacity="0.533333" stroke="#aabbaa" stroke-width="1.3" stroke-opacity="0.533333" points="919.04,-199.89 928.94,-196.13 918.86,-192.89 919.04,-199.89"/>
</g>
<!-- /lib/main_screen.dart -->
<g id="node36" class="node">
<title>/lib/main_screen.dart</title>
<path fill="Lavender" stroke="black" stroke-width="1.3" d="M1389.75,-600C1389.75,-600 1312.25,-600 1312.25,-600 1306.25,-600 1300.25,-594 1300.25,-588 1300.25,-588 1300.25,-576 1300.25,-576 1300.25,-570 1306.25,-564 1312.25,-564 1312.25,-564 1389.75,-564 1389.75,-564 1395.75,-564 1401.75,-570 1401.75,-576 1401.75,-576 1401.75,-588 1401.75,-588 1401.75,-594 1395.75,-600 1389.75,-600"/>
<text text-anchor="middle" x="1351" y="-576.75" font-family="Arial" font-size="15.00">main_screen</text>
</g>
<!-- /lib/main.dart&#45;&gt;/lib/main_screen.dart -->
<g id="edge58" class="edge">
<title>/lib/main.dart&#45;&gt;/lib/main_screen.dart</title>
<path fill="none" stroke="#aabbaa" stroke-width="1.3" stroke-opacity="0.533333" d="M508.47,-650.79C629.12,-641.08 1113.64,-602.1 1288.05,-588.06"/>
<polygon fill="#aabbaa" fill-opacity="0.533333" stroke="#aabbaa" stroke-width="1.3" stroke-opacity="0.533333" points="1288.17,-591.57 1297.86,-587.28 1287.61,-584.59 1288.17,-591.57"/>
</g>
<!-- /lib/files/xcf_reader.dart&#45;&gt;/lib/helpers/list_helper.dart -->
<g id="edge60" class="edge">
<title>/lib/files/xcf_reader.dart&#45;&gt;/lib/helpers/list_helper.dart</title>
<path fill="none" stroke="#aabbaa" stroke-width="1.3" stroke-opacity="0.533333" d="M297.71,-338.67C336.56,-317.03 405.81,-279.39 467,-251 633.2,-173.88 671.49,-141.39 849,-96 966.23,-66.03 1108.48,-55.98 1184.29,-52.64"/>
<polygon fill="#aabbaa" fill-opacity="0.533333" stroke="#aabbaa" stroke-width="1.3" stroke-opacity="0.533333" points="1184.06,-56.15 1193.91,-52.24 1183.77,-49.16 1184.06,-56.15"/>
</g>
<!-- /lib/files/file_jpeg.dart -->
<g id="node30" class="node">
<title>/lib/files/file_jpeg.dart</title>
<path fill="Lavender" stroke="black" stroke-width="1.3" d="M534.38,-303C534.38,-303 487.62,-303 487.62,-303 481.62,-303 475.62,-297 475.62,-291 475.62,-291 475.62,-279 475.62,-279 475.62,-273 481.62,-267 487.62,-267 487.62,-267 534.38,-267 534.38,-267 540.38,-267 546.38,-273 546.38,-279 546.38,-279 546.38,-291 546.38,-291 546.38,-297 540.38,-303 534.38,-303"/>
<text text-anchor="middle" x="511" y="-279.75" font-family="Arial" font-size="15.00">file_jpeg</text>
</g>
<!-- /lib/files/export_download_web.dart -->
<g id="node31" class="node">
<title>/lib/files/export_download_web.dart</title>
<path fill="Lavender" stroke="black" stroke-width="1.3" d="M481.25,-375C481.25,-375 340.75,-375 340.75,-375 334.75,-375 328.75,-369 328.75,-363 328.75,-363 328.75,-351 328.75,-351 328.75,-345 334.75,-339 340.75,-339 340.75,-339 481.25,-339 481.25,-339 487.25,-339 493.25,-345 493.25,-351 493.25,-351 493.25,-363 493.25,-363 493.25,-369 487.25,-375 481.25,-375"/>
<text text-anchor="middle" x="411" y="-351.75" font-family="Arial" font-size="15.00">export_download_web</text>
</g>
<!-- /lib/files/export_download_web.dart&#45;&gt;/lib/panels/share_panel.dart -->
<g id="edge64" class="edge">
<title>/lib/files/export_download_web.dart&#45;&gt;/lib/panels/share_panel.dart</title>
<path fill="none" stroke="#aabbaa" stroke-width="1.3" stroke-opacity="0.533333" d="M436.19,-375.45C455.53,-388.31 483.51,-404.17 511,-410 532.11,-414.48 2043.89,-414.48 2065,-410 2081.07,-406.59 2095.3,-395.39 2106.07,-384.16"/>
<polygon fill="#aabbaa" fill-opacity="0.533333" stroke="#aabbaa" stroke-width="1.3" stroke-opacity="0.533333" points="2108.61,-386.57 2112.62,-376.77 2103.37,-381.93 2108.61,-386.57"/>
</g>
<!-- /lib/files/export_download_web.dart&#45;&gt;/lib/models/app_model.dart -->
<g id="edge63" class="edge">
<title>/lib/files/export_download_web.dart&#45;&gt;/lib/models/app_model.dart</title>
<path fill="none" stroke="#aabbaa" stroke-width="1.3" stroke-opacity="0.533333" d="M468.41,-338.56C479.48,-335.67 491.04,-332.98 502,-331 570.5,-318.62 757.1,-343.1 814,-303 834.81,-288.34 819.58,-268.57 838,-251 860.42,-229.6 892.11,-215.97 919.46,-207.51"/>
<polygon fill="#aabbaa" fill-opacity="0.533333" stroke="#aabbaa" stroke-width="1.3" stroke-opacity="0.533333" points="920.36,-210.9 928.99,-204.75 918.41,-204.17 920.36,-210.9"/>
</g>
<!-- /lib/files/export_download_web.dart&#45;&gt;/lib/files/file_jpeg.dart -->
<g id="edge61" class="edge">
<title>/lib/files/export_download_web.dart&#45;&gt;/lib/files/file_jpeg.dart</title>
<path fill="none" stroke="#aabbaa" stroke-width="1.3" stroke-opacity="0.533333" d="M435.98,-338.52C448.24,-329.93 463.21,-319.46 476.54,-310.12"/>
<polygon fill="#aabbaa" fill-opacity="0.533333" stroke="#aabbaa" stroke-width="1.3" stroke-opacity="0.533333" points="478.54,-312.99 484.73,-304.39 474.53,-307.26 478.54,-312.99"/>
</g>
<!-- /lib/files/file_ora.dart -->
<g id="node32" class="node">
<title>/lib/files/file_ora.dart</title>
<path fill="Lavender" stroke="black" stroke-width="1.3" d="M793.38,-303C793.38,-303 752.62,-303 752.62,-303 746.62,-303 740.62,-297 740.62,-291 740.62,-291 740.62,-279 740.62,-279 740.62,-273 746.62,-267 752.62,-267 752.62,-267 793.38,-267 793.38,-267 799.38,-267 805.38,-273 805.38,-279 805.38,-279 805.38,-291 805.38,-291 805.38,-297 799.38,-303 793.38,-303"/>
<text text-anchor="middle" x="773" y="-279.75" font-family="Arial" font-size="15.00">file_ora</text>
</g>
<!-- /lib/files/export_download_web.dart&#45;&gt;/lib/files/file_ora.dart -->
<g id="edge62" class="edge">
<title>/lib/files/export_download_web.dart&#45;&gt;/lib/files/file_ora.dart</title>
<path fill="none" stroke="#aabbaa" stroke-width="1.3" stroke-opacity="0.533333" d="M470.99,-338.57C481.29,-335.85 491.92,-333.22 502,-331 581.25,-313.58 674.86,-299.44 728.73,-291.91"/>
<polygon fill="#aabbaa" fill-opacity="0.533333" stroke="#aabbaa" stroke-width="1.3" stroke-opacity="0.533333" points="728.88,-295.43 738.3,-290.59 727.92,-288.49 728.88,-295.43"/>
</g>
<!-- /lib/files/file_ora.dart&#45;&gt;/lib/models/app_model.dart -->
<g id="edge66" class="edge">
<title>/lib/files/file_ora.dart&#45;&gt;/lib/models/app_model.dart</title>
<path fill="none" stroke="#aabbaa" stroke-width="1.3" stroke-opacity="0.533333" d="M799.88,-266.56C808.66,-261.22 818.58,-255.56 828,-251 857.44,-236.74 891.52,-223.63 919.55,-213.68"/>
<polygon fill="#aabbaa" fill-opacity="0.533333" stroke="#aabbaa" stroke-width="1.3" stroke-opacity="0.533333" points="920.63,-217.01 928.91,-210.41 918.31,-210.41 920.63,-217.01"/>
</g>
<!-- /lib/files/file_ora.dart&#45;&gt;/lib/helpers/list_helper.dart -->
<g id="edge65" class="edge">
<title>/lib/files/file_ora.dart&#45;&gt;/lib/helpers/list_helper.dart</title>
<path fill="none" stroke="#aabbaa" stroke-width="1.3" stroke-opacity="0.533333" d="M779.34,-266.61C794.25,-228.43 835.5,-137.36 903,-96 948.98,-67.83 1101.57,-56.92 1184.02,-53"/>
<polygon fill="#aabbaa" fill-opacity="0.533333" stroke="#aabbaa" stroke-width="1.3" stroke-opacity="0.533333" points="1184.1,-56.5 1193.93,-52.55 1183.78,-49.51 1184.1,-56.5"/>
</g>
<!-- /lib/files/save.dart&#45;&gt;/lib/models/app_model.dart -->
<g id="edge67" class="edge">
<title>/lib/files/save.dart&#45;&gt;/lib/models/app_model.dart</title>
<path fill="none" stroke="#aabbaa" stroke-width="1.3" stroke-opacity="0.533333" d="M870.6,-338.61C879.32,-316.89 896.04,-279.18 917,-251 925.19,-239.98 935.68,-229.25 945.52,-220.19"/>
<polygon fill="#aabbaa" fill-opacity="0.533333" stroke="#aabbaa" stroke-width="1.3" stroke-opacity="0.533333" points="947.7,-222.94 952.84,-213.67 943.04,-217.71 947.7,-222.94"/>
</g>
<!-- /lib/files/export_download_non_web.dart -->
<g id="node34" class="node">
<title>/lib/files/export_download_non_web.dart</title>
<path fill="Lavender" stroke="black" stroke-width="1.3" d="M696.75,-375C696.75,-375 523.25,-375 523.25,-375 517.25,-375 511.25,-369 511.25,-363 511.25,-363 511.25,-351 511.25,-351 511.25,-345 517.25,-339 523.25,-339 523.25,-339 696.75,-339 696.75,-339 702.75,-339 708.75,-345 708.75,-351 708.75,-351 708.75,-363 708.75,-363 708.75,-369 702.75,-375 696.75,-375"/>
<text text-anchor="middle" x="610" y="-351.75" font-family="Arial" font-size="15.00">export_download_non_web</text>
</g>
<!-- /lib/files/export_download_non_web.dart&#45;&gt;/lib/panels/share_panel.dart -->
<g id="edge71" class="edge">
<title>/lib/files/export_download_non_web.dart&#45;&gt;/lib/panels/share_panel.dart</title>
<path fill="none" stroke="#aabbaa" stroke-width="1.3" stroke-opacity="0.533333" d="M640.51,-375.26C663.41,-387.84 696.02,-403.43 727,-410 745.18,-413.86 2046.82,-413.86 2065,-410 2081.07,-406.59 2095.3,-395.39 2106.07,-384.16"/>
<polygon fill="#aabbaa" fill-opacity="0.533333" stroke="#aabbaa" stroke-width="1.3" stroke-opacity="0.533333" points="2108.61,-386.57 2112.62,-376.77 2103.37,-381.93 2108.61,-386.57"/>
</g>
<!-- /lib/files/export_download_non_web.dart&#45;&gt;/lib/models/app_model.dart -->
<g id="edge70" class="edge">
<title>/lib/files/export_download_non_web.dart&#45;&gt;/lib/models/app_model.dart</title>
<path fill="none" stroke="#aabbaa" stroke-width="1.3" stroke-opacity="0.533333" d="M685.2,-338.57C751.55,-323.18 837.81,-303.16 838,-303 857.74,-286.93 844.22,-269.22 862,-251 877.98,-234.62 899.74,-222.32 919.97,-213.48"/>
<polygon fill="#aabbaa" fill-opacity="0.533333" stroke="#aabbaa" stroke-width="1.3" stroke-opacity="0.533333" points="921.28,-216.73 929.18,-209.68 918.61,-210.26 921.28,-216.73"/>
</g>
<!-- /lib/files/export_download_non_web.dart&#45;&gt;/lib/files/file_jpeg.dart -->
<g id="edge68" class="edge">
<title>/lib/files/export_download_non_web.dart&#45;&gt;/lib/files/file_jpeg.dart</title>
<path fill="none" stroke="#aabbaa" stroke-width="1.3" stroke-opacity="0.533333" d="M585.27,-338.52C573.13,-329.93 558.32,-319.46 545.12,-310.12"/>
<polygon fill="#aabbaa" fill-opacity="0.533333" stroke="#aabbaa" stroke-width="1.3" stroke-opacity="0.533333" points="547.2,-307.31 537.02,-304.4 543.16,-313.03 547.2,-307.31"/>
</g>
<!-- /lib/files/export_download_non_web.dart&#45;&gt;/lib/files/file_ora.dart -->
<g id="edge69" class="edge">
<title>/lib/files/export_download_non_web.dart&#45;&gt;/lib/files/file_ora.dart</title>
<path fill="none" stroke="#aabbaa" stroke-width="1.3" stroke-opacity="0.533333" d="M650.71,-338.52C674.67,-328.23 704.97,-315.22 729.41,-304.72"/>
<polygon fill="#aabbaa" fill-opacity="0.533333" stroke="#aabbaa" stroke-width="1.3" stroke-opacity="0.533333" points="730.57,-308.03 738.38,-300.87 727.81,-301.6 730.57,-308.03"/>
</g>
<!-- /lib/files/import_files.dart&#45;&gt;/lib/models/app_model.dart -->
<g id="edge73" class="edge">
<title>/lib/files/import_files.dart&#45;&gt;/lib/models/app_model.dart</title>
<path fill="none" stroke="#aabbaa" stroke-width="1.3" stroke-opacity="0.533333" d="M813.69,-338.73C830.41,-330.01 848.88,-318.05 862,-303 878.49,-284.08 867.6,-270 884,-251 895.42,-237.77 910.76,-226.74 925.63,-218.07"/>
<polygon fill="#aabbaa" fill-opacity="0.533333" stroke="#aabbaa" stroke-width="1.3" stroke-opacity="0.533333" points="927.03,-221.29 934.08,-213.39 923.64,-215.17 927.03,-221.29"/>
</g>
<!-- /lib/files/import_files.dart&#45;&gt;/lib/files/file_ora.dart -->
<g id="edge72" class="edge">
<title>/lib/files/import_files.dart&#45;&gt;/lib/files/file_ora.dart</title>
<path fill="none" stroke="#aabbaa" stroke-width="1.3" stroke-opacity="0.533333" d="M773,-338.7C773,-331.49 773,-322.93 773,-314.82"/>
<polygon fill="#aabbaa" fill-opacity="0.533333" stroke="#aabbaa" stroke-width="1.3" stroke-opacity="0.533333" points="776.5,-315.07 773,-305.07 769.5,-315.07 776.5,-315.07"/>
</g>
<!-- /lib/main_screen.dart&#45;&gt;/lib/panels/tools/flood_fill.dart -->
<g id="edge76" class="edge">
<title>/lib/main_screen.dart&#45;&gt;/lib/panels/tools/flood_fill.dart</title>
<path fill="none" stroke="#aabbaa" stroke-width="1.3" stroke-opacity="0.533333" d="M1402.08,-563.81C1404.72,-561.52 1407.07,-558.93 1409,-556 1417.18,-543.56 1416.66,-501.77 1409,-489 1405.11,-482.52 1399.97,-485.63 1394,-481 1385.78,-474.63 1377.79,-466.64 1370.92,-459.01"/>
<polygon fill="#aabbaa" fill-opacity="0.533333" stroke="#aabbaa" stroke-width="1.3" stroke-opacity="0.533333" points="1373.9,-457.11 1364.71,-451.84 1368.61,-461.69 1373.9,-457.11"/>
</g>
<!-- /lib/main_screen.dart&#45;&gt;/lib/panels/canvas_panel.dart -->
<g id="edge74" class="edge">
<title>/lib/main_screen.dart&#45;&gt;/lib/panels/canvas_panel.dart</title>
<path fill="none" stroke="#aabbaa" stroke-width="1.3" stroke-opacity="0.533333" d="M1402.03,-581.75C1523.01,-581.89 1834.97,-572.56 2074,-481 2129.6,-459.7 2157.07,-458.58 2185,-406 2200.64,-376.56 2198.86,-361.32 2185,-331 2181.63,-323.63 2176.4,-317.01 2170.52,-311.25"/>
<polygon fill="#aabbaa" fill-opacity="0.533333" stroke="#aabbaa" stroke-width="1.3" stroke-opacity="0.533333" points="2172.91,-308.69 2163.07,-304.75 2168.3,-313.96 2172.91,-308.69"/>
</g>
<!-- /lib/main_screen.dart&#45;&gt;/lib/panels/side_panel.dart -->
<g id="edge75" class="edge">
<title>/lib/main_screen.dart&#45;&gt;/lib/panels/side_panel.dart</title>
<path fill="none" stroke="#aabbaa" stroke-width="1.3" stroke-opacity="0.533333" d="M1351,-563.7C1351,-555.76 1351,-546.12 1351,-537.11"/>
<polygon fill="#aabbaa" fill-opacity="0.533333" stroke="#aabbaa" stroke-width="1.3" stroke-opacity="0.533333" points="1354.5,-537.4 1351,-527.4 1347.5,-537.4 1354.5,-537.4"/>
</g>
<!-- /lib/main_screen.dart&#45;&gt;/lib/models/app_model.dart -->
<g id="edge77" class="edge">
<title>/lib/main_screen.dart&#45;&gt;/lib/models/app_model.dart</title>
<path fill="none" stroke="#aabbaa" stroke-width="1.3" stroke-opacity="0.533333" d="M1299.89,-574.86C1065.56,-546.62 104.49,-429.52 84,-406 61.37,-380.03 60.42,-276.11 84,-251 112.66,-220.48 727.25,-201.61 919.23,-196.45"/>
<polygon fill="#aabbaa" fill-opacity="0.533333" stroke="#aabbaa" stroke-width="1.3" stroke-opacity="0.533333" points="919.12,-199.95 929.02,-196.19 918.93,-192.95 919.12,-199.95"/>
</g>
<!-- /lib/helpers/image_helper.dart&#45;&gt;/lib/helpers/color_helper.dart -->
<g id="edge78" class="edge">
<title>/lib/helpers/image_helper.dart&#45;&gt;/lib/helpers/color_helper.dart</title>
<path fill="none" stroke="#aabbaa" stroke-width="1.3" stroke-opacity="0.533333" d="M1234.99,-175.7C1235.4,-168.49 1235.89,-159.93 1236.35,-151.82"/>
<polygon fill="#aabbaa" fill-opacity="0.533333" stroke="#aabbaa" stroke-width="1.3" stroke-opacity="0.533333" points="1239.83,-152.25 1236.91,-142.07 1232.85,-151.85 1239.83,-152.25"/>
</g>
<!-- /lib/helpers/color_helper.dart&#45;&gt;/lib/helpers/list_helper.dart -->
<g id="edge79" class="edge">
<title>/lib/helpers/color_helper.dart&#45;&gt;/lib/helpers/list_helper.dart</title>
<path fill="none" stroke="#aabbaa" stroke-width="1.3" stroke-opacity="0.533333" d="M1238,-103.7C1238,-96.49 1238,-87.93 1238,-79.82"/>
<polygon fill="#aabbaa" fill-opacity="0.533333" stroke="#aabbaa" stroke-width="1.3" stroke-opacity="0.533333" points="1241.5,-80.07 1238,-70.07 1234.5,-80.07 1241.5,-80.07"/>
</g>
<!-- /lib/widgets/top_colors.dart&#45;&gt;/lib/helpers/color_helper.dart -->
<g id="edge80" class="edge">
<title>/lib/widgets/top_colors.dart&#45;&gt;/lib/helpers/color_helper.dart</title>
<path fill="none" stroke="#aabbaa" stroke-width="1.3" stroke-opacity="0.533333" d="M1781.08,-178.12C1778.02,-177.33 1774.98,-176.61 1772,-176 1588.85,-138.71 1538.65,-161.68 1353,-140 1335.41,-137.95 1316.37,-135.3 1298.93,-132.72"/>
<polygon fill="#aabbaa" fill-opacity="0.533333" stroke="#aabbaa" stroke-width="1.3" stroke-opacity="0.533333" points="1299.51,-129.26 1289.1,-131.23 1298.47,-136.19 1299.51,-129.26"/>
</g>
<!-- /lib/widgets/top_colors.dart&#45;&gt;/lib/widgets/transparent_background.dart -->
<g id="edge81" class="edge">
<title>/lib/widgets/top_colors.dart&#45;&gt;/lib/widgets/transparent_background.dart</title>
<path fill="none" stroke="#aabbaa" stroke-width="1.3" stroke-opacity="0.533333" d="M1866.92,-178.09C1869.97,-177.3 1873.02,-176.59 1876,-176 2086.41,-134.29 2338.31,-124.87 2475.57,-123.06"/>
<polygon fill="#aabbaa" fill-opacity="0.533333" stroke="#aabbaa" stroke-width="1.3" stroke-opacity="0.533333" points="2475.35,-126.56 2485.3,-122.95 2475.26,-119.57 2475.35,-126.56"/>
</g>
<!-- /lib/widgets/brush_style_picker.dart&#45;&gt;/lib/models/app_model.dart -->
<g id="edge82" class="edge">
<title>/lib/widgets/brush_style_picker.dart&#45;&gt;/lib/models/app_model.dart</title>
<path fill="none" stroke="#aabbaa" stroke-width="1.3" stroke-opacity="0.533333" d="M1412.2,-212.37C1394.33,-225.37 1368.18,-241.44 1342,-247 1325.75,-250.45 1059.25,-250.45 1043,-247 1026.12,-243.42 1010.75,-232.15 998.99,-220.91"/>
<polygon fill="#aabbaa" fill-opacity="0.533333" stroke="#aabbaa" stroke-width="1.3" stroke-opacity="0.533333" points="1001.61,-218.58 992.12,-213.87 996.6,-223.47 1001.61,-218.58"/>
</g>
<!-- /lib/widgets/color_picker.dart&#45;&gt;/lib/helpers/list_helper.dart -->
<g id="edge84" class="edge">
<title>/lib/widgets/color_picker.dart&#45;&gt;/lib/helpers/list_helper.dart</title>
<path fill="none" stroke="#aabbaa" stroke-width="1.3" stroke-opacity="0.533333" d="M1666.49,-178.53C1663.62,-177.67 1660.77,-176.83 1658,-176 1526.14,-136.71 1370.97,-90.55 1291.23,-66.83"/>
<polygon fill="#aabbaa" fill-opacity="0.533333" stroke="#aabbaa" stroke-width="1.3" stroke-opacity="0.533333" points="1292.5,-63.56 1281.92,-64.06 1290.5,-70.27 1292.5,-63.56"/>
</g>
<!-- /lib/widgets/color_picker.dart&#45;&gt;/lib/helpers/color_helper.dart -->
<g id="edge83" class="edge">
<title>/lib/widgets/color_picker.dart&#45;&gt;/lib/helpers/color_helper.dart</title>
<path fill="none" stroke="#aabbaa" stroke-width="1.3" stroke-opacity="0.533333" d="M1666.63,-177.96C1663.73,-177.25 1660.83,-176.58 1658,-176 1524.32,-148.39 1488.31,-157.98 1353,-140 1335.44,-137.67 1316.41,-134.94 1298.98,-132.35"/>
<polygon fill="#aabbaa" fill-opacity="0.533333" stroke="#aabbaa" stroke-width="1.3" stroke-opacity="0.533333" points="1299.56,-128.9 1289.15,-130.89 1298.52,-135.82 1299.56,-128.9"/>
</g>
<!-- /lib/widgets/color_picker.dart&#45;&gt;/lib/widgets/transparent_background.dart -->
<g id="edge85" class="edge">
<title>/lib/widgets/color_picker.dart&#45;&gt;/lib/widgets/transparent_background.dart</title>
<path fill="none" stroke="#aabbaa" stroke-width="1.3" stroke-opacity="0.533333" d="M1763.55,-177.93C1766.73,-177.2 1769.9,-176.55 1773,-176 2022.86,-131.7 2322.31,-123.57 2475.62,-122.59"/>
<polygon fill="#aabbaa" fill-opacity="0.533333" stroke="#aabbaa" stroke-width="1.3" stroke-opacity="0.533333" points="2475.35,-126.1 2485.33,-122.54 2475.31,-119.1 2475.35,-126.1"/>
</g>
</g>
</svg>
