<?xml version="1.0" encoding="UTF-8" standalone="no"?>
<!DOCTYPE svg PUBLIC "-//W3C//DTD SVG 1.1//EN"
 "http://www.w3.org/Graphics/SVG/1.1/DTD/svg11.dtd">
<!-- Generated by graphviz version 12.2.1 (20241206.2353)
 -->
<!-- Pages: 1 -->
<svg width="2993pt" height="847pt"
 viewBox="0.00 0.00 2993.00 847.00" xmlns="http://www.w3.org/2000/svg" xmlns:xlink="http://www.w3.org/1999/xlink">
<g id="graph0" class="graph" transform="scale(1 1) rotate(0) translate(4 843)">
<polygon fill="white" stroke="none" points="-4,4 -4,-843 2989,-843 2989,4 -4,4"/>
<g id="clust1" class="cluster">
<title>cluster~</title>
<path fill="none" stroke="lightgray" stroke-width="2.6" d="M20,-8C20,-8 2965,-8 2965,-8 2971,-8 2977,-14 2977,-20 2977,-20 2977,-819 2977,-819 2977,-825 2971,-831 2965,-831 2965,-831 20,-831 20,-831 14,-831 8,-825 8,-819 8,-819 8,-20 8,-20 8,-14 14,-8 20,-8"/>
<text text-anchor="middle" x="1492.5" y="-814.65" font-family="Arial Black" font-size="13.00">fpaint</text>
</g>
<g id="clust2" class="cluster">
<title>cluster~/test</title>
<path fill="none" stroke="lightgray" stroke-width="2.6" d="M1019,-647C1019,-647 1605,-647 1605,-647 1611,-647 1617,-653 1617,-659 1617,-659 1617,-788 1617,-788 1617,-794 1611,-800 1605,-800 1605,-800 1019,-800 1019,-800 1013,-800 1007,-794 1007,-788 1007,-788 1007,-659 1007,-659 1007,-653 1013,-647 1019,-647"/>
<text text-anchor="middle" x="1312" y="-783.65" font-family="Arial Black" font-size="13.00">test</text>
</g>
<g id="clust3" class="cluster">
<title>cluster~/test/panels</title>
<path fill="none" stroke="lightgray" stroke-width="2.6" d="M1165,-655C1165,-655 1277,-655 1277,-655 1283,-655 1289,-661 1289,-667 1289,-667 1289,-757 1289,-757 1289,-763 1283,-769 1277,-769 1277,-769 1165,-769 1165,-769 1159,-769 1153,-763 1153,-757 1153,-757 1153,-667 1153,-667 1153,-661 1159,-655 1165,-655"/>
<text text-anchor="middle" x="1221" y="-752.65" font-family="Arial Black" font-size="13.00">panels</text>
</g>
<g id="clust4" class="cluster">
<title>cluster~/test/panels/tools</title>
<path fill="none" stroke="lightgray" stroke-width="2.6" d="M1173,-663C1173,-663 1269,-663 1269,-663 1275,-663 1281,-669 1281,-675 1281,-675 1281,-726 1281,-726 1281,-732 1275,-738 1269,-738 1269,-738 1173,-738 1173,-738 1167,-738 1161,-732 1161,-726 1161,-726 1161,-675 1161,-675 1161,-669 1167,-663 1173,-663"/>
<text text-anchor="middle" x="1221" y="-721.65" font-family="Arial Black" font-size="13.00">tools</text>
</g>
<g id="clust5" class="cluster">
<title>cluster~/lib</title>
<path fill="none" stroke="lightgray" stroke-width="2.6" d="M40,-16C40,-16 2957,-16 2957,-16 2963,-16 2969,-22 2969,-28 2969,-28 2969,-627 2969,-627 2969,-633 2963,-639 2957,-639 2957,-639 40,-639 40,-639 34,-639 28,-633 28,-627 28,-627 28,-28 28,-28 28,-22 34,-16 40,-16"/>
<text text-anchor="middle" x="1498.5" y="-622.65" font-family="Arial Black" font-size="13.00">lib</text>
</g>
<g id="clust6" class="cluster">
<title>cluster~/lib/panels</title>
<path fill="none" stroke="lightgray" stroke-width="2.6" d="M1084,-179C1084,-179 1748,-179 1748,-179 1754,-179 1760,-185 1760,-191 1760,-191 1760,-480 1760,-480 1760,-486 1754,-492 1748,-492 1748,-492 1084,-492 1084,-492 1078,-492 1072,-486 1072,-480 1072,-480 1072,-191 1072,-191 1072,-185 1078,-179 1084,-179"/>
<text text-anchor="middle" x="1416" y="-475.65" font-family="Arial Black" font-size="13.00">panels</text>
</g>
<g id="clust7" class="cluster">
<title>cluster~/lib/panels/tools</title>
<path fill="none" stroke="lightgray" stroke-width="2.6" d="M1468,-270C1468,-270 1740,-270 1740,-270 1746,-270 1752,-276 1752,-282 1752,-282 1752,-405 1752,-405 1752,-411 1746,-417 1740,-417 1740,-417 1468,-417 1468,-417 1462,-417 1456,-411 1456,-405 1456,-405 1456,-282 1456,-282 1456,-276 1462,-270 1468,-270"/>
<text text-anchor="middle" x="1604" y="-400.65" font-family="Arial Black" font-size="13.00">tools</text>
</g>
<g id="clust8" class="cluster">
<title>cluster~/lib/panels/layers</title>
<path fill="none" stroke="lightgray" stroke-width="2.6" d="M1208,-187C1208,-187 1372,-187 1372,-187 1378,-187 1384,-193 1384,-199 1384,-199 1384,-405 1384,-405 1384,-411 1378,-417 1372,-417 1372,-417 1208,-417 1208,-417 1202,-417 1196,-411 1196,-405 1196,-405 1196,-199 1196,-199 1196,-193 1202,-187 1208,-187"/>
<text text-anchor="middle" x="1290" y="-400.65" font-family="Arial Black" font-size="13.00">layers</text>
</g>
<g id="clust9" class="cluster">
<title>cluster~/lib/models</title>
<path fill="none" stroke="lightgray" stroke-width="2.6" d="M845,-187C845,-187 1038,-187 1038,-187 1044,-187 1050,-193 1050,-199 1050,-199 1050,-405 1050,-405 1050,-411 1044,-417 1038,-417 1038,-417 845,-417 845,-417 839,-417 833,-411 833,-405 833,-405 833,-199 833,-199 833,-193 839,-187 845,-187"/>
<text text-anchor="middle" x="941.5" y="-400.65" font-family="Arial Black" font-size="13.00">models</text>
</g>
<g id="clust10" class="cluster">
<title>cluster~/lib/files</title>
<path fill="none" stroke="lightgray" stroke-width="2.6" d="M98,-270C98,-270 813,-270 813,-270 819,-270 825,-276 825,-282 825,-282 825,-405 825,-405 825,-411 819,-417 813,-417 813,-417 98,-417 98,-417 92,-417 86,-411 86,-405 86,-405 86,-282 86,-282 86,-276 92,-270 98,-270"/>
<text text-anchor="middle" x="455.5" y="-400.65" font-family="Arial Black" font-size="13.00">files</text>
</g>
<g id="clust11" class="cluster">
<title>cluster~/lib/helpers</title>
<path fill="none" stroke="lightgray" stroke-width="2.6" d="M2847,-24C2847,-24 2937,-24 2937,-24 2943,-24 2949,-30 2949,-36 2949,-36 2949,-159 2949,-159 2949,-165 2943,-171 2937,-171 2937,-171 2847,-171 2847,-171 2841,-171 2835,-165 2835,-159 2835,-159 2835,-36 2835,-36 2835,-30 2841,-24 2847,-24"/>
<text text-anchor="middle" x="2892" y="-154.65" font-family="Arial Black" font-size="13.00">helpers</text>
</g>
<g id="clust12" class="cluster">
<title>cluster~/lib/widgets</title>
<path fill="none" stroke="lightgray" stroke-width="2.6" d="M1780,-96C1780,-96 2815,-96 2815,-96 2821,-96 2827,-102 2827,-108 2827,-108 2827,-250 2827,-250 2827,-256 2821,-262 2815,-262 2815,-262 1780,-262 1780,-262 1774,-262 1768,-256 1768,-250 1768,-250 1768,-108 1768,-108 1768,-102 1774,-96 1780,-96"/>
<text text-anchor="middle" x="2297.5" y="-245.65" font-family="Arial Black" font-size="13.00">widgets</text>
</g>
<!-- /test/paint_model_test.dart -->
<g id="node1" class="node">
<title>/test/paint_model_test.dart</title>
<path fill="Lavender" stroke="black" stroke-width="1.3" d="M1133,-707C1133,-707 1027,-707 1027,-707 1021,-707 1015,-701 1015,-695 1015,-695 1015,-683 1015,-683 1015,-677 1021,-671 1027,-671 1027,-671 1133,-671 1133,-671 1139,-671 1145,-677 1145,-683 1145,-683 1145,-695 1145,-695 1145,-701 1139,-707 1133,-707"/>
<text text-anchor="middle" x="1080" y="-683.75" font-family="Arial" font-size="15.00">paint_model_test</text>
</g>
<!-- /lib/models/app_model.dart -->
<g id="node19" class="node">
<title>/lib/models/app_model.dart</title>
<path fill="Lavender" stroke="black" stroke-width="1.3" d="M918.75,-231C918.75,-231 853.25,-231 853.25,-231 847.25,-231 841.25,-225 841.25,-219 841.25,-219 841.25,-207 841.25,-207 841.25,-201 847.25,-195 853.25,-195 853.25,-195 918.75,-195 918.75,-195 924.75,-195 930.75,-201 930.75,-207 930.75,-207 930.75,-219 930.75,-219 930.75,-225 924.75,-231 918.75,-231"/>
<text text-anchor="middle" x="886" y="-207.75" font-family="Arial" font-size="15.00">app_model</text>
</g>
<!-- /test/paint_model_test.dart&#45;&gt;/lib/models/app_model.dart -->
<g id="edge1" class="edge">
<title>/test/paint_model_test.dart&#45;&gt;/lib/models/app_model.dart</title>
<path fill="none" stroke="#aabbaa" stroke-width="1.3" stroke-opacity="0.533333" d="M1014.72,-687.38C789.53,-684.93 57.11,-674.27 22,-639 -15.66,-601.17 17,-572.38 17,-519 17,-519 17,-519 17,-367 17,-323.78 -6.67,-300.45 24,-270 80.99,-213.42 646.03,-212.32 829.09,-213.47"/>
<polygon fill="#aabbaa" fill-opacity="0.533333" stroke="#aabbaa" stroke-width="1.3" stroke-opacity="0.533333" points="828.85,-216.96 838.87,-213.53 828.89,-209.96 828.85,-216.96"/>
</g>
<!-- /test/panels/tools/flood_fill_test.dart -->
<g id="node2" class="node">
<title>/test/panels/tools/flood_fill_test.dart</title>
<path fill="Lavender" stroke="black" stroke-width="1.3" d="M1260.5,-707C1260.5,-707 1181.5,-707 1181.5,-707 1175.5,-707 1169.5,-701 1169.5,-695 1169.5,-695 1169.5,-683 1169.5,-683 1169.5,-677 1175.5,-671 1181.5,-671 1181.5,-671 1260.5,-671 1260.5,-671 1266.5,-671 1272.5,-677 1272.5,-683 1272.5,-683 1272.5,-695 1272.5,-695 1272.5,-701 1266.5,-707 1260.5,-707"/>
<text text-anchor="middle" x="1221" y="-683.75" font-family="Arial" font-size="15.00">flood_fill_test</text>
</g>
<!-- /lib/panels/tools/flood_fill.dart -->
<g id="node8" class="node">
<title>/lib/panels/tools/flood_fill.dart</title>
<path fill="Lavender" stroke="black" stroke-width="1.3" d="M1699,-386C1699,-386 1653,-386 1653,-386 1647,-386 1641,-380 1641,-374 1641,-374 1641,-362 1641,-362 1641,-356 1647,-350 1653,-350 1653,-350 1699,-350 1699,-350 1705,-350 1711,-356 1711,-362 1711,-362 1711,-374 1711,-374 1711,-380 1705,-386 1699,-386"/>
<text text-anchor="middle" x="1676" y="-362.75" font-family="Arial" font-size="15.00">flood_fill</text>
</g>
<!-- /test/panels/tools/flood_fill_test.dart&#45;&gt;/lib/panels/tools/flood_fill.dart -->
<g id="edge2" class="edge">
<title>/test/panels/tools/flood_fill_test.dart&#45;&gt;/lib/panels/tools/flood_fill.dart</title>
<path fill="none" stroke="#aabbaa" stroke-width="1.3" stroke-opacity="0.533333" d="M1203.86,-670.71C1193.77,-661.78 1180.23,-651.78 1166,-647 1151.2,-642.03 53,-650.08 42,-639 20.24,-617.08 20.97,-522.62 42,-500 119.82,-416.28 953.8,-429.98 1068,-425 1083.65,-424.32 1617.7,-423.41 1632,-417 1642.34,-412.36 1651.33,-403.99 1658.44,-395.53"/>
<polygon fill="#aabbaa" fill-opacity="0.533333" stroke="#aabbaa" stroke-width="1.3" stroke-opacity="0.533333" points="1661.15,-397.75 1664.45,-387.69 1655.59,-393.5 1661.15,-397.75"/>
</g>
<!-- /test/widget_test.dart -->
<g id="node3" class="node">
<title>/test/widget_test.dart</title>
<path fill="Lavender" stroke="black" stroke-width="1.3" d="M1376.88,-707C1376.88,-707 1309.12,-707 1309.12,-707 1303.12,-707 1297.12,-701 1297.12,-695 1297.12,-695 1297.12,-683 1297.12,-683 1297.12,-677 1303.12,-671 1309.12,-671 1309.12,-671 1376.88,-671 1376.88,-671 1382.88,-671 1388.88,-677 1388.88,-683 1388.88,-683 1388.88,-695 1388.88,-695 1388.88,-701 1382.88,-707 1376.88,-707"/>
<text text-anchor="middle" x="1343" y="-683.75" font-family="Arial" font-size="15.00">widget_test</text>
</g>
<!-- /lib/main.dart -->
<g id="node21" class="node">
<title>/lib/main.dart</title>
<path fill="Lavender" stroke="black" stroke-width="1.3" d="M1114,-608C1114,-608 1084,-608 1084,-608 1078,-608 1072,-602 1072,-596 1072,-596 1072,-584 1072,-584 1072,-578 1078,-572 1084,-572 1084,-572 1114,-572 1114,-572 1120,-572 1126,-578 1126,-584 1126,-584 1126,-596 1126,-596 1126,-602 1120,-608 1114,-608"/>
<text text-anchor="middle" x="1099" y="-584.75" font-family="Arial" font-size="15.00">main</text>
</g>
<!-- /test/widget_test.dart&#45;&gt;/lib/main.dart -->
<g id="edge3" class="edge">
<title>/test/widget_test.dart&#45;&gt;/lib/main.dart</title>
<path fill="none" stroke="#aabbaa" stroke-width="1.3" stroke-opacity="0.533333" d="M1322.01,-670.66C1311.42,-662.59 1298.08,-653.38 1285,-647 1236.62,-623.4 1176.27,-607.46 1137.68,-598.8"/>
<polygon fill="#aabbaa" fill-opacity="0.533333" stroke="#aabbaa" stroke-width="1.3" stroke-opacity="0.533333" points="1138.63,-595.43 1128.12,-596.72 1137.14,-602.27 1138.63,-595.43"/>
</g>
<!-- /test/file_xcf_test.dart -->
<g id="node4" class="node">
<title>/test/file_xcf_test.dart</title>
<path fill="Lavender" stroke="black" stroke-width="1.3" d="M1490.75,-707C1490.75,-707 1419.25,-707 1419.25,-707 1413.25,-707 1407.25,-701 1407.25,-695 1407.25,-695 1407.25,-683 1407.25,-683 1407.25,-677 1413.25,-671 1419.25,-671 1419.25,-671 1490.75,-671 1490.75,-671 1496.75,-671 1502.75,-677 1502.75,-683 1502.75,-683 1502.75,-695 1502.75,-695 1502.75,-701 1496.75,-707 1490.75,-707"/>
<text text-anchor="middle" x="1455" y="-683.75" font-family="Arial" font-size="15.00">file_xcf_test</text>
</g>
<!-- /lib/files/xcf_reader.dart -->
<g id="node22" class="node">
<title>/lib/files/xcf_reader.dart</title>
<path fill="Lavender" stroke="black" stroke-width="1.3" d="M169.62,-386C169.62,-386 106.38,-386 106.38,-386 100.38,-386 94.38,-380 94.38,-374 94.38,-374 94.38,-362 94.38,-362 94.38,-356 100.38,-350 106.38,-350 106.38,-350 169.62,-350 169.62,-350 175.62,-350 181.62,-356 181.62,-362 181.62,-362 181.62,-374 181.62,-374 181.62,-380 175.62,-386 169.62,-386"/>
<text text-anchor="middle" x="138" y="-362.75" font-family="Arial" font-size="15.00">xcf_reader</text>
</g>
<!-- /test/file_xcf_test.dart&#45;&gt;/lib/files/xcf_reader.dart -->
<g id="edge5" class="edge">
<title>/test/file_xcf_test.dart&#45;&gt;/lib/files/xcf_reader.dart</title>
<path fill="none" stroke="#aabbaa" stroke-width="1.3" stroke-opacity="0.533333" d="M1473.17,-670.63C1483.65,-661.79 1497.57,-651.9 1512,-647 1525.26,-642.49 1754.25,-649.06 1764,-639 1772.27,-630.46 1772.39,-433.43 1764,-425 1748.59,-409.51 211.36,-424.91 191,-417 179.02,-412.35 168.07,-403.61 159.27,-394.85"/>
<polygon fill="#aabbaa" fill-opacity="0.533333" stroke="#aabbaa" stroke-width="1.3" stroke-opacity="0.533333" points="161.95,-392.6 152.57,-387.68 156.83,-397.38 161.95,-392.6"/>
</g>
<!-- /lib/files/assets_helper.dart -->
<g id="node23" class="node">
<title>/lib/files/assets_helper.dart</title>
<path fill="Lavender" stroke="black" stroke-width="1.3" d="M296.5,-386C296.5,-386 211.5,-386 211.5,-386 205.5,-386 199.5,-380 199.5,-374 199.5,-374 199.5,-362 199.5,-362 199.5,-356 205.5,-350 211.5,-350 211.5,-350 296.5,-350 296.5,-350 302.5,-350 308.5,-356 308.5,-362 308.5,-362 308.5,-374 308.5,-374 308.5,-380 302.5,-386 296.5,-386"/>
<text text-anchor="middle" x="254" y="-362.75" font-family="Arial" font-size="15.00">assets_helper</text>
</g>
<!-- /test/file_xcf_test.dart&#45;&gt;/lib/files/assets_helper.dart -->
<g id="edge4" class="edge">
<title>/test/file_xcf_test.dart&#45;&gt;/lib/files/assets_helper.dart</title>
<path fill="none" stroke="#aabbaa" stroke-width="1.3" stroke-opacity="0.533333" d="M1473.17,-670.62C1483.64,-661.78 1497.57,-651.89 1512,-647 1525.79,-642.32 1763.86,-649.45 1774,-639 1807.11,-604.86 1807.53,-458.72 1774,-425 1759.74,-410.66 337.17,-423.45 318,-417 303.95,-412.27 290.49,-403.14 279.57,-394.11"/>
<polygon fill="#aabbaa" fill-opacity="0.533333" stroke="#aabbaa" stroke-width="1.3" stroke-opacity="0.533333" points="281.98,-391.56 272.16,-387.6 277.36,-396.82 281.98,-391.56"/>
</g>
<!-- /test/layers_test.dart -->
<g id="node5" class="node">
<title>/test/layers_test.dart</title>
<path fill="Lavender" stroke="black" stroke-width="1.3" d="M1597.38,-707C1597.38,-707 1532.62,-707 1532.62,-707 1526.62,-707 1520.62,-701 1520.62,-695 1520.62,-695 1520.62,-683 1520.62,-683 1520.62,-677 1526.62,-671 1532.62,-671 1532.62,-671 1597.38,-671 1597.38,-671 1603.38,-671 1609.38,-677 1609.38,-683 1609.38,-683 1609.38,-695 1609.38,-695 1609.38,-701 1603.38,-707 1597.38,-707"/>
<text text-anchor="middle" x="1565" y="-683.75" font-family="Arial" font-size="15.00">layers_test</text>
</g>
<!-- /lib/models/layer.dart -->
<g id="node20" class="node">
<title>/lib/models/layer.dart</title>
<path fill="Lavender" stroke="black" stroke-width="1.3" d="M997,-314C997,-314 967,-314 967,-314 961,-314 955,-308 955,-302 955,-302 955,-290 955,-290 955,-284 961,-278 967,-278 967,-278 997,-278 997,-278 1003,-278 1009,-284 1009,-290 1009,-290 1009,-302 1009,-302 1009,-308 1003,-314 997,-314"/>
<text text-anchor="middle" x="982" y="-290.75" font-family="Arial" font-size="15.00">layer</text>
</g>
<!-- /test/layers_test.dart&#45;&gt;/lib/models/layer.dart -->
<g id="edge6" class="edge">
<title>/test/layers_test.dart&#45;&gt;/lib/models/layer.dart</title>
<path fill="none" stroke="#aabbaa" stroke-width="1.3" stroke-opacity="0.533333" d="M1609.61,-684.18C1668,-678.22 1765.78,-664.65 1790,-639 1827.07,-599.74 1809,-573 1809,-519 1809,-519 1809,-519 1809,-442 1809,-394.81 1796.22,-374.67 1756,-350 1690.75,-309.97 1143.96,-323.45 1068,-314 1052.39,-312.06 1035.36,-308.91 1020.61,-305.85"/>
<polygon fill="#aabbaa" fill-opacity="0.533333" stroke="#aabbaa" stroke-width="1.3" stroke-opacity="0.533333" points="1021.77,-302.52 1011.26,-303.85 1020.31,-309.37 1021.77,-302.52"/>
</g>
<!-- /lib/panels/about.dart -->
<g id="node6" class="node">
<title>/lib/panels/about.dart</title>
<path fill="Lavender" stroke="black" stroke-width="1.3" d="M1434,-314C1434,-314 1404,-314 1404,-314 1398,-314 1392,-308 1392,-302 1392,-302 1392,-290 1392,-290 1392,-284 1398,-278 1404,-278 1404,-278 1434,-278 1434,-278 1440,-278 1446,-284 1446,-290 1446,-290 1446,-302 1446,-302 1446,-308 1440,-314 1434,-314"/>
<text text-anchor="middle" x="1419" y="-290.75" font-family="Arial" font-size="15.00">about</text>
</g>
<!-- /lib/panels/tools/tool_selector.dart -->
<g id="node7" class="node">
<title>/lib/panels/tools/tool_selector.dart</title>
<path fill="Lavender" stroke="black" stroke-width="1.3" d="M1732.38,-314C1732.38,-314 1655.62,-314 1655.62,-314 1649.62,-314 1643.62,-308 1643.62,-302 1643.62,-302 1643.62,-290 1643.62,-290 1643.62,-284 1649.62,-278 1655.62,-278 1655.62,-278 1732.38,-278 1732.38,-278 1738.38,-278 1744.38,-284 1744.38,-290 1744.38,-290 1744.38,-302 1744.38,-302 1744.38,-308 1738.38,-314 1732.38,-314"/>
<text text-anchor="middle" x="1694" y="-290.75" font-family="Arial" font-size="15.00">tool_selector</text>
</g>
<!-- /lib/panels/tools/tools_panel.dart -->
<g id="node9" class="node">
<title>/lib/panels/tools/tools_panel.dart</title>
<path fill="Lavender" stroke="black" stroke-width="1.3" d="M1610.88,-386C1610.88,-386 1543.12,-386 1543.12,-386 1537.12,-386 1531.12,-380 1531.12,-374 1531.12,-374 1531.12,-362 1531.12,-362 1531.12,-356 1537.12,-350 1543.12,-350 1543.12,-350 1610.88,-350 1610.88,-350 1616.88,-350 1622.88,-356 1622.88,-362 1622.88,-362 1622.88,-374 1622.88,-374 1622.88,-380 1616.88,-386 1610.88,-386"/>
<text text-anchor="middle" x="1577" y="-362.75" font-family="Arial" font-size="15.00">tools_panel</text>
</g>
<!-- /lib/panels/tools/tools_panel.dart&#45;&gt;/lib/panels/tools/tool_selector.dart -->
<g id="edge9" class="edge">
<title>/lib/panels/tools/tools_panel.dart&#45;&gt;/lib/panels/tools/tool_selector.dart</title>
<path fill="none" stroke="#aabbaa" stroke-width="1.3" stroke-opacity="0.533333" d="M1606.22,-349.52C1620.99,-340.68 1639.11,-329.84 1655.05,-320.3"/>
<polygon fill="#aabbaa" fill-opacity="0.533333" stroke="#aabbaa" stroke-width="1.3" stroke-opacity="0.533333" points="1656.68,-323.41 1663.46,-315.27 1653.08,-317.4 1656.68,-323.41"/>
</g>
<!-- /lib/panels/tools/tool_attributes_widget.dart -->
<g id="node10" class="node">
<title>/lib/panels/tools/tool_attributes_widget.dart</title>
<path fill="Lavender" stroke="black" stroke-width="1.3" d="M1613.75,-314C1613.75,-314 1476.25,-314 1476.25,-314 1470.25,-314 1464.25,-308 1464.25,-302 1464.25,-302 1464.25,-290 1464.25,-290 1464.25,-284 1470.25,-278 1476.25,-278 1476.25,-278 1613.75,-278 1613.75,-278 1619.75,-278 1625.75,-284 1625.75,-290 1625.75,-290 1625.75,-302 1625.75,-302 1625.75,-308 1619.75,-314 1613.75,-314"/>
<text text-anchor="middle" x="1545" y="-290.75" font-family="Arial" font-size="15.00">tool_attributes_widget</text>
</g>
<!-- /lib/panels/tools/tools_panel.dart&#45;&gt;/lib/panels/tools/tool_attributes_widget.dart -->
<g id="edge8" class="edge">
<title>/lib/panels/tools/tools_panel.dart&#45;&gt;/lib/panels/tools/tool_attributes_widget.dart</title>
<path fill="none" stroke="#aabbaa" stroke-width="1.3" stroke-opacity="0.533333" d="M1569.09,-349.7C1565.68,-342.24 1561.6,-333.32 1557.78,-324.97"/>
<polygon fill="#aabbaa" fill-opacity="0.533333" stroke="#aabbaa" stroke-width="1.3" stroke-opacity="0.533333" points="1560.98,-323.53 1553.64,-315.89 1554.61,-326.44 1560.98,-323.53"/>
</g>
<!-- /lib/panels/tools/tools_panel.dart&#45;&gt;/lib/models/app_model.dart -->
<g id="edge7" class="edge">
<title>/lib/panels/tools/tools_panel.dart&#45;&gt;/lib/models/app_model.dart</title>
<path fill="none" stroke="#aabbaa" stroke-width="1.3" stroke-opacity="0.533333" d="M1530.64,-362.68C1406.98,-351.08 1077.99,-319.76 1068,-314 1047.05,-301.92 1057.08,-281.85 1036,-270 998.29,-248.8 978.69,-279.21 939,-262 927.38,-256.96 916.61,-248.32 907.85,-239.74"/>
<polygon fill="#aabbaa" fill-opacity="0.533333" stroke="#aabbaa" stroke-width="1.3" stroke-opacity="0.533333" points="910.61,-237.56 901.17,-232.75 905.55,-242.4 910.61,-237.56"/>
</g>
<!-- /lib/widgets/svg_icon.dart -->
<g id="node32" class="node">
<title>/lib/widgets/svg_icon.dart</title>
<path fill="Lavender" stroke="black" stroke-width="1.3" d="M2395.25,-231C2395.25,-231 2344.75,-231 2344.75,-231 2338.75,-231 2332.75,-225 2332.75,-219 2332.75,-219 2332.75,-207 2332.75,-207 2332.75,-201 2338.75,-195 2344.75,-195 2344.75,-195 2395.25,-195 2395.25,-195 2401.25,-195 2407.25,-201 2407.25,-207 2407.25,-207 2407.25,-219 2407.25,-219 2407.25,-225 2401.25,-231 2395.25,-231"/>
<text text-anchor="middle" x="2370" y="-207.75" font-family="Arial" font-size="15.00">svg_icon</text>
</g>
<!-- /lib/panels/tools/tools_panel.dart&#45;&gt;/lib/widgets/svg_icon.dart -->
<g id="edge12" class="edge">
<title>/lib/panels/tools/tools_panel.dart&#45;&gt;/lib/widgets/svg_icon.dart</title>
<path fill="none" stroke="#aabbaa" stroke-width="1.3" stroke-opacity="0.533333" d="M1623.36,-352.05C1626.27,-351.31 1629.17,-350.61 1632,-350 1650.91,-345.91 2305.67,-270.61 2323,-262 2333.43,-256.82 2342.88,-248.37 2350.52,-240"/>
<polygon fill="#aabbaa" fill-opacity="0.533333" stroke="#aabbaa" stroke-width="1.3" stroke-opacity="0.533333" points="2352.99,-242.49 2356.79,-232.6 2347.65,-237.96 2352.99,-242.49"/>
</g>
<!-- /lib/widgets/brush_size_picker.dart -->
<g id="node35" class="node">
<title>/lib/widgets/brush_size_picker.dart</title>
<path fill="Lavender" stroke="black" stroke-width="1.3" d="M2549,-231C2549,-231 2437,-231 2437,-231 2431,-231 2425,-225 2425,-219 2425,-219 2425,-207 2425,-207 2425,-201 2431,-195 2437,-195 2437,-195 2549,-195 2549,-195 2555,-195 2561,-201 2561,-207 2561,-207 2561,-219 2561,-219 2561,-225 2555,-231 2549,-231"/>
<text text-anchor="middle" x="2493" y="-207.75" font-family="Arial" font-size="15.00">brush_size_picker</text>
</g>
<!-- /lib/panels/tools/tools_panel.dart&#45;&gt;/lib/widgets/brush_size_picker.dart -->
<g id="edge10" class="edge">
<title>/lib/panels/tools/tools_panel.dart&#45;&gt;/lib/widgets/brush_size_picker.dart</title>
<path fill="none" stroke="#aabbaa" stroke-width="1.3" stroke-opacity="0.533333" d="M1623.33,-351.88C1626.24,-351.18 1629.15,-350.54 1632,-350 1976.48,-284.62 2088.17,-386.37 2416,-262 2431.61,-256.08 2447.49,-246.83 2460.75,-238.03"/>
<polygon fill="#aabbaa" fill-opacity="0.533333" stroke="#aabbaa" stroke-width="1.3" stroke-opacity="0.533333" points="2462.44,-241.11 2468.7,-232.56 2458.48,-235.34 2462.44,-241.11"/>
</g>
<!-- /lib/widgets/tolerance_picker.dart -->
<g id="node37" class="node">
<title>/lib/widgets/tolerance_picker.dart</title>
<path fill="Lavender" stroke="black" stroke-width="1.3" d="M2692.75,-231C2692.75,-231 2591.25,-231 2591.25,-231 2585.25,-231 2579.25,-225 2579.25,-219 2579.25,-219 2579.25,-207 2579.25,-207 2579.25,-201 2585.25,-195 2591.25,-195 2591.25,-195 2692.75,-195 2692.75,-195 2698.75,-195 2704.75,-201 2704.75,-207 2704.75,-207 2704.75,-219 2704.75,-219 2704.75,-225 2698.75,-231 2692.75,-231"/>
<text text-anchor="middle" x="2642" y="-207.75" font-family="Arial" font-size="15.00">tolerance_picker</text>
</g>
<!-- /lib/panels/tools/tools_panel.dart&#45;&gt;/lib/widgets/tolerance_picker.dart -->
<g id="edge13" class="edge">
<title>/lib/panels/tools/tools_panel.dart&#45;&gt;/lib/widgets/tolerance_picker.dart</title>
<path fill="none" stroke="#aabbaa" stroke-width="1.3" stroke-opacity="0.533333" d="M1623.31,-351.8C1626.23,-351.12 1629.15,-350.51 1632,-350 1931.27,-296.71 2013.47,-352.47 2315,-314 2429.74,-299.36 2463.22,-306.46 2570,-262 2584.55,-255.94 2599.28,-246.78 2611.58,-238.08"/>
<polygon fill="#aabbaa" fill-opacity="0.533333" stroke="#aabbaa" stroke-width="1.3" stroke-opacity="0.533333" points="2613.29,-241.17 2619.29,-232.44 2609.16,-235.52 2613.29,-241.17"/>
</g>
<!-- /lib/widgets/color_picker.dart -->
<g id="node40" class="node">
<title>/lib/widgets/color_picker.dart</title>
<path fill="Lavender" stroke="black" stroke-width="1.3" d="M2807.12,-231C2807.12,-231 2734.88,-231 2734.88,-231 2728.88,-231 2722.88,-225 2722.88,-219 2722.88,-219 2722.88,-207 2722.88,-207 2722.88,-201 2728.88,-195 2734.88,-195 2734.88,-195 2807.12,-195 2807.12,-195 2813.12,-195 2819.12,-201 2819.12,-207 2819.12,-207 2819.12,-219 2819.12,-219 2819.12,-225 2813.12,-231 2807.12,-231"/>
<text text-anchor="middle" x="2771" y="-207.75" font-family="Arial" font-size="15.00">color_picker</text>
</g>
<!-- /lib/panels/tools/tools_panel.dart&#45;&gt;/lib/widgets/color_picker.dart -->
<g id="edge11" class="edge">
<title>/lib/panels/tools/tools_panel.dart&#45;&gt;/lib/widgets/color_picker.dart</title>
<path fill="none" stroke="#aabbaa" stroke-width="1.3" stroke-opacity="0.533333" d="M1623.31,-351.78C1626.23,-351.1 1629.14,-350.5 1632,-350 1983.96,-288.75 2080.09,-354.83 2435,-314 2560.31,-299.58 2599.99,-315.96 2714,-262 2725.75,-256.44 2737.06,-247.84 2746.46,-239.46"/>
<polygon fill="#aabbaa" fill-opacity="0.533333" stroke="#aabbaa" stroke-width="1.3" stroke-opacity="0.533333" points="2748.86,-242.01 2753.75,-232.61 2744.06,-236.91 2748.86,-242.01"/>
</g>
<!-- /lib/helpers/color_helper.dart -->
<g id="node31" class="node">
<title>/lib/helpers/color_helper.dart</title>
<path fill="Lavender" stroke="black" stroke-width="1.3" d="M2928.88,-140C2928.88,-140 2855.12,-140 2855.12,-140 2849.12,-140 2843.12,-134 2843.12,-128 2843.12,-128 2843.12,-116 2843.12,-116 2843.12,-110 2849.12,-104 2855.12,-104 2855.12,-104 2928.88,-104 2928.88,-104 2934.88,-104 2940.88,-110 2940.88,-116 2940.88,-116 2940.88,-128 2940.88,-128 2940.88,-134 2934.88,-140 2928.88,-140"/>
<text text-anchor="middle" x="2892" y="-116.75" font-family="Arial" font-size="15.00">color_helper</text>
</g>
<!-- /lib/panels/tools/tool_attributes_widget.dart&#45;&gt;/lib/helpers/color_helper.dart -->
<g id="edge14" class="edge">
<title>/lib/panels/tools/tool_attributes_widget.dart&#45;&gt;/lib/helpers/color_helper.dart</title>
<path fill="none" stroke="#aabbaa" stroke-width="1.3" stroke-opacity="0.533333" d="M1598.77,-277.58C1610.58,-274.45 1623.12,-271.66 1635,-270 1651.45,-267.7 2817.12,-271.13 2831,-262 2868.09,-237.59 2882.78,-185.11 2888.49,-152.07"/>
<polygon fill="#aabbaa" fill-opacity="0.533333" stroke="#aabbaa" stroke-width="1.3" stroke-opacity="0.533333" points="2891.92,-152.82 2889.97,-142.41 2885,-151.77 2891.92,-152.82"/>
</g>
<!-- /lib/widgets/transparent_background.dart -->
<g id="node36" class="node">
<title>/lib/widgets/transparent_background.dart</title>
<path fill="Lavender" stroke="black" stroke-width="1.3" d="M1942.38,-140C1942.38,-140 1787.62,-140 1787.62,-140 1781.62,-140 1775.62,-134 1775.62,-128 1775.62,-128 1775.62,-116 1775.62,-116 1775.62,-110 1781.62,-104 1787.62,-104 1787.62,-104 1942.38,-104 1942.38,-104 1948.38,-104 1954.38,-110 1954.38,-116 1954.38,-116 1954.38,-128 1954.38,-128 1954.38,-134 1948.38,-140 1942.38,-140"/>
<text text-anchor="middle" x="1865" y="-116.75" font-family="Arial" font-size="15.00">transparent_background</text>
</g>
<!-- /lib/panels/tools/tool_attributes_widget.dart&#45;&gt;/lib/widgets/transparent_background.dart -->
<g id="edge15" class="edge">
<title>/lib/panels/tools/tool_attributes_widget.dart&#45;&gt;/lib/widgets/transparent_background.dart</title>
<path fill="none" stroke="#aabbaa" stroke-width="1.3" stroke-opacity="0.533333" d="M1577.44,-277.56C1635.54,-246.33 1757.32,-180.88 1822.19,-146.01"/>
<polygon fill="#aabbaa" fill-opacity="0.533333" stroke="#aabbaa" stroke-width="1.3" stroke-opacity="0.533333" points="1823.59,-149.23 1830.74,-141.42 1820.27,-143.07 1823.59,-149.23"/>
</g>
<!-- /lib/panels/canvas_panel.dart -->
<g id="node11" class="node">
<title>/lib/panels/canvas_panel.dart</title>
<path fill="Lavender" stroke="black" stroke-width="1.3" d="M1175.75,-231C1175.75,-231 1092.25,-231 1092.25,-231 1086.25,-231 1080.25,-225 1080.25,-219 1080.25,-219 1080.25,-207 1080.25,-207 1080.25,-201 1086.25,-195 1092.25,-195 1092.25,-195 1175.75,-195 1175.75,-195 1181.75,-195 1187.75,-201 1187.75,-207 1187.75,-207 1187.75,-219 1187.75,-219 1187.75,-225 1181.75,-231 1175.75,-231"/>
<text text-anchor="middle" x="1134" y="-207.75" font-family="Arial" font-size="15.00">canvas_panel</text>
</g>
<!-- /lib/panels/canvas_panel.dart&#45;&gt;/lib/models/app_model.dart -->
<g id="edge16" class="edge">
<title>/lib/panels/canvas_panel.dart&#45;&gt;/lib/models/app_model.dart</title>
<path fill="none" stroke="#aabbaa" stroke-width="1.3" stroke-opacity="0.533333" d="M1116.11,-231.5C1101.66,-244.76 1080.02,-261.12 1057,-266 1033.31,-271.03 971.69,-271.03 948,-266 943.72,-265.09 942.66,-264.41 939,-262 929.31,-255.62 919.71,-247.46 911.39,-239.62"/>
<polygon fill="#aabbaa" fill-opacity="0.533333" stroke="#aabbaa" stroke-width="1.3" stroke-opacity="0.533333" points="913.93,-237.21 904.33,-232.73 909.04,-242.22 913.93,-237.21"/>
</g>
<!-- /lib/panels/canvas_panel.dart&#45;&gt;/lib/widgets/transparent_background.dart -->
<g id="edge17" class="edge">
<title>/lib/panels/canvas_panel.dart&#45;&gt;/lib/widgets/transparent_background.dart</title>
<path fill="none" stroke="#aabbaa" stroke-width="1.3" stroke-opacity="0.533333" d="M1159.17,-194.51C1168.99,-188.56 1180.6,-182.53 1192,-179 1295.87,-146.85 1602.53,-131.89 1763.58,-126.09"/>
<polygon fill="#aabbaa" fill-opacity="0.533333" stroke="#aabbaa" stroke-width="1.3" stroke-opacity="0.533333" points="1763.56,-129.59 1773.43,-125.74 1763.31,-122.6 1763.56,-129.59"/>
</g>
<!-- /lib/panels/layers/tools_and_layers_panel.dart -->
<g id="node12" class="node">
<title>/lib/panels/layers/tools_and_layers_panel.dart</title>
<path fill="Lavender" stroke="black" stroke-width="1.3" d="M1364.38,-386C1364.38,-386 1215.62,-386 1215.62,-386 1209.62,-386 1203.62,-380 1203.62,-374 1203.62,-374 1203.62,-362 1203.62,-362 1203.62,-356 1209.62,-350 1215.62,-350 1215.62,-350 1364.38,-350 1364.38,-350 1370.38,-350 1376.38,-356 1376.38,-362 1376.38,-362 1376.38,-374 1376.38,-374 1376.38,-380 1370.38,-386 1364.38,-386"/>
<text text-anchor="middle" x="1290" y="-362.75" font-family="Arial" font-size="15.00">tools_and_layers_panel</text>
</g>
<!-- /lib/panels/layers/tools_and_layers_panel.dart&#45;&gt;/lib/panels/about.dart -->
<g id="edge20" class="edge">
<title>/lib/panels/layers/tools_and_layers_panel.dart&#45;&gt;/lib/panels/about.dart</title>
<path fill="none" stroke="#aabbaa" stroke-width="1.3" stroke-opacity="0.533333" d="M1322.25,-349.62C1338.76,-340.71 1359.43,-329.53 1381.21,-317.69"/>
<polygon fill="#aabbaa" fill-opacity="0.533333" stroke="#aabbaa" stroke-width="1.3" stroke-opacity="0.533333" points="1382.78,-320.82 1389.89,-312.97 1379.44,-314.67 1382.78,-320.82"/>
</g>
<!-- /lib/panels/layers/layer_selector.dart -->
<g id="node13" class="node">
<title>/lib/panels/layers/layer_selector.dart</title>
<path fill="Lavender" stroke="black" stroke-width="1.3" d="M1361.5,-314C1361.5,-314 1276.5,-314 1276.5,-314 1270.5,-314 1264.5,-308 1264.5,-302 1264.5,-302 1264.5,-290 1264.5,-290 1264.5,-284 1270.5,-278 1276.5,-278 1276.5,-278 1361.5,-278 1361.5,-278 1367.5,-278 1373.5,-284 1373.5,-290 1373.5,-290 1373.5,-302 1373.5,-302 1373.5,-308 1367.5,-314 1361.5,-314"/>
<text text-anchor="middle" x="1319" y="-290.75" font-family="Arial" font-size="15.00">layer_selector</text>
</g>
<!-- /lib/panels/layers/tools_and_layers_panel.dart&#45;&gt;/lib/panels/layers/layer_selector.dart -->
<g id="edge21" class="edge">
<title>/lib/panels/layers/tools_and_layers_panel.dart&#45;&gt;/lib/panels/layers/layer_selector.dart</title>
<path fill="none" stroke="#aabbaa" stroke-width="1.3" stroke-opacity="0.533333" d="M1297.17,-349.7C1300.26,-342.24 1303.95,-333.32 1307.41,-324.97"/>
<polygon fill="#aabbaa" fill-opacity="0.533333" stroke="#aabbaa" stroke-width="1.3" stroke-opacity="0.533333" points="1310.57,-326.5 1311.16,-315.92 1304.1,-323.82 1310.57,-326.5"/>
</g>
<!-- /lib/panels/share_panel.dart -->
<g id="node16" class="node">
<title>/lib/panels/share_panel.dart</title>
<path fill="Lavender" stroke="black" stroke-width="1.3" d="M1172.88,-314C1172.88,-314 1099.12,-314 1099.12,-314 1093.12,-314 1087.12,-308 1087.12,-302 1087.12,-302 1087.12,-290 1087.12,-290 1087.12,-284 1093.12,-278 1099.12,-278 1099.12,-278 1172.88,-278 1172.88,-278 1178.88,-278 1184.88,-284 1184.88,-290 1184.88,-290 1184.88,-302 1184.88,-302 1184.88,-308 1178.88,-314 1172.88,-314"/>
<text text-anchor="middle" x="1136" y="-290.75" font-family="Arial" font-size="15.00">share_panel</text>
</g>
<!-- /lib/panels/layers/tools_and_layers_panel.dart&#45;&gt;/lib/panels/share_panel.dart -->
<g id="edge22" class="edge">
<title>/lib/panels/layers/tools_and_layers_panel.dart&#45;&gt;/lib/panels/share_panel.dart</title>
<path fill="none" stroke="#aabbaa" stroke-width="1.3" stroke-opacity="0.533333" d="M1251.54,-349.52C1231.43,-340.38 1206.61,-329.09 1185.13,-319.33"/>
<polygon fill="#aabbaa" fill-opacity="0.533333" stroke="#aabbaa" stroke-width="1.3" stroke-opacity="0.533333" points="1186.58,-316.15 1176.03,-315.2 1183.69,-322.52 1186.58,-316.15"/>
</g>
<!-- /lib/panels/layers/tools_and_layers_panel.dart&#45;&gt;/lib/models/app_model.dart -->
<g id="edge19" class="edge">
<title>/lib/panels/layers/tools_and_layers_panel.dart&#45;&gt;/lib/models/app_model.dart</title>
<path fill="none" stroke="#aabbaa" stroke-width="1.3" stroke-opacity="0.533333" d="M1203.21,-356.02C1142.65,-346.96 1068.33,-332.58 1043,-314 1024.86,-300.7 1036.84,-282.28 1018,-270 988.43,-250.73 971.25,-276.34 939,-262 927.43,-256.85 916.67,-248.19 907.9,-239.63"/>
<polygon fill="#aabbaa" fill-opacity="0.533333" stroke="#aabbaa" stroke-width="1.3" stroke-opacity="0.533333" points="910.66,-237.45 901.21,-232.65 905.61,-242.29 910.66,-237.45"/>
</g>
<!-- /lib/files/import_files.dart -->
<g id="node28" class="node">
<title>/lib/files/import_files.dart</title>
<path fill="Lavender" stroke="black" stroke-width="1.3" d="M407.25,-386C407.25,-386 338.75,-386 338.75,-386 332.75,-386 326.75,-380 326.75,-374 326.75,-374 326.75,-362 326.75,-362 326.75,-356 332.75,-350 338.75,-350 338.75,-350 407.25,-350 407.25,-350 413.25,-350 419.25,-356 419.25,-362 419.25,-362 419.25,-374 419.25,-374 419.25,-380 413.25,-386 407.25,-386"/>
<text text-anchor="middle" x="373" y="-362.75" font-family="Arial" font-size="15.00">import_files</text>
</g>
<!-- /lib/panels/layers/tools_and_layers_panel.dart&#45;&gt;/lib/files/import_files.dart -->
<g id="edge18" class="edge">
<title>/lib/panels/layers/tools_and_layers_panel.dart&#45;&gt;/lib/files/import_files.dart</title>
<path fill="none" stroke="#aabbaa" stroke-width="1.3" stroke-opacity="0.533333" d="M1223.29,-386.46C1174.38,-399.01 1106.12,-414.46 1045,-421 1028.21,-422.8 453.52,-424.51 437,-421 420.47,-417.49 405.67,-406.1 394.47,-394.77"/>
<polygon fill="#aabbaa" fill-opacity="0.533333" stroke="#aabbaa" stroke-width="1.3" stroke-opacity="0.533333" points="397.32,-392.69 387.98,-387.7 392.16,-397.43 397.32,-392.69"/>
</g>
<!-- /lib/panels/layers/blend_mode.dart -->
<g id="node14" class="node">
<title>/lib/panels/layers/blend_mode.dart</title>
<path fill="Lavender" stroke="black" stroke-width="1.3" d="M1355.88,-231C1355.88,-231 1282.12,-231 1282.12,-231 1276.12,-231 1270.12,-225 1270.12,-219 1270.12,-219 1270.12,-207 1270.12,-207 1270.12,-201 1276.12,-195 1282.12,-195 1282.12,-195 1355.88,-195 1355.88,-195 1361.88,-195 1367.88,-201 1367.88,-207 1367.88,-207 1367.88,-219 1367.88,-219 1367.88,-225 1361.88,-231 1355.88,-231"/>
<text text-anchor="middle" x="1319" y="-207.75" font-family="Arial" font-size="15.00">blend_mode</text>
</g>
<!-- /lib/panels/layers/layer_selector.dart&#45;&gt;/lib/panels/layers/blend_mode.dart -->
<g id="edge24" class="edge">
<title>/lib/panels/layers/layer_selector.dart&#45;&gt;/lib/panels/layers/blend_mode.dart</title>
<path fill="none" stroke="#aabbaa" stroke-width="1.3" stroke-opacity="0.533333" d="M1319,-277.82C1319,-267.8 1319,-254.88 1319,-243.29"/>
<polygon fill="#aabbaa" fill-opacity="0.533333" stroke="#aabbaa" stroke-width="1.3" stroke-opacity="0.533333" points="1322.5,-243.4 1319,-233.4 1315.5,-243.4 1322.5,-243.4"/>
</g>
<!-- /lib/panels/layers/layer_selector.dart&#45;&gt;/lib/models/app_model.dart -->
<g id="edge23" class="edge">
<title>/lib/panels/layers/layer_selector.dart&#45;&gt;/lib/models/app_model.dart</title>
<path fill="none" stroke="#aabbaa" stroke-width="1.3" stroke-opacity="0.533333" d="M1284.44,-277.57C1276.89,-274.48 1268.82,-271.71 1261,-270 1226.04,-262.33 972.23,-275.29 939,-262 927.07,-257.23 916.12,-248.47 907.31,-239.73"/>
<polygon fill="#aabbaa" fill-opacity="0.533333" stroke="#aabbaa" stroke-width="1.3" stroke-opacity="0.533333" points="910,-237.48 900.61,-232.57 904.89,-242.26 910,-237.48"/>
</g>
<!-- /lib/widgets/truncated_text.dart -->
<g id="node33" class="node">
<title>/lib/widgets/truncated_text.dart</title>
<path fill="Lavender" stroke="black" stroke-width="1.3" d="M2034,-231C2034,-231 1946,-231 1946,-231 1940,-231 1934,-225 1934,-219 1934,-219 1934,-207 1934,-207 1934,-201 1940,-195 1946,-195 1946,-195 2034,-195 2034,-195 2040,-195 2046,-201 2046,-207 2046,-207 2046,-219 2046,-219 2046,-225 2040,-231 2034,-231"/>
<text text-anchor="middle" x="1990" y="-207.75" font-family="Arial" font-size="15.00">truncated_text</text>
</g>
<!-- /lib/panels/layers/layer_selector.dart&#45;&gt;/lib/widgets/truncated_text.dart -->
<g id="edge28" class="edge">
<title>/lib/panels/layers/layer_selector.dart&#45;&gt;/lib/widgets/truncated_text.dart</title>
<path fill="none" stroke="#aabbaa" stroke-width="1.3" stroke-opacity="0.533333" d="M1354.16,-277.51C1361.84,-274.43 1370.05,-271.67 1378,-270 1437.48,-257.47 1867.4,-281.43 1925,-262 1939.08,-257.25 1952.65,-248.21 1963.7,-239.24"/>
<polygon fill="#aabbaa" fill-opacity="0.533333" stroke="#aabbaa" stroke-width="1.3" stroke-opacity="0.533333" points="1965.93,-241.94 1971.23,-232.77 1961.37,-236.63 1965.93,-241.94"/>
</g>
<!-- /lib/widgets/container_slider.dart -->
<g id="node34" class="node">
<title>/lib/widgets/container_slider.dart</title>
<path fill="Lavender" stroke="black" stroke-width="1.3" d="M2173.5,-231C2173.5,-231 2076.5,-231 2076.5,-231 2070.5,-231 2064.5,-225 2064.5,-219 2064.5,-219 2064.5,-207 2064.5,-207 2064.5,-201 2070.5,-195 2076.5,-195 2076.5,-195 2173.5,-195 2173.5,-195 2179.5,-195 2185.5,-201 2185.5,-207 2185.5,-207 2185.5,-219 2185.5,-219 2185.5,-225 2179.5,-231 2173.5,-231"/>
<text text-anchor="middle" x="2125" y="-207.75" font-family="Arial" font-size="15.00">container_slider</text>
</g>
<!-- /lib/panels/layers/layer_selector.dart&#45;&gt;/lib/widgets/container_slider.dart -->
<g id="edge25" class="edge">
<title>/lib/panels/layers/layer_selector.dart&#45;&gt;/lib/widgets/container_slider.dart</title>
<path fill="none" stroke="#aabbaa" stroke-width="1.3" stroke-opacity="0.533333" d="M1353.84,-277.62C1361.61,-274.49 1369.94,-271.69 1378,-270 1414.82,-262.3 2019.14,-273.35 2055,-262 2070.3,-257.16 2085.25,-247.75 2097.38,-238.54"/>
<polygon fill="#aabbaa" fill-opacity="0.533333" stroke="#aabbaa" stroke-width="1.3" stroke-opacity="0.533333" points="2099.29,-241.49 2104.91,-232.51 2094.92,-236.02 2099.29,-241.49"/>
</g>
<!-- /lib/panels/layers/layer_selector.dart&#45;&gt;/lib/widgets/transparent_background.dart -->
<g id="edge27" class="edge">
<title>/lib/panels/layers/layer_selector.dart&#45;&gt;/lib/widgets/transparent_background.dart</title>
<path fill="none" stroke="#aabbaa" stroke-width="1.3" stroke-opacity="0.533333" d="M1359.88,-277.51C1365.95,-274.96 1372.13,-272.39 1378,-270 1480.56,-228.17 1504.02,-211.2 1610,-179 1659.98,-163.81 1716.64,-150.95 1763.84,-141.4"/>
<polygon fill="#aabbaa" fill-opacity="0.533333" stroke="#aabbaa" stroke-width="1.3" stroke-opacity="0.533333" points="1764.26,-144.88 1773.38,-139.49 1762.89,-138.02 1764.26,-144.88"/>
</g>
<!-- /lib/widgets/image_painter.dart -->
<g id="node38" class="node">
<title>/lib/widgets/image_painter.dart</title>
<path fill="Lavender" stroke="black" stroke-width="1.3" d="M2302.25,-231C2302.25,-231 2215.75,-231 2215.75,-231 2209.75,-231 2203.75,-225 2203.75,-219 2203.75,-219 2203.75,-207 2203.75,-207 2203.75,-201 2209.75,-195 2215.75,-195 2215.75,-195 2302.25,-195 2302.25,-195 2308.25,-195 2314.25,-201 2314.25,-207 2314.25,-207 2314.25,-219 2314.25,-219 2314.25,-225 2308.25,-231 2302.25,-231"/>
<text text-anchor="middle" x="2259" y="-207.75" font-family="Arial" font-size="15.00">image_painter</text>
</g>
<!-- /lib/panels/layers/layer_selector.dart&#45;&gt;/lib/widgets/image_painter.dart -->
<g id="edge26" class="edge">
<title>/lib/panels/layers/layer_selector.dart&#45;&gt;/lib/widgets/image_painter.dart</title>
<path fill="none" stroke="#aabbaa" stroke-width="1.3" stroke-opacity="0.533333" d="M1353.84,-277.6C1361.61,-274.48 1369.94,-271.68 1378,-270 1422.44,-260.75 2152.01,-276.56 2195,-262 2209.04,-257.24 2222.5,-248.11 2233.42,-239.07"/>
<polygon fill="#aabbaa" fill-opacity="0.533333" stroke="#aabbaa" stroke-width="1.3" stroke-opacity="0.533333" points="2235.62,-241.8 2240.83,-232.57 2231.01,-236.53 2235.62,-241.8"/>
</g>
<!-- /lib/panels/side_panel.dart -->
<g id="node15" class="node">
<title>/lib/panels/side_panel.dart</title>
<path fill="Lavender" stroke="black" stroke-width="1.3" d="M1242.62,-461C1242.62,-461 1179.38,-461 1179.38,-461 1173.38,-461 1167.38,-455 1167.38,-449 1167.38,-449 1167.38,-437 1167.38,-437 1167.38,-431 1173.38,-425 1179.38,-425 1179.38,-425 1242.62,-425 1242.62,-425 1248.62,-425 1254.62,-431 1254.62,-437 1254.62,-437 1254.62,-449 1254.62,-449 1254.62,-455 1248.62,-461 1242.62,-461"/>
<text text-anchor="middle" x="1211" y="-437.75" font-family="Arial" font-size="15.00">side_panel</text>
</g>
<!-- /lib/panels/side_panel.dart&#45;&gt;/lib/panels/tools/tools_panel.dart -->
<g id="edge31" class="edge">
<title>/lib/panels/side_panel.dart&#45;&gt;/lib/panels/tools/tools_panel.dart</title>
<path fill="none" stroke="#aabbaa" stroke-width="1.3" stroke-opacity="0.533333" d="M1255.07,-425.87C1256.39,-425.56 1257.7,-425.26 1259,-425 1315.29,-413.52 1331.25,-425.89 1388,-417 1432.86,-409.98 1482.59,-397.14 1519.78,-386.5"/>
<polygon fill="#aabbaa" fill-opacity="0.533333" stroke="#aabbaa" stroke-width="1.3" stroke-opacity="0.533333" points="1520.38,-389.97 1529.01,-383.83 1518.43,-383.25 1520.38,-389.97"/>
</g>
<!-- /lib/panels/side_panel.dart&#45;&gt;/lib/panels/layers/tools_and_layers_panel.dart -->
<g id="edge30" class="edge">
<title>/lib/panels/side_panel.dart&#45;&gt;/lib/panels/layers/tools_and_layers_panel.dart</title>
<path fill="none" stroke="#aabbaa" stroke-width="1.3" stroke-opacity="0.533333" d="M1229.72,-424.7C1239.49,-415.67 1251.63,-404.46 1262.44,-394.46"/>
<polygon fill="#aabbaa" fill-opacity="0.533333" stroke="#aabbaa" stroke-width="1.3" stroke-opacity="0.533333" points="1264.72,-397.12 1269.69,-387.76 1259.97,-391.98 1264.72,-397.12"/>
</g>
<!-- /lib/panels/side_panel.dart&#45;&gt;/lib/models/app_model.dart -->
<g id="edge29" class="edge">
<title>/lib/panels/side_panel.dart&#45;&gt;/lib/models/app_model.dart</title>
<path fill="none" stroke="#aabbaa" stroke-width="1.3" stroke-opacity="0.533333" d="M1166.95,-425.78C1165.62,-425.49 1164.31,-425.23 1163,-425 1148.21,-422.4 92.58,-427.66 82,-417 70.49,-405.41 70.86,-281.94 82,-270 132.76,-215.58 654.45,-212.94 829.26,-213.6"/>
<polygon fill="#aabbaa" fill-opacity="0.533333" stroke="#aabbaa" stroke-width="1.3" stroke-opacity="0.533333" points="829.01,-217.09 839.03,-213.64 829.04,-210.09 829.01,-217.09"/>
</g>
<!-- /lib/panels/share_panel.dart&#45;&gt;/lib/panels/canvas_panel.dart -->
<g id="edge33" class="edge">
<title>/lib/panels/share_panel.dart&#45;&gt;/lib/panels/canvas_panel.dart</title>
<path fill="none" stroke="#aabbaa" stroke-width="1.3" stroke-opacity="0.533333" d="M1135.58,-277.82C1135.33,-267.8 1135.01,-254.88 1134.72,-243.29"/>
<polygon fill="#aabbaa" fill-opacity="0.533333" stroke="#aabbaa" stroke-width="1.3" stroke-opacity="0.533333" points="1138.22,-243.31 1134.48,-233.4 1131.23,-243.48 1138.22,-243.31"/>
</g>
<!-- /lib/panels/share_panel.dart&#45;&gt;/lib/models/app_model.dart -->
<g id="edge32" class="edge">
<title>/lib/panels/share_panel.dart&#45;&gt;/lib/models/app_model.dart</title>
<path fill="none" stroke="#aabbaa" stroke-width="1.3" stroke-opacity="0.533333" d="M1087.02,-278.09C1076.25,-274.93 1064.83,-272 1054,-270 1028.81,-265.35 962.57,-272.04 939,-262 927.35,-257.04 916.57,-248.41 907.82,-239.82"/>
<polygon fill="#aabbaa" fill-opacity="0.533333" stroke="#aabbaa" stroke-width="1.3" stroke-opacity="0.533333" points="910.57,-237.64 901.14,-232.82 905.5,-242.47 910.57,-237.64"/>
</g>
<!-- /lib/models/layers.dart -->
<g id="node17" class="node">
<title>/lib/models/layers.dart</title>
<path fill="Lavender" stroke="black" stroke-width="1.3" d="M997.88,-386C997.88,-386 966.12,-386 966.12,-386 960.12,-386 954.12,-380 954.12,-374 954.12,-374 954.12,-362 954.12,-362 954.12,-356 960.12,-350 966.12,-350 966.12,-350 997.88,-350 997.88,-350 1003.88,-350 1009.88,-356 1009.88,-362 1009.88,-362 1009.88,-374 1009.88,-374 1009.88,-380 1003.88,-386 997.88,-386"/>
<text text-anchor="middle" x="982" y="-362.75" font-family="Arial" font-size="15.00">layers</text>
</g>
<!-- /lib/models/layers.dart&#45;&gt;/lib/models/layer.dart -->
<g id="edge35" class="edge">
<title>/lib/models/layers.dart&#45;&gt;/lib/models/layer.dart</title>
<path fill="none" stroke="#aabbaa" stroke-width="1.3" stroke-opacity="0.533333" d="M976.08,-349.7C975.34,-342.49 975.09,-333.93 975.34,-325.82"/>
<polygon fill="#aabbaa" fill-opacity="0.533333" stroke="#aabbaa" stroke-width="1.3" stroke-opacity="0.533333" points="978.82,-326.27 975.98,-316.07 971.84,-325.82 978.82,-326.27"/>
</g>
<!-- /lib/models/layers.dart&#45;&gt;/lib/models/layer.dart -->
<g id="edge36" class="edge">
<title>/lib/models/layers.dart&#45;&gt;/lib/models/layer.dart</title>
<path fill="none" stroke="#aabbaa" stroke-width="1.3" stroke-dasharray="5,2" stroke-opacity="0.533333" d="M987.92,-349.7C988.66,-342.49 988.91,-333.93 988.66,-325.82"/>
<polygon fill="#aabbaa" fill-opacity="0.533333" stroke="#aabbaa" stroke-width="1.3" stroke-opacity="0.533333" points="992.16,-325.82 988.02,-316.07 985.18,-326.27 992.16,-325.82"/>
</g>
<!-- /lib/helpers/list_helper.dart -->
<g id="node30" class="node">
<title>/lib/helpers/list_helper.dart</title>
<path fill="Lavender" stroke="black" stroke-width="1.3" d="M2914.75,-68C2914.75,-68 2855.25,-68 2855.25,-68 2849.25,-68 2843.25,-62 2843.25,-56 2843.25,-56 2843.25,-44 2843.25,-44 2843.25,-38 2849.25,-32 2855.25,-32 2855.25,-32 2914.75,-32 2914.75,-32 2920.75,-32 2926.75,-38 2926.75,-44 2926.75,-44 2926.75,-56 2926.75,-56 2926.75,-62 2920.75,-68 2914.75,-68"/>
<text text-anchor="middle" x="2885" y="-44.75" font-family="Arial" font-size="15.00">list_helper</text>
</g>
<!-- /lib/models/layers.dart&#45;&gt;/lib/helpers/list_helper.dart -->
<g id="edge34" class="edge">
<title>/lib/models/layers.dart&#45;&gt;/lib/helpers/list_helper.dart</title>
<path fill="none" stroke="#aabbaa" stroke-width="1.3" stroke-opacity="0.533333" d="M1010.17,-364.47C1050.46,-360.9 1126.85,-354.35 1192,-350 1377.29,-337.62 2691.79,-338.5 2861,-262 2912.55,-238.7 2928.64,-223.39 2950,-171 2962.58,-140.13 2965.47,-125.53 2950,-96 2945.75,-87.88 2939.29,-80.93 2932.06,-75.1"/>
<polygon fill="#aabbaa" fill-opacity="0.533333" stroke="#aabbaa" stroke-width="1.3" stroke-opacity="0.533333" points="2934.37,-72.45 2924.21,-69.45 2930.28,-78.13 2934.37,-72.45"/>
</g>
<!-- /lib/models/user_action.dart -->
<g id="node18" class="node">
<title>/lib/models/user_action.dart</title>
<path fill="Lavender" stroke="black" stroke-width="1.3" d="M1029.62,-231C1029.62,-231 960.38,-231 960.38,-231 954.38,-231 948.38,-225 948.38,-219 948.38,-219 948.38,-207 948.38,-207 948.38,-201 954.38,-195 960.38,-195 960.38,-195 1029.62,-195 1029.62,-195 1035.62,-195 1041.62,-201 1041.62,-207 1041.62,-207 1041.62,-219 1041.62,-219 1041.62,-225 1035.62,-231 1029.62,-231"/>
<text text-anchor="middle" x="995" y="-207.75" font-family="Arial" font-size="15.00">user_action</text>
</g>
<!-- /lib/widgets/brush_style_picker.dart -->
<g id="node39" class="node">
<title>/lib/widgets/brush_style_picker.dart</title>
<path fill="Lavender" stroke="black" stroke-width="1.3" d="M1904.25,-231C1904.25,-231 1787.75,-231 1787.75,-231 1781.75,-231 1775.75,-225 1775.75,-219 1775.75,-219 1775.75,-207 1775.75,-207 1775.75,-201 1781.75,-195 1787.75,-195 1787.75,-195 1904.25,-195 1904.25,-195 1910.25,-195 1916.25,-201 1916.25,-207 1916.25,-207 1916.25,-219 1916.25,-219 1916.25,-225 1910.25,-231 1904.25,-231"/>
<text text-anchor="middle" x="1846" y="-207.75" font-family="Arial" font-size="15.00">brush_style_picker</text>
</g>
<!-- /lib/models/user_action.dart&#45;&gt;/lib/widgets/brush_style_picker.dart -->
<g id="edge37" class="edge">
<title>/lib/models/user_action.dart&#45;&gt;/lib/widgets/brush_style_picker.dart</title>
<path fill="none" stroke="#aabbaa" stroke-width="1.3" stroke-opacity="0.533333" d="M1014.19,-231.47C1029.11,-244.25 1051.08,-259.8 1074,-264.67 1089.65,-267.99 1634.13,-266.72 1650,-264.67 1694.12,-258.95 1742.46,-246.28 1780.1,-234.92"/>
<polygon fill="#aabbaa" fill-opacity="0.533333" stroke="#aabbaa" stroke-width="1.3" stroke-opacity="0.533333" points="1781,-238.3 1789.54,-232.02 1778.95,-231.61 1781,-238.3"/>
</g>
<!-- /lib/models/user_action.dart&#45;&gt;/lib/widgets/brush_style_picker.dart -->
<g id="edge38" class="edge">
<title>/lib/models/user_action.dart&#45;&gt;/lib/widgets/brush_style_picker.dart</title>
<path fill="none" stroke="#aabbaa" stroke-width="1.3" stroke-dasharray="5,2" stroke-opacity="0.533333" d="M1014.41,-231.26C1030.53,-244.87 1054.82,-261.99 1080,-267.33 1095.33,-270.59 1628.47,-269.39 1644,-267.33 1690.86,-261.14 1742.28,-247.2 1781.52,-234.99"/>
<polygon fill="#aabbaa" fill-opacity="0.533333" stroke="#aabbaa" stroke-width="1.3" stroke-opacity="0.533333" points="1782.41,-238.38 1790.89,-232.03 1780.3,-231.71 1782.41,-238.38"/>
</g>
<!-- /lib/models/app_model.dart&#45;&gt;/lib/models/layers.dart -->
<g id="edge39" class="edge">
<title>/lib/models/app_model.dart&#45;&gt;/lib/models/layers.dart</title>
<path fill="none" stroke="#aabbaa" stroke-width="1.3" stroke-opacity="0.533333" d="M892.54,-231.46C899.77,-242.18 910.22,-256.4 918,-270 928.58,-288.49 926.75,-295.33 937,-314 941.93,-322.97 947.96,-332.34 954.09,-340.66"/>
<polygon fill="#aabbaa" fill-opacity="0.533333" stroke="#aabbaa" stroke-width="1.3" stroke-opacity="0.533333" points="951.14,-342.58 960.05,-348.31 956.66,-338.27 951.14,-342.58"/>
</g>
<!-- /lib/models/app_model.dart&#45;&gt;/lib/models/layers.dart -->
<g id="edge40" class="edge">
<title>/lib/models/app_model.dart&#45;&gt;/lib/models/layers.dart</title>
<path fill="none" stroke="#aabbaa" stroke-width="1.3" stroke-dasharray="5,2" stroke-opacity="0.533333" d="M908.19,-231.46C917.77,-242.18 928.22,-256.4 936,-270 946.58,-288.49 944.75,-295.33 955,-314 959.76,-322.68 965.57,-331.73 970.73,-339.84"/>
<polygon fill="#aabbaa" fill-opacity="0.533333" stroke="#aabbaa" stroke-width="1.3" stroke-opacity="0.533333" points="967.69,-341.58 975.97,-348.19 973.62,-337.86 967.69,-341.58"/>
</g>
<!-- /lib/models/layer.dart&#45;&gt;/lib/models/user_action.dart -->
<g id="edge43" class="edge">
<title>/lib/models/layer.dart&#45;&gt;/lib/models/user_action.dart</title>
<path fill="none" stroke="#aabbaa" stroke-width="1.3" stroke-dasharray="5,2" stroke-opacity="0.533333" d="M984.76,-277.82C986.38,-267.69 988.48,-254.6 990.36,-242.92"/>
<polygon fill="#aabbaa" fill-opacity="0.533333" stroke="#aabbaa" stroke-width="1.3" stroke-opacity="0.533333" points="993.76,-243.8 991.89,-233.38 986.85,-242.69 993.76,-243.8"/>
</g>
<!-- /lib/models/layer.dart&#45;&gt;/lib/models/app_model.dart -->
<g id="edge41" class="edge">
<title>/lib/models/layer.dart&#45;&gt;/lib/models/app_model.dart</title>
<path fill="none" stroke="#aabbaa" stroke-width="1.3" stroke-opacity="0.533333" d="M958.52,-277.53C952.11,-272.61 945.21,-267.18 939,-262 930.41,-254.84 921.3,-246.77 913.11,-239.32"/>
<polygon fill="#aabbaa" fill-opacity="0.533333" stroke="#aabbaa" stroke-width="1.3" stroke-opacity="0.533333" points="915.5,-236.77 905.76,-232.59 910.77,-241.93 915.5,-236.77"/>
</g>
<!-- /lib/models/layer.dart&#45;&gt;/lib/widgets/transparent_background.dart -->
<g id="edge42" class="edge">
<title>/lib/models/layer.dart&#45;&gt;/lib/widgets/transparent_background.dart</title>
<path fill="none" stroke="#aabbaa" stroke-width="1.3" stroke-opacity="0.533333" d="M1000.73,-277.62C1004.57,-274.72 1008.75,-272.02 1013,-270 1028.59,-262.6 1038.83,-274.24 1051,-262 1077.55,-235.3 1039.68,-203.81 1068,-179 1119.18,-134.16 1560.12,-125.16 1763.28,-123.4"/>
<polygon fill="#aabbaa" fill-opacity="0.533333" stroke="#aabbaa" stroke-width="1.3" stroke-opacity="0.533333" points="1763.19,-126.9 1773.16,-123.32 1763.13,-119.9 1763.19,-126.9"/>
</g>
<!-- /lib/main.dart&#45;&gt;/lib/models/app_model.dart -->
<g id="edge45" class="edge">
<title>/lib/main.dart&#45;&gt;/lib/models/app_model.dart</title>
<path fill="none" stroke="#aabbaa" stroke-width="1.3" stroke-opacity="0.533333" d="M1071.55,-588.95C921.66,-588.02 204.01,-575.27 70,-417 27.78,-367.14 25.41,-317.75 70,-270 121.6,-214.73 652.22,-212.67 829.03,-213.53"/>
<polygon fill="#aabbaa" fill-opacity="0.533333" stroke="#aabbaa" stroke-width="1.3" stroke-opacity="0.533333" points="828.9,-217.03 838.92,-213.59 828.94,-210.03 828.9,-217.03"/>
</g>
<!-- /lib/main_screen.dart -->
<g id="node29" class="node">
<title>/lib/main_screen.dart</title>
<path fill="Lavender" stroke="black" stroke-width="1.3" d="M1137.75,-536C1137.75,-536 1060.25,-536 1060.25,-536 1054.25,-536 1048.25,-530 1048.25,-524 1048.25,-524 1048.25,-512 1048.25,-512 1048.25,-506 1054.25,-500 1060.25,-500 1060.25,-500 1137.75,-500 1137.75,-500 1143.75,-500 1149.75,-506 1149.75,-512 1149.75,-512 1149.75,-524 1149.75,-524 1149.75,-530 1143.75,-536 1137.75,-536"/>
<text text-anchor="middle" x="1099" y="-512.75" font-family="Arial" font-size="15.00">main_screen</text>
</g>
<!-- /lib/main.dart&#45;&gt;/lib/main_screen.dart -->
<g id="edge44" class="edge">
<title>/lib/main.dart&#45;&gt;/lib/main_screen.dart</title>
<path fill="none" stroke="#aabbaa" stroke-width="1.3" stroke-opacity="0.533333" d="M1099,-571.7C1099,-564.49 1099,-555.93 1099,-547.82"/>
<polygon fill="#aabbaa" fill-opacity="0.533333" stroke="#aabbaa" stroke-width="1.3" stroke-opacity="0.533333" points="1102.5,-548.07 1099,-538.07 1095.5,-548.07 1102.5,-548.07"/>
</g>
<!-- /lib/files/xcf_reader.dart&#45;&gt;/lib/helpers/list_helper.dart -->
<g id="edge46" class="edge">
<title>/lib/files/xcf_reader.dart&#45;&gt;/lib/helpers/list_helper.dart</title>
<path fill="none" stroke="#aabbaa" stroke-width="1.3" stroke-opacity="0.533333" d="M171.98,-349.61C273.73,-298.57 586.21,-149.49 865,-96 1062.71,-58.07 2530.23,-51.98 2831.17,-51.13"/>
<polygon fill="#aabbaa" fill-opacity="0.533333" stroke="#aabbaa" stroke-width="1.3" stroke-opacity="0.533333" points="2831.04,-54.63 2841.03,-51.1 2831.02,-47.63 2831.04,-54.63"/>
</g>
<!-- /lib/files/file_jpeg.dart -->
<g id="node24" class="node">
<title>/lib/files/file_jpeg.dart</title>
<path fill="Lavender" stroke="black" stroke-width="1.3" d="M758.38,-314C758.38,-314 711.62,-314 711.62,-314 705.62,-314 699.62,-308 699.62,-302 699.62,-302 699.62,-290 699.62,-290 699.62,-284 705.62,-278 711.62,-278 711.62,-278 758.38,-278 758.38,-278 764.38,-278 770.38,-284 770.38,-290 770.38,-290 770.38,-302 770.38,-302 770.38,-308 764.38,-314 758.38,-314"/>
<text text-anchor="middle" x="735" y="-290.75" font-family="Arial" font-size="15.00">file_jpeg</text>
</g>
<!-- /lib/files/export_download_web.dart -->
<g id="node25" class="node">
<title>/lib/files/export_download_web.dart</title>
<path fill="Lavender" stroke="black" stroke-width="1.3" d="M805.25,-386C805.25,-386 664.75,-386 664.75,-386 658.75,-386 652.75,-380 652.75,-374 652.75,-374 652.75,-362 652.75,-362 652.75,-356 658.75,-350 664.75,-350 664.75,-350 805.25,-350 805.25,-350 811.25,-350 817.25,-356 817.25,-362 817.25,-362 817.25,-374 817.25,-374 817.25,-380 811.25,-386 805.25,-386"/>
<text text-anchor="middle" x="735" y="-362.75" font-family="Arial" font-size="15.00">export_download_web</text>
</g>
<!-- /lib/files/export_download_web.dart&#45;&gt;/lib/panels/share_panel.dart -->
<g id="edge50" class="edge">
<title>/lib/files/export_download_web.dart&#45;&gt;/lib/panels/share_panel.dart</title>
<path fill="none" stroke="#aabbaa" stroke-width="1.3" stroke-opacity="0.533333" d="M817.52,-351.98C821.4,-351.3 825.24,-350.64 829,-350 928.83,-332.99 954.39,-332.28 1054,-314 1060.86,-312.74 1068.03,-311.36 1075.15,-309.94"/>
<polygon fill="#aabbaa" fill-opacity="0.533333" stroke="#aabbaa" stroke-width="1.3" stroke-opacity="0.533333" points="1075.6,-313.42 1084.71,-308 1074.22,-306.56 1075.6,-313.42"/>
</g>
<!-- /lib/files/export_download_web.dart&#45;&gt;/lib/models/app_model.dart -->
<g id="edge49" class="edge">
<title>/lib/files/export_download_web.dart&#45;&gt;/lib/models/app_model.dart</title>
<path fill="none" stroke="#aabbaa" stroke-width="1.3" stroke-opacity="0.533333" d="M801.87,-349.58C821.6,-341.57 841.71,-330.14 856,-314 873.38,-294.37 880.69,-265.01 883.77,-243.17"/>
<polygon fill="#aabbaa" fill-opacity="0.533333" stroke="#aabbaa" stroke-width="1.3" stroke-opacity="0.533333" points="887.25,-243.61 884.91,-233.27 880.29,-242.8 887.25,-243.61"/>
</g>
<!-- /lib/files/export_download_web.dart&#45;&gt;/lib/files/file_jpeg.dart -->
<g id="edge47" class="edge">
<title>/lib/files/export_download_web.dart&#45;&gt;/lib/files/file_jpeg.dart</title>
<path fill="none" stroke="#aabbaa" stroke-width="1.3" stroke-opacity="0.533333" d="M735,-349.7C735,-342.49 735,-333.93 735,-325.82"/>
<polygon fill="#aabbaa" fill-opacity="0.533333" stroke="#aabbaa" stroke-width="1.3" stroke-opacity="0.533333" points="738.5,-326.07 735,-316.07 731.5,-326.07 738.5,-326.07"/>
</g>
<!-- /lib/files/file_ora.dart -->
<g id="node26" class="node">
<title>/lib/files/file_ora.dart</title>
<path fill="Lavender" stroke="black" stroke-width="1.3" d="M669.38,-314C669.38,-314 628.62,-314 628.62,-314 622.62,-314 616.62,-308 616.62,-302 616.62,-302 616.62,-290 616.62,-290 616.62,-284 622.62,-278 628.62,-278 628.62,-278 669.38,-278 669.38,-278 675.38,-278 681.38,-284 681.38,-290 681.38,-290 681.38,-302 681.38,-302 681.38,-308 675.38,-314 669.38,-314"/>
<text text-anchor="middle" x="649" y="-290.75" font-family="Arial" font-size="15.00">file_ora</text>
</g>
<!-- /lib/files/export_download_web.dart&#45;&gt;/lib/files/file_ora.dart -->
<g id="edge48" class="edge">
<title>/lib/files/export_download_web.dart&#45;&gt;/lib/files/file_ora.dart</title>
<path fill="none" stroke="#aabbaa" stroke-width="1.3" stroke-opacity="0.533333" d="M713.74,-349.7C703.4,-341.28 690.79,-331.02 679.46,-321.79"/>
<polygon fill="#aabbaa" fill-opacity="0.533333" stroke="#aabbaa" stroke-width="1.3" stroke-opacity="0.533333" points="681.8,-319.19 671.84,-315.59 677.38,-324.62 681.8,-319.19"/>
</g>
<!-- /lib/files/file_ora.dart&#45;&gt;/lib/models/app_model.dart -->
<g id="edge52" class="edge">
<title>/lib/files/file_ora.dart&#45;&gt;/lib/models/app_model.dart</title>
<path fill="none" stroke="#aabbaa" stroke-width="1.3" stroke-opacity="0.533333" d="M674.91,-277.55C680.07,-274.67 685.58,-271.98 691,-270 711.73,-262.45 718.56,-267.24 740,-262 770.05,-254.65 802.83,-244.12 829.7,-234.79"/>
<polygon fill="#aabbaa" fill-opacity="0.533333" stroke="#aabbaa" stroke-width="1.3" stroke-opacity="0.533333" points="830.7,-238.14 838.97,-231.53 828.37,-231.54 830.7,-238.14"/>
</g>
<!-- /lib/files/file_ora.dart&#45;&gt;/lib/helpers/list_helper.dart -->
<g id="edge51" class="edge">
<title>/lib/files/file_ora.dart&#45;&gt;/lib/helpers/list_helper.dart</title>
<path fill="none" stroke="#aabbaa" stroke-width="1.3" stroke-opacity="0.533333" d="M668.61,-277.69C699.97,-251.14 764.47,-201.14 829,-179 1215.02,-46.57 2546.79,-48.53 2831.27,-50.52"/>
<polygon fill="#aabbaa" fill-opacity="0.533333" stroke="#aabbaa" stroke-width="1.3" stroke-opacity="0.533333" points="2830.88,-54.01 2840.9,-50.59 2830.93,-47.01 2830.88,-54.01"/>
</g>
<!-- /lib/files/export_download_non_web.dart -->
<g id="node27" class="node">
<title>/lib/files/export_download_non_web.dart</title>
<path fill="Lavender" stroke="black" stroke-width="1.3" d="M622.75,-386C622.75,-386 449.25,-386 449.25,-386 443.25,-386 437.25,-380 437.25,-374 437.25,-374 437.25,-362 437.25,-362 437.25,-356 443.25,-350 449.25,-350 449.25,-350 622.75,-350 622.75,-350 628.75,-350 634.75,-356 634.75,-362 634.75,-362 634.75,-374 634.75,-374 634.75,-380 628.75,-386 622.75,-386"/>
<text text-anchor="middle" x="536" y="-362.75" font-family="Arial" font-size="15.00">export_download_non_web</text>
</g>
<!-- /lib/files/export_download_non_web.dart&#45;&gt;/lib/panels/share_panel.dart -->
<g id="edge56" class="edge">
<title>/lib/files/export_download_non_web.dart&#45;&gt;/lib/panels/share_panel.dart</title>
<path fill="none" stroke="#aabbaa" stroke-width="1.3" stroke-opacity="0.533333" d="M635.13,-351.13C638.12,-350.73 641.08,-350.36 644,-350 825.57,-327.77 873.02,-340.61 1054,-314 1060.9,-312.99 1068.1,-311.75 1075.23,-310.42"/>
<polygon fill="#aabbaa" fill-opacity="0.533333" stroke="#aabbaa" stroke-width="1.3" stroke-opacity="0.533333" points="1075.65,-313.91 1084.8,-308.56 1074.32,-307.03 1075.65,-313.91"/>
</g>
<!-- /lib/files/export_download_non_web.dart&#45;&gt;/lib/models/app_model.dart -->
<g id="edge55" class="edge">
<title>/lib/files/export_download_non_web.dart&#45;&gt;/lib/models/app_model.dart</title>
<path fill="none" stroke="#aabbaa" stroke-width="1.3" stroke-opacity="0.533333" d="M634.92,-350.58C714.38,-337.1 814.03,-319.37 822,-314 835.69,-304.79 857.29,-267.98 871.55,-241.7"/>
<polygon fill="#aabbaa" fill-opacity="0.533333" stroke="#aabbaa" stroke-width="1.3" stroke-opacity="0.533333" points="874.62,-243.39 876.24,-232.92 868.44,-240.09 874.62,-243.39"/>
</g>
<!-- /lib/files/export_download_non_web.dart&#45;&gt;/lib/files/file_jpeg.dart -->
<g id="edge53" class="edge">
<title>/lib/files/export_download_non_web.dart&#45;&gt;/lib/files/file_jpeg.dart</title>
<path fill="none" stroke="#aabbaa" stroke-width="1.3" stroke-opacity="0.533333" d="M587.82,-349.59C615.18,-340.31 649.56,-328.48 688.17,-314.61"/>
<polygon fill="#aabbaa" fill-opacity="0.533333" stroke="#aabbaa" stroke-width="1.3" stroke-opacity="0.533333" points="689.1,-318 697.32,-311.31 686.73,-311.41 689.1,-318"/>
</g>
<!-- /lib/files/export_download_non_web.dart&#45;&gt;/lib/files/file_ora.dart -->
<g id="edge54" class="edge">
<title>/lib/files/export_download_non_web.dart&#45;&gt;/lib/files/file_ora.dart</title>
<path fill="none" stroke="#aabbaa" stroke-width="1.3" stroke-opacity="0.533333" d="M564.22,-349.52C578.49,-340.68 595.99,-329.84 611.38,-320.3"/>
<polygon fill="#aabbaa" fill-opacity="0.533333" stroke="#aabbaa" stroke-width="1.3" stroke-opacity="0.533333" points="612.81,-323.54 619.46,-315.3 609.12,-317.59 612.81,-323.54"/>
</g>
<!-- /lib/files/import_files.dart&#45;&gt;/lib/models/app_model.dart -->
<g id="edge58" class="edge">
<title>/lib/files/import_files.dart&#45;&gt;/lib/models/app_model.dart</title>
<path fill="none" stroke="#aabbaa" stroke-width="1.3" stroke-opacity="0.533333" d="M419.64,-351.9C422.46,-351.2 425.26,-350.56 428,-350 581.66,-318.69 637.76,-382.15 779,-314 803.63,-302.12 802.14,-288.79 822,-270 833.06,-259.53 845.59,-248.41 856.62,-238.86"/>
<polygon fill="#aabbaa" fill-opacity="0.533333" stroke="#aabbaa" stroke-width="1.3" stroke-opacity="0.533333" points="858.67,-241.72 863.97,-232.54 854.11,-236.41 858.67,-241.72"/>
</g>
<!-- /lib/files/import_files.dart&#45;&gt;/lib/files/file_ora.dart -->
<g id="edge57" class="edge">
<title>/lib/files/import_files.dart&#45;&gt;/lib/files/file_ora.dart</title>
<path fill="none" stroke="#aabbaa" stroke-width="1.3" stroke-opacity="0.533333" d="M419.75,-352.33C422.53,-351.52 425.3,-350.74 428,-350 488.82,-333.33 559.85,-316.81 604.63,-306.76"/>
<polygon fill="#aabbaa" fill-opacity="0.533333" stroke="#aabbaa" stroke-width="1.3" stroke-opacity="0.533333" points="605.34,-310.19 614.33,-304.59 603.81,-303.35 605.34,-310.19"/>
</g>
<!-- /lib/main_screen.dart&#45;&gt;/lib/panels/tools/flood_fill.dart -->
<g id="edge61" class="edge">
<title>/lib/main_screen.dart&#45;&gt;/lib/panels/tools/flood_fill.dart</title>
<path fill="none" stroke="#aabbaa" stroke-width="1.3" stroke-opacity="0.533333" d="M1150.03,-515.49C1234.24,-512.64 1398.59,-505.53 1455,-492 1538.08,-472.07 1562.21,-466.28 1632,-417 1640.53,-410.97 1648.64,-403.04 1655.52,-395.37"/>
<polygon fill="#aabbaa" fill-opacity="0.533333" stroke="#aabbaa" stroke-width="1.3" stroke-opacity="0.533333" points="1658.16,-397.66 1661.97,-387.78 1652.82,-393.13 1658.16,-397.66"/>
</g>
<!-- /lib/main_screen.dart&#45;&gt;/lib/panels/canvas_panel.dart -->
<g id="edge59" class="edge">
<title>/lib/main_screen.dart&#45;&gt;/lib/panels/canvas_panel.dart</title>
<path fill="none" stroke="#aabbaa" stroke-width="1.3" stroke-opacity="0.533333" d="M1092.26,-499.7C1077.2,-458.2 1044.65,-350.52 1078,-270 1082.82,-258.35 1091.38,-247.86 1100.37,-239.2"/>
<polygon fill="#aabbaa" fill-opacity="0.533333" stroke="#aabbaa" stroke-width="1.3" stroke-opacity="0.533333" points="1102.43,-242.06 1107.55,-232.78 1097.76,-236.84 1102.43,-242.06"/>
</g>
<!-- /lib/main_screen.dart&#45;&gt;/lib/panels/side_panel.dart -->
<g id="edge60" class="edge">
<title>/lib/main_screen.dart&#45;&gt;/lib/panels/side_panel.dart</title>
<path fill="none" stroke="#aabbaa" stroke-width="1.3" stroke-opacity="0.533333" d="M1149.61,-499.54C1154.27,-497.26 1158.81,-494.74 1163,-492 1172.32,-485.91 1181.29,-477.78 1188.91,-469.94"/>
<polygon fill="#aabbaa" fill-opacity="0.533333" stroke="#aabbaa" stroke-width="1.3" stroke-opacity="0.533333" points="1191.31,-472.5 1195.54,-462.79 1186.18,-467.74 1191.31,-472.5"/>
</g>
<!-- /lib/main_screen.dart&#45;&gt;/lib/models/app_model.dart -->
<g id="edge62" class="edge">
<title>/lib/main_screen.dart&#45;&gt;/lib/models/app_model.dart</title>
<path fill="none" stroke="#aabbaa" stroke-width="1.3" stroke-opacity="0.533333" d="M1056.32,-499.51C1021.48,-483.12 973.51,-455.39 945,-417 905.63,-364 892.46,-285.25 888.1,-243.11"/>
<polygon fill="#aabbaa" fill-opacity="0.533333" stroke="#aabbaa" stroke-width="1.3" stroke-opacity="0.533333" points="891.6,-242.87 887.2,-233.23 884.63,-243.51 891.6,-242.87"/>
</g>
<!-- /lib/helpers/color_helper.dart&#45;&gt;/lib/helpers/list_helper.dart -->
<g id="edge63" class="edge">
<title>/lib/helpers/color_helper.dart&#45;&gt;/lib/helpers/list_helper.dart</title>
<path fill="none" stroke="#aabbaa" stroke-width="1.3" stroke-opacity="0.533333" d="M2890.27,-103.7C2889.55,-96.49 2888.69,-87.93 2887.88,-79.82"/>
<polygon fill="#aabbaa" fill-opacity="0.533333" stroke="#aabbaa" stroke-width="1.3" stroke-opacity="0.533333" points="2891.38,-79.66 2886.91,-70.06 2884.42,-80.36 2891.38,-79.66"/>
</g>
<!-- /lib/widgets/brush_style_picker.dart&#45;&gt;/lib/models/app_model.dart -->
<g id="edge64" class="edge">
<title>/lib/widgets/brush_style_picker.dart&#45;&gt;/lib/models/app_model.dart</title>
<path fill="none" stroke="#aabbaa" stroke-width="1.3" stroke-opacity="0.533333" d="M1792.29,-231.38C1752.67,-243.93 1697.16,-259.43 1647,-266 1627.75,-268.52 966.99,-270.03 948,-266 931.93,-262.59 917.7,-251.39 906.93,-240.16"/>
<polygon fill="#aabbaa" fill-opacity="0.533333" stroke="#aabbaa" stroke-width="1.3" stroke-opacity="0.533333" points="909.63,-237.93 900.38,-232.77 904.39,-242.57 909.63,-237.93"/>
</g>
<!-- /lib/widgets/color_picker.dart&#45;&gt;/lib/helpers/list_helper.dart -->
<g id="edge66" class="edge">
<title>/lib/widgets/color_picker.dart&#45;&gt;/lib/helpers/list_helper.dart</title>
<path fill="none" stroke="#aabbaa" stroke-width="1.3" stroke-opacity="0.533333" d="M2778.08,-194.74C2788.28,-171.03 2808.73,-127.73 2834,-96 2839.56,-89.02 2846.29,-82.23 2853.01,-76.14"/>
<polygon fill="#aabbaa" fill-opacity="0.533333" stroke="#aabbaa" stroke-width="1.3" stroke-opacity="0.533333" points="2855.3,-78.78 2860.57,-69.59 2850.72,-73.49 2855.3,-78.78"/>
</g>
<!-- /lib/widgets/color_picker.dart&#45;&gt;/lib/helpers/color_helper.dart -->
<g id="edge65" class="edge">
<title>/lib/widgets/color_picker.dart&#45;&gt;/lib/helpers/color_helper.dart</title>
<path fill="none" stroke="#aabbaa" stroke-width="1.3" stroke-opacity="0.533333" d="M2797.26,-194.62C2807.85,-187.46 2820.12,-178.99 2831,-171 2841.02,-163.65 2851.74,-155.36 2861.36,-147.77"/>
<polygon fill="#aabbaa" fill-opacity="0.533333" stroke="#aabbaa" stroke-width="1.3" stroke-opacity="0.533333" points="2863.35,-150.65 2868.99,-141.69 2858.99,-145.18 2863.35,-150.65"/>
</g>
<!-- /lib/widgets/color_picker.dart&#45;&gt;/lib/widgets/transparent_background.dart -->
<g id="edge67" class="edge">
<title>/lib/widgets/color_picker.dart&#45;&gt;/lib/widgets/transparent_background.dart</title>
<path fill="none" stroke="#aabbaa" stroke-width="1.3" stroke-opacity="0.533333" d="M2746.61,-194.57C2736.92,-188.56 2725.38,-182.46 2714,-179 2577.05,-137.34 2160.82,-126.66 1966.7,-123.93"/>
<polygon fill="#aabbaa" fill-opacity="0.533333" stroke="#aabbaa" stroke-width="1.3" stroke-opacity="0.533333" points="1966.82,-120.43 1956.77,-123.8 1966.72,-127.43 1966.82,-120.43"/>
</g>
</g>
</svg>
