<?xml version="1.0" encoding="UTF-8" standalone="no"?>
<!DOCTYPE svg PUBLIC "-//W3C//DTD SVG 1.1//EN"
 "http://www.w3.org/Graphics/SVG/1.1/DTD/svg11.dtd">
<!-- Generated by graphviz version 12.2.1 (20241206.2353)
 -->
<!-- Pages: 1 -->
<svg width="1272pt" height="833pt"
 viewBox="0.00 0.00 1272.00 833.00" xmlns="http://www.w3.org/2000/svg" xmlns:xlink="http://www.w3.org/1999/xlink">
<g id="graph0" class="graph" transform="scale(1 1) rotate(0) translate(4 829)">
<polygon fill="white" stroke="none" points="-4,4 -4,-829 1268,-829 1268,4 -4,4"/>
<g id="clust1" class="cluster">
<title>cluster~</title>
<path fill="none" stroke="lightgray" stroke-width="2.6" d="M20,-8C20,-8 1244,-8 1244,-8 1250,-8 1256,-14 1256,-20 1256,-20 1256,-805 1256,-805 1256,-811 1250,-817 1244,-817 1244,-817 20,-817 20,-817 14,-817 8,-811 8,-805 8,-805 8,-20 8,-20 8,-14 14,-8 20,-8"/>
<text text-anchor="middle" x="632" y="-800.65" font-family="Arial Black" font-size="13.00">fpaint</text>
</g>
<g id="clust2" class="cluster">
<title>cluster~/test</title>
<path fill="none" stroke="lightgray" stroke-width="2.6" d="M28,-711C28,-711 260,-711 260,-711 266,-711 272,-717 272,-723 272,-723 272,-774 272,-774 272,-780 266,-786 260,-786 260,-786 28,-786 28,-786 22,-786 16,-780 16,-774 16,-774 16,-723 16,-723 16,-717 22,-711 28,-711"/>
<text text-anchor="middle" x="144" y="-769.65" font-family="Arial Black" font-size="13.00">test</text>
</g>
<g id="clust3" class="cluster">
<title>cluster~/lib</title>
<path fill="none" stroke="lightgray" stroke-width="2.6" d="M28,-16C28,-16 1236,-16 1236,-16 1242,-16 1248,-22 1248,-28 1248,-28 1248,-691 1248,-691 1248,-697 1242,-703 1236,-703 1236,-703 28,-703 28,-703 22,-703 16,-697 16,-691 16,-691 16,-28 16,-28 16,-22 22,-16 28,-16"/>
<text text-anchor="middle" x="632" y="-686.65" font-family="Arial Black" font-size="13.00">lib</text>
</g>
<g id="clust4" class="cluster">
<title>cluster~/lib/panels</title>
<path fill="none" stroke="lightgray" stroke-width="2.6" d="M880,-262C880,-262 1216,-262 1216,-262 1222,-262 1228,-268 1228,-274 1228,-274 1228,-544 1228,-544 1228,-550 1222,-556 1216,-556 1216,-556 880,-556 880,-556 874,-556 868,-550 868,-544 868,-544 868,-274 868,-274 868,-268 874,-262 880,-262"/>
<text text-anchor="middle" x="1048" y="-539.65" font-family="Arial Black" font-size="13.00">panels</text>
</g>
<g id="clust5" class="cluster">
<title>cluster~/lib/models</title>
<path fill="none" stroke="lightgray" stroke-width="2.6" d="M48,-262C48,-262 241,-262 241,-262 247,-262 253,-268 253,-274 253,-274 253,-469 253,-469 253,-475 247,-481 241,-481 241,-481 48,-481 48,-481 42,-481 36,-475 36,-469 36,-469 36,-274 36,-274 36,-268 42,-262 48,-262"/>
<text text-anchor="middle" x="144.5" y="-464.65" font-family="Arial Black" font-size="13.00">models</text>
</g>
<g id="clust6" class="cluster">
<title>cluster~/lib/files</title>
<path fill="none" stroke="lightgray" stroke-width="2.6" d="M273,-334C273,-334 756,-334 756,-334 762,-334 768,-340 768,-346 768,-346 768,-469 768,-469 768,-475 762,-481 756,-481 756,-481 273,-481 273,-481 267,-481 261,-475 261,-469 261,-469 261,-346 261,-346 261,-340 267,-334 273,-334"/>
<text text-anchor="middle" x="514.5" y="-464.65" font-family="Arial Black" font-size="13.00">files</text>
</g>
<g id="clust7" class="cluster">
<title>cluster~/lib/helpers</title>
<path fill="none" stroke="lightgray" stroke-width="2.6" d="M453,-24C453,-24 543,-24 543,-24 549,-24 555,-30 555,-36 555,-36 555,-159 555,-159 555,-165 549,-171 543,-171 543,-171 453,-171 453,-171 447,-171 441,-165 441,-159 441,-159 441,-36 441,-36 441,-30 447,-24 453,-24"/>
<text text-anchor="middle" x="498" y="-154.65" font-family="Arial Black" font-size="13.00">helpers</text>
</g>
<g id="clust8" class="cluster">
<title>cluster~/lib/widgets</title>
<path fill="none" stroke="lightgray" stroke-width="2.6" d="M288,-179C288,-179 1014,-179 1014,-179 1020,-179 1026,-185 1026,-191 1026,-191 1026,-242 1026,-242 1026,-248 1020,-254 1014,-254 1014,-254 288,-254 288,-254 282,-254 276,-248 276,-242 276,-242 276,-191 276,-191 276,-185 282,-179 288,-179"/>
<text text-anchor="middle" x="651" y="-237.65" font-family="Arial Black" font-size="13.00">widgets</text>
</g>
<!-- /test/paint_model_test.dart -->
<g id="node1" class="node">
<title>/test/paint_model_test.dart</title>
<path fill="Lavender" stroke="black" stroke-width="1.3" d="M142,-755C142,-755 36,-755 36,-755 30,-755 24,-749 24,-743 24,-743 24,-731 24,-731 24,-725 30,-719 36,-719 36,-719 142,-719 142,-719 148,-719 154,-725 154,-731 154,-731 154,-743 154,-743 154,-749 148,-755 142,-755"/>
<text text-anchor="middle" x="89" y="-731.75" font-family="Arial" font-size="15.00">paint_model_test</text>
</g>
<!-- /lib/models/app_model.dart -->
<g id="node12" class="node">
<title>/lib/models/app_model.dart</title>
<path fill="Lavender" stroke="black" stroke-width="1.3" d="M232.75,-306C232.75,-306 167.25,-306 167.25,-306 161.25,-306 155.25,-300 155.25,-294 155.25,-294 155.25,-282 155.25,-282 155.25,-276 161.25,-270 167.25,-270 167.25,-270 232.75,-270 232.75,-270 238.75,-270 244.75,-276 244.75,-282 244.75,-282 244.75,-294 244.75,-294 244.75,-300 238.75,-306 232.75,-306"/>
<text text-anchor="middle" x="200" y="-282.75" font-family="Arial" font-size="15.00">app_model</text>
</g>
<!-- /test/paint_model_test.dart&#45;&gt;/lib/models/app_model.dart -->
<g id="edge1" class="edge">
<title>/test/paint_model_test.dart&#45;&gt;/lib/models/app_model.dart</title>
<path fill="none" stroke="#aabbaa" stroke-width="1.3" stroke-opacity="0.533333" d="M64.66,-718.66C59.99,-714.13 55.72,-708.84 53,-703 30.49,-654.6 48,-636.38 48,-583 48,-583 48,-583 48,-431 48,-387.83 26.32,-367.93 53,-334 77.79,-302.48 101.28,-316.16 143.46,-306.6"/>
<polygon fill="#aabbaa" fill-opacity="0.533333" stroke="#aabbaa" stroke-width="1.3" stroke-opacity="0.533333" points="144.26,-310.01 153.01,-304.04 142.45,-303.25 144.26,-310.01"/>
</g>
<!-- /test/widget_test.dart -->
<g id="node2" class="node">
<title>/test/widget_test.dart</title>
<path fill="Lavender" stroke="black" stroke-width="1.3" d="M251.88,-755C251.88,-755 184.12,-755 184.12,-755 178.12,-755 172.12,-749 172.12,-743 172.12,-743 172.12,-731 172.12,-731 172.12,-725 178.12,-719 184.12,-719 184.12,-719 251.88,-719 251.88,-719 257.88,-719 263.88,-725 263.88,-731 263.88,-731 263.88,-743 263.88,-743 263.88,-749 257.88,-755 251.88,-755"/>
<text text-anchor="middle" x="218" y="-731.75" font-family="Arial" font-size="15.00">widget_test</text>
</g>
<!-- /lib/main.dart -->
<g id="node14" class="node">
<title>/lib/main.dart</title>
<path fill="Lavender" stroke="black" stroke-width="1.3" d="M233,-672C233,-672 203,-672 203,-672 197,-672 191,-666 191,-660 191,-660 191,-648 191,-648 191,-642 197,-636 203,-636 203,-636 233,-636 233,-636 239,-636 245,-642 245,-648 245,-648 245,-660 245,-660 245,-666 239,-672 233,-672"/>
<text text-anchor="middle" x="218" y="-648.75" font-family="Arial" font-size="15.00">main</text>
</g>
<!-- /test/widget_test.dart&#45;&gt;/lib/main.dart -->
<g id="edge2" class="edge">
<title>/test/widget_test.dart&#45;&gt;/lib/main.dart</title>
<path fill="none" stroke="#aabbaa" stroke-width="1.3" stroke-opacity="0.533333" d="M218,-718.82C218,-708.8 218,-695.88 218,-684.29"/>
<polygon fill="#aabbaa" fill-opacity="0.533333" stroke="#aabbaa" stroke-width="1.3" stroke-opacity="0.533333" points="221.5,-684.4 218,-674.4 214.5,-684.4 221.5,-684.4"/>
</g>
<!-- /lib/panels/tool_selector.dart -->
<g id="node3" class="node">
<title>/lib/panels/tool_selector.dart</title>
<path fill="Lavender" stroke="black" stroke-width="1.3" d="M1080.38,-378C1080.38,-378 1003.62,-378 1003.62,-378 997.62,-378 991.62,-372 991.62,-366 991.62,-366 991.62,-354 991.62,-354 991.62,-348 997.62,-342 1003.62,-342 1003.62,-342 1080.38,-342 1080.38,-342 1086.38,-342 1092.38,-348 1092.38,-354 1092.38,-354 1092.38,-366 1092.38,-366 1092.38,-372 1086.38,-378 1080.38,-378"/>
<text text-anchor="middle" x="1042" y="-354.75" font-family="Arial" font-size="15.00">tool_selector</text>
</g>
<!-- /lib/panels/canvas_panel.dart -->
<g id="node4" class="node">
<title>/lib/panels/canvas_panel.dart</title>
<path fill="Lavender" stroke="black" stroke-width="1.3" d="M971.75,-306C971.75,-306 888.25,-306 888.25,-306 882.25,-306 876.25,-300 876.25,-294 876.25,-294 876.25,-282 876.25,-282 876.25,-276 882.25,-270 888.25,-270 888.25,-270 971.75,-270 971.75,-270 977.75,-270 983.75,-276 983.75,-282 983.75,-282 983.75,-294 983.75,-294 983.75,-300 977.75,-306 971.75,-306"/>
<text text-anchor="middle" x="930" y="-282.75" font-family="Arial" font-size="15.00">canvas_panel</text>
</g>
<!-- /lib/panels/canvas_panel.dart&#45;&gt;/lib/models/app_model.dart -->
<g id="edge3" class="edge">
<title>/lib/panels/canvas_panel.dart&#45;&gt;/lib/models/app_model.dart</title>
<path fill="none" stroke="#aabbaa" stroke-width="1.3" stroke-opacity="0.533333" d="M875.81,-288C669.41,-288 463.01,-288 256.62,-288"/>
<polygon fill="#aabbaa" fill-opacity="0.533333" stroke="#aabbaa" stroke-width="1.3" stroke-opacity="0.533333" points="256.88,-284.5 246.88,-288 256.88,-291.5 256.88,-284.5"/>
</g>
<!-- /lib/widgets/transparent_background.dart -->
<g id="node24" class="node">
<title>/lib/widgets/transparent_background.dart</title>
<path fill="Lavender" stroke="black" stroke-width="1.3" d="M1006.38,-223C1006.38,-223 851.62,-223 851.62,-223 845.62,-223 839.62,-217 839.62,-211 839.62,-211 839.62,-199 839.62,-199 839.62,-193 845.62,-187 851.62,-187 851.62,-187 1006.38,-187 1006.38,-187 1012.38,-187 1018.38,-193 1018.38,-199 1018.38,-199 1018.38,-211 1018.38,-211 1018.38,-217 1012.38,-223 1006.38,-223"/>
<text text-anchor="middle" x="929" y="-199.75" font-family="Arial" font-size="15.00">transparent_background</text>
</g>
<!-- /lib/panels/canvas_panel.dart&#45;&gt;/lib/widgets/transparent_background.dart -->
<g id="edge4" class="edge">
<title>/lib/panels/canvas_panel.dart&#45;&gt;/lib/widgets/transparent_background.dart</title>
<path fill="none" stroke="#aabbaa" stroke-width="1.3" stroke-opacity="0.533333" d="M929.79,-269.82C929.66,-259.8 929.5,-246.88 929.36,-235.29"/>
<polygon fill="#aabbaa" fill-opacity="0.533333" stroke="#aabbaa" stroke-width="1.3" stroke-opacity="0.533333" points="932.86,-235.36 929.24,-225.4 925.86,-235.44 932.86,-235.36"/>
</g>
<!-- /lib/panels/layer_selector.dart -->
<g id="node5" class="node">
<title>/lib/panels/layer_selector.dart</title>
<path fill="Lavender" stroke="black" stroke-width="1.3" d="M1207.5,-378C1207.5,-378 1122.5,-378 1122.5,-378 1116.5,-378 1110.5,-372 1110.5,-366 1110.5,-366 1110.5,-354 1110.5,-354 1110.5,-348 1116.5,-342 1122.5,-342 1122.5,-342 1207.5,-342 1207.5,-342 1213.5,-342 1219.5,-348 1219.5,-354 1219.5,-354 1219.5,-366 1219.5,-366 1219.5,-372 1213.5,-378 1207.5,-378"/>
<text text-anchor="middle" x="1165" y="-354.75" font-family="Arial" font-size="15.00">layer_selector</text>
</g>
<!-- /lib/panels/layer_selector.dart&#45;&gt;/lib/models/app_model.dart -->
<g id="edge5" class="edge">
<title>/lib/panels/layer_selector.dart&#45;&gt;/lib/models/app_model.dart</title>
<path fill="none" stroke="#aabbaa" stroke-width="1.3" stroke-opacity="0.533333" d="M1126.36,-341.61C1118.13,-338.57 1109.4,-335.8 1101,-334 938.83,-299.24 428.3,-291.19 256.82,-289.45"/>
<polygon fill="#aabbaa" fill-opacity="0.533333" stroke="#aabbaa" stroke-width="1.3" stroke-opacity="0.533333" points="257.07,-285.95 247.03,-289.36 257,-292.95 257.07,-285.95"/>
</g>
<!-- /lib/widgets/truncated_text.dart -->
<g id="node22" class="node">
<title>/lib/widgets/truncated_text.dart</title>
<path fill="Lavender" stroke="black" stroke-width="1.3" d="M810,-223C810,-223 722,-223 722,-223 716,-223 710,-217 710,-211 710,-211 710,-199 710,-199 710,-193 716,-187 722,-187 722,-187 810,-187 810,-187 816,-187 822,-193 822,-199 822,-199 822,-211 822,-211 822,-217 816,-223 810,-223"/>
<text text-anchor="middle" x="766" y="-199.75" font-family="Arial" font-size="15.00">truncated_text</text>
</g>
<!-- /lib/panels/layer_selector.dart&#45;&gt;/lib/widgets/truncated_text.dart -->
<g id="edge6" class="edge">
<title>/lib/panels/layer_selector.dart&#45;&gt;/lib/widgets/truncated_text.dart</title>
<path fill="none" stroke="#aabbaa" stroke-width="1.3" stroke-opacity="0.533333" d="M1124.88,-341.55C1117.07,-338.66 1108.87,-335.97 1101,-334 999.4,-308.52 961.33,-351.54 867,-306 865.81,-305.43 821.09,-260.94 791.56,-231.51"/>
<polygon fill="#aabbaa" fill-opacity="0.533333" stroke="#aabbaa" stroke-width="1.3" stroke-opacity="0.533333" points="794.26,-229.26 784.71,-224.67 789.32,-234.21 794.26,-229.26"/>
</g>
<!-- /lib/panels/side_panel.dart -->
<g id="node6" class="node">
<title>/lib/panels/side_panel.dart</title>
<path fill="Lavender" stroke="black" stroke-width="1.3" d="M952.62,-525C952.62,-525 889.38,-525 889.38,-525 883.38,-525 877.38,-519 877.38,-513 877.38,-513 877.38,-501 877.38,-501 877.38,-495 883.38,-489 889.38,-489 889.38,-489 952.62,-489 952.62,-489 958.62,-489 964.62,-495 964.62,-501 964.62,-501 964.62,-513 964.62,-513 964.62,-519 958.62,-525 952.62,-525"/>
<text text-anchor="middle" x="921" y="-501.75" font-family="Arial" font-size="15.00">side_panel</text>
</g>
<!-- /lib/panels/tools_panel.dart -->
<g id="node8" class="node">
<title>/lib/panels/tools_panel.dart</title>
<path fill="Lavender" stroke="black" stroke-width="1.3" d="M955.88,-450C955.88,-450 888.12,-450 888.12,-450 882.12,-450 876.12,-444 876.12,-438 876.12,-438 876.12,-426 876.12,-426 876.12,-420 882.12,-414 888.12,-414 888.12,-414 955.88,-414 955.88,-414 961.88,-414 967.88,-420 967.88,-426 967.88,-426 967.88,-438 967.88,-438 967.88,-444 961.88,-450 955.88,-450"/>
<text text-anchor="middle" x="922" y="-426.75" font-family="Arial" font-size="15.00">tools_panel</text>
</g>
<!-- /lib/panels/side_panel.dart&#45;&gt;/lib/panels/tools_panel.dart -->
<g id="edge9" class="edge">
<title>/lib/panels/side_panel.dart&#45;&gt;/lib/panels/tools_panel.dart</title>
<path fill="none" stroke="#aabbaa" stroke-width="1.3" stroke-opacity="0.533333" d="M921.24,-488.7C921.35,-480.76 921.48,-471.12 921.6,-462.11"/>
<polygon fill="#aabbaa" fill-opacity="0.533333" stroke="#aabbaa" stroke-width="1.3" stroke-opacity="0.533333" points="925.1,-462.44 921.73,-452.4 918.1,-462.35 925.1,-462.44"/>
</g>
<!-- /lib/panels/layers_panel.dart -->
<g id="node9" class="node">
<title>/lib/panels/layers_panel.dart</title>
<path fill="Lavender" stroke="black" stroke-width="1.3" d="M1074,-450C1074,-450 998,-450 998,-450 992,-450 986,-444 986,-438 986,-438 986,-426 986,-426 986,-420 992,-414 998,-414 998,-414 1074,-414 1074,-414 1080,-414 1086,-420 1086,-426 1086,-426 1086,-438 1086,-438 1086,-444 1080,-450 1074,-450"/>
<text text-anchor="middle" x="1036" y="-426.75" font-family="Arial" font-size="15.00">layers_panel</text>
</g>
<!-- /lib/panels/side_panel.dart&#45;&gt;/lib/panels/layers_panel.dart -->
<g id="edge8" class="edge">
<title>/lib/panels/side_panel.dart&#45;&gt;/lib/panels/layers_panel.dart</title>
<path fill="none" stroke="#aabbaa" stroke-width="1.3" stroke-opacity="0.533333" d="M963.21,-488.61C967.96,-486.23 972.65,-483.68 977,-481 987.8,-474.36 998.79,-465.95 1008.32,-458.03"/>
<polygon fill="#aabbaa" fill-opacity="0.533333" stroke="#aabbaa" stroke-width="1.3" stroke-opacity="0.533333" points="1010.47,-460.79 1015.8,-451.64 1005.93,-455.47 1010.47,-460.79"/>
</g>
<!-- /lib/panels/side_panel.dart&#45;&gt;/lib/models/app_model.dart -->
<g id="edge7" class="edge">
<title>/lib/panels/side_panel.dart&#45;&gt;/lib/models/app_model.dart</title>
<path fill="none" stroke="#aabbaa" stroke-width="1.3" stroke-opacity="0.533333" d="M876.95,-489.78C875.62,-489.49 874.31,-489.23 873,-489 862.67,-487.17 125.38,-488.45 118,-481 95.02,-457.78 101.36,-362.11 118,-334 124.27,-323.41 134.01,-315.15 144.62,-308.76"/>
<polygon fill="#aabbaa" fill-opacity="0.533333" stroke="#aabbaa" stroke-width="1.3" stroke-opacity="0.533333" points="146.09,-311.94 153.24,-304.13 142.78,-305.78 146.09,-311.94"/>
</g>
<!-- /lib/panels/share_panel.dart -->
<g id="node7" class="node">
<title>/lib/panels/share_panel.dart</title>
<path fill="Lavender" stroke="black" stroke-width="1.3" d="M961.88,-378C961.88,-378 888.12,-378 888.12,-378 882.12,-378 876.12,-372 876.12,-366 876.12,-366 876.12,-354 876.12,-354 876.12,-348 882.12,-342 888.12,-342 888.12,-342 961.88,-342 961.88,-342 967.88,-342 973.88,-348 973.88,-354 973.88,-354 973.88,-366 973.88,-366 973.88,-372 967.88,-378 961.88,-378"/>
<text text-anchor="middle" x="925" y="-354.75" font-family="Arial" font-size="15.00">share_panel</text>
</g>
<!-- /lib/panels/share_panel.dart&#45;&gt;/lib/panels/canvas_panel.dart -->
<g id="edge11" class="edge">
<title>/lib/panels/share_panel.dart&#45;&gt;/lib/panels/canvas_panel.dart</title>
<path fill="none" stroke="#aabbaa" stroke-width="1.3" stroke-opacity="0.533333" d="M926.24,-341.7C926.75,-334.49 927.36,-325.93 927.94,-317.82"/>
<polygon fill="#aabbaa" fill-opacity="0.533333" stroke="#aabbaa" stroke-width="1.3" stroke-opacity="0.533333" points="931.42,-318.29 928.64,-308.07 924.43,-317.79 931.42,-318.29"/>
</g>
<!-- /lib/panels/share_panel.dart&#45;&gt;/lib/models/app_model.dart -->
<g id="edge10" class="edge">
<title>/lib/panels/share_panel.dart&#45;&gt;/lib/models/app_model.dart</title>
<path fill="none" stroke="#aabbaa" stroke-width="1.3" stroke-opacity="0.533333" d="M875.85,-342.23C864.82,-339.02 853.1,-336.03 842,-334 628.6,-294.89 369.57,-289.22 256.91,-288.76"/>
<polygon fill="#aabbaa" fill-opacity="0.533333" stroke="#aabbaa" stroke-width="1.3" stroke-opacity="0.533333" points="257.16,-285.26 247.15,-288.74 257.14,-292.26 257.16,-285.26"/>
</g>
<!-- /lib/panels/tools_panel.dart&#45;&gt;/lib/panels/tool_selector.dart -->
<g id="edge13" class="edge">
<title>/lib/panels/tools_panel.dart&#45;&gt;/lib/panels/tool_selector.dart</title>
<path fill="none" stroke="#aabbaa" stroke-width="1.3" stroke-opacity="0.533333" d="M951.97,-413.52C967.26,-404.6 986.06,-393.63 1002.52,-384.03"/>
<polygon fill="#aabbaa" fill-opacity="0.533333" stroke="#aabbaa" stroke-width="1.3" stroke-opacity="0.533333" points="1003.84,-387.31 1010.71,-379.25 1000.31,-381.27 1003.84,-387.31"/>
</g>
<!-- /lib/panels/tools_panel.dart&#45;&gt;/lib/models/app_model.dart -->
<g id="edge12" class="edge">
<title>/lib/panels/tools_panel.dart&#45;&gt;/lib/models/app_model.dart</title>
<path fill="none" stroke="#aabbaa" stroke-width="1.3" stroke-opacity="0.533333" d="M875.75,-421.26C848.52,-413.49 815.02,-400.13 792,-378 776.51,-363.11 789.59,-346.33 772,-334 730.48,-304.9 393.18,-293.62 256.86,-290.23"/>
<polygon fill="#aabbaa" fill-opacity="0.533333" stroke="#aabbaa" stroke-width="1.3" stroke-opacity="0.533333" points="257.12,-286.73 247.04,-289.99 256.95,-293.73 257.12,-286.73"/>
</g>
<!-- /lib/widgets/brush_size_picker.dart -->
<g id="node23" class="node">
<title>/lib/widgets/brush_size_picker.dart</title>
<path fill="Lavender" stroke="black" stroke-width="1.3" d="M566,-223C566,-223 454,-223 454,-223 448,-223 442,-217 442,-211 442,-211 442,-199 442,-199 442,-193 448,-187 454,-187 454,-187 566,-187 566,-187 572,-187 578,-193 578,-199 578,-199 578,-211 578,-211 578,-217 572,-223 566,-223"/>
<text text-anchor="middle" x="510" y="-199.75" font-family="Arial" font-size="15.00">brush_size_picker</text>
</g>
<!-- /lib/panels/tools_panel.dart&#45;&gt;/lib/widgets/brush_size_picker.dart -->
<g id="edge14" class="edge">
<title>/lib/panels/tools_panel.dart&#45;&gt;/lib/widgets/brush_size_picker.dart</title>
<path fill="none" stroke="#aabbaa" stroke-width="1.3" stroke-opacity="0.533333" d="M885.1,-413.56C867.06,-404.21 845.52,-391.79 828,-378 807,-361.46 809.05,-349.11 787,-334 708.02,-279.9 672.4,-297.27 587,-254 572.92,-246.87 558.06,-237.96 545.2,-229.77"/>
<polygon fill="#aabbaa" fill-opacity="0.533333" stroke="#aabbaa" stroke-width="1.3" stroke-opacity="0.533333" points="547.3,-226.96 537.01,-224.46 543.5,-232.84 547.3,-226.96"/>
</g>
<!-- /lib/panels/tools_panel.dart&#45;&gt;/lib/widgets/transparent_background.dart -->
<g id="edge16" class="edge">
<title>/lib/panels/tools_panel.dart&#45;&gt;/lib/widgets/transparent_background.dart</title>
<path fill="none" stroke="#aabbaa" stroke-width="1.3" stroke-opacity="0.533333" d="M896.33,-413.72C885.08,-404.58 873.07,-392.28 867,-378 846.83,-330.55 846.07,-309.11 867,-262 872.37,-249.92 881.77,-239.35 891.65,-230.74"/>
<polygon fill="#aabbaa" fill-opacity="0.533333" stroke="#aabbaa" stroke-width="1.3" stroke-opacity="0.533333" points="893.64,-233.63 899.23,-224.63 889.24,-228.18 893.64,-233.63"/>
</g>
<!-- /lib/widgets/color_picker.dart -->
<g id="node26" class="node">
<title>/lib/widgets/color_picker.dart</title>
<path fill="Lavender" stroke="black" stroke-width="1.3" d="M680.12,-223C680.12,-223 607.88,-223 607.88,-223 601.88,-223 595.88,-217 595.88,-211 595.88,-211 595.88,-199 595.88,-199 595.88,-193 601.88,-187 607.88,-187 607.88,-187 680.12,-187 680.12,-187 686.12,-187 692.12,-193 692.12,-199 692.12,-199 692.12,-211 692.12,-211 692.12,-217 686.12,-223 680.12,-223"/>
<text text-anchor="middle" x="644" y="-199.75" font-family="Arial" font-size="15.00">color_picker</text>
</g>
<!-- /lib/panels/tools_panel.dart&#45;&gt;/lib/widgets/color_picker.dart -->
<g id="edge15" class="edge">
<title>/lib/panels/tools_panel.dart&#45;&gt;/lib/widgets/color_picker.dart</title>
<path fill="none" stroke="#aabbaa" stroke-width="1.3" stroke-opacity="0.533333" d="M890.43,-413.62C876.23,-404.53 860.19,-392.31 849,-378 840.43,-367.05 813.22,-270.22 802,-262 783.84,-248.69 721.83,-262.55 701,-254 688.67,-248.94 677.02,-240.17 667.52,-231.5"/>
<polygon fill="#aabbaa" fill-opacity="0.533333" stroke="#aabbaa" stroke-width="1.3" stroke-opacity="0.533333" points="670.13,-229.17 660.52,-224.72 665.26,-234.19 670.13,-229.17"/>
</g>
<!-- /lib/panels/layers_panel.dart&#45;&gt;/lib/panels/layer_selector.dart -->
<g id="edge19" class="edge">
<title>/lib/panels/layers_panel.dart&#45;&gt;/lib/panels/layer_selector.dart</title>
<path fill="none" stroke="#aabbaa" stroke-width="1.3" stroke-opacity="0.533333" d="M1068.22,-413.52C1084.74,-404.55 1105.06,-393.53 1122.81,-383.9"/>
<polygon fill="#aabbaa" fill-opacity="0.533333" stroke="#aabbaa" stroke-width="1.3" stroke-opacity="0.533333" points="1124.34,-387.04 1131.46,-379.2 1121,-380.89 1124.34,-387.04"/>
</g>
<!-- /lib/panels/layers_panel.dart&#45;&gt;/lib/panels/share_panel.dart -->
<g id="edge20" class="edge">
<title>/lib/panels/layers_panel.dart&#45;&gt;/lib/panels/share_panel.dart</title>
<path fill="none" stroke="#aabbaa" stroke-width="1.3" stroke-opacity="0.533333" d="M1008.28,-413.52C994.4,-404.76 977.4,-394.04 962.38,-384.58"/>
<polygon fill="#aabbaa" fill-opacity="0.533333" stroke="#aabbaa" stroke-width="1.3" stroke-opacity="0.533333" points="964.36,-381.68 954.03,-379.31 960.63,-387.6 964.36,-381.68"/>
</g>
<!-- /lib/panels/layers_panel.dart&#45;&gt;/lib/models/app_model.dart -->
<g id="edge18" class="edge">
<title>/lib/panels/layers_panel.dart&#45;&gt;/lib/models/app_model.dart</title>
<path fill="none" stroke="#aabbaa" stroke-width="1.3" stroke-opacity="0.533333" d="M985.63,-416.41C944.04,-404.14 888.49,-387.17 867,-378 829.68,-362.07 825.89,-345.59 787,-334 688.79,-304.73 384.26,-293.7 256.9,-290.3"/>
<polygon fill="#aabbaa" fill-opacity="0.533333" stroke="#aabbaa" stroke-width="1.3" stroke-opacity="0.533333" points="257.2,-286.81 247.11,-290.04 257.01,-293.8 257.2,-286.81"/>
</g>
<!-- /lib/files/import_files.dart -->
<g id="node18" class="node">
<title>/lib/files/import_files.dart</title>
<path fill="Lavender" stroke="black" stroke-width="1.3" d="M349.25,-450C349.25,-450 280.75,-450 280.75,-450 274.75,-450 268.75,-444 268.75,-438 268.75,-438 268.75,-426 268.75,-426 268.75,-420 274.75,-414 280.75,-414 280.75,-414 349.25,-414 349.25,-414 355.25,-414 361.25,-420 361.25,-426 361.25,-426 361.25,-438 361.25,-438 361.25,-444 355.25,-450 349.25,-450"/>
<text text-anchor="middle" x="315" y="-426.75" font-family="Arial" font-size="15.00">import_files</text>
</g>
<!-- /lib/panels/layers_panel.dart&#45;&gt;/lib/files/import_files.dart -->
<g id="edge17" class="edge">
<title>/lib/panels/layers_panel.dart&#45;&gt;/lib/files/import_files.dart</title>
<path fill="none" stroke="#aabbaa" stroke-width="1.3" stroke-opacity="0.533333" d="M1020.97,-450.43C1008.49,-463.86 989.38,-480.46 968,-485 952.02,-488.39 395.98,-488.39 380,-485 363.32,-481.46 348.29,-470.06 336.9,-458.74"/>
<polygon fill="#aabbaa" fill-opacity="0.533333" stroke="#aabbaa" stroke-width="1.3" stroke-opacity="0.533333" points="339.66,-456.57 330.27,-451.66 334.55,-461.35 339.66,-456.57"/>
</g>
<!-- /lib/models/layers.dart -->
<g id="node10" class="node">
<title>/lib/models/layers.dart</title>
<path fill="Lavender" stroke="black" stroke-width="1.3" d="M170.88,-450C170.88,-450 139.12,-450 139.12,-450 133.12,-450 127.12,-444 127.12,-438 127.12,-438 127.12,-426 127.12,-426 127.12,-420 133.12,-414 139.12,-414 139.12,-414 170.88,-414 170.88,-414 176.88,-414 182.88,-420 182.88,-426 182.88,-426 182.88,-438 182.88,-438 182.88,-444 176.88,-450 170.88,-450"/>
<text text-anchor="middle" x="155" y="-426.75" font-family="Arial" font-size="15.00">layers</text>
</g>
<!-- /lib/models/layer.dart -->
<g id="node13" class="node">
<title>/lib/models/layer.dart</title>
<path fill="Lavender" stroke="black" stroke-width="1.3" d="M169,-378C169,-378 139,-378 139,-378 133,-378 127,-372 127,-366 127,-366 127,-354 127,-354 127,-348 133,-342 139,-342 139,-342 169,-342 169,-342 175,-342 181,-348 181,-354 181,-354 181,-366 181,-366 181,-372 175,-378 169,-378"/>
<text text-anchor="middle" x="154" y="-354.75" font-family="Arial" font-size="15.00">layer</text>
</g>
<!-- /lib/models/layers.dart&#45;&gt;/lib/models/layer.dart -->
<g id="edge22" class="edge">
<title>/lib/models/layers.dart&#45;&gt;/lib/models/layer.dart</title>
<path fill="none" stroke="#aabbaa" stroke-width="1.3" stroke-opacity="0.533333" d="M148.84,-413.7C147.99,-406.49 147.62,-397.93 147.76,-389.82"/>
<polygon fill="#aabbaa" fill-opacity="0.533333" stroke="#aabbaa" stroke-width="1.3" stroke-opacity="0.533333" points="151.24,-390.23 148.25,-380.07 144.25,-389.88 151.24,-390.23"/>
</g>
<!-- /lib/models/layers.dart&#45;&gt;/lib/models/layer.dart -->
<g id="edge23" class="edge">
<title>/lib/models/layers.dart&#45;&gt;/lib/models/layer.dart</title>
<path fill="none" stroke="#aabbaa" stroke-width="1.3" stroke-dasharray="5,2" stroke-opacity="0.533333" d="M160.67,-413.7C161.31,-406.49 161.43,-397.93 161.07,-389.82"/>
<polygon fill="#aabbaa" fill-opacity="0.533333" stroke="#aabbaa" stroke-width="1.3" stroke-opacity="0.533333" points="164.57,-389.76 160.29,-380.07 157.6,-390.31 164.57,-389.76"/>
</g>
<!-- /lib/helpers/list_helper.dart -->
<g id="node20" class="node">
<title>/lib/helpers/list_helper.dart</title>
<path fill="Lavender" stroke="black" stroke-width="1.3" d="M520.75,-68C520.75,-68 461.25,-68 461.25,-68 455.25,-68 449.25,-62 449.25,-56 449.25,-56 449.25,-44 449.25,-44 449.25,-38 455.25,-32 461.25,-32 461.25,-32 520.75,-32 520.75,-32 526.75,-32 532.75,-38 532.75,-44 532.75,-44 532.75,-56 532.75,-56 532.75,-62 526.75,-68 520.75,-68"/>
<text text-anchor="middle" x="491" y="-44.75" font-family="Arial" font-size="15.00">list_helper</text>
</g>
<!-- /lib/models/layers.dart&#45;&gt;/lib/helpers/list_helper.dart -->
<g id="edge21" class="edge">
<title>/lib/models/layers.dart&#45;&gt;/lib/helpers/list_helper.dart</title>
<path fill="none" stroke="#aabbaa" stroke-width="1.3" stroke-opacity="0.533333" d="M126.96,-413.94C82.27,-384.46 3.05,-321.43 35,-262 114.97,-113.27 334.75,-68.82 437.16,-55.99"/>
<polygon fill="#aabbaa" fill-opacity="0.533333" stroke="#aabbaa" stroke-width="1.3" stroke-opacity="0.533333" points="437.29,-59.5 446.8,-54.84 436.46,-52.55 437.29,-59.5"/>
</g>
<!-- /lib/models/user_action.dart -->
<g id="node11" class="node">
<title>/lib/models/user_action.dart</title>
<path fill="Lavender" stroke="black" stroke-width="1.3" d="M125.62,-306C125.62,-306 56.38,-306 56.38,-306 50.38,-306 44.38,-300 44.38,-294 44.38,-294 44.38,-282 44.38,-282 44.38,-276 50.38,-270 56.38,-270 56.38,-270 125.62,-270 125.62,-270 131.62,-270 137.62,-276 137.62,-282 137.62,-282 137.62,-294 137.62,-294 137.62,-300 131.62,-306 125.62,-306"/>
<text text-anchor="middle" x="91" y="-282.75" font-family="Arial" font-size="15.00">user_action</text>
</g>
<!-- /lib/widgets/brush_style_picker.dart -->
<g id="node25" class="node">
<title>/lib/widgets/brush_style_picker.dart</title>
<path fill="Lavender" stroke="black" stroke-width="1.3" d="M412.25,-223C412.25,-223 295.75,-223 295.75,-223 289.75,-223 283.75,-217 283.75,-211 283.75,-211 283.75,-199 283.75,-199 283.75,-193 289.75,-187 295.75,-187 295.75,-187 412.25,-187 412.25,-187 418.25,-187 424.25,-193 424.25,-199 424.25,-199 424.25,-211 424.25,-211 424.25,-217 418.25,-223 412.25,-223"/>
<text text-anchor="middle" x="354" y="-199.75" font-family="Arial" font-size="15.00">brush_style_picker</text>
</g>
<!-- /lib/models/user_action.dart&#45;&gt;/lib/widgets/brush_style_picker.dart -->
<g id="edge24" class="edge">
<title>/lib/models/user_action.dart&#45;&gt;/lib/widgets/brush_style_picker.dart</title>
<path fill="none" stroke="#aabbaa" stroke-width="1.3" stroke-opacity="0.533333" d="M118.18,-269.61C124.29,-266.88 130.78,-264.23 137,-262 180.66,-246.32 230.85,-232.69 272.01,-222.8"/>
<polygon fill="#aabbaa" fill-opacity="0.533333" stroke="#aabbaa" stroke-width="1.3" stroke-opacity="0.533333" points="272.8,-226.21 281.72,-220.5 271.19,-219.4 272.8,-226.21"/>
</g>
<!-- /lib/models/user_action.dart&#45;&gt;/lib/widgets/brush_style_picker.dart -->
<g id="edge25" class="edge">
<title>/lib/models/user_action.dart&#45;&gt;/lib/widgets/brush_style_picker.dart</title>
<path fill="none" stroke="#aabbaa" stroke-width="1.3" stroke-dasharray="5,2" stroke-opacity="0.533333" d="M135.91,-269.61C142.29,-266.88 148.78,-264.23 155,-262 193.75,-248.08 237.65,-235.78 274.38,-226.27"/>
<polygon fill="#aabbaa" fill-opacity="0.533333" stroke="#aabbaa" stroke-width="1.3" stroke-opacity="0.533333" points="274.81,-229.77 283.63,-223.9 273.07,-222.99 274.81,-229.77"/>
</g>
<!-- /lib/models/app_model.dart&#45;&gt;/lib/models/layers.dart -->
<g id="edge26" class="edge">
<title>/lib/models/app_model.dart&#45;&gt;/lib/models/layers.dart</title>
<path fill="none" stroke="#aabbaa" stroke-width="1.3" stroke-opacity="0.533333" d="M193.74,-306.27C191.33,-324.61 189.64,-354.17 181,-378 177.8,-386.84 172.85,-395.67 168,-403.51"/>
<polygon fill="#aabbaa" fill-opacity="0.533333" stroke="#aabbaa" stroke-width="1.3" stroke-opacity="0.533333" points="165.11,-401.54 162.68,-411.85 171.01,-405.3 165.11,-401.54"/>
</g>
<!-- /lib/models/app_model.dart&#45;&gt;/lib/models/layers.dart -->
<g id="edge27" class="edge">
<title>/lib/models/app_model.dart&#45;&gt;/lib/models/layers.dart</title>
<path fill="none" stroke="#aabbaa" stroke-width="1.3" stroke-dasharray="5,2" stroke-opacity="0.533333" d="M207.1,-306.27C209.33,-324.61 207.64,-354.17 199,-378 195.69,-387.14 190.51,-396.27 184.77,-404.31"/>
<polygon fill="#aabbaa" fill-opacity="0.533333" stroke="#aabbaa" stroke-width="1.3" stroke-opacity="0.533333" points="182.19,-401.93 178.79,-411.96 187.71,-406.23 182.19,-401.93"/>
</g>
<!-- /lib/models/layer.dart&#45;&gt;/lib/models/user_action.dart -->
<g id="edge29" class="edge">
<title>/lib/models/layer.dart&#45;&gt;/lib/models/user_action.dart</title>
<path fill="none" stroke="#aabbaa" stroke-width="1.3" stroke-dasharray="5,2" stroke-opacity="0.533333" d="M138.43,-341.7C131.18,-333.64 122.41,-323.89 114.38,-314.98"/>
<polygon fill="#aabbaa" fill-opacity="0.533333" stroke="#aabbaa" stroke-width="1.3" stroke-opacity="0.533333" points="117,-312.66 107.71,-307.57 111.8,-317.34 117,-312.66"/>
</g>
<!-- /lib/models/layer.dart&#45;&gt;/lib/models/app_model.dart -->
<g id="edge28" class="edge">
<title>/lib/models/layer.dart&#45;&gt;/lib/models/app_model.dart</title>
<path fill="none" stroke="#aabbaa" stroke-width="1.3" stroke-opacity="0.533333" d="M165.37,-341.7C170.5,-333.9 176.67,-324.51 182.37,-315.83"/>
<polygon fill="#aabbaa" fill-opacity="0.533333" stroke="#aabbaa" stroke-width="1.3" stroke-opacity="0.533333" points="185.11,-318.03 187.68,-307.75 179.26,-314.18 185.11,-318.03"/>
</g>
<!-- /lib/main.dart&#45;&gt;/lib/models/app_model.dart -->
<g id="edge31" class="edge">
<title>/lib/main.dart&#45;&gt;/lib/models/app_model.dart</title>
<path fill="none" stroke="#aabbaa" stroke-width="1.3" stroke-opacity="0.533333" d="M190.84,-641.68C147.61,-621.63 68,-575.55 68,-508 68,-508 68,-508 68,-431 68,-385.32 71.24,-367.77 102,-334 108.53,-326.83 125.84,-318.08 144.13,-310.22"/>
<polygon fill="#aabbaa" fill-opacity="0.533333" stroke="#aabbaa" stroke-width="1.3" stroke-opacity="0.533333" points="145.24,-313.55 153.12,-306.47 142.55,-307.09 145.24,-313.55"/>
</g>
<!-- /lib/main_screen.dart -->
<g id="node19" class="node">
<title>/lib/main_screen.dart</title>
<path fill="Lavender" stroke="black" stroke-width="1.3" d="M609.75,-600C609.75,-600 532.25,-600 532.25,-600 526.25,-600 520.25,-594 520.25,-588 520.25,-588 520.25,-576 520.25,-576 520.25,-570 526.25,-564 532.25,-564 532.25,-564 609.75,-564 609.75,-564 615.75,-564 621.75,-570 621.75,-576 621.75,-576 621.75,-588 621.75,-588 621.75,-594 615.75,-600 609.75,-600"/>
<text text-anchor="middle" x="571" y="-576.75" font-family="Arial" font-size="15.00">main_screen</text>
</g>
<!-- /lib/main.dart&#45;&gt;/lib/main_screen.dart -->
<g id="edge30" class="edge">
<title>/lib/main.dart&#45;&gt;/lib/main_screen.dart</title>
<path fill="none" stroke="#aabbaa" stroke-width="1.3" stroke-opacity="0.533333" d="M245.41,-647.57C301.49,-636.44 430.61,-610.84 508.34,-595.42"/>
<polygon fill="#aabbaa" fill-opacity="0.533333" stroke="#aabbaa" stroke-width="1.3" stroke-opacity="0.533333" points="508.83,-598.9 517.96,-593.52 507.47,-592.03 508.83,-598.9"/>
</g>
<!-- /lib/files/export_download_web.dart -->
<g id="node15" class="node">
<title>/lib/files/export_download_web.dart</title>
<path fill="Lavender" stroke="black" stroke-width="1.3" d="M532.25,-450C532.25,-450 391.75,-450 391.75,-450 385.75,-450 379.75,-444 379.75,-438 379.75,-438 379.75,-426 379.75,-426 379.75,-420 385.75,-414 391.75,-414 391.75,-414 532.25,-414 532.25,-414 538.25,-414 544.25,-420 544.25,-426 544.25,-426 544.25,-438 544.25,-438 544.25,-444 538.25,-450 532.25,-450"/>
<text text-anchor="middle" x="462" y="-426.75" font-family="Arial" font-size="15.00">export_download_web</text>
</g>
<!-- /lib/files/export_download_web.dart&#45;&gt;/lib/panels/share_panel.dart -->
<g id="edge34" class="edge">
<title>/lib/files/export_download_web.dart&#45;&gt;/lib/panels/share_panel.dart</title>
<path fill="none" stroke="#aabbaa" stroke-width="1.3" stroke-opacity="0.533333" d="M544.31,-415.46C547.24,-414.96 550.15,-414.47 553,-414 662.3,-396.01 790.26,-378.57 864.05,-368.86"/>
<polygon fill="#aabbaa" fill-opacity="0.533333" stroke="#aabbaa" stroke-width="1.3" stroke-opacity="0.533333" points="864.44,-372.34 873.9,-367.57 863.53,-365.4 864.44,-372.34"/>
</g>
<!-- /lib/files/export_download_web.dart&#45;&gt;/lib/models/app_model.dart -->
<g id="edge33" class="edge">
<title>/lib/files/export_download_web.dart&#45;&gt;/lib/models/app_model.dart</title>
<path fill="none" stroke="#aabbaa" stroke-width="1.3" stroke-opacity="0.533333" d="M379.75,-414.15C337.65,-404.27 291.79,-391.17 275,-378 257.3,-364.12 264.1,-351.53 250,-334 244.46,-327.12 237.84,-320.37 231.24,-314.29"/>
<polygon fill="#aabbaa" fill-opacity="0.533333" stroke="#aabbaa" stroke-width="1.3" stroke-opacity="0.533333" points="233.66,-311.76 223.86,-307.75 229.03,-317 233.66,-311.76"/>
</g>
<!-- /lib/files/file_ora.dart -->
<g id="node16" class="node">
<title>/lib/files/file_ora.dart</title>
<path fill="Lavender" stroke="black" stroke-width="1.3" d="M351.38,-378C351.38,-378 310.62,-378 310.62,-378 304.62,-378 298.62,-372 298.62,-366 298.62,-366 298.62,-354 298.62,-354 298.62,-348 304.62,-342 310.62,-342 310.62,-342 351.38,-342 351.38,-342 357.38,-342 363.38,-348 363.38,-354 363.38,-354 363.38,-366 363.38,-366 363.38,-372 357.38,-378 351.38,-378"/>
<text text-anchor="middle" x="331" y="-354.75" font-family="Arial" font-size="15.00">file_ora</text>
</g>
<!-- /lib/files/export_download_web.dart&#45;&gt;/lib/files/file_ora.dart -->
<g id="edge32" class="edge">
<title>/lib/files/export_download_web.dart&#45;&gt;/lib/files/file_ora.dart</title>
<path fill="none" stroke="#aabbaa" stroke-width="1.3" stroke-opacity="0.533333" d="M429.28,-413.52C412.51,-404.55 391.87,-393.53 373.85,-383.9"/>
<polygon fill="#aabbaa" fill-opacity="0.533333" stroke="#aabbaa" stroke-width="1.3" stroke-opacity="0.533333" points="375.51,-380.81 365.04,-379.19 372.21,-386.99 375.51,-380.81"/>
</g>
<!-- /lib/files/file_ora.dart&#45;&gt;/lib/models/app_model.dart -->
<g id="edge36" class="edge">
<title>/lib/files/file_ora.dart&#45;&gt;/lib/models/app_model.dart</title>
<path fill="none" stroke="#aabbaa" stroke-width="1.3" stroke-opacity="0.533333" d="M299.35,-341.74C294.55,-339.14 289.65,-336.49 285,-334 271.53,-326.78 256.83,-318.96 243.49,-311.91"/>
<polygon fill="#aabbaa" fill-opacity="0.533333" stroke="#aabbaa" stroke-width="1.3" stroke-opacity="0.533333" points="245.36,-308.94 234.88,-307.36 242.09,-315.13 245.36,-308.94"/>
</g>
<!-- /lib/files/file_ora.dart&#45;&gt;/lib/helpers/list_helper.dart -->
<g id="edge35" class="edge">
<title>/lib/files/file_ora.dart&#45;&gt;/lib/helpers/list_helper.dart</title>
<path fill="none" stroke="#aabbaa" stroke-width="1.3" stroke-opacity="0.533333" d="M316.3,-341.66C289.99,-308.4 240.41,-234.05 272,-179 307.33,-117.44 384.98,-82.66 437.66,-65.34"/>
<polygon fill="#aabbaa" fill-opacity="0.533333" stroke="#aabbaa" stroke-width="1.3" stroke-opacity="0.533333" points="438.47,-68.75 446.95,-62.4 436.36,-62.08 438.47,-68.75"/>
</g>
<!-- /lib/files/export_download_non_web.dart -->
<g id="node17" class="node">
<title>/lib/files/export_download_non_web.dart</title>
<path fill="Lavender" stroke="black" stroke-width="1.3" d="M747.75,-450C747.75,-450 574.25,-450 574.25,-450 568.25,-450 562.25,-444 562.25,-438 562.25,-438 562.25,-426 562.25,-426 562.25,-420 568.25,-414 574.25,-414 574.25,-414 747.75,-414 747.75,-414 753.75,-414 759.75,-420 759.75,-426 759.75,-426 759.75,-438 759.75,-438 759.75,-444 753.75,-450 747.75,-450"/>
<text text-anchor="middle" x="661" y="-426.75" font-family="Arial" font-size="15.00">export_download_non_web</text>
</g>
<!-- /lib/files/export_download_non_web.dart&#45;&gt;/lib/panels/share_panel.dart -->
<g id="edge39" class="edge">
<title>/lib/files/export_download_non_web.dart&#45;&gt;/lib/panels/share_panel.dart</title>
<path fill="none" stroke="#aabbaa" stroke-width="1.3" stroke-opacity="0.533333" d="M726.94,-413.52C769.01,-402.36 823.14,-388.01 864.18,-377.13"/>
<polygon fill="#aabbaa" fill-opacity="0.533333" stroke="#aabbaa" stroke-width="1.3" stroke-opacity="0.533333" points="864.98,-380.54 873.75,-374.59 863.19,-373.77 864.98,-380.54"/>
</g>
<!-- /lib/files/export_download_non_web.dart&#45;&gt;/lib/models/app_model.dart -->
<g id="edge38" class="edge">
<title>/lib/files/export_download_non_web.dart&#45;&gt;/lib/models/app_model.dart</title>
<path fill="none" stroke="#aabbaa" stroke-width="1.3" stroke-opacity="0.533333" d="M561.85,-415.31C558.86,-414.87 555.91,-414.43 553,-414 494.64,-405.41 337.96,-412.35 290,-378 272.23,-365.27 282.5,-350.37 268,-334 260.98,-326.07 252.25,-318.93 243.41,-312.8"/>
<polygon fill="#aabbaa" fill-opacity="0.533333" stroke="#aabbaa" stroke-width="1.3" stroke-opacity="0.533333" points="245.41,-309.92 235.12,-307.39 241.58,-315.78 245.41,-309.92"/>
</g>
<!-- /lib/files/export_download_non_web.dart&#45;&gt;/lib/files/file_ora.dart -->
<g id="edge37" class="edge">
<title>/lib/files/export_download_non_web.dart&#45;&gt;/lib/files/file_ora.dart</title>
<path fill="none" stroke="#aabbaa" stroke-width="1.3" stroke-opacity="0.533333" d="M578.58,-413.52C514.11,-399.84 426.98,-381.36 375.13,-370.36"/>
<polygon fill="#aabbaa" fill-opacity="0.533333" stroke="#aabbaa" stroke-width="1.3" stroke-opacity="0.533333" points="376.12,-366.99 365.61,-368.34 374.66,-373.84 376.12,-366.99"/>
</g>
<!-- /lib/files/import_files.dart&#45;&gt;/lib/models/app_model.dart -->
<g id="edge41" class="edge">
<title>/lib/files/import_files.dart&#45;&gt;/lib/models/app_model.dart</title>
<path fill="none" stroke="#aabbaa" stroke-width="1.3" stroke-opacity="0.533333" d="M290.89,-413.61C278.95,-404.1 265,-391.52 255,-378 242.22,-360.73 246.11,-352.38 235,-334 231.26,-327.81 226.81,-321.5 222.35,-315.62"/>
<polygon fill="#aabbaa" fill-opacity="0.533333" stroke="#aabbaa" stroke-width="1.3" stroke-opacity="0.533333" points="225.13,-313.5 216.19,-307.81 219.63,-317.83 225.13,-313.5"/>
</g>
<!-- /lib/files/import_files.dart&#45;&gt;/lib/files/file_ora.dart -->
<g id="edge40" class="edge">
<title>/lib/files/import_files.dart&#45;&gt;/lib/files/file_ora.dart</title>
<path fill="none" stroke="#aabbaa" stroke-width="1.3" stroke-opacity="0.533333" d="M318.96,-413.7C320.62,-406.41 322.61,-397.73 324.48,-389.54"/>
<polygon fill="#aabbaa" fill-opacity="0.533333" stroke="#aabbaa" stroke-width="1.3" stroke-opacity="0.533333" points="327.84,-390.55 326.65,-380.02 321.01,-388.99 327.84,-390.55"/>
</g>
<!-- /lib/main_screen.dart&#45;&gt;/lib/panels/canvas_panel.dart -->
<g id="edge42" class="edge">
<title>/lib/main_screen.dart&#45;&gt;/lib/panels/canvas_panel.dart</title>
<path fill="none" stroke="#aabbaa" stroke-width="1.3" stroke-opacity="0.533333" d="M621.95,-580.92C715.25,-580.28 909.88,-576.43 974,-556 1105.69,-514.05 1167.92,-501.99 1229,-378 1237.64,-360.46 1241.76,-348.82 1229,-334 1199.52,-299.75 1074.46,-291.22 995.72,-289.3"/>
<polygon fill="#aabbaa" fill-opacity="0.533333" stroke="#aabbaa" stroke-width="1.3" stroke-opacity="0.533333" points="996.01,-285.8 985.94,-289.09 995.86,-292.8 996.01,-285.8"/>
</g>
<!-- /lib/main_screen.dart&#45;&gt;/lib/panels/side_panel.dart -->
<g id="edge43" class="edge">
<title>/lib/main_screen.dart&#45;&gt;/lib/panels/side_panel.dart</title>
<path fill="none" stroke="#aabbaa" stroke-width="1.3" stroke-opacity="0.533333" d="M622.14,-580.98C696.35,-580.24 829.74,-576.05 873,-556 883.68,-551.05 893.33,-542.66 901.13,-534.26"/>
<polygon fill="#aabbaa" fill-opacity="0.533333" stroke="#aabbaa" stroke-width="1.3" stroke-opacity="0.533333" points="903.68,-536.67 907.55,-526.8 898.37,-532.1 903.68,-536.67"/>
</g>
<!-- /lib/main_screen.dart&#45;&gt;/lib/models/app_model.dart -->
<g id="edge44" class="edge">
<title>/lib/main_screen.dart&#45;&gt;/lib/models/app_model.dart</title>
<path fill="none" stroke="#aabbaa" stroke-width="1.3" stroke-opacity="0.533333" d="M520,-578.97C450.86,-573.43 327.9,-553.31 257,-481 213.21,-436.34 202.82,-359.64 200.51,-317.98"/>
<polygon fill="#aabbaa" fill-opacity="0.533333" stroke="#aabbaa" stroke-width="1.3" stroke-opacity="0.533333" points="204.01,-318.06 200.1,-308.21 197.02,-318.35 204.01,-318.06"/>
</g>
<!-- /lib/helpers/color_helper.dart -->
<g id="node21" class="node">
<title>/lib/helpers/color_helper.dart</title>
<path fill="Lavender" stroke="black" stroke-width="1.3" d="M534.88,-140C534.88,-140 461.12,-140 461.12,-140 455.12,-140 449.12,-134 449.12,-128 449.12,-128 449.12,-116 449.12,-116 449.12,-110 455.12,-104 461.12,-104 461.12,-104 534.88,-104 534.88,-104 540.88,-104 546.88,-110 546.88,-116 546.88,-116 546.88,-128 546.88,-128 546.88,-134 540.88,-140 534.88,-140"/>
<text text-anchor="middle" x="498" y="-116.75" font-family="Arial" font-size="15.00">color_helper</text>
</g>
<!-- /lib/helpers/color_helper.dart&#45;&gt;/lib/helpers/list_helper.dart -->
<g id="edge45" class="edge">
<title>/lib/helpers/color_helper.dart&#45;&gt;/lib/helpers/list_helper.dart</title>
<path fill="none" stroke="#aabbaa" stroke-width="1.3" stroke-opacity="0.533333" d="M496.27,-103.7C495.55,-96.49 494.69,-87.93 493.88,-79.82"/>
<polygon fill="#aabbaa" fill-opacity="0.533333" stroke="#aabbaa" stroke-width="1.3" stroke-opacity="0.533333" points="497.38,-79.66 492.91,-70.06 490.42,-80.36 497.38,-79.66"/>
</g>
<!-- /lib/widgets/brush_style_picker.dart&#45;&gt;/lib/models/app_model.dart -->
<g id="edge46" class="edge">
<title>/lib/widgets/brush_style_picker.dart&#45;&gt;/lib/models/app_model.dart</title>
<path fill="none" stroke="#aabbaa" stroke-width="1.3" stroke-opacity="0.533333" d="M320.75,-223.49C298.15,-235.38 268.02,-251.23 243.51,-264.12"/>
<polygon fill="#aabbaa" fill-opacity="0.533333" stroke="#aabbaa" stroke-width="1.3" stroke-opacity="0.533333" points="242,-260.95 234.78,-268.71 245.26,-267.15 242,-260.95"/>
</g>
<!-- /lib/widgets/color_picker.dart&#45;&gt;/lib/helpers/list_helper.dart -->
<g id="edge48" class="edge">
<title>/lib/widgets/color_picker.dart&#45;&gt;/lib/helpers/list_helper.dart</title>
<path fill="none" stroke="#aabbaa" stroke-width="1.3" stroke-opacity="0.533333" d="M609.72,-186.61C602.39,-183.57 594.57,-180.8 587,-179 571.09,-175.21 451.25,-182.88 440,-171 419.52,-149.38 428.87,-131.62 440,-104 444.14,-93.74 451.32,-84.35 459,-76.42"/>
<polygon fill="#aabbaa" fill-opacity="0.533333" stroke="#aabbaa" stroke-width="1.3" stroke-opacity="0.533333" points="461.16,-79.2 466,-69.77 456.34,-74.12 461.16,-79.2"/>
</g>
<!-- /lib/widgets/color_picker.dart&#45;&gt;/lib/helpers/color_helper.dart -->
<g id="edge47" class="edge">
<title>/lib/widgets/color_picker.dart&#45;&gt;/lib/helpers/color_helper.dart</title>
<path fill="none" stroke="#aabbaa" stroke-width="1.3" stroke-opacity="0.533333" d="M612.68,-186.62C591.39,-174.81 562.99,-159.05 539.78,-146.18"/>
<polygon fill="#aabbaa" fill-opacity="0.533333" stroke="#aabbaa" stroke-width="1.3" stroke-opacity="0.533333" points="541.68,-143.23 531.24,-141.44 538.29,-149.35 541.68,-143.23"/>
</g>
</g>
</svg>
