<?xml version="1.0" encoding="UTF-8" standalone="no"?>
<!DOCTYPE svg PUBLIC "-//W3C//DTD SVG 1.1//EN"
 "http://www.w3.org/Graphics/SVG/1.1/DTD/svg11.dtd">
<!-- Generated by graphviz version 12.2.1 (20241206.2353)
 -->
<!-- Pages: 1 -->
<svg width="296pt" height="437pt"
 viewBox="0.00 0.00 296.00 437.00" xmlns="http://www.w3.org/2000/svg" xmlns:xlink="http://www.w3.org/1999/xlink">
<g id="graph0" class="graph" transform="scale(1 1) rotate(0) translate(4 433)">
<polygon fill="white" stroke="none" points="-4,4 -4,-433 292,-433 292,4 -4,4"/>
<g id="clust1" class="cluster">
<title>cluster~</title>
<path fill="none" stroke="lightgray" stroke-width="2.6" d="M20,-8C20,-8 268,-8 268,-8 274,-8 280,-14 280,-20 280,-20 280,-409 280,-409 280,-415 274,-421 268,-421 268,-421 20,-421 20,-421 14,-421 8,-415 8,-409 8,-409 8,-20 8,-20 8,-14 14,-8 20,-8"/>
<text text-anchor="middle" x="144" y="-404.65" font-family="Arial Black" font-size="13.00">fpaint</text>
</g>
<g id="clust2" class="cluster">
<title>cluster~/test</title>
<path fill="none" stroke="lightgray" stroke-width="2.6" d="M28,-315C28,-315 260,-315 260,-315 266,-315 272,-321 272,-327 272,-327 272,-378 272,-378 272,-384 266,-390 260,-390 260,-390 28,-390 28,-390 22,-390 16,-384 16,-378 16,-378 16,-327 16,-327 16,-321 22,-315 28,-315"/>
<text text-anchor="middle" x="144" y="-373.65" font-family="Arial Black" font-size="13.00">test</text>
</g>
<g id="clust3" class="cluster">
<title>cluster~/lib</title>
<path fill="none" stroke="lightgray" stroke-width="2.6" d="M134,-16C134,-16 252,-16 252,-16 258,-16 264,-22 264,-28 264,-28 264,-295 264,-295 264,-301 258,-307 252,-307 252,-307 134,-307 134,-307 128,-307 122,-301 122,-295 122,-295 122,-28 122,-28 122,-22 128,-16 134,-16"/>
<text text-anchor="middle" x="193" y="-290.65" font-family="Arial Black" font-size="13.00">lib</text>
</g>
<!-- /test/paint_model_test.dart -->
<g id="node1" class="node">
<title>/test/paint_model_test.dart</title>
<path fill="Lavender" stroke="black" stroke-width="1.3" d="M142,-359C142,-359 36,-359 36,-359 30,-359 24,-353 24,-347 24,-347 24,-335 24,-335 24,-329 30,-323 36,-323 36,-323 142,-323 142,-323 148,-323 154,-329 154,-335 154,-335 154,-347 154,-347 154,-353 148,-359 142,-359"/>
<text text-anchor="middle" x="89" y="-335.75" font-family="Arial" font-size="15.00">paint_model_test</text>
</g>
<!-- /lib/paint_model.dart -->
<g id="node4" class="node">
<title>/lib/paint_model.dart</title>
<path fill="Lavender" stroke="black" stroke-width="1.3" d="M215.5,-60C215.5,-60 142.5,-60 142.5,-60 136.5,-60 130.5,-54 130.5,-48 130.5,-48 130.5,-36 130.5,-36 130.5,-30 136.5,-24 142.5,-24 142.5,-24 215.5,-24 215.5,-24 221.5,-24 227.5,-30 227.5,-36 227.5,-36 227.5,-48 227.5,-48 227.5,-54 221.5,-60 215.5,-60"/>
<text text-anchor="middle" x="179" y="-36.75" font-family="Arial" font-size="15.00">paint_model</text>
</g>
<!-- /test/paint_model_test.dart&#45;&gt;/lib/paint_model.dart -->
<g id="edge1" class="edge">
<title>/test/paint_model_test.dart&#45;&gt;/lib/paint_model.dart</title>
<path fill="none" stroke="#aabbaa" stroke-width="1.3" stroke-opacity="0.533333" d="M89.18,-322.5C90.24,-281.08 96.69,-174.61 134,-96 138.54,-86.44 145.25,-77.21 152.11,-69.2"/>
<polygon fill="#aabbaa" fill-opacity="0.533333" stroke="#aabbaa" stroke-width="1.3" stroke-opacity="0.533333" points="154.63,-71.63 158.78,-61.88 149.46,-66.91 154.63,-71.63"/>
</g>
<!-- /test/widget_test.dart -->
<g id="node2" class="node">
<title>/test/widget_test.dart</title>
<path fill="Lavender" stroke="black" stroke-width="1.3" d="M251.88,-359C251.88,-359 184.12,-359 184.12,-359 178.12,-359 172.12,-353 172.12,-347 172.12,-347 172.12,-335 172.12,-335 172.12,-329 178.12,-323 184.12,-323 184.12,-323 251.88,-323 251.88,-323 257.88,-323 263.88,-329 263.88,-335 263.88,-335 263.88,-347 263.88,-347 263.88,-353 257.88,-359 251.88,-359"/>
<text text-anchor="middle" x="218" y="-335.75" font-family="Arial" font-size="15.00">widget_test</text>
</g>
<!-- /lib/main.dart -->
<g id="node3" class="node">
<title>/lib/main.dart</title>
<path fill="Lavender" stroke="black" stroke-width="1.3" d="M218,-276C218,-276 188,-276 188,-276 182,-276 176,-270 176,-264 176,-264 176,-252 176,-252 176,-246 182,-240 188,-240 188,-240 218,-240 218,-240 224,-240 230,-246 230,-252 230,-252 230,-264 230,-264 230,-270 224,-276 218,-276"/>
<text text-anchor="middle" x="203" y="-252.75" font-family="Arial" font-size="15.00">main</text>
</g>
<!-- /test/widget_test.dart&#45;&gt;/lib/main.dart -->
<g id="edge2" class="edge">
<title>/test/widget_test.dart&#45;&gt;/lib/main.dart</title>
<path fill="none" stroke="#aabbaa" stroke-width="1.3" stroke-opacity="0.533333" d="M214.82,-322.82C212.94,-312.69 210.52,-299.6 208.36,-287.92"/>
<polygon fill="#aabbaa" fill-opacity="0.533333" stroke="#aabbaa" stroke-width="1.3" stroke-opacity="0.533333" points="211.85,-287.56 206.59,-278.37 204.97,-288.84 211.85,-287.56"/>
</g>
<!-- /lib/main.dart&#45;&gt;/lib/paint_model.dart -->
<g id="edge4" class="edge">
<title>/lib/main.dart&#45;&gt;/lib/paint_model.dart</title>
<path fill="none" stroke="#aabbaa" stroke-width="1.3" stroke-opacity="0.533333" d="M175.76,-241.54C162.65,-232.46 148.23,-219.69 141,-204 120.59,-159.71 143.98,-103.34 162.04,-70.4"/>
<polygon fill="#aabbaa" fill-opacity="0.533333" stroke="#aabbaa" stroke-width="1.3" stroke-opacity="0.533333" points="164.98,-72.31 166.91,-61.89 158.9,-68.83 164.98,-72.31"/>
</g>
<!-- /lib/home_screen.dart -->
<g id="node6" class="node">
<title>/lib/home_screen.dart</title>
<path fill="Lavender" stroke="black" stroke-width="1.3" d="M244.38,-204C244.38,-204 161.62,-204 161.62,-204 155.62,-204 149.62,-198 149.62,-192 149.62,-192 149.62,-180 149.62,-180 149.62,-174 155.62,-168 161.62,-168 161.62,-168 244.38,-168 244.38,-168 250.38,-168 256.38,-174 256.38,-180 256.38,-180 256.38,-192 256.38,-192 256.38,-198 250.38,-204 244.38,-204"/>
<text text-anchor="middle" x="203" y="-180.75" font-family="Arial" font-size="15.00">home_screen</text>
</g>
<!-- /lib/main.dart&#45;&gt;/lib/home_screen.dart -->
<g id="edge3" class="edge">
<title>/lib/main.dart&#45;&gt;/lib/home_screen.dart</title>
<path fill="none" stroke="#aabbaa" stroke-width="1.3" stroke-opacity="0.533333" d="M203,-239.7C203,-232.49 203,-223.93 203,-215.82"/>
<polygon fill="#aabbaa" fill-opacity="0.533333" stroke="#aabbaa" stroke-width="1.3" stroke-opacity="0.533333" points="206.5,-216.07 203,-206.07 199.5,-216.07 206.5,-216.07"/>
</g>
<!-- /lib/painter.dart -->
<g id="node5" class="node">
<title>/lib/painter.dart</title>
<path fill="Lavender" stroke="black" stroke-width="1.3" d="M232.88,-132C232.88,-132 195.12,-132 195.12,-132 189.12,-132 183.12,-126 183.12,-120 183.12,-120 183.12,-108 183.12,-108 183.12,-102 189.12,-96 195.12,-96 195.12,-96 232.88,-96 232.88,-96 238.88,-96 244.88,-102 244.88,-108 244.88,-108 244.88,-120 244.88,-120 244.88,-126 238.88,-132 232.88,-132"/>
<text text-anchor="middle" x="214" y="-108.75" font-family="Arial" font-size="15.00">painter</text>
</g>
<!-- /lib/painter.dart&#45;&gt;/lib/paint_model.dart -->
<g id="edge5" class="edge">
<title>/lib/painter.dart&#45;&gt;/lib/paint_model.dart</title>
<path fill="none" stroke="#aabbaa" stroke-width="1.3" stroke-opacity="0.533333" d="M205.35,-95.7C201.58,-88.15 197.06,-79.12 192.84,-70.68"/>
<polygon fill="#aabbaa" fill-opacity="0.533333" stroke="#aabbaa" stroke-width="1.3" stroke-opacity="0.533333" points="196.03,-69.24 188.43,-61.86 189.77,-72.37 196.03,-69.24"/>
</g>
<!-- /lib/home_screen.dart&#45;&gt;/lib/paint_model.dart -->
<g id="edge6" class="edge">
<title>/lib/home_screen.dart&#45;&gt;/lib/paint_model.dart</title>
<path fill="none" stroke="#aabbaa" stroke-width="1.3" stroke-opacity="0.533333" d="M190.69,-167.78C184.35,-157.84 177.27,-144.8 174,-132 169,-112.45 170.39,-89.74 172.96,-72.15"/>
<polygon fill="#aabbaa" fill-opacity="0.533333" stroke="#aabbaa" stroke-width="1.3" stroke-opacity="0.533333" points="176.41,-72.75 174.63,-62.3 169.5,-71.57 176.41,-72.75"/>
</g>
<!-- /lib/home_screen.dart&#45;&gt;/lib/painter.dart -->
<g id="edge7" class="edge">
<title>/lib/home_screen.dart&#45;&gt;/lib/painter.dart</title>
<path fill="none" stroke="#aabbaa" stroke-width="1.3" stroke-opacity="0.533333" d="M205.72,-167.7C206.85,-160.49 208.2,-151.93 209.47,-143.82"/>
<polygon fill="#aabbaa" fill-opacity="0.533333" stroke="#aabbaa" stroke-width="1.3" stroke-opacity="0.533333" points="212.91,-144.47 211.01,-134.05 206,-143.38 212.91,-144.47"/>
</g>
</g>
</svg>
