<?xml version="1.0" encoding="UTF-8" standalone="no"?>
<!DOCTYPE svg PUBLIC "-//W3C//DTD SVG 1.1//EN"
 "http://www.w3.org/Graphics/SVG/1.1/DTD/svg11.dtd">
<!-- Generated by graphviz version 12.2.1 (20241206.2353)
 -->
<!-- Pages: 1 -->
<svg width="3312pt" height="850pt"
 viewBox="0.00 0.00 3312.00 850.00" xmlns="http://www.w3.org/2000/svg" xmlns:xlink="http://www.w3.org/1999/xlink">
<g id="graph0" class="graph" transform="scale(1 1) rotate(0) translate(4 846)">
<polygon fill="white" stroke="none" points="-4,4 -4,-846 3308,-846 3308,4 -4,4"/>
<g id="clust1" class="cluster">
<title>cluster~</title>
<path fill="none" stroke="lightgray" stroke-width="2.6" d="M20,-8C20,-8 3284,-8 3284,-8 3290,-8 3296,-14 3296,-20 3296,-20 3296,-822 3296,-822 3296,-828 3290,-834 3284,-834 3284,-834 20,-834 20,-834 14,-834 8,-828 8,-822 8,-822 8,-20 8,-20 8,-14 14,-8 20,-8"/>
<text text-anchor="middle" x="1652" y="-817.65" font-family="Arial Black" font-size="13.00">fpaint</text>
</g>
<g id="clust2" class="cluster">
<title>cluster~/test</title>
<path fill="none" stroke="lightgray" stroke-width="2.6" d="M28,-650C28,-650 785,-650 785,-650 791,-650 797,-656 797,-662 797,-662 797,-791 797,-791 797,-797 791,-803 785,-803 785,-803 28,-803 28,-803 22,-803 16,-797 16,-791 16,-791 16,-662 16,-662 16,-656 22,-650 28,-650"/>
<text text-anchor="middle" x="406.5" y="-786.65" font-family="Arial Black" font-size="13.00">test</text>
</g>
<g id="clust3" class="cluster">
<title>cluster~/test/panels</title>
<path fill="none" stroke="lightgray" stroke-width="2.6" d="M303,-658C303,-658 415,-658 415,-658 421,-658 427,-664 427,-670 427,-670 427,-760 427,-760 427,-766 421,-772 415,-772 415,-772 303,-772 303,-772 297,-772 291,-766 291,-760 291,-760 291,-670 291,-670 291,-664 297,-658 303,-658"/>
<text text-anchor="middle" x="359" y="-755.65" font-family="Arial Black" font-size="13.00">panels</text>
</g>
<g id="clust4" class="cluster">
<title>cluster~/test/panels/tools</title>
<path fill="none" stroke="lightgray" stroke-width="2.6" d="M311,-666C311,-666 407,-666 407,-666 413,-666 419,-672 419,-678 419,-678 419,-729 419,-729 419,-735 413,-741 407,-741 407,-741 311,-741 311,-741 305,-741 299,-735 299,-729 299,-729 299,-678 299,-678 299,-672 305,-666 311,-666"/>
<text text-anchor="middle" x="359" y="-724.65" font-family="Arial Black" font-size="13.00">tools</text>
</g>
<g id="clust5" class="cluster">
<title>cluster~/test/models</title>
<path fill="none" stroke="lightgray" stroke-width="2.6" d="M36,-666C36,-666 172,-666 172,-666 178,-666 184,-672 184,-678 184,-678 184,-729 184,-729 184,-735 178,-741 172,-741 172,-741 36,-741 36,-741 30,-741 24,-735 24,-729 24,-729 24,-678 24,-678 24,-672 30,-666 36,-666"/>
<text text-anchor="middle" x="104" y="-724.65" font-family="Arial Black" font-size="13.00">models</text>
</g>
<g id="clust6" class="cluster">
<title>cluster~/lib</title>
<path fill="none" stroke="lightgray" stroke-width="2.6" d="M60,-16C60,-16 3272,-16 3272,-16 3278,-16 3284,-22 3284,-28 3284,-28 3284,-630 3284,-630 3284,-636 3278,-642 3272,-642 3272,-642 60,-642 60,-642 54,-642 48,-636 48,-630 48,-630 48,-28 48,-28 48,-22 54,-16 60,-16"/>
<text text-anchor="middle" x="1666" y="-625.65" font-family="Arial Black" font-size="13.00">lib</text>
</g>
<g id="clust7" class="cluster">
<title>cluster~/lib/panels</title>
<path fill="none" stroke="lightgray" stroke-width="2.6" d="M344,-179C344,-179 1150,-179 1150,-179 1156,-179 1162,-185 1162,-191 1162,-191 1162,-483 1162,-483 1162,-489 1156,-495 1150,-495 1150,-495 344,-495 344,-495 338,-495 332,-489 332,-483 332,-483 332,-191 332,-191 332,-185 338,-179 344,-179"/>
<text text-anchor="middle" x="747" y="-478.65" font-family="Arial Black" font-size="13.00">panels</text>
</g>
<g id="clust8" class="cluster">
<title>cluster~/lib/panels/tools</title>
<path fill="none" stroke="lightgray" stroke-width="2.6" d="M870,-270C870,-270 1142,-270 1142,-270 1148,-270 1154,-276 1154,-282 1154,-282 1154,-408 1154,-408 1154,-414 1148,-420 1142,-420 1142,-420 870,-420 870,-420 864,-420 858,-414 858,-408 858,-408 858,-282 858,-282 858,-276 864,-270 870,-270"/>
<text text-anchor="middle" x="1006" y="-403.65" font-family="Arial Black" font-size="13.00">tools</text>
</g>
<g id="clust9" class="cluster">
<title>cluster~/lib/panels/layers</title>
<path fill="none" stroke="lightgray" stroke-width="2.6" d="M468,-187C468,-187 632,-187 632,-187 638,-187 644,-193 644,-199 644,-199 644,-408 644,-408 644,-414 638,-420 632,-420 632,-420 468,-420 468,-420 462,-420 456,-414 456,-408 456,-408 456,-199 456,-199 456,-193 462,-187 468,-187"/>
<text text-anchor="middle" x="550" y="-403.65" font-family="Arial Black" font-size="13.00">layers</text>
</g>
<g id="clust10" class="cluster">
<title>cluster~/lib/models</title>
<path fill="none" stroke="lightgray" stroke-width="2.6" d="M76,-24C76,-24 310,-24 310,-24 316,-24 322,-30 322,-36 322,-36 322,-333 322,-333 322,-339 316,-345 310,-345 310,-345 76,-345 76,-345 70,-345 64,-339 64,-333 64,-333 64,-36 64,-36 64,-30 70,-24 76,-24"/>
<text text-anchor="middle" x="193" y="-328.65" font-family="Arial Black" font-size="13.00">models</text>
</g>
<g id="clust11" class="cluster">
<title>cluster~/lib/files</title>
<path fill="none" stroke="lightgray" stroke-width="2.6" d="M2476,-187C2476,-187 3264,-187 3264,-187 3270,-187 3276,-193 3276,-199 3276,-199 3276,-333 3276,-333 3276,-339 3270,-345 3264,-345 3264,-345 2476,-345 2476,-345 2470,-345 2464,-339 2464,-333 2464,-333 2464,-199 2464,-199 2464,-193 2470,-187 2476,-187"/>
<text text-anchor="middle" x="2870" y="-328.65" font-family="Arial Black" font-size="13.00">files</text>
</g>
<g id="clust12" class="cluster">
<title>cluster~/lib/helpers</title>
<path fill="none" stroke="lightgray" stroke-width="2.6" d="M1132,-24C1132,-24 1222,-24 1222,-24 1228,-24 1234,-30 1234,-36 1234,-36 1234,-159 1234,-159 1234,-165 1228,-171 1222,-171 1222,-171 1132,-171 1132,-171 1126,-171 1120,-165 1120,-159 1120,-159 1120,-36 1120,-36 1120,-30 1126,-24 1132,-24"/>
<text text-anchor="middle" x="1177" y="-154.65" font-family="Arial Black" font-size="13.00">helpers</text>
</g>
<g id="clust13" class="cluster">
<title>cluster~/lib/widgets</title>
<path fill="none" stroke="lightgray" stroke-width="2.6" d="M1254,-96C1254,-96 2444,-96 2444,-96 2450,-96 2456,-102 2456,-108 2456,-108 2456,-250 2456,-250 2456,-256 2450,-262 2444,-262 2444,-262 1254,-262 1254,-262 1248,-262 1242,-256 1242,-250 1242,-250 1242,-108 1242,-108 1242,-102 1248,-96 1254,-96"/>
<text text-anchor="middle" x="1849" y="-245.65" font-family="Arial Black" font-size="13.00">widgets</text>
</g>
<!-- /test/paint_model_test.dart -->
<g id="node1" class="node">
<title>/test/paint_model_test.dart</title>
<path fill="Lavender" stroke="black" stroke-width="1.3" d="M777,-710C777,-710 671,-710 671,-710 665,-710 659,-704 659,-698 659,-698 659,-686 659,-686 659,-680 665,-674 671,-674 671,-674 777,-674 777,-674 783,-674 789,-680 789,-686 789,-686 789,-698 789,-698 789,-704 783,-710 777,-710"/>
<text text-anchor="middle" x="724" y="-686.75" font-family="Arial" font-size="15.00">paint_model_test</text>
</g>
<!-- /lib/models/app_model.dart -->
<g id="node24" class="node">
<title>/lib/models/app_model.dart</title>
<path fill="Lavender" stroke="black" stroke-width="1.3" d="M190.75,-140C190.75,-140 125.25,-140 125.25,-140 119.25,-140 113.25,-134 113.25,-128 113.25,-128 113.25,-116 113.25,-116 113.25,-110 119.25,-104 125.25,-104 125.25,-104 190.75,-104 190.75,-104 196.75,-104 202.75,-110 202.75,-116 202.75,-116 202.75,-128 202.75,-128 202.75,-134 196.75,-140 190.75,-140"/>
<text text-anchor="middle" x="158" y="-116.75" font-family="Arial" font-size="15.00">app_model</text>
</g>
<!-- /test/paint_model_test.dart&#45;&gt;/lib/models/app_model.dart -->
<g id="edge1" class="edge">
<title>/test/paint_model_test.dart&#45;&gt;/lib/models/app_model.dart</title>
<path fill="none" stroke="#aabbaa" stroke-width="1.3" stroke-opacity="0.533333" d="M789.28,-690.21C1188.84,-684.94 3287,-651.11 3287,-522 3287,-522 3287,-522 3287,-295 3287,-243.35 3317.56,-214.45 3280,-179 3264.5,-164.37 230.88,-178.69 211,-171 199.02,-166.36 188.06,-157.63 179.26,-148.87"/>
<polygon fill="#aabbaa" fill-opacity="0.533333" stroke="#aabbaa" stroke-width="1.3" stroke-opacity="0.533333" points="181.94,-146.61 172.56,-141.69 176.82,-151.39 181.94,-146.61"/>
</g>
<!-- /test/panels/tools/flood_fill_test.dart -->
<g id="node2" class="node">
<title>/test/panels/tools/flood_fill_test.dart</title>
<path fill="Lavender" stroke="black" stroke-width="1.3" d="M398.5,-710C398.5,-710 319.5,-710 319.5,-710 313.5,-710 307.5,-704 307.5,-698 307.5,-698 307.5,-686 307.5,-686 307.5,-680 313.5,-674 319.5,-674 319.5,-674 398.5,-674 398.5,-674 404.5,-674 410.5,-680 410.5,-686 410.5,-686 410.5,-698 410.5,-698 410.5,-704 404.5,-710 398.5,-710"/>
<text text-anchor="middle" x="359" y="-686.75" font-family="Arial" font-size="15.00">flood_fill_test</text>
</g>
<!-- /lib/panels/tools/flood_fill.dart -->
<g id="node9" class="node">
<title>/lib/panels/tools/flood_fill.dart</title>
<path fill="Lavender" stroke="black" stroke-width="1.3" d="M924,-389C924,-389 878,-389 878,-389 872,-389 866,-383 866,-377 866,-377 866,-365 866,-365 866,-359 872,-353 878,-353 878,-353 924,-353 924,-353 930,-353 936,-359 936,-365 936,-365 936,-377 936,-377 936,-383 930,-389 924,-389"/>
<text text-anchor="middle" x="901" y="-365.75" font-family="Arial" font-size="15.00">flood_fill</text>
</g>
<!-- /test/panels/tools/flood_fill_test.dart&#45;&gt;/lib/panels/tools/flood_fill.dart -->
<g id="edge2" class="edge">
<title>/test/panels/tools/flood_fill_test.dart&#45;&gt;/lib/panels/tools/flood_fill.dart</title>
<path fill="none" stroke="#aabbaa" stroke-width="1.3" stroke-opacity="0.533333" d="M341.81,-673.87C331.7,-664.99 318.16,-654.98 304,-650 292.36,-645.9 90.57,-650.88 82,-642 39.11,-597.54 45.23,-552.65 82,-503 150.03,-411.14 215.17,-446.26 328,-428 398.22,-416.63 577.27,-427.54 648,-420 720.64,-412.25 803.62,-394.84 854.15,-383.26"/>
<polygon fill="#aabbaa" fill-opacity="0.533333" stroke="#aabbaa" stroke-width="1.3" stroke-opacity="0.533333" points="854.79,-386.7 863.74,-381.04 853.21,-379.88 854.79,-386.7"/>
</g>
<!-- /test/models/canvas_resize_test.dart -->
<g id="node3" class="node">
<title>/test/models/canvas_resize_test.dart</title>
<path fill="Lavender" stroke="black" stroke-width="1.3" d="M164.12,-710C164.12,-710 43.87,-710 43.87,-710 37.88,-710 31.88,-704 31.88,-698 31.88,-698 31.88,-686 31.88,-686 31.88,-680 37.88,-674 43.88,-674 43.88,-674 164.12,-674 164.12,-674 170.12,-674 176.12,-680 176.12,-686 176.12,-686 176.12,-698 176.12,-698 176.12,-704 170.12,-710 164.12,-710"/>
<text text-anchor="middle" x="104" y="-686.75" font-family="Arial" font-size="15.00">canvas_resize_test</text>
</g>
<!-- /lib/models/canvas_resize.dart -->
<g id="node22" class="node">
<title>/lib/models/canvas_resize.dart</title>
<path fill="Lavender" stroke="black" stroke-width="1.3" d="M171.62,-68C171.62,-68 84.38,-68 84.38,-68 78.38,-68 72.38,-62 72.38,-56 72.38,-56 72.38,-44 72.38,-44 72.38,-38 78.38,-32 84.38,-32 84.38,-32 171.62,-32 171.62,-32 177.62,-32 183.62,-38 183.62,-44 183.62,-44 183.62,-56 183.62,-56 183.62,-62 177.62,-68 171.62,-68"/>
<text text-anchor="middle" x="128" y="-44.75" font-family="Arial" font-size="15.00">canvas_resize</text>
</g>
<!-- /test/models/canvas_resize_test.dart&#45;&gt;/lib/models/canvas_resize.dart -->
<g id="edge3" class="edge">
<title>/test/models/canvas_resize_test.dart&#45;&gt;/lib/models/canvas_resize.dart</title>
<path fill="none" stroke="#aabbaa" stroke-width="1.3" stroke-opacity="0.533333" d="M57.49,-673.54C43.71,-665.99 30.14,-655.68 22,-642 -5.3,-596.13 17,-575.38 17,-522 17,-522 17,-522 17,-212 17,-155.68 63.62,-104.74 96.43,-75.86"/>
<polygon fill="#aabbaa" fill-opacity="0.533333" stroke="#aabbaa" stroke-width="1.3" stroke-opacity="0.533333" points="98.44,-78.75 103.77,-69.59 93.9,-73.42 98.44,-78.75"/>
</g>
<!-- /test/widget_test.dart -->
<g id="node4" class="node">
<title>/test/widget_test.dart</title>
<path fill="Lavender" stroke="black" stroke-width="1.3" d="M628.88,-710C628.88,-710 561.12,-710 561.12,-710 555.12,-710 549.12,-704 549.12,-698 549.12,-698 549.12,-686 549.12,-686 549.12,-680 555.12,-674 561.12,-674 561.12,-674 628.88,-674 628.88,-674 634.88,-674 640.88,-680 640.88,-686 640.88,-686 640.88,-698 640.88,-698 640.88,-704 634.88,-710 628.88,-710"/>
<text text-anchor="middle" x="595" y="-686.75" font-family="Arial" font-size="15.00">widget_test</text>
</g>
<!-- /lib/main.dart -->
<g id="node26" class="node">
<title>/lib/main.dart</title>
<path fill="Lavender" stroke="black" stroke-width="1.3" d="M401,-611C401,-611 371,-611 371,-611 365,-611 359,-605 359,-599 359,-599 359,-587 359,-587 359,-581 365,-575 371,-575 371,-575 401,-575 401,-575 407,-575 413,-581 413,-587 413,-587 413,-599 413,-599 413,-605 407,-611 401,-611"/>
<text text-anchor="middle" x="386" y="-587.75" font-family="Arial" font-size="15.00">main</text>
</g>
<!-- /test/widget_test.dart&#45;&gt;/lib/main.dart -->
<g id="edge4" class="edge">
<title>/test/widget_test.dart&#45;&gt;/lib/main.dart</title>
<path fill="none" stroke="#aabbaa" stroke-width="1.3" stroke-opacity="0.533333" d="M574.55,-673.51C564.59,-665.59 552.16,-656.56 540,-650 502.65,-629.85 456.53,-614.17 424.55,-604.59"/>
<polygon fill="#aabbaa" fill-opacity="0.533333" stroke="#aabbaa" stroke-width="1.3" stroke-opacity="0.533333" points="425.92,-601.34 415.34,-601.89 423.95,-608.06 425.92,-601.34"/>
</g>
<!-- /test/file_xcf_test.dart -->
<g id="node5" class="node">
<title>/test/file_xcf_test.dart</title>
<path fill="Lavender" stroke="black" stroke-width="1.3" d="M518.75,-710C518.75,-710 447.25,-710 447.25,-710 441.25,-710 435.25,-704 435.25,-698 435.25,-698 435.25,-686 435.25,-686 435.25,-680 441.25,-674 447.25,-674 447.25,-674 518.75,-674 518.75,-674 524.75,-674 530.75,-680 530.75,-686 530.75,-686 530.75,-698 530.75,-698 530.75,-704 524.75,-710 518.75,-710"/>
<text text-anchor="middle" x="483" y="-686.75" font-family="Arial" font-size="15.00">file_xcf_test</text>
</g>
<!-- /lib/files/xcf_reader.dart -->
<g id="node27" class="node">
<title>/lib/files/xcf_reader.dart</title>
<path fill="Lavender" stroke="black" stroke-width="1.3" d="M3255.62,-314C3255.62,-314 3192.38,-314 3192.38,-314 3186.38,-314 3180.38,-308 3180.38,-302 3180.38,-302 3180.38,-290 3180.38,-290 3180.38,-284 3186.38,-278 3192.38,-278 3192.38,-278 3255.62,-278 3255.62,-278 3261.62,-278 3267.62,-284 3267.62,-290 3267.62,-290 3267.62,-302 3267.62,-302 3267.62,-308 3261.62,-314 3255.62,-314"/>
<text text-anchor="middle" x="3224" y="-290.75" font-family="Arial" font-size="15.00">xcf_reader</text>
</g>
<!-- /test/file_xcf_test.dart&#45;&gt;/lib/files/xcf_reader.dart -->
<g id="edge6" class="edge">
<title>/test/file_xcf_test.dart&#45;&gt;/lib/files/xcf_reader.dart</title>
<path fill="none" stroke="#aabbaa" stroke-width="1.3" stroke-opacity="0.533333" d="M500.87,-673.69C511.36,-664.75 525.39,-654.75 540,-650 561.83,-642.9 2176.47,-657.93 2193,-642 2231.43,-604.96 2198,-575.38 2198,-522 2198,-522 2198,-522 2198,-445 2198,-336.21 3072.84,-389.74 3172,-345 3183.3,-339.9 3193.78,-331.36 3202.32,-322.88"/>
<polygon fill="#aabbaa" fill-opacity="0.533333" stroke="#aabbaa" stroke-width="1.3" stroke-opacity="0.533333" points="3204.82,-325.34 3209.13,-315.66 3199.72,-320.54 3204.82,-325.34"/>
</g>
<!-- /lib/files/assets_helper.dart -->
<g id="node28" class="node">
<title>/lib/files/assets_helper.dart</title>
<path fill="Lavender" stroke="black" stroke-width="1.3" d="M2569.5,-314C2569.5,-314 2484.5,-314 2484.5,-314 2478.5,-314 2472.5,-308 2472.5,-302 2472.5,-302 2472.5,-290 2472.5,-290 2472.5,-284 2478.5,-278 2484.5,-278 2484.5,-278 2569.5,-278 2569.5,-278 2575.5,-278 2581.5,-284 2581.5,-290 2581.5,-290 2581.5,-302 2581.5,-302 2581.5,-308 2575.5,-314 2569.5,-314"/>
<text text-anchor="middle" x="2527" y="-290.75" font-family="Arial" font-size="15.00">assets_helper</text>
</g>
<!-- /test/file_xcf_test.dart&#45;&gt;/lib/files/assets_helper.dart -->
<g id="edge5" class="edge">
<title>/test/file_xcf_test.dart&#45;&gt;/lib/files/assets_helper.dart</title>
<path fill="none" stroke="#aabbaa" stroke-width="1.3" stroke-opacity="0.533333" d="M463.74,-673.57C452.67,-664.71 438.01,-654.82 423,-650 403.9,-643.87 76.32,-656.05 62,-642 23.89,-604.62 57,-575.38 57,-522 57,-522 57,-522 57,-445 57,-423.61 64.34,-394.43 452,-353 530.01,-344.66 1079.57,-346.82 1158,-345 1658.69,-333.39 2262.03,-308.4 2460.32,-299.9"/>
<polygon fill="#aabbaa" fill-opacity="0.533333" stroke="#aabbaa" stroke-width="1.3" stroke-opacity="0.533333" points="2460.43,-303.4 2470.27,-299.47 2460.13,-296.4 2460.43,-303.4"/>
</g>
<!-- /test/layers_test.dart -->
<g id="node6" class="node">
<title>/test/layers_test.dart</title>
<path fill="Lavender" stroke="black" stroke-width="1.3" d="M271.38,-710C271.38,-710 206.62,-710 206.62,-710 200.62,-710 194.62,-704 194.62,-698 194.62,-698 194.62,-686 194.62,-686 194.62,-680 200.62,-674 206.62,-674 206.62,-674 271.38,-674 271.38,-674 277.38,-674 283.38,-680 283.38,-686 283.38,-686 283.38,-698 283.38,-698 283.38,-704 277.38,-710 271.38,-710"/>
<text text-anchor="middle" x="239" y="-686.75" font-family="Arial" font-size="15.00">layers_test</text>
</g>
<!-- /lib/models/layer.dart -->
<g id="node25" class="node">
<title>/lib/models/layer.dart</title>
<path fill="Lavender" stroke="black" stroke-width="1.3" d="M270,-231C270,-231 240,-231 240,-231 234,-231 228,-225 228,-219 228,-219 228,-207 228,-207 228,-201 234,-195 240,-195 240,-195 270,-195 270,-195 276,-195 282,-201 282,-207 282,-207 282,-219 282,-219 282,-225 276,-231 270,-231"/>
<text text-anchor="middle" x="255" y="-207.75" font-family="Arial" font-size="15.00">layer</text>
</g>
<!-- /test/layers_test.dart&#45;&gt;/lib/models/layer.dart -->
<g id="edge7" class="edge">
<title>/test/layers_test.dart&#45;&gt;/lib/models/layer.dart</title>
<path fill="none" stroke="#aabbaa" stroke-width="1.3" stroke-opacity="0.533333" d="M222.8,-673.56C213.53,-664.82 201.15,-655.04 188,-650 172.83,-644.19 53.41,-653.56 42,-642 4.5,-604.01 37,-575.38 37,-522 37,-522 37,-522 37,-370 37,-282.78 153.85,-239.65 216.45,-222.81"/>
<polygon fill="#aabbaa" fill-opacity="0.533333" stroke="#aabbaa" stroke-width="1.3" stroke-opacity="0.533333" points="217.12,-226.25 225.93,-220.37 215.37,-219.47 217.12,-226.25"/>
</g>
<!-- /lib/panels/about.dart -->
<g id="node7" class="node">
<title>/lib/panels/about.dart</title>
<path fill="Lavender" stroke="black" stroke-width="1.3" d="M836,-314C836,-314 806,-314 806,-314 800,-314 794,-308 794,-302 794,-302 794,-290 794,-290 794,-284 800,-278 806,-278 806,-278 836,-278 836,-278 842,-278 848,-284 848,-290 848,-290 848,-302 848,-302 848,-308 842,-314 836,-314"/>
<text text-anchor="middle" x="821" y="-290.75" font-family="Arial" font-size="15.00">about</text>
</g>
<!-- /lib/panels/tools/tool_selector.dart -->
<g id="node8" class="node">
<title>/lib/panels/tools/tool_selector.dart</title>
<path fill="Lavender" stroke="black" stroke-width="1.3" d="M954.38,-314C954.38,-314 877.62,-314 877.62,-314 871.62,-314 865.62,-308 865.62,-302 865.62,-302 865.62,-290 865.62,-290 865.62,-284 871.62,-278 877.62,-278 877.62,-278 954.38,-278 954.38,-278 960.38,-278 966.38,-284 966.38,-290 966.38,-290 966.38,-302 966.38,-302 966.38,-308 960.38,-314 954.38,-314"/>
<text text-anchor="middle" x="916" y="-290.75" font-family="Arial" font-size="15.00">tool_selector</text>
</g>
<!-- /lib/panels/tools/tools_panel.dart -->
<g id="node10" class="node">
<title>/lib/panels/tools/tools_panel.dart</title>
<path fill="Lavender" stroke="black" stroke-width="1.3" d="M1133.88,-389C1133.88,-389 1066.12,-389 1066.12,-389 1060.12,-389 1054.12,-383 1054.12,-377 1054.12,-377 1054.12,-365 1054.12,-365 1054.12,-359 1060.12,-353 1066.12,-353 1066.12,-353 1133.88,-353 1133.88,-353 1139.88,-353 1145.88,-359 1145.88,-365 1145.88,-365 1145.88,-377 1145.88,-377 1145.88,-383 1139.88,-389 1133.88,-389"/>
<text text-anchor="middle" x="1100" y="-365.75" font-family="Arial" font-size="15.00">tools_panel</text>
</g>
<!-- /lib/panels/tools/tools_panel.dart&#45;&gt;/lib/panels/tools/tool_selector.dart -->
<g id="edge10" class="edge">
<title>/lib/panels/tools/tools_panel.dart&#45;&gt;/lib/panels/tools/tool_selector.dart</title>
<path fill="none" stroke="#aabbaa" stroke-width="1.3" stroke-opacity="0.533333" d="M1053.78,-366.16C1029.44,-362.82 999.63,-356.6 975,-345 962.87,-339.29 951.08,-330.55 941.27,-322.09"/>
<polygon fill="#aabbaa" fill-opacity="0.533333" stroke="#aabbaa" stroke-width="1.3" stroke-opacity="0.533333" points="943.74,-319.61 933.98,-315.5 939.04,-324.8 943.74,-319.61"/>
</g>
<!-- /lib/panels/tools/tool_attributes_widget.dart -->
<g id="node11" class="node">
<title>/lib/panels/tools/tool_attributes_widget.dart</title>
<path fill="Lavender" stroke="black" stroke-width="1.3" d="M1133.75,-314C1133.75,-314 996.25,-314 996.25,-314 990.25,-314 984.25,-308 984.25,-302 984.25,-302 984.25,-290 984.25,-290 984.25,-284 990.25,-278 996.25,-278 996.25,-278 1133.75,-278 1133.75,-278 1139.75,-278 1145.75,-284 1145.75,-290 1145.75,-290 1145.75,-302 1145.75,-302 1145.75,-308 1139.75,-314 1133.75,-314"/>
<text text-anchor="middle" x="1065" y="-290.75" font-family="Arial" font-size="15.00">tool_attributes_widget</text>
</g>
<!-- /lib/panels/tools/tools_panel.dart&#45;&gt;/lib/panels/tools/tool_attributes_widget.dart -->
<g id="edge9" class="edge">
<title>/lib/panels/tools/tools_panel.dart&#45;&gt;/lib/panels/tools/tool_attributes_widget.dart</title>
<path fill="none" stroke="#aabbaa" stroke-width="1.3" stroke-opacity="0.533333" d="M1091.71,-352.7C1087.77,-344.49 1082.96,-334.46 1078.52,-325.19"/>
<polygon fill="#aabbaa" fill-opacity="0.533333" stroke="#aabbaa" stroke-width="1.3" stroke-opacity="0.533333" points="1081.69,-323.71 1074.21,-316.2 1075.37,-326.73 1081.69,-323.71"/>
</g>
<!-- /lib/panels/tools/tools_panel.dart&#45;&gt;/lib/models/app_model.dart -->
<g id="edge8" class="edge">
<title>/lib/panels/tools/tools_panel.dart&#45;&gt;/lib/models/app_model.dart</title>
<path fill="none" stroke="#aabbaa" stroke-width="1.3" stroke-opacity="0.533333" d="M1146.29,-354.37C1149.68,-351.71 1152.67,-348.62 1155,-345 1173.05,-316.97 1176.93,-295.1 1155,-270 1137.59,-250.07 1114.57,-280.85 1096,-262 1069.92,-235.53 1113.69,-203.78 1086,-179 1067.89,-162.79 233.64,-179.85 211,-171 199.03,-166.32 188.08,-157.58 179.28,-148.83"/>
<polygon fill="#aabbaa" fill-opacity="0.533333" stroke="#aabbaa" stroke-width="1.3" stroke-opacity="0.533333" points="181.96,-146.57 172.57,-141.66 176.84,-151.35 181.96,-146.57"/>
</g>
<!-- /lib/widgets/svg_icon.dart -->
<g id="node38" class="node">
<title>/lib/widgets/svg_icon.dart</title>
<path fill="Lavender" stroke="black" stroke-width="1.3" d="M2138.25,-231C2138.25,-231 2087.75,-231 2087.75,-231 2081.75,-231 2075.75,-225 2075.75,-219 2075.75,-219 2075.75,-207 2075.75,-207 2075.75,-201 2081.75,-195 2087.75,-195 2087.75,-195 2138.25,-195 2138.25,-195 2144.25,-195 2150.25,-201 2150.25,-207 2150.25,-207 2150.25,-219 2150.25,-219 2150.25,-225 2144.25,-231 2138.25,-231"/>
<text text-anchor="middle" x="2113" y="-207.75" font-family="Arial" font-size="15.00">svg_icon</text>
</g>
<!-- /lib/panels/tools/tools_panel.dart&#45;&gt;/lib/widgets/svg_icon.dart -->
<g id="edge13" class="edge">
<title>/lib/panels/tools/tools_panel.dart&#45;&gt;/lib/widgets/svg_icon.dart</title>
<path fill="none" stroke="#aabbaa" stroke-width="1.3" stroke-opacity="0.533333" d="M1146.26,-369.28C1316.13,-365.96 1904.13,-348.33 2067,-262 2076.93,-256.74 2085.96,-248.53 2093.34,-240.39"/>
<polygon fill="#aabbaa" fill-opacity="0.533333" stroke="#aabbaa" stroke-width="1.3" stroke-opacity="0.533333" points="2095.89,-242.79 2099.66,-232.88 2090.54,-238.28 2095.89,-242.79"/>
</g>
<!-- /lib/widgets/brush_size_picker.dart -->
<g id="node41" class="node">
<title>/lib/widgets/brush_size_picker.dart</title>
<path fill="Lavender" stroke="black" stroke-width="1.3" d="M2292,-231C2292,-231 2180,-231 2180,-231 2174,-231 2168,-225 2168,-219 2168,-219 2168,-207 2168,-207 2168,-201 2174,-195 2180,-195 2180,-195 2292,-195 2292,-195 2298,-195 2304,-201 2304,-207 2304,-207 2304,-219 2304,-219 2304,-225 2298,-231 2292,-231"/>
<text text-anchor="middle" x="2236" y="-207.75" font-family="Arial" font-size="15.00">brush_size_picker</text>
</g>
<!-- /lib/panels/tools/tools_panel.dart&#45;&gt;/lib/widgets/brush_size_picker.dart -->
<g id="edge11" class="edge">
<title>/lib/panels/tools/tools_panel.dart&#45;&gt;/lib/widgets/brush_size_picker.dart</title>
<path fill="none" stroke="#aabbaa" stroke-width="1.3" stroke-opacity="0.533333" d="M1146.12,-369.83C1287.2,-369.09 1711.6,-365.21 1848,-345 1989.51,-324.03 2027.75,-318.91 2159,-262 2173.94,-255.52 2189.37,-246.45 2202.46,-237.93"/>
<polygon fill="#aabbaa" fill-opacity="0.533333" stroke="#aabbaa" stroke-width="1.3" stroke-opacity="0.533333" points="2204.39,-240.85 2210.76,-232.38 2200.5,-235.03 2204.39,-240.85"/>
</g>
<!-- /lib/widgets/tolerance_picker.dart -->
<g id="node43" class="node">
<title>/lib/widgets/tolerance_picker.dart</title>
<path fill="Lavender" stroke="black" stroke-width="1.3" d="M2435.75,-231C2435.75,-231 2334.25,-231 2334.25,-231 2328.25,-231 2322.25,-225 2322.25,-219 2322.25,-219 2322.25,-207 2322.25,-207 2322.25,-201 2328.25,-195 2334.25,-195 2334.25,-195 2435.75,-195 2435.75,-195 2441.75,-195 2447.75,-201 2447.75,-207 2447.75,-207 2447.75,-219 2447.75,-219 2447.75,-225 2441.75,-231 2435.75,-231"/>
<text text-anchor="middle" x="2385" y="-207.75" font-family="Arial" font-size="15.00">tolerance_picker</text>
</g>
<!-- /lib/panels/tools/tools_panel.dart&#45;&gt;/lib/widgets/tolerance_picker.dart -->
<g id="edge14" class="edge">
<title>/lib/panels/tools/tools_panel.dart&#45;&gt;/lib/widgets/tolerance_picker.dart</title>
<path fill="none" stroke="#aabbaa" stroke-width="1.3" stroke-opacity="0.533333" d="M1146.1,-370.11C1305.15,-370.26 1830.26,-368.9 1997,-345 2140.74,-324.4 2180.56,-321.53 2313,-262 2327.02,-255.7 2341.34,-246.76 2353.48,-238.31"/>
<polygon fill="#aabbaa" fill-opacity="0.533333" stroke="#aabbaa" stroke-width="1.3" stroke-opacity="0.533333" points="2355.43,-241.21 2361.51,-232.53 2351.34,-235.53 2355.43,-241.21"/>
</g>
<!-- /lib/widgets/color_picker.dart -->
<g id="node47" class="node">
<title>/lib/widgets/color_picker.dart</title>
<path fill="Lavender" stroke="black" stroke-width="1.3" d="M2046.12,-231C2046.12,-231 1973.88,-231 1973.88,-231 1967.88,-231 1961.88,-225 1961.88,-219 1961.88,-219 1961.88,-207 1961.88,-207 1961.88,-201 1967.88,-195 1973.88,-195 1973.88,-195 2046.12,-195 2046.12,-195 2052.12,-195 2058.12,-201 2058.12,-207 2058.12,-207 2058.12,-219 2058.12,-219 2058.12,-225 2052.12,-231 2046.12,-231"/>
<text text-anchor="middle" x="2010" y="-207.75" font-family="Arial" font-size="15.00">color_picker</text>
</g>
<!-- /lib/panels/tools/tools_panel.dart&#45;&gt;/lib/widgets/color_picker.dart -->
<g id="edge12" class="edge">
<title>/lib/panels/tools/tools_panel.dart&#45;&gt;/lib/widgets/color_picker.dart</title>
<path fill="none" stroke="#aabbaa" stroke-width="1.3" stroke-opacity="0.533333" d="M1146.18,-363.19C1264.59,-345.88 1588.78,-299.49 1860,-270 1880.62,-267.76 1933.84,-269.94 1953,-262 1965.32,-256.9 1976.96,-248.12 1986.47,-239.46"/>
<polygon fill="#aabbaa" fill-opacity="0.533333" stroke="#aabbaa" stroke-width="1.3" stroke-opacity="0.533333" points="1988.72,-242.15 1993.47,-232.68 1983.85,-237.12 1988.72,-242.15"/>
</g>
<!-- /lib/helpers/color_helper.dart -->
<g id="node37" class="node">
<title>/lib/helpers/color_helper.dart</title>
<path fill="Lavender" stroke="black" stroke-width="1.3" d="M1213.88,-140C1213.88,-140 1140.12,-140 1140.12,-140 1134.12,-140 1128.12,-134 1128.12,-128 1128.12,-128 1128.12,-116 1128.12,-116 1128.12,-110 1134.12,-104 1140.12,-104 1140.12,-104 1213.88,-104 1213.88,-104 1219.88,-104 1225.88,-110 1225.88,-116 1225.88,-116 1225.88,-128 1225.88,-128 1225.88,-134 1219.88,-140 1213.88,-140"/>
<text text-anchor="middle" x="1177" y="-116.75" font-family="Arial" font-size="15.00">color_helper</text>
</g>
<!-- /lib/panels/tools/tool_attributes_widget.dart&#45;&gt;/lib/helpers/color_helper.dart -->
<g id="edge15" class="edge">
<title>/lib/panels/tools/tool_attributes_widget.dart&#45;&gt;/lib/helpers/color_helper.dart</title>
<path fill="none" stroke="#aabbaa" stroke-width="1.3" stroke-opacity="0.533333" d="M1090.05,-277.77C1095.75,-273.09 1101.45,-267.72 1106,-262 1131.46,-229.93 1127.19,-215.37 1146,-179 1150.86,-169.6 1156.4,-159.44 1161.44,-150.39"/>
<polygon fill="#aabbaa" fill-opacity="0.533333" stroke="#aabbaa" stroke-width="1.3" stroke-opacity="0.533333" points="1164.45,-152.17 1166.29,-141.74 1158.34,-148.75 1164.45,-152.17"/>
</g>
<!-- /lib/widgets/transparent_background.dart -->
<g id="node42" class="node">
<title>/lib/widgets/transparent_background.dart</title>
<path fill="Lavender" stroke="black" stroke-width="1.3" d="M1416.38,-140C1416.38,-140 1261.62,-140 1261.62,-140 1255.62,-140 1249.62,-134 1249.62,-128 1249.62,-128 1249.62,-116 1249.62,-116 1249.62,-110 1255.62,-104 1261.62,-104 1261.62,-104 1416.38,-104 1416.38,-104 1422.38,-104 1428.38,-110 1428.38,-116 1428.38,-116 1428.38,-128 1428.38,-128 1428.38,-134 1422.38,-140 1416.38,-140"/>
<text text-anchor="middle" x="1339" y="-116.75" font-family="Arial" font-size="15.00">transparent_background</text>
</g>
<!-- /lib/panels/tools/tool_attributes_widget.dart&#45;&gt;/lib/widgets/transparent_background.dart -->
<g id="edge16" class="edge">
<title>/lib/panels/tools/tool_attributes_widget.dart&#45;&gt;/lib/widgets/transparent_background.dart</title>
<path fill="none" stroke="#aabbaa" stroke-width="1.3" stroke-opacity="0.533333" d="M1106.76,-277.53C1116.58,-272.9 1126.84,-267.61 1136,-262 1187.02,-230.74 1192.41,-212.49 1242,-179 1259.22,-167.37 1278.95,-155.7 1296.11,-146.04"/>
<polygon fill="#aabbaa" fill-opacity="0.533333" stroke="#aabbaa" stroke-width="1.3" stroke-opacity="0.533333" points="1297.66,-149.19 1304.7,-141.26 1294.26,-143.07 1297.66,-149.19"/>
</g>
<!-- /lib/panels/canvas_panel.dart -->
<g id="node12" class="node">
<title>/lib/panels/canvas_panel.dart</title>
<path fill="Lavender" stroke="black" stroke-width="1.3" d="M435.75,-231C435.75,-231 352.25,-231 352.25,-231 346.25,-231 340.25,-225 340.25,-219 340.25,-219 340.25,-207 340.25,-207 340.25,-201 346.25,-195 352.25,-195 352.25,-195 435.75,-195 435.75,-195 441.75,-195 447.75,-201 447.75,-207 447.75,-207 447.75,-219 447.75,-219 447.75,-225 441.75,-231 435.75,-231"/>
<text text-anchor="middle" x="394" y="-207.75" font-family="Arial" font-size="15.00">canvas_panel</text>
</g>
<!-- /lib/panels/canvas_panel.dart&#45;&gt;/lib/models/app_model.dart -->
<g id="edge17" class="edge">
<title>/lib/panels/canvas_panel.dart&#45;&gt;/lib/models/app_model.dart</title>
<path fill="none" stroke="#aabbaa" stroke-width="1.3" stroke-opacity="0.533333" d="M364.5,-194.63C352.88,-188.62 339.19,-182.52 326,-179 301.25,-172.4 234.57,-181.04 211,-171 199.35,-166.04 188.57,-157.41 179.82,-148.82"/>
<polygon fill="#aabbaa" fill-opacity="0.533333" stroke="#aabbaa" stroke-width="1.3" stroke-opacity="0.533333" points="182.57,-146.64 173.14,-141.82 177.5,-151.47 182.57,-146.64"/>
</g>
<!-- /lib/panels/canvas_panel.dart&#45;&gt;/lib/widgets/transparent_background.dart -->
<g id="edge18" class="edge">
<title>/lib/panels/canvas_panel.dart&#45;&gt;/lib/widgets/transparent_background.dart</title>
<path fill="none" stroke="#aabbaa" stroke-width="1.3" stroke-opacity="0.533333" d="M418.19,-194.59C428.16,-188.41 440.14,-182.2 452,-179 494.16,-167.62 1195.45,-180.82 1238,-171 1259.82,-165.96 1282.49,-155.72 1300.8,-145.98"/>
<polygon fill="#aabbaa" fill-opacity="0.533333" stroke="#aabbaa" stroke-width="1.3" stroke-opacity="0.533333" points="1302.24,-149.18 1309.32,-141.3 1298.87,-143.05 1302.24,-149.18"/>
</g>
<!-- /lib/panels/layers/tools_and_layers_panel.dart -->
<g id="node13" class="node">
<title>/lib/panels/layers/tools_and_layers_panel.dart</title>
<path fill="Lavender" stroke="black" stroke-width="1.3" d="M624.38,-389C624.38,-389 475.62,-389 475.62,-389 469.62,-389 463.62,-383 463.62,-377 463.62,-377 463.62,-365 463.62,-365 463.62,-359 469.62,-353 475.62,-353 475.62,-353 624.38,-353 624.38,-353 630.38,-353 636.38,-359 636.38,-365 636.38,-365 636.38,-377 636.38,-377 636.38,-383 630.38,-389 624.38,-389"/>
<text text-anchor="middle" x="550" y="-365.75" font-family="Arial" font-size="15.00">tools_and_layers_panel</text>
</g>
<!-- /lib/panels/layers/tools_and_layers_panel.dart&#45;&gt;/lib/panels/about.dart -->
<g id="edge23" class="edge">
<title>/lib/panels/layers/tools_and_layers_panel.dart&#45;&gt;/lib/panels/about.dart</title>
<path fill="none" stroke="#aabbaa" stroke-width="1.3" stroke-opacity="0.533333" d="M636.85,-367.93C693.06,-365.25 760.21,-359.09 785,-345 793.66,-340.08 800.87,-332.14 806.51,-324.12"/>
<polygon fill="#aabbaa" fill-opacity="0.533333" stroke="#aabbaa" stroke-width="1.3" stroke-opacity="0.533333" points="809.38,-326.13 811.76,-315.8 803.46,-322.4 809.38,-326.13"/>
</g>
<!-- /lib/panels/layers/layer_selector.dart -->
<g id="node14" class="node">
<title>/lib/panels/layers/layer_selector.dart</title>
<path fill="Lavender" stroke="black" stroke-width="1.3" d="M622.5,-314C622.5,-314 537.5,-314 537.5,-314 531.5,-314 525.5,-308 525.5,-302 525.5,-302 525.5,-290 525.5,-290 525.5,-284 531.5,-278 537.5,-278 537.5,-278 622.5,-278 622.5,-278 628.5,-278 634.5,-284 634.5,-290 634.5,-290 634.5,-302 634.5,-302 634.5,-308 628.5,-314 622.5,-314"/>
<text text-anchor="middle" x="580" y="-290.75" font-family="Arial" font-size="15.00">layer_selector</text>
</g>
<!-- /lib/panels/layers/tools_and_layers_panel.dart&#45;&gt;/lib/panels/layers/layer_selector.dart -->
<g id="edge25" class="edge">
<title>/lib/panels/layers/tools_and_layers_panel.dart&#45;&gt;/lib/panels/layers/layer_selector.dart</title>
<path fill="none" stroke="#aabbaa" stroke-width="1.3" stroke-opacity="0.533333" d="M557.11,-352.7C560.45,-344.58 564.51,-334.68 568.29,-325.5"/>
<polygon fill="#aabbaa" fill-opacity="0.533333" stroke="#aabbaa" stroke-width="1.3" stroke-opacity="0.533333" points="571.53,-326.83 572.09,-316.25 565.05,-324.17 571.53,-326.83"/>
</g>
<!-- /lib/panels/share_panel.dart -->
<g id="node17" class="node">
<title>/lib/panels/share_panel.dart</title>
<path fill="Lavender" stroke="black" stroke-width="1.3" d="M435.88,-314C435.88,-314 362.12,-314 362.12,-314 356.12,-314 350.12,-308 350.12,-302 350.12,-302 350.12,-290 350.12,-290 350.12,-284 356.12,-278 362.12,-278 362.12,-278 435.88,-278 435.88,-278 441.88,-278 447.88,-284 447.88,-290 447.88,-290 447.88,-302 447.88,-302 447.88,-308 441.88,-314 435.88,-314"/>
<text text-anchor="middle" x="399" y="-290.75" font-family="Arial" font-size="15.00">share_panel</text>
</g>
<!-- /lib/panels/layers/tools_and_layers_panel.dart&#45;&gt;/lib/panels/share_panel.dart -->
<g id="edge26" class="edge">
<title>/lib/panels/layers/tools_and_layers_panel.dart&#45;&gt;/lib/panels/share_panel.dart</title>
<path fill="none" stroke="#aabbaa" stroke-width="1.3" stroke-opacity="0.533333" d="M468.59,-352.58C462.85,-350.34 457.26,-347.82 452,-345 441.29,-339.25 431.01,-330.87 422.41,-322.71"/>
<polygon fill="#aabbaa" fill-opacity="0.533333" stroke="#aabbaa" stroke-width="1.3" stroke-opacity="0.533333" points="425.04,-320.4 415.49,-315.81 420.09,-325.35 425.04,-320.4"/>
</g>
<!-- /lib/panels/canvas_settings.dart -->
<g id="node18" class="node">
<title>/lib/panels/canvas_settings.dart</title>
<path fill="Lavender" stroke="black" stroke-width="1.3" d="M763.62,-314C763.62,-314 664.38,-314 664.38,-314 658.38,-314 652.38,-308 652.38,-302 652.38,-302 652.38,-290 652.38,-290 652.38,-284 658.38,-278 664.38,-278 664.38,-278 763.62,-278 763.62,-278 769.62,-278 775.62,-284 775.62,-290 775.62,-290 775.62,-302 775.62,-302 775.62,-308 769.62,-314 763.62,-314"/>
<text text-anchor="middle" x="714" y="-290.75" font-family="Arial" font-size="15.00">canvas_settings</text>
</g>
<!-- /lib/panels/layers/tools_and_layers_panel.dart&#45;&gt;/lib/panels/canvas_settings.dart -->
<g id="edge24" class="edge">
<title>/lib/panels/layers/tools_and_layers_panel.dart&#45;&gt;/lib/panels/canvas_settings.dart</title>
<path fill="none" stroke="#aabbaa" stroke-width="1.3" stroke-opacity="0.533333" d="M629.28,-352.57C635.72,-350.32 642.04,-347.8 648,-345 661.09,-338.85 674.24,-329.97 685.31,-321.52"/>
<polygon fill="#aabbaa" fill-opacity="0.533333" stroke="#aabbaa" stroke-width="1.3" stroke-opacity="0.533333" points="687.25,-324.45 692.92,-315.5 682.9,-318.96 687.25,-324.45"/>
</g>
<!-- /lib/models/menu_model.dart -->
<g id="node19" class="node">
<title>/lib/models/menu_model.dart</title>
<path fill="Lavender" stroke="black" stroke-width="1.3" d="M226.12,-314C226.12,-314 147.88,-314 147.88,-314 141.88,-314 135.88,-308 135.88,-302 135.88,-302 135.88,-290 135.88,-290 135.88,-284 141.88,-278 147.88,-278 147.88,-278 226.12,-278 226.12,-278 232.12,-278 238.12,-284 238.12,-290 238.12,-290 238.12,-302 238.12,-302 238.12,-308 232.12,-314 226.12,-314"/>
<text text-anchor="middle" x="187" y="-290.75" font-family="Arial" font-size="15.00">menu_model</text>
</g>
<!-- /lib/panels/layers/tools_and_layers_panel.dart&#45;&gt;/lib/models/menu_model.dart -->
<g id="edge22" class="edge">
<title>/lib/panels/layers/tools_and_layers_panel.dart&#45;&gt;/lib/models/menu_model.dart</title>
<path fill="none" stroke="#aabbaa" stroke-width="1.3" stroke-opacity="0.533333" d="M463.47,-368.46C388.07,-366.09 285.01,-360.12 247,-345 234.09,-339.87 221.76,-330.97 211.67,-322.22"/>
<polygon fill="#aabbaa" fill-opacity="0.533333" stroke="#aabbaa" stroke-width="1.3" stroke-opacity="0.533333" points="214.26,-319.85 204.53,-315.66 209.53,-325 214.26,-319.85"/>
</g>
<!-- /lib/panels/layers/tools_and_layers_panel.dart&#45;&gt;/lib/models/app_model.dart -->
<g id="edge21" class="edge">
<title>/lib/panels/layers/tools_and_layers_panel.dart&#45;&gt;/lib/models/app_model.dart</title>
<path fill="none" stroke="#aabbaa" stroke-width="1.3" stroke-opacity="0.533333" d="M463.29,-367.88C342.87,-364.51 138.35,-357.04 127,-345 76.83,-291.78 117.03,-197.06 141.95,-150.45"/>
<polygon fill="#aabbaa" fill-opacity="0.533333" stroke="#aabbaa" stroke-width="1.3" stroke-opacity="0.533333" points="144.88,-152.38 146.65,-141.94 138.75,-149 144.88,-152.38"/>
</g>
<!-- /lib/files/save.dart -->
<g id="node32" class="node">
<title>/lib/files/save.dart</title>
<path fill="Lavender" stroke="black" stroke-width="1.3" d="M2642,-314C2642,-314 2612,-314 2612,-314 2606,-314 2600,-308 2600,-302 2600,-302 2600,-290 2600,-290 2600,-284 2606,-278 2612,-278 2612,-278 2642,-278 2642,-278 2648,-278 2654,-284 2654,-290 2654,-290 2654,-302 2654,-302 2654,-308 2648,-314 2642,-314"/>
<text text-anchor="middle" x="2627" y="-290.75" font-family="Arial" font-size="15.00">save</text>
</g>
<!-- /lib/panels/layers/tools_and_layers_panel.dart&#45;&gt;/lib/files/save.dart -->
<g id="edge20" class="edge">
<title>/lib/panels/layers/tools_and_layers_panel.dart&#45;&gt;/lib/files/save.dart</title>
<path fill="none" stroke="#aabbaa" stroke-width="1.3" stroke-opacity="0.533333" d="M636.76,-363.96C697.55,-360.02 780.69,-355.22 854,-353 866.06,-352.64 2580.22,-350.42 2591,-345 2600.13,-340.41 2607.55,-332.29 2613.23,-324.01"/>
<polygon fill="#aabbaa" fill-opacity="0.533333" stroke="#aabbaa" stroke-width="1.3" stroke-opacity="0.533333" points="2616.05,-326.12 2618.27,-315.76 2610.07,-322.47 2616.05,-326.12"/>
</g>
<!-- /lib/files/import_files.dart -->
<g id="node34" class="node">
<title>/lib/files/import_files.dart</title>
<path fill="Lavender" stroke="black" stroke-width="1.3" d="M2752.25,-314C2752.25,-314 2683.75,-314 2683.75,-314 2677.75,-314 2671.75,-308 2671.75,-302 2671.75,-302 2671.75,-290 2671.75,-290 2671.75,-284 2677.75,-278 2683.75,-278 2683.75,-278 2752.25,-278 2752.25,-278 2758.25,-278 2764.25,-284 2764.25,-290 2764.25,-290 2764.25,-302 2764.25,-302 2764.25,-308 2758.25,-314 2752.25,-314"/>
<text text-anchor="middle" x="2718" y="-290.75" font-family="Arial" font-size="15.00">import_files</text>
</g>
<!-- /lib/panels/layers/tools_and_layers_panel.dart&#45;&gt;/lib/files/import_files.dart -->
<g id="edge19" class="edge">
<title>/lib/panels/layers/tools_and_layers_panel.dart&#45;&gt;/lib/files/import_files.dart</title>
<path fill="none" stroke="#aabbaa" stroke-width="1.3" stroke-opacity="0.533333" d="M636.76,-363.96C697.54,-360.02 780.69,-355.21 854,-353 879.11,-352.24 2639.49,-353.87 2663,-345 2675.4,-340.32 2686.85,-331.45 2696.05,-322.6"/>
<polygon fill="#aabbaa" fill-opacity="0.533333" stroke="#aabbaa" stroke-width="1.3" stroke-opacity="0.533333" points="2698.32,-325.28 2702.78,-315.67 2693.3,-320.41 2698.32,-325.28"/>
</g>
<!-- /lib/panels/layers/blend_mode.dart -->
<g id="node15" class="node">
<title>/lib/panels/layers/blend_mode.dart</title>
<path fill="Lavender" stroke="black" stroke-width="1.3" d="M616.88,-231C616.88,-231 543.12,-231 543.12,-231 537.12,-231 531.12,-225 531.12,-219 531.12,-219 531.12,-207 531.12,-207 531.12,-201 537.12,-195 543.12,-195 543.12,-195 616.88,-195 616.88,-195 622.88,-195 628.88,-201 628.88,-207 628.88,-207 628.88,-219 628.88,-219 628.88,-225 622.88,-231 616.88,-231"/>
<text text-anchor="middle" x="580" y="-207.75" font-family="Arial" font-size="15.00">blend_mode</text>
</g>
<!-- /lib/panels/layers/layer_selector.dart&#45;&gt;/lib/panels/layers/blend_mode.dart -->
<g id="edge28" class="edge">
<title>/lib/panels/layers/layer_selector.dart&#45;&gt;/lib/panels/layers/blend_mode.dart</title>
<path fill="none" stroke="#aabbaa" stroke-width="1.3" stroke-opacity="0.533333" d="M580,-277.82C580,-267.8 580,-254.88 580,-243.29"/>
<polygon fill="#aabbaa" fill-opacity="0.533333" stroke="#aabbaa" stroke-width="1.3" stroke-opacity="0.533333" points="583.5,-243.4 580,-233.4 576.5,-243.4 583.5,-243.4"/>
</g>
<!-- /lib/panels/layers/layer_selector.dart&#45;&gt;/lib/models/app_model.dart -->
<g id="edge27" class="edge">
<title>/lib/panels/layers/layer_selector.dart&#45;&gt;/lib/models/app_model.dart</title>
<path fill="none" stroke="#aabbaa" stroke-width="1.3" stroke-opacity="0.533333" d="M545.11,-277.54C537.65,-274.5 529.7,-271.75 522,-270 500.97,-265.21 345.85,-274.12 328,-262 294.58,-239.32 323.74,-202.65 291,-179 276.52,-168.54 227.33,-178.25 211,-171 199.43,-165.86 188.66,-157.2 179.9,-148.63"/>
<polygon fill="#aabbaa" fill-opacity="0.533333" stroke="#aabbaa" stroke-width="1.3" stroke-opacity="0.533333" points="182.66,-146.45 173.21,-141.66 177.6,-151.3 182.66,-146.45"/>
</g>
<!-- /lib/widgets/truncated_text.dart -->
<g id="node39" class="node">
<title>/lib/widgets/truncated_text.dart</title>
<path fill="Lavender" stroke="black" stroke-width="1.3" d="M1618,-231C1618,-231 1530,-231 1530,-231 1524,-231 1518,-225 1518,-219 1518,-219 1518,-207 1518,-207 1518,-201 1524,-195 1530,-195 1530,-195 1618,-195 1618,-195 1624,-195 1630,-201 1630,-207 1630,-207 1630,-219 1630,-219 1630,-225 1624,-231 1618,-231"/>
<text text-anchor="middle" x="1574" y="-207.75" font-family="Arial" font-size="15.00">truncated_text</text>
</g>
<!-- /lib/panels/layers/layer_selector.dart&#45;&gt;/lib/widgets/truncated_text.dart -->
<g id="edge32" class="edge">
<title>/lib/panels/layers/layer_selector.dart&#45;&gt;/lib/widgets/truncated_text.dart</title>
<path fill="none" stroke="#aabbaa" stroke-width="1.3" stroke-opacity="0.533333" d="M614.84,-277.6C622.61,-274.47 630.94,-271.68 639,-270 686.32,-260.16 1463.16,-277.33 1509,-262 1523.2,-257.25 1536.86,-248.12 1547.96,-239.08"/>
<polygon fill="#aabbaa" fill-opacity="0.533333" stroke="#aabbaa" stroke-width="1.3" stroke-opacity="0.533333" points="1550.23,-241.75 1555.51,-232.57 1545.66,-236.45 1550.23,-241.75"/>
</g>
<!-- /lib/widgets/container_slider.dart -->
<g id="node40" class="node">
<title>/lib/widgets/container_slider.dart</title>
<path fill="Lavender" stroke="black" stroke-width="1.3" d="M1359.5,-231C1359.5,-231 1262.5,-231 1262.5,-231 1256.5,-231 1250.5,-225 1250.5,-219 1250.5,-219 1250.5,-207 1250.5,-207 1250.5,-201 1256.5,-195 1262.5,-195 1262.5,-195 1359.5,-195 1359.5,-195 1365.5,-195 1371.5,-201 1371.5,-207 1371.5,-207 1371.5,-219 1371.5,-219 1371.5,-225 1365.5,-231 1359.5,-231"/>
<text text-anchor="middle" x="1311" y="-207.75" font-family="Arial" font-size="15.00">container_slider</text>
</g>
<!-- /lib/panels/layers/layer_selector.dart&#45;&gt;/lib/widgets/container_slider.dart -->
<g id="edge29" class="edge">
<title>/lib/panels/layers/layer_selector.dart&#45;&gt;/lib/widgets/container_slider.dart</title>
<path fill="none" stroke="#aabbaa" stroke-width="1.3" stroke-opacity="0.533333" d="M615.16,-277.52C622.84,-274.44 631.05,-271.68 639,-270 693.03,-258.57 1081.33,-269.81 1136,-262 1174.36,-256.52 1216.26,-245.23 1249.44,-234.97"/>
<polygon fill="#aabbaa" fill-opacity="0.533333" stroke="#aabbaa" stroke-width="1.3" stroke-opacity="0.533333" points="1250.42,-238.33 1258.91,-231.99 1248.32,-231.65 1250.42,-238.33"/>
</g>
<!-- /lib/panels/layers/layer_selector.dart&#45;&gt;/lib/widgets/transparent_background.dart -->
<g id="edge31" class="edge">
<title>/lib/panels/layers/layer_selector.dart&#45;&gt;/lib/widgets/transparent_background.dart</title>
<path fill="none" stroke="#aabbaa" stroke-width="1.3" stroke-opacity="0.533333" d="M615.16,-277.52C622.84,-274.44 631.06,-271.68 639,-270 652.24,-267.2 1115.95,-271.06 1126,-262 1153.6,-237.12 1109.19,-204.72 1136,-179 1152.41,-163.26 1216.03,-176.87 1238,-171 1259.22,-165.33 1281.42,-155.3 1299.58,-145.86"/>
<polygon fill="#aabbaa" fill-opacity="0.533333" stroke="#aabbaa" stroke-width="1.3" stroke-opacity="0.533333" points="1301.14,-148.99 1308.31,-141.19 1297.84,-142.82 1301.14,-148.99"/>
</g>
<!-- /lib/widgets/image_painter.dart -->
<g id="node44" class="node">
<title>/lib/widgets/image_painter.dart</title>
<path fill="Lavender" stroke="black" stroke-width="1.3" d="M1488.25,-231C1488.25,-231 1401.75,-231 1401.75,-231 1395.75,-231 1389.75,-225 1389.75,-219 1389.75,-219 1389.75,-207 1389.75,-207 1389.75,-201 1395.75,-195 1401.75,-195 1401.75,-195 1488.25,-195 1488.25,-195 1494.25,-195 1500.25,-201 1500.25,-207 1500.25,-207 1500.25,-219 1500.25,-219 1500.25,-225 1494.25,-231 1488.25,-231"/>
<text text-anchor="middle" x="1445" y="-207.75" font-family="Arial" font-size="15.00">image_painter</text>
</g>
<!-- /lib/panels/layers/layer_selector.dart&#45;&gt;/lib/widgets/image_painter.dart -->
<g id="edge30" class="edge">
<title>/lib/panels/layers/layer_selector.dart&#45;&gt;/lib/widgets/image_painter.dart</title>
<path fill="none" stroke="#aabbaa" stroke-width="1.3" stroke-opacity="0.533333" d="M614.84,-277.61C622.61,-274.48 630.94,-271.68 639,-270 679.35,-261.58 1341.96,-275.25 1381,-262 1395.04,-257.24 1408.5,-248.1 1419.42,-239.07"/>
<polygon fill="#aabbaa" fill-opacity="0.533333" stroke="#aabbaa" stroke-width="1.3" stroke-opacity="0.533333" points="1421.62,-241.79 1426.83,-232.56 1417.01,-236.53 1421.62,-241.79"/>
</g>
<!-- /lib/panels/side_panel.dart -->
<g id="node16" class="node">
<title>/lib/panels/side_panel.dart</title>
<path fill="Lavender" stroke="black" stroke-width="1.3" d="M526.62,-464C526.62,-464 463.38,-464 463.38,-464 457.38,-464 451.38,-458 451.38,-452 451.38,-452 451.38,-440 451.38,-440 451.38,-434 457.38,-428 463.38,-428 463.38,-428 526.62,-428 526.62,-428 532.62,-428 538.62,-434 538.62,-440 538.62,-440 538.62,-452 538.62,-452 538.62,-458 532.62,-464 526.62,-464"/>
<text text-anchor="middle" x="495" y="-440.75" font-family="Arial" font-size="15.00">side_panel</text>
</g>
<!-- /lib/panels/side_panel.dart&#45;&gt;/lib/panels/tools/tools_panel.dart -->
<g id="edge35" class="edge">
<title>/lib/panels/side_panel.dart&#45;&gt;/lib/panels/tools/tools_panel.dart</title>
<path fill="none" stroke="#aabbaa" stroke-width="1.3" stroke-opacity="0.533333" d="M539.12,-443.92C636.65,-441.32 867.99,-433.85 945,-420 978.17,-414.04 1014.18,-403.17 1043.14,-393.28"/>
<polygon fill="#aabbaa" fill-opacity="0.533333" stroke="#aabbaa" stroke-width="1.3" stroke-opacity="0.533333" points="1044.12,-396.64 1052.42,-390.05 1041.82,-390.03 1044.12,-396.64"/>
</g>
<!-- /lib/panels/side_panel.dart&#45;&gt;/lib/panels/layers/tools_and_layers_panel.dart -->
<g id="edge34" class="edge">
<title>/lib/panels/side_panel.dart&#45;&gt;/lib/panels/layers/tools_and_layers_panel.dart</title>
<path fill="none" stroke="#aabbaa" stroke-width="1.3" stroke-opacity="0.533333" d="M508.03,-427.7C514.49,-419.13 522.44,-408.58 529.68,-398.97"/>
<polygon fill="#aabbaa" fill-opacity="0.533333" stroke="#aabbaa" stroke-width="1.3" stroke-opacity="0.533333" points="532.46,-401.09 535.68,-391 526.87,-396.88 532.46,-401.09"/>
</g>
<!-- /lib/panels/side_panel.dart&#45;&gt;/lib/models/app_model.dart -->
<g id="edge33" class="edge">
<title>/lib/panels/side_panel.dart&#45;&gt;/lib/models/app_model.dart</title>
<path fill="none" stroke="#aabbaa" stroke-width="1.3" stroke-opacity="0.533333" d="M451.11,-429.25C449.73,-428.82 448.36,-428.4 447,-428 409.2,-416.79 126.4,-375.97 102,-345 90.58,-330.51 94.94,-196.04 102,-179 106.82,-167.35 115.38,-156.86 124.37,-148.2"/>
<polygon fill="#aabbaa" fill-opacity="0.533333" stroke="#aabbaa" stroke-width="1.3" stroke-opacity="0.533333" points="126.43,-151.06 131.55,-141.78 121.76,-145.84 126.43,-151.06"/>
</g>
<!-- /lib/panels/share_panel.dart&#45;&gt;/lib/panels/canvas_panel.dart -->
<g id="edge37" class="edge">
<title>/lib/panels/share_panel.dart&#45;&gt;/lib/panels/canvas_panel.dart</title>
<path fill="none" stroke="#aabbaa" stroke-width="1.3" stroke-opacity="0.533333" d="M397.94,-277.82C397.32,-267.8 396.52,-254.88 395.81,-243.29"/>
<polygon fill="#aabbaa" fill-opacity="0.533333" stroke="#aabbaa" stroke-width="1.3" stroke-opacity="0.533333" points="399.31,-243.16 395.2,-233.4 392.32,-243.59 399.31,-243.16"/>
</g>
<!-- /lib/panels/share_panel.dart&#45;&gt;/lib/models/app_model.dart -->
<g id="edge36" class="edge">
<title>/lib/panels/share_panel.dart&#45;&gt;/lib/models/app_model.dart</title>
<path fill="none" stroke="#aabbaa" stroke-width="1.3" stroke-opacity="0.533333" d="M430.76,-277.53C437.58,-274.49 444.89,-271.75 452,-270 462.58,-267.4 640.45,-269.86 648,-262 673.55,-235.39 673.84,-205.32 648,-179 630.99,-161.67 233.58,-179.94 211,-171 199.05,-166.27 188.1,-157.52 179.3,-148.77"/>
<polygon fill="#aabbaa" fill-opacity="0.533333" stroke="#aabbaa" stroke-width="1.3" stroke-opacity="0.533333" points="181.98,-146.52 172.59,-141.61 176.87,-151.3 181.98,-146.52"/>
</g>
<!-- /lib/panels/canvas_settings.dart&#45;&gt;/lib/models/app_model.dart -->
<g id="edge38" class="edge">
<title>/lib/panels/canvas_settings.dart&#45;&gt;/lib/models/app_model.dart</title>
<path fill="none" stroke="#aabbaa" stroke-width="1.3" stroke-opacity="0.533333" d="M712.1,-277.52C708.18,-251 696.52,-201.3 663,-179 642.09,-165.09 234.35,-180.24 211,-171 199.05,-166.27 188.1,-157.52 179.3,-148.77"/>
<polygon fill="#aabbaa" fill-opacity="0.533333" stroke="#aabbaa" stroke-width="1.3" stroke-opacity="0.533333" points="181.98,-146.52 172.59,-141.61 176.87,-151.3 181.98,-146.52"/>
</g>
<!-- /lib/widgets/nine_grid_selector.dart -->
<g id="node46" class="node">
<title>/lib/widgets/nine_grid_selector.dart</title>
<path fill="Lavender" stroke="black" stroke-width="1.3" d="M1773.75,-231C1773.75,-231 1660.25,-231 1660.25,-231 1654.25,-231 1648.25,-225 1648.25,-219 1648.25,-219 1648.25,-207 1648.25,-207 1648.25,-201 1654.25,-195 1660.25,-195 1660.25,-195 1773.75,-195 1773.75,-195 1779.75,-195 1785.75,-201 1785.75,-207 1785.75,-207 1785.75,-219 1785.75,-219 1785.75,-225 1779.75,-231 1773.75,-231"/>
<text text-anchor="middle" x="1717" y="-207.75" font-family="Arial" font-size="15.00">nine_grid_selector</text>
</g>
<!-- /lib/panels/canvas_settings.dart&#45;&gt;/lib/widgets/nine_grid_selector.dart -->
<g id="edge39" class="edge">
<title>/lib/panels/canvas_settings.dart&#45;&gt;/lib/widgets/nine_grid_selector.dart</title>
<path fill="none" stroke="#aabbaa" stroke-width="1.3" stroke-opacity="0.533333" d="M756.19,-277.6C765.52,-274.47 775.48,-271.67 785,-270 831.73,-261.79 1593.41,-275.14 1639,-262 1655.97,-257.11 1672.89,-247.43 1686.62,-238.04"/>
<polygon fill="#aabbaa" fill-opacity="0.533333" stroke="#aabbaa" stroke-width="1.3" stroke-opacity="0.533333" points="1688.31,-241.13 1694.4,-232.47 1684.23,-235.44 1688.31,-241.13"/>
</g>
<!-- /lib/models/layers.dart -->
<g id="node20" class="node">
<title>/lib/models/layers.dart</title>
<path fill="Lavender" stroke="black" stroke-width="1.3" d="M299.88,-314C299.88,-314 268.12,-314 268.12,-314 262.12,-314 256.12,-308 256.12,-302 256.12,-302 256.12,-290 256.12,-290 256.12,-284 262.12,-278 268.12,-278 268.12,-278 299.88,-278 299.88,-278 305.88,-278 311.88,-284 311.88,-290 311.88,-290 311.88,-302 311.88,-302 311.88,-308 305.88,-314 299.88,-314"/>
<text text-anchor="middle" x="284" y="-290.75" font-family="Arial" font-size="15.00">layers</text>
</g>
<!-- /lib/models/layers.dart&#45;&gt;/lib/models/layer.dart -->
<g id="edge41" class="edge">
<title>/lib/models/layers.dart&#45;&gt;/lib/models/layer.dart</title>
<path fill="none" stroke="#aabbaa" stroke-width="1.3" stroke-opacity="0.533333" d="M272.21,-277.82C267.49,-267.69 262.52,-254.6 258.85,-242.92"/>
<polygon fill="#aabbaa" fill-opacity="0.533333" stroke="#aabbaa" stroke-width="1.3" stroke-opacity="0.533333" points="262.23,-241.98 256.12,-233.32 255.5,-243.9 262.23,-241.98"/>
</g>
<!-- /lib/models/layers.dart&#45;&gt;/lib/models/layer.dart -->
<g id="edge42" class="edge">
<title>/lib/models/layers.dart&#45;&gt;/lib/models/layer.dart</title>
<path fill="none" stroke="#aabbaa" stroke-width="1.3" stroke-dasharray="5,2" stroke-opacity="0.533333" d="M283.49,-277.82C280.9,-267.48 276.37,-254.05 271.55,-242.18"/>
<polygon fill="#aabbaa" fill-opacity="0.533333" stroke="#aabbaa" stroke-width="1.3" stroke-opacity="0.533333" points="274.87,-241.03 267.69,-233.24 268.44,-243.81 274.87,-241.03"/>
</g>
<!-- /lib/helpers/list_helper.dart -->
<g id="node36" class="node">
<title>/lib/helpers/list_helper.dart</title>
<path fill="Lavender" stroke="black" stroke-width="1.3" d="M1213.75,-68C1213.75,-68 1154.25,-68 1154.25,-68 1148.25,-68 1142.25,-62 1142.25,-56 1142.25,-56 1142.25,-44 1142.25,-44 1142.25,-38 1148.25,-32 1154.25,-32 1154.25,-32 1213.75,-32 1213.75,-32 1219.75,-32 1225.75,-38 1225.75,-44 1225.75,-44 1225.75,-56 1225.75,-56 1225.75,-62 1219.75,-68 1213.75,-68"/>
<text text-anchor="middle" x="1184" y="-44.75" font-family="Arial" font-size="15.00">list_helper</text>
</g>
<!-- /lib/models/layers.dart&#45;&gt;/lib/helpers/list_helper.dart -->
<g id="edge40" class="edge">
<title>/lib/models/layers.dart&#45;&gt;/lib/helpers/list_helper.dart</title>
<path fill="none" stroke="#aabbaa" stroke-width="1.3" stroke-opacity="0.533333" d="M288.21,-277.95C295.72,-248.91 312.15,-191.77 328,-179 452.56,-78.62 962.07,-56.67 1130.02,-52.13"/>
<polygon fill="#aabbaa" fill-opacity="0.533333" stroke="#aabbaa" stroke-width="1.3" stroke-opacity="0.533333" points="1130.1,-55.63 1140.01,-51.87 1129.92,-48.63 1130.1,-55.63"/>
</g>
<!-- /lib/models/user_action.dart -->
<g id="node21" class="node">
<title>/lib/models/user_action.dart</title>
<path fill="Lavender" stroke="black" stroke-width="1.3" d="M301.62,-140C301.62,-140 232.38,-140 232.38,-140 226.38,-140 220.38,-134 220.38,-128 220.38,-128 220.38,-116 220.38,-116 220.38,-110 226.38,-104 232.38,-104 232.38,-104 301.62,-104 301.62,-104 307.62,-104 313.62,-110 313.62,-116 313.62,-116 313.62,-128 313.62,-128 313.62,-134 307.62,-140 301.62,-140"/>
<text text-anchor="middle" x="267" y="-116.75" font-family="Arial" font-size="15.00">user_action</text>
</g>
<!-- /lib/widgets/brush_style_picker.dart -->
<g id="node45" class="node">
<title>/lib/widgets/brush_style_picker.dart</title>
<path fill="Lavender" stroke="black" stroke-width="1.3" d="M1932.25,-231C1932.25,-231 1815.75,-231 1815.75,-231 1809.75,-231 1803.75,-225 1803.75,-219 1803.75,-219 1803.75,-207 1803.75,-207 1803.75,-201 1809.75,-195 1815.75,-195 1815.75,-195 1932.25,-195 1932.25,-195 1938.25,-195 1944.25,-201 1944.25,-207 1944.25,-207 1944.25,-219 1944.25,-219 1944.25,-225 1938.25,-231 1932.25,-231"/>
<text text-anchor="middle" x="1874" y="-207.75" font-family="Arial" font-size="15.00">brush_style_picker</text>
</g>
<!-- /lib/models/user_action.dart&#45;&gt;/lib/widgets/brush_style_picker.dart -->
<g id="edge43" class="edge">
<title>/lib/models/user_action.dart&#45;&gt;/lib/widgets/brush_style_picker.dart</title>
<path fill="none" stroke="#aabbaa" stroke-width="1.3" stroke-opacity="0.533333" d="M313.8,-126.69C441.18,-136.05 804.16,-160.66 1107,-171 1144.7,-172.29 1749.06,-171.37 1786,-179 1797.57,-181.39 1809.58,-185.48 1820.9,-189.98"/>
<polygon fill="#aabbaa" fill-opacity="0.533333" stroke="#aabbaa" stroke-width="1.3" stroke-opacity="0.533333" points="1819.55,-193.21 1830.13,-193.82 1822.24,-186.75 1819.55,-193.21"/>
</g>
<!-- /lib/models/user_action.dart&#45;&gt;/lib/widgets/brush_style_picker.dart -->
<g id="edge44" class="edge">
<title>/lib/models/user_action.dart&#45;&gt;/lib/widgets/brush_style_picker.dart</title>
<path fill="none" stroke="#aabbaa" stroke-width="1.3" stroke-dasharray="5,2" stroke-opacity="0.533333" d="M313.87,-126.1C443.23,-134.96 815.52,-160.43 1125,-171 1162.7,-172.29 1767.06,-171.37 1804,-179 1815.45,-181.37 1827.33,-185.39 1838.02,-189.84"/>
<polygon fill="#aabbaa" fill-opacity="0.533333" stroke="#aabbaa" stroke-width="1.3" stroke-opacity="0.533333" points="1836.31,-192.91 1846.87,-193.77 1839.15,-186.51 1836.31,-192.91"/>
</g>
<!-- /lib/models/canvas_model.dart -->
<g id="node23" class="node">
<title>/lib/models/canvas_model.dart</title>
<path fill="Lavender" stroke="black" stroke-width="1.3" d="M302,-68C302,-68 214,-68 214,-68 208,-68 202,-62 202,-56 202,-56 202,-44 202,-44 202,-38 208,-32 214,-32 214,-32 302,-32 302,-32 308,-32 314,-38 314,-44 314,-44 314,-56 314,-56 314,-62 308,-68 302,-68"/>
<text text-anchor="middle" x="258" y="-44.75" font-family="Arial" font-size="15.00">canvas_model</text>
</g>
<!-- /lib/models/canvas_model.dart&#45;&gt;/lib/models/layers.dart -->
<g id="edge45" class="edge">
<title>/lib/models/canvas_model.dart&#45;&gt;/lib/models/layers.dart</title>
<path fill="none" stroke="#aabbaa" stroke-width="1.3" stroke-dasharray="5,2" stroke-opacity="0.533333" d="M201.84,-65.72C159.12,-77.19 107.12,-91.84 104,-96 84.01,-122.67 94.06,-139.18 104,-171 118.67,-217.95 124.62,-237.03 167,-262 197.79,-280.14 213.4,-257.85 247,-270 248.59,-270.58 250.19,-271.24 251.77,-271.96"/>
<polygon fill="#aabbaa" fill-opacity="0.533333" stroke="#aabbaa" stroke-width="1.3" stroke-opacity="0.533333" points="249.69,-274.82 260.14,-276.56 253.06,-268.68 249.69,-274.82"/>
</g>
<!-- /lib/models/app_model.dart&#45;&gt;/lib/models/layers.dart -->
<g id="edge48" class="edge">
<title>/lib/models/app_model.dart&#45;&gt;/lib/models/layers.dart</title>
<path fill="none" stroke="#aabbaa" stroke-width="1.3" stroke-dasharray="5,2" stroke-opacity="0.533333" d="M160.73,-140.31C166.28,-169.73 181.68,-229.41 219,-262 228.75,-270.51 235.27,-264.53 247,-270 248.16,-270.54 249.32,-271.12 250.49,-271.72"/>
<polygon fill="#aabbaa" fill-opacity="0.533333" stroke="#aabbaa" stroke-width="1.3" stroke-opacity="0.533333" points="248.67,-274.71 259.07,-276.71 252.19,-268.66 248.67,-274.71"/>
</g>
<!-- /lib/models/app_model.dart&#45;&gt;/lib/models/canvas_resize.dart -->
<g id="edge47" class="edge">
<title>/lib/models/app_model.dart&#45;&gt;/lib/models/canvas_resize.dart</title>
<path fill="none" stroke="#aabbaa" stroke-width="1.3" stroke-opacity="0.533333" d="M150.58,-103.7C147.39,-96.24 143.57,-87.32 139.99,-78.97"/>
<polygon fill="#aabbaa" fill-opacity="0.533333" stroke="#aabbaa" stroke-width="1.3" stroke-opacity="0.533333" points="143.26,-77.73 136.11,-69.91 136.83,-80.48 143.26,-77.73"/>
</g>
<!-- /lib/models/app_model.dart&#45;&gt;/lib/models/canvas_model.dart -->
<g id="edge46" class="edge">
<title>/lib/models/app_model.dart&#45;&gt;/lib/models/canvas_model.dart</title>
<path fill="none" stroke="#aabbaa" stroke-width="1.3" stroke-opacity="0.533333" d="M182.98,-103.52C195.24,-94.93 210.21,-84.46 223.54,-75.12"/>
<polygon fill="#aabbaa" fill-opacity="0.533333" stroke="#aabbaa" stroke-width="1.3" stroke-opacity="0.533333" points="225.54,-77.99 231.73,-69.39 221.53,-72.26 225.54,-77.99"/>
</g>
<!-- /lib/models/layer.dart&#45;&gt;/lib/models/user_action.dart -->
<g id="edge51" class="edge">
<title>/lib/models/layer.dart&#45;&gt;/lib/models/user_action.dart</title>
<path fill="none" stroke="#aabbaa" stroke-width="1.3" stroke-dasharray="5,2" stroke-opacity="0.533333" d="M257.31,-194.84C258.95,-182.73 261.17,-166.21 263.08,-152.06"/>
<polygon fill="#aabbaa" fill-opacity="0.533333" stroke="#aabbaa" stroke-width="1.3" stroke-opacity="0.533333" points="266.52,-152.74 264.39,-142.36 259.58,-151.8 266.52,-152.74"/>
</g>
<!-- /lib/models/layer.dart&#45;&gt;/lib/models/app_model.dart -->
<g id="edge49" class="edge">
<title>/lib/models/layer.dart&#45;&gt;/lib/models/app_model.dart</title>
<path fill="none" stroke="#aabbaa" stroke-width="1.3" stroke-opacity="0.533333" d="M236.3,-194.84C221.9,-181.63 201.78,-163.17 185.54,-148.27"/>
<polygon fill="#aabbaa" fill-opacity="0.533333" stroke="#aabbaa" stroke-width="1.3" stroke-opacity="0.533333" points="188.16,-145.92 178.43,-141.74 183.43,-151.08 188.16,-145.92"/>
</g>
<!-- /lib/models/layer.dart&#45;&gt;/lib/widgets/transparent_background.dart -->
<g id="edge50" class="edge">
<title>/lib/models/layer.dart&#45;&gt;/lib/widgets/transparent_background.dart</title>
<path fill="none" stroke="#aabbaa" stroke-width="1.3" stroke-opacity="0.533333" d="M282.48,-196.3C295.78,-189.57 312.24,-182.47 328,-179 426.75,-157.26 1139.46,-193.68 1238,-171 1259.83,-165.98 1282.49,-155.73 1300.81,-146"/>
<polygon fill="#aabbaa" fill-opacity="0.533333" stroke="#aabbaa" stroke-width="1.3" stroke-opacity="0.533333" points="1302.25,-149.2 1309.32,-141.31 1298.87,-143.06 1302.25,-149.2"/>
</g>
<!-- /lib/main.dart&#45;&gt;/lib/models/app_model.dart -->
<g id="edge53" class="edge">
<title>/lib/main.dart&#45;&gt;/lib/models/app_model.dart</title>
<path fill="none" stroke="#aabbaa" stroke-width="1.3" stroke-opacity="0.533333" d="M358.59,-589.28C305.28,-582.63 186.66,-560.91 116,-495 12.59,-398.55 14.07,-304.62 79,-179 85.82,-165.8 97.35,-155.04 109.52,-146.61"/>
<polygon fill="#aabbaa" fill-opacity="0.533333" stroke="#aabbaa" stroke-width="1.3" stroke-opacity="0.533333" points="111.13,-149.73 117.68,-141.4 107.37,-143.83 111.13,-149.73"/>
</g>
<!-- /lib/main_screen.dart -->
<g id="node35" class="node">
<title>/lib/main_screen.dart</title>
<path fill="Lavender" stroke="black" stroke-width="1.3" d="M424.75,-539C424.75,-539 347.25,-539 347.25,-539 341.25,-539 335.25,-533 335.25,-527 335.25,-527 335.25,-515 335.25,-515 335.25,-509 341.25,-503 347.25,-503 347.25,-503 424.75,-503 424.75,-503 430.75,-503 436.75,-509 436.75,-515 436.75,-515 436.75,-527 436.75,-527 436.75,-533 430.75,-539 424.75,-539"/>
<text text-anchor="middle" x="386" y="-515.75" font-family="Arial" font-size="15.00">main_screen</text>
</g>
<!-- /lib/main.dart&#45;&gt;/lib/main_screen.dart -->
<g id="edge52" class="edge">
<title>/lib/main.dart&#45;&gt;/lib/main_screen.dart</title>
<path fill="none" stroke="#aabbaa" stroke-width="1.3" stroke-opacity="0.533333" d="M386,-574.7C386,-567.49 386,-558.93 386,-550.82"/>
<polygon fill="#aabbaa" fill-opacity="0.533333" stroke="#aabbaa" stroke-width="1.3" stroke-opacity="0.533333" points="389.5,-551.07 386,-541.07 382.5,-551.07 389.5,-551.07"/>
</g>
<!-- /lib/files/xcf_reader.dart&#45;&gt;/lib/helpers/list_helper.dart -->
<g id="edge54" class="edge">
<title>/lib/files/xcf_reader.dart&#45;&gt;/lib/helpers/list_helper.dart</title>
<path fill="none" stroke="#aabbaa" stroke-width="1.3" stroke-opacity="0.533333" d="M3194.5,-277.56C3150.4,-252.2 3063.97,-205.34 2985,-179 2801.6,-117.83 2750.11,-117.68 2558,-96 2295.41,-66.37 1459.05,-54.33 1238.01,-51.62"/>
<polygon fill="#aabbaa" fill-opacity="0.533333" stroke="#aabbaa" stroke-width="1.3" stroke-opacity="0.533333" points="1238.15,-48.12 1228.11,-51.5 1238.06,-55.12 1238.15,-48.12"/>
</g>
<!-- /lib/files/file_jpeg.dart -->
<g id="node29" class="node">
<title>/lib/files/file_jpeg.dart</title>
<path fill="Lavender" stroke="black" stroke-width="1.3" d="M2964.38,-231C2964.38,-231 2917.62,-231 2917.62,-231 2911.62,-231 2905.62,-225 2905.62,-219 2905.62,-219 2905.62,-207 2905.62,-207 2905.62,-201 2911.62,-195 2917.62,-195 2917.62,-195 2964.38,-195 2964.38,-195 2970.38,-195 2976.38,-201 2976.38,-207 2976.38,-207 2976.38,-219 2976.38,-219 2976.38,-225 2970.38,-231 2964.38,-231"/>
<text text-anchor="middle" x="2941" y="-207.75" font-family="Arial" font-size="15.00">file_jpeg</text>
</g>
<!-- /lib/files/export_download_web.dart -->
<g id="node30" class="node">
<title>/lib/files/export_download_web.dart</title>
<path fill="Lavender" stroke="black" stroke-width="1.3" d="M2935.25,-314C2935.25,-314 2794.75,-314 2794.75,-314 2788.75,-314 2782.75,-308 2782.75,-302 2782.75,-302 2782.75,-290 2782.75,-290 2782.75,-284 2788.75,-278 2794.75,-278 2794.75,-278 2935.25,-278 2935.25,-278 2941.25,-278 2947.25,-284 2947.25,-290 2947.25,-290 2947.25,-302 2947.25,-302 2947.25,-308 2941.25,-314 2935.25,-314"/>
<text text-anchor="middle" x="2865" y="-290.75" font-family="Arial" font-size="15.00">export_download_web</text>
</g>
<!-- /lib/files/export_download_web.dart&#45;&gt;/lib/panels/share_panel.dart -->
<g id="edge58" class="edge">
<title>/lib/files/export_download_web.dart&#45;&gt;/lib/panels/share_panel.dart</title>
<path fill="none" stroke="#aabbaa" stroke-width="1.3" stroke-opacity="0.533333" d="M2839.53,-314.43C2819.97,-327.27 2791.7,-343.12 2764,-349 2748.36,-352.32 476.64,-352.32 461,-349 444.93,-345.59 430.7,-334.39 419.93,-323.16"/>
<polygon fill="#aabbaa" fill-opacity="0.533333" stroke="#aabbaa" stroke-width="1.3" stroke-opacity="0.533333" points="422.63,-320.93 413.38,-315.77 417.39,-325.57 422.63,-320.93"/>
</g>
<!-- /lib/files/export_download_web.dart&#45;&gt;/lib/models/app_model.dart -->
<g id="edge57" class="edge">
<title>/lib/files/export_download_web.dart&#45;&gt;/lib/models/app_model.dart</title>
<path fill="none" stroke="#aabbaa" stroke-width="1.3" stroke-opacity="0.533333" d="M2810.02,-277.56C2797.94,-274.44 2785.14,-271.65 2773,-270 2751.71,-267.1 1244.43,-273.04 1226,-262 1190,-240.44 1216.97,-200.61 1181,-179 1157.9,-165.12 236.1,-180.8 211,-171 199.03,-166.33 188.08,-157.59 179.27,-148.83"/>
<polygon fill="#aabbaa" fill-opacity="0.533333" stroke="#aabbaa" stroke-width="1.3" stroke-opacity="0.533333" points="181.96,-146.58 172.57,-141.66 176.84,-151.36 181.96,-146.58"/>
</g>
<!-- /lib/files/export_download_web.dart&#45;&gt;/lib/files/file_jpeg.dart -->
<g id="edge55" class="edge">
<title>/lib/files/export_download_web.dart&#45;&gt;/lib/files/file_jpeg.dart</title>
<path fill="none" stroke="#aabbaa" stroke-width="1.3" stroke-opacity="0.533333" d="M2881.12,-277.82C2891.43,-266.84 2904.99,-252.38 2916.61,-240"/>
<polygon fill="#aabbaa" fill-opacity="0.533333" stroke="#aabbaa" stroke-width="1.3" stroke-opacity="0.533333" points="2919.01,-242.55 2923.3,-232.87 2913.9,-237.77 2919.01,-242.55"/>
</g>
<!-- /lib/files/file_ora.dart -->
<g id="node31" class="node">
<title>/lib/files/file_ora.dart</title>
<path fill="Lavender" stroke="black" stroke-width="1.3" d="M2738.38,-231C2738.38,-231 2697.62,-231 2697.62,-231 2691.62,-231 2685.62,-225 2685.62,-219 2685.62,-219 2685.62,-207 2685.62,-207 2685.62,-201 2691.62,-195 2697.62,-195 2697.62,-195 2738.38,-195 2738.38,-195 2744.38,-195 2750.38,-201 2750.38,-207 2750.38,-207 2750.38,-219 2750.38,-219 2750.38,-225 2744.38,-231 2738.38,-231"/>
<text text-anchor="middle" x="2718" y="-207.75" font-family="Arial" font-size="15.00">file_ora</text>
</g>
<!-- /lib/files/export_download_web.dart&#45;&gt;/lib/files/file_ora.dart -->
<g id="edge56" class="edge">
<title>/lib/files/export_download_web.dart&#45;&gt;/lib/files/file_ora.dart</title>
<path fill="none" stroke="#aabbaa" stroke-width="1.3" stroke-opacity="0.533333" d="M2833.46,-277.62C2812.03,-265.81 2783.43,-250.05 2760.06,-237.18"/>
<polygon fill="#aabbaa" fill-opacity="0.533333" stroke="#aabbaa" stroke-width="1.3" stroke-opacity="0.533333" points="2761.91,-234.2 2751.46,-232.44 2758.53,-240.33 2761.91,-234.2"/>
</g>
<!-- /lib/files/file_ora.dart&#45;&gt;/lib/models/app_model.dart -->
<g id="edge60" class="edge">
<title>/lib/files/file_ora.dart&#45;&gt;/lib/models/app_model.dart</title>
<path fill="none" stroke="#aabbaa" stroke-width="1.3" stroke-opacity="0.533333" d="M2685.14,-206.47C2636.23,-198.55 2541.33,-184.33 2460,-179 2428.83,-176.96 240.13,-182.29 211,-171 199.02,-166.36 188.06,-157.62 179.26,-148.86"/>
<polygon fill="#aabbaa" fill-opacity="0.533333" stroke="#aabbaa" stroke-width="1.3" stroke-opacity="0.533333" points="181.94,-146.61 172.56,-141.69 176.83,-151.38 181.94,-146.61"/>
</g>
<!-- /lib/files/file_ora.dart&#45;&gt;/lib/helpers/list_helper.dart -->
<g id="edge59" class="edge">
<title>/lib/files/file_ora.dart&#45;&gt;/lib/helpers/list_helper.dart</title>
<path fill="none" stroke="#aabbaa" stroke-width="1.3" stroke-opacity="0.533333" d="M2689.52,-194.72C2643.3,-167.74 2548.25,-116.56 2460,-96 2339.96,-68.03 1465.4,-54.7 1237.95,-51.68"/>
<polygon fill="#aabbaa" fill-opacity="0.533333" stroke="#aabbaa" stroke-width="1.3" stroke-opacity="0.533333" points="1238.07,-48.18 1228.02,-51.55 1237.98,-55.18 1238.07,-48.18"/>
</g>
<!-- /lib/files/save.dart&#45;&gt;/lib/models/app_model.dart -->
<g id="edge61" class="edge">
<title>/lib/files/save.dart&#45;&gt;/lib/models/app_model.dart</title>
<path fill="none" stroke="#aabbaa" stroke-width="1.3" stroke-opacity="0.533333" d="M2606.43,-277.63C2601.64,-274.5 2596.37,-271.7 2591,-270 2553.79,-258.23 1222.31,-276.31 1186,-262 1135.37,-242.05 1146.59,-199.03 1096,-179 1050.28,-160.9 256.8,-188.89 211,-171 199.03,-166.32 188.08,-157.58 179.28,-148.83"/>
<polygon fill="#aabbaa" fill-opacity="0.533333" stroke="#aabbaa" stroke-width="1.3" stroke-opacity="0.533333" points="181.96,-146.57 172.57,-141.66 176.84,-151.35 181.96,-146.57"/>
</g>
<!-- /lib/files/export_download_non_web.dart -->
<g id="node33" class="node">
<title>/lib/files/export_download_non_web.dart</title>
<path fill="Lavender" stroke="black" stroke-width="1.3" d="M3150.75,-314C3150.75,-314 2977.25,-314 2977.25,-314 2971.25,-314 2965.25,-308 2965.25,-302 2965.25,-302 2965.25,-290 2965.25,-290 2965.25,-284 2971.25,-278 2977.25,-278 2977.25,-278 3150.75,-278 3150.75,-278 3156.75,-278 3162.75,-284 3162.75,-290 3162.75,-290 3162.75,-302 3162.75,-302 3162.75,-308 3156.75,-314 3150.75,-314"/>
<text text-anchor="middle" x="3064" y="-290.75" font-family="Arial" font-size="15.00">export_download_non_web</text>
</g>
<!-- /lib/files/export_download_non_web.dart&#45;&gt;/lib/panels/share_panel.dart -->
<g id="edge65" class="edge">
<title>/lib/files/export_download_non_web.dart&#45;&gt;/lib/panels/share_panel.dart</title>
<path fill="none" stroke="#aabbaa" stroke-width="1.3" stroke-opacity="0.533333" d="M3033.49,-314.26C3010.59,-326.84 2977.98,-342.43 2947,-349 2930.11,-352.58 477.89,-352.58 461,-349 444.93,-345.59 430.7,-334.39 419.93,-323.16"/>
<polygon fill="#aabbaa" fill-opacity="0.533333" stroke="#aabbaa" stroke-width="1.3" stroke-opacity="0.533333" points="422.63,-320.93 413.38,-315.77 417.39,-325.57 422.63,-320.93"/>
</g>
<!-- /lib/files/export_download_non_web.dart&#45;&gt;/lib/models/app_model.dart -->
<g id="edge64" class="edge">
<title>/lib/files/export_download_non_web.dart&#45;&gt;/lib/models/app_model.dart</title>
<path fill="none" stroke="#aabbaa" stroke-width="1.3" stroke-opacity="0.533333" d="M2999.31,-277.56C2985.14,-274.43 2970.15,-271.65 2956,-270 2944.15,-268.62 1247.71,-268.93 1238,-262 1206.19,-239.31 1240.77,-201.75 1209,-179 1186.46,-162.86 236.83,-181.08 211,-171 199.03,-166.33 188.08,-157.59 179.27,-148.83"/>
<polygon fill="#aabbaa" fill-opacity="0.533333" stroke="#aabbaa" stroke-width="1.3" stroke-opacity="0.533333" points="181.96,-146.58 172.57,-141.66 176.84,-151.36 181.96,-146.58"/>
</g>
<!-- /lib/files/export_download_non_web.dart&#45;&gt;/lib/files/file_jpeg.dart -->
<g id="edge62" class="edge">
<title>/lib/files/export_download_non_web.dart&#45;&gt;/lib/files/file_jpeg.dart</title>
<path fill="none" stroke="#aabbaa" stroke-width="1.3" stroke-opacity="0.533333" d="M3037.61,-277.62C3020.02,-266.04 2996.67,-250.66 2977.33,-237.92"/>
<polygon fill="#aabbaa" fill-opacity="0.533333" stroke="#aabbaa" stroke-width="1.3" stroke-opacity="0.533333" points="2979.26,-235.01 2968.99,-232.43 2975.41,-240.85 2979.26,-235.01"/>
</g>
<!-- /lib/files/export_download_non_web.dart&#45;&gt;/lib/files/file_ora.dart -->
<g id="edge63" class="edge">
<title>/lib/files/export_download_non_web.dart&#45;&gt;/lib/files/file_ora.dart</title>
<path fill="none" stroke="#aabbaa" stroke-width="1.3" stroke-opacity="0.533333" d="M2992.74,-277.52C2980.52,-274.81 2967.93,-272.18 2956,-270 2929.97,-265.23 2922.94,-267.22 2897,-262 2850.32,-252.62 2797.79,-238.04 2761.78,-227.41"/>
<polygon fill="#aabbaa" fill-opacity="0.533333" stroke="#aabbaa" stroke-width="1.3" stroke-opacity="0.533333" points="2763.16,-224.17 2752.58,-224.67 2761.17,-230.88 2763.16,-224.17"/>
</g>
<!-- /lib/files/import_files.dart&#45;&gt;/lib/models/app_model.dart -->
<g id="edge67" class="edge">
<title>/lib/files/import_files.dart&#45;&gt;/lib/models/app_model.dart</title>
<path fill="none" stroke="#aabbaa" stroke-width="1.3" stroke-opacity="0.533333" d="M2685.63,-277.58C2678.38,-274.45 2670.58,-271.66 2663,-270 2643.23,-265.66 1223.99,-271.26 1206,-262 1165.52,-241.18 1186.44,-199.89 1146,-179 1122.92,-167.08 235.19,-180.45 211,-171 199.03,-166.33 188.08,-157.59 179.27,-148.83"/>
<polygon fill="#aabbaa" fill-opacity="0.533333" stroke="#aabbaa" stroke-width="1.3" stroke-opacity="0.533333" points="181.96,-146.58 172.57,-141.66 176.84,-151.36 181.96,-146.58"/>
</g>
<!-- /lib/files/import_files.dart&#45;&gt;/lib/files/file_ora.dart -->
<g id="edge66" class="edge">
<title>/lib/files/import_files.dart&#45;&gt;/lib/files/file_ora.dart</title>
<path fill="none" stroke="#aabbaa" stroke-width="1.3" stroke-opacity="0.533333" d="M2718,-277.82C2718,-267.8 2718,-254.88 2718,-243.29"/>
<polygon fill="#aabbaa" fill-opacity="0.533333" stroke="#aabbaa" stroke-width="1.3" stroke-opacity="0.533333" points="2721.5,-243.4 2718,-233.4 2714.5,-243.4 2721.5,-243.4"/>
</g>
<!-- /lib/main_screen.dart&#45;&gt;/lib/panels/tools/flood_fill.dart -->
<g id="edge70" class="edge">
<title>/lib/main_screen.dart&#45;&gt;/lib/panels/tools/flood_fill.dart</title>
<path fill="none" stroke="#aabbaa" stroke-width="1.3" stroke-opacity="0.533333" d="M437.17,-518.73C512.68,-516.37 650.08,-510.1 697,-495 764.32,-473.33 832.73,-425.73 870.73,-396.51"/>
<polygon fill="#aabbaa" fill-opacity="0.533333" stroke="#aabbaa" stroke-width="1.3" stroke-opacity="0.533333" points="872.44,-399.62 878.17,-390.71 868.13,-394.1 872.44,-399.62"/>
</g>
<!-- /lib/main_screen.dart&#45;&gt;/lib/panels/canvas_panel.dart -->
<g id="edge68" class="edge">
<title>/lib/main_screen.dart&#45;&gt;/lib/panels/canvas_panel.dart</title>
<path fill="none" stroke="#aabbaa" stroke-width="1.3" stroke-opacity="0.533333" d="M376.6,-502.68C355.35,-461.1 307.96,-352.97 341,-270 345.53,-258.62 353.59,-248.22 362.09,-239.56"/>
<polygon fill="#aabbaa" fill-opacity="0.533333" stroke="#aabbaa" stroke-width="1.3" stroke-opacity="0.533333" points="364.32,-242.26 369.17,-232.85 359.51,-237.18 364.32,-242.26"/>
</g>
<!-- /lib/main_screen.dart&#45;&gt;/lib/panels/side_panel.dart -->
<g id="edge69" class="edge">
<title>/lib/main_screen.dart&#45;&gt;/lib/panels/side_panel.dart</title>
<path fill="none" stroke="#aabbaa" stroke-width="1.3" stroke-opacity="0.533333" d="M433.91,-502.54C438.46,-500.24 442.9,-497.73 447,-495 456.27,-488.83 465.23,-480.68 472.85,-472.85"/>
<polygon fill="#aabbaa" fill-opacity="0.533333" stroke="#aabbaa" stroke-width="1.3" stroke-opacity="0.533333" points="475.25,-475.42 479.49,-465.71 470.12,-470.65 475.25,-475.42"/>
</g>
<!-- /lib/main_screen.dart&#45;&gt;/lib/models/app_model.dart -->
<g id="edge71" class="edge">
<title>/lib/main_screen.dart&#45;&gt;/lib/models/app_model.dart</title>
<path fill="none" stroke="#aabbaa" stroke-width="1.3" stroke-opacity="0.533333" d="M334.81,-515.69C272.59,-507.66 168.65,-484.8 110,-420 65.21,-370.52 88.14,-185.12 91,-179 96.81,-166.57 106.88,-155.93 117.48,-147.37"/>
<polygon fill="#aabbaa" fill-opacity="0.533333" stroke="#aabbaa" stroke-width="1.3" stroke-opacity="0.533333" points="119.34,-150.35 125.26,-141.57 115.15,-144.74 119.34,-150.35"/>
</g>
<!-- /lib/helpers/color_helper.dart&#45;&gt;/lib/helpers/list_helper.dart -->
<g id="edge72" class="edge">
<title>/lib/helpers/color_helper.dart&#45;&gt;/lib/helpers/list_helper.dart</title>
<path fill="none" stroke="#aabbaa" stroke-width="1.3" stroke-opacity="0.533333" d="M1178.73,-103.7C1179.45,-96.49 1180.31,-87.93 1181.12,-79.82"/>
<polygon fill="#aabbaa" fill-opacity="0.533333" stroke="#aabbaa" stroke-width="1.3" stroke-opacity="0.533333" points="1184.58,-80.36 1182.09,-70.06 1177.62,-79.66 1184.58,-80.36"/>
</g>
<!-- /lib/widgets/brush_style_picker.dart&#45;&gt;/lib/models/app_model.dart -->
<g id="edge73" class="edge">
<title>/lib/widgets/brush_style_picker.dart&#45;&gt;/lib/models/app_model.dart</title>
<path fill="none" stroke="#aabbaa" stroke-width="1.3" stroke-opacity="0.533333" d="M1840.32,-194.52C1826.64,-188.33 1810.44,-182.14 1795,-179 1751.88,-170.24 252.02,-186.93 211,-171 199.02,-166.35 188.07,-157.61 179.27,-148.85"/>
<polygon fill="#aabbaa" fill-opacity="0.533333" stroke="#aabbaa" stroke-width="1.3" stroke-opacity="0.533333" points="181.95,-146.6 172.57,-141.68 176.83,-151.38 181.95,-146.6"/>
</g>
<!-- /lib/widgets/color_picker.dart&#45;&gt;/lib/helpers/list_helper.dart -->
<g id="edge75" class="edge">
<title>/lib/widgets/color_picker.dart&#45;&gt;/lib/helpers/list_helper.dart</title>
<path fill="none" stroke="#aabbaa" stroke-width="1.3" stroke-opacity="0.533333" d="M1984.57,-194.65C1975.03,-188.86 1963.87,-182.9 1953,-179 1695.72,-86.58 1365.71,-60.32 1237.9,-53.35"/>
<polygon fill="#aabbaa" fill-opacity="0.533333" stroke="#aabbaa" stroke-width="1.3" stroke-opacity="0.533333" points="1238.31,-49.86 1228.14,-52.83 1237.94,-56.85 1238.31,-49.86"/>
</g>
<!-- /lib/widgets/color_picker.dart&#45;&gt;/lib/helpers/color_helper.dart -->
<g id="edge74" class="edge">
<title>/lib/widgets/color_picker.dart&#45;&gt;/lib/helpers/color_helper.dart</title>
<path fill="none" stroke="#aabbaa" stroke-width="1.3" stroke-opacity="0.533333" d="M1986.26,-194.59C1976.47,-188.42 1964.69,-182.21 1953,-179 1914.69,-168.48 1275.46,-184.21 1238,-171 1224.57,-166.27 1211.84,-157.26 1201.51,-148.32"/>
<polygon fill="#aabbaa" fill-opacity="0.533333" stroke="#aabbaa" stroke-width="1.3" stroke-opacity="0.533333" points="1203.93,-145.79 1194.2,-141.59 1199.18,-150.94 1203.93,-145.79"/>
</g>
<!-- /lib/widgets/color_picker.dart&#45;&gt;/lib/widgets/transparent_background.dart -->
<g id="edge76" class="edge">
<title>/lib/widgets/color_picker.dart&#45;&gt;/lib/widgets/transparent_background.dart</title>
<path fill="none" stroke="#aabbaa" stroke-width="1.3" stroke-opacity="0.533333" d="M1985.95,-194.56C1976.2,-188.46 1964.54,-182.32 1953,-179 1903.85,-164.88 1773.98,-175.06 1723,-171 1626.81,-163.33 1517.68,-149.16 1440.41,-138.19"/>
<polygon fill="#aabbaa" fill-opacity="0.533333" stroke="#aabbaa" stroke-width="1.3" stroke-opacity="0.533333" points="1441.11,-134.76 1430.72,-136.81 1440.12,-141.69 1441.11,-134.76"/>
</g>
</g>
</svg>
