<?xml version="1.0" encoding="UTF-8" standalone="no"?>
<!DOCTYPE svg PUBLIC "-//W3C//DTD SVG 1.1//EN"
 "http://www.w3.org/Graphics/SVG/1.1/DTD/svg11.dtd">
<!-- Generated by graphviz version 12.2.1 (20241206.2353)
 -->
<!-- Pages: 1 -->
<svg width="1053pt" height="758pt"
 viewBox="0.00 0.00 1053.00 758.00" xmlns="http://www.w3.org/2000/svg" xmlns:xlink="http://www.w3.org/1999/xlink">
<g id="graph0" class="graph" transform="scale(1 1) rotate(0) translate(4 754)">
<polygon fill="white" stroke="none" points="-4,4 -4,-754 1049,-754 1049,4 -4,4"/>
<g id="clust1" class="cluster">
<title>cluster~</title>
<path fill="none" stroke="lightgray" stroke-width="2.6" d="M20,-8C20,-8 1025,-8 1025,-8 1031,-8 1037,-14 1037,-20 1037,-20 1037,-730 1037,-730 1037,-736 1031,-742 1025,-742 1025,-742 20,-742 20,-742 14,-742 8,-736 8,-730 8,-730 8,-20 8,-20 8,-14 14,-8 20,-8"/>
<text text-anchor="middle" x="522.5" y="-725.65" font-family="Arial Black" font-size="13.00">fpaint</text>
</g>
<g id="clust2" class="cluster">
<title>cluster~/test</title>
<path fill="none" stroke="lightgray" stroke-width="2.6" d="M61,-636C61,-636 293,-636 293,-636 299,-636 305,-642 305,-648 305,-648 305,-699 305,-699 305,-705 299,-711 293,-711 293,-711 61,-711 61,-711 55,-711 49,-705 49,-699 49,-699 49,-648 49,-648 49,-642 55,-636 61,-636"/>
<text text-anchor="middle" x="177" y="-694.65" font-family="Arial Black" font-size="13.00">test</text>
</g>
<g id="clust3" class="cluster">
<title>cluster~/lib</title>
<path fill="none" stroke="lightgray" stroke-width="2.6" d="M40,-16C40,-16 1017,-16 1017,-16 1023,-16 1029,-22 1029,-28 1029,-28 1029,-616 1029,-616 1029,-622 1023,-628 1017,-628 1017,-628 40,-628 40,-628 34,-628 28,-622 28,-616 28,-616 28,-28 28,-28 28,-22 34,-16 40,-16"/>
<text text-anchor="middle" x="528.5" y="-611.65" font-family="Arial Black" font-size="13.00">lib</text>
</g>
<g id="clust4" class="cluster">
<title>cluster~/lib/panels</title>
<path fill="none" stroke="lightgray" stroke-width="2.6" d="M127,-262C127,-262 329,-262 329,-262 335,-262 341,-268 341,-274 341,-274 341,-469 341,-469 341,-475 335,-481 329,-481 329,-481 127,-481 127,-481 121,-481 115,-475 115,-469 115,-469 115,-274 115,-274 115,-268 121,-262 127,-262"/>
<text text-anchor="middle" x="228" y="-464.65" font-family="Arial Black" font-size="13.00">panels</text>
</g>
<g id="clust5" class="cluster">
<title>cluster~/lib/models</title>
<path fill="none" stroke="lightgray" stroke-width="2.6" d="M804,-262C804,-262 997,-262 997,-262 1003,-262 1009,-268 1009,-274 1009,-274 1009,-469 1009,-469 1009,-475 1003,-481 997,-481 997,-481 804,-481 804,-481 798,-481 792,-475 792,-469 792,-469 792,-274 792,-274 792,-268 798,-262 804,-262"/>
<text text-anchor="middle" x="900.5" y="-464.65" font-family="Arial Black" font-size="13.00">models</text>
</g>
<g id="clust6" class="cluster">
<title>cluster~/lib/files</title>
<path fill="none" stroke="lightgray" stroke-width="2.6" d="M388,-334C388,-334 760,-334 760,-334 766,-334 772,-340 772,-346 772,-346 772,-469 772,-469 772,-475 766,-481 760,-481 760,-481 388,-481 388,-481 382,-481 376,-475 376,-469 376,-469 376,-346 376,-346 376,-340 382,-334 388,-334"/>
<text text-anchor="middle" x="574" y="-464.65" font-family="Arial Black" font-size="13.00">files</text>
</g>
<g id="clust7" class="cluster">
<title>cluster~/lib/helpers</title>
<path fill="none" stroke="lightgray" stroke-width="2.6" d="M400,-24C400,-24 490,-24 490,-24 496,-24 502,-30 502,-36 502,-36 502,-159 502,-159 502,-165 496,-171 490,-171 490,-171 400,-171 400,-171 394,-171 388,-165 388,-159 388,-159 388,-36 388,-36 388,-30 394,-24 400,-24"/>
<text text-anchor="middle" x="445" y="-154.65" font-family="Arial Black" font-size="13.00">helpers</text>
</g>
<g id="clust8" class="cluster">
<title>cluster~/lib/widgets</title>
<path fill="none" stroke="lightgray" stroke-width="2.6" d="M48,-179C48,-179 775,-179 775,-179 781,-179 787,-185 787,-191 787,-191 787,-242 787,-242 787,-248 781,-254 775,-254 775,-254 48,-254 48,-254 42,-254 36,-248 36,-242 36,-242 36,-191 36,-191 36,-185 42,-179 48,-179"/>
<text text-anchor="middle" x="411.5" y="-237.65" font-family="Arial Black" font-size="13.00">widgets</text>
</g>
<!-- /test/paint_model_test.dart -->
<g id="node1" class="node">
<title>/test/paint_model_test.dart</title>
<path fill="Lavender" stroke="black" stroke-width="1.3" d="M175,-680C175,-680 69,-680 69,-680 63,-680 57,-674 57,-668 57,-668 57,-656 57,-656 57,-650 63,-644 69,-644 69,-644 175,-644 175,-644 181,-644 187,-650 187,-656 187,-656 187,-668 187,-668 187,-674 181,-680 175,-680"/>
<text text-anchor="middle" x="122" y="-656.75" font-family="Arial" font-size="15.00">paint_model_test</text>
</g>
<!-- /lib/models/app_model.dart -->
<g id="node10" class="node">
<title>/lib/models/app_model.dart</title>
<path fill="Lavender" stroke="black" stroke-width="1.3" d="M877.75,-306C877.75,-306 812.25,-306 812.25,-306 806.25,-306 800.25,-300 800.25,-294 800.25,-294 800.25,-282 800.25,-282 800.25,-276 806.25,-270 812.25,-270 812.25,-270 877.75,-270 877.75,-270 883.75,-270 889.75,-276 889.75,-282 889.75,-282 889.75,-294 889.75,-294 889.75,-300 883.75,-306 877.75,-306"/>
<text text-anchor="middle" x="845" y="-282.75" font-family="Arial" font-size="15.00">app_model</text>
</g>
<!-- /test/paint_model_test.dart&#45;&gt;/lib/models/app_model.dart -->
<g id="edge1" class="edge">
<title>/test/paint_model_test.dart&#45;&gt;/lib/models/app_model.dart</title>
<path fill="none" stroke="#aabbaa" stroke-width="1.3" stroke-opacity="0.533333" d="M56.56,-650.89C43.97,-645.96 32.17,-638.7 24,-628 -8.42,-585.54 17,-561.42 17,-508 17,-508 17,-508 17,-431 17,-370.97 56.46,-359.09 111,-334 171.89,-305.99 626.78,-293.65 788.31,-290.12"/>
<polygon fill="#aabbaa" fill-opacity="0.533333" stroke="#aabbaa" stroke-width="1.3" stroke-opacity="0.533333" points="787.98,-293.63 797.9,-289.92 787.83,-286.63 787.98,-293.63"/>
</g>
<!-- /test/widget_test.dart -->
<g id="node2" class="node">
<title>/test/widget_test.dart</title>
<path fill="Lavender" stroke="black" stroke-width="1.3" d="M284.88,-680C284.88,-680 217.12,-680 217.12,-680 211.12,-680 205.12,-674 205.12,-668 205.12,-668 205.12,-656 205.12,-656 205.12,-650 211.12,-644 217.12,-644 217.12,-644 284.88,-644 284.88,-644 290.88,-644 296.88,-650 296.88,-656 296.88,-656 296.88,-668 296.88,-668 296.88,-674 290.88,-680 284.88,-680"/>
<text text-anchor="middle" x="251" y="-656.75" font-family="Arial" font-size="15.00">widget_test</text>
</g>
<!-- /lib/main.dart -->
<g id="node12" class="node">
<title>/lib/main.dart</title>
<path fill="Lavender" stroke="black" stroke-width="1.3" d="M298,-597C298,-597 268,-597 268,-597 262,-597 256,-591 256,-585 256,-585 256,-573 256,-573 256,-567 262,-561 268,-561 268,-561 298,-561 298,-561 304,-561 310,-567 310,-573 310,-573 310,-585 310,-585 310,-591 304,-597 298,-597"/>
<text text-anchor="middle" x="283" y="-573.75" font-family="Arial" font-size="15.00">main</text>
</g>
<!-- /test/widget_test.dart&#45;&gt;/lib/main.dart -->
<g id="edge2" class="edge">
<title>/test/widget_test.dart&#45;&gt;/lib/main.dart</title>
<path fill="none" stroke="#aabbaa" stroke-width="1.3" stroke-opacity="0.533333" d="M257.79,-643.82C261.83,-633.58 267.07,-620.33 271.72,-608.55"/>
<polygon fill="#aabbaa" fill-opacity="0.533333" stroke="#aabbaa" stroke-width="1.3" stroke-opacity="0.533333" points="274.97,-609.85 275.39,-599.26 268.46,-607.28 274.97,-609.85"/>
</g>
<!-- /lib/panels/canvas_panel.dart -->
<g id="node3" class="node">
<title>/lib/panels/canvas_panel.dart</title>
<path fill="Lavender" stroke="black" stroke-width="1.3" d="M320.75,-306C320.75,-306 237.25,-306 237.25,-306 231.25,-306 225.25,-300 225.25,-294 225.25,-294 225.25,-282 225.25,-282 225.25,-276 231.25,-270 237.25,-270 237.25,-270 320.75,-270 320.75,-270 326.75,-270 332.75,-276 332.75,-282 332.75,-282 332.75,-294 332.75,-294 332.75,-300 326.75,-306 320.75,-306"/>
<text text-anchor="middle" x="279" y="-282.75" font-family="Arial" font-size="15.00">canvas_panel</text>
</g>
<!-- /lib/panels/canvas_panel.dart&#45;&gt;/lib/models/app_model.dart -->
<g id="edge4" class="edge">
<title>/lib/panels/canvas_panel.dart&#45;&gt;/lib/models/app_model.dart</title>
<path fill="none" stroke="#aabbaa" stroke-width="1.3" stroke-opacity="0.533333" d="M333.17,-288C484.83,-288 636.5,-288 788.16,-288"/>
<polygon fill="#aabbaa" fill-opacity="0.533333" stroke="#aabbaa" stroke-width="1.3" stroke-opacity="0.533333" points="788.05,-291.5 798.05,-288 788.05,-284.5 788.05,-291.5"/>
</g>
<!-- /lib/widgets/transparent_background.dart -->
<g id="node21" class="node">
<title>/lib/widgets/transparent_background.dart</title>
<path fill="Lavender" stroke="black" stroke-width="1.3" d="M608.38,-223C608.38,-223 453.62,-223 453.62,-223 447.62,-223 441.62,-217 441.62,-211 441.62,-211 441.62,-199 441.62,-199 441.62,-193 447.62,-187 453.62,-187 453.62,-187 608.38,-187 608.38,-187 614.38,-187 620.38,-193 620.38,-199 620.38,-199 620.38,-211 620.38,-211 620.38,-217 614.38,-223 608.38,-223"/>
<text text-anchor="middle" x="531" y="-199.75" font-family="Arial" font-size="15.00">transparent_background</text>
</g>
<!-- /lib/panels/canvas_panel.dart&#45;&gt;/lib/widgets/transparent_background.dart -->
<g id="edge3" class="edge">
<title>/lib/panels/canvas_panel.dart&#45;&gt;/lib/widgets/transparent_background.dart</title>
<path fill="none" stroke="#aabbaa" stroke-width="1.3" stroke-opacity="0.533333" d="M332.98,-278.77C362.93,-273.38 400.57,-265.23 433,-254 452.42,-247.28 472.98,-237.63 490.23,-228.75"/>
<polygon fill="#aabbaa" fill-opacity="0.533333" stroke="#aabbaa" stroke-width="1.3" stroke-opacity="0.533333" points="491.53,-232.02 498.76,-224.26 488.28,-225.82 491.53,-232.02"/>
</g>
<!-- /lib/panels/tool_item.dart -->
<g id="node4" class="node">
<title>/lib/panels/tool_item.dart</title>
<path fill="Lavender" stroke="black" stroke-width="1.3" d="M200.38,-378C200.38,-378 147.62,-378 147.62,-378 141.62,-378 135.62,-372 135.62,-366 135.62,-366 135.62,-354 135.62,-354 135.62,-348 141.62,-342 147.62,-342 147.62,-342 200.38,-342 200.38,-342 206.38,-342 212.38,-348 212.38,-354 212.38,-354 212.38,-366 212.38,-366 212.38,-372 206.38,-378 200.38,-378"/>
<text text-anchor="middle" x="174" y="-354.75" font-family="Arial" font-size="15.00">tool_item</text>
</g>
<!-- /lib/panels/share_panel.dart -->
<g id="node5" class="node">
<title>/lib/panels/share_panel.dart</title>
<path fill="Lavender" stroke="black" stroke-width="1.3" d="M315.88,-378C315.88,-378 242.12,-378 242.12,-378 236.12,-378 230.12,-372 230.12,-366 230.12,-366 230.12,-354 230.12,-354 230.12,-348 236.12,-342 242.12,-342 242.12,-342 315.88,-342 315.88,-342 321.88,-342 327.88,-348 327.88,-354 327.88,-354 327.88,-366 327.88,-366 327.88,-372 321.88,-378 315.88,-378"/>
<text text-anchor="middle" x="279" y="-354.75" font-family="Arial" font-size="15.00">share_panel</text>
</g>
<!-- /lib/panels/share_panel.dart&#45;&gt;/lib/panels/canvas_panel.dart -->
<g id="edge6" class="edge">
<title>/lib/panels/share_panel.dart&#45;&gt;/lib/panels/canvas_panel.dart</title>
<path fill="none" stroke="#aabbaa" stroke-width="1.3" stroke-opacity="0.533333" d="M279,-341.7C279,-334.49 279,-325.93 279,-317.82"/>
<polygon fill="#aabbaa" fill-opacity="0.533333" stroke="#aabbaa" stroke-width="1.3" stroke-opacity="0.533333" points="282.5,-318.07 279,-308.07 275.5,-318.07 282.5,-318.07"/>
</g>
<!-- /lib/panels/share_panel.dart&#45;&gt;/lib/models/app_model.dart -->
<g id="edge5" class="edge">
<title>/lib/panels/share_panel.dart&#45;&gt;/lib/models/app_model.dart</title>
<path fill="none" stroke="#aabbaa" stroke-width="1.3" stroke-opacity="0.533333" d="M317.75,-341.6C325.64,-338.64 333.99,-335.91 342,-334 500.53,-296.3 693.99,-289.62 788.11,-288.79"/>
<polygon fill="#aabbaa" fill-opacity="0.533333" stroke="#aabbaa" stroke-width="1.3" stroke-opacity="0.533333" points="787.95,-292.29 797.93,-288.73 787.91,-285.29 787.95,-292.29"/>
</g>
<!-- /lib/panels/tools_panel.dart -->
<g id="node6" class="node">
<title>/lib/panels/tools_panel.dart</title>
<path fill="Lavender" stroke="black" stroke-width="1.3" d="M202.88,-450C202.88,-450 135.12,-450 135.12,-450 129.12,-450 123.12,-444 123.12,-438 123.12,-438 123.12,-426 123.12,-426 123.12,-420 129.12,-414 135.12,-414 135.12,-414 202.88,-414 202.88,-414 208.88,-414 214.88,-420 214.88,-426 214.88,-426 214.88,-438 214.88,-438 214.88,-444 208.88,-450 202.88,-450"/>
<text text-anchor="middle" x="169" y="-426.75" font-family="Arial" font-size="15.00">tools_panel</text>
</g>
<!-- /lib/panels/tools_panel.dart&#45;&gt;/lib/panels/tool_item.dart -->
<g id="edge8" class="edge">
<title>/lib/panels/tools_panel.dart&#45;&gt;/lib/panels/tool_item.dart</title>
<path fill="none" stroke="#aabbaa" stroke-width="1.3" stroke-opacity="0.533333" d="M170.24,-413.7C170.75,-406.49 171.36,-397.93 171.94,-389.82"/>
<polygon fill="#aabbaa" fill-opacity="0.533333" stroke="#aabbaa" stroke-width="1.3" stroke-opacity="0.533333" points="175.42,-390.29 172.64,-380.07 168.43,-389.79 175.42,-390.29"/>
</g>
<!-- /lib/panels/tools_panel.dart&#45;&gt;/lib/models/app_model.dart -->
<g id="edge7" class="edge">
<title>/lib/panels/tools_panel.dart&#45;&gt;/lib/models/app_model.dart</title>
<path fill="none" stroke="#aabbaa" stroke-width="1.3" stroke-opacity="0.533333" d="M214.94,-416.78C264.29,-401.46 335.86,-379.12 337,-378 351.78,-363.56 335.76,-346.78 352,-334 385.66,-307.51 665.88,-294.99 788.23,-290.74"/>
<polygon fill="#aabbaa" fill-opacity="0.533333" stroke="#aabbaa" stroke-width="1.3" stroke-opacity="0.533333" points="788.07,-294.25 797.94,-290.41 787.83,-287.26 788.07,-294.25"/>
</g>
<!-- /lib/widgets/brush_size_picker.dart -->
<g id="node20" class="node">
<title>/lib/widgets/brush_size_picker.dart</title>
<path fill="Lavender" stroke="black" stroke-width="1.3" d="M282,-223C282,-223 170,-223 170,-223 164,-223 158,-217 158,-211 158,-211 158,-199 158,-199 158,-193 164,-187 170,-187 170,-187 282,-187 282,-187 288,-187 294,-193 294,-199 294,-199 294,-211 294,-211 294,-217 288,-223 282,-223"/>
<text text-anchor="middle" x="226" y="-199.75" font-family="Arial" font-size="15.00">brush_size_picker</text>
</g>
<!-- /lib/panels/tools_panel.dart&#45;&gt;/lib/widgets/brush_size_picker.dart -->
<g id="edge9" class="edge">
<title>/lib/panels/tools_panel.dart&#45;&gt;/lib/widgets/brush_size_picker.dart</title>
<path fill="none" stroke="#aabbaa" stroke-width="1.3" stroke-opacity="0.533333" d="M129.32,-413.66C114.86,-405.15 100.08,-393.37 92,-378 68.01,-332.37 58.17,-300.91 92,-262 100.39,-252.35 136.98,-258.37 149,-254 164.81,-248.26 180.83,-238.95 194.13,-230.06"/>
<polygon fill="#aabbaa" fill-opacity="0.533333" stroke="#aabbaa" stroke-width="1.3" stroke-opacity="0.533333" points="195.89,-233.1 202.11,-224.52 191.89,-227.35 195.89,-233.1"/>
</g>
<!-- /lib/panels/tools_panel.dart&#45;&gt;/lib/widgets/transparent_background.dart -->
<g id="edge11" class="edge">
<title>/lib/panels/tools_panel.dart&#45;&gt;/lib/widgets/transparent_background.dart</title>
<path fill="none" stroke="#aabbaa" stroke-width="1.3" stroke-opacity="0.533333" d="M150.4,-413.76C141.47,-404.2 131.71,-391.53 127,-378 120.57,-359.53 118.58,-351.65 127,-334 148.91,-288.08 168.36,-279.85 216,-262 261.19,-245.07 386.2,-265.76 433,-254 453.85,-248.76 475.46,-238.74 493.07,-229.2"/>
<polygon fill="#aabbaa" fill-opacity="0.533333" stroke="#aabbaa" stroke-width="1.3" stroke-opacity="0.533333" points="494.75,-232.28 501.76,-224.33 491.33,-226.17 494.75,-232.28"/>
</g>
<!-- /lib/widgets/color_picker.dart -->
<g id="node23" class="node">
<title>/lib/widgets/color_picker.dart</title>
<path fill="Lavender" stroke="black" stroke-width="1.3" d="M128.12,-223C128.12,-223 55.88,-223 55.88,-223 49.88,-223 43.88,-217 43.88,-211 43.88,-211 43.88,-199 43.88,-199 43.88,-193 49.88,-187 55.88,-187 55.88,-187 128.12,-187 128.12,-187 134.12,-187 140.12,-193 140.12,-199 140.12,-199 140.12,-211 140.12,-211 140.12,-217 134.12,-223 128.12,-223"/>
<text text-anchor="middle" x="92" y="-199.75" font-family="Arial" font-size="15.00">color_picker</text>
</g>
<!-- /lib/panels/tools_panel.dart&#45;&gt;/lib/widgets/color_picker.dart -->
<g id="edge10" class="edge">
<title>/lib/panels/tools_panel.dart&#45;&gt;/lib/widgets/color_picker.dart</title>
<path fill="none" stroke="#aabbaa" stroke-width="1.3" stroke-opacity="0.533333" d="M122.83,-417.76C103.11,-409.61 81.92,-396.99 70,-378 42.59,-334.32 56.25,-312.44 67,-262 69.06,-252.34 72.91,-242.32 76.99,-233.47"/>
<polygon fill="#aabbaa" fill-opacity="0.533333" stroke="#aabbaa" stroke-width="1.3" stroke-opacity="0.533333" points="79.99,-235.29 81.28,-224.78 73.71,-232.2 79.99,-235.29"/>
</g>
<!-- /lib/panels/layers_panel.dart -->
<g id="node7" class="node">
<title>/lib/panels/layers_panel.dart</title>
<path fill="Lavender" stroke="black" stroke-width="1.3" d="M321,-450C321,-450 245,-450 245,-450 239,-450 233,-444 233,-438 233,-438 233,-426 233,-426 233,-420 239,-414 245,-414 245,-414 321,-414 321,-414 327,-414 333,-420 333,-426 333,-426 333,-438 333,-438 333,-444 327,-450 321,-450"/>
<text text-anchor="middle" x="283" y="-426.75" font-family="Arial" font-size="15.00">layers_panel</text>
</g>
<!-- /lib/panels/layers_panel.dart&#45;&gt;/lib/panels/share_panel.dart -->
<g id="edge13" class="edge">
<title>/lib/panels/layers_panel.dart&#45;&gt;/lib/panels/share_panel.dart</title>
<path fill="none" stroke="#aabbaa" stroke-width="1.3" stroke-opacity="0.533333" d="M282.01,-413.7C281.6,-406.49 281.11,-397.93 280.65,-389.82"/>
<polygon fill="#aabbaa" fill-opacity="0.533333" stroke="#aabbaa" stroke-width="1.3" stroke-opacity="0.533333" points="284.15,-389.85 280.09,-380.07 277.17,-390.25 284.15,-389.85"/>
</g>
<!-- /lib/panels/layers_panel.dart&#45;&gt;/lib/models/app_model.dart -->
<g id="edge12" class="edge">
<title>/lib/panels/layers_panel.dart&#45;&gt;/lib/models/app_model.dart</title>
<path fill="none" stroke="#aabbaa" stroke-width="1.3" stroke-opacity="0.533333" d="M311.87,-413.57C325.39,-404.31 340.91,-391.96 352,-378 365.36,-361.18 354.51,-346.47 372,-334 405.24,-310.3 669.89,-296.34 788.2,-291.24"/>
<polygon fill="#aabbaa" fill-opacity="0.533333" stroke="#aabbaa" stroke-width="1.3" stroke-opacity="0.533333" points="788.04,-294.75 797.89,-290.82 787.75,-287.75 788.04,-294.75"/>
</g>
<!-- /lib/widgets/truncated_text.dart -->
<g id="node19" class="node">
<title>/lib/widgets/truncated_text.dart</title>
<path fill="Lavender" stroke="black" stroke-width="1.3" d="M412,-223C412,-223 324,-223 324,-223 318,-223 312,-217 312,-211 312,-211 312,-199 312,-199 312,-193 318,-187 324,-187 324,-187 412,-187 412,-187 418,-187 424,-193 424,-199 424,-199 424,-211 424,-211 424,-217 418,-223 412,-223"/>
<text text-anchor="middle" x="368" y="-199.75" font-family="Arial" font-size="15.00">truncated_text</text>
</g>
<!-- /lib/panels/layers_panel.dart&#45;&gt;/lib/widgets/truncated_text.dart -->
<g id="edge14" class="edge">
<title>/lib/panels/layers_panel.dart&#45;&gt;/lib/widgets/truncated_text.dart</title>
<path fill="none" stroke="#aabbaa" stroke-width="1.3" stroke-opacity="0.533333" d="M232.52,-415.4C188.2,-401.46 130.27,-382.56 127,-378 115.61,-362.1 118.58,-351.65 127,-334 148.91,-288.08 168.86,-281.15 216,-262 251.97,-247.38 266.71,-267.82 303,-254 316.79,-248.75 330.22,-239.71 341.26,-230.88"/>
<polygon fill="#aabbaa" fill-opacity="0.533333" stroke="#aabbaa" stroke-width="1.3" stroke-opacity="0.533333" points="343.39,-233.66 348.79,-224.54 338.89,-228.3 343.39,-233.66"/>
</g>
<!-- /lib/models/layers.dart -->
<g id="node8" class="node">
<title>/lib/models/layers.dart</title>
<path fill="Lavender" stroke="black" stroke-width="1.3" d="M906.88,-450C906.88,-450 875.12,-450 875.12,-450 869.12,-450 863.12,-444 863.12,-438 863.12,-438 863.12,-426 863.12,-426 863.12,-420 869.12,-414 875.12,-414 875.12,-414 906.88,-414 906.88,-414 912.88,-414 918.88,-420 918.88,-426 918.88,-426 918.88,-438 918.88,-438 918.88,-444 912.88,-450 906.88,-450"/>
<text text-anchor="middle" x="891" y="-426.75" font-family="Arial" font-size="15.00">layers</text>
</g>
<!-- /lib/models/layer.dart -->
<g id="node11" class="node">
<title>/lib/models/layer.dart</title>
<path fill="Lavender" stroke="black" stroke-width="1.3" d="M906,-378C906,-378 876,-378 876,-378 870,-378 864,-372 864,-366 864,-366 864,-354 864,-354 864,-348 870,-342 876,-342 876,-342 906,-342 906,-342 912,-342 918,-348 918,-354 918,-354 918,-366 918,-366 918,-372 912,-378 906,-378"/>
<text text-anchor="middle" x="891" y="-354.75" font-family="Arial" font-size="15.00">layer</text>
</g>
<!-- /lib/models/layers.dart&#45;&gt;/lib/models/layer.dart -->
<g id="edge16" class="edge">
<title>/lib/models/layers.dart&#45;&gt;/lib/models/layer.dart</title>
<path fill="none" stroke="#aabbaa" stroke-width="1.3" stroke-opacity="0.533333" d="M885.08,-413.7C884.34,-406.49 884.09,-397.93 884.34,-389.82"/>
<polygon fill="#aabbaa" fill-opacity="0.533333" stroke="#aabbaa" stroke-width="1.3" stroke-opacity="0.533333" points="887.82,-390.27 884.98,-380.07 880.84,-389.82 887.82,-390.27"/>
</g>
<!-- /lib/models/layers.dart&#45;&gt;/lib/models/layer.dart -->
<g id="edge17" class="edge">
<title>/lib/models/layers.dart&#45;&gt;/lib/models/layer.dart</title>
<path fill="none" stroke="#aabbaa" stroke-width="1.3" stroke-dasharray="5,2" stroke-opacity="0.533333" d="M896.92,-413.7C897.66,-406.49 897.91,-397.93 897.66,-389.82"/>
<polygon fill="#aabbaa" fill-opacity="0.533333" stroke="#aabbaa" stroke-width="1.3" stroke-opacity="0.533333" points="901.16,-389.82 897.02,-380.07 894.18,-390.27 901.16,-389.82"/>
</g>
<!-- /lib/helpers/list_helper.dart -->
<g id="node17" class="node">
<title>/lib/helpers/list_helper.dart</title>
<path fill="Lavender" stroke="black" stroke-width="1.3" d="M477.75,-68C477.75,-68 418.25,-68 418.25,-68 412.25,-68 406.25,-62 406.25,-56 406.25,-56 406.25,-44 406.25,-44 406.25,-38 412.25,-32 418.25,-32 418.25,-32 477.75,-32 477.75,-32 483.75,-32 489.75,-38 489.75,-44 489.75,-44 489.75,-56 489.75,-56 489.75,-62 483.75,-68 477.75,-68"/>
<text text-anchor="middle" x="448" y="-44.75" font-family="Arial" font-size="15.00">list_helper</text>
</g>
<!-- /lib/models/layers.dart&#45;&gt;/lib/helpers/list_helper.dart -->
<g id="edge15" class="edge">
<title>/lib/models/layers.dart&#45;&gt;/lib/helpers/list_helper.dart</title>
<path fill="none" stroke="#aabbaa" stroke-width="1.3" stroke-opacity="0.533333" d="M919.09,-413.77C963.82,-384.04 1042.99,-320.64 1010,-262 907.63,-79.99 621.22,-53.64 501.58,-50.78"/>
<polygon fill="#aabbaa" fill-opacity="0.533333" stroke="#aabbaa" stroke-width="1.3" stroke-opacity="0.533333" points="501.89,-47.28 491.83,-50.6 501.76,-54.28 501.89,-47.28"/>
</g>
<!-- /lib/models/user_action.dart -->
<g id="node9" class="node">
<title>/lib/models/user_action.dart</title>
<path fill="Lavender" stroke="black" stroke-width="1.3" d="M988.62,-306C988.62,-306 919.38,-306 919.38,-306 913.38,-306 907.38,-300 907.38,-294 907.38,-294 907.38,-282 907.38,-282 907.38,-276 913.38,-270 919.38,-270 919.38,-270 988.62,-270 988.62,-270 994.62,-270 1000.62,-276 1000.62,-282 1000.62,-282 1000.62,-294 1000.62,-294 1000.62,-300 994.62,-306 988.62,-306"/>
<text text-anchor="middle" x="954" y="-282.75" font-family="Arial" font-size="15.00">user_action</text>
</g>
<!-- /lib/widgets/brush_style_picker.dart -->
<g id="node22" class="node">
<title>/lib/widgets/brush_style_picker.dart</title>
<path fill="Lavender" stroke="black" stroke-width="1.3" d="M767.25,-223C767.25,-223 650.75,-223 650.75,-223 644.75,-223 638.75,-217 638.75,-211 638.75,-211 638.75,-199 638.75,-199 638.75,-193 644.75,-187 650.75,-187 650.75,-187 767.25,-187 767.25,-187 773.25,-187 779.25,-193 779.25,-199 779.25,-199 779.25,-211 779.25,-211 779.25,-217 773.25,-223 767.25,-223"/>
<text text-anchor="middle" x="709" y="-199.75" font-family="Arial" font-size="15.00">brush_style_picker</text>
</g>
<!-- /lib/models/user_action.dart&#45;&gt;/lib/widgets/brush_style_picker.dart -->
<g id="edge18" class="edge">
<title>/lib/models/user_action.dart&#45;&gt;/lib/widgets/brush_style_picker.dart</title>
<path fill="none" stroke="#aabbaa" stroke-width="1.3" stroke-opacity="0.533333" d="M908.74,-269.6C902.46,-266.91 896.09,-264.27 890,-262 854.1,-248.62 813.46,-236.29 779.75,-226.61"/>
<polygon fill="#aabbaa" fill-opacity="0.533333" stroke="#aabbaa" stroke-width="1.3" stroke-opacity="0.533333" points="781.07,-223.35 770.49,-223.98 779.15,-230.08 781.07,-223.35"/>
</g>
<!-- /lib/models/user_action.dart&#45;&gt;/lib/widgets/brush_style_picker.dart -->
<g id="edge19" class="edge">
<title>/lib/models/user_action.dart&#45;&gt;/lib/widgets/brush_style_picker.dart</title>
<path fill="none" stroke="#aabbaa" stroke-width="1.3" stroke-dasharray="5,2" stroke-opacity="0.533333" d="M926.49,-269.6C920.46,-266.91 914.09,-264.27 908,-262 870.34,-247.97 827.48,-235.08 791.15,-225.21"/>
<polygon fill="#aabbaa" fill-opacity="0.533333" stroke="#aabbaa" stroke-width="1.3" stroke-opacity="0.533333" points="792.06,-221.84 781.5,-222.63 790.25,-228.6 792.06,-221.84"/>
</g>
<!-- /lib/models/app_model.dart&#45;&gt;/lib/models/layers.dart -->
<g id="edge20" class="edge">
<title>/lib/models/app_model.dart&#45;&gt;/lib/models/layers.dart</title>
<path fill="none" stroke="#aabbaa" stroke-width="1.3" stroke-opacity="0.533333" d="M837.84,-306.29C835.56,-324.65 837.21,-354.23 846,-378 849.4,-387.2 854.73,-396.34 860.62,-404.39"/>
<polygon fill="#aabbaa" fill-opacity="0.533333" stroke="#aabbaa" stroke-width="1.3" stroke-opacity="0.533333" points="857.78,-406.43 866.76,-412.04 863.24,-402.05 857.78,-406.43"/>
</g>
<!-- /lib/models/app_model.dart&#45;&gt;/lib/models/layers.dart -->
<g id="edge21" class="edge">
<title>/lib/models/app_model.dart&#45;&gt;/lib/models/layers.dart</title>
<path fill="none" stroke="#aabbaa" stroke-width="1.3" stroke-dasharray="5,2" stroke-opacity="0.533333" d="M851.2,-306.29C853.56,-324.65 855.21,-354.23 864,-378 867.29,-386.89 872.38,-395.74 877.38,-403.59"/>
<polygon fill="#aabbaa" fill-opacity="0.533333" stroke="#aabbaa" stroke-width="1.3" stroke-opacity="0.533333" points="874.45,-405.5 882.87,-411.93 880.29,-401.66 874.45,-405.5"/>
</g>
<!-- /lib/models/layer.dart&#45;&gt;/lib/models/user_action.dart -->
<g id="edge23" class="edge">
<title>/lib/models/layer.dart&#45;&gt;/lib/models/user_action.dart</title>
<path fill="none" stroke="#aabbaa" stroke-width="1.3" stroke-dasharray="5,2" stroke-opacity="0.533333" d="M906.57,-341.7C913.82,-333.64 922.59,-323.89 930.62,-314.98"/>
<polygon fill="#aabbaa" fill-opacity="0.533333" stroke="#aabbaa" stroke-width="1.3" stroke-opacity="0.533333" points="933.2,-317.34 937.29,-307.57 928,-312.66 933.2,-317.34"/>
</g>
<!-- /lib/models/layer.dart&#45;&gt;/lib/models/app_model.dart -->
<g id="edge22" class="edge">
<title>/lib/models/layer.dart&#45;&gt;/lib/models/app_model.dart</title>
<path fill="none" stroke="#aabbaa" stroke-width="1.3" stroke-opacity="0.533333" d="M879.63,-341.7C874.5,-333.9 868.33,-324.51 862.63,-315.83"/>
<polygon fill="#aabbaa" fill-opacity="0.533333" stroke="#aabbaa" stroke-width="1.3" stroke-opacity="0.533333" points="865.74,-314.18 857.32,-307.75 859.89,-318.03 865.74,-314.18"/>
</g>
<!-- /lib/main.dart&#45;&gt;/lib/models/app_model.dart -->
<g id="edge25" class="edge">
<title>/lib/main.dart&#45;&gt;/lib/models/app_model.dart</title>
<path fill="none" stroke="#aabbaa" stroke-width="1.3" stroke-opacity="0.533333" d="M310.15,-578.37C422.12,-579.24 846.09,-576.15 928,-481 932.6,-475.65 930.79,-340.31 927,-334 920.67,-323.45 910.9,-315.2 900.28,-308.82"/>
<polygon fill="#aabbaa" fill-opacity="0.533333" stroke="#aabbaa" stroke-width="1.3" stroke-opacity="0.533333" points="902.13,-305.84 891.66,-304.19 898.81,-312 902.13,-305.84"/>
</g>
<!-- /lib/main_screen.dart -->
<g id="node16" class="node">
<title>/lib/main_screen.dart</title>
<path fill="Lavender" stroke="black" stroke-width="1.3" d="M321.75,-525C321.75,-525 244.25,-525 244.25,-525 238.25,-525 232.25,-519 232.25,-513 232.25,-513 232.25,-501 232.25,-501 232.25,-495 238.25,-489 244.25,-489 244.25,-489 321.75,-489 321.75,-489 327.75,-489 333.75,-495 333.75,-501 333.75,-501 333.75,-513 333.75,-513 333.75,-519 327.75,-525 321.75,-525"/>
<text text-anchor="middle" x="283" y="-501.75" font-family="Arial" font-size="15.00">main_screen</text>
</g>
<!-- /lib/main.dart&#45;&gt;/lib/main_screen.dart -->
<g id="edge24" class="edge">
<title>/lib/main.dart&#45;&gt;/lib/main_screen.dart</title>
<path fill="none" stroke="#aabbaa" stroke-width="1.3" stroke-opacity="0.533333" d="M283,-560.7C283,-553.49 283,-544.93 283,-536.82"/>
<polygon fill="#aabbaa" fill-opacity="0.533333" stroke="#aabbaa" stroke-width="1.3" stroke-opacity="0.533333" points="286.5,-537.07 283,-527.07 279.5,-537.07 286.5,-537.07"/>
</g>
<!-- /lib/files/export_download_web.dart -->
<g id="node13" class="node">
<title>/lib/files/export_download_web.dart</title>
<path fill="Lavender" stroke="black" stroke-width="1.3" d="M752.25,-450C752.25,-450 611.75,-450 611.75,-450 605.75,-450 599.75,-444 599.75,-438 599.75,-438 599.75,-426 599.75,-426 599.75,-420 605.75,-414 611.75,-414 611.75,-414 752.25,-414 752.25,-414 758.25,-414 764.25,-420 764.25,-426 764.25,-426 764.25,-438 764.25,-438 764.25,-444 758.25,-450 752.25,-450"/>
<text text-anchor="middle" x="682" y="-426.75" font-family="Arial" font-size="15.00">export_download_web</text>
</g>
<!-- /lib/files/export_download_web.dart&#45;&gt;/lib/panels/share_panel.dart -->
<g id="edge28" class="edge">
<title>/lib/files/export_download_web.dart&#45;&gt;/lib/panels/share_panel.dart</title>
<path fill="none" stroke="#aabbaa" stroke-width="1.3" stroke-opacity="0.533333" d="M599.67,-415.54C596.75,-415.01 593.85,-414.5 591,-414 493.85,-396.94 469.19,-394.87 372,-378 361.55,-376.19 350.45,-374.2 339.69,-372.26"/>
<polygon fill="#aabbaa" fill-opacity="0.533333" stroke="#aabbaa" stroke-width="1.3" stroke-opacity="0.533333" points="340.6,-368.86 330.14,-370.52 339.35,-375.75 340.6,-368.86"/>
</g>
<!-- /lib/files/export_download_web.dart&#45;&gt;/lib/models/app_model.dart -->
<g id="edge27" class="edge">
<title>/lib/files/export_download_web.dart&#45;&gt;/lib/models/app_model.dart</title>
<path fill="none" stroke="#aabbaa" stroke-width="1.3" stroke-opacity="0.533333" d="M733.82,-413.62C752.98,-405.21 773.72,-393.5 789,-378 804.21,-362.57 798.62,-352.44 810,-334 813.8,-327.85 818.28,-321.55 822.74,-315.68"/>
<polygon fill="#aabbaa" fill-opacity="0.533333" stroke="#aabbaa" stroke-width="1.3" stroke-opacity="0.533333" points="825.46,-317.88 828.89,-307.86 819.96,-313.55 825.46,-317.88"/>
</g>
<!-- /lib/files/file_ora.dart -->
<g id="node14" class="node">
<title>/lib/files/file_ora.dart</title>
<path fill="Lavender" stroke="black" stroke-width="1.3" d="M752.38,-378C752.38,-378 711.62,-378 711.62,-378 705.62,-378 699.62,-372 699.62,-366 699.62,-366 699.62,-354 699.62,-354 699.62,-348 705.62,-342 711.62,-342 711.62,-342 752.38,-342 752.38,-342 758.38,-342 764.38,-348 764.38,-354 764.38,-354 764.38,-366 764.38,-366 764.38,-372 758.38,-378 752.38,-378"/>
<text text-anchor="middle" x="732" y="-354.75" font-family="Arial" font-size="15.00">file_ora</text>
</g>
<!-- /lib/files/export_download_web.dart&#45;&gt;/lib/files/file_ora.dart -->
<g id="edge26" class="edge">
<title>/lib/files/export_download_web.dart&#45;&gt;/lib/files/file_ora.dart</title>
<path fill="none" stroke="#aabbaa" stroke-width="1.3" stroke-opacity="0.533333" d="M694.36,-413.7C699.93,-405.9 706.64,-396.51 712.84,-387.83"/>
<polygon fill="#aabbaa" fill-opacity="0.533333" stroke="#aabbaa" stroke-width="1.3" stroke-opacity="0.533333" points="715.67,-389.88 718.64,-379.71 709.98,-385.81 715.67,-389.88"/>
</g>
<!-- /lib/files/file_ora.dart&#45;&gt;/lib/models/app_model.dart -->
<g id="edge30" class="edge">
<title>/lib/files/file_ora.dart&#45;&gt;/lib/models/app_model.dart</title>
<path fill="none" stroke="#aabbaa" stroke-width="1.3" stroke-opacity="0.533333" d="M760.22,-341.52C774.49,-332.68 791.99,-321.84 807.38,-312.3"/>
<polygon fill="#aabbaa" fill-opacity="0.533333" stroke="#aabbaa" stroke-width="1.3" stroke-opacity="0.533333" points="808.81,-315.54 815.46,-307.3 805.12,-309.59 808.81,-315.54"/>
</g>
<!-- /lib/files/file_ora.dart&#45;&gt;/lib/helpers/list_helper.dart -->
<g id="edge29" class="edge">
<title>/lib/files/file_ora.dart&#45;&gt;/lib/helpers/list_helper.dart</title>
<path fill="none" stroke="#aabbaa" stroke-width="1.3" stroke-opacity="0.533333" d="M742.27,-341.85C758.51,-314.57 788.54,-263.41 791,-254 799.44,-221.75 810.01,-206.38 791,-179 725.24,-84.27 580.4,-59.52 501.61,-53.14"/>
<polygon fill="#aabbaa" fill-opacity="0.533333" stroke="#aabbaa" stroke-width="1.3" stroke-opacity="0.533333" points="502.21,-49.68 491.98,-52.44 501.7,-56.66 502.21,-49.68"/>
</g>
<!-- /lib/files/export_download_non_web.dart -->
<g id="node15" class="node">
<title>/lib/files/export_download_non_web.dart</title>
<path fill="Lavender" stroke="black" stroke-width="1.3" d="M569.75,-450C569.75,-450 396.25,-450 396.25,-450 390.25,-450 384.25,-444 384.25,-438 384.25,-438 384.25,-426 384.25,-426 384.25,-420 390.25,-414 396.25,-414 396.25,-414 569.75,-414 569.75,-414 575.75,-414 581.75,-420 581.75,-426 581.75,-426 581.75,-438 581.75,-438 581.75,-444 575.75,-450 569.75,-450"/>
<text text-anchor="middle" x="483" y="-426.75" font-family="Arial" font-size="15.00">export_download_non_web</text>
</g>
<!-- /lib/files/export_download_non_web.dart&#45;&gt;/lib/panels/share_panel.dart -->
<g id="edge33" class="edge">
<title>/lib/files/export_download_non_web.dart&#45;&gt;/lib/panels/share_panel.dart</title>
<path fill="none" stroke="#aabbaa" stroke-width="1.3" stroke-opacity="0.533333" d="M432.05,-413.52C403.9,-403.86 368.76,-391.8 339.25,-381.68"/>
<polygon fill="#aabbaa" fill-opacity="0.533333" stroke="#aabbaa" stroke-width="1.3" stroke-opacity="0.533333" points="340.7,-378.47 330.11,-378.54 338.43,-385.09 340.7,-378.47"/>
</g>
<!-- /lib/files/export_download_non_web.dart&#45;&gt;/lib/models/app_model.dart -->
<g id="edge32" class="edge">
<title>/lib/files/export_download_non_web.dart&#45;&gt;/lib/models/app_model.dart</title>
<path fill="none" stroke="#aabbaa" stroke-width="1.3" stroke-opacity="0.533333" d="M582.03,-415.3C663.06,-402.07 765.51,-384.33 773,-378 788.9,-364.57 776.89,-350.92 789,-334 794.36,-326.51 801.29,-319.6 808.43,-313.56"/>
<polygon fill="#aabbaa" fill-opacity="0.533333" stroke="#aabbaa" stroke-width="1.3" stroke-opacity="0.533333" points="810.28,-316.56 815.95,-307.61 805.93,-311.07 810.28,-316.56"/>
</g>
<!-- /lib/files/export_download_non_web.dart&#45;&gt;/lib/files/file_ora.dart -->
<g id="edge31" class="edge">
<title>/lib/files/export_download_non_web.dart&#45;&gt;/lib/files/file_ora.dart</title>
<path fill="none" stroke="#aabbaa" stroke-width="1.3" stroke-opacity="0.533333" d="M545.19,-413.52C589.54,-401.05 648.1,-384.59 687.75,-373.44"/>
<polygon fill="#aabbaa" fill-opacity="0.533333" stroke="#aabbaa" stroke-width="1.3" stroke-opacity="0.533333" points="688.58,-376.84 697.26,-370.77 686.69,-370.1 688.58,-376.84"/>
</g>
<!-- /lib/main_screen.dart&#45;&gt;/lib/panels/canvas_panel.dart -->
<g id="edge35" class="edge">
<title>/lib/main_screen.dart&#45;&gt;/lib/panels/canvas_panel.dart</title>
<path fill="none" stroke="#aabbaa" stroke-width="1.3" stroke-opacity="0.533333" d="M231.85,-505.52C187.8,-503.9 129.02,-498.4 114,-481 71.15,-431.34 83.65,-383.22 127,-334 148.61,-309.46 182.91,-298.01 213.46,-292.78"/>
<polygon fill="#aabbaa" fill-opacity="0.533333" stroke="#aabbaa" stroke-width="1.3" stroke-opacity="0.533333" points="213.63,-296.29 223,-291.35 212.59,-289.37 213.63,-296.29"/>
</g>
<!-- /lib/main_screen.dart&#45;&gt;/lib/panels/tools_panel.dart -->
<g id="edge37" class="edge">
<title>/lib/main_screen.dart&#45;&gt;/lib/panels/tools_panel.dart</title>
<path fill="none" stroke="#aabbaa" stroke-width="1.3" stroke-opacity="0.533333" d="M237.79,-488.61C233.02,-486.26 228.34,-483.71 224,-481 213.63,-474.51 203.27,-466.1 194.38,-458.13"/>
<polygon fill="#aabbaa" fill-opacity="0.533333" stroke="#aabbaa" stroke-width="1.3" stroke-opacity="0.533333" points="196.86,-455.66 187.15,-451.42 192.1,-460.79 196.86,-455.66"/>
</g>
<!-- /lib/main_screen.dart&#45;&gt;/lib/panels/layers_panel.dart -->
<g id="edge36" class="edge">
<title>/lib/main_screen.dart&#45;&gt;/lib/panels/layers_panel.dart</title>
<path fill="none" stroke="#aabbaa" stroke-width="1.3" stroke-opacity="0.533333" d="M283,-488.7C283,-480.76 283,-471.12 283,-462.11"/>
<polygon fill="#aabbaa" fill-opacity="0.533333" stroke="#aabbaa" stroke-width="1.3" stroke-opacity="0.533333" points="286.5,-462.4 283,-452.4 279.5,-462.4 286.5,-462.4"/>
</g>
<!-- /lib/main_screen.dart&#45;&gt;/lib/models/app_model.dart -->
<g id="edge38" class="edge">
<title>/lib/main_screen.dart&#45;&gt;/lib/models/app_model.dart</title>
<path fill="none" stroke="#aabbaa" stroke-width="1.3" stroke-opacity="0.533333" d="M333.98,-505.01C457.96,-502.4 766.39,-494.57 784,-481 810.12,-460.87 830.86,-366.21 839.97,-317.74"/>
<polygon fill="#aabbaa" fill-opacity="0.533333" stroke="#aabbaa" stroke-width="1.3" stroke-opacity="0.533333" points="843.37,-318.62 841.73,-308.15 836.48,-317.36 843.37,-318.62"/>
</g>
<!-- /lib/main_screen.dart&#45;&gt;/lib/files/file_ora.dart -->
<g id="edge34" class="edge">
<title>/lib/main_screen.dart&#45;&gt;/lib/files/file_ora.dart</title>
<path fill="none" stroke="#aabbaa" stroke-width="1.3" stroke-opacity="0.533333" d="M334.04,-505.27C456.51,-503.26 758.06,-496.73 773,-481 793.51,-459.41 782.63,-442.18 773,-414 769.74,-404.45 763.98,-395.29 757.79,-387.35"/>
<polygon fill="#aabbaa" fill-opacity="0.533333" stroke="#aabbaa" stroke-width="1.3" stroke-opacity="0.533333" points="760.56,-385.21 751.44,-379.83 755.22,-389.72 760.56,-385.21"/>
</g>
<!-- /lib/helpers/color_helper.dart -->
<g id="node18" class="node">
<title>/lib/helpers/color_helper.dart</title>
<path fill="Lavender" stroke="black" stroke-width="1.3" d="M481.88,-140C481.88,-140 408.12,-140 408.12,-140 402.12,-140 396.12,-134 396.12,-128 396.12,-128 396.12,-116 396.12,-116 396.12,-110 402.12,-104 408.12,-104 408.12,-104 481.88,-104 481.88,-104 487.88,-104 493.88,-110 493.88,-116 493.88,-116 493.88,-128 493.88,-128 493.88,-134 487.88,-140 481.88,-140"/>
<text text-anchor="middle" x="445" y="-116.75" font-family="Arial" font-size="15.00">color_helper</text>
</g>
<!-- /lib/helpers/color_helper.dart&#45;&gt;/lib/helpers/list_helper.dart -->
<g id="edge39" class="edge">
<title>/lib/helpers/color_helper.dart&#45;&gt;/lib/helpers/list_helper.dart</title>
<path fill="none" stroke="#aabbaa" stroke-width="1.3" stroke-opacity="0.533333" d="M445.74,-103.7C446.05,-96.49 446.42,-87.93 446.76,-79.82"/>
<polygon fill="#aabbaa" fill-opacity="0.533333" stroke="#aabbaa" stroke-width="1.3" stroke-opacity="0.533333" points="450.25,-80.21 447.18,-70.07 443.26,-79.91 450.25,-80.21"/>
</g>
<!-- /lib/widgets/brush_style_picker.dart&#45;&gt;/lib/models/app_model.dart -->
<g id="edge40" class="edge">
<title>/lib/widgets/brush_style_picker.dart&#45;&gt;/lib/models/app_model.dart</title>
<path fill="none" stroke="#aabbaa" stroke-width="1.3" stroke-opacity="0.533333" d="M738.13,-223.35C757.84,-235.09 784.11,-250.73 805.67,-263.57"/>
<polygon fill="#aabbaa" fill-opacity="0.533333" stroke="#aabbaa" stroke-width="1.3" stroke-opacity="0.533333" points="803.75,-266.51 814.13,-268.62 807.33,-260.49 803.75,-266.51"/>
</g>
<!-- /lib/widgets/color_picker.dart&#45;&gt;/lib/helpers/list_helper.dart -->
<g id="edge42" class="edge">
<title>/lib/widgets/color_picker.dart&#45;&gt;/lib/helpers/list_helper.dart</title>
<path fill="none" stroke="#aabbaa" stroke-width="1.3" stroke-opacity="0.533333" d="M131.54,-186.61C137.39,-184.05 143.35,-181.45 149,-179 235.58,-141.48 336.52,-98.41 396.19,-73.01"/>
<polygon fill="#aabbaa" fill-opacity="0.533333" stroke="#aabbaa" stroke-width="1.3" stroke-opacity="0.533333" points="397.2,-76.39 405.03,-69.25 394.46,-69.95 397.2,-76.39"/>
</g>
<!-- /lib/widgets/color_picker.dart&#45;&gt;/lib/helpers/color_helper.dart -->
<g id="edge41" class="edge">
<title>/lib/widgets/color_picker.dart&#45;&gt;/lib/helpers/color_helper.dart</title>
<path fill="none" stroke="#aabbaa" stroke-width="1.3" stroke-opacity="0.533333" d="M126.94,-186.56C134.09,-183.6 141.67,-180.88 149,-179 187.9,-169.03 199.35,-177.35 239,-171 288.44,-163.08 343.66,-149.98 384.47,-139.46"/>
<polygon fill="#aabbaa" fill-opacity="0.533333" stroke="#aabbaa" stroke-width="1.3" stroke-opacity="0.533333" points="385.15,-142.9 393.95,-137 383.39,-136.13 385.15,-142.9"/>
</g>
</g>
</svg>
