<?xml version="1.0" encoding="UTF-8" standalone="no"?>
<!DOCTYPE svg PUBLIC "-//W3C//DTD SVG 1.1//EN"
 "http://www.w3.org/Graphics/SVG/1.1/DTD/svg11.dtd">
<!-- Generated by graphviz version 12.2.1 (20241206.2353)
 -->
<!-- Pages: 1 -->
<svg width="2801pt" height="911pt"
 viewBox="0.00 0.00 2800.67 911.00" xmlns="http://www.w3.org/2000/svg" xmlns:xlink="http://www.w3.org/1999/xlink">
<g id="graph0" class="graph" transform="scale(1 1) rotate(0) translate(4 907)">
<polygon fill="white" stroke="none" points="-4,4 -4,-907 2796.67,-907 2796.67,4 -4,4"/>
<g id="clust1" class="cluster">
<title>cluster~</title>
<path fill="none" stroke="lightgray" stroke-width="2.6" d="M20,-8C20,-8 2771,-8 2771,-8 2777,-8 2783,-14 2783,-20 2783,-20 2783,-883 2783,-883 2783,-889 2777,-895 2771,-895 2771,-895 20,-895 20,-895 14,-895 8,-889 8,-883 8,-883 8,-20 8,-20 8,-14 14,-8 20,-8"/>
<text text-anchor="middle" x="1395.5" y="-878.65" font-family="Arial Black" font-size="13.00">fpaint</text>
</g>
<g id="clust2" class="cluster">
<title>cluster~/test</title>
<path fill="none" stroke="lightgray" stroke-width="2.6" d="M28,-711C28,-711 785,-711 785,-711 791,-711 797,-717 797,-723 797,-723 797,-852 797,-852 797,-858 791,-864 785,-864 785,-864 28,-864 28,-864 22,-864 16,-858 16,-852 16,-852 16,-723 16,-723 16,-717 22,-711 28,-711"/>
<text text-anchor="middle" x="406.5" y="-847.65" font-family="Arial Black" font-size="13.00">test</text>
</g>
<g id="clust3" class="cluster">
<title>cluster~/test/panels</title>
<path fill="none" stroke="lightgray" stroke-width="2.6" d="M303,-719C303,-719 415,-719 415,-719 421,-719 427,-725 427,-731 427,-731 427,-821 427,-821 427,-827 421,-833 415,-833 415,-833 303,-833 303,-833 297,-833 291,-827 291,-821 291,-821 291,-731 291,-731 291,-725 297,-719 303,-719"/>
<text text-anchor="middle" x="359" y="-816.65" font-family="Arial Black" font-size="13.00">panels</text>
</g>
<g id="clust4" class="cluster">
<title>cluster~/test/panels/tools</title>
<path fill="none" stroke="lightgray" stroke-width="2.6" d="M311,-727C311,-727 407,-727 407,-727 413,-727 419,-733 419,-739 419,-739 419,-790 419,-790 419,-796 413,-802 407,-802 407,-802 311,-802 311,-802 305,-802 299,-796 299,-790 299,-790 299,-739 299,-739 299,-733 305,-727 311,-727"/>
<text text-anchor="middle" x="359" y="-785.65" font-family="Arial Black" font-size="13.00">tools</text>
</g>
<g id="clust5" class="cluster">
<title>cluster~/test/models</title>
<path fill="none" stroke="lightgray" stroke-width="2.6" d="M36,-727C36,-727 172,-727 172,-727 178,-727 184,-733 184,-739 184,-739 184,-790 184,-790 184,-796 178,-802 172,-802 172,-802 36,-802 36,-802 30,-802 24,-796 24,-790 24,-790 24,-739 24,-739 24,-733 30,-727 36,-727"/>
<text text-anchor="middle" x="104" y="-785.65" font-family="Arial Black" font-size="13.00">models</text>
</g>
<g id="clust6" class="cluster">
<title>cluster~/lib</title>
<path fill="none" stroke="lightgray" stroke-width="2.6" d="M42,-16C42,-16 2763,-16 2763,-16 2769,-16 2775,-22 2775,-28 2775,-28 2775,-691 2775,-691 2775,-697 2769,-703 2763,-703 2763,-703 42,-703 42,-703 36,-703 30,-697 30,-691 30,-691 30,-28 30,-28 30,-22 36,-16 42,-16"/>
<text text-anchor="middle" x="1402.5" y="-686.65" font-family="Arial Black" font-size="13.00">lib</text>
</g>
<g id="clust7" class="cluster">
<title>cluster~/lib/panels</title>
<path fill="none" stroke="lightgray" stroke-width="2.6" d="M1189,-251C1189,-251 2060,-251 2060,-251 2066,-251 2072,-257 2072,-263 2072,-263 2072,-544 2072,-544 2072,-550 2066,-556 2060,-556 2060,-556 1189,-556 1189,-556 1183,-556 1177,-550 1177,-544 1177,-544 1177,-263 1177,-263 1177,-257 1183,-251 1189,-251"/>
<text text-anchor="middle" x="1624.5" y="-539.65" font-family="Arial Black" font-size="13.00">panels</text>
</g>
<g id="clust8" class="cluster">
<title>cluster~/lib/panels/tools</title>
<path fill="none" stroke="lightgray" stroke-width="2.6" d="M1197,-331C1197,-331 1469,-331 1469,-331 1475,-331 1481,-337 1481,-343 1481,-343 1481,-469 1481,-469 1481,-475 1475,-481 1469,-481 1469,-481 1197,-481 1197,-481 1191,-481 1185,-475 1185,-469 1185,-469 1185,-343 1185,-343 1185,-337 1191,-331 1197,-331"/>
<text text-anchor="middle" x="1333" y="-464.65" font-family="Arial Black" font-size="13.00">tools</text>
</g>
<g id="clust9" class="cluster">
<title>cluster~/lib/panels/layers</title>
<path fill="none" stroke="lightgray" stroke-width="2.6" d="M1823,-259C1823,-259 2052,-259 2052,-259 2058,-259 2064,-265 2064,-271 2064,-271 2064,-469 2064,-469 2064,-475 2058,-481 2052,-481 2052,-481 1823,-481 1823,-481 1817,-481 1811,-475 1811,-469 1811,-469 1811,-271 1811,-271 1811,-265 1817,-259 1823,-259"/>
<text text-anchor="middle" x="1937.5" y="-464.65" font-family="Arial Black" font-size="13.00">layers</text>
</g>
<g id="clust10" class="cluster">
<title>cluster~/lib/models</title>
<path fill="none" stroke="lightgray" stroke-width="2.6" d="M919,-96C919,-96 1153,-96 1153,-96 1159,-96 1165,-102 1165,-108 1165,-108 1165,-394 1165,-394 1165,-400 1159,-406 1153,-406 1153,-406 919,-406 919,-406 913,-406 907,-400 907,-394 907,-394 907,-108 907,-108 907,-102 913,-96 919,-96"/>
<text text-anchor="middle" x="1036" y="-389.65" font-family="Arial Black" font-size="13.00">models</text>
</g>
<g id="clust11" class="cluster">
<title>cluster~/lib/files</title>
<path fill="none" stroke="lightgray" stroke-width="2.6" d="M100,-259C100,-259 887,-259 887,-259 893,-259 899,-265 899,-271 899,-271 899,-394 899,-394 899,-400 893,-406 887,-406 887,-406 100,-406 100,-406 94,-406 88,-400 88,-394 88,-394 88,-271 88,-271 88,-265 94,-259 100,-259"/>
<text text-anchor="middle" x="493.5" y="-389.65" font-family="Arial Black" font-size="13.00">files</text>
</g>
<g id="clust12" class="cluster">
<title>cluster~/lib/helpers</title>
<path fill="none" stroke="lightgray" stroke-width="2.6" d="M1185,-24C1185,-24 1283,-24 1283,-24 1289,-24 1295,-30 1295,-36 1295,-36 1295,-231 1295,-231 1295,-237 1289,-243 1283,-243 1283,-243 1185,-243 1185,-243 1179,-243 1173,-237 1173,-231 1173,-231 1173,-36 1173,-36 1173,-30 1179,-24 1185,-24"/>
<text text-anchor="middle" x="1234" y="-226.65" font-family="Arial Black" font-size="13.00">helpers</text>
</g>
<g id="clust13" class="cluster">
<title>cluster~/lib/widgets</title>
<path fill="none" stroke="lightgray" stroke-width="2.6" d="M1449,-96C1449,-96 2743,-96 2743,-96 2749,-96 2755,-102 2755,-108 2755,-108 2755,-231 2755,-231 2755,-237 2749,-243 2743,-243 2743,-243 1449,-243 1449,-243 1443,-243 1437,-237 1437,-231 1437,-231 1437,-108 1437,-108 1437,-102 1443,-96 1449,-96"/>
<text text-anchor="middle" x="2096" y="-226.65" font-family="Arial Black" font-size="13.00">widgets</text>
</g>
<!-- /test/paint_model_test.dart -->
<g id="node1" class="node">
<title>/test/paint_model_test.dart</title>
<path fill="Lavender" stroke="black" stroke-width="1.3" d="M777,-771C777,-771 671,-771 671,-771 665,-771 659,-765 659,-759 659,-759 659,-747 659,-747 659,-741 665,-735 671,-735 671,-735 777,-735 777,-735 783,-735 789,-741 789,-747 789,-747 789,-759 789,-759 789,-765 783,-771 777,-771"/>
<text text-anchor="middle" x="724" y="-747.75" font-family="Arial" font-size="15.00">paint_model_test</text>
</g>
<!-- /lib/models/app_model.dart -->
<g id="node25" class="node">
<title>/lib/models/app_model.dart</title>
<path fill="Lavender" stroke="black" stroke-width="1.3" d="M992.75,-212C992.75,-212 927.25,-212 927.25,-212 921.25,-212 915.25,-206 915.25,-200 915.25,-200 915.25,-188 915.25,-188 915.25,-182 921.25,-176 927.25,-176 927.25,-176 992.75,-176 992.75,-176 998.75,-176 1004.75,-182 1004.75,-188 1004.75,-188 1004.75,-200 1004.75,-200 1004.75,-206 998.75,-212 992.75,-212"/>
<text text-anchor="middle" x="960" y="-188.75" font-family="Arial" font-size="15.00">app_model</text>
</g>
<!-- /test/paint_model_test.dart&#45;&gt;/lib/models/app_model.dart -->
<g id="edge1" class="edge">
<title>/test/paint_model_test.dart&#45;&gt;/lib/models/app_model.dart</title>
<path fill="none" stroke="#aabbaa" stroke-width="1.3" stroke-opacity="0.533333" d="M789.18,-750.96C1024.97,-746.97 1833.21,-731.52 2090,-703 2377.63,-671.06 2730,-872.4 2730,-583 2730,-583 2730,-583 2730,-356 2730,-207.05 2216.44,-263.29 2068,-251 2011.86,-246.35 1108.72,-256.39 1054,-243 1033.66,-238.02 1012.75,-227.92 995.83,-218.27"/>
<polygon fill="#aabbaa" fill-opacity="0.533333" stroke="#aabbaa" stroke-width="1.3" stroke-opacity="0.533333" points="997.93,-215.44 987.54,-213.36 994.36,-221.47 997.93,-215.44"/>
</g>
<!-- /test/panels/tools/flood_fill_test.dart -->
<g id="node2" class="node">
<title>/test/panels/tools/flood_fill_test.dart</title>
<path fill="Lavender" stroke="black" stroke-width="1.3" d="M398.5,-771C398.5,-771 319.5,-771 319.5,-771 313.5,-771 307.5,-765 307.5,-759 307.5,-759 307.5,-747 307.5,-747 307.5,-741 313.5,-735 319.5,-735 319.5,-735 398.5,-735 398.5,-735 404.5,-735 410.5,-741 410.5,-747 410.5,-747 410.5,-759 410.5,-759 410.5,-765 404.5,-771 398.5,-771"/>
<text text-anchor="middle" x="359" y="-747.75" font-family="Arial" font-size="15.00">flood_fill_test</text>
</g>
<!-- /lib/panels/tools/flood_fill.dart -->
<g id="node9" class="node">
<title>/lib/panels/tools/flood_fill.dart</title>
<path fill="Lavender" stroke="black" stroke-width="1.3" d="M1284,-450C1284,-450 1238,-450 1238,-450 1232,-450 1226,-444 1226,-438 1226,-438 1226,-426 1226,-426 1226,-420 1232,-414 1238,-414 1238,-414 1284,-414 1284,-414 1290,-414 1296,-420 1296,-426 1296,-426 1296,-438 1296,-438 1296,-444 1290,-450 1284,-450"/>
<text text-anchor="middle" x="1261" y="-426.75" font-family="Arial" font-size="15.00">flood_fill</text>
</g>
<!-- /test/panels/tools/flood_fill_test.dart&#45;&gt;/lib/panels/tools/flood_fill.dart -->
<g id="edge2" class="edge">
<title>/test/panels/tools/flood_fill_test.dart&#45;&gt;/lib/panels/tools/flood_fill.dart</title>
<path fill="none" stroke="#aabbaa" stroke-width="1.3" stroke-opacity="0.533333" d="M341.81,-734.87C331.7,-725.99 318.16,-715.98 304,-711 292.36,-706.9 90.57,-711.88 82,-703 39.11,-658.54 40.8,-610.03 82,-564 158.89,-478.1 1003.26,-442.25 1213.7,-434.61"/>
<polygon fill="#aabbaa" fill-opacity="0.533333" stroke="#aabbaa" stroke-width="1.3" stroke-opacity="0.533333" points="1213.68,-438.11 1223.55,-434.26 1213.43,-431.12 1213.68,-438.11"/>
</g>
<!-- /test/models/canvas_resize_test.dart -->
<g id="node3" class="node">
<title>/test/models/canvas_resize_test.dart</title>
<path fill="Lavender" stroke="black" stroke-width="1.3" d="M164.12,-771C164.12,-771 43.87,-771 43.87,-771 37.88,-771 31.88,-765 31.88,-759 31.88,-759 31.88,-747 31.88,-747 31.88,-741 37.88,-735 43.88,-735 43.88,-735 164.12,-735 164.12,-735 170.12,-735 176.12,-741 176.12,-747 176.12,-747 176.12,-759 176.12,-759 176.12,-765 170.12,-771 164.12,-771"/>
<text text-anchor="middle" x="104" y="-747.75" font-family="Arial" font-size="15.00">canvas_resize_test</text>
</g>
<!-- /lib/models/canvas_resize.dart -->
<g id="node23" class="node">
<title>/lib/models/canvas_resize.dart</title>
<path fill="Lavender" stroke="black" stroke-width="1.3" d="M1014.62,-140C1014.62,-140 927.38,-140 927.38,-140 921.38,-140 915.38,-134 915.38,-128 915.38,-128 915.38,-116 915.38,-116 915.38,-110 921.38,-104 927.38,-104 927.38,-104 1014.62,-104 1014.62,-104 1020.62,-104 1026.62,-110 1026.62,-116 1026.62,-116 1026.62,-128 1026.62,-128 1026.62,-134 1020.62,-140 1014.62,-140"/>
<text text-anchor="middle" x="971" y="-116.75" font-family="Arial" font-size="15.00">canvas_resize</text>
</g>
<!-- /test/models/canvas_resize_test.dart&#45;&gt;/lib/models/canvas_resize.dart -->
<g id="edge3" class="edge">
<title>/test/models/canvas_resize_test.dart&#45;&gt;/lib/models/canvas_resize.dart</title>
<path fill="none" stroke="#aabbaa" stroke-width="1.3" stroke-opacity="0.533333" d="M58.53,-734.61C44.78,-727.04 31.17,-716.69 23,-703 -4.38,-657.15 17,-636.4 17,-583 17,-583 17,-583 17,-284 17,-268.8 14.57,-261.02 26,-251 156.8,-136.37 709.42,-123.68 903.37,-122.81"/>
<polygon fill="#aabbaa" fill-opacity="0.533333" stroke="#aabbaa" stroke-width="1.3" stroke-opacity="0.533333" points="903.12,-126.32 913.11,-122.78 903.1,-119.32 903.12,-126.32"/>
</g>
<!-- /test/widget_test.dart -->
<g id="node4" class="node">
<title>/test/widget_test.dart</title>
<path fill="Lavender" stroke="black" stroke-width="1.3" d="M628.88,-771C628.88,-771 561.12,-771 561.12,-771 555.12,-771 549.12,-765 549.12,-759 549.12,-759 549.12,-747 549.12,-747 549.12,-741 555.12,-735 561.12,-735 561.12,-735 628.88,-735 628.88,-735 634.88,-735 640.88,-741 640.88,-747 640.88,-747 640.88,-759 640.88,-759 640.88,-765 634.88,-771 628.88,-771"/>
<text text-anchor="middle" x="595" y="-747.75" font-family="Arial" font-size="15.00">widget_test</text>
</g>
<!-- /lib/main.dart -->
<g id="node27" class="node">
<title>/lib/main.dart</title>
<path fill="Lavender" stroke="black" stroke-width="1.3" d="M610,-672C610,-672 580,-672 580,-672 574,-672 568,-666 568,-660 568,-660 568,-648 568,-648 568,-642 574,-636 580,-636 580,-636 610,-636 610,-636 616,-636 622,-642 622,-648 622,-648 622,-660 622,-660 622,-666 616,-672 610,-672"/>
<text text-anchor="middle" x="595" y="-648.75" font-family="Arial" font-size="15.00">main</text>
</g>
<!-- /test/widget_test.dart&#45;&gt;/lib/main.dart -->
<g id="edge4" class="edge">
<title>/test/widget_test.dart&#45;&gt;/lib/main.dart</title>
<path fill="none" stroke="#aabbaa" stroke-width="1.3" stroke-opacity="0.533333" d="M595,-734.66C595,-720.59 595,-700.45 595,-683.95"/>
<polygon fill="#aabbaa" fill-opacity="0.533333" stroke="#aabbaa" stroke-width="1.3" stroke-opacity="0.533333" points="598.5,-684.16 595,-674.16 591.5,-684.16 598.5,-684.16"/>
</g>
<!-- /test/file_xcf_test.dart -->
<g id="node5" class="node">
<title>/test/file_xcf_test.dart</title>
<path fill="Lavender" stroke="black" stroke-width="1.3" d="M518.75,-771C518.75,-771 447.25,-771 447.25,-771 441.25,-771 435.25,-765 435.25,-759 435.25,-759 435.25,-747 435.25,-747 435.25,-741 441.25,-735 447.25,-735 447.25,-735 518.75,-735 518.75,-735 524.75,-735 530.75,-741 530.75,-747 530.75,-747 530.75,-759 530.75,-759 530.75,-765 524.75,-771 518.75,-771"/>
<text text-anchor="middle" x="483" y="-747.75" font-family="Arial" font-size="15.00">file_xcf_test</text>
</g>
<!-- /lib/files/xcf_reader.dart -->
<g id="node28" class="node">
<title>/lib/files/xcf_reader.dart</title>
<path fill="Lavender" stroke="black" stroke-width="1.3" d="M298.62,-375C298.62,-375 235.38,-375 235.38,-375 229.38,-375 223.38,-369 223.38,-363 223.38,-363 223.38,-351 223.38,-351 223.38,-345 229.38,-339 235.38,-339 235.38,-339 298.62,-339 298.62,-339 304.62,-339 310.62,-345 310.62,-351 310.62,-351 310.62,-363 310.62,-363 310.62,-369 304.62,-375 298.62,-375"/>
<text text-anchor="middle" x="267" y="-351.75" font-family="Arial" font-size="15.00">xcf_reader</text>
</g>
<!-- /test/file_xcf_test.dart&#45;&gt;/lib/files/xcf_reader.dart -->
<g id="edge6" class="edge">
<title>/test/file_xcf_test.dart&#45;&gt;/lib/files/xcf_reader.dart</title>
<path fill="none" stroke="#aabbaa" stroke-width="1.3" stroke-opacity="0.533333" d="M500.87,-734.69C511.36,-725.76 525.39,-715.75 540,-711 560.29,-704.4 2060.64,-717.81 2076,-703 2114.43,-665.95 2081,-636.38 2081,-583 2081,-583 2081,-583 2081,-506 2081,-464.7 2099.11,-441.15 2068,-414 2049.71,-398.04 342.63,-414.79 320,-406 308.02,-401.35 297.07,-392.61 288.26,-383.86"/>
<polygon fill="#aabbaa" fill-opacity="0.533333" stroke="#aabbaa" stroke-width="1.3" stroke-opacity="0.533333" points="290.95,-381.6 281.56,-376.68 285.83,-386.38 290.95,-381.6"/>
</g>
<!-- /lib/files/assets_helper.dart -->
<g id="node29" class="node">
<title>/lib/files/assets_helper.dart</title>
<path fill="Lavender" stroke="black" stroke-width="1.3" d="M193.5,-375C193.5,-375 108.5,-375 108.5,-375 102.5,-375 96.5,-369 96.5,-363 96.5,-363 96.5,-351 96.5,-351 96.5,-345 102.5,-339 108.5,-339 108.5,-339 193.5,-339 193.5,-339 199.5,-339 205.5,-345 205.5,-351 205.5,-351 205.5,-363 205.5,-363 205.5,-369 199.5,-375 193.5,-375"/>
<text text-anchor="middle" x="151" y="-351.75" font-family="Arial" font-size="15.00">assets_helper</text>
</g>
<!-- /test/file_xcf_test.dart&#45;&gt;/lib/files/assets_helper.dart -->
<g id="edge5" class="edge">
<title>/test/file_xcf_test.dart&#45;&gt;/lib/files/assets_helper.dart</title>
<path fill="none" stroke="#aabbaa" stroke-width="1.3" stroke-opacity="0.533333" d="M463.74,-734.58C452.67,-725.73 438.01,-715.84 423,-711 406.02,-705.52 116.59,-713.26 102,-703 48.96,-665.72 30.66,-470.75 62,-414 69.53,-400.37 81.91,-389.61 95.08,-381.32"/>
<polygon fill="#aabbaa" fill-opacity="0.533333" stroke="#aabbaa" stroke-width="1.3" stroke-opacity="0.533333" points="96.63,-384.47 103.54,-376.44 93.13,-378.41 96.63,-384.47"/>
</g>
<!-- /test/layers_test.dart -->
<g id="node6" class="node">
<title>/test/layers_test.dart</title>
<path fill="Lavender" stroke="black" stroke-width="1.3" d="M271.38,-771C271.38,-771 206.62,-771 206.62,-771 200.62,-771 194.62,-765 194.62,-759 194.62,-759 194.62,-747 194.62,-747 194.62,-741 200.62,-735 206.62,-735 206.62,-735 271.38,-735 271.38,-735 277.38,-735 283.38,-741 283.38,-747 283.38,-747 283.38,-759 283.38,-759 283.38,-765 277.38,-771 271.38,-771"/>
<text text-anchor="middle" x="239" y="-747.75" font-family="Arial" font-size="15.00">layers_test</text>
</g>
<!-- /lib/models/layer.dart -->
<g id="node26" class="node">
<title>/lib/models/layer.dart</title>
<path fill="Lavender" stroke="black" stroke-width="1.3" d="M1077,-303C1077,-303 1047,-303 1047,-303 1041,-303 1035,-297 1035,-291 1035,-291 1035,-279 1035,-279 1035,-273 1041,-267 1047,-267 1047,-267 1077,-267 1077,-267 1083,-267 1089,-273 1089,-279 1089,-279 1089,-291 1089,-291 1089,-297 1083,-303 1077,-303"/>
<text text-anchor="middle" x="1062" y="-279.75" font-family="Arial" font-size="15.00">layer</text>
</g>
<!-- /test/layers_test.dart&#45;&gt;/lib/models/layer.dart -->
<g id="edge7" class="edge">
<title>/test/layers_test.dart&#45;&gt;/lib/models/layer.dart</title>
<path fill="none" stroke="#aabbaa" stroke-width="1.3" stroke-opacity="0.533333" d="M222.79,-734.57C213.53,-725.83 201.15,-716.05 188,-711 173.35,-705.37 58.24,-713.95 47,-703 8.66,-665.66 37,-636.52 37,-583 37,-583 37,-583 37,-431 37,-399.17 30.82,-365.32 84,-331 122.25,-306.31 857.59,-306.2 903,-303 944.13,-300.1 991.06,-294.84 1023.21,-290.94"/>
<polygon fill="#aabbaa" fill-opacity="0.533333" stroke="#aabbaa" stroke-width="1.3" stroke-opacity="0.533333" points="1023.31,-294.45 1032.81,-289.76 1022.46,-287.51 1023.31,-294.45"/>
</g>
<!-- /lib/panels/about.dart -->
<g id="node7" class="node">
<title>/lib/panels/about.dart</title>
<path fill="Lavender" stroke="black" stroke-width="1.3" d="M1533,-375C1533,-375 1503,-375 1503,-375 1497,-375 1491,-369 1491,-363 1491,-363 1491,-351 1491,-351 1491,-345 1497,-339 1503,-339 1503,-339 1533,-339 1533,-339 1539,-339 1545,-345 1545,-351 1545,-351 1545,-363 1545,-363 1545,-369 1539,-375 1533,-375"/>
<text text-anchor="middle" x="1518" y="-351.75" font-family="Arial" font-size="15.00">about</text>
</g>
<!-- /lib/panels/tools/tool_selector.dart -->
<g id="node8" class="node">
<title>/lib/panels/tools/tool_selector.dart</title>
<path fill="Lavender" stroke="black" stroke-width="1.3" d="M1281.38,-375C1281.38,-375 1204.62,-375 1204.62,-375 1198.62,-375 1192.62,-369 1192.62,-363 1192.62,-363 1192.62,-351 1192.62,-351 1192.62,-345 1198.62,-339 1204.62,-339 1204.62,-339 1281.38,-339 1281.38,-339 1287.38,-339 1293.38,-345 1293.38,-351 1293.38,-351 1293.38,-363 1293.38,-363 1293.38,-369 1287.38,-375 1281.38,-375"/>
<text text-anchor="middle" x="1243" y="-351.75" font-family="Arial" font-size="15.00">tool_selector</text>
</g>
<!-- /lib/panels/tools/tools_panel.dart -->
<g id="node10" class="node">
<title>/lib/panels/tools/tools_panel.dart</title>
<path fill="Lavender" stroke="black" stroke-width="1.3" d="M1460.88,-450C1460.88,-450 1393.12,-450 1393.12,-450 1387.12,-450 1381.12,-444 1381.12,-438 1381.12,-438 1381.12,-426 1381.12,-426 1381.12,-420 1387.12,-414 1393.12,-414 1393.12,-414 1460.88,-414 1460.88,-414 1466.88,-414 1472.88,-420 1472.88,-426 1472.88,-426 1472.88,-438 1472.88,-438 1472.88,-444 1466.88,-450 1460.88,-450"/>
<text text-anchor="middle" x="1427" y="-426.75" font-family="Arial" font-size="15.00">tools_panel</text>
</g>
<!-- /lib/panels/tools/tools_panel.dart&#45;&gt;/lib/panels/tools/tool_selector.dart -->
<g id="edge10" class="edge">
<title>/lib/panels/tools/tools_panel.dart&#45;&gt;/lib/panels/tools/tool_selector.dart</title>
<path fill="none" stroke="#aabbaa" stroke-width="1.3" stroke-opacity="0.533333" d="M1380.78,-427.16C1356.44,-423.82 1326.63,-417.6 1302,-406 1289.87,-400.29 1278.08,-391.55 1268.27,-383.09"/>
<polygon fill="#aabbaa" fill-opacity="0.533333" stroke="#aabbaa" stroke-width="1.3" stroke-opacity="0.533333" points="1270.74,-380.61 1260.98,-376.5 1266.04,-385.8 1270.74,-380.61"/>
</g>
<!-- /lib/panels/tools/tool_attributes_widget.dart -->
<g id="node11" class="node">
<title>/lib/panels/tools/tool_attributes_widget.dart</title>
<path fill="Lavender" stroke="black" stroke-width="1.3" d="M1460.75,-375C1460.75,-375 1323.25,-375 1323.25,-375 1317.25,-375 1311.25,-369 1311.25,-363 1311.25,-363 1311.25,-351 1311.25,-351 1311.25,-345 1317.25,-339 1323.25,-339 1323.25,-339 1460.75,-339 1460.75,-339 1466.75,-339 1472.75,-345 1472.75,-351 1472.75,-351 1472.75,-363 1472.75,-363 1472.75,-369 1466.75,-375 1460.75,-375"/>
<text text-anchor="middle" x="1392" y="-351.75" font-family="Arial" font-size="15.00">tool_attributes_widget</text>
</g>
<!-- /lib/panels/tools/tools_panel.dart&#45;&gt;/lib/panels/tools/tool_attributes_widget.dart -->
<g id="edge9" class="edge">
<title>/lib/panels/tools/tools_panel.dart&#45;&gt;/lib/panels/tools/tool_attributes_widget.dart</title>
<path fill="none" stroke="#aabbaa" stroke-width="1.3" stroke-opacity="0.533333" d="M1418.71,-413.7C1414.77,-405.49 1409.96,-395.46 1405.52,-386.19"/>
<polygon fill="#aabbaa" fill-opacity="0.533333" stroke="#aabbaa" stroke-width="1.3" stroke-opacity="0.533333" points="1408.69,-384.71 1401.21,-377.2 1402.37,-387.73 1408.69,-384.71"/>
</g>
<!-- /lib/panels/tools/tools_panel.dart&#45;&gt;/lib/models/app_model.dart -->
<g id="edge8" class="edge">
<title>/lib/panels/tools/tools_panel.dart&#45;&gt;/lib/models/app_model.dart</title>
<path fill="none" stroke="#aabbaa" stroke-width="1.3" stroke-opacity="0.533333" d="M1380.79,-423.28C1358.04,-419.8 1330.15,-416.03 1305,-414 1295.31,-413.22 961.8,-412.95 955,-406 907.62,-357.53 931.32,-268.95 948.12,-223.52"/>
<polygon fill="#aabbaa" fill-opacity="0.533333" stroke="#aabbaa" stroke-width="1.3" stroke-opacity="0.533333" points="951.35,-224.86 951.69,-214.27 944.82,-222.34 951.35,-224.86"/>
</g>
<!-- /lib/widgets/svg_icon.dart -->
<g id="node40" class="node">
<title>/lib/widgets/svg_icon.dart</title>
<path fill="Lavender" stroke="black" stroke-width="1.3" d="M2735.25,-212C2735.25,-212 2684.75,-212 2684.75,-212 2678.75,-212 2672.75,-206 2672.75,-200 2672.75,-200 2672.75,-188 2672.75,-188 2672.75,-182 2678.75,-176 2684.75,-176 2684.75,-176 2735.25,-176 2735.25,-176 2741.25,-176 2747.25,-182 2747.25,-188 2747.25,-188 2747.25,-200 2747.25,-200 2747.25,-206 2741.25,-212 2735.25,-212"/>
<text text-anchor="middle" x="2710" y="-188.75" font-family="Arial" font-size="15.00">svg_icon</text>
</g>
<!-- /lib/panels/tools/tools_panel.dart&#45;&gt;/lib/widgets/svg_icon.dart -->
<g id="edge13" class="edge">
<title>/lib/panels/tools/tools_panel.dart&#45;&gt;/lib/widgets/svg_icon.dart</title>
<path fill="none" stroke="#aabbaa" stroke-width="1.3" stroke-opacity="0.533333" d="M1473.19,-428.49C1544.71,-424.71 1686.53,-417.61 1807,-414 1836.16,-413.13 2303.64,-412.82 2332,-406 2491.83,-367.59 2531.32,-340.05 2664,-243 2672.57,-236.73 2680.92,-228.77 2688.1,-221.14"/>
<polygon fill="#aabbaa" fill-opacity="0.533333" stroke="#aabbaa" stroke-width="1.3" stroke-opacity="0.533333" points="2690.52,-223.69 2694.62,-213.92 2685.33,-219 2690.52,-223.69"/>
</g>
<!-- /lib/widgets/brush_size_picker.dart -->
<g id="node43" class="node">
<title>/lib/widgets/brush_size_picker.dart</title>
<path fill="Lavender" stroke="black" stroke-width="1.3" d="M2281,-212C2281,-212 2169,-212 2169,-212 2163,-212 2157,-206 2157,-200 2157,-200 2157,-188 2157,-188 2157,-182 2163,-176 2169,-176 2169,-176 2281,-176 2281,-176 2287,-176 2293,-182 2293,-188 2293,-188 2293,-200 2293,-200 2293,-206 2287,-212 2281,-212"/>
<text text-anchor="middle" x="2225" y="-188.75" font-family="Arial" font-size="15.00">brush_size_picker</text>
</g>
<!-- /lib/panels/tools/tools_panel.dart&#45;&gt;/lib/widgets/brush_size_picker.dart -->
<g id="edge11" class="edge">
<title>/lib/panels/tools/tools_panel.dart&#45;&gt;/lib/widgets/brush_size_picker.dart</title>
<path fill="none" stroke="#aabbaa" stroke-width="1.3" stroke-opacity="0.533333" d="M1473.2,-428.72C1544.72,-425.25 1686.57,-418.54 1807,-414 1821.5,-413.45 2055.14,-412.71 2068,-406 2144.29,-366.2 2193.34,-270.65 2213.91,-223"/>
<polygon fill="#aabbaa" fill-opacity="0.533333" stroke="#aabbaa" stroke-width="1.3" stroke-opacity="0.533333" points="2217.02,-224.64 2217.66,-214.06 2210.57,-221.93 2217.02,-224.64"/>
</g>
<!-- /lib/widgets/tolerance_picker.dart -->
<g id="node45" class="node">
<title>/lib/widgets/tolerance_picker.dart</title>
<path fill="Lavender" stroke="black" stroke-width="1.3" d="M2642.75,-212C2642.75,-212 2541.25,-212 2541.25,-212 2535.25,-212 2529.25,-206 2529.25,-200 2529.25,-200 2529.25,-188 2529.25,-188 2529.25,-182 2535.25,-176 2541.25,-176 2541.25,-176 2642.75,-176 2642.75,-176 2648.75,-176 2654.75,-182 2654.75,-188 2654.75,-188 2654.75,-200 2654.75,-200 2654.75,-206 2648.75,-212 2642.75,-212"/>
<text text-anchor="middle" x="2592" y="-188.75" font-family="Arial" font-size="15.00">tolerance_picker</text>
</g>
<!-- /lib/panels/tools/tools_panel.dart&#45;&gt;/lib/widgets/tolerance_picker.dart -->
<g id="edge14" class="edge">
<title>/lib/panels/tools/tools_panel.dart&#45;&gt;/lib/widgets/tolerance_picker.dart</title>
<path fill="none" stroke="#aabbaa" stroke-width="1.3" stroke-opacity="0.533333" d="M1473.2,-428.54C1544.71,-424.81 1686.54,-417.79 1807,-414 1831.49,-413.23 2224.44,-412.75 2248,-406 2378.2,-368.7 2507.92,-267.41 2563.65,-220.05"/>
<polygon fill="#aabbaa" fill-opacity="0.533333" stroke="#aabbaa" stroke-width="1.3" stroke-opacity="0.533333" points="2565.76,-222.84 2571.07,-213.67 2561.2,-217.53 2565.76,-222.84"/>
</g>
<!-- /lib/widgets/top_colors.dart -->
<g id="node47" class="node">
<title>/lib/widgets/top_colors.dart</title>
<path fill="Lavender" stroke="black" stroke-width="1.3" d="M2384.5,-212C2384.5,-212 2323.5,-212 2323.5,-212 2317.5,-212 2311.5,-206 2311.5,-200 2311.5,-200 2311.5,-188 2311.5,-188 2311.5,-182 2317.5,-176 2323.5,-176 2323.5,-176 2384.5,-176 2384.5,-176 2390.5,-176 2396.5,-182 2396.5,-188 2396.5,-188 2396.5,-200 2396.5,-200 2396.5,-206 2390.5,-212 2384.5,-212"/>
<text text-anchor="middle" x="2354" y="-188.75" font-family="Arial" font-size="15.00">top_colors</text>
</g>
<!-- /lib/panels/tools/tools_panel.dart&#45;&gt;/lib/widgets/top_colors.dart -->
<g id="edge15" class="edge">
<title>/lib/panels/tools/tools_panel.dart&#45;&gt;/lib/widgets/top_colors.dart</title>
<path fill="none" stroke="#aabbaa" stroke-width="1.3" stroke-opacity="0.533333" d="M1473.2,-428.65C1544.72,-425.09 1686.56,-418.26 1807,-414 1824.05,-413.4 2098.09,-412.17 2114,-406 2212.75,-367.68 2297.69,-269.16 2334.5,-221.55"/>
<polygon fill="#aabbaa" fill-opacity="0.533333" stroke="#aabbaa" stroke-width="1.3" stroke-opacity="0.533333" points="2337.15,-223.84 2340.42,-213.76 2331.58,-219.6 2337.15,-223.84"/>
</g>
<!-- /lib/widgets/color_picker.dart -->
<g id="node50" class="node">
<title>/lib/widgets/color_picker.dart</title>
<path fill="Lavender" stroke="black" stroke-width="1.3" d="M2499.12,-212C2499.12,-212 2426.88,-212 2426.88,-212 2420.88,-212 2414.88,-206 2414.88,-200 2414.88,-200 2414.88,-188 2414.88,-188 2414.88,-182 2420.88,-176 2426.88,-176 2426.88,-176 2499.12,-176 2499.12,-176 2505.12,-176 2511.12,-182 2511.12,-188 2511.12,-188 2511.12,-200 2511.12,-200 2511.12,-206 2505.12,-212 2499.12,-212"/>
<text text-anchor="middle" x="2463" y="-188.75" font-family="Arial" font-size="15.00">color_picker</text>
</g>
<!-- /lib/panels/tools/tools_panel.dart&#45;&gt;/lib/widgets/color_picker.dart -->
<g id="edge12" class="edge">
<title>/lib/panels/tools/tools_panel.dart&#45;&gt;/lib/widgets/color_picker.dart</title>
<path fill="none" stroke="#aabbaa" stroke-width="1.3" stroke-opacity="0.533333" d="M1473.2,-428.59C1544.71,-424.94 1686.55,-418 1807,-414 1827.49,-413.32 2156.53,-412.43 2176,-406 2288.81,-368.73 2393.94,-268.56 2439.38,-220.9"/>
<polygon fill="#aabbaa" fill-opacity="0.533333" stroke="#aabbaa" stroke-width="1.3" stroke-opacity="0.533333" points="2441.76,-223.48 2446.06,-213.8 2436.66,-218.68 2441.76,-223.48"/>
</g>
<!-- /lib/helpers/color_helper.dart -->
<g id="node39" class="node">
<title>/lib/helpers/color_helper.dart</title>
<path fill="Lavender" stroke="black" stroke-width="1.3" d="M1274.88,-140C1274.88,-140 1201.12,-140 1201.12,-140 1195.12,-140 1189.12,-134 1189.12,-128 1189.12,-128 1189.12,-116 1189.12,-116 1189.12,-110 1195.12,-104 1201.12,-104 1201.12,-104 1274.88,-104 1274.88,-104 1280.88,-104 1286.88,-110 1286.88,-116 1286.88,-116 1286.88,-128 1286.88,-128 1286.88,-134 1280.88,-140 1274.88,-140"/>
<text text-anchor="middle" x="1238" y="-116.75" font-family="Arial" font-size="15.00">color_helper</text>
</g>
<!-- /lib/panels/tools/tool_attributes_widget.dart&#45;&gt;/lib/helpers/color_helper.dart -->
<g id="edge16" class="edge">
<title>/lib/panels/tools/tool_attributes_widget.dart&#45;&gt;/lib/helpers/color_helper.dart</title>
<path fill="none" stroke="#aabbaa" stroke-width="1.3" stroke-opacity="0.533333" d="M1385.04,-338.53C1367.51,-294.64 1322.52,-182.72 1317,-176 1307.67,-164.63 1295.27,-154.76 1283.06,-146.71"/>
<polygon fill="#aabbaa" fill-opacity="0.533333" stroke="#aabbaa" stroke-width="1.3" stroke-opacity="0.533333" points="1284.94,-143.76 1274.6,-141.44 1281.23,-149.7 1284.94,-143.76"/>
</g>
<!-- /lib/widgets/transparent_background.dart -->
<g id="node44" class="node">
<title>/lib/widgets/transparent_background.dart</title>
<path fill="Lavender" stroke="black" stroke-width="1.3" d="M1611.38,-140C1611.38,-140 1456.62,-140 1456.62,-140 1450.62,-140 1444.62,-134 1444.62,-128 1444.62,-128 1444.62,-116 1444.62,-116 1444.62,-110 1450.62,-104 1456.62,-104 1456.62,-104 1611.38,-104 1611.38,-104 1617.38,-104 1623.38,-110 1623.38,-116 1623.38,-116 1623.38,-128 1623.38,-128 1623.38,-134 1617.38,-140 1611.38,-140"/>
<text text-anchor="middle" x="1534" y="-116.75" font-family="Arial" font-size="15.00">transparent_background</text>
</g>
<!-- /lib/panels/tools/tool_attributes_widget.dart&#45;&gt;/lib/widgets/transparent_background.dart -->
<g id="edge17" class="edge">
<title>/lib/panels/tools/tool_attributes_widget.dart&#45;&gt;/lib/widgets/transparent_background.dart</title>
<path fill="none" stroke="#aabbaa" stroke-width="1.3" stroke-opacity="0.533333" d="M1444.14,-338.54C1454.9,-335.54 1466.23,-332.81 1477,-331 1541.83,-320.09 2022.63,-350.57 2068,-303 2075.98,-294.64 2076.12,-259.22 2068,-251 2055.66,-238.51 1448.34,-255.49 1436,-243 1415.08,-221.81 1420.75,-201.58 1436,-176 1443.54,-163.35 1455.27,-153.53 1468.02,-145.99"/>
<polygon fill="#aabbaa" fill-opacity="0.533333" stroke="#aabbaa" stroke-width="1.3" stroke-opacity="0.533333" points="1469.52,-149.16 1476.67,-141.34 1466.21,-142.99 1469.52,-149.16"/>
</g>
<!-- /lib/panels/canvas_panel.dart -->
<g id="node12" class="node">
<title>/lib/panels/canvas_panel.dart</title>
<path fill="Lavender" stroke="black" stroke-width="1.3" d="M1480.75,-303C1480.75,-303 1397.25,-303 1397.25,-303 1391.25,-303 1385.25,-297 1385.25,-291 1385.25,-291 1385.25,-279 1385.25,-279 1385.25,-273 1391.25,-267 1397.25,-267 1397.25,-267 1480.75,-267 1480.75,-267 1486.75,-267 1492.75,-273 1492.75,-279 1492.75,-279 1492.75,-291 1492.75,-291 1492.75,-297 1486.75,-303 1480.75,-303"/>
<text text-anchor="middle" x="1439" y="-279.75" font-family="Arial" font-size="15.00">canvas_panel</text>
</g>
<!-- /lib/panels/canvas_panel.dart&#45;&gt;/lib/models/app_model.dart -->
<g id="edge18" class="edge">
<title>/lib/panels/canvas_panel.dart&#45;&gt;/lib/models/app_model.dart</title>
<path fill="none" stroke="#aabbaa" stroke-width="1.3" stroke-opacity="0.533333" d="M1384.79,-276.53C1330.34,-269.23 1243.98,-258.19 1169,-251 1118,-246.11 1103.37,-256.7 1054,-243 1034.11,-237.48 1013.53,-227.53 996.72,-218.11"/>
<polygon fill="#aabbaa" fill-opacity="0.533333" stroke="#aabbaa" stroke-width="1.3" stroke-opacity="0.533333" points="998.88,-215.32 988.47,-213.34 995.38,-221.38 998.88,-215.32"/>
</g>
<!-- /lib/panels/canvas_panel.dart&#45;&gt;/lib/widgets/transparent_background.dart -->
<g id="edge19" class="edge">
<title>/lib/panels/canvas_panel.dart&#45;&gt;/lib/widgets/transparent_background.dart</title>
<path fill="none" stroke="#aabbaa" stroke-width="1.3" stroke-opacity="0.533333" d="M1417.41,-266.54C1410.85,-259.94 1404.47,-251.85 1401,-243 1390.13,-215.28 1384.29,-200.65 1401,-176 1409.98,-162.76 1422.85,-152.82 1437.09,-145.37"/>
<polygon fill="#aabbaa" fill-opacity="0.533333" stroke="#aabbaa" stroke-width="1.3" stroke-opacity="0.533333" points="1438.35,-148.65 1445.89,-141.21 1435.35,-142.32 1438.35,-148.65"/>
</g>
<!-- /lib/panels/layers/tools_and_layers_panel.dart -->
<g id="node13" class="node">
<title>/lib/panels/layers/tools_and_layers_panel.dart</title>
<path fill="Lavender" stroke="black" stroke-width="1.3" d="M1979.38,-450C1979.38,-450 1830.62,-450 1830.62,-450 1824.62,-450 1818.62,-444 1818.62,-438 1818.62,-438 1818.62,-426 1818.62,-426 1818.62,-420 1824.62,-414 1830.62,-414 1830.62,-414 1979.38,-414 1979.38,-414 1985.38,-414 1991.38,-420 1991.38,-426 1991.38,-426 1991.38,-438 1991.38,-438 1991.38,-444 1985.38,-450 1979.38,-450"/>
<text text-anchor="middle" x="1905" y="-426.75" font-family="Arial" font-size="15.00">tools_and_layers_panel</text>
</g>
<!-- /lib/panels/layers/tools_and_layers_panel.dart&#45;&gt;/lib/panels/about.dart -->
<g id="edge24" class="edge">
<title>/lib/panels/layers/tools_and_layers_panel.dart&#45;&gt;/lib/panels/about.dart</title>
<path fill="none" stroke="#aabbaa" stroke-width="1.3" stroke-opacity="0.533333" d="M1818.36,-428.57C1721.94,-425.27 1576.63,-418.34 1554,-406 1545.25,-401.23 1538.02,-393.33 1532.39,-385.3"/>
<polygon fill="#aabbaa" fill-opacity="0.533333" stroke="#aabbaa" stroke-width="1.3" stroke-opacity="0.533333" points="1535.43,-383.57 1527.16,-376.95 1529.5,-387.28 1535.43,-383.57"/>
</g>
<!-- /lib/panels/layers/layer_selector.dart -->
<g id="node14" class="node">
<title>/lib/panels/layers/layer_selector.dart</title>
<path fill="Lavender" stroke="black" stroke-width="1.3" d="M1992.5,-375C1992.5,-375 1907.5,-375 1907.5,-375 1901.5,-375 1895.5,-369 1895.5,-363 1895.5,-363 1895.5,-351 1895.5,-351 1895.5,-345 1901.5,-339 1907.5,-339 1907.5,-339 1992.5,-339 1992.5,-339 1998.5,-339 2004.5,-345 2004.5,-351 2004.5,-351 2004.5,-363 2004.5,-363 2004.5,-369 1998.5,-375 1992.5,-375"/>
<text text-anchor="middle" x="1950" y="-351.75" font-family="Arial" font-size="15.00">layer_selector</text>
</g>
<!-- /lib/panels/layers/tools_and_layers_panel.dart&#45;&gt;/lib/panels/layers/layer_selector.dart -->
<g id="edge26" class="edge">
<title>/lib/panels/layers/tools_and_layers_panel.dart&#45;&gt;/lib/panels/layers/layer_selector.dart</title>
<path fill="none" stroke="#aabbaa" stroke-width="1.3" stroke-opacity="0.533333" d="M1915.66,-413.7C1920.84,-405.31 1927.18,-395.02 1933,-385.58"/>
<polygon fill="#aabbaa" fill-opacity="0.533333" stroke="#aabbaa" stroke-width="1.3" stroke-opacity="0.533333" points="1935.96,-387.45 1938.22,-377.1 1930,-383.78 1935.96,-387.45"/>
</g>
<!-- /lib/panels/share_panel.dart -->
<g id="node18" class="node">
<title>/lib/panels/share_panel.dart</title>
<path fill="Lavender" stroke="black" stroke-width="1.3" d="M1648.88,-375C1648.88,-375 1575.12,-375 1575.12,-375 1569.12,-375 1563.12,-369 1563.12,-363 1563.12,-363 1563.12,-351 1563.12,-351 1563.12,-345 1569.12,-339 1575.12,-339 1575.12,-339 1648.88,-339 1648.88,-339 1654.88,-339 1660.88,-345 1660.88,-351 1660.88,-351 1660.88,-363 1660.88,-363 1660.88,-369 1654.88,-375 1648.88,-375"/>
<text text-anchor="middle" x="1612" y="-351.75" font-family="Arial" font-size="15.00">share_panel</text>
</g>
<!-- /lib/panels/layers/tools_and_layers_panel.dart&#45;&gt;/lib/panels/share_panel.dart -->
<g id="edge27" class="edge">
<title>/lib/panels/layers/tools_and_layers_panel.dart&#45;&gt;/lib/panels/share_panel.dart</title>
<path fill="none" stroke="#aabbaa" stroke-width="1.3" stroke-opacity="0.533333" d="M1818.17,-426.99C1762.58,-423.42 1696.14,-417.01 1670,-406 1657.59,-400.77 1645.77,-391.97 1636.08,-383.33"/>
<polygon fill="#aabbaa" fill-opacity="0.533333" stroke="#aabbaa" stroke-width="1.3" stroke-opacity="0.533333" points="1638.59,-380.88 1628.92,-376.56 1633.78,-385.97 1638.59,-380.88"/>
</g>
<!-- /lib/panels/canvas_settings.dart -->
<g id="node19" class="node">
<title>/lib/panels/canvas_settings.dart</title>
<path fill="Lavender" stroke="black" stroke-width="1.3" d="M1790.62,-375C1790.62,-375 1691.38,-375 1691.38,-375 1685.38,-375 1679.38,-369 1679.38,-363 1679.38,-363 1679.38,-351 1679.38,-351 1679.38,-345 1685.38,-339 1691.38,-339 1691.38,-339 1790.62,-339 1790.62,-339 1796.62,-339 1802.62,-345 1802.62,-351 1802.62,-351 1802.62,-363 1802.62,-363 1802.62,-369 1796.62,-375 1790.62,-375"/>
<text text-anchor="middle" x="1741" y="-351.75" font-family="Arial" font-size="15.00">canvas_settings</text>
</g>
<!-- /lib/panels/layers/tools_and_layers_panel.dart&#45;&gt;/lib/panels/canvas_settings.dart -->
<g id="edge25" class="edge">
<title>/lib/panels/layers/tools_and_layers_panel.dart&#45;&gt;/lib/panels/canvas_settings.dart</title>
<path fill="none" stroke="#aabbaa" stroke-width="1.3" stroke-opacity="0.533333" d="M1825.72,-413.57C1819.28,-411.32 1812.96,-408.8 1807,-406 1793.91,-399.85 1780.76,-390.97 1769.69,-382.52"/>
<polygon fill="#aabbaa" fill-opacity="0.533333" stroke="#aabbaa" stroke-width="1.3" stroke-opacity="0.533333" points="1772.1,-379.96 1762.08,-376.5 1767.75,-385.45 1772.1,-379.96"/>
</g>
<!-- /lib/models/menu_model.dart -->
<g id="node20" class="node">
<title>/lib/models/menu_model.dart</title>
<path fill="Lavender" stroke="black" stroke-width="1.3" d="M1069.12,-375C1069.12,-375 990.88,-375 990.88,-375 984.88,-375 978.88,-369 978.88,-363 978.88,-363 978.88,-351 978.88,-351 978.88,-345 984.88,-339 990.88,-339 990.88,-339 1069.12,-339 1069.12,-339 1075.12,-339 1081.12,-345 1081.12,-351 1081.12,-351 1081.12,-363 1081.12,-363 1081.12,-369 1075.12,-375 1069.12,-375"/>
<text text-anchor="middle" x="1030" y="-351.75" font-family="Arial" font-size="15.00">menu_model</text>
</g>
<!-- /lib/panels/layers/tools_and_layers_panel.dart&#45;&gt;/lib/models/menu_model.dart -->
<g id="edge23" class="edge">
<title>/lib/panels/layers/tools_and_layers_panel.dart&#45;&gt;/lib/models/menu_model.dart</title>
<path fill="none" stroke="#aabbaa" stroke-width="1.3" stroke-opacity="0.533333" d="M1818.14,-426.97C1733.22,-423.15 1600.25,-417.5 1485,-414 1463.06,-413.33 1110.64,-413.47 1090,-406 1076.75,-401.2 1064.21,-392.19 1054.06,-383.25"/>
<polygon fill="#aabbaa" fill-opacity="0.533333" stroke="#aabbaa" stroke-width="1.3" stroke-opacity="0.533333" points="1056.59,-380.82 1046.9,-376.54 1051.8,-385.93 1056.59,-380.82"/>
</g>
<!-- /lib/panels/layers/tools_and_layers_panel.dart&#45;&gt;/lib/models/app_model.dart -->
<g id="edge22" class="edge">
<title>/lib/panels/layers/tools_and_layers_panel.dart&#45;&gt;/lib/models/app_model.dart</title>
<path fill="none" stroke="#aabbaa" stroke-width="1.3" stroke-opacity="0.533333" d="M1818.15,-426.85C1733.23,-422.95 1600.26,-417.23 1485,-414 1470.7,-413.6 980.28,-415.95 970,-406 944.81,-381.6 951.68,-275.91 956.76,-224"/>
<polygon fill="#aabbaa" fill-opacity="0.533333" stroke="#aabbaa" stroke-width="1.3" stroke-opacity="0.533333" points="960.22,-224.59 957.76,-214.29 953.25,-223.87 960.22,-224.59"/>
</g>
<!-- /lib/files/save.dart -->
<g id="node33" class="node">
<title>/lib/files/save.dart</title>
<path fill="Lavender" stroke="black" stroke-width="1.3" d="M879,-375C879,-375 849,-375 849,-375 843,-375 837,-369 837,-363 837,-363 837,-351 837,-351 837,-345 843,-339 849,-339 849,-339 879,-339 879,-339 885,-339 891,-345 891,-351 891,-351 891,-363 891,-363 891,-369 885,-375 879,-375"/>
<text text-anchor="middle" x="864" y="-351.75" font-family="Arial" font-size="15.00">save</text>
</g>
<!-- /lib/panels/layers/tools_and_layers_panel.dart&#45;&gt;/lib/files/save.dart -->
<g id="edge21" class="edge">
<title>/lib/panels/layers/tools_and_layers_panel.dart&#45;&gt;/lib/files/save.dart</title>
<path fill="none" stroke="#aabbaa" stroke-width="1.3" stroke-opacity="0.533333" d="M1818.15,-426.81C1733.23,-422.87 1600.26,-417.12 1485,-414 1468.84,-413.56 917.55,-413.05 903,-406 893.52,-401.41 885.58,-393.29 879.39,-385.01"/>
<polygon fill="#aabbaa" fill-opacity="0.533333" stroke="#aabbaa" stroke-width="1.3" stroke-opacity="0.533333" points="882.29,-383.06 873.82,-376.71 876.48,-386.96 882.29,-383.06"/>
</g>
<!-- /lib/files/import_files.dart -->
<g id="node35" class="node">
<title>/lib/files/import_files.dart</title>
<path fill="Lavender" stroke="black" stroke-width="1.3" d="M807.25,-375C807.25,-375 738.75,-375 738.75,-375 732.75,-375 726.75,-369 726.75,-363 726.75,-363 726.75,-351 726.75,-351 726.75,-345 732.75,-339 738.75,-339 738.75,-339 807.25,-339 807.25,-339 813.25,-339 819.25,-345 819.25,-351 819.25,-351 819.25,-363 819.25,-363 819.25,-369 813.25,-375 807.25,-375"/>
<text text-anchor="middle" x="773" y="-351.75" font-family="Arial" font-size="15.00">import_files</text>
</g>
<!-- /lib/panels/layers/tools_and_layers_panel.dart&#45;&gt;/lib/files/import_files.dart -->
<g id="edge20" class="edge">
<title>/lib/panels/layers/tools_and_layers_panel.dart&#45;&gt;/lib/files/import_files.dart</title>
<path fill="none" stroke="#aabbaa" stroke-width="1.3" stroke-opacity="0.533333" d="M1818.15,-426.77C1733.23,-422.8 1600.26,-417.03 1485,-414 1466.75,-413.52 845.05,-412.51 828,-406 815.62,-401.27 804.17,-392.4 794.97,-383.55"/>
<polygon fill="#aabbaa" fill-opacity="0.533333" stroke="#aabbaa" stroke-width="1.3" stroke-opacity="0.533333" points="797.72,-381.36 788.24,-376.63 792.7,-386.24 797.72,-381.36"/>
</g>
<!-- /lib/panels/layers/layer_thumbnail.dart -->
<g id="node15" class="node">
<title>/lib/panels/layers/layer_thumbnail.dart</title>
<path fill="Lavender" stroke="black" stroke-width="1.3" d="M2043.5,-303C2043.5,-303 1946.5,-303 1946.5,-303 1940.5,-303 1934.5,-297 1934.5,-291 1934.5,-291 1934.5,-279 1934.5,-279 1934.5,-273 1940.5,-267 1946.5,-267 1946.5,-267 2043.5,-267 2043.5,-267 2049.5,-267 2055.5,-273 2055.5,-279 2055.5,-279 2055.5,-291 2055.5,-291 2055.5,-297 2049.5,-303 2043.5,-303"/>
<text text-anchor="middle" x="1995" y="-279.75" font-family="Arial" font-size="15.00">layer_thumbnail</text>
</g>
<!-- /lib/panels/layers/layer_selector.dart&#45;&gt;/lib/panels/layers/layer_thumbnail.dart -->
<g id="edge30" class="edge">
<title>/lib/panels/layers/layer_selector.dart&#45;&gt;/lib/panels/layers/layer_thumbnail.dart</title>
<path fill="none" stroke="#aabbaa" stroke-width="1.3" stroke-opacity="0.533333" d="M1961.12,-338.7C1966.08,-330.98 1972.04,-321.71 1977.57,-313.11"/>
<polygon fill="#aabbaa" fill-opacity="0.533333" stroke="#aabbaa" stroke-width="1.3" stroke-opacity="0.533333" points="1980.48,-315.06 1982.94,-304.76 1974.59,-311.28 1980.48,-315.06"/>
</g>
<!-- /lib/panels/layers/blend_mode.dart -->
<g id="node16" class="node">
<title>/lib/panels/layers/blend_mode.dart</title>
<path fill="Lavender" stroke="black" stroke-width="1.3" d="M1904.88,-303C1904.88,-303 1831.12,-303 1831.12,-303 1825.12,-303 1819.12,-297 1819.12,-291 1819.12,-291 1819.12,-279 1819.12,-279 1819.12,-273 1825.12,-267 1831.12,-267 1831.12,-267 1904.88,-267 1904.88,-267 1910.88,-267 1916.88,-273 1916.88,-279 1916.88,-279 1916.88,-291 1916.88,-291 1916.88,-297 1910.88,-303 1904.88,-303"/>
<text text-anchor="middle" x="1868" y="-279.75" font-family="Arial" font-size="15.00">blend_mode</text>
</g>
<!-- /lib/panels/layers/layer_selector.dart&#45;&gt;/lib/panels/layers/blend_mode.dart -->
<g id="edge29" class="edge">
<title>/lib/panels/layers/layer_selector.dart&#45;&gt;/lib/panels/layers/blend_mode.dart</title>
<path fill="none" stroke="#aabbaa" stroke-width="1.3" stroke-opacity="0.533333" d="M1929.73,-338.7C1919.97,-330.37 1908.09,-320.22 1897.36,-311.07"/>
<polygon fill="#aabbaa" fill-opacity="0.533333" stroke="#aabbaa" stroke-width="1.3" stroke-opacity="0.533333" points="1899.7,-308.46 1889.82,-304.62 1895.15,-313.78 1899.7,-308.46"/>
</g>
<!-- /lib/panels/layers/layer_selector.dart&#45;&gt;/lib/models/app_model.dart -->
<g id="edge28" class="edge">
<title>/lib/panels/layers/layer_selector.dart&#45;&gt;/lib/models/app_model.dart</title>
<path fill="none" stroke="#aabbaa" stroke-width="1.3" stroke-opacity="0.533333" d="M1915.12,-338.53C1907.66,-335.49 1899.7,-332.75 1892,-331 1814.03,-313.32 1243.57,-340.58 1173,-303 1147.73,-289.55 1159.85,-265.2 1135,-251 1103.59,-233.05 1088.71,-253.18 1054,-243 1034.34,-237.23 1013.93,-227.35 997.16,-218.04"/>
<polygon fill="#aabbaa" fill-opacity="0.533333" stroke="#aabbaa" stroke-width="1.3" stroke-opacity="0.533333" points="999.37,-215.27 988.95,-213.34 995.89,-221.35 999.37,-215.27"/>
</g>
<!-- /lib/widgets/truncated_text.dart -->
<g id="node41" class="node">
<title>/lib/widgets/truncated_text.dart</title>
<path fill="Lavender" stroke="black" stroke-width="1.3" d="M2127,-212C2127,-212 2039,-212 2039,-212 2033,-212 2027,-206 2027,-200 2027,-200 2027,-188 2027,-188 2027,-182 2033,-176 2039,-176 2039,-176 2127,-176 2127,-176 2133,-176 2139,-182 2139,-188 2139,-188 2139,-200 2139,-200 2139,-206 2133,-212 2127,-212"/>
<text text-anchor="middle" x="2083" y="-188.75" font-family="Arial" font-size="15.00">truncated_text</text>
</g>
<!-- /lib/panels/layers/layer_selector.dart&#45;&gt;/lib/widgets/truncated_text.dart -->
<g id="edge32" class="edge">
<title>/lib/panels/layers/layer_selector.dart&#45;&gt;/lib/widgets/truncated_text.dart</title>
<path fill="none" stroke="#aabbaa" stroke-width="1.3" stroke-opacity="0.533333" d="M2004.79,-353.57C2041.06,-348.77 2086.19,-335.97 2110,-303 2127.17,-279.22 2114.5,-245.68 2101.33,-222.31"/>
<polygon fill="#aabbaa" fill-opacity="0.533333" stroke="#aabbaa" stroke-width="1.3" stroke-opacity="0.533333" points="2104.51,-220.81 2096.36,-214.05 2098.51,-224.42 2104.51,-220.81"/>
</g>
<!-- /lib/widgets/container_slider.dart -->
<g id="node42" class="node">
<title>/lib/widgets/container_slider.dart</title>
<path fill="Lavender" stroke="black" stroke-width="1.3" d="M1996.5,-212C1996.5,-212 1899.5,-212 1899.5,-212 1893.5,-212 1887.5,-206 1887.5,-200 1887.5,-200 1887.5,-188 1887.5,-188 1887.5,-182 1893.5,-176 1899.5,-176 1899.5,-176 1996.5,-176 1996.5,-176 2002.5,-176 2008.5,-182 2008.5,-188 2008.5,-188 2008.5,-200 2008.5,-200 2008.5,-206 2002.5,-212 1996.5,-212"/>
<text text-anchor="middle" x="1948" y="-188.75" font-family="Arial" font-size="15.00">container_slider</text>
</g>
<!-- /lib/panels/layers/layer_selector.dart&#45;&gt;/lib/widgets/container_slider.dart -->
<g id="edge31" class="edge">
<title>/lib/panels/layers/layer_selector.dart&#45;&gt;/lib/widgets/container_slider.dart</title>
<path fill="none" stroke="#aabbaa" stroke-width="1.3" stroke-opacity="0.533333" d="M2004.8,-352.01C2038.23,-346.42 2078.55,-333.33 2100,-303 2113.35,-284.13 2115.53,-268.12 2100,-251 2087.7,-237.44 2035.2,-249.26 2018,-243 2003.4,-237.68 1988.94,-228.6 1977,-219.76"/>
<polygon fill="#aabbaa" fill-opacity="0.533333" stroke="#aabbaa" stroke-width="1.3" stroke-opacity="0.533333" points="1979.21,-217.04 1969.16,-213.68 1974.92,-222.57 1979.21,-217.04"/>
</g>
<!-- /lib/panels/layers/layer_thumbnail.dart&#45;&gt;/lib/models/app_model.dart -->
<g id="edge33" class="edge">
<title>/lib/panels/layers/layer_thumbnail.dart&#45;&gt;/lib/models/app_model.dart</title>
<path fill="none" stroke="#aabbaa" stroke-width="1.3" stroke-opacity="0.533333" d="M1965.82,-266.56C1953.9,-260.38 1939.71,-254.18 1926,-251 1831.61,-229.13 1148.1,-266.09 1054,-243 1033.66,-238.01 1012.75,-227.91 995.83,-218.26"/>
<polygon fill="#aabbaa" fill-opacity="0.533333" stroke="#aabbaa" stroke-width="1.3" stroke-opacity="0.533333" points="997.93,-215.43 987.54,-213.35 994.37,-221.46 997.93,-215.43"/>
</g>
<!-- /lib/panels/layers/layer_thumbnail.dart&#45;&gt;/lib/widgets/transparent_background.dart -->
<g id="edge35" class="edge">
<title>/lib/panels/layers/layer_thumbnail.dart&#45;&gt;/lib/widgets/transparent_background.dart</title>
<path fill="none" stroke="#aabbaa" stroke-width="1.3" stroke-opacity="0.533333" d="M1965.81,-266.61C1953.89,-260.43 1939.7,-254.22 1926,-251 1912.34,-247.79 1430.84,-253 1421,-243 1400.11,-221.78 1405.03,-201.13 1421,-176 1429.24,-163.03 1441.59,-153.18 1455.14,-145.71"/>
<polygon fill="#aabbaa" fill-opacity="0.533333" stroke="#aabbaa" stroke-width="1.3" stroke-opacity="0.533333" points="1456.53,-148.93 1463.92,-141.33 1453.41,-142.66 1456.53,-148.93"/>
</g>
<!-- /lib/widgets/image_painter.dart -->
<g id="node46" class="node">
<title>/lib/widgets/image_painter.dart</title>
<path fill="Lavender" stroke="black" stroke-width="1.3" d="M1702.25,-212C1702.25,-212 1615.75,-212 1615.75,-212 1609.75,-212 1603.75,-206 1603.75,-200 1603.75,-200 1603.75,-188 1603.75,-188 1603.75,-182 1609.75,-176 1615.75,-176 1615.75,-176 1702.25,-176 1702.25,-176 1708.25,-176 1714.25,-182 1714.25,-188 1714.25,-188 1714.25,-200 1714.25,-200 1714.25,-206 1708.25,-212 1702.25,-212"/>
<text text-anchor="middle" x="1659" y="-188.75" font-family="Arial" font-size="15.00">image_painter</text>
</g>
<!-- /lib/panels/layers/layer_thumbnail.dart&#45;&gt;/lib/widgets/image_painter.dart -->
<g id="edge34" class="edge">
<title>/lib/panels/layers/layer_thumbnail.dart&#45;&gt;/lib/widgets/image_painter.dart</title>
<path fill="none" stroke="#aabbaa" stroke-width="1.3" stroke-opacity="0.533333" d="M1965.43,-266.6C1953.57,-260.51 1939.53,-254.35 1926,-251 1882.18,-240.15 1765.54,-258.12 1723,-243 1709.13,-238.07 1695.78,-229 1684.89,-220.06"/>
<polygon fill="#aabbaa" fill-opacity="0.533333" stroke="#aabbaa" stroke-width="1.3" stroke-opacity="0.533333" points="1687.34,-217.55 1677.49,-213.63 1682.75,-222.83 1687.34,-217.55"/>
</g>
<!-- /lib/panels/side_panel.dart -->
<g id="node17" class="node">
<title>/lib/panels/side_panel.dart</title>
<path fill="Lavender" stroke="black" stroke-width="1.3" d="M1260.62,-525C1260.62,-525 1197.38,-525 1197.38,-525 1191.38,-525 1185.38,-519 1185.38,-513 1185.38,-513 1185.38,-501 1185.38,-501 1185.38,-495 1191.38,-489 1197.38,-489 1197.38,-489 1260.62,-489 1260.62,-489 1266.62,-489 1272.62,-495 1272.62,-501 1272.62,-501 1272.62,-513 1272.62,-513 1272.62,-519 1266.62,-525 1260.62,-525"/>
<text text-anchor="middle" x="1229" y="-501.75" font-family="Arial" font-size="15.00">side_panel</text>
</g>
<!-- /lib/panels/side_panel.dart&#45;&gt;/lib/panels/tools/tools_panel.dart -->
<g id="edge38" class="edge">
<title>/lib/panels/side_panel.dart&#45;&gt;/lib/panels/tools/tools_panel.dart</title>
<path fill="none" stroke="#aabbaa" stroke-width="1.3" stroke-opacity="0.533333" d="M1272.95,-492.01C1283.49,-488.53 1294.68,-484.72 1305,-481 1327.5,-472.88 1352.09,-463.34 1373.27,-454.91"/>
<polygon fill="#aabbaa" fill-opacity="0.533333" stroke="#aabbaa" stroke-width="1.3" stroke-opacity="0.533333" points="1374.51,-458.18 1382.49,-451.21 1371.9,-451.68 1374.51,-458.18"/>
</g>
<!-- /lib/panels/side_panel.dart&#45;&gt;/lib/panels/layers/tools_and_layers_panel.dart -->
<g id="edge37" class="edge">
<title>/lib/panels/side_panel.dart&#45;&gt;/lib/panels/layers/tools_and_layers_panel.dart</title>
<path fill="none" stroke="#aabbaa" stroke-width="1.3" stroke-opacity="0.533333" d="M1272.96,-501.93C1323.98,-497.15 1410.62,-488.88 1485,-481 1595.13,-469.33 1721.36,-454.74 1806.45,-444.73"/>
<polygon fill="#aabbaa" fill-opacity="0.533333" stroke="#aabbaa" stroke-width="1.3" stroke-opacity="0.533333" points="1806.7,-448.22 1816.22,-443.58 1805.88,-441.27 1806.7,-448.22"/>
</g>
<!-- /lib/panels/side_panel.dart&#45;&gt;/lib/models/app_model.dart -->
<g id="edge36" class="edge">
<title>/lib/panels/side_panel.dart&#45;&gt;/lib/models/app_model.dart</title>
<path fill="none" stroke="#aabbaa" stroke-width="1.3" stroke-opacity="0.533333" d="M1188.37,-488.81C1185.59,-486.5 1183.07,-483.91 1181,-481 1163.52,-456.49 1193.48,-434.02 1171,-414 1150.58,-395.81 944.02,-425.65 925,-406 901.04,-381.25 915.5,-284.11 925,-251 927.91,-240.86 933.25,-230.78 938.89,-222.02"/>
<polygon fill="#aabbaa" fill-opacity="0.533333" stroke="#aabbaa" stroke-width="1.3" stroke-opacity="0.533333" points="941.6,-224.25 944.41,-214.04 935.85,-220.27 941.6,-224.25"/>
</g>
<!-- /lib/panels/share_panel.dart&#45;&gt;/lib/panels/canvas_panel.dart -->
<g id="edge40" class="edge">
<title>/lib/panels/share_panel.dart&#45;&gt;/lib/panels/canvas_panel.dart</title>
<path fill="none" stroke="#aabbaa" stroke-width="1.3" stroke-opacity="0.533333" d="M1572.14,-338.61C1566.08,-336.02 1559.88,-333.42 1554,-331 1535.11,-323.24 1514.35,-315.02 1495.73,-307.76"/>
<polygon fill="#aabbaa" fill-opacity="0.533333" stroke="#aabbaa" stroke-width="1.3" stroke-opacity="0.533333" points="1497.18,-304.56 1486.59,-304.21 1494.64,-311.09 1497.18,-304.56"/>
</g>
<!-- /lib/panels/share_panel.dart&#45;&gt;/lib/models/app_model.dart -->
<g id="edge39" class="edge">
<title>/lib/panels/share_panel.dart&#45;&gt;/lib/models/app_model.dart</title>
<path fill="none" stroke="#aabbaa" stroke-width="1.3" stroke-opacity="0.533333" d="M1576.77,-338.55C1569.4,-335.55 1561.57,-332.82 1554,-331 1460.68,-308.57 1202.55,-356.7 1123,-303 1101.75,-288.65 1118.39,-266.54 1098,-251 1082.19,-238.95 1072.83,-249.37 1054,-243 1035.2,-236.65 1015.49,-227.08 999,-218.16"/>
<polygon fill="#aabbaa" fill-opacity="0.533333" stroke="#aabbaa" stroke-width="1.3" stroke-opacity="0.533333" points="1000.83,-215.17 990.39,-213.38 997.44,-221.29 1000.83,-215.17"/>
</g>
<!-- /lib/panels/canvas_settings.dart&#45;&gt;/lib/models/app_model.dart -->
<g id="edge41" class="edge">
<title>/lib/panels/canvas_settings.dart&#45;&gt;/lib/models/app_model.dart</title>
<path fill="none" stroke="#aabbaa" stroke-width="1.3" stroke-opacity="0.533333" d="M1697.61,-338.53C1688.62,-335.53 1679.1,-332.81 1670,-331 1612.48,-319.59 1192.29,-334.77 1143,-303 1121.11,-288.89 1137.34,-265.92 1116,-251 1093.23,-235.08 1080.54,-251.22 1054,-243 1034.76,-237.04 1014.71,-227.35 998.1,-218.23"/>
<polygon fill="#aabbaa" fill-opacity="0.533333" stroke="#aabbaa" stroke-width="1.3" stroke-opacity="0.533333" points="999.86,-215.21 989.43,-213.33 996.41,-221.3 999.86,-215.21"/>
</g>
<!-- /lib/widgets/nine_grid_selector.dart -->
<g id="node49" class="node">
<title>/lib/widgets/nine_grid_selector.dart</title>
<path fill="Lavender" stroke="black" stroke-width="1.3" d="M1857.75,-212C1857.75,-212 1744.25,-212 1744.25,-212 1738.25,-212 1732.25,-206 1732.25,-200 1732.25,-200 1732.25,-188 1732.25,-188 1732.25,-182 1738.25,-176 1744.25,-176 1744.25,-176 1857.75,-176 1857.75,-176 1863.75,-176 1869.75,-182 1869.75,-188 1869.75,-188 1869.75,-200 1869.75,-200 1869.75,-206 1863.75,-212 1857.75,-212"/>
<text text-anchor="middle" x="1801" y="-188.75" font-family="Arial" font-size="15.00">nine_grid_selector</text>
</g>
<!-- /lib/panels/canvas_settings.dart&#45;&gt;/lib/widgets/nine_grid_selector.dart -->
<g id="edge42" class="edge">
<title>/lib/panels/canvas_settings.dart&#45;&gt;/lib/widgets/nine_grid_selector.dart</title>
<path fill="none" stroke="#aabbaa" stroke-width="1.3" stroke-opacity="0.533333" d="M1782.03,-338.58C1790.19,-335.66 1798.77,-332.95 1807,-331 1866.35,-316.97 2039.14,-348.27 2080,-303 2095.49,-285.84 2096.01,-267.66 2080,-251 2064.51,-234.88 1900.38,-249.51 1879,-243 1862.39,-237.94 1845.77,-228.47 1832.16,-219.26"/>
<polygon fill="#aabbaa" fill-opacity="0.533333" stroke="#aabbaa" stroke-width="1.3" stroke-opacity="0.533333" points="1834.18,-216.41 1823.99,-213.49 1830.14,-222.12 1834.18,-216.41"/>
</g>
<!-- /lib/models/layers.dart -->
<g id="node21" class="node">
<title>/lib/models/layers.dart</title>
<path fill="Lavender" stroke="black" stroke-width="1.3" d="M1142.88,-375C1142.88,-375 1111.12,-375 1111.12,-375 1105.12,-375 1099.12,-369 1099.12,-363 1099.12,-363 1099.12,-351 1099.12,-351 1099.12,-345 1105.12,-339 1111.12,-339 1111.12,-339 1142.88,-339 1142.88,-339 1148.88,-339 1154.88,-345 1154.88,-351 1154.88,-351 1154.88,-363 1154.88,-363 1154.88,-369 1148.88,-375 1142.88,-375"/>
<text text-anchor="middle" x="1127" y="-351.75" font-family="Arial" font-size="15.00">layers</text>
</g>
<!-- /lib/models/layers.dart&#45;&gt;/lib/models/layer.dart -->
<g id="edge45" class="edge">
<title>/lib/models/layers.dart&#45;&gt;/lib/models/layer.dart</title>
<path fill="none" stroke="#aabbaa" stroke-width="1.3" stroke-opacity="0.533333" d="M1105.02,-338.7C1096.71,-330.64 1087.45,-320.89 1079.58,-311.98"/>
<polygon fill="#aabbaa" fill-opacity="0.533333" stroke="#aabbaa" stroke-width="1.3" stroke-opacity="0.533333" points="1082.43,-309.93 1073.27,-304.6 1077.11,-314.47 1082.43,-309.93"/>
</g>
<!-- /lib/models/layers.dart&#45;&gt;/lib/models/layer.dart -->
<g id="edge46" class="edge">
<title>/lib/models/layers.dart&#45;&gt;/lib/models/layer.dart</title>
<path fill="none" stroke="#aabbaa" stroke-width="1.3" stroke-dasharray="5,2" stroke-opacity="0.533333" d="M1116.85,-338.7C1110.11,-330.54 1101.12,-320.63 1092.32,-311.62"/>
<polygon fill="#aabbaa" fill-opacity="0.533333" stroke="#aabbaa" stroke-width="1.3" stroke-opacity="0.533333" points="1094.97,-309.32 1085.42,-304.74 1090.03,-314.28 1094.97,-309.32"/>
</g>
<!-- /lib/helpers/list_helper.dart -->
<g id="node38" class="node">
<title>/lib/helpers/list_helper.dart</title>
<path fill="Lavender" stroke="black" stroke-width="1.3" d="M1267.75,-68C1267.75,-68 1208.25,-68 1208.25,-68 1202.25,-68 1196.25,-62 1196.25,-56 1196.25,-56 1196.25,-44 1196.25,-44 1196.25,-38 1202.25,-32 1208.25,-32 1208.25,-32 1267.75,-32 1267.75,-32 1273.75,-32 1279.75,-38 1279.75,-44 1279.75,-44 1279.75,-56 1279.75,-56 1279.75,-62 1273.75,-68 1267.75,-68"/>
<text text-anchor="middle" x="1238" y="-44.75" font-family="Arial" font-size="15.00">list_helper</text>
</g>
<!-- /lib/models/layers.dart&#45;&gt;/lib/helpers/list_helper.dart -->
<g id="edge44" class="edge">
<title>/lib/models/layers.dart&#45;&gt;/lib/helpers/list_helper.dart</title>
<path fill="none" stroke="#aabbaa" stroke-width="1.3" stroke-opacity="0.533333" d="M1155.37,-340.28C1163.42,-336.54 1172.35,-333.05 1181,-331 1351.88,-290.53 2640.32,-372.43 2759,-243 2803.15,-194.85 2804.51,-142.88 2759,-96 2732.91,-69.12 1558.33,-54.54 1291.52,-51.57"/>
<polygon fill="#aabbaa" fill-opacity="0.533333" stroke="#aabbaa" stroke-width="1.3" stroke-opacity="0.533333" points="1291.88,-48.07 1281.84,-51.46 1291.8,-55.07 1291.88,-48.07"/>
</g>
<!-- /lib/models/layers.dart&#45;&gt;/lib/helpers/color_helper.dart -->
<g id="edge43" class="edge">
<title>/lib/models/layers.dart&#45;&gt;/lib/helpers/color_helper.dart</title>
<path fill="none" stroke="#aabbaa" stroke-width="1.3" stroke-opacity="0.533333" d="M1148.41,-338.68C1151.9,-336.03 1155.51,-333.39 1159,-331 1222.17,-287.8 1269.16,-309.52 1307,-243 1321.72,-217.12 1320.16,-202.71 1307,-176 1301.38,-164.6 1292.01,-154.97 1281.95,-147.18"/>
<polygon fill="#aabbaa" fill-opacity="0.533333" stroke="#aabbaa" stroke-width="1.3" stroke-opacity="0.533333" points="1283.99,-144.33 1273.8,-141.41 1279.94,-150.05 1283.99,-144.33"/>
</g>
<!-- /lib/models/user_action.dart -->
<g id="node22" class="node">
<title>/lib/models/user_action.dart</title>
<path fill="Lavender" stroke="black" stroke-width="1.3" d="M1144.62,-212C1144.62,-212 1075.38,-212 1075.38,-212 1069.38,-212 1063.38,-206 1063.38,-200 1063.38,-200 1063.38,-188 1063.38,-188 1063.38,-182 1069.38,-176 1075.38,-176 1075.38,-176 1144.62,-176 1144.62,-176 1150.62,-176 1156.62,-182 1156.62,-188 1156.62,-188 1156.62,-200 1156.62,-200 1156.62,-206 1150.62,-212 1144.62,-212"/>
<text text-anchor="middle" x="1110" y="-188.75" font-family="Arial" font-size="15.00">user_action</text>
</g>
<!-- /lib/widgets/brush_style_picker.dart -->
<g id="node48" class="node">
<title>/lib/widgets/brush_style_picker.dart</title>
<path fill="Lavender" stroke="black" stroke-width="1.3" d="M1573.25,-212C1573.25,-212 1456.75,-212 1456.75,-212 1450.75,-212 1444.75,-206 1444.75,-200 1444.75,-200 1444.75,-188 1444.75,-188 1444.75,-182 1450.75,-176 1456.75,-176 1456.75,-176 1573.25,-176 1573.25,-176 1579.25,-176 1585.25,-182 1585.25,-188 1585.25,-188 1585.25,-200 1585.25,-200 1585.25,-206 1579.25,-212 1573.25,-212"/>
<text text-anchor="middle" x="1515" y="-188.75" font-family="Arial" font-size="15.00">brush_style_picker</text>
</g>
<!-- /lib/models/user_action.dart&#45;&gt;/lib/widgets/brush_style_picker.dart -->
<g id="edge47" class="edge">
<title>/lib/models/user_action.dart&#45;&gt;/lib/widgets/brush_style_picker.dart</title>
<path fill="none" stroke="#aabbaa" stroke-width="1.3" stroke-opacity="0.533333" d="M1124.53,-212.27C1136.42,-225.33 1154.55,-241.33 1175,-245.67 1188.59,-248.55 1411.41,-248.55 1425,-245.67 1445.72,-241.27 1466.4,-230.01 1482.7,-219.12"/>
<polygon fill="#aabbaa" fill-opacity="0.533333" stroke="#aabbaa" stroke-width="1.3" stroke-opacity="0.533333" points="1484.44,-222.18 1490.63,-213.58 1480.43,-216.44 1484.44,-222.18"/>
</g>
<!-- /lib/models/user_action.dart&#45;&gt;/lib/widgets/brush_style_picker.dart -->
<g id="edge48" class="edge">
<title>/lib/models/user_action.dart&#45;&gt;/lib/widgets/brush_style_picker.dart</title>
<path fill="none" stroke="#aabbaa" stroke-width="1.3" stroke-dasharray="5,2" stroke-opacity="0.533333" d="M1125.25,-212.31C1138.31,-226.15 1158.53,-243.56 1181,-248.33 1193.93,-251.08 1406.07,-251.08 1419,-248.33 1441.86,-243.48 1464.75,-230.91 1482.43,-219.08"/>
<polygon fill="#aabbaa" fill-opacity="0.533333" stroke="#aabbaa" stroke-width="1.3" stroke-opacity="0.533333" points="1484.39,-221.98 1490.59,-213.38 1480.39,-216.23 1484.39,-221.98"/>
</g>
<!-- /lib/models/canvas_model.dart -->
<g id="node24" class="node">
<title>/lib/models/canvas_model.dart</title>
<path fill="Lavender" stroke="black" stroke-width="1.3" d="M1145,-140C1145,-140 1057,-140 1057,-140 1051,-140 1045,-134 1045,-128 1045,-128 1045,-116 1045,-116 1045,-110 1051,-104 1057,-104 1057,-104 1145,-104 1145,-104 1151,-104 1157,-110 1157,-116 1157,-116 1157,-128 1157,-128 1157,-134 1151,-140 1145,-140"/>
<text text-anchor="middle" x="1101" y="-116.75" font-family="Arial" font-size="15.00">canvas_model</text>
</g>
<!-- /lib/models/canvas_model.dart&#45;&gt;/lib/models/layers.dart -->
<g id="edge49" class="edge">
<title>/lib/models/canvas_model.dart&#45;&gt;/lib/models/layers.dart</title>
<path fill="none" stroke="#aabbaa" stroke-width="1.3" stroke-dasharray="5,2" stroke-opacity="0.533333" d="M1083.11,-140.4C1051.03,-173.78 990.24,-248.32 1026,-303 1042.99,-328.98 1062.8,-316.02 1090,-331 1090.92,-331.51 1091.85,-332.03 1092.78,-332.57"/>
<polygon fill="#aabbaa" fill-opacity="0.533333" stroke="#aabbaa" stroke-width="1.3" stroke-opacity="0.533333" points="1090.69,-335.39 1101.04,-337.65 1094.36,-329.43 1090.69,-335.39"/>
</g>
<!-- /lib/models/app_model.dart&#45;&gt;/lib/models/layers.dart -->
<g id="edge53" class="edge">
<title>/lib/models/app_model.dart&#45;&gt;/lib/models/layers.dart</title>
<path fill="none" stroke="#aabbaa" stroke-width="1.3" stroke-dasharray="5,2" stroke-opacity="0.533333" d="M963.8,-212.47C969.82,-236.18 983.78,-278.39 1011,-303 1038.63,-327.98 1056.74,-314.22 1090,-331 1091.11,-331.56 1092.22,-332.15 1093.34,-332.75"/>
<polygon fill="#aabbaa" fill-opacity="0.533333" stroke="#aabbaa" stroke-width="1.3" stroke-opacity="0.533333" points="1091.19,-335.55 1101.57,-337.67 1094.78,-329.54 1091.19,-335.55"/>
</g>
<!-- /lib/models/app_model.dart&#45;&gt;/lib/models/canvas_resize.dart -->
<g id="edge52" class="edge">
<title>/lib/models/app_model.dart&#45;&gt;/lib/models/canvas_resize.dart</title>
<path fill="none" stroke="#aabbaa" stroke-width="1.3" stroke-opacity="0.533333" d="M962.72,-175.7C963.85,-168.49 965.2,-159.93 966.47,-151.82"/>
<polygon fill="#aabbaa" fill-opacity="0.533333" stroke="#aabbaa" stroke-width="1.3" stroke-opacity="0.533333" points="969.91,-152.47 968.01,-142.05 963,-151.38 969.91,-152.47"/>
</g>
<!-- /lib/models/app_model.dart&#45;&gt;/lib/models/canvas_model.dart -->
<g id="edge51" class="edge">
<title>/lib/models/app_model.dart&#45;&gt;/lib/models/canvas_model.dart</title>
<path fill="none" stroke="#aabbaa" stroke-width="1.3" stroke-opacity="0.533333" d="M995.22,-175.52C1013.52,-166.43 1036.11,-155.22 1055.7,-145.49"/>
<polygon fill="#aabbaa" fill-opacity="0.533333" stroke="#aabbaa" stroke-width="1.3" stroke-opacity="0.533333" points="1057.07,-148.72 1064.47,-141.14 1053.96,-142.45 1057.07,-148.72"/>
</g>
<!-- /lib/models/app_model.dart&#45;&gt;/lib/helpers/color_helper.dart -->
<g id="edge50" class="edge">
<title>/lib/models/app_model.dart&#45;&gt;/lib/helpers/color_helper.dart</title>
<path fill="none" stroke="#aabbaa" stroke-width="1.3" stroke-opacity="0.533333" d="M1004.97,-181.68C1051.83,-169.88 1125.53,-151.32 1177.48,-138.24"/>
<polygon fill="#aabbaa" fill-opacity="0.533333" stroke="#aabbaa" stroke-width="1.3" stroke-opacity="0.533333" points="1178.12,-141.69 1186.97,-135.85 1176.41,-134.9 1178.12,-141.69"/>
</g>
<!-- /lib/models/layer.dart&#45;&gt;/lib/models/user_action.dart -->
<g id="edge58" class="edge">
<title>/lib/models/layer.dart&#45;&gt;/lib/models/user_action.dart</title>
<path fill="none" stroke="#aabbaa" stroke-width="1.3" stroke-dasharray="5,2" stroke-opacity="0.533333" d="M1071.25,-266.84C1077.98,-254.36 1087.24,-237.2 1095.02,-222.78"/>
<polygon fill="#aabbaa" fill-opacity="0.533333" stroke="#aabbaa" stroke-width="1.3" stroke-opacity="0.533333" points="1098.01,-224.61 1099.68,-214.14 1091.85,-221.28 1098.01,-224.61"/>
</g>
<!-- /lib/models/layer.dart&#45;&gt;/lib/models/app_model.dart -->
<g id="edge56" class="edge">
<title>/lib/models/layer.dart&#45;&gt;/lib/models/app_model.dart</title>
<path fill="none" stroke="#aabbaa" stroke-width="1.3" stroke-opacity="0.533333" d="M1042.33,-266.84C1027.19,-253.63 1006.03,-235.17 988.96,-220.27"/>
<polygon fill="#aabbaa" fill-opacity="0.533333" stroke="#aabbaa" stroke-width="1.3" stroke-opacity="0.533333" points="991.27,-217.64 981.44,-213.7 986.67,-222.92 991.27,-217.64"/>
</g>
<!-- /lib/helpers/image_helper.dart -->
<g id="node37" class="node">
<title>/lib/helpers/image_helper.dart</title>
<path fill="Lavender" stroke="black" stroke-width="1.3" d="M1275,-212C1275,-212 1193,-212 1193,-212 1187,-212 1181,-206 1181,-200 1181,-200 1181,-188 1181,-188 1181,-182 1187,-176 1193,-176 1193,-176 1275,-176 1275,-176 1281,-176 1287,-182 1287,-188 1287,-188 1287,-200 1287,-200 1287,-206 1281,-212 1275,-212"/>
<text text-anchor="middle" x="1234" y="-188.75" font-family="Arial" font-size="15.00">image_helper</text>
</g>
<!-- /lib/models/layer.dart&#45;&gt;/lib/helpers/image_helper.dart -->
<g id="edge55" class="edge">
<title>/lib/models/layer.dart&#45;&gt;/lib/helpers/image_helper.dart</title>
<path fill="none" stroke="#aabbaa" stroke-width="1.3" stroke-opacity="0.533333" d="M1089.27,-275.82C1111.45,-268.63 1143.18,-257.14 1169,-243 1181.15,-236.35 1193.6,-227.68 1204.31,-219.55"/>
<polygon fill="#aabbaa" fill-opacity="0.533333" stroke="#aabbaa" stroke-width="1.3" stroke-opacity="0.533333" points="1206.32,-222.42 1212.05,-213.51 1202.01,-216.9 1206.32,-222.42"/>
</g>
<!-- /lib/models/layer.dart&#45;&gt;/lib/helpers/color_helper.dart -->
<g id="edge54" class="edge">
<title>/lib/models/layer.dart&#45;&gt;/lib/helpers/color_helper.dart</title>
<path fill="none" stroke="#aabbaa" stroke-width="1.3" stroke-opacity="0.533333" d="M1089.36,-272.95C1109.4,-265.38 1137.45,-255.86 1163,-251 1177.54,-248.23 1285.85,-253.78 1296,-243 1316.41,-221.32 1308.01,-203.25 1296,-176 1291.3,-165.35 1283.29,-155.91 1274.7,-148.05"/>
<polygon fill="#aabbaa" fill-opacity="0.533333" stroke="#aabbaa" stroke-width="1.3" stroke-opacity="0.533333" points="1277.06,-145.47 1267.15,-141.72 1272.56,-150.83 1277.06,-145.47"/>
</g>
<!-- /lib/models/layer.dart&#45;&gt;/lib/widgets/transparent_background.dart -->
<g id="edge57" class="edge">
<title>/lib/models/layer.dart&#45;&gt;/lib/widgets/transparent_background.dart</title>
<path fill="none" stroke="#aabbaa" stroke-width="1.3" stroke-opacity="0.533333" d="M1089.4,-273.93C1111.61,-266.25 1143.89,-256.13 1173,-251 1202.38,-245.83 1279.28,-254.02 1307,-243 1350.1,-225.87 1346.79,-199.11 1387,-176 1409.44,-163.11 1435.56,-152.46 1459.52,-144.18"/>
<polygon fill="#aabbaa" fill-opacity="0.533333" stroke="#aabbaa" stroke-width="1.3" stroke-opacity="0.533333" points="1460.48,-147.55 1468.84,-141.05 1458.25,-140.91 1460.48,-147.55"/>
</g>
<!-- /lib/main.dart&#45;&gt;/lib/models/app_model.dart -->
<g id="edge60" class="edge">
<title>/lib/main.dart&#45;&gt;/lib/models/app_model.dart</title>
<path fill="none" stroke="#aabbaa" stroke-width="1.3" stroke-opacity="0.533333" d="M567.74,-651.5C484.84,-645.5 232.89,-616.43 92,-481 54.88,-445.32 28.51,-288.31 64,-251 92.99,-220.53 710.2,-201.63 902.99,-196.45"/>
<polygon fill="#aabbaa" fill-opacity="0.533333" stroke="#aabbaa" stroke-width="1.3" stroke-opacity="0.533333" points="902.93,-199.95 912.83,-196.19 902.74,-192.96 902.93,-199.95"/>
</g>
<!-- /lib/main_screen.dart -->
<g id="node36" class="node">
<title>/lib/main_screen.dart</title>
<path fill="Lavender" stroke="black" stroke-width="1.3" d="M1194.75,-600C1194.75,-600 1117.25,-600 1117.25,-600 1111.25,-600 1105.25,-594 1105.25,-588 1105.25,-588 1105.25,-576 1105.25,-576 1105.25,-570 1111.25,-564 1117.25,-564 1117.25,-564 1194.75,-564 1194.75,-564 1200.75,-564 1206.75,-570 1206.75,-576 1206.75,-576 1206.75,-588 1206.75,-588 1206.75,-594 1200.75,-600 1194.75,-600"/>
<text text-anchor="middle" x="1156" y="-576.75" font-family="Arial" font-size="15.00">main_screen</text>
</g>
<!-- /lib/main.dart&#45;&gt;/lib/main_screen.dart -->
<g id="edge59" class="edge">
<title>/lib/main.dart&#45;&gt;/lib/main_screen.dart</title>
<path fill="none" stroke="#aabbaa" stroke-width="1.3" stroke-opacity="0.533333" d="M622.44,-649.58C708.02,-638.9 971.61,-606.01 1093.27,-590.83"/>
<polygon fill="#aabbaa" fill-opacity="0.533333" stroke="#aabbaa" stroke-width="1.3" stroke-opacity="0.533333" points="1093.5,-594.33 1102.99,-589.61 1092.63,-587.38 1093.5,-594.33"/>
</g>
<!-- /lib/files/xcf_reader.dart&#45;&gt;/lib/helpers/list_helper.dart -->
<g id="edge61" class="edge">
<title>/lib/files/xcf_reader.dart&#45;&gt;/lib/helpers/list_helper.dart</title>
<path fill="none" stroke="#aabbaa" stroke-width="1.3" stroke-opacity="0.533333" d="M297.71,-338.67C336.56,-317.03 405.81,-279.39 467,-251 633.2,-173.88 671.49,-141.39 849,-96 966.23,-66.03 1108.48,-55.98 1184.29,-52.64"/>
<polygon fill="#aabbaa" fill-opacity="0.533333" stroke="#aabbaa" stroke-width="1.3" stroke-opacity="0.533333" points="1184.06,-56.15 1193.91,-52.24 1183.77,-49.16 1184.06,-56.15"/>
</g>
<!-- /lib/files/file_jpeg.dart -->
<g id="node30" class="node">
<title>/lib/files/file_jpeg.dart</title>
<path fill="Lavender" stroke="black" stroke-width="1.3" d="M534.38,-303C534.38,-303 487.62,-303 487.62,-303 481.62,-303 475.62,-297 475.62,-291 475.62,-291 475.62,-279 475.62,-279 475.62,-273 481.62,-267 487.62,-267 487.62,-267 534.38,-267 534.38,-267 540.38,-267 546.38,-273 546.38,-279 546.38,-279 546.38,-291 546.38,-291 546.38,-297 540.38,-303 534.38,-303"/>
<text text-anchor="middle" x="511" y="-279.75" font-family="Arial" font-size="15.00">file_jpeg</text>
</g>
<!-- /lib/files/export_download_web.dart -->
<g id="node31" class="node">
<title>/lib/files/export_download_web.dart</title>
<path fill="Lavender" stroke="black" stroke-width="1.3" d="M481.25,-375C481.25,-375 340.75,-375 340.75,-375 334.75,-375 328.75,-369 328.75,-363 328.75,-363 328.75,-351 328.75,-351 328.75,-345 334.75,-339 340.75,-339 340.75,-339 481.25,-339 481.25,-339 487.25,-339 493.25,-345 493.25,-351 493.25,-351 493.25,-363 493.25,-363 493.25,-369 487.25,-375 481.25,-375"/>
<text text-anchor="middle" x="411" y="-351.75" font-family="Arial" font-size="15.00">export_download_web</text>
</g>
<!-- /lib/files/export_download_web.dart&#45;&gt;/lib/panels/share_panel.dart -->
<g id="edge65" class="edge">
<title>/lib/files/export_download_web.dart&#45;&gt;/lib/panels/share_panel.dart</title>
<path fill="none" stroke="#aabbaa" stroke-width="1.3" stroke-opacity="0.533333" d="M436.19,-375.45C455.53,-388.31 483.51,-404.17 511,-410 525.05,-412.98 1530.95,-412.98 1545,-410 1561.88,-406.42 1577.25,-395.15 1589.01,-383.91"/>
<polygon fill="#aabbaa" fill-opacity="0.533333" stroke="#aabbaa" stroke-width="1.3" stroke-opacity="0.533333" points="1591.4,-386.47 1595.88,-376.87 1586.39,-381.58 1591.4,-386.47"/>
</g>
<!-- /lib/files/export_download_web.dart&#45;&gt;/lib/models/app_model.dart -->
<g id="edge64" class="edge">
<title>/lib/files/export_download_web.dart&#45;&gt;/lib/models/app_model.dart</title>
<path fill="none" stroke="#aabbaa" stroke-width="1.3" stroke-opacity="0.533333" d="M468.41,-338.56C479.48,-335.67 491.04,-332.98 502,-331 570.5,-318.62 757.42,-343.56 814,-303 834.54,-288.28 819.23,-268.97 837,-251 855.29,-232.51 880.81,-219.53 903.86,-210.76"/>
<polygon fill="#aabbaa" fill-opacity="0.533333" stroke="#aabbaa" stroke-width="1.3" stroke-opacity="0.533333" points="904.85,-214.12 913.09,-207.45 902.49,-207.53 904.85,-214.12"/>
</g>
<!-- /lib/files/export_download_web.dart&#45;&gt;/lib/files/file_jpeg.dart -->
<g id="edge62" class="edge">
<title>/lib/files/export_download_web.dart&#45;&gt;/lib/files/file_jpeg.dart</title>
<path fill="none" stroke="#aabbaa" stroke-width="1.3" stroke-opacity="0.533333" d="M435.98,-338.52C448.24,-329.93 463.21,-319.46 476.54,-310.12"/>
<polygon fill="#aabbaa" fill-opacity="0.533333" stroke="#aabbaa" stroke-width="1.3" stroke-opacity="0.533333" points="478.54,-312.99 484.73,-304.39 474.53,-307.26 478.54,-312.99"/>
</g>
<!-- /lib/files/file_ora.dart -->
<g id="node32" class="node">
<title>/lib/files/file_ora.dart</title>
<path fill="Lavender" stroke="black" stroke-width="1.3" d="M793.38,-303C793.38,-303 752.62,-303 752.62,-303 746.62,-303 740.62,-297 740.62,-291 740.62,-291 740.62,-279 740.62,-279 740.62,-273 746.62,-267 752.62,-267 752.62,-267 793.38,-267 793.38,-267 799.38,-267 805.38,-273 805.38,-279 805.38,-279 805.38,-291 805.38,-291 805.38,-297 799.38,-303 793.38,-303"/>
<text text-anchor="middle" x="773" y="-279.75" font-family="Arial" font-size="15.00">file_ora</text>
</g>
<!-- /lib/files/export_download_web.dart&#45;&gt;/lib/files/file_ora.dart -->
<g id="edge63" class="edge">
<title>/lib/files/export_download_web.dart&#45;&gt;/lib/files/file_ora.dart</title>
<path fill="none" stroke="#aabbaa" stroke-width="1.3" stroke-opacity="0.533333" d="M470.99,-338.57C481.29,-335.85 491.92,-333.22 502,-331 581.25,-313.58 674.86,-299.44 728.73,-291.91"/>
<polygon fill="#aabbaa" fill-opacity="0.533333" stroke="#aabbaa" stroke-width="1.3" stroke-opacity="0.533333" points="728.88,-295.43 738.3,-290.59 727.92,-288.49 728.88,-295.43"/>
</g>
<!-- /lib/files/file_ora.dart&#45;&gt;/lib/models/app_model.dart -->
<g id="edge67" class="edge">
<title>/lib/files/file_ora.dart&#45;&gt;/lib/models/app_model.dart</title>
<path fill="none" stroke="#aabbaa" stroke-width="1.3" stroke-opacity="0.533333" d="M799.74,-266.57C808.29,-261.29 817.91,-255.66 827,-251 851.64,-238.37 879.79,-226.22 903.82,-216.47"/>
<polygon fill="#aabbaa" fill-opacity="0.533333" stroke="#aabbaa" stroke-width="1.3" stroke-opacity="0.533333" points="905.1,-219.73 913.08,-212.76 902.49,-213.23 905.1,-219.73"/>
</g>
<!-- /lib/files/file_ora.dart&#45;&gt;/lib/helpers/list_helper.dart -->
<g id="edge66" class="edge">
<title>/lib/files/file_ora.dart&#45;&gt;/lib/helpers/list_helper.dart</title>
<path fill="none" stroke="#aabbaa" stroke-width="1.3" stroke-opacity="0.533333" d="M779.34,-266.61C794.25,-228.43 835.5,-137.36 903,-96 948.98,-67.83 1101.57,-56.92 1184.02,-53"/>
<polygon fill="#aabbaa" fill-opacity="0.533333" stroke="#aabbaa" stroke-width="1.3" stroke-opacity="0.533333" points="1184.1,-56.5 1193.93,-52.55 1183.78,-49.51 1184.1,-56.5"/>
</g>
<!-- /lib/files/save.dart&#45;&gt;/lib/models/app_model.dart -->
<g id="edge68" class="edge">
<title>/lib/files/save.dart&#45;&gt;/lib/models/app_model.dart</title>
<path fill="none" stroke="#aabbaa" stroke-width="1.3" stroke-opacity="0.533333" d="M871,-338.64C879.93,-317.29 896.46,-280.28 915,-251 921.44,-240.83 929.42,-230.38 936.86,-221.29"/>
<polygon fill="#aabbaa" fill-opacity="0.533333" stroke="#aabbaa" stroke-width="1.3" stroke-opacity="0.533333" points="939.32,-223.8 943.07,-213.9 933.96,-219.3 939.32,-223.8"/>
</g>
<!-- /lib/files/export_download_non_web.dart -->
<g id="node34" class="node">
<title>/lib/files/export_download_non_web.dart</title>
<path fill="Lavender" stroke="black" stroke-width="1.3" d="M696.75,-375C696.75,-375 523.25,-375 523.25,-375 517.25,-375 511.25,-369 511.25,-363 511.25,-363 511.25,-351 511.25,-351 511.25,-345 517.25,-339 523.25,-339 523.25,-339 696.75,-339 696.75,-339 702.75,-339 708.75,-345 708.75,-351 708.75,-351 708.75,-363 708.75,-363 708.75,-369 702.75,-375 696.75,-375"/>
<text text-anchor="middle" x="610" y="-351.75" font-family="Arial" font-size="15.00">export_download_non_web</text>
</g>
<!-- /lib/files/export_download_non_web.dart&#45;&gt;/lib/panels/share_panel.dart -->
<g id="edge72" class="edge">
<title>/lib/files/export_download_non_web.dart&#45;&gt;/lib/panels/share_panel.dart</title>
<path fill="none" stroke="#aabbaa" stroke-width="1.3" stroke-opacity="0.533333" d="M640.51,-375.26C663.41,-387.84 696.02,-403.43 727,-410 749.23,-414.72 1522.77,-414.72 1545,-410 1561.88,-406.42 1577.25,-395.15 1589.01,-383.91"/>
<polygon fill="#aabbaa" fill-opacity="0.533333" stroke="#aabbaa" stroke-width="1.3" stroke-opacity="0.533333" points="1591.4,-386.47 1595.88,-376.87 1586.39,-381.58 1591.4,-386.47"/>
</g>
<!-- /lib/files/export_download_non_web.dart&#45;&gt;/lib/models/app_model.dart -->
<g id="edge71" class="edge">
<title>/lib/files/export_download_non_web.dart&#45;&gt;/lib/models/app_model.dart</title>
<path fill="none" stroke="#aabbaa" stroke-width="1.3" stroke-opacity="0.533333" d="M685.1,-338.57C751.05,-323.24 836.61,-303.31 837,-303 856.73,-286.92 843.76,-269.72 861,-251 873.51,-237.42 890.09,-226.28 906.1,-217.62"/>
<polygon fill="#aabbaa" fill-opacity="0.533333" stroke="#aabbaa" stroke-width="1.3" stroke-opacity="0.533333" points="907.44,-220.87 914.74,-213.19 904.24,-214.64 907.44,-220.87"/>
</g>
<!-- /lib/files/export_download_non_web.dart&#45;&gt;/lib/files/file_jpeg.dart -->
<g id="edge69" class="edge">
<title>/lib/files/export_download_non_web.dart&#45;&gt;/lib/files/file_jpeg.dart</title>
<path fill="none" stroke="#aabbaa" stroke-width="1.3" stroke-opacity="0.533333" d="M585.27,-338.52C573.13,-329.93 558.32,-319.46 545.12,-310.12"/>
<polygon fill="#aabbaa" fill-opacity="0.533333" stroke="#aabbaa" stroke-width="1.3" stroke-opacity="0.533333" points="547.2,-307.31 537.02,-304.4 543.16,-313.03 547.2,-307.31"/>
</g>
<!-- /lib/files/export_download_non_web.dart&#45;&gt;/lib/files/file_ora.dart -->
<g id="edge70" class="edge">
<title>/lib/files/export_download_non_web.dart&#45;&gt;/lib/files/file_ora.dart</title>
<path fill="none" stroke="#aabbaa" stroke-width="1.3" stroke-opacity="0.533333" d="M650.71,-338.52C674.67,-328.23 704.97,-315.22 729.41,-304.72"/>
<polygon fill="#aabbaa" fill-opacity="0.533333" stroke="#aabbaa" stroke-width="1.3" stroke-opacity="0.533333" points="730.57,-308.03 738.38,-300.87 727.81,-301.6 730.57,-308.03"/>
</g>
<!-- /lib/files/import_files.dart&#45;&gt;/lib/models/app_model.dart -->
<g id="edge74" class="edge">
<title>/lib/files/import_files.dart&#45;&gt;/lib/models/app_model.dart</title>
<path fill="none" stroke="#aabbaa" stroke-width="1.3" stroke-opacity="0.533333" d="M813.11,-338.54C829.63,-329.79 847.91,-317.85 861,-303 877.71,-284.04 868.19,-270.71 884,-251 893.79,-238.79 906.85,-227.9 919.38,-219.04"/>
<polygon fill="#aabbaa" fill-opacity="0.533333" stroke="#aabbaa" stroke-width="1.3" stroke-opacity="0.533333" points="921.28,-221.99 927.61,-213.49 917.36,-216.18 921.28,-221.99"/>
</g>
<!-- /lib/files/import_files.dart&#45;&gt;/lib/files/file_ora.dart -->
<g id="edge73" class="edge">
<title>/lib/files/import_files.dart&#45;&gt;/lib/files/file_ora.dart</title>
<path fill="none" stroke="#aabbaa" stroke-width="1.3" stroke-opacity="0.533333" d="M773,-338.7C773,-331.49 773,-322.93 773,-314.82"/>
<polygon fill="#aabbaa" fill-opacity="0.533333" stroke="#aabbaa" stroke-width="1.3" stroke-opacity="0.533333" points="776.5,-315.07 773,-305.07 769.5,-315.07 776.5,-315.07"/>
</g>
<!-- /lib/main_screen.dart&#45;&gt;/lib/panels/tools/flood_fill.dart -->
<g id="edge77" class="edge">
<title>/lib/main_screen.dart&#45;&gt;/lib/panels/tools/flood_fill.dart</title>
<path fill="none" stroke="#aabbaa" stroke-width="1.3" stroke-opacity="0.533333" d="M1207,-577.84C1239.28,-574.66 1276.78,-568.35 1287,-556 1309.35,-528.98 1293.41,-487.42 1278.43,-460.22"/>
<polygon fill="#aabbaa" fill-opacity="0.533333" stroke="#aabbaa" stroke-width="1.3" stroke-opacity="0.533333" points="1281.65,-458.8 1273.6,-451.92 1275.6,-462.32 1281.65,-458.8"/>
</g>
<!-- /lib/main_screen.dart&#45;&gt;/lib/panels/canvas_panel.dart -->
<g id="edge75" class="edge">
<title>/lib/main_screen.dart&#45;&gt;/lib/panels/canvas_panel.dart</title>
<path fill="none" stroke="#aabbaa" stroke-width="1.3" stroke-opacity="0.533333" d="M1157.16,-563.71C1160.92,-508.5 1173.06,-339.55 1181,-331 1194.01,-317 1301.23,-301.98 1373.29,-293.32"/>
<polygon fill="#aabbaa" fill-opacity="0.533333" stroke="#aabbaa" stroke-width="1.3" stroke-opacity="0.533333" points="1373.5,-296.82 1383.02,-292.16 1372.68,-289.86 1373.5,-296.82"/>
</g>
<!-- /lib/main_screen.dart&#45;&gt;/lib/panels/side_panel.dart -->
<g id="edge76" class="edge">
<title>/lib/main_screen.dart&#45;&gt;/lib/panels/side_panel.dart</title>
<path fill="none" stroke="#aabbaa" stroke-width="1.3" stroke-opacity="0.533333" d="M1173.3,-563.7C1182.24,-554.76 1193.32,-543.68 1203.24,-533.76"/>
<polygon fill="#aabbaa" fill-opacity="0.533333" stroke="#aabbaa" stroke-width="1.3" stroke-opacity="0.533333" points="1205.58,-536.37 1210.18,-526.82 1200.63,-531.42 1205.58,-536.37"/>
</g>
<!-- /lib/main_screen.dart&#45;&gt;/lib/models/app_model.dart -->
<g id="edge78" class="edge">
<title>/lib/main_screen.dart&#45;&gt;/lib/models/app_model.dart</title>
<path fill="none" stroke="#aabbaa" stroke-width="1.3" stroke-opacity="0.533333" d="M1104.8,-576.5C900.52,-558.04 151.44,-485.34 84,-406 61.69,-379.76 60.43,-276.12 84,-251 112.07,-221.08 713.06,-201.86 903,-196.52"/>
<polygon fill="#aabbaa" fill-opacity="0.533333" stroke="#aabbaa" stroke-width="1.3" stroke-opacity="0.533333" points="903.04,-200.02 912.94,-196.24 902.84,-193.02 903.04,-200.02"/>
</g>
<!-- /lib/helpers/image_helper.dart&#45;&gt;/lib/helpers/color_helper.dart -->
<g id="edge79" class="edge">
<title>/lib/helpers/image_helper.dart&#45;&gt;/lib/helpers/color_helper.dart</title>
<path fill="none" stroke="#aabbaa" stroke-width="1.3" stroke-opacity="0.533333" d="M1234.99,-175.7C1235.4,-168.49 1235.89,-159.93 1236.35,-151.82"/>
<polygon fill="#aabbaa" fill-opacity="0.533333" stroke="#aabbaa" stroke-width="1.3" stroke-opacity="0.533333" points="1239.83,-152.25 1236.91,-142.07 1232.85,-151.85 1239.83,-152.25"/>
</g>
<!-- /lib/helpers/color_helper.dart&#45;&gt;/lib/helpers/list_helper.dart -->
<g id="edge80" class="edge">
<title>/lib/helpers/color_helper.dart&#45;&gt;/lib/helpers/list_helper.dart</title>
<path fill="none" stroke="#aabbaa" stroke-width="1.3" stroke-opacity="0.533333" d="M1238,-103.7C1238,-96.49 1238,-87.93 1238,-79.82"/>
<polygon fill="#aabbaa" fill-opacity="0.533333" stroke="#aabbaa" stroke-width="1.3" stroke-opacity="0.533333" points="1241.5,-80.07 1238,-70.07 1234.5,-80.07 1241.5,-80.07"/>
</g>
<!-- /lib/widgets/top_colors.dart&#45;&gt;/lib/helpers/color_helper.dart -->
<g id="edge81" class="edge">
<title>/lib/widgets/top_colors.dart&#45;&gt;/lib/helpers/color_helper.dart</title>
<path fill="none" stroke="#aabbaa" stroke-width="1.3" stroke-opacity="0.533333" d="M2311.1,-177.97C2308.05,-177.21 2304.99,-176.54 2302,-176 1921.6,-107.29 1818.76,-164.79 1433,-140 1387.98,-137.11 1337.2,-132.64 1298.76,-129.01"/>
<polygon fill="#aabbaa" fill-opacity="0.533333" stroke="#aabbaa" stroke-width="1.3" stroke-opacity="0.533333" points="1299.49,-125.57 1289.2,-128.1 1298.82,-132.54 1299.49,-125.57"/>
</g>
<!-- /lib/widgets/top_colors.dart&#45;&gt;/lib/widgets/transparent_background.dart -->
<g id="edge82" class="edge">
<title>/lib/widgets/top_colors.dart&#45;&gt;/lib/widgets/transparent_background.dart</title>
<path fill="none" stroke="#aabbaa" stroke-width="1.3" stroke-opacity="0.533333" d="M2311.09,-178.07C2308.03,-177.28 2304.98,-176.58 2302,-176 2066.35,-130.08 1783.26,-122.51 1635.34,-122.08"/>
<polygon fill="#aabbaa" fill-opacity="0.533333" stroke="#aabbaa" stroke-width="1.3" stroke-opacity="0.533333" points="1635.6,-118.58 1625.59,-122.06 1635.58,-125.58 1635.6,-118.58"/>
</g>
<!-- /lib/widgets/brush_style_picker.dart&#45;&gt;/lib/models/app_model.dart -->
<g id="edge83" class="edge">
<title>/lib/widgets/brush_style_picker.dart&#45;&gt;/lib/models/app_model.dart</title>
<path fill="none" stroke="#aabbaa" stroke-width="1.3" stroke-opacity="0.533333" d="M1492.2,-212.37C1474.33,-225.37 1448.18,-241.44 1422,-247 1402.49,-251.14 1082.51,-251.14 1063,-247 1039.26,-241.96 1015.02,-229.9 996.02,-218.55"/>
<polygon fill="#aabbaa" fill-opacity="0.533333" stroke="#aabbaa" stroke-width="1.3" stroke-opacity="0.533333" points="998.06,-215.7 987.72,-213.41 994.38,-221.65 998.06,-215.7"/>
</g>
<!-- /lib/widgets/color_picker.dart&#45;&gt;/lib/helpers/list_helper.dart -->
<g id="edge85" class="edge">
<title>/lib/widgets/color_picker.dart&#45;&gt;/lib/helpers/list_helper.dart</title>
<path fill="none" stroke="#aabbaa" stroke-width="1.3" stroke-opacity="0.533333" d="M2414.64,-177.92C2411.73,-177.22 2408.83,-176.57 2406,-176 1981.99,-90.83 1458.95,-60.99 1291.92,-53.26"/>
<polygon fill="#aabbaa" fill-opacity="0.533333" stroke="#aabbaa" stroke-width="1.3" stroke-opacity="0.533333" points="1292.18,-49.76 1282.03,-52.81 1291.86,-56.76 1292.18,-49.76"/>
</g>
<!-- /lib/widgets/color_picker.dart&#45;&gt;/lib/helpers/color_helper.dart -->
<g id="edge84" class="edge">
<title>/lib/widgets/color_picker.dart&#45;&gt;/lib/helpers/color_helper.dart</title>
<path fill="none" stroke="#aabbaa" stroke-width="1.3" stroke-opacity="0.533333" d="M2414.69,-177.69C2411.76,-177.04 2408.85,-176.47 2406,-176 1979.02,-105.6 1864.91,-166.8 1433,-140 1387.97,-137.21 1337.2,-132.74 1298.75,-129.08"/>
<polygon fill="#aabbaa" fill-opacity="0.533333" stroke="#aabbaa" stroke-width="1.3" stroke-opacity="0.533333" points="1299.48,-125.64 1289.2,-128.17 1298.82,-132.61 1299.48,-125.64"/>
</g>
<!-- /lib/widgets/color_picker.dart&#45;&gt;/lib/widgets/transparent_background.dart -->
<g id="edge86" class="edge">
<title>/lib/widgets/color_picker.dart&#45;&gt;/lib/widgets/transparent_background.dart</title>
<path fill="none" stroke="#aabbaa" stroke-width="1.3" stroke-opacity="0.533333" d="M2414.67,-177.77C2411.75,-177.1 2408.85,-176.5 2406,-176 2260.74,-150.28 1832.75,-133.04 1635.57,-126.25"/>
<polygon fill="#aabbaa" fill-opacity="0.533333" stroke="#aabbaa" stroke-width="1.3" stroke-opacity="0.533333" points="1635.86,-122.76 1625.75,-125.91 1635.62,-129.75 1635.86,-122.76"/>
</g>
</g>
</svg>
