<?xml version="1.0" encoding="UTF-8" standalone="no"?>
<!DOCTYPE svg PUBLIC "-//W3C//DTD SVG 1.1//EN"
 "http://www.w3.org/Graphics/SVG/1.1/DTD/svg11.dtd">
<!-- Generated by graphviz version 12.2.1 (20241206.2353)
 -->
<!-- Pages: 1 -->
<svg width="2168pt" height="914pt"
 viewBox="0.00 0.00 2168.00 914.00" xmlns="http://www.w3.org/2000/svg" xmlns:xlink="http://www.w3.org/1999/xlink">
<g id="graph0" class="graph" transform="scale(1 1) rotate(0) translate(4 910)">
<polygon fill="white" stroke="none" points="-4,4 -4,-910 2164,-910 2164,4 -4,4"/>
<g id="clust1" class="cluster">
<title>cluster~</title>
<path fill="none" stroke="lightgray" stroke-width="2.6" d="M20,-8C20,-8 2140,-8 2140,-8 2146,-8 2152,-14 2152,-20 2152,-20 2152,-886 2152,-886 2152,-892 2146,-898 2140,-898 2140,-898 20,-898 20,-898 14,-898 8,-892 8,-886 8,-886 8,-20 8,-20 8,-14 14,-8 20,-8"/>
<text text-anchor="middle" x="1080" y="-881.65" font-family="Arial Black" font-size="13.00">fpaint</text>
</g>
<g id="clust2" class="cluster">
<title>cluster~/test</title>
<path fill="none" stroke="lightgray" stroke-width="2.6" d="M28,-714C28,-714 785,-714 785,-714 791,-714 797,-720 797,-726 797,-726 797,-855 797,-855 797,-861 791,-867 785,-867 785,-867 28,-867 28,-867 22,-867 16,-861 16,-855 16,-855 16,-726 16,-726 16,-720 22,-714 28,-714"/>
<text text-anchor="middle" x="406.5" y="-850.65" font-family="Arial Black" font-size="13.00">test</text>
</g>
<g id="clust3" class="cluster">
<title>cluster~/test/panels</title>
<path fill="none" stroke="lightgray" stroke-width="2.6" d="M303,-722C303,-722 415,-722 415,-722 421,-722 427,-728 427,-734 427,-734 427,-824 427,-824 427,-830 421,-836 415,-836 415,-836 303,-836 303,-836 297,-836 291,-830 291,-824 291,-824 291,-734 291,-734 291,-728 297,-722 303,-722"/>
<text text-anchor="middle" x="359" y="-819.65" font-family="Arial Black" font-size="13.00">panels</text>
</g>
<g id="clust4" class="cluster">
<title>cluster~/test/panels/tools</title>
<path fill="none" stroke="lightgray" stroke-width="2.6" d="M311,-730C311,-730 407,-730 407,-730 413,-730 419,-736 419,-742 419,-742 419,-793 419,-793 419,-799 413,-805 407,-805 407,-805 311,-805 311,-805 305,-805 299,-799 299,-793 299,-793 299,-742 299,-742 299,-736 305,-730 311,-730"/>
<text text-anchor="middle" x="359" y="-788.65" font-family="Arial Black" font-size="13.00">tools</text>
</g>
<g id="clust5" class="cluster">
<title>cluster~/test/models</title>
<path fill="none" stroke="lightgray" stroke-width="2.6" d="M36,-730C36,-730 172,-730 172,-730 178,-730 184,-736 184,-742 184,-742 184,-793 184,-793 184,-799 178,-805 172,-805 172,-805 36,-805 36,-805 30,-805 24,-799 24,-793 24,-793 24,-742 24,-742 24,-736 30,-730 36,-730"/>
<text text-anchor="middle" x="104" y="-788.65" font-family="Arial Black" font-size="13.00">models</text>
</g>
<g id="clust6" class="cluster">
<title>cluster~/lib</title>
<path fill="none" stroke="lightgray" stroke-width="2.6" d="M60,-16C60,-16 2120,-16 2120,-16 2126,-16 2132,-22 2132,-28 2132,-28 2132,-694 2132,-694 2132,-700 2126,-706 2120,-706 2120,-706 60,-706 60,-706 54,-706 48,-700 48,-694 48,-694 48,-28 48,-28 48,-22 54,-16 60,-16"/>
<text text-anchor="middle" x="1090" y="-689.65" font-family="Arial Black" font-size="13.00">lib</text>
</g>
<g id="clust7" class="cluster">
<title>cluster~/lib/panels</title>
<path fill="none" stroke="lightgray" stroke-width="2.6" d="M1200,-254C1200,-254 2071,-254 2071,-254 2077,-254 2083,-260 2083,-266 2083,-266 2083,-547 2083,-547 2083,-553 2077,-559 2071,-559 2071,-559 1200,-559 1200,-559 1194,-559 1188,-553 1188,-547 1188,-547 1188,-266 1188,-266 1188,-260 1194,-254 1200,-254"/>
<text text-anchor="middle" x="1635.5" y="-542.65" font-family="Arial Black" font-size="13.00">panels</text>
</g>
<g id="clust8" class="cluster">
<title>cluster~/lib/panels/tools</title>
<path fill="none" stroke="lightgray" stroke-width="2.6" d="M1208,-334C1208,-334 1480,-334 1480,-334 1486,-334 1492,-340 1492,-346 1492,-346 1492,-472 1492,-472 1492,-478 1486,-484 1480,-484 1480,-484 1208,-484 1208,-484 1202,-484 1196,-478 1196,-472 1196,-472 1196,-346 1196,-346 1196,-340 1202,-334 1208,-334"/>
<text text-anchor="middle" x="1344" y="-467.65" font-family="Arial Black" font-size="13.00">tools</text>
</g>
<g id="clust9" class="cluster">
<title>cluster~/lib/panels/layers</title>
<path fill="none" stroke="lightgray" stroke-width="2.6" d="M1717,-262C1717,-262 1946,-262 1946,-262 1952,-262 1958,-268 1958,-274 1958,-274 1958,-472 1958,-472 1958,-478 1952,-484 1946,-484 1946,-484 1717,-484 1717,-484 1711,-484 1705,-478 1705,-472 1705,-472 1705,-274 1705,-274 1705,-268 1711,-262 1717,-262"/>
<text text-anchor="middle" x="1831.5" y="-467.65" font-family="Arial Black" font-size="13.00">layers</text>
</g>
<g id="clust10" class="cluster">
<title>cluster~/lib/models</title>
<path fill="none" stroke="lightgray" stroke-width="2.6" d="M88,-96C88,-96 322,-96 322,-96 328,-96 334,-102 334,-108 334,-108 334,-397 334,-397 334,-403 328,-409 322,-409 322,-409 88,-409 88,-409 82,-409 76,-403 76,-397 76,-397 76,-108 76,-108 76,-102 82,-96 88,-96"/>
<text text-anchor="middle" x="205" y="-392.65" font-family="Arial Black" font-size="13.00">models</text>
</g>
<g id="clust11" class="cluster">
<title>cluster~/lib/files</title>
<path fill="none" stroke="lightgray" stroke-width="2.6" d="M354,-262C354,-262 1142,-262 1142,-262 1148,-262 1154,-268 1154,-274 1154,-274 1154,-397 1154,-397 1154,-403 1148,-409 1142,-409 1142,-409 354,-409 354,-409 348,-409 342,-403 342,-397 342,-397 342,-274 342,-274 342,-268 348,-262 354,-262"/>
<text text-anchor="middle" x="748" y="-392.65" font-family="Arial Black" font-size="13.00">files</text>
</g>
<g id="clust12" class="cluster">
<title>cluster~/lib/helpers</title>
<path fill="none" stroke="lightgray" stroke-width="2.6" d="M768,-24C768,-24 858,-24 858,-24 864,-24 870,-30 870,-36 870,-36 870,-159 870,-159 870,-165 864,-171 858,-171 858,-171 768,-171 768,-171 762,-171 756,-165 756,-159 756,-159 756,-36 756,-36 756,-30 762,-24 768,-24"/>
<text text-anchor="middle" x="813" y="-154.65" font-family="Arial Black" font-size="13.00">helpers</text>
</g>
<g id="clust13" class="cluster">
<title>cluster~/lib/widgets</title>
<path fill="none" stroke="lightgray" stroke-width="2.6" d="M890,-96C890,-96 2080,-96 2080,-96 2086,-96 2092,-102 2092,-108 2092,-108 2092,-234 2092,-234 2092,-240 2086,-246 2080,-246 2080,-246 890,-246 890,-246 884,-246 878,-240 878,-234 878,-234 878,-108 878,-108 878,-102 884,-96 890,-96"/>
<text text-anchor="middle" x="1485" y="-229.65" font-family="Arial Black" font-size="13.00">widgets</text>
</g>
<!-- /test/paint_model_test.dart -->
<g id="node1" class="node">
<title>/test/paint_model_test.dart</title>
<path fill="Lavender" stroke="black" stroke-width="1.3" d="M777,-774C777,-774 671,-774 671,-774 665,-774 659,-768 659,-762 659,-762 659,-750 659,-750 659,-744 665,-738 671,-738 671,-738 777,-738 777,-738 783,-738 789,-744 789,-750 789,-750 789,-762 789,-762 789,-768 783,-774 777,-774"/>
<text text-anchor="middle" x="724" y="-750.75" font-family="Arial" font-size="15.00">paint_model_test</text>
</g>
<!-- /lib/models/app_model.dart -->
<g id="node25" class="node">
<title>/lib/models/app_model.dart</title>
<path fill="Lavender" stroke="black" stroke-width="1.3" d="M313.75,-215C313.75,-215 248.25,-215 248.25,-215 242.25,-215 236.25,-209 236.25,-203 236.25,-203 236.25,-191 236.25,-191 236.25,-185 242.25,-179 248.25,-179 248.25,-179 313.75,-179 313.75,-179 319.75,-179 325.75,-185 325.75,-191 325.75,-191 325.75,-203 325.75,-203 325.75,-209 319.75,-215 313.75,-215"/>
<text text-anchor="middle" x="281" y="-191.75" font-family="Arial" font-size="15.00">app_model</text>
</g>
<!-- /test/paint_model_test.dart&#45;&gt;/lib/models/app_model.dart -->
<g id="edge1" class="edge">
<title>/test/paint_model_test.dart&#45;&gt;/lib/models/app_model.dart</title>
<path fill="none" stroke="#aabbaa" stroke-width="1.3" stroke-opacity="0.533333" d="M789.3,-755.1C1060.06,-755.23 2082.67,-752.62 2132,-706 2170.93,-669.22 2143,-639.56 2143,-586 2143,-586 2143,-586 2143,-359 2143,-318.22 2089.99,-255.69 2087,-254 2072.33,-245.72 890.83,-246.74 874,-246 676.52,-237.37 442.9,-214.82 337.54,-203.98"/>
<polygon fill="#aabbaa" fill-opacity="0.533333" stroke="#aabbaa" stroke-width="1.3" stroke-opacity="0.533333" points="338.2,-200.53 327.89,-202.99 337.48,-207.49 338.2,-200.53"/>
</g>
<!-- /test/panels/tools/flood_fill_test.dart -->
<g id="node2" class="node">
<title>/test/panels/tools/flood_fill_test.dart</title>
<path fill="Lavender" stroke="black" stroke-width="1.3" d="M398.5,-774C398.5,-774 319.5,-774 319.5,-774 313.5,-774 307.5,-768 307.5,-762 307.5,-762 307.5,-750 307.5,-750 307.5,-744 313.5,-738 319.5,-738 319.5,-738 398.5,-738 398.5,-738 404.5,-738 410.5,-744 410.5,-750 410.5,-750 410.5,-762 410.5,-762 410.5,-768 404.5,-774 398.5,-774"/>
<text text-anchor="middle" x="359" y="-750.75" font-family="Arial" font-size="15.00">flood_fill_test</text>
</g>
<!-- /lib/panels/tools/flood_fill.dart -->
<g id="node9" class="node">
<title>/lib/panels/tools/flood_fill.dart</title>
<path fill="Lavender" stroke="black" stroke-width="1.3" d="M1262,-453C1262,-453 1216,-453 1216,-453 1210,-453 1204,-447 1204,-441 1204,-441 1204,-429 1204,-429 1204,-423 1210,-417 1216,-417 1216,-417 1262,-417 1262,-417 1268,-417 1274,-423 1274,-429 1274,-429 1274,-441 1274,-441 1274,-447 1268,-453 1262,-453"/>
<text text-anchor="middle" x="1239" y="-429.75" font-family="Arial" font-size="15.00">flood_fill</text>
</g>
<!-- /test/panels/tools/flood_fill_test.dart&#45;&gt;/lib/panels/tools/flood_fill.dart -->
<g id="edge2" class="edge">
<title>/test/panels/tools/flood_fill_test.dart&#45;&gt;/lib/panels/tools/flood_fill.dart</title>
<path fill="none" stroke="#aabbaa" stroke-width="1.3" stroke-opacity="0.533333" d="M341.81,-737.87C331.7,-728.99 318.16,-718.98 304,-714 292.36,-709.9 90.57,-714.88 82,-706 39.11,-661.54 40.85,-613.08 82,-567 157.3,-482.69 984.23,-445.7 1191.9,-437.71"/>
<polygon fill="#aabbaa" fill-opacity="0.533333" stroke="#aabbaa" stroke-width="1.3" stroke-opacity="0.533333" points="1191.74,-441.22 1201.6,-437.34 1191.47,-434.22 1191.74,-441.22"/>
</g>
<!-- /test/models/canvas_resize_test.dart -->
<g id="node3" class="node">
<title>/test/models/canvas_resize_test.dart</title>
<path fill="Lavender" stroke="black" stroke-width="1.3" d="M164.12,-774C164.12,-774 43.87,-774 43.87,-774 37.88,-774 31.88,-768 31.88,-762 31.88,-762 31.88,-750 31.88,-750 31.88,-744 37.88,-738 43.88,-738 43.88,-738 164.12,-738 164.12,-738 170.12,-738 176.12,-744 176.12,-750 176.12,-750 176.12,-762 176.12,-762 176.12,-768 170.12,-774 164.12,-774"/>
<text text-anchor="middle" x="104" y="-750.75" font-family="Arial" font-size="15.00">canvas_resize_test</text>
</g>
<!-- /lib/models/canvas_resize.dart -->
<g id="node23" class="node">
<title>/lib/models/canvas_resize.dart</title>
<path fill="Lavender" stroke="black" stroke-width="1.3" d="M183.62,-140C183.62,-140 96.38,-140 96.38,-140 90.38,-140 84.38,-134 84.38,-128 84.38,-128 84.38,-116 84.38,-116 84.38,-110 90.38,-104 96.38,-104 96.38,-104 183.62,-104 183.62,-104 189.62,-104 195.62,-110 195.62,-116 195.62,-116 195.62,-128 195.62,-128 195.62,-134 189.62,-140 183.62,-140"/>
<text text-anchor="middle" x="140" y="-116.75" font-family="Arial" font-size="15.00">canvas_resize</text>
</g>
<!-- /test/models/canvas_resize_test.dart&#45;&gt;/lib/models/canvas_resize.dart -->
<g id="edge3" class="edge">
<title>/test/models/canvas_resize_test.dart&#45;&gt;/lib/models/canvas_resize.dart</title>
<path fill="none" stroke="#aabbaa" stroke-width="1.3" stroke-opacity="0.533333" d="M58.53,-737.61C44.78,-730.04 31.17,-719.69 23,-706 -4.38,-660.15 17,-639.4 17,-586 17,-586 17,-586 17,-287 17,-227.87 68.81,-176.41 105.18,-147.57"/>
<polygon fill="#aabbaa" fill-opacity="0.533333" stroke="#aabbaa" stroke-width="1.3" stroke-opacity="0.533333" points="107.16,-150.46 112.95,-141.59 102.89,-144.92 107.16,-150.46"/>
</g>
<!-- /test/widget_test.dart -->
<g id="node4" class="node">
<title>/test/widget_test.dart</title>
<path fill="Lavender" stroke="black" stroke-width="1.3" d="M628.88,-774C628.88,-774 561.12,-774 561.12,-774 555.12,-774 549.12,-768 549.12,-762 549.12,-762 549.12,-750 549.12,-750 549.12,-744 555.12,-738 561.12,-738 561.12,-738 628.88,-738 628.88,-738 634.88,-738 640.88,-744 640.88,-750 640.88,-750 640.88,-762 640.88,-762 640.88,-768 634.88,-774 628.88,-774"/>
<text text-anchor="middle" x="595" y="-750.75" font-family="Arial" font-size="15.00">widget_test</text>
</g>
<!-- /lib/main.dart -->
<g id="node27" class="node">
<title>/lib/main.dart</title>
<path fill="Lavender" stroke="black" stroke-width="1.3" d="M610,-675C610,-675 580,-675 580,-675 574,-675 568,-669 568,-663 568,-663 568,-651 568,-651 568,-645 574,-639 580,-639 580,-639 610,-639 610,-639 616,-639 622,-645 622,-651 622,-651 622,-663 622,-663 622,-669 616,-675 610,-675"/>
<text text-anchor="middle" x="595" y="-651.75" font-family="Arial" font-size="15.00">main</text>
</g>
<!-- /test/widget_test.dart&#45;&gt;/lib/main.dart -->
<g id="edge4" class="edge">
<title>/test/widget_test.dart&#45;&gt;/lib/main.dart</title>
<path fill="none" stroke="#aabbaa" stroke-width="1.3" stroke-opacity="0.533333" d="M595,-737.66C595,-723.59 595,-703.45 595,-686.95"/>
<polygon fill="#aabbaa" fill-opacity="0.533333" stroke="#aabbaa" stroke-width="1.3" stroke-opacity="0.533333" points="598.5,-687.16 595,-677.16 591.5,-687.16 598.5,-687.16"/>
</g>
<!-- /test/file_xcf_test.dart -->
<g id="node5" class="node">
<title>/test/file_xcf_test.dart</title>
<path fill="Lavender" stroke="black" stroke-width="1.3" d="M518.75,-774C518.75,-774 447.25,-774 447.25,-774 441.25,-774 435.25,-768 435.25,-762 435.25,-762 435.25,-750 435.25,-750 435.25,-744 441.25,-738 447.25,-738 447.25,-738 518.75,-738 518.75,-738 524.75,-738 530.75,-744 530.75,-750 530.75,-750 530.75,-762 530.75,-762 530.75,-768 524.75,-774 518.75,-774"/>
<text text-anchor="middle" x="483" y="-750.75" font-family="Arial" font-size="15.00">file_xcf_test</text>
</g>
<!-- /lib/files/xcf_reader.dart -->
<g id="node28" class="node">
<title>/lib/files/xcf_reader.dart</title>
<path fill="Lavender" stroke="black" stroke-width="1.3" d="M1133.62,-378C1133.62,-378 1070.38,-378 1070.38,-378 1064.38,-378 1058.38,-372 1058.38,-366 1058.38,-366 1058.38,-354 1058.38,-354 1058.38,-348 1064.38,-342 1070.38,-342 1070.38,-342 1133.62,-342 1133.62,-342 1139.62,-342 1145.62,-348 1145.62,-354 1145.62,-354 1145.62,-366 1145.62,-366 1145.62,-372 1139.62,-378 1133.62,-378"/>
<text text-anchor="middle" x="1102" y="-354.75" font-family="Arial" font-size="15.00">xcf_reader</text>
</g>
<!-- /test/file_xcf_test.dart&#45;&gt;/lib/files/xcf_reader.dart -->
<g id="edge6" class="edge">
<title>/test/file_xcf_test.dart&#45;&gt;/lib/files/xcf_reader.dart</title>
<path fill="none" stroke="#aabbaa" stroke-width="1.3" stroke-opacity="0.533333" d="M500.87,-737.69C511.36,-728.75 525.39,-718.75 540,-714 560.84,-707.22 2102.22,-721.21 2118,-706 2156.43,-668.95 2123,-639.38 2123,-586 2123,-586 2123,-586 2123,-509 2123,-424.6 2024.06,-431.48 1962,-417 1878.68,-397.56 1274.9,-430.18 1192,-409 1172.58,-404.04 1152.73,-394.08 1136.64,-384.51"/>
<polygon fill="#aabbaa" fill-opacity="0.533333" stroke="#aabbaa" stroke-width="1.3" stroke-opacity="0.533333" points="1138.67,-381.65 1128.32,-379.37 1134.99,-387.6 1138.67,-381.65"/>
</g>
<!-- /lib/files/assets_helper.dart -->
<g id="node29" class="node">
<title>/lib/files/assets_helper.dart</title>
<path fill="Lavender" stroke="black" stroke-width="1.3" d="M447.5,-378C447.5,-378 362.5,-378 362.5,-378 356.5,-378 350.5,-372 350.5,-366 350.5,-366 350.5,-354 350.5,-354 350.5,-348 356.5,-342 362.5,-342 362.5,-342 447.5,-342 447.5,-342 453.5,-342 459.5,-348 459.5,-354 459.5,-354 459.5,-366 459.5,-366 459.5,-372 453.5,-378 447.5,-378"/>
<text text-anchor="middle" x="405" y="-354.75" font-family="Arial" font-size="15.00">assets_helper</text>
</g>
<!-- /test/file_xcf_test.dart&#45;&gt;/lib/files/assets_helper.dart -->
<g id="edge5" class="edge">
<title>/test/file_xcf_test.dart&#45;&gt;/lib/files/assets_helper.dart</title>
<path fill="none" stroke="#aabbaa" stroke-width="1.3" stroke-opacity="0.533333" d="M463.74,-737.58C452.67,-728.73 438.01,-718.84 423,-714 406.02,-708.52 116.59,-716.26 102,-706 61.82,-677.76 71.04,-651.27 62,-603 34.39,-455.63 211.83,-490.01 338,-409 349.43,-401.66 361.6,-393.16 372.38,-385.38"/>
<polygon fill="#aabbaa" fill-opacity="0.533333" stroke="#aabbaa" stroke-width="1.3" stroke-opacity="0.533333" points="374.23,-388.36 380.25,-379.64 370.11,-382.7 374.23,-388.36"/>
</g>
<!-- /test/layers_test.dart -->
<g id="node6" class="node">
<title>/test/layers_test.dart</title>
<path fill="Lavender" stroke="black" stroke-width="1.3" d="M271.38,-774C271.38,-774 206.62,-774 206.62,-774 200.62,-774 194.62,-768 194.62,-762 194.62,-762 194.62,-750 194.62,-750 194.62,-744 200.62,-738 206.62,-738 206.62,-738 271.38,-738 271.38,-738 277.38,-738 283.38,-744 283.38,-750 283.38,-750 283.38,-762 283.38,-762 283.38,-768 277.38,-774 271.38,-774"/>
<text text-anchor="middle" x="239" y="-750.75" font-family="Arial" font-size="15.00">layers_test</text>
</g>
<!-- /lib/models/layer.dart -->
<g id="node26" class="node">
<title>/lib/models/layer.dart</title>
<path fill="Lavender" stroke="black" stroke-width="1.3" d="M267,-306C267,-306 237,-306 237,-306 231,-306 225,-300 225,-294 225,-294 225,-282 225,-282 225,-276 231,-270 237,-270 237,-270 267,-270 267,-270 273,-270 279,-276 279,-282 279,-282 279,-294 279,-294 279,-300 273,-306 267,-306"/>
<text text-anchor="middle" x="252" y="-282.75" font-family="Arial" font-size="15.00">layer</text>
</g>
<!-- /test/layers_test.dart&#45;&gt;/lib/models/layer.dart -->
<g id="edge7" class="edge">
<title>/test/layers_test.dart&#45;&gt;/lib/models/layer.dart</title>
<path fill="none" stroke="#aabbaa" stroke-width="1.3" stroke-opacity="0.533333" d="M222.79,-737.57C213.53,-728.83 201.15,-719.05 188,-714 173.35,-708.37 58.24,-716.95 47,-706 8.66,-668.66 37,-639.52 37,-586 37,-586 37,-586 37,-434 37,-350.01 151.18,-311.43 213.13,-296.68"/>
<polygon fill="#aabbaa" fill-opacity="0.533333" stroke="#aabbaa" stroke-width="1.3" stroke-opacity="0.533333" points="213.87,-300.1 222.85,-294.47 212.32,-293.27 213.87,-300.1"/>
</g>
<!-- /lib/panels/about.dart -->
<g id="node7" class="node">
<title>/lib/panels/about.dart</title>
<path fill="Lavender" stroke="black" stroke-width="1.3" d="M1685,-378C1685,-378 1655,-378 1655,-378 1649,-378 1643,-372 1643,-366 1643,-366 1643,-354 1643,-354 1643,-348 1649,-342 1655,-342 1655,-342 1685,-342 1685,-342 1691,-342 1697,-348 1697,-354 1697,-354 1697,-366 1697,-366 1697,-372 1691,-378 1685,-378"/>
<text text-anchor="middle" x="1670" y="-354.75" font-family="Arial" font-size="15.00">about</text>
</g>
<!-- /lib/panels/tools/tool_selector.dart -->
<g id="node8" class="node">
<title>/lib/panels/tools/tool_selector.dart</title>
<path fill="Lavender" stroke="black" stroke-width="1.3" d="M1292.38,-378C1292.38,-378 1215.62,-378 1215.62,-378 1209.62,-378 1203.62,-372 1203.62,-366 1203.62,-366 1203.62,-354 1203.62,-354 1203.62,-348 1209.62,-342 1215.62,-342 1215.62,-342 1292.38,-342 1292.38,-342 1298.38,-342 1304.38,-348 1304.38,-354 1304.38,-354 1304.38,-366 1304.38,-366 1304.38,-372 1298.38,-378 1292.38,-378"/>
<text text-anchor="middle" x="1254" y="-354.75" font-family="Arial" font-size="15.00">tool_selector</text>
</g>
<!-- /lib/panels/tools/tools_panel.dart -->
<g id="node10" class="node">
<title>/lib/panels/tools/tools_panel.dart</title>
<path fill="Lavender" stroke="black" stroke-width="1.3" d="M1371.88,-453C1371.88,-453 1304.12,-453 1304.12,-453 1298.12,-453 1292.12,-447 1292.12,-441 1292.12,-441 1292.12,-429 1292.12,-429 1292.12,-423 1298.12,-417 1304.12,-417 1304.12,-417 1371.88,-417 1371.88,-417 1377.88,-417 1383.88,-423 1383.88,-429 1383.88,-429 1383.88,-441 1383.88,-441 1383.88,-447 1377.88,-453 1371.88,-453"/>
<text text-anchor="middle" x="1338" y="-429.75" font-family="Arial" font-size="15.00">tools_panel</text>
</g>
<!-- /lib/panels/tools/tools_panel.dart&#45;&gt;/lib/panels/tools/tool_selector.dart -->
<g id="edge10" class="edge">
<title>/lib/panels/tools/tools_panel.dart&#45;&gt;/lib/panels/tools/tool_selector.dart</title>
<path fill="none" stroke="#aabbaa" stroke-width="1.3" stroke-opacity="0.533333" d="M1318.09,-416.7C1307.6,-407.58 1294.54,-396.24 1282.96,-386.16"/>
<polygon fill="#aabbaa" fill-opacity="0.533333" stroke="#aabbaa" stroke-width="1.3" stroke-opacity="0.533333" points="1285.38,-383.64 1275.54,-379.72 1280.79,-388.92 1285.38,-383.64"/>
</g>
<!-- /lib/panels/tools/tool_attributes_widget.dart -->
<g id="node11" class="node">
<title>/lib/panels/tools/tool_attributes_widget.dart</title>
<path fill="Lavender" stroke="black" stroke-width="1.3" d="M1471.75,-378C1471.75,-378 1334.25,-378 1334.25,-378 1328.25,-378 1322.25,-372 1322.25,-366 1322.25,-366 1322.25,-354 1322.25,-354 1322.25,-348 1328.25,-342 1334.25,-342 1334.25,-342 1471.75,-342 1471.75,-342 1477.75,-342 1483.75,-348 1483.75,-354 1483.75,-354 1483.75,-366 1483.75,-366 1483.75,-372 1477.75,-378 1471.75,-378"/>
<text text-anchor="middle" x="1403" y="-354.75" font-family="Arial" font-size="15.00">tool_attributes_widget</text>
</g>
<!-- /lib/panels/tools/tools_panel.dart&#45;&gt;/lib/panels/tools/tool_attributes_widget.dart -->
<g id="edge9" class="edge">
<title>/lib/panels/tools/tools_panel.dart&#45;&gt;/lib/panels/tools/tool_attributes_widget.dart</title>
<path fill="none" stroke="#aabbaa" stroke-width="1.3" stroke-opacity="0.533333" d="M1353.4,-416.7C1361.2,-407.95 1370.83,-397.13 1379.52,-387.37"/>
<polygon fill="#aabbaa" fill-opacity="0.533333" stroke="#aabbaa" stroke-width="1.3" stroke-opacity="0.533333" points="1382.14,-389.69 1386.17,-379.9 1376.91,-385.04 1382.14,-389.69"/>
</g>
<!-- /lib/panels/tools/tools_panel.dart&#45;&gt;/lib/models/app_model.dart -->
<g id="edge8" class="edge">
<title>/lib/panels/tools/tools_panel.dart&#45;&gt;/lib/models/app_model.dart</title>
<path fill="none" stroke="#aabbaa" stroke-width="1.3" stroke-opacity="0.533333" d="M1291.71,-418.65C1288.78,-418.01 1285.86,-417.44 1283,-417 1270.03,-414.99 348.22,-417.23 338,-409 311.38,-387.56 329.6,-367.08 321,-334 311.23,-296.45 298.32,-253.56 289.85,-226.16"/>
<polygon fill="#aabbaa" fill-opacity="0.533333" stroke="#aabbaa" stroke-width="1.3" stroke-opacity="0.533333" points="293.3,-225.47 286.98,-216.96 286.61,-227.55 293.3,-225.47"/>
</g>
<!-- /lib/widgets/svg_icon.dart -->
<g id="node39" class="node">
<title>/lib/widgets/svg_icon.dart</title>
<path fill="Lavender" stroke="black" stroke-width="1.3" d="M1107.25,-215C1107.25,-215 1056.75,-215 1056.75,-215 1050.75,-215 1044.75,-209 1044.75,-203 1044.75,-203 1044.75,-191 1044.75,-191 1044.75,-185 1050.75,-179 1056.75,-179 1056.75,-179 1107.25,-179 1107.25,-179 1113.25,-179 1119.25,-185 1119.25,-191 1119.25,-191 1119.25,-203 1119.25,-203 1119.25,-209 1113.25,-215 1107.25,-215"/>
<text text-anchor="middle" x="1082" y="-191.75" font-family="Arial" font-size="15.00">svg_icon</text>
</g>
<!-- /lib/panels/tools/tools_panel.dart&#45;&gt;/lib/widgets/svg_icon.dart -->
<g id="edge13" class="edge">
<title>/lib/panels/tools/tools_panel.dart&#45;&gt;/lib/widgets/svg_icon.dart</title>
<path fill="none" stroke="#aabbaa" stroke-width="1.3" stroke-opacity="0.533333" d="M1291.67,-418.88C1288.76,-418.18 1285.85,-417.54 1283,-417 1271.4,-414.8 1185.54,-417.15 1177,-409 1126.79,-361.08 1203.56,-306.36 1158,-254 1148.94,-243.59 1139.88,-253.02 1128,-246 1118.47,-240.37 1109.62,-232.22 1102.29,-224.23"/>
<polygon fill="#aabbaa" fill-opacity="0.533333" stroke="#aabbaa" stroke-width="1.3" stroke-opacity="0.533333" points="1105.16,-222.2 1095.97,-216.91 1099.85,-226.77 1105.16,-222.2"/>
</g>
<!-- /lib/widgets/brush_size_picker.dart -->
<g id="node42" class="node">
<title>/lib/widgets/brush_size_picker.dart</title>
<path fill="Lavender" stroke="black" stroke-width="1.3" d="M1261,-215C1261,-215 1149,-215 1149,-215 1143,-215 1137,-209 1137,-203 1137,-203 1137,-191 1137,-191 1137,-185 1143,-179 1149,-179 1149,-179 1261,-179 1261,-179 1267,-179 1273,-185 1273,-191 1273,-191 1273,-203 1273,-203 1273,-209 1267,-215 1261,-215"/>
<text text-anchor="middle" x="1205" y="-191.75" font-family="Arial" font-size="15.00">brush_size_picker</text>
</g>
<!-- /lib/panels/tools/tools_panel.dart&#45;&gt;/lib/widgets/brush_size_picker.dart -->
<g id="edge11" class="edge">
<title>/lib/panels/tools/tools_panel.dart&#45;&gt;/lib/widgets/brush_size_picker.dart</title>
<path fill="none" stroke="#aabbaa" stroke-width="1.3" stroke-opacity="0.533333" d="M1291.66,-418.93C1288.75,-418.22 1285.84,-417.56 1283,-417 1273.37,-415.1 1201.62,-416.25 1195,-409 1172.52,-384.39 1181,-364.25 1195,-334 1203.08,-316.55 1219.92,-323.45 1228,-306 1239.92,-280.25 1230.37,-248.18 1220.19,-225.7"/>
<polygon fill="#aabbaa" fill-opacity="0.533333" stroke="#aabbaa" stroke-width="1.3" stroke-opacity="0.533333" points="1223.47,-224.43 1215.94,-216.97 1217.17,-227.5 1223.47,-224.43"/>
</g>
<!-- /lib/widgets/tolerance_picker.dart -->
<g id="node44" class="node">
<title>/lib/widgets/tolerance_picker.dart</title>
<path fill="Lavender" stroke="black" stroke-width="1.3" d="M1957.75,-215C1957.75,-215 1856.25,-215 1856.25,-215 1850.25,-215 1844.25,-209 1844.25,-203 1844.25,-203 1844.25,-191 1844.25,-191 1844.25,-185 1850.25,-179 1856.25,-179 1856.25,-179 1957.75,-179 1957.75,-179 1963.75,-179 1969.75,-185 1969.75,-191 1969.75,-191 1969.75,-203 1969.75,-203 1969.75,-209 1963.75,-215 1957.75,-215"/>
<text text-anchor="middle" x="1907" y="-191.75" font-family="Arial" font-size="15.00">tolerance_picker</text>
</g>
<!-- /lib/panels/tools/tools_panel.dart&#45;&gt;/lib/widgets/tolerance_picker.dart -->
<g id="edge14" class="edge">
<title>/lib/panels/tools/tools_panel.dart&#45;&gt;/lib/widgets/tolerance_picker.dart</title>
<path fill="none" stroke="#aabbaa" stroke-width="1.3" stroke-opacity="0.533333" d="M1384.11,-431.46C1453.04,-427.75 1587.03,-420.88 1701,-417 1711.47,-416.64 2070.35,-416.16 2078,-409 2103.19,-385.42 2110.48,-279.28 2087,-254 2078.81,-245.18 1990.38,-249.91 1979,-246 1963.75,-240.76 1948.64,-231.48 1936.22,-222.47"/>
<polygon fill="#aabbaa" fill-opacity="0.533333" stroke="#aabbaa" stroke-width="1.3" stroke-opacity="0.533333" points="1938.54,-219.83 1928.46,-216.57 1934.3,-225.4 1938.54,-219.83"/>
</g>
<!-- /lib/widgets/color_picker.dart -->
<g id="node48" class="node">
<title>/lib/widgets/color_picker.dart</title>
<path fill="Lavender" stroke="black" stroke-width="1.3" d="M2072.12,-215C2072.12,-215 1999.88,-215 1999.88,-215 1993.88,-215 1987.88,-209 1987.88,-203 1987.88,-203 1987.88,-191 1987.88,-191 1987.88,-185 1993.88,-179 1999.88,-179 1999.88,-179 2072.12,-179 2072.12,-179 2078.12,-179 2084.12,-185 2084.12,-191 2084.12,-191 2084.12,-203 2084.12,-203 2084.12,-209 2078.12,-215 2072.12,-215"/>
<text text-anchor="middle" x="2036" y="-191.75" font-family="Arial" font-size="15.00">color_picker</text>
</g>
<!-- /lib/panels/tools/tools_panel.dart&#45;&gt;/lib/widgets/color_picker.dart -->
<g id="edge12" class="edge">
<title>/lib/panels/tools/tools_panel.dart&#45;&gt;/lib/widgets/color_picker.dart</title>
<path fill="none" stroke="#aabbaa" stroke-width="1.3" stroke-opacity="0.533333" d="M1384.11,-431.45C1453.04,-427.73 1587.03,-420.83 1701,-417 1711.91,-416.63 2086.17,-416.61 2094,-409 2143.42,-360.95 2127.24,-316.88 2099,-254 2093.54,-241.84 2083.98,-231.24 2073.94,-222.63"/>
<polygon fill="#aabbaa" fill-opacity="0.533333" stroke="#aabbaa" stroke-width="1.3" stroke-opacity="0.533333" points="2076.24,-219.99 2066.23,-216.52 2071.89,-225.47 2076.24,-219.99"/>
</g>
<!-- /lib/helpers/color_helper.dart -->
<g id="node38" class="node">
<title>/lib/helpers/color_helper.dart</title>
<path fill="Lavender" stroke="black" stroke-width="1.3" d="M849.88,-140C849.88,-140 776.12,-140 776.12,-140 770.12,-140 764.12,-134 764.12,-128 764.12,-128 764.12,-116 764.12,-116 764.12,-110 770.12,-104 776.12,-104 776.12,-104 849.88,-104 849.88,-104 855.88,-104 861.88,-110 861.88,-116 861.88,-116 861.88,-128 861.88,-128 861.88,-134 855.88,-140 849.88,-140"/>
<text text-anchor="middle" x="813" y="-116.75" font-family="Arial" font-size="15.00">color_helper</text>
</g>
<!-- /lib/panels/tools/tool_attributes_widget.dart&#45;&gt;/lib/helpers/color_helper.dart -->
<g id="edge15" class="edge">
<title>/lib/panels/tools/tool_attributes_widget.dart&#45;&gt;/lib/helpers/color_helper.dart</title>
<path fill="none" stroke="#aabbaa" stroke-width="1.3" stroke-opacity="0.533333" d="M1342.14,-341.51C1332.42,-338.88 1322.46,-336.29 1313,-334 1253.45,-319.57 1224.71,-345.67 1178,-306 1159.13,-289.97 1178.22,-268.29 1158,-254 1131.13,-235.01 888.98,-264.83 862,-246 831.46,-224.68 819.95,-181.08 815.61,-151.94"/>
<polygon fill="#aabbaa" fill-opacity="0.533333" stroke="#aabbaa" stroke-width="1.3" stroke-opacity="0.533333" points="819.09,-151.51 814.37,-142.02 812.14,-152.38 819.09,-151.51"/>
</g>
<!-- /lib/widgets/transparent_background.dart -->
<g id="node43" class="node">
<title>/lib/widgets/transparent_background.dart</title>
<path fill="Lavender" stroke="black" stroke-width="1.3" d="M2072.38,-140C2072.38,-140 1917.62,-140 1917.62,-140 1911.62,-140 1905.62,-134 1905.62,-128 1905.62,-128 1905.62,-116 1905.62,-116 1905.62,-110 1911.62,-104 1917.62,-104 1917.62,-104 2072.38,-104 2072.38,-104 2078.38,-104 2084.38,-110 2084.38,-116 2084.38,-116 2084.38,-128 2084.38,-128 2084.38,-134 2078.38,-140 2072.38,-140"/>
<text text-anchor="middle" x="1995" y="-116.75" font-family="Arial" font-size="15.00">transparent_background</text>
</g>
<!-- /lib/panels/tools/tool_attributes_widget.dart&#45;&gt;/lib/widgets/transparent_background.dart -->
<g id="edge16" class="edge">
<title>/lib/panels/tools/tool_attributes_widget.dart&#45;&gt;/lib/widgets/transparent_background.dart</title>
<path fill="none" stroke="#aabbaa" stroke-width="1.3" stroke-opacity="0.533333" d="M1341.63,-341.51C1332.06,-338.91 1322.28,-336.33 1313,-334 1257.78,-320.15 1229.46,-345.02 1188,-306 1170.49,-289.51 1192.02,-268.72 1173,-254 1159.99,-243.93 888.47,-257.79 877,-246 856.23,-224.66 856.48,-200.58 877,-179 911.75,-142.47 1624.95,-128.36 1893.72,-124.33"/>
<polygon fill="#aabbaa" fill-opacity="0.533333" stroke="#aabbaa" stroke-width="1.3" stroke-opacity="0.533333" points="1893.49,-127.84 1903.44,-124.19 1893.39,-120.84 1893.49,-127.84"/>
</g>
<!-- /lib/panels/canvas_panel.dart -->
<g id="node12" class="node">
<title>/lib/panels/canvas_panel.dart</title>
<path fill="Lavender" stroke="black" stroke-width="1.3" d="M2062.75,-306C2062.75,-306 1979.25,-306 1979.25,-306 1973.25,-306 1967.25,-300 1967.25,-294 1967.25,-294 1967.25,-282 1967.25,-282 1967.25,-276 1973.25,-270 1979.25,-270 1979.25,-270 2062.75,-270 2062.75,-270 2068.75,-270 2074.75,-276 2074.75,-282 2074.75,-282 2074.75,-294 2074.75,-294 2074.75,-300 2068.75,-306 2062.75,-306"/>
<text text-anchor="middle" x="2021" y="-282.75" font-family="Arial" font-size="15.00">canvas_panel</text>
</g>
<!-- /lib/panels/canvas_panel.dart&#45;&gt;/lib/models/app_model.dart -->
<g id="edge17" class="edge">
<title>/lib/panels/canvas_panel.dart&#45;&gt;/lib/models/app_model.dart</title>
<path fill="none" stroke="#aabbaa" stroke-width="1.3" stroke-opacity="0.533333" d="M1996.36,-269.57C1986.21,-263.39 1974.03,-257.18 1962,-254 1932.78,-246.27 904.19,-247.33 874,-246 676.52,-237.29 442.9,-214.78 337.54,-203.97"/>
<polygon fill="#aabbaa" fill-opacity="0.533333" stroke="#aabbaa" stroke-width="1.3" stroke-opacity="0.533333" points="338.2,-200.52 327.89,-202.97 337.48,-207.48 338.2,-200.52"/>
</g>
<!-- /lib/panels/canvas_panel.dart&#45;&gt;/lib/widgets/transparent_background.dart -->
<g id="edge18" class="edge">
<title>/lib/panels/canvas_panel.dart&#45;&gt;/lib/widgets/transparent_background.dart</title>
<path fill="none" stroke="#aabbaa" stroke-width="1.3" stroke-opacity="0.533333" d="M2074.97,-272.81C2087.97,-266.73 2100.31,-258.13 2108,-246 2123.95,-220.85 2123.7,-204.3 2108,-179 2099.04,-164.56 2085.13,-153.73 2070.1,-145.65"/>
<polygon fill="#aabbaa" fill-opacity="0.533333" stroke="#aabbaa" stroke-width="1.3" stroke-opacity="0.533333" points="2071.84,-142.61 2061.32,-141.35 2068.76,-148.89 2071.84,-142.61"/>
</g>
<!-- /lib/panels/layers/tools_and_layers_panel.dart -->
<g id="node13" class="node">
<title>/lib/panels/layers/tools_and_layers_panel.dart</title>
<path fill="Lavender" stroke="black" stroke-width="1.3" d="M1873.38,-453C1873.38,-453 1724.62,-453 1724.62,-453 1718.62,-453 1712.62,-447 1712.62,-441 1712.62,-441 1712.62,-429 1712.62,-429 1712.62,-423 1718.62,-417 1724.62,-417 1724.62,-417 1873.38,-417 1873.38,-417 1879.38,-417 1885.38,-423 1885.38,-429 1885.38,-429 1885.38,-441 1885.38,-441 1885.38,-447 1879.38,-453 1873.38,-453"/>
<text text-anchor="middle" x="1799" y="-429.75" font-family="Arial" font-size="15.00">tools_and_layers_panel</text>
</g>
<!-- /lib/panels/layers/tools_and_layers_panel.dart&#45;&gt;/lib/panels/about.dart -->
<g id="edge23" class="edge">
<title>/lib/panels/layers/tools_and_layers_panel.dart&#45;&gt;/lib/panels/about.dart</title>
<path fill="none" stroke="#aabbaa" stroke-width="1.3" stroke-opacity="0.533333" d="M1713.76,-416.66C1709.28,-414.41 1704.99,-411.87 1701,-409 1693.77,-403.8 1687.81,-396.35 1683.1,-388.87"/>
<polygon fill="#aabbaa" fill-opacity="0.533333" stroke="#aabbaa" stroke-width="1.3" stroke-opacity="0.533333" points="1686.19,-387.23 1678.25,-380.21 1680.09,-390.65 1686.19,-387.23"/>
</g>
<!-- /lib/panels/layers/layer_selector.dart -->
<g id="node14" class="node">
<title>/lib/panels/layers/layer_selector.dart</title>
<path fill="Lavender" stroke="black" stroke-width="1.3" d="M1812.5,-378C1812.5,-378 1727.5,-378 1727.5,-378 1721.5,-378 1715.5,-372 1715.5,-366 1715.5,-366 1715.5,-354 1715.5,-354 1715.5,-348 1721.5,-342 1727.5,-342 1727.5,-342 1812.5,-342 1812.5,-342 1818.5,-342 1824.5,-348 1824.5,-354 1824.5,-354 1824.5,-366 1824.5,-366 1824.5,-372 1818.5,-378 1812.5,-378"/>
<text text-anchor="middle" x="1770" y="-354.75" font-family="Arial" font-size="15.00">layer_selector</text>
</g>
<!-- /lib/panels/layers/tools_and_layers_panel.dart&#45;&gt;/lib/panels/layers/layer_selector.dart -->
<g id="edge25" class="edge">
<title>/lib/panels/layers/tools_and_layers_panel.dart&#45;&gt;/lib/panels/layers/layer_selector.dart</title>
<path fill="none" stroke="#aabbaa" stroke-width="1.3" stroke-opacity="0.533333" d="M1792.13,-416.7C1788.9,-408.58 1784.97,-398.68 1781.32,-389.5"/>
<polygon fill="#aabbaa" fill-opacity="0.533333" stroke="#aabbaa" stroke-width="1.3" stroke-opacity="0.533333" points="1784.59,-388.26 1777.65,-380.26 1778.09,-390.84 1784.59,-388.26"/>
</g>
<!-- /lib/panels/share_panel.dart -->
<g id="node18" class="node">
<title>/lib/panels/share_panel.dart</title>
<path fill="Lavender" stroke="black" stroke-width="1.3" d="M2051.88,-378C2051.88,-378 1978.12,-378 1978.12,-378 1972.12,-378 1966.12,-372 1966.12,-366 1966.12,-366 1966.12,-354 1966.12,-354 1966.12,-348 1972.12,-342 1978.12,-342 1978.12,-342 2051.88,-342 2051.88,-342 2057.88,-342 2063.88,-348 2063.88,-354 2063.88,-354 2063.88,-366 2063.88,-366 2063.88,-372 2057.88,-378 2051.88,-378"/>
<text text-anchor="middle" x="2015" y="-354.75" font-family="Arial" font-size="15.00">share_panel</text>
</g>
<!-- /lib/panels/layers/tools_and_layers_panel.dart&#45;&gt;/lib/panels/share_panel.dart -->
<g id="edge26" class="edge">
<title>/lib/panels/layers/tools_and_layers_panel.dart&#45;&gt;/lib/panels/share_panel.dart</title>
<path fill="none" stroke="#aabbaa" stroke-width="1.3" stroke-opacity="0.533333" d="M1885.68,-417.5C1886.79,-417.33 1887.9,-417.16 1889,-417 1921.28,-412.19 1932.23,-422.38 1962,-409 1973.55,-403.81 1984.31,-395.13 1993.07,-386.57"/>
<polygon fill="#aabbaa" fill-opacity="0.533333" stroke="#aabbaa" stroke-width="1.3" stroke-opacity="0.533333" points="1995.36,-389.24 1999.77,-379.61 1990.32,-384.39 1995.36,-389.24"/>
</g>
<!-- /lib/panels/canvas_settings.dart -->
<g id="node19" class="node">
<title>/lib/panels/canvas_settings.dart</title>
<path fill="Lavender" stroke="black" stroke-width="1.3" d="M1612.62,-378C1612.62,-378 1513.38,-378 1513.38,-378 1507.38,-378 1501.38,-372 1501.38,-366 1501.38,-366 1501.38,-354 1501.38,-354 1501.38,-348 1507.38,-342 1513.38,-342 1513.38,-342 1612.62,-342 1612.62,-342 1618.62,-342 1624.62,-348 1624.62,-354 1624.62,-354 1624.62,-366 1624.62,-366 1624.62,-372 1618.62,-378 1612.62,-378"/>
<text text-anchor="middle" x="1563" y="-354.75" font-family="Arial" font-size="15.00">canvas_settings</text>
</g>
<!-- /lib/panels/layers/tools_and_layers_panel.dart&#45;&gt;/lib/panels/canvas_settings.dart -->
<g id="edge24" class="edge">
<title>/lib/panels/layers/tools_and_layers_panel.dart&#45;&gt;/lib/panels/canvas_settings.dart</title>
<path fill="none" stroke="#aabbaa" stroke-width="1.3" stroke-opacity="0.533333" d="M1712.33,-428.19C1686.51,-424.53 1658.56,-418.59 1634,-409 1619.49,-403.33 1604.98,-394.27 1592.89,-385.54"/>
<polygon fill="#aabbaa" fill-opacity="0.533333" stroke="#aabbaa" stroke-width="1.3" stroke-opacity="0.533333" points="1595.02,-382.77 1584.92,-379.55 1590.81,-388.36 1595.02,-382.77"/>
</g>
<!-- /lib/models/menu_model.dart -->
<g id="node20" class="node">
<title>/lib/models/menu_model.dart</title>
<path fill="Lavender" stroke="black" stroke-width="1.3" d="M226.12,-378C226.12,-378 147.88,-378 147.88,-378 141.88,-378 135.88,-372 135.88,-366 135.88,-366 135.88,-354 135.88,-354 135.88,-348 141.88,-342 147.88,-342 147.88,-342 226.12,-342 226.12,-342 232.12,-342 238.12,-348 238.12,-354 238.12,-354 238.12,-366 238.12,-366 238.12,-372 232.12,-378 226.12,-378"/>
<text text-anchor="middle" x="187" y="-354.75" font-family="Arial" font-size="15.00">menu_model</text>
</g>
<!-- /lib/panels/layers/tools_and_layers_panel.dart&#45;&gt;/lib/models/menu_model.dart -->
<g id="edge22" class="edge">
<title>/lib/panels/layers/tools_and_layers_panel.dart&#45;&gt;/lib/models/menu_model.dart</title>
<path fill="none" stroke="#aabbaa" stroke-width="1.3" stroke-opacity="0.533333" d="M1712.2,-427.98C1651.64,-424.07 1568.94,-419.28 1496,-417 1478.66,-416.46 263.35,-414.79 247,-409 233.72,-404.29 221.18,-395.29 211.03,-386.35"/>
<polygon fill="#aabbaa" fill-opacity="0.533333" stroke="#aabbaa" stroke-width="1.3" stroke-opacity="0.533333" points="213.55,-383.92 203.87,-379.62 208.76,-389.02 213.55,-383.92"/>
</g>
<!-- /lib/panels/layers/tools_and_layers_panel.dart&#45;&gt;/lib/models/app_model.dart -->
<g id="edge21" class="edge">
<title>/lib/panels/layers/tools_and_layers_panel.dart&#45;&gt;/lib/models/app_model.dart</title>
<path fill="none" stroke="#aabbaa" stroke-width="1.3" stroke-opacity="0.533333" d="M1712.2,-427.97C1651.64,-424.05 1568.94,-419.26 1496,-417 1486.5,-416.71 133.7,-415.74 127,-409 103.5,-385.36 113.43,-364.45 127,-334 148.65,-285.42 173.99,-286.61 216,-254 221.06,-250.07 222.94,-249.94 228,-246 237.06,-238.94 246.5,-230.71 254.85,-223.08"/>
<polygon fill="#aabbaa" fill-opacity="0.533333" stroke="#aabbaa" stroke-width="1.3" stroke-opacity="0.533333" points="257.03,-225.83 261.98,-216.46 252.27,-220.7 257.03,-225.83"/>
</g>
<!-- /lib/files/save.dart -->
<g id="node33" class="node">
<title>/lib/files/save.dart</title>
<path fill="Lavender" stroke="black" stroke-width="1.3" d="M520,-378C520,-378 490,-378 490,-378 484,-378 478,-372 478,-366 478,-366 478,-354 478,-354 478,-348 484,-342 490,-342 490,-342 520,-342 520,-342 526,-342 532,-348 532,-354 532,-354 532,-366 532,-366 532,-372 526,-378 520,-378"/>
<text text-anchor="middle" x="505" y="-354.75" font-family="Arial" font-size="15.00">save</text>
</g>
<!-- /lib/panels/layers/tools_and_layers_panel.dart&#45;&gt;/lib/files/save.dart -->
<g id="edge20" class="edge">
<title>/lib/panels/layers/tools_and_layers_panel.dart&#45;&gt;/lib/files/save.dart</title>
<path fill="none" stroke="#aabbaa" stroke-width="1.3" stroke-opacity="0.533333" d="M1712.19,-428.03C1651.64,-424.13 1568.93,-419.35 1496,-417 1482.74,-416.57 552.84,-414.98 541,-409 531.88,-404.39 524.46,-396.27 518.78,-387.99"/>
<polygon fill="#aabbaa" fill-opacity="0.533333" stroke="#aabbaa" stroke-width="1.3" stroke-opacity="0.533333" points="521.94,-386.45 513.74,-379.74 515.97,-390.1 521.94,-386.45"/>
</g>
<!-- /lib/files/import_files.dart -->
<g id="node35" class="node">
<title>/lib/files/import_files.dart</title>
<path fill="Lavender" stroke="black" stroke-width="1.3" d="M630.25,-378C630.25,-378 561.75,-378 561.75,-378 555.75,-378 549.75,-372 549.75,-366 549.75,-366 549.75,-354 549.75,-354 549.75,-348 555.75,-342 561.75,-342 561.75,-342 630.25,-342 630.25,-342 636.25,-342 642.25,-348 642.25,-354 642.25,-354 642.25,-366 642.25,-366 642.25,-372 636.25,-378 630.25,-378"/>
<text text-anchor="middle" x="596" y="-354.75" font-family="Arial" font-size="15.00">import_files</text>
</g>
<!-- /lib/panels/layers/tools_and_layers_panel.dart&#45;&gt;/lib/files/import_files.dart -->
<g id="edge19" class="edge">
<title>/lib/panels/layers/tools_and_layers_panel.dart&#45;&gt;/lib/files/import_files.dart</title>
<path fill="none" stroke="#aabbaa" stroke-width="1.3" stroke-opacity="0.533333" d="M1712.19,-428.05C1651.64,-424.17 1568.93,-419.39 1496,-417 1472.57,-416.23 673.95,-417.24 652,-409 639.46,-404.29 627.82,-395.42 618.44,-386.58"/>
<polygon fill="#aabbaa" fill-opacity="0.533333" stroke="#aabbaa" stroke-width="1.3" stroke-opacity="0.533333" points="621.09,-384.28 611.57,-379.63 616.12,-389.2 621.09,-384.28"/>
</g>
<!-- /lib/panels/layers/layer_thumbnail.dart -->
<g id="node15" class="node">
<title>/lib/panels/layers/layer_thumbnail.dart</title>
<path fill="Lavender" stroke="black" stroke-width="1.3" d="M1937.5,-306C1937.5,-306 1840.5,-306 1840.5,-306 1834.5,-306 1828.5,-300 1828.5,-294 1828.5,-294 1828.5,-282 1828.5,-282 1828.5,-276 1834.5,-270 1840.5,-270 1840.5,-270 1937.5,-270 1937.5,-270 1943.5,-270 1949.5,-276 1949.5,-282 1949.5,-282 1949.5,-294 1949.5,-294 1949.5,-300 1943.5,-306 1937.5,-306"/>
<text text-anchor="middle" x="1889" y="-282.75" font-family="Arial" font-size="15.00">layer_thumbnail</text>
</g>
<!-- /lib/panels/layers/layer_selector.dart&#45;&gt;/lib/panels/layers/layer_thumbnail.dart -->
<g id="edge29" class="edge">
<title>/lib/panels/layers/layer_selector.dart&#45;&gt;/lib/panels/layers/layer_thumbnail.dart</title>
<path fill="none" stroke="#aabbaa" stroke-width="1.3" stroke-opacity="0.533333" d="M1799.72,-341.52C1814.74,-332.68 1833.18,-321.84 1849.39,-312.3"/>
<polygon fill="#aabbaa" fill-opacity="0.533333" stroke="#aabbaa" stroke-width="1.3" stroke-opacity="0.533333" points="1851.12,-315.35 1857.96,-307.26 1847.57,-309.31 1851.12,-315.35"/>
</g>
<!-- /lib/panels/layers/blend_mode.dart -->
<g id="node16" class="node">
<title>/lib/panels/layers/blend_mode.dart</title>
<path fill="Lavender" stroke="black" stroke-width="1.3" d="M1798.88,-306C1798.88,-306 1725.12,-306 1725.12,-306 1719.12,-306 1713.12,-300 1713.12,-294 1713.12,-294 1713.12,-282 1713.12,-282 1713.12,-276 1719.12,-270 1725.12,-270 1725.12,-270 1798.88,-270 1798.88,-270 1804.88,-270 1810.88,-276 1810.88,-282 1810.88,-282 1810.88,-294 1810.88,-294 1810.88,-300 1804.88,-306 1798.88,-306"/>
<text text-anchor="middle" x="1762" y="-282.75" font-family="Arial" font-size="15.00">blend_mode</text>
</g>
<!-- /lib/panels/layers/layer_selector.dart&#45;&gt;/lib/panels/layers/blend_mode.dart -->
<g id="edge28" class="edge">
<title>/lib/panels/layers/layer_selector.dart&#45;&gt;/lib/panels/layers/blend_mode.dart</title>
<path fill="none" stroke="#aabbaa" stroke-width="1.3" stroke-opacity="0.533333" d="M1768.02,-341.7C1767.2,-334.49 1766.22,-325.93 1765.29,-317.82"/>
<polygon fill="#aabbaa" fill-opacity="0.533333" stroke="#aabbaa" stroke-width="1.3" stroke-opacity="0.533333" points="1768.79,-317.6 1764.18,-308.06 1761.84,-318.39 1768.79,-317.6"/>
</g>
<!-- /lib/panels/layers/layer_selector.dart&#45;&gt;/lib/models/app_model.dart -->
<g id="edge27" class="edge">
<title>/lib/panels/layers/layer_selector.dart&#45;&gt;/lib/models/app_model.dart</title>
<path fill="none" stroke="#aabbaa" stroke-width="1.3" stroke-opacity="0.533333" d="M1734.78,-341.53C1727.41,-338.53 1719.57,-335.8 1712,-334 1661.75,-322.04 1286.81,-340.08 1248,-306 1230.31,-290.47 1255.98,-269.19 1238,-254 1230.27,-247.47 884.1,-246.52 874,-246 676.59,-235.85 442.94,-214.05 337.55,-203.69"/>
<polygon fill="#aabbaa" fill-opacity="0.533333" stroke="#aabbaa" stroke-width="1.3" stroke-opacity="0.533333" points="338.2,-200.24 327.9,-202.74 337.51,-207.21 338.2,-200.24"/>
</g>
<!-- /lib/widgets/truncated_text.dart -->
<g id="node40" class="node">
<title>/lib/widgets/truncated_text.dart</title>
<path fill="Lavender" stroke="black" stroke-width="1.3" d="M1686,-215C1686,-215 1598,-215 1598,-215 1592,-215 1586,-209 1586,-203 1586,-203 1586,-191 1586,-191 1586,-185 1592,-179 1598,-179 1598,-179 1686,-179 1686,-179 1692,-179 1698,-185 1698,-191 1698,-191 1698,-203 1698,-203 1698,-209 1692,-215 1686,-215"/>
<text text-anchor="middle" x="1642" y="-191.75" font-family="Arial" font-size="15.00">truncated_text</text>
</g>
<!-- /lib/panels/layers/layer_selector.dart&#45;&gt;/lib/widgets/truncated_text.dart -->
<g id="edge31" class="edge">
<title>/lib/panels/layers/layer_selector.dart&#45;&gt;/lib/widgets/truncated_text.dart</title>
<path fill="none" stroke="#aabbaa" stroke-width="1.3" stroke-opacity="0.533333" d="M1743.94,-341.6C1730.94,-332.09 1715.56,-319.51 1704,-306 1683.08,-281.55 1665.53,-249.02 1654.5,-226.07"/>
<polygon fill="#aabbaa" fill-opacity="0.533333" stroke="#aabbaa" stroke-width="1.3" stroke-opacity="0.533333" points="1657.72,-224.7 1650.31,-217.13 1651.38,-227.67 1657.72,-224.7"/>
</g>
<!-- /lib/widgets/container_slider.dart -->
<g id="node41" class="node">
<title>/lib/widgets/container_slider.dart</title>
<path fill="Lavender" stroke="black" stroke-width="1.3" d="M1555.5,-215C1555.5,-215 1458.5,-215 1458.5,-215 1452.5,-215 1446.5,-209 1446.5,-203 1446.5,-203 1446.5,-191 1446.5,-191 1446.5,-185 1452.5,-179 1458.5,-179 1458.5,-179 1555.5,-179 1555.5,-179 1561.5,-179 1567.5,-185 1567.5,-191 1567.5,-191 1567.5,-203 1567.5,-203 1567.5,-209 1561.5,-215 1555.5,-215"/>
<text text-anchor="middle" x="1507" y="-191.75" font-family="Arial" font-size="15.00">container_slider</text>
</g>
<!-- /lib/panels/layers/layer_selector.dart&#45;&gt;/lib/widgets/container_slider.dart -->
<g id="edge30" class="edge">
<title>/lib/panels/layers/layer_selector.dart&#45;&gt;/lib/widgets/container_slider.dart</title>
<path fill="none" stroke="#aabbaa" stroke-width="1.3" stroke-opacity="0.533333" d="M1730.71,-341.55C1705.81,-330.01 1676.41,-315.34 1666,-306 1645.45,-287.55 1655.28,-268.86 1632,-254 1611.18,-240.71 1600.01,-255 1577,-246 1562.63,-240.38 1548.31,-231.33 1536.4,-222.6"/>
<polygon fill="#aabbaa" fill-opacity="0.533333" stroke="#aabbaa" stroke-width="1.3" stroke-opacity="0.533333" points="1538.64,-219.91 1528.57,-216.61 1534.39,-225.47 1538.64,-219.91"/>
</g>
<!-- /lib/panels/layers/layer_thumbnail.dart&#45;&gt;/lib/models/app_model.dart -->
<g id="edge32" class="edge">
<title>/lib/panels/layers/layer_thumbnail.dart&#45;&gt;/lib/models/app_model.dart</title>
<path fill="none" stroke="#aabbaa" stroke-width="1.3" stroke-opacity="0.533333" d="M1859.82,-269.55C1847.9,-263.37 1833.71,-257.17 1820,-254 1768.79,-242.16 926.51,-248.34 874,-246 676.53,-237.18 442.91,-214.72 337.54,-203.95"/>
<polygon fill="#aabbaa" fill-opacity="0.533333" stroke="#aabbaa" stroke-width="1.3" stroke-opacity="0.533333" points="338.2,-200.5 327.89,-202.96 337.48,-207.46 338.2,-200.5"/>
</g>
<!-- /lib/panels/layers/layer_thumbnail.dart&#45;&gt;/lib/widgets/transparent_background.dart -->
<g id="edge34" class="edge">
<title>/lib/panels/layers/layer_thumbnail.dart&#45;&gt;/lib/widgets/transparent_background.dart</title>
<path fill="none" stroke="#aabbaa" stroke-width="1.3" stroke-opacity="0.533333" d="M1917.09,-269.54C1928.18,-263.52 1941.29,-257.43 1954,-254 1968.94,-249.97 2082.38,-257.25 2093,-246 2113.44,-224.35 2107.95,-204.76 2093,-179 2084.85,-164.95 2071.7,-154.13 2057.65,-145.92"/>
<polygon fill="#aabbaa" fill-opacity="0.533333" stroke="#aabbaa" stroke-width="1.3" stroke-opacity="0.533333" points="2059.52,-142.95 2049.05,-141.32 2056.22,-149.12 2059.52,-142.95"/>
</g>
<!-- /lib/widgets/image_painter.dart -->
<g id="node45" class="node">
<title>/lib/widgets/image_painter.dart</title>
<path fill="Lavender" stroke="black" stroke-width="1.3" d="M1814.25,-215C1814.25,-215 1727.75,-215 1727.75,-215 1721.75,-215 1715.75,-209 1715.75,-203 1715.75,-203 1715.75,-191 1715.75,-191 1715.75,-185 1721.75,-179 1727.75,-179 1727.75,-179 1814.25,-179 1814.25,-179 1820.25,-179 1826.25,-185 1826.25,-191 1826.25,-191 1826.25,-203 1826.25,-203 1826.25,-209 1820.25,-215 1814.25,-215"/>
<text text-anchor="middle" x="1771" y="-191.75" font-family="Arial" font-size="15.00">image_painter</text>
</g>
<!-- /lib/panels/layers/layer_thumbnail.dart&#45;&gt;/lib/widgets/image_painter.dart -->
<g id="edge33" class="edge">
<title>/lib/panels/layers/layer_thumbnail.dart&#45;&gt;/lib/widgets/image_painter.dart</title>
<path fill="none" stroke="#aabbaa" stroke-width="1.3" stroke-opacity="0.533333" d="M1865.97,-269.63C1848.18,-256.21 1823.34,-237.48 1803.53,-222.53"/>
<polygon fill="#aabbaa" fill-opacity="0.533333" stroke="#aabbaa" stroke-width="1.3" stroke-opacity="0.533333" points="1805.64,-219.74 1795.54,-216.51 1801.42,-225.33 1805.64,-219.74"/>
</g>
<!-- /lib/panels/side_panel.dart -->
<g id="node17" class="node">
<title>/lib/panels/side_panel.dart</title>
<path fill="Lavender" stroke="black" stroke-width="1.3" d="M1271.62,-528C1271.62,-528 1208.38,-528 1208.38,-528 1202.38,-528 1196.38,-522 1196.38,-516 1196.38,-516 1196.38,-504 1196.38,-504 1196.38,-498 1202.38,-492 1208.38,-492 1208.38,-492 1271.62,-492 1271.62,-492 1277.62,-492 1283.62,-498 1283.62,-504 1283.62,-504 1283.62,-516 1283.62,-516 1283.62,-522 1277.62,-528 1271.62,-528"/>
<text text-anchor="middle" x="1240" y="-504.75" font-family="Arial" font-size="15.00">side_panel</text>
</g>
<!-- /lib/panels/side_panel.dart&#45;&gt;/lib/panels/tools/tools_panel.dart -->
<g id="edge37" class="edge">
<title>/lib/panels/side_panel.dart&#45;&gt;/lib/panels/tools/tools_panel.dart</title>
<path fill="none" stroke="#aabbaa" stroke-width="1.3" stroke-opacity="0.533333" d="M1271.45,-491.66C1275.41,-489.2 1279.35,-486.62 1283,-484 1292.53,-477.17 1302.36,-469 1311.02,-461.36"/>
<polygon fill="#aabbaa" fill-opacity="0.533333" stroke="#aabbaa" stroke-width="1.3" stroke-opacity="0.533333" points="1313.35,-463.98 1318.43,-454.68 1308.66,-458.77 1313.35,-463.98"/>
</g>
<!-- /lib/panels/side_panel.dart&#45;&gt;/lib/panels/layers/tools_and_layers_panel.dart -->
<g id="edge36" class="edge">
<title>/lib/panels/side_panel.dart&#45;&gt;/lib/panels/layers/tools_and_layers_panel.dart</title>
<path fill="none" stroke="#aabbaa" stroke-width="1.3" stroke-opacity="0.533333" d="M1284.06,-492.83C1285.38,-492.53 1286.7,-492.25 1288,-492 1378.86,-474.58 1403.93,-493.03 1496,-484 1564.7,-477.26 1641.5,-465.04 1700.59,-454.62"/>
<polygon fill="#aabbaa" fill-opacity="0.533333" stroke="#aabbaa" stroke-width="1.3" stroke-opacity="0.533333" points="1701,-458.1 1710.23,-452.91 1699.77,-451.21 1701,-458.1"/>
</g>
<!-- /lib/panels/side_panel.dart&#45;&gt;/lib/models/app_model.dart -->
<g id="edge35" class="edge">
<title>/lib/panels/side_panel.dart&#45;&gt;/lib/models/app_model.dart</title>
<path fill="none" stroke="#aabbaa" stroke-width="1.3" stroke-opacity="0.533333" d="M1195.92,-492.9C1194.61,-492.58 1193.3,-492.27 1192,-492 1073.93,-467.03 191.01,-497.54 109,-409 85.1,-383.2 112.81,-275.03 141,-254 156.56,-242.39 210.22,-253.81 228,-246 239.59,-240.91 250.36,-232.25 259.12,-223.68"/>
<polygon fill="#aabbaa" fill-opacity="0.533333" stroke="#aabbaa" stroke-width="1.3" stroke-opacity="0.533333" points="261.42,-226.34 265.81,-216.7 256.37,-221.5 261.42,-226.34"/>
</g>
<!-- /lib/panels/share_panel.dart&#45;&gt;/lib/panels/canvas_panel.dart -->
<g id="edge39" class="edge">
<title>/lib/panels/share_panel.dart&#45;&gt;/lib/panels/canvas_panel.dart</title>
<path fill="none" stroke="#aabbaa" stroke-width="1.3" stroke-opacity="0.533333" d="M2016.48,-341.7C2017.1,-334.49 2017.83,-325.93 2018.53,-317.82"/>
<polygon fill="#aabbaa" fill-opacity="0.533333" stroke="#aabbaa" stroke-width="1.3" stroke-opacity="0.533333" points="2022,-318.33 2019.37,-308.06 2015.02,-317.73 2022,-318.33"/>
</g>
<!-- /lib/panels/share_panel.dart&#45;&gt;/lib/models/app_model.dart -->
<g id="edge38" class="edge">
<title>/lib/panels/share_panel.dart&#45;&gt;/lib/models/app_model.dart</title>
<path fill="none" stroke="#aabbaa" stroke-width="1.3" stroke-opacity="0.533333" d="M1982.29,-341.51C1975.72,-338.59 1968.76,-335.9 1962,-334 1849.68,-302.45 1816.95,-318.87 1701,-306 1499.58,-283.64 1450.19,-267.74 1248,-254 1082.12,-242.73 1040.04,-254.49 874,-246 676.59,-235.91 442.94,-214.08 337.55,-203.7"/>
<polygon fill="#aabbaa" fill-opacity="0.533333" stroke="#aabbaa" stroke-width="1.3" stroke-opacity="0.533333" points="338.2,-200.25 327.9,-202.75 337.51,-207.22 338.2,-200.25"/>
</g>
<!-- /lib/panels/canvas_settings.dart&#45;&gt;/lib/models/app_model.dart -->
<g id="edge40" class="edge">
<title>/lib/panels/canvas_settings.dart&#45;&gt;/lib/models/app_model.dart</title>
<path fill="none" stroke="#aabbaa" stroke-width="1.3" stroke-opacity="0.533333" d="M1520.96,-341.5C1512.79,-338.62 1504.22,-335.95 1496,-334 1383.77,-307.41 1346.65,-344.71 1238,-306 1198.05,-291.77 1198.48,-266.62 1158,-254 1127.86,-244.6 905.52,-247.72 874,-246 676.63,-235.24 442.96,-213.74 337.56,-203.58"/>
<polygon fill="#aabbaa" fill-opacity="0.533333" stroke="#aabbaa" stroke-width="1.3" stroke-opacity="0.533333" points="338.2,-200.12 327.91,-202.64 337.53,-207.09 338.2,-200.12"/>
</g>
<!-- /lib/widgets/nine_grid_selector.dart -->
<g id="node47" class="node">
<title>/lib/widgets/nine_grid_selector.dart</title>
<path fill="Lavender" stroke="black" stroke-width="1.3" d="M1416.75,-215C1416.75,-215 1303.25,-215 1303.25,-215 1297.25,-215 1291.25,-209 1291.25,-203 1291.25,-203 1291.25,-191 1291.25,-191 1291.25,-185 1297.25,-179 1303.25,-179 1303.25,-179 1416.75,-179 1416.75,-179 1422.75,-179 1428.75,-185 1428.75,-191 1428.75,-191 1428.75,-203 1428.75,-203 1428.75,-209 1422.75,-215 1416.75,-215"/>
<text text-anchor="middle" x="1360" y="-191.75" font-family="Arial" font-size="15.00">nine_grid_selector</text>
</g>
<!-- /lib/panels/canvas_settings.dart&#45;&gt;/lib/widgets/nine_grid_selector.dart -->
<g id="edge41" class="edge">
<title>/lib/panels/canvas_settings.dart&#45;&gt;/lib/widgets/nine_grid_selector.dart</title>
<path fill="none" stroke="#aabbaa" stroke-width="1.3" stroke-opacity="0.533333" d="M1541.28,-341.77C1505.2,-313.16 1432.8,-255.73 1391.24,-222.78"/>
<polygon fill="#aabbaa" fill-opacity="0.533333" stroke="#aabbaa" stroke-width="1.3" stroke-opacity="0.533333" points="1393.43,-220.04 1383.42,-216.57 1389.08,-225.53 1393.43,-220.04"/>
</g>
<!-- /lib/models/layers.dart -->
<g id="node21" class="node">
<title>/lib/models/layers.dart</title>
<path fill="Lavender" stroke="black" stroke-width="1.3" d="M299.88,-378C299.88,-378 268.12,-378 268.12,-378 262.12,-378 256.12,-372 256.12,-366 256.12,-366 256.12,-354 256.12,-354 256.12,-348 262.12,-342 268.12,-342 268.12,-342 299.88,-342 299.88,-342 305.88,-342 311.88,-348 311.88,-354 311.88,-354 311.88,-366 311.88,-366 311.88,-372 305.88,-378 299.88,-378"/>
<text text-anchor="middle" x="284" y="-354.75" font-family="Arial" font-size="15.00">layers</text>
</g>
<!-- /lib/models/layers.dart&#45;&gt;/lib/models/layer.dart -->
<g id="edge43" class="edge">
<title>/lib/models/layers.dart&#45;&gt;/lib/models/layer.dart</title>
<path fill="none" stroke="#aabbaa" stroke-width="1.3" stroke-opacity="0.533333" d="M270.17,-341.7C266.04,-334.32 261.78,-325.52 258.28,-317.25"/>
<polygon fill="#aabbaa" fill-opacity="0.533333" stroke="#aabbaa" stroke-width="1.3" stroke-opacity="0.533333" points="261.54,-315.98 254.64,-307.94 255.02,-318.53 261.54,-315.98"/>
</g>
<!-- /lib/models/layers.dart&#45;&gt;/lib/models/layer.dart -->
<g id="edge44" class="edge">
<title>/lib/models/layers.dart&#45;&gt;/lib/models/layer.dart</title>
<path fill="none" stroke="#aabbaa" stroke-width="1.3" stroke-dasharray="5,2" stroke-opacity="0.533333" d="M282.01,-341.7C279.33,-334.15 275.44,-325.12 271.27,-316.68"/>
<polygon fill="#aabbaa" fill-opacity="0.533333" stroke="#aabbaa" stroke-width="1.3" stroke-opacity="0.533333" points="274.38,-315.07 266.63,-307.85 268.18,-318.33 274.38,-315.07"/>
</g>
<!-- /lib/helpers/list_helper.dart -->
<g id="node37" class="node">
<title>/lib/helpers/list_helper.dart</title>
<path fill="Lavender" stroke="black" stroke-width="1.3" d="M835.75,-68C835.75,-68 776.25,-68 776.25,-68 770.25,-68 764.25,-62 764.25,-56 764.25,-56 764.25,-44 764.25,-44 764.25,-38 770.25,-32 776.25,-32 776.25,-32 835.75,-32 835.75,-32 841.75,-32 847.75,-38 847.75,-44 847.75,-44 847.75,-56 847.75,-56 847.75,-62 841.75,-68 835.75,-68"/>
<text text-anchor="middle" x="806" y="-44.75" font-family="Arial" font-size="15.00">list_helper</text>
</g>
<!-- /lib/models/layers.dart&#45;&gt;/lib/helpers/list_helper.dart -->
<g id="edge42" class="edge">
<title>/lib/models/layers.dart&#45;&gt;/lib/helpers/list_helper.dart</title>
<path fill="none" stroke="#aabbaa" stroke-width="1.3" stroke-opacity="0.533333" d="M261.29,-341.71C256.73,-338.81 251.85,-336.07 247,-334 193.05,-310.94 161.4,-345.48 118,-306 47.52,-241.9 9.74,-165.4 75,-96 98.14,-71.39 586.8,-56.62 751.99,-52.32"/>
<polygon fill="#aabbaa" fill-opacity="0.533333" stroke="#aabbaa" stroke-width="1.3" stroke-opacity="0.533333" points="751.9,-55.83 761.8,-52.07 751.72,-48.83 751.9,-55.83"/>
</g>
<!-- /lib/models/user_action.dart -->
<g id="node22" class="node">
<title>/lib/models/user_action.dart</title>
<path fill="Lavender" stroke="black" stroke-width="1.3" d="M206.62,-215C206.62,-215 137.38,-215 137.38,-215 131.38,-215 125.38,-209 125.38,-203 125.38,-203 125.38,-191 125.38,-191 125.38,-185 131.38,-179 137.38,-179 137.38,-179 206.62,-179 206.62,-179 212.62,-179 218.62,-185 218.62,-191 218.62,-191 218.62,-203 218.62,-203 218.62,-209 212.62,-215 206.62,-215"/>
<text text-anchor="middle" x="172" y="-191.75" font-family="Arial" font-size="15.00">user_action</text>
</g>
<!-- /lib/widgets/brush_style_picker.dart -->
<g id="node46" class="node">
<title>/lib/widgets/brush_style_picker.dart</title>
<path fill="Lavender" stroke="black" stroke-width="1.3" d="M1014.25,-215C1014.25,-215 897.75,-215 897.75,-215 891.75,-215 885.75,-209 885.75,-203 885.75,-203 885.75,-191 885.75,-191 885.75,-185 891.75,-179 897.75,-179 897.75,-179 1014.25,-179 1014.25,-179 1020.25,-179 1026.25,-185 1026.25,-191 1026.25,-191 1026.25,-203 1026.25,-203 1026.25,-209 1020.25,-215 1014.25,-215"/>
<text text-anchor="middle" x="956" y="-191.75" font-family="Arial" font-size="15.00">brush_style_picker</text>
</g>
<!-- /lib/models/user_action.dart&#45;&gt;/lib/widgets/brush_style_picker.dart -->
<g id="edge45" class="edge">
<title>/lib/models/user_action.dart&#45;&gt;/lib/widgets/brush_style_picker.dart</title>
<path fill="none" stroke="#aabbaa" stroke-width="1.3" stroke-opacity="0.533333" d="M185.36,-215.36C196.36,-228.47 213.31,-244.49 233,-248.67 241.6,-250.49 857.4,-250.49 866,-248.67 886.72,-244.27 907.4,-233.01 923.7,-222.12"/>
<polygon fill="#aabbaa" fill-opacity="0.533333" stroke="#aabbaa" stroke-width="1.3" stroke-opacity="0.533333" points="925.44,-225.18 931.63,-216.58 921.43,-219.44 925.44,-225.18"/>
</g>
<!-- /lib/models/user_action.dart&#45;&gt;/lib/widgets/brush_style_picker.dart -->
<g id="edge46" class="edge">
<title>/lib/models/user_action.dart&#45;&gt;/lib/widgets/brush_style_picker.dart</title>
<path fill="none" stroke="#aabbaa" stroke-width="1.3" stroke-dasharray="5,2" stroke-opacity="0.533333" d="M186.14,-215.39C198.31,-229.29 217.32,-246.73 239,-251.33 247.44,-253.12 851.56,-253.12 860,-251.33 882.86,-246.48 905.75,-233.91 923.43,-222.08"/>
<polygon fill="#aabbaa" fill-opacity="0.533333" stroke="#aabbaa" stroke-width="1.3" stroke-opacity="0.533333" points="925.39,-224.98 931.59,-216.38 921.39,-219.23 925.39,-224.98"/>
</g>
<!-- /lib/models/canvas_model.dart -->
<g id="node24" class="node">
<title>/lib/models/canvas_model.dart</title>
<path fill="Lavender" stroke="black" stroke-width="1.3" d="M314,-140C314,-140 226,-140 226,-140 220,-140 214,-134 214,-128 214,-128 214,-116 214,-116 214,-110 220,-104 226,-104 226,-104 314,-104 314,-104 320,-104 326,-110 326,-116 326,-116 326,-128 326,-128 326,-134 320,-140 314,-140"/>
<text text-anchor="middle" x="270" y="-116.75" font-family="Arial" font-size="15.00">canvas_model</text>
</g>
<!-- /lib/models/canvas_model.dart&#45;&gt;/lib/models/layers.dart -->
<g id="edge47" class="edge">
<title>/lib/models/canvas_model.dart&#45;&gt;/lib/models/layers.dart</title>
<path fill="none" stroke="#aabbaa" stroke-width="1.3" stroke-dasharray="5,2" stroke-opacity="0.533333" d="M252.3,-140.29C240.07,-151.1 222.84,-164.23 205,-171 186.44,-178.05 129.4,-164.34 116,-179 95.91,-200.98 102,-219.72 116,-246 148.99,-307.9 188.83,-294.81 247,-334 247.45,-334.3 247.9,-334.61 248.36,-334.92"/>
<polygon fill="#aabbaa" fill-opacity="0.533333" stroke="#aabbaa" stroke-width="1.3" stroke-opacity="0.533333" points="246.25,-337.72 256.5,-340.41 250.17,-331.91 246.25,-337.72"/>
</g>
<!-- /lib/models/app_model.dart&#45;&gt;/lib/models/layers.dart -->
<g id="edge50" class="edge">
<title>/lib/models/app_model.dart&#45;&gt;/lib/models/layers.dart</title>
<path fill="none" stroke="#aabbaa" stroke-width="1.3" stroke-dasharray="5,2" stroke-opacity="0.533333" d="M283.7,-215.1C285.3,-226.17 287.18,-240.9 288,-254 289.44,-277.07 288.87,-282.91 288,-306 287.71,-313.77 287.17,-322.17 286.59,-329.95"/>
<polygon fill="#aabbaa" fill-opacity="0.533333" stroke="#aabbaa" stroke-width="1.3" stroke-opacity="0.533333" points="283.1,-329.62 285.78,-339.87 290.08,-330.19 283.1,-329.62"/>
</g>
<!-- /lib/models/app_model.dart&#45;&gt;/lib/models/canvas_resize.dart -->
<g id="edge49" class="edge">
<title>/lib/models/app_model.dart&#45;&gt;/lib/models/canvas_resize.dart</title>
<path fill="none" stroke="#aabbaa" stroke-width="1.3" stroke-opacity="0.533333" d="M235.84,-181.46C220.45,-176.44 206.67,-171.86 205,-171 192.6,-164.59 180.01,-155.91 169.26,-147.69"/>
<polygon fill="#aabbaa" fill-opacity="0.533333" stroke="#aabbaa" stroke-width="1.3" stroke-opacity="0.533333" points="171.53,-145.02 161.51,-141.57 167.19,-150.51 171.53,-145.02"/>
</g>
<!-- /lib/models/app_model.dart&#45;&gt;/lib/models/canvas_model.dart -->
<g id="edge48" class="edge">
<title>/lib/models/app_model.dart&#45;&gt;/lib/models/canvas_model.dart</title>
<path fill="none" stroke="#aabbaa" stroke-width="1.3" stroke-opacity="0.533333" d="M278.39,-178.7C277.2,-170.76 275.74,-161.12 274.39,-152.11"/>
<polygon fill="#aabbaa" fill-opacity="0.533333" stroke="#aabbaa" stroke-width="1.3" stroke-opacity="0.533333" points="277.87,-151.74 272.92,-142.37 270.95,-152.78 277.87,-151.74"/>
</g>
<!-- /lib/models/layer.dart&#45;&gt;/lib/models/user_action.dart -->
<g id="edge53" class="edge">
<title>/lib/models/layer.dart&#45;&gt;/lib/models/user_action.dart</title>
<path fill="none" stroke="#aabbaa" stroke-width="1.3" stroke-dasharray="5,2" stroke-opacity="0.533333" d="M236.58,-269.84C224.92,-256.87 208.72,-238.85 195.46,-224.1"/>
<polygon fill="#aabbaa" fill-opacity="0.533333" stroke="#aabbaa" stroke-width="1.3" stroke-opacity="0.533333" points="198.25,-221.97 188.97,-216.87 193.05,-226.65 198.25,-221.97"/>
</g>
<!-- /lib/models/layer.dart&#45;&gt;/lib/models/app_model.dart -->
<g id="edge51" class="edge">
<title>/lib/models/layer.dart&#45;&gt;/lib/models/app_model.dart</title>
<path fill="none" stroke="#aabbaa" stroke-width="1.3" stroke-opacity="0.533333" d="M257.59,-269.84C261.58,-257.61 267.03,-240.87 271.67,-226.63"/>
<polygon fill="#aabbaa" fill-opacity="0.533333" stroke="#aabbaa" stroke-width="1.3" stroke-opacity="0.533333" points="274.95,-227.87 274.72,-217.28 268.29,-225.71 274.95,-227.87"/>
</g>
<!-- /lib/models/layer.dart&#45;&gt;/lib/widgets/transparent_background.dart -->
<g id="edge52" class="edge">
<title>/lib/models/layer.dart&#45;&gt;/lib/widgets/transparent_background.dart</title>
<path fill="none" stroke="#aabbaa" stroke-width="1.3" stroke-opacity="0.533333" d="M279.37,-274.69C296.02,-267.66 317.88,-259.23 338,-254 565.7,-194.82 627.82,-201.5 862,-179 1241.43,-142.55 1694.75,-129.21 1893.35,-124.86"/>
<polygon fill="#aabbaa" fill-opacity="0.533333" stroke="#aabbaa" stroke-width="1.3" stroke-opacity="0.533333" points="1893.31,-128.37 1903.23,-124.65 1893.16,-121.37 1893.31,-128.37"/>
</g>
<!-- /lib/main.dart&#45;&gt;/lib/models/app_model.dart -->
<g id="edge55" class="edge">
<title>/lib/main.dart&#45;&gt;/lib/models/app_model.dart</title>
<path fill="none" stroke="#aabbaa" stroke-width="1.3" stroke-opacity="0.533333" d="M567.67,-653.36C478.5,-644.3 197.67,-612.06 126,-559 16.02,-477.59 -13.09,-350.42 84,-254 95.37,-242.71 213.21,-252.18 228,-246 239.68,-241.12 250.47,-232.51 259.22,-223.91"/>
<polygon fill="#aabbaa" fill-opacity="0.533333" stroke="#aabbaa" stroke-width="1.3" stroke-opacity="0.533333" points="261.54,-226.55 265.89,-216.89 256.47,-221.73 261.54,-226.55"/>
</g>
<!-- /lib/main_screen.dart -->
<g id="node36" class="node">
<title>/lib/main_screen.dart</title>
<path fill="Lavender" stroke="black" stroke-width="1.3" d="M1278.75,-603C1278.75,-603 1201.25,-603 1201.25,-603 1195.25,-603 1189.25,-597 1189.25,-591 1189.25,-591 1189.25,-579 1189.25,-579 1189.25,-573 1195.25,-567 1201.25,-567 1201.25,-567 1278.75,-567 1278.75,-567 1284.75,-567 1290.75,-573 1290.75,-579 1290.75,-579 1290.75,-591 1290.75,-591 1290.75,-597 1284.75,-603 1278.75,-603"/>
<text text-anchor="middle" x="1240" y="-579.75" font-family="Arial" font-size="15.00">main_screen</text>
</g>
<!-- /lib/main.dart&#45;&gt;/lib/main_screen.dart -->
<g id="edge54" class="edge">
<title>/lib/main.dart&#45;&gt;/lib/main_screen.dart</title>
<path fill="none" stroke="#aabbaa" stroke-width="1.3" stroke-opacity="0.533333" d="M622.3,-653.04C718.06,-642.64 1040.24,-607.68 1177.37,-592.8"/>
<polygon fill="#aabbaa" fill-opacity="0.533333" stroke="#aabbaa" stroke-width="1.3" stroke-opacity="0.533333" points="1177.36,-596.32 1186.92,-591.76 1176.6,-589.36 1177.36,-596.32"/>
</g>
<!-- /lib/files/xcf_reader.dart&#45;&gt;/lib/helpers/list_helper.dart -->
<g id="edge56" class="edge">
<title>/lib/files/xcf_reader.dart&#45;&gt;/lib/helpers/list_helper.dart</title>
<path fill="none" stroke="#aabbaa" stroke-width="1.3" stroke-opacity="0.533333" d="M1066.66,-341.51C1061.12,-338.91 1055.43,-336.33 1050,-334 948.66,-290.51 907.92,-309.84 818,-246 759.04,-204.14 725.26,-161.91 755,-96 758.33,-88.62 763.53,-81.97 769.36,-76.19"/>
<polygon fill="#aabbaa" fill-opacity="0.533333" stroke="#aabbaa" stroke-width="1.3" stroke-opacity="0.533333" points="771.58,-78.9 776.74,-69.65 766.94,-73.66 771.58,-78.9"/>
</g>
<!-- /lib/files/file_jpeg.dart -->
<g id="node30" class="node">
<title>/lib/files/file_jpeg.dart</title>
<path fill="Lavender" stroke="black" stroke-width="1.3" d="M753.38,-306C753.38,-306 706.62,-306 706.62,-306 700.62,-306 694.62,-300 694.62,-294 694.62,-294 694.62,-282 694.62,-282 694.62,-276 700.62,-270 706.62,-270 706.62,-270 753.38,-270 753.38,-270 759.38,-270 765.38,-276 765.38,-282 765.38,-282 765.38,-294 765.38,-294 765.38,-300 759.38,-306 753.38,-306"/>
<text text-anchor="middle" x="730" y="-282.75" font-family="Arial" font-size="15.00">file_jpeg</text>
</g>
<!-- /lib/files/export_download_web.dart -->
<g id="node31" class="node">
<title>/lib/files/export_download_web.dart</title>
<path fill="Lavender" stroke="black" stroke-width="1.3" d="M813.25,-378C813.25,-378 672.75,-378 672.75,-378 666.75,-378 660.75,-372 660.75,-366 660.75,-366 660.75,-354 660.75,-354 660.75,-348 666.75,-342 672.75,-342 672.75,-342 813.25,-342 813.25,-342 819.25,-342 825.25,-348 825.25,-354 825.25,-354 825.25,-366 825.25,-366 825.25,-372 819.25,-378 813.25,-378"/>
<text text-anchor="middle" x="743" y="-354.75" font-family="Arial" font-size="15.00">export_download_web</text>
</g>
<!-- /lib/files/export_download_web.dart&#45;&gt;/lib/panels/share_panel.dart -->
<g id="edge60" class="edge">
<title>/lib/files/export_download_web.dart&#45;&gt;/lib/panels/share_panel.dart</title>
<path fill="none" stroke="#aabbaa" stroke-width="1.3" stroke-opacity="0.533333" d="M768.19,-378.45C787.53,-391.31 815.51,-407.17 843,-413 858.08,-416.2 1937.92,-416.2 1953,-413 1969.07,-409.59 1983.3,-398.39 1994.07,-387.16"/>
<polygon fill="#aabbaa" fill-opacity="0.533333" stroke="#aabbaa" stroke-width="1.3" stroke-opacity="0.533333" points="1996.61,-389.57 2000.62,-379.77 1991.37,-384.93 1996.61,-389.57"/>
</g>
<!-- /lib/files/export_download_web.dart&#45;&gt;/lib/models/app_model.dart -->
<g id="edge59" class="edge">
<title>/lib/files/export_download_web.dart&#45;&gt;/lib/models/app_model.dart</title>
<path fill="none" stroke="#aabbaa" stroke-width="1.3" stroke-opacity="0.533333" d="M685.33,-341.54C653.73,-331.68 613.99,-318.8 579,-306 521.72,-285.05 509.24,-275.06 452,-254 413.94,-240 370.5,-225.79 336.93,-215.2"/>
<polygon fill="#aabbaa" fill-opacity="0.533333" stroke="#aabbaa" stroke-width="1.3" stroke-opacity="0.533333" points="338.42,-211.99 327.83,-212.34 336.32,-218.67 338.42,-211.99"/>
</g>
<!-- /lib/files/export_download_web.dart&#45;&gt;/lib/files/file_jpeg.dart -->
<g id="edge57" class="edge">
<title>/lib/files/export_download_web.dart&#45;&gt;/lib/files/file_jpeg.dart</title>
<path fill="none" stroke="#aabbaa" stroke-width="1.3" stroke-opacity="0.533333" d="M739.79,-341.7C738.45,-334.49 736.86,-325.93 735.35,-317.82"/>
<polygon fill="#aabbaa" fill-opacity="0.533333" stroke="#aabbaa" stroke-width="1.3" stroke-opacity="0.533333" points="738.8,-317.23 733.54,-308.04 731.92,-318.51 738.8,-317.23"/>
</g>
<!-- /lib/files/file_ora.dart -->
<g id="node32" class="node">
<title>/lib/files/file_ora.dart</title>
<path fill="Lavender" stroke="black" stroke-width="1.3" d="M664.38,-306C664.38,-306 623.62,-306 623.62,-306 617.62,-306 611.62,-300 611.62,-294 611.62,-294 611.62,-282 611.62,-282 611.62,-276 617.62,-270 623.62,-270 623.62,-270 664.38,-270 664.38,-270 670.38,-270 676.38,-276 676.38,-282 676.38,-282 676.38,-294 676.38,-294 676.38,-300 670.38,-306 664.38,-306"/>
<text text-anchor="middle" x="644" y="-282.75" font-family="Arial" font-size="15.00">file_ora</text>
</g>
<!-- /lib/files/export_download_web.dart&#45;&gt;/lib/files/file_ora.dart -->
<g id="edge58" class="edge">
<title>/lib/files/export_download_web.dart&#45;&gt;/lib/files/file_ora.dart</title>
<path fill="none" stroke="#aabbaa" stroke-width="1.3" stroke-opacity="0.533333" d="M718.27,-341.52C706.13,-332.93 691.32,-322.46 678.12,-313.12"/>
<polygon fill="#aabbaa" fill-opacity="0.533333" stroke="#aabbaa" stroke-width="1.3" stroke-opacity="0.533333" points="680.2,-310.31 670.02,-307.4 676.16,-316.03 680.2,-310.31"/>
</g>
<!-- /lib/files/file_ora.dart&#45;&gt;/lib/models/app_model.dart -->
<g id="edge62" class="edge">
<title>/lib/files/file_ora.dart&#45;&gt;/lib/models/app_model.dart</title>
<path fill="none" stroke="#aabbaa" stroke-width="1.3" stroke-opacity="0.533333" d="M619.23,-269.54C610.09,-263.82 599.42,-257.92 589,-254 504.9,-222.33 400.95,-208.21 337.88,-202.18"/>
<polygon fill="#aabbaa" fill-opacity="0.533333" stroke="#aabbaa" stroke-width="1.3" stroke-opacity="0.533333" points="338.45,-198.72 328.17,-201.29 337.81,-205.69 338.45,-198.72"/>
</g>
<!-- /lib/files/file_ora.dart&#45;&gt;/lib/helpers/list_helper.dart -->
<g id="edge61" class="edge">
<title>/lib/files/file_ora.dart&#45;&gt;/lib/helpers/list_helper.dart</title>
<path fill="none" stroke="#aabbaa" stroke-width="1.3" stroke-opacity="0.533333" d="M649.36,-269.74C661.11,-234.04 691.97,-150.87 740,-96 746.76,-88.27 755.13,-81.25 763.62,-75.18"/>
<polygon fill="#aabbaa" fill-opacity="0.533333" stroke="#aabbaa" stroke-width="1.3" stroke-opacity="0.533333" points="765.57,-78.08 771.91,-69.59 761.66,-72.28 765.57,-78.08"/>
</g>
<!-- /lib/files/save.dart&#45;&gt;/lib/models/app_model.dart -->
<g id="edge63" class="edge">
<title>/lib/files/save.dart&#45;&gt;/lib/models/app_model.dart</title>
<path fill="none" stroke="#aabbaa" stroke-width="1.3" stroke-opacity="0.533333" d="M481.03,-341.77C440.97,-312.98 360.31,-255.01 314.61,-222.15"/>
<polygon fill="#aabbaa" fill-opacity="0.533333" stroke="#aabbaa" stroke-width="1.3" stroke-opacity="0.533333" points="316.9,-219.49 306.74,-216.5 312.81,-225.18 316.9,-219.49"/>
</g>
<!-- /lib/files/export_download_non_web.dart -->
<g id="node34" class="node">
<title>/lib/files/export_download_non_web.dart</title>
<path fill="Lavender" stroke="black" stroke-width="1.3" d="M1028.75,-378C1028.75,-378 855.25,-378 855.25,-378 849.25,-378 843.25,-372 843.25,-366 843.25,-366 843.25,-354 843.25,-354 843.25,-348 849.25,-342 855.25,-342 855.25,-342 1028.75,-342 1028.75,-342 1034.75,-342 1040.75,-348 1040.75,-354 1040.75,-354 1040.75,-366 1040.75,-366 1040.75,-372 1034.75,-378 1028.75,-378"/>
<text text-anchor="middle" x="942" y="-354.75" font-family="Arial" font-size="15.00">export_download_non_web</text>
</g>
<!-- /lib/files/export_download_non_web.dart&#45;&gt;/lib/panels/share_panel.dart -->
<g id="edge67" class="edge">
<title>/lib/files/export_download_non_web.dart&#45;&gt;/lib/panels/share_panel.dart</title>
<path fill="none" stroke="#aabbaa" stroke-width="1.3" stroke-opacity="0.533333" d="M972.23,-378.29C994.92,-390.88 1027.24,-406.47 1058,-413 1082.32,-418.16 1928.68,-418.16 1953,-413 1969.07,-409.59 1983.3,-398.39 1994.07,-387.16"/>
<polygon fill="#aabbaa" fill-opacity="0.533333" stroke="#aabbaa" stroke-width="1.3" stroke-opacity="0.533333" points="1996.61,-389.57 2000.62,-379.77 1991.37,-384.93 1996.61,-389.57"/>
</g>
<!-- /lib/files/export_download_non_web.dart&#45;&gt;/lib/models/app_model.dart -->
<g id="edge66" class="edge">
<title>/lib/files/export_download_non_web.dart&#45;&gt;/lib/models/app_model.dart</title>
<path fill="none" stroke="#aabbaa" stroke-width="1.3" stroke-opacity="0.533333" d="M871.35,-341.51C858.95,-338.76 846.13,-336.13 834,-334 732.14,-316.09 700.4,-340.77 603,-306 562.36,-291.49 560.8,-270.69 521,-254 461.04,-228.85 387.69,-213.82 337.98,-205.77"/>
<polygon fill="#aabbaa" fill-opacity="0.533333" stroke="#aabbaa" stroke-width="1.3" stroke-opacity="0.533333" points="338.55,-202.31 328.13,-204.22 337.47,-209.23 338.55,-202.31"/>
</g>
<!-- /lib/files/export_download_non_web.dart&#45;&gt;/lib/files/file_jpeg.dart -->
<g id="edge64" class="edge">
<title>/lib/files/export_download_non_web.dart&#45;&gt;/lib/files/file_jpeg.dart</title>
<path fill="none" stroke="#aabbaa" stroke-width="1.3" stroke-opacity="0.533333" d="M887.58,-341.6C855.86,-331.38 815.11,-318.13 779,-306 778.33,-305.78 777.66,-305.55 776.99,-305.32"/>
<polygon fill="#aabbaa" fill-opacity="0.533333" stroke="#aabbaa" stroke-width="1.3" stroke-opacity="0.533333" points="778.29,-302.07 767.69,-302.16 776.03,-308.69 778.29,-302.07"/>
</g>
<!-- /lib/files/export_download_non_web.dart&#45;&gt;/lib/files/file_ora.dart -->
<g id="edge65" class="edge">
<title>/lib/files/export_download_non_web.dart&#45;&gt;/lib/files/file_ora.dart</title>
<path fill="none" stroke="#aabbaa" stroke-width="1.3" stroke-opacity="0.533333" d="M868.31,-341.52C856.84,-338.92 845.11,-336.34 834,-334 771.94,-320.95 752.29,-324.43 687.97,-306.24"/>
<polygon fill="#aabbaa" fill-opacity="0.533333" stroke="#aabbaa" stroke-width="1.3" stroke-opacity="0.533333" points="689.27,-302.97 678.69,-303.54 687.31,-309.69 689.27,-302.97"/>
</g>
<!-- /lib/files/import_files.dart&#45;&gt;/lib/models/app_model.dart -->
<g id="edge69" class="edge">
<title>/lib/files/import_files.dart&#45;&gt;/lib/models/app_model.dart</title>
<path fill="none" stroke="#aabbaa" stroke-width="1.3" stroke-opacity="0.533333" d="M564.32,-341.68C525.4,-320.53 457.24,-283.87 398,-254 375.48,-242.65 350.28,-230.51 329.05,-220.45"/>
<polygon fill="#aabbaa" fill-opacity="0.533333" stroke="#aabbaa" stroke-width="1.3" stroke-opacity="0.533333" points="330.66,-217.34 320.12,-216.23 327.67,-223.67 330.66,-217.34"/>
</g>
<!-- /lib/files/import_files.dart&#45;&gt;/lib/files/file_ora.dart -->
<g id="edge68" class="edge">
<title>/lib/files/import_files.dart&#45;&gt;/lib/files/file_ora.dart</title>
<path fill="none" stroke="#aabbaa" stroke-width="1.3" stroke-opacity="0.533333" d="M607.87,-341.7C613.21,-333.9 619.65,-324.51 625.6,-315.83"/>
<polygon fill="#aabbaa" fill-opacity="0.533333" stroke="#aabbaa" stroke-width="1.3" stroke-opacity="0.533333" points="628.39,-317.95 631.16,-307.73 622.62,-314 628.39,-317.95"/>
</g>
<!-- /lib/main_screen.dart&#45;&gt;/lib/panels/tools/flood_fill.dart -->
<g id="edge72" class="edge">
<title>/lib/main_screen.dart&#45;&gt;/lib/panels/tools/flood_fill.dart</title>
<path fill="none" stroke="#aabbaa" stroke-width="1.3" stroke-opacity="0.533333" d="M1291.08,-566.81C1293.72,-564.52 1296.07,-561.93 1298,-559 1314.37,-534.12 1313.32,-517.53 1298,-492 1294.11,-485.52 1288.97,-488.63 1283,-484 1274.78,-477.63 1266.79,-469.64 1259.92,-462.01"/>
<polygon fill="#aabbaa" fill-opacity="0.533333" stroke="#aabbaa" stroke-width="1.3" stroke-opacity="0.533333" points="1262.9,-460.11 1253.71,-454.84 1257.61,-464.69 1262.9,-460.11"/>
</g>
<!-- /lib/main_screen.dart&#45;&gt;/lib/panels/canvas_panel.dart -->
<g id="edge70" class="edge">
<title>/lib/main_screen.dart&#45;&gt;/lib/panels/canvas_panel.dart</title>
<path fill="none" stroke="#aabbaa" stroke-width="1.3" stroke-opacity="0.533333" d="M1290.96,-584.74C1411.77,-584.85 1723.3,-575.46 1962,-484 2017.6,-462.7 2045.07,-461.58 2073,-409 2088.64,-379.56 2086.86,-364.32 2073,-334 2069.63,-326.63 2064.4,-320.01 2058.52,-314.25"/>
<polygon fill="#aabbaa" fill-opacity="0.533333" stroke="#aabbaa" stroke-width="1.3" stroke-opacity="0.533333" points="2060.91,-311.69 2051.07,-307.75 2056.3,-316.96 2060.91,-311.69"/>
</g>
<!-- /lib/main_screen.dart&#45;&gt;/lib/panels/side_panel.dart -->
<g id="edge71" class="edge">
<title>/lib/main_screen.dart&#45;&gt;/lib/panels/side_panel.dart</title>
<path fill="none" stroke="#aabbaa" stroke-width="1.3" stroke-opacity="0.533333" d="M1240,-566.7C1240,-558.76 1240,-549.12 1240,-540.11"/>
<polygon fill="#aabbaa" fill-opacity="0.533333" stroke="#aabbaa" stroke-width="1.3" stroke-opacity="0.533333" points="1243.5,-540.4 1240,-530.4 1236.5,-540.4 1243.5,-540.4"/>
</g>
<!-- /lib/main_screen.dart&#45;&gt;/lib/models/app_model.dart -->
<g id="edge73" class="edge">
<title>/lib/main_screen.dart&#45;&gt;/lib/models/app_model.dart</title>
<path fill="none" stroke="#aabbaa" stroke-width="1.3" stroke-opacity="0.533333" d="M1188.78,-582.85C979.83,-577.69 199.01,-553.84 116,-484 76.87,-451.08 71.18,-288.42 109,-254 128.6,-236.16 203.6,-256.36 228,-246 239.66,-241.05 250.44,-232.43 259.19,-223.84"/>
<polygon fill="#aabbaa" fill-opacity="0.533333" stroke="#aabbaa" stroke-width="1.3" stroke-opacity="0.533333" points="261.51,-226.48 265.87,-216.83 256.44,-221.66 261.51,-226.48"/>
</g>
<!-- /lib/helpers/color_helper.dart&#45;&gt;/lib/helpers/list_helper.dart -->
<g id="edge74" class="edge">
<title>/lib/helpers/color_helper.dart&#45;&gt;/lib/helpers/list_helper.dart</title>
<path fill="none" stroke="#aabbaa" stroke-width="1.3" stroke-opacity="0.533333" d="M811.27,-103.7C810.55,-96.49 809.69,-87.93 808.88,-79.82"/>
<polygon fill="#aabbaa" fill-opacity="0.533333" stroke="#aabbaa" stroke-width="1.3" stroke-opacity="0.533333" points="812.38,-79.66 807.91,-70.06 805.42,-80.36 812.38,-79.66"/>
</g>
<!-- /lib/widgets/brush_style_picker.dart&#45;&gt;/lib/models/app_model.dart -->
<g id="edge75" class="edge">
<title>/lib/widgets/brush_style_picker.dart&#45;&gt;/lib/models/app_model.dart</title>
<path fill="none" stroke="#aabbaa" stroke-width="1.3" stroke-opacity="0.533333" d="M885.27,-197C702.81,-197 520.35,-197 337.89,-197"/>
<polygon fill="#aabbaa" fill-opacity="0.533333" stroke="#aabbaa" stroke-width="1.3" stroke-opacity="0.533333" points="338.12,-193.5 328.12,-197 338.12,-200.5 338.12,-193.5"/>
</g>
<!-- /lib/widgets/color_picker.dart&#45;&gt;/lib/helpers/list_helper.dart -->
<g id="edge77" class="edge">
<title>/lib/widgets/color_picker.dart&#45;&gt;/lib/helpers/list_helper.dart</title>
<path fill="none" stroke="#aabbaa" stroke-width="1.3" stroke-opacity="0.533333" d="M1987.65,-180.89C1984.74,-180.19 1981.84,-179.56 1979,-179 1943.07,-171.96 1933.42,-174.78 1897,-171 1498.46,-129.64 1018.57,-75.27 859.85,-57.16"/>
<polygon fill="#aabbaa" fill-opacity="0.533333" stroke="#aabbaa" stroke-width="1.3" stroke-opacity="0.533333" points="860.39,-53.7 850.06,-56.04 859.6,-60.65 860.39,-53.7"/>
</g>
<!-- /lib/widgets/color_picker.dart&#45;&gt;/lib/helpers/color_helper.dart -->
<g id="edge76" class="edge">
<title>/lib/widgets/color_picker.dart&#45;&gt;/lib/helpers/color_helper.dart</title>
<path fill="none" stroke="#aabbaa" stroke-width="1.3" stroke-opacity="0.533333" d="M1987.39,-180.52C1984.57,-179.93 1981.76,-179.41 1979,-179 1948.64,-174.46 902.97,-181.15 874,-171 860.56,-166.29 847.83,-157.29 837.5,-148.35"/>
<polygon fill="#aabbaa" fill-opacity="0.533333" stroke="#aabbaa" stroke-width="1.3" stroke-opacity="0.533333" points="839.92,-145.82 830.19,-141.61 835.17,-150.96 839.92,-145.82"/>
</g>
<!-- /lib/widgets/color_picker.dart&#45;&gt;/lib/widgets/transparent_background.dart -->
<g id="edge78" class="edge">
<title>/lib/widgets/color_picker.dart&#45;&gt;/lib/widgets/transparent_background.dart</title>
<path fill="none" stroke="#aabbaa" stroke-width="1.3" stroke-opacity="0.533333" d="M2026.28,-178.7C2021.57,-170.31 2015.79,-160.02 2010.49,-150.58"/>
<polygon fill="#aabbaa" fill-opacity="0.533333" stroke="#aabbaa" stroke-width="1.3" stroke-opacity="0.533333" points="2013.7,-149.15 2005.75,-142.14 2007.6,-152.58 2013.7,-149.15"/>
</g>
</g>
</svg>
