<?xml version="1.0" encoding="UTF-8" standalone="no"?>
<!DOCTYPE svg PUBLIC "-//W3C//DTD SVG 1.1//EN"
 "http://www.w3.org/Graphics/SVG/1.1/DTD/svg11.dtd">
<!-- Generated by graphviz version 12.2.1 (20241206.2353)
 -->
<!-- Pages: 1 -->
<svg width="409pt" height="592pt"
 viewBox="0.00 0.00 409.22 592.00" xmlns="http://www.w3.org/2000/svg" xmlns:xlink="http://www.w3.org/1999/xlink">
<g id="graph0" class="graph" transform="scale(1 1) rotate(0) translate(4 588)">
<polygon fill="white" stroke="none" points="-4,4 -4,-588 405.22,-588 405.22,4 -4,4"/>
<g id="clust1" class="cluster">
<title>cluster~</title>
<path fill="none" stroke="lightgray" stroke-width="2.6" d="M31.22,-8C31.22,-8 381.22,-8 381.22,-8 387.22,-8 393.22,-14 393.22,-20 393.22,-20 393.22,-564 393.22,-564 393.22,-570 387.22,-576 381.22,-576 381.22,-576 31.22,-576 31.22,-576 25.22,-576 19.22,-570 19.22,-564 19.22,-564 19.22,-20 19.22,-20 19.22,-14 25.22,-8 31.22,-8"/>
<text text-anchor="middle" x="206.22" y="-559.65" font-family="Arial Black" font-size="13.00">fpaint</text>
</g>
<g id="clust2" class="cluster">
<title>cluster~/test</title>
<path fill="none" stroke="lightgray" stroke-width="2.6" d="M39.22,-470C39.22,-470 271.22,-470 271.22,-470 277.22,-470 283.22,-476 283.22,-482 283.22,-482 283.22,-533 283.22,-533 283.22,-539 277.22,-545 271.22,-545 271.22,-545 39.22,-545 39.22,-545 33.22,-545 27.22,-539 27.22,-533 27.22,-533 27.22,-482 27.22,-482 27.22,-476 33.22,-470 39.22,-470"/>
<text text-anchor="middle" x="155.22" y="-528.65" font-family="Arial Black" font-size="13.00">test</text>
</g>
<g id="clust3" class="cluster">
<title>cluster~/lib</title>
<path fill="none" stroke="lightgray" stroke-width="2.6" d="M51.22,-16C51.22,-16 373.22,-16 373.22,-16 379.22,-16 385.22,-22 385.22,-28 385.22,-28 385.22,-450 385.22,-450 385.22,-456 379.22,-462 373.22,-462 373.22,-462 51.22,-462 51.22,-462 45.22,-462 39.22,-456 39.22,-450 39.22,-450 39.22,-28 39.22,-28 39.22,-22 45.22,-16 51.22,-16"/>
<text text-anchor="middle" x="212.22" y="-445.65" font-family="Arial Black" font-size="13.00">lib</text>
</g>
<g id="clust4" class="cluster">
<title>cluster~/lib/models</title>
<path fill="none" stroke="lightgray" stroke-width="2.6" d="M75.22,-24C75.22,-24 165.22,-24 165.22,-24 171.22,-24 177.22,-30 177.22,-36 177.22,-36 177.22,-231 177.22,-231 177.22,-237 171.22,-243 165.22,-243 165.22,-243 75.22,-243 75.22,-243 69.22,-243 63.22,-237 63.22,-231 63.22,-231 63.22,-36 63.22,-36 63.22,-30 69.22,-24 75.22,-24"/>
<text text-anchor="middle" x="120.22" y="-226.65" font-family="Arial Black" font-size="13.00">models</text>
</g>
<!-- /test/paint_model_test.dart -->
<g id="node1" class="node">
<title>/test/paint_model_test.dart</title>
<path fill="Lavender" stroke="black" stroke-width="1.3" d="M153.22,-514C153.22,-514 47.22,-514 47.22,-514 41.22,-514 35.22,-508 35.22,-502 35.22,-502 35.22,-490 35.22,-490 35.22,-484 41.22,-478 47.22,-478 47.22,-478 153.22,-478 153.22,-478 159.22,-478 165.22,-484 165.22,-490 165.22,-490 165.22,-502 165.22,-502 165.22,-508 159.22,-514 153.22,-514"/>
<text text-anchor="middle" x="100.22" y="-490.75" font-family="Arial" font-size="15.00">paint_model_test</text>
</g>
<!-- /lib/models/paint_model.dart -->
<g id="node6" class="node">
<title>/lib/models/paint_model.dart</title>
<path fill="Lavender" stroke="black" stroke-width="1.3" d="M156.72,-212C156.72,-212 83.72,-212 83.72,-212 77.72,-212 71.72,-206 71.72,-200 71.72,-200 71.72,-188 71.72,-188 71.72,-182 77.72,-176 83.72,-176 83.72,-176 156.72,-176 156.72,-176 162.72,-176 168.72,-182 168.72,-188 168.72,-188 168.72,-200 168.72,-200 168.72,-206 162.72,-212 156.72,-212"/>
<text text-anchor="middle" x="120.22" y="-188.75" font-family="Arial" font-size="15.00">paint_model</text>
</g>
<!-- /test/paint_model_test.dart&#45;&gt;/lib/models/paint_model.dart -->
<g id="edge1" class="edge">
<title>/test/paint_model_test.dart&#45;&gt;/lib/models/paint_model.dart</title>
<path fill="none" stroke="#aabbaa" stroke-width="1.3" stroke-opacity="0.533333" d="M50.61,-477.54C44.49,-473.37 39.06,-468.26 35.22,-462 -13.84,-382.08 -9.26,-333.56 35.22,-251 42.5,-237.49 54.62,-226.7 67.47,-218.34"/>
<polygon fill="#aabbaa" fill-opacity="0.533333" stroke="#aabbaa" stroke-width="1.3" stroke-opacity="0.533333" points="68.89,-221.56 75.67,-213.42 65.29,-215.56 68.89,-221.56"/>
</g>
<!-- /test/widget_test.dart -->
<g id="node2" class="node">
<title>/test/widget_test.dart</title>
<path fill="Lavender" stroke="black" stroke-width="1.3" d="M263.09,-514C263.09,-514 195.34,-514 195.34,-514 189.34,-514 183.34,-508 183.34,-502 183.34,-502 183.34,-490 183.34,-490 183.34,-484 189.34,-478 195.34,-478 195.34,-478 263.09,-478 263.09,-478 269.09,-478 275.09,-484 275.09,-490 275.09,-490 275.09,-502 275.09,-502 275.09,-508 269.09,-514 263.09,-514"/>
<text text-anchor="middle" x="229.22" y="-490.75" font-family="Arial" font-size="15.00">widget_test</text>
</g>
<!-- /lib/main.dart -->
<g id="node7" class="node">
<title>/lib/main.dart</title>
<path fill="Lavender" stroke="black" stroke-width="1.3" d="M198.22,-431C198.22,-431 168.22,-431 168.22,-431 162.22,-431 156.22,-425 156.22,-419 156.22,-419 156.22,-407 156.22,-407 156.22,-401 162.22,-395 168.22,-395 168.22,-395 198.22,-395 198.22,-395 204.22,-395 210.22,-401 210.22,-407 210.22,-407 210.22,-419 210.22,-419 210.22,-425 204.22,-431 198.22,-431"/>
<text text-anchor="middle" x="183.22" y="-407.75" font-family="Arial" font-size="15.00">main</text>
</g>
<!-- /test/widget_test.dart&#45;&gt;/lib/main.dart -->
<g id="edge2" class="edge">
<title>/test/widget_test.dart&#45;&gt;/lib/main.dart</title>
<path fill="none" stroke="#aabbaa" stroke-width="1.3" stroke-opacity="0.533333" d="M219.46,-477.82C213.53,-467.37 205.8,-453.77 199.01,-441.81"/>
<polygon fill="#aabbaa" fill-opacity="0.533333" stroke="#aabbaa" stroke-width="1.3" stroke-opacity="0.533333" points="202.07,-440.11 194.09,-433.14 195.98,-443.57 202.07,-440.11"/>
</g>
<!-- /lib/tools_panel.dart -->
<g id="node3" class="node">
<title>/lib/tools_panel.dart</title>
<path fill="Lavender" stroke="black" stroke-width="1.3" d="M365.09,-287C365.09,-287 297.34,-287 297.34,-287 291.34,-287 285.34,-281 285.34,-275 285.34,-275 285.34,-263 285.34,-263 285.34,-257 291.34,-251 297.34,-251 297.34,-251 365.09,-251 365.09,-251 371.09,-251 377.09,-257 377.09,-263 377.09,-263 377.09,-275 377.09,-275 377.09,-281 371.09,-287 365.09,-287"/>
<text text-anchor="middle" x="331.22" y="-263.75" font-family="Arial" font-size="15.00">tools_panel</text>
</g>
<!-- /lib/models/shapes.dart -->
<g id="node5" class="node">
<title>/lib/models/shapes.dart</title>
<path fill="Lavender" stroke="black" stroke-width="1.3" d="M140.22,-68C140.22,-68 100.22,-68 100.22,-68 94.22,-68 88.22,-62 88.22,-56 88.22,-56 88.22,-44 88.22,-44 88.22,-38 94.22,-32 100.22,-32 100.22,-32 140.22,-32 140.22,-32 146.22,-32 152.22,-38 152.22,-44 152.22,-44 152.22,-56 152.22,-56 152.22,-62 146.22,-68 140.22,-68"/>
<text text-anchor="middle" x="120.22" y="-44.75" font-family="Arial" font-size="15.00">shapes</text>
</g>
<!-- /lib/tools_panel.dart&#45;&gt;/lib/models/shapes.dart -->
<g id="edge3" class="edge">
<title>/lib/tools_panel.dart&#45;&gt;/lib/models/shapes.dart</title>
<path fill="none" stroke="#aabbaa" stroke-width="1.3" stroke-opacity="0.533333" d="M314.31,-250.61C277.27,-212.52 188.82,-121.55 145.29,-76.78"/>
<polygon fill="#aabbaa" fill-opacity="0.533333" stroke="#aabbaa" stroke-width="1.3" stroke-opacity="0.533333" points="148.06,-74.61 138.58,-69.88 143.04,-79.49 148.06,-74.61"/>
</g>
<!-- /lib/models/layers.dart -->
<g id="node4" class="node">
<title>/lib/models/layers.dart</title>
<path fill="Lavender" stroke="black" stroke-width="1.3" d="M136.09,-140C136.09,-140 104.34,-140 104.34,-140 98.34,-140 92.34,-134 92.34,-128 92.34,-128 92.34,-116 92.34,-116 92.34,-110 98.34,-104 104.34,-104 104.34,-104 136.09,-104 136.09,-104 142.09,-104 148.09,-110 148.09,-116 148.09,-116 148.09,-128 148.09,-128 148.09,-134 142.09,-140 136.09,-140"/>
<text text-anchor="middle" x="120.22" y="-116.75" font-family="Arial" font-size="15.00">layers</text>
</g>
<!-- /lib/models/layers.dart&#45;&gt;/lib/models/shapes.dart -->
<g id="edge4" class="edge">
<title>/lib/models/layers.dart&#45;&gt;/lib/models/shapes.dart</title>
<path fill="none" stroke="#aabbaa" stroke-width="1.3" stroke-opacity="0.533333" d="M114.3,-103.7C113.56,-96.49 113.31,-87.93 113.56,-79.82"/>
<polygon fill="#aabbaa" fill-opacity="0.533333" stroke="#aabbaa" stroke-width="1.3" stroke-opacity="0.533333" points="117.04,-80.27 114.2,-70.07 110.05,-79.82 117.04,-80.27"/>
</g>
<!-- /lib/models/layers.dart&#45;&gt;/lib/models/shapes.dart -->
<g id="edge5" class="edge">
<title>/lib/models/layers.dart&#45;&gt;/lib/models/shapes.dart</title>
<path fill="none" stroke="#aabbaa" stroke-width="1.3" stroke-dasharray="5,2" stroke-opacity="0.533333" d="M126.13,-103.7C126.88,-96.49 127.12,-87.93 126.87,-79.82"/>
<polygon fill="#aabbaa" fill-opacity="0.533333" stroke="#aabbaa" stroke-width="1.3" stroke-opacity="0.533333" points="130.38,-79.82 126.24,-70.07 123.4,-80.27 130.38,-79.82"/>
</g>
<!-- /lib/models/paint_model.dart&#45;&gt;/lib/models/layers.dart -->
<g id="edge6" class="edge">
<title>/lib/models/paint_model.dart&#45;&gt;/lib/models/layers.dart</title>
<path fill="none" stroke="#aabbaa" stroke-width="1.3" stroke-opacity="0.533333" d="M114.3,-175.7C113.56,-168.49 113.31,-159.93 113.56,-151.82"/>
<polygon fill="#aabbaa" fill-opacity="0.533333" stroke="#aabbaa" stroke-width="1.3" stroke-opacity="0.533333" points="117.04,-152.27 114.2,-142.07 110.05,-151.82 117.04,-152.27"/>
</g>
<!-- /lib/models/paint_model.dart&#45;&gt;/lib/models/layers.dart -->
<g id="edge7" class="edge">
<title>/lib/models/paint_model.dart&#45;&gt;/lib/models/layers.dart</title>
<path fill="none" stroke="#aabbaa" stroke-width="1.3" stroke-dasharray="5,2" stroke-opacity="0.533333" d="M126.13,-175.7C126.88,-168.49 127.12,-159.93 126.87,-151.82"/>
<polygon fill="#aabbaa" fill-opacity="0.533333" stroke="#aabbaa" stroke-width="1.3" stroke-opacity="0.533333" points="130.38,-151.82 126.24,-142.07 123.4,-152.27 130.38,-151.82"/>
</g>
<!-- /lib/main.dart&#45;&gt;/lib/models/paint_model.dart -->
<g id="edge9" class="edge">
<title>/lib/main.dart&#45;&gt;/lib/models/paint_model.dart</title>
<path fill="none" stroke="#aabbaa" stroke-width="1.3" stroke-opacity="0.533333" d="M157.7,-394.68C129.01,-373.34 84.44,-334.09 69.22,-287 64.29,-271.78 63.44,-265.92 69.22,-251 73.55,-239.81 81.28,-229.47 89.43,-220.81"/>
<polygon fill="#aabbaa" fill-opacity="0.533333" stroke="#aabbaa" stroke-width="1.3" stroke-opacity="0.533333" points="91.88,-223.32 96.55,-213.81 86.97,-218.33 91.88,-223.32"/>
</g>
<!-- /lib/home_screen.dart -->
<g id="node10" class="node">
<title>/lib/home_screen.dart</title>
<path fill="Lavender" stroke="black" stroke-width="1.3" d="M224.59,-359C224.59,-359 141.84,-359 141.84,-359 135.84,-359 129.84,-353 129.84,-347 129.84,-347 129.84,-335 129.84,-335 129.84,-329 135.84,-323 141.84,-323 141.84,-323 224.59,-323 224.59,-323 230.59,-323 236.59,-329 236.59,-335 236.59,-335 236.59,-347 236.59,-347 236.59,-353 230.59,-359 224.59,-359"/>
<text text-anchor="middle" x="183.22" y="-335.75" font-family="Arial" font-size="15.00">home_screen</text>
</g>
<!-- /lib/main.dart&#45;&gt;/lib/home_screen.dart -->
<g id="edge8" class="edge">
<title>/lib/main.dart&#45;&gt;/lib/home_screen.dart</title>
<path fill="none" stroke="#aabbaa" stroke-width="1.3" stroke-opacity="0.533333" d="M183.22,-394.7C183.22,-387.49 183.22,-378.93 183.22,-370.82"/>
<polygon fill="#aabbaa" fill-opacity="0.533333" stroke="#aabbaa" stroke-width="1.3" stroke-opacity="0.533333" points="186.72,-371.07 183.22,-361.07 179.72,-371.07 186.72,-371.07"/>
</g>
<!-- /lib/layers_panel.dart -->
<g id="node8" class="node">
<title>/lib/layers_panel.dart</title>
<path fill="Lavender" stroke="black" stroke-width="1.3" d="M175.22,-287C175.22,-287 99.22,-287 99.22,-287 93.22,-287 87.22,-281 87.22,-275 87.22,-275 87.22,-263 87.22,-263 87.22,-257 93.22,-251 99.22,-251 99.22,-251 175.22,-251 175.22,-251 181.22,-251 187.22,-257 187.22,-263 187.22,-263 187.22,-275 187.22,-275 187.22,-281 181.22,-287 175.22,-287"/>
<text text-anchor="middle" x="137.22" y="-263.75" font-family="Arial" font-size="15.00">layers_panel</text>
</g>
<!-- /lib/layers_panel.dart&#45;&gt;/lib/models/paint_model.dart -->
<g id="edge10" class="edge">
<title>/lib/layers_panel.dart&#45;&gt;/lib/models/paint_model.dart</title>
<path fill="none" stroke="#aabbaa" stroke-width="1.3" stroke-opacity="0.533333" d="M133.19,-250.7C131.32,-242.67 129.04,-232.9 126.93,-223.8"/>
<polygon fill="#aabbaa" fill-opacity="0.533333" stroke="#aabbaa" stroke-width="1.3" stroke-opacity="0.533333" points="130.4,-223.29 124.72,-214.35 123.58,-224.88 130.4,-223.29"/>
</g>
<!-- /lib/painter.dart -->
<g id="node9" class="node">
<title>/lib/painter.dart</title>
<path fill="Lavender" stroke="black" stroke-width="1.3" d="M255.09,-287C255.09,-287 217.34,-287 217.34,-287 211.34,-287 205.34,-281 205.34,-275 205.34,-275 205.34,-263 205.34,-263 205.34,-257 211.34,-251 217.34,-251 217.34,-251 255.09,-251 255.09,-251 261.09,-251 267.09,-257 267.09,-263 267.09,-263 267.09,-275 267.09,-275 267.09,-281 261.09,-287 255.09,-287"/>
<text text-anchor="middle" x="236.22" y="-263.75" font-family="Arial" font-size="15.00">painter</text>
</g>
<!-- /lib/painter.dart&#45;&gt;/lib/models/paint_model.dart -->
<g id="edge11" class="edge">
<title>/lib/painter.dart&#45;&gt;/lib/models/paint_model.dart</title>
<path fill="none" stroke="#aabbaa" stroke-width="1.3" stroke-opacity="0.533333" d="M204.86,-254.44C201.95,-253.25 199.03,-252.09 196.22,-251 186.12,-247.1 182.53,-248.52 173.22,-243 162.92,-236.89 152.85,-228.57 144.31,-220.57"/>
<polygon fill="#aabbaa" fill-opacity="0.533333" stroke="#aabbaa" stroke-width="1.3" stroke-opacity="0.533333" points="147.01,-218.32 137.42,-213.83 142.12,-223.32 147.01,-218.32"/>
</g>
<!-- /lib/home_screen.dart&#45;&gt;/lib/tools_panel.dart -->
<g id="edge13" class="edge">
<title>/lib/home_screen.dart&#45;&gt;/lib/tools_panel.dart</title>
<path fill="none" stroke="#aabbaa" stroke-width="1.3" stroke-opacity="0.533333" d="M220.18,-322.52C239.41,-313.42 263.14,-302.2 283.72,-292.46"/>
<polygon fill="#aabbaa" fill-opacity="0.533333" stroke="#aabbaa" stroke-width="1.3" stroke-opacity="0.533333" points="285.15,-295.66 292.69,-288.22 282.15,-289.33 285.15,-295.66"/>
</g>
<!-- /lib/home_screen.dart&#45;&gt;/lib/models/paint_model.dart -->
<g id="edge14" class="edge">
<title>/lib/home_screen.dart&#45;&gt;/lib/models/paint_model.dart</title>
<path fill="none" stroke="#aabbaa" stroke-width="1.3" stroke-opacity="0.533333" d="M129.55,-325.95C109.89,-317.92 89.67,-305.61 78.22,-287 65.23,-265.89 79.33,-240.09 94.6,-221.19"/>
<polygon fill="#aabbaa" fill-opacity="0.533333" stroke="#aabbaa" stroke-width="1.3" stroke-opacity="0.533333" points="97.14,-223.6 101.03,-213.75 91.84,-219.03 97.14,-223.6"/>
</g>
<!-- /lib/home_screen.dart&#45;&gt;/lib/layers_panel.dart -->
<g id="edge12" class="edge">
<title>/lib/home_screen.dart&#45;&gt;/lib/layers_panel.dart</title>
<path fill="none" stroke="#aabbaa" stroke-width="1.3" stroke-opacity="0.533333" d="M171.85,-322.7C166.72,-314.9 160.55,-305.51 154.85,-296.83"/>
<polygon fill="#aabbaa" fill-opacity="0.533333" stroke="#aabbaa" stroke-width="1.3" stroke-opacity="0.533333" points="157.95,-295.18 149.54,-288.75 152.11,-299.03 157.95,-295.18"/>
</g>
<!-- /lib/home_screen.dart&#45;&gt;/lib/painter.dart -->
<g id="edge15" class="edge">
<title>/lib/home_screen.dart&#45;&gt;/lib/painter.dart</title>
<path fill="none" stroke="#aabbaa" stroke-width="1.3" stroke-opacity="0.533333" d="M196.32,-322.7C202.29,-314.81 209.49,-305.3 216.12,-296.55"/>
<polygon fill="#aabbaa" fill-opacity="0.533333" stroke="#aabbaa" stroke-width="1.3" stroke-opacity="0.533333" points="218.83,-298.76 222.08,-288.67 213.25,-294.53 218.83,-298.76"/>
</g>
</g>
</svg>
