<?xml version="1.0" encoding="UTF-8" standalone="no"?>
<!DOCTYPE svg PUBLIC "-//W3C//DTD SVG 1.1//EN"
 "http://www.w3.org/Graphics/SVG/1.1/DTD/svg11.dtd">
<!-- Generated by graphviz version 12.2.1 (20241206.2353)
 -->
<!-- Pages: 1 -->
<svg width="572pt" height="448pt"
 viewBox="0.00 0.00 572.00 448.00" xmlns="http://www.w3.org/2000/svg" xmlns:xlink="http://www.w3.org/1999/xlink">
<g id="graph0" class="graph" transform="scale(1 1) rotate(0) translate(4 444)">
<polygon fill="white" stroke="none" points="-4,4 -4,-444 568,-444 568,4 -4,4"/>
<g id="clust1" class="cluster">
<title>cluster~</title>
<path fill="none" stroke="lightgray" stroke-width="2.6" d="M20,-8C20,-8 544,-8 544,-8 550,-8 556,-14 556,-20 556,-20 556,-420 556,-420 556,-426 550,-432 544,-432 544,-432 20,-432 20,-432 14,-432 8,-426 8,-420 8,-420 8,-20 8,-20 8,-14 14,-8 20,-8"/>
<text text-anchor="middle" x="282" y="-415.65" font-family="Arial Black" font-size="13.00">fpaint</text>
</g>
<g id="clust2" class="cluster">
<title>cluster~/test</title>
<path fill="none" stroke="lightgray" stroke-width="2.6" d="M46,-326C46,-326 278,-326 278,-326 284,-326 290,-332 290,-338 290,-338 290,-389 290,-389 290,-395 284,-401 278,-401 278,-401 46,-401 46,-401 40,-401 34,-395 34,-389 34,-389 34,-338 34,-338 34,-332 40,-326 46,-326"/>
<text text-anchor="middle" x="162" y="-384.65" font-family="Arial Black" font-size="13.00">test</text>
</g>
<g id="clust3" class="cluster">
<title>cluster~/lib</title>
<path fill="none" stroke="lightgray" stroke-width="2.6" d="M28,-16C28,-16 536,-16 536,-16 542,-16 548,-22 548,-28 548,-28 548,-306 548,-306 548,-312 542,-318 536,-318 536,-318 28,-318 28,-318 22,-318 16,-312 16,-306 16,-306 16,-28 16,-28 16,-22 22,-16 28,-16"/>
<text text-anchor="middle" x="282" y="-301.65" font-family="Arial Black" font-size="13.00">lib</text>
</g>
<g id="clust4" class="cluster">
<title>cluster~/lib/panels</title>
<path fill="none" stroke="lightgray" stroke-width="2.6" d="M326,-24C326,-24 528,-24 528,-24 534,-24 540,-30 540,-36 540,-36 540,-159 540,-159 540,-165 534,-171 528,-171 528,-171 326,-171 326,-171 320,-171 314,-165 314,-159 314,-159 314,-36 314,-36 314,-30 320,-24 326,-24"/>
<text text-anchor="middle" x="427" y="-154.65" font-family="Arial Black" font-size="13.00">panels</text>
</g>
<g id="clust5" class="cluster">
<title>cluster~/lib/models</title>
<path fill="none" stroke="lightgray" stroke-width="2.6" d="M36,-24C36,-24 200,-24 200,-24 206,-24 212,-30 212,-36 212,-36 212,-159 212,-159 212,-165 206,-171 200,-171 200,-171 36,-171 36,-171 30,-171 24,-165 24,-159 24,-159 24,-36 24,-36 24,-30 30,-24 36,-24"/>
<text text-anchor="middle" x="118" y="-154.65" font-family="Arial Black" font-size="13.00">models</text>
</g>
<!-- /test/paint_model_test.dart -->
<g id="node1" class="node">
<title>/test/paint_model_test.dart</title>
<path fill="Lavender" stroke="black" stroke-width="1.3" d="M160,-370C160,-370 54,-370 54,-370 48,-370 42,-364 42,-358 42,-358 42,-346 42,-346 42,-340 48,-334 54,-334 54,-334 160,-334 160,-334 166,-334 172,-340 172,-346 172,-346 172,-358 172,-358 172,-364 166,-370 160,-370"/>
<text text-anchor="middle" x="107" y="-346.75" font-family="Arial" font-size="15.00">paint_model_test</text>
</g>
<!-- /lib/models/app_model.dart -->
<g id="node8" class="node">
<title>/lib/models/app_model.dart</title>
<path fill="Lavender" stroke="black" stroke-width="1.3" d="M191.75,-68C191.75,-68 126.25,-68 126.25,-68 120.25,-68 114.25,-62 114.25,-56 114.25,-56 114.25,-44 114.25,-44 114.25,-38 120.25,-32 126.25,-32 126.25,-32 191.75,-32 191.75,-32 197.75,-32 203.75,-38 203.75,-44 203.75,-44 203.75,-56 203.75,-56 203.75,-62 197.75,-68 191.75,-68"/>
<text text-anchor="middle" x="159" y="-44.75" font-family="Arial" font-size="15.00">app_model</text>
</g>
<!-- /test/paint_model_test.dart&#45;&gt;/lib/models/app_model.dart -->
<g id="edge1" class="edge">
<title>/test/paint_model_test.dart&#45;&gt;/lib/models/app_model.dart</title>
<path fill="none" stroke="#aabbaa" stroke-width="1.3" stroke-opacity="0.533333" d="M104.03,-333.77C97.66,-292.44 85.71,-185.08 117,-104 120.67,-94.5 126.67,-85.35 133.01,-77.41"/>
<polygon fill="#aabbaa" fill-opacity="0.533333" stroke="#aabbaa" stroke-width="1.3" stroke-opacity="0.533333" points="135.62,-79.74 139.48,-69.87 130.31,-75.18 135.62,-79.74"/>
</g>
<!-- /test/widget_test.dart -->
<g id="node2" class="node">
<title>/test/widget_test.dart</title>
<path fill="Lavender" stroke="black" stroke-width="1.3" d="M269.88,-370C269.88,-370 202.12,-370 202.12,-370 196.12,-370 190.12,-364 190.12,-358 190.12,-358 190.12,-346 190.12,-346 190.12,-340 196.12,-334 202.12,-334 202.12,-334 269.88,-334 269.88,-334 275.88,-334 281.88,-340 281.88,-346 281.88,-346 281.88,-358 281.88,-358 281.88,-364 275.88,-370 269.88,-370"/>
<text text-anchor="middle" x="236" y="-346.75" font-family="Arial" font-size="15.00">widget_test</text>
</g>
<!-- /lib/main.dart -->
<g id="node9" class="node">
<title>/lib/main.dart</title>
<path fill="Lavender" stroke="black" stroke-width="1.3" d="M251,-287C251,-287 221,-287 221,-287 215,-287 209,-281 209,-275 209,-275 209,-263 209,-263 209,-257 215,-251 221,-251 221,-251 251,-251 251,-251 257,-251 263,-257 263,-263 263,-263 263,-275 263,-275 263,-281 257,-287 251,-287"/>
<text text-anchor="middle" x="236" y="-263.75" font-family="Arial" font-size="15.00">main</text>
</g>
<!-- /test/widget_test.dart&#45;&gt;/lib/main.dart -->
<g id="edge2" class="edge">
<title>/test/widget_test.dart&#45;&gt;/lib/main.dart</title>
<path fill="none" stroke="#aabbaa" stroke-width="1.3" stroke-opacity="0.533333" d="M236,-333.82C236,-323.8 236,-310.88 236,-299.29"/>
<polygon fill="#aabbaa" fill-opacity="0.533333" stroke="#aabbaa" stroke-width="1.3" stroke-opacity="0.533333" points="239.5,-299.4 236,-289.4 232.5,-299.4 239.5,-299.4"/>
</g>
<!-- /lib/panels/tools_panel.dart -->
<g id="node3" class="node">
<title>/lib/panels/tools_panel.dart</title>
<path fill="Lavender" stroke="black" stroke-width="1.3" d="M519.88,-140C519.88,-140 452.12,-140 452.12,-140 446.12,-140 440.12,-134 440.12,-128 440.12,-128 440.12,-116 440.12,-116 440.12,-110 446.12,-104 452.12,-104 452.12,-104 519.88,-104 519.88,-104 525.88,-104 531.88,-110 531.88,-116 531.88,-116 531.88,-128 531.88,-128 531.88,-134 525.88,-140 519.88,-140"/>
<text text-anchor="middle" x="486" y="-116.75" font-family="Arial" font-size="15.00">tools_panel</text>
</g>
<!-- /lib/panels/tool.dart -->
<g id="node5" class="node">
<title>/lib/panels/tool.dart</title>
<path fill="Lavender" stroke="black" stroke-width="1.3" d="M501,-68C501,-68 471,-68 471,-68 465,-68 459,-62 459,-56 459,-56 459,-44 459,-44 459,-38 465,-32 471,-32 471,-32 501,-32 501,-32 507,-32 513,-38 513,-44 513,-44 513,-56 513,-56 513,-62 507,-68 501,-68"/>
<text text-anchor="middle" x="486" y="-44.75" font-family="Arial" font-size="15.00">tool</text>
</g>
<!-- /lib/panels/tools_panel.dart&#45;&gt;/lib/panels/tool.dart -->
<g id="edge4" class="edge">
<title>/lib/panels/tools_panel.dart&#45;&gt;/lib/panels/tool.dart</title>
<path fill="none" stroke="#aabbaa" stroke-width="1.3" stroke-opacity="0.533333" d="M486,-103.7C486,-96.49 486,-87.93 486,-79.82"/>
<polygon fill="#aabbaa" fill-opacity="0.533333" stroke="#aabbaa" stroke-width="1.3" stroke-opacity="0.533333" points="489.5,-80.07 486,-70.07 482.5,-80.07 489.5,-80.07"/>
</g>
<!-- /lib/panels/tools_panel.dart&#45;&gt;/lib/models/app_model.dart -->
<g id="edge3" class="edge">
<title>/lib/panels/tools_panel.dart&#45;&gt;/lib/models/app_model.dart</title>
<path fill="none" stroke="#aabbaa" stroke-width="1.3" stroke-opacity="0.533333" d="M439.89,-106.35C436.89,-105.52 433.91,-104.73 431,-104 357.32,-85.49 271.04,-69.65 215.74,-60.23"/>
<polygon fill="#aabbaa" fill-opacity="0.533333" stroke="#aabbaa" stroke-width="1.3" stroke-opacity="0.533333" points="216.47,-56.8 206.03,-58.59 215.31,-63.7 216.47,-56.8"/>
</g>
<!-- /lib/panels/layers_panel.dart -->
<g id="node4" class="node">
<title>/lib/panels/layers_panel.dart</title>
<path fill="Lavender" stroke="black" stroke-width="1.3" d="M410,-140C410,-140 334,-140 334,-140 328,-140 322,-134 322,-128 322,-128 322,-116 322,-116 322,-110 328,-104 334,-104 334,-104 410,-104 410,-104 416,-104 422,-110 422,-116 422,-116 422,-128 422,-128 422,-134 416,-140 410,-140"/>
<text text-anchor="middle" x="372" y="-116.75" font-family="Arial" font-size="15.00">layers_panel</text>
</g>
<!-- /lib/panels/layers_panel.dart&#45;&gt;/lib/models/app_model.dart -->
<g id="edge5" class="edge">
<title>/lib/panels/layers_panel.dart&#45;&gt;/lib/models/app_model.dart</title>
<path fill="none" stroke="#aabbaa" stroke-width="1.3" stroke-opacity="0.533333" d="M321.52,-104.41C289.61,-93.92 248.31,-80.35 215.33,-69.51"/>
<polygon fill="#aabbaa" fill-opacity="0.533333" stroke="#aabbaa" stroke-width="1.3" stroke-opacity="0.533333" points="216.51,-66.22 205.91,-66.42 214.32,-72.87 216.51,-66.22"/>
</g>
<!-- /lib/models/layers.dart -->
<g id="node6" class="node">
<title>/lib/models/layers.dart</title>
<path fill="Lavender" stroke="black" stroke-width="1.3" d="M169.88,-140C169.88,-140 138.12,-140 138.12,-140 132.12,-140 126.12,-134 126.12,-128 126.12,-128 126.12,-116 126.12,-116 126.12,-110 132.12,-104 138.12,-104 138.12,-104 169.88,-104 169.88,-104 175.88,-104 181.88,-110 181.88,-116 181.88,-116 181.88,-128 181.88,-128 181.88,-134 175.88,-140 169.88,-140"/>
<text text-anchor="middle" x="154" y="-116.75" font-family="Arial" font-size="15.00">layers</text>
</g>
<!-- /lib/models/shapes.dart -->
<g id="node7" class="node">
<title>/lib/models/shapes.dart</title>
<path fill="Lavender" stroke="black" stroke-width="1.3" d="M84,-68C84,-68 44,-68 44,-68 38,-68 32,-62 32,-56 32,-56 32,-44 32,-44 32,-38 38,-32 44,-32 44,-32 84,-32 84,-32 90,-32 96,-38 96,-44 96,-44 96,-56 96,-56 96,-62 90,-68 84,-68"/>
<text text-anchor="middle" x="64" y="-44.75" font-family="Arial" font-size="15.00">shapes</text>
</g>
<!-- /lib/models/layers.dart&#45;&gt;/lib/models/shapes.dart -->
<g id="edge7" class="edge">
<title>/lib/models/layers.dart&#45;&gt;/lib/models/shapes.dart</title>
<path fill="none" stroke="#aabbaa" stroke-width="1.3" stroke-opacity="0.533333" d="M125.84,-103.7C114.15,-95.28 100.76,-85.02 89.39,-75.79"/>
<polygon fill="#aabbaa" fill-opacity="0.533333" stroke="#aabbaa" stroke-width="1.3" stroke-opacity="0.533333" points="91.84,-73.28 81.9,-69.6 87.38,-78.67 91.84,-73.28"/>
</g>
<!-- /lib/models/layers.dart&#45;&gt;/lib/models/shapes.dart -->
<g id="edge8" class="edge">
<title>/lib/models/layers.dart&#45;&gt;/lib/models/shapes.dart</title>
<path fill="none" stroke="#aabbaa" stroke-width="1.3" stroke-dasharray="5,2" stroke-opacity="0.533333" d="M137.67,-103.7C127.52,-95.11 114.19,-84.61 101.62,-75.24"/>
<polygon fill="#aabbaa" fill-opacity="0.533333" stroke="#aabbaa" stroke-width="1.3" stroke-opacity="0.533333" points="103.94,-72.6 93.81,-69.51 99.8,-78.25 103.94,-72.6"/>
</g>
<!-- /lib/models/layers.dart&#45;&gt;/lib/models/app_model.dart -->
<g id="edge6" class="edge">
<title>/lib/models/layers.dart&#45;&gt;/lib/models/app_model.dart</title>
<path fill="none" stroke="#aabbaa" stroke-width="1.3" stroke-opacity="0.533333" d="M143.4,-103.7C142.43,-96.49 142.55,-87.93 143.63,-79.82"/>
<polygon fill="#aabbaa" fill-opacity="0.533333" stroke="#aabbaa" stroke-width="1.3" stroke-opacity="0.533333" points="147.06,-80.53 145.6,-70.03 140.2,-79.15 147.06,-80.53"/>
</g>
<!-- /lib/models/app_model.dart&#45;&gt;/lib/models/layers.dart -->
<g id="edge9" class="edge">
<title>/lib/models/app_model.dart&#45;&gt;/lib/models/layers.dart</title>
<path fill="none" stroke="#aabbaa" stroke-width="1.3" stroke-opacity="0.533333" d="M157.78,-68.1C157.27,-75.28 156.65,-83.84 156.07,-91.95"/>
<polygon fill="#aabbaa" fill-opacity="0.533333" stroke="#aabbaa" stroke-width="1.3" stroke-opacity="0.533333" points="152.6,-91.51 155.38,-101.73 159.58,-92.01 152.6,-91.51"/>
</g>
<!-- /lib/models/app_model.dart&#45;&gt;/lib/models/layers.dart -->
<g id="edge10" class="edge">
<title>/lib/models/app_model.dart&#45;&gt;/lib/models/layers.dart</title>
<path fill="none" stroke="#aabbaa" stroke-width="1.3" stroke-dasharray="5,2" stroke-opacity="0.533333" d="M169.57,-68.1C170.57,-75.37 170.46,-84.04 169.36,-92.24"/>
<polygon fill="#aabbaa" fill-opacity="0.533333" stroke="#aabbaa" stroke-width="1.3" stroke-opacity="0.533333" points="165.99,-91.27 167.45,-101.77 172.85,-92.65 165.99,-91.27"/>
</g>
<!-- /lib/main.dart&#45;&gt;/lib/models/app_model.dart -->
<g id="edge12" class="edge">
<title>/lib/main.dart&#45;&gt;/lib/models/app_model.dart</title>
<path fill="none" stroke="#aabbaa" stroke-width="1.3" stroke-opacity="0.533333" d="M231.55,-250.72C221.38,-211.42 196.87,-117.67 191,-104 187.29,-95.35 182.37,-86.41 177.5,-78.4"/>
<polygon fill="#aabbaa" fill-opacity="0.533333" stroke="#aabbaa" stroke-width="1.3" stroke-opacity="0.533333" points="180.59,-76.74 172.29,-70.16 174.68,-80.48 180.59,-76.74"/>
</g>
<!-- /lib/main_screen.dart -->
<g id="node11" class="node">
<title>/lib/main_screen.dart</title>
<path fill="Lavender" stroke="black" stroke-width="1.3" d="M341.75,-215C341.75,-215 264.25,-215 264.25,-215 258.25,-215 252.25,-209 252.25,-203 252.25,-203 252.25,-191 252.25,-191 252.25,-185 258.25,-179 264.25,-179 264.25,-179 341.75,-179 341.75,-179 347.75,-179 353.75,-185 353.75,-191 353.75,-191 353.75,-203 353.75,-203 353.75,-209 347.75,-215 341.75,-215"/>
<text text-anchor="middle" x="303" y="-191.75" font-family="Arial" font-size="15.00">main_screen</text>
</g>
<!-- /lib/main.dart&#45;&gt;/lib/main_screen.dart -->
<g id="edge11" class="edge">
<title>/lib/main.dart&#45;&gt;/lib/main_screen.dart</title>
<path fill="none" stroke="#aabbaa" stroke-width="1.3" stroke-opacity="0.533333" d="M252.56,-250.7C260.35,-242.56 269.8,-232.69 278.4,-223.7"/>
<polygon fill="#aabbaa" fill-opacity="0.533333" stroke="#aabbaa" stroke-width="1.3" stroke-opacity="0.533333" points="280.88,-226.17 285.27,-216.53 275.83,-221.33 280.88,-226.17"/>
</g>
<!-- /lib/canvas.dart -->
<g id="node10" class="node">
<title>/lib/canvas.dart</title>
<path fill="Lavender" stroke="black" stroke-width="1.3" d="M271.62,-140C271.62,-140 232.38,-140 232.38,-140 226.38,-140 220.38,-134 220.38,-128 220.38,-128 220.38,-116 220.38,-116 220.38,-110 226.38,-104 232.38,-104 232.38,-104 271.62,-104 271.62,-104 277.62,-104 283.62,-110 283.62,-116 283.62,-116 283.62,-128 283.62,-128 283.62,-134 277.62,-140 271.62,-140"/>
<text text-anchor="middle" x="252" y="-116.75" font-family="Arial" font-size="15.00">canvas</text>
</g>
<!-- /lib/canvas.dart&#45;&gt;/lib/models/app_model.dart -->
<g id="edge13" class="edge">
<title>/lib/canvas.dart&#45;&gt;/lib/models/app_model.dart</title>
<path fill="none" stroke="#aabbaa" stroke-width="1.3" stroke-opacity="0.533333" d="M229.01,-103.7C217.72,-95.2 203.92,-84.81 191.57,-75.51"/>
<polygon fill="#aabbaa" fill-opacity="0.533333" stroke="#aabbaa" stroke-width="1.3" stroke-opacity="0.533333" points="193.71,-72.75 183.62,-69.53 189.5,-78.34 193.71,-72.75"/>
</g>
<!-- /lib/main_screen.dart&#45;&gt;/lib/panels/tools_panel.dart -->
<g id="edge16" class="edge">
<title>/lib/main_screen.dart&#45;&gt;/lib/panels/tools_panel.dart</title>
<path fill="none" stroke="#aabbaa" stroke-width="1.3" stroke-opacity="0.533333" d="M354.19,-192.19C378.43,-188.87 407.21,-182.65 431,-171 442.44,-165.4 453.37,-156.8 462.44,-148.42"/>
<polygon fill="#aabbaa" fill-opacity="0.533333" stroke="#aabbaa" stroke-width="1.3" stroke-opacity="0.533333" points="464.71,-151.09 469.42,-141.6 459.82,-146.08 464.71,-151.09"/>
</g>
<!-- /lib/main_screen.dart&#45;&gt;/lib/panels/layers_panel.dart -->
<g id="edge15" class="edge">
<title>/lib/main_screen.dart&#45;&gt;/lib/panels/layers_panel.dart</title>
<path fill="none" stroke="#aabbaa" stroke-width="1.3" stroke-opacity="0.533333" d="M319.35,-178.7C327.71,-169.86 338.06,-158.91 347.36,-149.07"/>
<polygon fill="#aabbaa" fill-opacity="0.533333" stroke="#aabbaa" stroke-width="1.3" stroke-opacity="0.533333" points="349.85,-151.53 354.17,-141.86 344.76,-146.72 349.85,-151.53"/>
</g>
<!-- /lib/main_screen.dart&#45;&gt;/lib/models/app_model.dart -->
<g id="edge17" class="edge">
<title>/lib/main_screen.dart&#45;&gt;/lib/models/app_model.dart</title>
<path fill="none" stroke="#aabbaa" stroke-width="1.3" stroke-opacity="0.533333" d="M306.02,-178.83C308.54,-158.77 309.46,-125.6 293,-104 274.56,-79.8 243.39,-66.63 215.76,-59.47"/>
<polygon fill="#aabbaa" fill-opacity="0.533333" stroke="#aabbaa" stroke-width="1.3" stroke-opacity="0.533333" points="216.63,-56.08 206.09,-57.21 215.03,-62.9 216.63,-56.08"/>
</g>
<!-- /lib/main_screen.dart&#45;&gt;/lib/canvas.dart -->
<g id="edge14" class="edge">
<title>/lib/main_screen.dart&#45;&gt;/lib/canvas.dart</title>
<path fill="none" stroke="#aabbaa" stroke-width="1.3" stroke-opacity="0.533333" d="M290.91,-178.7C284.92,-170.13 277.55,-159.58 270.84,-149.97"/>
<polygon fill="#aabbaa" fill-opacity="0.533333" stroke="#aabbaa" stroke-width="1.3" stroke-opacity="0.533333" points="273.9,-148.23 265.3,-142.04 268.16,-152.24 273.9,-148.23"/>
</g>
</g>
</svg>
