<?xml version="1.0" encoding="UTF-8" standalone="no"?>
<!DOCTYPE svg PUBLIC "-//W3C//DTD SVG 1.1//EN"
 "http://www.w3.org/Graphics/SVG/1.1/DTD/svg11.dtd">
<!-- Generated by graphviz version 12.2.1 (20241206.2353)
 -->
<!-- Pages: 1 -->
<svg width="1271pt" height="833pt"
 viewBox="0.00 0.00 1271.00 833.00" xmlns="http://www.w3.org/2000/svg" xmlns:xlink="http://www.w3.org/1999/xlink">
<g id="graph0" class="graph" transform="scale(1 1) rotate(0) translate(4 829)">
<polygon fill="white" stroke="none" points="-4,4 -4,-829 1267,-829 1267,4 -4,4"/>
<g id="clust1" class="cluster">
<title>cluster~</title>
<path fill="none" stroke="lightgray" stroke-width="2.6" d="M20,-8C20,-8 1243,-8 1243,-8 1249,-8 1255,-14 1255,-20 1255,-20 1255,-805 1255,-805 1255,-811 1249,-817 1243,-817 1243,-817 20,-817 20,-817 14,-817 8,-811 8,-805 8,-805 8,-20 8,-20 8,-14 14,-8 20,-8"/>
<text text-anchor="middle" x="631.5" y="-800.65" font-family="Arial Black" font-size="13.00">fpaint</text>
</g>
<g id="clust2" class="cluster">
<title>cluster~/test</title>
<path fill="none" stroke="lightgray" stroke-width="2.6" d="M28,-711C28,-711 260,-711 260,-711 266,-711 272,-717 272,-723 272,-723 272,-774 272,-774 272,-780 266,-786 260,-786 260,-786 28,-786 28,-786 22,-786 16,-780 16,-774 16,-774 16,-723 16,-723 16,-717 22,-711 28,-711"/>
<text text-anchor="middle" x="144" y="-769.65" font-family="Arial Black" font-size="13.00">test</text>
</g>
<g id="clust3" class="cluster">
<title>cluster~/lib</title>
<path fill="none" stroke="lightgray" stroke-width="2.6" d="M28,-16C28,-16 1235,-16 1235,-16 1241,-16 1247,-22 1247,-28 1247,-28 1247,-691 1247,-691 1247,-697 1241,-703 1235,-703 1235,-703 28,-703 28,-703 22,-703 16,-697 16,-691 16,-691 16,-28 16,-28 16,-22 22,-16 28,-16"/>
<text text-anchor="middle" x="631.5" y="-686.65" font-family="Arial Black" font-size="13.00">lib</text>
</g>
<g id="clust4" class="cluster">
<title>cluster~/lib/panels</title>
<path fill="none" stroke="lightgray" stroke-width="2.6" d="M879,-262C879,-262 1215,-262 1215,-262 1221,-262 1227,-268 1227,-274 1227,-274 1227,-544 1227,-544 1227,-550 1221,-556 1215,-556 1215,-556 879,-556 879,-556 873,-556 867,-550 867,-544 867,-544 867,-274 867,-274 867,-268 873,-262 879,-262"/>
<text text-anchor="middle" x="1047" y="-539.65" font-family="Arial Black" font-size="13.00">panels</text>
</g>
<g id="clust5" class="cluster">
<title>cluster~/lib/models</title>
<path fill="none" stroke="lightgray" stroke-width="2.6" d="M48,-262C48,-262 241,-262 241,-262 247,-262 253,-268 253,-274 253,-274 253,-469 253,-469 253,-475 247,-481 241,-481 241,-481 48,-481 48,-481 42,-481 36,-475 36,-469 36,-469 36,-274 36,-274 36,-268 42,-262 48,-262"/>
<text text-anchor="middle" x="144.5" y="-464.65" font-family="Arial Black" font-size="13.00">models</text>
</g>
<g id="clust6" class="cluster">
<title>cluster~/lib/files</title>
<path fill="none" stroke="lightgray" stroke-width="2.6" d="M273,-334C273,-334 755,-334 755,-334 761,-334 767,-340 767,-346 767,-346 767,-469 767,-469 767,-475 761,-481 755,-481 755,-481 273,-481 273,-481 267,-481 261,-475 261,-469 261,-469 261,-346 261,-346 261,-340 267,-334 273,-334"/>
<text text-anchor="middle" x="514" y="-464.65" font-family="Arial Black" font-size="13.00">files</text>
</g>
<g id="clust7" class="cluster">
<title>cluster~/lib/helpers</title>
<path fill="none" stroke="lightgray" stroke-width="2.6" d="M453,-24C453,-24 543,-24 543,-24 549,-24 555,-30 555,-36 555,-36 555,-159 555,-159 555,-165 549,-171 543,-171 543,-171 453,-171 453,-171 447,-171 441,-165 441,-159 441,-159 441,-36 441,-36 441,-30 447,-24 453,-24"/>
<text text-anchor="middle" x="498" y="-154.65" font-family="Arial Black" font-size="13.00">helpers</text>
</g>
<g id="clust8" class="cluster">
<title>cluster~/lib/widgets</title>
<path fill="none" stroke="lightgray" stroke-width="2.6" d="M288,-179C288,-179 1014,-179 1014,-179 1020,-179 1026,-185 1026,-191 1026,-191 1026,-242 1026,-242 1026,-248 1020,-254 1014,-254 1014,-254 288,-254 288,-254 282,-254 276,-248 276,-242 276,-242 276,-191 276,-191 276,-185 282,-179 288,-179"/>
<text text-anchor="middle" x="651" y="-237.65" font-family="Arial Black" font-size="13.00">widgets</text>
</g>
<!-- /test/paint_model_test.dart -->
<g id="node1" class="node">
<title>/test/paint_model_test.dart</title>
<path fill="Lavender" stroke="black" stroke-width="1.3" d="M142,-755C142,-755 36,-755 36,-755 30,-755 24,-749 24,-743 24,-743 24,-731 24,-731 24,-725 30,-719 36,-719 36,-719 142,-719 142,-719 148,-719 154,-725 154,-731 154,-731 154,-743 154,-743 154,-749 148,-755 142,-755"/>
<text text-anchor="middle" x="89" y="-731.75" font-family="Arial" font-size="15.00">paint_model_test</text>
</g>
<!-- /lib/models/app_model.dart -->
<g id="node12" class="node">
<title>/lib/models/app_model.dart</title>
<path fill="Lavender" stroke="black" stroke-width="1.3" d="M232.75,-306C232.75,-306 167.25,-306 167.25,-306 161.25,-306 155.25,-300 155.25,-294 155.25,-294 155.25,-282 155.25,-282 155.25,-276 161.25,-270 167.25,-270 167.25,-270 232.75,-270 232.75,-270 238.75,-270 244.75,-276 244.75,-282 244.75,-282 244.75,-294 244.75,-294 244.75,-300 238.75,-306 232.75,-306"/>
<text text-anchor="middle" x="200" y="-282.75" font-family="Arial" font-size="15.00">app_model</text>
</g>
<!-- /test/paint_model_test.dart&#45;&gt;/lib/models/app_model.dart -->
<g id="edge1" class="edge">
<title>/test/paint_model_test.dart&#45;&gt;/lib/models/app_model.dart</title>
<path fill="none" stroke="#aabbaa" stroke-width="1.3" stroke-opacity="0.533333" d="M64.66,-718.66C59.99,-714.13 55.72,-708.84 53,-703 30.49,-654.6 48,-636.38 48,-583 48,-583 48,-583 48,-431 48,-387.83 26.32,-367.93 53,-334 77.79,-302.48 101.28,-316.16 143.46,-306.6"/>
<polygon fill="#aabbaa" fill-opacity="0.533333" stroke="#aabbaa" stroke-width="1.3" stroke-opacity="0.533333" points="144.26,-310.01 153.01,-304.04 142.45,-303.25 144.26,-310.01"/>
</g>
<!-- /test/widget_test.dart -->
<g id="node2" class="node">
<title>/test/widget_test.dart</title>
<path fill="Lavender" stroke="black" stroke-width="1.3" d="M251.88,-755C251.88,-755 184.12,-755 184.12,-755 178.12,-755 172.12,-749 172.12,-743 172.12,-743 172.12,-731 172.12,-731 172.12,-725 178.12,-719 184.12,-719 184.12,-719 251.88,-719 251.88,-719 257.88,-719 263.88,-725 263.88,-731 263.88,-731 263.88,-743 263.88,-743 263.88,-749 257.88,-755 251.88,-755"/>
<text text-anchor="middle" x="218" y="-731.75" font-family="Arial" font-size="15.00">widget_test</text>
</g>
<!-- /lib/main.dart -->
<g id="node14" class="node">
<title>/lib/main.dart</title>
<path fill="Lavender" stroke="black" stroke-width="1.3" d="M233,-672C233,-672 203,-672 203,-672 197,-672 191,-666 191,-660 191,-660 191,-648 191,-648 191,-642 197,-636 203,-636 203,-636 233,-636 233,-636 239,-636 245,-642 245,-648 245,-648 245,-660 245,-660 245,-666 239,-672 233,-672"/>
<text text-anchor="middle" x="218" y="-648.75" font-family="Arial" font-size="15.00">main</text>
</g>
<!-- /test/widget_test.dart&#45;&gt;/lib/main.dart -->
<g id="edge2" class="edge">
<title>/test/widget_test.dart&#45;&gt;/lib/main.dart</title>
<path fill="none" stroke="#aabbaa" stroke-width="1.3" stroke-opacity="0.533333" d="M218,-718.82C218,-708.8 218,-695.88 218,-684.29"/>
<polygon fill="#aabbaa" fill-opacity="0.533333" stroke="#aabbaa" stroke-width="1.3" stroke-opacity="0.533333" points="221.5,-684.4 218,-674.4 214.5,-684.4 221.5,-684.4"/>
</g>
<!-- /lib/panels/tool_selector.dart -->
<g id="node3" class="node">
<title>/lib/panels/tool_selector.dart</title>
<path fill="Lavender" stroke="black" stroke-width="1.3" d="M1079.38,-378C1079.38,-378 1002.62,-378 1002.62,-378 996.62,-378 990.62,-372 990.62,-366 990.62,-366 990.62,-354 990.62,-354 990.62,-348 996.62,-342 1002.62,-342 1002.62,-342 1079.38,-342 1079.38,-342 1085.38,-342 1091.38,-348 1091.38,-354 1091.38,-354 1091.38,-366 1091.38,-366 1091.38,-372 1085.38,-378 1079.38,-378"/>
<text text-anchor="middle" x="1041" y="-354.75" font-family="Arial" font-size="15.00">tool_selector</text>
</g>
<!-- /lib/panels/canvas_panel.dart -->
<g id="node4" class="node">
<title>/lib/panels/canvas_panel.dart</title>
<path fill="Lavender" stroke="black" stroke-width="1.3" d="M970.75,-306C970.75,-306 887.25,-306 887.25,-306 881.25,-306 875.25,-300 875.25,-294 875.25,-294 875.25,-282 875.25,-282 875.25,-276 881.25,-270 887.25,-270 887.25,-270 970.75,-270 970.75,-270 976.75,-270 982.75,-276 982.75,-282 982.75,-282 982.75,-294 982.75,-294 982.75,-300 976.75,-306 970.75,-306"/>
<text text-anchor="middle" x="929" y="-282.75" font-family="Arial" font-size="15.00">canvas_panel</text>
</g>
<!-- /lib/panels/canvas_panel.dart&#45;&gt;/lib/models/app_model.dart -->
<g id="edge3" class="edge">
<title>/lib/panels/canvas_panel.dart&#45;&gt;/lib/models/app_model.dart</title>
<path fill="none" stroke="#aabbaa" stroke-width="1.3" stroke-opacity="0.533333" d="M874.91,-288C668.9,-288 462.9,-288 256.89,-288"/>
<polygon fill="#aabbaa" fill-opacity="0.533333" stroke="#aabbaa" stroke-width="1.3" stroke-opacity="0.533333" points="257.17,-284.5 247.17,-288 257.17,-291.5 257.17,-284.5"/>
</g>
<!-- /lib/widgets/transparent_background.dart -->
<g id="node25" class="node">
<title>/lib/widgets/transparent_background.dart</title>
<path fill="Lavender" stroke="black" stroke-width="1.3" d="M1006.38,-223C1006.38,-223 851.62,-223 851.62,-223 845.62,-223 839.62,-217 839.62,-211 839.62,-211 839.62,-199 839.62,-199 839.62,-193 845.62,-187 851.62,-187 851.62,-187 1006.38,-187 1006.38,-187 1012.38,-187 1018.38,-193 1018.38,-199 1018.38,-199 1018.38,-211 1018.38,-211 1018.38,-217 1012.38,-223 1006.38,-223"/>
<text text-anchor="middle" x="929" y="-199.75" font-family="Arial" font-size="15.00">transparent_background</text>
</g>
<!-- /lib/panels/canvas_panel.dart&#45;&gt;/lib/widgets/transparent_background.dart -->
<g id="edge4" class="edge">
<title>/lib/panels/canvas_panel.dart&#45;&gt;/lib/widgets/transparent_background.dart</title>
<path fill="none" stroke="#aabbaa" stroke-width="1.3" stroke-opacity="0.533333" d="M929,-269.82C929,-259.8 929,-246.88 929,-235.29"/>
<polygon fill="#aabbaa" fill-opacity="0.533333" stroke="#aabbaa" stroke-width="1.3" stroke-opacity="0.533333" points="932.5,-235.4 929,-225.4 925.5,-235.4 932.5,-235.4"/>
</g>
<!-- /lib/panels/layer_selector.dart -->
<g id="node5" class="node">
<title>/lib/panels/layer_selector.dart</title>
<path fill="Lavender" stroke="black" stroke-width="1.3" d="M1206.5,-378C1206.5,-378 1121.5,-378 1121.5,-378 1115.5,-378 1109.5,-372 1109.5,-366 1109.5,-366 1109.5,-354 1109.5,-354 1109.5,-348 1115.5,-342 1121.5,-342 1121.5,-342 1206.5,-342 1206.5,-342 1212.5,-342 1218.5,-348 1218.5,-354 1218.5,-354 1218.5,-366 1218.5,-366 1218.5,-372 1212.5,-378 1206.5,-378"/>
<text text-anchor="middle" x="1164" y="-354.75" font-family="Arial" font-size="15.00">layer_selector</text>
</g>
<!-- /lib/panels/layer_selector.dart&#45;&gt;/lib/models/app_model.dart -->
<g id="edge5" class="edge">
<title>/lib/panels/layer_selector.dart&#45;&gt;/lib/models/app_model.dart</title>
<path fill="none" stroke="#aabbaa" stroke-width="1.3" stroke-opacity="0.533333" d="M1125.35,-341.61C1117.13,-338.57 1108.4,-335.8 1100,-334 938.01,-299.27 428.05,-291.21 256.76,-289.46"/>
<polygon fill="#aabbaa" fill-opacity="0.533333" stroke="#aabbaa" stroke-width="1.3" stroke-opacity="0.533333" points="257.02,-285.96 246.98,-289.36 256.95,-292.96 257.02,-285.96"/>
</g>
<!-- /lib/widgets/truncated_text.dart -->
<g id="node23" class="node">
<title>/lib/widgets/truncated_text.dart</title>
<path fill="Lavender" stroke="black" stroke-width="1.3" d="M810,-223C810,-223 722,-223 722,-223 716,-223 710,-217 710,-211 710,-211 710,-199 710,-199 710,-193 716,-187 722,-187 722,-187 810,-187 810,-187 816,-187 822,-193 822,-199 822,-199 822,-211 822,-211 822,-217 816,-223 810,-223"/>
<text text-anchor="middle" x="766" y="-199.75" font-family="Arial" font-size="15.00">truncated_text</text>
</g>
<!-- /lib/panels/layer_selector.dart&#45;&gt;/lib/widgets/truncated_text.dart -->
<g id="edge6" class="edge">
<title>/lib/panels/layer_selector.dart&#45;&gt;/lib/widgets/truncated_text.dart</title>
<path fill="none" stroke="#aabbaa" stroke-width="1.3" stroke-opacity="0.533333" d="M1123.88,-341.55C1116.07,-338.66 1107.87,-335.97 1100,-334 998.4,-308.52 960.21,-351.77 866,-306 863.64,-304.85 819.76,-260.56 790.92,-231.32"/>
<polygon fill="#aabbaa" fill-opacity="0.533333" stroke="#aabbaa" stroke-width="1.3" stroke-opacity="0.533333" points="793.76,-229.22 784.25,-224.55 788.78,-234.13 793.76,-229.22"/>
</g>
<!-- /lib/panels/side_panel.dart -->
<g id="node6" class="node">
<title>/lib/panels/side_panel.dart</title>
<path fill="Lavender" stroke="black" stroke-width="1.3" d="M951.62,-525C951.62,-525 888.38,-525 888.38,-525 882.38,-525 876.38,-519 876.38,-513 876.38,-513 876.38,-501 876.38,-501 876.38,-495 882.38,-489 888.38,-489 888.38,-489 951.62,-489 951.62,-489 957.62,-489 963.62,-495 963.62,-501 963.62,-501 963.62,-513 963.62,-513 963.62,-519 957.62,-525 951.62,-525"/>
<text text-anchor="middle" x="920" y="-501.75" font-family="Arial" font-size="15.00">side_panel</text>
</g>
<!-- /lib/panels/tools_panel.dart -->
<g id="node8" class="node">
<title>/lib/panels/tools_panel.dart</title>
<path fill="Lavender" stroke="black" stroke-width="1.3" d="M954.88,-450C954.88,-450 887.12,-450 887.12,-450 881.12,-450 875.12,-444 875.12,-438 875.12,-438 875.12,-426 875.12,-426 875.12,-420 881.12,-414 887.12,-414 887.12,-414 954.88,-414 954.88,-414 960.88,-414 966.88,-420 966.88,-426 966.88,-426 966.88,-438 966.88,-438 966.88,-444 960.88,-450 954.88,-450"/>
<text text-anchor="middle" x="921" y="-426.75" font-family="Arial" font-size="15.00">tools_panel</text>
</g>
<!-- /lib/panels/side_panel.dart&#45;&gt;/lib/panels/tools_panel.dart -->
<g id="edge9" class="edge">
<title>/lib/panels/side_panel.dart&#45;&gt;/lib/panels/tools_panel.dart</title>
<path fill="none" stroke="#aabbaa" stroke-width="1.3" stroke-opacity="0.533333" d="M920.24,-488.7C920.35,-480.76 920.48,-471.12 920.6,-462.11"/>
<polygon fill="#aabbaa" fill-opacity="0.533333" stroke="#aabbaa" stroke-width="1.3" stroke-opacity="0.533333" points="924.1,-462.44 920.73,-452.4 917.1,-462.35 924.1,-462.44"/>
</g>
<!-- /lib/panels/layers_panel.dart -->
<g id="node9" class="node">
<title>/lib/panels/layers_panel.dart</title>
<path fill="Lavender" stroke="black" stroke-width="1.3" d="M1073,-450C1073,-450 997,-450 997,-450 991,-450 985,-444 985,-438 985,-438 985,-426 985,-426 985,-420 991,-414 997,-414 997,-414 1073,-414 1073,-414 1079,-414 1085,-420 1085,-426 1085,-426 1085,-438 1085,-438 1085,-444 1079,-450 1073,-450"/>
<text text-anchor="middle" x="1035" y="-426.75" font-family="Arial" font-size="15.00">layers_panel</text>
</g>
<!-- /lib/panels/side_panel.dart&#45;&gt;/lib/panels/layers_panel.dart -->
<g id="edge8" class="edge">
<title>/lib/panels/side_panel.dart&#45;&gt;/lib/panels/layers_panel.dart</title>
<path fill="none" stroke="#aabbaa" stroke-width="1.3" stroke-opacity="0.533333" d="M962.21,-488.61C966.96,-486.23 971.65,-483.68 976,-481 986.8,-474.36 997.79,-465.95 1007.32,-458.03"/>
<polygon fill="#aabbaa" fill-opacity="0.533333" stroke="#aabbaa" stroke-width="1.3" stroke-opacity="0.533333" points="1009.47,-460.79 1014.8,-451.64 1004.93,-455.47 1009.47,-460.79"/>
</g>
<!-- /lib/panels/side_panel.dart&#45;&gt;/lib/models/app_model.dart -->
<g id="edge7" class="edge">
<title>/lib/panels/side_panel.dart&#45;&gt;/lib/models/app_model.dart</title>
<path fill="none" stroke="#aabbaa" stroke-width="1.3" stroke-opacity="0.533333" d="M875.95,-489.78C874.62,-489.49 873.31,-489.23 872,-489 861.69,-487.17 125.37,-488.44 118,-481 95.02,-457.78 101.36,-362.11 118,-334 124.27,-323.41 134.01,-315.15 144.62,-308.76"/>
<polygon fill="#aabbaa" fill-opacity="0.533333" stroke="#aabbaa" stroke-width="1.3" stroke-opacity="0.533333" points="146.09,-311.94 153.24,-304.13 142.78,-305.78 146.09,-311.94"/>
</g>
<!-- /lib/panels/share_panel.dart -->
<g id="node7" class="node">
<title>/lib/panels/share_panel.dart</title>
<path fill="Lavender" stroke="black" stroke-width="1.3" d="M960.88,-378C960.88,-378 887.12,-378 887.12,-378 881.12,-378 875.12,-372 875.12,-366 875.12,-366 875.12,-354 875.12,-354 875.12,-348 881.12,-342 887.12,-342 887.12,-342 960.88,-342 960.88,-342 966.88,-342 972.88,-348 972.88,-354 972.88,-354 972.88,-366 972.88,-366 972.88,-372 966.88,-378 960.88,-378"/>
<text text-anchor="middle" x="924" y="-354.75" font-family="Arial" font-size="15.00">share_panel</text>
</g>
<!-- /lib/panels/share_panel.dart&#45;&gt;/lib/panels/canvas_panel.dart -->
<g id="edge11" class="edge">
<title>/lib/panels/share_panel.dart&#45;&gt;/lib/panels/canvas_panel.dart</title>
<path fill="none" stroke="#aabbaa" stroke-width="1.3" stroke-opacity="0.533333" d="M925.24,-341.7C925.75,-334.49 926.36,-325.93 926.94,-317.82"/>
<polygon fill="#aabbaa" fill-opacity="0.533333" stroke="#aabbaa" stroke-width="1.3" stroke-opacity="0.533333" points="930.42,-318.29 927.64,-308.07 923.43,-317.79 930.42,-318.29"/>
</g>
<!-- /lib/panels/share_panel.dart&#45;&gt;/lib/models/app_model.dart -->
<g id="edge10" class="edge">
<title>/lib/panels/share_panel.dart&#45;&gt;/lib/models/app_model.dart</title>
<path fill="none" stroke="#aabbaa" stroke-width="1.3" stroke-opacity="0.533333" d="M874.85,-342.23C863.82,-339.02 852.1,-336.04 841,-334 627.93,-294.94 369.31,-289.24 256.82,-288.77"/>
<polygon fill="#aabbaa" fill-opacity="0.533333" stroke="#aabbaa" stroke-width="1.3" stroke-opacity="0.533333" points="257.09,-285.27 247.08,-288.74 257.07,-292.27 257.09,-285.27"/>
</g>
<!-- /lib/panels/tools_panel.dart&#45;&gt;/lib/panels/tool_selector.dart -->
<g id="edge13" class="edge">
<title>/lib/panels/tools_panel.dart&#45;&gt;/lib/panels/tool_selector.dart</title>
<path fill="none" stroke="#aabbaa" stroke-width="1.3" stroke-opacity="0.533333" d="M950.97,-413.52C966.26,-404.6 985.06,-393.63 1001.52,-384.03"/>
<polygon fill="#aabbaa" fill-opacity="0.533333" stroke="#aabbaa" stroke-width="1.3" stroke-opacity="0.533333" points="1002.84,-387.31 1009.71,-379.25 999.31,-381.27 1002.84,-387.31"/>
</g>
<!-- /lib/panels/tools_panel.dart&#45;&gt;/lib/models/app_model.dart -->
<g id="edge12" class="edge">
<title>/lib/panels/tools_panel.dart&#45;&gt;/lib/models/app_model.dart</title>
<path fill="none" stroke="#aabbaa" stroke-width="1.3" stroke-opacity="0.533333" d="M874.75,-421.26C847.52,-413.49 814.02,-400.13 791,-378 775.51,-363.11 788.59,-346.33 771,-334 729.55,-304.95 392.85,-293.64 256.76,-290.23"/>
<polygon fill="#aabbaa" fill-opacity="0.533333" stroke="#aabbaa" stroke-width="1.3" stroke-opacity="0.533333" points="257.05,-286.74 246.96,-289.99 256.87,-293.74 257.05,-286.74"/>
</g>
<!-- /lib/widgets/brush_size_picker.dart -->
<g id="node24" class="node">
<title>/lib/widgets/brush_size_picker.dart</title>
<path fill="Lavender" stroke="black" stroke-width="1.3" d="M566,-223C566,-223 454,-223 454,-223 448,-223 442,-217 442,-211 442,-211 442,-199 442,-199 442,-193 448,-187 454,-187 454,-187 566,-187 566,-187 572,-187 578,-193 578,-199 578,-199 578,-211 578,-211 578,-217 572,-223 566,-223"/>
<text text-anchor="middle" x="510" y="-199.75" font-family="Arial" font-size="15.00">brush_size_picker</text>
</g>
<!-- /lib/panels/tools_panel.dart&#45;&gt;/lib/widgets/brush_size_picker.dart -->
<g id="edge14" class="edge">
<title>/lib/panels/tools_panel.dart&#45;&gt;/lib/widgets/brush_size_picker.dart</title>
<path fill="none" stroke="#aabbaa" stroke-width="1.3" stroke-opacity="0.533333" d="M884.1,-413.56C866.06,-404.21 844.52,-391.79 827,-378 806,-361.46 808.04,-349.12 786,-334 707.4,-280.06 671.99,-297.16 587,-254 572.92,-246.85 558.07,-237.95 545.2,-229.75"/>
<polygon fill="#aabbaa" fill-opacity="0.533333" stroke="#aabbaa" stroke-width="1.3" stroke-opacity="0.533333" points="547.31,-226.95 537.01,-224.45 543.51,-232.82 547.31,-226.95"/>
</g>
<!-- /lib/panels/tools_panel.dart&#45;&gt;/lib/widgets/transparent_background.dart -->
<g id="edge16" class="edge">
<title>/lib/panels/tools_panel.dart&#45;&gt;/lib/widgets/transparent_background.dart</title>
<path fill="none" stroke="#aabbaa" stroke-width="1.3" stroke-opacity="0.533333" d="M895.33,-413.72C884.08,-404.58 872.07,-392.28 866,-378 845.83,-330.55 844.88,-309.03 866,-262 871.46,-249.84 881.02,-239.24 891.06,-230.63"/>
<polygon fill="#aabbaa" fill-opacity="0.533333" stroke="#aabbaa" stroke-width="1.3" stroke-opacity="0.533333" points="893.11,-233.47 898.77,-224.52 888.76,-227.99 893.11,-233.47"/>
</g>
<!-- /lib/widgets/color_picker.dart -->
<g id="node27" class="node">
<title>/lib/widgets/color_picker.dart</title>
<path fill="Lavender" stroke="black" stroke-width="1.3" d="M680.12,-223C680.12,-223 607.88,-223 607.88,-223 601.88,-223 595.88,-217 595.88,-211 595.88,-211 595.88,-199 595.88,-199 595.88,-193 601.88,-187 607.88,-187 607.88,-187 680.12,-187 680.12,-187 686.12,-187 692.12,-193 692.12,-199 692.12,-199 692.12,-211 692.12,-211 692.12,-217 686.12,-223 680.12,-223"/>
<text text-anchor="middle" x="644" y="-199.75" font-family="Arial" font-size="15.00">color_picker</text>
</g>
<!-- /lib/panels/tools_panel.dart&#45;&gt;/lib/widgets/color_picker.dart -->
<g id="edge15" class="edge">
<title>/lib/panels/tools_panel.dart&#45;&gt;/lib/widgets/color_picker.dart</title>
<path fill="none" stroke="#aabbaa" stroke-width="1.3" stroke-opacity="0.533333" d="M889.43,-413.62C875.23,-404.53 859.19,-392.31 848,-378 839.43,-367.05 812.21,-270.22 801,-262 783.02,-248.82 721.62,-262.47 701,-254 688.67,-248.93 677.03,-240.17 667.52,-231.5"/>
<polygon fill="#aabbaa" fill-opacity="0.533333" stroke="#aabbaa" stroke-width="1.3" stroke-opacity="0.533333" points="670.13,-229.16 660.52,-224.71 665.26,-234.19 670.13,-229.16"/>
</g>
<!-- /lib/panels/layers_panel.dart&#45;&gt;/lib/panels/layer_selector.dart -->
<g id="edge19" class="edge">
<title>/lib/panels/layers_panel.dart&#45;&gt;/lib/panels/layer_selector.dart</title>
<path fill="none" stroke="#aabbaa" stroke-width="1.3" stroke-opacity="0.533333" d="M1067.22,-413.52C1083.74,-404.55 1104.06,-393.53 1121.81,-383.9"/>
<polygon fill="#aabbaa" fill-opacity="0.533333" stroke="#aabbaa" stroke-width="1.3" stroke-opacity="0.533333" points="1123.34,-387.04 1130.46,-379.2 1120,-380.89 1123.34,-387.04"/>
</g>
<!-- /lib/panels/layers_panel.dart&#45;&gt;/lib/panels/share_panel.dart -->
<g id="edge20" class="edge">
<title>/lib/panels/layers_panel.dart&#45;&gt;/lib/panels/share_panel.dart</title>
<path fill="none" stroke="#aabbaa" stroke-width="1.3" stroke-opacity="0.533333" d="M1007.28,-413.52C993.4,-404.76 976.4,-394.04 961.38,-384.58"/>
<polygon fill="#aabbaa" fill-opacity="0.533333" stroke="#aabbaa" stroke-width="1.3" stroke-opacity="0.533333" points="963.36,-381.68 953.03,-379.31 959.63,-387.6 963.36,-381.68"/>
</g>
<!-- /lib/panels/layers_panel.dart&#45;&gt;/lib/models/app_model.dart -->
<g id="edge18" class="edge">
<title>/lib/panels/layers_panel.dart&#45;&gt;/lib/models/app_model.dart</title>
<path fill="none" stroke="#aabbaa" stroke-width="1.3" stroke-opacity="0.533333" d="M984.63,-416.41C943.04,-404.14 887.49,-387.17 866,-378 828.68,-362.07 824.89,-345.59 786,-334 687.96,-304.77 383.94,-293.72 256.8,-290.31"/>
<polygon fill="#aabbaa" fill-opacity="0.533333" stroke="#aabbaa" stroke-width="1.3" stroke-opacity="0.533333" points="257.12,-286.81 247.03,-290.05 256.94,-293.81 257.12,-286.81"/>
</g>
<!-- /lib/files/import_files.dart -->
<g id="node19" class="node">
<title>/lib/files/import_files.dart</title>
<path fill="Lavender" stroke="black" stroke-width="1.3" d="M349.25,-450C349.25,-450 280.75,-450 280.75,-450 274.75,-450 268.75,-444 268.75,-438 268.75,-438 268.75,-426 268.75,-426 268.75,-420 274.75,-414 280.75,-414 280.75,-414 349.25,-414 349.25,-414 355.25,-414 361.25,-420 361.25,-426 361.25,-426 361.25,-438 361.25,-438 361.25,-444 355.25,-450 349.25,-450"/>
<text text-anchor="middle" x="315" y="-426.75" font-family="Arial" font-size="15.00">import_files</text>
</g>
<!-- /lib/panels/layers_panel.dart&#45;&gt;/lib/files/import_files.dart -->
<g id="edge17" class="edge">
<title>/lib/panels/layers_panel.dart&#45;&gt;/lib/files/import_files.dart</title>
<path fill="none" stroke="#aabbaa" stroke-width="1.3" stroke-opacity="0.533333" d="M1019.97,-450.43C1007.49,-463.86 988.38,-480.46 967,-485 951.02,-488.39 394.98,-488.39 379,-485 362.47,-481.49 347.67,-470.1 336.47,-458.77"/>
<polygon fill="#aabbaa" fill-opacity="0.533333" stroke="#aabbaa" stroke-width="1.3" stroke-opacity="0.533333" points="339.32,-456.69 329.98,-451.7 334.16,-461.43 339.32,-456.69"/>
</g>
<!-- /lib/models/layers.dart -->
<g id="node10" class="node">
<title>/lib/models/layers.dart</title>
<path fill="Lavender" stroke="black" stroke-width="1.3" d="M170.88,-450C170.88,-450 139.12,-450 139.12,-450 133.12,-450 127.12,-444 127.12,-438 127.12,-438 127.12,-426 127.12,-426 127.12,-420 133.12,-414 139.12,-414 139.12,-414 170.88,-414 170.88,-414 176.88,-414 182.88,-420 182.88,-426 182.88,-426 182.88,-438 182.88,-438 182.88,-444 176.88,-450 170.88,-450"/>
<text text-anchor="middle" x="155" y="-426.75" font-family="Arial" font-size="15.00">layers</text>
</g>
<!-- /lib/models/layer.dart -->
<g id="node13" class="node">
<title>/lib/models/layer.dart</title>
<path fill="Lavender" stroke="black" stroke-width="1.3" d="M169,-378C169,-378 139,-378 139,-378 133,-378 127,-372 127,-366 127,-366 127,-354 127,-354 127,-348 133,-342 139,-342 139,-342 169,-342 169,-342 175,-342 181,-348 181,-354 181,-354 181,-366 181,-366 181,-372 175,-378 169,-378"/>
<text text-anchor="middle" x="154" y="-354.75" font-family="Arial" font-size="15.00">layer</text>
</g>
<!-- /lib/models/layers.dart&#45;&gt;/lib/models/layer.dart -->
<g id="edge22" class="edge">
<title>/lib/models/layers.dart&#45;&gt;/lib/models/layer.dart</title>
<path fill="none" stroke="#aabbaa" stroke-width="1.3" stroke-opacity="0.533333" d="M148.84,-413.7C147.99,-406.49 147.62,-397.93 147.76,-389.82"/>
<polygon fill="#aabbaa" fill-opacity="0.533333" stroke="#aabbaa" stroke-width="1.3" stroke-opacity="0.533333" points="151.24,-390.23 148.25,-380.07 144.25,-389.88 151.24,-390.23"/>
</g>
<!-- /lib/models/layers.dart&#45;&gt;/lib/models/layer.dart -->
<g id="edge23" class="edge">
<title>/lib/models/layers.dart&#45;&gt;/lib/models/layer.dart</title>
<path fill="none" stroke="#aabbaa" stroke-width="1.3" stroke-dasharray="5,2" stroke-opacity="0.533333" d="M160.67,-413.7C161.31,-406.49 161.43,-397.93 161.07,-389.82"/>
<polygon fill="#aabbaa" fill-opacity="0.533333" stroke="#aabbaa" stroke-width="1.3" stroke-opacity="0.533333" points="164.57,-389.76 160.29,-380.07 157.6,-390.31 164.57,-389.76"/>
</g>
<!-- /lib/helpers/list_helper.dart -->
<g id="node21" class="node">
<title>/lib/helpers/list_helper.dart</title>
<path fill="Lavender" stroke="black" stroke-width="1.3" d="M520.75,-68C520.75,-68 461.25,-68 461.25,-68 455.25,-68 449.25,-62 449.25,-56 449.25,-56 449.25,-44 449.25,-44 449.25,-38 455.25,-32 461.25,-32 461.25,-32 520.75,-32 520.75,-32 526.75,-32 532.75,-38 532.75,-44 532.75,-44 532.75,-56 532.75,-56 532.75,-62 526.75,-68 520.75,-68"/>
<text text-anchor="middle" x="491" y="-44.75" font-family="Arial" font-size="15.00">list_helper</text>
</g>
<!-- /lib/models/layers.dart&#45;&gt;/lib/helpers/list_helper.dart -->
<g id="edge21" class="edge">
<title>/lib/models/layers.dart&#45;&gt;/lib/helpers/list_helper.dart</title>
<path fill="none" stroke="#aabbaa" stroke-width="1.3" stroke-opacity="0.533333" d="M126.96,-413.94C82.27,-384.46 3.05,-321.43 35,-262 114.97,-113.27 334.75,-68.82 437.16,-55.99"/>
<polygon fill="#aabbaa" fill-opacity="0.533333" stroke="#aabbaa" stroke-width="1.3" stroke-opacity="0.533333" points="437.29,-59.5 446.8,-54.84 436.46,-52.55 437.29,-59.5"/>
</g>
<!-- /lib/models/user_action.dart -->
<g id="node11" class="node">
<title>/lib/models/user_action.dart</title>
<path fill="Lavender" stroke="black" stroke-width="1.3" d="M125.62,-306C125.62,-306 56.38,-306 56.38,-306 50.38,-306 44.38,-300 44.38,-294 44.38,-294 44.38,-282 44.38,-282 44.38,-276 50.38,-270 56.38,-270 56.38,-270 125.62,-270 125.62,-270 131.62,-270 137.62,-276 137.62,-282 137.62,-282 137.62,-294 137.62,-294 137.62,-300 131.62,-306 125.62,-306"/>
<text text-anchor="middle" x="91" y="-282.75" font-family="Arial" font-size="15.00">user_action</text>
</g>
<!-- /lib/widgets/brush_style_picker.dart -->
<g id="node26" class="node">
<title>/lib/widgets/brush_style_picker.dart</title>
<path fill="Lavender" stroke="black" stroke-width="1.3" d="M412.25,-223C412.25,-223 295.75,-223 295.75,-223 289.75,-223 283.75,-217 283.75,-211 283.75,-211 283.75,-199 283.75,-199 283.75,-193 289.75,-187 295.75,-187 295.75,-187 412.25,-187 412.25,-187 418.25,-187 424.25,-193 424.25,-199 424.25,-199 424.25,-211 424.25,-211 424.25,-217 418.25,-223 412.25,-223"/>
<text text-anchor="middle" x="354" y="-199.75" font-family="Arial" font-size="15.00">brush_style_picker</text>
</g>
<!-- /lib/models/user_action.dart&#45;&gt;/lib/widgets/brush_style_picker.dart -->
<g id="edge24" class="edge">
<title>/lib/models/user_action.dart&#45;&gt;/lib/widgets/brush_style_picker.dart</title>
<path fill="none" stroke="#aabbaa" stroke-width="1.3" stroke-opacity="0.533333" d="M118.18,-269.61C124.29,-266.88 130.78,-264.23 137,-262 180.66,-246.32 230.85,-232.69 272.01,-222.8"/>
<polygon fill="#aabbaa" fill-opacity="0.533333" stroke="#aabbaa" stroke-width="1.3" stroke-opacity="0.533333" points="272.8,-226.21 281.72,-220.5 271.19,-219.4 272.8,-226.21"/>
</g>
<!-- /lib/models/user_action.dart&#45;&gt;/lib/widgets/brush_style_picker.dart -->
<g id="edge25" class="edge">
<title>/lib/models/user_action.dart&#45;&gt;/lib/widgets/brush_style_picker.dart</title>
<path fill="none" stroke="#aabbaa" stroke-width="1.3" stroke-dasharray="5,2" stroke-opacity="0.533333" d="M135.91,-269.61C142.29,-266.88 148.78,-264.23 155,-262 193.75,-248.08 237.65,-235.78 274.38,-226.27"/>
<polygon fill="#aabbaa" fill-opacity="0.533333" stroke="#aabbaa" stroke-width="1.3" stroke-opacity="0.533333" points="274.81,-229.77 283.63,-223.9 273.07,-222.99 274.81,-229.77"/>
</g>
<!-- /lib/models/app_model.dart&#45;&gt;/lib/models/layers.dart -->
<g id="edge26" class="edge">
<title>/lib/models/app_model.dart&#45;&gt;/lib/models/layers.dart</title>
<path fill="none" stroke="#aabbaa" stroke-width="1.3" stroke-opacity="0.533333" d="M193.74,-306.27C191.33,-324.61 189.64,-354.17 181,-378 177.8,-386.84 172.85,-395.67 168,-403.51"/>
<polygon fill="#aabbaa" fill-opacity="0.533333" stroke="#aabbaa" stroke-width="1.3" stroke-opacity="0.533333" points="165.11,-401.54 162.68,-411.85 171.01,-405.3 165.11,-401.54"/>
</g>
<!-- /lib/models/app_model.dart&#45;&gt;/lib/models/layers.dart -->
<g id="edge27" class="edge">
<title>/lib/models/app_model.dart&#45;&gt;/lib/models/layers.dart</title>
<path fill="none" stroke="#aabbaa" stroke-width="1.3" stroke-dasharray="5,2" stroke-opacity="0.533333" d="M207.1,-306.27C209.33,-324.61 207.64,-354.17 199,-378 195.69,-387.14 190.51,-396.27 184.77,-404.31"/>
<polygon fill="#aabbaa" fill-opacity="0.533333" stroke="#aabbaa" stroke-width="1.3" stroke-opacity="0.533333" points="182.19,-401.93 178.79,-411.96 187.71,-406.23 182.19,-401.93"/>
</g>
<!-- /lib/models/layer.dart&#45;&gt;/lib/models/user_action.dart -->
<g id="edge29" class="edge">
<title>/lib/models/layer.dart&#45;&gt;/lib/models/user_action.dart</title>
<path fill="none" stroke="#aabbaa" stroke-width="1.3" stroke-dasharray="5,2" stroke-opacity="0.533333" d="M138.43,-341.7C131.18,-333.64 122.41,-323.89 114.38,-314.98"/>
<polygon fill="#aabbaa" fill-opacity="0.533333" stroke="#aabbaa" stroke-width="1.3" stroke-opacity="0.533333" points="117,-312.66 107.71,-307.57 111.8,-317.34 117,-312.66"/>
</g>
<!-- /lib/models/layer.dart&#45;&gt;/lib/models/app_model.dart -->
<g id="edge28" class="edge">
<title>/lib/models/layer.dart&#45;&gt;/lib/models/app_model.dart</title>
<path fill="none" stroke="#aabbaa" stroke-width="1.3" stroke-opacity="0.533333" d="M165.37,-341.7C170.5,-333.9 176.67,-324.51 182.37,-315.83"/>
<polygon fill="#aabbaa" fill-opacity="0.533333" stroke="#aabbaa" stroke-width="1.3" stroke-opacity="0.533333" points="185.11,-318.03 187.68,-307.75 179.26,-314.18 185.11,-318.03"/>
</g>
<!-- /lib/main.dart&#45;&gt;/lib/models/app_model.dart -->
<g id="edge31" class="edge">
<title>/lib/main.dart&#45;&gt;/lib/models/app_model.dart</title>
<path fill="none" stroke="#aabbaa" stroke-width="1.3" stroke-opacity="0.533333" d="M190.84,-641.68C147.61,-621.63 68,-575.55 68,-508 68,-508 68,-508 68,-431 68,-385.32 71.24,-367.77 102,-334 108.53,-326.83 125.84,-318.08 144.13,-310.22"/>
<polygon fill="#aabbaa" fill-opacity="0.533333" stroke="#aabbaa" stroke-width="1.3" stroke-opacity="0.533333" points="145.24,-313.55 153.12,-306.47 142.55,-307.09 145.24,-313.55"/>
</g>
<!-- /lib/main_screen.dart -->
<g id="node20" class="node">
<title>/lib/main_screen.dart</title>
<path fill="Lavender" stroke="black" stroke-width="1.3" d="M608.75,-600C608.75,-600 531.25,-600 531.25,-600 525.25,-600 519.25,-594 519.25,-588 519.25,-588 519.25,-576 519.25,-576 519.25,-570 525.25,-564 531.25,-564 531.25,-564 608.75,-564 608.75,-564 614.75,-564 620.75,-570 620.75,-576 620.75,-576 620.75,-588 620.75,-588 620.75,-594 614.75,-600 608.75,-600"/>
<text text-anchor="middle" x="570" y="-576.75" font-family="Arial" font-size="15.00">main_screen</text>
</g>
<!-- /lib/main.dart&#45;&gt;/lib/main_screen.dart -->
<g id="edge30" class="edge">
<title>/lib/main.dart&#45;&gt;/lib/main_screen.dart</title>
<path fill="none" stroke="#aabbaa" stroke-width="1.3" stroke-opacity="0.533333" d="M245.33,-647.57C301.25,-636.44 430.01,-610.84 507.52,-595.42"/>
<polygon fill="#aabbaa" fill-opacity="0.533333" stroke="#aabbaa" stroke-width="1.3" stroke-opacity="0.533333" points="507.98,-598.9 517.11,-593.52 506.62,-592.04 507.98,-598.9"/>
</g>
<!-- /lib/files/file_jpeg.dart -->
<g id="node15" class="node">
<title>/lib/files/file_jpeg.dart</title>
<path fill="Lavender" stroke="black" stroke-width="1.3" d="M700.38,-378C700.38,-378 653.62,-378 653.62,-378 647.62,-378 641.62,-372 641.62,-366 641.62,-366 641.62,-354 641.62,-354 641.62,-348 647.62,-342 653.62,-342 653.62,-342 700.38,-342 700.38,-342 706.38,-342 712.38,-348 712.38,-354 712.38,-354 712.38,-366 712.38,-366 712.38,-372 706.38,-378 700.38,-378"/>
<text text-anchor="middle" x="677" y="-354.75" font-family="Arial" font-size="15.00">file_jpeg</text>
</g>
<!-- /lib/files/export_download_web.dart -->
<g id="node16" class="node">
<title>/lib/files/export_download_web.dart</title>
<path fill="Lavender" stroke="black" stroke-width="1.3" d="M747.25,-450C747.25,-450 606.75,-450 606.75,-450 600.75,-450 594.75,-444 594.75,-438 594.75,-438 594.75,-426 594.75,-426 594.75,-420 600.75,-414 606.75,-414 606.75,-414 747.25,-414 747.25,-414 753.25,-414 759.25,-420 759.25,-426 759.25,-426 759.25,-438 759.25,-438 759.25,-444 753.25,-450 747.25,-450"/>
<text text-anchor="middle" x="677" y="-426.75" font-family="Arial" font-size="15.00">export_download_web</text>
</g>
<!-- /lib/files/export_download_web.dart&#45;&gt;/lib/panels/share_panel.dart -->
<g id="edge35" class="edge">
<title>/lib/files/export_download_web.dart&#45;&gt;/lib/panels/share_panel.dart</title>
<path fill="none" stroke="#aabbaa" stroke-width="1.3" stroke-opacity="0.533333" d="M738.69,-413.52C776.76,-402.73 825.39,-388.95 863.28,-378.21"/>
<polygon fill="#aabbaa" fill-opacity="0.533333" stroke="#aabbaa" stroke-width="1.3" stroke-opacity="0.533333" points="864.11,-381.61 872.78,-375.52 862.2,-374.88 864.11,-381.61"/>
</g>
<!-- /lib/files/export_download_web.dart&#45;&gt;/lib/models/app_model.dart -->
<g id="edge34" class="edge">
<title>/lib/files/export_download_web.dart&#45;&gt;/lib/models/app_model.dart</title>
<path fill="none" stroke="#aabbaa" stroke-width="1.3" stroke-opacity="0.533333" d="M594.7,-415.38C591.77,-414.9 588.86,-414.44 586,-414 520.51,-403.91 344.16,-416.18 290,-378 272.13,-365.4 282.5,-350.37 268,-334 260.98,-326.07 252.25,-318.93 243.41,-312.8"/>
<polygon fill="#aabbaa" fill-opacity="0.533333" stroke="#aabbaa" stroke-width="1.3" stroke-opacity="0.533333" points="245.41,-309.92 235.12,-307.39 241.58,-315.78 245.41,-309.92"/>
</g>
<!-- /lib/files/export_download_web.dart&#45;&gt;/lib/files/file_jpeg.dart -->
<g id="edge32" class="edge">
<title>/lib/files/export_download_web.dart&#45;&gt;/lib/files/file_jpeg.dart</title>
<path fill="none" stroke="#aabbaa" stroke-width="1.3" stroke-opacity="0.533333" d="M677,-413.7C677,-406.49 677,-397.93 677,-389.82"/>
<polygon fill="#aabbaa" fill-opacity="0.533333" stroke="#aabbaa" stroke-width="1.3" stroke-opacity="0.533333" points="680.5,-390.07 677,-380.07 673.5,-390.07 680.5,-390.07"/>
</g>
<!-- /lib/files/file_ora.dart -->
<g id="node17" class="node">
<title>/lib/files/file_ora.dart</title>
<path fill="Lavender" stroke="black" stroke-width="1.3" d="M351.38,-378C351.38,-378 310.62,-378 310.62,-378 304.62,-378 298.62,-372 298.62,-366 298.62,-366 298.62,-354 298.62,-354 298.62,-348 304.62,-342 310.62,-342 310.62,-342 351.38,-342 351.38,-342 357.38,-342 363.38,-348 363.38,-354 363.38,-354 363.38,-366 363.38,-366 363.38,-372 357.38,-378 351.38,-378"/>
<text text-anchor="middle" x="331" y="-354.75" font-family="Arial" font-size="15.00">file_ora</text>
</g>
<!-- /lib/files/export_download_web.dart&#45;&gt;/lib/files/file_ora.dart -->
<g id="edge33" class="edge">
<title>/lib/files/export_download_web.dart&#45;&gt;/lib/files/file_ora.dart</title>
<path fill="none" stroke="#aabbaa" stroke-width="1.3" stroke-opacity="0.533333" d="M594.56,-414.32C525.66,-400.38 430.07,-381.04 374.96,-369.89"/>
<polygon fill="#aabbaa" fill-opacity="0.533333" stroke="#aabbaa" stroke-width="1.3" stroke-opacity="0.533333" points="375.93,-366.52 365.44,-367.97 374.54,-373.38 375.93,-366.52"/>
</g>
<!-- /lib/files/file_ora.dart&#45;&gt;/lib/models/app_model.dart -->
<g id="edge37" class="edge">
<title>/lib/files/file_ora.dart&#45;&gt;/lib/models/app_model.dart</title>
<path fill="none" stroke="#aabbaa" stroke-width="1.3" stroke-opacity="0.533333" d="M299.35,-341.74C294.55,-339.14 289.65,-336.49 285,-334 271.53,-326.78 256.83,-318.96 243.49,-311.91"/>
<polygon fill="#aabbaa" fill-opacity="0.533333" stroke="#aabbaa" stroke-width="1.3" stroke-opacity="0.533333" points="245.36,-308.94 234.88,-307.36 242.09,-315.13 245.36,-308.94"/>
</g>
<!-- /lib/files/file_ora.dart&#45;&gt;/lib/helpers/list_helper.dart -->
<g id="edge36" class="edge">
<title>/lib/files/file_ora.dart&#45;&gt;/lib/helpers/list_helper.dart</title>
<path fill="none" stroke="#aabbaa" stroke-width="1.3" stroke-opacity="0.533333" d="M316.3,-341.66C289.99,-308.4 240.41,-234.05 272,-179 307.33,-117.44 384.98,-82.66 437.66,-65.34"/>
<polygon fill="#aabbaa" fill-opacity="0.533333" stroke="#aabbaa" stroke-width="1.3" stroke-opacity="0.533333" points="438.47,-68.75 446.95,-62.4 436.36,-62.08 438.47,-68.75"/>
</g>
<!-- /lib/files/export_download_non_web.dart -->
<g id="node18" class="node">
<title>/lib/files/export_download_non_web.dart</title>
<path fill="Lavender" stroke="black" stroke-width="1.3" d="M564.75,-450C564.75,-450 391.25,-450 391.25,-450 385.25,-450 379.25,-444 379.25,-438 379.25,-438 379.25,-426 379.25,-426 379.25,-420 385.25,-414 391.25,-414 391.25,-414 564.75,-414 564.75,-414 570.75,-414 576.75,-420 576.75,-426 576.75,-426 576.75,-438 576.75,-438 576.75,-444 570.75,-450 564.75,-450"/>
<text text-anchor="middle" x="478" y="-426.75" font-family="Arial" font-size="15.00">export_download_non_web</text>
</g>
<!-- /lib/files/export_download_non_web.dart&#45;&gt;/lib/panels/share_panel.dart -->
<g id="edge40" class="edge">
<title>/lib/files/export_download_non_web.dart&#45;&gt;/lib/panels/share_panel.dart</title>
<path fill="none" stroke="#aabbaa" stroke-width="1.3" stroke-opacity="0.533333" d="M577.16,-415.39C580.14,-414.92 583.09,-414.46 586,-414 682.87,-398.78 795.36,-381.15 863.05,-370.55"/>
<polygon fill="#aabbaa" fill-opacity="0.533333" stroke="#aabbaa" stroke-width="1.3" stroke-opacity="0.533333" points="863.46,-374.03 872.8,-369.02 862.37,-367.11 863.46,-374.03"/>
</g>
<!-- /lib/files/export_download_non_web.dart&#45;&gt;/lib/models/app_model.dart -->
<g id="edge39" class="edge">
<title>/lib/files/export_download_non_web.dart&#45;&gt;/lib/models/app_model.dart</title>
<path fill="none" stroke="#aabbaa" stroke-width="1.3" stroke-opacity="0.533333" d="M382.76,-413.52C338.79,-403.99 292.48,-391.42 275,-378 257.16,-364.3 264.1,-351.53 250,-334 244.46,-327.12 237.84,-320.37 231.24,-314.29"/>
<polygon fill="#aabbaa" fill-opacity="0.533333" stroke="#aabbaa" stroke-width="1.3" stroke-opacity="0.533333" points="233.66,-311.76 223.86,-307.75 229.03,-317 233.66,-311.76"/>
</g>
<!-- /lib/files/export_download_non_web.dart&#45;&gt;/lib/files/file_ora.dart -->
<g id="edge38" class="edge">
<title>/lib/files/export_download_non_web.dart&#45;&gt;/lib/files/file_ora.dart</title>
<path fill="none" stroke="#aabbaa" stroke-width="1.3" stroke-opacity="0.533333" d="M441.28,-413.52C421.01,-403.86 395.7,-391.81 374.44,-381.69"/>
<polygon fill="#aabbaa" fill-opacity="0.533333" stroke="#aabbaa" stroke-width="1.3" stroke-opacity="0.533333" points="376.05,-378.58 365.52,-377.44 373.04,-384.9 376.05,-378.58"/>
</g>
<!-- /lib/files/import_files.dart&#45;&gt;/lib/models/app_model.dart -->
<g id="edge42" class="edge">
<title>/lib/files/import_files.dart&#45;&gt;/lib/models/app_model.dart</title>
<path fill="none" stroke="#aabbaa" stroke-width="1.3" stroke-opacity="0.533333" d="M290.89,-413.61C278.95,-404.1 265,-391.52 255,-378 242.22,-360.73 246.11,-352.38 235,-334 231.26,-327.81 226.81,-321.5 222.35,-315.62"/>
<polygon fill="#aabbaa" fill-opacity="0.533333" stroke="#aabbaa" stroke-width="1.3" stroke-opacity="0.533333" points="225.13,-313.5 216.19,-307.81 219.63,-317.83 225.13,-313.5"/>
</g>
<!-- /lib/files/import_files.dart&#45;&gt;/lib/files/file_ora.dart -->
<g id="edge41" class="edge">
<title>/lib/files/import_files.dart&#45;&gt;/lib/files/file_ora.dart</title>
<path fill="none" stroke="#aabbaa" stroke-width="1.3" stroke-opacity="0.533333" d="M318.96,-413.7C320.62,-406.41 322.61,-397.73 324.48,-389.54"/>
<polygon fill="#aabbaa" fill-opacity="0.533333" stroke="#aabbaa" stroke-width="1.3" stroke-opacity="0.533333" points="327.84,-390.55 326.65,-380.02 321.01,-388.99 327.84,-390.55"/>
</g>
<!-- /lib/main_screen.dart&#45;&gt;/lib/panels/canvas_panel.dart -->
<g id="edge43" class="edge">
<title>/lib/main_screen.dart&#45;&gt;/lib/panels/canvas_panel.dart</title>
<path fill="none" stroke="#aabbaa" stroke-width="1.3" stroke-opacity="0.533333" d="M620.95,-580.92C714.25,-580.28 908.88,-576.43 973,-556 1104.69,-514.05 1166.92,-501.99 1228,-378 1236.64,-360.46 1240.76,-348.82 1228,-334 1198.52,-299.75 1073.46,-291.22 994.72,-289.3"/>
<polygon fill="#aabbaa" fill-opacity="0.533333" stroke="#aabbaa" stroke-width="1.3" stroke-opacity="0.533333" points="995.01,-285.8 984.94,-289.09 994.86,-292.8 995.01,-285.8"/>
</g>
<!-- /lib/main_screen.dart&#45;&gt;/lib/panels/side_panel.dart -->
<g id="edge44" class="edge">
<title>/lib/main_screen.dart&#45;&gt;/lib/panels/side_panel.dart</title>
<path fill="none" stroke="#aabbaa" stroke-width="1.3" stroke-opacity="0.533333" d="M621.14,-580.98C695.35,-580.24 828.74,-576.05 872,-556 882.68,-551.05 892.33,-542.66 900.13,-534.26"/>
<polygon fill="#aabbaa" fill-opacity="0.533333" stroke="#aabbaa" stroke-width="1.3" stroke-opacity="0.533333" points="902.68,-536.67 906.55,-526.8 897.37,-532.1 902.68,-536.67"/>
</g>
<!-- /lib/main_screen.dart&#45;&gt;/lib/models/app_model.dart -->
<g id="edge45" class="edge">
<title>/lib/main_screen.dart&#45;&gt;/lib/models/app_model.dart</title>
<path fill="none" stroke="#aabbaa" stroke-width="1.3" stroke-opacity="0.533333" d="M518.87,-578.89C449.89,-573.27 327.56,-553.03 257,-481 213.23,-436.32 202.83,-359.62 200.51,-317.97"/>
<polygon fill="#aabbaa" fill-opacity="0.533333" stroke="#aabbaa" stroke-width="1.3" stroke-opacity="0.533333" points="204.02,-318.06 200.11,-308.21 197.02,-318.35 204.02,-318.06"/>
</g>
<!-- /lib/helpers/color_helper.dart -->
<g id="node22" class="node">
<title>/lib/helpers/color_helper.dart</title>
<path fill="Lavender" stroke="black" stroke-width="1.3" d="M534.88,-140C534.88,-140 461.12,-140 461.12,-140 455.12,-140 449.12,-134 449.12,-128 449.12,-128 449.12,-116 449.12,-116 449.12,-110 455.12,-104 461.12,-104 461.12,-104 534.88,-104 534.88,-104 540.88,-104 546.88,-110 546.88,-116 546.88,-116 546.88,-128 546.88,-128 546.88,-134 540.88,-140 534.88,-140"/>
<text text-anchor="middle" x="498" y="-116.75" font-family="Arial" font-size="15.00">color_helper</text>
</g>
<!-- /lib/helpers/color_helper.dart&#45;&gt;/lib/helpers/list_helper.dart -->
<g id="edge46" class="edge">
<title>/lib/helpers/color_helper.dart&#45;&gt;/lib/helpers/list_helper.dart</title>
<path fill="none" stroke="#aabbaa" stroke-width="1.3" stroke-opacity="0.533333" d="M496.27,-103.7C495.55,-96.49 494.69,-87.93 493.88,-79.82"/>
<polygon fill="#aabbaa" fill-opacity="0.533333" stroke="#aabbaa" stroke-width="1.3" stroke-opacity="0.533333" points="497.38,-79.66 492.91,-70.06 490.42,-80.36 497.38,-79.66"/>
</g>
<!-- /lib/widgets/brush_style_picker.dart&#45;&gt;/lib/models/app_model.dart -->
<g id="edge47" class="edge">
<title>/lib/widgets/brush_style_picker.dart&#45;&gt;/lib/models/app_model.dart</title>
<path fill="none" stroke="#aabbaa" stroke-width="1.3" stroke-opacity="0.533333" d="M320.75,-223.49C298.15,-235.38 268.02,-251.23 243.51,-264.12"/>
<polygon fill="#aabbaa" fill-opacity="0.533333" stroke="#aabbaa" stroke-width="1.3" stroke-opacity="0.533333" points="242,-260.95 234.78,-268.71 245.26,-267.15 242,-260.95"/>
</g>
<!-- /lib/widgets/color_picker.dart&#45;&gt;/lib/helpers/list_helper.dart -->
<g id="edge49" class="edge">
<title>/lib/widgets/color_picker.dart&#45;&gt;/lib/helpers/list_helper.dart</title>
<path fill="none" stroke="#aabbaa" stroke-width="1.3" stroke-opacity="0.533333" d="M609.72,-186.61C602.39,-183.57 594.57,-180.8 587,-179 571.09,-175.21 451.25,-182.88 440,-171 419.52,-149.38 428.87,-131.62 440,-104 444.14,-93.74 451.32,-84.35 459,-76.42"/>
<polygon fill="#aabbaa" fill-opacity="0.533333" stroke="#aabbaa" stroke-width="1.3" stroke-opacity="0.533333" points="461.16,-79.2 466,-69.77 456.34,-74.12 461.16,-79.2"/>
</g>
<!-- /lib/widgets/color_picker.dart&#45;&gt;/lib/helpers/color_helper.dart -->
<g id="edge48" class="edge">
<title>/lib/widgets/color_picker.dart&#45;&gt;/lib/helpers/color_helper.dart</title>
<path fill="none" stroke="#aabbaa" stroke-width="1.3" stroke-opacity="0.533333" d="M612.68,-186.62C591.39,-174.81 562.99,-159.05 539.78,-146.18"/>
<polygon fill="#aabbaa" fill-opacity="0.533333" stroke="#aabbaa" stroke-width="1.3" stroke-opacity="0.533333" points="541.68,-143.23 531.24,-141.44 538.29,-149.35 541.68,-143.23"/>
</g>
</g>
</svg>
