<?xml version="1.0" encoding="UTF-8" standalone="no"?>
<!DOCTYPE svg PUBLIC "-//W3C//DTD SVG 1.1//EN"
 "http://www.w3.org/Graphics/SVG/1.1/DTD/svg11.dtd">
<!-- Generated by graphviz version 12.2.1 (20241206.2353)
 -->
<!-- Pages: 1 -->
<svg width="3833pt" height="922pt"
 viewBox="0.00 0.00 3833.00 922.00" xmlns="http://www.w3.org/2000/svg" xmlns:xlink="http://www.w3.org/1999/xlink">
<g id="graph0" class="graph" transform="scale(1 1) rotate(0) translate(4 918)">
<polygon fill="white" stroke="none" points="-4,4 -4,-918 3829,-918 3829,4 -4,4"/>
<g id="clust1" class="cluster">
<title>cluster~</title>
<path fill="none" stroke="lightgray" stroke-width="2.6" d="M20,-8C20,-8 3805,-8 3805,-8 3811,-8 3817,-14 3817,-20 3817,-20 3817,-894 3817,-894 3817,-900 3811,-906 3805,-906 3805,-906 20,-906 20,-906 14,-906 8,-900 8,-894 8,-894 8,-20 8,-20 8,-14 14,-8 20,-8"/>
<text text-anchor="middle" x="1912.5" y="-889.65" font-family="Arial Black" font-size="13.00">fpaint</text>
</g>
<g id="clust2" class="cluster">
<title>cluster~/test</title>
<path fill="none" stroke="lightgray" stroke-width="2.6" d="M1407,-722C1407,-722 2164,-722 2164,-722 2170,-722 2176,-728 2176,-734 2176,-734 2176,-863 2176,-863 2176,-869 2170,-875 2164,-875 2164,-875 1407,-875 1407,-875 1401,-875 1395,-869 1395,-863 1395,-863 1395,-734 1395,-734 1395,-728 1401,-722 1407,-722"/>
<text text-anchor="middle" x="1785.5" y="-858.65" font-family="Arial Black" font-size="13.00">test</text>
</g>
<g id="clust3" class="cluster">
<title>cluster~/test/panels</title>
<path fill="none" stroke="lightgray" stroke-width="2.6" d="M1682,-730C1682,-730 1794,-730 1794,-730 1800,-730 1806,-736 1806,-742 1806,-742 1806,-832 1806,-832 1806,-838 1800,-844 1794,-844 1794,-844 1682,-844 1682,-844 1676,-844 1670,-838 1670,-832 1670,-832 1670,-742 1670,-742 1670,-736 1676,-730 1682,-730"/>
<text text-anchor="middle" x="1738" y="-827.65" font-family="Arial Black" font-size="13.00">panels</text>
</g>
<g id="clust4" class="cluster">
<title>cluster~/test/panels/tools</title>
<path fill="none" stroke="lightgray" stroke-width="2.6" d="M1690,-738C1690,-738 1786,-738 1786,-738 1792,-738 1798,-744 1798,-750 1798,-750 1798,-801 1798,-801 1798,-807 1792,-813 1786,-813 1786,-813 1690,-813 1690,-813 1684,-813 1678,-807 1678,-801 1678,-801 1678,-750 1678,-750 1678,-744 1684,-738 1690,-738"/>
<text text-anchor="middle" x="1738" y="-796.65" font-family="Arial Black" font-size="13.00">tools</text>
</g>
<g id="clust5" class="cluster">
<title>cluster~/test/models</title>
<path fill="none" stroke="lightgray" stroke-width="2.6" d="M1415,-738C1415,-738 1551,-738 1551,-738 1557,-738 1563,-744 1563,-750 1563,-750 1563,-801 1563,-801 1563,-807 1557,-813 1551,-813 1551,-813 1415,-813 1415,-813 1409,-813 1403,-807 1403,-801 1403,-801 1403,-750 1403,-750 1403,-744 1409,-738 1415,-738"/>
<text text-anchor="middle" x="1483" y="-796.65" font-family="Arial Black" font-size="13.00">models</text>
</g>
<g id="clust6" class="cluster">
<title>cluster~/lib</title>
<path fill="none" stroke="lightgray" stroke-width="2.6" d="M40,-16C40,-16 3785,-16 3785,-16 3791,-16 3797,-22 3797,-28 3797,-28 3797,-702 3797,-702 3797,-708 3791,-714 3785,-714 3785,-714 40,-714 40,-714 34,-714 28,-708 28,-702 28,-702 28,-28 28,-28 28,-22 34,-16 40,-16"/>
<text text-anchor="middle" x="1912.5" y="-697.65" font-family="Arial Black" font-size="13.00">lib</text>
</g>
<g id="clust7" class="cluster">
<title>cluster~/lib/panels</title>
<path fill="none" stroke="lightgray" stroke-width="2.6" d="M1984,-251C1984,-251 2853,-251 2853,-251 2859,-251 2865,-257 2865,-263 2865,-263 2865,-555 2865,-555 2865,-561 2859,-567 2853,-567 2853,-567 1984,-567 1984,-567 1978,-567 1972,-561 1972,-555 1972,-555 1972,-263 1972,-263 1972,-257 1978,-251 1984,-251"/>
<text text-anchor="middle" x="2418.5" y="-550.65" font-family="Arial Black" font-size="13.00">panels</text>
</g>
<g id="clust8" class="cluster">
<title>cluster~/lib/panels/tools</title>
<path fill="none" stroke="lightgray" stroke-width="2.6" d="M1992,-342C1992,-342 2264,-342 2264,-342 2270,-342 2276,-348 2276,-354 2276,-354 2276,-480 2276,-480 2276,-486 2270,-492 2264,-492 2264,-492 1992,-492 1992,-492 1986,-492 1980,-486 1980,-480 1980,-480 1980,-354 1980,-354 1980,-348 1986,-342 1992,-342"/>
<text text-anchor="middle" x="2128" y="-475.65" font-family="Arial Black" font-size="13.00">tools</text>
</g>
<g id="clust9" class="cluster">
<title>cluster~/lib/panels/layers</title>
<path fill="none" stroke="lightgray" stroke-width="2.6" d="M2296,-259C2296,-259 2525,-259 2525,-259 2531,-259 2537,-265 2537,-271 2537,-271 2537,-480 2537,-480 2537,-486 2531,-492 2525,-492 2525,-492 2296,-492 2296,-492 2290,-492 2284,-486 2284,-480 2284,-480 2284,-271 2284,-271 2284,-265 2290,-259 2296,-259"/>
<text text-anchor="middle" x="2410.5" y="-475.65" font-family="Arial Black" font-size="13.00">layers</text>
</g>
<g id="clust10" class="cluster">
<title>cluster~/lib/models</title>
<path fill="none" stroke="lightgray" stroke-width="2.6" d="M1694,-96C1694,-96 1928,-96 1928,-96 1934,-96 1940,-102 1940,-108 1940,-108 1940,-405 1940,-405 1940,-411 1934,-417 1928,-417 1928,-417 1694,-417 1694,-417 1688,-417 1682,-411 1682,-405 1682,-405 1682,-108 1682,-108 1682,-102 1688,-96 1694,-96"/>
<text text-anchor="middle" x="1811" y="-400.65" font-family="Arial Black" font-size="13.00">models</text>
</g>
<g id="clust11" class="cluster">
<title>cluster~/lib/files</title>
<path fill="none" stroke="lightgray" stroke-width="2.6" d="M2939,-259C2939,-259 3727,-259 3727,-259 3733,-259 3739,-265 3739,-271 3739,-271 3739,-405 3739,-405 3739,-411 3733,-417 3727,-417 3727,-417 2939,-417 2939,-417 2933,-417 2927,-411 2927,-405 2927,-405 2927,-271 2927,-271 2927,-265 2933,-259 2939,-259"/>
<text text-anchor="middle" x="3333" y="-400.65" font-family="Arial Black" font-size="13.00">files</text>
</g>
<g id="clust12" class="cluster">
<title>cluster~/lib/helpers</title>
<path fill="none" stroke="lightgray" stroke-width="2.6" d="M1550,-24C1550,-24 1648,-24 1648,-24 1654,-24 1660,-30 1660,-36 1660,-36 1660,-231 1660,-231 1660,-237 1654,-243 1648,-243 1648,-243 1550,-243 1550,-243 1544,-243 1538,-237 1538,-231 1538,-231 1538,-36 1538,-36 1538,-30 1544,-24 1550,-24"/>
<text text-anchor="middle" x="1599" y="-226.65" font-family="Arial Black" font-size="13.00">helpers</text>
</g>
<g id="clust13" class="cluster">
<title>cluster~/lib/widgets</title>
<path fill="none" stroke="lightgray" stroke-width="2.6" d="M60,-168C60,-168 1486,-168 1486,-168 1492,-168 1498,-174 1498,-180 1498,-180 1498,-322 1498,-322 1498,-328 1492,-334 1486,-334 1486,-334 60,-334 60,-334 54,-334 48,-328 48,-322 48,-322 48,-180 48,-180 48,-174 54,-168 60,-168"/>
<text text-anchor="middle" x="773" y="-317.65" font-family="Arial Black" font-size="13.00">widgets</text>
</g>
<!-- /test/paint_model_test.dart -->
<g id="node1" class="node">
<title>/test/paint_model_test.dart</title>
<path fill="Lavender" stroke="black" stroke-width="1.3" d="M2156,-782C2156,-782 2050,-782 2050,-782 2044,-782 2038,-776 2038,-770 2038,-770 2038,-758 2038,-758 2038,-752 2044,-746 2050,-746 2050,-746 2156,-746 2156,-746 2162,-746 2168,-752 2168,-758 2168,-758 2168,-770 2168,-770 2168,-776 2162,-782 2156,-782"/>
<text text-anchor="middle" x="2103" y="-758.75" font-family="Arial" font-size="15.00">paint_model_test</text>
</g>
<!-- /lib/models/app_model.dart -->
<g id="node25" class="node">
<title>/lib/models/app_model.dart</title>
<path fill="Lavender" stroke="black" stroke-width="1.3" d="M1919.75,-212C1919.75,-212 1854.25,-212 1854.25,-212 1848.25,-212 1842.25,-206 1842.25,-200 1842.25,-200 1842.25,-188 1842.25,-188 1842.25,-182 1848.25,-176 1854.25,-176 1854.25,-176 1919.75,-176 1919.75,-176 1925.75,-176 1931.75,-182 1931.75,-188 1931.75,-188 1931.75,-200 1931.75,-200 1931.75,-206 1925.75,-212 1919.75,-212"/>
<text text-anchor="middle" x="1887" y="-188.75" font-family="Arial" font-size="15.00">app_model</text>
</g>
<!-- /test/paint_model_test.dart&#45;&gt;/lib/models/app_model.dart -->
<g id="edge1" class="edge">
<title>/test/paint_model_test.dart&#45;&gt;/lib/models/app_model.dart</title>
<path fill="none" stroke="#aabbaa" stroke-width="1.3" stroke-opacity="0.533333" d="M2168.38,-762.29C2476.12,-758.78 3766.79,-742.38 3797,-714 3836.04,-677.33 3808,-647.56 3808,-594 3808,-594 3808,-594 3808,-367 3808,-315.35 3838.08,-286.95 3801,-251 3766.79,-217.84 2258.14,-199.15 1943.95,-195.62"/>
<polygon fill="#aabbaa" fill-opacity="0.533333" stroke="#aabbaa" stroke-width="1.3" stroke-opacity="0.533333" points="1944.01,-192.12 1933.98,-195.51 1943.94,-199.12 1944.01,-192.12"/>
</g>
<!-- /test/panels/tools/flood_fill_test.dart -->
<g id="node2" class="node">
<title>/test/panels/tools/flood_fill_test.dart</title>
<path fill="Lavender" stroke="black" stroke-width="1.3" d="M1777.5,-782C1777.5,-782 1698.5,-782 1698.5,-782 1692.5,-782 1686.5,-776 1686.5,-770 1686.5,-770 1686.5,-758 1686.5,-758 1686.5,-752 1692.5,-746 1698.5,-746 1698.5,-746 1777.5,-746 1777.5,-746 1783.5,-746 1789.5,-752 1789.5,-758 1789.5,-758 1789.5,-770 1789.5,-770 1789.5,-776 1783.5,-782 1777.5,-782"/>
<text text-anchor="middle" x="1738" y="-758.75" font-family="Arial" font-size="15.00">flood_fill_test</text>
</g>
<!-- /lib/panels/tools/flood_fill.dart -->
<g id="node9" class="node">
<title>/lib/panels/tools/flood_fill.dart</title>
<path fill="Lavender" stroke="black" stroke-width="1.3" d="M2046,-461C2046,-461 2000,-461 2000,-461 1994,-461 1988,-455 1988,-449 1988,-449 1988,-437 1988,-437 1988,-431 1994,-425 2000,-425 2000,-425 2046,-425 2046,-425 2052,-425 2058,-431 2058,-437 2058,-437 2058,-449 2058,-449 2058,-455 2052,-461 2046,-461"/>
<text text-anchor="middle" x="2023" y="-437.75" font-family="Arial" font-size="15.00">flood_fill</text>
</g>
<!-- /test/panels/tools/flood_fill_test.dart&#45;&gt;/lib/panels/tools/flood_fill.dart -->
<g id="edge2" class="edge">
<title>/test/panels/tools/flood_fill_test.dart&#45;&gt;/lib/panels/tools/flood_fill.dart</title>
<path fill="none" stroke="#aabbaa" stroke-width="1.3" stroke-opacity="0.533333" d="M1731.82,-745.75C1716.52,-699.72 1682.38,-572.53 1743,-500 1772.23,-465.03 1903.91,-451.41 1975.79,-446.5"/>
<polygon fill="#aabbaa" fill-opacity="0.533333" stroke="#aabbaa" stroke-width="1.3" stroke-opacity="0.533333" points="1975.92,-450 1985.68,-445.87 1975.47,-443.02 1975.92,-450"/>
</g>
<!-- /test/models/canvas_resize_test.dart -->
<g id="node3" class="node">
<title>/test/models/canvas_resize_test.dart</title>
<path fill="Lavender" stroke="black" stroke-width="1.3" d="M1543.12,-782C1543.12,-782 1422.88,-782 1422.88,-782 1416.88,-782 1410.88,-776 1410.88,-770 1410.88,-770 1410.88,-758 1410.88,-758 1410.88,-752 1416.88,-746 1422.88,-746 1422.88,-746 1543.12,-746 1543.12,-746 1549.12,-746 1555.12,-752 1555.12,-758 1555.12,-758 1555.12,-770 1555.12,-770 1555.12,-776 1549.12,-782 1543.12,-782"/>
<text text-anchor="middle" x="1483" y="-758.75" font-family="Arial" font-size="15.00">canvas_resize_test</text>
</g>
<!-- /lib/models/canvas_resize.dart -->
<g id="node23" class="node">
<title>/lib/models/canvas_resize.dart</title>
<path fill="Lavender" stroke="black" stroke-width="1.3" d="M1789.62,-140C1789.62,-140 1702.38,-140 1702.38,-140 1696.38,-140 1690.38,-134 1690.38,-128 1690.38,-128 1690.38,-116 1690.38,-116 1690.38,-110 1696.38,-104 1702.38,-104 1702.38,-104 1789.62,-104 1789.62,-104 1795.62,-104 1801.62,-110 1801.62,-116 1801.62,-116 1801.62,-128 1801.62,-128 1801.62,-134 1795.62,-140 1789.62,-140"/>
<text text-anchor="middle" x="1746" y="-116.75" font-family="Arial" font-size="15.00">canvas_resize</text>
</g>
<!-- /test/models/canvas_resize_test.dart&#45;&gt;/lib/models/canvas_resize.dart -->
<g id="edge3" class="edge">
<title>/test/models/canvas_resize_test.dart&#45;&gt;/lib/models/canvas_resize.dart</title>
<path fill="none" stroke="#aabbaa" stroke-width="1.3" stroke-opacity="0.533333" d="M1410.61,-762.15C1135.17,-758.68 165.13,-744.37 107,-714 47.91,-683.13 17,-660.67 17,-594 17,-594 17,-594 17,-284 17,-231.07 2.83,-201.27 44,-168 79,-139.71 1619.27,-144.98 1664,-140 1668.8,-139.47 1673.73,-138.79 1678.68,-138"/>
<polygon fill="#aabbaa" fill-opacity="0.533333" stroke="#aabbaa" stroke-width="1.3" stroke-opacity="0.533333" points="1679,-141.5 1688.27,-136.35 1677.82,-134.6 1679,-141.5"/>
</g>
<!-- /test/widget_test.dart -->
<g id="node4" class="node">
<title>/test/widget_test.dart</title>
<path fill="Lavender" stroke="black" stroke-width="1.3" d="M1893.88,-782C1893.88,-782 1826.12,-782 1826.12,-782 1820.12,-782 1814.12,-776 1814.12,-770 1814.12,-770 1814.12,-758 1814.12,-758 1814.12,-752 1820.12,-746 1826.12,-746 1826.12,-746 1893.88,-746 1893.88,-746 1899.88,-746 1905.88,-752 1905.88,-758 1905.88,-758 1905.88,-770 1905.88,-770 1905.88,-776 1899.88,-782 1893.88,-782"/>
<text text-anchor="middle" x="1860" y="-758.75" font-family="Arial" font-size="15.00">widget_test</text>
</g>
<!-- /lib/main.dart -->
<g id="node27" class="node">
<title>/lib/main.dart</title>
<path fill="Lavender" stroke="black" stroke-width="1.3" d="M3272,-683C3272,-683 3242,-683 3242,-683 3236,-683 3230,-677 3230,-671 3230,-671 3230,-659 3230,-659 3230,-653 3236,-647 3242,-647 3242,-647 3272,-647 3272,-647 3278,-647 3284,-653 3284,-659 3284,-659 3284,-671 3284,-671 3284,-677 3278,-683 3272,-683"/>
<text text-anchor="middle" x="3257" y="-659.75" font-family="Arial" font-size="15.00">main</text>
</g>
<!-- /test/widget_test.dart&#45;&gt;/lib/main.dart -->
<g id="edge4" class="edge">
<title>/test/widget_test.dart&#45;&gt;/lib/main.dart</title>
<path fill="none" stroke="#aabbaa" stroke-width="1.3" stroke-opacity="0.533333" d="M1877.2,-745.9C1887.31,-737.03 1900.86,-727.02 1915,-722 2040.44,-677.46 3009.74,-667.82 3217.77,-666.26"/>
<polygon fill="#aabbaa" fill-opacity="0.533333" stroke="#aabbaa" stroke-width="1.3" stroke-opacity="0.533333" points="3217.61,-669.76 3227.58,-666.19 3217.56,-662.76 3217.61,-669.76"/>
</g>
<!-- /test/file_xcf_test.dart -->
<g id="node5" class="node">
<title>/test/file_xcf_test.dart</title>
<path fill="Lavender" stroke="black" stroke-width="1.3" d="M2007.75,-782C2007.75,-782 1936.25,-782 1936.25,-782 1930.25,-782 1924.25,-776 1924.25,-770 1924.25,-770 1924.25,-758 1924.25,-758 1924.25,-752 1930.25,-746 1936.25,-746 1936.25,-746 2007.75,-746 2007.75,-746 2013.75,-746 2019.75,-752 2019.75,-758 2019.75,-758 2019.75,-770 2019.75,-770 2019.75,-776 2013.75,-782 2007.75,-782"/>
<text text-anchor="middle" x="1972" y="-758.75" font-family="Arial" font-size="15.00">file_xcf_test</text>
</g>
<!-- /lib/files/xcf_reader.dart -->
<g id="node28" class="node">
<title>/lib/files/xcf_reader.dart</title>
<path fill="Lavender" stroke="black" stroke-width="1.3" d="M3718.62,-386C3718.62,-386 3655.38,-386 3655.38,-386 3649.38,-386 3643.38,-380 3643.38,-374 3643.38,-374 3643.38,-362 3643.38,-362 3643.38,-356 3649.38,-350 3655.38,-350 3655.38,-350 3718.62,-350 3718.62,-350 3724.62,-350 3730.62,-356 3730.62,-362 3730.62,-362 3730.62,-374 3730.62,-374 3730.62,-380 3724.62,-386 3718.62,-386"/>
<text text-anchor="middle" x="3687" y="-362.75" font-family="Arial" font-size="15.00">xcf_reader</text>
</g>
<!-- /test/file_xcf_test.dart&#45;&gt;/lib/files/xcf_reader.dart -->
<g id="edge6" class="edge">
<title>/test/file_xcf_test.dart&#45;&gt;/lib/files/xcf_reader.dart</title>
<path fill="none" stroke="#aabbaa" stroke-width="1.3" stroke-opacity="0.533333" d="M1989.87,-745.69C2000.36,-736.75 2014.39,-726.74 2029,-722 2052.17,-714.47 3765.46,-730.9 3783,-714 3821.44,-676.96 3788,-647.38 3788,-594 3788,-594 3788,-594 3788,-517 3788,-476.05 3804.35,-459.94 3783,-425 3773.34,-409.2 3757.43,-397.37 3741.32,-388.76"/>
<polygon fill="#aabbaa" fill-opacity="0.533333" stroke="#aabbaa" stroke-width="1.3" stroke-opacity="0.533333" points="3743.04,-385.71 3732.53,-384.43 3739.95,-391.99 3743.04,-385.71"/>
</g>
<!-- /lib/files/assets_helper.dart -->
<g id="node29" class="node">
<title>/lib/files/assets_helper.dart</title>
<path fill="Lavender" stroke="black" stroke-width="1.3" d="M3032.5,-386C3032.5,-386 2947.5,-386 2947.5,-386 2941.5,-386 2935.5,-380 2935.5,-374 2935.5,-374 2935.5,-362 2935.5,-362 2935.5,-356 2941.5,-350 2947.5,-350 2947.5,-350 3032.5,-350 3032.5,-350 3038.5,-350 3044.5,-356 3044.5,-362 3044.5,-362 3044.5,-374 3044.5,-374 3044.5,-380 3038.5,-386 3032.5,-386"/>
<text text-anchor="middle" x="2990" y="-362.75" font-family="Arial" font-size="15.00">assets_helper</text>
</g>
<!-- /test/file_xcf_test.dart&#45;&gt;/lib/files/assets_helper.dart -->
<g id="edge5" class="edge">
<title>/test/file_xcf_test.dart&#45;&gt;/lib/files/assets_helper.dart</title>
<path fill="none" stroke="#aabbaa" stroke-width="1.3" stroke-opacity="0.533333" d="M1953.54,-745.54C1943.08,-736.79 1929.26,-727.01 1915,-722 1899.05,-716.39 1774.89,-726.02 1763,-714 1725.46,-676.05 1758,-647.38 1758,-594 1758,-594 1758,-594 1758,-517 1758,-408.23 1821.58,-452.11 1976,-425 2073.73,-407.85 2771.62,-436.06 2869,-417 2895.09,-411.89 2922.75,-401.35 2945.03,-391.44"/>
<polygon fill="#aabbaa" fill-opacity="0.533333" stroke="#aabbaa" stroke-width="1.3" stroke-opacity="0.533333" points="2946.4,-394.66 2954.04,-387.31 2943.49,-388.29 2946.4,-394.66"/>
</g>
<!-- /test/layers_test.dart -->
<g id="node6" class="node">
<title>/test/layers_test.dart</title>
<path fill="Lavender" stroke="black" stroke-width="1.3" d="M1650.38,-782C1650.38,-782 1585.62,-782 1585.62,-782 1579.62,-782 1573.62,-776 1573.62,-770 1573.62,-770 1573.62,-758 1573.62,-758 1573.62,-752 1579.62,-746 1585.62,-746 1585.62,-746 1650.38,-746 1650.38,-746 1656.38,-746 1662.38,-752 1662.38,-758 1662.38,-758 1662.38,-770 1662.38,-770 1662.38,-776 1656.38,-782 1650.38,-782"/>
<text text-anchor="middle" x="1618" y="-758.75" font-family="Arial" font-size="15.00">layers_test</text>
</g>
<!-- /lib/models/layer.dart -->
<g id="node26" class="node">
<title>/lib/models/layer.dart</title>
<path fill="Lavender" stroke="black" stroke-width="1.3" d="M1772,-303C1772,-303 1742,-303 1742,-303 1736,-303 1730,-297 1730,-291 1730,-291 1730,-279 1730,-279 1730,-273 1736,-267 1742,-267 1742,-267 1772,-267 1772,-267 1778,-267 1784,-273 1784,-279 1784,-279 1784,-291 1784,-291 1784,-297 1778,-303 1772,-303"/>
<text text-anchor="middle" x="1757" y="-279.75" font-family="Arial" font-size="15.00">layer</text>
</g>
<!-- /test/layers_test.dart&#45;&gt;/lib/models/layer.dart -->
<g id="edge7" class="edge">
<title>/test/layers_test.dart&#45;&gt;/lib/models/layer.dart</title>
<path fill="none" stroke="#aabbaa" stroke-width="1.3" stroke-opacity="0.533333" d="M1601.74,-745.71C1592.46,-737.01 1580.08,-727.23 1567,-722 1408.59,-658.68 37,-764.59 37,-594 37,-594 37,-594 37,-442 37,-360.39 1421.08,-344.57 1502,-334 1579.17,-323.93 1668.31,-305.59 1718.13,-294.73"/>
<polygon fill="#aabbaa" fill-opacity="0.533333" stroke="#aabbaa" stroke-width="1.3" stroke-opacity="0.533333" points="1718.68,-298.19 1727.69,-292.63 1717.18,-291.35 1718.68,-298.19"/>
</g>
<!-- /lib/panels/about.dart -->
<g id="node7" class="node">
<title>/lib/panels/about.dart</title>
<path fill="Lavender" stroke="black" stroke-width="1.3" d="M2845,-386C2845,-386 2815,-386 2815,-386 2809,-386 2803,-380 2803,-374 2803,-374 2803,-362 2803,-362 2803,-356 2809,-350 2815,-350 2815,-350 2845,-350 2845,-350 2851,-350 2857,-356 2857,-362 2857,-362 2857,-374 2857,-374 2857,-380 2851,-386 2845,-386"/>
<text text-anchor="middle" x="2830" y="-362.75" font-family="Arial" font-size="15.00">about</text>
</g>
<!-- /lib/panels/tools/tool_selector.dart -->
<g id="node8" class="node">
<title>/lib/panels/tools/tool_selector.dart</title>
<path fill="Lavender" stroke="black" stroke-width="1.3" d="M2076.38,-386C2076.38,-386 1999.62,-386 1999.62,-386 1993.62,-386 1987.62,-380 1987.62,-374 1987.62,-374 1987.62,-362 1987.62,-362 1987.62,-356 1993.62,-350 1999.62,-350 1999.62,-350 2076.38,-350 2076.38,-350 2082.38,-350 2088.38,-356 2088.38,-362 2088.38,-362 2088.38,-374 2088.38,-374 2088.38,-380 2082.38,-386 2076.38,-386"/>
<text text-anchor="middle" x="2038" y="-362.75" font-family="Arial" font-size="15.00">tool_selector</text>
</g>
<!-- /lib/panels/tools/tools_panel.dart -->
<g id="node10" class="node">
<title>/lib/panels/tools/tools_panel.dart</title>
<path fill="Lavender" stroke="black" stroke-width="1.3" d="M2155.88,-461C2155.88,-461 2088.12,-461 2088.12,-461 2082.12,-461 2076.12,-455 2076.12,-449 2076.12,-449 2076.12,-437 2076.12,-437 2076.12,-431 2082.12,-425 2088.12,-425 2088.12,-425 2155.88,-425 2155.88,-425 2161.88,-425 2167.88,-431 2167.88,-437 2167.88,-437 2167.88,-449 2167.88,-449 2167.88,-455 2161.88,-461 2155.88,-461"/>
<text text-anchor="middle" x="2122" y="-437.75" font-family="Arial" font-size="15.00">tools_panel</text>
</g>
<!-- /lib/panels/tools/tools_panel.dart&#45;&gt;/lib/panels/tools/tool_selector.dart -->
<g id="edge11" class="edge">
<title>/lib/panels/tools/tools_panel.dart&#45;&gt;/lib/panels/tools/tool_selector.dart</title>
<path fill="none" stroke="#aabbaa" stroke-width="1.3" stroke-opacity="0.533333" d="M2102.09,-424.7C2091.6,-415.58 2078.54,-404.24 2066.96,-394.16"/>
<polygon fill="#aabbaa" fill-opacity="0.533333" stroke="#aabbaa" stroke-width="1.3" stroke-opacity="0.533333" points="2069.38,-391.64 2059.54,-387.72 2064.79,-396.92 2069.38,-391.64"/>
</g>
<!-- /lib/panels/tools/tool_attributes_widget.dart -->
<g id="node11" class="node">
<title>/lib/panels/tools/tool_attributes_widget.dart</title>
<path fill="Lavender" stroke="black" stroke-width="1.3" d="M2255.75,-386C2255.75,-386 2118.25,-386 2118.25,-386 2112.25,-386 2106.25,-380 2106.25,-374 2106.25,-374 2106.25,-362 2106.25,-362 2106.25,-356 2112.25,-350 2118.25,-350 2118.25,-350 2255.75,-350 2255.75,-350 2261.75,-350 2267.75,-356 2267.75,-362 2267.75,-362 2267.75,-374 2267.75,-374 2267.75,-380 2261.75,-386 2255.75,-386"/>
<text text-anchor="middle" x="2187" y="-362.75" font-family="Arial" font-size="15.00">tool_attributes_widget</text>
</g>
<!-- /lib/panels/tools/tools_panel.dart&#45;&gt;/lib/panels/tools/tool_attributes_widget.dart -->
<g id="edge10" class="edge">
<title>/lib/panels/tools/tools_panel.dart&#45;&gt;/lib/panels/tools/tool_attributes_widget.dart</title>
<path fill="none" stroke="#aabbaa" stroke-width="1.3" stroke-opacity="0.533333" d="M2137.4,-424.7C2145.2,-415.95 2154.83,-405.13 2163.52,-395.37"/>
<polygon fill="#aabbaa" fill-opacity="0.533333" stroke="#aabbaa" stroke-width="1.3" stroke-opacity="0.533333" points="2166.14,-397.69 2170.17,-387.9 2160.91,-393.04 2166.14,-397.69"/>
</g>
<!-- /lib/panels/tools/tools_panel.dart&#45;&gt;/lib/models/app_model.dart -->
<g id="edge9" class="edge">
<title>/lib/panels/tools/tools_panel.dart&#45;&gt;/lib/models/app_model.dart</title>
<path fill="none" stroke="#aabbaa" stroke-width="1.3" stroke-opacity="0.533333" d="M2075.66,-426.93C2072.75,-426.22 2069.84,-425.56 2067,-425 2047.74,-421.19 1993.29,-430.47 1979,-417 1924.71,-365.82 1990.56,-316.04 1954,-251 1947.16,-238.84 1936.58,-228.18 1925.83,-219.52"/>
<polygon fill="#aabbaa" fill-opacity="0.533333" stroke="#aabbaa" stroke-width="1.3" stroke-opacity="0.533333" points="1928.1,-216.84 1918,-213.62 1923.88,-222.43 1928.1,-216.84"/>
</g>
<!-- /lib/helpers/color_helper.dart -->
<g id="node39" class="node">
<title>/lib/helpers/color_helper.dart</title>
<path fill="Lavender" stroke="black" stroke-width="1.3" d="M1631.88,-140C1631.88,-140 1558.12,-140 1558.12,-140 1552.12,-140 1546.12,-134 1546.12,-128 1546.12,-128 1546.12,-116 1546.12,-116 1546.12,-110 1552.12,-104 1558.12,-104 1558.12,-104 1631.88,-104 1631.88,-104 1637.88,-104 1643.88,-110 1643.88,-116 1643.88,-116 1643.88,-128 1643.88,-128 1643.88,-134 1637.88,-140 1631.88,-140"/>
<text text-anchor="middle" x="1595" y="-116.75" font-family="Arial" font-size="15.00">color_helper</text>
</g>
<!-- /lib/panels/tools/tools_panel.dart&#45;&gt;/lib/helpers/color_helper.dart -->
<g id="edge8" class="edge">
<title>/lib/panels/tools/tools_panel.dart&#45;&gt;/lib/helpers/color_helper.dart</title>
<path fill="none" stroke="#aabbaa" stroke-width="1.3" stroke-opacity="0.533333" d="M2075.68,-426.86C2072.76,-426.16 2069.85,-425.53 2067,-425 2054.63,-422.68 1962.85,-425.95 1954,-417 1928.01,-390.73 1970.52,-276.74 1944,-251 1922.78,-230.41 1700.82,-261.8 1678,-243 1651.62,-221.27 1680.23,-196.25 1661,-168 1655.56,-160.01 1648.2,-153.04 1640.35,-147.12"/>
<polygon fill="#aabbaa" fill-opacity="0.533333" stroke="#aabbaa" stroke-width="1.3" stroke-opacity="0.533333" points="1642.49,-144.34 1632.27,-141.54 1638.51,-150.1 1642.49,-144.34"/>
</g>
<!-- /lib/widgets/svg_icon.dart -->
<g id="node41" class="node">
<title>/lib/widgets/svg_icon.dart</title>
<path fill="Lavender" stroke="black" stroke-width="1.3" d="M468.25,-303C468.25,-303 417.75,-303 417.75,-303 411.75,-303 405.75,-297 405.75,-291 405.75,-291 405.75,-279 405.75,-279 405.75,-273 411.75,-267 417.75,-267 417.75,-267 468.25,-267 468.25,-267 474.25,-267 480.25,-273 480.25,-279 480.25,-279 480.25,-291 480.25,-291 480.25,-297 474.25,-303 468.25,-303"/>
<text text-anchor="middle" x="443" y="-279.75" font-family="Arial" font-size="15.00">svg_icon</text>
</g>
<!-- /lib/panels/tools/tools_panel.dart&#45;&gt;/lib/widgets/svg_icon.dart -->
<g id="edge15" class="edge">
<title>/lib/panels/tools/tools_panel.dart&#45;&gt;/lib/widgets/svg_icon.dart</title>
<path fill="none" stroke="#aabbaa" stroke-width="1.3" stroke-opacity="0.533333" d="M2075.71,-426.69C2072.78,-426.03 2069.86,-425.46 2067,-425 2055.2,-423.11 1646.41,-424.37 1637,-417 1609.84,-395.73 1644.28,-363.11 1617,-342 1592.22,-322.82 517.78,-346.4 489,-334 478.26,-329.37 468.81,-320.88 461.32,-312.32"/>
<polygon fill="#aabbaa" fill-opacity="0.533333" stroke="#aabbaa" stroke-width="1.3" stroke-opacity="0.533333" points="464.2,-310.32 455.22,-304.71 458.74,-314.7 464.2,-310.32"/>
</g>
<!-- /lib/widgets/brush_size_picker.dart -->
<g id="node44" class="node">
<title>/lib/widgets/brush_size_picker.dart</title>
<path fill="Lavender" stroke="black" stroke-width="1.3" d="M622,-303C622,-303 510,-303 510,-303 504,-303 498,-297 498,-291 498,-291 498,-279 498,-279 498,-273 504,-267 510,-267 510,-267 622,-267 622,-267 628,-267 634,-273 634,-279 634,-279 634,-291 634,-291 634,-297 628,-303 622,-303"/>
<text text-anchor="middle" x="566" y="-279.75" font-family="Arial" font-size="15.00">brush_size_picker</text>
</g>
<!-- /lib/panels/tools/tools_panel.dart&#45;&gt;/lib/widgets/brush_size_picker.dart -->
<g id="edge12" class="edge">
<title>/lib/panels/tools/tools_panel.dart&#45;&gt;/lib/widgets/brush_size_picker.dart</title>
<path fill="none" stroke="#aabbaa" stroke-width="1.3" stroke-opacity="0.533333" d="M2075.71,-426.69C2072.78,-426.04 2069.86,-425.46 2067,-425 2044.51,-421.38 1674.93,-431.06 1657,-417 1629.85,-395.72 1664.27,-363.13 1637,-342 1615.17,-325.09 669.52,-341.7 643,-334 626.36,-329.17 609.81,-319.63 596.34,-310.32"/>
<polygon fill="#aabbaa" fill-opacity="0.533333" stroke="#aabbaa" stroke-width="1.3" stroke-opacity="0.533333" points="598.44,-307.52 588.28,-304.48 594.33,-313.18 598.44,-307.52"/>
</g>
<!-- /lib/widgets/tolerance_picker.dart -->
<g id="node46" class="node">
<title>/lib/widgets/tolerance_picker.dart</title>
<path fill="Lavender" stroke="black" stroke-width="1.3" d="M1052.75,-303C1052.75,-303 951.25,-303 951.25,-303 945.25,-303 939.25,-297 939.25,-291 939.25,-291 939.25,-279 939.25,-279 939.25,-273 945.25,-267 951.25,-267 951.25,-267 1052.75,-267 1052.75,-267 1058.75,-267 1064.75,-273 1064.75,-279 1064.75,-279 1064.75,-291 1064.75,-291 1064.75,-297 1058.75,-303 1052.75,-303"/>
<text text-anchor="middle" x="1002" y="-279.75" font-family="Arial" font-size="15.00">tolerance_picker</text>
</g>
<!-- /lib/panels/tools/tools_panel.dart&#45;&gt;/lib/widgets/tolerance_picker.dart -->
<g id="edge16" class="edge">
<title>/lib/panels/tools/tools_panel.dart&#45;&gt;/lib/widgets/tolerance_picker.dart</title>
<path fill="none" stroke="#aabbaa" stroke-width="1.3" stroke-opacity="0.533333" d="M2075.71,-426.7C2072.78,-426.04 2069.86,-425.46 2067,-425 2045.66,-421.55 1695.09,-430.24 1678,-417 1650.64,-395.8 1684.44,-363.11 1657,-342 1644.16,-332.12 1089.47,-338.8 1074,-334 1058.38,-329.15 1043.02,-319.74 1030.52,-310.53"/>
<polygon fill="#aabbaa" fill-opacity="0.533333" stroke="#aabbaa" stroke-width="1.3" stroke-opacity="0.533333" points="1032.77,-307.85 1022.72,-304.48 1028.48,-313.38 1032.77,-307.85"/>
</g>
<!-- /lib/widgets/color_preview.dart -->
<g id="node48" class="node">
<title>/lib/widgets/color_preview.dart</title>
<path fill="Lavender" stroke="black" stroke-width="1.3" d="M327.75,-212C327.75,-212 244.25,-212 244.25,-212 238.25,-212 232.25,-206 232.25,-200 232.25,-200 232.25,-188 232.25,-188 232.25,-182 238.25,-176 244.25,-176 244.25,-176 327.75,-176 327.75,-176 333.75,-176 339.75,-182 339.75,-188 339.75,-188 339.75,-200 339.75,-200 339.75,-206 333.75,-212 327.75,-212"/>
<text text-anchor="middle" x="286" y="-188.75" font-family="Arial" font-size="15.00">color_preview</text>
</g>
<!-- /lib/panels/tools/tools_panel.dart&#45;&gt;/lib/widgets/color_preview.dart -->
<g id="edge14" class="edge">
<title>/lib/panels/tools/tools_panel.dart&#45;&gt;/lib/widgets/color_preview.dart</title>
<path fill="none" stroke="#aabbaa" stroke-width="1.3" stroke-opacity="0.533333" d="M2075.72,-426.64C2072.79,-426 2069.86,-425.44 2067,-425 2015.49,-417.11 241.31,-430.58 191,-417 119.68,-397.75 83.96,-397.96 47,-334 28.54,-302.06 24.08,-279.91 47,-251 68.27,-224.18 156.96,-208.97 220.08,-201.36"/>
<polygon fill="#aabbaa" fill-opacity="0.533333" stroke="#aabbaa" stroke-width="1.3" stroke-opacity="0.533333" points="220.45,-204.84 229.98,-200.2 219.65,-197.88 220.45,-204.84"/>
</g>
<!-- /lib/widgets/top_colors.dart -->
<g id="node49" class="node">
<title>/lib/widgets/top_colors.dart</title>
<path fill="Lavender" stroke="black" stroke-width="1.3" d="M243.5,-303C243.5,-303 182.5,-303 182.5,-303 176.5,-303 170.5,-297 170.5,-291 170.5,-291 170.5,-279 170.5,-279 170.5,-273 176.5,-267 182.5,-267 182.5,-267 243.5,-267 243.5,-267 249.5,-267 255.5,-273 255.5,-279 255.5,-279 255.5,-291 255.5,-291 255.5,-297 249.5,-303 243.5,-303"/>
<text text-anchor="middle" x="213" y="-279.75" font-family="Arial" font-size="15.00">top_colors</text>
</g>
<!-- /lib/panels/tools/tools_panel.dart&#45;&gt;/lib/widgets/top_colors.dart -->
<g id="edge17" class="edge">
<title>/lib/panels/tools/tools_panel.dart&#45;&gt;/lib/widgets/top_colors.dart</title>
<path fill="none" stroke="#aabbaa" stroke-width="1.3" stroke-opacity="0.533333" d="M2075.71,-426.69C2072.78,-426.03 2069.86,-425.46 2067,-425 2017.62,-417.09 1666.93,-419.86 1617,-417 1271.95,-397.25 1188.08,-361.07 843,-342 810.93,-340.23 294.83,-345.9 265,-334 253.19,-329.29 242.43,-320.54 233.8,-311.79"/>
<polygon fill="#aabbaa" fill-opacity="0.533333" stroke="#aabbaa" stroke-width="1.3" stroke-opacity="0.533333" points="236.59,-309.65 227.25,-304.64 231.42,-314.38 236.59,-309.65"/>
</g>
<!-- /lib/widgets/color_picker.dart -->
<g id="node52" class="node">
<title>/lib/widgets/color_picker.dart</title>
<path fill="Lavender" stroke="black" stroke-width="1.3" d="M140.12,-303C140.12,-303 67.88,-303 67.88,-303 61.88,-303 55.88,-297 55.88,-291 55.88,-291 55.88,-279 55.88,-279 55.88,-273 61.88,-267 67.88,-267 67.88,-267 140.12,-267 140.12,-267 146.12,-267 152.12,-273 152.12,-279 152.12,-279 152.12,-291 152.12,-291 152.12,-297 146.12,-303 140.12,-303"/>
<text text-anchor="middle" x="104" y="-279.75" font-family="Arial" font-size="15.00">color_picker</text>
</g>
<!-- /lib/panels/tools/tools_panel.dart&#45;&gt;/lib/widgets/color_picker.dart -->
<g id="edge13" class="edge">
<title>/lib/panels/tools/tools_panel.dart&#45;&gt;/lib/widgets/color_picker.dart</title>
<path fill="none" stroke="#aabbaa" stroke-width="1.3" stroke-opacity="0.533333" d="M2075.71,-426.65C2072.79,-426 2069.86,-425.44 2067,-425 1999.79,-414.63 910.86,-421.34 843,-417 538.72,-397.53 442.08,-454.51 162,-334 149.63,-328.68 137.81,-319.86 128.12,-311.22"/>
<polygon fill="#aabbaa" fill-opacity="0.533333" stroke="#aabbaa" stroke-width="1.3" stroke-opacity="0.533333" points="130.63,-308.78 120.95,-304.47 125.83,-313.88 130.63,-308.78"/>
</g>
<!-- /lib/panels/canvas_panel.dart -->
<g id="node12" class="node">
<title>/lib/panels/canvas_panel.dart</title>
<path fill="Lavender" stroke="black" stroke-width="1.3" d="M2642.75,-303C2642.75,-303 2559.25,-303 2559.25,-303 2553.25,-303 2547.25,-297 2547.25,-291 2547.25,-291 2547.25,-279 2547.25,-279 2547.25,-273 2553.25,-267 2559.25,-267 2559.25,-267 2642.75,-267 2642.75,-267 2648.75,-267 2654.75,-273 2654.75,-279 2654.75,-279 2654.75,-291 2654.75,-291 2654.75,-297 2648.75,-303 2642.75,-303"/>
<text text-anchor="middle" x="2601" y="-279.75" font-family="Arial" font-size="15.00">canvas_panel</text>
</g>
<!-- /lib/panels/canvas_panel.dart&#45;&gt;/lib/models/app_model.dart -->
<g id="edge18" class="edge">
<title>/lib/panels/canvas_panel.dart&#45;&gt;/lib/models/app_model.dart</title>
<path fill="none" stroke="#aabbaa" stroke-width="1.3" stroke-opacity="0.533333" d="M2574.88,-266.53C2564.72,-260.59 2552.72,-254.55 2541,-251 2429.97,-217.37 2081.86,-201.81 1944.02,-196.85"/>
<polygon fill="#aabbaa" fill-opacity="0.533333" stroke="#aabbaa" stroke-width="1.3" stroke-opacity="0.533333" points="1944.21,-193.36 1934.09,-196.5 1943.96,-200.35 1944.21,-193.36"/>
</g>
<!-- /lib/widgets/transparent_background.dart -->
<g id="node45" class="node">
<title>/lib/widgets/transparent_background.dart</title>
<path fill="Lavender" stroke="black" stroke-width="1.3" d="M1000.38,-212C1000.38,-212 845.62,-212 845.62,-212 839.62,-212 833.62,-206 833.62,-200 833.62,-200 833.62,-188 833.62,-188 833.62,-182 839.62,-176 845.62,-176 845.62,-176 1000.38,-176 1000.38,-176 1006.38,-176 1012.38,-182 1012.38,-188 1012.38,-188 1012.38,-200 1012.38,-200 1012.38,-206 1006.38,-212 1000.38,-212"/>
<text text-anchor="middle" x="923" y="-188.75" font-family="Arial" font-size="15.00">transparent_background</text>
</g>
<!-- /lib/panels/canvas_panel.dart&#45;&gt;/lib/widgets/transparent_background.dart -->
<g id="edge19" class="edge">
<title>/lib/panels/canvas_panel.dart&#45;&gt;/lib/widgets/transparent_background.dart</title>
<path fill="none" stroke="#aabbaa" stroke-width="1.3" stroke-opacity="0.533333" d="M2575.9,-266.57C2565.58,-260.39 2553.19,-254.18 2541,-251 2513.93,-243.93 1561.95,-244.21 1534,-243 1354.35,-235.24 1145.62,-216.81 1024.5,-205.17"/>
<polygon fill="#aabbaa" fill-opacity="0.533333" stroke="#aabbaa" stroke-width="1.3" stroke-opacity="0.533333" points="1024.94,-201.7 1014.65,-204.22 1024.27,-208.67 1024.94,-201.7"/>
</g>
<!-- /lib/panels/layers/tools_and_layers_panel.dart -->
<g id="node13" class="node">
<title>/lib/panels/layers/tools_and_layers_panel.dart</title>
<path fill="Lavender" stroke="black" stroke-width="1.3" d="M2517.38,-461C2517.38,-461 2368.62,-461 2368.62,-461 2362.62,-461 2356.62,-455 2356.62,-449 2356.62,-449 2356.62,-437 2356.62,-437 2356.62,-431 2362.62,-425 2368.62,-425 2368.62,-425 2517.38,-425 2517.38,-425 2523.38,-425 2529.38,-431 2529.38,-437 2529.38,-437 2529.38,-449 2529.38,-449 2529.38,-455 2523.38,-461 2517.38,-461"/>
<text text-anchor="middle" x="2443" y="-437.75" font-family="Arial" font-size="15.00">tools_and_layers_panel</text>
</g>
<!-- /lib/panels/layers/tools_and_layers_panel.dart&#45;&gt;/lib/panels/about.dart -->
<g id="edge24" class="edge">
<title>/lib/panels/layers/tools_and_layers_panel.dart&#45;&gt;/lib/panels/about.dart</title>
<path fill="none" stroke="#aabbaa" stroke-width="1.3" stroke-opacity="0.533333" d="M2529.64,-439.57C2626.06,-436.27 2771.37,-429.34 2794,-417 2802.75,-412.23 2809.98,-404.33 2815.61,-396.3"/>
<polygon fill="#aabbaa" fill-opacity="0.533333" stroke="#aabbaa" stroke-width="1.3" stroke-opacity="0.533333" points="2818.5,-398.28 2820.84,-387.95 2812.57,-394.57 2818.5,-398.28"/>
</g>
<!-- /lib/panels/layers/layer_selector.dart -->
<g id="node14" class="node">
<title>/lib/panels/layers/layer_selector.dart</title>
<path fill="Lavender" stroke="black" stroke-width="1.3" d="M2440.5,-386C2440.5,-386 2355.5,-386 2355.5,-386 2349.5,-386 2343.5,-380 2343.5,-374 2343.5,-374 2343.5,-362 2343.5,-362 2343.5,-356 2349.5,-350 2355.5,-350 2355.5,-350 2440.5,-350 2440.5,-350 2446.5,-350 2452.5,-356 2452.5,-362 2452.5,-362 2452.5,-374 2452.5,-374 2452.5,-380 2446.5,-386 2440.5,-386"/>
<text text-anchor="middle" x="2398" y="-362.75" font-family="Arial" font-size="15.00">layer_selector</text>
</g>
<!-- /lib/panels/layers/tools_and_layers_panel.dart&#45;&gt;/lib/panels/layers/layer_selector.dart -->
<g id="edge26" class="edge">
<title>/lib/panels/layers/tools_and_layers_panel.dart&#45;&gt;/lib/panels/layers/layer_selector.dart</title>
<path fill="none" stroke="#aabbaa" stroke-width="1.3" stroke-opacity="0.533333" d="M2432.34,-424.7C2427.16,-416.31 2420.82,-406.02 2415,-396.58"/>
<polygon fill="#aabbaa" fill-opacity="0.533333" stroke="#aabbaa" stroke-width="1.3" stroke-opacity="0.533333" points="2418,-394.78 2409.78,-388.1 2412.04,-398.45 2418,-394.78"/>
</g>
<!-- /lib/panels/share_panel.dart -->
<g id="node18" class="node">
<title>/lib/panels/share_panel.dart</title>
<path fill="Lavender" stroke="black" stroke-width="1.3" d="M2772.88,-386C2772.88,-386 2699.12,-386 2699.12,-386 2693.12,-386 2687.12,-380 2687.12,-374 2687.12,-374 2687.12,-362 2687.12,-362 2687.12,-356 2693.12,-350 2699.12,-350 2699.12,-350 2772.88,-350 2772.88,-350 2778.88,-350 2784.88,-356 2784.88,-362 2784.88,-362 2784.88,-374 2784.88,-374 2784.88,-380 2778.88,-386 2772.88,-386"/>
<text text-anchor="middle" x="2736" y="-362.75" font-family="Arial" font-size="15.00">share_panel</text>
</g>
<!-- /lib/panels/layers/tools_and_layers_panel.dart&#45;&gt;/lib/panels/share_panel.dart -->
<g id="edge27" class="edge">
<title>/lib/panels/layers/tools_and_layers_panel.dart&#45;&gt;/lib/panels/share_panel.dart</title>
<path fill="none" stroke="#aabbaa" stroke-width="1.3" stroke-opacity="0.533333" d="M2529.83,-437.99C2585.42,-434.42 2651.86,-428.01 2678,-417 2690.41,-411.77 2702.23,-402.97 2711.92,-394.33"/>
<polygon fill="#aabbaa" fill-opacity="0.533333" stroke="#aabbaa" stroke-width="1.3" stroke-opacity="0.533333" points="2714.22,-396.97 2719.08,-387.56 2709.41,-391.88 2714.22,-396.97"/>
</g>
<!-- /lib/panels/canvas_settings.dart -->
<g id="node19" class="node">
<title>/lib/panels/canvas_settings.dart</title>
<path fill="Lavender" stroke="black" stroke-width="1.3" d="M2656.62,-386C2656.62,-386 2557.38,-386 2557.38,-386 2551.38,-386 2545.38,-380 2545.38,-374 2545.38,-374 2545.38,-362 2545.38,-362 2545.38,-356 2551.38,-350 2557.38,-350 2557.38,-350 2656.62,-350 2656.62,-350 2662.62,-350 2668.62,-356 2668.62,-362 2668.62,-362 2668.62,-374 2668.62,-374 2668.62,-380 2662.62,-386 2656.62,-386"/>
<text text-anchor="middle" x="2607" y="-362.75" font-family="Arial" font-size="15.00">canvas_settings</text>
</g>
<!-- /lib/panels/layers/tools_and_layers_panel.dart&#45;&gt;/lib/panels/canvas_settings.dart -->
<g id="edge25" class="edge">
<title>/lib/panels/layers/tools_and_layers_panel.dart&#45;&gt;/lib/panels/canvas_settings.dart</title>
<path fill="none" stroke="#aabbaa" stroke-width="1.3" stroke-opacity="0.533333" d="M2522.28,-424.57C2528.72,-422.32 2535.04,-419.8 2541,-417 2554.09,-410.85 2567.24,-401.97 2578.31,-393.52"/>
<polygon fill="#aabbaa" fill-opacity="0.533333" stroke="#aabbaa" stroke-width="1.3" stroke-opacity="0.533333" points="2580.25,-396.45 2585.92,-387.5 2575.9,-390.96 2580.25,-396.45"/>
</g>
<!-- /lib/models/menu_model.dart -->
<g id="node20" class="node">
<title>/lib/models/menu_model.dart</title>
<path fill="Lavender" stroke="black" stroke-width="1.3" d="M1781.12,-386C1781.12,-386 1702.88,-386 1702.88,-386 1696.88,-386 1690.88,-380 1690.88,-374 1690.88,-374 1690.88,-362 1690.88,-362 1690.88,-356 1696.88,-350 1702.88,-350 1702.88,-350 1781.12,-350 1781.12,-350 1787.12,-350 1793.12,-356 1793.12,-362 1793.12,-362 1793.12,-374 1793.12,-374 1793.12,-380 1787.12,-386 1781.12,-386"/>
<text text-anchor="middle" x="1742" y="-362.75" font-family="Arial" font-size="15.00">menu_model</text>
</g>
<!-- /lib/panels/layers/tools_and_layers_panel.dart&#45;&gt;/lib/models/menu_model.dart -->
<g id="edge23" class="edge">
<title>/lib/panels/layers/tools_and_layers_panel.dart&#45;&gt;/lib/models/menu_model.dart</title>
<path fill="none" stroke="#aabbaa" stroke-width="1.3" stroke-opacity="0.533333" d="M2356.41,-431.55C2331.76,-428.96 2304.85,-426.5 2280,-425 2253.49,-423.4 1826.99,-426 1802,-417 1788.74,-412.22 1776.2,-403.21 1766.06,-394.28"/>
<polygon fill="#aabbaa" fill-opacity="0.533333" stroke="#aabbaa" stroke-width="1.3" stroke-opacity="0.533333" points="1768.58,-391.85 1758.89,-387.56 1763.79,-396.95 1768.58,-391.85"/>
</g>
<!-- /lib/panels/layers/tools_and_layers_panel.dart&#45;&gt;/lib/models/app_model.dart -->
<g id="edge22" class="edge">
<title>/lib/panels/layers/tools_and_layers_panel.dart&#45;&gt;/lib/models/app_model.dart</title>
<path fill="none" stroke="#aabbaa" stroke-width="1.3" stroke-opacity="0.533333" d="M2529.81,-439.92C2651.03,-436.58 2857.55,-429.14 2869,-417 2894.31,-390.16 2894.78,-277.39 2869,-251 2862.32,-244.16 2534.55,-243.47 2525,-243 2310.11,-232.42 2055.17,-210.37 1943.8,-200.27"/>
<polygon fill="#aabbaa" fill-opacity="0.533333" stroke="#aabbaa" stroke-width="1.3" stroke-opacity="0.533333" points="1944.44,-196.81 1934.16,-199.39 1943.8,-203.78 1944.44,-196.81"/>
</g>
<!-- /lib/files/save.dart -->
<g id="node33" class="node">
<title>/lib/files/save.dart</title>
<path fill="Lavender" stroke="black" stroke-width="1.3" d="M3215,-386C3215,-386 3185,-386 3185,-386 3179,-386 3173,-380 3173,-374 3173,-374 3173,-362 3173,-362 3173,-356 3179,-350 3185,-350 3185,-350 3215,-350 3215,-350 3221,-350 3227,-356 3227,-362 3227,-362 3227,-374 3227,-374 3227,-380 3221,-386 3215,-386"/>
<text text-anchor="middle" x="3200" y="-362.75" font-family="Arial" font-size="15.00">save</text>
</g>
<!-- /lib/panels/layers/tools_and_layers_panel.dart&#45;&gt;/lib/files/save.dart -->
<g id="edge21" class="edge">
<title>/lib/panels/layers/tools_and_layers_panel.dart&#45;&gt;/lib/files/save.dart</title>
<path fill="none" stroke="#aabbaa" stroke-width="1.3" stroke-opacity="0.533333" d="M2529.66,-425.35C2530.78,-425.23 2531.89,-425.11 2533,-425 2550.44,-423.26 3148.37,-424.94 3164,-417 3173.01,-412.42 3180.36,-404.42 3186.02,-396.24"/>
<polygon fill="#aabbaa" fill-opacity="0.533333" stroke="#aabbaa" stroke-width="1.3" stroke-opacity="0.533333" points="3189,-398.08 3191.25,-387.72 3183.03,-394.42 3189,-398.08"/>
</g>
<!-- /lib/files/import_files.dart -->
<g id="node35" class="node">
<title>/lib/files/import_files.dart</title>
<path fill="Lavender" stroke="black" stroke-width="1.3" d="M3143.25,-386C3143.25,-386 3074.75,-386 3074.75,-386 3068.75,-386 3062.75,-380 3062.75,-374 3062.75,-374 3062.75,-362 3062.75,-362 3062.75,-356 3068.75,-350 3074.75,-350 3074.75,-350 3143.25,-350 3143.25,-350 3149.25,-350 3155.25,-356 3155.25,-362 3155.25,-362 3155.25,-374 3155.25,-374 3155.25,-380 3149.25,-386 3143.25,-386"/>
<text text-anchor="middle" x="3109" y="-362.75" font-family="Arial" font-size="15.00">import_files</text>
</g>
<!-- /lib/panels/layers/tools_and_layers_panel.dart&#45;&gt;/lib/files/import_files.dart -->
<g id="edge20" class="edge">
<title>/lib/panels/layers/tools_and_layers_panel.dart&#45;&gt;/lib/files/import_files.dart</title>
<path fill="none" stroke="#aabbaa" stroke-width="1.3" stroke-opacity="0.533333" d="M2529.66,-425.36C2530.78,-425.23 2531.89,-425.11 2533,-425 2561.8,-422.08 3026.97,-427.37 3054,-417 3066.37,-412.25 3077.82,-403.37 3087.02,-394.53"/>
<polygon fill="#aabbaa" fill-opacity="0.533333" stroke="#aabbaa" stroke-width="1.3" stroke-opacity="0.533333" points="3089.29,-397.22 3093.75,-387.61 3084.27,-392.34 3089.29,-397.22"/>
</g>
<!-- /lib/panels/layers/layer_thumbnail.dart -->
<g id="node15" class="node">
<title>/lib/panels/layers/layer_thumbnail.dart</title>
<path fill="Lavender" stroke="black" stroke-width="1.3" d="M2401.5,-303C2401.5,-303 2304.5,-303 2304.5,-303 2298.5,-303 2292.5,-297 2292.5,-291 2292.5,-291 2292.5,-279 2292.5,-279 2292.5,-273 2298.5,-267 2304.5,-267 2304.5,-267 2401.5,-267 2401.5,-267 2407.5,-267 2413.5,-273 2413.5,-279 2413.5,-279 2413.5,-291 2413.5,-291 2413.5,-297 2407.5,-303 2401.5,-303"/>
<text text-anchor="middle" x="2353" y="-279.75" font-family="Arial" font-size="15.00">layer_thumbnail</text>
</g>
<!-- /lib/panels/layers/layer_selector.dart&#45;&gt;/lib/panels/layers/layer_thumbnail.dart -->
<g id="edge30" class="edge">
<title>/lib/panels/layers/layer_selector.dart&#45;&gt;/lib/panels/layers/layer_thumbnail.dart</title>
<path fill="none" stroke="#aabbaa" stroke-width="1.3" stroke-opacity="0.533333" d="M2388.46,-349.82C2382.65,-339.37 2375.1,-325.77 2368.45,-313.81"/>
<polygon fill="#aabbaa" fill-opacity="0.533333" stroke="#aabbaa" stroke-width="1.3" stroke-opacity="0.533333" points="2371.56,-312.19 2363.64,-305.15 2365.44,-315.59 2371.56,-312.19"/>
</g>
<!-- /lib/panels/layers/blend_mode.dart -->
<g id="node16" class="node">
<title>/lib/panels/layers/blend_mode.dart</title>
<path fill="Lavender" stroke="black" stroke-width="1.3" d="M2516.88,-303C2516.88,-303 2443.12,-303 2443.12,-303 2437.12,-303 2431.12,-297 2431.12,-291 2431.12,-291 2431.12,-279 2431.12,-279 2431.12,-273 2437.12,-267 2443.12,-267 2443.12,-267 2516.88,-267 2516.88,-267 2522.88,-267 2528.88,-273 2528.88,-279 2528.88,-279 2528.88,-291 2528.88,-291 2528.88,-297 2522.88,-303 2516.88,-303"/>
<text text-anchor="middle" x="2480" y="-279.75" font-family="Arial" font-size="15.00">blend_mode</text>
</g>
<!-- /lib/panels/layers/layer_selector.dart&#45;&gt;/lib/panels/layers/blend_mode.dart -->
<g id="edge29" class="edge">
<title>/lib/panels/layers/layer_selector.dart&#45;&gt;/lib/panels/layers/blend_mode.dart</title>
<path fill="none" stroke="#aabbaa" stroke-width="1.3" stroke-opacity="0.533333" d="M2415.39,-349.82C2426.62,-338.73 2441.44,-324.09 2454.05,-311.64"/>
<polygon fill="#aabbaa" fill-opacity="0.533333" stroke="#aabbaa" stroke-width="1.3" stroke-opacity="0.533333" points="2456.3,-314.33 2460.95,-304.82 2451.38,-309.35 2456.3,-314.33"/>
</g>
<!-- /lib/panels/layers/layer_selector.dart&#45;&gt;/lib/models/app_model.dart -->
<g id="edge28" class="edge">
<title>/lib/panels/layers/layer_selector.dart&#45;&gt;/lib/models/app_model.dart</title>
<path fill="none" stroke="#aabbaa" stroke-width="1.3" stroke-opacity="0.533333" d="M2433.51,-349.52C2441.09,-346.48 2449.18,-343.74 2457,-342 2468.5,-339.44 2660.82,-342.49 2669,-334 2681.79,-320.71 2681.68,-264.4 2669,-251 2663.49,-245.18 2533,-243.52 2525,-243 2310.31,-228.96 2055.26,-208.69 1943.83,-199.65"/>
<polygon fill="#aabbaa" fill-opacity="0.533333" stroke="#aabbaa" stroke-width="1.3" stroke-opacity="0.533333" points="1944.44,-196.19 1934.19,-198.87 1943.88,-203.17 1944.44,-196.19"/>
</g>
<!-- /lib/widgets/truncated_text.dart -->
<g id="node42" class="node">
<title>/lib/widgets/truncated_text.dart</title>
<path fill="Lavender" stroke="black" stroke-width="1.3" d="M1322,-303C1322,-303 1234,-303 1234,-303 1228,-303 1222,-297 1222,-291 1222,-291 1222,-279 1222,-279 1222,-273 1228,-267 1234,-267 1234,-267 1322,-267 1322,-267 1328,-267 1334,-273 1334,-279 1334,-279 1334,-291 1334,-291 1334,-297 1328,-303 1322,-303"/>
<text text-anchor="middle" x="1278" y="-279.75" font-family="Arial" font-size="15.00">truncated_text</text>
</g>
<!-- /lib/panels/layers/layer_selector.dart&#45;&gt;/lib/widgets/truncated_text.dart -->
<g id="edge32" class="edge">
<title>/lib/panels/layers/layer_selector.dart&#45;&gt;/lib/widgets/truncated_text.dart</title>
<path fill="none" stroke="#aabbaa" stroke-width="1.3" stroke-opacity="0.533333" d="M2343.14,-352.99C2323.38,-348.58 2300.82,-344.27 2280,-342 2254.12,-339.18 1367.69,-342.24 1343,-334 1328.8,-329.26 1315.14,-320.13 1304.04,-311.09"/>
<polygon fill="#aabbaa" fill-opacity="0.533333" stroke="#aabbaa" stroke-width="1.3" stroke-opacity="0.533333" points="1306.34,-308.45 1296.49,-304.57 1301.77,-313.75 1306.34,-308.45"/>
</g>
<!-- /lib/widgets/container_slider.dart -->
<g id="node43" class="node">
<title>/lib/widgets/container_slider.dart</title>
<path fill="Lavender" stroke="black" stroke-width="1.3" d="M1191.5,-303C1191.5,-303 1094.5,-303 1094.5,-303 1088.5,-303 1082.5,-297 1082.5,-291 1082.5,-291 1082.5,-279 1082.5,-279 1082.5,-273 1088.5,-267 1094.5,-267 1094.5,-267 1191.5,-267 1191.5,-267 1197.5,-267 1203.5,-273 1203.5,-279 1203.5,-279 1203.5,-291 1203.5,-291 1203.5,-297 1197.5,-303 1191.5,-303"/>
<text text-anchor="middle" x="1143" y="-279.75" font-family="Arial" font-size="15.00">container_slider</text>
</g>
<!-- /lib/panels/layers/layer_selector.dart&#45;&gt;/lib/widgets/container_slider.dart -->
<g id="edge31" class="edge">
<title>/lib/panels/layers/layer_selector.dart&#45;&gt;/lib/widgets/container_slider.dart</title>
<path fill="none" stroke="#aabbaa" stroke-width="1.3" stroke-opacity="0.533333" d="M2343.14,-352.98C2323.38,-348.57 2300.82,-344.26 2280,-342 2250.53,-338.8 1241.28,-342.88 1213,-334 1197.69,-329.19 1182.74,-319.79 1170.61,-310.57"/>
<polygon fill="#aabbaa" fill-opacity="0.533333" stroke="#aabbaa" stroke-width="1.3" stroke-opacity="0.533333" points="1173.07,-308.06 1163.08,-304.54 1168.7,-313.52 1173.07,-308.06"/>
</g>
<!-- /lib/panels/layers/layer_thumbnail.dart&#45;&gt;/lib/models/app_model.dart -->
<g id="edge33" class="edge">
<title>/lib/panels/layers/layer_thumbnail.dart&#45;&gt;/lib/models/app_model.dart</title>
<path fill="none" stroke="#aabbaa" stroke-width="1.3" stroke-opacity="0.533333" d="M2292.08,-272.36C2201.39,-255.04 2032.11,-222.71 1943.84,-205.86"/>
<polygon fill="#aabbaa" fill-opacity="0.533333" stroke="#aabbaa" stroke-width="1.3" stroke-opacity="0.533333" points="1944.61,-202.44 1934.13,-204 1943.3,-209.32 1944.61,-202.44"/>
</g>
<!-- /lib/panels/layers/layer_thumbnail.dart&#45;&gt;/lib/widgets/transparent_background.dart -->
<g id="edge35" class="edge">
<title>/lib/panels/layers/layer_thumbnail.dart&#45;&gt;/lib/widgets/transparent_background.dart</title>
<path fill="none" stroke="#aabbaa" stroke-width="1.3" stroke-opacity="0.533333" d="M2292.1,-277.92C2212.26,-270.21 2067.8,-257.2 1944,-251 1761.97,-241.89 1716.04,-251.92 1534,-243 1354.4,-234.2 1145.65,-216.1 1024.51,-204.81"/>
<polygon fill="#aabbaa" fill-opacity="0.533333" stroke="#aabbaa" stroke-width="1.3" stroke-opacity="0.533333" points="1024.95,-201.34 1014.67,-203.89 1024.3,-208.31 1024.95,-201.34"/>
</g>
<!-- /lib/widgets/image_painter.dart -->
<g id="node47" class="node">
<title>/lib/widgets/image_painter.dart</title>
<path fill="Lavender" stroke="black" stroke-width="1.3" d="M909.25,-303C909.25,-303 822.75,-303 822.75,-303 816.75,-303 810.75,-297 810.75,-291 810.75,-291 810.75,-279 810.75,-279 810.75,-273 816.75,-267 822.75,-267 822.75,-267 909.25,-267 909.25,-267 915.25,-267 921.25,-273 921.25,-279 921.25,-279 921.25,-291 921.25,-291 921.25,-297 915.25,-303 909.25,-303"/>
<text text-anchor="middle" x="866" y="-279.75" font-family="Arial" font-size="15.00">image_painter</text>
</g>
<!-- /lib/panels/layers/layer_thumbnail.dart&#45;&gt;/lib/widgets/image_painter.dart -->
<g id="edge34" class="edge">
<title>/lib/panels/layers/layer_thumbnail.dart&#45;&gt;/lib/widgets/image_painter.dart</title>
<path fill="none" stroke="#aabbaa" stroke-width="1.3" stroke-opacity="0.533333" d="M2292.11,-295.93C2215.93,-308.99 2081.33,-330.09 1965,-338 1936.57,-339.93 966.88,-343.92 939,-338 921,-334.18 904.15,-322.7 891.18,-311.4"/>
<polygon fill="#aabbaa" fill-opacity="0.533333" stroke="#aabbaa" stroke-width="1.3" stroke-opacity="0.533333" points="893.62,-308.89 883.9,-304.66 888.86,-314.02 893.62,-308.89"/>
</g>
<!-- /lib/panels/side_panel.dart -->
<g id="node17" class="node">
<title>/lib/panels/side_panel.dart</title>
<path fill="Lavender" stroke="black" stroke-width="1.3" d="M2659.62,-536C2659.62,-536 2596.38,-536 2596.38,-536 2590.38,-536 2584.38,-530 2584.38,-524 2584.38,-524 2584.38,-512 2584.38,-512 2584.38,-506 2590.38,-500 2596.38,-500 2596.38,-500 2659.62,-500 2659.62,-500 2665.62,-500 2671.62,-506 2671.62,-512 2671.62,-512 2671.62,-524 2671.62,-524 2671.62,-530 2665.62,-536 2659.62,-536"/>
<text text-anchor="middle" x="2628" y="-512.75" font-family="Arial" font-size="15.00">side_panel</text>
</g>
<!-- /lib/panels/side_panel.dart&#45;&gt;/lib/panels/tools/tools_panel.dart -->
<g id="edge38" class="edge">
<title>/lib/panels/side_panel.dart&#45;&gt;/lib/panels/tools/tools_panel.dart</title>
<path fill="none" stroke="#aabbaa" stroke-width="1.3" stroke-opacity="0.533333" d="M2583.94,-500.81C2582.62,-500.51 2581.3,-500.24 2580,-500 2514.43,-487.83 2345.83,-502.68 2280,-492 2245.62,-486.42 2208.29,-475.33 2178.55,-465.21"/>
<polygon fill="#aabbaa" fill-opacity="0.533333" stroke="#aabbaa" stroke-width="1.3" stroke-opacity="0.533333" points="2180,-462.01 2169.41,-462.04 2177.71,-468.63 2180,-462.01"/>
</g>
<!-- /lib/panels/side_panel.dart&#45;&gt;/lib/panels/layers/tools_and_layers_panel.dart -->
<g id="edge37" class="edge">
<title>/lib/panels/side_panel.dart&#45;&gt;/lib/panels/layers/tools_and_layers_panel.dart</title>
<path fill="none" stroke="#aabbaa" stroke-width="1.3" stroke-opacity="0.533333" d="M2584.16,-499.7C2558.43,-489.55 2525.67,-476.62 2498.19,-465.78"/>
<polygon fill="#aabbaa" fill-opacity="0.533333" stroke="#aabbaa" stroke-width="1.3" stroke-opacity="0.533333" points="2499.59,-462.57 2489,-462.15 2497.02,-469.08 2499.59,-462.57"/>
</g>
<!-- /lib/panels/side_panel.dart&#45;&gt;/lib/models/app_model.dart -->
<g id="edge36" class="edge">
<title>/lib/panels/side_panel.dart&#45;&gt;/lib/models/app_model.dart</title>
<path fill="none" stroke="#aabbaa" stroke-width="1.3" stroke-opacity="0.533333" d="M2672.11,-501.23C2743.65,-475.45 2877.7,-426.22 2884,-417 2925.61,-356.08 2934.68,-304.61 2884,-251 2882.98,-249.92 2154.9,-209.75 1943.75,-198.12"/>
<polygon fill="#aabbaa" fill-opacity="0.533333" stroke="#aabbaa" stroke-width="1.3" stroke-opacity="0.533333" points="1944.19,-194.64 1934.02,-197.59 1943.81,-201.63 1944.19,-194.64"/>
</g>
<!-- /lib/panels/share_panel.dart&#45;&gt;/lib/panels/canvas_panel.dart -->
<g id="edge40" class="edge">
<title>/lib/panels/share_panel.dart&#45;&gt;/lib/panels/canvas_panel.dart</title>
<path fill="none" stroke="#aabbaa" stroke-width="1.3" stroke-opacity="0.533333" d="M2707.04,-349.62C2687.46,-337.88 2661.39,-322.23 2639.99,-309.39"/>
<polygon fill="#aabbaa" fill-opacity="0.533333" stroke="#aabbaa" stroke-width="1.3" stroke-opacity="0.533333" points="2641.98,-306.5 2631.6,-304.36 2638.37,-312.51 2641.98,-306.5"/>
</g>
<!-- /lib/panels/share_panel.dart&#45;&gt;/lib/models/app_model.dart -->
<g id="edge39" class="edge">
<title>/lib/panels/share_panel.dart&#45;&gt;/lib/models/app_model.dart</title>
<path fill="none" stroke="#aabbaa" stroke-width="1.3" stroke-opacity="0.533333" d="M2735.24,-349.74C2733.06,-323.51 2724.72,-274.21 2693,-251 2677.92,-239.96 2543.65,-244.15 2525,-243 2310.26,-229.81 2055.24,-209.1 1943.82,-199.8"/>
<polygon fill="#aabbaa" fill-opacity="0.533333" stroke="#aabbaa" stroke-width="1.3" stroke-opacity="0.533333" points="1944.44,-196.34 1934.18,-199 1943.86,-203.32 1944.44,-196.34"/>
</g>
<!-- /lib/panels/canvas_settings.dart&#45;&gt;/lib/models/app_model.dart -->
<g id="edge41" class="edge">
<title>/lib/panels/canvas_settings.dart&#45;&gt;/lib/models/app_model.dart</title>
<path fill="none" stroke="#aabbaa" stroke-width="1.3" stroke-opacity="0.533333" d="M2662.9,-349.69C2669.26,-345.52 2674.92,-340.36 2679,-334 2698.92,-302.95 2704.4,-277.75 2679,-251 2673.1,-244.79 2533.55,-243.54 2525,-243 2310.29,-229.35 2055.25,-208.88 1943.83,-199.72"/>
<polygon fill="#aabbaa" fill-opacity="0.533333" stroke="#aabbaa" stroke-width="1.3" stroke-opacity="0.533333" points="1944.44,-196.26 1934.19,-198.93 1943.87,-203.24 1944.44,-196.26"/>
</g>
<!-- /lib/widgets/nine_grid_selector.dart -->
<g id="node51" class="node">
<title>/lib/widgets/nine_grid_selector.dart</title>
<path fill="Lavender" stroke="black" stroke-width="1.3" d="M1477.75,-303C1477.75,-303 1364.25,-303 1364.25,-303 1358.25,-303 1352.25,-297 1352.25,-291 1352.25,-291 1352.25,-279 1352.25,-279 1352.25,-273 1358.25,-267 1364.25,-267 1364.25,-267 1477.75,-267 1477.75,-267 1483.75,-267 1489.75,-273 1489.75,-279 1489.75,-279 1489.75,-291 1489.75,-291 1489.75,-297 1483.75,-303 1477.75,-303"/>
<text text-anchor="middle" x="1421" y="-279.75" font-family="Arial" font-size="15.00">nine_grid_selector</text>
</g>
<!-- /lib/panels/canvas_settings.dart&#45;&gt;/lib/widgets/nine_grid_selector.dart -->
<g id="edge42" class="edge">
<title>/lib/panels/canvas_settings.dart&#45;&gt;/lib/widgets/nine_grid_selector.dart</title>
<path fill="none" stroke="#aabbaa" stroke-width="1.3" stroke-opacity="0.533333" d="M2567.87,-349.6C2559.19,-346.47 2549.91,-343.67 2541,-342 2446.76,-324.3 1773.44,-343.28 1678,-334 1618.38,-328.2 1551.93,-315.63 1501.54,-304.8"/>
<polygon fill="#aabbaa" fill-opacity="0.533333" stroke="#aabbaa" stroke-width="1.3" stroke-opacity="0.533333" points="1502.5,-301.43 1491.99,-302.72 1501.02,-308.27 1502.5,-301.43"/>
</g>
<!-- /lib/models/layers.dart -->
<g id="node21" class="node">
<title>/lib/models/layers.dart</title>
<path fill="Lavender" stroke="black" stroke-width="1.3" d="M1854.88,-386C1854.88,-386 1823.12,-386 1823.12,-386 1817.12,-386 1811.12,-380 1811.12,-374 1811.12,-374 1811.12,-362 1811.12,-362 1811.12,-356 1817.12,-350 1823.12,-350 1823.12,-350 1854.88,-350 1854.88,-350 1860.88,-350 1866.88,-356 1866.88,-362 1866.88,-362 1866.88,-374 1866.88,-374 1866.88,-380 1860.88,-386 1854.88,-386"/>
<text text-anchor="middle" x="1839" y="-362.75" font-family="Arial" font-size="15.00">layers</text>
</g>
<!-- /lib/models/layers.dart&#45;&gt;/lib/models/layer.dart -->
<g id="edge45" class="edge">
<title>/lib/models/layers.dart&#45;&gt;/lib/models/layer.dart</title>
<path fill="none" stroke="#aabbaa" stroke-width="1.3" stroke-opacity="0.533333" d="M1815.97,-349.82C1803.66,-338.84 1788.79,-324.38 1776.97,-312"/>
<polygon fill="#aabbaa" fill-opacity="0.533333" stroke="#aabbaa" stroke-width="1.3" stroke-opacity="0.533333" points="1779.71,-309.8 1770.33,-304.87 1774.58,-314.57 1779.71,-309.8"/>
</g>
<!-- /lib/models/layers.dart&#45;&gt;/lib/models/layer.dart -->
<g id="edge46" class="edge">
<title>/lib/models/layers.dart&#45;&gt;/lib/models/layer.dart</title>
<path fill="none" stroke="#aabbaa" stroke-width="1.3" stroke-dasharray="5,2" stroke-opacity="0.533333" d="M1827.25,-349.82C1817.12,-338.62 1802.35,-323.81 1788.9,-311.28"/>
<polygon fill="#aabbaa" fill-opacity="0.533333" stroke="#aabbaa" stroke-width="1.3" stroke-opacity="0.533333" points="1791.51,-308.92 1781.76,-304.76 1786.78,-314.09 1791.51,-308.92"/>
</g>
<!-- /lib/helpers/list_helper.dart -->
<g id="node38" class="node">
<title>/lib/helpers/list_helper.dart</title>
<path fill="Lavender" stroke="black" stroke-width="1.3" d="M1639.75,-68C1639.75,-68 1580.25,-68 1580.25,-68 1574.25,-68 1568.25,-62 1568.25,-56 1568.25,-56 1568.25,-44 1568.25,-44 1568.25,-38 1574.25,-32 1580.25,-32 1580.25,-32 1639.75,-32 1639.75,-32 1645.75,-32 1651.75,-38 1651.75,-44 1651.75,-44 1651.75,-56 1651.75,-56 1651.75,-62 1645.75,-68 1639.75,-68"/>
<text text-anchor="middle" x="1610" y="-44.75" font-family="Arial" font-size="15.00">list_helper</text>
</g>
<!-- /lib/models/layers.dart&#45;&gt;/lib/helpers/list_helper.dart -->
<g id="edge44" class="edge">
<title>/lib/models/layers.dart&#45;&gt;/lib/helpers/list_helper.dart</title>
<path fill="none" stroke="#aabbaa" stroke-width="1.3" stroke-opacity="0.533333" d="M1816.87,-349.5C1812.18,-346.55 1807.1,-343.84 1802,-342 1784.99,-335.86 1734.89,-345.59 1721,-334 1636.54,-263.51 1707.71,-191.44 1653,-96 1649.03,-89.07 1643.77,-82.39 1638.29,-76.4"/>
<polygon fill="#aabbaa" fill-opacity="0.533333" stroke="#aabbaa" stroke-width="1.3" stroke-opacity="0.533333" points="1641.1,-74.27 1631.61,-69.56 1636.1,-79.16 1641.1,-74.27"/>
</g>
<!-- /lib/models/layers.dart&#45;&gt;/lib/helpers/color_helper.dart -->
<g id="edge43" class="edge">
<title>/lib/models/layers.dart&#45;&gt;/lib/helpers/color_helper.dart</title>
<path fill="none" stroke="#aabbaa" stroke-width="1.3" stroke-opacity="0.533333" d="M1817.31,-349.64C1812.51,-346.59 1807.28,-343.82 1802,-342 1753.14,-325.18 1735.61,-348.47 1686,-334 1604.86,-310.32 1562.16,-315.67 1519,-243 1501.98,-214.34 1502.49,-196.96 1519,-168 1523.8,-159.57 1530.88,-152.56 1538.8,-146.78"/>
<polygon fill="#aabbaa" fill-opacity="0.533333" stroke="#aabbaa" stroke-width="1.3" stroke-opacity="0.533333" points="1540.64,-149.76 1547.15,-141.4 1536.85,-143.88 1540.64,-149.76"/>
</g>
<!-- /lib/models/user_action.dart -->
<g id="node22" class="node">
<title>/lib/models/user_action.dart</title>
<path fill="Lavender" stroke="black" stroke-width="1.3" d="M1791.62,-212C1791.62,-212 1722.38,-212 1722.38,-212 1716.38,-212 1710.38,-206 1710.38,-200 1710.38,-200 1710.38,-188 1710.38,-188 1710.38,-182 1716.38,-176 1722.38,-176 1722.38,-176 1791.62,-176 1791.62,-176 1797.62,-176 1803.62,-182 1803.62,-188 1803.62,-188 1803.62,-200 1803.62,-200 1803.62,-206 1797.62,-212 1791.62,-212"/>
<text text-anchor="middle" x="1757" y="-188.75" font-family="Arial" font-size="15.00">user_action</text>
</g>
<!-- /lib/widgets/brush_style_picker.dart -->
<g id="node50" class="node">
<title>/lib/widgets/brush_style_picker.dart</title>
<path fill="Lavender" stroke="black" stroke-width="1.3" d="M780.25,-303C780.25,-303 663.75,-303 663.75,-303 657.75,-303 651.75,-297 651.75,-291 651.75,-291 651.75,-279 651.75,-279 651.75,-273 657.75,-267 663.75,-267 663.75,-267 780.25,-267 780.25,-267 786.25,-267 792.25,-273 792.25,-279 792.25,-279 792.25,-291 792.25,-291 792.25,-297 786.25,-303 780.25,-303"/>
<text text-anchor="middle" x="722" y="-279.75" font-family="Arial" font-size="15.00">brush_style_picker</text>
</g>
<!-- /lib/models/user_action.dart&#45;&gt;/lib/widgets/brush_style_picker.dart -->
<g id="edge47" class="edge">
<title>/lib/models/user_action.dart&#45;&gt;/lib/widgets/brush_style_picker.dart</title>
<path fill="none" stroke="#aabbaa" stroke-width="1.3" stroke-opacity="0.533333" d="M1723.86,-212.35C1704.46,-223.49 1679.34,-236.97 1655,-243 1608.51,-254.52 839.93,-241.47 793,-251 781.42,-253.35 769.4,-257.37 758.57,-261.82"/>
<polygon fill="#aabbaa" fill-opacity="0.533333" stroke="#aabbaa" stroke-width="1.3" stroke-opacity="0.533333" points="757.33,-258.54 749.58,-265.76 760.14,-264.95 757.33,-258.54"/>
</g>
<!-- /lib/models/user_action.dart&#45;&gt;/lib/widgets/brush_style_picker.dart -->
<g id="edge48" class="edge">
<title>/lib/models/user_action.dart&#45;&gt;/lib/widgets/brush_style_picker.dart</title>
<path fill="none" stroke="#aabbaa" stroke-width="1.3" stroke-dasharray="5,2" stroke-opacity="0.533333" d="M1739.04,-212.35C1722.46,-223.49 1697.34,-236.97 1673,-243 1626.51,-254.52 857.93,-241.47 811,-251 799.17,-253.4 786.89,-257.54 775.33,-262.1"/>
<polygon fill="#aabbaa" fill-opacity="0.533333" stroke="#aabbaa" stroke-width="1.3" stroke-opacity="0.533333" points="774.24,-258.76 766.32,-265.8 776.9,-265.24 774.24,-258.76"/>
</g>
<!-- /lib/models/canvas_model.dart -->
<g id="node24" class="node">
<title>/lib/models/canvas_model.dart</title>
<path fill="Lavender" stroke="black" stroke-width="1.3" d="M1920,-140C1920,-140 1832,-140 1832,-140 1826,-140 1820,-134 1820,-128 1820,-128 1820,-116 1820,-116 1820,-110 1826,-104 1832,-104 1832,-104 1920,-104 1920,-104 1926,-104 1932,-110 1932,-116 1932,-116 1932,-128 1932,-128 1932,-134 1926,-140 1920,-140"/>
<text text-anchor="middle" x="1876" y="-116.75" font-family="Arial" font-size="15.00">canvas_model</text>
</g>
<!-- /lib/models/canvas_model.dart&#45;&gt;/lib/models/layers.dart -->
<g id="edge49" class="edge">
<title>/lib/models/canvas_model.dart&#45;&gt;/lib/models/layers.dart</title>
<path fill="none" stroke="#aabbaa" stroke-width="1.3" stroke-dasharray="5,2" stroke-opacity="0.533333" d="M1853.4,-140.29C1845.37,-147.83 1837.26,-157.37 1833,-168 1810.2,-224.86 1821.85,-298.38 1831.17,-338.23"/>
<polygon fill="#aabbaa" fill-opacity="0.533333" stroke="#aabbaa" stroke-width="1.3" stroke-opacity="0.533333" points="1827.74,-338.92 1833.54,-347.78 1834.53,-337.23 1827.74,-338.92"/>
</g>
<!-- /lib/models/app_model.dart&#45;&gt;/lib/models/layers.dart -->
<g id="edge53" class="edge">
<title>/lib/models/app_model.dart&#45;&gt;/lib/models/layers.dart</title>
<path fill="none" stroke="#aabbaa" stroke-width="1.3" stroke-dasharray="5,2" stroke-opacity="0.533333" d="M1882.12,-212.48C1873.85,-242.14 1856.99,-302.54 1846.98,-338.42"/>
<polygon fill="#aabbaa" fill-opacity="0.533333" stroke="#aabbaa" stroke-width="1.3" stroke-opacity="0.533333" points="1843.71,-337.09 1844.4,-347.67 1850.45,-338.97 1843.71,-337.09"/>
</g>
<!-- /lib/models/app_model.dart&#45;&gt;/lib/models/canvas_resize.dart -->
<g id="edge52" class="edge">
<title>/lib/models/app_model.dart&#45;&gt;/lib/models/canvas_resize.dart</title>
<path fill="none" stroke="#aabbaa" stroke-width="1.3" stroke-opacity="0.533333" d="M1851.78,-175.52C1833.48,-166.43 1810.89,-155.22 1791.3,-145.49"/>
<polygon fill="#aabbaa" fill-opacity="0.533333" stroke="#aabbaa" stroke-width="1.3" stroke-opacity="0.533333" points="1793.04,-142.45 1782.53,-141.14 1789.93,-148.72 1793.04,-142.45"/>
</g>
<!-- /lib/models/app_model.dart&#45;&gt;/lib/models/canvas_model.dart -->
<g id="edge51" class="edge">
<title>/lib/models/app_model.dart&#45;&gt;/lib/models/canvas_model.dart</title>
<path fill="none" stroke="#aabbaa" stroke-width="1.3" stroke-opacity="0.533333" d="M1884.28,-175.7C1883.15,-168.49 1881.8,-159.93 1880.53,-151.82"/>
<polygon fill="#aabbaa" fill-opacity="0.533333" stroke="#aabbaa" stroke-width="1.3" stroke-opacity="0.533333" points="1884,-151.38 1878.99,-142.05 1877.09,-152.47 1884,-151.38"/>
</g>
<!-- /lib/models/app_model.dart&#45;&gt;/lib/helpers/color_helper.dart -->
<g id="edge50" class="edge">
<title>/lib/models/app_model.dart&#45;&gt;/lib/helpers/color_helper.dart</title>
<path fill="none" stroke="#aabbaa" stroke-width="1.3" stroke-opacity="0.533333" d="M1841.87,-176.78C1832.4,-173.65 1822.42,-170.55 1813,-168 1809.14,-166.95 1718.96,-148.41 1655.81,-135.46"/>
<polygon fill="#aabbaa" fill-opacity="0.533333" stroke="#aabbaa" stroke-width="1.3" stroke-opacity="0.533333" points="1656.79,-132.09 1646.29,-133.51 1655.38,-138.94 1656.79,-132.09"/>
</g>
<!-- /lib/models/layer.dart&#45;&gt;/lib/models/user_action.dart -->
<g id="edge57" class="edge">
<title>/lib/models/layer.dart&#45;&gt;/lib/models/user_action.dart</title>
<path fill="none" stroke="#aabbaa" stroke-width="1.3" stroke-dasharray="5,2" stroke-opacity="0.533333" d="M1757,-266.84C1757,-254.73 1757,-238.21 1757,-224.06"/>
<polygon fill="#aabbaa" fill-opacity="0.533333" stroke="#aabbaa" stroke-width="1.3" stroke-opacity="0.533333" points="1760.5,-224.38 1757,-214.38 1753.5,-224.38 1760.5,-224.38"/>
</g>
<!-- /lib/models/layer.dart&#45;&gt;/lib/models/app_model.dart -->
<g id="edge56" class="edge">
<title>/lib/models/layer.dart&#45;&gt;/lib/models/app_model.dart</title>
<path fill="none" stroke="#aabbaa" stroke-width="1.3" stroke-opacity="0.533333" d="M1782.37,-266.63C1802.24,-253.03 1830.09,-233.96 1852.06,-218.92"/>
<polygon fill="#aabbaa" fill-opacity="0.533333" stroke="#aabbaa" stroke-width="1.3" stroke-opacity="0.533333" points="1853.79,-221.98 1860.07,-213.44 1849.84,-216.2 1853.79,-221.98"/>
</g>
<!-- /lib/helpers/image_helper.dart -->
<g id="node37" class="node">
<title>/lib/helpers/image_helper.dart</title>
<path fill="Lavender" stroke="black" stroke-width="1.3" d="M1640,-212C1640,-212 1558,-212 1558,-212 1552,-212 1546,-206 1546,-200 1546,-200 1546,-188 1546,-188 1546,-182 1552,-176 1558,-176 1558,-176 1640,-176 1640,-176 1646,-176 1652,-182 1652,-188 1652,-188 1652,-200 1652,-200 1652,-206 1646,-212 1640,-212"/>
<text text-anchor="middle" x="1599" y="-188.75" font-family="Arial" font-size="15.00">image_helper</text>
</g>
<!-- /lib/models/layer.dart&#45;&gt;/lib/helpers/image_helper.dart -->
<g id="edge55" class="edge">
<title>/lib/models/layer.dart&#45;&gt;/lib/helpers/image_helper.dart</title>
<path fill="none" stroke="#aabbaa" stroke-width="1.3" stroke-opacity="0.533333" d="M1729.63,-273.34C1711.19,-265.76 1686.57,-254.85 1666,-243 1653.94,-236.06 1641.38,-227.46 1630.43,-219.47"/>
<polygon fill="#aabbaa" fill-opacity="0.533333" stroke="#aabbaa" stroke-width="1.3" stroke-opacity="0.533333" points="1632.59,-216.71 1622.47,-213.55 1628.4,-222.33 1632.59,-216.71"/>
</g>
<!-- /lib/models/layer.dart&#45;&gt;/lib/helpers/color_helper.dart -->
<g id="edge54" class="edge">
<title>/lib/models/layer.dart&#45;&gt;/lib/helpers/color_helper.dart</title>
<path fill="none" stroke="#aabbaa" stroke-width="1.3" stroke-opacity="0.533333" d="M1729.6,-283.09C1676.18,-280.67 1561.21,-272.14 1537,-243 1515.7,-217.36 1522.34,-197.94 1537,-168 1540.78,-160.29 1546.58,-153.52 1553.09,-147.73"/>
<polygon fill="#aabbaa" fill-opacity="0.533333" stroke="#aabbaa" stroke-width="1.3" stroke-opacity="0.533333" points="1555.07,-150.63 1560.73,-141.67 1550.72,-145.14 1555.07,-150.63"/>
</g>
<!-- /lib/main.dart&#45;&gt;/lib/models/app_model.dart -->
<g id="edge60" class="edge">
<title>/lib/main.dart&#45;&gt;/lib/models/app_model.dart</title>
<path fill="none" stroke="#aabbaa" stroke-width="1.3" stroke-opacity="0.533333" d="M3284.44,-660.4C3372.37,-647.22 3647.78,-592.78 3757,-417 3795.94,-354.33 3808.38,-303.94 3757,-251 3724.62,-217.63 2252.99,-199.14 1943.67,-195.62"/>
<polygon fill="#aabbaa" fill-opacity="0.533333" stroke="#aabbaa" stroke-width="1.3" stroke-opacity="0.533333" points="1943.91,-192.12 1933.87,-195.51 1943.83,-199.12 1943.91,-192.12"/>
</g>
<!-- /lib/main.dart&#45;&gt;/lib/files/save.dart -->
<g id="edge58" class="edge">
<title>/lib/main.dart&#45;&gt;/lib/files/save.dart</title>
<path fill="none" stroke="#aabbaa" stroke-width="1.3" stroke-opacity="0.533333" d="M3253.69,-646.86C3244.28,-598.19 3217.33,-458.69 3205.58,-397.9"/>
<polygon fill="#aabbaa" fill-opacity="0.533333" stroke="#aabbaa" stroke-width="1.3" stroke-opacity="0.533333" points="3209.03,-397.27 3203.69,-388.11 3202.15,-398.6 3209.03,-397.27"/>
</g>
<!-- /lib/main_screen.dart -->
<g id="node36" class="node">
<title>/lib/main_screen.dart</title>
<path fill="Lavender" stroke="black" stroke-width="1.3" d="M2810.75,-611C2810.75,-611 2733.25,-611 2733.25,-611 2727.25,-611 2721.25,-605 2721.25,-599 2721.25,-599 2721.25,-587 2721.25,-587 2721.25,-581 2727.25,-575 2733.25,-575 2733.25,-575 2810.75,-575 2810.75,-575 2816.75,-575 2822.75,-581 2822.75,-587 2822.75,-587 2822.75,-599 2822.75,-599 2822.75,-605 2816.75,-611 2810.75,-611"/>
<text text-anchor="middle" x="2772" y="-587.75" font-family="Arial" font-size="15.00">main_screen</text>
</g>
<!-- /lib/main.dart&#45;&gt;/lib/main_screen.dart -->
<g id="edge59" class="edge">
<title>/lib/main.dart&#45;&gt;/lib/main_screen.dart</title>
<path fill="none" stroke="#aabbaa" stroke-width="1.3" stroke-opacity="0.533333" d="M3229.53,-660.04C3153.92,-649.12 2941.23,-618.43 2834.6,-603.03"/>
<polygon fill="#aabbaa" fill-opacity="0.533333" stroke="#aabbaa" stroke-width="1.3" stroke-opacity="0.533333" points="2835.41,-599.62 2825.01,-601.65 2834.41,-606.54 2835.41,-599.62"/>
</g>
<!-- /lib/files/xcf_reader.dart&#45;&gt;/lib/helpers/list_helper.dart -->
<g id="edge61" class="edge">
<title>/lib/files/xcf_reader.dart&#45;&gt;/lib/helpers/list_helper.dart</title>
<path fill="none" stroke="#aabbaa" stroke-width="1.3" stroke-opacity="0.533333" d="M3664.14,-349.7C3628.41,-323.65 3556.26,-274.86 3487,-251 2957.71,-68.67 2794.5,-146.77 2237,-96 2025.34,-76.73 1772.87,-60.73 1664.16,-54.19"/>
<polygon fill="#aabbaa" fill-opacity="0.533333" stroke="#aabbaa" stroke-width="1.3" stroke-opacity="0.533333" points="1664.4,-50.69 1654.21,-53.59 1663.98,-57.68 1664.4,-50.69"/>
</g>
<!-- /lib/files/file_jpeg.dart -->
<g id="node30" class="node">
<title>/lib/files/file_jpeg.dart</title>
<path fill="Lavender" stroke="black" stroke-width="1.3" d="M3466.38,-303C3466.38,-303 3419.62,-303 3419.62,-303 3413.62,-303 3407.62,-297 3407.62,-291 3407.62,-291 3407.62,-279 3407.62,-279 3407.62,-273 3413.62,-267 3419.62,-267 3419.62,-267 3466.38,-267 3466.38,-267 3472.38,-267 3478.38,-273 3478.38,-279 3478.38,-279 3478.38,-291 3478.38,-291 3478.38,-297 3472.38,-303 3466.38,-303"/>
<text text-anchor="middle" x="3443" y="-279.75" font-family="Arial" font-size="15.00">file_jpeg</text>
</g>
<!-- /lib/files/export_download_web.dart -->
<g id="node31" class="node">
<title>/lib/files/export_download_web.dart</title>
<path fill="Lavender" stroke="black" stroke-width="1.3" d="M3613.25,-386C3613.25,-386 3472.75,-386 3472.75,-386 3466.75,-386 3460.75,-380 3460.75,-374 3460.75,-374 3460.75,-362 3460.75,-362 3460.75,-356 3466.75,-350 3472.75,-350 3472.75,-350 3613.25,-350 3613.25,-350 3619.25,-350 3625.25,-356 3625.25,-362 3625.25,-362 3625.25,-374 3625.25,-374 3625.25,-380 3619.25,-386 3613.25,-386"/>
<text text-anchor="middle" x="3543" y="-362.75" font-family="Arial" font-size="15.00">export_download_web</text>
</g>
<!-- /lib/files/export_download_web.dart&#45;&gt;/lib/panels/share_panel.dart -->
<g id="edge65" class="edge">
<title>/lib/files/export_download_web.dart&#45;&gt;/lib/panels/share_panel.dart</title>
<path fill="none" stroke="#aabbaa" stroke-width="1.3" stroke-opacity="0.533333" d="M3517.81,-386.45C3498.47,-399.31 3470.49,-415.17 3443,-421 3425.61,-424.69 2820.39,-424.69 2803,-421 2786.12,-417.42 2770.75,-406.15 2758.99,-394.91"/>
<polygon fill="#aabbaa" fill-opacity="0.533333" stroke="#aabbaa" stroke-width="1.3" stroke-opacity="0.533333" points="2761.61,-392.58 2752.12,-387.87 2756.6,-397.47 2761.61,-392.58"/>
</g>
<!-- /lib/files/export_download_web.dart&#45;&gt;/lib/models/app_model.dart -->
<g id="edge64" class="edge">
<title>/lib/files/export_download_web.dart&#45;&gt;/lib/models/app_model.dart</title>
<path fill="none" stroke="#aabbaa" stroke-width="1.3" stroke-opacity="0.533333" d="M3488.12,-349.58C3476.32,-346.49 3463.84,-343.72 3452,-342 3430.88,-338.93 3086.22,-345.11 3068,-334 3032.17,-312.16 3058.88,-272.75 3023,-251 3011.17,-243.83 2538.82,-243.63 2525,-243 2310.08,-233.2 2055.15,-210.75 1943.79,-200.4"/>
<polygon fill="#aabbaa" fill-opacity="0.533333" stroke="#aabbaa" stroke-width="1.3" stroke-opacity="0.533333" points="1944.44,-196.95 1934.16,-199.51 1943.79,-203.92 1944.44,-196.95"/>
</g>
<!-- /lib/files/export_download_web.dart&#45;&gt;/lib/files/file_jpeg.dart -->
<g id="edge62" class="edge">
<title>/lib/files/export_download_web.dart&#45;&gt;/lib/files/file_jpeg.dart</title>
<path fill="none" stroke="#aabbaa" stroke-width="1.3" stroke-opacity="0.533333" d="M3505.39,-349.66C3497.28,-345.12 3489.04,-339.84 3482,-334 3474.56,-327.83 3467.53,-320.07 3461.54,-312.59"/>
<polygon fill="#aabbaa" fill-opacity="0.533333" stroke="#aabbaa" stroke-width="1.3" stroke-opacity="0.533333" points="3464.6,-310.83 3455.76,-304.99 3459.03,-315.06 3464.6,-310.83"/>
</g>
<!-- /lib/files/file_ora.dart -->
<g id="node32" class="node">
<title>/lib/files/file_ora.dart</title>
<path fill="Lavender" stroke="black" stroke-width="1.3" d="M3129.38,-303C3129.38,-303 3088.62,-303 3088.62,-303 3082.62,-303 3076.62,-297 3076.62,-291 3076.62,-291 3076.62,-279 3076.62,-279 3076.62,-273 3082.62,-267 3088.62,-267 3088.62,-267 3129.38,-267 3129.38,-267 3135.38,-267 3141.38,-273 3141.38,-279 3141.38,-279 3141.38,-291 3141.38,-291 3141.38,-297 3135.38,-303 3129.38,-303"/>
<text text-anchor="middle" x="3109" y="-279.75" font-family="Arial" font-size="15.00">file_ora</text>
</g>
<!-- /lib/files/export_download_web.dart&#45;&gt;/lib/files/file_ora.dart -->
<g id="edge63" class="edge">
<title>/lib/files/export_download_web.dart&#45;&gt;/lib/files/file_ora.dart</title>
<path fill="none" stroke="#aabbaa" stroke-width="1.3" stroke-opacity="0.533333" d="M3483.53,-349.58C3473.07,-346.83 3462.26,-344.18 3452,-342 3428.7,-337.06 3422.53,-337.72 3399,-334 3311.89,-320.22 3210.23,-303.17 3153.36,-293.54"/>
<polygon fill="#aabbaa" fill-opacity="0.533333" stroke="#aabbaa" stroke-width="1.3" stroke-opacity="0.533333" points="3153.98,-290.1 3143.53,-291.88 3152.81,-297 3153.98,-290.1"/>
</g>
<!-- /lib/files/file_ora.dart&#45;&gt;/lib/models/app_model.dart -->
<g id="edge67" class="edge">
<title>/lib/files/file_ora.dart&#45;&gt;/lib/models/app_model.dart</title>
<path fill="none" stroke="#aabbaa" stroke-width="1.3" stroke-opacity="0.533333" d="M3088.01,-266.63C3079.28,-260.46 3068.7,-254.25 3058,-251 3029.66,-242.4 2554.58,-244.33 2525,-243 2310.07,-233.31 2055.15,-210.81 1943.79,-200.42"/>
<polygon fill="#aabbaa" fill-opacity="0.533333" stroke="#aabbaa" stroke-width="1.3" stroke-opacity="0.533333" points="1944.44,-196.97 1934.16,-199.52 1943.79,-203.94 1944.44,-196.97"/>
</g>
<!-- /lib/files/file_ora.dart&#45;&gt;/lib/helpers/list_helper.dart -->
<g id="edge66" class="edge">
<title>/lib/files/file_ora.dart&#45;&gt;/lib/helpers/list_helper.dart</title>
<path fill="none" stroke="#aabbaa" stroke-width="1.3" stroke-opacity="0.533333" d="M3083.14,-266.5C3073.44,-260.7 3062.08,-254.77 3051,-251 2580.72,-90.86 2436.18,-163.61 1944,-96 1845.23,-82.43 1729.97,-66.99 1663.93,-58.18"/>
<polygon fill="#aabbaa" fill-opacity="0.533333" stroke="#aabbaa" stroke-width="1.3" stroke-opacity="0.533333" points="1664.51,-54.73 1654.14,-56.87 1663.59,-61.66 1664.51,-54.73"/>
</g>
<!-- /lib/files/save.dart&#45;&gt;/lib/models/app_model.dart -->
<g id="edge68" class="edge">
<title>/lib/files/save.dart&#45;&gt;/lib/models/app_model.dart</title>
<path fill="none" stroke="#aabbaa" stroke-width="1.3" stroke-opacity="0.533333" d="M3178.97,-349.58C3174.3,-346.54 3169.18,-343.78 3164,-342 3133.27,-331.44 3047.23,-348.19 3018,-334 2973.81,-312.54 2989.57,-271.67 2945,-251 2923.83,-241.18 2548.31,-244.1 2525,-243 2310.09,-232.88 2055.16,-210.59 1943.79,-200.35"/>
<polygon fill="#aabbaa" fill-opacity="0.533333" stroke="#aabbaa" stroke-width="1.3" stroke-opacity="0.533333" points="1944.44,-196.89 1934.16,-199.46 1943.79,-203.86 1944.44,-196.89"/>
</g>
<!-- /lib/files/export_download_non_web.dart -->
<g id="node34" class="node">
<title>/lib/files/export_download_non_web.dart</title>
<path fill="Lavender" stroke="black" stroke-width="1.3" d="M3430.75,-386C3430.75,-386 3257.25,-386 3257.25,-386 3251.25,-386 3245.25,-380 3245.25,-374 3245.25,-374 3245.25,-362 3245.25,-362 3245.25,-356 3251.25,-350 3257.25,-350 3257.25,-350 3430.75,-350 3430.75,-350 3436.75,-350 3442.75,-356 3442.75,-362 3442.75,-362 3442.75,-374 3442.75,-374 3442.75,-380 3436.75,-386 3430.75,-386"/>
<text text-anchor="middle" x="3344" y="-362.75" font-family="Arial" font-size="15.00">export_download_non_web</text>
</g>
<!-- /lib/files/export_download_non_web.dart&#45;&gt;/lib/panels/share_panel.dart -->
<g id="edge72" class="edge">
<title>/lib/files/export_download_non_web.dart&#45;&gt;/lib/panels/share_panel.dart</title>
<path fill="none" stroke="#aabbaa" stroke-width="1.3" stroke-opacity="0.533333" d="M3313.49,-386.26C3290.59,-398.84 3257.98,-414.43 3227,-421 3203.96,-425.89 2826.04,-425.89 2803,-421 2786.12,-417.42 2770.75,-406.15 2758.99,-394.91"/>
<polygon fill="#aabbaa" fill-opacity="0.533333" stroke="#aabbaa" stroke-width="1.3" stroke-opacity="0.533333" points="2761.61,-392.58 2752.12,-387.87 2756.6,-397.47 2761.61,-392.58"/>
</g>
<!-- /lib/files/export_download_non_web.dart&#45;&gt;/lib/models/app_model.dart -->
<g id="edge71" class="edge">
<title>/lib/files/export_download_non_web.dart&#45;&gt;/lib/models/app_model.dart</title>
<path fill="none" stroke="#aabbaa" stroke-width="1.3" stroke-opacity="0.533333" d="M3277.24,-349.52C3263.68,-346.54 3249.44,-343.83 3236,-342 3215.28,-339.19 3066.45,-343.84 3048,-334 3007.6,-312.46 3027.67,-272.02 2987,-251 2975.6,-245.11 2537.82,-243.59 2525,-243 2310.08,-233.06 2055.15,-210.68 1943.79,-200.38"/>
<polygon fill="#aabbaa" fill-opacity="0.533333" stroke="#aabbaa" stroke-width="1.3" stroke-opacity="0.533333" points="1944.44,-196.93 1934.16,-199.49 1943.79,-203.9 1944.44,-196.93"/>
</g>
<!-- /lib/files/export_download_non_web.dart&#45;&gt;/lib/files/file_jpeg.dart -->
<g id="edge69" class="edge">
<title>/lib/files/export_download_non_web.dart&#45;&gt;/lib/files/file_jpeg.dart</title>
<path fill="none" stroke="#aabbaa" stroke-width="1.3" stroke-opacity="0.533333" d="M3365,-349.82C3378.81,-338.52 3397.13,-323.53 3412.54,-310.92"/>
<polygon fill="#aabbaa" fill-opacity="0.533333" stroke="#aabbaa" stroke-width="1.3" stroke-opacity="0.533333" points="3414.65,-313.72 3420.17,-304.68 3410.21,-308.3 3414.65,-313.72"/>
</g>
<!-- /lib/files/export_download_non_web.dart&#45;&gt;/lib/files/file_ora.dart -->
<g id="edge70" class="edge">
<title>/lib/files/export_download_non_web.dart&#45;&gt;/lib/files/file_ora.dart</title>
<path fill="none" stroke="#aabbaa" stroke-width="1.3" stroke-opacity="0.533333" d="M3293.3,-349.52C3251.42,-335.09 3192.59,-314.81 3152.75,-301.08"/>
<polygon fill="#aabbaa" fill-opacity="0.533333" stroke="#aabbaa" stroke-width="1.3" stroke-opacity="0.533333" points="3154,-297.81 3143.4,-297.86 3151.72,-304.43 3154,-297.81"/>
</g>
<!-- /lib/files/import_files.dart&#45;&gt;/lib/models/app_model.dart -->
<g id="edge74" class="edge">
<title>/lib/files/import_files.dart&#45;&gt;/lib/models/app_model.dart</title>
<path fill="none" stroke="#aabbaa" stroke-width="1.3" stroke-opacity="0.533333" d="M3075.01,-349.51C3068.2,-346.59 3060.98,-343.9 3054,-342 3021.23,-333.08 3008.38,-349.2 2978,-334 2933,-311.49 2946.9,-271.61 2901,-251 2881.94,-242.44 2545.87,-244.01 2525,-243 2310.1,-232.64 2055.16,-210.48 1943.79,-200.3"/>
<polygon fill="#aabbaa" fill-opacity="0.533333" stroke="#aabbaa" stroke-width="1.3" stroke-opacity="0.533333" points="1944.44,-196.85 1934.16,-199.42 1943.8,-203.82 1944.44,-196.85"/>
</g>
<!-- /lib/files/import_files.dart&#45;&gt;/lib/files/file_ora.dart -->
<g id="edge73" class="edge">
<title>/lib/files/import_files.dart&#45;&gt;/lib/files/file_ora.dart</title>
<path fill="none" stroke="#aabbaa" stroke-width="1.3" stroke-opacity="0.533333" d="M3109,-349.82C3109,-339.8 3109,-326.88 3109,-315.29"/>
<polygon fill="#aabbaa" fill-opacity="0.533333" stroke="#aabbaa" stroke-width="1.3" stroke-opacity="0.533333" points="3112.5,-315.4 3109,-305.4 3105.5,-315.4 3112.5,-315.4"/>
</g>
<!-- /lib/main_screen.dart&#45;&gt;/lib/panels/tools/flood_fill.dart -->
<g id="edge77" class="edge">
<title>/lib/main_screen.dart&#45;&gt;/lib/panels/tools/flood_fill.dart</title>
<path fill="none" stroke="#aabbaa" stroke-width="1.3" stroke-opacity="0.533333" d="M2720.9,-590.97C2615.81,-588.59 2378.65,-581.72 2299,-567 2192.44,-547.31 2158.19,-550.55 2067,-492 2057.97,-486.21 2049.6,-478.11 2042.62,-470.22"/>
<polygon fill="#aabbaa" fill-opacity="0.533333" stroke="#aabbaa" stroke-width="1.3" stroke-opacity="0.533333" points="2045.47,-468.17 2036.39,-462.71 2040.08,-472.64 2045.47,-468.17"/>
</g>
<!-- /lib/main_screen.dart&#45;&gt;/lib/panels/canvas_panel.dart -->
<g id="edge75" class="edge">
<title>/lib/main_screen.dart&#45;&gt;/lib/panels/canvas_panel.dart</title>
<path fill="none" stroke="#aabbaa" stroke-width="1.3" stroke-opacity="0.533333" d="M2789.13,-574.66C2830.04,-531.17 2925.72,-415.66 2866,-342 2841.4,-311.66 2737.12,-297.11 2666.94,-290.64"/>
<polygon fill="#aabbaa" fill-opacity="0.533333" stroke="#aabbaa" stroke-width="1.3" stroke-opacity="0.533333" points="2667.35,-287.16 2657.08,-289.77 2666.74,-294.14 2667.35,-287.16"/>
</g>
<!-- /lib/main_screen.dart&#45;&gt;/lib/panels/side_panel.dart -->
<g id="edge76" class="edge">
<title>/lib/main_screen.dart&#45;&gt;/lib/panels/side_panel.dart</title>
<path fill="none" stroke="#aabbaa" stroke-width="1.3" stroke-opacity="0.533333" d="M2721.21,-584.06C2706.02,-580.32 2689.75,-574.87 2676,-567 2666.19,-561.38 2657,-553.24 2649.33,-545.25"/>
<polygon fill="#aabbaa" fill-opacity="0.533333" stroke="#aabbaa" stroke-width="1.3" stroke-opacity="0.533333" points="2651.99,-542.97 2642.69,-537.89 2646.8,-547.66 2651.99,-542.97"/>
</g>
<!-- /lib/main_screen.dart&#45;&gt;/lib/models/app_model.dart -->
<g id="edge79" class="edge">
<title>/lib/main_screen.dart&#45;&gt;/lib/models/app_model.dart</title>
<path fill="none" stroke="#aabbaa" stroke-width="1.3" stroke-opacity="0.533333" d="M2823.17,-591.01C3006.16,-586.31 3623.53,-559.93 3743,-417 3766.66,-388.7 3768.69,-277.47 3743,-251 3710.88,-217.89 2251.82,-199.21 1943.75,-195.64"/>
<polygon fill="#aabbaa" fill-opacity="0.533333" stroke="#aabbaa" stroke-width="1.3" stroke-opacity="0.533333" points="1944.03,-192.14 1933.99,-195.52 1943.95,-199.14 1944.03,-192.14"/>
</g>
<!-- /lib/widgets/canvas_widget.dart -->
<g id="node40" class="node">
<title>/lib/widgets/canvas_widget.dart</title>
<path fill="Lavender" stroke="black" stroke-width="1.3" d="M376.12,-303C376.12,-303 285.88,-303 285.88,-303 279.88,-303 273.88,-297 273.88,-291 273.88,-291 273.88,-279 273.88,-279 273.88,-273 279.88,-267 285.88,-267 285.88,-267 376.12,-267 376.12,-267 382.12,-267 388.12,-273 388.12,-279 388.12,-279 388.12,-291 388.12,-291 388.12,-297 382.12,-303 376.12,-303"/>
<text text-anchor="middle" x="331" y="-279.75" font-family="Arial" font-size="15.00">canvas_widget</text>
</g>
<!-- /lib/main_screen.dart&#45;&gt;/lib/widgets/canvas_widget.dart -->
<g id="edge78" class="edge">
<title>/lib/main_screen.dart&#45;&gt;/lib/widgets/canvas_widget.dart</title>
<path fill="none" stroke="#aabbaa" stroke-width="1.3" stroke-opacity="0.533333" d="M2721.03,-591.93C2606.2,-591.39 2318.57,-587.86 2079,-567 1327.15,-501.53 1096.95,-616.19 397,-334 383.38,-328.51 369.97,-319.6 358.83,-310.93"/>
<polygon fill="#aabbaa" fill-opacity="0.533333" stroke="#aabbaa" stroke-width="1.3" stroke-opacity="0.533333" points="361.17,-308.32 351.21,-304.72 356.75,-313.75 361.17,-308.32"/>
</g>
<!-- /lib/helpers/image_helper.dart&#45;&gt;/lib/helpers/color_helper.dart -->
<g id="edge80" class="edge">
<title>/lib/helpers/image_helper.dart&#45;&gt;/lib/helpers/color_helper.dart</title>
<path fill="none" stroke="#aabbaa" stroke-width="1.3" stroke-opacity="0.533333" d="M1598.01,-175.7C1597.6,-168.49 1597.11,-159.93 1596.65,-151.82"/>
<polygon fill="#aabbaa" fill-opacity="0.533333" stroke="#aabbaa" stroke-width="1.3" stroke-opacity="0.533333" points="1600.15,-151.85 1596.09,-142.07 1593.17,-152.25 1600.15,-151.85"/>
</g>
<!-- /lib/helpers/color_helper.dart&#45;&gt;/lib/helpers/list_helper.dart -->
<g id="edge81" class="edge">
<title>/lib/helpers/color_helper.dart&#45;&gt;/lib/helpers/list_helper.dart</title>
<path fill="none" stroke="#aabbaa" stroke-width="1.3" stroke-opacity="0.533333" d="M1598.71,-103.7C1600.27,-96.41 1602.13,-87.73 1603.89,-79.54"/>
<polygon fill="#aabbaa" fill-opacity="0.533333" stroke="#aabbaa" stroke-width="1.3" stroke-opacity="0.533333" points="1607.25,-80.54 1605.92,-70.03 1600.4,-79.07 1607.25,-80.54"/>
</g>
<!-- /lib/widgets/canvas_widget.dart&#45;&gt;/lib/models/app_model.dart -->
<g id="edge82" class="edge">
<title>/lib/widgets/canvas_widget.dart&#45;&gt;/lib/models/app_model.dart</title>
<path fill="none" stroke="#aabbaa" stroke-width="1.3" stroke-opacity="0.533333" d="M358.82,-266.54C370.21,-260.36 383.79,-254.16 397,-251 435.26,-241.85 1775.31,-254.27 1813,-243 1829.13,-238.18 1845.06,-228.64 1857.98,-219.33"/>
<polygon fill="#aabbaa" fill-opacity="0.533333" stroke="#aabbaa" stroke-width="1.3" stroke-opacity="0.533333" points="1859.8,-222.34 1865.66,-213.52 1855.58,-216.76 1859.8,-222.34"/>
</g>
<!-- /lib/widgets/color_preview.dart&#45;&gt;/lib/helpers/color_helper.dart -->
<g id="edge83" class="edge">
<title>/lib/widgets/color_preview.dart&#45;&gt;/lib/helpers/color_helper.dart</title>
<path fill="none" stroke="#aabbaa" stroke-width="1.3" stroke-opacity="0.533333" d="M340.17,-190.1C550.52,-178.85 1312.5,-138.11 1534.13,-126.25"/>
<polygon fill="#aabbaa" fill-opacity="0.533333" stroke="#aabbaa" stroke-width="1.3" stroke-opacity="0.533333" points="1534.05,-129.76 1543.85,-125.74 1533.68,-122.77 1534.05,-129.76"/>
</g>
<!-- /lib/widgets/top_colors.dart&#45;&gt;/lib/models/app_model.dart -->
<g id="edge85" class="edge">
<title>/lib/widgets/top_colors.dart&#45;&gt;/lib/models/app_model.dart</title>
<path fill="none" stroke="#aabbaa" stroke-width="1.3" stroke-opacity="0.533333" d="M234.44,-266.57C243.34,-260.4 254.12,-254.19 265,-251 306.26,-238.9 1771.8,-255.31 1813,-243 1829.14,-238.18 1845.06,-228.64 1857.98,-219.33"/>
<polygon fill="#aabbaa" fill-opacity="0.533333" stroke="#aabbaa" stroke-width="1.3" stroke-opacity="0.533333" points="1859.8,-222.35 1865.66,-213.52 1855.58,-216.77 1859.8,-222.35"/>
</g>
<!-- /lib/widgets/top_colors.dart&#45;&gt;/lib/helpers/color_helper.dart -->
<g id="edge84" class="edge">
<title>/lib/widgets/top_colors.dart&#45;&gt;/lib/helpers/color_helper.dart</title>
<path fill="none" stroke="#aabbaa" stroke-width="1.3" stroke-opacity="0.533333" d="M208.33,-266.87C202.51,-241.26 196.3,-193.31 223,-168 271.15,-122.35 1273.94,-122.07 1533.89,-122.77"/>
<polygon fill="#aabbaa" fill-opacity="0.533333" stroke="#aabbaa" stroke-width="1.3" stroke-opacity="0.533333" points="1533.72,-126.27 1543.73,-122.8 1533.74,-119.27 1533.72,-126.27"/>
</g>
<!-- /lib/widgets/top_colors.dart&#45;&gt;/lib/widgets/transparent_background.dart -->
<g id="edge87" class="edge">
<title>/lib/widgets/top_colors.dart&#45;&gt;/lib/widgets/transparent_background.dart</title>
<path fill="none" stroke="#aabbaa" stroke-width="1.3" stroke-opacity="0.533333" d="M235.08,-266.67C243.91,-260.67 254.46,-254.55 265,-251 268.26,-249.9 637.82,-218.86 821.6,-203.48"/>
<polygon fill="#aabbaa" fill-opacity="0.533333" stroke="#aabbaa" stroke-width="1.3" stroke-opacity="0.533333" points="821.79,-206.97 831.47,-202.65 821.21,-200 821.79,-206.97"/>
</g>
<!-- /lib/widgets/top_colors.dart&#45;&gt;/lib/widgets/color_preview.dart -->
<g id="edge86" class="edge">
<title>/lib/widgets/top_colors.dart&#45;&gt;/lib/widgets/color_preview.dart</title>
<path fill="none" stroke="#aabbaa" stroke-width="1.3" stroke-opacity="0.533333" d="M227.08,-266.84C237.61,-253.99 252.22,-236.19 264.25,-221.52"/>
<polygon fill="#aabbaa" fill-opacity="0.533333" stroke="#aabbaa" stroke-width="1.3" stroke-opacity="0.533333" points="266.84,-223.88 270.47,-213.93 261.42,-219.44 266.84,-223.88"/>
</g>
<!-- /lib/widgets/brush_style_picker.dart&#45;&gt;/lib/models/app_model.dart -->
<g id="edge88" class="edge">
<title>/lib/widgets/brush_style_picker.dart&#45;&gt;/lib/models/app_model.dart</title>
<path fill="none" stroke="#aabbaa" stroke-width="1.3" stroke-opacity="0.533333" d="M756.13,-266.54C769.99,-260.36 786.39,-254.16 802,-251 857.05,-239.86 1759.2,-259.15 1813,-243 1829.13,-238.16 1845.06,-228.62 1857.98,-219.31"/>
<polygon fill="#aabbaa" fill-opacity="0.533333" stroke="#aabbaa" stroke-width="1.3" stroke-opacity="0.533333" points="1859.79,-222.33 1865.66,-213.51 1855.57,-216.74 1859.79,-222.33"/>
</g>
<!-- /lib/widgets/color_picker.dart&#45;&gt;/lib/helpers/list_helper.dart -->
<g id="edge90" class="edge">
<title>/lib/widgets/color_picker.dart&#45;&gt;/lib/helpers/list_helper.dart</title>
<path fill="none" stroke="#aabbaa" stroke-width="1.3" stroke-opacity="0.533333" d="M101.98,-266.71C100.05,-240.9 100.78,-192.69 129,-168 238.35,-72.35 1302.41,-54.44 1555.96,-51.52"/>
<polygon fill="#aabbaa" fill-opacity="0.533333" stroke="#aabbaa" stroke-width="1.3" stroke-opacity="0.533333" points="1555.83,-55.02 1565.79,-51.41 1555.76,-48.02 1555.83,-55.02"/>
</g>
<!-- /lib/widgets/color_picker.dart&#45;&gt;/lib/helpers/color_helper.dart -->
<g id="edge89" class="edge">
<title>/lib/widgets/color_picker.dart&#45;&gt;/lib/helpers/color_helper.dart</title>
<path fill="none" stroke="#aabbaa" stroke-width="1.3" stroke-opacity="0.533333" d="M115.58,-266.56C135.67,-236.92 176.94,-178.89 199,-168 259.57,-138.11 1272.44,-126.16 1533.84,-123.57"/>
<polygon fill="#aabbaa" fill-opacity="0.533333" stroke="#aabbaa" stroke-width="1.3" stroke-opacity="0.533333" points="1533.78,-127.07 1543.75,-123.47 1533.71,-120.07 1533.78,-127.07"/>
</g>
<!-- /lib/widgets/color_picker.dart&#45;&gt;/lib/widgets/transparent_background.dart -->
<g id="edge91" class="edge">
<title>/lib/widgets/color_picker.dart&#45;&gt;/lib/widgets/transparent_background.dart</title>
<path fill="none" stroke="#aabbaa" stroke-width="1.3" stroke-opacity="0.533333" d="M128.53,-266.61C138.45,-260.52 150.31,-254.36 162,-251 201.97,-239.5 307.49,-245.62 349,-243 514.79,-232.53 707.12,-215.43 821.73,-204.72"/>
<polygon fill="#aabbaa" fill-opacity="0.533333" stroke="#aabbaa" stroke-width="1.3" stroke-opacity="0.533333" points="822.01,-208.21 831.64,-203.79 821.36,-201.24 822.01,-208.21"/>
</g>
</g>
</svg>
