<?xml version="1.0" encoding="UTF-8" standalone="no"?>
<!DOCTYPE svg PUBLIC "-//W3C//DTD SVG 1.1//EN"
 "http://www.w3.org/Graphics/SVG/1.1/DTD/svg11.dtd">
<!-- Generated by graphviz version 12.2.1 (20241206.2353)
 -->
<!-- Pages: 1 -->
<svg width="670pt" height="606pt"
 viewBox="0.00 0.00 670.00 606.00" xmlns="http://www.w3.org/2000/svg" xmlns:xlink="http://www.w3.org/1999/xlink">
<g id="graph0" class="graph" transform="scale(1 1) rotate(0) translate(4 602)">
<polygon fill="white" stroke="none" points="-4,4 -4,-602 666,-602 666,4 -4,4"/>
<g id="clust1" class="cluster">
<title>cluster~</title>
<path fill="none" stroke="lightgray" stroke-width="2.6" d="M20,-8C20,-8 642,-8 642,-8 648,-8 654,-14 654,-20 654,-20 654,-578 654,-578 654,-584 648,-590 642,-590 642,-590 20,-590 20,-590 14,-590 8,-584 8,-578 8,-578 8,-20 8,-20 8,-14 14,-8 20,-8"/>
<text text-anchor="middle" x="331" y="-573.65" font-family="Arial Black" font-size="13.00">fpaint</text>
</g>
<g id="clust2" class="cluster">
<title>cluster~/test</title>
<path fill="none" stroke="lightgray" stroke-width="2.6" d="M51,-484C51,-484 283,-484 283,-484 289,-484 295,-490 295,-496 295,-496 295,-547 295,-547 295,-553 289,-559 283,-559 283,-559 51,-559 51,-559 45,-559 39,-553 39,-547 39,-547 39,-496 39,-496 39,-490 45,-484 51,-484"/>
<text text-anchor="middle" x="167" y="-542.65" font-family="Arial Black" font-size="13.00">test</text>
</g>
<g id="clust3" class="cluster">
<title>cluster~/lib</title>
<path fill="none" stroke="lightgray" stroke-width="2.6" d="M28,-16C28,-16 634,-16 634,-16 640,-16 646,-22 646,-28 646,-28 646,-464 646,-464 646,-470 640,-476 634,-476 634,-476 28,-476 28,-476 22,-476 16,-470 16,-464 16,-464 16,-28 16,-28 16,-22 22,-16 28,-16"/>
<text text-anchor="middle" x="331" y="-459.65" font-family="Arial Black" font-size="13.00">lib</text>
</g>
<g id="clust4" class="cluster">
<title>cluster~/lib/panels</title>
<path fill="none" stroke="lightgray" stroke-width="2.6" d="M424,-179C424,-179 626,-179 626,-179 632,-179 638,-185 638,-191 638,-191 638,-317 638,-317 638,-323 632,-329 626,-329 626,-329 424,-329 424,-329 418,-329 412,-323 412,-317 412,-317 412,-191 412,-191 412,-185 418,-179 424,-179"/>
<text text-anchor="middle" x="525" y="-312.65" font-family="Arial Black" font-size="13.00">panels</text>
</g>
<g id="clust5" class="cluster">
<title>cluster~/lib/models</title>
<path fill="none" stroke="lightgray" stroke-width="2.6" d="M36,-179C36,-179 200,-179 200,-179 206,-179 212,-185 212,-191 212,-191 212,-317 212,-317 212,-323 206,-329 200,-329 200,-329 36,-329 36,-329 30,-329 24,-323 24,-317 24,-317 24,-191 24,-191 24,-185 30,-179 36,-179"/>
<text text-anchor="middle" x="118" y="-312.65" font-family="Arial Black" font-size="13.00">models</text>
</g>
<g id="clust6" class="cluster">
<title>cluster~/lib/helpers</title>
<path fill="none" stroke="lightgray" stroke-width="2.6" d="M337,-24C337,-24 427,-24 427,-24 433,-24 439,-30 439,-36 439,-36 439,-159 439,-159 439,-165 433,-171 427,-171 427,-171 337,-171 337,-171 331,-171 325,-165 325,-159 325,-159 325,-36 325,-36 325,-30 331,-24 337,-24"/>
<text text-anchor="middle" x="382" y="-154.65" font-family="Arial Black" font-size="13.00">helpers</text>
</g>
<g id="clust7" class="cluster">
<title>cluster~/lib/widgets</title>
<path fill="none" stroke="lightgray" stroke-width="2.6" d="M232,-179C232,-179 392,-179 392,-179 398,-179 404,-185 404,-191 404,-191 404,-242 404,-242 404,-248 398,-254 392,-254 392,-254 232,-254 232,-254 226,-254 220,-248 220,-242 220,-242 220,-191 220,-191 220,-185 226,-179 232,-179"/>
<text text-anchor="middle" x="312" y="-237.65" font-family="Arial Black" font-size="13.00">widgets</text>
</g>
<!-- /test/paint_model_test.dart -->
<g id="node1" class="node">
<title>/test/paint_model_test.dart</title>
<path fill="Lavender" stroke="black" stroke-width="1.3" d="M165,-528C165,-528 59,-528 59,-528 53,-528 47,-522 47,-516 47,-516 47,-504 47,-504 47,-498 53,-492 59,-492 59,-492 165,-492 165,-492 171,-492 177,-498 177,-504 177,-504 177,-516 177,-516 177,-522 171,-528 165,-528"/>
<text text-anchor="middle" x="112" y="-504.75" font-family="Arial" font-size="15.00">paint_model_test</text>
</g>
<!-- /lib/models/app_model.dart -->
<g id="node8" class="node">
<title>/lib/models/app_model.dart</title>
<path fill="Lavender" stroke="black" stroke-width="1.3" d="M191.75,-223C191.75,-223 126.25,-223 126.25,-223 120.25,-223 114.25,-217 114.25,-211 114.25,-211 114.25,-199 114.25,-199 114.25,-193 120.25,-187 126.25,-187 126.25,-187 191.75,-187 191.75,-187 197.75,-187 203.75,-193 203.75,-199 203.75,-199 203.75,-211 203.75,-211 203.75,-217 197.75,-223 191.75,-223"/>
<text text-anchor="middle" x="159" y="-199.75" font-family="Arial" font-size="15.00">app_model</text>
</g>
<!-- /test/paint_model_test.dart&#45;&gt;/lib/models/app_model.dart -->
<g id="edge1" class="edge">
<title>/test/paint_model_test.dart&#45;&gt;/lib/models/app_model.dart</title>
<path fill="none" stroke="#aabbaa" stroke-width="1.3" stroke-opacity="0.533333" d="M109.45,-491.63C104.09,-450.44 94.3,-344.15 122,-262 125.43,-251.84 131.17,-241.75 137.12,-232.99"/>
<polygon fill="#aabbaa" fill-opacity="0.533333" stroke="#aabbaa" stroke-width="1.3" stroke-opacity="0.533333" points="139.88,-235.14 142.92,-224.99 134.22,-231.03 139.88,-235.14"/>
</g>
<!-- /test/widget_test.dart -->
<g id="node2" class="node">
<title>/test/widget_test.dart</title>
<path fill="Lavender" stroke="black" stroke-width="1.3" d="M274.88,-528C274.88,-528 207.12,-528 207.12,-528 201.12,-528 195.12,-522 195.12,-516 195.12,-516 195.12,-504 195.12,-504 195.12,-498 201.12,-492 207.12,-492 207.12,-492 274.88,-492 274.88,-492 280.88,-492 286.88,-498 286.88,-504 286.88,-504 286.88,-516 286.88,-516 286.88,-522 280.88,-528 274.88,-528"/>
<text text-anchor="middle" x="241" y="-504.75" font-family="Arial" font-size="15.00">widget_test</text>
</g>
<!-- /lib/main.dart -->
<g id="node9" class="node">
<title>/lib/main.dart</title>
<path fill="Lavender" stroke="black" stroke-width="1.3" d="M256,-445C256,-445 226,-445 226,-445 220,-445 214,-439 214,-433 214,-433 214,-421 214,-421 214,-415 220,-409 226,-409 226,-409 256,-409 256,-409 262,-409 268,-415 268,-421 268,-421 268,-433 268,-433 268,-439 262,-445 256,-445"/>
<text text-anchor="middle" x="241" y="-421.75" font-family="Arial" font-size="15.00">main</text>
</g>
<!-- /test/widget_test.dart&#45;&gt;/lib/main.dart -->
<g id="edge2" class="edge">
<title>/test/widget_test.dart&#45;&gt;/lib/main.dart</title>
<path fill="none" stroke="#aabbaa" stroke-width="1.3" stroke-opacity="0.533333" d="M241,-491.82C241,-481.8 241,-468.88 241,-457.29"/>
<polygon fill="#aabbaa" fill-opacity="0.533333" stroke="#aabbaa" stroke-width="1.3" stroke-opacity="0.533333" points="244.5,-457.4 241,-447.4 237.5,-457.4 244.5,-457.4"/>
</g>
<!-- /lib/panels/tools_panel.dart -->
<g id="node3" class="node">
<title>/lib/panels/tools_panel.dart</title>
<path fill="Lavender" stroke="black" stroke-width="1.3" d="M617.88,-298C617.88,-298 550.12,-298 550.12,-298 544.12,-298 538.12,-292 538.12,-286 538.12,-286 538.12,-274 538.12,-274 538.12,-268 544.12,-262 550.12,-262 550.12,-262 617.88,-262 617.88,-262 623.88,-262 629.88,-268 629.88,-274 629.88,-274 629.88,-286 629.88,-286 629.88,-292 623.88,-298 617.88,-298"/>
<text text-anchor="middle" x="584" y="-274.75" font-family="Arial" font-size="15.00">tools_panel</text>
</g>
<!-- /lib/panels/tool.dart -->
<g id="node5" class="node">
<title>/lib/panels/tool.dart</title>
<path fill="Lavender" stroke="black" stroke-width="1.3" d="M599,-223C599,-223 569,-223 569,-223 563,-223 557,-217 557,-211 557,-211 557,-199 557,-199 557,-193 563,-187 569,-187 569,-187 599,-187 599,-187 605,-187 611,-193 611,-199 611,-199 611,-211 611,-211 611,-217 605,-223 599,-223"/>
<text text-anchor="middle" x="584" y="-199.75" font-family="Arial" font-size="15.00">tool</text>
</g>
<!-- /lib/panels/tools_panel.dart&#45;&gt;/lib/panels/tool.dart -->
<g id="edge4" class="edge">
<title>/lib/panels/tools_panel.dart&#45;&gt;/lib/panels/tool.dart</title>
<path fill="none" stroke="#aabbaa" stroke-width="1.3" stroke-opacity="0.533333" d="M584,-261.7C584,-253.76 584,-244.12 584,-235.11"/>
<polygon fill="#aabbaa" fill-opacity="0.533333" stroke="#aabbaa" stroke-width="1.3" stroke-opacity="0.533333" points="587.5,-235.4 584,-225.4 580.5,-235.4 587.5,-235.4"/>
</g>
<!-- /lib/panels/tools_panel.dart&#45;&gt;/lib/models/app_model.dart -->
<g id="edge3" class="edge">
<title>/lib/panels/tools_panel.dart&#45;&gt;/lib/models/app_model.dart</title>
<path fill="none" stroke="#aabbaa" stroke-width="1.3" stroke-opacity="0.533333" d="M537.7,-263.71C534.78,-263.05 531.86,-262.47 529,-262 494.67,-256.37 248.53,-266.34 216,-254 203.35,-249.2 191.52,-240.31 181.96,-231.48"/>
<polygon fill="#aabbaa" fill-opacity="0.533333" stroke="#aabbaa" stroke-width="1.3" stroke-opacity="0.533333" points="184.5,-229.07 174.93,-224.54 179.59,-234.05 184.5,-229.07"/>
</g>
<!-- /lib/widgets/color_picker.dart -->
<g id="node15" class="node">
<title>/lib/widgets/color_picker.dart</title>
<path fill="Lavender" stroke="black" stroke-width="1.3" d="M384.12,-223C384.12,-223 311.88,-223 311.88,-223 305.88,-223 299.88,-217 299.88,-211 299.88,-211 299.88,-199 299.88,-199 299.88,-193 305.88,-187 311.88,-187 311.88,-187 384.12,-187 384.12,-187 390.12,-187 396.12,-193 396.12,-199 396.12,-199 396.12,-211 396.12,-211 396.12,-217 390.12,-223 384.12,-223"/>
<text text-anchor="middle" x="348" y="-199.75" font-family="Arial" font-size="15.00">color_picker</text>
</g>
<!-- /lib/panels/tools_panel.dart&#45;&gt;/lib/widgets/color_picker.dart -->
<g id="edge5" class="edge">
<title>/lib/panels/tools_panel.dart&#45;&gt;/lib/widgets/color_picker.dart</title>
<path fill="none" stroke="#aabbaa" stroke-width="1.3" stroke-opacity="0.533333" d="M537.68,-263.85C534.76,-263.15 531.85,-262.53 529,-262 502.5,-257.1 433.12,-263.75 408,-254 395.05,-248.97 382.71,-240.09 372.62,-231.33"/>
<polygon fill="#aabbaa" fill-opacity="0.533333" stroke="#aabbaa" stroke-width="1.3" stroke-opacity="0.533333" points="375.22,-228.96 365.49,-224.76 370.47,-234.11 375.22,-228.96"/>
</g>
<!-- /lib/panels/layers_panel.dart -->
<g id="node4" class="node">
<title>/lib/panels/layers_panel.dart</title>
<path fill="Lavender" stroke="black" stroke-width="1.3" d="M508,-298C508,-298 432,-298 432,-298 426,-298 420,-292 420,-286 420,-286 420,-274 420,-274 420,-268 426,-262 432,-262 432,-262 508,-262 508,-262 514,-262 520,-268 520,-274 520,-274 520,-286 520,-286 520,-292 514,-298 508,-298"/>
<text text-anchor="middle" x="470" y="-274.75" font-family="Arial" font-size="15.00">layers_panel</text>
</g>
<!-- /lib/panels/layers_panel.dart&#45;&gt;/lib/models/app_model.dart -->
<g id="edge6" class="edge">
<title>/lib/panels/layers_panel.dart&#45;&gt;/lib/models/app_model.dart</title>
<path fill="none" stroke="#aabbaa" stroke-width="1.3" stroke-opacity="0.533333" d="M419.51,-262.66C418.33,-262.42 417.16,-262.2 416,-262 372.18,-254.37 257.47,-270.08 216,-254 203.39,-249.11 191.57,-240.2 182,-231.38"/>
<polygon fill="#aabbaa" fill-opacity="0.533333" stroke="#aabbaa" stroke-width="1.3" stroke-opacity="0.533333" points="184.54,-228.98 174.96,-224.46 179.63,-233.97 184.54,-228.98"/>
</g>
<!-- /lib/models/layers.dart -->
<g id="node6" class="node">
<title>/lib/models/layers.dart</title>
<path fill="Lavender" stroke="black" stroke-width="1.3" d="M174.88,-298C174.88,-298 143.12,-298 143.12,-298 137.12,-298 131.12,-292 131.12,-286 131.12,-286 131.12,-274 131.12,-274 131.12,-268 137.12,-262 143.12,-262 143.12,-262 174.88,-262 174.88,-262 180.88,-262 186.88,-268 186.88,-274 186.88,-274 186.88,-286 186.88,-286 186.88,-292 180.88,-298 174.88,-298"/>
<text text-anchor="middle" x="159" y="-274.75" font-family="Arial" font-size="15.00">layers</text>
</g>
<!-- /lib/models/shapes.dart -->
<g id="node7" class="node">
<title>/lib/models/shapes.dart</title>
<path fill="Lavender" stroke="black" stroke-width="1.3" d="M84,-223C84,-223 44,-223 44,-223 38,-223 32,-217 32,-211 32,-211 32,-199 32,-199 32,-193 38,-187 44,-187 44,-187 84,-187 84,-187 90,-187 96,-193 96,-199 96,-199 96,-211 96,-211 96,-217 90,-223 84,-223"/>
<text text-anchor="middle" x="64" y="-199.75" font-family="Arial" font-size="15.00">shapes</text>
</g>
<!-- /lib/models/layers.dart&#45;&gt;/lib/models/shapes.dart -->
<g id="edge8" class="edge">
<title>/lib/models/layers.dart&#45;&gt;/lib/models/shapes.dart</title>
<path fill="none" stroke="#aabbaa" stroke-width="1.3" stroke-opacity="0.533333" d="M130.9,-272.09C119.2,-267.85 106.21,-261.74 96,-254 88.11,-248.01 80.68,-240.27 74.76,-232.76"/>
<polygon fill="#aabbaa" fill-opacity="0.533333" stroke="#aabbaa" stroke-width="1.3" stroke-opacity="0.533333" points="77.74,-230.9 69.09,-224.79 72.03,-234.96 77.74,-230.9"/>
</g>
<!-- /lib/models/layers.dart&#45;&gt;/lib/models/shapes.dart -->
<g id="edge9" class="edge">
<title>/lib/models/layers.dart&#45;&gt;/lib/models/shapes.dart</title>
<path fill="none" stroke="#aabbaa" stroke-width="1.3" stroke-dasharray="5,2" stroke-opacity="0.533333" d="M130.63,-264.36C124.9,-261.33 119.1,-257.87 114,-254 105.84,-247.81 98.17,-239.75 91.29,-232"/>
<polygon fill="#aabbaa" fill-opacity="0.533333" stroke="#aabbaa" stroke-width="1.3" stroke-opacity="0.533333" points="94.1,-229.89 84.88,-224.66 88.83,-234.5 94.1,-229.89"/>
</g>
<!-- /lib/models/layers.dart&#45;&gt;/lib/models/app_model.dart -->
<g id="edge7" class="edge">
<title>/lib/models/layers.dart&#45;&gt;/lib/models/app_model.dart</title>
<path fill="none" stroke="#aabbaa" stroke-width="1.3" stroke-opacity="0.533333" d="M147.32,-261.7C145.66,-253.76 145.13,-244.12 145.75,-235.11"/>
<polygon fill="#aabbaa" fill-opacity="0.533333" stroke="#aabbaa" stroke-width="1.3" stroke-opacity="0.533333" points="149.19,-235.75 147.04,-225.38 142.25,-234.83 149.19,-235.75"/>
</g>
<!-- /lib/models/app_model.dart&#45;&gt;/lib/models/layers.dart -->
<g id="edge10" class="edge">
<title>/lib/models/app_model.dart&#45;&gt;/lib/models/layers.dart</title>
<path fill="none" stroke="#aabbaa" stroke-width="1.3" stroke-opacity="0.533333" d="M159,-223.43C159,-231.39 159,-241.03 159,-250.04"/>
<polygon fill="#aabbaa" fill-opacity="0.533333" stroke="#aabbaa" stroke-width="1.3" stroke-opacity="0.533333" points="155.5,-249.73 159,-259.73 162.5,-249.73 155.5,-249.73"/>
</g>
<!-- /lib/models/app_model.dart&#45;&gt;/lib/models/layers.dart -->
<g id="edge11" class="edge">
<title>/lib/models/app_model.dart&#45;&gt;/lib/models/layers.dart</title>
<path fill="none" stroke="#aabbaa" stroke-width="1.3" stroke-dasharray="5,2" stroke-opacity="0.533333" d="M170.71,-223.43C172.36,-231.39 172.87,-241.03 172.24,-250.04"/>
<polygon fill="#aabbaa" fill-opacity="0.533333" stroke="#aabbaa" stroke-width="1.3" stroke-opacity="0.533333" points="168.8,-249.37 170.94,-259.75 175.74,-250.3 168.8,-249.37"/>
</g>
<!-- /lib/main.dart&#45;&gt;/lib/models/app_model.dart -->
<g id="edge13" class="edge">
<title>/lib/main.dart&#45;&gt;/lib/models/app_model.dart</title>
<path fill="none" stroke="#aabbaa" stroke-width="1.3" stroke-opacity="0.533333" d="M236.59,-408.71C226.5,-369.37 202.14,-275.54 196,-262 191.5,-252.08 185.36,-241.95 179.37,-233.07"/>
<polygon fill="#aabbaa" fill-opacity="0.533333" stroke="#aabbaa" stroke-width="1.3" stroke-opacity="0.533333" points="182.26,-231.1 173.65,-224.93 176.53,-235.12 182.26,-231.1"/>
</g>
<!-- /lib/main_screen.dart -->
<g id="node11" class="node">
<title>/lib/main_screen.dart</title>
<path fill="Lavender" stroke="black" stroke-width="1.3" d="M346.75,-373C346.75,-373 269.25,-373 269.25,-373 263.25,-373 257.25,-367 257.25,-361 257.25,-361 257.25,-349 257.25,-349 257.25,-343 263.25,-337 269.25,-337 269.25,-337 346.75,-337 346.75,-337 352.75,-337 358.75,-343 358.75,-349 358.75,-349 358.75,-361 358.75,-361 358.75,-367 352.75,-373 346.75,-373"/>
<text text-anchor="middle" x="308" y="-349.75" font-family="Arial" font-size="15.00">main_screen</text>
</g>
<!-- /lib/main.dart&#45;&gt;/lib/main_screen.dart -->
<g id="edge12" class="edge">
<title>/lib/main.dart&#45;&gt;/lib/main_screen.dart</title>
<path fill="none" stroke="#aabbaa" stroke-width="1.3" stroke-opacity="0.533333" d="M257.56,-408.7C265.35,-400.56 274.8,-390.69 283.4,-381.7"/>
<polygon fill="#aabbaa" fill-opacity="0.533333" stroke="#aabbaa" stroke-width="1.3" stroke-opacity="0.533333" points="285.88,-384.17 290.27,-374.53 280.83,-379.33 285.88,-384.17"/>
</g>
<!-- /lib/canvas.dart -->
<g id="node10" class="node">
<title>/lib/canvas.dart</title>
<path fill="Lavender" stroke="black" stroke-width="1.3" d="M276.62,-298C276.62,-298 237.38,-298 237.38,-298 231.38,-298 225.38,-292 225.38,-286 225.38,-286 225.38,-274 225.38,-274 225.38,-268 231.38,-262 237.38,-262 237.38,-262 276.62,-262 276.62,-262 282.62,-262 288.62,-268 288.62,-274 288.62,-274 288.62,-286 288.62,-286 288.62,-292 282.62,-298 276.62,-298"/>
<text text-anchor="middle" x="257" y="-274.75" font-family="Arial" font-size="15.00">canvas</text>
</g>
<!-- /lib/canvas.dart&#45;&gt;/lib/models/app_model.dart -->
<g id="edge14" class="edge">
<title>/lib/canvas.dart&#45;&gt;/lib/models/app_model.dart</title>
<path fill="none" stroke="#aabbaa" stroke-width="1.3" stroke-opacity="0.533333" d="M227.53,-261.78C223.59,-259.26 219.65,-256.63 216,-254 206.26,-246.99 196.09,-238.76 187.09,-231.11"/>
<polygon fill="#aabbaa" fill-opacity="0.533333" stroke="#aabbaa" stroke-width="1.3" stroke-opacity="0.533333" points="189.53,-228.6 179.68,-224.71 184.96,-233.9 189.53,-228.6"/>
</g>
<!-- /lib/main_screen.dart&#45;&gt;/lib/panels/tools_panel.dart -->
<g id="edge17" class="edge">
<title>/lib/main_screen.dart&#45;&gt;/lib/panels/tools_panel.dart</title>
<path fill="none" stroke="#aabbaa" stroke-width="1.3" stroke-opacity="0.533333" d="M358.86,-351.75C414.44,-348.68 499.5,-342 529,-329 540.83,-323.79 551.96,-315.11 561.08,-306.55"/>
<polygon fill="#aabbaa" fill-opacity="0.533333" stroke="#aabbaa" stroke-width="1.3" stroke-opacity="0.533333" points="563.48,-309.1 568.08,-299.56 558.53,-304.15 563.48,-309.1"/>
</g>
<!-- /lib/main_screen.dart&#45;&gt;/lib/panels/layers_panel.dart -->
<g id="edge16" class="edge">
<title>/lib/main_screen.dart&#45;&gt;/lib/panels/layers_panel.dart</title>
<path fill="none" stroke="#aabbaa" stroke-width="1.3" stroke-opacity="0.533333" d="M359.02,-347.58C377.67,-343.87 398.48,-338.06 416,-329 427.2,-323.21 437.93,-314.57 446.83,-306.21"/>
<polygon fill="#aabbaa" fill-opacity="0.533333" stroke="#aabbaa" stroke-width="1.3" stroke-opacity="0.533333" points="449.02,-308.96 453.67,-299.44 444.1,-303.98 449.02,-308.96"/>
</g>
<!-- /lib/main_screen.dart&#45;&gt;/lib/models/app_model.dart -->
<g id="edge18" class="edge">
<title>/lib/main_screen.dart&#45;&gt;/lib/models/app_model.dart</title>
<path fill="none" stroke="#aabbaa" stroke-width="1.3" stroke-opacity="0.533333" d="M311.89,-336.7C315.43,-315.88 317.53,-281.32 298,-262 284.98,-249.13 232.87,-261.11 216,-254 203.71,-248.83 192.08,-240.04 182.57,-231.38"/>
<polygon fill="#aabbaa" fill-opacity="0.533333" stroke="#aabbaa" stroke-width="1.3" stroke-opacity="0.533333" points="185.18,-229.05 175.56,-224.62 180.32,-234.08 185.18,-229.05"/>
</g>
<!-- /lib/main_screen.dart&#45;&gt;/lib/canvas.dart -->
<g id="edge15" class="edge">
<title>/lib/main_screen.dart&#45;&gt;/lib/canvas.dart</title>
<path fill="none" stroke="#aabbaa" stroke-width="1.3" stroke-opacity="0.533333" d="M295.91,-336.7C289.92,-328.13 282.55,-317.58 275.84,-307.97"/>
<polygon fill="#aabbaa" fill-opacity="0.533333" stroke="#aabbaa" stroke-width="1.3" stroke-opacity="0.533333" points="278.9,-306.23 270.3,-300.04 273.16,-310.24 278.9,-306.23"/>
</g>
<!-- /lib/helpers/list_helper.dart -->
<g id="node12" class="node">
<title>/lib/helpers/list_helper.dart</title>
<path fill="Lavender" stroke="black" stroke-width="1.3" d="M407.75,-68C407.75,-68 348.25,-68 348.25,-68 342.25,-68 336.25,-62 336.25,-56 336.25,-56 336.25,-44 336.25,-44 336.25,-38 342.25,-32 348.25,-32 348.25,-32 407.75,-32 407.75,-32 413.75,-32 419.75,-38 419.75,-44 419.75,-44 419.75,-56 419.75,-56 419.75,-62 413.75,-68 407.75,-68"/>
<text text-anchor="middle" x="378" y="-44.75" font-family="Arial" font-size="15.00">list_helper</text>
</g>
<!-- /lib/helpers/color_helper.dart -->
<g id="node13" class="node">
<title>/lib/helpers/color_helper.dart</title>
<path fill="Lavender" stroke="black" stroke-width="1.3" d="M418.88,-140C418.88,-140 345.12,-140 345.12,-140 339.12,-140 333.12,-134 333.12,-128 333.12,-128 333.12,-116 333.12,-116 333.12,-110 339.12,-104 345.12,-104 345.12,-104 418.88,-104 418.88,-104 424.88,-104 430.88,-110 430.88,-116 430.88,-116 430.88,-128 430.88,-128 430.88,-134 424.88,-140 418.88,-140"/>
<text text-anchor="middle" x="382" y="-116.75" font-family="Arial" font-size="15.00">color_helper</text>
</g>
<!-- /lib/helpers/color_helper.dart&#45;&gt;/lib/helpers/list_helper.dart -->
<g id="edge19" class="edge">
<title>/lib/helpers/color_helper.dart&#45;&gt;/lib/helpers/list_helper.dart</title>
<path fill="none" stroke="#aabbaa" stroke-width="1.3" stroke-opacity="0.533333" d="M381.01,-103.7C380.6,-96.49 380.11,-87.93 379.65,-79.82"/>
<polygon fill="#aabbaa" fill-opacity="0.533333" stroke="#aabbaa" stroke-width="1.3" stroke-opacity="0.533333" points="383.15,-79.85 379.09,-70.07 376.17,-80.25 383.15,-79.85"/>
</g>
<!-- /lib/widgets/dash.dart -->
<g id="node14" class="node">
<title>/lib/widgets/dash.dart</title>
<path fill="Lavender" stroke="black" stroke-width="1.3" d="M270,-223C270,-223 240,-223 240,-223 234,-223 228,-217 228,-211 228,-211 228,-199 228,-199 228,-193 234,-187 240,-187 240,-187 270,-187 270,-187 276,-187 282,-193 282,-199 282,-199 282,-211 282,-211 282,-217 276,-223 270,-223"/>
<text text-anchor="middle" x="255" y="-199.75" font-family="Arial" font-size="15.00">dash</text>
</g>
<!-- /lib/widgets/color_picker.dart&#45;&gt;/lib/helpers/list_helper.dart -->
<g id="edge21" class="edge">
<title>/lib/widgets/color_picker.dart&#45;&gt;/lib/helpers/list_helper.dart</title>
<path fill="none" stroke="#aabbaa" stroke-width="1.3" stroke-opacity="0.533333" d="M332.3,-186.64C328.9,-181.9 325.8,-176.52 324,-171 314.79,-142.68 312.48,-131.46 324,-104 328.37,-93.59 335.89,-84.2 343.95,-76.32"/>
<polygon fill="#aabbaa" fill-opacity="0.533333" stroke="#aabbaa" stroke-width="1.3" stroke-opacity="0.533333" points="346.23,-78.98 351.33,-69.69 341.55,-73.77 346.23,-78.98"/>
</g>
<!-- /lib/widgets/color_picker.dart&#45;&gt;/lib/helpers/color_helper.dart -->
<g id="edge20" class="edge">
<title>/lib/widgets/color_picker.dart&#45;&gt;/lib/helpers/color_helper.dart</title>
<path fill="none" stroke="#aabbaa" stroke-width="1.3" stroke-opacity="0.533333" d="M355.21,-186.82C359.55,-176.48 365.19,-163.05 370.17,-151.18"/>
<polygon fill="#aabbaa" fill-opacity="0.533333" stroke="#aabbaa" stroke-width="1.3" stroke-opacity="0.533333" points="373.28,-152.82 373.92,-142.25 366.82,-150.11 373.28,-152.82"/>
</g>
</g>
</svg>
