<?xml version="1.0" encoding="UTF-8" standalone="no"?>
<!DOCTYPE svg PUBLIC "-//W3C//DTD SVG 1.1//EN"
 "http://www.w3.org/Graphics/SVG/1.1/DTD/svg11.dtd">
<!-- Generated by graphviz version 12.2.1 (20241206.2353)
 -->
<!-- Pages: 1 -->
<svg width="3616pt" height="922pt"
 viewBox="0.00 0.00 3616.00 922.00" xmlns="http://www.w3.org/2000/svg" xmlns:xlink="http://www.w3.org/1999/xlink">
<g id="graph0" class="graph" transform="scale(1 1) rotate(0) translate(4 918)">
<polygon fill="white" stroke="none" points="-4,4 -4,-918 3612,-918 3612,4 -4,4"/>
<g id="clust1" class="cluster">
<title>cluster~</title>
<path fill="none" stroke="lightgray" stroke-width="2.6" d="M20,-8C20,-8 3588,-8 3588,-8 3594,-8 3600,-14 3600,-20 3600,-20 3600,-894 3600,-894 3600,-900 3594,-906 3588,-906 3588,-906 20,-906 20,-906 14,-906 8,-900 8,-894 8,-894 8,-20 8,-20 8,-14 14,-8 20,-8"/>
<text text-anchor="middle" x="1804" y="-889.65" font-family="Arial Black" font-size="13.00">fpaint</text>
</g>
<g id="clust2" class="cluster">
<title>cluster~/test</title>
<path fill="none" stroke="lightgray" stroke-width="2.6" d="M728,-722C728,-722 1485,-722 1485,-722 1491,-722 1497,-728 1497,-734 1497,-734 1497,-863 1497,-863 1497,-869 1491,-875 1485,-875 1485,-875 728,-875 728,-875 722,-875 716,-869 716,-863 716,-863 716,-734 716,-734 716,-728 722,-722 728,-722"/>
<text text-anchor="middle" x="1106.5" y="-858.65" font-family="Arial Black" font-size="13.00">test</text>
</g>
<g id="clust3" class="cluster">
<title>cluster~/test/panels</title>
<path fill="none" stroke="lightgray" stroke-width="2.6" d="M1003,-730C1003,-730 1115,-730 1115,-730 1121,-730 1127,-736 1127,-742 1127,-742 1127,-832 1127,-832 1127,-838 1121,-844 1115,-844 1115,-844 1003,-844 1003,-844 997,-844 991,-838 991,-832 991,-832 991,-742 991,-742 991,-736 997,-730 1003,-730"/>
<text text-anchor="middle" x="1059" y="-827.65" font-family="Arial Black" font-size="13.00">panels</text>
</g>
<g id="clust4" class="cluster">
<title>cluster~/test/panels/tools</title>
<path fill="none" stroke="lightgray" stroke-width="2.6" d="M1011,-738C1011,-738 1107,-738 1107,-738 1113,-738 1119,-744 1119,-750 1119,-750 1119,-801 1119,-801 1119,-807 1113,-813 1107,-813 1107,-813 1011,-813 1011,-813 1005,-813 999,-807 999,-801 999,-801 999,-750 999,-750 999,-744 1005,-738 1011,-738"/>
<text text-anchor="middle" x="1059" y="-796.65" font-family="Arial Black" font-size="13.00">tools</text>
</g>
<g id="clust5" class="cluster">
<title>cluster~/test/models</title>
<path fill="none" stroke="lightgray" stroke-width="2.6" d="M736,-738C736,-738 872,-738 872,-738 878,-738 884,-744 884,-750 884,-750 884,-801 884,-801 884,-807 878,-813 872,-813 872,-813 736,-813 736,-813 730,-813 724,-807 724,-801 724,-801 724,-750 724,-750 724,-744 730,-738 736,-738"/>
<text text-anchor="middle" x="804" y="-796.65" font-family="Arial Black" font-size="13.00">models</text>
</g>
<g id="clust6" class="cluster">
<title>cluster~/lib</title>
<path fill="none" stroke="lightgray" stroke-width="2.6" d="M40,-16C40,-16 3576,-16 3576,-16 3582,-16 3588,-22 3588,-28 3588,-28 3588,-702 3588,-702 3588,-708 3582,-714 3576,-714 3576,-714 40,-714 40,-714 34,-714 28,-708 28,-702 28,-702 28,-28 28,-28 28,-22 34,-16 40,-16"/>
<text text-anchor="middle" x="1808" y="-697.65" font-family="Arial Black" font-size="13.00">lib</text>
</g>
<g id="clust7" class="cluster">
<title>cluster~/lib/panels</title>
<path fill="none" stroke="lightgray" stroke-width="2.6" d="M1502,-251C1502,-251 2371,-251 2371,-251 2377,-251 2383,-257 2383,-263 2383,-263 2383,-555 2383,-555 2383,-561 2377,-567 2371,-567 2371,-567 1502,-567 1502,-567 1496,-567 1490,-561 1490,-555 1490,-555 1490,-263 1490,-263 1490,-257 1496,-251 1502,-251"/>
<text text-anchor="middle" x="1936.5" y="-550.65" font-family="Arial Black" font-size="13.00">panels</text>
</g>
<g id="clust8" class="cluster">
<title>cluster~/lib/panels/tools</title>
<path fill="none" stroke="lightgray" stroke-width="2.6" d="M1510,-342C1510,-342 1782,-342 1782,-342 1788,-342 1794,-348 1794,-354 1794,-354 1794,-480 1794,-480 1794,-486 1788,-492 1782,-492 1782,-492 1510,-492 1510,-492 1504,-492 1498,-486 1498,-480 1498,-480 1498,-354 1498,-354 1498,-348 1504,-342 1510,-342"/>
<text text-anchor="middle" x="1646" y="-475.65" font-family="Arial Black" font-size="13.00">tools</text>
</g>
<g id="clust9" class="cluster">
<title>cluster~/lib/panels/layers</title>
<path fill="none" stroke="lightgray" stroke-width="2.6" d="M1814,-259C1814,-259 2043,-259 2043,-259 2049,-259 2055,-265 2055,-271 2055,-271 2055,-480 2055,-480 2055,-486 2049,-492 2043,-492 2043,-492 1814,-492 1814,-492 1808,-492 1802,-486 1802,-480 1802,-480 1802,-271 1802,-271 1802,-265 1808,-259 1814,-259"/>
<text text-anchor="middle" x="1928.5" y="-475.65" font-family="Arial Black" font-size="13.00">layers</text>
</g>
<g id="clust10" class="cluster">
<title>cluster~/lib/models</title>
<path fill="none" stroke="lightgray" stroke-width="2.6" d="M2403,-96C2403,-96 2748,-96 2748,-96 2754,-96 2760,-102 2760,-108 2760,-108 2760,-405 2760,-405 2760,-411 2754,-417 2748,-417 2748,-417 2403,-417 2403,-417 2397,-417 2391,-411 2391,-405 2391,-405 2391,-108 2391,-108 2391,-102 2397,-96 2403,-96"/>
<text text-anchor="middle" x="2575.5" y="-400.65" font-family="Arial Black" font-size="13.00">models</text>
</g>
<g id="clust11" class="cluster">
<title>cluster~/lib/files</title>
<path fill="none" stroke="lightgray" stroke-width="2.6" d="M2780,-259C2780,-259 3568,-259 3568,-259 3574,-259 3580,-265 3580,-271 3580,-271 3580,-405 3580,-405 3580,-411 3574,-417 3568,-417 3568,-417 2780,-417 2780,-417 2774,-417 2768,-411 2768,-405 2768,-405 2768,-271 2768,-271 2768,-265 2774,-259 2780,-259"/>
<text text-anchor="middle" x="3174" y="-400.65" font-family="Arial Black" font-size="13.00">files</text>
</g>
<g id="clust12" class="cluster">
<title>cluster~/lib/helpers</title>
<path fill="none" stroke="lightgray" stroke-width="2.6" d="M2245,-24C2245,-24 2343,-24 2343,-24 2349,-24 2355,-30 2355,-36 2355,-36 2355,-231 2355,-231 2355,-237 2349,-243 2343,-243 2343,-243 2245,-243 2245,-243 2239,-243 2233,-237 2233,-231 2233,-231 2233,-36 2233,-36 2233,-30 2239,-24 2245,-24"/>
<text text-anchor="middle" x="2294" y="-226.65" font-family="Arial Black" font-size="13.00">helpers</text>
</g>
<g id="clust13" class="cluster">
<title>cluster~/lib/widgets</title>
<path fill="none" stroke="lightgray" stroke-width="2.6" d="M100,-24C100,-24 1470,-24 1470,-24 1476,-24 1482,-30 1482,-36 1482,-36 1482,-322 1482,-322 1482,-328 1476,-334 1470,-334 1470,-334 100,-334 100,-334 94,-334 88,-328 88,-322 88,-322 88,-36 88,-36 88,-30 94,-24 100,-24"/>
<text text-anchor="middle" x="785" y="-317.65" font-family="Arial Black" font-size="13.00">widgets</text>
</g>
<!-- /test/paint_model_test.dart -->
<g id="node1" class="node">
<title>/test/paint_model_test.dart</title>
<path fill="Lavender" stroke="black" stroke-width="1.3" d="M1477,-782C1477,-782 1371,-782 1371,-782 1365,-782 1359,-776 1359,-770 1359,-770 1359,-758 1359,-758 1359,-752 1365,-746 1371,-746 1371,-746 1477,-746 1477,-746 1483,-746 1489,-752 1489,-758 1489,-758 1489,-770 1489,-770 1489,-776 1483,-782 1477,-782"/>
<text text-anchor="middle" x="1424" y="-758.75" font-family="Arial" font-size="15.00">paint_model_test</text>
</g>
<!-- /lib/models/app_model.dart -->
<g id="node26" class="node">
<title>/lib/models/app_model.dart</title>
<path fill="Lavender" stroke="black" stroke-width="1.3" d="M2692.75,-212C2692.75,-212 2627.25,-212 2627.25,-212 2621.25,-212 2615.25,-206 2615.25,-200 2615.25,-200 2615.25,-188 2615.25,-188 2615.25,-182 2621.25,-176 2627.25,-176 2627.25,-176 2692.75,-176 2692.75,-176 2698.75,-176 2704.75,-182 2704.75,-188 2704.75,-188 2704.75,-200 2704.75,-200 2704.75,-206 2698.75,-212 2692.75,-212"/>
<text text-anchor="middle" x="2660" y="-188.75" font-family="Arial" font-size="15.00">app_model</text>
</g>
<!-- /test/paint_model_test.dart&#45;&gt;/lib/models/app_model.dart -->
<g id="edge1" class="edge">
<title>/test/paint_model_test.dart&#45;&gt;/lib/models/app_model.dart</title>
<path fill="none" stroke="#aabbaa" stroke-width="1.3" stroke-opacity="0.533333" d="M1489.44,-763.15C1762.58,-763.48 2812.62,-761.57 3140,-714 3345.26,-684.17 3591,-801.42 3591,-594 3591,-594 3591,-594 3591,-367 3591,-315.35 3620.52,-287.53 3584,-251 3553.24,-220.23 2913.12,-201.44 2716.76,-196.39"/>
<polygon fill="#aabbaa" fill-opacity="0.533333" stroke="#aabbaa" stroke-width="1.3" stroke-opacity="0.533333" points="2717.08,-192.89 2706.99,-196.14 2716.9,-199.89 2717.08,-192.89"/>
</g>
<!-- /test/panels/tools/flood_fill_test.dart -->
<g id="node2" class="node">
<title>/test/panels/tools/flood_fill_test.dart</title>
<path fill="Lavender" stroke="black" stroke-width="1.3" d="M1098.5,-782C1098.5,-782 1019.5,-782 1019.5,-782 1013.5,-782 1007.5,-776 1007.5,-770 1007.5,-770 1007.5,-758 1007.5,-758 1007.5,-752 1013.5,-746 1019.5,-746 1019.5,-746 1098.5,-746 1098.5,-746 1104.5,-746 1110.5,-752 1110.5,-758 1110.5,-758 1110.5,-770 1110.5,-770 1110.5,-776 1104.5,-782 1098.5,-782"/>
<text text-anchor="middle" x="1059" y="-758.75" font-family="Arial" font-size="15.00">flood_fill_test</text>
</g>
<!-- /lib/panels/tools/flood_fill.dart -->
<g id="node9" class="node">
<title>/lib/panels/tools/flood_fill.dart</title>
<path fill="Lavender" stroke="black" stroke-width="1.3" d="M1564,-461C1564,-461 1518,-461 1518,-461 1512,-461 1506,-455 1506,-449 1506,-449 1506,-437 1506,-437 1506,-431 1512,-425 1518,-425 1518,-425 1564,-425 1564,-425 1570,-425 1576,-431 1576,-437 1576,-437 1576,-449 1576,-449 1576,-455 1570,-461 1564,-461"/>
<text text-anchor="middle" x="1541" y="-437.75" font-family="Arial" font-size="15.00">flood_fill</text>
</g>
<!-- /test/panels/tools/flood_fill_test.dart&#45;&gt;/lib/panels/tools/flood_fill.dart -->
<g id="edge2" class="edge">
<title>/test/panels/tools/flood_fill_test.dart&#45;&gt;/lib/panels/tools/flood_fill.dart</title>
<path fill="none" stroke="#aabbaa" stroke-width="1.3" stroke-opacity="0.533333" d="M1053.35,-745.71C1042.75,-709.67 1024.33,-625.63 1064,-575 1117.61,-506.59 1384.65,-464.46 1494.09,-449.82"/>
<polygon fill="#aabbaa" fill-opacity="0.533333" stroke="#aabbaa" stroke-width="1.3" stroke-opacity="0.533333" points="1494.31,-453.33 1503.77,-448.55 1493.4,-446.39 1494.31,-453.33"/>
</g>
<!-- /test/models/canvas_resize_test.dart -->
<g id="node3" class="node">
<title>/test/models/canvas_resize_test.dart</title>
<path fill="Lavender" stroke="black" stroke-width="1.3" d="M864.12,-782C864.12,-782 743.88,-782 743.88,-782 737.88,-782 731.88,-776 731.88,-770 731.88,-770 731.88,-758 731.88,-758 731.88,-752 737.88,-746 743.88,-746 743.88,-746 864.12,-746 864.12,-746 870.12,-746 876.12,-752 876.12,-758 876.12,-758 876.12,-770 876.12,-770 876.12,-776 870.12,-782 864.12,-782"/>
<text text-anchor="middle" x="804" y="-758.75" font-family="Arial" font-size="15.00">canvas_resize_test</text>
</g>
<!-- /lib/models/canvas_resize.dart -->
<g id="node23" class="node">
<title>/lib/models/canvas_resize.dart</title>
<path fill="Lavender" stroke="black" stroke-width="1.3" d="M2498.62,-140C2498.62,-140 2411.38,-140 2411.38,-140 2405.38,-140 2399.38,-134 2399.38,-128 2399.38,-128 2399.38,-116 2399.38,-116 2399.38,-110 2405.38,-104 2411.38,-104 2411.38,-104 2498.62,-104 2498.62,-104 2504.62,-104 2510.62,-110 2510.62,-116 2510.62,-116 2510.62,-128 2510.62,-128 2510.62,-134 2504.62,-140 2498.62,-140"/>
<text text-anchor="middle" x="2455" y="-116.75" font-family="Arial" font-size="15.00">canvas_resize</text>
</g>
<!-- /test/models/canvas_resize_test.dart&#45;&gt;/lib/models/canvas_resize.dart -->
<g id="edge3" class="edge">
<title>/test/models/canvas_resize_test.dart&#45;&gt;/lib/models/canvas_resize.dart</title>
<path fill="none" stroke="#aabbaa" stroke-width="1.3" stroke-opacity="0.533333" d="M731.55,-762.68C554.94,-761.28 112.77,-753.8 60,-714 14.77,-679.88 17,-650.65 17,-594 17,-594 17,-594 17,-284 17,-227.51 34.86,-203.85 84,-176 138.98,-144.83 2296.09,-146.03 2359,-140 2368.28,-139.11 2378.02,-137.82 2387.58,-136.33"/>
<polygon fill="#aabbaa" fill-opacity="0.533333" stroke="#aabbaa" stroke-width="1.3" stroke-opacity="0.533333" points="2387.87,-139.83 2397.17,-134.76 2386.74,-132.92 2387.87,-139.83"/>
</g>
<!-- /test/widget_test.dart -->
<g id="node4" class="node">
<title>/test/widget_test.dart</title>
<path fill="Lavender" stroke="black" stroke-width="1.3" d="M1328.88,-782C1328.88,-782 1261.12,-782 1261.12,-782 1255.12,-782 1249.12,-776 1249.12,-770 1249.12,-770 1249.12,-758 1249.12,-758 1249.12,-752 1255.12,-746 1261.12,-746 1261.12,-746 1328.88,-746 1328.88,-746 1334.88,-746 1340.88,-752 1340.88,-758 1340.88,-758 1340.88,-770 1340.88,-770 1340.88,-776 1334.88,-782 1328.88,-782"/>
<text text-anchor="middle" x="1295" y="-758.75" font-family="Arial" font-size="15.00">widget_test</text>
</g>
<!-- /lib/main.dart -->
<g id="node28" class="node">
<title>/lib/main.dart</title>
<path fill="Lavender" stroke="black" stroke-width="1.3" d="M2559,-683C2559,-683 2529,-683 2529,-683 2523,-683 2517,-677 2517,-671 2517,-671 2517,-659 2517,-659 2517,-653 2523,-647 2529,-647 2529,-647 2559,-647 2559,-647 2565,-647 2571,-653 2571,-659 2571,-659 2571,-671 2571,-671 2571,-677 2565,-683 2559,-683"/>
<text text-anchor="middle" x="2544" y="-659.75" font-family="Arial" font-size="15.00">main</text>
</g>
<!-- /test/widget_test.dart&#45;&gt;/lib/main.dart -->
<g id="edge4" class="edge">
<title>/test/widget_test.dart&#45;&gt;/lib/main.dart</title>
<path fill="none" stroke="#aabbaa" stroke-width="1.3" stroke-opacity="0.533333" d="M1312.7,-745.51C1322.76,-736.75 1336.1,-726.98 1350,-722 1460.71,-682.37 2311.29,-669.02 2504.88,-666.48"/>
<polygon fill="#aabbaa" fill-opacity="0.533333" stroke="#aabbaa" stroke-width="1.3" stroke-opacity="0.533333" points="2504.74,-669.98 2514.7,-666.35 2504.65,-662.98 2504.74,-669.98"/>
</g>
<!-- /test/file_xcf_test.dart -->
<g id="node5" class="node">
<title>/test/file_xcf_test.dart</title>
<path fill="Lavender" stroke="black" stroke-width="1.3" d="M1218.75,-782C1218.75,-782 1147.25,-782 1147.25,-782 1141.25,-782 1135.25,-776 1135.25,-770 1135.25,-770 1135.25,-758 1135.25,-758 1135.25,-752 1141.25,-746 1147.25,-746 1147.25,-746 1218.75,-746 1218.75,-746 1224.75,-746 1230.75,-752 1230.75,-758 1230.75,-758 1230.75,-770 1230.75,-770 1230.75,-776 1224.75,-782 1218.75,-782"/>
<text text-anchor="middle" x="1183" y="-758.75" font-family="Arial" font-size="15.00">file_xcf_test</text>
</g>
<!-- /lib/files/xcf_reader.dart -->
<g id="node29" class="node">
<title>/lib/files/xcf_reader.dart</title>
<path fill="Lavender" stroke="black" stroke-width="1.3" d="M3559.62,-386C3559.62,-386 3496.38,-386 3496.38,-386 3490.38,-386 3484.38,-380 3484.38,-374 3484.38,-374 3484.38,-362 3484.38,-362 3484.38,-356 3490.38,-350 3496.38,-350 3496.38,-350 3559.62,-350 3559.62,-350 3565.62,-350 3571.62,-356 3571.62,-362 3571.62,-362 3571.62,-374 3571.62,-374 3571.62,-380 3565.62,-386 3559.62,-386"/>
<text text-anchor="middle" x="3528" y="-362.75" font-family="Arial" font-size="15.00">xcf_reader</text>
</g>
<!-- /test/file_xcf_test.dart&#45;&gt;/lib/files/xcf_reader.dart -->
<g id="edge6" class="edge">
<title>/test/file_xcf_test.dart&#45;&gt;/lib/files/xcf_reader.dart</title>
<path fill="none" stroke="#aabbaa" stroke-width="1.3" stroke-opacity="0.533333" d="M1200.87,-745.69C1211.35,-736.75 1225.39,-726.74 1240,-722 1252.46,-717.96 3116.57,-723.09 3126,-714 3164.44,-676.97 3131,-647.38 3131,-594 3131,-594 3131,-594 3131,-517 3131,-357.36 3336.97,-495.46 3476,-417 3486.48,-411.08 3496.56,-402.67 3505,-394.53"/>
<polygon fill="#aabbaa" fill-opacity="0.533333" stroke="#aabbaa" stroke-width="1.3" stroke-opacity="0.533333" points="3507.24,-397.24 3511.78,-387.67 3502.26,-392.32 3507.24,-397.24"/>
</g>
<!-- /lib/files/assets_helper.dart -->
<g id="node30" class="node">
<title>/lib/files/assets_helper.dart</title>
<path fill="Lavender" stroke="black" stroke-width="1.3" d="M2873.5,-386C2873.5,-386 2788.5,-386 2788.5,-386 2782.5,-386 2776.5,-380 2776.5,-374 2776.5,-374 2776.5,-362 2776.5,-362 2776.5,-356 2782.5,-350 2788.5,-350 2788.5,-350 2873.5,-350 2873.5,-350 2879.5,-350 2885.5,-356 2885.5,-362 2885.5,-362 2885.5,-374 2885.5,-374 2885.5,-380 2879.5,-386 2873.5,-386"/>
<text text-anchor="middle" x="2831" y="-362.75" font-family="Arial" font-size="15.00">assets_helper</text>
</g>
<!-- /test/file_xcf_test.dart&#45;&gt;/lib/files/assets_helper.dart -->
<g id="edge5" class="edge">
<title>/test/file_xcf_test.dart&#45;&gt;/lib/files/assets_helper.dart</title>
<path fill="none" stroke="#aabbaa" stroke-width="1.3" stroke-opacity="0.533333" d="M1161.99,-745.58C1150.99,-737.29 1136.94,-727.91 1123,-722 1106.71,-715.1 1095.47,-727.48 1084,-714 1049.41,-673.35 1079,-647.38 1079,-594 1079,-594 1079,-594 1079,-517 1079,-422.54 1400.13,-435.58 1494,-425 1529.06,-421.05 2730.45,-427.9 2764,-417 2778.67,-412.24 2792.87,-402.97 2804.39,-393.84"/>
<polygon fill="#aabbaa" fill-opacity="0.533333" stroke="#aabbaa" stroke-width="1.3" stroke-opacity="0.533333" points="2806.46,-396.67 2811.88,-387.57 2801.97,-391.31 2806.46,-396.67"/>
</g>
<!-- /test/layers_test.dart -->
<g id="node6" class="node">
<title>/test/layers_test.dart</title>
<path fill="Lavender" stroke="black" stroke-width="1.3" d="M971.38,-782C971.38,-782 906.62,-782 906.62,-782 900.62,-782 894.62,-776 894.62,-770 894.62,-770 894.62,-758 894.62,-758 894.62,-752 900.62,-746 906.62,-746 906.62,-746 971.38,-746 971.38,-746 977.38,-746 983.38,-752 983.38,-758 983.38,-758 983.38,-770 983.38,-770 983.38,-776 977.38,-782 971.38,-782"/>
<text text-anchor="middle" x="939" y="-758.75" font-family="Arial" font-size="15.00">layers_test</text>
</g>
<!-- /lib/models/layer.dart -->
<g id="node27" class="node">
<title>/lib/models/layer.dart</title>
<path fill="Lavender" stroke="black" stroke-width="1.3" d="M2511,-303C2511,-303 2481,-303 2481,-303 2475,-303 2469,-297 2469,-291 2469,-291 2469,-279 2469,-279 2469,-273 2475,-267 2481,-267 2481,-267 2511,-267 2511,-267 2517,-267 2523,-273 2523,-279 2523,-279 2523,-291 2523,-291 2523,-297 2517,-303 2511,-303"/>
<text text-anchor="middle" x="2496" y="-279.75" font-family="Arial" font-size="15.00">layer</text>
</g>
<!-- /test/layers_test.dart&#45;&gt;/lib/models/layer.dart -->
<g id="edge7" class="edge">
<title>/test/layers_test.dart&#45;&gt;/lib/models/layer.dart</title>
<path fill="none" stroke="#aabbaa" stroke-width="1.3" stroke-opacity="0.533333" d="M922.14,-745.63C912.87,-737.14 900.69,-727.57 888,-722 712.86,-645.21 37,-785.24 37,-594 37,-594 37,-594 37,-442 37,-360.87 1412.93,-345.14 1494,-342 1543.58,-340.08 2338.5,-344.43 2387,-334 2411.85,-328.66 2437.96,-317.38 2458.4,-307.1"/>
<polygon fill="#aabbaa" fill-opacity="0.533333" stroke="#aabbaa" stroke-width="1.3" stroke-opacity="0.533333" points="2459.81,-310.31 2467.08,-302.6 2456.59,-304.09 2459.81,-310.31"/>
</g>
<!-- /lib/panels/about.dart -->
<g id="node7" class="node">
<title>/lib/panels/about.dart</title>
<path fill="Lavender" stroke="black" stroke-width="1.3" d="M2363,-386C2363,-386 2333,-386 2333,-386 2327,-386 2321,-380 2321,-374 2321,-374 2321,-362 2321,-362 2321,-356 2327,-350 2333,-350 2333,-350 2363,-350 2363,-350 2369,-350 2375,-356 2375,-362 2375,-362 2375,-374 2375,-374 2375,-380 2369,-386 2363,-386"/>
<text text-anchor="middle" x="2348" y="-362.75" font-family="Arial" font-size="15.00">about</text>
</g>
<!-- /lib/panels/tools/tool_selector.dart -->
<g id="node8" class="node">
<title>/lib/panels/tools/tool_selector.dart</title>
<path fill="Lavender" stroke="black" stroke-width="1.3" d="M1594.38,-386C1594.38,-386 1517.62,-386 1517.62,-386 1511.62,-386 1505.62,-380 1505.62,-374 1505.62,-374 1505.62,-362 1505.62,-362 1505.62,-356 1511.62,-350 1517.62,-350 1517.62,-350 1594.38,-350 1594.38,-350 1600.38,-350 1606.38,-356 1606.38,-362 1606.38,-362 1606.38,-374 1606.38,-374 1606.38,-380 1600.38,-386 1594.38,-386"/>
<text text-anchor="middle" x="1556" y="-362.75" font-family="Arial" font-size="15.00">tool_selector</text>
</g>
<!-- /lib/panels/tools/tools_panel.dart -->
<g id="node10" class="node">
<title>/lib/panels/tools/tools_panel.dart</title>
<path fill="Lavender" stroke="black" stroke-width="1.3" d="M1673.88,-461C1673.88,-461 1606.12,-461 1606.12,-461 1600.12,-461 1594.12,-455 1594.12,-449 1594.12,-449 1594.12,-437 1594.12,-437 1594.12,-431 1600.12,-425 1606.12,-425 1606.12,-425 1673.88,-425 1673.88,-425 1679.88,-425 1685.88,-431 1685.88,-437 1685.88,-437 1685.88,-449 1685.88,-449 1685.88,-455 1679.88,-461 1673.88,-461"/>
<text text-anchor="middle" x="1640" y="-437.75" font-family="Arial" font-size="15.00">tools_panel</text>
</g>
<!-- /lib/panels/tools/tools_panel.dart&#45;&gt;/lib/panels/tools/tool_selector.dart -->
<g id="edge10" class="edge">
<title>/lib/panels/tools/tools_panel.dart&#45;&gt;/lib/panels/tools/tool_selector.dart</title>
<path fill="none" stroke="#aabbaa" stroke-width="1.3" stroke-opacity="0.533333" d="M1620.09,-424.7C1609.6,-415.58 1596.54,-404.24 1584.96,-394.16"/>
<polygon fill="#aabbaa" fill-opacity="0.533333" stroke="#aabbaa" stroke-width="1.3" stroke-opacity="0.533333" points="1587.38,-391.64 1577.54,-387.72 1582.79,-396.92 1587.38,-391.64"/>
</g>
<!-- /lib/panels/tools/tool_attributes_widget.dart -->
<g id="node11" class="node">
<title>/lib/panels/tools/tool_attributes_widget.dart</title>
<path fill="Lavender" stroke="black" stroke-width="1.3" d="M1773.75,-386C1773.75,-386 1636.25,-386 1636.25,-386 1630.25,-386 1624.25,-380 1624.25,-374 1624.25,-374 1624.25,-362 1624.25,-362 1624.25,-356 1630.25,-350 1636.25,-350 1636.25,-350 1773.75,-350 1773.75,-350 1779.75,-350 1785.75,-356 1785.75,-362 1785.75,-362 1785.75,-374 1785.75,-374 1785.75,-380 1779.75,-386 1773.75,-386"/>
<text text-anchor="middle" x="1705" y="-362.75" font-family="Arial" font-size="15.00">tool_attributes_widget</text>
</g>
<!-- /lib/panels/tools/tools_panel.dart&#45;&gt;/lib/panels/tools/tool_attributes_widget.dart -->
<g id="edge9" class="edge">
<title>/lib/panels/tools/tools_panel.dart&#45;&gt;/lib/panels/tools/tool_attributes_widget.dart</title>
<path fill="none" stroke="#aabbaa" stroke-width="1.3" stroke-opacity="0.533333" d="M1655.4,-424.7C1663.2,-415.95 1672.83,-405.13 1681.52,-395.37"/>
<polygon fill="#aabbaa" fill-opacity="0.533333" stroke="#aabbaa" stroke-width="1.3" stroke-opacity="0.533333" points="1684.14,-397.69 1688.17,-387.9 1678.91,-393.04 1684.14,-397.69"/>
</g>
<!-- /lib/panels/tools/tools_panel.dart&#45;&gt;/lib/models/app_model.dart -->
<g id="edge8" class="edge">
<title>/lib/panels/tools/tools_panel.dart&#45;&gt;/lib/models/app_model.dart</title>
<path fill="none" stroke="#aabbaa" stroke-width="1.3" stroke-opacity="0.533333" d="M1686.22,-435.83C1717.67,-431.93 1760.27,-427.21 1798,-425 1809.04,-424.35 2585.18,-423.66 2594,-417 2624.69,-393.82 2631.97,-287.85 2643,-251 2645.68,-242.03 2648.64,-232.27 2651.32,-223.44"/>
<polygon fill="#aabbaa" fill-opacity="0.533333" stroke="#aabbaa" stroke-width="1.3" stroke-opacity="0.533333" points="2654.62,-224.61 2654.18,-214.03 2647.92,-222.58 2654.62,-224.61"/>
</g>
<!-- /lib/widgets/svg_icon.dart -->
<g id="node43" class="node">
<title>/lib/widgets/svg_icon.dart</title>
<path fill="Lavender" stroke="black" stroke-width="1.3" d="M158.25,-303C158.25,-303 107.75,-303 107.75,-303 101.75,-303 95.75,-297 95.75,-291 95.75,-291 95.75,-279 95.75,-279 95.75,-273 101.75,-267 107.75,-267 107.75,-267 158.25,-267 158.25,-267 164.25,-267 170.25,-273 170.25,-279 170.25,-279 170.25,-291 170.25,-291 170.25,-297 164.25,-303 158.25,-303"/>
<text text-anchor="middle" x="133" y="-279.75" font-family="Arial" font-size="15.00">svg_icon</text>
</g>
<!-- /lib/panels/tools/tools_panel.dart&#45;&gt;/lib/widgets/svg_icon.dart -->
<g id="edge14" class="edge">
<title>/lib/panels/tools/tools_panel.dart&#45;&gt;/lib/widgets/svg_icon.dart</title>
<path fill="none" stroke="#aabbaa" stroke-width="1.3" stroke-opacity="0.533333" d="M1593.71,-426.68C1590.78,-426.02 1587.86,-425.45 1585,-425 1469.1,-406.6 1173.32,-432.5 1057,-417 923.33,-399.19 896.68,-359.71 763,-342 730.83,-337.74 208.76,-346.94 179,-334 168.27,-329.34 158.83,-320.84 151.34,-312.28"/>
<polygon fill="#aabbaa" fill-opacity="0.533333" stroke="#aabbaa" stroke-width="1.3" stroke-opacity="0.533333" points="154.22,-310.29 145.23,-304.68 148.76,-314.67 154.22,-310.29"/>
</g>
<!-- /lib/widgets/brush_size_picker.dart -->
<g id="node46" class="node">
<title>/lib/widgets/brush_size_picker.dart</title>
<path fill="Lavender" stroke="black" stroke-width="1.3" d="M893,-303C893,-303 781,-303 781,-303 775,-303 769,-297 769,-291 769,-291 769,-279 769,-279 769,-273 775,-267 781,-267 781,-267 893,-267 893,-267 899,-267 905,-273 905,-279 905,-279 905,-291 905,-291 905,-297 899,-303 893,-303"/>
<text text-anchor="middle" x="837" y="-279.75" font-family="Arial" font-size="15.00">brush_size_picker</text>
</g>
<!-- /lib/panels/tools/tools_panel.dart&#45;&gt;/lib/widgets/brush_size_picker.dart -->
<g id="edge11" class="edge">
<title>/lib/panels/tools/tools_panel.dart&#45;&gt;/lib/widgets/brush_size_picker.dart</title>
<path fill="none" stroke="#aabbaa" stroke-width="1.3" stroke-opacity="0.533333" d="M1593.71,-426.69C1590.78,-426.04 1587.86,-425.46 1585,-425 1539.8,-417.72 1216.79,-430.39 1173,-417 1114.29,-399.05 1115.37,-361.02 1057,-342 996.48,-322.28 974.69,-353.22 914,-334 897.72,-328.85 881.43,-319.45 868.05,-310.33"/>
<polygon fill="#aabbaa" fill-opacity="0.533333" stroke="#aabbaa" stroke-width="1.3" stroke-opacity="0.533333" points="870.21,-307.58 860.04,-304.63 866.15,-313.28 870.21,-307.58"/>
</g>
<!-- /lib/widgets/tolerance_picker.dart -->
<g id="node48" class="node">
<title>/lib/widgets/tolerance_picker.dart</title>
<path fill="Lavender" stroke="black" stroke-width="1.3" d="M1036.75,-303C1036.75,-303 935.25,-303 935.25,-303 929.25,-303 923.25,-297 923.25,-291 923.25,-291 923.25,-279 923.25,-279 923.25,-273 929.25,-267 935.25,-267 935.25,-267 1036.75,-267 1036.75,-267 1042.75,-267 1048.75,-273 1048.75,-279 1048.75,-279 1048.75,-291 1048.75,-291 1048.75,-297 1042.75,-303 1036.75,-303"/>
<text text-anchor="middle" x="986" y="-279.75" font-family="Arial" font-size="15.00">tolerance_picker</text>
</g>
<!-- /lib/panels/tools/tools_panel.dart&#45;&gt;/lib/widgets/tolerance_picker.dart -->
<g id="edge15" class="edge">
<title>/lib/panels/tools/tools_panel.dart&#45;&gt;/lib/widgets/tolerance_picker.dart</title>
<path fill="none" stroke="#aabbaa" stroke-width="1.3" stroke-opacity="0.533333" d="M1593.66,-426.93C1590.75,-426.22 1587.84,-425.56 1585,-425 1546.47,-417.38 1535.78,-423.22 1497,-417 1351.06,-393.59 1319.18,-363.86 1173,-342 1122.33,-334.42 1106.49,-350.54 1058,-334 1042.74,-328.8 1027.62,-319.52 1015.21,-310.5"/>
<polygon fill="#aabbaa" fill-opacity="0.533333" stroke="#aabbaa" stroke-width="1.3" stroke-opacity="0.533333" points="1017.53,-307.87 1007.45,-304.6 1013.29,-313.44 1017.53,-307.87"/>
</g>
<!-- /lib/widgets/color_preview.dart -->
<g id="node50" class="node">
<title>/lib/widgets/color_preview.dart</title>
<path fill="Lavender" stroke="black" stroke-width="1.3" d="M226.75,-140C226.75,-140 143.25,-140 143.25,-140 137.25,-140 131.25,-134 131.25,-128 131.25,-128 131.25,-116 131.25,-116 131.25,-110 137.25,-104 143.25,-104 143.25,-104 226.75,-104 226.75,-104 232.75,-104 238.75,-110 238.75,-116 238.75,-116 238.75,-128 238.75,-128 238.75,-134 232.75,-140 226.75,-140"/>
<text text-anchor="middle" x="185" y="-116.75" font-family="Arial" font-size="15.00">color_preview</text>
</g>
<!-- /lib/panels/tools/tools_panel.dart&#45;&gt;/lib/widgets/color_preview.dart -->
<g id="edge12" class="edge">
<title>/lib/panels/tools/tools_panel.dart&#45;&gt;/lib/widgets/color_preview.dart</title>
<path fill="none" stroke="#aabbaa" stroke-width="1.3" stroke-opacity="0.533333" d="M1593.71,-426.64C1590.79,-426 1587.86,-425.44 1585,-425 1564.09,-421.79 78.12,-430.7 62,-417 5.59,-369.05 18.51,-318.91 48,-251 67.68,-205.68 112.19,-169.1 145.16,-146.83"/>
<polygon fill="#aabbaa" fill-opacity="0.533333" stroke="#aabbaa" stroke-width="1.3" stroke-opacity="0.533333" points="146.9,-149.88 153.34,-141.46 143.06,-144.02 146.9,-149.88"/>
</g>
<!-- /lib/widgets/top_colors.dart -->
<g id="node51" class="node">
<title>/lib/widgets/top_colors.dart</title>
<path fill="Lavender" stroke="black" stroke-width="1.3" d="M254.5,-212C254.5,-212 193.5,-212 193.5,-212 187.5,-212 181.5,-206 181.5,-200 181.5,-200 181.5,-188 181.5,-188 181.5,-182 187.5,-176 193.5,-176 193.5,-176 254.5,-176 254.5,-176 260.5,-176 266.5,-182 266.5,-188 266.5,-188 266.5,-200 266.5,-200 266.5,-206 260.5,-212 254.5,-212"/>
<text text-anchor="middle" x="224" y="-188.75" font-family="Arial" font-size="15.00">top_colors</text>
</g>
<!-- /lib/panels/tools/tools_panel.dart&#45;&gt;/lib/widgets/top_colors.dart -->
<g id="edge16" class="edge">
<title>/lib/panels/tools/tools_panel.dart&#45;&gt;/lib/widgets/top_colors.dart</title>
<path fill="none" stroke="#aabbaa" stroke-width="1.3" stroke-opacity="0.533333" d="M1593.71,-426.64C1590.79,-426 1587.86,-425.44 1585,-425 1564.5,-421.85 108.81,-429.14 92,-417 60.44,-394.21 70.31,-372.42 64,-334 58.03,-297.6 39.38,-278.47 64,-251 74.89,-238.85 121.44,-247.93 137,-243 155.04,-237.29 173.59,-227.66 188.91,-218.52"/>
<polygon fill="#aabbaa" fill-opacity="0.533333" stroke="#aabbaa" stroke-width="1.3" stroke-opacity="0.533333" points="190.6,-221.59 197.27,-213.35 186.92,-215.63 190.6,-221.59"/>
</g>
<!-- /lib/widgets/color_selector.dart -->
<g id="node53" class="node">
<title>/lib/widgets/color_selector.dart</title>
<path fill="Lavender" stroke="black" stroke-width="1.3" d="M402.5,-212C402.5,-212 317.5,-212 317.5,-212 311.5,-212 305.5,-206 305.5,-200 305.5,-200 305.5,-188 305.5,-188 305.5,-182 311.5,-176 317.5,-176 317.5,-176 402.5,-176 402.5,-176 408.5,-176 414.5,-182 414.5,-188 414.5,-188 414.5,-200 414.5,-200 414.5,-206 408.5,-212 402.5,-212"/>
<text text-anchor="middle" x="360" y="-188.75" font-family="Arial" font-size="15.00">color_selector</text>
</g>
<!-- /lib/panels/tools/tools_panel.dart&#45;&gt;/lib/widgets/color_selector.dart -->
<g id="edge13" class="edge">
<title>/lib/panels/tools/tools_panel.dart&#45;&gt;/lib/widgets/color_selector.dart</title>
<path fill="none" stroke="#aabbaa" stroke-width="1.3" stroke-opacity="0.533333" d="M1593.71,-426.66C1590.78,-426.01 1587.86,-425.45 1585,-425 1494.75,-410.92 854.14,-423.02 763,-417 611.98,-407.03 187.29,-447.35 87,-334 62.56,-306.37 61.47,-277.63 87,-251 101.54,-235.83 255.8,-248.82 276,-243 293.96,-237.82 312.19,-228.07 327.05,-218.7"/>
<polygon fill="#aabbaa" fill-opacity="0.533333" stroke="#aabbaa" stroke-width="1.3" stroke-opacity="0.533333" points="328.66,-221.83 335.11,-213.42 324.83,-215.97 328.66,-221.83"/>
</g>
<!-- /lib/panels/canvas_panel.dart -->
<g id="node12" class="node">
<title>/lib/panels/canvas_panel.dart</title>
<path fill="Lavender" stroke="black" stroke-width="1.3" d="M2227.75,-303C2227.75,-303 2144.25,-303 2144.25,-303 2138.25,-303 2132.25,-297 2132.25,-291 2132.25,-291 2132.25,-279 2132.25,-279 2132.25,-273 2138.25,-267 2144.25,-267 2144.25,-267 2227.75,-267 2227.75,-267 2233.75,-267 2239.75,-273 2239.75,-279 2239.75,-279 2239.75,-291 2239.75,-291 2239.75,-297 2233.75,-303 2227.75,-303"/>
<text text-anchor="middle" x="2186" y="-279.75" font-family="Arial" font-size="15.00">canvas_panel</text>
</g>
<!-- /lib/panels/canvas_panel.dart&#45;&gt;/lib/models/app_model.dart -->
<g id="edge17" class="edge">
<title>/lib/panels/canvas_panel.dart&#45;&gt;/lib/models/app_model.dart</title>
<path fill="none" stroke="#aabbaa" stroke-width="1.3" stroke-opacity="0.533333" d="M2240.07,-266.7C2261.6,-260.58 2286.74,-254.39 2310,-251 2340.36,-246.58 2556.71,-252.13 2586,-243 2601.96,-238.02 2617.77,-228.56 2630.65,-219.35"/>
<polygon fill="#aabbaa" fill-opacity="0.533333" stroke="#aabbaa" stroke-width="1.3" stroke-opacity="0.533333" points="2632.4,-222.4 2638.3,-213.61 2628.2,-216.8 2632.4,-222.4"/>
</g>
<!-- /lib/widgets/transparent_background.dart -->
<g id="node47" class="node">
<title>/lib/widgets/transparent_background.dart</title>
<path fill="Lavender" stroke="black" stroke-width="1.3" d="M289.38,-68C289.38,-68 134.62,-68 134.62,-68 128.62,-68 122.62,-62 122.62,-56 122.62,-56 122.62,-44 122.62,-44 122.62,-38 128.62,-32 134.62,-32 134.62,-32 289.38,-32 289.38,-32 295.38,-32 301.38,-38 301.38,-44 301.38,-44 301.38,-56 301.38,-56 301.38,-62 295.38,-68 289.38,-68"/>
<text text-anchor="middle" x="212" y="-44.75" font-family="Arial" font-size="15.00">transparent_background</text>
</g>
<!-- /lib/panels/canvas_panel.dart&#45;&gt;/lib/widgets/transparent_background.dart -->
<g id="edge18" class="edge">
<title>/lib/panels/canvas_panel.dart&#45;&gt;/lib/widgets/transparent_background.dart</title>
<path fill="none" stroke="#aabbaa" stroke-width="1.3" stroke-opacity="0.533333" d="M2131.89,-266.76C2109.57,-260.48 2083.29,-254.16 2059,-251 2033.02,-247.62 195.23,-256.86 173,-243 114.32,-206.4 85.64,-154.83 122,-96 127.41,-87.25 135.08,-80.15 143.7,-74.4"/>
<polygon fill="#aabbaa" fill-opacity="0.533333" stroke="#aabbaa" stroke-width="1.3" stroke-opacity="0.533333" points="145.23,-77.56 152.06,-69.46 141.67,-71.53 145.23,-77.56"/>
</g>
<!-- /lib/panels/layers/layer_selector.dart -->
<g id="node13" class="node">
<title>/lib/panels/layers/layer_selector.dart</title>
<path fill="Lavender" stroke="black" stroke-width="1.3" d="M1949.5,-386C1949.5,-386 1864.5,-386 1864.5,-386 1858.5,-386 1852.5,-380 1852.5,-374 1852.5,-374 1852.5,-362 1852.5,-362 1852.5,-356 1858.5,-350 1864.5,-350 1864.5,-350 1949.5,-350 1949.5,-350 1955.5,-350 1961.5,-356 1961.5,-362 1961.5,-362 1961.5,-374 1961.5,-374 1961.5,-380 1955.5,-386 1949.5,-386"/>
<text text-anchor="middle" x="1907" y="-362.75" font-family="Arial" font-size="15.00">layer_selector</text>
</g>
<!-- /lib/panels/layers/layer_thumbnail.dart -->
<g id="node15" class="node">
<title>/lib/panels/layers/layer_thumbnail.dart</title>
<path fill="Lavender" stroke="black" stroke-width="1.3" d="M1919.5,-303C1919.5,-303 1822.5,-303 1822.5,-303 1816.5,-303 1810.5,-297 1810.5,-291 1810.5,-291 1810.5,-279 1810.5,-279 1810.5,-273 1816.5,-267 1822.5,-267 1822.5,-267 1919.5,-267 1919.5,-267 1925.5,-267 1931.5,-273 1931.5,-279 1931.5,-279 1931.5,-291 1931.5,-291 1931.5,-297 1925.5,-303 1919.5,-303"/>
<text text-anchor="middle" x="1871" y="-279.75" font-family="Arial" font-size="15.00">layer_thumbnail</text>
</g>
<!-- /lib/panels/layers/layer_selector.dart&#45;&gt;/lib/panels/layers/layer_thumbnail.dart -->
<g id="edge21" class="edge">
<title>/lib/panels/layers/layer_selector.dart&#45;&gt;/lib/panels/layers/layer_thumbnail.dart</title>
<path fill="none" stroke="#aabbaa" stroke-width="1.3" stroke-opacity="0.533333" d="M1899.37,-349.82C1894.77,-339.48 1888.8,-326.05 1883.52,-314.18"/>
<polygon fill="#aabbaa" fill-opacity="0.533333" stroke="#aabbaa" stroke-width="1.3" stroke-opacity="0.533333" points="1886.81,-312.95 1879.55,-305.23 1880.41,-315.79 1886.81,-312.95"/>
</g>
<!-- /lib/panels/layers/blend_mode.dart -->
<g id="node16" class="node">
<title>/lib/panels/layers/blend_mode.dart</title>
<path fill="Lavender" stroke="black" stroke-width="1.3" d="M2034.88,-303C2034.88,-303 1961.12,-303 1961.12,-303 1955.12,-303 1949.12,-297 1949.12,-291 1949.12,-291 1949.12,-279 1949.12,-279 1949.12,-273 1955.12,-267 1961.12,-267 1961.12,-267 2034.88,-267 2034.88,-267 2040.88,-267 2046.88,-273 2046.88,-279 2046.88,-279 2046.88,-291 2046.88,-291 2046.88,-297 2040.88,-303 2034.88,-303"/>
<text text-anchor="middle" x="1998" y="-279.75" font-family="Arial" font-size="15.00">blend_mode</text>
</g>
<!-- /lib/panels/layers/layer_selector.dart&#45;&gt;/lib/panels/layers/blend_mode.dart -->
<g id="edge20" class="edge">
<title>/lib/panels/layers/layer_selector.dart&#45;&gt;/lib/panels/layers/blend_mode.dart</title>
<path fill="none" stroke="#aabbaa" stroke-width="1.3" stroke-opacity="0.533333" d="M1926.3,-349.82C1938.88,-338.62 1955.52,-323.81 1969.6,-311.28"/>
<polygon fill="#aabbaa" fill-opacity="0.533333" stroke="#aabbaa" stroke-width="1.3" stroke-opacity="0.533333" points="1971.8,-314 1976.95,-304.74 1967.15,-308.78 1971.8,-314"/>
</g>
<!-- /lib/panels/layers/layer_selector.dart&#45;&gt;/lib/models/app_model.dart -->
<g id="edge19" class="edge">
<title>/lib/panels/layers/layer_selector.dart&#45;&gt;/lib/models/app_model.dart</title>
<path fill="none" stroke="#aabbaa" stroke-width="1.3" stroke-opacity="0.533333" d="M1942.17,-349.56C1949.85,-346.48 1958.06,-343.71 1966,-342 1984.69,-337.98 2295.85,-346.85 2310,-334 2337.51,-309.03 2292.57,-276.07 2320,-251 2330.91,-241.03 2571.89,-247.41 2586,-243 2601.96,-238.02 2617.76,-228.55 2630.64,-219.34"/>
<polygon fill="#aabbaa" fill-opacity="0.533333" stroke="#aabbaa" stroke-width="1.3" stroke-opacity="0.533333" points="2632.4,-222.4 2638.3,-213.6 2628.2,-216.79 2632.4,-222.4"/>
</g>
<!-- /lib/widgets/truncated_text.dart -->
<g id="node44" class="node">
<title>/lib/widgets/truncated_text.dart</title>
<path fill="Lavender" stroke="black" stroke-width="1.3" d="M1167,-303C1167,-303 1079,-303 1079,-303 1073,-303 1067,-297 1067,-291 1067,-291 1067,-279 1067,-279 1067,-273 1073,-267 1079,-267 1079,-267 1167,-267 1167,-267 1173,-267 1179,-273 1179,-279 1179,-279 1179,-291 1179,-291 1179,-297 1173,-303 1167,-303"/>
<text text-anchor="middle" x="1123" y="-279.75" font-family="Arial" font-size="15.00">truncated_text</text>
</g>
<!-- /lib/panels/layers/layer_selector.dart&#45;&gt;/lib/widgets/truncated_text.dart -->
<g id="edge23" class="edge">
<title>/lib/panels/layers/layer_selector.dart&#45;&gt;/lib/widgets/truncated_text.dart</title>
<path fill="none" stroke="#aabbaa" stroke-width="1.3" stroke-opacity="0.533333" d="M1852.23,-352.05C1835.01,-347.99 1815.83,-344.14 1798,-342 1764.4,-337.97 1221.11,-344.67 1189,-334 1174.5,-329.18 1160.51,-319.91 1149.17,-310.79"/>
<polygon fill="#aabbaa" fill-opacity="0.533333" stroke="#aabbaa" stroke-width="1.3" stroke-opacity="0.533333" points="1151.7,-308.34 1141.81,-304.54 1147.17,-313.68 1151.7,-308.34"/>
</g>
<!-- /lib/widgets/container_slider.dart -->
<g id="node45" class="node">
<title>/lib/widgets/container_slider.dart</title>
<path fill="Lavender" stroke="black" stroke-width="1.3" d="M1306.5,-303C1306.5,-303 1209.5,-303 1209.5,-303 1203.5,-303 1197.5,-297 1197.5,-291 1197.5,-291 1197.5,-279 1197.5,-279 1197.5,-273 1203.5,-267 1209.5,-267 1209.5,-267 1306.5,-267 1306.5,-267 1312.5,-267 1318.5,-273 1318.5,-279 1318.5,-279 1318.5,-291 1318.5,-291 1318.5,-297 1312.5,-303 1306.5,-303"/>
<text text-anchor="middle" x="1258" y="-279.75" font-family="Arial" font-size="15.00">container_slider</text>
</g>
<!-- /lib/panels/layers/layer_selector.dart&#45;&gt;/lib/widgets/container_slider.dart -->
<g id="edge22" class="edge">
<title>/lib/panels/layers/layer_selector.dart&#45;&gt;/lib/widgets/container_slider.dart</title>
<path fill="none" stroke="#aabbaa" stroke-width="1.3" stroke-opacity="0.533333" d="M1852.22,-352.09C1835,-348.04 1815.83,-344.17 1798,-342 1746.04,-335.67 1376.81,-350.09 1327,-334 1312.14,-329.2 1297.64,-320.02 1285.8,-310.97"/>
<polygon fill="#aabbaa" fill-opacity="0.533333" stroke="#aabbaa" stroke-width="1.3" stroke-opacity="0.533333" points="1288.05,-308.28 1278.07,-304.73 1283.65,-313.73 1288.05,-308.28"/>
</g>
<!-- /lib/panels/layers/top_menu_and_layers_panel.dart -->
<g id="node14" class="node">
<title>/lib/panels/layers/top_menu_and_layers_panel.dart</title>
<path fill="Lavender" stroke="black" stroke-width="1.3" d="M2035,-461C2035,-461 1851,-461 1851,-461 1845,-461 1839,-455 1839,-449 1839,-449 1839,-437 1839,-437 1839,-431 1845,-425 1851,-425 1851,-425 2035,-425 2035,-425 2041,-425 2047,-431 2047,-437 2047,-437 2047,-449 2047,-449 2047,-455 2041,-461 2035,-461"/>
<text text-anchor="middle" x="1943" y="-437.75" font-family="Arial" font-size="15.00">top_menu_and_layers_panel</text>
</g>
<!-- /lib/panels/layers/top_menu_and_layers_panel.dart&#45;&gt;/lib/panels/about.dart -->
<g id="edge28" class="edge">
<title>/lib/panels/layers/top_menu_and_layers_panel.dart&#45;&gt;/lib/panels/about.dart</title>
<path fill="none" stroke="#aabbaa" stroke-width="1.3" stroke-opacity="0.533333" d="M2047.41,-439.35C2148.32,-436.08 2289.22,-429.37 2312,-417 2320.75,-412.25 2327.99,-404.35 2333.62,-396.31"/>
<polygon fill="#aabbaa" fill-opacity="0.533333" stroke="#aabbaa" stroke-width="1.3" stroke-opacity="0.533333" points="2336.51,-398.3 2338.85,-387.96 2330.58,-394.58 2336.51,-398.3"/>
</g>
<!-- /lib/panels/layers/top_menu_and_layers_panel.dart&#45;&gt;/lib/panels/layers/layer_selector.dart -->
<g id="edge30" class="edge">
<title>/lib/panels/layers/top_menu_and_layers_panel.dart&#45;&gt;/lib/panels/layers/layer_selector.dart</title>
<path fill="none" stroke="#aabbaa" stroke-width="1.3" stroke-opacity="0.533333" d="M1934.47,-424.7C1930.37,-416.4 1925.37,-406.24 1920.75,-396.88"/>
<polygon fill="#aabbaa" fill-opacity="0.533333" stroke="#aabbaa" stroke-width="1.3" stroke-opacity="0.533333" points="1924.03,-395.61 1916.47,-388.19 1917.75,-398.71 1924.03,-395.61"/>
</g>
<!-- /lib/panels/share_panel.dart -->
<g id="node18" class="node">
<title>/lib/panels/share_panel.dart</title>
<path fill="Lavender" stroke="black" stroke-width="1.3" d="M2290.88,-386C2290.88,-386 2217.12,-386 2217.12,-386 2211.12,-386 2205.12,-380 2205.12,-374 2205.12,-374 2205.12,-362 2205.12,-362 2205.12,-356 2211.12,-350 2217.12,-350 2217.12,-350 2290.88,-350 2290.88,-350 2296.88,-350 2302.88,-356 2302.88,-362 2302.88,-362 2302.88,-374 2302.88,-374 2302.88,-380 2296.88,-386 2290.88,-386"/>
<text text-anchor="middle" x="2254" y="-362.75" font-family="Arial" font-size="15.00">share_panel</text>
</g>
<!-- /lib/panels/layers/top_menu_and_layers_panel.dart&#45;&gt;/lib/panels/share_panel.dart -->
<g id="edge31" class="edge">
<title>/lib/panels/layers/top_menu_and_layers_panel.dart&#45;&gt;/lib/panels/share_panel.dart</title>
<path fill="none" stroke="#aabbaa" stroke-width="1.3" stroke-opacity="0.533333" d="M2047.29,-437.81C2104.69,-434.31 2169.52,-428.04 2196,-417 2208.43,-411.82 2220.26,-403.03 2229.95,-394.38"/>
<polygon fill="#aabbaa" fill-opacity="0.533333" stroke="#aabbaa" stroke-width="1.3" stroke-opacity="0.533333" points="2232.25,-397.02 2237.1,-387.6 2227.43,-391.93 2232.25,-397.02"/>
</g>
<!-- /lib/panels/canvas_settings.dart -->
<g id="node19" class="node">
<title>/lib/panels/canvas_settings.dart</title>
<path fill="Lavender" stroke="black" stroke-width="1.3" d="M2174.62,-386C2174.62,-386 2075.38,-386 2075.38,-386 2069.38,-386 2063.38,-380 2063.38,-374 2063.38,-374 2063.38,-362 2063.38,-362 2063.38,-356 2069.38,-350 2075.38,-350 2075.38,-350 2174.62,-350 2174.62,-350 2180.62,-350 2186.62,-356 2186.62,-362 2186.62,-362 2186.62,-374 2186.62,-374 2186.62,-380 2180.62,-386 2174.62,-386"/>
<text text-anchor="middle" x="2125" y="-362.75" font-family="Arial" font-size="15.00">canvas_settings</text>
</g>
<!-- /lib/panels/layers/top_menu_and_layers_panel.dart&#45;&gt;/lib/panels/canvas_settings.dart -->
<g id="edge29" class="edge">
<title>/lib/panels/layers/top_menu_and_layers_panel.dart&#45;&gt;/lib/panels/canvas_settings.dart</title>
<path fill="none" stroke="#aabbaa" stroke-width="1.3" stroke-opacity="0.533333" d="M2039.28,-424.56C2046.06,-422.33 2052.7,-419.82 2059,-417 2072.3,-411.05 2085.57,-402.13 2096.69,-393.59"/>
<polygon fill="#aabbaa" fill-opacity="0.533333" stroke="#aabbaa" stroke-width="1.3" stroke-opacity="0.533333" points="2098.69,-396.47 2104.31,-387.5 2094.31,-391.01 2098.69,-396.47"/>
</g>
<!-- /lib/models/menu_model.dart -->
<g id="node20" class="node">
<title>/lib/models/menu_model.dart</title>
<path fill="Lavender" stroke="black" stroke-width="1.3" d="M2489.12,-386C2489.12,-386 2410.88,-386 2410.88,-386 2404.88,-386 2398.88,-380 2398.88,-374 2398.88,-374 2398.88,-362 2398.88,-362 2398.88,-356 2404.88,-350 2410.88,-350 2410.88,-350 2489.12,-350 2489.12,-350 2495.12,-350 2501.12,-356 2501.12,-362 2501.12,-362 2501.12,-374 2501.12,-374 2501.12,-380 2495.12,-386 2489.12,-386"/>
<text text-anchor="middle" x="2450" y="-362.75" font-family="Arial" font-size="15.00">menu_model</text>
</g>
<!-- /lib/panels/layers/top_menu_and_layers_panel.dart&#45;&gt;/lib/models/menu_model.dart -->
<g id="edge27" class="edge">
<title>/lib/panels/layers/top_menu_and_layers_panel.dart&#45;&gt;/lib/models/menu_model.dart</title>
<path fill="none" stroke="#aabbaa" stroke-width="1.3" stroke-opacity="0.533333" d="M2047.37,-439.33C2168.61,-435.73 2356.06,-428.42 2387,-417 2400.57,-411.99 2413.62,-402.99 2424.3,-394.13"/>
<polygon fill="#aabbaa" fill-opacity="0.533333" stroke="#aabbaa" stroke-width="1.3" stroke-opacity="0.533333" points="2426.33,-397.01 2431.53,-387.78 2421.71,-391.75 2426.33,-397.01"/>
</g>
<!-- /lib/panels/layers/top_menu_and_layers_panel.dart&#45;&gt;/lib/models/app_model.dart -->
<g id="edge26" class="edge">
<title>/lib/panels/layers/top_menu_and_layers_panel.dart&#45;&gt;/lib/models/app_model.dart</title>
<path fill="none" stroke="#aabbaa" stroke-width="1.3" stroke-opacity="0.533333" d="M2047.14,-441.67C2233.53,-440.59 2606.8,-436.05 2628,-417 2642.17,-404.27 2653.38,-281.27 2657.87,-224.03"/>
<polygon fill="#aabbaa" fill-opacity="0.533333" stroke="#aabbaa" stroke-width="1.3" stroke-opacity="0.533333" points="2661.35,-224.45 2658.62,-214.21 2654.37,-223.91 2661.35,-224.45"/>
</g>
<!-- /lib/files/save.dart -->
<g id="node34" class="node">
<title>/lib/files/save.dart</title>
<path fill="Lavender" stroke="black" stroke-width="1.3" d="M2946,-386C2946,-386 2916,-386 2916,-386 2910,-386 2904,-380 2904,-374 2904,-374 2904,-362 2904,-362 2904,-356 2910,-350 2916,-350 2916,-350 2946,-350 2946,-350 2952,-350 2958,-356 2958,-362 2958,-362 2958,-374 2958,-374 2958,-380 2952,-386 2946,-386"/>
<text text-anchor="middle" x="2931" y="-362.75" font-family="Arial" font-size="15.00">save</text>
</g>
<!-- /lib/panels/layers/top_menu_and_layers_panel.dart&#45;&gt;/lib/files/save.dart -->
<g id="edge25" class="edge">
<title>/lib/panels/layers/top_menu_and_layers_panel.dart&#45;&gt;/lib/files/save.dart</title>
<path fill="none" stroke="#aabbaa" stroke-width="1.3" stroke-opacity="0.533333" d="M2047.29,-425.32C2048.53,-425.21 2049.77,-425.1 2051,-425 2074.37,-423.06 2874.08,-427.58 2895,-417 2904.12,-412.39 2911.54,-404.26 2917.22,-395.99"/>
<polygon fill="#aabbaa" fill-opacity="0.533333" stroke="#aabbaa" stroke-width="1.3" stroke-opacity="0.533333" points="2920.03,-398.09 2922.26,-387.74 2914.06,-394.45 2920.03,-398.09"/>
</g>
<!-- /lib/files/import_files.dart -->
<g id="node36" class="node">
<title>/lib/files/import_files.dart</title>
<path fill="Lavender" stroke="black" stroke-width="1.3" d="M3056.25,-386C3056.25,-386 2987.75,-386 2987.75,-386 2981.75,-386 2975.75,-380 2975.75,-374 2975.75,-374 2975.75,-362 2975.75,-362 2975.75,-356 2981.75,-350 2987.75,-350 2987.75,-350 3056.25,-350 3056.25,-350 3062.25,-350 3068.25,-356 3068.25,-362 3068.25,-362 3068.25,-374 3068.25,-374 3068.25,-380 3062.25,-386 3056.25,-386"/>
<text text-anchor="middle" x="3022" y="-362.75" font-family="Arial" font-size="15.00">import_files</text>
</g>
<!-- /lib/panels/layers/top_menu_and_layers_panel.dart&#45;&gt;/lib/files/import_files.dart -->
<g id="edge24" class="edge">
<title>/lib/panels/layers/top_menu_and_layers_panel.dart&#45;&gt;/lib/files/import_files.dart</title>
<path fill="none" stroke="#aabbaa" stroke-width="1.3" stroke-opacity="0.533333" d="M2047.35,-441.36C2299.58,-439.55 2924.74,-433.44 2967,-417 2979.35,-412.2 2990.79,-403.31 3000,-394.47"/>
<polygon fill="#aabbaa" fill-opacity="0.533333" stroke="#aabbaa" stroke-width="1.3" stroke-opacity="0.533333" points="3002.26,-397.17 3006.73,-387.56 2997.25,-392.28 3002.26,-397.17"/>
</g>
<!-- /lib/panels/layers/layer_thumbnail.dart&#45;&gt;/lib/models/app_model.dart -->
<g id="edge32" class="edge">
<title>/lib/panels/layers/layer_thumbnail.dart&#45;&gt;/lib/models/app_model.dart</title>
<path fill="none" stroke="#aabbaa" stroke-width="1.3" stroke-opacity="0.533333" d="M1900.19,-266.58C1912.11,-260.41 1926.29,-254.2 1940,-251 2009.91,-234.69 2517.29,-263.79 2586,-243 2602.12,-238.12 2618.04,-228.58 2630.97,-219.28"/>
<polygon fill="#aabbaa" fill-opacity="0.533333" stroke="#aabbaa" stroke-width="1.3" stroke-opacity="0.533333" points="2632.78,-222.3 2638.65,-213.48 2628.56,-216.71 2632.78,-222.3"/>
</g>
<!-- /lib/panels/layers/layer_thumbnail.dart&#45;&gt;/lib/widgets/transparent_background.dart -->
<g id="edge34" class="edge">
<title>/lib/panels/layers/layer_thumbnail.dart&#45;&gt;/lib/widgets/transparent_background.dart</title>
<path fill="none" stroke="#aabbaa" stroke-width="1.3" stroke-opacity="0.533333" d="M1810.09,-277.27C1734.27,-269.24 1600.76,-256.24 1486,-251 1476.43,-250.56 113.75,-249.79 107,-243 60.94,-196.67 71.03,-150.54 107,-96 112.89,-87.06 120.97,-79.89 130.05,-74.15"/>
<polygon fill="#aabbaa" fill-opacity="0.533333" stroke="#aabbaa" stroke-width="1.3" stroke-opacity="0.533333" points="131.49,-77.34 138.51,-69.41 128.08,-71.24 131.49,-77.34"/>
</g>
<!-- /lib/widgets/image_painter.dart -->
<g id="node49" class="node">
<title>/lib/widgets/image_painter.dart</title>
<path fill="Lavender" stroke="black" stroke-width="1.3" d="M448.25,-303C448.25,-303 361.75,-303 361.75,-303 355.75,-303 349.75,-297 349.75,-291 349.75,-291 349.75,-279 349.75,-279 349.75,-273 355.75,-267 361.75,-267 361.75,-267 448.25,-267 448.25,-267 454.25,-267 460.25,-273 460.25,-279 460.25,-279 460.25,-291 460.25,-291 460.25,-297 454.25,-303 448.25,-303"/>
<text text-anchor="middle" x="405" y="-279.75" font-family="Arial" font-size="15.00">image_painter</text>
</g>
<!-- /lib/panels/layers/layer_thumbnail.dart&#45;&gt;/lib/widgets/image_painter.dart -->
<g id="edge33" class="edge">
<title>/lib/panels/layers/layer_thumbnail.dart&#45;&gt;/lib/widgets/image_painter.dart</title>
<path fill="none" stroke="#aabbaa" stroke-width="1.3" stroke-opacity="0.533333" d="M1810.17,-295.76C1732.99,-308.81 1595.62,-330.06 1477,-338 1449.34,-339.85 506.12,-343.75 479,-338 460.66,-334.11 443.43,-322.44 430.22,-311.04"/>
<polygon fill="#aabbaa" fill-opacity="0.533333" stroke="#aabbaa" stroke-width="1.3" stroke-opacity="0.533333" points="432.94,-308.79 423.2,-304.62 428.21,-313.96 432.94,-308.79"/>
</g>
<!-- /lib/panels/side_panel.dart -->
<g id="node17" class="node">
<title>/lib/panels/side_panel.dart</title>
<path fill="Lavender" stroke="black" stroke-width="1.3" d="M2168.62,-536C2168.62,-536 2105.38,-536 2105.38,-536 2099.38,-536 2093.38,-530 2093.38,-524 2093.38,-524 2093.38,-512 2093.38,-512 2093.38,-506 2099.38,-500 2105.38,-500 2105.38,-500 2168.62,-500 2168.62,-500 2174.62,-500 2180.62,-506 2180.62,-512 2180.62,-512 2180.62,-524 2180.62,-524 2180.62,-530 2174.62,-536 2168.62,-536"/>
<text text-anchor="middle" x="2137" y="-512.75" font-family="Arial" font-size="15.00">side_panel</text>
</g>
<!-- /lib/panels/side_panel.dart&#45;&gt;/lib/panels/tools/tools_panel.dart -->
<g id="edge37" class="edge">
<title>/lib/panels/side_panel.dart&#45;&gt;/lib/panels/tools/tools_panel.dart</title>
<path fill="none" stroke="#aabbaa" stroke-width="1.3" stroke-opacity="0.533333" d="M2092.94,-500.81C2091.62,-500.52 2090.3,-500.24 2089,-500 2025.4,-488.17 1861.85,-502.38 1798,-492 1763.63,-486.41 1726.3,-475.32 1696.56,-465.2"/>
<polygon fill="#aabbaa" fill-opacity="0.533333" stroke="#aabbaa" stroke-width="1.3" stroke-opacity="0.533333" points="1698.01,-462 1687.41,-462.03 1695.71,-468.61 1698.01,-462"/>
</g>
<!-- /lib/panels/side_panel.dart&#45;&gt;/lib/panels/layers/top_menu_and_layers_panel.dart -->
<g id="edge36" class="edge">
<title>/lib/panels/side_panel.dart&#45;&gt;/lib/panels/layers/top_menu_and_layers_panel.dart</title>
<path fill="none" stroke="#aabbaa" stroke-width="1.3" stroke-opacity="0.533333" d="M2092.98,-500.44C2065.52,-490.1 2029.89,-476.7 2000.25,-465.54"/>
<polygon fill="#aabbaa" fill-opacity="0.533333" stroke="#aabbaa" stroke-width="1.3" stroke-opacity="0.533333" points="2001.65,-462.33 1991.05,-462.08 1999.18,-468.88 2001.65,-462.33"/>
</g>
<!-- /lib/panels/side_panel.dart&#45;&gt;/lib/models/app_model.dart -->
<g id="edge35" class="edge">
<title>/lib/panels/side_panel.dart&#45;&gt;/lib/models/app_model.dart</title>
<path fill="none" stroke="#aabbaa" stroke-width="1.3" stroke-opacity="0.533333" d="M2181.12,-501.07C2182.42,-500.7 2183.72,-500.34 2185,-500 2384.49,-446.93 2496.95,-563.88 2642,-417 2668.16,-390.51 2665.15,-278.26 2662.05,-224.26"/>
<polygon fill="#aabbaa" fill-opacity="0.533333" stroke="#aabbaa" stroke-width="1.3" stroke-opacity="0.533333" points="2665.55,-224.2 2661.44,-214.43 2658.57,-224.63 2665.55,-224.2"/>
</g>
<!-- /lib/panels/share_panel.dart&#45;&gt;/lib/panels/canvas_panel.dart -->
<g id="edge39" class="edge">
<title>/lib/panels/share_panel.dart&#45;&gt;/lib/panels/canvas_panel.dart</title>
<path fill="none" stroke="#aabbaa" stroke-width="1.3" stroke-opacity="0.533333" d="M2239.58,-349.82C2230.45,-338.94 2218.45,-324.66 2208.13,-312.36"/>
<polygon fill="#aabbaa" fill-opacity="0.533333" stroke="#aabbaa" stroke-width="1.3" stroke-opacity="0.533333" points="2211.01,-310.35 2201.9,-304.94 2205.65,-314.85 2211.01,-310.35"/>
</g>
<!-- /lib/panels/share_panel.dart&#45;&gt;/lib/models/app_model.dart -->
<g id="edge38" class="edge">
<title>/lib/panels/share_panel.dart&#45;&gt;/lib/models/app_model.dart</title>
<path fill="none" stroke="#aabbaa" stroke-width="1.3" stroke-opacity="0.533333" d="M2289.24,-349.6C2296.61,-346.59 2304.44,-343.85 2312,-342 2336.02,-336.13 2402.75,-348.2 2423,-334 2456.06,-310.81 2426.84,-274.05 2460,-251 2483.04,-234.99 2559.36,-251.81 2586,-243 2601.6,-237.84 2617.13,-228.57 2629.9,-219.55"/>
<polygon fill="#aabbaa" fill-opacity="0.533333" stroke="#aabbaa" stroke-width="1.3" stroke-opacity="0.533333" points="2631.96,-222.37 2637.92,-213.61 2627.8,-216.75 2631.96,-222.37"/>
</g>
<!-- /lib/panels/canvas_settings.dart&#45;&gt;/lib/models/app_model.dart -->
<g id="edge40" class="edge">
<title>/lib/panels/canvas_settings.dart&#45;&gt;/lib/models/app_model.dart</title>
<path fill="none" stroke="#aabbaa" stroke-width="1.3" stroke-opacity="0.533333" d="M2168.4,-349.61C2177.4,-346.61 2186.91,-343.86 2196,-342 2223.05,-336.47 2294.27,-344.02 2320,-334 2374.78,-312.67 2368.05,-271.91 2423,-251 2456.89,-238.1 2551.49,-254.14 2586,-243 2601.91,-237.86 2617.71,-228.38 2630.6,-219.19"/>
<polygon fill="#aabbaa" fill-opacity="0.533333" stroke="#aabbaa" stroke-width="1.3" stroke-opacity="0.533333" points="2632.34,-222.26 2638.26,-213.47 2628.15,-216.65 2632.34,-222.26"/>
</g>
<!-- /lib/widgets/nine_grid_selector.dart -->
<g id="node54" class="node">
<title>/lib/widgets/nine_grid_selector.dart</title>
<path fill="Lavender" stroke="black" stroke-width="1.3" d="M1461.75,-303C1461.75,-303 1348.25,-303 1348.25,-303 1342.25,-303 1336.25,-297 1336.25,-291 1336.25,-291 1336.25,-279 1336.25,-279 1336.25,-273 1342.25,-267 1348.25,-267 1348.25,-267 1461.75,-267 1461.75,-267 1467.75,-267 1473.75,-273 1473.75,-279 1473.75,-279 1473.75,-291 1473.75,-291 1473.75,-297 1467.75,-303 1461.75,-303"/>
<text text-anchor="middle" x="1405" y="-279.75" font-family="Arial" font-size="15.00">nine_grid_selector</text>
</g>
<!-- /lib/panels/canvas_settings.dart&#45;&gt;/lib/widgets/nine_grid_selector.dart -->
<g id="edge41" class="edge">
<title>/lib/panels/canvas_settings.dart&#45;&gt;/lib/widgets/nine_grid_selector.dart</title>
<path fill="none" stroke="#aabbaa" stroke-width="1.3" stroke-opacity="0.533333" d="M2085.49,-349.61C2076.91,-346.53 2067.77,-343.75 2059,-342 2002.09,-330.68 1855.86,-338.41 1798,-334 1689.4,-325.72 1564.67,-309.3 1485.39,-297.99"/>
<polygon fill="#aabbaa" fill-opacity="0.533333" stroke="#aabbaa" stroke-width="1.3" stroke-opacity="0.533333" points="1486.37,-294.59 1475.98,-296.64 1485.38,-301.52 1486.37,-294.59"/>
</g>
<!-- /lib/models/layers.dart -->
<g id="node21" class="node">
<title>/lib/models/layers.dart</title>
<path fill="Lavender" stroke="black" stroke-width="1.3" d="M2572.88,-386C2572.88,-386 2541.12,-386 2541.12,-386 2535.12,-386 2529.12,-380 2529.12,-374 2529.12,-374 2529.12,-362 2529.12,-362 2529.12,-356 2535.12,-350 2541.12,-350 2541.12,-350 2572.88,-350 2572.88,-350 2578.88,-350 2584.88,-356 2584.88,-362 2584.88,-362 2584.88,-374 2584.88,-374 2584.88,-380 2578.88,-386 2572.88,-386"/>
<text text-anchor="middle" x="2557" y="-362.75" font-family="Arial" font-size="15.00">layers</text>
</g>
<!-- /lib/models/layers.dart&#45;&gt;/lib/models/layer.dart -->
<g id="edge44" class="edge">
<title>/lib/models/layers.dart&#45;&gt;/lib/models/layer.dart</title>
<path fill="none" stroke="#aabbaa" stroke-width="1.3" stroke-opacity="0.533333" d="M2538.43,-349.82C2529.24,-339.16 2518.49,-325.22 2509.99,-313.08"/>
<polygon fill="#aabbaa" fill-opacity="0.533333" stroke="#aabbaa" stroke-width="1.3" stroke-opacity="0.533333" points="2513.07,-311.39 2504.57,-305.06 2507.27,-315.31 2513.07,-311.39"/>
</g>
<!-- /lib/models/layers.dart&#45;&gt;/lib/models/layer.dart -->
<g id="edge45" class="edge">
<title>/lib/models/layers.dart&#45;&gt;/lib/models/layer.dart</title>
<path fill="none" stroke="#aabbaa" stroke-width="1.3" stroke-dasharray="5,2" stroke-opacity="0.533333" d="M2549.7,-349.82C2542.68,-338.94 2532.17,-324.66 2522.22,-312.36"/>
<polygon fill="#aabbaa" fill-opacity="0.533333" stroke="#aabbaa" stroke-width="1.3" stroke-opacity="0.533333" points="2525.14,-310.39 2516.05,-304.94 2519.76,-314.87 2525.14,-310.39"/>
</g>
<!-- /lib/helpers/list_helper.dart -->
<g id="node39" class="node">
<title>/lib/helpers/list_helper.dart</title>
<path fill="Lavender" stroke="black" stroke-width="1.3" d="M2334.75,-68C2334.75,-68 2275.25,-68 2275.25,-68 2269.25,-68 2263.25,-62 2263.25,-56 2263.25,-56 2263.25,-44 2263.25,-44 2263.25,-38 2269.25,-32 2275.25,-32 2275.25,-32 2334.75,-32 2334.75,-32 2340.75,-32 2346.75,-38 2346.75,-44 2346.75,-44 2346.75,-56 2346.75,-56 2346.75,-62 2340.75,-68 2334.75,-68"/>
<text text-anchor="middle" x="2305" y="-44.75" font-family="Arial" font-size="15.00">list_helper</text>
</g>
<!-- /lib/models/layers.dart&#45;&gt;/lib/helpers/list_helper.dart -->
<g id="edge43" class="edge">
<title>/lib/models/layers.dart&#45;&gt;/lib/helpers/list_helper.dart</title>
<path fill="none" stroke="#aabbaa" stroke-width="1.3" stroke-opacity="0.533333" d="M2585.31,-350.52C2619.61,-329.36 2677.34,-289.73 2714,-243 2735.17,-216.02 2784.03,-121.41 2761,-96 2734.43,-66.68 2473.73,-55.75 2358.87,-52.34"/>
<polygon fill="#aabbaa" fill-opacity="0.533333" stroke="#aabbaa" stroke-width="1.3" stroke-opacity="0.533333" points="2359.31,-48.85 2349.21,-52.06 2359.1,-55.85 2359.31,-48.85"/>
</g>
<!-- /lib/helpers/color_helper.dart -->
<g id="node40" class="node">
<title>/lib/helpers/color_helper.dart</title>
<path fill="Lavender" stroke="black" stroke-width="1.3" d="M2326.88,-140C2326.88,-140 2253.12,-140 2253.12,-140 2247.12,-140 2241.12,-134 2241.12,-128 2241.12,-128 2241.12,-116 2241.12,-116 2241.12,-110 2247.12,-104 2253.12,-104 2253.12,-104 2326.88,-104 2326.88,-104 2332.88,-104 2338.88,-110 2338.88,-116 2338.88,-116 2338.88,-128 2338.88,-128 2338.88,-134 2332.88,-140 2326.88,-140"/>
<text text-anchor="middle" x="2290" y="-116.75" font-family="Arial" font-size="15.00">color_helper</text>
</g>
<!-- /lib/models/layers.dart&#45;&gt;/lib/helpers/color_helper.dart -->
<g id="edge42" class="edge">
<title>/lib/models/layers.dart&#45;&gt;/lib/helpers/color_helper.dart</title>
<path fill="none" stroke="#aabbaa" stroke-width="1.3" stroke-opacity="0.533333" d="M2528.84,-350.1C2522.79,-347.02 2516.31,-344.12 2510,-342 2488.66,-334.84 2479.71,-344.87 2460,-334 2416.98,-310.27 2431.23,-272.39 2387,-251 2371.48,-243.49 2243.88,-255.5 2232,-243 2211.49,-221.41 2219.99,-203.25 2232,-176 2236.7,-165.35 2244.71,-155.91 2253.3,-148.05"/>
<polygon fill="#aabbaa" fill-opacity="0.533333" stroke="#aabbaa" stroke-width="1.3" stroke-opacity="0.533333" points="2255.44,-150.83 2260.85,-141.72 2250.94,-145.47 2255.44,-150.83"/>
</g>
<!-- /lib/models/user_action.dart -->
<g id="node22" class="node">
<title>/lib/models/user_action.dart</title>
<path fill="Lavender" stroke="black" stroke-width="1.3" d="M2609.62,-140C2609.62,-140 2540.38,-140 2540.38,-140 2534.38,-140 2528.38,-134 2528.38,-128 2528.38,-128 2528.38,-116 2528.38,-116 2528.38,-110 2534.38,-104 2540.38,-104 2540.38,-104 2609.62,-104 2609.62,-104 2615.62,-104 2621.62,-110 2621.62,-116 2621.62,-116 2621.62,-128 2621.62,-128 2621.62,-134 2615.62,-140 2609.62,-140"/>
<text text-anchor="middle" x="2575" y="-116.75" font-family="Arial" font-size="15.00">user_action</text>
</g>
<!-- /lib/widgets/brush_style_picker.dart -->
<g id="node52" class="node">
<title>/lib/widgets/brush_style_picker.dart</title>
<path fill="Lavender" stroke="black" stroke-width="1.3" d="M607.25,-303C607.25,-303 490.75,-303 490.75,-303 484.75,-303 478.75,-297 478.75,-291 478.75,-291 478.75,-279 478.75,-279 478.75,-273 484.75,-267 490.75,-267 490.75,-267 607.25,-267 607.25,-267 613.25,-267 619.25,-273 619.25,-279 619.25,-279 619.25,-291 619.25,-291 619.25,-297 613.25,-303 607.25,-303"/>
<text text-anchor="middle" x="549" y="-279.75" font-family="Arial" font-size="15.00">brush_style_picker</text>
</g>
<!-- /lib/models/user_action.dart&#45;&gt;/lib/widgets/brush_style_picker.dart -->
<g id="edge46" class="edge">
<title>/lib/models/user_action.dart&#45;&gt;/lib/widgets/brush_style_picker.dart</title>
<path fill="none" stroke="#aabbaa" stroke-width="1.3" stroke-opacity="0.533333" d="M2527.94,-134.84C2522.2,-136.58 2516.45,-138.34 2511,-140 2457.73,-156.22 2435.11,-142.01 2391,-176 2363.35,-197.31 2380.41,-225.86 2350,-243 2329.05,-254.8 642.56,-246.22 619,-251 607.54,-253.32 595.66,-257.34 584.97,-261.78"/>
<polygon fill="#aabbaa" fill-opacity="0.533333" stroke="#aabbaa" stroke-width="1.3" stroke-opacity="0.533333" points="583.83,-258.46 576.12,-265.72 586.68,-264.85 583.83,-258.46"/>
</g>
<!-- /lib/models/user_action.dart&#45;&gt;/lib/widgets/brush_style_picker.dart -->
<g id="edge47" class="edge">
<title>/lib/models/user_action.dart&#45;&gt;/lib/widgets/brush_style_picker.dart</title>
<path fill="none" stroke="#aabbaa" stroke-width="1.3" stroke-dasharray="5,2" stroke-opacity="0.533333" d="M2528.07,-140.28C2475.47,-156.06 2452.85,-142.21 2409,-176 2381.35,-197.31 2398.41,-225.86 2368,-243 2347.05,-254.8 660.56,-246.22 637,-251 625.42,-253.35 613.41,-257.42 602.09,-261.92"/>
<polygon fill="#aabbaa" fill-opacity="0.533333" stroke="#aabbaa" stroke-width="1.3" stroke-opacity="0.533333" points="600.75,-258.69 592.86,-265.76 603.43,-265.15 600.75,-258.69"/>
</g>
<!-- /lib/models/canvas_model.dart -->
<g id="node24" class="node">
<title>/lib/models/canvas_model.dart</title>
<path fill="Lavender" stroke="black" stroke-width="1.3" d="M2740,-140C2740,-140 2652,-140 2652,-140 2646,-140 2640,-134 2640,-128 2640,-128 2640,-116 2640,-116 2640,-110 2646,-104 2652,-104 2652,-104 2740,-104 2740,-104 2746,-104 2752,-110 2752,-116 2752,-116 2752,-128 2752,-128 2752,-134 2746,-140 2740,-140"/>
<text text-anchor="middle" x="2696" y="-116.75" font-family="Arial" font-size="15.00">canvas_model</text>
</g>
<!-- /lib/models/canvas_model.dart&#45;&gt;/lib/models/layers.dart -->
<g id="edge48" class="edge">
<title>/lib/models/canvas_model.dart&#45;&gt;/lib/models/layers.dart</title>
<path fill="none" stroke="#aabbaa" stroke-width="1.3" stroke-dasharray="5,2" stroke-opacity="0.533333" d="M2652.18,-140.44C2635.65,-148.96 2617.96,-160.72 2606,-176 2586.84,-200.47 2606.52,-219.66 2586,-243 2580.22,-249.57 2573.11,-243.89 2568,-251 2549.91,-276.15 2549.53,-312.71 2552.14,-338.04"/>
<polygon fill="#aabbaa" fill-opacity="0.533333" stroke="#aabbaa" stroke-width="1.3" stroke-opacity="0.533333" points="2548.65,-338.38 2553.4,-347.86 2555.6,-337.49 2548.65,-338.38"/>
</g>
<!-- /lib/models/render_user_actions.dart -->
<g id="node25" class="node">
<title>/lib/models/render_user_actions.dart</title>
<path fill="Lavender" stroke="black" stroke-width="1.3" d="M2565.25,-212C2565.25,-212 2436.75,-212 2436.75,-212 2430.75,-212 2424.75,-206 2424.75,-200 2424.75,-200 2424.75,-188 2424.75,-188 2424.75,-182 2430.75,-176 2436.75,-176 2436.75,-176 2565.25,-176 2565.25,-176 2571.25,-176 2577.25,-182 2577.25,-188 2577.25,-188 2577.25,-200 2577.25,-200 2577.25,-206 2571.25,-212 2565.25,-212"/>
<text text-anchor="middle" x="2501" y="-188.75" font-family="Arial" font-size="15.00">render_user_actions</text>
</g>
<!-- /lib/models/render_user_actions.dart&#45;&gt;/lib/models/user_action.dart -->
<g id="edge49" class="edge">
<title>/lib/models/render_user_actions.dart&#45;&gt;/lib/models/user_action.dart</title>
<path fill="none" stroke="#aabbaa" stroke-width="1.3" stroke-opacity="0.533333" d="M2519.29,-175.7C2528.01,-167.45 2538.6,-157.43 2548.21,-148.35"/>
<polygon fill="#aabbaa" fill-opacity="0.533333" stroke="#aabbaa" stroke-width="1.3" stroke-opacity="0.533333" points="2550.37,-151.11 2555.23,-141.7 2545.56,-146.03 2550.37,-151.11"/>
</g>
<!-- /lib/models/app_model.dart&#45;&gt;/lib/models/layers.dart -->
<g id="edge53" class="edge">
<title>/lib/models/app_model.dart&#45;&gt;/lib/models/layers.dart</title>
<path fill="none" stroke="#aabbaa" stroke-width="1.3" stroke-dasharray="5,2" stroke-opacity="0.533333" d="M2635.5,-212.38C2622.83,-222.43 2607.98,-236.03 2598,-251 2595.47,-254.8 2578.02,-305.28 2566.72,-338.38"/>
<polygon fill="#aabbaa" fill-opacity="0.533333" stroke="#aabbaa" stroke-width="1.3" stroke-opacity="0.533333" points="2563.42,-337.22 2563.51,-347.81 2570.05,-339.48 2563.42,-337.22"/>
</g>
<!-- /lib/models/app_model.dart&#45;&gt;/lib/models/canvas_resize.dart -->
<g id="edge52" class="edge">
<title>/lib/models/app_model.dart&#45;&gt;/lib/models/canvas_resize.dart</title>
<path fill="none" stroke="#aabbaa" stroke-width="1.3" stroke-opacity="0.533333" d="M2614.76,-177.55C2586.09,-167.76 2548.62,-154.97 2517.18,-144.23"/>
<polygon fill="#aabbaa" fill-opacity="0.533333" stroke="#aabbaa" stroke-width="1.3" stroke-opacity="0.533333" points="2518.35,-140.93 2507.75,-141.01 2516.09,-147.56 2518.35,-140.93"/>
</g>
<!-- /lib/models/app_model.dart&#45;&gt;/lib/models/canvas_model.dart -->
<g id="edge51" class="edge">
<title>/lib/models/app_model.dart&#45;&gt;/lib/models/canvas_model.dart</title>
<path fill="none" stroke="#aabbaa" stroke-width="1.3" stroke-opacity="0.533333" d="M2668.9,-175.7C2672.78,-168.15 2677.42,-159.12 2681.76,-150.68"/>
<polygon fill="#aabbaa" fill-opacity="0.533333" stroke="#aabbaa" stroke-width="1.3" stroke-opacity="0.533333" points="2684.84,-152.35 2686.3,-141.85 2678.62,-149.15 2684.84,-152.35"/>
</g>
<!-- /lib/models/app_model.dart&#45;&gt;/lib/helpers/color_helper.dart -->
<g id="edge50" class="edge">
<title>/lib/models/app_model.dart&#45;&gt;/lib/helpers/color_helper.dart</title>
<path fill="none" stroke="#aabbaa" stroke-width="1.3" stroke-opacity="0.533333" d="M2615.07,-182.31C2605.5,-180.14 2595.43,-177.93 2586,-176 2563.36,-171.38 2430.47,-147.8 2350.64,-133.7"/>
<polygon fill="#aabbaa" fill-opacity="0.533333" stroke="#aabbaa" stroke-width="1.3" stroke-opacity="0.533333" points="2351.66,-130.32 2341.21,-132.03 2350.45,-137.22 2351.66,-130.32"/>
</g>
<!-- /lib/models/layer.dart&#45;&gt;/lib/models/user_action.dart -->
<g id="edge58" class="edge">
<title>/lib/models/layer.dart&#45;&gt;/lib/models/user_action.dart</title>
<path fill="none" stroke="#aabbaa" stroke-width="1.3" stroke-dasharray="5,2" stroke-opacity="0.533333" d="M2468.63,-277.86C2450.25,-272.16 2427.39,-261.64 2416,-243 2400.47,-217.59 2398.59,-200.16 2416,-176 2417.6,-173.78 2472.1,-155.91 2516.85,-141.52"/>
<polygon fill="#aabbaa" fill-opacity="0.533333" stroke="#aabbaa" stroke-width="1.3" stroke-opacity="0.533333" points="2517.66,-144.94 2526.11,-138.55 2515.52,-138.27 2517.66,-144.94"/>
</g>
<!-- /lib/models/layer.dart&#45;&gt;/lib/models/render_user_actions.dart -->
<g id="edge57" class="edge">
<title>/lib/models/layer.dart&#45;&gt;/lib/models/render_user_actions.dart</title>
<path fill="none" stroke="#aabbaa" stroke-width="1.3" stroke-opacity="0.533333" d="M2496.96,-266.84C2497.64,-254.73 2498.57,-238.21 2499.37,-224.06"/>
<polygon fill="#aabbaa" fill-opacity="0.533333" stroke="#aabbaa" stroke-width="1.3" stroke-opacity="0.533333" points="2502.84,-224.56 2499.91,-214.38 2495.86,-224.16 2502.84,-224.56"/>
</g>
<!-- /lib/models/layer.dart&#45;&gt;/lib/models/app_model.dart -->
<g id="edge56" class="edge">
<title>/lib/models/layer.dart&#45;&gt;/lib/models/app_model.dart</title>
<path fill="none" stroke="#aabbaa" stroke-width="1.3" stroke-opacity="0.533333" d="M2523.29,-272.82C2541.4,-265.09 2565.52,-254.22 2586,-243 2599.22,-235.75 2613.21,-226.98 2625.43,-218.93"/>
<polygon fill="#aabbaa" fill-opacity="0.533333" stroke="#aabbaa" stroke-width="1.3" stroke-opacity="0.533333" points="2627.22,-221.95 2633.59,-213.48 2623.33,-216.13 2627.22,-221.95"/>
</g>
<!-- /lib/helpers/image_helper.dart -->
<g id="node38" class="node">
<title>/lib/helpers/image_helper.dart</title>
<path fill="Lavender" stroke="black" stroke-width="1.3" d="M2335,-212C2335,-212 2253,-212 2253,-212 2247,-212 2241,-206 2241,-200 2241,-200 2241,-188 2241,-188 2241,-182 2247,-176 2253,-176 2253,-176 2335,-176 2335,-176 2341,-176 2347,-182 2347,-188 2347,-188 2347,-200 2347,-200 2347,-206 2341,-212 2335,-212"/>
<text text-anchor="middle" x="2294" y="-188.75" font-family="Arial" font-size="15.00">image_helper</text>
</g>
<!-- /lib/models/layer.dart&#45;&gt;/lib/helpers/image_helper.dart -->
<g id="edge55" class="edge">
<title>/lib/models/layer.dart&#45;&gt;/lib/helpers/image_helper.dart</title>
<path fill="none" stroke="#aabbaa" stroke-width="1.3" stroke-opacity="0.533333" d="M2468.92,-274.13C2449.15,-267.14 2421.62,-257.82 2397,-251 2381.2,-246.62 2375.96,-249.69 2361,-243 2347.66,-237.04 2334.31,-228.2 2323.07,-219.73"/>
<polygon fill="#aabbaa" fill-opacity="0.533333" stroke="#aabbaa" stroke-width="1.3" stroke-opacity="0.533333" points="2325.37,-217.08 2315.34,-213.67 2321.05,-222.59 2325.37,-217.08"/>
</g>
<!-- /lib/models/layer.dart&#45;&gt;/lib/helpers/color_helper.dart -->
<g id="edge54" class="edge">
<title>/lib/models/layer.dart&#45;&gt;/lib/helpers/color_helper.dart</title>
<path fill="none" stroke="#aabbaa" stroke-width="1.3" stroke-opacity="0.533333" d="M2468.87,-277.07C2448.28,-270.78 2420.16,-259.86 2400,-243 2372.68,-220.14 2379.96,-202.36 2356,-176 2346.77,-165.84 2335.49,-156.04 2324.88,-147.69"/>
<polygon fill="#aabbaa" fill-opacity="0.533333" stroke="#aabbaa" stroke-width="1.3" stroke-opacity="0.533333" points="2327.04,-144.94 2316.97,-141.65 2322.8,-150.5 2327.04,-144.94"/>
</g>
<!-- /lib/main.dart&#45;&gt;/lib/models/app_model.dart -->
<g id="edge61" class="edge">
<title>/lib/main.dart&#45;&gt;/lib/models/app_model.dart</title>
<path fill="none" stroke="#aabbaa" stroke-width="1.3" stroke-opacity="0.533333" d="M2571.33,-653.76C2616.79,-634.75 2703,-589.42 2703,-519 2703,-519 2703,-519 2703,-367 2703,-314.61 2696.31,-301.4 2682,-251 2679.38,-241.78 2675.81,-231.97 2672.31,-223.18"/>
<polygon fill="#aabbaa" fill-opacity="0.533333" stroke="#aabbaa" stroke-width="1.3" stroke-opacity="0.533333" points="2675.64,-222.07 2668.59,-214.17 2669.17,-224.75 2675.64,-222.07"/>
</g>
<!-- /lib/main.dart&#45;&gt;/lib/files/save.dart -->
<g id="edge59" class="edge">
<title>/lib/main.dart&#45;&gt;/lib/files/save.dart</title>
<path fill="none" stroke="#aabbaa" stroke-width="1.3" stroke-opacity="0.533333" d="M2571.28,-659.43C2605.32,-652.81 2664.35,-638.26 2708,-611 2800.97,-552.95 2879.84,-445.99 2913.52,-396.03"/>
<polygon fill="#aabbaa" fill-opacity="0.533333" stroke="#aabbaa" stroke-width="1.3" stroke-opacity="0.533333" points="2916.3,-398.18 2918.93,-387.91 2910.47,-394.3 2916.3,-398.18"/>
</g>
<!-- /lib/main_screen.dart -->
<g id="node37" class="node">
<title>/lib/main_screen.dart</title>
<path fill="Lavender" stroke="black" stroke-width="1.3" d="M2423.75,-611C2423.75,-611 2346.25,-611 2346.25,-611 2340.25,-611 2334.25,-605 2334.25,-599 2334.25,-599 2334.25,-587 2334.25,-587 2334.25,-581 2340.25,-575 2346.25,-575 2346.25,-575 2423.75,-575 2423.75,-575 2429.75,-575 2435.75,-581 2435.75,-587 2435.75,-587 2435.75,-599 2435.75,-599 2435.75,-605 2429.75,-611 2423.75,-611"/>
<text text-anchor="middle" x="2385" y="-587.75" font-family="Arial" font-size="15.00">main_screen</text>
</g>
<!-- /lib/main.dart&#45;&gt;/lib/main_screen.dart -->
<g id="edge60" class="edge">
<title>/lib/main.dart&#45;&gt;/lib/main_screen.dart</title>
<path fill="none" stroke="#aabbaa" stroke-width="1.3" stroke-opacity="0.533333" d="M2516.67,-651.97C2494.35,-642.14 2462.21,-627.99 2435.27,-616.13"/>
<polygon fill="#aabbaa" fill-opacity="0.533333" stroke="#aabbaa" stroke-width="1.3" stroke-opacity="0.533333" points="2436.83,-613 2426.27,-612.17 2434.01,-619.4 2436.83,-613"/>
</g>
<!-- /lib/files/xcf_reader.dart&#45;&gt;/lib/helpers/list_helper.dart -->
<g id="edge62" class="edge">
<title>/lib/files/xcf_reader.dart&#45;&gt;/lib/helpers/list_helper.dart</title>
<path fill="none" stroke="#aabbaa" stroke-width="1.3" stroke-opacity="0.533333" d="M3495.76,-349.66C3450.41,-325.66 3364.85,-281.81 3289,-251 3086,-168.54 3035.59,-140.26 2821,-96 2654.79,-61.72 2453.2,-53.53 2358.74,-51.59"/>
<polygon fill="#aabbaa" fill-opacity="0.533333" stroke="#aabbaa" stroke-width="1.3" stroke-opacity="0.533333" points="2358.97,-48.09 2348.91,-51.4 2358.84,-55.09 2358.97,-48.09"/>
</g>
<!-- /lib/files/file_jpeg.dart -->
<g id="node31" class="node">
<title>/lib/files/file_jpeg.dart</title>
<path fill="Lavender" stroke="black" stroke-width="1.3" d="M3268.38,-303C3268.38,-303 3221.62,-303 3221.62,-303 3215.62,-303 3209.62,-297 3209.62,-291 3209.62,-291 3209.62,-279 3209.62,-279 3209.62,-273 3215.62,-267 3221.62,-267 3221.62,-267 3268.38,-267 3268.38,-267 3274.38,-267 3280.38,-273 3280.38,-279 3280.38,-279 3280.38,-291 3280.38,-291 3280.38,-297 3274.38,-303 3268.38,-303"/>
<text text-anchor="middle" x="3245" y="-279.75" font-family="Arial" font-size="15.00">file_jpeg</text>
</g>
<!-- /lib/files/export_download_web.dart -->
<g id="node32" class="node">
<title>/lib/files/export_download_web.dart</title>
<path fill="Lavender" stroke="black" stroke-width="1.3" d="M3239.25,-386C3239.25,-386 3098.75,-386 3098.75,-386 3092.75,-386 3086.75,-380 3086.75,-374 3086.75,-374 3086.75,-362 3086.75,-362 3086.75,-356 3092.75,-350 3098.75,-350 3098.75,-350 3239.25,-350 3239.25,-350 3245.25,-350 3251.25,-356 3251.25,-362 3251.25,-362 3251.25,-374 3251.25,-374 3251.25,-380 3245.25,-386 3239.25,-386"/>
<text text-anchor="middle" x="3169" y="-362.75" font-family="Arial" font-size="15.00">export_download_web</text>
</g>
<!-- /lib/files/export_download_web.dart&#45;&gt;/lib/panels/share_panel.dart -->
<g id="edge66" class="edge">
<title>/lib/files/export_download_web.dart&#45;&gt;/lib/panels/share_panel.dart</title>
<path fill="none" stroke="#aabbaa" stroke-width="1.3" stroke-opacity="0.533333" d="M3143.53,-386.43C3123.97,-399.27 3095.7,-415.12 3068,-421 3047.7,-425.31 2341.3,-425.31 2321,-421 2304.12,-417.42 2288.75,-406.15 2276.99,-394.91"/>
<polygon fill="#aabbaa" fill-opacity="0.533333" stroke="#aabbaa" stroke-width="1.3" stroke-opacity="0.533333" points="2279.61,-392.58 2270.12,-387.87 2274.6,-397.47 2279.61,-392.58"/>
</g>
<!-- /lib/files/export_download_web.dart&#45;&gt;/lib/models/app_model.dart -->
<g id="edge65" class="edge">
<title>/lib/files/export_download_web.dart&#45;&gt;/lib/models/app_model.dart</title>
<path fill="none" stroke="#aabbaa" stroke-width="1.3" stroke-opacity="0.533333" d="M3111.97,-349.6C3100.49,-346.64 3088.43,-343.9 3077,-342 3049.98,-337.5 2979.45,-344.13 2954,-334 2900.34,-312.64 2905.05,-278.02 2854,-251 2810.67,-228.06 2756.78,-213.47 2716.8,-204.95"/>
<polygon fill="#aabbaa" fill-opacity="0.533333" stroke="#aabbaa" stroke-width="1.3" stroke-opacity="0.533333" points="2717.56,-201.54 2707.06,-202.95 2716.15,-208.39 2717.56,-201.54"/>
</g>
<!-- /lib/files/export_download_web.dart&#45;&gt;/lib/files/file_jpeg.dart -->
<g id="edge63" class="edge">
<title>/lib/files/export_download_web.dart&#45;&gt;/lib/files/file_jpeg.dart</title>
<path fill="none" stroke="#aabbaa" stroke-width="1.3" stroke-opacity="0.533333" d="M3185.12,-349.82C3195.43,-338.84 3208.99,-324.38 3220.61,-312"/>
<polygon fill="#aabbaa" fill-opacity="0.533333" stroke="#aabbaa" stroke-width="1.3" stroke-opacity="0.533333" points="3223.01,-314.55 3227.3,-304.87 3217.9,-309.77 3223.01,-314.55"/>
</g>
<!-- /lib/files/file_ora.dart -->
<g id="node33" class="node">
<title>/lib/files/file_ora.dart</title>
<path fill="Lavender" stroke="black" stroke-width="1.3" d="M3042.38,-303C3042.38,-303 3001.62,-303 3001.62,-303 2995.62,-303 2989.62,-297 2989.62,-291 2989.62,-291 2989.62,-279 2989.62,-279 2989.62,-273 2995.62,-267 3001.62,-267 3001.62,-267 3042.38,-267 3042.38,-267 3048.38,-267 3054.38,-273 3054.38,-279 3054.38,-279 3054.38,-291 3054.38,-291 3054.38,-297 3048.38,-303 3042.38,-303"/>
<text text-anchor="middle" x="3022" y="-279.75" font-family="Arial" font-size="15.00">file_ora</text>
</g>
<!-- /lib/files/export_download_web.dart&#45;&gt;/lib/files/file_ora.dart -->
<g id="edge64" class="edge">
<title>/lib/files/export_download_web.dart&#45;&gt;/lib/files/file_ora.dart</title>
<path fill="none" stroke="#aabbaa" stroke-width="1.3" stroke-opacity="0.533333" d="M3137.46,-349.62C3116.03,-337.81 3087.43,-322.05 3064.06,-309.18"/>
<polygon fill="#aabbaa" fill-opacity="0.533333" stroke="#aabbaa" stroke-width="1.3" stroke-opacity="0.533333" points="3065.91,-306.2 3055.46,-304.44 3062.53,-312.33 3065.91,-306.2"/>
</g>
<!-- /lib/files/file_ora.dart&#45;&gt;/lib/models/app_model.dart -->
<g id="edge68" class="edge">
<title>/lib/files/file_ora.dart&#45;&gt;/lib/models/app_model.dart</title>
<path fill="none" stroke="#aabbaa" stroke-width="1.3" stroke-opacity="0.533333" d="M2996.45,-266.61C2986.69,-260.75 2975.21,-254.75 2964,-251 2937.65,-242.19 2929.42,-247.48 2902,-243 2838.15,-232.56 2765.4,-217.73 2716.48,-207.32"/>
<polygon fill="#aabbaa" fill-opacity="0.533333" stroke="#aabbaa" stroke-width="1.3" stroke-opacity="0.533333" points="2717.32,-203.92 2706.81,-205.26 2715.85,-210.77 2717.32,-203.92"/>
</g>
<!-- /lib/files/file_ora.dart&#45;&gt;/lib/helpers/list_helper.dart -->
<g id="edge67" class="edge">
<title>/lib/files/file_ora.dart&#45;&gt;/lib/helpers/list_helper.dart</title>
<path fill="none" stroke="#aabbaa" stroke-width="1.3" stroke-opacity="0.533333" d="M3006.2,-266.58C2969.93,-227.92 2876.08,-135.27 2776,-96 2701.27,-66.68 2466.07,-55.9 2359.01,-52.44"/>
<polygon fill="#aabbaa" fill-opacity="0.533333" stroke="#aabbaa" stroke-width="1.3" stroke-opacity="0.533333" points="2359.3,-48.95 2349.19,-52.13 2359.08,-55.94 2359.3,-48.95"/>
</g>
<!-- /lib/files/save.dart&#45;&gt;/lib/models/app_model.dart -->
<g id="edge69" class="edge">
<title>/lib/files/save.dart&#45;&gt;/lib/models/app_model.dart</title>
<path fill="none" stroke="#aabbaa" stroke-width="1.3" stroke-opacity="0.533333" d="M2909.45,-349.68C2904.89,-346.71 2899.95,-343.95 2895,-342 2872.02,-332.94 2862.74,-343.64 2840,-334 2807.05,-320.03 2730.5,-256.14 2688.62,-220.04"/>
<polygon fill="#aabbaa" fill-opacity="0.533333" stroke="#aabbaa" stroke-width="1.3" stroke-opacity="0.533333" points="2691.09,-217.54 2681.24,-213.64 2686.51,-222.84 2691.09,-217.54"/>
</g>
<!-- /lib/files/export_download_non_web.dart -->
<g id="node35" class="node">
<title>/lib/files/export_download_non_web.dart</title>
<path fill="Lavender" stroke="black" stroke-width="1.3" d="M3454.75,-386C3454.75,-386 3281.25,-386 3281.25,-386 3275.25,-386 3269.25,-380 3269.25,-374 3269.25,-374 3269.25,-362 3269.25,-362 3269.25,-356 3275.25,-350 3281.25,-350 3281.25,-350 3454.75,-350 3454.75,-350 3460.75,-350 3466.75,-356 3466.75,-362 3466.75,-362 3466.75,-374 3466.75,-374 3466.75,-380 3460.75,-386 3454.75,-386"/>
<text text-anchor="middle" x="3368" y="-362.75" font-family="Arial" font-size="15.00">export_download_non_web</text>
</g>
<!-- /lib/files/export_download_non_web.dart&#45;&gt;/lib/panels/share_panel.dart -->
<g id="edge73" class="edge">
<title>/lib/files/export_download_non_web.dart&#45;&gt;/lib/panels/share_panel.dart</title>
<path fill="none" stroke="#aabbaa" stroke-width="1.3" stroke-opacity="0.533333" d="M3337.49,-386.26C3314.59,-398.84 3281.98,-414.43 3251,-421 3238.36,-423.68 2333.64,-423.68 2321,-421 2304.12,-417.42 2288.75,-406.15 2276.99,-394.91"/>
<polygon fill="#aabbaa" fill-opacity="0.533333" stroke="#aabbaa" stroke-width="1.3" stroke-opacity="0.533333" points="2279.61,-392.58 2270.12,-387.87 2274.6,-397.47 2279.61,-392.58"/>
</g>
<!-- /lib/files/export_download_non_web.dart&#45;&gt;/lib/models/app_model.dart -->
<g id="edge72" class="edge">
<title>/lib/files/export_download_non_web.dart&#45;&gt;/lib/models/app_model.dart</title>
<path fill="none" stroke="#aabbaa" stroke-width="1.3" stroke-opacity="0.533333" d="M3302.12,-349.56C3288.3,-346.52 3273.74,-343.77 3260,-342 3229.24,-338.04 3009.03,-347.28 2981,-334 2936.87,-313.09 2950.92,-276.05 2909,-251 2849.55,-215.46 2769.85,-202.45 2716.81,-197.7"/>
<polygon fill="#aabbaa" fill-opacity="0.533333" stroke="#aabbaa" stroke-width="1.3" stroke-opacity="0.533333" points="2717.13,-194.21 2706.88,-196.89 2716.57,-201.19 2717.13,-194.21"/>
</g>
<!-- /lib/files/export_download_non_web.dart&#45;&gt;/lib/files/file_jpeg.dart -->
<g id="edge70" class="edge">
<title>/lib/files/export_download_non_web.dart&#45;&gt;/lib/files/file_jpeg.dart</title>
<path fill="none" stroke="#aabbaa" stroke-width="1.3" stroke-opacity="0.533333" d="M3341.61,-349.62C3324.02,-338.04 3300.67,-322.66 3281.33,-309.92"/>
<polygon fill="#aabbaa" fill-opacity="0.533333" stroke="#aabbaa" stroke-width="1.3" stroke-opacity="0.533333" points="3283.26,-307.01 3272.99,-304.43 3279.41,-312.85 3283.26,-307.01"/>
</g>
<!-- /lib/files/export_download_non_web.dart&#45;&gt;/lib/files/file_ora.dart -->
<g id="edge71" class="edge">
<title>/lib/files/export_download_non_web.dart&#45;&gt;/lib/files/file_ora.dart</title>
<path fill="none" stroke="#aabbaa" stroke-width="1.3" stroke-opacity="0.533333" d="M3296.74,-349.52C3284.52,-346.81 3271.93,-344.18 3260,-342 3233.97,-337.23 3226.94,-339.22 3201,-334 3154.32,-324.62 3101.79,-310.04 3065.78,-299.41"/>
<polygon fill="#aabbaa" fill-opacity="0.533333" stroke="#aabbaa" stroke-width="1.3" stroke-opacity="0.533333" points="3067.16,-296.17 3056.58,-296.67 3065.17,-302.88 3067.16,-296.17"/>
</g>
<!-- /lib/files/import_files.dart&#45;&gt;/lib/models/app_model.dart -->
<g id="edge75" class="edge">
<title>/lib/files/import_files.dart&#45;&gt;/lib/models/app_model.dart</title>
<path fill="none" stroke="#aabbaa" stroke-width="1.3" stroke-opacity="0.533333" d="M2987.66,-349.56C2980.94,-346.68 2973.85,-343.98 2967,-342 2942,-334.76 2933.25,-343.44 2909,-334 2848.57,-310.48 2845.68,-282.51 2789,-251 2765.89,-238.16 2739.25,-226.16 2716.21,-216.59"/>
<polygon fill="#aabbaa" fill-opacity="0.533333" stroke="#aabbaa" stroke-width="1.3" stroke-opacity="0.533333" points="2717.61,-213.38 2707.03,-212.84 2714.96,-219.86 2717.61,-213.38"/>
</g>
<!-- /lib/files/import_files.dart&#45;&gt;/lib/files/file_ora.dart -->
<g id="edge74" class="edge">
<title>/lib/files/import_files.dart&#45;&gt;/lib/files/file_ora.dart</title>
<path fill="none" stroke="#aabbaa" stroke-width="1.3" stroke-opacity="0.533333" d="M3022,-349.82C3022,-339.8 3022,-326.88 3022,-315.29"/>
<polygon fill="#aabbaa" fill-opacity="0.533333" stroke="#aabbaa" stroke-width="1.3" stroke-opacity="0.533333" points="3025.5,-315.4 3022,-305.4 3018.5,-315.4 3025.5,-315.4"/>
</g>
<!-- /lib/main_screen.dart&#45;&gt;/lib/panels/side_panel.dart -->
<g id="edge76" class="edge">
<title>/lib/main_screen.dart&#45;&gt;/lib/panels/side_panel.dart</title>
<path fill="none" stroke="#aabbaa" stroke-width="1.3" stroke-opacity="0.533333" d="M2334.21,-589.4C2283.79,-586.16 2210.46,-579.45 2185,-567 2174.43,-561.83 2164.8,-553.39 2156.98,-545.01"/>
<polygon fill="#aabbaa" fill-opacity="0.533333" stroke="#aabbaa" stroke-width="1.3" stroke-opacity="0.533333" points="2159.75,-542.86 2150.55,-537.6 2154.46,-547.44 2159.75,-542.86"/>
</g>
<!-- /lib/main_screen.dart&#45;&gt;/lib/models/app_model.dart -->
<g id="edge78" class="edge">
<title>/lib/main_screen.dart&#45;&gt;/lib/models/app_model.dart</title>
<path fill="none" stroke="#aabbaa" stroke-width="1.3" stroke-opacity="0.533333" d="M2436.23,-589.27C2521.43,-581.66 2683,-552.89 2683,-444 2683,-444 2683,-444 2683,-367 2683,-316.29 2673.06,-257.9 2666.24,-223.86"/>
<polygon fill="#aabbaa" fill-opacity="0.533333" stroke="#aabbaa" stroke-width="1.3" stroke-opacity="0.533333" points="2669.74,-223.49 2664.3,-214.4 2662.89,-224.9 2669.74,-223.49"/>
</g>
<!-- /lib/widgets/canvas_widget.dart -->
<g id="node42" class="node">
<title>/lib/widgets/canvas_widget.dart</title>
<path fill="Lavender" stroke="black" stroke-width="1.3" d="M739.12,-303C739.12,-303 648.88,-303 648.88,-303 642.88,-303 636.88,-297 636.88,-291 636.88,-291 636.88,-279 636.88,-279 636.88,-273 642.88,-267 648.88,-267 648.88,-267 739.12,-267 739.12,-267 745.12,-267 751.12,-273 751.12,-279 751.12,-279 751.12,-291 751.12,-291 751.12,-297 745.12,-303 739.12,-303"/>
<text text-anchor="middle" x="694" y="-279.75" font-family="Arial" font-size="15.00">canvas_widget</text>
</g>
<!-- /lib/main_screen.dart&#45;&gt;/lib/widgets/canvas_widget.dart -->
<g id="edge77" class="edge">
<title>/lib/main_screen.dart&#45;&gt;/lib/widgets/canvas_widget.dart</title>
<path fill="none" stroke="#aabbaa" stroke-width="1.3" stroke-opacity="0.533333" d="M2334.03,-591.79C2169.25,-590.94 1652,-586.7 1486,-567 1166.16,-529.04 1041.5,-600.79 777,-417 740.5,-391.64 716.56,-344.51 704.16,-314.23"/>
<polygon fill="#aabbaa" fill-opacity="0.533333" stroke="#aabbaa" stroke-width="1.3" stroke-opacity="0.533333" points="707.45,-313.03 700.54,-304.99 700.93,-315.58 707.45,-313.03"/>
</g>
<!-- /lib/helpers/image_helper.dart&#45;&gt;/lib/helpers/color_helper.dart -->
<g id="edge79" class="edge">
<title>/lib/helpers/image_helper.dart&#45;&gt;/lib/helpers/color_helper.dart</title>
<path fill="none" stroke="#aabbaa" stroke-width="1.3" stroke-opacity="0.533333" d="M2293.01,-175.7C2292.6,-168.49 2292.11,-159.93 2291.65,-151.82"/>
<polygon fill="#aabbaa" fill-opacity="0.533333" stroke="#aabbaa" stroke-width="1.3" stroke-opacity="0.533333" points="2295.15,-151.85 2291.09,-142.07 2288.17,-152.25 2295.15,-151.85"/>
</g>
<!-- /lib/helpers/color_helper.dart&#45;&gt;/lib/helpers/list_helper.dart -->
<g id="edge80" class="edge">
<title>/lib/helpers/color_helper.dart&#45;&gt;/lib/helpers/list_helper.dart</title>
<path fill="none" stroke="#aabbaa" stroke-width="1.3" stroke-opacity="0.533333" d="M2293.71,-103.7C2295.27,-96.41 2297.13,-87.73 2298.89,-79.54"/>
<polygon fill="#aabbaa" fill-opacity="0.533333" stroke="#aabbaa" stroke-width="1.3" stroke-opacity="0.533333" points="2302.25,-80.54 2300.92,-70.03 2295.4,-79.07 2302.25,-80.54"/>
</g>
<!-- /lib/widgets/color_picker_dialog.dart -->
<g id="node41" class="node">
<title>/lib/widgets/color_picker_dialog.dart</title>
<path fill="Lavender" stroke="black" stroke-width="1.3" d="M319.75,-303C319.75,-303 200.25,-303 200.25,-303 194.25,-303 188.25,-297 188.25,-291 188.25,-291 188.25,-279 188.25,-279 188.25,-273 194.25,-267 200.25,-267 200.25,-267 319.75,-267 319.75,-267 325.75,-267 331.75,-273 331.75,-279 331.75,-279 331.75,-291 331.75,-291 331.75,-297 325.75,-303 319.75,-303"/>
<text text-anchor="middle" x="260" y="-279.75" font-family="Arial" font-size="15.00">color_picker_dialog</text>
</g>
<!-- /lib/widgets/color_picker_dialog.dart&#45;&gt;/lib/models/app_model.dart -->
<g id="edge82" class="edge">
<title>/lib/widgets/color_picker_dialog.dart&#45;&gt;/lib/models/app_model.dart</title>
<path fill="none" stroke="#aabbaa" stroke-width="1.3" stroke-opacity="0.533333" d="M294.58,-266.5C308.61,-260.32 325.21,-254.12 341,-251 402.18,-238.9 2526.23,-260.8 2586,-243 2602.14,-238.19 2618.07,-228.66 2630.99,-219.35"/>
<polygon fill="#aabbaa" fill-opacity="0.533333" stroke="#aabbaa" stroke-width="1.3" stroke-opacity="0.533333" points="2632.8,-222.36 2638.67,-213.54 2628.58,-216.78 2632.8,-222.36"/>
</g>
<!-- /lib/widgets/color_picker_dialog.dart&#45;&gt;/lib/helpers/color_helper.dart -->
<g id="edge81" class="edge">
<title>/lib/widgets/color_picker_dialog.dart&#45;&gt;/lib/helpers/color_helper.dart</title>
<path fill="none" stroke="#aabbaa" stroke-width="1.3" stroke-opacity="0.533333" d="M295.48,-266.66C309.36,-260.65 325.61,-254.54 341,-251 388.2,-240.14 1904.57,-146.65 2229.21,-126.72"/>
<polygon fill="#aabbaa" fill-opacity="0.533333" stroke="#aabbaa" stroke-width="1.3" stroke-opacity="0.533333" points="2228.96,-130.25 2238.73,-126.14 2228.54,-123.26 2228.96,-130.25"/>
</g>
<!-- /lib/widgets/color_picker_dialog.dart&#45;&gt;/lib/widgets/transparent_background.dart -->
<g id="edge86" class="edge">
<title>/lib/widgets/color_picker_dialog.dart&#45;&gt;/lib/widgets/transparent_background.dart</title>
<path fill="none" stroke="#aabbaa" stroke-width="1.3" stroke-opacity="0.533333" d="M268.33,-266.87C271.39,-259.67 274.47,-251.11 276,-243 281.51,-213.74 279.81,-205.53 276,-176 271.29,-139.54 272.94,-128.09 255,-96 251.1,-89.03 245.87,-82.33 240.4,-76.33"/>
<polygon fill="#aabbaa" fill-opacity="0.533333" stroke="#aabbaa" stroke-width="1.3" stroke-opacity="0.533333" points="243.21,-74.2 233.72,-69.5 238.21,-79.1 243.21,-74.2"/>
</g>
<!-- /lib/widgets/color_picker_dialog.dart&#45;&gt;/lib/widgets/color_preview.dart -->
<g id="edge83" class="edge">
<title>/lib/widgets/color_picker_dialog.dart&#45;&gt;/lib/widgets/color_preview.dart</title>
<path fill="none" stroke="#aabbaa" stroke-width="1.3" stroke-opacity="0.533333" d="M199.75,-266.64C189.14,-260.84 179.44,-253.15 173,-243 155.59,-215.55 163.71,-177.27 172.79,-151.39"/>
<polygon fill="#aabbaa" fill-opacity="0.533333" stroke="#aabbaa" stroke-width="1.3" stroke-opacity="0.533333" points="175.97,-152.88 176.25,-142.29 169.43,-150.39 175.97,-152.88"/>
</g>
<!-- /lib/widgets/color_picker_dialog.dart&#45;&gt;/lib/widgets/top_colors.dart -->
<g id="edge85" class="edge">
<title>/lib/widgets/color_picker_dialog.dart&#45;&gt;/lib/widgets/top_colors.dart</title>
<path fill="none" stroke="#aabbaa" stroke-width="1.3" stroke-opacity="0.533333" d="M253.06,-266.84C248.06,-254.48 241.21,-237.54 235.41,-223.21"/>
<polygon fill="#aabbaa" fill-opacity="0.533333" stroke="#aabbaa" stroke-width="1.3" stroke-opacity="0.533333" points="238.77,-222.19 231.78,-214.24 232.29,-224.82 238.77,-222.19"/>
</g>
<!-- /lib/widgets/color_picker_dialog.dart&#45;&gt;/lib/widgets/color_selector.dart -->
<g id="edge84" class="edge">
<title>/lib/widgets/color_picker_dialog.dart&#45;&gt;/lib/widgets/color_selector.dart</title>
<path fill="none" stroke="#aabbaa" stroke-width="1.3" stroke-opacity="0.533333" d="M273.82,-266.84C287.35,-253.51 308.11,-234.82 325.95,-219.85"/>
<polygon fill="#aabbaa" fill-opacity="0.533333" stroke="#aabbaa" stroke-width="1.3" stroke-opacity="0.533333" points="327.96,-222.73 333.44,-213.66 323.5,-217.34 327.96,-222.73"/>
</g>
<!-- /lib/widgets/canvas_widget.dart&#45;&gt;/lib/panels/tools/flood_fill.dart -->
<g id="edge89" class="edge">
<title>/lib/widgets/canvas_widget.dart&#45;&gt;/lib/panels/tools/flood_fill.dart</title>
<path fill="none" stroke="#aabbaa" stroke-width="1.3" stroke-opacity="0.533333" d="M713.9,-303.35C726.42,-313.51 743.31,-325.89 760,-334 881.73,-393.17 919.11,-397.19 1053,-417 1099.56,-423.89 1414.46,-415.45 1494.21,-424.2"/>
<polygon fill="#aabbaa" fill-opacity="0.533333" stroke="#aabbaa" stroke-width="1.3" stroke-opacity="0.533333" points="1493.56,-427.65 1503.97,-425.68 1494.61,-420.73 1493.56,-427.65"/>
</g>
<!-- /lib/widgets/canvas_widget.dart&#45;&gt;/lib/panels/canvas_panel.dart -->
<g id="edge88" class="edge">
<title>/lib/widgets/canvas_widget.dart&#45;&gt;/lib/panels/canvas_panel.dart</title>
<path fill="none" stroke="#aabbaa" stroke-width="1.3" stroke-opacity="0.533333" d="M711.03,-303.27C725.04,-316.61 746.23,-333.17 769,-338 786.4,-341.69 2032.51,-341.29 2050,-338 2080.59,-332.25 2113.13,-319.82 2138.71,-308.44"/>
<polygon fill="#aabbaa" fill-opacity="0.533333" stroke="#aabbaa" stroke-width="1.3" stroke-opacity="0.533333" points="2140.15,-311.63 2147.79,-304.3 2137.24,-305.26 2140.15,-311.63"/>
</g>
<!-- /lib/widgets/canvas_widget.dart&#45;&gt;/lib/models/app_model.dart -->
<g id="edge87" class="edge">
<title>/lib/widgets/canvas_widget.dart&#45;&gt;/lib/models/app_model.dart</title>
<path fill="none" stroke="#aabbaa" stroke-width="1.3" stroke-opacity="0.533333" d="M721.82,-266.53C733.2,-260.35 746.79,-254.15 760,-251 809.34,-239.24 2537.39,-257.5 2586,-243 2602.14,-238.19 2618.07,-228.65 2630.99,-219.34"/>
<polygon fill="#aabbaa" fill-opacity="0.533333" stroke="#aabbaa" stroke-width="1.3" stroke-opacity="0.533333" points="2632.8,-222.35 2638.67,-213.53 2628.58,-216.77 2632.8,-222.35"/>
</g>
<!-- /lib/widgets/color_preview.dart&#45;&gt;/lib/helpers/color_helper.dart -->
<g id="edge90" class="edge">
<title>/lib/widgets/color_preview.dart&#45;&gt;/lib/helpers/color_helper.dart</title>
<path fill="none" stroke="#aabbaa" stroke-width="1.3" stroke-opacity="0.533333" d="M239.22,-122C902.46,-122 1565.71,-122 2228.96,-122"/>
<polygon fill="#aabbaa" fill-opacity="0.533333" stroke="#aabbaa" stroke-width="1.3" stroke-opacity="0.533333" points="2228.72,-125.5 2238.72,-122 2228.72,-118.5 2228.72,-125.5"/>
</g>
<!-- /lib/widgets/color_preview.dart&#45;&gt;/lib/widgets/transparent_background.dart -->
<g id="edge91" class="edge">
<title>/lib/widgets/color_preview.dart&#45;&gt;/lib/widgets/transparent_background.dart</title>
<path fill="none" stroke="#aabbaa" stroke-width="1.3" stroke-opacity="0.533333" d="M191.67,-103.7C194.52,-96.32 197.91,-87.52 201.1,-79.25"/>
<polygon fill="#aabbaa" fill-opacity="0.533333" stroke="#aabbaa" stroke-width="1.3" stroke-opacity="0.533333" points="204.36,-80.53 204.69,-69.94 197.83,-78.01 204.36,-80.53"/>
</g>
<!-- /lib/widgets/top_colors.dart&#45;&gt;/lib/models/app_model.dart -->
<g id="edge93" class="edge">
<title>/lib/widgets/top_colors.dart&#45;&gt;/lib/models/app_model.dart</title>
<path fill="none" stroke="#aabbaa" stroke-width="1.3" stroke-opacity="0.533333" d="M243.32,-212.37C258.84,-225.57 281.96,-241.9 306,-247 321.53,-250.3 2576.47,-250.3 2592,-247 2609.03,-243.38 2624.63,-232.11 2636.58,-220.88"/>
<polygon fill="#aabbaa" fill-opacity="0.533333" stroke="#aabbaa" stroke-width="1.3" stroke-opacity="0.533333" points="2639.02,-223.39 2643.58,-213.83 2634.05,-218.46 2639.02,-223.39"/>
</g>
<!-- /lib/widgets/top_colors.dart&#45;&gt;/lib/helpers/color_helper.dart -->
<g id="edge92" class="edge">
<title>/lib/widgets/top_colors.dart&#45;&gt;/lib/helpers/color_helper.dart</title>
<path fill="none" stroke="#aabbaa" stroke-width="1.3" stroke-opacity="0.533333" d="M266.97,-181.47C276.77,-179.27 287.19,-177.26 297,-176 395.03,-163.41 1905.06,-131.09 2229.08,-124.27"/>
<polygon fill="#aabbaa" fill-opacity="0.533333" stroke="#aabbaa" stroke-width="1.3" stroke-opacity="0.533333" points="2229.09,-127.77 2239.01,-124.06 2228.94,-120.78 2229.09,-127.77"/>
</g>
<!-- /lib/widgets/top_colors.dart&#45;&gt;/lib/widgets/transparent_background.dart -->
<g id="edge95" class="edge">
<title>/lib/widgets/top_colors.dart&#45;&gt;/lib/widgets/transparent_background.dart</title>
<path fill="none" stroke="#aabbaa" stroke-width="1.3" stroke-opacity="0.533333" d="M234.35,-175.54C244.61,-155.89 257.53,-123.17 248,-96 245.67,-89.35 241.89,-82.95 237.64,-77.16"/>
<polygon fill="#aabbaa" fill-opacity="0.533333" stroke="#aabbaa" stroke-width="1.3" stroke-opacity="0.533333" points="240.5,-75.13 231.46,-69.6 235.08,-79.56 240.5,-75.13"/>
</g>
<!-- /lib/widgets/top_colors.dart&#45;&gt;/lib/widgets/color_preview.dart -->
<g id="edge94" class="edge">
<title>/lib/widgets/top_colors.dart&#45;&gt;/lib/widgets/color_preview.dart</title>
<path fill="none" stroke="#aabbaa" stroke-width="1.3" stroke-opacity="0.533333" d="M214.36,-175.7C210.11,-168.07 205.01,-158.92 200.26,-150.4"/>
<polygon fill="#aabbaa" fill-opacity="0.533333" stroke="#aabbaa" stroke-width="1.3" stroke-opacity="0.533333" points="203.41,-148.86 195.49,-141.82 197.3,-152.26 203.41,-148.86"/>
</g>
<!-- /lib/widgets/brush_style_picker.dart&#45;&gt;/lib/models/app_model.dart -->
<g id="edge96" class="edge">
<title>/lib/widgets/brush_style_picker.dart&#45;&gt;/lib/models/app_model.dart</title>
<path fill="none" stroke="#aabbaa" stroke-width="1.3" stroke-opacity="0.533333" d="M582.68,-266.51C596.36,-260.32 612.56,-254.13 628,-251 681.31,-240.2 2533.88,-258.54 2586,-243 2602.14,-238.19 2618.07,-228.65 2630.99,-219.34"/>
<polygon fill="#aabbaa" fill-opacity="0.533333" stroke="#aabbaa" stroke-width="1.3" stroke-opacity="0.533333" points="2632.8,-222.36 2638.67,-213.53 2628.58,-216.77 2632.8,-222.36"/>
</g>
<!-- /lib/widgets/color_selector.dart&#45;&gt;/lib/helpers/list_helper.dart -->
<g id="edge98" class="edge">
<title>/lib/widgets/color_selector.dart&#45;&gt;/lib/helpers/list_helper.dart</title>
<path fill="none" stroke="#aabbaa" stroke-width="1.3" stroke-opacity="0.533333" d="M414.82,-189C695.87,-168.48 1972.76,-75.26 2251.26,-54.92"/>
<polygon fill="#aabbaa" fill-opacity="0.533333" stroke="#aabbaa" stroke-width="1.3" stroke-opacity="0.533333" points="2251.33,-58.43 2261.05,-54.21 2250.82,-51.45 2251.33,-58.43"/>
</g>
<!-- /lib/widgets/color_selector.dart&#45;&gt;/lib/helpers/color_helper.dart -->
<g id="edge97" class="edge">
<title>/lib/widgets/color_selector.dart&#45;&gt;/lib/helpers/color_helper.dart</title>
<path fill="none" stroke="#aabbaa" stroke-width="1.3" stroke-opacity="0.533333" d="M414.91,-191.01C692.39,-180.94 1938.58,-135.75 2229.25,-125.2"/>
<polygon fill="#aabbaa" fill-opacity="0.533333" stroke="#aabbaa" stroke-width="1.3" stroke-opacity="0.533333" points="2228.95,-128.72 2238.82,-124.86 2228.7,-121.72 2228.95,-128.72"/>
</g>
<!-- /lib/widgets/color_selector.dart&#45;&gt;/lib/widgets/color_picker_dialog.dart -->
<g id="edge99" class="edge">
<title>/lib/widgets/color_selector.dart&#45;&gt;/lib/widgets/color_picker_dialog.dart</title>
<path fill="none" stroke="#aabbaa" stroke-width="1.3" stroke-opacity="0.533333" d="M346.01,-212.33C332.46,-225.67 311.75,-244.29 293.97,-259.21"/>
<polygon fill="#aabbaa" fill-opacity="0.533333" stroke="#aabbaa" stroke-width="1.3" stroke-opacity="0.533333" points="292,-256.31 286.52,-265.38 296.45,-261.7 292,-256.31"/>
</g>
<!-- /lib/widgets/color_selector.dart&#45;&gt;/lib/widgets/transparent_background.dart -->
<g id="edge100" class="edge">
<title>/lib/widgets/color_selector.dart&#45;&gt;/lib/widgets/transparent_background.dart</title>
<path fill="none" stroke="#aabbaa" stroke-width="1.3" stroke-opacity="0.533333" d="M350.9,-175.86C339.19,-155.02 317.21,-119.7 291,-96 281.86,-87.74 270.95,-80.33 260.2,-74.02"/>
<polygon fill="#aabbaa" fill-opacity="0.533333" stroke="#aabbaa" stroke-width="1.3" stroke-opacity="0.533333" points="262.16,-71.11 251.72,-69.28 258.74,-77.22 262.16,-71.11"/>
</g>
</g>
</svg>
