<?xml version="1.0" encoding="UTF-8" standalone="no"?>
<!DOCTYPE svg PUBLIC "-//W3C//DTD SVG 1.1//EN"
 "http://www.w3.org/Graphics/SVG/1.1/DTD/svg11.dtd">
<!-- Generated by graphviz version 12.2.1 (20241206.2353)
 -->
<!-- Pages: 1 -->
<svg width="296pt" height="437pt"
 viewBox="0.00 0.00 296.00 437.00" xmlns="http://www.w3.org/2000/svg" xmlns:xlink="http://www.w3.org/1999/xlink">
<g id="graph0" class="graph" transform="scale(1 1) rotate(0) translate(4 433)">
<polygon fill="white" stroke="none" points="-4,4 -4,-433 292,-433 292,4 -4,4"/>
<g id="clust1" class="cluster">
<title>cluster~</title>
<path fill="none" stroke="lightgray" stroke-width="2.6" d="M20,-8C20,-8 268,-8 268,-8 274,-8 280,-14 280,-20 280,-20 280,-409 280,-409 280,-415 274,-421 268,-421 268,-421 20,-421 20,-421 14,-421 8,-415 8,-409 8,-409 8,-20 8,-20 8,-14 14,-8 20,-8"/>
<text text-anchor="middle" x="144" y="-404.65" font-family="Arial Black" font-size="13.00">fpaint</text>
</g>
<g id="clust2" class="cluster">
<title>cluster~/test</title>
<path fill="none" stroke="lightgray" stroke-width="2.6" d="M28,-315C28,-315 260,-315 260,-315 266,-315 272,-321 272,-327 272,-327 272,-378 272,-378 272,-384 266,-390 260,-390 260,-390 28,-390 28,-390 22,-390 16,-384 16,-378 16,-378 16,-327 16,-327 16,-321 22,-315 28,-315"/>
<text text-anchor="middle" x="144" y="-373.65" font-family="Arial Black" font-size="13.00">test</text>
</g>
<g id="clust3" class="cluster">
<title>cluster~/lib</title>
<path fill="none" stroke="lightgray" stroke-width="2.6" d="M48,-16C48,-16 260,-16 260,-16 266,-16 272,-22 272,-28 272,-28 272,-295 272,-295 272,-301 266,-307 260,-307 260,-307 48,-307 48,-307 42,-307 36,-301 36,-295 36,-295 36,-28 36,-28 36,-22 42,-16 48,-16"/>
<text text-anchor="middle" x="154" y="-290.65" font-family="Arial Black" font-size="13.00">lib</text>
</g>
<!-- /test/paint_model_test.dart -->
<g id="node1" class="node">
<title>/test/paint_model_test.dart</title>
<path fill="Lavender" stroke="black" stroke-width="1.3" d="M142,-359C142,-359 36,-359 36,-359 30,-359 24,-353 24,-347 24,-347 24,-335 24,-335 24,-329 30,-323 36,-323 36,-323 142,-323 142,-323 148,-323 154,-329 154,-335 154,-335 154,-347 154,-347 154,-353 148,-359 142,-359"/>
<text text-anchor="middle" x="89" y="-335.75" font-family="Arial" font-size="15.00">paint_model_test</text>
</g>
<!-- /lib/paint_model.dart -->
<g id="node4" class="node">
<title>/lib/paint_model.dart</title>
<path fill="Lavender" stroke="black" stroke-width="1.3" d="M129.5,-60C129.5,-60 56.5,-60 56.5,-60 50.5,-60 44.5,-54 44.5,-48 44.5,-48 44.5,-36 44.5,-36 44.5,-30 50.5,-24 56.5,-24 56.5,-24 129.5,-24 129.5,-24 135.5,-24 141.5,-30 141.5,-36 141.5,-36 141.5,-48 141.5,-48 141.5,-54 135.5,-60 129.5,-60"/>
<text text-anchor="middle" x="93" y="-36.75" font-family="Arial" font-size="15.00">paint_model</text>
</g>
<!-- /test/paint_model_test.dart&#45;&gt;/lib/paint_model.dart -->
<g id="edge1" class="edge">
<title>/test/paint_model_test.dart&#45;&gt;/lib/paint_model.dart</title>
<path fill="none" stroke="#aabbaa" stroke-width="1.3" stroke-opacity="0.533333" d="M81.45,-322.69C64.83,-282.1 28.63,-178.05 55,-96 58.02,-86.6 63.39,-77.46 69.16,-69.49"/>
<polygon fill="#aabbaa" fill-opacity="0.533333" stroke="#aabbaa" stroke-width="1.3" stroke-opacity="0.533333" points="71.91,-71.66 75.32,-61.63 66.4,-67.34 71.91,-71.66"/>
</g>
<!-- /test/widget_test.dart -->
<g id="node2" class="node">
<title>/test/widget_test.dart</title>
<path fill="Lavender" stroke="black" stroke-width="1.3" d="M251.88,-359C251.88,-359 184.12,-359 184.12,-359 178.12,-359 172.12,-353 172.12,-347 172.12,-347 172.12,-335 172.12,-335 172.12,-329 178.12,-323 184.12,-323 184.12,-323 251.88,-323 251.88,-323 257.88,-323 263.88,-329 263.88,-335 263.88,-335 263.88,-347 263.88,-347 263.88,-353 257.88,-359 251.88,-359"/>
<text text-anchor="middle" x="218" y="-335.75" font-family="Arial" font-size="15.00">widget_test</text>
</g>
<!-- /lib/main.dart -->
<g id="node3" class="node">
<title>/lib/main.dart</title>
<path fill="Lavender" stroke="black" stroke-width="1.3" d="M149,-276C149,-276 119,-276 119,-276 113,-276 107,-270 107,-264 107,-264 107,-252 107,-252 107,-246 113,-240 119,-240 119,-240 149,-240 149,-240 155,-240 161,-246 161,-252 161,-252 161,-264 161,-264 161,-270 155,-276 149,-276"/>
<text text-anchor="middle" x="134" y="-252.75" font-family="Arial" font-size="15.00">main</text>
</g>
<!-- /test/widget_test.dart&#45;&gt;/lib/main.dart -->
<g id="edge2" class="edge">
<title>/test/widget_test.dart&#45;&gt;/lib/main.dart</title>
<path fill="none" stroke="#aabbaa" stroke-width="1.3" stroke-opacity="0.533333" d="M200.19,-322.82C188.68,-311.73 173.51,-297.09 160.59,-284.64"/>
<polygon fill="#aabbaa" fill-opacity="0.533333" stroke="#aabbaa" stroke-width="1.3" stroke-opacity="0.533333" points="163.12,-282.22 153.49,-277.8 158.26,-287.26 163.12,-282.22"/>
</g>
<!-- /lib/main.dart&#45;&gt;/lib/paint_model.dart -->
<g id="edge4" class="edge">
<title>/lib/main.dart&#45;&gt;/lib/paint_model.dart</title>
<path fill="none" stroke="#aabbaa" stroke-width="1.3" stroke-opacity="0.533333" d="M106.57,-240.87C93.74,-231.77 79.64,-219.18 72,-204 50.39,-161.08 56.14,-142.81 67,-96 68.98,-87.45 72.55,-78.69 76.42,-70.82"/>
<polygon fill="#aabbaa" fill-opacity="0.533333" stroke="#aabbaa" stroke-width="1.3" stroke-opacity="0.533333" points="79.43,-72.6 81.03,-62.13 73.25,-69.32 79.43,-72.6"/>
</g>
<!-- /lib/home_screen.dart -->
<g id="node7" class="node">
<title>/lib/home_screen.dart</title>
<path fill="Lavender" stroke="black" stroke-width="1.3" d="M175.38,-204C175.38,-204 92.62,-204 92.62,-204 86.62,-204 80.62,-198 80.62,-192 80.62,-192 80.62,-180 80.62,-180 80.62,-174 86.62,-168 92.62,-168 92.62,-168 175.38,-168 175.38,-168 181.38,-168 187.38,-174 187.38,-180 187.38,-180 187.38,-192 187.38,-192 187.38,-198 181.38,-204 175.38,-204"/>
<text text-anchor="middle" x="134" y="-180.75" font-family="Arial" font-size="15.00">home_screen</text>
</g>
<!-- /lib/main.dart&#45;&gt;/lib/home_screen.dart -->
<g id="edge3" class="edge">
<title>/lib/main.dart&#45;&gt;/lib/home_screen.dart</title>
<path fill="none" stroke="#aabbaa" stroke-width="1.3" stroke-opacity="0.533333" d="M134,-239.7C134,-232.49 134,-223.93 134,-215.82"/>
<polygon fill="#aabbaa" fill-opacity="0.533333" stroke="#aabbaa" stroke-width="1.3" stroke-opacity="0.533333" points="137.5,-216.07 134,-206.07 130.5,-216.07 137.5,-216.07"/>
</g>
<!-- /lib/layers_panel.dart -->
<g id="node5" class="node">
<title>/lib/layers_panel.dart</title>
<path fill="Lavender" stroke="black" stroke-width="1.3" d="M172,-132C172,-132 96,-132 96,-132 90,-132 84,-126 84,-120 84,-120 84,-108 84,-108 84,-102 90,-96 96,-96 96,-96 172,-96 172,-96 178,-96 184,-102 184,-108 184,-108 184,-120 184,-120 184,-126 178,-132 172,-132"/>
<text text-anchor="middle" x="134" y="-108.75" font-family="Arial" font-size="15.00">layers_panel</text>
</g>
<!-- /lib/layers_panel.dart&#45;&gt;/lib/paint_model.dart -->
<g id="edge5" class="edge">
<title>/lib/layers_panel.dart&#45;&gt;/lib/paint_model.dart</title>
<path fill="none" stroke="#aabbaa" stroke-width="1.3" stroke-opacity="0.533333" d="M123.87,-95.7C119.4,-88.07 114.04,-78.92 109.05,-70.4"/>
<polygon fill="#aabbaa" fill-opacity="0.533333" stroke="#aabbaa" stroke-width="1.3" stroke-opacity="0.533333" points="112.09,-68.66 104.01,-61.8 106.05,-72.2 112.09,-68.66"/>
</g>
<!-- /lib/painter.dart -->
<g id="node6" class="node">
<title>/lib/painter.dart</title>
<path fill="Lavender" stroke="black" stroke-width="1.3" d="M251.88,-132C251.88,-132 214.12,-132 214.12,-132 208.12,-132 202.12,-126 202.12,-120 202.12,-120 202.12,-108 202.12,-108 202.12,-102 208.12,-96 214.12,-96 214.12,-96 251.88,-96 251.88,-96 257.88,-96 263.88,-102 263.88,-108 263.88,-108 263.88,-120 263.88,-120 263.88,-126 257.88,-132 251.88,-132"/>
<text text-anchor="middle" x="233" y="-108.75" font-family="Arial" font-size="15.00">painter</text>
</g>
<!-- /lib/painter.dart&#45;&gt;/lib/paint_model.dart -->
<g id="edge6" class="edge">
<title>/lib/painter.dart&#45;&gt;/lib/paint_model.dart</title>
<path fill="none" stroke="#aabbaa" stroke-width="1.3" stroke-opacity="0.533333" d="M201.93,-97.46C183.27,-88.14 159.2,-76.1 138.43,-65.72"/>
<polygon fill="#aabbaa" fill-opacity="0.533333" stroke="#aabbaa" stroke-width="1.3" stroke-opacity="0.533333" points="140.19,-62.68 129.68,-61.34 137.06,-68.94 140.19,-62.68"/>
</g>
<!-- /lib/home_screen.dart&#45;&gt;/lib/paint_model.dart -->
<g id="edge8" class="edge">
<title>/lib/home_screen.dart&#45;&gt;/lib/paint_model.dart</title>
<path fill="none" stroke="#aabbaa" stroke-width="1.3" stroke-opacity="0.533333" d="M105.89,-167.64C94.01,-158.63 81.45,-146.46 75,-132 66.42,-112.75 71.71,-89.33 78.73,-71.35"/>
<polygon fill="#aabbaa" fill-opacity="0.533333" stroke="#aabbaa" stroke-width="1.3" stroke-opacity="0.533333" points="81.92,-72.78 82.67,-62.22 75.49,-70.01 81.92,-72.78"/>
</g>
<!-- /lib/home_screen.dart&#45;&gt;/lib/layers_panel.dart -->
<g id="edge7" class="edge">
<title>/lib/home_screen.dart&#45;&gt;/lib/layers_panel.dart</title>
<path fill="none" stroke="#aabbaa" stroke-width="1.3" stroke-opacity="0.533333" d="M134,-167.7C134,-160.49 134,-151.93 134,-143.82"/>
<polygon fill="#aabbaa" fill-opacity="0.533333" stroke="#aabbaa" stroke-width="1.3" stroke-opacity="0.533333" points="137.5,-144.07 134,-134.07 130.5,-144.07 137.5,-144.07"/>
</g>
<!-- /lib/home_screen.dart&#45;&gt;/lib/painter.dart -->
<g id="edge9" class="edge">
<title>/lib/home_screen.dart&#45;&gt;/lib/painter.dart</title>
<path fill="none" stroke="#aabbaa" stroke-width="1.3" stroke-opacity="0.533333" d="M158.73,-167.52C170.87,-158.93 185.68,-148.46 198.88,-139.12"/>
<polygon fill="#aabbaa" fill-opacity="0.533333" stroke="#aabbaa" stroke-width="1.3" stroke-opacity="0.533333" points="200.84,-142.03 206.98,-133.4 196.8,-136.31 200.84,-142.03"/>
</g>
</g>
</svg>
