<?xml version="1.0" encoding="UTF-8" standalone="no"?>
<!DOCTYPE svg PUBLIC "-//W3C//DTD SVG 1.1//EN"
 "http://www.w3.org/Graphics/SVG/1.1/DTD/svg11.dtd">
<!-- Generated by graphviz version 12.2.1 (20241206.2353)
 -->
<!-- Pages: 1 -->
<svg width="572pt" height="448pt"
 viewBox="0.00 0.00 572.00 448.00" xmlns="http://www.w3.org/2000/svg" xmlns:xlink="http://www.w3.org/1999/xlink">
<g id="graph0" class="graph" transform="scale(1 1) rotate(0) translate(4 444)">
<polygon fill="white" stroke="none" points="-4,4 -4,-444 568,-444 568,4 -4,4"/>
<g id="clust1" class="cluster">
<title>cluster~</title>
<path fill="none" stroke="lightgray" stroke-width="2.6" d="M20,-8C20,-8 544,-8 544,-8 550,-8 556,-14 556,-20 556,-20 556,-420 556,-420 556,-426 550,-432 544,-432 544,-432 20,-432 20,-432 14,-432 8,-426 8,-420 8,-420 8,-20 8,-20 8,-14 14,-8 20,-8"/>
<text text-anchor="middle" x="282" y="-415.65" font-family="Arial Black" font-size="13.00">fpaint</text>
</g>
<g id="clust2" class="cluster">
<title>cluster~/test</title>
<path fill="none" stroke="lightgray" stroke-width="2.6" d="M28,-326C28,-326 260,-326 260,-326 266,-326 272,-332 272,-338 272,-338 272,-389 272,-389 272,-395 266,-401 260,-401 260,-401 28,-401 28,-401 22,-401 16,-395 16,-389 16,-389 16,-338 16,-338 16,-332 22,-326 28,-326"/>
<text text-anchor="middle" x="144" y="-384.65" font-family="Arial Black" font-size="13.00">test</text>
</g>
<g id="clust3" class="cluster">
<title>cluster~/lib</title>
<path fill="none" stroke="lightgray" stroke-width="2.6" d="M28,-16C28,-16 536,-16 536,-16 542,-16 548,-22 548,-28 548,-28 548,-306 548,-306 548,-312 542,-318 536,-318 536,-318 28,-318 28,-318 22,-318 16,-312 16,-306 16,-306 16,-28 16,-28 16,-22 22,-16 28,-16"/>
<text text-anchor="middle" x="282" y="-301.65" font-family="Arial Black" font-size="13.00">lib</text>
</g>
<g id="clust4" class="cluster">
<title>cluster~/lib/panels</title>
<path fill="none" stroke="lightgray" stroke-width="2.6" d="M326,-24C326,-24 528,-24 528,-24 534,-24 540,-30 540,-36 540,-36 540,-159 540,-159 540,-165 534,-171 528,-171 528,-171 326,-171 326,-171 320,-171 314,-165 314,-159 314,-159 314,-36 314,-36 314,-30 320,-24 326,-24"/>
<text text-anchor="middle" x="427" y="-154.65" font-family="Arial Black" font-size="13.00">panels</text>
</g>
<g id="clust5" class="cluster">
<title>cluster~/lib/models</title>
<path fill="none" stroke="lightgray" stroke-width="2.6" d="M36,-24C36,-24 200,-24 200,-24 206,-24 212,-30 212,-36 212,-36 212,-159 212,-159 212,-165 206,-171 200,-171 200,-171 36,-171 36,-171 30,-171 24,-165 24,-159 24,-159 24,-36 24,-36 24,-30 30,-24 36,-24"/>
<text text-anchor="middle" x="118" y="-154.65" font-family="Arial Black" font-size="13.00">models</text>
</g>
<!-- /test/paint_model_test.dart -->
<g id="node1" class="node">
<title>/test/paint_model_test.dart</title>
<path fill="Lavender" stroke="black" stroke-width="1.3" d="M142,-370C142,-370 36,-370 36,-370 30,-370 24,-364 24,-358 24,-358 24,-346 24,-346 24,-340 30,-334 36,-334 36,-334 142,-334 142,-334 148,-334 154,-340 154,-346 154,-346 154,-358 154,-358 154,-364 148,-370 142,-370"/>
<text text-anchor="middle" x="89" y="-346.75" font-family="Arial" font-size="15.00">paint_model_test</text>
</g>
<!-- /lib/models/app_model.dart -->
<g id="node8" class="node">
<title>/lib/models/app_model.dart</title>
<path fill="Lavender" stroke="black" stroke-width="1.3" d="M109.75,-68C109.75,-68 44.25,-68 44.25,-68 38.25,-68 32.25,-62 32.25,-56 32.25,-56 32.25,-44 32.25,-44 32.25,-38 38.25,-32 44.25,-32 44.25,-32 109.75,-32 109.75,-32 115.75,-32 121.75,-38 121.75,-44 121.75,-44 121.75,-56 121.75,-56 121.75,-62 115.75,-68 109.75,-68"/>
<text text-anchor="middle" x="77" y="-44.75" font-family="Arial" font-size="15.00">app_model</text>
</g>
<!-- /test/paint_model_test.dart&#45;&gt;/lib/models/app_model.dart -->
<g id="edge1" class="edge">
<title>/test/paint_model_test.dart&#45;&gt;/lib/models/app_model.dart</title>
<path fill="none" stroke="#aabbaa" stroke-width="1.3" stroke-opacity="0.533333" d="M84.67,-333.63C83.6,-328.62 82.59,-323.12 82,-318 72.16,-231.95 74.02,-129.31 75.74,-80.11"/>
<polygon fill="#aabbaa" fill-opacity="0.533333" stroke="#aabbaa" stroke-width="1.3" stroke-opacity="0.533333" points="79.24,-80.35 76.12,-70.22 72.24,-80.08 79.24,-80.35"/>
</g>
<!-- /test/widget_test.dart -->
<g id="node2" class="node">
<title>/test/widget_test.dart</title>
<path fill="Lavender" stroke="black" stroke-width="1.3" d="M251.88,-370C251.88,-370 184.12,-370 184.12,-370 178.12,-370 172.12,-364 172.12,-358 172.12,-358 172.12,-346 172.12,-346 172.12,-340 178.12,-334 184.12,-334 184.12,-334 251.88,-334 251.88,-334 257.88,-334 263.88,-340 263.88,-346 263.88,-346 263.88,-358 263.88,-358 263.88,-364 257.88,-370 251.88,-370"/>
<text text-anchor="middle" x="218" y="-346.75" font-family="Arial" font-size="15.00">widget_test</text>
</g>
<!-- /lib/main.dart -->
<g id="node9" class="node">
<title>/lib/main.dart</title>
<path fill="Lavender" stroke="black" stroke-width="1.3" d="M233,-287C233,-287 203,-287 203,-287 197,-287 191,-281 191,-275 191,-275 191,-263 191,-263 191,-257 197,-251 203,-251 203,-251 233,-251 233,-251 239,-251 245,-257 245,-263 245,-263 245,-275 245,-275 245,-281 239,-287 233,-287"/>
<text text-anchor="middle" x="218" y="-263.75" font-family="Arial" font-size="15.00">main</text>
</g>
<!-- /test/widget_test.dart&#45;&gt;/lib/main.dart -->
<g id="edge2" class="edge">
<title>/test/widget_test.dart&#45;&gt;/lib/main.dart</title>
<path fill="none" stroke="#aabbaa" stroke-width="1.3" stroke-opacity="0.533333" d="M218,-333.82C218,-323.8 218,-310.88 218,-299.29"/>
<polygon fill="#aabbaa" fill-opacity="0.533333" stroke="#aabbaa" stroke-width="1.3" stroke-opacity="0.533333" points="221.5,-299.4 218,-289.4 214.5,-299.4 221.5,-299.4"/>
</g>
<!-- /lib/panels/tools_panel.dart -->
<g id="node3" class="node">
<title>/lib/panels/tools_panel.dart</title>
<path fill="Lavender" stroke="black" stroke-width="1.3" d="M519.88,-140C519.88,-140 452.12,-140 452.12,-140 446.12,-140 440.12,-134 440.12,-128 440.12,-128 440.12,-116 440.12,-116 440.12,-110 446.12,-104 452.12,-104 452.12,-104 519.88,-104 519.88,-104 525.88,-104 531.88,-110 531.88,-116 531.88,-116 531.88,-128 531.88,-128 531.88,-134 525.88,-140 519.88,-140"/>
<text text-anchor="middle" x="486" y="-116.75" font-family="Arial" font-size="15.00">tools_panel</text>
</g>
<!-- /lib/panels/tool.dart -->
<g id="node5" class="node">
<title>/lib/panels/tool.dart</title>
<path fill="Lavender" stroke="black" stroke-width="1.3" d="M501,-68C501,-68 471,-68 471,-68 465,-68 459,-62 459,-56 459,-56 459,-44 459,-44 459,-38 465,-32 471,-32 471,-32 501,-32 501,-32 507,-32 513,-38 513,-44 513,-44 513,-56 513,-56 513,-62 507,-68 501,-68"/>
<text text-anchor="middle" x="486" y="-44.75" font-family="Arial" font-size="15.00">tool</text>
</g>
<!-- /lib/panels/tools_panel.dart&#45;&gt;/lib/panels/tool.dart -->
<g id="edge4" class="edge">
<title>/lib/panels/tools_panel.dart&#45;&gt;/lib/panels/tool.dart</title>
<path fill="none" stroke="#aabbaa" stroke-width="1.3" stroke-opacity="0.533333" d="M486,-103.7C486,-96.49 486,-87.93 486,-79.82"/>
<polygon fill="#aabbaa" fill-opacity="0.533333" stroke="#aabbaa" stroke-width="1.3" stroke-opacity="0.533333" points="489.5,-80.07 486,-70.07 482.5,-80.07 489.5,-80.07"/>
</g>
<!-- /lib/models/shapes.dart -->
<g id="node7" class="node">
<title>/lib/models/shapes.dart</title>
<path fill="Lavender" stroke="black" stroke-width="1.3" d="M192,-68C192,-68 152,-68 152,-68 146,-68 140,-62 140,-56 140,-56 140,-44 140,-44 140,-38 146,-32 152,-32 152,-32 192,-32 192,-32 198,-32 204,-38 204,-44 204,-44 204,-56 204,-56 204,-62 198,-68 192,-68"/>
<text text-anchor="middle" x="172" y="-44.75" font-family="Arial" font-size="15.00">shapes</text>
</g>
<!-- /lib/panels/tools_panel.dart&#45;&gt;/lib/models/shapes.dart -->
<g id="edge3" class="edge">
<title>/lib/panels/tools_panel.dart&#45;&gt;/lib/models/shapes.dart</title>
<path fill="none" stroke="#aabbaa" stroke-width="1.3" stroke-opacity="0.533333" d="M439.88,-106.39C436.88,-105.55 433.9,-104.74 431,-104 356.09,-84.81 267.59,-67.92 215.84,-58.62"/>
<polygon fill="#aabbaa" fill-opacity="0.533333" stroke="#aabbaa" stroke-width="1.3" stroke-opacity="0.533333" points="216.52,-55.18 206.07,-56.87 215.3,-62.08 216.52,-55.18"/>
</g>
<!-- /lib/panels/layers_panel.dart -->
<g id="node4" class="node">
<title>/lib/panels/layers_panel.dart</title>
<path fill="Lavender" stroke="black" stroke-width="1.3" d="M410,-140C410,-140 334,-140 334,-140 328,-140 322,-134 322,-128 322,-128 322,-116 322,-116 322,-110 328,-104 334,-104 334,-104 410,-104 410,-104 416,-104 422,-110 422,-116 422,-116 422,-128 422,-128 422,-134 416,-140 410,-140"/>
<text text-anchor="middle" x="372" y="-116.75" font-family="Arial" font-size="15.00">layers_panel</text>
</g>
<!-- /lib/panels/layers_panel.dart&#45;&gt;/lib/models/app_model.dart -->
<g id="edge5" class="edge">
<title>/lib/panels/layers_panel.dart&#45;&gt;/lib/models/app_model.dart</title>
<path fill="none" stroke="#aabbaa" stroke-width="1.3" stroke-opacity="0.533333" d="M321.75,-104.97C320.49,-104.64 319.24,-104.31 318,-104 239.47,-84.15 215.13,-88.32 133.34,-68.41"/>
<polygon fill="#aabbaa" fill-opacity="0.533333" stroke="#aabbaa" stroke-width="1.3" stroke-opacity="0.533333" points="134.43,-65.08 123.88,-66.06 132.74,-71.87 134.43,-65.08"/>
</g>
<!-- /lib/models/layers.dart -->
<g id="node6" class="node">
<title>/lib/models/layers.dart</title>
<path fill="Lavender" stroke="black" stroke-width="1.3" d="M139.88,-140C139.88,-140 108.12,-140 108.12,-140 102.12,-140 96.12,-134 96.12,-128 96.12,-128 96.12,-116 96.12,-116 96.12,-110 102.12,-104 108.12,-104 108.12,-104 139.88,-104 139.88,-104 145.88,-104 151.88,-110 151.88,-116 151.88,-116 151.88,-128 151.88,-128 151.88,-134 145.88,-140 139.88,-140"/>
<text text-anchor="middle" x="124" y="-116.75" font-family="Arial" font-size="15.00">layers</text>
</g>
<!-- /lib/models/layers.dart&#45;&gt;/lib/models/shapes.dart -->
<g id="edge7" class="edge">
<title>/lib/models/layers.dart&#45;&gt;/lib/models/shapes.dart</title>
<path fill="none" stroke="#aabbaa" stroke-width="1.3" stroke-opacity="0.533333" d="M129.95,-103.7C134.54,-95.81 140.84,-86.3 147.22,-77.55"/>
<polygon fill="#aabbaa" fill-opacity="0.533333" stroke="#aabbaa" stroke-width="1.3" stroke-opacity="0.533333" points="149.94,-79.76 153.19,-69.67 144.36,-75.53 149.94,-79.76"/>
</g>
<!-- /lib/models/layers.dart&#45;&gt;/lib/models/shapes.dart -->
<g id="edge8" class="edge">
<title>/lib/models/layers.dart&#45;&gt;/lib/models/shapes.dart</title>
<path fill="none" stroke="#aabbaa" stroke-width="1.3" stroke-dasharray="5,2" stroke-opacity="0.533333" d="M141.78,-103.7C147.87,-95.98 154.45,-86.71 160,-78.11"/>
<polygon fill="#aabbaa" fill-opacity="0.533333" stroke="#aabbaa" stroke-width="1.3" stroke-opacity="0.533333" points="162.87,-80.13 165.13,-69.78 156.91,-76.46 162.87,-80.13"/>
</g>
<!-- /lib/models/layers.dart&#45;&gt;/lib/models/app_model.dart -->
<g id="edge6" class="edge">
<title>/lib/models/layers.dart&#45;&gt;/lib/models/app_model.dart</title>
<path fill="none" stroke="#aabbaa" stroke-width="1.3" stroke-opacity="0.533333" d="M100.55,-103.7C93.85,-96.07 87.25,-86.92 82.18,-78.4"/>
<polygon fill="#aabbaa" fill-opacity="0.533333" stroke="#aabbaa" stroke-width="1.3" stroke-opacity="0.533333" points="85.41,-77.02 77.62,-69.84 79.24,-80.31 85.41,-77.02"/>
</g>
<!-- /lib/models/app_model.dart&#45;&gt;/lib/models/layers.dart -->
<g id="edge9" class="edge">
<title>/lib/models/app_model.dart&#45;&gt;/lib/models/layers.dart</title>
<path fill="none" stroke="#aabbaa" stroke-width="1.3" stroke-opacity="0.533333" d="M88.48,-68.1C93.7,-75.88 100,-85.26 105.84,-93.95"/>
<polygon fill="#aabbaa" fill-opacity="0.533333" stroke="#aabbaa" stroke-width="1.3" stroke-opacity="0.533333" points="102.81,-95.71 111.29,-102.06 108.62,-91.81 102.81,-95.71"/>
</g>
<!-- /lib/models/app_model.dart&#45;&gt;/lib/models/layers.dart -->
<g id="edge10" class="edge">
<title>/lib/models/app_model.dart&#45;&gt;/lib/models/layers.dart</title>
<path fill="none" stroke="#aabbaa" stroke-width="1.3" stroke-dasharray="5,2" stroke-opacity="0.533333" d="M100.27,-68.1C106.97,-75.71 113.59,-84.85 118.69,-93.38"/>
<polygon fill="#aabbaa" fill-opacity="0.533333" stroke="#aabbaa" stroke-width="1.3" stroke-opacity="0.533333" points="115.48,-94.8 123.28,-101.96 121.65,-91.49 115.48,-94.8"/>
</g>
<!-- /lib/main.dart&#45;&gt;/lib/models/app_model.dart -->
<g id="edge12" class="edge">
<title>/lib/main.dart&#45;&gt;/lib/models/app_model.dart</title>
<path fill="none" stroke="#aabbaa" stroke-width="1.3" stroke-opacity="0.533333" d="M215.81,-250.62C210.99,-218.55 196.9,-149.2 161,-104 151.61,-92.17 138.81,-82.24 126.03,-74.28"/>
<polygon fill="#aabbaa" fill-opacity="0.533333" stroke="#aabbaa" stroke-width="1.3" stroke-opacity="0.533333" points="127.96,-71.35 117.56,-69.32 124.42,-77.39 127.96,-71.35"/>
</g>
<!-- /lib/main_screen.dart -->
<g id="node11" class="node">
<title>/lib/main_screen.dart</title>
<path fill="Lavender" stroke="black" stroke-width="1.3" d="M341.75,-215C341.75,-215 264.25,-215 264.25,-215 258.25,-215 252.25,-209 252.25,-203 252.25,-203 252.25,-191 252.25,-191 252.25,-185 258.25,-179 264.25,-179 264.25,-179 341.75,-179 341.75,-179 347.75,-179 353.75,-185 353.75,-191 353.75,-191 353.75,-203 353.75,-203 353.75,-209 347.75,-215 341.75,-215"/>
<text text-anchor="middle" x="303" y="-191.75" font-family="Arial" font-size="15.00">main_screen</text>
</g>
<!-- /lib/main.dart&#45;&gt;/lib/main_screen.dart -->
<g id="edge11" class="edge">
<title>/lib/main.dart&#45;&gt;/lib/main_screen.dart</title>
<path fill="none" stroke="#aabbaa" stroke-width="1.3" stroke-opacity="0.533333" d="M239.01,-250.7C249.23,-242.28 261.69,-232.02 272.9,-222.79"/>
<polygon fill="#aabbaa" fill-opacity="0.533333" stroke="#aabbaa" stroke-width="1.3" stroke-opacity="0.533333" points="274.92,-225.66 280.42,-216.6 270.47,-220.25 274.92,-225.66"/>
</g>
<!-- /lib/canvas.dart -->
<g id="node10" class="node">
<title>/lib/canvas.dart</title>
<path fill="Lavender" stroke="black" stroke-width="1.3" d="M271.62,-140C271.62,-140 232.38,-140 232.38,-140 226.38,-140 220.38,-134 220.38,-128 220.38,-128 220.38,-116 220.38,-116 220.38,-110 226.38,-104 232.38,-104 232.38,-104 271.62,-104 271.62,-104 277.62,-104 283.62,-110 283.62,-116 283.62,-116 283.62,-128 283.62,-128 283.62,-134 277.62,-140 271.62,-140"/>
<text text-anchor="middle" x="252" y="-116.75" font-family="Arial" font-size="15.00">canvas</text>
</g>
<!-- /lib/canvas.dart&#45;&gt;/lib/models/app_model.dart -->
<g id="edge13" class="edge">
<title>/lib/canvas.dart&#45;&gt;/lib/models/app_model.dart</title>
<path fill="none" stroke="#aabbaa" stroke-width="1.3" stroke-opacity="0.533333" d="M220.26,-105.85C218.82,-105.22 217.4,-104.6 216,-104 188.99,-92.49 158.56,-80.76 133.07,-71.26"/>
<polygon fill="#aabbaa" fill-opacity="0.533333" stroke="#aabbaa" stroke-width="1.3" stroke-opacity="0.533333" points="134.55,-68.07 123.95,-67.88 132.12,-74.64 134.55,-68.07"/>
</g>
<!-- /lib/main_screen.dart&#45;&gt;/lib/panels/tools_panel.dart -->
<g id="edge16" class="edge">
<title>/lib/main_screen.dart&#45;&gt;/lib/panels/tools_panel.dart</title>
<path fill="none" stroke="#aabbaa" stroke-width="1.3" stroke-opacity="0.533333" d="M354.19,-192.19C378.43,-188.87 407.21,-182.65 431,-171 442.44,-165.4 453.37,-156.8 462.44,-148.42"/>
<polygon fill="#aabbaa" fill-opacity="0.533333" stroke="#aabbaa" stroke-width="1.3" stroke-opacity="0.533333" points="464.71,-151.09 469.42,-141.6 459.82,-146.08 464.71,-151.09"/>
</g>
<!-- /lib/main_screen.dart&#45;&gt;/lib/panels/layers_panel.dart -->
<g id="edge15" class="edge">
<title>/lib/main_screen.dart&#45;&gt;/lib/panels/layers_panel.dart</title>
<path fill="none" stroke="#aabbaa" stroke-width="1.3" stroke-opacity="0.533333" d="M319.35,-178.7C327.71,-169.86 338.06,-158.91 347.36,-149.07"/>
<polygon fill="#aabbaa" fill-opacity="0.533333" stroke="#aabbaa" stroke-width="1.3" stroke-opacity="0.533333" points="349.85,-151.53 354.17,-141.86 344.76,-146.72 349.85,-151.53"/>
</g>
<!-- /lib/main_screen.dart&#45;&gt;/lib/models/app_model.dart -->
<g id="edge17" class="edge">
<title>/lib/main_screen.dart&#45;&gt;/lib/models/app_model.dart</title>
<path fill="none" stroke="#aabbaa" stroke-width="1.3" stroke-opacity="0.533333" d="M306.54,-178.72C309.65,-158.24 311.22,-124.35 293,-104 246.21,-51.73 206.32,-83.6 133.48,-68.24"/>
<polygon fill="#aabbaa" fill-opacity="0.533333" stroke="#aabbaa" stroke-width="1.3" stroke-opacity="0.533333" points="134.45,-64.87 123.91,-65.94 132.82,-71.68 134.45,-64.87"/>
</g>
<!-- /lib/main_screen.dart&#45;&gt;/lib/canvas.dart -->
<g id="edge14" class="edge">
<title>/lib/main_screen.dart&#45;&gt;/lib/canvas.dart</title>
<path fill="none" stroke="#aabbaa" stroke-width="1.3" stroke-opacity="0.533333" d="M290.91,-178.7C284.92,-170.13 277.55,-159.58 270.84,-149.97"/>
<polygon fill="#aabbaa" fill-opacity="0.533333" stroke="#aabbaa" stroke-width="1.3" stroke-opacity="0.533333" points="273.9,-148.23 265.3,-142.04 268.16,-152.24 273.9,-148.23"/>
</g>
</g>
</svg>
