<?xml version="1.0" encoding="UTF-8" standalone="no"?>
<!DOCTYPE svg PUBLIC "-//W3C//DTD SVG 1.1//EN"
 "http://www.w3.org/Graphics/SVG/1.1/DTD/svg11.dtd">
<!-- Generated by graphviz version 12.2.1 (20241206.2353)
 -->
<!-- Pages: 1 -->
<svg width="1139pt" height="758pt"
 viewBox="0.00 0.00 1139.00 758.00" xmlns="http://www.w3.org/2000/svg" xmlns:xlink="http://www.w3.org/1999/xlink">
<g id="graph0" class="graph" transform="scale(1 1) rotate(0) translate(4 754)">
<polygon fill="white" stroke="none" points="-4,4 -4,-754 1135,-754 1135,4 -4,4"/>
<g id="clust1" class="cluster">
<title>cluster~</title>
<path fill="none" stroke="lightgray" stroke-width="2.6" d="M20,-8C20,-8 1111,-8 1111,-8 1117,-8 1123,-14 1123,-20 1123,-20 1123,-730 1123,-730 1123,-736 1117,-742 1111,-742 1111,-742 20,-742 20,-742 14,-742 8,-736 8,-730 8,-730 8,-20 8,-20 8,-14 14,-8 20,-8"/>
<text text-anchor="middle" x="565.5" y="-725.65" font-family="Arial Black" font-size="13.00">fpaint</text>
</g>
<g id="clust2" class="cluster">
<title>cluster~/test</title>
<path fill="none" stroke="lightgray" stroke-width="2.6" d="M28,-636C28,-636 260,-636 260,-636 266,-636 272,-642 272,-648 272,-648 272,-699 272,-699 272,-705 266,-711 260,-711 260,-711 28,-711 28,-711 22,-711 16,-705 16,-699 16,-699 16,-648 16,-648 16,-642 22,-636 28,-636"/>
<text text-anchor="middle" x="144" y="-694.65" font-family="Arial Black" font-size="13.00">test</text>
</g>
<g id="clust3" class="cluster">
<title>cluster~/lib</title>
<path fill="none" stroke="lightgray" stroke-width="2.6" d="M28,-16C28,-16 1103,-16 1103,-16 1109,-16 1115,-22 1115,-28 1115,-28 1115,-616 1115,-616 1115,-622 1109,-628 1103,-628 1103,-628 28,-628 28,-628 22,-628 16,-622 16,-616 16,-616 16,-28 16,-28 16,-22 22,-16 28,-16"/>
<text text-anchor="middle" x="565.5" y="-611.65" font-family="Arial Black" font-size="13.00">lib</text>
</g>
<g id="clust4" class="cluster">
<title>cluster~/lib/panels</title>
<path fill="none" stroke="lightgray" stroke-width="2.6" d="M811,-262C811,-262 1013,-262 1013,-262 1019,-262 1025,-268 1025,-274 1025,-274 1025,-469 1025,-469 1025,-475 1019,-481 1013,-481 1013,-481 811,-481 811,-481 805,-481 799,-475 799,-469 799,-469 799,-274 799,-274 799,-268 805,-262 811,-262"/>
<text text-anchor="middle" x="912" y="-464.65" font-family="Arial Black" font-size="13.00">panels</text>
</g>
<g id="clust5" class="cluster">
<title>cluster~/lib/models</title>
<path fill="none" stroke="lightgray" stroke-width="2.6" d="M48,-262C48,-262 241,-262 241,-262 247,-262 253,-268 253,-274 253,-274 253,-469 253,-469 253,-475 247,-481 241,-481 241,-481 48,-481 48,-481 42,-481 36,-475 36,-469 36,-469 36,-274 36,-274 36,-268 42,-262 48,-262"/>
<text text-anchor="middle" x="144.5" y="-464.65" font-family="Arial Black" font-size="13.00">models</text>
</g>
<g id="clust6" class="cluster">
<title>cluster~/lib/files</title>
<path fill="none" stroke="lightgray" stroke-width="2.6" d="M273,-334C273,-334 755,-334 755,-334 761,-334 767,-340 767,-346 767,-346 767,-469 767,-469 767,-475 761,-481 755,-481 755,-481 273,-481 273,-481 267,-481 261,-475 261,-469 261,-469 261,-346 261,-346 261,-340 267,-334 273,-334"/>
<text text-anchor="middle" x="514" y="-464.65" font-family="Arial Black" font-size="13.00">files</text>
</g>
<g id="clust7" class="cluster">
<title>cluster~/lib/helpers</title>
<path fill="none" stroke="lightgray" stroke-width="2.6" d="M696,-24C696,-24 786,-24 786,-24 792,-24 798,-30 798,-36 798,-36 798,-159 798,-159 798,-165 792,-171 786,-171 786,-171 696,-171 696,-171 690,-171 684,-165 684,-159 684,-159 684,-36 684,-36 684,-30 690,-24 696,-24"/>
<text text-anchor="middle" x="741" y="-154.65" font-family="Arial Black" font-size="13.00">helpers</text>
</g>
<g id="clust8" class="cluster">
<title>cluster~/lib/widgets</title>
<path fill="none" stroke="lightgray" stroke-width="2.6" d="M368,-179C368,-179 1095,-179 1095,-179 1101,-179 1107,-185 1107,-191 1107,-191 1107,-242 1107,-242 1107,-248 1101,-254 1095,-254 1095,-254 368,-254 368,-254 362,-254 356,-248 356,-242 356,-242 356,-191 356,-191 356,-185 362,-179 368,-179"/>
<text text-anchor="middle" x="731.5" y="-237.65" font-family="Arial Black" font-size="13.00">widgets</text>
</g>
<!-- /test/paint_model_test.dart -->
<g id="node1" class="node">
<title>/test/paint_model_test.dart</title>
<path fill="Lavender" stroke="black" stroke-width="1.3" d="M142,-680C142,-680 36,-680 36,-680 30,-680 24,-674 24,-668 24,-668 24,-656 24,-656 24,-650 30,-644 36,-644 36,-644 142,-644 142,-644 148,-644 154,-650 154,-656 154,-656 154,-668 154,-668 154,-674 148,-680 142,-680"/>
<text text-anchor="middle" x="89" y="-656.75" font-family="Arial" font-size="15.00">paint_model_test</text>
</g>
<!-- /lib/models/app_model.dart -->
<g id="node10" class="node">
<title>/lib/models/app_model.dart</title>
<path fill="Lavender" stroke="black" stroke-width="1.3" d="M232.75,-306C232.75,-306 167.25,-306 167.25,-306 161.25,-306 155.25,-300 155.25,-294 155.25,-294 155.25,-282 155.25,-282 155.25,-276 161.25,-270 167.25,-270 167.25,-270 232.75,-270 232.75,-270 238.75,-270 244.75,-276 244.75,-282 244.75,-282 244.75,-294 244.75,-294 244.75,-300 238.75,-306 232.75,-306"/>
<text text-anchor="middle" x="200" y="-282.75" font-family="Arial" font-size="15.00">app_model</text>
</g>
<!-- /test/paint_model_test.dart&#45;&gt;/lib/models/app_model.dart -->
<g id="edge1" class="edge">
<title>/test/paint_model_test.dart&#45;&gt;/lib/models/app_model.dart</title>
<path fill="none" stroke="#aabbaa" stroke-width="1.3" stroke-opacity="0.533333" d="M38.13,-643.62C31.79,-639.44 26.1,-634.3 22,-628 -7.14,-583.27 17,-561.38 17,-508 17,-508 17,-508 17,-431 17,-370.03 64.87,-370.1 114,-334 125.13,-325.82 137.95,-318.26 150.24,-311.77"/>
<polygon fill="#aabbaa" fill-opacity="0.533333" stroke="#aabbaa" stroke-width="1.3" stroke-opacity="0.533333" points="151.78,-314.91 159.1,-307.24 148.6,-308.68 151.78,-314.91"/>
</g>
<!-- /test/widget_test.dart -->
<g id="node2" class="node">
<title>/test/widget_test.dart</title>
<path fill="Lavender" stroke="black" stroke-width="1.3" d="M251.88,-680C251.88,-680 184.12,-680 184.12,-680 178.12,-680 172.12,-674 172.12,-668 172.12,-668 172.12,-656 172.12,-656 172.12,-650 178.12,-644 184.12,-644 184.12,-644 251.88,-644 251.88,-644 257.88,-644 263.88,-650 263.88,-656 263.88,-656 263.88,-668 263.88,-668 263.88,-674 257.88,-680 251.88,-680"/>
<text text-anchor="middle" x="218" y="-656.75" font-family="Arial" font-size="15.00">widget_test</text>
</g>
<!-- /lib/main.dart -->
<g id="node12" class="node">
<title>/lib/main.dart</title>
<path fill="Lavender" stroke="black" stroke-width="1.3" d="M233,-597C233,-597 203,-597 203,-597 197,-597 191,-591 191,-585 191,-585 191,-573 191,-573 191,-567 197,-561 203,-561 203,-561 233,-561 233,-561 239,-561 245,-567 245,-573 245,-573 245,-585 245,-585 245,-591 239,-597 233,-597"/>
<text text-anchor="middle" x="218" y="-573.75" font-family="Arial" font-size="15.00">main</text>
</g>
<!-- /test/widget_test.dart&#45;&gt;/lib/main.dart -->
<g id="edge2" class="edge">
<title>/test/widget_test.dart&#45;&gt;/lib/main.dart</title>
<path fill="none" stroke="#aabbaa" stroke-width="1.3" stroke-opacity="0.533333" d="M218,-643.82C218,-633.8 218,-620.88 218,-609.29"/>
<polygon fill="#aabbaa" fill-opacity="0.533333" stroke="#aabbaa" stroke-width="1.3" stroke-opacity="0.533333" points="221.5,-609.4 218,-599.4 214.5,-609.4 221.5,-609.4"/>
</g>
<!-- /lib/panels/canvas_panel.dart -->
<g id="node3" class="node">
<title>/lib/panels/canvas_panel.dart</title>
<path fill="Lavender" stroke="black" stroke-width="1.3" d="M904.75,-306C904.75,-306 821.25,-306 821.25,-306 815.25,-306 809.25,-300 809.25,-294 809.25,-294 809.25,-282 809.25,-282 809.25,-276 815.25,-270 821.25,-270 821.25,-270 904.75,-270 904.75,-270 910.75,-270 916.75,-276 916.75,-282 916.75,-282 916.75,-294 916.75,-294 916.75,-300 910.75,-306 904.75,-306"/>
<text text-anchor="middle" x="863" y="-282.75" font-family="Arial" font-size="15.00">canvas_panel</text>
</g>
<!-- /lib/panels/canvas_panel.dart&#45;&gt;/lib/models/app_model.dart -->
<g id="edge4" class="edge">
<title>/lib/panels/canvas_panel.dart&#45;&gt;/lib/models/app_model.dart</title>
<path fill="none" stroke="#aabbaa" stroke-width="1.3" stroke-opacity="0.533333" d="M808.99,-288C624.94,-288 440.89,-288 256.84,-288"/>
<polygon fill="#aabbaa" fill-opacity="0.533333" stroke="#aabbaa" stroke-width="1.3" stroke-opacity="0.533333" points="256.97,-284.5 246.97,-288 256.97,-291.5 256.97,-284.5"/>
</g>
<!-- /lib/widgets/transparent_background.dart -->
<g id="node22" class="node">
<title>/lib/widgets/transparent_background.dart</title>
<path fill="Lavender" stroke="black" stroke-width="1.3" d="M689.38,-223C689.38,-223 534.62,-223 534.62,-223 528.62,-223 522.62,-217 522.62,-211 522.62,-211 522.62,-199 522.62,-199 522.62,-193 528.62,-187 534.62,-187 534.62,-187 689.38,-187 689.38,-187 695.38,-187 701.38,-193 701.38,-199 701.38,-199 701.38,-211 701.38,-211 701.38,-217 695.38,-223 689.38,-223"/>
<text text-anchor="middle" x="612" y="-199.75" font-family="Arial" font-size="15.00">transparent_background</text>
</g>
<!-- /lib/panels/canvas_panel.dart&#45;&gt;/lib/widgets/transparent_background.dart -->
<g id="edge3" class="edge">
<title>/lib/panels/canvas_panel.dart&#45;&gt;/lib/widgets/transparent_background.dart</title>
<path fill="none" stroke="#aabbaa" stroke-width="1.3" stroke-opacity="0.533333" d="M809.02,-278.67C779.32,-273.26 742.09,-265.13 710,-254 690.58,-247.26 670.02,-237.62 652.78,-228.74"/>
<polygon fill="#aabbaa" fill-opacity="0.533333" stroke="#aabbaa" stroke-width="1.3" stroke-opacity="0.533333" points="654.73,-225.81 644.25,-224.25 651.47,-232 654.73,-225.81"/>
</g>
<!-- /lib/panels/tool_item.dart -->
<g id="node4" class="node">
<title>/lib/panels/tool_item.dart</title>
<path fill="Lavender" stroke="black" stroke-width="1.3" d="M995.38,-378C995.38,-378 942.62,-378 942.62,-378 936.62,-378 930.62,-372 930.62,-366 930.62,-366 930.62,-354 930.62,-354 930.62,-348 936.62,-342 942.62,-342 942.62,-342 995.38,-342 995.38,-342 1001.38,-342 1007.38,-348 1007.38,-354 1007.38,-354 1007.38,-366 1007.38,-366 1007.38,-372 1001.38,-378 995.38,-378"/>
<text text-anchor="middle" x="969" y="-354.75" font-family="Arial" font-size="15.00">tool_item</text>
</g>
<!-- /lib/panels/share_panel.dart -->
<g id="node5" class="node">
<title>/lib/panels/share_panel.dart</title>
<path fill="Lavender" stroke="black" stroke-width="1.3" d="M900.88,-378C900.88,-378 827.12,-378 827.12,-378 821.12,-378 815.12,-372 815.12,-366 815.12,-366 815.12,-354 815.12,-354 815.12,-348 821.12,-342 827.12,-342 827.12,-342 900.88,-342 900.88,-342 906.88,-342 912.88,-348 912.88,-354 912.88,-354 912.88,-366 912.88,-366 912.88,-372 906.88,-378 900.88,-378"/>
<text text-anchor="middle" x="864" y="-354.75" font-family="Arial" font-size="15.00">share_panel</text>
</g>
<!-- /lib/panels/share_panel.dart&#45;&gt;/lib/panels/canvas_panel.dart -->
<g id="edge6" class="edge">
<title>/lib/panels/share_panel.dart&#45;&gt;/lib/panels/canvas_panel.dart</title>
<path fill="none" stroke="#aabbaa" stroke-width="1.3" stroke-opacity="0.533333" d="M863.75,-341.7C863.65,-334.49 863.53,-325.93 863.41,-317.82"/>
<polygon fill="#aabbaa" fill-opacity="0.533333" stroke="#aabbaa" stroke-width="1.3" stroke-opacity="0.533333" points="866.92,-318.02 863.27,-308.07 859.92,-318.12 866.92,-318.02"/>
</g>
<!-- /lib/panels/share_panel.dart&#45;&gt;/lib/models/app_model.dart -->
<g id="edge5" class="edge">
<title>/lib/panels/share_panel.dart&#45;&gt;/lib/models/app_model.dart</title>
<path fill="none" stroke="#aabbaa" stroke-width="1.3" stroke-opacity="0.533333" d="M825.27,-341.51C817.37,-338.55 809.03,-335.85 801,-334 698.52,-310.41 386.42,-296.12 257.08,-291.07"/>
<polygon fill="#aabbaa" fill-opacity="0.533333" stroke="#aabbaa" stroke-width="1.3" stroke-opacity="0.533333" points="257.24,-287.57 247.12,-290.69 256.97,-294.57 257.24,-287.57"/>
</g>
<!-- /lib/panels/tools_panel.dart -->
<g id="node6" class="node">
<title>/lib/panels/tools_panel.dart</title>
<path fill="Lavender" stroke="black" stroke-width="1.3" d="M1004.88,-450C1004.88,-450 937.12,-450 937.12,-450 931.12,-450 925.12,-444 925.12,-438 925.12,-438 925.12,-426 925.12,-426 925.12,-420 931.12,-414 937.12,-414 937.12,-414 1004.88,-414 1004.88,-414 1010.88,-414 1016.88,-420 1016.88,-426 1016.88,-426 1016.88,-438 1016.88,-438 1016.88,-444 1010.88,-450 1004.88,-450"/>
<text text-anchor="middle" x="971" y="-426.75" font-family="Arial" font-size="15.00">tools_panel</text>
</g>
<!-- /lib/panels/tools_panel.dart&#45;&gt;/lib/panels/tool_item.dart -->
<g id="edge8" class="edge">
<title>/lib/panels/tools_panel.dart&#45;&gt;/lib/panels/tool_item.dart</title>
<path fill="none" stroke="#aabbaa" stroke-width="1.3" stroke-opacity="0.533333" d="M970.51,-413.7C970.3,-406.49 970.06,-397.93 969.82,-389.82"/>
<polygon fill="#aabbaa" fill-opacity="0.533333" stroke="#aabbaa" stroke-width="1.3" stroke-opacity="0.533333" points="973.33,-389.97 969.54,-380.07 966.33,-390.17 973.33,-389.97"/>
</g>
<!-- /lib/panels/tools_panel.dart&#45;&gt;/lib/models/app_model.dart -->
<g id="edge7" class="edge">
<title>/lib/panels/tools_panel.dart&#45;&gt;/lib/models/app_model.dart</title>
<path fill="none" stroke="#aabbaa" stroke-width="1.3" stroke-opacity="0.533333" d="M925.02,-416.72C877.02,-401.74 808.33,-380.08 806,-378 789.96,-363.72 803.6,-346.31 786,-334 743.3,-304.13 395.56,-293.28 256.83,-290.11"/>
<polygon fill="#aabbaa" fill-opacity="0.533333" stroke="#aabbaa" stroke-width="1.3" stroke-opacity="0.533333" points="257.29,-286.62 247.21,-289.9 257.13,-293.62 257.29,-286.62"/>
</g>
<!-- /lib/widgets/brush_size_picker.dart -->
<g id="node21" class="node">
<title>/lib/widgets/brush_size_picker.dart</title>
<path fill="Lavender" stroke="black" stroke-width="1.3" d="M973,-223C973,-223 861,-223 861,-223 855,-223 849,-217 849,-211 849,-211 849,-199 849,-199 849,-193 855,-187 861,-187 861,-187 973,-187 973,-187 979,-187 985,-193 985,-199 985,-199 985,-211 985,-211 985,-217 979,-223 973,-223"/>
<text text-anchor="middle" x="917" y="-199.75" font-family="Arial" font-size="15.00">brush_size_picker</text>
</g>
<!-- /lib/panels/tools_panel.dart&#45;&gt;/lib/widgets/brush_size_picker.dart -->
<g id="edge9" class="edge">
<title>/lib/panels/tools_panel.dart&#45;&gt;/lib/widgets/brush_size_picker.dart</title>
<path fill="none" stroke="#aabbaa" stroke-width="1.3" stroke-opacity="0.533333" d="M1013.03,-413.52C1027.78,-405.1 1042.72,-393.41 1051,-378 1075.39,-332.58 1084.83,-300.91 1051,-262 1042.61,-252.35 1006.02,-258.37 994,-254 978.19,-248.26 962.17,-238.95 948.87,-230.06"/>
<polygon fill="#aabbaa" fill-opacity="0.533333" stroke="#aabbaa" stroke-width="1.3" stroke-opacity="0.533333" points="951.11,-227.35 940.89,-224.52 947.11,-233.1 951.11,-227.35"/>
</g>
<!-- /lib/panels/tools_panel.dart&#45;&gt;/lib/widgets/transparent_background.dart -->
<g id="edge11" class="edge">
<title>/lib/panels/tools_panel.dart&#45;&gt;/lib/widgets/transparent_background.dart</title>
<path fill="none" stroke="#aabbaa" stroke-width="1.3" stroke-opacity="0.533333" d="M991.38,-413.53C1000.81,-404.09 1011.01,-391.6 1016,-378 1022.74,-359.64 1024.47,-351.63 1016,-334 993.81,-287.83 974.02,-279.85 926,-262 880.98,-245.26 756.58,-265.71 710,-254 689.15,-248.76 667.54,-238.74 649.93,-229.2"/>
<polygon fill="#aabbaa" fill-opacity="0.533333" stroke="#aabbaa" stroke-width="1.3" stroke-opacity="0.533333" points="651.67,-226.17 641.24,-224.33 648.25,-232.27 651.67,-226.17"/>
</g>
<!-- /lib/widgets/color_picker.dart -->
<g id="node24" class="node">
<title>/lib/widgets/color_picker.dart</title>
<path fill="Lavender" stroke="black" stroke-width="1.3" d="M1087.12,-223C1087.12,-223 1014.88,-223 1014.88,-223 1008.88,-223 1002.88,-217 1002.88,-211 1002.88,-211 1002.88,-199 1002.88,-199 1002.88,-193 1008.88,-187 1014.88,-187 1014.88,-187 1087.12,-187 1087.12,-187 1093.12,-187 1099.12,-193 1099.12,-199 1099.12,-199 1099.12,-211 1099.12,-211 1099.12,-217 1093.12,-223 1087.12,-223"/>
<text text-anchor="middle" x="1051" y="-199.75" font-family="Arial" font-size="15.00">color_picker</text>
</g>
<!-- /lib/panels/tools_panel.dart&#45;&gt;/lib/widgets/color_picker.dart -->
<g id="edge10" class="edge">
<title>/lib/panels/tools_panel.dart&#45;&gt;/lib/widgets/color_picker.dart</title>
<path fill="none" stroke="#aabbaa" stroke-width="1.3" stroke-opacity="0.533333" d="M1016.97,-416.39C1035.16,-408.14 1054.26,-395.81 1065,-378 1091.75,-333.63 1075.97,-270.71 1062.91,-234.55"/>
<polygon fill="#aabbaa" fill-opacity="0.533333" stroke="#aabbaa" stroke-width="1.3" stroke-opacity="0.533333" points="1066.19,-233.32 1059.35,-225.22 1059.65,-235.81 1066.19,-233.32"/>
</g>
<!-- /lib/panels/layers_panel.dart -->
<g id="node7" class="node">
<title>/lib/panels/layers_panel.dart</title>
<path fill="Lavender" stroke="black" stroke-width="1.3" d="M895,-450C895,-450 819,-450 819,-450 813,-450 807,-444 807,-438 807,-438 807,-426 807,-426 807,-420 813,-414 819,-414 819,-414 895,-414 895,-414 901,-414 907,-420 907,-426 907,-426 907,-438 907,-438 907,-444 901,-450 895,-450"/>
<text text-anchor="middle" x="857" y="-426.75" font-family="Arial" font-size="15.00">layers_panel</text>
</g>
<!-- /lib/panels/layers_panel.dart&#45;&gt;/lib/panels/share_panel.dart -->
<g id="edge13" class="edge">
<title>/lib/panels/layers_panel.dart&#45;&gt;/lib/panels/share_panel.dart</title>
<path fill="none" stroke="#aabbaa" stroke-width="1.3" stroke-opacity="0.533333" d="M858.73,-413.7C859.45,-406.49 860.31,-397.93 861.12,-389.82"/>
<polygon fill="#aabbaa" fill-opacity="0.533333" stroke="#aabbaa" stroke-width="1.3" stroke-opacity="0.533333" points="864.58,-390.36 862.09,-380.06 857.62,-389.66 864.58,-390.36"/>
</g>
<!-- /lib/panels/layers_panel.dart&#45;&gt;/lib/models/app_model.dart -->
<g id="edge12" class="edge">
<title>/lib/panels/layers_panel.dart&#45;&gt;/lib/models/app_model.dart</title>
<path fill="none" stroke="#aabbaa" stroke-width="1.3" stroke-opacity="0.533333" d="M829.74,-413.58C816.74,-404.23 801.73,-391.81 791,-378 777.82,-361.04 788.59,-346.33 771,-334 729.55,-304.95 392.85,-293.64 256.76,-290.23"/>
<polygon fill="#aabbaa" fill-opacity="0.533333" stroke="#aabbaa" stroke-width="1.3" stroke-opacity="0.533333" points="257.05,-286.74 246.96,-289.99 256.87,-293.74 257.05,-286.74"/>
</g>
<!-- /lib/widgets/truncated_text.dart -->
<g id="node20" class="node">
<title>/lib/widgets/truncated_text.dart</title>
<path fill="Lavender" stroke="black" stroke-width="1.3" d="M819,-223C819,-223 731,-223 731,-223 725,-223 719,-217 719,-211 719,-211 719,-199 719,-199 719,-193 725,-187 731,-187 731,-187 819,-187 819,-187 825,-187 831,-193 831,-199 831,-199 831,-211 831,-211 831,-217 825,-223 819,-223"/>
<text text-anchor="middle" x="775" y="-199.75" font-family="Arial" font-size="15.00">truncated_text</text>
</g>
<!-- /lib/panels/layers_panel.dart&#45;&gt;/lib/widgets/truncated_text.dart -->
<g id="edge14" class="edge">
<title>/lib/panels/layers_panel.dart&#45;&gt;/lib/widgets/truncated_text.dart</title>
<path fill="none" stroke="#aabbaa" stroke-width="1.3" stroke-opacity="0.533333" d="M907.16,-415.83C952.48,-401.88 1012.63,-382.68 1016,-378 1027.43,-362.14 1024.47,-351.63 1016,-334 993.81,-287.83 973.5,-281.18 926,-262 890.4,-247.63 875.87,-267.68 840,-254 826.21,-248.74 812.78,-239.7 801.74,-230.87"/>
<polygon fill="#aabbaa" fill-opacity="0.533333" stroke="#aabbaa" stroke-width="1.3" stroke-opacity="0.533333" points="804.12,-228.3 794.21,-224.54 799.61,-233.65 804.12,-228.3"/>
</g>
<!-- /lib/models/layers.dart -->
<g id="node8" class="node">
<title>/lib/models/layers.dart</title>
<path fill="Lavender" stroke="black" stroke-width="1.3" d="M165.88,-450C165.88,-450 134.12,-450 134.12,-450 128.12,-450 122.12,-444 122.12,-438 122.12,-438 122.12,-426 122.12,-426 122.12,-420 128.12,-414 134.12,-414 134.12,-414 165.88,-414 165.88,-414 171.88,-414 177.88,-420 177.88,-426 177.88,-426 177.88,-438 177.88,-438 177.88,-444 171.88,-450 165.88,-450"/>
<text text-anchor="middle" x="150" y="-426.75" font-family="Arial" font-size="15.00">layers</text>
</g>
<!-- /lib/models/layer.dart -->
<g id="node11" class="node">
<title>/lib/models/layer.dart</title>
<path fill="Lavender" stroke="black" stroke-width="1.3" d="M165,-378C165,-378 135,-378 135,-378 129,-378 123,-372 123,-366 123,-366 123,-354 123,-354 123,-348 129,-342 135,-342 135,-342 165,-342 165,-342 171,-342 177,-348 177,-354 177,-354 177,-366 177,-366 177,-372 171,-378 165,-378"/>
<text text-anchor="middle" x="150" y="-354.75" font-family="Arial" font-size="15.00">layer</text>
</g>
<!-- /lib/models/layers.dart&#45;&gt;/lib/models/layer.dart -->
<g id="edge16" class="edge">
<title>/lib/models/layers.dart&#45;&gt;/lib/models/layer.dart</title>
<path fill="none" stroke="#aabbaa" stroke-width="1.3" stroke-opacity="0.533333" d="M144.08,-413.7C143.34,-406.49 143.09,-397.93 143.34,-389.82"/>
<polygon fill="#aabbaa" fill-opacity="0.533333" stroke="#aabbaa" stroke-width="1.3" stroke-opacity="0.533333" points="146.82,-390.27 143.98,-380.07 139.84,-389.82 146.82,-390.27"/>
</g>
<!-- /lib/models/layers.dart&#45;&gt;/lib/models/layer.dart -->
<g id="edge17" class="edge">
<title>/lib/models/layers.dart&#45;&gt;/lib/models/layer.dart</title>
<path fill="none" stroke="#aabbaa" stroke-width="1.3" stroke-dasharray="5,2" stroke-opacity="0.533333" d="M155.92,-413.7C156.66,-406.49 156.91,-397.93 156.66,-389.82"/>
<polygon fill="#aabbaa" fill-opacity="0.533333" stroke="#aabbaa" stroke-width="1.3" stroke-opacity="0.533333" points="160.16,-389.82 156.02,-380.07 153.18,-390.27 160.16,-389.82"/>
</g>
<!-- /lib/helpers/list_helper.dart -->
<g id="node18" class="node">
<title>/lib/helpers/list_helper.dart</title>
<path fill="Lavender" stroke="black" stroke-width="1.3" d="M763.75,-68C763.75,-68 704.25,-68 704.25,-68 698.25,-68 692.25,-62 692.25,-56 692.25,-56 692.25,-44 692.25,-44 692.25,-38 698.25,-32 704.25,-32 704.25,-32 763.75,-32 763.75,-32 769.75,-32 775.75,-38 775.75,-44 775.75,-44 775.75,-56 775.75,-56 775.75,-62 769.75,-68 763.75,-68"/>
<text text-anchor="middle" x="734" y="-44.75" font-family="Arial" font-size="15.00">list_helper</text>
</g>
<!-- /lib/models/layers.dart&#45;&gt;/lib/helpers/list_helper.dart -->
<g id="edge15" class="edge">
<title>/lib/models/layers.dart&#45;&gt;/lib/helpers/list_helper.dart</title>
<path fill="none" stroke="#aabbaa" stroke-width="1.3" stroke-opacity="0.533333" d="M122.51,-413.56C78.31,-383.25 -0.22,-318.67 35,-262 118.73,-127.28 203.41,-150.69 355,-104 467.32,-69.4 605.39,-57.31 679.98,-53.14"/>
<polygon fill="#aabbaa" fill-opacity="0.533333" stroke="#aabbaa" stroke-width="1.3" stroke-opacity="0.533333" points="680.07,-56.64 689.87,-52.62 679.7,-49.65 680.07,-56.64"/>
</g>
<!-- /lib/models/user_action.dart -->
<g id="node9" class="node">
<title>/lib/models/user_action.dart</title>
<path fill="Lavender" stroke="black" stroke-width="1.3" d="M125.62,-306C125.62,-306 56.38,-306 56.38,-306 50.38,-306 44.38,-300 44.38,-294 44.38,-294 44.38,-282 44.38,-282 44.38,-276 50.38,-270 56.38,-270 56.38,-270 125.62,-270 125.62,-270 131.62,-270 137.62,-276 137.62,-282 137.62,-282 137.62,-294 137.62,-294 137.62,-300 131.62,-306 125.62,-306"/>
<text text-anchor="middle" x="91" y="-282.75" font-family="Arial" font-size="15.00">user_action</text>
</g>
<!-- /lib/widgets/brush_style_picker.dart -->
<g id="node23" class="node">
<title>/lib/widgets/brush_style_picker.dart</title>
<path fill="Lavender" stroke="black" stroke-width="1.3" d="M492.25,-223C492.25,-223 375.75,-223 375.75,-223 369.75,-223 363.75,-217 363.75,-211 363.75,-211 363.75,-199 363.75,-199 363.75,-193 369.75,-187 375.75,-187 375.75,-187 492.25,-187 492.25,-187 498.25,-187 504.25,-193 504.25,-199 504.25,-199 504.25,-211 504.25,-211 504.25,-217 498.25,-223 492.25,-223"/>
<text text-anchor="middle" x="434" y="-199.75" font-family="Arial" font-size="15.00">brush_style_picker</text>
</g>
<!-- /lib/models/user_action.dart&#45;&gt;/lib/widgets/brush_style_picker.dart -->
<g id="edge18" class="edge">
<title>/lib/models/user_action.dart&#45;&gt;/lib/widgets/brush_style_picker.dart</title>
<path fill="none" stroke="#aabbaa" stroke-width="1.3" stroke-opacity="0.533333" d="M117.18,-269.61C123.56,-266.79 130.41,-264.11 137,-262 207.62,-239.43 291.03,-224.42 351.52,-215.67"/>
<polygon fill="#aabbaa" fill-opacity="0.533333" stroke="#aabbaa" stroke-width="1.3" stroke-opacity="0.533333" points="351.94,-219.15 361.35,-214.28 350.96,-212.22 351.94,-219.15"/>
</g>
<!-- /lib/models/user_action.dart&#45;&gt;/lib/widgets/brush_style_picker.dart -->
<g id="edge19" class="edge">
<title>/lib/models/user_action.dart&#45;&gt;/lib/widgets/brush_style_picker.dart</title>
<path fill="none" stroke="#aabbaa" stroke-width="1.3" stroke-dasharray="5,2" stroke-opacity="0.533333" d="M134.87,-269.61C141.56,-266.79 148.41,-264.11 155,-262 219.89,-241.26 295.58,-226.91 351.79,-217.93"/>
<polygon fill="#aabbaa" fill-opacity="0.533333" stroke="#aabbaa" stroke-width="1.3" stroke-opacity="0.533333" points="352.2,-221.41 361.54,-216.4 351.12,-214.49 352.2,-221.41"/>
</g>
<!-- /lib/models/app_model.dart&#45;&gt;/lib/models/layers.dart -->
<g id="edge20" class="edge">
<title>/lib/models/app_model.dart&#45;&gt;/lib/models/layers.dart</title>
<path fill="none" stroke="#aabbaa" stroke-width="1.3" stroke-opacity="0.533333" d="M192.83,-306.32C189.48,-324.69 186.37,-354.29 177,-378 173.42,-387.06 168.07,-396.13 162.95,-404.14"/>
<polygon fill="#aabbaa" fill-opacity="0.533333" stroke="#aabbaa" stroke-width="1.3" stroke-opacity="0.533333" points="160.14,-402.03 157.59,-412.32 166,-405.87 160.14,-402.03"/>
</g>
<!-- /lib/models/app_model.dart&#45;&gt;/lib/models/layers.dart -->
<g id="edge21" class="edge">
<title>/lib/models/app_model.dart&#45;&gt;/lib/models/layers.dart</title>
<path fill="none" stroke="#aabbaa" stroke-width="1.3" stroke-dasharray="5,2" stroke-opacity="0.533333" d="M206.19,-306.32C207.48,-324.69 204.37,-354.29 195,-378 191.34,-387.27 185.83,-396.54 179.83,-404.68"/>
<polygon fill="#aabbaa" fill-opacity="0.533333" stroke="#aabbaa" stroke-width="1.3" stroke-opacity="0.533333" points="177.14,-402.44 173.6,-412.43 182.59,-406.83 177.14,-402.44"/>
</g>
<!-- /lib/models/layer.dart&#45;&gt;/lib/models/user_action.dart -->
<g id="edge23" class="edge">
<title>/lib/models/layer.dart&#45;&gt;/lib/models/user_action.dart</title>
<path fill="none" stroke="#aabbaa" stroke-width="1.3" stroke-dasharray="5,2" stroke-opacity="0.533333" d="M135.42,-341.7C128.63,-333.64 120.41,-323.89 112.9,-314.98"/>
<polygon fill="#aabbaa" fill-opacity="0.533333" stroke="#aabbaa" stroke-width="1.3" stroke-opacity="0.533333" points="115.81,-313 106.68,-307.61 110.45,-317.51 115.81,-313"/>
</g>
<!-- /lib/models/layer.dart&#45;&gt;/lib/models/app_model.dart -->
<g id="edge22" class="edge">
<title>/lib/models/layer.dart&#45;&gt;/lib/models/app_model.dart</title>
<path fill="none" stroke="#aabbaa" stroke-width="1.3" stroke-opacity="0.533333" d="M162.36,-341.7C167.93,-333.9 174.64,-324.51 180.84,-315.83"/>
<polygon fill="#aabbaa" fill-opacity="0.533333" stroke="#aabbaa" stroke-width="1.3" stroke-opacity="0.533333" points="183.67,-317.88 186.64,-307.71 177.98,-313.81 183.67,-317.88"/>
</g>
<!-- /lib/main.dart&#45;&gt;/lib/models/app_model.dart -->
<g id="edge25" class="edge">
<title>/lib/main.dart&#45;&gt;/lib/models/app_model.dart</title>
<path fill="none" stroke="#aabbaa" stroke-width="1.3" stroke-opacity="0.533333" d="M216.93,-560.79C213.95,-513.01 205.57,-378.35 201.83,-318.41"/>
<polygon fill="#aabbaa" fill-opacity="0.533333" stroke="#aabbaa" stroke-width="1.3" stroke-opacity="0.533333" points="205.33,-318.21 201.21,-308.45 198.34,-318.65 205.33,-318.21"/>
</g>
<!-- /lib/main_screen.dart -->
<g id="node17" class="node">
<title>/lib/main_screen.dart</title>
<path fill="Lavender" stroke="black" stroke-width="1.3" d="M624.75,-525C624.75,-525 547.25,-525 547.25,-525 541.25,-525 535.25,-519 535.25,-513 535.25,-513 535.25,-501 535.25,-501 535.25,-495 541.25,-489 547.25,-489 547.25,-489 624.75,-489 624.75,-489 630.75,-489 636.75,-495 636.75,-501 636.75,-501 636.75,-513 636.75,-513 636.75,-519 630.75,-525 624.75,-525"/>
<text text-anchor="middle" x="586" y="-501.75" font-family="Arial" font-size="15.00">main_screen</text>
</g>
<!-- /lib/main.dart&#45;&gt;/lib/main_screen.dart -->
<g id="edge24" class="edge">
<title>/lib/main.dart&#45;&gt;/lib/main_screen.dart</title>
<path fill="none" stroke="#aabbaa" stroke-width="1.3" stroke-opacity="0.533333" d="M245.36,-572.8C303.78,-561.68 442.02,-535.39 523.3,-519.93"/>
<polygon fill="#aabbaa" fill-opacity="0.533333" stroke="#aabbaa" stroke-width="1.3" stroke-opacity="0.533333" points="523.76,-523.4 532.93,-518.09 522.46,-516.52 523.76,-523.4"/>
</g>
<!-- /lib/files/export_download_web.dart -->
<g id="node13" class="node">
<title>/lib/files/export_download_web.dart</title>
<path fill="Lavender" stroke="black" stroke-width="1.3" d="M747.25,-450C747.25,-450 606.75,-450 606.75,-450 600.75,-450 594.75,-444 594.75,-438 594.75,-438 594.75,-426 594.75,-426 594.75,-420 600.75,-414 606.75,-414 606.75,-414 747.25,-414 747.25,-414 753.25,-414 759.25,-420 759.25,-426 759.25,-426 759.25,-438 759.25,-438 759.25,-444 753.25,-450 747.25,-450"/>
<text text-anchor="middle" x="677" y="-426.75" font-family="Arial" font-size="15.00">export_download_web</text>
</g>
<!-- /lib/files/export_download_web.dart&#45;&gt;/lib/panels/share_panel.dart -->
<g id="edge28" class="edge">
<title>/lib/files/export_download_web.dart&#45;&gt;/lib/panels/share_panel.dart</title>
<path fill="none" stroke="#aabbaa" stroke-width="1.3" stroke-opacity="0.533333" d="M723.71,-413.52C748.79,-404.13 779.93,-392.47 806.49,-382.53"/>
<polygon fill="#aabbaa" fill-opacity="0.533333" stroke="#aabbaa" stroke-width="1.3" stroke-opacity="0.533333" points="807.58,-385.86 815.72,-379.07 805.13,-379.3 807.58,-385.86"/>
</g>
<!-- /lib/files/export_download_web.dart&#45;&gt;/lib/models/app_model.dart -->
<g id="edge27" class="edge">
<title>/lib/files/export_download_web.dart&#45;&gt;/lib/models/app_model.dart</title>
<path fill="none" stroke="#aabbaa" stroke-width="1.3" stroke-opacity="0.533333" d="M594.7,-415.41C591.76,-414.92 588.86,-414.45 586,-414 524.03,-404.24 357.15,-414.32 306,-378 288.17,-365.34 299.24,-349.68 284,-334 275.7,-325.46 265.42,-318.16 254.94,-312.09"/>
<polygon fill="#aabbaa" fill-opacity="0.533333" stroke="#aabbaa" stroke-width="1.3" stroke-opacity="0.533333" points="256.64,-309.03 246.18,-307.35 253.31,-315.19 256.64,-309.03"/>
</g>
<!-- /lib/files/file_ora.dart -->
<g id="node14" class="node">
<title>/lib/files/file_ora.dart</title>
<path fill="Lavender" stroke="black" stroke-width="1.3" d="M367.38,-378C367.38,-378 326.62,-378 326.62,-378 320.62,-378 314.62,-372 314.62,-366 314.62,-366 314.62,-354 314.62,-354 314.62,-348 320.62,-342 326.62,-342 326.62,-342 367.38,-342 367.38,-342 373.38,-342 379.38,-348 379.38,-354 379.38,-354 379.38,-366 379.38,-366 379.38,-372 373.38,-378 367.38,-378"/>
<text text-anchor="middle" x="347" y="-354.75" font-family="Arial" font-size="15.00">file_ora</text>
</g>
<!-- /lib/files/export_download_web.dart&#45;&gt;/lib/files/file_ora.dart -->
<g id="edge26" class="edge">
<title>/lib/files/export_download_web.dart&#45;&gt;/lib/files/file_ora.dart</title>
<path fill="none" stroke="#aabbaa" stroke-width="1.3" stroke-opacity="0.533333" d="M594.58,-413.52C530.11,-399.84 442.98,-381.36 391.13,-370.36"/>
<polygon fill="#aabbaa" fill-opacity="0.533333" stroke="#aabbaa" stroke-width="1.3" stroke-opacity="0.533333" points="392.12,-366.99 381.61,-368.34 390.66,-373.84 392.12,-366.99"/>
</g>
<!-- /lib/files/file_ora.dart&#45;&gt;/lib/models/app_model.dart -->
<g id="edge30" class="edge">
<title>/lib/files/file_ora.dart&#45;&gt;/lib/models/app_model.dart</title>
<path fill="none" stroke="#aabbaa" stroke-width="1.3" stroke-opacity="0.533333" d="M316,-341.72C311.02,-339.07 305.89,-336.41 301,-334 285.2,-326.2 267.74,-318.21 251.84,-311.16"/>
<polygon fill="#aabbaa" fill-opacity="0.533333" stroke="#aabbaa" stroke-width="1.3" stroke-opacity="0.533333" points="253.49,-308.06 242.93,-307.24 250.67,-314.47 253.49,-308.06"/>
</g>
<!-- /lib/files/file_ora.dart&#45;&gt;/lib/helpers/list_helper.dart -->
<g id="edge29" class="edge">
<title>/lib/files/file_ora.dart&#45;&gt;/lib/helpers/list_helper.dart</title>
<path fill="none" stroke="#aabbaa" stroke-width="1.3" stroke-opacity="0.533333" d="M341.54,-341.55C331.8,-306.78 315.71,-227.98 352,-179 429.07,-74.98 594.39,-54.46 680.06,-51.08"/>
<polygon fill="#aabbaa" fill-opacity="0.533333" stroke="#aabbaa" stroke-width="1.3" stroke-opacity="0.533333" points="680,-54.58 689.88,-50.76 679.77,-47.59 680,-54.58"/>
</g>
<!-- /lib/files/export_download_non_web.dart -->
<g id="node15" class="node">
<title>/lib/files/export_download_non_web.dart</title>
<path fill="Lavender" stroke="black" stroke-width="1.3" d="M564.75,-450C564.75,-450 391.25,-450 391.25,-450 385.25,-450 379.25,-444 379.25,-438 379.25,-438 379.25,-426 379.25,-426 379.25,-420 385.25,-414 391.25,-414 391.25,-414 564.75,-414 564.75,-414 570.75,-414 576.75,-420 576.75,-426 576.75,-426 576.75,-438 576.75,-438 576.75,-444 570.75,-450 564.75,-450"/>
<text text-anchor="middle" x="478" y="-426.75" font-family="Arial" font-size="15.00">export_download_non_web</text>
</g>
<!-- /lib/files/export_download_non_web.dart&#45;&gt;/lib/panels/share_panel.dart -->
<g id="edge33" class="edge">
<title>/lib/files/export_download_non_web.dart&#45;&gt;/lib/panels/share_panel.dart</title>
<path fill="none" stroke="#aabbaa" stroke-width="1.3" stroke-opacity="0.533333" d="M574.68,-413.56C631.79,-403.24 705.52,-389.91 771,-378 781.44,-376.1 792.53,-374.08 803.28,-372.12"/>
<polygon fill="#aabbaa" fill-opacity="0.533333" stroke="#aabbaa" stroke-width="1.3" stroke-opacity="0.533333" points="803.63,-375.61 812.84,-370.37 802.37,-368.72 803.63,-375.61"/>
</g>
<!-- /lib/files/export_download_non_web.dart&#45;&gt;/lib/models/app_model.dart -->
<g id="edge32" class="edge">
<title>/lib/files/export_download_non_web.dart&#45;&gt;/lib/models/app_model.dart</title>
<path fill="none" stroke="#aabbaa" stroke-width="1.3" stroke-opacity="0.533333" d="M393.25,-413.56C351.85,-403.75 307.46,-390.91 291,-378 273.3,-364.12 281.24,-350.54 266,-334 258.83,-326.22 250.07,-319.08 241.31,-312.89"/>
<polygon fill="#aabbaa" fill-opacity="0.533333" stroke="#aabbaa" stroke-width="1.3" stroke-opacity="0.533333" points="243.39,-310.07 233.13,-307.42 239.5,-315.89 243.39,-310.07"/>
</g>
<!-- /lib/files/export_download_non_web.dart&#45;&gt;/lib/files/file_ora.dart -->
<g id="edge31" class="edge">
<title>/lib/files/export_download_non_web.dart&#45;&gt;/lib/files/file_ora.dart</title>
<path fill="none" stroke="#aabbaa" stroke-width="1.3" stroke-opacity="0.533333" d="M445.28,-413.52C428.51,-404.55 407.87,-393.53 389.85,-383.9"/>
<polygon fill="#aabbaa" fill-opacity="0.533333" stroke="#aabbaa" stroke-width="1.3" stroke-opacity="0.533333" points="391.51,-380.81 381.04,-379.19 388.21,-386.99 391.51,-380.81"/>
</g>
<!-- /lib/files/import_files.dart -->
<g id="node16" class="node">
<title>/lib/files/import_files.dart</title>
<path fill="Lavender" stroke="black" stroke-width="1.3" d="M349.25,-450C349.25,-450 280.75,-450 280.75,-450 274.75,-450 268.75,-444 268.75,-438 268.75,-438 268.75,-426 268.75,-426 268.75,-420 274.75,-414 280.75,-414 280.75,-414 349.25,-414 349.25,-414 355.25,-414 361.25,-420 361.25,-426 361.25,-426 361.25,-438 361.25,-438 361.25,-444 355.25,-450 349.25,-450"/>
<text text-anchor="middle" x="315" y="-426.75" font-family="Arial" font-size="15.00">import_files</text>
</g>
<!-- /lib/files/import_files.dart&#45;&gt;/lib/models/app_model.dart -->
<g id="edge35" class="edge">
<title>/lib/files/import_files.dart&#45;&gt;/lib/models/app_model.dart</title>
<path fill="none" stroke="#aabbaa" stroke-width="1.3" stroke-opacity="0.533333" d="M298.67,-413.76C289.78,-403.81 279,-390.77 271,-378 259.59,-359.8 263.78,-351.27 251,-334 245.78,-326.95 239.3,-320.21 232.73,-314.18"/>
<polygon fill="#aabbaa" fill-opacity="0.533333" stroke="#aabbaa" stroke-width="1.3" stroke-opacity="0.533333" points="235.15,-311.65 225.31,-307.74 230.57,-316.94 235.15,-311.65"/>
</g>
<!-- /lib/files/import_files.dart&#45;&gt;/lib/files/file_ora.dart -->
<g id="edge34" class="edge">
<title>/lib/files/import_files.dart&#45;&gt;/lib/files/file_ora.dart</title>
<path fill="none" stroke="#aabbaa" stroke-width="1.3" stroke-opacity="0.533333" d="M322.91,-413.7C326.32,-406.24 330.4,-397.32 334.22,-388.97"/>
<polygon fill="#aabbaa" fill-opacity="0.533333" stroke="#aabbaa" stroke-width="1.3" stroke-opacity="0.533333" points="337.39,-390.44 338.36,-379.89 331.02,-387.53 337.39,-390.44"/>
</g>
<!-- /lib/main_screen.dart&#45;&gt;/lib/panels/canvas_panel.dart -->
<g id="edge37" class="edge">
<title>/lib/main_screen.dart&#45;&gt;/lib/panels/canvas_panel.dart</title>
<path fill="none" stroke="#aabbaa" stroke-width="1.3" stroke-opacity="0.533333" d="M637.22,-504.95C750.39,-502.38 1012.83,-494.94 1026,-481 1070.97,-433.4 1058.41,-383.89 1016,-334 994.53,-308.75 959.69,-297.27 928.67,-292.21"/>
<polygon fill="#aabbaa" fill-opacity="0.533333" stroke="#aabbaa" stroke-width="1.3" stroke-opacity="0.533333" points="929.34,-288.77 918.95,-290.84 928.37,-295.7 929.34,-288.77"/>
</g>
<!-- /lib/main_screen.dart&#45;&gt;/lib/panels/tools_panel.dart -->
<g id="edge39" class="edge">
<title>/lib/main_screen.dart&#45;&gt;/lib/panels/tools_panel.dart</title>
<path fill="none" stroke="#aabbaa" stroke-width="1.3" stroke-opacity="0.533333" d="M637.08,-506.03C716.88,-505.43 867.04,-501.5 916,-481 927.92,-476.01 939.08,-467.37 948.18,-458.79"/>
<polygon fill="#aabbaa" fill-opacity="0.533333" stroke="#aabbaa" stroke-width="1.3" stroke-opacity="0.533333" points="950.6,-461.32 955.17,-451.76 945.64,-456.39 950.6,-461.32"/>
</g>
<!-- /lib/main_screen.dart&#45;&gt;/lib/panels/layers_panel.dart -->
<g id="edge38" class="edge">
<title>/lib/main_screen.dart&#45;&gt;/lib/panels/layers_panel.dart</title>
<path fill="none" stroke="#aabbaa" stroke-width="1.3" stroke-opacity="0.533333" d="M637.01,-504.23C674.83,-501.69 727.18,-495.6 771,-481 788.66,-475.11 806.86,-465.55 821.93,-456.51"/>
<polygon fill="#aabbaa" fill-opacity="0.533333" stroke="#aabbaa" stroke-width="1.3" stroke-opacity="0.533333" points="823.5,-459.65 830.16,-451.41 819.81,-453.7 823.5,-459.65"/>
</g>
<!-- /lib/main_screen.dart&#45;&gt;/lib/models/app_model.dart -->
<g id="edge40" class="edge">
<title>/lib/main_screen.dart&#45;&gt;/lib/models/app_model.dart</title>
<path fill="none" stroke="#aabbaa" stroke-width="1.3" stroke-opacity="0.533333" d="M534.78,-505.36C447.58,-503.8 277.67,-498.53 257,-481 205.69,-437.5 243.33,-397.45 221,-334 219.03,-328.4 216.6,-322.55 214.1,-317"/>
<polygon fill="#aabbaa" fill-opacity="0.533333" stroke="#aabbaa" stroke-width="1.3" stroke-opacity="0.533333" points="217.27,-315.52 209.83,-307.97 210.94,-318.51 217.27,-315.52"/>
</g>
<!-- /lib/main_screen.dart&#45;&gt;/lib/files/import_files.dart -->
<g id="edge36" class="edge">
<title>/lib/main_screen.dart&#45;&gt;/lib/files/import_files.dart</title>
<path fill="none" stroke="#aabbaa" stroke-width="1.3" stroke-opacity="0.533333" d="M534.81,-503.57C480.47,-500.38 398.57,-493.63 370,-481 358.18,-475.77 347.04,-467.09 337.93,-458.54"/>
<polygon fill="#aabbaa" fill-opacity="0.533333" stroke="#aabbaa" stroke-width="1.3" stroke-opacity="0.533333" points="340.48,-456.13 330.93,-451.55 335.53,-461.09 340.48,-456.13"/>
</g>
<!-- /lib/helpers/color_helper.dart -->
<g id="node19" class="node">
<title>/lib/helpers/color_helper.dart</title>
<path fill="Lavender" stroke="black" stroke-width="1.3" d="M777.88,-140C777.88,-140 704.12,-140 704.12,-140 698.12,-140 692.12,-134 692.12,-128 692.12,-128 692.12,-116 692.12,-116 692.12,-110 698.12,-104 704.12,-104 704.12,-104 777.88,-104 777.88,-104 783.88,-104 789.88,-110 789.88,-116 789.88,-116 789.88,-128 789.88,-128 789.88,-134 783.88,-140 777.88,-140"/>
<text text-anchor="middle" x="741" y="-116.75" font-family="Arial" font-size="15.00">color_helper</text>
</g>
<!-- /lib/helpers/color_helper.dart&#45;&gt;/lib/helpers/list_helper.dart -->
<g id="edge41" class="edge">
<title>/lib/helpers/color_helper.dart&#45;&gt;/lib/helpers/list_helper.dart</title>
<path fill="none" stroke="#aabbaa" stroke-width="1.3" stroke-opacity="0.533333" d="M739.27,-103.7C738.55,-96.49 737.69,-87.93 736.88,-79.82"/>
<polygon fill="#aabbaa" fill-opacity="0.533333" stroke="#aabbaa" stroke-width="1.3" stroke-opacity="0.533333" points="740.38,-79.66 735.91,-70.06 733.42,-80.36 740.38,-79.66"/>
</g>
<!-- /lib/widgets/brush_style_picker.dart&#45;&gt;/lib/models/app_model.dart -->
<g id="edge42" class="edge">
<title>/lib/widgets/brush_style_picker.dart&#45;&gt;/lib/models/app_model.dart</title>
<path fill="none" stroke="#aabbaa" stroke-width="1.3" stroke-opacity="0.533333" d="M383.75,-223.4C346.27,-236.37 295.07,-254.09 256.23,-267.54"/>
<polygon fill="#aabbaa" fill-opacity="0.533333" stroke="#aabbaa" stroke-width="1.3" stroke-opacity="0.533333" points="255.28,-264.16 246.98,-270.74 257.57,-270.78 255.28,-264.16"/>
</g>
<!-- /lib/widgets/color_picker.dart&#45;&gt;/lib/helpers/list_helper.dart -->
<g id="edge44" class="edge">
<title>/lib/widgets/color_picker.dart&#45;&gt;/lib/helpers/list_helper.dart</title>
<path fill="none" stroke="#aabbaa" stroke-width="1.3" stroke-opacity="0.533333" d="M1017.06,-186.57C1009.64,-183.49 1001.7,-180.72 994,-179 977.13,-175.24 695.06,-183.38 683,-171 662.22,-149.67 671.87,-131.62 683,-104 687.14,-93.74 694.32,-84.35 702,-76.42"/>
<polygon fill="#aabbaa" fill-opacity="0.533333" stroke="#aabbaa" stroke-width="1.3" stroke-opacity="0.533333" points="704.16,-79.2 709,-69.77 699.34,-74.12 704.16,-79.2"/>
</g>
<!-- /lib/widgets/color_picker.dart&#45;&gt;/lib/helpers/color_helper.dart -->
<g id="edge43" class="edge">
<title>/lib/widgets/color_picker.dart&#45;&gt;/lib/helpers/color_helper.dart</title>
<path fill="none" stroke="#aabbaa" stroke-width="1.3" stroke-opacity="0.533333" d="M1014,-186.53C1007.42,-183.78 1000.57,-181.15 994,-179 929.73,-158.02 853.72,-142.37 801.91,-133.03"/>
<polygon fill="#aabbaa" fill-opacity="0.533333" stroke="#aabbaa" stroke-width="1.3" stroke-opacity="0.533333" points="802.66,-129.6 792.2,-131.3 801.43,-136.5 802.66,-129.6"/>
</g>
</g>
</svg>
