<?xml version="1.0" encoding="UTF-8" standalone="no"?>
<!DOCTYPE svg PUBLIC "-//W3C//DTD SVG 1.1//EN"
 "http://www.w3.org/Graphics/SVG/1.1/DTD/svg11.dtd">
<!-- Generated by graphviz version 12.2.1 (20241206.2353)
 -->
<!-- Pages: 1 -->
<svg width="1323pt" height="833pt"
 viewBox="0.00 0.00 1323.00 833.00" xmlns="http://www.w3.org/2000/svg" xmlns:xlink="http://www.w3.org/1999/xlink">
<g id="graph0" class="graph" transform="scale(1 1) rotate(0) translate(4 829)">
<polygon fill="white" stroke="none" points="-4,4 -4,-829 1319,-829 1319,4 -4,4"/>
<g id="clust1" class="cluster">
<title>cluster~</title>
<path fill="none" stroke="lightgray" stroke-width="2.6" d="M20,-8C20,-8 1295,-8 1295,-8 1301,-8 1307,-14 1307,-20 1307,-20 1307,-805 1307,-805 1307,-811 1301,-817 1295,-817 1295,-817 20,-817 20,-817 14,-817 8,-811 8,-805 8,-805 8,-20 8,-20 8,-14 14,-8 20,-8"/>
<text text-anchor="middle" x="657.5" y="-800.65" font-family="Arial Black" font-size="13.00">fpaint</text>
</g>
<g id="clust2" class="cluster">
<title>cluster~/test</title>
<path fill="none" stroke="lightgray" stroke-width="2.6" d="M686,-711C686,-711 1024,-711 1024,-711 1030,-711 1036,-717 1036,-723 1036,-723 1036,-774 1036,-774 1036,-780 1030,-786 1024,-786 1024,-786 686,-786 686,-786 680,-786 674,-780 674,-774 674,-774 674,-723 674,-723 674,-717 680,-711 686,-711"/>
<text text-anchor="middle" x="855" y="-769.65" font-family="Arial Black" font-size="13.00">test</text>
</g>
<g id="clust3" class="cluster">
<title>cluster~/lib</title>
<path fill="none" stroke="lightgray" stroke-width="2.6" d="M40,-16C40,-16 1287,-16 1287,-16 1293,-16 1299,-22 1299,-28 1299,-28 1299,-691 1299,-691 1299,-697 1293,-703 1287,-703 1287,-703 40,-703 40,-703 34,-703 28,-697 28,-691 28,-691 28,-28 28,-28 28,-22 34,-16 40,-16"/>
<text text-anchor="middle" x="663.5" y="-686.65" font-family="Arial Black" font-size="13.00">lib</text>
</g>
<g id="clust4" class="cluster">
<title>cluster~/lib/panels</title>
<path fill="none" stroke="lightgray" stroke-width="2.6" d="M120,-262C120,-262 455,-262 455,-262 461,-262 467,-268 467,-274 467,-274 467,-544 467,-544 467,-550 461,-556 455,-556 455,-556 120,-556 120,-556 114,-556 108,-550 108,-544 108,-544 108,-274 108,-274 108,-268 114,-262 120,-262"/>
<text text-anchor="middle" x="287.5" y="-539.65" font-family="Arial Black" font-size="13.00">panels</text>
</g>
<g id="clust5" class="cluster">
<title>cluster~/lib/models</title>
<path fill="none" stroke="lightgray" stroke-width="2.6" d="M1054,-262C1054,-262 1247,-262 1247,-262 1253,-262 1259,-268 1259,-274 1259,-274 1259,-469 1259,-469 1259,-475 1253,-481 1247,-481 1247,-481 1054,-481 1054,-481 1048,-481 1042,-475 1042,-469 1042,-469 1042,-274 1042,-274 1042,-268 1048,-262 1054,-262"/>
<text text-anchor="middle" x="1150.5" y="-464.65" font-family="Arial Black" font-size="13.00">models</text>
</g>
<g id="clust6" class="cluster">
<title>cluster~/lib/files</title>
<path fill="none" stroke="lightgray" stroke-width="2.6" d="M539,-334C539,-334 1022,-334 1022,-334 1028,-334 1034,-340 1034,-346 1034,-346 1034,-469 1034,-469 1034,-475 1028,-481 1022,-481 1022,-481 539,-481 539,-481 533,-481 527,-475 527,-469 527,-469 527,-346 527,-346 527,-340 533,-334 539,-334"/>
<text text-anchor="middle" x="780.5" y="-464.65" font-family="Arial Black" font-size="13.00">files</text>
</g>
<g id="clust7" class="cluster">
<title>cluster~/lib/helpers</title>
<path fill="none" stroke="lightgray" stroke-width="2.6" d="M657,-24C657,-24 747,-24 747,-24 753,-24 759,-30 759,-36 759,-36 759,-159 759,-159 759,-165 753,-171 747,-171 747,-171 657,-171 657,-171 651,-171 645,-165 645,-159 645,-159 645,-36 645,-36 645,-30 651,-24 657,-24"/>
<text text-anchor="middle" x="702" y="-154.65" font-family="Arial Black" font-size="13.00">helpers</text>
</g>
<g id="clust8" class="cluster">
<title>cluster~/lib/widgets</title>
<path fill="none" stroke="lightgray" stroke-width="2.6" d="M124,-179C124,-179 851,-179 851,-179 857,-179 863,-185 863,-191 863,-191 863,-242 863,-242 863,-248 857,-254 851,-254 851,-254 124,-254 124,-254 118,-254 112,-248 112,-242 112,-242 112,-191 112,-191 112,-185 118,-179 124,-179"/>
<text text-anchor="middle" x="487.5" y="-237.65" font-family="Arial Black" font-size="13.00">widgets</text>
</g>
<!-- /test/paint_model_test.dart -->
<g id="node1" class="node">
<title>/test/paint_model_test.dart</title>
<path fill="Lavender" stroke="black" stroke-width="1.3" d="M800,-755C800,-755 694,-755 694,-755 688,-755 682,-749 682,-743 682,-743 682,-731 682,-731 682,-725 688,-719 694,-719 694,-719 800,-719 800,-719 806,-719 812,-725 812,-731 812,-731 812,-743 812,-743 812,-749 806,-755 800,-755"/>
<text text-anchor="middle" x="747" y="-731.75" font-family="Arial" font-size="15.00">paint_model_test</text>
</g>
<!-- /lib/models/app_model.dart -->
<g id="node13" class="node">
<title>/lib/models/app_model.dart</title>
<path fill="Lavender" stroke="black" stroke-width="1.3" d="M1127.75,-306C1127.75,-306 1062.25,-306 1062.25,-306 1056.25,-306 1050.25,-300 1050.25,-294 1050.25,-294 1050.25,-282 1050.25,-282 1050.25,-276 1056.25,-270 1062.25,-270 1062.25,-270 1127.75,-270 1127.75,-270 1133.75,-270 1139.75,-276 1139.75,-282 1139.75,-282 1139.75,-294 1139.75,-294 1139.75,-300 1133.75,-306 1127.75,-306"/>
<text text-anchor="middle" x="1095" y="-282.75" font-family="Arial" font-size="15.00">app_model</text>
</g>
<!-- /test/paint_model_test.dart&#45;&gt;/lib/models/app_model.dart -->
<g id="edge1" class="edge">
<title>/test/paint_model_test.dart&#45;&gt;/lib/models/app_model.dart</title>
<path fill="none" stroke="#aabbaa" stroke-width="1.3" stroke-opacity="0.533333" d="M681.79,-735.36C508.34,-733.37 47.2,-725.91 24,-703 -14.01,-665.46 17,-636.42 17,-583 17,-583 17,-583 17,-431 17,-373.09 51.67,-358.8 104,-334 146.35,-313.93 833.19,-295.46 1037.87,-290.37"/>
<polygon fill="#aabbaa" fill-opacity="0.533333" stroke="#aabbaa" stroke-width="1.3" stroke-opacity="0.533333" points="1037.93,-293.87 1047.84,-290.13 1037.76,-286.88 1037.93,-293.87"/>
</g>
<!-- /test/widget_test.dart -->
<g id="node2" class="node">
<title>/test/widget_test.dart</title>
<path fill="Lavender" stroke="black" stroke-width="1.3" d="M909.88,-755C909.88,-755 842.12,-755 842.12,-755 836.12,-755 830.12,-749 830.12,-743 830.12,-743 830.12,-731 830.12,-731 830.12,-725 836.12,-719 842.12,-719 842.12,-719 909.88,-719 909.88,-719 915.88,-719 921.88,-725 921.88,-731 921.88,-731 921.88,-743 921.88,-743 921.88,-749 915.88,-755 909.88,-755"/>
<text text-anchor="middle" x="876" y="-731.75" font-family="Arial" font-size="15.00">widget_test</text>
</g>
<!-- /lib/main.dart -->
<g id="node15" class="node">
<title>/lib/main.dart</title>
<path fill="Lavender" stroke="black" stroke-width="1.3" d="M891,-672C891,-672 861,-672 861,-672 855,-672 849,-666 849,-660 849,-660 849,-648 849,-648 849,-642 855,-636 861,-636 861,-636 891,-636 891,-636 897,-636 903,-642 903,-648 903,-648 903,-660 903,-660 903,-666 897,-672 891,-672"/>
<text text-anchor="middle" x="876" y="-648.75" font-family="Arial" font-size="15.00">main</text>
</g>
<!-- /test/widget_test.dart&#45;&gt;/lib/main.dart -->
<g id="edge2" class="edge">
<title>/test/widget_test.dart&#45;&gt;/lib/main.dart</title>
<path fill="none" stroke="#aabbaa" stroke-width="1.3" stroke-opacity="0.533333" d="M876,-718.82C876,-708.8 876,-695.88 876,-684.29"/>
<polygon fill="#aabbaa" fill-opacity="0.533333" stroke="#aabbaa" stroke-width="1.3" stroke-opacity="0.533333" points="879.5,-684.4 876,-674.4 872.5,-684.4 879.5,-684.4"/>
</g>
<!-- /test/layers_test.dart -->
<g id="node3" class="node">
<title>/test/layers_test.dart</title>
<path fill="Lavender" stroke="black" stroke-width="1.3" d="M1016.38,-755C1016.38,-755 951.62,-755 951.62,-755 945.62,-755 939.62,-749 939.62,-743 939.62,-743 939.62,-731 939.62,-731 939.62,-725 945.62,-719 951.62,-719 951.62,-719 1016.38,-719 1016.38,-719 1022.38,-719 1028.38,-725 1028.38,-731 1028.38,-731 1028.38,-743 1028.38,-743 1028.38,-749 1022.38,-755 1016.38,-755"/>
<text text-anchor="middle" x="984" y="-731.75" font-family="Arial" font-size="15.00">layers_test</text>
</g>
<!-- /lib/models/layer.dart -->
<g id="node14" class="node">
<title>/lib/models/layer.dart</title>
<path fill="Lavender" stroke="black" stroke-width="1.3" d="M1165,-378C1165,-378 1135,-378 1135,-378 1129,-378 1123,-372 1123,-366 1123,-366 1123,-354 1123,-354 1123,-348 1129,-342 1135,-342 1135,-342 1165,-342 1165,-342 1171,-342 1177,-348 1177,-354 1177,-354 1177,-366 1177,-366 1177,-372 1171,-378 1165,-378"/>
<text text-anchor="middle" x="1150" y="-354.75" font-family="Arial" font-size="15.00">layer</text>
</g>
<!-- /test/layers_test.dart&#45;&gt;/lib/models/layer.dart -->
<g id="edge3" class="edge">
<title>/test/layers_test.dart&#45;&gt;/lib/models/layer.dart</title>
<path fill="none" stroke="#aabbaa" stroke-width="1.3" stroke-opacity="0.533333" d="M1028.68,-733.45C1073.47,-729.88 1138.02,-721.58 1154,-703 1188.81,-662.53 1159,-636.38 1159,-583 1159,-583 1159,-583 1159,-506 1159,-465.79 1155.51,-419.44 1152.88,-390.18"/>
<polygon fill="#aabbaa" fill-opacity="0.533333" stroke="#aabbaa" stroke-width="1.3" stroke-opacity="0.533333" points="1156.37,-389.98 1151.96,-380.35 1149.4,-390.63 1156.37,-389.98"/>
</g>
<!-- /lib/panels/tool_selector.dart -->
<g id="node4" class="node">
<title>/lib/panels/tool_selector.dart</title>
<path fill="Lavender" stroke="black" stroke-width="1.3" d="M204.38,-378C204.38,-378 127.62,-378 127.62,-378 121.62,-378 115.62,-372 115.62,-366 115.62,-366 115.62,-354 115.62,-354 115.62,-348 121.62,-342 127.62,-342 127.62,-342 204.38,-342 204.38,-342 210.38,-342 216.38,-348 216.38,-354 216.38,-354 216.38,-366 216.38,-366 216.38,-372 210.38,-378 204.38,-378"/>
<text text-anchor="middle" x="166" y="-354.75" font-family="Arial" font-size="15.00">tool_selector</text>
</g>
<!-- /lib/panels/canvas_panel.dart -->
<g id="node5" class="node">
<title>/lib/panels/canvas_panel.dart</title>
<path fill="Lavender" stroke="black" stroke-width="1.3" d="M446.75,-306C446.75,-306 363.25,-306 363.25,-306 357.25,-306 351.25,-300 351.25,-294 351.25,-294 351.25,-282 351.25,-282 351.25,-276 357.25,-270 363.25,-270 363.25,-270 446.75,-270 446.75,-270 452.75,-270 458.75,-276 458.75,-282 458.75,-282 458.75,-294 458.75,-294 458.75,-300 452.75,-306 446.75,-306"/>
<text text-anchor="middle" x="405" y="-282.75" font-family="Arial" font-size="15.00">canvas_panel</text>
</g>
<!-- /lib/panels/canvas_panel.dart&#45;&gt;/lib/models/app_model.dart -->
<g id="edge4" class="edge">
<title>/lib/panels/canvas_panel.dart&#45;&gt;/lib/models/app_model.dart</title>
<path fill="none" stroke="#aabbaa" stroke-width="1.3" stroke-opacity="0.533333" d="M459.24,-288C652.22,-288 845.19,-288 1038.16,-288"/>
<polygon fill="#aabbaa" fill-opacity="0.533333" stroke="#aabbaa" stroke-width="1.3" stroke-opacity="0.533333" points="1038.02,-291.5 1048.02,-288 1038.02,-284.5 1038.02,-291.5"/>
</g>
<!-- /lib/widgets/transparent_background.dart -->
<g id="node26" class="node">
<title>/lib/widgets/transparent_background.dart</title>
<path fill="Lavender" stroke="black" stroke-width="1.3" d="M555.38,-223C555.38,-223 400.62,-223 400.62,-223 394.62,-223 388.62,-217 388.62,-211 388.62,-211 388.62,-199 388.62,-199 388.62,-193 394.62,-187 400.62,-187 400.62,-187 555.38,-187 555.38,-187 561.38,-187 567.38,-193 567.38,-199 567.38,-199 567.38,-211 567.38,-211 567.38,-217 561.38,-223 555.38,-223"/>
<text text-anchor="middle" x="478" y="-199.75" font-family="Arial" font-size="15.00">transparent_background</text>
</g>
<!-- /lib/panels/canvas_panel.dart&#45;&gt;/lib/widgets/transparent_background.dart -->
<g id="edge5" class="edge">
<title>/lib/panels/canvas_panel.dart&#45;&gt;/lib/widgets/transparent_background.dart</title>
<path fill="none" stroke="#aabbaa" stroke-width="1.3" stroke-opacity="0.533333" d="M420.48,-269.82C430.38,-258.84 443.41,-244.38 454.57,-232"/>
<polygon fill="#aabbaa" fill-opacity="0.533333" stroke="#aabbaa" stroke-width="1.3" stroke-opacity="0.533333" points="456.88,-234.67 460.97,-224.89 451.68,-229.98 456.88,-234.67"/>
</g>
<!-- /lib/panels/layer_selector.dart -->
<g id="node6" class="node">
<title>/lib/panels/layer_selector.dart</title>
<path fill="Lavender" stroke="black" stroke-width="1.3" d="M331.5,-378C331.5,-378 246.5,-378 246.5,-378 240.5,-378 234.5,-372 234.5,-366 234.5,-366 234.5,-354 234.5,-354 234.5,-348 240.5,-342 246.5,-342 246.5,-342 331.5,-342 331.5,-342 337.5,-342 343.5,-348 343.5,-354 343.5,-354 343.5,-366 343.5,-366 343.5,-372 337.5,-378 331.5,-378"/>
<text text-anchor="middle" x="289" y="-354.75" font-family="Arial" font-size="15.00">layer_selector</text>
</g>
<!-- /lib/panels/layer_selector.dart&#45;&gt;/lib/models/app_model.dart -->
<g id="edge6" class="edge">
<title>/lib/panels/layer_selector.dart&#45;&gt;/lib/models/app_model.dart</title>
<path fill="none" stroke="#aabbaa" stroke-width="1.3" stroke-opacity="0.533333" d="M327.37,-341.55C335.37,-338.55 343.85,-335.82 352,-334 482.64,-304.91 888.32,-293.43 1038.41,-290.11"/>
<polygon fill="#aabbaa" fill-opacity="0.533333" stroke="#aabbaa" stroke-width="1.3" stroke-opacity="0.533333" points="1038.15,-293.62 1048.07,-289.9 1037.99,-286.62 1038.15,-293.62"/>
</g>
<!-- /lib/widgets/truncated_text.dart -->
<g id="node24" class="node">
<title>/lib/widgets/truncated_text.dart</title>
<path fill="Lavender" stroke="black" stroke-width="1.3" d="M685,-223C685,-223 597,-223 597,-223 591,-223 585,-217 585,-211 585,-211 585,-199 585,-199 585,-193 591,-187 597,-187 597,-187 685,-187 685,-187 691,-187 697,-193 697,-199 697,-199 697,-211 697,-211 697,-217 691,-223 685,-223"/>
<text text-anchor="middle" x="641" y="-199.75" font-family="Arial" font-size="15.00">truncated_text</text>
</g>
<!-- /lib/panels/layer_selector.dart&#45;&gt;/lib/widgets/truncated_text.dart -->
<g id="edge8" class="edge">
<title>/lib/panels/layer_selector.dart&#45;&gt;/lib/widgets/truncated_text.dart</title>
<path fill="none" stroke="#aabbaa" stroke-width="1.3" stroke-opacity="0.533333" d="M330,-341.61C337.26,-338.85 344.8,-336.19 352,-334 408.12,-316.9 426.04,-326.52 481,-306 526.09,-289.17 535.44,-279.91 576,-254 587.2,-246.85 599.01,-238.41 609.45,-230.63"/>
<polygon fill="#aabbaa" fill-opacity="0.533333" stroke="#aabbaa" stroke-width="1.3" stroke-opacity="0.533333" points="611.53,-233.44 617.4,-224.62 607.31,-227.86 611.53,-233.44"/>
</g>
<!-- /lib/panels/layer_selector.dart&#45;&gt;/lib/widgets/transparent_background.dart -->
<g id="edge7" class="edge">
<title>/lib/panels/layer_selector.dart&#45;&gt;/lib/widgets/transparent_background.dart</title>
<path fill="none" stroke="#aabbaa" stroke-width="1.3" stroke-opacity="0.533333" d="M330.38,-341.62C337.53,-338.9 344.93,-336.24 352,-334 402.55,-317.96 433.16,-345.98 468,-306 484.75,-286.78 485.64,-256.92 483.31,-234.83"/>
<polygon fill="#aabbaa" fill-opacity="0.533333" stroke="#aabbaa" stroke-width="1.3" stroke-opacity="0.533333" points="486.81,-234.55 481.98,-225.11 479.87,-235.49 486.81,-234.55"/>
</g>
<!-- /lib/panels/side_panel.dart -->
<g id="node7" class="node">
<title>/lib/panels/side_panel.dart</title>
<path fill="Lavender" stroke="black" stroke-width="1.3" d="M443.62,-525C443.62,-525 380.38,-525 380.38,-525 374.38,-525 368.38,-519 368.38,-513 368.38,-513 368.38,-501 368.38,-501 368.38,-495 374.38,-489 380.38,-489 380.38,-489 443.62,-489 443.62,-489 449.62,-489 455.62,-495 455.62,-501 455.62,-501 455.62,-513 455.62,-513 455.62,-519 449.62,-525 443.62,-525"/>
<text text-anchor="middle" x="412" y="-501.75" font-family="Arial" font-size="15.00">side_panel</text>
</g>
<!-- /lib/panels/tools_panel.dart -->
<g id="node9" class="node">
<title>/lib/panels/tools_panel.dart</title>
<path fill="Lavender" stroke="black" stroke-width="1.3" d="M197.88,-450C197.88,-450 130.12,-450 130.12,-450 124.12,-450 118.12,-444 118.12,-438 118.12,-438 118.12,-426 118.12,-426 118.12,-420 124.12,-414 130.12,-414 130.12,-414 197.88,-414 197.88,-414 203.88,-414 209.88,-420 209.88,-426 209.88,-426 209.88,-438 209.88,-438 209.88,-444 203.88,-450 197.88,-450"/>
<text text-anchor="middle" x="164" y="-426.75" font-family="Arial" font-size="15.00">tools_panel</text>
</g>
<!-- /lib/panels/side_panel.dart&#45;&gt;/lib/panels/tools_panel.dart -->
<g id="edge11" class="edge">
<title>/lib/panels/side_panel.dart&#45;&gt;/lib/panels/tools_panel.dart</title>
<path fill="none" stroke="#aabbaa" stroke-width="1.3" stroke-opacity="0.533333" d="M368.09,-490.32C366.72,-489.87 365.35,-489.43 364,-489 316.44,-473.94 261.88,-458.8 221.77,-448.07"/>
<polygon fill="#aabbaa" fill-opacity="0.533333" stroke="#aabbaa" stroke-width="1.3" stroke-opacity="0.533333" points="222.8,-444.72 212.24,-445.53 221,-451.49 222.8,-444.72"/>
</g>
<!-- /lib/panels/layers_panel.dart -->
<g id="node10" class="node">
<title>/lib/panels/layers_panel.dart</title>
<path fill="Lavender" stroke="black" stroke-width="1.3" d="M447,-450C447,-450 371,-450 371,-450 365,-450 359,-444 359,-438 359,-438 359,-426 359,-426 359,-420 365,-414 371,-414 371,-414 447,-414 447,-414 453,-414 459,-420 459,-426 459,-426 459,-438 459,-438 459,-444 453,-450 447,-450"/>
<text text-anchor="middle" x="409" y="-426.75" font-family="Arial" font-size="15.00">layers_panel</text>
</g>
<!-- /lib/panels/side_panel.dart&#45;&gt;/lib/panels/layers_panel.dart -->
<g id="edge10" class="edge">
<title>/lib/panels/side_panel.dart&#45;&gt;/lib/panels/layers_panel.dart</title>
<path fill="none" stroke="#aabbaa" stroke-width="1.3" stroke-opacity="0.533333" d="M411.29,-488.7C410.96,-480.76 410.57,-471.12 410.2,-462.11"/>
<polygon fill="#aabbaa" fill-opacity="0.533333" stroke="#aabbaa" stroke-width="1.3" stroke-opacity="0.533333" points="413.7,-462.24 409.8,-452.39 406.71,-462.53 413.7,-462.24"/>
</g>
<!-- /lib/panels/side_panel.dart&#45;&gt;/lib/models/app_model.dart -->
<g id="edge9" class="edge">
<title>/lib/panels/side_panel.dart&#45;&gt;/lib/models/app_model.dart</title>
<path fill="none" stroke="#aabbaa" stroke-width="1.3" stroke-opacity="0.533333" d="M455.9,-490.68C460.34,-487.93 464.5,-484.72 468,-481 479.94,-468.29 509.07,-344.49 523,-334 563.5,-303.49 901.4,-293.05 1038.02,-290.05"/>
<polygon fill="#aabbaa" fill-opacity="0.533333" stroke="#aabbaa" stroke-width="1.3" stroke-opacity="0.533333" points="1037.93,-293.55 1047.85,-289.84 1037.78,-286.55 1037.93,-293.55"/>
</g>
<!-- /lib/panels/share_panel.dart -->
<g id="node8" class="node">
<title>/lib/panels/share_panel.dart</title>
<path fill="Lavender" stroke="black" stroke-width="1.3" d="M446.88,-378C446.88,-378 373.12,-378 373.12,-378 367.12,-378 361.12,-372 361.12,-366 361.12,-366 361.12,-354 361.12,-354 361.12,-348 367.12,-342 373.12,-342 373.12,-342 446.88,-342 446.88,-342 452.88,-342 458.88,-348 458.88,-354 458.88,-354 458.88,-366 458.88,-366 458.88,-372 452.88,-378 446.88,-378"/>
<text text-anchor="middle" x="410" y="-354.75" font-family="Arial" font-size="15.00">share_panel</text>
</g>
<!-- /lib/panels/share_panel.dart&#45;&gt;/lib/panels/canvas_panel.dart -->
<g id="edge13" class="edge">
<title>/lib/panels/share_panel.dart&#45;&gt;/lib/panels/canvas_panel.dart</title>
<path fill="none" stroke="#aabbaa" stroke-width="1.3" stroke-opacity="0.533333" d="M408.76,-341.7C408.25,-334.49 407.64,-325.93 407.06,-317.82"/>
<polygon fill="#aabbaa" fill-opacity="0.533333" stroke="#aabbaa" stroke-width="1.3" stroke-opacity="0.533333" points="410.57,-317.79 406.36,-308.07 403.58,-318.29 410.57,-317.79"/>
</g>
<!-- /lib/panels/share_panel.dart&#45;&gt;/lib/models/app_model.dart -->
<g id="edge12" class="edge">
<title>/lib/panels/share_panel.dart&#45;&gt;/lib/models/app_model.dart</title>
<path fill="none" stroke="#aabbaa" stroke-width="1.3" stroke-opacity="0.533333" d="M448.39,-341.62C456.38,-338.62 464.86,-335.86 473,-334 579.69,-309.58 905.85,-295.66 1038.25,-290.89"/>
<polygon fill="#aabbaa" fill-opacity="0.533333" stroke="#aabbaa" stroke-width="1.3" stroke-opacity="0.533333" points="1038.23,-294.4 1048.1,-290.54 1037.98,-287.4 1038.23,-294.4"/>
</g>
<!-- /lib/panels/tools_panel.dart&#45;&gt;/lib/panels/tool_selector.dart -->
<g id="edge15" class="edge">
<title>/lib/panels/tools_panel.dart&#45;&gt;/lib/panels/tool_selector.dart</title>
<path fill="none" stroke="#aabbaa" stroke-width="1.3" stroke-opacity="0.533333" d="M164.49,-413.7C164.7,-406.49 164.94,-397.93 165.18,-389.82"/>
<polygon fill="#aabbaa" fill-opacity="0.533333" stroke="#aabbaa" stroke-width="1.3" stroke-opacity="0.533333" points="168.67,-390.17 165.46,-380.07 161.67,-389.97 168.67,-390.17"/>
</g>
<!-- /lib/panels/tools_panel.dart&#45;&gt;/lib/models/app_model.dart -->
<g id="edge14" class="edge">
<title>/lib/panels/tools_panel.dart&#45;&gt;/lib/models/app_model.dart</title>
<path fill="none" stroke="#aabbaa" stroke-width="1.3" stroke-opacity="0.533333" d="M210.34,-425.55C290.57,-415.72 448.66,-394.54 468,-378 483.7,-364.57 466.65,-346.63 483,-334 526.31,-300.53 894.49,-291.8 1038.03,-289.66"/>
<polygon fill="#aabbaa" fill-opacity="0.533333" stroke="#aabbaa" stroke-width="1.3" stroke-opacity="0.533333" points="1038.08,-293.16 1048.03,-289.51 1037.98,-286.16 1038.08,-293.16"/>
</g>
<!-- /lib/widgets/brush_size_picker.dart -->
<g id="node25" class="node">
<title>/lib/widgets/brush_size_picker.dart</title>
<path fill="Lavender" stroke="black" stroke-width="1.3" d="M244,-223C244,-223 132,-223 132,-223 126,-223 120,-217 120,-211 120,-211 120,-199 120,-199 120,-193 126,-187 132,-187 132,-187 244,-187 244,-187 250,-187 256,-193 256,-199 256,-199 256,-211 256,-211 256,-217 250,-223 244,-223"/>
<text text-anchor="middle" x="188" y="-199.75" font-family="Arial" font-size="15.00">brush_size_picker</text>
</g>
<!-- /lib/panels/tools_panel.dart&#45;&gt;/lib/widgets/brush_size_picker.dart -->
<g id="edge16" class="edge">
<title>/lib/panels/tools_panel.dart&#45;&gt;/lib/widgets/brush_size_picker.dart</title>
<path fill="none" stroke="#aabbaa" stroke-width="1.3" stroke-opacity="0.533333" d="M117.9,-421.6C93.86,-414.1 66.5,-400.9 52,-378 24.42,-334.44 23.31,-304.84 52,-262 65.13,-242.4 86.49,-229.65 108.44,-221.36"/>
<polygon fill="#aabbaa" fill-opacity="0.533333" stroke="#aabbaa" stroke-width="1.3" stroke-opacity="0.533333" points="109.4,-224.74 117.72,-218.17 107.12,-218.12 109.4,-224.74"/>
</g>
<!-- /lib/panels/tools_panel.dart&#45;&gt;/lib/widgets/transparent_background.dart -->
<g id="edge18" class="edge">
<title>/lib/panels/tools_panel.dart&#45;&gt;/lib/widgets/transparent_background.dart</title>
<path fill="none" stroke="#aabbaa" stroke-width="1.3" stroke-opacity="0.533333" d="M137.12,-413.68C125.55,-404.6 113.26,-392.37 107,-378 99.19,-360.07 95.37,-349.72 107,-334 171.95,-246.17 236.3,-289.57 342,-262 358.28,-257.75 363.1,-259.49 379,-254 398.59,-247.24 419.35,-237.59 436.78,-228.71"/>
<polygon fill="#aabbaa" fill-opacity="0.533333" stroke="#aabbaa" stroke-width="1.3" stroke-opacity="0.533333" points="438.15,-231.94 445.41,-224.23 434.93,-225.73 438.15,-231.94"/>
</g>
<!-- /lib/widgets/color_picker.dart -->
<g id="node28" class="node">
<title>/lib/widgets/color_picker.dart</title>
<path fill="Lavender" stroke="black" stroke-width="1.3" d="M358.12,-223C358.12,-223 285.88,-223 285.88,-223 279.88,-223 273.88,-217 273.88,-211 273.88,-211 273.88,-199 273.88,-199 273.88,-193 279.88,-187 285.88,-187 285.88,-187 358.12,-187 358.12,-187 364.12,-187 370.12,-193 370.12,-199 370.12,-199 370.12,-211 370.12,-211 370.12,-217 364.12,-223 358.12,-223"/>
<text text-anchor="middle" x="322" y="-199.75" font-family="Arial" font-size="15.00">color_picker</text>
</g>
<!-- /lib/panels/tools_panel.dart&#45;&gt;/lib/widgets/color_picker.dart -->
<g id="edge17" class="edge">
<title>/lib/panels/tools_panel.dart&#45;&gt;/lib/widgets/color_picker.dart</title>
<path fill="none" stroke="#aabbaa" stroke-width="1.3" stroke-opacity="0.533333" d="M117.78,-415.85C100.23,-407.59 82.05,-395.4 72,-378 46.2,-333.36 36.31,-299.2 72,-262 86.86,-246.51 244.99,-261.77 265,-254 277.61,-249.1 289.43,-240.19 299,-231.37"/>
<polygon fill="#aabbaa" fill-opacity="0.533333" stroke="#aabbaa" stroke-width="1.3" stroke-opacity="0.533333" points="301.36,-233.96 306.04,-224.45 296.45,-228.97 301.36,-233.96"/>
</g>
<!-- /lib/panels/layers_panel.dart&#45;&gt;/lib/panels/layer_selector.dart -->
<g id="edge21" class="edge">
<title>/lib/panels/layers_panel.dart&#45;&gt;/lib/panels/layer_selector.dart</title>
<path fill="none" stroke="#aabbaa" stroke-width="1.3" stroke-opacity="0.533333" d="M379.03,-413.52C363.74,-404.6 344.94,-393.63 328.48,-384.03"/>
<polygon fill="#aabbaa" fill-opacity="0.533333" stroke="#aabbaa" stroke-width="1.3" stroke-opacity="0.533333" points="330.69,-381.27 320.29,-379.25 327.16,-387.31 330.69,-381.27"/>
</g>
<!-- /lib/panels/layers_panel.dart&#45;&gt;/lib/panels/share_panel.dart -->
<g id="edge22" class="edge">
<title>/lib/panels/layers_panel.dart&#45;&gt;/lib/panels/share_panel.dart</title>
<path fill="none" stroke="#aabbaa" stroke-width="1.3" stroke-opacity="0.533333" d="M409.25,-413.7C409.35,-406.49 409.47,-397.93 409.59,-389.82"/>
<polygon fill="#aabbaa" fill-opacity="0.533333" stroke="#aabbaa" stroke-width="1.3" stroke-opacity="0.533333" points="413.08,-390.12 409.73,-380.07 406.08,-390.02 413.08,-390.12"/>
</g>
<!-- /lib/panels/layers_panel.dart&#45;&gt;/lib/models/app_model.dart -->
<g id="edge20" class="edge">
<title>/lib/panels/layers_panel.dart&#45;&gt;/lib/models/app_model.dart</title>
<path fill="none" stroke="#aabbaa" stroke-width="1.3" stroke-opacity="0.533333" d="M438.24,-413.5C452.66,-404.06 469.75,-391.56 483,-378 499.54,-361.07 492.52,-345.86 513,-334 557.7,-308.12 900.24,-294.92 1037.94,-290.62"/>
<polygon fill="#aabbaa" fill-opacity="0.533333" stroke="#aabbaa" stroke-width="1.3" stroke-opacity="0.533333" points="1037.98,-294.12 1047.87,-290.32 1037.77,-287.12 1037.98,-294.12"/>
</g>
<!-- /lib/files/import_files.dart -->
<g id="node20" class="node">
<title>/lib/files/import_files.dart</title>
<path fill="Lavender" stroke="black" stroke-width="1.3" d="M1014.25,-450C1014.25,-450 945.75,-450 945.75,-450 939.75,-450 933.75,-444 933.75,-438 933.75,-438 933.75,-426 933.75,-426 933.75,-420 939.75,-414 945.75,-414 945.75,-414 1014.25,-414 1014.25,-414 1020.25,-414 1026.25,-420 1026.25,-426 1026.25,-426 1026.25,-438 1026.25,-438 1026.25,-444 1020.25,-450 1014.25,-450"/>
<text text-anchor="middle" x="980" y="-426.75" font-family="Arial" font-size="15.00">import_files</text>
</g>
<!-- /lib/panels/layers_panel.dart&#45;&gt;/lib/files/import_files.dart -->
<g id="edge19" class="edge">
<title>/lib/panels/layers_panel.dart&#45;&gt;/lib/files/import_files.dart</title>
<path fill="none" stroke="#aabbaa" stroke-width="1.3" stroke-opacity="0.533333" d="M437.78,-450.42C459.43,-463.09 490.34,-478.71 520,-485 541.47,-489.56 893.53,-489.56 915,-485 931.68,-481.46 946.71,-470.06 958.1,-458.74"/>
<polygon fill="#aabbaa" fill-opacity="0.533333" stroke="#aabbaa" stroke-width="1.3" stroke-opacity="0.533333" points="960.45,-461.35 964.73,-451.66 955.34,-456.57 960.45,-461.35"/>
</g>
<!-- /lib/models/layers.dart -->
<g id="node11" class="node">
<title>/lib/models/layers.dart</title>
<path fill="Lavender" stroke="black" stroke-width="1.3" d="M1127.88,-450C1127.88,-450 1096.12,-450 1096.12,-450 1090.12,-450 1084.12,-444 1084.12,-438 1084.12,-438 1084.12,-426 1084.12,-426 1084.12,-420 1090.12,-414 1096.12,-414 1096.12,-414 1127.88,-414 1127.88,-414 1133.88,-414 1139.88,-420 1139.88,-426 1139.88,-426 1139.88,-438 1139.88,-438 1139.88,-444 1133.88,-450 1127.88,-450"/>
<text text-anchor="middle" x="1112" y="-426.75" font-family="Arial" font-size="15.00">layers</text>
</g>
<!-- /lib/models/layers.dart&#45;&gt;/lib/models/layer.dart -->
<g id="edge24" class="edge">
<title>/lib/models/layers.dart&#45;&gt;/lib/models/layer.dart</title>
<path fill="none" stroke="#aabbaa" stroke-width="1.3" stroke-opacity="0.533333" d="M1115.48,-413.7C1118.87,-405.98 1123.68,-396.71 1128.69,-388.11"/>
<polygon fill="#aabbaa" fill-opacity="0.533333" stroke="#aabbaa" stroke-width="1.3" stroke-opacity="0.533333" points="1131.55,-390.14 1133.79,-379.78 1125.58,-386.48 1131.55,-390.14"/>
</g>
<!-- /lib/models/layers.dart&#45;&gt;/lib/models/layer.dart -->
<g id="edge25" class="edge">
<title>/lib/models/layers.dart&#45;&gt;/lib/models/layer.dart</title>
<path fill="none" stroke="#aabbaa" stroke-width="1.3" stroke-dasharray="5,2" stroke-opacity="0.533333" d="M1127.31,-413.7C1132.18,-406.15 1137.32,-397.12 1141.59,-388.68"/>
<polygon fill="#aabbaa" fill-opacity="0.533333" stroke="#aabbaa" stroke-width="1.3" stroke-opacity="0.533333" points="1144.64,-390.42 1145.77,-379.88 1138.32,-387.42 1144.64,-390.42"/>
</g>
<!-- /lib/helpers/list_helper.dart -->
<g id="node22" class="node">
<title>/lib/helpers/list_helper.dart</title>
<path fill="Lavender" stroke="black" stroke-width="1.3" d="M734.75,-68C734.75,-68 675.25,-68 675.25,-68 669.25,-68 663.25,-62 663.25,-56 663.25,-56 663.25,-44 663.25,-44 663.25,-38 669.25,-32 675.25,-32 675.25,-32 734.75,-32 734.75,-32 740.75,-32 746.75,-38 746.75,-44 746.75,-44 746.75,-56 746.75,-56 746.75,-62 740.75,-68 734.75,-68"/>
<text text-anchor="middle" x="705" y="-44.75" font-family="Arial" font-size="15.00">list_helper</text>
</g>
<!-- /lib/models/layers.dart&#45;&gt;/lib/helpers/list_helper.dart -->
<g id="edge23" class="edge">
<title>/lib/models/layers.dart&#45;&gt;/lib/helpers/list_helper.dart</title>
<path fill="none" stroke="#aabbaa" stroke-width="1.3" stroke-opacity="0.533333" d="M1140.2,-422.92C1190.4,-406.61 1290,-364.7 1290,-289 1290,-289 1290,-289 1290,-204 1290,-94.74 903.26,-62.01 758.68,-53.59"/>
<polygon fill="#aabbaa" fill-opacity="0.533333" stroke="#aabbaa" stroke-width="1.3" stroke-opacity="0.533333" points="759.22,-50.11 749.04,-53.04 758.82,-57.1 759.22,-50.11"/>
</g>
<!-- /lib/models/user_action.dart -->
<g id="node12" class="node">
<title>/lib/models/user_action.dart</title>
<path fill="Lavender" stroke="black" stroke-width="1.3" d="M1238.62,-306C1238.62,-306 1169.38,-306 1169.38,-306 1163.38,-306 1157.38,-300 1157.38,-294 1157.38,-294 1157.38,-282 1157.38,-282 1157.38,-276 1163.38,-270 1169.38,-270 1169.38,-270 1238.62,-270 1238.62,-270 1244.62,-270 1250.62,-276 1250.62,-282 1250.62,-282 1250.62,-294 1250.62,-294 1250.62,-300 1244.62,-306 1238.62,-306"/>
<text text-anchor="middle" x="1204" y="-282.75" font-family="Arial" font-size="15.00">user_action</text>
</g>
<!-- /lib/widgets/brush_style_picker.dart -->
<g id="node27" class="node">
<title>/lib/widgets/brush_style_picker.dart</title>
<path fill="Lavender" stroke="black" stroke-width="1.3" d="M843.25,-223C843.25,-223 726.75,-223 726.75,-223 720.75,-223 714.75,-217 714.75,-211 714.75,-211 714.75,-199 714.75,-199 714.75,-193 720.75,-187 726.75,-187 726.75,-187 843.25,-187 843.25,-187 849.25,-187 855.25,-193 855.25,-199 855.25,-199 855.25,-211 855.25,-211 855.25,-217 849.25,-223 843.25,-223"/>
<text text-anchor="middle" x="785" y="-199.75" font-family="Arial" font-size="15.00">brush_style_picker</text>
</g>
<!-- /lib/models/user_action.dart&#45;&gt;/lib/widgets/brush_style_picker.dart -->
<g id="edge26" class="edge">
<title>/lib/models/user_action.dart&#45;&gt;/lib/widgets/brush_style_picker.dart</title>
<path fill="none" stroke="#aabbaa" stroke-width="1.3" stroke-opacity="0.533333" d="M1160.5,-269.52C1153.71,-266.68 1146.73,-264.01 1140,-262 1048.58,-234.76 940.09,-220.25 867.25,-212.88"/>
<polygon fill="#aabbaa" fill-opacity="0.533333" stroke="#aabbaa" stroke-width="1.3" stroke-opacity="0.533333" points="867.68,-209.41 857.39,-211.91 867,-216.37 867.68,-209.41"/>
</g>
<!-- /lib/models/user_action.dart&#45;&gt;/lib/widgets/brush_style_picker.dart -->
<g id="edge27" class="edge">
<title>/lib/models/user_action.dart&#45;&gt;/lib/widgets/brush_style_picker.dart</title>
<path fill="none" stroke="#aabbaa" stroke-width="1.3" stroke-dasharray="5,2" stroke-opacity="0.533333" d="M1178.18,-269.52C1171.71,-266.68 1164.73,-264.01 1158,-262 1060.52,-232.95 943.63,-218.38 866.94,-211.51"/>
<polygon fill="#aabbaa" fill-opacity="0.533333" stroke="#aabbaa" stroke-width="1.3" stroke-opacity="0.533333" points="867.68,-208.06 857.41,-210.68 867.07,-215.04 867.68,-208.06"/>
</g>
<!-- /lib/models/app_model.dart&#45;&gt;/lib/models/layers.dart -->
<g id="edge28" class="edge">
<title>/lib/models/app_model.dart&#45;&gt;/lib/models/layers.dart</title>
<path fill="none" stroke="#aabbaa" stroke-width="1.3" stroke-opacity="0.533333" d="M1092.47,-306.11C1092.8,-329.92 1097.68,-373.37 1103,-402.22"/>
<polygon fill="#aabbaa" fill-opacity="0.533333" stroke="#aabbaa" stroke-width="1.3" stroke-opacity="0.533333" points="1099.5,-402.55 1104.91,-411.66 1106.36,-401.16 1099.5,-402.55"/>
</g>
<!-- /lib/models/app_model.dart&#45;&gt;/lib/models/layers.dart -->
<g id="edge29" class="edge">
<title>/lib/models/app_model.dart&#45;&gt;/lib/models/layers.dart</title>
<path fill="none" stroke="#aabbaa" stroke-width="1.3" stroke-dasharray="5,2" stroke-opacity="0.533333" d="M1101.63,-306.11C1106.98,-329.82 1112.48,-372.98 1114.08,-401.83"/>
<polygon fill="#aabbaa" fill-opacity="0.533333" stroke="#aabbaa" stroke-width="1.3" stroke-opacity="0.533333" points="1110.58,-401.76 1114.46,-411.62 1117.57,-401.5 1110.58,-401.76"/>
</g>
<!-- /lib/models/layer.dart&#45;&gt;/lib/models/user_action.dart -->
<g id="edge32" class="edge">
<title>/lib/models/layer.dart&#45;&gt;/lib/models/user_action.dart</title>
<path fill="none" stroke="#aabbaa" stroke-width="1.3" stroke-dasharray="5,2" stroke-opacity="0.533333" d="M1163.35,-341.7C1169.43,-333.81 1176.77,-324.3 1183.52,-315.55"/>
<polygon fill="#aabbaa" fill-opacity="0.533333" stroke="#aabbaa" stroke-width="1.3" stroke-opacity="0.533333" points="1186.27,-317.72 1189.6,-307.66 1180.72,-313.44 1186.27,-317.72"/>
</g>
<!-- /lib/models/layer.dart&#45;&gt;/lib/models/app_model.dart -->
<g id="edge30" class="edge">
<title>/lib/models/layer.dart&#45;&gt;/lib/models/app_model.dart</title>
<path fill="none" stroke="#aabbaa" stroke-width="1.3" stroke-opacity="0.533333" d="M1136.4,-341.7C1130.14,-333.73 1122.58,-324.1 1115.64,-315.26"/>
<polygon fill="#aabbaa" fill-opacity="0.533333" stroke="#aabbaa" stroke-width="1.3" stroke-opacity="0.533333" points="1118.59,-313.35 1109.65,-307.65 1113.08,-317.68 1118.59,-313.35"/>
</g>
<!-- /lib/models/layer.dart&#45;&gt;/lib/widgets/transparent_background.dart -->
<g id="edge31" class="edge">
<title>/lib/models/layer.dart&#45;&gt;/lib/widgets/transparent_background.dart</title>
<path fill="none" stroke="#aabbaa" stroke-width="1.3" stroke-opacity="0.533333" d="M1177.19,-354.35C1203.5,-348.24 1241.96,-334.72 1260,-306 1270.4,-289.44 1273.75,-275.91 1260,-262 1246.64,-248.49 594.49,-258.4 576,-254 554.74,-248.94 532.74,-238.7 514.98,-228.96"/>
<polygon fill="#aabbaa" fill-opacity="0.533333" stroke="#aabbaa" stroke-width="1.3" stroke-opacity="0.533333" points="517.2,-226.19 506.77,-224.31 513.74,-232.28 517.2,-226.19"/>
</g>
<!-- /lib/main.dart&#45;&gt;/lib/models/app_model.dart -->
<g id="edge34" class="edge">
<title>/lib/main.dart&#45;&gt;/lib/models/app_model.dart</title>
<path fill="none" stroke="#aabbaa" stroke-width="1.3" stroke-opacity="0.533333" d="M903.48,-645.84C955.9,-630.35 1065,-588.44 1065,-508 1065,-508 1065,-508 1065,-431 1065,-390.87 1076.61,-345.72 1085.38,-317.32"/>
<polygon fill="#aabbaa" fill-opacity="0.533333" stroke="#aabbaa" stroke-width="1.3" stroke-opacity="0.533333" points="1088.62,-318.71 1088.33,-308.11 1081.95,-316.57 1088.62,-318.71"/>
</g>
<!-- /lib/main_screen.dart -->
<g id="node21" class="node">
<title>/lib/main_screen.dart</title>
<path fill="Lavender" stroke="black" stroke-width="1.3" d="M740.75,-600C740.75,-600 663.25,-600 663.25,-600 657.25,-600 651.25,-594 651.25,-588 651.25,-588 651.25,-576 651.25,-576 651.25,-570 657.25,-564 663.25,-564 663.25,-564 740.75,-564 740.75,-564 746.75,-564 752.75,-570 752.75,-576 752.75,-576 752.75,-588 752.75,-588 752.75,-594 746.75,-600 740.75,-600"/>
<text text-anchor="middle" x="702" y="-576.75" font-family="Arial" font-size="15.00">main_screen</text>
</g>
<!-- /lib/main.dart&#45;&gt;/lib/main_screen.dart -->
<g id="edge33" class="edge">
<title>/lib/main.dart&#45;&gt;/lib/main_screen.dart</title>
<path fill="none" stroke="#aabbaa" stroke-width="1.3" stroke-opacity="0.533333" d="M848.81,-642.06C824.13,-632.13 786.99,-617.19 756.24,-604.82"/>
<polygon fill="#aabbaa" fill-opacity="0.533333" stroke="#aabbaa" stroke-width="1.3" stroke-opacity="0.533333" points="757.64,-601.61 747.06,-601.13 755.03,-608.11 757.64,-601.61"/>
</g>
<!-- /lib/files/file_jpeg.dart -->
<g id="node16" class="node">
<title>/lib/files/file_jpeg.dart</title>
<path fill="Lavender" stroke="black" stroke-width="1.3" d="M734.38,-378C734.38,-378 687.62,-378 687.62,-378 681.62,-378 675.62,-372 675.62,-366 675.62,-366 675.62,-354 675.62,-354 675.62,-348 681.62,-342 687.62,-342 687.62,-342 734.38,-342 734.38,-342 740.38,-342 746.38,-348 746.38,-354 746.38,-354 746.38,-366 746.38,-366 746.38,-372 740.38,-378 734.38,-378"/>
<text text-anchor="middle" x="711" y="-354.75" font-family="Arial" font-size="15.00">file_jpeg</text>
</g>
<!-- /lib/files/export_download_web.dart -->
<g id="node17" class="node">
<title>/lib/files/export_download_web.dart</title>
<path fill="Lavender" stroke="black" stroke-width="1.3" d="M903.25,-450C903.25,-450 762.75,-450 762.75,-450 756.75,-450 750.75,-444 750.75,-438 750.75,-438 750.75,-426 750.75,-426 750.75,-420 756.75,-414 762.75,-414 762.75,-414 903.25,-414 903.25,-414 909.25,-414 915.25,-420 915.25,-426 915.25,-426 915.25,-438 915.25,-438 915.25,-444 909.25,-450 903.25,-450"/>
<text text-anchor="middle" x="833" y="-426.75" font-family="Arial" font-size="15.00">export_download_web</text>
</g>
<!-- /lib/files/export_download_web.dart&#45;&gt;/lib/panels/share_panel.dart -->
<g id="edge38" class="edge">
<title>/lib/files/export_download_web.dart&#45;&gt;/lib/panels/share_panel.dart</title>
<path fill="none" stroke="#aabbaa" stroke-width="1.3" stroke-opacity="0.533333" d="M750.68,-415.52C747.75,-415 744.85,-414.49 742,-414 647.46,-397.63 537.45,-380.43 470.81,-370.21"/>
<polygon fill="#aabbaa" fill-opacity="0.533333" stroke="#aabbaa" stroke-width="1.3" stroke-opacity="0.533333" points="471.65,-366.8 461.23,-368.75 470.59,-373.72 471.65,-366.8"/>
</g>
<!-- /lib/files/export_download_web.dart&#45;&gt;/lib/models/app_model.dart -->
<g id="edge37" class="edge">
<title>/lib/files/export_download_web.dart&#45;&gt;/lib/models/app_model.dart</title>
<path fill="none" stroke="#aabbaa" stroke-width="1.3" stroke-opacity="0.533333" d="M893.2,-413.51C914.67,-405.21 937.98,-393.6 956,-378 973.35,-362.98 965.47,-348.8 983,-334 999.06,-320.44 1019.73,-310.6 1038.93,-303.64"/>
<polygon fill="#aabbaa" fill-opacity="0.533333" stroke="#aabbaa" stroke-width="1.3" stroke-opacity="0.533333" points="1039.82,-307.04 1048.16,-300.5 1037.57,-300.41 1039.82,-307.04"/>
</g>
<!-- /lib/files/export_download_web.dart&#45;&gt;/lib/files/file_jpeg.dart -->
<g id="edge35" class="edge">
<title>/lib/files/export_download_web.dart&#45;&gt;/lib/files/file_jpeg.dart</title>
<path fill="none" stroke="#aabbaa" stroke-width="1.3" stroke-opacity="0.533333" d="M802.53,-413.52C786.98,-404.6 767.87,-393.63 751.14,-384.03"/>
<polygon fill="#aabbaa" fill-opacity="0.533333" stroke="#aabbaa" stroke-width="1.3" stroke-opacity="0.533333" points="753.2,-381.18 742.79,-379.24 749.72,-387.25 753.2,-381.18"/>
</g>
<!-- /lib/files/file_ora.dart -->
<g id="node18" class="node">
<title>/lib/files/file_ora.dart</title>
<path fill="Lavender" stroke="black" stroke-width="1.3" d="M894.38,-378C894.38,-378 853.62,-378 853.62,-378 847.62,-378 841.62,-372 841.62,-366 841.62,-366 841.62,-354 841.62,-354 841.62,-348 847.62,-342 853.62,-342 853.62,-342 894.38,-342 894.38,-342 900.38,-342 906.38,-348 906.38,-354 906.38,-354 906.38,-366 906.38,-366 906.38,-372 900.38,-378 894.38,-378"/>
<text text-anchor="middle" x="874" y="-354.75" font-family="Arial" font-size="15.00">file_ora</text>
</g>
<!-- /lib/files/export_download_web.dart&#45;&gt;/lib/files/file_ora.dart -->
<g id="edge36" class="edge">
<title>/lib/files/export_download_web.dart&#45;&gt;/lib/files/file_ora.dart</title>
<path fill="none" stroke="#aabbaa" stroke-width="1.3" stroke-opacity="0.533333" d="M843.13,-413.7C847.6,-406.07 852.96,-396.92 857.95,-388.4"/>
<polygon fill="#aabbaa" fill-opacity="0.533333" stroke="#aabbaa" stroke-width="1.3" stroke-opacity="0.533333" points="860.95,-390.2 862.99,-379.8 854.91,-386.66 860.95,-390.2"/>
</g>
<!-- /lib/files/file_ora.dart&#45;&gt;/lib/models/app_model.dart -->
<g id="edge40" class="edge">
<title>/lib/files/file_ora.dart&#45;&gt;/lib/models/app_model.dart</title>
<path fill="none" stroke="#aabbaa" stroke-width="1.3" stroke-opacity="0.533333" d="M906.52,-347.39C918.85,-343.07 933.04,-338.21 946,-334 976.5,-324.1 1010.73,-313.72 1038.69,-305.42"/>
<polygon fill="#aabbaa" fill-opacity="0.533333" stroke="#aabbaa" stroke-width="1.3" stroke-opacity="0.533333" points="1039.38,-308.86 1047.97,-302.67 1037.39,-302.15 1039.38,-308.86"/>
</g>
<!-- /lib/files/file_ora.dart&#45;&gt;/lib/helpers/list_helper.dart -->
<g id="edge39" class="edge">
<title>/lib/files/file_ora.dart&#45;&gt;/lib/helpers/list_helper.dart</title>
<path fill="none" stroke="#aabbaa" stroke-width="1.3" stroke-opacity="0.533333" d="M877.86,-341.7C884.39,-308.18 894.43,-232.94 867,-179 842.64,-131.1 791.26,-95.41 752.86,-74.05"/>
<polygon fill="#aabbaa" fill-opacity="0.533333" stroke="#aabbaa" stroke-width="1.3" stroke-opacity="0.533333" points="754.6,-71.01 744.14,-69.34 751.27,-77.17 754.6,-71.01"/>
</g>
<!-- /lib/files/export_download_non_web.dart -->
<g id="node19" class="node">
<title>/lib/files/export_download_non_web.dart</title>
<path fill="Lavender" stroke="black" stroke-width="1.3" d="M720.75,-450C720.75,-450 547.25,-450 547.25,-450 541.25,-450 535.25,-444 535.25,-438 535.25,-438 535.25,-426 535.25,-426 535.25,-420 541.25,-414 547.25,-414 547.25,-414 720.75,-414 720.75,-414 726.75,-414 732.75,-420 732.75,-426 732.75,-426 732.75,-438 732.75,-438 732.75,-444 726.75,-450 720.75,-450"/>
<text text-anchor="middle" x="634" y="-426.75" font-family="Arial" font-size="15.00">export_download_non_web</text>
</g>
<!-- /lib/files/export_download_non_web.dart&#45;&gt;/lib/panels/share_panel.dart -->
<g id="edge44" class="edge">
<title>/lib/files/export_download_non_web.dart&#45;&gt;/lib/panels/share_panel.dart</title>
<path fill="none" stroke="#aabbaa" stroke-width="1.3" stroke-opacity="0.533333" d="M578.05,-413.52C545.22,-403.26 503.73,-390.29 470.19,-379.81"/>
<polygon fill="#aabbaa" fill-opacity="0.533333" stroke="#aabbaa" stroke-width="1.3" stroke-opacity="0.533333" points="471.61,-376.59 461.02,-376.95 469.53,-383.27 471.61,-376.59"/>
</g>
<!-- /lib/files/export_download_non_web.dart&#45;&gt;/lib/models/app_model.dart -->
<g id="edge43" class="edge">
<title>/lib/files/export_download_non_web.dart&#45;&gt;/lib/models/app_model.dart</title>
<path fill="none" stroke="#aabbaa" stroke-width="1.3" stroke-opacity="0.533333" d="M733.25,-415.39C807.51,-403.19 898.91,-386.86 915,-378 938.41,-365.1 933.45,-348.35 956,-334 980.98,-318.1 1012.07,-307.34 1038.52,-300.35"/>
<polygon fill="#aabbaa" fill-opacity="0.533333" stroke="#aabbaa" stroke-width="1.3" stroke-opacity="0.533333" points="1039.16,-303.79 1048.01,-297.96 1037.46,-297 1039.16,-303.79"/>
</g>
<!-- /lib/files/export_download_non_web.dart&#45;&gt;/lib/files/file_jpeg.dart -->
<g id="edge41" class="edge">
<title>/lib/files/export_download_non_web.dart&#45;&gt;/lib/files/file_jpeg.dart</title>
<path fill="none" stroke="#aabbaa" stroke-width="1.3" stroke-opacity="0.533333" d="M653.03,-413.7C662.1,-405.45 673.13,-395.43 683.12,-386.35"/>
<polygon fill="#aabbaa" fill-opacity="0.533333" stroke="#aabbaa" stroke-width="1.3" stroke-opacity="0.533333" points="685.42,-388.99 690.46,-379.67 680.71,-383.81 685.42,-388.99"/>
</g>
<!-- /lib/files/export_download_non_web.dart&#45;&gt;/lib/files/file_ora.dart -->
<g id="edge42" class="edge">
<title>/lib/files/export_download_non_web.dart&#45;&gt;/lib/files/file_ora.dart</title>
<path fill="none" stroke="#aabbaa" stroke-width="1.3" stroke-opacity="0.533333" d="M693.94,-413.52C736.22,-401.19 791.9,-384.95 830.08,-373.81"/>
<polygon fill="#aabbaa" fill-opacity="0.533333" stroke="#aabbaa" stroke-width="1.3" stroke-opacity="0.533333" points="830.83,-377.24 839.45,-371.08 828.87,-370.52 830.83,-377.24"/>
</g>
<!-- /lib/files/import_files.dart&#45;&gt;/lib/models/app_model.dart -->
<g id="edge46" class="edge">
<title>/lib/files/import_files.dart&#45;&gt;/lib/models/app_model.dart</title>
<path fill="none" stroke="#aabbaa" stroke-width="1.3" stroke-opacity="0.533333" d="M980.7,-413.68C982.4,-392.65 988.09,-357.15 1007,-334 1015.56,-323.51 1027.2,-315.22 1039.22,-308.76"/>
<polygon fill="#aabbaa" fill-opacity="0.533333" stroke="#aabbaa" stroke-width="1.3" stroke-opacity="0.533333" points="1040.61,-311.97 1048.03,-304.41 1037.51,-305.69 1040.61,-311.97"/>
</g>
<!-- /lib/files/import_files.dart&#45;&gt;/lib/files/file_ora.dart -->
<g id="edge45" class="edge">
<title>/lib/files/import_files.dart&#45;&gt;/lib/files/file_ora.dart</title>
<path fill="none" stroke="#aabbaa" stroke-width="1.3" stroke-opacity="0.533333" d="M953.53,-413.52C940.4,-404.85 924.35,-394.25 910.11,-384.85"/>
<polygon fill="#aabbaa" fill-opacity="0.533333" stroke="#aabbaa" stroke-width="1.3" stroke-opacity="0.533333" points="912.05,-381.93 901.78,-379.34 908.2,-387.78 912.05,-381.93"/>
</g>
<!-- /lib/main_screen.dart&#45;&gt;/lib/panels/canvas_panel.dart -->
<g id="edge47" class="edge">
<title>/lib/main_screen.dart&#45;&gt;/lib/panels/canvas_panel.dart</title>
<path fill="none" stroke="#aabbaa" stroke-width="1.3" stroke-opacity="0.533333" d="M650.89,-580.85C519.22,-579.24 174.11,-566.75 109,-481 69.49,-428.96 64.39,-383.53 107,-334 136.33,-299.9 260.67,-291.31 339.18,-289.34"/>
<polygon fill="#aabbaa" fill-opacity="0.533333" stroke="#aabbaa" stroke-width="1.3" stroke-opacity="0.533333" points="339,-292.85 348.92,-289.13 338.85,-285.85 339,-292.85"/>
</g>
<!-- /lib/main_screen.dart&#45;&gt;/lib/panels/side_panel.dart -->
<g id="edge48" class="edge">
<title>/lib/main_screen.dart&#45;&gt;/lib/panels/side_panel.dart</title>
<path fill="none" stroke="#aabbaa" stroke-width="1.3" stroke-opacity="0.533333" d="M651,-579.71C590.2,-577.49 492.7,-571.56 460,-556 449.37,-550.94 439.73,-542.52 431.92,-534.14"/>
<polygon fill="#aabbaa" fill-opacity="0.533333" stroke="#aabbaa" stroke-width="1.3" stroke-opacity="0.533333" points="434.68,-531.98 425.5,-526.7 429.39,-536.56 434.68,-531.98"/>
</g>
<!-- /lib/main_screen.dart&#45;&gt;/lib/models/app_model.dart -->
<g id="edge49" class="edge">
<title>/lib/main_screen.dart&#45;&gt;/lib/models/app_model.dart</title>
<path fill="none" stroke="#aabbaa" stroke-width="1.3" stroke-opacity="0.533333" d="M753.02,-581.7C827.72,-579.73 965.77,-564.18 1038,-481 1081.31,-431.12 1033.98,-394.72 1060,-334 1062.75,-327.59 1066.63,-321.3 1070.82,-315.55"/>
<polygon fill="#aabbaa" fill-opacity="0.533333" stroke="#aabbaa" stroke-width="1.3" stroke-opacity="0.533333" points="1073.34,-318.01 1076.8,-307.99 1067.85,-313.67 1073.34,-318.01"/>
</g>
<!-- /lib/helpers/color_helper.dart -->
<g id="node23" class="node">
<title>/lib/helpers/color_helper.dart</title>
<path fill="Lavender" stroke="black" stroke-width="1.3" d="M738.88,-140C738.88,-140 665.12,-140 665.12,-140 659.12,-140 653.12,-134 653.12,-128 653.12,-128 653.12,-116 653.12,-116 653.12,-110 659.12,-104 665.12,-104 665.12,-104 738.88,-104 738.88,-104 744.88,-104 750.88,-110 750.88,-116 750.88,-116 750.88,-128 750.88,-128 750.88,-134 744.88,-140 738.88,-140"/>
<text text-anchor="middle" x="702" y="-116.75" font-family="Arial" font-size="15.00">color_helper</text>
</g>
<!-- /lib/helpers/color_helper.dart&#45;&gt;/lib/helpers/list_helper.dart -->
<g id="edge50" class="edge">
<title>/lib/helpers/color_helper.dart&#45;&gt;/lib/helpers/list_helper.dart</title>
<path fill="none" stroke="#aabbaa" stroke-width="1.3" stroke-opacity="0.533333" d="M702.74,-103.7C703.05,-96.49 703.42,-87.93 703.76,-79.82"/>
<polygon fill="#aabbaa" fill-opacity="0.533333" stroke="#aabbaa" stroke-width="1.3" stroke-opacity="0.533333" points="707.25,-80.21 704.18,-70.07 700.26,-79.91 707.25,-80.21"/>
</g>
<!-- /lib/widgets/brush_style_picker.dart&#45;&gt;/lib/models/app_model.dart -->
<g id="edge51" class="edge">
<title>/lib/widgets/brush_style_picker.dart&#45;&gt;/lib/models/app_model.dart</title>
<path fill="none" stroke="#aabbaa" stroke-width="1.3" stroke-opacity="0.533333" d="M851.86,-223.47C907.52,-238.01 985.88,-258.49 1038.46,-272.23"/>
<polygon fill="#aabbaa" fill-opacity="0.533333" stroke="#aabbaa" stroke-width="1.3" stroke-opacity="0.533333" points="1037.46,-275.58 1048.02,-274.72 1039.23,-268.81 1037.46,-275.58"/>
</g>
<!-- /lib/widgets/color_picker.dart&#45;&gt;/lib/helpers/list_helper.dart -->
<g id="edge53" class="edge">
<title>/lib/widgets/color_picker.dart&#45;&gt;/lib/helpers/list_helper.dart</title>
<path fill="none" stroke="#aabbaa" stroke-width="1.3" stroke-opacity="0.533333" d="M361.87,-186.62C367.93,-184.03 374.12,-181.42 380,-179 475.2,-139.75 587.1,-96.25 651.66,-71.41"/>
<polygon fill="#aabbaa" fill-opacity="0.533333" stroke="#aabbaa" stroke-width="1.3" stroke-opacity="0.533333" points="652.84,-74.7 660.92,-67.85 650.33,-68.17 652.84,-74.7"/>
</g>
<!-- /lib/widgets/color_picker.dart&#45;&gt;/lib/helpers/color_helper.dart -->
<g id="edge52" class="edge">
<title>/lib/widgets/color_picker.dart&#45;&gt;/lib/helpers/color_helper.dart</title>
<path fill="none" stroke="#aabbaa" stroke-width="1.3" stroke-opacity="0.533333" d="M358.62,-186.58C365.61,-183.72 372.94,-181.04 380,-179 402.04,-172.63 408.37,-174.78 431,-171 503.45,-158.9 586.6,-144.03 641.48,-134.07"/>
<polygon fill="#aabbaa" fill-opacity="0.533333" stroke="#aabbaa" stroke-width="1.3" stroke-opacity="0.533333" points="641.94,-137.54 651.16,-132.31 640.69,-130.66 641.94,-137.54"/>
</g>
</g>
</svg>
