<?xml version="1.0" encoding="UTF-8" standalone="no"?>
<!DOCTYPE svg PUBLIC "-//W3C//DTD SVG 1.1//EN"
 "http://www.w3.org/Graphics/SVG/1.1/DTD/svg11.dtd">
<!-- Generated by graphviz version 12.2.1 (20241206.2353)
 -->
<!-- Pages: 1 -->
<svg width="3423pt" height="922pt"
 viewBox="0.00 0.00 3423.00 922.00" xmlns="http://www.w3.org/2000/svg" xmlns:xlink="http://www.w3.org/1999/xlink">
<g id="graph0" class="graph" transform="scale(1 1) rotate(0) translate(4 918)">
<polygon fill="white" stroke="none" points="-4,4 -4,-918 3419,-918 3419,4 -4,4"/>
<g id="clust1" class="cluster">
<title>cluster~</title>
<path fill="none" stroke="lightgray" stroke-width="2.6" d="M20,-8C20,-8 3395,-8 3395,-8 3401,-8 3407,-14 3407,-20 3407,-20 3407,-894 3407,-894 3407,-900 3401,-906 3395,-906 3395,-906 20,-906 20,-906 14,-906 8,-900 8,-894 8,-894 8,-20 8,-20 8,-14 14,-8 20,-8"/>
<text text-anchor="middle" x="1707.5" y="-889.65" font-family="Arial Black" font-size="13.00">fpaint</text>
</g>
<g id="clust2" class="cluster">
<title>cluster~/test</title>
<path fill="none" stroke="lightgray" stroke-width="2.6" d="M28,-722C28,-722 785,-722 785,-722 791,-722 797,-728 797,-734 797,-734 797,-863 797,-863 797,-869 791,-875 785,-875 785,-875 28,-875 28,-875 22,-875 16,-869 16,-863 16,-863 16,-734 16,-734 16,-728 22,-722 28,-722"/>
<text text-anchor="middle" x="406.5" y="-858.65" font-family="Arial Black" font-size="13.00">test</text>
</g>
<g id="clust3" class="cluster">
<title>cluster~/test/panels</title>
<path fill="none" stroke="lightgray" stroke-width="2.6" d="M303,-730C303,-730 415,-730 415,-730 421,-730 427,-736 427,-742 427,-742 427,-832 427,-832 427,-838 421,-844 415,-844 415,-844 303,-844 303,-844 297,-844 291,-838 291,-832 291,-832 291,-742 291,-742 291,-736 297,-730 303,-730"/>
<text text-anchor="middle" x="359" y="-827.65" font-family="Arial Black" font-size="13.00">panels</text>
</g>
<g id="clust4" class="cluster">
<title>cluster~/test/panels/tools</title>
<path fill="none" stroke="lightgray" stroke-width="2.6" d="M311,-738C311,-738 407,-738 407,-738 413,-738 419,-744 419,-750 419,-750 419,-801 419,-801 419,-807 413,-813 407,-813 407,-813 311,-813 311,-813 305,-813 299,-807 299,-801 299,-801 299,-750 299,-750 299,-744 305,-738 311,-738"/>
<text text-anchor="middle" x="359" y="-796.65" font-family="Arial Black" font-size="13.00">tools</text>
</g>
<g id="clust5" class="cluster">
<title>cluster~/test/models</title>
<path fill="none" stroke="lightgray" stroke-width="2.6" d="M36,-738C36,-738 172,-738 172,-738 178,-738 184,-744 184,-750 184,-750 184,-801 184,-801 184,-807 178,-813 172,-813 172,-813 36,-813 36,-813 30,-813 24,-807 24,-801 24,-801 24,-750 24,-750 24,-744 30,-738 36,-738"/>
<text text-anchor="middle" x="104" y="-796.65" font-family="Arial Black" font-size="13.00">models</text>
</g>
<g id="clust6" class="cluster">
<title>cluster~/lib</title>
<path fill="none" stroke="lightgray" stroke-width="2.6" d="M60,-16C60,-16 3383,-16 3383,-16 3389,-16 3395,-22 3395,-28 3395,-28 3395,-702 3395,-702 3395,-708 3389,-714 3383,-714 3383,-714 60,-714 60,-714 54,-714 48,-708 48,-702 48,-702 48,-28 48,-28 48,-22 54,-16 60,-16"/>
<text text-anchor="middle" x="1721.5" y="-697.65" font-family="Arial Black" font-size="13.00">lib</text>
</g>
<g id="clust7" class="cluster">
<title>cluster~/lib/panels</title>
<path fill="none" stroke="lightgray" stroke-width="2.6" d="M1189,-251C1189,-251 2050,-251 2050,-251 2056,-251 2062,-257 2062,-263 2062,-263 2062,-555 2062,-555 2062,-561 2056,-567 2050,-567 2050,-567 1189,-567 1189,-567 1183,-567 1177,-561 1177,-555 1177,-555 1177,-263 1177,-263 1177,-257 1183,-251 1189,-251"/>
<text text-anchor="middle" x="1619.5" y="-550.65" font-family="Arial Black" font-size="13.00">panels</text>
</g>
<g id="clust8" class="cluster">
<title>cluster~/lib/panels/tools</title>
<path fill="none" stroke="lightgray" stroke-width="2.6" d="M1197,-342C1197,-342 1469,-342 1469,-342 1475,-342 1481,-348 1481,-354 1481,-354 1481,-480 1481,-480 1481,-486 1475,-492 1469,-492 1469,-492 1197,-492 1197,-492 1191,-492 1185,-486 1185,-480 1185,-480 1185,-354 1185,-354 1185,-348 1191,-342 1197,-342"/>
<text text-anchor="middle" x="1333" y="-475.65" font-family="Arial Black" font-size="13.00">tools</text>
</g>
<g id="clust9" class="cluster">
<title>cluster~/lib/panels/layers</title>
<path fill="none" stroke="lightgray" stroke-width="2.6" d="M1751,-259C1751,-259 1980,-259 1980,-259 1986,-259 1992,-265 1992,-271 1992,-271 1992,-480 1992,-480 1992,-486 1986,-492 1980,-492 1980,-492 1751,-492 1751,-492 1745,-492 1739,-486 1739,-480 1739,-480 1739,-271 1739,-271 1739,-265 1745,-259 1751,-259"/>
<text text-anchor="middle" x="1865.5" y="-475.65" font-family="Arial Black" font-size="13.00">layers</text>
</g>
<g id="clust10" class="cluster">
<title>cluster~/lib/models</title>
<path fill="none" stroke="lightgray" stroke-width="2.6" d="M919,-96C919,-96 1153,-96 1153,-96 1159,-96 1165,-102 1165,-108 1165,-108 1165,-405 1165,-405 1165,-411 1159,-417 1153,-417 1153,-417 919,-417 919,-417 913,-417 907,-411 907,-405 907,-405 907,-108 907,-108 907,-102 913,-96 919,-96"/>
<text text-anchor="middle" x="1036" y="-400.65" font-family="Arial Black" font-size="13.00">models</text>
</g>
<g id="clust11" class="cluster">
<title>cluster~/lib/files</title>
<path fill="none" stroke="lightgray" stroke-width="2.6" d="M100,-259C100,-259 887,-259 887,-259 893,-259 899,-265 899,-271 899,-271 899,-405 899,-405 899,-411 893,-417 887,-417 887,-417 100,-417 100,-417 94,-417 88,-411 88,-405 88,-405 88,-271 88,-271 88,-265 94,-259 100,-259"/>
<text text-anchor="middle" x="493.5" y="-400.65" font-family="Arial Black" font-size="13.00">files</text>
</g>
<g id="clust12" class="cluster">
<title>cluster~/lib/helpers</title>
<path fill="none" stroke="lightgray" stroke-width="2.6" d="M1190,-24C1190,-24 1288,-24 1288,-24 1294,-24 1300,-30 1300,-36 1300,-36 1300,-231 1300,-231 1300,-237 1294,-243 1288,-243 1288,-243 1190,-243 1190,-243 1184,-243 1178,-237 1178,-231 1178,-231 1178,-36 1178,-36 1178,-30 1184,-24 1190,-24"/>
<text text-anchor="middle" x="1239" y="-226.65" font-family="Arial Black" font-size="13.00">helpers</text>
</g>
<g id="clust13" class="cluster">
<title>cluster~/lib/widgets</title>
<path fill="none" stroke="lightgray" stroke-width="2.6" d="M2082,-168C2082,-168 3375,-168 3375,-168 3381,-168 3387,-174 3387,-180 3387,-180 3387,-322 3387,-322 3387,-328 3381,-334 3375,-334 3375,-334 2082,-334 2082,-334 2076,-334 2070,-328 2070,-322 2070,-322 2070,-180 2070,-180 2070,-174 2076,-168 2082,-168"/>
<text text-anchor="middle" x="2728.5" y="-317.65" font-family="Arial Black" font-size="13.00">widgets</text>
</g>
<!-- /test/paint_model_test.dart -->
<g id="node1" class="node">
<title>/test/paint_model_test.dart</title>
<path fill="Lavender" stroke="black" stroke-width="1.3" d="M777,-782C777,-782 671,-782 671,-782 665,-782 659,-776 659,-770 659,-770 659,-758 659,-758 659,-752 665,-746 671,-746 671,-746 777,-746 777,-746 783,-746 789,-752 789,-758 789,-758 789,-770 789,-770 789,-776 783,-782 777,-782"/>
<text text-anchor="middle" x="724" y="-758.75" font-family="Arial" font-size="15.00">paint_model_test</text>
</g>
<!-- /lib/models/app_model.dart -->
<g id="node25" class="node">
<title>/lib/models/app_model.dart</title>
<path fill="Lavender" stroke="black" stroke-width="1.3" d="M1003.75,-212C1003.75,-212 938.25,-212 938.25,-212 932.25,-212 926.25,-206 926.25,-200 926.25,-200 926.25,-188 926.25,-188 926.25,-182 932.25,-176 938.25,-176 938.25,-176 1003.75,-176 1003.75,-176 1009.75,-176 1015.75,-182 1015.75,-188 1015.75,-188 1015.75,-200 1015.75,-200 1015.75,-206 1009.75,-212 1003.75,-212"/>
<text text-anchor="middle" x="971" y="-188.75" font-family="Arial" font-size="15.00">app_model</text>
</g>
<!-- /test/paint_model_test.dart&#45;&gt;/lib/models/app_model.dart -->
<g id="edge1" class="edge">
<title>/test/paint_model_test.dart&#45;&gt;/lib/models/app_model.dart</title>
<path fill="none" stroke="#aabbaa" stroke-width="1.3" stroke-opacity="0.533333" d="M789.44,-762.39C1199.51,-758.12 3398,-728.97 3398,-594 3398,-594 3398,-594 3398,-367 3398,-315.35 3428.55,-286.47 3391,-251 3379.16,-239.81 1060.61,-247.65 1045,-243 1028.86,-238.19 1012.93,-228.66 1000.01,-219.35"/>
<polygon fill="#aabbaa" fill-opacity="0.533333" stroke="#aabbaa" stroke-width="1.3" stroke-opacity="0.533333" points="1002.42,-216.78 992.33,-213.54 998.2,-222.36 1002.42,-216.78"/>
</g>
<!-- /test/panels/tools/flood_fill_test.dart -->
<g id="node2" class="node">
<title>/test/panels/tools/flood_fill_test.dart</title>
<path fill="Lavender" stroke="black" stroke-width="1.3" d="M398.5,-782C398.5,-782 319.5,-782 319.5,-782 313.5,-782 307.5,-776 307.5,-770 307.5,-770 307.5,-758 307.5,-758 307.5,-752 313.5,-746 319.5,-746 319.5,-746 398.5,-746 398.5,-746 404.5,-746 410.5,-752 410.5,-758 410.5,-758 410.5,-770 410.5,-770 410.5,-776 404.5,-782 398.5,-782"/>
<text text-anchor="middle" x="359" y="-758.75" font-family="Arial" font-size="15.00">flood_fill_test</text>
</g>
<!-- /lib/panels/tools/flood_fill.dart -->
<g id="node9" class="node">
<title>/lib/panels/tools/flood_fill.dart</title>
<path fill="Lavender" stroke="black" stroke-width="1.3" d="M1461,-461C1461,-461 1415,-461 1415,-461 1409,-461 1403,-455 1403,-449 1403,-449 1403,-437 1403,-437 1403,-431 1409,-425 1415,-425 1415,-425 1461,-425 1461,-425 1467,-425 1473,-431 1473,-437 1473,-437 1473,-449 1473,-449 1473,-455 1467,-461 1461,-461"/>
<text text-anchor="middle" x="1438" y="-437.75" font-family="Arial" font-size="15.00">flood_fill</text>
</g>
<!-- /test/panels/tools/flood_fill_test.dart&#45;&gt;/lib/panels/tools/flood_fill.dart -->
<g id="edge2" class="edge">
<title>/test/panels/tools/flood_fill_test.dart&#45;&gt;/lib/panels/tools/flood_fill.dart</title>
<path fill="none" stroke="#aabbaa" stroke-width="1.3" stroke-opacity="0.533333" d="M341.81,-745.86C331.7,-736.98 318.16,-726.97 304,-722 291.83,-717.73 81.4,-722.83 72,-714 49.43,-692.79 40.85,-597.62 62,-575 146.49,-484.61 1049.44,-506.41 1173,-500 1197.54,-498.73 1371.69,-502.3 1394,-492 1404.29,-487.25 1413.27,-478.86 1420.39,-470.4"/>
<polygon fill="#aabbaa" fill-opacity="0.533333" stroke="#aabbaa" stroke-width="1.3" stroke-opacity="0.533333" points="1423.08,-472.65 1426.4,-462.58 1417.53,-468.38 1423.08,-472.65"/>
</g>
<!-- /test/models/canvas_resize_test.dart -->
<g id="node3" class="node">
<title>/test/models/canvas_resize_test.dart</title>
<path fill="Lavender" stroke="black" stroke-width="1.3" d="M164.12,-782C164.12,-782 43.87,-782 43.87,-782 37.88,-782 31.88,-776 31.88,-770 31.88,-770 31.88,-758 31.88,-758 31.88,-752 37.88,-746 43.88,-746 43.88,-746 164.12,-746 164.12,-746 170.12,-746 176.12,-752 176.12,-758 176.12,-758 176.12,-770 176.12,-770 176.12,-776 170.12,-782 164.12,-782"/>
<text text-anchor="middle" x="104" y="-758.75" font-family="Arial" font-size="15.00">canvas_resize_test</text>
</g>
<!-- /lib/models/canvas_resize.dart -->
<g id="node23" class="node">
<title>/lib/models/canvas_resize.dart</title>
<path fill="Lavender" stroke="black" stroke-width="1.3" d="M1014.62,-140C1014.62,-140 927.38,-140 927.38,-140 921.38,-140 915.38,-134 915.38,-128 915.38,-128 915.38,-116 915.38,-116 915.38,-110 921.38,-104 927.38,-104 927.38,-104 1014.62,-104 1014.62,-104 1020.62,-104 1026.62,-110 1026.62,-116 1026.62,-116 1026.62,-128 1026.62,-128 1026.62,-134 1020.62,-140 1014.62,-140"/>
<text text-anchor="middle" x="971" y="-116.75" font-family="Arial" font-size="15.00">canvas_resize</text>
</g>
<!-- /test/models/canvas_resize_test.dart&#45;&gt;/lib/models/canvas_resize.dart -->
<g id="edge3" class="edge">
<title>/test/models/canvas_resize_test.dart&#45;&gt;/lib/models/canvas_resize.dart</title>
<path fill="none" stroke="#aabbaa" stroke-width="1.3" stroke-opacity="0.533333" d="M58.53,-745.61C44.78,-738.04 31.17,-727.69 23,-714 -4.38,-668.15 17,-647.4 17,-594 17,-594 17,-594 17,-284 17,-265.05 27.47,-260.27 44,-251 191.93,-168.03 715.19,-135.26 903.14,-125.99"/>
<polygon fill="#aabbaa" fill-opacity="0.533333" stroke="#aabbaa" stroke-width="1.3" stroke-opacity="0.533333" points="903.25,-129.49 913.07,-125.51 902.91,-122.5 903.25,-129.49"/>
</g>
<!-- /test/widget_test.dart -->
<g id="node4" class="node">
<title>/test/widget_test.dart</title>
<path fill="Lavender" stroke="black" stroke-width="1.3" d="M514.88,-782C514.88,-782 447.12,-782 447.12,-782 441.12,-782 435.12,-776 435.12,-770 435.12,-770 435.12,-758 435.12,-758 435.12,-752 441.12,-746 447.12,-746 447.12,-746 514.88,-746 514.88,-746 520.88,-746 526.88,-752 526.88,-758 526.88,-758 526.88,-770 526.88,-770 526.88,-776 520.88,-782 514.88,-782"/>
<text text-anchor="middle" x="481" y="-758.75" font-family="Arial" font-size="15.00">widget_test</text>
</g>
<!-- /lib/main.dart -->
<g id="node27" class="node">
<title>/lib/main.dart</title>
<path fill="Lavender" stroke="black" stroke-width="1.3" d="M496,-683C496,-683 466,-683 466,-683 460,-683 454,-677 454,-671 454,-671 454,-659 454,-659 454,-653 460,-647 466,-647 466,-647 496,-647 496,-647 502,-647 508,-653 508,-659 508,-659 508,-671 508,-671 508,-677 502,-683 496,-683"/>
<text text-anchor="middle" x="481" y="-659.75" font-family="Arial" font-size="15.00">main</text>
</g>
<!-- /test/widget_test.dart&#45;&gt;/lib/main.dart -->
<g id="edge4" class="edge">
<title>/test/widget_test.dart&#45;&gt;/lib/main.dart</title>
<path fill="none" stroke="#aabbaa" stroke-width="1.3" stroke-opacity="0.533333" d="M481,-745.66C481,-731.59 481,-711.45 481,-694.95"/>
<polygon fill="#aabbaa" fill-opacity="0.533333" stroke="#aabbaa" stroke-width="1.3" stroke-opacity="0.533333" points="484.5,-695.16 481,-685.16 477.5,-695.16 484.5,-695.16"/>
</g>
<!-- /test/file_xcf_test.dart -->
<g id="node5" class="node">
<title>/test/file_xcf_test.dart</title>
<path fill="Lavender" stroke="black" stroke-width="1.3" d="M628.75,-782C628.75,-782 557.25,-782 557.25,-782 551.25,-782 545.25,-776 545.25,-770 545.25,-770 545.25,-758 545.25,-758 545.25,-752 551.25,-746 557.25,-746 557.25,-746 628.75,-746 628.75,-746 634.75,-746 640.75,-752 640.75,-758 640.75,-758 640.75,-770 640.75,-770 640.75,-776 634.75,-782 628.75,-782"/>
<text text-anchor="middle" x="593" y="-758.75" font-family="Arial" font-size="15.00">file_xcf_test</text>
</g>
<!-- /lib/files/xcf_reader.dart -->
<g id="node28" class="node">
<title>/lib/files/xcf_reader.dart</title>
<path fill="Lavender" stroke="black" stroke-width="1.3" d="M298.62,-386C298.62,-386 235.38,-386 235.38,-386 229.38,-386 223.38,-380 223.38,-374 223.38,-374 223.38,-362 223.38,-362 223.38,-356 229.38,-350 235.38,-350 235.38,-350 298.62,-350 298.62,-350 304.62,-350 310.62,-356 310.62,-362 310.62,-362 310.62,-374 310.62,-374 310.62,-380 304.62,-386 298.62,-386"/>
<text text-anchor="middle" x="267" y="-362.75" font-family="Arial" font-size="15.00">xcf_reader</text>
</g>
<!-- /test/file_xcf_test.dart&#45;&gt;/lib/files/xcf_reader.dart -->
<g id="edge6" class="edge">
<title>/test/file_xcf_test.dart&#45;&gt;/lib/files/xcf_reader.dart</title>
<path fill="none" stroke="#aabbaa" stroke-width="1.3" stroke-opacity="0.533333" d="M610.87,-745.7C621.36,-736.76 635.39,-726.75 650,-722 668.7,-715.91 2051.85,-727.65 2066,-714 2104.42,-676.94 2071,-647.38 2071,-594 2071,-594 2071,-594 2071,-517 2071,-469.94 2010.38,-431.29 1996,-425 1953.32,-406.33 362.35,-434.07 319,-417 307.17,-412.34 296.4,-403.6 287.78,-394.85"/>
<polygon fill="#aabbaa" fill-opacity="0.533333" stroke="#aabbaa" stroke-width="1.3" stroke-opacity="0.533333" points="290.56,-392.71 281.23,-387.69 285.4,-397.43 290.56,-392.71"/>
</g>
<!-- /lib/files/assets_helper.dart -->
<g id="node29" class="node">
<title>/lib/files/assets_helper.dart</title>
<path fill="Lavender" stroke="black" stroke-width="1.3" d="M193.5,-386C193.5,-386 108.5,-386 108.5,-386 102.5,-386 96.5,-380 96.5,-374 96.5,-374 96.5,-362 96.5,-362 96.5,-356 102.5,-350 108.5,-350 108.5,-350 193.5,-350 193.5,-350 199.5,-350 205.5,-356 205.5,-362 205.5,-362 205.5,-374 205.5,-374 205.5,-380 199.5,-386 193.5,-386"/>
<text text-anchor="middle" x="151" y="-362.75" font-family="Arial" font-size="15.00">assets_helper</text>
</g>
<!-- /test/file_xcf_test.dart&#45;&gt;/lib/files/assets_helper.dart -->
<g id="edge5" class="edge">
<title>/test/file_xcf_test.dart&#45;&gt;/lib/files/assets_helper.dart</title>
<path fill="none" stroke="#aabbaa" stroke-width="1.3" stroke-opacity="0.533333" d="M574.86,-745.55C564.39,-736.69 550.46,-726.8 536,-722 524.03,-718.03 91.03,-722.81 82,-714 62.9,-695.36 77,-620.69 77,-594 77,-594 77,-594 77,-517 77,-476.05 63.39,-461.48 82,-425 88.34,-412.56 98.82,-401.92 109.72,-393.36"/>
<polygon fill="#aabbaa" fill-opacity="0.533333" stroke="#aabbaa" stroke-width="1.3" stroke-opacity="0.533333" points="111.7,-396.25 117.73,-387.54 107.58,-390.59 111.7,-396.25"/>
</g>
<!-- /test/layers_test.dart -->
<g id="node6" class="node">
<title>/test/layers_test.dart</title>
<path fill="Lavender" stroke="black" stroke-width="1.3" d="M271.38,-782C271.38,-782 206.62,-782 206.62,-782 200.62,-782 194.62,-776 194.62,-770 194.62,-770 194.62,-758 194.62,-758 194.62,-752 200.62,-746 206.62,-746 206.62,-746 271.38,-746 271.38,-746 277.38,-746 283.38,-752 283.38,-758 283.38,-758 283.38,-770 283.38,-770 283.38,-776 277.38,-782 271.38,-782"/>
<text text-anchor="middle" x="239" y="-758.75" font-family="Arial" font-size="15.00">layers_test</text>
</g>
<!-- /lib/models/layer.dart -->
<g id="node26" class="node">
<title>/lib/models/layer.dart</title>
<path fill="Lavender" stroke="black" stroke-width="1.3" d="M1097,-303C1097,-303 1067,-303 1067,-303 1061,-303 1055,-297 1055,-291 1055,-291 1055,-279 1055,-279 1055,-273 1061,-267 1067,-267 1067,-267 1097,-267 1097,-267 1103,-267 1109,-273 1109,-279 1109,-279 1109,-291 1109,-291 1109,-297 1103,-303 1097,-303"/>
<text text-anchor="middle" x="1082" y="-279.75" font-family="Arial" font-size="15.00">layer</text>
</g>
<!-- /test/layers_test.dart&#45;&gt;/lib/models/layer.dart -->
<g id="edge7" class="edge">
<title>/test/layers_test.dart&#45;&gt;/lib/models/layer.dart</title>
<path fill="none" stroke="#aabbaa" stroke-width="1.3" stroke-opacity="0.533333" d="M222.79,-745.57C213.53,-736.83 201.15,-727.05 188,-722 173.35,-716.37 58.24,-724.95 47,-714 8.66,-676.66 37,-647.52 37,-594 37,-594 37,-594 37,-442 37,-392.89 42.67,-368.53 84,-342 103.15,-329.71 880.46,-337.08 903,-334 952.48,-327.24 1007.75,-311.03 1043.61,-299.32"/>
<polygon fill="#aabbaa" fill-opacity="0.533333" stroke="#aabbaa" stroke-width="1.3" stroke-opacity="0.533333" points="1044.28,-302.78 1052.67,-296.31 1042.08,-296.14 1044.28,-302.78"/>
</g>
<!-- /lib/panels/about.dart -->
<g id="node7" class="node">
<title>/lib/panels/about.dart</title>
<path fill="Lavender" stroke="black" stroke-width="1.3" d="M2042,-386C2042,-386 2012,-386 2012,-386 2006,-386 2000,-380 2000,-374 2000,-374 2000,-362 2000,-362 2000,-356 2006,-350 2012,-350 2012,-350 2042,-350 2042,-350 2048,-350 2054,-356 2054,-362 2054,-362 2054,-374 2054,-374 2054,-380 2048,-386 2042,-386"/>
<text text-anchor="middle" x="2027" y="-362.75" font-family="Arial" font-size="15.00">about</text>
</g>
<!-- /lib/panels/tools/tool_selector.dart -->
<g id="node8" class="node">
<title>/lib/panels/tools/tool_selector.dart</title>
<path fill="Lavender" stroke="black" stroke-width="1.3" d="M1281.38,-386C1281.38,-386 1204.62,-386 1204.62,-386 1198.62,-386 1192.62,-380 1192.62,-374 1192.62,-374 1192.62,-362 1192.62,-362 1192.62,-356 1198.62,-350 1204.62,-350 1204.62,-350 1281.38,-350 1281.38,-350 1287.38,-350 1293.38,-356 1293.38,-362 1293.38,-362 1293.38,-374 1293.38,-374 1293.38,-380 1287.38,-386 1281.38,-386"/>
<text text-anchor="middle" x="1243" y="-362.75" font-family="Arial" font-size="15.00">tool_selector</text>
</g>
<!-- /lib/panels/tools/tools_panel.dart -->
<g id="node10" class="node">
<title>/lib/panels/tools/tools_panel.dart</title>
<path fill="Lavender" stroke="black" stroke-width="1.3" d="M1372.88,-461C1372.88,-461 1305.12,-461 1305.12,-461 1299.12,-461 1293.12,-455 1293.12,-449 1293.12,-449 1293.12,-437 1293.12,-437 1293.12,-431 1299.12,-425 1305.12,-425 1305.12,-425 1372.88,-425 1372.88,-425 1378.88,-425 1384.88,-431 1384.88,-437 1384.88,-437 1384.88,-449 1384.88,-449 1384.88,-455 1378.88,-461 1372.88,-461"/>
<text text-anchor="middle" x="1339" y="-437.75" font-family="Arial" font-size="15.00">tools_panel</text>
</g>
<!-- /lib/panels/tools/tools_panel.dart&#45;&gt;/lib/panels/tools/tool_selector.dart -->
<g id="edge11" class="edge">
<title>/lib/panels/tools/tools_panel.dart&#45;&gt;/lib/panels/tools/tool_selector.dart</title>
<path fill="none" stroke="#aabbaa" stroke-width="1.3" stroke-opacity="0.533333" d="M1312.52,-424.53C1308.95,-422.05 1305.36,-419.5 1302,-417 1292.24,-409.76 1281.88,-401.52 1272.6,-393.94"/>
<polygon fill="#aabbaa" fill-opacity="0.533333" stroke="#aabbaa" stroke-width="1.3" stroke-opacity="0.533333" points="1274.85,-391.26 1264.91,-387.59 1270.4,-396.66 1274.85,-391.26"/>
</g>
<!-- /lib/panels/tools/tool_attributes_widget.dart -->
<g id="node11" class="node">
<title>/lib/panels/tools/tool_attributes_widget.dart</title>
<path fill="Lavender" stroke="black" stroke-width="1.3" d="M1460.75,-386C1460.75,-386 1323.25,-386 1323.25,-386 1317.25,-386 1311.25,-380 1311.25,-374 1311.25,-374 1311.25,-362 1311.25,-362 1311.25,-356 1317.25,-350 1323.25,-350 1323.25,-350 1460.75,-350 1460.75,-350 1466.75,-350 1472.75,-356 1472.75,-362 1472.75,-362 1472.75,-374 1472.75,-374 1472.75,-380 1466.75,-386 1460.75,-386"/>
<text text-anchor="middle" x="1392" y="-362.75" font-family="Arial" font-size="15.00">tool_attributes_widget</text>
</g>
<!-- /lib/panels/tools/tools_panel.dart&#45;&gt;/lib/panels/tools/tool_attributes_widget.dart -->
<g id="edge10" class="edge">
<title>/lib/panels/tools/tools_panel.dart&#45;&gt;/lib/panels/tools/tool_attributes_widget.dart</title>
<path fill="none" stroke="#aabbaa" stroke-width="1.3" stroke-opacity="0.533333" d="M1351.56,-424.7C1357.79,-416.13 1365.44,-405.58 1372.42,-395.97"/>
<polygon fill="#aabbaa" fill-opacity="0.533333" stroke="#aabbaa" stroke-width="1.3" stroke-opacity="0.533333" points="1375.15,-398.17 1378.19,-388.02 1369.48,-394.06 1375.15,-398.17"/>
</g>
<!-- /lib/panels/tools/tools_panel.dart&#45;&gt;/lib/models/app_model.dart -->
<g id="edge9" class="edge">
<title>/lib/panels/tools/tools_panel.dart&#45;&gt;/lib/models/app_model.dart</title>
<path fill="none" stroke="#aabbaa" stroke-width="1.3" stroke-opacity="0.533333" d="M1292.76,-436.14C1261.3,-432.37 1218.7,-427.69 1181,-425 1168.47,-424.11 963.73,-426.04 955,-417 904.67,-364.86 936.67,-269.97 957.38,-222.95"/>
<polygon fill="#aabbaa" fill-opacity="0.533333" stroke="#aabbaa" stroke-width="1.3" stroke-opacity="0.533333" points="960.44,-224.69 961.4,-214.14 954.07,-221.78 960.44,-224.69"/>
</g>
<!-- /lib/helpers/color_helper.dart -->
<g id="node39" class="node">
<title>/lib/helpers/color_helper.dart</title>
<path fill="Lavender" stroke="black" stroke-width="1.3" d="M1279.88,-140C1279.88,-140 1206.12,-140 1206.12,-140 1200.12,-140 1194.12,-134 1194.12,-128 1194.12,-128 1194.12,-116 1194.12,-116 1194.12,-110 1200.12,-104 1206.12,-104 1206.12,-104 1279.88,-104 1279.88,-104 1285.88,-104 1291.88,-110 1291.88,-116 1291.88,-116 1291.88,-128 1291.88,-128 1291.88,-134 1285.88,-140 1279.88,-140"/>
<text text-anchor="middle" x="1243" y="-116.75" font-family="Arial" font-size="15.00">color_helper</text>
</g>
<!-- /lib/panels/tools/tools_panel.dart&#45;&gt;/lib/helpers/color_helper.dart -->
<g id="edge8" class="edge">
<title>/lib/panels/tools/tools_panel.dart&#45;&gt;/lib/helpers/color_helper.dart</title>
<path fill="none" stroke="#aabbaa" stroke-width="1.3" stroke-opacity="0.533333" d="M1385.29,-426.67C1388.22,-426.02 1391.14,-425.45 1394,-425 1412.44,-422.1 2052.88,-430.28 2066,-417 2077.71,-405.14 2074.76,-356.18 2066,-342 2061.82,-335.24 2055.93,-339.29 2050,-334 2017.17,-304.69 2032.78,-275.16 1996,-251 1881.64,-175.88 1462.31,-138.69 1304.03,-127.1"/>
<polygon fill="#aabbaa" fill-opacity="0.533333" stroke="#aabbaa" stroke-width="1.3" stroke-opacity="0.533333" points="1304.39,-123.61 1294.16,-126.38 1303.88,-130.6 1304.39,-123.61"/>
</g>
<!-- /lib/widgets/svg_icon.dart -->
<g id="node40" class="node">
<title>/lib/widgets/svg_icon.dart</title>
<path fill="Lavender" stroke="black" stroke-width="1.3" d="M3367.25,-303C3367.25,-303 3316.75,-303 3316.75,-303 3310.75,-303 3304.75,-297 3304.75,-291 3304.75,-291 3304.75,-279 3304.75,-279 3304.75,-273 3310.75,-267 3316.75,-267 3316.75,-267 3367.25,-267 3367.25,-267 3373.25,-267 3379.25,-273 3379.25,-279 3379.25,-279 3379.25,-291 3379.25,-291 3379.25,-297 3373.25,-303 3367.25,-303"/>
<text text-anchor="middle" x="3342" y="-279.75" font-family="Arial" font-size="15.00">svg_icon</text>
</g>
<!-- /lib/panels/tools/tools_panel.dart&#45;&gt;/lib/widgets/svg_icon.dart -->
<g id="edge15" class="edge">
<title>/lib/panels/tools/tools_panel.dart&#45;&gt;/lib/widgets/svg_icon.dart</title>
<path fill="none" stroke="#aabbaa" stroke-width="1.3" stroke-opacity="0.533333" d="M1385.29,-426.64C1388.21,-426 1391.14,-425.44 1394,-425 1483.34,-411.28 2931.61,-430.42 3021,-417 3147.25,-398.05 3187.15,-400.72 3296,-334 3305.44,-328.21 3314.26,-320.03 3321.6,-312.05"/>
<polygon fill="#aabbaa" fill-opacity="0.533333" stroke="#aabbaa" stroke-width="1.3" stroke-opacity="0.533333" points="3324.02,-314.6 3327.93,-304.76 3318.73,-310.02 3324.02,-314.6"/>
</g>
<!-- /lib/widgets/brush_size_picker.dart -->
<g id="node43" class="node">
<title>/lib/widgets/brush_size_picker.dart</title>
<path fill="Lavender" stroke="black" stroke-width="1.3" d="M2914,-303C2914,-303 2802,-303 2802,-303 2796,-303 2790,-297 2790,-291 2790,-291 2790,-279 2790,-279 2790,-273 2796,-267 2802,-267 2802,-267 2914,-267 2914,-267 2920,-267 2926,-273 2926,-279 2926,-279 2926,-291 2926,-291 2926,-297 2920,-303 2914,-303"/>
<text text-anchor="middle" x="2858" y="-279.75" font-family="Arial" font-size="15.00">brush_size_picker</text>
</g>
<!-- /lib/panels/tools/tools_panel.dart&#45;&gt;/lib/widgets/brush_size_picker.dart -->
<g id="edge12" class="edge">
<title>/lib/panels/tools/tools_panel.dart&#45;&gt;/lib/widgets/brush_size_picker.dart</title>
<path fill="none" stroke="#aabbaa" stroke-width="1.3" stroke-opacity="0.533333" d="M1385.29,-426.66C1388.22,-426.01 1391.14,-425.45 1394,-425 1471.28,-412.88 2019.94,-422.17 2098,-417 2174.28,-411.95 2708.91,-359.44 2781,-334 2796.98,-328.36 2813.13,-318.99 2826.48,-310.01"/>
<polygon fill="#aabbaa" fill-opacity="0.533333" stroke="#aabbaa" stroke-width="1.3" stroke-opacity="0.533333" points="2828.29,-313.01 2834.48,-304.42 2824.28,-307.28 2828.29,-313.01"/>
</g>
<!-- /lib/widgets/tolerance_picker.dart -->
<g id="node45" class="node">
<title>/lib/widgets/tolerance_picker.dart</title>
<path fill="Lavender" stroke="black" stroke-width="1.3" d="M3057.75,-303C3057.75,-303 2956.25,-303 2956.25,-303 2950.25,-303 2944.25,-297 2944.25,-291 2944.25,-291 2944.25,-279 2944.25,-279 2944.25,-273 2950.25,-267 2956.25,-267 2956.25,-267 3057.75,-267 3057.75,-267 3063.75,-267 3069.75,-273 3069.75,-279 3069.75,-279 3069.75,-291 3069.75,-291 3069.75,-297 3063.75,-303 3057.75,-303"/>
<text text-anchor="middle" x="3007" y="-279.75" font-family="Arial" font-size="15.00">tolerance_picker</text>
</g>
<!-- /lib/panels/tools/tools_panel.dart&#45;&gt;/lib/widgets/tolerance_picker.dart -->
<g id="edge16" class="edge">
<title>/lib/panels/tools/tools_panel.dart&#45;&gt;/lib/widgets/tolerance_picker.dart</title>
<path fill="none" stroke="#aabbaa" stroke-width="1.3" stroke-opacity="0.533333" d="M1385.29,-426.65C1388.21,-426.01 1391.14,-425.44 1394,-425 1507.43,-407.42 2312.63,-426.73 2427,-417 2654.95,-397.61 2722.12,-417.79 2935,-334 2949.78,-328.18 2964.63,-318.98 2976.98,-310.19"/>
<polygon fill="#aabbaa" fill-opacity="0.533333" stroke="#aabbaa" stroke-width="1.3" stroke-opacity="0.533333" points="2978.76,-313.22 2984.71,-304.46 2974.59,-307.6 2978.76,-313.22"/>
</g>
<!-- /lib/widgets/color_preview.dart -->
<g id="node47" class="node">
<title>/lib/widgets/color_preview.dart</title>
<path fill="Lavender" stroke="black" stroke-width="1.3" d="M2369.75,-212C2369.75,-212 2286.25,-212 2286.25,-212 2280.25,-212 2274.25,-206 2274.25,-200 2274.25,-200 2274.25,-188 2274.25,-188 2274.25,-182 2280.25,-176 2286.25,-176 2286.25,-176 2369.75,-176 2369.75,-176 2375.75,-176 2381.75,-182 2381.75,-188 2381.75,-188 2381.75,-200 2381.75,-200 2381.75,-206 2375.75,-212 2369.75,-212"/>
<text text-anchor="middle" x="2328" y="-188.75" font-family="Arial" font-size="15.00">color_preview</text>
</g>
<!-- /lib/panels/tools/tools_panel.dart&#45;&gt;/lib/widgets/color_preview.dart -->
<g id="edge14" class="edge">
<title>/lib/panels/tools/tools_panel.dart&#45;&gt;/lib/widgets/color_preview.dart</title>
<path fill="none" stroke="#aabbaa" stroke-width="1.3" stroke-opacity="0.533333" d="M1385.29,-426.67C1388.22,-426.02 1391.14,-425.45 1394,-425 1412.77,-422.05 2064.64,-430.51 2078,-417 2101.43,-393.29 2091.66,-372.41 2078,-342 2075.81,-337.12 2071.19,-338.88 2069,-334 2053.89,-300.35 2043.45,-277.61 2069,-251 2084.09,-235.28 2244.5,-250.39 2265,-243 2278.71,-238.06 2291.86,-228.99 2302.57,-220.05"/>
<polygon fill="#aabbaa" fill-opacity="0.533333" stroke="#aabbaa" stroke-width="1.3" stroke-opacity="0.533333" points="2304.65,-222.88 2309.83,-213.63 2300.02,-217.63 2304.65,-222.88"/>
</g>
<!-- /lib/widgets/top_colors.dart -->
<g id="node48" class="node">
<title>/lib/widgets/top_colors.dart</title>
<path fill="Lavender" stroke="black" stroke-width="1.3" d="M3160.5,-303C3160.5,-303 3099.5,-303 3099.5,-303 3093.5,-303 3087.5,-297 3087.5,-291 3087.5,-291 3087.5,-279 3087.5,-279 3087.5,-273 3093.5,-267 3099.5,-267 3099.5,-267 3160.5,-267 3160.5,-267 3166.5,-267 3172.5,-273 3172.5,-279 3172.5,-279 3172.5,-291 3172.5,-291 3172.5,-297 3166.5,-303 3160.5,-303"/>
<text text-anchor="middle" x="3130" y="-279.75" font-family="Arial" font-size="15.00">top_colors</text>
</g>
<!-- /lib/panels/tools/tools_panel.dart&#45;&gt;/lib/widgets/top_colors.dart -->
<g id="edge17" class="edge">
<title>/lib/panels/tools/tools_panel.dart&#45;&gt;/lib/widgets/top_colors.dart</title>
<path fill="none" stroke="#aabbaa" stroke-width="1.3" stroke-opacity="0.533333" d="M1385.29,-426.65C1388.21,-426 1391.14,-425.44 1394,-425 1464.28,-414.16 2603.27,-424.4 2674,-417 2856.74,-397.89 2915.91,-418.62 3079,-334 3089.73,-328.43 3099.82,-319.94 3108.15,-311.65"/>
<polygon fill="#aabbaa" fill-opacity="0.533333" stroke="#aabbaa" stroke-width="1.3" stroke-opacity="0.533333" points="3110.46,-314.3 3114.79,-304.63 3105.38,-309.49 3110.46,-314.3"/>
</g>
<!-- /lib/widgets/color_picker.dart -->
<g id="node51" class="node">
<title>/lib/widgets/color_picker.dart</title>
<path fill="Lavender" stroke="black" stroke-width="1.3" d="M3275.12,-303C3275.12,-303 3202.88,-303 3202.88,-303 3196.88,-303 3190.88,-297 3190.88,-291 3190.88,-291 3190.88,-279 3190.88,-279 3190.88,-273 3196.88,-267 3202.88,-267 3202.88,-267 3275.12,-267 3275.12,-267 3281.12,-267 3287.12,-273 3287.12,-279 3287.12,-279 3287.12,-291 3287.12,-291 3287.12,-297 3281.12,-303 3275.12,-303"/>
<text text-anchor="middle" x="3239" y="-279.75" font-family="Arial" font-size="15.00">color_picker</text>
</g>
<!-- /lib/panels/tools/tools_panel.dart&#45;&gt;/lib/widgets/color_picker.dart -->
<g id="edge13" class="edge">
<title>/lib/panels/tools/tools_panel.dart&#45;&gt;/lib/widgets/color_picker.dart</title>
<path fill="none" stroke="#aabbaa" stroke-width="1.3" stroke-opacity="0.533333" d="M1385.29,-426.64C1388.21,-426 1391.14,-425.44 1394,-425 1475.16,-412.52 2790.62,-427.93 2872,-417 3013.36,-398.01 3055.54,-399.96 3182,-334 3193.36,-328.08 3204.45,-319.56 3213.79,-311.33"/>
<polygon fill="#aabbaa" fill-opacity="0.533333" stroke="#aabbaa" stroke-width="1.3" stroke-opacity="0.533333" points="3216.06,-314 3221.05,-304.65 3211.32,-308.85 3216.06,-314"/>
</g>
<!-- /lib/panels/canvas_panel.dart -->
<g id="node12" class="node">
<title>/lib/panels/canvas_panel.dart</title>
<path fill="Lavender" stroke="black" stroke-width="1.3" d="M1511.75,-303C1511.75,-303 1428.25,-303 1428.25,-303 1422.25,-303 1416.25,-297 1416.25,-291 1416.25,-291 1416.25,-279 1416.25,-279 1416.25,-273 1422.25,-267 1428.25,-267 1428.25,-267 1511.75,-267 1511.75,-267 1517.75,-267 1523.75,-273 1523.75,-279 1523.75,-279 1523.75,-291 1523.75,-291 1523.75,-297 1517.75,-303 1511.75,-303"/>
<text text-anchor="middle" x="1470" y="-279.75" font-family="Arial" font-size="15.00">canvas_panel</text>
</g>
<!-- /lib/panels/canvas_panel.dart&#45;&gt;/lib/models/app_model.dart -->
<g id="edge18" class="edge">
<title>/lib/panels/canvas_panel.dart&#45;&gt;/lib/models/app_model.dart</title>
<path fill="none" stroke="#aabbaa" stroke-width="1.3" stroke-opacity="0.533333" d="M1415.75,-273.5C1374.13,-265.9 1315.16,-256.1 1263,-251 1214.75,-246.29 1091.22,-257.61 1045,-243 1029.06,-237.96 1013.26,-228.49 1000.37,-219.29"/>
<polygon fill="#aabbaa" fill-opacity="0.533333" stroke="#aabbaa" stroke-width="1.3" stroke-opacity="0.533333" points="1002.82,-216.74 992.71,-213.55 998.62,-222.35 1002.82,-216.74"/>
</g>
<!-- /lib/widgets/transparent_background.dart -->
<g id="node44" class="node">
<title>/lib/widgets/transparent_background.dart</title>
<path fill="Lavender" stroke="black" stroke-width="1.3" d="M2244.38,-212C2244.38,-212 2089.62,-212 2089.62,-212 2083.62,-212 2077.62,-206 2077.62,-200 2077.62,-200 2077.62,-188 2077.62,-188 2077.62,-182 2083.62,-176 2089.62,-176 2089.62,-176 2244.38,-176 2244.38,-176 2250.38,-176 2256.38,-182 2256.38,-188 2256.38,-188 2256.38,-200 2256.38,-200 2256.38,-206 2250.38,-212 2244.38,-212"/>
<text text-anchor="middle" x="2167" y="-188.75" font-family="Arial" font-size="15.00">transparent_background</text>
</g>
<!-- /lib/panels/canvas_panel.dart&#45;&gt;/lib/widgets/transparent_background.dart -->
<g id="edge19" class="edge">
<title>/lib/panels/canvas_panel.dart&#45;&gt;/lib/widgets/transparent_background.dart</title>
<path fill="none" stroke="#aabbaa" stroke-width="1.3" stroke-opacity="0.533333" d="M1524.11,-277.09C1640.47,-262.23 1916.01,-227.05 2065.81,-207.92"/>
<polygon fill="#aabbaa" fill-opacity="0.533333" stroke="#aabbaa" stroke-width="1.3" stroke-opacity="0.533333" points="2065.82,-211.45 2075.3,-206.71 2064.94,-204.5 2065.82,-211.45"/>
</g>
<!-- /lib/panels/layers/tools_and_layers_panel.dart -->
<g id="node13" class="node">
<title>/lib/panels/layers/tools_and_layers_panel.dart</title>
<path fill="Lavender" stroke="black" stroke-width="1.3" d="M1907.38,-461C1907.38,-461 1758.62,-461 1758.62,-461 1752.62,-461 1746.62,-455 1746.62,-449 1746.62,-449 1746.62,-437 1746.62,-437 1746.62,-431 1752.62,-425 1758.62,-425 1758.62,-425 1907.38,-425 1907.38,-425 1913.38,-425 1919.38,-431 1919.38,-437 1919.38,-437 1919.38,-449 1919.38,-449 1919.38,-455 1913.38,-461 1907.38,-461"/>
<text text-anchor="middle" x="1833" y="-437.75" font-family="Arial" font-size="15.00">tools_and_layers_panel</text>
</g>
<!-- /lib/panels/layers/tools_and_layers_panel.dart&#45;&gt;/lib/panels/about.dart -->
<g id="edge24" class="edge">
<title>/lib/panels/layers/tools_and_layers_panel.dart&#45;&gt;/lib/panels/about.dart</title>
<path fill="none" stroke="#aabbaa" stroke-width="1.3" stroke-opacity="0.533333" d="M1919.56,-435.13C1951.41,-431.27 1982.9,-425.48 1996,-417 2003.67,-412.03 2009.83,-404.42 2014.58,-396.72"/>
<polygon fill="#aabbaa" fill-opacity="0.533333" stroke="#aabbaa" stroke-width="1.3" stroke-opacity="0.533333" points="2017.56,-398.58 2019.25,-388.12 2011.4,-395.24 2017.56,-398.58"/>
</g>
<!-- /lib/panels/layers/layer_selector.dart -->
<g id="node14" class="node">
<title>/lib/panels/layers/layer_selector.dart</title>
<path fill="Lavender" stroke="black" stroke-width="1.3" d="M1922.5,-386C1922.5,-386 1837.5,-386 1837.5,-386 1831.5,-386 1825.5,-380 1825.5,-374 1825.5,-374 1825.5,-362 1825.5,-362 1825.5,-356 1831.5,-350 1837.5,-350 1837.5,-350 1922.5,-350 1922.5,-350 1928.5,-350 1934.5,-356 1934.5,-362 1934.5,-362 1934.5,-374 1934.5,-374 1934.5,-380 1928.5,-386 1922.5,-386"/>
<text text-anchor="middle" x="1880" y="-362.75" font-family="Arial" font-size="15.00">layer_selector</text>
</g>
<!-- /lib/panels/layers/tools_and_layers_panel.dart&#45;&gt;/lib/panels/layers/layer_selector.dart -->
<g id="edge26" class="edge">
<title>/lib/panels/layers/tools_and_layers_panel.dart&#45;&gt;/lib/panels/layers/layer_selector.dart</title>
<path fill="none" stroke="#aabbaa" stroke-width="1.3" stroke-opacity="0.533333" d="M1844.14,-424.7C1849.6,-416.22 1856.31,-405.8 1862.44,-396.28"/>
<polygon fill="#aabbaa" fill-opacity="0.533333" stroke="#aabbaa" stroke-width="1.3" stroke-opacity="0.533333" points="1865.24,-398.39 1867.71,-388.08 1859.36,-394.6 1865.24,-398.39"/>
</g>
<!-- /lib/panels/share_panel.dart -->
<g id="node18" class="node">
<title>/lib/panels/share_panel.dart</title>
<path fill="Lavender" stroke="black" stroke-width="1.3" d="M1576.88,-386C1576.88,-386 1503.12,-386 1503.12,-386 1497.12,-386 1491.12,-380 1491.12,-374 1491.12,-374 1491.12,-362 1491.12,-362 1491.12,-356 1497.12,-350 1503.12,-350 1503.12,-350 1576.88,-350 1576.88,-350 1582.88,-350 1588.88,-356 1588.88,-362 1588.88,-362 1588.88,-374 1588.88,-374 1588.88,-380 1582.88,-386 1576.88,-386"/>
<text text-anchor="middle" x="1540" y="-362.75" font-family="Arial" font-size="15.00">share_panel</text>
</g>
<!-- /lib/panels/layers/tools_and_layers_panel.dart&#45;&gt;/lib/panels/share_panel.dart -->
<g id="edge27" class="edge">
<title>/lib/panels/layers/tools_and_layers_panel.dart&#45;&gt;/lib/panels/share_panel.dart</title>
<path fill="none" stroke="#aabbaa" stroke-width="1.3" stroke-opacity="0.533333" d="M1746.17,-437.99C1690.58,-434.42 1624.14,-428.01 1598,-417 1585.59,-411.77 1573.77,-402.97 1564.08,-394.33"/>
<polygon fill="#aabbaa" fill-opacity="0.533333" stroke="#aabbaa" stroke-width="1.3" stroke-opacity="0.533333" points="1566.59,-391.88 1556.92,-387.56 1561.78,-396.97 1566.59,-391.88"/>
</g>
<!-- /lib/panels/canvas_settings.dart -->
<g id="node19" class="node">
<title>/lib/panels/canvas_settings.dart</title>
<path fill="Lavender" stroke="black" stroke-width="1.3" d="M1718.62,-386C1718.62,-386 1619.38,-386 1619.38,-386 1613.38,-386 1607.38,-380 1607.38,-374 1607.38,-374 1607.38,-362 1607.38,-362 1607.38,-356 1613.38,-350 1619.38,-350 1619.38,-350 1718.62,-350 1718.62,-350 1724.62,-350 1730.62,-356 1730.62,-362 1730.62,-362 1730.62,-374 1730.62,-374 1730.62,-380 1724.62,-386 1718.62,-386"/>
<text text-anchor="middle" x="1669" y="-362.75" font-family="Arial" font-size="15.00">canvas_settings</text>
</g>
<!-- /lib/panels/layers/tools_and_layers_panel.dart&#45;&gt;/lib/panels/canvas_settings.dart -->
<g id="edge25" class="edge">
<title>/lib/panels/layers/tools_and_layers_panel.dart&#45;&gt;/lib/panels/canvas_settings.dart</title>
<path fill="none" stroke="#aabbaa" stroke-width="1.3" stroke-opacity="0.533333" d="M1753.72,-424.57C1747.28,-422.32 1740.96,-419.8 1735,-417 1721.91,-410.85 1708.76,-401.97 1697.69,-393.52"/>
<polygon fill="#aabbaa" fill-opacity="0.533333" stroke="#aabbaa" stroke-width="1.3" stroke-opacity="0.533333" points="1700.1,-390.96 1690.08,-387.5 1695.75,-396.45 1700.1,-390.96"/>
</g>
<!-- /lib/models/menu_model.dart -->
<g id="node20" class="node">
<title>/lib/models/menu_model.dart</title>
<path fill="Lavender" stroke="black" stroke-width="1.3" d="M1069.12,-386C1069.12,-386 990.88,-386 990.88,-386 984.88,-386 978.88,-380 978.88,-374 978.88,-374 978.88,-362 978.88,-362 978.88,-356 984.88,-350 990.88,-350 990.88,-350 1069.12,-350 1069.12,-350 1075.12,-350 1081.12,-356 1081.12,-362 1081.12,-362 1081.12,-374 1081.12,-374 1081.12,-380 1075.12,-386 1069.12,-386"/>
<text text-anchor="middle" x="1030" y="-362.75" font-family="Arial" font-size="15.00">menu_model</text>
</g>
<!-- /lib/panels/layers/tools_and_layers_panel.dart&#45;&gt;/lib/models/menu_model.dart -->
<g id="edge23" class="edge">
<title>/lib/panels/layers/tools_and_layers_panel.dart&#45;&gt;/lib/models/menu_model.dart</title>
<path fill="none" stroke="#aabbaa" stroke-width="1.3" stroke-opacity="0.533333" d="M1746.15,-437.07C1675.76,-433.24 1574.02,-428.08 1485,-425 1463.06,-424.24 1110.64,-424.47 1090,-417 1076.75,-412.2 1064.21,-403.19 1054.06,-394.25"/>
<polygon fill="#aabbaa" fill-opacity="0.533333" stroke="#aabbaa" stroke-width="1.3" stroke-opacity="0.533333" points="1056.59,-391.82 1046.9,-387.54 1051.8,-396.93 1056.59,-391.82"/>
</g>
<!-- /lib/panels/layers/tools_and_layers_panel.dart&#45;&gt;/lib/models/app_model.dart -->
<g id="edge22" class="edge">
<title>/lib/panels/layers/tools_and_layers_panel.dart&#45;&gt;/lib/models/app_model.dart</title>
<path fill="none" stroke="#aabbaa" stroke-width="1.3" stroke-opacity="0.533333" d="M1746.15,-436.95C1675.77,-433.06 1574.02,-427.87 1485,-425 1470.7,-424.54 980.04,-427.2 970,-417 943.96,-390.56 957.66,-278.29 966.05,-224.27"/>
<polygon fill="#aabbaa" fill-opacity="0.533333" stroke="#aabbaa" stroke-width="1.3" stroke-opacity="0.533333" points="969.5,-224.85 967.63,-214.42 962.59,-223.74 969.5,-224.85"/>
</g>
<!-- /lib/files/save.dart -->
<g id="node33" class="node">
<title>/lib/files/save.dart</title>
<path fill="Lavender" stroke="black" stroke-width="1.3" d="M879,-386C879,-386 849,-386 849,-386 843,-386 837,-380 837,-374 837,-374 837,-362 837,-362 837,-356 843,-350 849,-350 849,-350 879,-350 879,-350 885,-350 891,-356 891,-362 891,-362 891,-374 891,-374 891,-380 885,-386 879,-386"/>
<text text-anchor="middle" x="864" y="-362.75" font-family="Arial" font-size="15.00">save</text>
</g>
<!-- /lib/panels/layers/tools_and_layers_panel.dart&#45;&gt;/lib/files/save.dart -->
<g id="edge21" class="edge">
<title>/lib/panels/layers/tools_and_layers_panel.dart&#45;&gt;/lib/files/save.dart</title>
<path fill="none" stroke="#aabbaa" stroke-width="1.3" stroke-opacity="0.533333" d="M1746.15,-436.91C1675.77,-432.99 1574.03,-427.79 1485,-425 1468.84,-424.49 917.55,-424.05 903,-417 893.52,-412.41 885.58,-404.29 879.39,-396.01"/>
<polygon fill="#aabbaa" fill-opacity="0.533333" stroke="#aabbaa" stroke-width="1.3" stroke-opacity="0.533333" points="882.29,-394.06 873.82,-387.71 876.48,-397.96 882.29,-394.06"/>
</g>
<!-- /lib/files/import_files.dart -->
<g id="node35" class="node">
<title>/lib/files/import_files.dart</title>
<path fill="Lavender" stroke="black" stroke-width="1.3" d="M807.25,-386C807.25,-386 738.75,-386 738.75,-386 732.75,-386 726.75,-380 726.75,-374 726.75,-374 726.75,-362 726.75,-362 726.75,-356 732.75,-350 738.75,-350 738.75,-350 807.25,-350 807.25,-350 813.25,-350 819.25,-356 819.25,-362 819.25,-362 819.25,-374 819.25,-374 819.25,-380 813.25,-386 807.25,-386"/>
<text text-anchor="middle" x="773" y="-362.75" font-family="Arial" font-size="15.00">import_files</text>
</g>
<!-- /lib/panels/layers/tools_and_layers_panel.dart&#45;&gt;/lib/files/import_files.dart -->
<g id="edge20" class="edge">
<title>/lib/panels/layers/tools_and_layers_panel.dart&#45;&gt;/lib/files/import_files.dart</title>
<path fill="none" stroke="#aabbaa" stroke-width="1.3" stroke-opacity="0.533333" d="M1746.15,-436.87C1675.77,-432.93 1574.03,-427.72 1485,-425 1466.76,-424.44 845.05,-423.51 828,-417 815.62,-412.27 804.17,-403.4 794.97,-394.55"/>
<polygon fill="#aabbaa" fill-opacity="0.533333" stroke="#aabbaa" stroke-width="1.3" stroke-opacity="0.533333" points="797.72,-392.36 788.24,-387.63 792.7,-397.24 797.72,-392.36"/>
</g>
<!-- /lib/panels/layers/layer_thumbnail.dart -->
<g id="node15" class="node">
<title>/lib/panels/layers/layer_thumbnail.dart</title>
<path fill="Lavender" stroke="black" stroke-width="1.3" d="M1856.5,-303C1856.5,-303 1759.5,-303 1759.5,-303 1753.5,-303 1747.5,-297 1747.5,-291 1747.5,-291 1747.5,-279 1747.5,-279 1747.5,-273 1753.5,-267 1759.5,-267 1759.5,-267 1856.5,-267 1856.5,-267 1862.5,-267 1868.5,-273 1868.5,-279 1868.5,-279 1868.5,-291 1868.5,-291 1868.5,-297 1862.5,-303 1856.5,-303"/>
<text text-anchor="middle" x="1808" y="-279.75" font-family="Arial" font-size="15.00">layer_thumbnail</text>
</g>
<!-- /lib/panels/layers/layer_selector.dart&#45;&gt;/lib/panels/layers/layer_thumbnail.dart -->
<g id="edge30" class="edge">
<title>/lib/panels/layers/layer_selector.dart&#45;&gt;/lib/panels/layers/layer_thumbnail.dart</title>
<path fill="none" stroke="#aabbaa" stroke-width="1.3" stroke-opacity="0.533333" d="M1864.73,-349.82C1855.06,-338.94 1842.36,-324.66 1831.43,-312.36"/>
<polygon fill="#aabbaa" fill-opacity="0.533333" stroke="#aabbaa" stroke-width="1.3" stroke-opacity="0.533333" points="1834.06,-310.05 1824.8,-304.9 1828.83,-314.7 1834.06,-310.05"/>
</g>
<!-- /lib/panels/layers/blend_mode.dart -->
<g id="node16" class="node">
<title>/lib/panels/layers/blend_mode.dart</title>
<path fill="Lavender" stroke="black" stroke-width="1.3" d="M1971.88,-303C1971.88,-303 1898.12,-303 1898.12,-303 1892.12,-303 1886.12,-297 1886.12,-291 1886.12,-291 1886.12,-279 1886.12,-279 1886.12,-273 1892.12,-267 1898.12,-267 1898.12,-267 1971.88,-267 1971.88,-267 1977.88,-267 1983.88,-273 1983.88,-279 1983.88,-279 1983.88,-291 1983.88,-291 1983.88,-297 1977.88,-303 1971.88,-303"/>
<text text-anchor="middle" x="1935" y="-279.75" font-family="Arial" font-size="15.00">blend_mode</text>
</g>
<!-- /lib/panels/layers/layer_selector.dart&#45;&gt;/lib/panels/layers/blend_mode.dart -->
<g id="edge29" class="edge">
<title>/lib/panels/layers/layer_selector.dart&#45;&gt;/lib/panels/layers/blend_mode.dart</title>
<path fill="none" stroke="#aabbaa" stroke-width="1.3" stroke-opacity="0.533333" d="M1891.66,-349.82C1898.91,-339.16 1908.37,-325.22 1916.61,-313.08"/>
<polygon fill="#aabbaa" fill-opacity="0.533333" stroke="#aabbaa" stroke-width="1.3" stroke-opacity="0.533333" points="1919.34,-315.3 1922.06,-305.06 1913.54,-311.37 1919.34,-315.3"/>
</g>
<!-- /lib/panels/layers/layer_selector.dart&#45;&gt;/lib/models/app_model.dart -->
<g id="edge28" class="edge">
<title>/lib/panels/layers/layer_selector.dart&#45;&gt;/lib/models/app_model.dart</title>
<path fill="none" stroke="#aabbaa" stroke-width="1.3" stroke-opacity="0.533333" d="M1845.46,-349.5C1837.91,-346.43 1829.83,-343.67 1822,-342 1806.81,-338.75 1274.55,-344.39 1263,-334 1235.38,-309.15 1280.32,-276.18 1253,-251 1235.99,-235.33 1067.05,-249.99 1045,-243 1029.06,-237.95 1013.26,-228.48 1000.38,-219.27"/>
<polygon fill="#aabbaa" fill-opacity="0.533333" stroke="#aabbaa" stroke-width="1.3" stroke-opacity="0.533333" points="1002.82,-216.73 992.72,-213.54 998.63,-222.33 1002.82,-216.73"/>
</g>
<!-- /lib/widgets/truncated_text.dart -->
<g id="node41" class="node">
<title>/lib/widgets/truncated_text.dart</title>
<path fill="Lavender" stroke="black" stroke-width="1.3" d="M2492,-303C2492,-303 2404,-303 2404,-303 2398,-303 2392,-297 2392,-291 2392,-291 2392,-279 2392,-279 2392,-273 2398,-267 2404,-267 2404,-267 2492,-267 2492,-267 2498,-267 2504,-273 2504,-279 2504,-279 2504,-291 2504,-291 2504,-297 2498,-303 2492,-303"/>
<text text-anchor="middle" x="2448" y="-279.75" font-family="Arial" font-size="15.00">truncated_text</text>
</g>
<!-- /lib/panels/layers/layer_selector.dart&#45;&gt;/lib/widgets/truncated_text.dart -->
<g id="edge32" class="edge">
<title>/lib/panels/layers/layer_selector.dart&#45;&gt;/lib/widgets/truncated_text.dart</title>
<path fill="none" stroke="#aabbaa" stroke-width="1.3" stroke-opacity="0.533333" d="M1915.17,-349.53C1922.85,-346.45 1931.06,-343.69 1939,-342 1987.26,-331.74 2336.27,-349.85 2383,-334 2397.08,-329.22 2410.64,-320.18 2421.7,-311.22"/>
<polygon fill="#aabbaa" fill-opacity="0.533333" stroke="#aabbaa" stroke-width="1.3" stroke-opacity="0.533333" points="2423.92,-313.92 2429.23,-304.75 2419.36,-308.61 2423.92,-313.92"/>
</g>
<!-- /lib/widgets/container_slider.dart -->
<g id="node42" class="node">
<title>/lib/widgets/container_slider.dart</title>
<path fill="Lavender" stroke="black" stroke-width="1.3" d="M2631.5,-303C2631.5,-303 2534.5,-303 2534.5,-303 2528.5,-303 2522.5,-297 2522.5,-291 2522.5,-291 2522.5,-279 2522.5,-279 2522.5,-273 2528.5,-267 2534.5,-267 2534.5,-267 2631.5,-267 2631.5,-267 2637.5,-267 2643.5,-273 2643.5,-279 2643.5,-279 2643.5,-291 2643.5,-291 2643.5,-297 2637.5,-303 2631.5,-303"/>
<text text-anchor="middle" x="2583" y="-279.75" font-family="Arial" font-size="15.00">container_slider</text>
</g>
<!-- /lib/panels/layers/layer_selector.dart&#45;&gt;/lib/widgets/container_slider.dart -->
<g id="edge31" class="edge">
<title>/lib/panels/layers/layer_selector.dart&#45;&gt;/lib/widgets/container_slider.dart</title>
<path fill="none" stroke="#aabbaa" stroke-width="1.3" stroke-opacity="0.533333" d="M1915.16,-349.5C1922.84,-346.42 1931.05,-343.67 1939,-342 2001.42,-328.87 2452.21,-353.31 2513,-334 2528.29,-329.14 2543.24,-319.73 2555.37,-310.52"/>
<polygon fill="#aabbaa" fill-opacity="0.533333" stroke="#aabbaa" stroke-width="1.3" stroke-opacity="0.533333" points="2557.28,-313.48 2562.91,-304.5 2552.91,-308.01 2557.28,-313.48"/>
</g>
<!-- /lib/panels/layers/layer_thumbnail.dart&#45;&gt;/lib/models/app_model.dart -->
<g id="edge33" class="edge">
<title>/lib/panels/layers/layer_thumbnail.dart&#45;&gt;/lib/models/app_model.dart</title>
<path fill="none" stroke="#aabbaa" stroke-width="1.3" stroke-opacity="0.533333" d="M1781.08,-266.58C1770.04,-260.41 1756.86,-254.2 1744,-251 1706.31,-241.63 1082.18,-254.23 1045,-243 1028.88,-238.13 1012.95,-228.59 1000.03,-219.28"/>
<polygon fill="#aabbaa" fill-opacity="0.533333" stroke="#aabbaa" stroke-width="1.3" stroke-opacity="0.533333" points="1002.44,-216.72 992.35,-213.48 998.22,-222.3 1002.44,-216.72"/>
</g>
<!-- /lib/panels/layers/layer_thumbnail.dart&#45;&gt;/lib/widgets/transparent_background.dart -->
<g id="edge35" class="edge">
<title>/lib/panels/layers/layer_thumbnail.dart&#45;&gt;/lib/widgets/transparent_background.dart</title>
<path fill="none" stroke="#aabbaa" stroke-width="1.3" stroke-opacity="0.533333" d="M1839.94,-266.63C1851.37,-260.98 1864.51,-255.12 1877,-251 1938.15,-230.84 2009.08,-216.99 2065.49,-208.1"/>
<polygon fill="#aabbaa" fill-opacity="0.533333" stroke="#aabbaa" stroke-width="1.3" stroke-opacity="0.533333" points="2066,-211.56 2075.35,-206.58 2064.94,-204.64 2066,-211.56"/>
</g>
<!-- /lib/widgets/image_painter.dart -->
<g id="node46" class="node">
<title>/lib/widgets/image_painter.dart</title>
<path fill="Lavender" stroke="black" stroke-width="1.3" d="M2760.25,-303C2760.25,-303 2673.75,-303 2673.75,-303 2667.75,-303 2661.75,-297 2661.75,-291 2661.75,-291 2661.75,-279 2661.75,-279 2661.75,-273 2667.75,-267 2673.75,-267 2673.75,-267 2760.25,-267 2760.25,-267 2766.25,-267 2772.25,-273 2772.25,-279 2772.25,-279 2772.25,-291 2772.25,-291 2772.25,-297 2766.25,-303 2760.25,-303"/>
<text text-anchor="middle" x="2717" y="-279.75" font-family="Arial" font-size="15.00">image_painter</text>
</g>
<!-- /lib/panels/layers/layer_thumbnail.dart&#45;&gt;/lib/widgets/image_painter.dart -->
<g id="edge34" class="edge">
<title>/lib/panels/layers/layer_thumbnail.dart&#45;&gt;/lib/widgets/image_painter.dart</title>
<path fill="none" stroke="#aabbaa" stroke-width="1.3" stroke-opacity="0.533333" d="M1826.18,-303.47C1840.84,-316.72 1862.78,-333.07 1886,-338 1906.6,-342.37 2623.4,-342.37 2644,-338 2662,-334.18 2678.85,-322.7 2691.82,-311.4"/>
<polygon fill="#aabbaa" fill-opacity="0.533333" stroke="#aabbaa" stroke-width="1.3" stroke-opacity="0.533333" points="2694.14,-314.02 2699.1,-304.66 2689.38,-308.89 2694.14,-314.02"/>
</g>
<!-- /lib/panels/side_panel.dart -->
<g id="node17" class="node">
<title>/lib/panels/side_panel.dart</title>
<path fill="Lavender" stroke="black" stroke-width="1.3" d="M1315.62,-536C1315.62,-536 1252.38,-536 1252.38,-536 1246.38,-536 1240.38,-530 1240.38,-524 1240.38,-524 1240.38,-512 1240.38,-512 1240.38,-506 1246.38,-500 1252.38,-500 1252.38,-500 1315.62,-500 1315.62,-500 1321.62,-500 1327.62,-506 1327.62,-512 1327.62,-512 1327.62,-524 1327.62,-524 1327.62,-530 1321.62,-536 1315.62,-536"/>
<text text-anchor="middle" x="1284" y="-512.75" font-family="Arial" font-size="15.00">side_panel</text>
</g>
<!-- /lib/panels/side_panel.dart&#45;&gt;/lib/panels/tools/tools_panel.dart -->
<g id="edge38" class="edge">
<title>/lib/panels/side_panel.dart&#45;&gt;/lib/panels/tools/tools_panel.dart</title>
<path fill="none" stroke="#aabbaa" stroke-width="1.3" stroke-opacity="0.533333" d="M1297.03,-499.7C1303.49,-491.13 1311.44,-480.58 1318.68,-470.97"/>
<polygon fill="#aabbaa" fill-opacity="0.533333" stroke="#aabbaa" stroke-width="1.3" stroke-opacity="0.533333" points="1321.46,-473.09 1324.68,-463 1315.87,-468.88 1321.46,-473.09"/>
</g>
<!-- /lib/panels/side_panel.dart&#45;&gt;/lib/panels/layers/tools_and_layers_panel.dart -->
<g id="edge37" class="edge">
<title>/lib/panels/side_panel.dart&#45;&gt;/lib/panels/layers/tools_and_layers_panel.dart</title>
<path fill="none" stroke="#aabbaa" stroke-width="1.3" stroke-opacity="0.533333" d="M1327.94,-511.71C1368.67,-506.76 1430.96,-499.09 1485,-492 1569.17,-480.96 1664.7,-467.74 1734.34,-457.96"/>
<polygon fill="#aabbaa" fill-opacity="0.533333" stroke="#aabbaa" stroke-width="1.3" stroke-opacity="0.533333" points="1734.8,-461.44 1744.21,-456.58 1733.82,-454.5 1734.8,-461.44"/>
</g>
<!-- /lib/panels/side_panel.dart&#45;&gt;/lib/models/app_model.dart -->
<g id="edge36" class="edge">
<title>/lib/panels/side_panel.dart&#45;&gt;/lib/models/app_model.dart</title>
<path fill="none" stroke="#aabbaa" stroke-width="1.3" stroke-opacity="0.533333" d="M1239.9,-501.01C1238.59,-500.66 1237.29,-500.32 1236,-500 1224.01,-497.04 1189.75,-500.72 1181,-492 1159.67,-470.75 1193.48,-445.02 1171,-425 1150.58,-406.81 944.02,-436.65 925,-417 899.34,-390.5 912.56,-285.73 925,-251 928.97,-239.92 936.17,-229.47 943.72,-220.65"/>
<polygon fill="#aabbaa" fill-opacity="0.533333" stroke="#aabbaa" stroke-width="1.3" stroke-opacity="0.533333" points="946.06,-223.28 950.26,-213.56 940.91,-218.54 946.06,-223.28"/>
</g>
<!-- /lib/panels/share_panel.dart&#45;&gt;/lib/panels/canvas_panel.dart -->
<g id="edge40" class="edge">
<title>/lib/panels/share_panel.dart&#45;&gt;/lib/panels/canvas_panel.dart</title>
<path fill="none" stroke="#aabbaa" stroke-width="1.3" stroke-opacity="0.533333" d="M1525.15,-349.82C1515.75,-338.94 1503.41,-324.66 1492.78,-312.36"/>
<polygon fill="#aabbaa" fill-opacity="0.533333" stroke="#aabbaa" stroke-width="1.3" stroke-opacity="0.533333" points="1495.54,-310.2 1486.35,-304.92 1490.24,-314.78 1495.54,-310.2"/>
</g>
<!-- /lib/panels/share_panel.dart&#45;&gt;/lib/models/app_model.dart -->
<g id="edge39" class="edge">
<title>/lib/panels/share_panel.dart&#45;&gt;/lib/models/app_model.dart</title>
<path fill="none" stroke="#aabbaa" stroke-width="1.3" stroke-opacity="0.533333" d="M1507.31,-349.56C1500.14,-346.48 1492.46,-343.71 1485,-342 1466.47,-337.76 1158.12,-345.51 1143,-334 1112.35,-310.66 1147.62,-275.63 1118,-251 1105.45,-240.57 1060.37,-248.48 1045,-243 1029.63,-237.52 1014.24,-228.3 1001.51,-219.38"/>
<polygon fill="#aabbaa" fill-opacity="0.533333" stroke="#aabbaa" stroke-width="1.3" stroke-opacity="0.533333" points="1003.65,-216.61 993.51,-213.54 999.52,-222.27 1003.65,-216.61"/>
</g>
<!-- /lib/panels/canvas_settings.dart&#45;&gt;/lib/models/app_model.dart -->
<g id="edge41" class="edge">
<title>/lib/panels/canvas_settings.dart&#45;&gt;/lib/models/app_model.dart</title>
<path fill="none" stroke="#aabbaa" stroke-width="1.3" stroke-opacity="0.533333" d="M1626.41,-349.57C1617.19,-346.49 1607.38,-343.72 1598,-342 1560.28,-335.1 1289.4,-346.07 1253,-334 1192.48,-313.94 1195.84,-273 1136,-251 1097.89,-236.99 1083.39,-256.22 1045,-243 1029.46,-237.65 1013.95,-228.35 1001.17,-219.35"/>
<polygon fill="#aabbaa" fill-opacity="0.533333" stroke="#aabbaa" stroke-width="1.3" stroke-opacity="0.533333" points="1003.27,-216.56 993.14,-213.45 999.12,-222.19 1003.27,-216.56"/>
</g>
<!-- /lib/widgets/nine_grid_selector.dart -->
<g id="node50" class="node">
<title>/lib/widgets/nine_grid_selector.dart</title>
<path fill="Lavender" stroke="black" stroke-width="1.3" d="M2361.75,-303C2361.75,-303 2248.25,-303 2248.25,-303 2242.25,-303 2236.25,-297 2236.25,-291 2236.25,-291 2236.25,-279 2236.25,-279 2236.25,-273 2242.25,-267 2248.25,-267 2248.25,-267 2361.75,-267 2361.75,-267 2367.75,-267 2373.75,-273 2373.75,-279 2373.75,-279 2373.75,-291 2373.75,-291 2373.75,-297 2367.75,-303 2361.75,-303"/>
<text text-anchor="middle" x="2305" y="-279.75" font-family="Arial" font-size="15.00">nine_grid_selector</text>
</g>
<!-- /lib/panels/canvas_settings.dart&#45;&gt;/lib/widgets/nine_grid_selector.dart -->
<g id="edge42" class="edge">
<title>/lib/panels/canvas_settings.dart&#45;&gt;/lib/widgets/nine_grid_selector.dart</title>
<path fill="none" stroke="#aabbaa" stroke-width="1.3" stroke-opacity="0.533333" d="M1708.49,-349.52C1717.07,-346.44 1726.22,-343.68 1735,-342 1788.7,-331.72 2174.52,-349.32 2227,-334 2243.95,-329.05 2260.87,-319.37 2274.6,-309.98"/>
<polygon fill="#aabbaa" fill-opacity="0.533333" stroke="#aabbaa" stroke-width="1.3" stroke-opacity="0.533333" points="2276.28,-313.08 2282.39,-304.42 2272.21,-307.38 2276.28,-313.08"/>
</g>
<!-- /lib/models/layers.dart -->
<g id="node21" class="node">
<title>/lib/models/layers.dart</title>
<path fill="Lavender" stroke="black" stroke-width="1.3" d="M1142.88,-386C1142.88,-386 1111.12,-386 1111.12,-386 1105.12,-386 1099.12,-380 1099.12,-374 1099.12,-374 1099.12,-362 1099.12,-362 1099.12,-356 1105.12,-350 1111.12,-350 1111.12,-350 1142.88,-350 1142.88,-350 1148.88,-350 1154.88,-356 1154.88,-362 1154.88,-362 1154.88,-374 1154.88,-374 1154.88,-380 1148.88,-386 1142.88,-386"/>
<text text-anchor="middle" x="1127" y="-362.75" font-family="Arial" font-size="15.00">layers</text>
</g>
<!-- /lib/models/layers.dart&#45;&gt;/lib/models/layer.dart -->
<g id="edge45" class="edge">
<title>/lib/models/layers.dart&#45;&gt;/lib/models/layer.dart</title>
<path fill="none" stroke="#aabbaa" stroke-width="1.3" stroke-opacity="0.533333" d="M1111.82,-349.82C1104.95,-339.48 1097.22,-326.05 1091.19,-314.18"/>
<polygon fill="#aabbaa" fill-opacity="0.533333" stroke="#aabbaa" stroke-width="1.3" stroke-opacity="0.533333" points="1094.36,-312.7 1086.87,-305.21 1088.06,-315.73 1094.36,-312.7"/>
</g>
<!-- /lib/models/layers.dart&#45;&gt;/lib/models/layer.dart -->
<g id="edge46" class="edge">
<title>/lib/models/layers.dart&#45;&gt;/lib/models/layer.dart</title>
<path fill="none" stroke="#aabbaa" stroke-width="1.3" stroke-dasharray="5,2" stroke-opacity="0.533333" d="M1123.09,-349.82C1118.37,-339.26 1110.98,-325.49 1103.68,-313.45"/>
<polygon fill="#aabbaa" fill-opacity="0.533333" stroke="#aabbaa" stroke-width="1.3" stroke-opacity="0.533333" points="1106.7,-311.68 1098.4,-305.1 1100.78,-315.42 1106.7,-311.68"/>
</g>
<!-- /lib/helpers/list_helper.dart -->
<g id="node38" class="node">
<title>/lib/helpers/list_helper.dart</title>
<path fill="Lavender" stroke="black" stroke-width="1.3" d="M1257.75,-68C1257.75,-68 1198.25,-68 1198.25,-68 1192.25,-68 1186.25,-62 1186.25,-56 1186.25,-56 1186.25,-44 1186.25,-44 1186.25,-38 1192.25,-32 1198.25,-32 1198.25,-32 1257.75,-32 1257.75,-32 1263.75,-32 1269.75,-38 1269.75,-44 1269.75,-44 1269.75,-56 1269.75,-56 1269.75,-62 1263.75,-68 1257.75,-68"/>
<text text-anchor="middle" x="1228" y="-44.75" font-family="Arial" font-size="15.00">list_helper</text>
</g>
<!-- /lib/models/layers.dart&#45;&gt;/lib/helpers/list_helper.dart -->
<g id="edge44" class="edge">
<title>/lib/models/layers.dart&#45;&gt;/lib/helpers/list_helper.dart</title>
<path fill="none" stroke="#aabbaa" stroke-width="1.3" stroke-opacity="0.533333" d="M1105.3,-349.67C1100.5,-346.62 1095.27,-343.84 1090,-342 1067.9,-334.3 1005.51,-345.27 985,-334 940.75,-309.68 935.45,-290 917,-243 893.06,-182.01 863,-145.43 906,-96 940.09,-56.82 1091.52,-50.71 1174.01,-50.38"/>
<polygon fill="#aabbaa" fill-opacity="0.533333" stroke="#aabbaa" stroke-width="1.3" stroke-opacity="0.533333" points="1173.93,-53.88 1183.93,-50.37 1173.93,-46.88 1173.93,-53.88"/>
</g>
<!-- /lib/models/layers.dart&#45;&gt;/lib/helpers/color_helper.dart -->
<g id="edge43" class="edge">
<title>/lib/models/layers.dart&#45;&gt;/lib/helpers/color_helper.dart</title>
<path fill="none" stroke="#aabbaa" stroke-width="1.3" stroke-opacity="0.533333" d="M1128.26,-349.76C1131.2,-323.56 1140.91,-274.29 1173,-251 1196.06,-234.26 1281.49,-263.77 1301,-243 1323.82,-218.71 1315.66,-197.94 1301,-168 1297.22,-160.29 1291.42,-153.52 1284.91,-147.73"/>
<polygon fill="#aabbaa" fill-opacity="0.533333" stroke="#aabbaa" stroke-width="1.3" stroke-opacity="0.533333" points="1287.28,-145.14 1277.27,-141.67 1282.93,-150.63 1287.28,-145.14"/>
</g>
<!-- /lib/models/user_action.dart -->
<g id="node22" class="node">
<title>/lib/models/user_action.dart</title>
<path fill="Lavender" stroke="black" stroke-width="1.3" d="M1135.62,-212C1135.62,-212 1066.38,-212 1066.38,-212 1060.38,-212 1054.38,-206 1054.38,-200 1054.38,-200 1054.38,-188 1054.38,-188 1054.38,-182 1060.38,-176 1066.38,-176 1066.38,-176 1135.62,-176 1135.62,-176 1141.62,-176 1147.62,-182 1147.62,-188 1147.62,-188 1147.62,-200 1147.62,-200 1147.62,-206 1141.62,-212 1135.62,-212"/>
<text text-anchor="middle" x="1101" y="-188.75" font-family="Arial" font-size="15.00">user_action</text>
</g>
<!-- /lib/widgets/brush_style_picker.dart -->
<g id="node49" class="node">
<title>/lib/widgets/brush_style_picker.dart</title>
<path fill="Lavender" stroke="black" stroke-width="1.3" d="M2206.25,-303C2206.25,-303 2089.75,-303 2089.75,-303 2083.75,-303 2077.75,-297 2077.75,-291 2077.75,-291 2077.75,-279 2077.75,-279 2077.75,-273 2083.75,-267 2089.75,-267 2089.75,-267 2206.25,-267 2206.25,-267 2212.25,-267 2218.25,-273 2218.25,-279 2218.25,-279 2218.25,-291 2218.25,-291 2218.25,-297 2212.25,-303 2206.25,-303"/>
<text text-anchor="middle" x="2148" y="-279.75" font-family="Arial" font-size="15.00">brush_style_picker</text>
</g>
<!-- /lib/models/user_action.dart&#45;&gt;/lib/widgets/brush_style_picker.dart -->
<g id="edge47" class="edge">
<title>/lib/models/user_action.dart&#45;&gt;/lib/widgets/brush_style_picker.dart</title>
<path fill="none" stroke="#aabbaa" stroke-width="1.3" stroke-opacity="0.533333" d="M1112.88,-212.31C1125.33,-223.43 1144.98,-236.9 1165,-243 1208.69,-256.31 1941.62,-245.91 1987,-251 2012.83,-253.9 2040.73,-259.28 2065.96,-264.87"/>
<polygon fill="#aabbaa" fill-opacity="0.533333" stroke="#aabbaa" stroke-width="1.3" stroke-opacity="0.533333" points="2064.91,-268.22 2075.43,-267.02 2066.45,-261.4 2064.91,-268.22"/>
</g>
<!-- /lib/models/user_action.dart&#45;&gt;/lib/widgets/brush_style_picker.dart -->
<g id="edge48" class="edge">
<title>/lib/models/user_action.dart&#45;&gt;/lib/widgets/brush_style_picker.dart</title>
<path fill="none" stroke="#aabbaa" stroke-width="1.3" stroke-dasharray="5,2" stroke-opacity="0.533333" d="M1128.06,-212.31C1143.33,-223.43 1162.98,-236.9 1183,-243 1226.69,-256.31 1959.62,-245.91 2005,-251 2029.33,-253.73 2055.5,-258.67 2078.75,-263.9"/>
<polygon fill="#aabbaa" fill-opacity="0.533333" stroke="#aabbaa" stroke-width="1.3" stroke-opacity="0.533333" points="2077.81,-267.28 2088.34,-266.13 2079.39,-260.46 2077.81,-267.28"/>
</g>
<!-- /lib/models/canvas_model.dart -->
<g id="node24" class="node">
<title>/lib/models/canvas_model.dart</title>
<path fill="Lavender" stroke="black" stroke-width="1.3" d="M1145,-140C1145,-140 1057,-140 1057,-140 1051,-140 1045,-134 1045,-128 1045,-128 1045,-116 1045,-116 1045,-110 1051,-104 1057,-104 1057,-104 1145,-104 1145,-104 1151,-104 1157,-110 1157,-116 1157,-116 1157,-128 1157,-128 1157,-134 1151,-140 1145,-140"/>
<text text-anchor="middle" x="1101" y="-116.75" font-family="Arial" font-size="15.00">canvas_model</text>
</g>
<!-- /lib/models/canvas_model.dart&#45;&gt;/lib/models/layers.dart -->
<g id="edge49" class="edge">
<title>/lib/models/canvas_model.dart&#45;&gt;/lib/models/layers.dart</title>
<path fill="none" stroke="#aabbaa" stroke-width="1.3" stroke-dasharray="5,2" stroke-opacity="0.533333" d="M1069.67,-140.45C1059.92,-147.61 1050.34,-156.87 1045,-168 1029.06,-201.27 1022.21,-305.81 1046,-334 1058.82,-349.19 1071.59,-334.5 1090,-342 1091.37,-342.56 1092.75,-343.18 1094.12,-343.84"/>
<polygon fill="#aabbaa" fill-opacity="0.533333" stroke="#aabbaa" stroke-width="1.3" stroke-opacity="0.533333" points="1092.19,-346.77 1102.63,-348.61 1095.62,-340.67 1092.19,-346.77"/>
</g>
<!-- /lib/models/app_model.dart&#45;&gt;/lib/models/layers.dart -->
<g id="edge53" class="edge">
<title>/lib/models/app_model.dart&#45;&gt;/lib/models/layers.dart</title>
<path fill="none" stroke="#aabbaa" stroke-width="1.3" stroke-dasharray="5,2" stroke-opacity="0.533333" d="M975.99,-212.28C986.08,-245.97 1009.67,-318.51 1030,-334 1051.4,-350.3 1064.85,-332.44 1090,-342 1091.59,-342.6 1093.17,-343.29 1094.74,-344.03"/>
<polygon fill="#aabbaa" fill-opacity="0.533333" stroke="#aabbaa" stroke-width="1.3" stroke-opacity="0.533333" points="1092.66,-346.88 1103.1,-348.68 1096.07,-340.76 1092.66,-346.88"/>
</g>
<!-- /lib/models/app_model.dart&#45;&gt;/lib/models/canvas_resize.dart -->
<g id="edge52" class="edge">
<title>/lib/models/app_model.dart&#45;&gt;/lib/models/canvas_resize.dart</title>
<path fill="none" stroke="#aabbaa" stroke-width="1.3" stroke-opacity="0.533333" d="M971,-175.7C971,-168.49 971,-159.93 971,-151.82"/>
<polygon fill="#aabbaa" fill-opacity="0.533333" stroke="#aabbaa" stroke-width="1.3" stroke-opacity="0.533333" points="974.5,-152.07 971,-142.07 967.5,-152.07 974.5,-152.07"/>
</g>
<!-- /lib/models/app_model.dart&#45;&gt;/lib/models/canvas_model.dart -->
<g id="edge51" class="edge">
<title>/lib/models/app_model.dart&#45;&gt;/lib/models/canvas_model.dart</title>
<path fill="none" stroke="#aabbaa" stroke-width="1.3" stroke-opacity="0.533333" d="M1003.47,-175.52C1020.11,-166.55 1040.59,-155.53 1058.48,-145.9"/>
<polygon fill="#aabbaa" fill-opacity="0.533333" stroke="#aabbaa" stroke-width="1.3" stroke-opacity="0.533333" points="1060.07,-149.02 1067.21,-141.19 1056.75,-142.85 1060.07,-149.02"/>
</g>
<!-- /lib/models/app_model.dart&#45;&gt;/lib/helpers/color_helper.dart -->
<g id="edge50" class="edge">
<title>/lib/models/app_model.dart&#45;&gt;/lib/helpers/color_helper.dart</title>
<path fill="none" stroke="#aabbaa" stroke-width="1.3" stroke-opacity="0.533333" d="M1016.16,-176.91C1025.63,-173.77 1035.6,-170.64 1045,-168 1099.39,-152.72 1113.91,-152.55 1169,-140 1173.23,-139.04 1177.6,-138.04 1182,-137.03"/>
<polygon fill="#aabbaa" fill-opacity="0.533333" stroke="#aabbaa" stroke-width="1.3" stroke-opacity="0.533333" points="1182.76,-140.45 1191.73,-134.8 1181.2,-133.62 1182.76,-140.45"/>
</g>
<!-- /lib/models/layer.dart&#45;&gt;/lib/models/user_action.dart -->
<g id="edge57" class="edge">
<title>/lib/models/layer.dart&#45;&gt;/lib/models/user_action.dart</title>
<path fill="none" stroke="#aabbaa" stroke-width="1.3" stroke-dasharray="5,2" stroke-opacity="0.533333" d="M1085.66,-266.84C1088.25,-254.73 1091.78,-238.21 1094.8,-224.06"/>
<polygon fill="#aabbaa" fill-opacity="0.533333" stroke="#aabbaa" stroke-width="1.3" stroke-opacity="0.533333" points="1098.21,-224.85 1096.87,-214.34 1091.36,-223.38 1098.21,-224.85"/>
</g>
<!-- /lib/models/layer.dart&#45;&gt;/lib/models/app_model.dart -->
<g id="edge56" class="edge">
<title>/lib/models/layer.dart&#45;&gt;/lib/models/app_model.dart</title>
<path fill="none" stroke="#aabbaa" stroke-width="1.3" stroke-opacity="0.533333" d="M1060.33,-266.63C1043.68,-253.27 1020.45,-234.65 1001.85,-219.74"/>
<polygon fill="#aabbaa" fill-opacity="0.533333" stroke="#aabbaa" stroke-width="1.3" stroke-opacity="0.533333" points="1004.14,-217.08 994.15,-213.56 999.76,-222.54 1004.14,-217.08"/>
</g>
<!-- /lib/helpers/image_helper.dart -->
<g id="node37" class="node">
<title>/lib/helpers/image_helper.dart</title>
<path fill="Lavender" stroke="black" stroke-width="1.3" d="M1280,-212C1280,-212 1198,-212 1198,-212 1192,-212 1186,-206 1186,-200 1186,-200 1186,-188 1186,-188 1186,-182 1192,-176 1198,-176 1198,-176 1280,-176 1280,-176 1286,-176 1292,-182 1292,-188 1292,-188 1292,-200 1292,-200 1292,-206 1286,-212 1280,-212"/>
<text text-anchor="middle" x="1239" y="-188.75" font-family="Arial" font-size="15.00">image_helper</text>
</g>
<!-- /lib/models/layer.dart&#45;&gt;/lib/helpers/image_helper.dart -->
<g id="edge55" class="edge">
<title>/lib/models/layer.dart&#45;&gt;/lib/helpers/image_helper.dart</title>
<path fill="none" stroke="#aabbaa" stroke-width="1.3" stroke-opacity="0.533333" d="M1109.46,-273.13C1127.65,-265.54 1151.79,-254.7 1172,-243 1184.04,-236.03 1196.6,-227.43 1207.55,-219.45"/>
<polygon fill="#aabbaa" fill-opacity="0.533333" stroke="#aabbaa" stroke-width="1.3" stroke-opacity="0.533333" points="1209.58,-222.3 1215.51,-213.52 1205.4,-216.68 1209.58,-222.3"/>
</g>
<!-- /lib/models/layer.dart&#45;&gt;/lib/helpers/color_helper.dart -->
<g id="edge54" class="edge">
<title>/lib/models/layer.dart&#45;&gt;/lib/helpers/color_helper.dart</title>
<path fill="none" stroke="#aabbaa" stroke-width="1.3" stroke-opacity="0.533333" d="M1109.23,-275.31C1125.34,-268.83 1144.9,-258.41 1157,-243 1178.3,-215.86 1157.05,-196.15 1177,-168 1182.64,-160.04 1190.17,-153.05 1198.12,-147.11"/>
<polygon fill="#aabbaa" fill-opacity="0.533333" stroke="#aabbaa" stroke-width="1.3" stroke-opacity="0.533333" points="1200.05,-150.03 1206.31,-141.49 1196.09,-144.26 1200.05,-150.03"/>
</g>
<!-- /lib/main.dart&#45;&gt;/lib/models/app_model.dart -->
<g id="edge59" class="edge">
<title>/lib/main.dart&#45;&gt;/lib/models/app_model.dart</title>
<path fill="none" stroke="#aabbaa" stroke-width="1.3" stroke-opacity="0.533333" d="M453.53,-657.78C386.4,-641.36 211.7,-591.17 104,-492 75.9,-466.12 71.65,-453.97 62,-417 43.37,-345.61 11.46,-304.75 62,-251 91.28,-219.87 719.65,-201.37 914.14,-196.38"/>
<polygon fill="#aabbaa" fill-opacity="0.533333" stroke="#aabbaa" stroke-width="1.3" stroke-opacity="0.533333" points="914.17,-199.88 924.08,-196.13 913.99,-192.88 914.17,-199.88"/>
</g>
<!-- /lib/main_screen.dart -->
<g id="node36" class="node">
<title>/lib/main_screen.dart</title>
<path fill="Lavender" stroke="black" stroke-width="1.3" d="M1194.75,-611C1194.75,-611 1117.25,-611 1117.25,-611 1111.25,-611 1105.25,-605 1105.25,-599 1105.25,-599 1105.25,-587 1105.25,-587 1105.25,-581 1111.25,-575 1117.25,-575 1117.25,-575 1194.75,-575 1194.75,-575 1200.75,-575 1206.75,-581 1206.75,-587 1206.75,-587 1206.75,-599 1206.75,-599 1206.75,-605 1200.75,-611 1194.75,-611"/>
<text text-anchor="middle" x="1156" y="-587.75" font-family="Arial" font-size="15.00">main_screen</text>
</g>
<!-- /lib/main.dart&#45;&gt;/lib/main_screen.dart -->
<g id="edge58" class="edge">
<title>/lib/main.dart&#45;&gt;/lib/main_screen.dart</title>
<path fill="none" stroke="#aabbaa" stroke-width="1.3" stroke-opacity="0.533333" d="M508.3,-661.17C607.62,-650.87 951.35,-615.22 1093.61,-600.47"/>
<polygon fill="#aabbaa" fill-opacity="0.533333" stroke="#aabbaa" stroke-width="1.3" stroke-opacity="0.533333" points="1093.58,-603.99 1103.16,-599.48 1092.85,-597.03 1093.58,-603.99"/>
</g>
<!-- /lib/files/xcf_reader.dart&#45;&gt;/lib/helpers/list_helper.dart -->
<g id="edge60" class="edge">
<title>/lib/files/xcf_reader.dart&#45;&gt;/lib/helpers/list_helper.dart</title>
<path fill="none" stroke="#aabbaa" stroke-width="1.3" stroke-opacity="0.533333" d="M297.35,-349.67C338.77,-326.25 415.58,-283.67 483,-251 638.66,-175.57 672.95,-140.89 840,-96 956.56,-64.68 1098.58,-55.16 1174.33,-52.26"/>
<polygon fill="#aabbaa" fill-opacity="0.533333" stroke="#aabbaa" stroke-width="1.3" stroke-opacity="0.533333" points="1174.07,-55.77 1183.94,-51.92 1173.82,-48.78 1174.07,-55.77"/>
</g>
<!-- /lib/files/file_jpeg.dart -->
<g id="node30" class="node">
<title>/lib/files/file_jpeg.dart</title>
<path fill="Lavender" stroke="black" stroke-width="1.3" d="M550.38,-303C550.38,-303 503.62,-303 503.62,-303 497.62,-303 491.62,-297 491.62,-291 491.62,-291 491.62,-279 491.62,-279 491.62,-273 497.62,-267 503.62,-267 503.62,-267 550.38,-267 550.38,-267 556.38,-267 562.38,-273 562.38,-279 562.38,-279 562.38,-291 562.38,-291 562.38,-297 556.38,-303 550.38,-303"/>
<text text-anchor="middle" x="527" y="-279.75" font-family="Arial" font-size="15.00">file_jpeg</text>
</g>
<!-- /lib/files/export_download_web.dart -->
<g id="node31" class="node">
<title>/lib/files/export_download_web.dart</title>
<path fill="Lavender" stroke="black" stroke-width="1.3" d="M696.25,-386C696.25,-386 555.75,-386 555.75,-386 549.75,-386 543.75,-380 543.75,-374 543.75,-374 543.75,-362 543.75,-362 543.75,-356 549.75,-350 555.75,-350 555.75,-350 696.25,-350 696.25,-350 702.25,-350 708.25,-356 708.25,-362 708.25,-362 708.25,-374 708.25,-374 708.25,-380 702.25,-386 696.25,-386"/>
<text text-anchor="middle" x="626" y="-362.75" font-family="Arial" font-size="15.00">export_download_web</text>
</g>
<!-- /lib/files/export_download_web.dart&#45;&gt;/lib/panels/share_panel.dart -->
<g id="edge64" class="edge">
<title>/lib/files/export_download_web.dart&#45;&gt;/lib/panels/share_panel.dart</title>
<path fill="none" stroke="#aabbaa" stroke-width="1.3" stroke-opacity="0.533333" d="M651.47,-386.43C671.03,-399.27 699.3,-415.12 727,-421 747.35,-425.32 1455.65,-425.32 1476,-421 1492.53,-417.49 1507.33,-406.1 1518.53,-394.77"/>
<polygon fill="#aabbaa" fill-opacity="0.533333" stroke="#aabbaa" stroke-width="1.3" stroke-opacity="0.533333" points="1520.84,-397.43 1525.02,-387.7 1515.68,-392.69 1520.84,-397.43"/>
</g>
<!-- /lib/files/export_download_web.dart&#45;&gt;/lib/models/app_model.dart -->
<g id="edge63" class="edge">
<title>/lib/files/export_download_web.dart&#45;&gt;/lib/models/app_model.dart</title>
<path fill="none" stroke="#aabbaa" stroke-width="1.3" stroke-opacity="0.533333" d="M683.03,-349.62C694.52,-346.65 706.57,-343.92 718,-342 731.07,-339.81 826.68,-342.31 837,-334 866.9,-309.91 836.54,-280.6 861,-251 874.99,-234.08 895.4,-221.73 914.85,-213"/>
<polygon fill="#aabbaa" fill-opacity="0.533333" stroke="#aabbaa" stroke-width="1.3" stroke-opacity="0.533333" points="916.14,-216.26 924.01,-209.16 913.44,-209.8 916.14,-216.26"/>
</g>
<!-- /lib/files/export_download_web.dart&#45;&gt;/lib/files/file_jpeg.dart -->
<g id="edge61" class="edge">
<title>/lib/files/export_download_web.dart&#45;&gt;/lib/files/file_jpeg.dart</title>
<path fill="none" stroke="#aabbaa" stroke-width="1.3" stroke-opacity="0.533333" d="M605,-349.82C591.19,-338.52 572.87,-323.53 557.46,-310.92"/>
<polygon fill="#aabbaa" fill-opacity="0.533333" stroke="#aabbaa" stroke-width="1.3" stroke-opacity="0.533333" points="559.79,-308.3 549.83,-304.68 555.35,-313.72 559.79,-308.3"/>
</g>
<!-- /lib/files/file_ora.dart -->
<g id="node32" class="node">
<title>/lib/files/file_ora.dart</title>
<path fill="Lavender" stroke="black" stroke-width="1.3" d="M793.38,-303C793.38,-303 752.62,-303 752.62,-303 746.62,-303 740.62,-297 740.62,-291 740.62,-291 740.62,-279 740.62,-279 740.62,-273 746.62,-267 752.62,-267 752.62,-267 793.38,-267 793.38,-267 799.38,-267 805.38,-273 805.38,-279 805.38,-279 805.38,-291 805.38,-291 805.38,-297 799.38,-303 793.38,-303"/>
<text text-anchor="middle" x="773" y="-279.75" font-family="Arial" font-size="15.00">file_ora</text>
</g>
<!-- /lib/files/export_download_web.dart&#45;&gt;/lib/files/file_ora.dart -->
<g id="edge62" class="edge">
<title>/lib/files/export_download_web.dart&#45;&gt;/lib/files/file_ora.dart</title>
<path fill="none" stroke="#aabbaa" stroke-width="1.3" stroke-opacity="0.533333" d="M657.54,-349.62C678.97,-337.81 707.57,-322.05 730.94,-309.18"/>
<polygon fill="#aabbaa" fill-opacity="0.533333" stroke="#aabbaa" stroke-width="1.3" stroke-opacity="0.533333" points="732.47,-312.33 739.54,-304.44 729.09,-306.2 732.47,-312.33"/>
</g>
<!-- /lib/files/file_ora.dart&#45;&gt;/lib/models/app_model.dart -->
<g id="edge66" class="edge">
<title>/lib/files/file_ora.dart&#45;&gt;/lib/models/app_model.dart</title>
<path fill="none" stroke="#aabbaa" stroke-width="1.3" stroke-opacity="0.533333" d="M799.39,-266.59C808.01,-261.25 817.74,-255.58 827,-251 855.19,-237.05 887.76,-224.13 914.79,-214.22"/>
<polygon fill="#aabbaa" fill-opacity="0.533333" stroke="#aabbaa" stroke-width="1.3" stroke-opacity="0.533333" points="915.94,-217.53 924.16,-210.84 913.56,-210.94 915.94,-217.53"/>
</g>
<!-- /lib/files/file_ora.dart&#45;&gt;/lib/helpers/list_helper.dart -->
<g id="edge65" class="edge">
<title>/lib/files/file_ora.dart&#45;&gt;/lib/helpers/list_helper.dart</title>
<path fill="none" stroke="#aabbaa" stroke-width="1.3" stroke-opacity="0.533333" d="M778.26,-266.65C790.8,-228.53 826.34,-137.58 891,-96 936.72,-66.6 1091.11,-56.21 1174.12,-52.69"/>
<polygon fill="#aabbaa" fill-opacity="0.533333" stroke="#aabbaa" stroke-width="1.3" stroke-opacity="0.533333" points="1174.01,-56.2 1183.86,-52.3 1173.73,-49.21 1174.01,-56.2"/>
</g>
<!-- /lib/files/save.dart&#45;&gt;/lib/models/app_model.dart -->
<g id="edge67" class="edge">
<title>/lib/files/save.dart&#45;&gt;/lib/models/app_model.dart</title>
<path fill="none" stroke="#aabbaa" stroke-width="1.3" stroke-opacity="0.533333" d="M874.57,-349.8C877.47,-344.79 880.49,-339.25 883,-334 900.03,-298.32 893.44,-284.14 915,-251 922.16,-239.99 931.77,-229.41 941,-220.46"/>
<polygon fill="#aabbaa" fill-opacity="0.533333" stroke="#aabbaa" stroke-width="1.3" stroke-opacity="0.533333" points="943.27,-223.13 948.21,-213.76 938.5,-218.01 943.27,-223.13"/>
</g>
<!-- /lib/files/export_download_non_web.dart -->
<g id="node34" class="node">
<title>/lib/files/export_download_non_web.dart</title>
<path fill="Lavender" stroke="black" stroke-width="1.3" d="M513.75,-386C513.75,-386 340.25,-386 340.25,-386 334.25,-386 328.25,-380 328.25,-374 328.25,-374 328.25,-362 328.25,-362 328.25,-356 334.25,-350 340.25,-350 340.25,-350 513.75,-350 513.75,-350 519.75,-350 525.75,-356 525.75,-362 525.75,-362 525.75,-374 525.75,-374 525.75,-380 519.75,-386 513.75,-386"/>
<text text-anchor="middle" x="427" y="-362.75" font-family="Arial" font-size="15.00">export_download_non_web</text>
</g>
<!-- /lib/files/export_download_non_web.dart&#45;&gt;/lib/panels/share_panel.dart -->
<g id="edge71" class="edge">
<title>/lib/files/export_download_non_web.dart&#45;&gt;/lib/panels/share_panel.dart</title>
<path fill="none" stroke="#aabbaa" stroke-width="1.3" stroke-opacity="0.533333" d="M457.51,-386.26C480.41,-398.84 513.02,-414.43 544,-421 556.66,-423.69 1463.34,-423.69 1476,-421 1492.53,-417.49 1507.33,-406.1 1518.53,-394.77"/>
<polygon fill="#aabbaa" fill-opacity="0.533333" stroke="#aabbaa" stroke-width="1.3" stroke-opacity="0.533333" points="1520.84,-397.43 1525.02,-387.7 1515.68,-392.69 1520.84,-397.43"/>
</g>
<!-- /lib/files/export_download_non_web.dart&#45;&gt;/lib/models/app_model.dart -->
<g id="edge70" class="edge">
<title>/lib/files/export_download_non_web.dart&#45;&gt;/lib/models/app_model.dart</title>
<path fill="none" stroke="#aabbaa" stroke-width="1.3" stroke-opacity="0.533333" d="M492.88,-349.56C506.7,-346.52 521.26,-343.77 535,-342 550.38,-340.02 801.79,-343.56 814,-334 844.13,-310.39 811.68,-279.71 837,-251 856.99,-228.33 887.64,-214.61 914.59,-206.43"/>
<polygon fill="#aabbaa" fill-opacity="0.533333" stroke="#aabbaa" stroke-width="1.3" stroke-opacity="0.533333" points="915.29,-209.87 923.97,-203.79 913.4,-203.13 915.29,-209.87"/>
</g>
<!-- /lib/files/export_download_non_web.dart&#45;&gt;/lib/files/file_jpeg.dart -->
<g id="edge68" class="edge">
<title>/lib/files/export_download_non_web.dart&#45;&gt;/lib/files/file_jpeg.dart</title>
<path fill="none" stroke="#aabbaa" stroke-width="1.3" stroke-opacity="0.533333" d="M448.21,-349.82C462.17,-338.52 480.67,-323.53 496.23,-310.92"/>
<polygon fill="#aabbaa" fill-opacity="0.533333" stroke="#aabbaa" stroke-width="1.3" stroke-opacity="0.533333" points="498.38,-313.68 503.95,-304.67 493.98,-308.25 498.38,-313.68"/>
</g>
<!-- /lib/files/export_download_non_web.dart&#45;&gt;/lib/files/file_ora.dart -->
<g id="edge69" class="edge">
<title>/lib/files/export_download_non_web.dart&#45;&gt;/lib/files/file_ora.dart</title>
<path fill="none" stroke="#aabbaa" stroke-width="1.3" stroke-opacity="0.533333" d="M501.93,-349.57C513.01,-347.01 524.3,-344.43 535,-342 550.98,-338.37 555.03,-337.67 571,-334 625.35,-321.5 687.8,-306.58 728.69,-296.73"/>
<polygon fill="#aabbaa" fill-opacity="0.533333" stroke="#aabbaa" stroke-width="1.3" stroke-opacity="0.533333" points="729.33,-300.17 738.23,-294.42 727.69,-293.37 729.33,-300.17"/>
</g>
<!-- /lib/files/import_files.dart&#45;&gt;/lib/models/app_model.dart -->
<g id="edge73" class="edge">
<title>/lib/files/import_files.dart&#45;&gt;/lib/models/app_model.dart</title>
<path fill="none" stroke="#aabbaa" stroke-width="1.3" stroke-opacity="0.533333" d="M808.7,-349.6C815.04,-346.85 821.65,-344.19 828,-342 842.27,-337.08 850.22,-344.56 861,-334 888.27,-307.3 860.47,-281.8 883,-251 892.72,-237.71 906.64,-226.8 920.55,-218.25"/>
<polygon fill="#aabbaa" fill-opacity="0.533333" stroke="#aabbaa" stroke-width="1.3" stroke-opacity="0.533333" points="921.99,-221.45 928.91,-213.42 918.5,-215.39 921.99,-221.45"/>
</g>
<!-- /lib/files/import_files.dart&#45;&gt;/lib/files/file_ora.dart -->
<g id="edge72" class="edge">
<title>/lib/files/import_files.dart&#45;&gt;/lib/files/file_ora.dart</title>
<path fill="none" stroke="#aabbaa" stroke-width="1.3" stroke-opacity="0.533333" d="M773,-349.82C773,-339.8 773,-326.88 773,-315.29"/>
<polygon fill="#aabbaa" fill-opacity="0.533333" stroke="#aabbaa" stroke-width="1.3" stroke-opacity="0.533333" points="776.5,-315.4 773,-305.4 769.5,-315.4 776.5,-315.4"/>
</g>
<!-- /lib/main_screen.dart&#45;&gt;/lib/panels/tools/flood_fill.dart -->
<g id="edge76" class="edge">
<title>/lib/main_screen.dart&#45;&gt;/lib/panels/tools/flood_fill.dart</title>
<path fill="none" stroke="#aabbaa" stroke-width="1.3" stroke-opacity="0.533333" d="M1207.14,-592.39C1266.42,-591.85 1359.51,-587.58 1387,-567 1416.82,-544.67 1429.31,-501.71 1434.47,-472.95"/>
<polygon fill="#aabbaa" fill-opacity="0.533333" stroke="#aabbaa" stroke-width="1.3" stroke-opacity="0.533333" points="1437.91,-473.59 1436,-463.16 1430.99,-472.5 1437.91,-473.59"/>
</g>
<!-- /lib/main_screen.dart&#45;&gt;/lib/panels/canvas_panel.dart -->
<g id="edge74" class="edge">
<title>/lib/main_screen.dart&#45;&gt;/lib/panels/canvas_panel.dart</title>
<path fill="none" stroke="#aabbaa" stroke-width="1.3" stroke-opacity="0.533333" d="M1157.16,-574.72C1160.95,-519.53 1173.14,-350.62 1181,-342 1210.3,-309.88 1328.32,-295.72 1404.18,-289.83"/>
<polygon fill="#aabbaa" fill-opacity="0.533333" stroke="#aabbaa" stroke-width="1.3" stroke-opacity="0.533333" points="1404.3,-293.33 1414.01,-289.1 1403.78,-286.35 1404.3,-293.33"/>
</g>
<!-- /lib/main_screen.dart&#45;&gt;/lib/panels/side_panel.dart -->
<g id="edge75" class="edge">
<title>/lib/main_screen.dart&#45;&gt;/lib/panels/side_panel.dart</title>
<path fill="none" stroke="#aabbaa" stroke-width="1.3" stroke-opacity="0.533333" d="M1207.1,-580.08C1217.07,-576.65 1227.16,-572.35 1236,-567 1245.67,-561.15 1254.83,-552.94 1262.51,-544.97"/>
<polygon fill="#aabbaa" fill-opacity="0.533333" stroke="#aabbaa" stroke-width="1.3" stroke-opacity="0.533333" points="1265.02,-547.41 1269.17,-537.66 1259.85,-542.7 1265.02,-547.41"/>
</g>
<!-- /lib/main_screen.dart&#45;&gt;/lib/models/app_model.dart -->
<g id="edge77" class="edge">
<title>/lib/main_screen.dart&#45;&gt;/lib/models/app_model.dart</title>
<path fill="none" stroke="#aabbaa" stroke-width="1.3" stroke-opacity="0.533333" d="M1104.84,-584.56C893.77,-553.77 100.94,-436.92 84,-417 60.11,-388.89 58.75,-277.89 84,-251 112.48,-220.66 722.95,-201.69 914.22,-196.47"/>
<polygon fill="#aabbaa" fill-opacity="0.533333" stroke="#aabbaa" stroke-width="1.3" stroke-opacity="0.533333" points="914.07,-199.97 923.97,-196.2 913.88,-192.98 914.07,-199.97"/>
</g>
<!-- /lib/helpers/image_helper.dart&#45;&gt;/lib/helpers/color_helper.dart -->
<g id="edge78" class="edge">
<title>/lib/helpers/image_helper.dart&#45;&gt;/lib/helpers/color_helper.dart</title>
<path fill="none" stroke="#aabbaa" stroke-width="1.3" stroke-opacity="0.533333" d="M1239.99,-175.7C1240.4,-168.49 1240.89,-159.93 1241.35,-151.82"/>
<polygon fill="#aabbaa" fill-opacity="0.533333" stroke="#aabbaa" stroke-width="1.3" stroke-opacity="0.533333" points="1244.83,-152.25 1241.91,-142.07 1237.85,-151.85 1244.83,-152.25"/>
</g>
<!-- /lib/helpers/color_helper.dart&#45;&gt;/lib/helpers/list_helper.dart -->
<g id="edge79" class="edge">
<title>/lib/helpers/color_helper.dart&#45;&gt;/lib/helpers/list_helper.dart</title>
<path fill="none" stroke="#aabbaa" stroke-width="1.3" stroke-opacity="0.533333" d="M1239.29,-103.7C1237.73,-96.41 1235.87,-87.73 1234.11,-79.54"/>
<polygon fill="#aabbaa" fill-opacity="0.533333" stroke="#aabbaa" stroke-width="1.3" stroke-opacity="0.533333" points="1237.6,-79.07 1232.08,-70.03 1230.75,-80.54 1237.6,-79.07"/>
</g>
<!-- /lib/widgets/color_preview.dart&#45;&gt;/lib/helpers/color_helper.dart -->
<g id="edge80" class="edge">
<title>/lib/widgets/color_preview.dart&#45;&gt;/lib/helpers/color_helper.dart</title>
<path fill="none" stroke="#aabbaa" stroke-width="1.3" stroke-opacity="0.533333" d="M2289.99,-175.57C2281.89,-172.53 2273.28,-169.77 2265,-168 2080,-128.4 1495.05,-123.54 1304.01,-123.03"/>
<polygon fill="#aabbaa" fill-opacity="0.533333" stroke="#aabbaa" stroke-width="1.3" stroke-opacity="0.533333" points="1304.25,-119.53 1294.24,-123.01 1304.23,-126.53 1304.25,-119.53"/>
</g>
<!-- /lib/widgets/top_colors.dart&#45;&gt;/lib/models/app_model.dart -->
<g id="edge82" class="edge">
<title>/lib/widgets/top_colors.dart&#45;&gt;/lib/models/app_model.dart</title>
<path fill="none" stroke="#aabbaa" stroke-width="1.3" stroke-opacity="0.533333" d="M3109.03,-266.57C3100.3,-260.39 3089.71,-254.19 3079,-251 3024.84,-234.89 1099.15,-259.14 1045,-243 1028.86,-238.19 1012.93,-228.65 1000.01,-219.34"/>
<polygon fill="#aabbaa" fill-opacity="0.533333" stroke="#aabbaa" stroke-width="1.3" stroke-opacity="0.533333" points="1002.42,-216.77 992.33,-213.53 998.2,-222.36 1002.42,-216.77"/>
</g>
<!-- /lib/widgets/top_colors.dart&#45;&gt;/lib/helpers/color_helper.dart -->
<g id="edge81" class="edge">
<title>/lib/widgets/top_colors.dart&#45;&gt;/lib/helpers/color_helper.dart</title>
<path fill="none" stroke="#aabbaa" stroke-width="1.3" stroke-opacity="0.533333" d="M3108.11,-266.56C3099.51,-260.62 3089.26,-254.58 3079,-251 3044.43,-238.93 3033.4,-247.03 2997,-243 2727.26,-213.15 2661.49,-190 2391,-168 1976.51,-134.29 1475.69,-125.64 1304.1,-123.59"/>
<polygon fill="#aabbaa" fill-opacity="0.533333" stroke="#aabbaa" stroke-width="1.3" stroke-opacity="0.533333" points="1304.33,-120.09 1294.29,-123.48 1304.25,-127.09 1304.33,-120.09"/>
</g>
<!-- /lib/widgets/top_colors.dart&#45;&gt;/lib/widgets/transparent_background.dart -->
<g id="edge84" class="edge">
<title>/lib/widgets/top_colors.dart&#45;&gt;/lib/widgets/transparent_background.dart</title>
<path fill="none" stroke="#aabbaa" stroke-width="1.3" stroke-opacity="0.533333" d="M3109.02,-266.6C3100.29,-260.43 3089.71,-254.22 3079,-251 3035.69,-237.98 2309.01,-253.43 2265,-243 2243.73,-237.96 2221.73,-227.72 2203.98,-217.98"/>
<polygon fill="#aabbaa" fill-opacity="0.533333" stroke="#aabbaa" stroke-width="1.3" stroke-opacity="0.533333" points="2206.19,-215.21 2195.77,-213.32 2202.74,-221.3 2206.19,-215.21"/>
</g>
<!-- /lib/widgets/top_colors.dart&#45;&gt;/lib/widgets/color_preview.dart -->
<g id="edge83" class="edge">
<title>/lib/widgets/top_colors.dart&#45;&gt;/lib/widgets/color_preview.dart</title>
<path fill="none" stroke="#aabbaa" stroke-width="1.3" stroke-opacity="0.533333" d="M3108.99,-266.69C3100.26,-260.53 3089.68,-254.3 3079,-251 3045.12,-240.53 2795.37,-245.4 2760,-243 2629.8,-234.15 2478.38,-215.35 2393.81,-204.09"/>
<polygon fill="#aabbaa" fill-opacity="0.533333" stroke="#aabbaa" stroke-width="1.3" stroke-opacity="0.533333" points="2394.41,-200.64 2384.03,-202.78 2393.48,-207.57 2394.41,-200.64"/>
</g>
<!-- /lib/widgets/brush_style_picker.dart&#45;&gt;/lib/models/app_model.dart -->
<g id="edge85" class="edge">
<title>/lib/widgets/brush_style_picker.dart&#45;&gt;/lib/models/app_model.dart</title>
<path fill="none" stroke="#aabbaa" stroke-width="1.3" stroke-opacity="0.533333" d="M2081.9,-266.56C2055.4,-260.38 2024.45,-254.17 1996,-251 1943.49,-245.14 1095.6,-258.21 1045,-243 1028.87,-238.15 1012.95,-228.61 1000.02,-219.31"/>
<polygon fill="#aabbaa" fill-opacity="0.533333" stroke="#aabbaa" stroke-width="1.3" stroke-opacity="0.533333" points="1002.43,-216.74 992.34,-213.5 998.21,-222.32 1002.43,-216.74"/>
</g>
<!-- /lib/widgets/color_picker.dart&#45;&gt;/lib/helpers/list_helper.dart -->
<g id="edge87" class="edge">
<title>/lib/widgets/color_picker.dart&#45;&gt;/lib/helpers/list_helper.dart</title>
<path fill="none" stroke="#aabbaa" stroke-width="1.3" stroke-opacity="0.533333" d="M3211.81,-266.62C3202.58,-261.16 3192.05,-255.42 3182,-251 3069.02,-201.33 3038.28,-190.87 2917,-168 2591.96,-106.72 1532.99,-62.76 1281.79,-53.03"/>
<polygon fill="#aabbaa" fill-opacity="0.533333" stroke="#aabbaa" stroke-width="1.3" stroke-opacity="0.533333" points="1282.2,-49.54 1272.07,-52.65 1281.93,-56.54 1282.2,-49.54"/>
</g>
<!-- /lib/widgets/color_picker.dart&#45;&gt;/lib/helpers/color_helper.dart -->
<g id="edge86" class="edge">
<title>/lib/widgets/color_picker.dart&#45;&gt;/lib/helpers/color_helper.dart</title>
<path fill="none" stroke="#aabbaa" stroke-width="1.3" stroke-opacity="0.533333" d="M3213.91,-266.67C3204.31,-260.81 3193.03,-254.8 3182,-251 3157.82,-242.66 3150.27,-247 3125,-243 2935.11,-212.97 2890.23,-187.69 2699,-168 2422.06,-139.49 1544.51,-126.73 1304.3,-123.72"/>
<polygon fill="#aabbaa" fill-opacity="0.533333" stroke="#aabbaa" stroke-width="1.3" stroke-opacity="0.533333" points="1304.37,-120.22 1294.32,-123.6 1304.28,-127.22 1304.37,-120.22"/>
</g>
<!-- /lib/widgets/color_picker.dart&#45;&gt;/lib/widgets/transparent_background.dart -->
<g id="edge88" class="edge">
<title>/lib/widgets/color_picker.dart&#45;&gt;/lib/widgets/transparent_background.dart</title>
<path fill="none" stroke="#aabbaa" stroke-width="1.3" stroke-opacity="0.533333" d="M3215.27,-266.58C3205.47,-260.4 3193.69,-254.2 3182,-251 3132.86,-237.57 2314.58,-254.72 2265,-243 2243.73,-237.97 2221.73,-227.73 2203.98,-217.99"/>
<polygon fill="#aabbaa" fill-opacity="0.533333" stroke="#aabbaa" stroke-width="1.3" stroke-opacity="0.533333" points="2206.19,-215.22 2195.76,-213.33 2202.73,-221.31 2206.19,-215.22"/>
</g>
</g>
</svg>
