<?xml version="1.0" encoding="UTF-8" standalone="no"?>
<!DOCTYPE svg PUBLIC "-//W3C//DTD SVG 1.1//EN"
 "http://www.w3.org/Graphics/SVG/1.1/DTD/svg11.dtd">
<!-- Generated by graphviz version 12.2.1 (20241206.2353)
 -->
<!-- Pages: 1 -->
<svg width="1127pt" height="833pt"
 viewBox="0.00 0.00 1127.00 833.00" xmlns="http://www.w3.org/2000/svg" xmlns:xlink="http://www.w3.org/1999/xlink">
<g id="graph0" class="graph" transform="scale(1 1) rotate(0) translate(4 829)">
<polygon fill="white" stroke="none" points="-4,4 -4,-829 1123,-829 1123,4 -4,4"/>
<g id="clust1" class="cluster">
<title>cluster~</title>
<path fill="none" stroke="lightgray" stroke-width="2.6" d="M20,-8C20,-8 1099,-8 1099,-8 1105,-8 1111,-14 1111,-20 1111,-20 1111,-805 1111,-805 1111,-811 1105,-817 1099,-817 1099,-817 20,-817 20,-817 14,-817 8,-811 8,-805 8,-805 8,-20 8,-20 8,-14 14,-8 20,-8"/>
<text text-anchor="middle" x="559.5" y="-800.65" font-family="Arial Black" font-size="13.00">fpaint</text>
</g>
<g id="clust2" class="cluster">
<title>cluster~/test</title>
<path fill="none" stroke="lightgray" stroke-width="2.6" d="M66,-711C66,-711 298,-711 298,-711 304,-711 310,-717 310,-723 310,-723 310,-774 310,-774 310,-780 304,-786 298,-786 298,-786 66,-786 66,-786 60,-786 54,-780 54,-774 54,-774 54,-723 54,-723 54,-717 60,-711 66,-711"/>
<text text-anchor="middle" x="182" y="-769.65" font-family="Arial Black" font-size="13.00">test</text>
</g>
<g id="clust3" class="cluster">
<title>cluster~/lib</title>
<path fill="none" stroke="lightgray" stroke-width="2.6" d="M40,-16C40,-16 1091,-16 1091,-16 1097,-16 1103,-22 1103,-28 1103,-28 1103,-691 1103,-691 1103,-697 1097,-703 1091,-703 1091,-703 40,-703 40,-703 34,-703 28,-697 28,-691 28,-691 28,-28 28,-28 28,-22 34,-16 40,-16"/>
<text text-anchor="middle" x="565.5" y="-686.65" font-family="Arial Black" font-size="13.00">lib</text>
</g>
<g id="clust4" class="cluster">
<title>cluster~/lib/panels</title>
<path fill="none" stroke="lightgray" stroke-width="2.6" d="M131,-262C131,-262 333,-262 333,-262 339,-262 345,-268 345,-274 345,-274 345,-544 345,-544 345,-550 339,-556 333,-556 333,-556 131,-556 131,-556 125,-556 119,-550 119,-544 119,-544 119,-274 119,-274 119,-268 125,-262 131,-262"/>
<text text-anchor="middle" x="232" y="-539.65" font-family="Arial Black" font-size="13.00">panels</text>
</g>
<g id="clust5" class="cluster">
<title>cluster~/lib/models</title>
<path fill="none" stroke="lightgray" stroke-width="2.6" d="M375,-262C375,-262 568,-262 568,-262 574,-262 580,-268 580,-274 580,-274 580,-469 580,-469 580,-475 574,-481 568,-481 568,-481 375,-481 375,-481 369,-481 363,-475 363,-469 363,-469 363,-274 363,-274 363,-268 369,-262 375,-262"/>
<text text-anchor="middle" x="471.5" y="-464.65" font-family="Arial Black" font-size="13.00">models</text>
</g>
<g id="clust6" class="cluster">
<title>cluster~/lib/files</title>
<path fill="none" stroke="lightgray" stroke-width="2.6" d="M600,-334C600,-334 1083,-334 1083,-334 1089,-334 1095,-340 1095,-346 1095,-346 1095,-469 1095,-469 1095,-475 1089,-481 1083,-481 1083,-481 600,-481 600,-481 594,-481 588,-475 588,-469 588,-469 588,-346 588,-346 588,-340 594,-334 600,-334"/>
<text text-anchor="middle" x="841.5" y="-464.65" font-family="Arial Black" font-size="13.00">files</text>
</g>
<g id="clust7" class="cluster">
<title>cluster~/lib/helpers</title>
<path fill="none" stroke="lightgray" stroke-width="2.6" d="M400,-24C400,-24 490,-24 490,-24 496,-24 502,-30 502,-36 502,-36 502,-159 502,-159 502,-165 496,-171 490,-171 490,-171 400,-171 400,-171 394,-171 388,-165 388,-159 388,-159 388,-36 388,-36 388,-30 394,-24 400,-24"/>
<text text-anchor="middle" x="445" y="-154.65" font-family="Arial Black" font-size="13.00">helpers</text>
</g>
<g id="clust8" class="cluster">
<title>cluster~/lib/widgets</title>
<path fill="none" stroke="lightgray" stroke-width="2.6" d="M48,-179C48,-179 774,-179 774,-179 780,-179 786,-185 786,-191 786,-191 786,-242 786,-242 786,-248 780,-254 774,-254 774,-254 48,-254 48,-254 42,-254 36,-248 36,-242 36,-242 36,-191 36,-191 36,-185 42,-179 48,-179"/>
<text text-anchor="middle" x="411" y="-237.65" font-family="Arial Black" font-size="13.00">widgets</text>
</g>
<!-- /test/paint_model_test.dart -->
<g id="node1" class="node">
<title>/test/paint_model_test.dart</title>
<path fill="Lavender" stroke="black" stroke-width="1.3" d="M180,-755C180,-755 74,-755 74,-755 68,-755 62,-749 62,-743 62,-743 62,-731 62,-731 62,-725 68,-719 74,-719 74,-719 180,-719 180,-719 186,-719 192,-725 192,-731 192,-731 192,-743 192,-743 192,-749 186,-755 180,-755"/>
<text text-anchor="middle" x="127" y="-731.75" font-family="Arial" font-size="15.00">paint_model_test</text>
</g>
<!-- /lib/models/app_model.dart -->
<g id="node11" class="node">
<title>/lib/models/app_model.dart</title>
<path fill="Lavender" stroke="black" stroke-width="1.3" d="M448.75,-306C448.75,-306 383.25,-306 383.25,-306 377.25,-306 371.25,-300 371.25,-294 371.25,-294 371.25,-282 371.25,-282 371.25,-276 377.25,-270 383.25,-270 383.25,-270 448.75,-270 448.75,-270 454.75,-270 460.75,-276 460.75,-282 460.75,-282 460.75,-294 460.75,-294 460.75,-300 454.75,-306 448.75,-306"/>
<text text-anchor="middle" x="416" y="-282.75" font-family="Arial" font-size="15.00">app_model</text>
</g>
<!-- /test/paint_model_test.dart&#45;&gt;/lib/models/app_model.dart -->
<g id="edge1" class="edge">
<title>/test/paint_model_test.dart&#45;&gt;/lib/models/app_model.dart</title>
<path fill="none" stroke="#aabbaa" stroke-width="1.3" stroke-opacity="0.533333" d="M61.74,-727.76C47.22,-722.83 33.38,-715.09 24,-703 -8.73,-660.78 17,-636.42 17,-583 17,-583 17,-583 17,-431 17,-369.72 59.81,-360.64 115,-334 209.33,-288.47 246.02,-325.14 349,-306 352.32,-305.38 355.72,-304.7 359.14,-303.96"/>
<polygon fill="#aabbaa" fill-opacity="0.533333" stroke="#aabbaa" stroke-width="1.3" stroke-opacity="0.533333" points="359.87,-307.39 368.85,-301.76 358.32,-300.56 359.87,-307.39"/>
</g>
<!-- /test/widget_test.dart -->
<g id="node2" class="node">
<title>/test/widget_test.dart</title>
<path fill="Lavender" stroke="black" stroke-width="1.3" d="M289.88,-755C289.88,-755 222.12,-755 222.12,-755 216.12,-755 210.12,-749 210.12,-743 210.12,-743 210.12,-731 210.12,-731 210.12,-725 216.12,-719 222.12,-719 222.12,-719 289.88,-719 289.88,-719 295.88,-719 301.88,-725 301.88,-731 301.88,-731 301.88,-743 301.88,-743 301.88,-749 295.88,-755 289.88,-755"/>
<text text-anchor="middle" x="256" y="-731.75" font-family="Arial" font-size="15.00">widget_test</text>
</g>
<!-- /lib/main.dart -->
<g id="node13" class="node">
<title>/lib/main.dart</title>
<path fill="Lavender" stroke="black" stroke-width="1.3" d="M305,-672C305,-672 275,-672 275,-672 269,-672 263,-666 263,-660 263,-660 263,-648 263,-648 263,-642 269,-636 275,-636 275,-636 305,-636 305,-636 311,-636 317,-642 317,-648 317,-648 317,-660 317,-660 317,-666 311,-672 305,-672"/>
<text text-anchor="middle" x="290" y="-648.75" font-family="Arial" font-size="15.00">main</text>
</g>
<!-- /test/widget_test.dart&#45;&gt;/lib/main.dart -->
<g id="edge2" class="edge">
<title>/test/widget_test.dart&#45;&gt;/lib/main.dart</title>
<path fill="none" stroke="#aabbaa" stroke-width="1.3" stroke-opacity="0.533333" d="M263.21,-718.82C267.55,-708.48 273.19,-695.05 278.17,-683.18"/>
<polygon fill="#aabbaa" fill-opacity="0.533333" stroke="#aabbaa" stroke-width="1.3" stroke-opacity="0.533333" points="281.28,-684.82 281.92,-674.25 274.82,-682.11 281.28,-684.82"/>
</g>
<!-- /lib/panels/canvas_panel.dart -->
<g id="node3" class="node">
<title>/lib/panels/canvas_panel.dart</title>
<path fill="Lavender" stroke="black" stroke-width="1.3" d="M322.75,-306C322.75,-306 239.25,-306 239.25,-306 233.25,-306 227.25,-300 227.25,-294 227.25,-294 227.25,-282 227.25,-282 227.25,-276 233.25,-270 239.25,-270 239.25,-270 322.75,-270 322.75,-270 328.75,-270 334.75,-276 334.75,-282 334.75,-282 334.75,-294 334.75,-294 334.75,-300 328.75,-306 322.75,-306"/>
<text text-anchor="middle" x="281" y="-282.75" font-family="Arial" font-size="15.00">canvas_panel</text>
</g>
<!-- /lib/panels/canvas_panel.dart&#45;&gt;/lib/models/app_model.dart -->
<g id="edge3" class="edge">
<title>/lib/panels/canvas_panel.dart&#45;&gt;/lib/models/app_model.dart</title>
<path fill="none" stroke="#aabbaa" stroke-width="1.3" stroke-opacity="0.533333" d="M335.05,-288C343.05,-288 351.06,-288 359.06,-288"/>
<polygon fill="#aabbaa" fill-opacity="0.533333" stroke="#aabbaa" stroke-width="1.3" stroke-opacity="0.533333" points="358.82,-291.5 368.82,-288 358.82,-284.5 358.82,-291.5"/>
</g>
<!-- /lib/widgets/transparent_background.dart -->
<g id="node23" class="node">
<title>/lib/widgets/transparent_background.dart</title>
<path fill="Lavender" stroke="black" stroke-width="1.3" d="M478.38,-223C478.38,-223 323.62,-223 323.62,-223 317.62,-223 311.62,-217 311.62,-211 311.62,-211 311.62,-199 311.62,-199 311.62,-193 317.62,-187 323.62,-187 323.62,-187 478.38,-187 478.38,-187 484.38,-187 490.38,-193 490.38,-199 490.38,-199 490.38,-211 490.38,-211 490.38,-217 484.38,-223 478.38,-223"/>
<text text-anchor="middle" x="401" y="-199.75" font-family="Arial" font-size="15.00">transparent_background</text>
</g>
<!-- /lib/panels/canvas_panel.dart&#45;&gt;/lib/widgets/transparent_background.dart -->
<g id="edge4" class="edge">
<title>/lib/panels/canvas_panel.dart&#45;&gt;/lib/widgets/transparent_background.dart</title>
<path fill="none" stroke="#aabbaa" stroke-width="1.3" stroke-opacity="0.533333" d="M306.74,-269.62C323.91,-258.04 346.69,-242.66 365.56,-229.92"/>
<polygon fill="#aabbaa" fill-opacity="0.533333" stroke="#aabbaa" stroke-width="1.3" stroke-opacity="0.533333" points="367.34,-232.94 373.67,-224.45 363.42,-227.14 367.34,-232.94"/>
</g>
<!-- /lib/panels/side_panel.dart -->
<g id="node4" class="node">
<title>/lib/panels/side_panel.dart</title>
<path fill="Lavender" stroke="black" stroke-width="1.3" d="M321.62,-525C321.62,-525 258.38,-525 258.38,-525 252.38,-525 246.38,-519 246.38,-513 246.38,-513 246.38,-501 246.38,-501 246.38,-495 252.38,-489 258.38,-489 258.38,-489 321.62,-489 321.62,-489 327.62,-489 333.62,-495 333.62,-501 333.62,-501 333.62,-513 333.62,-513 333.62,-519 327.62,-525 321.62,-525"/>
<text text-anchor="middle" x="290" y="-501.75" font-family="Arial" font-size="15.00">side_panel</text>
</g>
<!-- /lib/panels/tools_panel.dart -->
<g id="node7" class="node">
<title>/lib/panels/tools_panel.dart</title>
<path fill="Lavender" stroke="black" stroke-width="1.3" d="M206.88,-450C206.88,-450 139.12,-450 139.12,-450 133.12,-450 127.12,-444 127.12,-438 127.12,-438 127.12,-426 127.12,-426 127.12,-420 133.12,-414 139.12,-414 139.12,-414 206.88,-414 206.88,-414 212.88,-414 218.88,-420 218.88,-426 218.88,-426 218.88,-438 218.88,-438 218.88,-444 212.88,-450 206.88,-450"/>
<text text-anchor="middle" x="173" y="-426.75" font-family="Arial" font-size="15.00">tools_panel</text>
</g>
<!-- /lib/panels/side_panel.dart&#45;&gt;/lib/panels/tools_panel.dart -->
<g id="edge8" class="edge">
<title>/lib/panels/side_panel.dart&#45;&gt;/lib/panels/tools_panel.dart</title>
<path fill="none" stroke="#aabbaa" stroke-width="1.3" stroke-opacity="0.533333" d="M246.07,-490.44C239.84,-487.62 233.64,-484.46 228,-481 217.58,-474.6 207.2,-466.21 198.31,-458.23"/>
<polygon fill="#aabbaa" fill-opacity="0.533333" stroke="#aabbaa" stroke-width="1.3" stroke-opacity="0.533333" points="200.8,-455.77 191.09,-451.52 196.03,-460.89 200.8,-455.77"/>
</g>
<!-- /lib/panels/layers_panel.dart -->
<g id="node8" class="node">
<title>/lib/panels/layers_panel.dart</title>
<path fill="Lavender" stroke="black" stroke-width="1.3" d="M325,-450C325,-450 249,-450 249,-450 243,-450 237,-444 237,-438 237,-438 237,-426 237,-426 237,-420 243,-414 249,-414 249,-414 325,-414 325,-414 331,-414 337,-420 337,-426 337,-426 337,-438 337,-438 337,-444 331,-450 325,-450"/>
<text text-anchor="middle" x="287" y="-426.75" font-family="Arial" font-size="15.00">layers_panel</text>
</g>
<!-- /lib/panels/side_panel.dart&#45;&gt;/lib/panels/layers_panel.dart -->
<g id="edge7" class="edge">
<title>/lib/panels/side_panel.dart&#45;&gt;/lib/panels/layers_panel.dart</title>
<path fill="none" stroke="#aabbaa" stroke-width="1.3" stroke-opacity="0.533333" d="M289.29,-488.7C288.96,-480.76 288.57,-471.12 288.2,-462.11"/>
<polygon fill="#aabbaa" fill-opacity="0.533333" stroke="#aabbaa" stroke-width="1.3" stroke-opacity="0.533333" points="291.7,-462.24 287.8,-452.39 284.71,-462.53 291.7,-462.24"/>
</g>
<!-- /lib/panels/side_panel.dart&#45;&gt;/lib/models/app_model.dart -->
<g id="edge6" class="edge">
<title>/lib/panels/side_panel.dart&#45;&gt;/lib/models/app_model.dart</title>
<path fill="none" stroke="#aabbaa" stroke-width="1.3" stroke-opacity="0.533333" d="M334.1,-490.87C338.51,-488.08 342.6,-484.82 346,-481 391.5,-429.85 365.56,-397.14 392,-334 394.42,-328.23 397.33,-322.21 400.28,-316.53"/>
<polygon fill="#aabbaa" fill-opacity="0.533333" stroke="#aabbaa" stroke-width="1.3" stroke-opacity="0.533333" points="403.27,-318.35 404.94,-307.89 397.11,-315.02 403.27,-318.35"/>
</g>
<!-- /lib/files/import_files.dart -->
<g id="node17" class="node">
<title>/lib/files/import_files.dart</title>
<path fill="Lavender" stroke="black" stroke-width="1.3" d="M1075.25,-450C1075.25,-450 1006.75,-450 1006.75,-450 1000.75,-450 994.75,-444 994.75,-438 994.75,-438 994.75,-426 994.75,-426 994.75,-420 1000.75,-414 1006.75,-414 1006.75,-414 1075.25,-414 1075.25,-414 1081.25,-414 1087.25,-420 1087.25,-426 1087.25,-426 1087.25,-438 1087.25,-438 1087.25,-444 1081.25,-450 1075.25,-450"/>
<text text-anchor="middle" x="1041" y="-426.75" font-family="Arial" font-size="15.00">import_files</text>
</g>
<!-- /lib/panels/side_panel.dart&#45;&gt;/lib/files/import_files.dart -->
<g id="edge5" class="edge">
<title>/lib/panels/side_panel.dart&#45;&gt;/lib/files/import_files.dart</title>
<path fill="none" stroke="#aabbaa" stroke-width="1.3" stroke-opacity="0.533333" d="M334.12,-506.1C477.51,-506.19 924.69,-504.55 985,-481 997.47,-476.13 1009.1,-467.23 1018.49,-458.4"/>
<polygon fill="#aabbaa" fill-opacity="0.533333" stroke="#aabbaa" stroke-width="1.3" stroke-opacity="0.533333" points="1020.8,-461.04 1025.38,-451.49 1015.84,-456.1 1020.8,-461.04"/>
</g>
<!-- /lib/panels/tool_item.dart -->
<g id="node5" class="node">
<title>/lib/panels/tool_item.dart</title>
<path fill="Lavender" stroke="black" stroke-width="1.3" d="M200.38,-378C200.38,-378 147.62,-378 147.62,-378 141.62,-378 135.62,-372 135.62,-366 135.62,-366 135.62,-354 135.62,-354 135.62,-348 141.62,-342 147.62,-342 147.62,-342 200.38,-342 200.38,-342 206.38,-342 212.38,-348 212.38,-354 212.38,-354 212.38,-366 212.38,-366 212.38,-372 206.38,-378 200.38,-378"/>
<text text-anchor="middle" x="174" y="-354.75" font-family="Arial" font-size="15.00">tool_item</text>
</g>
<!-- /lib/panels/share_panel.dart -->
<g id="node6" class="node">
<title>/lib/panels/share_panel.dart</title>
<path fill="Lavender" stroke="black" stroke-width="1.3" d="M315.88,-378C315.88,-378 242.12,-378 242.12,-378 236.12,-378 230.12,-372 230.12,-366 230.12,-366 230.12,-354 230.12,-354 230.12,-348 236.12,-342 242.12,-342 242.12,-342 315.88,-342 315.88,-342 321.88,-342 327.88,-348 327.88,-354 327.88,-354 327.88,-366 327.88,-366 327.88,-372 321.88,-378 315.88,-378"/>
<text text-anchor="middle" x="279" y="-354.75" font-family="Arial" font-size="15.00">share_panel</text>
</g>
<!-- /lib/panels/share_panel.dart&#45;&gt;/lib/panels/canvas_panel.dart -->
<g id="edge10" class="edge">
<title>/lib/panels/share_panel.dart&#45;&gt;/lib/panels/canvas_panel.dart</title>
<path fill="none" stroke="#aabbaa" stroke-width="1.3" stroke-opacity="0.533333" d="M279.49,-341.7C279.7,-334.49 279.94,-325.93 280.18,-317.82"/>
<polygon fill="#aabbaa" fill-opacity="0.533333" stroke="#aabbaa" stroke-width="1.3" stroke-opacity="0.533333" points="283.67,-318.17 280.46,-308.07 276.67,-317.97 283.67,-318.17"/>
</g>
<!-- /lib/panels/share_panel.dart&#45;&gt;/lib/models/app_model.dart -->
<g id="edge9" class="edge">
<title>/lib/panels/share_panel.dart&#45;&gt;/lib/models/app_model.dart</title>
<path fill="none" stroke="#aabbaa" stroke-width="1.3" stroke-opacity="0.533333" d="M313.22,-341.52C330.92,-332.47 352.75,-321.32 371.72,-311.62"/>
<polygon fill="#aabbaa" fill-opacity="0.533333" stroke="#aabbaa" stroke-width="1.3" stroke-opacity="0.533333" points="373.15,-314.82 380.47,-307.16 369.97,-308.59 373.15,-314.82"/>
</g>
<!-- /lib/panels/tools_panel.dart&#45;&gt;/lib/panels/tool_item.dart -->
<g id="edge12" class="edge">
<title>/lib/panels/tools_panel.dart&#45;&gt;/lib/panels/tool_item.dart</title>
<path fill="none" stroke="#aabbaa" stroke-width="1.3" stroke-opacity="0.533333" d="M173.25,-413.7C173.35,-406.49 173.47,-397.93 173.59,-389.82"/>
<polygon fill="#aabbaa" fill-opacity="0.533333" stroke="#aabbaa" stroke-width="1.3" stroke-opacity="0.533333" points="177.08,-390.12 173.73,-380.07 170.08,-390.02 177.08,-390.12"/>
</g>
<!-- /lib/panels/tools_panel.dart&#45;&gt;/lib/models/app_model.dart -->
<g id="edge11" class="edge">
<title>/lib/panels/tools_panel.dart&#45;&gt;/lib/models/app_model.dart</title>
<path fill="none" stroke="#aabbaa" stroke-width="1.3" stroke-opacity="0.533333" d="M219.17,-416.63C266.9,-401.69 334.79,-380.17 337,-378 351.73,-363.51 339.61,-350.53 352,-334 357.85,-326.2 365.45,-319.23 373.37,-313.25"/>
<polygon fill="#aabbaa" fill-opacity="0.533333" stroke="#aabbaa" stroke-width="1.3" stroke-opacity="0.533333" points="375.28,-316.18 381.46,-307.57 371.27,-310.44 375.28,-316.18"/>
</g>
<!-- /lib/widgets/brush_size_picker.dart -->
<g id="node22" class="node">
<title>/lib/widgets/brush_size_picker.dart</title>
<path fill="Lavender" stroke="black" stroke-width="1.3" d="M282,-223C282,-223 170,-223 170,-223 164,-223 158,-217 158,-211 158,-211 158,-199 158,-199 158,-193 164,-187 170,-187 170,-187 282,-187 282,-187 288,-187 294,-193 294,-199 294,-199 294,-211 294,-211 294,-217 288,-223 282,-223"/>
<text text-anchor="middle" x="226" y="-199.75" font-family="Arial" font-size="15.00">brush_size_picker</text>
</g>
<!-- /lib/panels/tools_panel.dart&#45;&gt;/lib/widgets/brush_size_picker.dart -->
<g id="edge13" class="edge">
<title>/lib/panels/tools_panel.dart&#45;&gt;/lib/widgets/brush_size_picker.dart</title>
<path fill="none" stroke="#aabbaa" stroke-width="1.3" stroke-opacity="0.533333" d="M126.87,-418.73C106.3,-410.71 84.04,-397.91 72,-378 45.33,-333.88 37.48,-300.29 72,-262 83.52,-249.22 132.73,-259.58 149,-254 165.03,-248.5 181.18,-239.15 194.53,-230.15"/>
<polygon fill="#aabbaa" fill-opacity="0.533333" stroke="#aabbaa" stroke-width="1.3" stroke-opacity="0.533333" points="196.35,-233.15 202.53,-224.54 192.33,-227.42 196.35,-233.15"/>
</g>
<!-- /lib/panels/tools_panel.dart&#45;&gt;/lib/widgets/transparent_background.dart -->
<g id="edge15" class="edge">
<title>/lib/panels/tools_panel.dart&#45;&gt;/lib/widgets/transparent_background.dart</title>
<path fill="none" stroke="#aabbaa" stroke-width="1.3" stroke-opacity="0.533333" d="M143.64,-413.6C131.46,-404.65 118.63,-392.55 112,-378 90.61,-331.09 76.32,-299.21 112,-262 126.7,-246.67 282.41,-259.23 303,-254 323.83,-248.71 345.45,-238.68 363.06,-229.15"/>
<polygon fill="#aabbaa" fill-opacity="0.533333" stroke="#aabbaa" stroke-width="1.3" stroke-opacity="0.533333" points="364.73,-232.23 371.75,-224.29 361.31,-226.12 364.73,-232.23"/>
</g>
<!-- /lib/widgets/color_picker.dart -->
<g id="node25" class="node">
<title>/lib/widgets/color_picker.dart</title>
<path fill="Lavender" stroke="black" stroke-width="1.3" d="M128.12,-223C128.12,-223 55.88,-223 55.88,-223 49.88,-223 43.88,-217 43.88,-211 43.88,-211 43.88,-199 43.88,-199 43.88,-193 49.88,-187 55.88,-187 55.88,-187 128.12,-187 128.12,-187 134.12,-187 140.12,-193 140.12,-199 140.12,-199 140.12,-211 140.12,-211 140.12,-217 134.12,-223 128.12,-223"/>
<text text-anchor="middle" x="92" y="-199.75" font-family="Arial" font-size="15.00">color_picker</text>
</g>
<!-- /lib/panels/tools_panel.dart&#45;&gt;/lib/widgets/color_picker.dart -->
<g id="edge14" class="edge">
<title>/lib/panels/tools_panel.dart&#45;&gt;/lib/widgets/color_picker.dart</title>
<path fill="none" stroke="#aabbaa" stroke-width="1.3" stroke-opacity="0.533333" d="M126.71,-424.06C98.97,-417.29 65.74,-403.99 48,-378 18.94,-335.41 28.62,-310.55 46,-262 49.97,-250.92 57.17,-240.47 64.72,-231.65"/>
<polygon fill="#aabbaa" fill-opacity="0.533333" stroke="#aabbaa" stroke-width="1.3" stroke-opacity="0.533333" points="67.06,-234.28 71.26,-224.56 61.91,-229.54 67.06,-234.28"/>
</g>
<!-- /lib/panels/layers_panel.dart&#45;&gt;/lib/panels/share_panel.dart -->
<g id="edge17" class="edge">
<title>/lib/panels/layers_panel.dart&#45;&gt;/lib/panels/share_panel.dart</title>
<path fill="none" stroke="#aabbaa" stroke-width="1.3" stroke-opacity="0.533333" d="M285.02,-413.7C284.2,-406.49 283.22,-397.93 282.29,-389.82"/>
<polygon fill="#aabbaa" fill-opacity="0.533333" stroke="#aabbaa" stroke-width="1.3" stroke-opacity="0.533333" points="285.79,-389.6 281.18,-380.06 278.84,-390.39 285.79,-389.6"/>
</g>
<!-- /lib/panels/layers_panel.dart&#45;&gt;/lib/models/app_model.dart -->
<g id="edge16" class="edge">
<title>/lib/panels/layers_panel.dart&#45;&gt;/lib/models/app_model.dart</title>
<path fill="none" stroke="#aabbaa" stroke-width="1.3" stroke-opacity="0.533333" d="M311.6,-413.63C324.41,-403.94 339.89,-391.19 352,-378 368,-360.56 368.2,-353.23 382,-334 386.24,-328.09 390.89,-321.82 395.34,-315.89"/>
<polygon fill="#aabbaa" fill-opacity="0.533333" stroke="#aabbaa" stroke-width="1.3" stroke-opacity="0.533333" points="398.12,-318.03 401.37,-307.94 392.54,-313.8 398.12,-318.03"/>
</g>
<!-- /lib/widgets/truncated_text.dart -->
<g id="node21" class="node">
<title>/lib/widgets/truncated_text.dart</title>
<path fill="Lavender" stroke="black" stroke-width="1.3" d="M608,-223C608,-223 520,-223 520,-223 514,-223 508,-217 508,-211 508,-211 508,-199 508,-199 508,-193 514,-187 520,-187 520,-187 608,-187 608,-187 614,-187 620,-193 620,-199 620,-199 620,-211 620,-211 620,-217 614,-223 608,-223"/>
<text text-anchor="middle" x="564" y="-199.75" font-family="Arial" font-size="15.00">truncated_text</text>
</g>
<!-- /lib/panels/layers_panel.dart&#45;&gt;/lib/widgets/truncated_text.dart -->
<g id="edge18" class="edge">
<title>/lib/panels/layers_panel.dart&#45;&gt;/lib/widgets/truncated_text.dart</title>
<path fill="none" stroke="#aabbaa" stroke-width="1.3" stroke-opacity="0.533333" d="M236.53,-415.84C190.92,-401.9 130.39,-382.7 127,-378 115.55,-362.15 118.48,-351.6 127,-334 149.47,-287.58 169.53,-279.63 218,-262 276.71,-240.64 439.95,-274.38 499,-254 513.05,-249.15 526.61,-240.09 537.67,-231.14"/>
<polygon fill="#aabbaa" fill-opacity="0.533333" stroke="#aabbaa" stroke-width="1.3" stroke-opacity="0.533333" points="539.88,-233.85 545.2,-224.69 535.33,-228.53 539.88,-233.85"/>
</g>
<!-- /lib/models/layers.dart -->
<g id="node9" class="node">
<title>/lib/models/layers.dart</title>
<path fill="Lavender" stroke="black" stroke-width="1.3" d="M508.88,-450C508.88,-450 477.12,-450 477.12,-450 471.12,-450 465.12,-444 465.12,-438 465.12,-438 465.12,-426 465.12,-426 465.12,-420 471.12,-414 477.12,-414 477.12,-414 508.88,-414 508.88,-414 514.88,-414 520.88,-420 520.88,-426 520.88,-426 520.88,-438 520.88,-438 520.88,-444 514.88,-450 508.88,-450"/>
<text text-anchor="middle" x="493" y="-426.75" font-family="Arial" font-size="15.00">layers</text>
</g>
<!-- /lib/models/layer.dart -->
<g id="node12" class="node">
<title>/lib/models/layer.dart</title>
<path fill="Lavender" stroke="black" stroke-width="1.3" d="M508,-378C508,-378 478,-378 478,-378 472,-378 466,-372 466,-366 466,-366 466,-354 466,-354 466,-348 472,-342 478,-342 478,-342 508,-342 508,-342 514,-342 520,-348 520,-354 520,-354 520,-366 520,-366 520,-372 514,-378 508,-378"/>
<text text-anchor="middle" x="493" y="-354.75" font-family="Arial" font-size="15.00">layer</text>
</g>
<!-- /lib/models/layers.dart&#45;&gt;/lib/models/layer.dart -->
<g id="edge20" class="edge">
<title>/lib/models/layers.dart&#45;&gt;/lib/models/layer.dart</title>
<path fill="none" stroke="#aabbaa" stroke-width="1.3" stroke-opacity="0.533333" d="M487.08,-413.7C486.34,-406.49 486.09,-397.93 486.34,-389.82"/>
<polygon fill="#aabbaa" fill-opacity="0.533333" stroke="#aabbaa" stroke-width="1.3" stroke-opacity="0.533333" points="489.82,-390.27 486.98,-380.07 482.84,-389.82 489.82,-390.27"/>
</g>
<!-- /lib/models/layers.dart&#45;&gt;/lib/models/layer.dart -->
<g id="edge21" class="edge">
<title>/lib/models/layers.dart&#45;&gt;/lib/models/layer.dart</title>
<path fill="none" stroke="#aabbaa" stroke-width="1.3" stroke-dasharray="5,2" stroke-opacity="0.533333" d="M498.92,-413.7C499.66,-406.49 499.91,-397.93 499.66,-389.82"/>
<polygon fill="#aabbaa" fill-opacity="0.533333" stroke="#aabbaa" stroke-width="1.3" stroke-opacity="0.533333" points="503.16,-389.82 499.02,-380.07 496.18,-390.27 503.16,-389.82"/>
</g>
<!-- /lib/helpers/list_helper.dart -->
<g id="node19" class="node">
<title>/lib/helpers/list_helper.dart</title>
<path fill="Lavender" stroke="black" stroke-width="1.3" d="M477.75,-68C477.75,-68 418.25,-68 418.25,-68 412.25,-68 406.25,-62 406.25,-56 406.25,-56 406.25,-44 406.25,-44 406.25,-38 412.25,-32 418.25,-32 418.25,-32 477.75,-32 477.75,-32 483.75,-32 489.75,-38 489.75,-44 489.75,-44 489.75,-56 489.75,-56 489.75,-62 483.75,-68 477.75,-68"/>
<text text-anchor="middle" x="448" y="-44.75" font-family="Arial" font-size="15.00">list_helper</text>
</g>
<!-- /lib/models/layers.dart&#45;&gt;/lib/helpers/list_helper.dart -->
<g id="edge19" class="edge">
<title>/lib/models/layers.dart&#45;&gt;/lib/helpers/list_helper.dart</title>
<path fill="none" stroke="#aabbaa" stroke-width="1.3" stroke-opacity="0.533333" d="M505.33,-413.7C521.32,-392.37 551.08,-356.22 584,-334 665.4,-279.04 734.53,-335.05 790,-254 808.83,-226.49 809,-206.39 790,-179 724.54,-84.6 580.41,-59.71 501.77,-53.22"/>
<polygon fill="#aabbaa" fill-opacity="0.533333" stroke="#aabbaa" stroke-width="1.3" stroke-opacity="0.533333" points="502.39,-49.76 492.16,-52.51 501.87,-56.74 502.39,-49.76"/>
</g>
<!-- /lib/models/user_action.dart -->
<g id="node10" class="node">
<title>/lib/models/user_action.dart</title>
<path fill="Lavender" stroke="black" stroke-width="1.3" d="M559.62,-306C559.62,-306 490.38,-306 490.38,-306 484.38,-306 478.38,-300 478.38,-294 478.38,-294 478.38,-282 478.38,-282 478.38,-276 484.38,-270 490.38,-270 490.38,-270 559.62,-270 559.62,-270 565.62,-270 571.62,-276 571.62,-282 571.62,-282 571.62,-294 571.62,-294 571.62,-300 565.62,-306 559.62,-306"/>
<text text-anchor="middle" x="525" y="-282.75" font-family="Arial" font-size="15.00">user_action</text>
</g>
<!-- /lib/widgets/brush_style_picker.dart -->
<g id="node24" class="node">
<title>/lib/widgets/brush_style_picker.dart</title>
<path fill="Lavender" stroke="black" stroke-width="1.3" d="M766.25,-223C766.25,-223 649.75,-223 649.75,-223 643.75,-223 637.75,-217 637.75,-211 637.75,-211 637.75,-199 637.75,-199 637.75,-193 643.75,-187 649.75,-187 649.75,-187 766.25,-187 766.25,-187 772.25,-187 778.25,-193 778.25,-199 778.25,-199 778.25,-211 778.25,-211 778.25,-217 772.25,-223 766.25,-223"/>
<text text-anchor="middle" x="708" y="-199.75" font-family="Arial" font-size="15.00">brush_style_picker</text>
</g>
<!-- /lib/models/user_action.dart&#45;&gt;/lib/widgets/brush_style_picker.dart -->
<g id="edge22" class="edge">
<title>/lib/models/user_action.dart&#45;&gt;/lib/widgets/brush_style_picker.dart</title>
<path fill="none" stroke="#aabbaa" stroke-width="1.3" stroke-opacity="0.533333" d="M572.08,-272.01C587.6,-267.02 604.74,-260.94 620,-254 635.17,-247.11 651.02,-237.91 665.11,-229.41"/>
<polygon fill="#aabbaa" fill-opacity="0.533333" stroke="#aabbaa" stroke-width="1.3" stroke-opacity="0.533333" points="666.62,-232.6 673.35,-224.42 662.98,-226.61 666.62,-232.6"/>
</g>
<!-- /lib/models/user_action.dart&#45;&gt;/lib/widgets/brush_style_picker.dart -->
<g id="edge23" class="edge">
<title>/lib/models/user_action.dart&#45;&gt;/lib/widgets/brush_style_picker.dart</title>
<path fill="none" stroke="#aabbaa" stroke-width="1.3" stroke-dasharray="5,2" stroke-opacity="0.533333" d="M571.9,-277.06C592.76,-271.38 617.13,-263.48 638,-254 652.87,-247.24 668.41,-238.27 681.16,-229.91"/>
<polygon fill="#aabbaa" fill-opacity="0.533333" stroke="#aabbaa" stroke-width="1.3" stroke-opacity="0.533333" points="682.81,-233.02 689.1,-224.5 678.87,-227.24 682.81,-233.02"/>
</g>
<!-- /lib/models/app_model.dart&#45;&gt;/lib/models/layers.dart -->
<g id="edge24" class="edge">
<title>/lib/models/app_model.dart&#45;&gt;/lib/models/layers.dart</title>
<path fill="none" stroke="#aabbaa" stroke-width="1.3" stroke-opacity="0.533333" d="M418.78,-306.1C422.93,-314.34 428.67,-324.47 433,-334 441.54,-352.81 438.78,-359.51 448,-378 452.45,-386.92 458.19,-396.08 464.16,-404.23"/>
<polygon fill="#aabbaa" fill-opacity="0.533333" stroke="#aabbaa" stroke-width="1.3" stroke-opacity="0.533333" points="461.35,-406.32 470.28,-412.03 466.86,-402 461.35,-406.32"/>
</g>
<!-- /lib/models/app_model.dart&#45;&gt;/lib/models/layers.dart -->
<g id="edge25" class="edge">
<title>/lib/models/app_model.dart&#45;&gt;/lib/models/layers.dart</title>
<path fill="none" stroke="#aabbaa" stroke-width="1.3" stroke-dasharray="5,2" stroke-opacity="0.533333" d="M435.1,-306.1C440.93,-314.34 446.67,-324.47 451,-334 459.54,-352.81 456.78,-359.51 466,-378 470.35,-386.72 475.94,-395.68 481.05,-403.69"/>
<polygon fill="#aabbaa" fill-opacity="0.533333" stroke="#aabbaa" stroke-width="1.3" stroke-opacity="0.533333" points="477.96,-405.37 486.29,-411.92 483.87,-401.61 477.96,-405.37"/>
</g>
<!-- /lib/models/layer.dart&#45;&gt;/lib/models/user_action.dart -->
<g id="edge27" class="edge">
<title>/lib/models/layer.dart&#45;&gt;/lib/models/user_action.dart</title>
<path fill="none" stroke="#aabbaa" stroke-width="1.3" stroke-dasharray="5,2" stroke-opacity="0.533333" d="M500.91,-341.7C504.32,-334.24 508.4,-325.32 512.22,-316.97"/>
<polygon fill="#aabbaa" fill-opacity="0.533333" stroke="#aabbaa" stroke-width="1.3" stroke-opacity="0.533333" points="515.39,-318.44 516.36,-307.89 509.02,-315.53 515.39,-318.44"/>
</g>
<!-- /lib/models/layer.dart&#45;&gt;/lib/models/app_model.dart -->
<g id="edge26" class="edge">
<title>/lib/models/layer.dart&#45;&gt;/lib/models/app_model.dart</title>
<path fill="none" stroke="#aabbaa" stroke-width="1.3" stroke-opacity="0.533333" d="M473.97,-341.7C464.9,-333.45 453.87,-323.43 443.88,-314.35"/>
<polygon fill="#aabbaa" fill-opacity="0.533333" stroke="#aabbaa" stroke-width="1.3" stroke-opacity="0.533333" points="446.29,-311.81 436.54,-307.67 441.58,-316.99 446.29,-311.81"/>
</g>
<!-- /lib/main.dart&#45;&gt;/lib/models/app_model.dart -->
<g id="edge29" class="edge">
<title>/lib/main.dart&#45;&gt;/lib/models/app_model.dart</title>
<path fill="none" stroke="#aabbaa" stroke-width="1.3" stroke-opacity="0.533333" d="M317.39,-639.64C357.37,-617.98 427,-571.2 427,-508 427,-508 427,-508 427,-431 427,-391.8 422.78,-346.69 419.57,-318.03"/>
<polygon fill="#aabbaa" fill-opacity="0.533333" stroke="#aabbaa" stroke-width="1.3" stroke-opacity="0.533333" points="423.08,-317.94 418.45,-308.41 416.13,-318.75 423.08,-317.94"/>
</g>
<!-- /lib/main_screen.dart -->
<g id="node18" class="node">
<title>/lib/main_screen.dart</title>
<path fill="Lavender" stroke="black" stroke-width="1.3" d="M328.75,-600C328.75,-600 251.25,-600 251.25,-600 245.25,-600 239.25,-594 239.25,-588 239.25,-588 239.25,-576 239.25,-576 239.25,-570 245.25,-564 251.25,-564 251.25,-564 328.75,-564 328.75,-564 334.75,-564 340.75,-570 340.75,-576 340.75,-576 340.75,-588 340.75,-588 340.75,-594 334.75,-600 328.75,-600"/>
<text text-anchor="middle" x="290" y="-576.75" font-family="Arial" font-size="15.00">main_screen</text>
</g>
<!-- /lib/main.dart&#45;&gt;/lib/main_screen.dart -->
<g id="edge28" class="edge">
<title>/lib/main.dart&#45;&gt;/lib/main_screen.dart</title>
<path fill="none" stroke="#aabbaa" stroke-width="1.3" stroke-opacity="0.533333" d="M290,-635.7C290,-628.49 290,-619.93 290,-611.82"/>
<polygon fill="#aabbaa" fill-opacity="0.533333" stroke="#aabbaa" stroke-width="1.3" stroke-opacity="0.533333" points="293.5,-612.07 290,-602.07 286.5,-612.07 293.5,-612.07"/>
</g>
<!-- /lib/files/export_download_web.dart -->
<g id="node14" class="node">
<title>/lib/files/export_download_web.dart</title>
<path fill="Lavender" stroke="black" stroke-width="1.3" d="M964.25,-450C964.25,-450 823.75,-450 823.75,-450 817.75,-450 811.75,-444 811.75,-438 811.75,-438 811.75,-426 811.75,-426 811.75,-420 817.75,-414 823.75,-414 823.75,-414 964.25,-414 964.25,-414 970.25,-414 976.25,-420 976.25,-426 976.25,-426 976.25,-438 976.25,-438 976.25,-444 970.25,-450 964.25,-450"/>
<text text-anchor="middle" x="894" y="-426.75" font-family="Arial" font-size="15.00">export_download_web</text>
</g>
<!-- /lib/files/export_download_web.dart&#45;&gt;/lib/panels/share_panel.dart -->
<g id="edge32" class="edge">
<title>/lib/files/export_download_web.dart&#45;&gt;/lib/panels/share_panel.dart</title>
<path fill="none" stroke="#aabbaa" stroke-width="1.3" stroke-opacity="0.533333" d="M811.72,-415.23C808.78,-414.8 805.87,-414.38 803,-414 606.76,-387.79 554.9,-406.64 359,-378 352.77,-377.09 346.29,-375.98 339.84,-374.78"/>
<polygon fill="#aabbaa" fill-opacity="0.533333" stroke="#aabbaa" stroke-width="1.3" stroke-opacity="0.533333" points="340.74,-371.39 330.26,-372.9 339.39,-378.26 340.74,-371.39"/>
</g>
<!-- /lib/files/export_download_web.dart&#45;&gt;/lib/models/app_model.dart -->
<g id="edge31" class="edge">
<title>/lib/files/export_download_web.dart&#45;&gt;/lib/models/app_model.dart</title>
<path fill="none" stroke="#aabbaa" stroke-width="1.3" stroke-opacity="0.533333" d="M815.83,-413.55C774.61,-403.91 723.31,-391.23 678,-378 667.77,-375.01 545.92,-333.43 472.04,-308.18"/>
<polygon fill="#aabbaa" fill-opacity="0.533333" stroke="#aabbaa" stroke-width="1.3" stroke-opacity="0.533333" points="473.53,-304.98 462.93,-305.06 471.26,-311.61 473.53,-304.98"/>
</g>
<!-- /lib/files/file_ora.dart -->
<g id="node15" class="node">
<title>/lib/files/file_ora.dart</title>
<path fill="Lavender" stroke="black" stroke-width="1.3" d="M837.38,-378C837.38,-378 796.62,-378 796.62,-378 790.62,-378 784.62,-372 784.62,-366 784.62,-366 784.62,-354 784.62,-354 784.62,-348 790.62,-342 796.62,-342 796.62,-342 837.38,-342 837.38,-342 843.38,-342 849.38,-348 849.38,-354 849.38,-354 849.38,-366 849.38,-366 849.38,-372 843.38,-378 837.38,-378"/>
<text text-anchor="middle" x="817" y="-354.75" font-family="Arial" font-size="15.00">file_ora</text>
</g>
<!-- /lib/files/export_download_web.dart&#45;&gt;/lib/files/file_ora.dart -->
<g id="edge30" class="edge">
<title>/lib/files/export_download_web.dart&#45;&gt;/lib/files/file_ora.dart</title>
<path fill="none" stroke="#aabbaa" stroke-width="1.3" stroke-opacity="0.533333" d="M874.97,-413.7C865.9,-405.45 854.87,-395.43 844.88,-386.35"/>
<polygon fill="#aabbaa" fill-opacity="0.533333" stroke="#aabbaa" stroke-width="1.3" stroke-opacity="0.533333" points="847.29,-383.81 837.54,-379.67 842.58,-388.99 847.29,-383.81"/>
</g>
<!-- /lib/files/file_ora.dart&#45;&gt;/lib/models/app_model.dart -->
<g id="edge34" class="edge">
<title>/lib/files/file_ora.dart&#45;&gt;/lib/models/app_model.dart</title>
<path fill="none" stroke="#aabbaa" stroke-width="1.3" stroke-opacity="0.533333" d="M784.23,-352.05C758.22,-346.67 720.88,-339.28 688,-334 594.81,-319.03 566.89,-326.66 472.74,-306.63"/>
<polygon fill="#aabbaa" fill-opacity="0.533333" stroke="#aabbaa" stroke-width="1.3" stroke-opacity="0.533333" points="473.68,-303.25 463.16,-304.53 472.19,-310.09 473.68,-303.25"/>
</g>
<!-- /lib/files/file_ora.dart&#45;&gt;/lib/helpers/list_helper.dart -->
<g id="edge33" class="edge">
<title>/lib/files/file_ora.dart&#45;&gt;/lib/helpers/list_helper.dart</title>
<path fill="none" stroke="#aabbaa" stroke-width="1.3" stroke-opacity="0.533333" d="M822.46,-341.67C835.65,-296.06 863.78,-171.6 802,-104 762.67,-60.97 590.84,-52.54 501.85,-51.11"/>
<polygon fill="#aabbaa" fill-opacity="0.533333" stroke="#aabbaa" stroke-width="1.3" stroke-opacity="0.533333" points="502.14,-47.62 492.1,-50.98 502.05,-54.62 502.14,-47.62"/>
</g>
<!-- /lib/files/export_download_non_web.dart -->
<g id="node16" class="node">
<title>/lib/files/export_download_non_web.dart</title>
<path fill="Lavender" stroke="black" stroke-width="1.3" d="M781.75,-450C781.75,-450 608.25,-450 608.25,-450 602.25,-450 596.25,-444 596.25,-438 596.25,-438 596.25,-426 596.25,-426 596.25,-420 602.25,-414 608.25,-414 608.25,-414 781.75,-414 781.75,-414 787.75,-414 793.75,-420 793.75,-426 793.75,-426 793.75,-438 793.75,-438 793.75,-444 787.75,-450 781.75,-450"/>
<text text-anchor="middle" x="695" y="-426.75" font-family="Arial" font-size="15.00">export_download_non_web</text>
</g>
<!-- /lib/files/export_download_non_web.dart&#45;&gt;/lib/panels/share_panel.dart -->
<g id="edge37" class="edge">
<title>/lib/files/export_download_non_web.dart&#45;&gt;/lib/panels/share_panel.dart</title>
<path fill="none" stroke="#aabbaa" stroke-width="1.3" stroke-opacity="0.533333" d="M595.92,-415.64C505.33,-401.56 382.01,-382.26 359,-378 352.72,-376.84 346.17,-375.56 339.65,-374.24"/>
<polygon fill="#aabbaa" fill-opacity="0.533333" stroke="#aabbaa" stroke-width="1.3" stroke-opacity="0.533333" points="340.42,-370.83 329.92,-372.24 339.01,-377.68 340.42,-370.83"/>
</g>
<!-- /lib/files/export_download_non_web.dart&#45;&gt;/lib/models/app_model.dart -->
<g id="edge36" class="edge">
<title>/lib/files/export_download_non_web.dart&#45;&gt;/lib/models/app_model.dart</title>
<path fill="none" stroke="#aabbaa" stroke-width="1.3" stroke-opacity="0.533333" d="M620.26,-413.62C597.18,-405.59 572.89,-394.13 554,-378 536.9,-363.39 545.96,-348.77 529,-334 519.76,-325.95 495.65,-315.94 472.07,-307.41"/>
<polygon fill="#aabbaa" fill-opacity="0.533333" stroke="#aabbaa" stroke-width="1.3" stroke-opacity="0.533333" points="473.41,-304.18 462.82,-304.14 471.08,-310.78 473.41,-304.18"/>
</g>
<!-- /lib/files/export_download_non_web.dart&#45;&gt;/lib/files/file_ora.dart -->
<g id="edge35" class="edge">
<title>/lib/files/export_download_non_web.dart&#45;&gt;/lib/files/file_ora.dart</title>
<path fill="none" stroke="#aabbaa" stroke-width="1.3" stroke-opacity="0.533333" d="M725.47,-413.52C741.02,-404.6 760.13,-393.63 776.86,-384.03"/>
<polygon fill="#aabbaa" fill-opacity="0.533333" stroke="#aabbaa" stroke-width="1.3" stroke-opacity="0.533333" points="778.28,-387.25 785.21,-379.24 774.8,-381.18 778.28,-387.25"/>
</g>
<!-- /lib/files/import_files.dart&#45;&gt;/lib/models/app_model.dart -->
<g id="edge39" class="edge">
<title>/lib/files/import_files.dart&#45;&gt;/lib/models/app_model.dart</title>
<path fill="none" stroke="#aabbaa" stroke-width="1.3" stroke-opacity="0.533333" d="M994.37,-416.37C991.21,-415.53 988.06,-414.73 985,-414 893.28,-392.27 867.95,-398.75 776,-378 705.31,-362.05 689.58,-350.44 619,-334 556.43,-319.42 536.8,-322.24 472.21,-306.64"/>
<polygon fill="#aabbaa" fill-opacity="0.533333" stroke="#aabbaa" stroke-width="1.3" stroke-opacity="0.533333" points="473.45,-303.34 462.9,-304.33 471.77,-310.14 473.45,-303.34"/>
</g>
<!-- /lib/files/import_files.dart&#45;&gt;/lib/files/file_ora.dart -->
<g id="edge38" class="edge">
<title>/lib/files/import_files.dart&#45;&gt;/lib/files/file_ora.dart</title>
<path fill="none" stroke="#aabbaa" stroke-width="1.3" stroke-opacity="0.533333" d="M994.31,-416.41C955.16,-404.17 899.62,-386.82 861.18,-374.81"/>
<polygon fill="#aabbaa" fill-opacity="0.533333" stroke="#aabbaa" stroke-width="1.3" stroke-opacity="0.533333" points="862.31,-371.49 851.72,-371.85 860.22,-378.17 862.31,-371.49"/>
</g>
<!-- /lib/main_screen.dart&#45;&gt;/lib/panels/canvas_panel.dart -->
<g id="edge40" class="edge">
<title>/lib/main_screen.dart&#45;&gt;/lib/panels/canvas_panel.dart</title>
<path fill="none" stroke="#aabbaa" stroke-width="1.3" stroke-opacity="0.533333" d="M238.83,-567.1C197.78,-552.9 143.03,-526.36 118,-481 86.38,-423.69 84.87,-384.09 127,-334 148.54,-308.39 183.78,-296.9 215.12,-291.93"/>
<polygon fill="#aabbaa" fill-opacity="0.533333" stroke="#aabbaa" stroke-width="1.3" stroke-opacity="0.533333" points="215.52,-295.41 224.96,-290.59 214.58,-288.47 215.52,-295.41"/>
</g>
<!-- /lib/main_screen.dart&#45;&gt;/lib/panels/side_panel.dart -->
<g id="edge41" class="edge">
<title>/lib/main_screen.dart&#45;&gt;/lib/panels/side_panel.dart</title>
<path fill="none" stroke="#aabbaa" stroke-width="1.3" stroke-opacity="0.533333" d="M290,-563.7C290,-555.76 290,-546.12 290,-537.11"/>
<polygon fill="#aabbaa" fill-opacity="0.533333" stroke="#aabbaa" stroke-width="1.3" stroke-opacity="0.533333" points="293.5,-537.4 290,-527.4 286.5,-537.4 293.5,-537.4"/>
</g>
<!-- /lib/main_screen.dart&#45;&gt;/lib/models/app_model.dart -->
<g id="edge42" class="edge">
<title>/lib/main_screen.dart&#45;&gt;/lib/models/app_model.dart</title>
<path fill="none" stroke="#aabbaa" stroke-width="1.3" stroke-opacity="0.533333" d="M340.61,-563.69C343.69,-561.42 346.54,-558.87 349,-556 408.43,-486.57 416.46,-371.88 416.72,-318.29"/>
<polygon fill="#aabbaa" fill-opacity="0.533333" stroke="#aabbaa" stroke-width="1.3" stroke-opacity="0.533333" points="420.22,-318.29 416.66,-308.31 413.22,-318.33 420.22,-318.29"/>
</g>
<!-- /lib/helpers/color_helper.dart -->
<g id="node20" class="node">
<title>/lib/helpers/color_helper.dart</title>
<path fill="Lavender" stroke="black" stroke-width="1.3" d="M481.88,-140C481.88,-140 408.12,-140 408.12,-140 402.12,-140 396.12,-134 396.12,-128 396.12,-128 396.12,-116 396.12,-116 396.12,-110 402.12,-104 408.12,-104 408.12,-104 481.88,-104 481.88,-104 487.88,-104 493.88,-110 493.88,-116 493.88,-116 493.88,-128 493.88,-128 493.88,-134 487.88,-140 481.88,-140"/>
<text text-anchor="middle" x="445" y="-116.75" font-family="Arial" font-size="15.00">color_helper</text>
</g>
<!-- /lib/helpers/color_helper.dart&#45;&gt;/lib/helpers/list_helper.dart -->
<g id="edge43" class="edge">
<title>/lib/helpers/color_helper.dart&#45;&gt;/lib/helpers/list_helper.dart</title>
<path fill="none" stroke="#aabbaa" stroke-width="1.3" stroke-opacity="0.533333" d="M445.74,-103.7C446.05,-96.49 446.42,-87.93 446.76,-79.82"/>
<polygon fill="#aabbaa" fill-opacity="0.533333" stroke="#aabbaa" stroke-width="1.3" stroke-opacity="0.533333" points="450.25,-80.21 447.18,-70.07 443.26,-79.91 450.25,-80.21"/>
</g>
<!-- /lib/widgets/brush_style_picker.dart&#45;&gt;/lib/models/app_model.dart -->
<g id="edge44" class="edge">
<title>/lib/widgets/brush_style_picker.dart&#45;&gt;/lib/models/app_model.dart</title>
<path fill="none" stroke="#aabbaa" stroke-width="1.3" stroke-opacity="0.533333" d="M686.28,-223.29C671.16,-234.25 650.02,-247.55 629,-254 560.94,-274.9 538.07,-244.71 469,-262 465.56,-262.86 462.07,-263.95 458.61,-265.19"/>
<polygon fill="#aabbaa" fill-opacity="0.533333" stroke="#aabbaa" stroke-width="1.3" stroke-opacity="0.533333" points="457.55,-261.85 449.59,-268.84 460.18,-268.34 457.55,-261.85"/>
</g>
<!-- /lib/widgets/color_picker.dart&#45;&gt;/lib/helpers/list_helper.dart -->
<g id="edge46" class="edge">
<title>/lib/widgets/color_picker.dart&#45;&gt;/lib/helpers/list_helper.dart</title>
<path fill="none" stroke="#aabbaa" stroke-width="1.3" stroke-opacity="0.533333" d="M131.54,-186.61C137.39,-184.05 143.35,-181.45 149,-179 235.58,-141.48 336.52,-98.41 396.19,-73.01"/>
<polygon fill="#aabbaa" fill-opacity="0.533333" stroke="#aabbaa" stroke-width="1.3" stroke-opacity="0.533333" points="397.2,-76.39 405.03,-69.25 394.46,-69.95 397.2,-76.39"/>
</g>
<!-- /lib/widgets/color_picker.dart&#45;&gt;/lib/helpers/color_helper.dart -->
<g id="edge45" class="edge">
<title>/lib/widgets/color_picker.dart&#45;&gt;/lib/helpers/color_helper.dart</title>
<path fill="none" stroke="#aabbaa" stroke-width="1.3" stroke-opacity="0.533333" d="M126.94,-186.56C134.09,-183.6 141.67,-180.88 149,-179 187.9,-169.03 199.35,-177.35 239,-171 288.44,-163.08 343.66,-149.98 384.47,-139.46"/>
<polygon fill="#aabbaa" fill-opacity="0.533333" stroke="#aabbaa" stroke-width="1.3" stroke-opacity="0.533333" points="385.15,-142.9 393.95,-137 383.39,-136.13 385.15,-142.9"/>
</g>
</g>
</svg>
