<?xml version="1.0" encoding="UTF-8" standalone="no"?>
<!DOCTYPE svg PUBLIC "-//W3C//DTD SVG 1.1//EN"
 "http://www.w3.org/Graphics/SVG/1.1/DTD/svg11.dtd">
<!-- Generated by graphviz version 12.2.1 (20241206.2353)
 -->
<!-- Pages: 1 -->
<svg width="1029pt" height="761pt"
 viewBox="0.00 0.00 1029.00 761.00" xmlns="http://www.w3.org/2000/svg" xmlns:xlink="http://www.w3.org/1999/xlink">
<g id="graph0" class="graph" transform="scale(1 1) rotate(0) translate(4 757)">
<polygon fill="white" stroke="none" points="-4,4 -4,-757 1025,-757 1025,4 -4,4"/>
<g id="clust1" class="cluster">
<title>cluster~</title>
<path fill="none" stroke="lightgray" stroke-width="2.6" d="M20,-8C20,-8 1001,-8 1001,-8 1007,-8 1013,-14 1013,-20 1013,-20 1013,-733 1013,-733 1013,-739 1007,-745 1001,-745 1001,-745 20,-745 20,-745 14,-745 8,-739 8,-733 8,-733 8,-20 8,-20 8,-14 14,-8 20,-8"/>
<text text-anchor="middle" x="510.5" y="-728.65" font-family="Arial Black" font-size="13.00">fpaint</text>
</g>
<g id="clust2" class="cluster">
<title>cluster~/test</title>
<path fill="none" stroke="lightgray" stroke-width="2.6" d="M29,-639C29,-639 261,-639 261,-639 267,-639 273,-645 273,-651 273,-651 273,-702 273,-702 273,-708 267,-714 261,-714 261,-714 29,-714 29,-714 23,-714 17,-708 17,-702 17,-702 17,-651 17,-651 17,-645 23,-639 29,-639"/>
<text text-anchor="middle" x="145" y="-697.65" font-family="Arial Black" font-size="13.00">test</text>
</g>
<g id="clust3" class="cluster">
<title>cluster~/lib</title>
<path fill="none" stroke="lightgray" stroke-width="2.6" d="M28,-16C28,-16 993,-16 993,-16 999,-16 1005,-22 1005,-28 1005,-28 1005,-619 1005,-619 1005,-625 999,-631 993,-631 993,-631 28,-631 28,-631 22,-631 16,-625 16,-619 16,-619 16,-28 16,-28 16,-22 22,-16 28,-16"/>
<text text-anchor="middle" x="510.5" y="-614.65" font-family="Arial Black" font-size="13.00">lib</text>
</g>
<g id="clust4" class="cluster">
<title>cluster~/lib/brushes</title>
<path fill="none" stroke="lightgray" stroke-width="2.6" d="M60,-96C60,-96 122,-96 122,-96 128,-96 134,-102 134,-108 134,-108 134,-159 134,-159 134,-165 128,-171 122,-171 122,-171 60,-171 60,-171 54,-171 48,-165 48,-159 48,-159 48,-108 48,-108 48,-102 54,-96 60,-96"/>
<text text-anchor="middle" x="91" y="-154.65" font-family="Arial Black" font-size="13.00">brushes</text>
</g>
<g id="clust5" class="cluster">
<title>cluster~/lib/panels</title>
<path fill="none" stroke="lightgray" stroke-width="2.6" d="M731,-262C731,-262 933,-262 933,-262 939,-262 945,-268 945,-274 945,-274 945,-472 945,-472 945,-478 939,-484 933,-484 933,-484 731,-484 731,-484 725,-484 719,-478 719,-472 719,-472 719,-274 719,-274 719,-268 725,-262 731,-262"/>
<text text-anchor="middle" x="832" y="-467.65" font-family="Arial Black" font-size="13.00">panels</text>
</g>
<g id="clust6" class="cluster">
<title>cluster~/lib/models</title>
<path fill="none" stroke="lightgray" stroke-width="2.6" d="M48,-179C48,-179 241,-179 241,-179 247,-179 253,-185 253,-191 253,-191 253,-397 253,-397 253,-403 247,-409 241,-409 241,-409 48,-409 48,-409 42,-409 36,-403 36,-397 36,-397 36,-191 36,-191 36,-185 42,-179 48,-179"/>
<text text-anchor="middle" x="144.5" y="-392.65" font-family="Arial Black" font-size="13.00">models</text>
</g>
<g id="clust7" class="cluster">
<title>cluster~/lib/files</title>
<path fill="none" stroke="lightgray" stroke-width="2.6" d="M273,-334C273,-334 645,-334 645,-334 651,-334 657,-340 657,-346 657,-346 657,-472 657,-472 657,-478 651,-484 645,-484 645,-484 273,-484 273,-484 267,-484 261,-478 261,-472 261,-472 261,-346 261,-346 261,-340 267,-334 273,-334"/>
<text text-anchor="middle" x="459" y="-467.65" font-family="Arial Black" font-size="13.00">files</text>
</g>
<g id="clust8" class="cluster">
<title>cluster~/lib/helpers</title>
<path fill="none" stroke="lightgray" stroke-width="2.6" d="M742,-24C742,-24 832,-24 832,-24 838,-24 844,-30 844,-36 844,-36 844,-159 844,-159 844,-165 838,-171 832,-171 832,-171 742,-171 742,-171 736,-171 730,-165 730,-159 730,-159 730,-36 730,-36 730,-30 736,-24 742,-24"/>
<text text-anchor="middle" x="787" y="-154.65" font-family="Arial Black" font-size="13.00">helpers</text>
</g>
<g id="clust9" class="cluster">
<title>cluster~/lib/widgets</title>
<path fill="none" stroke="lightgray" stroke-width="2.6" d="M570,-179C570,-179 985,-179 985,-179 991,-179 997,-185 997,-191 997,-191 997,-242 997,-242 997,-248 991,-254 985,-254 985,-254 570,-254 570,-254 564,-254 558,-248 558,-242 558,-242 558,-191 558,-191 558,-185 564,-179 570,-179"/>
<text text-anchor="middle" x="777.5" y="-237.65" font-family="Arial Black" font-size="13.00">widgets</text>
</g>
<!-- /test/paint_model_test.dart -->
<g id="node1" class="node">
<title>/test/paint_model_test.dart</title>
<path fill="Lavender" stroke="black" stroke-width="1.3" d="M143,-683C143,-683 37,-683 37,-683 31,-683 25,-677 25,-671 25,-671 25,-659 25,-659 25,-653 31,-647 37,-647 37,-647 143,-647 143,-647 149,-647 155,-653 155,-659 155,-659 155,-671 155,-671 155,-677 149,-683 143,-683"/>
<text text-anchor="middle" x="90" y="-659.75" font-family="Arial" font-size="15.00">paint_model_test</text>
</g>
<!-- /lib/models/app_model.dart -->
<g id="node11" class="node">
<title>/lib/models/app_model.dart</title>
<path fill="Lavender" stroke="black" stroke-width="1.3" d="M232.75,-223C232.75,-223 167.25,-223 167.25,-223 161.25,-223 155.25,-217 155.25,-211 155.25,-211 155.25,-199 155.25,-199 155.25,-193 161.25,-187 167.25,-187 167.25,-187 232.75,-187 232.75,-187 238.75,-187 244.75,-193 244.75,-199 244.75,-199 244.75,-211 244.75,-211 244.75,-217 238.75,-223 232.75,-223"/>
<text text-anchor="middle" x="200" y="-199.75" font-family="Arial" font-size="15.00">app_model</text>
</g>
<!-- /test/paint_model_test.dart&#45;&gt;/lib/models/app_model.dart -->
<g id="edge1" class="edge">
<title>/test/paint_model_test.dart&#45;&gt;/lib/models/app_model.dart</title>
<path fill="none" stroke="#aabbaa" stroke-width="1.3" stroke-opacity="0.533333" d="M38.05,-646.52C31.75,-642.36 26.1,-637.26 22,-631 -7.27,-586.36 17,-564.38 17,-511 17,-511 17,-511 17,-359 17,-297.08 63.12,-292.52 117,-262 129.01,-255.2 134.88,-260.59 147,-254 157.68,-248.19 167.95,-239.79 176.56,-231.65"/>
<polygon fill="#aabbaa" fill-opacity="0.533333" stroke="#aabbaa" stroke-width="1.3" stroke-opacity="0.533333" points="178.86,-234.29 183.48,-224.75 173.92,-229.33 178.86,-234.29"/>
</g>
<!-- /test/widget_test.dart -->
<g id="node2" class="node">
<title>/test/widget_test.dart</title>
<path fill="Lavender" stroke="black" stroke-width="1.3" d="M252.88,-683C252.88,-683 185.12,-683 185.12,-683 179.12,-683 173.12,-677 173.12,-671 173.12,-671 173.12,-659 173.12,-659 173.12,-653 179.12,-647 185.12,-647 185.12,-647 252.88,-647 252.88,-647 258.88,-647 264.88,-653 264.88,-659 264.88,-659 264.88,-671 264.88,-671 264.88,-677 258.88,-683 252.88,-683"/>
<text text-anchor="middle" x="219" y="-659.75" font-family="Arial" font-size="15.00">widget_test</text>
</g>
<!-- /lib/main.dart -->
<g id="node13" class="node">
<title>/lib/main.dart</title>
<path fill="Lavender" stroke="black" stroke-width="1.3" d="M234,-600C234,-600 204,-600 204,-600 198,-600 192,-594 192,-588 192,-588 192,-576 192,-576 192,-570 198,-564 204,-564 204,-564 234,-564 234,-564 240,-564 246,-570 246,-576 246,-576 246,-588 246,-588 246,-594 240,-600 234,-600"/>
<text text-anchor="middle" x="219" y="-576.75" font-family="Arial" font-size="15.00">main</text>
</g>
<!-- /test/widget_test.dart&#45;&gt;/lib/main.dart -->
<g id="edge2" class="edge">
<title>/test/widget_test.dart&#45;&gt;/lib/main.dart</title>
<path fill="none" stroke="#aabbaa" stroke-width="1.3" stroke-opacity="0.533333" d="M219,-646.82C219,-636.8 219,-623.88 219,-612.29"/>
<polygon fill="#aabbaa" fill-opacity="0.533333" stroke="#aabbaa" stroke-width="1.3" stroke-opacity="0.533333" points="222.5,-612.4 219,-602.4 215.5,-612.4 222.5,-612.4"/>
</g>
<!-- /lib/brushes/brushes.dart -->
<g id="node3" class="node">
<title>/lib/brushes/brushes.dart</title>
<path fill="Lavender" stroke="black" stroke-width="1.3" d="M113.62,-140C113.62,-140 68.38,-140 68.38,-140 62.38,-140 56.38,-134 56.38,-128 56.38,-128 56.38,-116 56.38,-116 56.38,-110 62.38,-104 68.38,-104 68.38,-104 113.62,-104 113.62,-104 119.62,-104 125.62,-110 125.62,-116 125.62,-116 125.62,-128 125.62,-128 125.62,-134 119.62,-140 113.62,-140"/>
<text text-anchor="middle" x="91" y="-116.75" font-family="Arial" font-size="15.00">brushes</text>
</g>
<!-- /lib/brushes/brushes.dart&#45;&gt;/lib/models/app_model.dart -->
<g id="edge3" class="edge">
<title>/lib/brushes/brushes.dart&#45;&gt;/lib/models/app_model.dart</title>
<path fill="none" stroke="#aabbaa" stroke-width="1.3" stroke-opacity="0.533333" d="M114.34,-140.35C129.71,-151.77 150.05,-166.88 167.05,-179.52"/>
<polygon fill="#aabbaa" fill-opacity="0.533333" stroke="#aabbaa" stroke-width="1.3" stroke-opacity="0.533333" points="164.92,-182.29 175.04,-185.45 169.1,-176.68 164.92,-182.29"/>
</g>
<!-- /lib/panels/canvas_panel.dart -->
<g id="node4" class="node">
<title>/lib/panels/canvas_panel.dart</title>
<path fill="Lavender" stroke="black" stroke-width="1.3" d="M840.75,-306C840.75,-306 757.25,-306 757.25,-306 751.25,-306 745.25,-300 745.25,-294 745.25,-294 745.25,-282 745.25,-282 745.25,-276 751.25,-270 757.25,-270 757.25,-270 840.75,-270 840.75,-270 846.75,-270 852.75,-276 852.75,-282 852.75,-282 852.75,-294 852.75,-294 852.75,-300 846.75,-306 840.75,-306"/>
<text text-anchor="middle" x="799" y="-282.75" font-family="Arial" font-size="15.00">canvas_panel</text>
</g>
<!-- /lib/panels/canvas_panel.dart&#45;&gt;/lib/models/app_model.dart -->
<g id="edge5" class="edge">
<title>/lib/panels/canvas_panel.dart&#45;&gt;/lib/models/app_model.dart</title>
<path fill="none" stroke="#aabbaa" stroke-width="1.3" stroke-opacity="0.533333" d="M744.98,-269.58C733.85,-266.58 722.13,-263.84 711,-262 642.07,-250.6 623.57,-260.48 554,-254 448.63,-244.19 326.46,-226.13 256.69,-215.18"/>
<polygon fill="#aabbaa" fill-opacity="0.533333" stroke="#aabbaa" stroke-width="1.3" stroke-opacity="0.533333" points="257.49,-211.76 247.07,-213.66 256.4,-218.68 257.49,-211.76"/>
</g>
<!-- /lib/widgets/transparent_background.dart -->
<g id="node21" class="node">
<title>/lib/widgets/transparent_background.dart</title>
<path fill="Lavender" stroke="black" stroke-width="1.3" d="M862.38,-223C862.38,-223 707.62,-223 707.62,-223 701.62,-223 695.62,-217 695.62,-211 695.62,-211 695.62,-199 695.62,-199 695.62,-193 701.62,-187 707.62,-187 707.62,-187 862.38,-187 862.38,-187 868.38,-187 874.38,-193 874.38,-199 874.38,-199 874.38,-211 874.38,-211 874.38,-217 868.38,-223 862.38,-223"/>
<text text-anchor="middle" x="785" y="-199.75" font-family="Arial" font-size="15.00">transparent_background</text>
</g>
<!-- /lib/panels/canvas_panel.dart&#45;&gt;/lib/widgets/transparent_background.dart -->
<g id="edge4" class="edge">
<title>/lib/panels/canvas_panel.dart&#45;&gt;/lib/widgets/transparent_background.dart</title>
<path fill="none" stroke="#aabbaa" stroke-width="1.3" stroke-opacity="0.533333" d="M796.03,-269.82C794.28,-259.69 792.02,-246.6 790,-234.92"/>
<polygon fill="#aabbaa" fill-opacity="0.533333" stroke="#aabbaa" stroke-width="1.3" stroke-opacity="0.533333" points="793.5,-234.63 788.35,-225.37 786.6,-235.82 793.5,-234.63"/>
</g>
<!-- /lib/panels/tool_item.dart -->
<g id="node5" class="node">
<title>/lib/panels/tool_item.dart</title>
<path fill="Lavender" stroke="black" stroke-width="1.3" d="M925.38,-378C925.38,-378 872.62,-378 872.62,-378 866.62,-378 860.62,-372 860.62,-366 860.62,-366 860.62,-354 860.62,-354 860.62,-348 866.62,-342 872.62,-342 872.62,-342 925.38,-342 925.38,-342 931.38,-342 937.38,-348 937.38,-354 937.38,-354 937.38,-366 937.38,-366 937.38,-372 931.38,-378 925.38,-378"/>
<text text-anchor="middle" x="899" y="-354.75" font-family="Arial" font-size="15.00">tool_item</text>
</g>
<!-- /lib/panels/share_panel.dart -->
<g id="node6" class="node">
<title>/lib/panels/share_panel.dart</title>
<path fill="Lavender" stroke="black" stroke-width="1.3" d="M830.88,-378C830.88,-378 757.12,-378 757.12,-378 751.12,-378 745.12,-372 745.12,-366 745.12,-366 745.12,-354 745.12,-354 745.12,-348 751.12,-342 757.12,-342 757.12,-342 830.88,-342 830.88,-342 836.88,-342 842.88,-348 842.88,-354 842.88,-354 842.88,-366 842.88,-366 842.88,-372 836.88,-378 830.88,-378"/>
<text text-anchor="middle" x="794" y="-354.75" font-family="Arial" font-size="15.00">share_panel</text>
</g>
<!-- /lib/panels/share_panel.dart&#45;&gt;/lib/panels/canvas_panel.dart -->
<g id="edge7" class="edge">
<title>/lib/panels/share_panel.dart&#45;&gt;/lib/panels/canvas_panel.dart</title>
<path fill="none" stroke="#aabbaa" stroke-width="1.3" stroke-opacity="0.533333" d="M795.24,-341.7C795.75,-334.49 796.36,-325.93 796.94,-317.82"/>
<polygon fill="#aabbaa" fill-opacity="0.533333" stroke="#aabbaa" stroke-width="1.3" stroke-opacity="0.533333" points="800.42,-318.29 797.64,-308.07 793.43,-317.79 800.42,-318.29"/>
</g>
<!-- /lib/panels/share_panel.dart&#45;&gt;/lib/models/app_model.dart -->
<g id="edge6" class="edge">
<title>/lib/panels/share_panel.dart&#45;&gt;/lib/models/app_model.dart</title>
<path fill="none" stroke="#aabbaa" stroke-width="1.3" stroke-opacity="0.533333" d="M774.78,-341.74C763.41,-331.45 748.79,-318.09 736,-306 715.67,-286.79 716.58,-273.31 691,-262 663.11,-249.67 584.35,-256.94 554,-254 448.67,-243.8 326.48,-225.87 256.71,-215.05"/>
<polygon fill="#aabbaa" fill-opacity="0.533333" stroke="#aabbaa" stroke-width="1.3" stroke-opacity="0.533333" points="257.5,-211.63 247.08,-213.55 256.42,-218.55 257.5,-211.63"/>
</g>
<!-- /lib/panels/tools_panel.dart -->
<g id="node7" class="node">
<title>/lib/panels/tools_panel.dart</title>
<path fill="Lavender" stroke="black" stroke-width="1.3" d="M924.88,-453C924.88,-453 857.12,-453 857.12,-453 851.12,-453 845.12,-447 845.12,-441 845.12,-441 845.12,-429 845.12,-429 845.12,-423 851.12,-417 857.12,-417 857.12,-417 924.88,-417 924.88,-417 930.88,-417 936.88,-423 936.88,-429 936.88,-429 936.88,-441 936.88,-441 936.88,-447 930.88,-453 924.88,-453"/>
<text text-anchor="middle" x="891" y="-429.75" font-family="Arial" font-size="15.00">tools_panel</text>
</g>
<!-- /lib/panels/tools_panel.dart&#45;&gt;/lib/panels/tool_item.dart -->
<g id="edge9" class="edge">
<title>/lib/panels/tools_panel.dart&#45;&gt;/lib/panels/tool_item.dart</title>
<path fill="none" stroke="#aabbaa" stroke-width="1.3" stroke-opacity="0.533333" d="M892.9,-416.7C893.77,-408.76 894.82,-399.12 895.81,-390.11"/>
<polygon fill="#aabbaa" fill-opacity="0.533333" stroke="#aabbaa" stroke-width="1.3" stroke-opacity="0.533333" points="899.27,-390.71 896.88,-380.38 892.31,-389.94 899.27,-390.71"/>
</g>
<!-- /lib/panels/tools_panel.dart&#45;&gt;/lib/models/app_model.dart -->
<g id="edge8" class="edge">
<title>/lib/panels/tools_panel.dart&#45;&gt;/lib/models/app_model.dart</title>
<path fill="none" stroke="#aabbaa" stroke-width="1.3" stroke-opacity="0.533333" d="M844.67,-418.89C841.75,-418.19 838.85,-417.55 836,-417 814.11,-412.79 754.53,-421.39 736,-409 705.52,-388.61 691.54,-282.31 661,-262 651.07,-255.4 565.86,-255.25 554,-254 448.75,-242.94 326.54,-225.3 256.73,-214.76"/>
<polygon fill="#aabbaa" fill-opacity="0.533333" stroke="#aabbaa" stroke-width="1.3" stroke-opacity="0.533333" points="257.52,-211.34 247.1,-213.3 256.47,-218.26 257.52,-211.34"/>
</g>
<!-- /lib/panels/tools_panel.dart&#45;&gt;/lib/widgets/transparent_background.dart -->
<g id="edge11" class="edge">
<title>/lib/panels/tools_panel.dart&#45;&gt;/lib/widgets/transparent_background.dart</title>
<path fill="none" stroke="#aabbaa" stroke-width="1.3" stroke-opacity="0.533333" d="M937.29,-418.37C940.68,-415.71 943.67,-412.62 946,-409 964.05,-380.97 959.93,-364.28 946,-334 923.77,-285.66 872.88,-250.23 834.22,-229.06"/>
<polygon fill="#aabbaa" fill-opacity="0.533333" stroke="#aabbaa" stroke-width="1.3" stroke-opacity="0.533333" points="835.89,-225.98 825.41,-224.39 832.61,-232.17 835.89,-225.98"/>
</g>
<!-- /lib/widgets/color_picker.dart -->
<g id="node22" class="node">
<title>/lib/widgets/color_picker.dart</title>
<path fill="Lavender" stroke="black" stroke-width="1.3" d="M977.12,-223C977.12,-223 904.88,-223 904.88,-223 898.88,-223 892.88,-217 892.88,-211 892.88,-211 892.88,-199 892.88,-199 892.88,-193 898.88,-187 904.88,-187 904.88,-187 977.12,-187 977.12,-187 983.12,-187 989.12,-193 989.12,-199 989.12,-199 989.12,-211 989.12,-211 989.12,-217 983.12,-223 977.12,-223"/>
<text text-anchor="middle" x="941" y="-199.75" font-family="Arial" font-size="15.00">color_picker</text>
</g>
<!-- /lib/panels/tools_panel.dart&#45;&gt;/lib/widgets/color_picker.dart -->
<g id="edge10" class="edge">
<title>/lib/panels/tools_panel.dart&#45;&gt;/lib/widgets/color_picker.dart</title>
<path fill="none" stroke="#aabbaa" stroke-width="1.3" stroke-opacity="0.533333" d="M937.06,-426.48C946.44,-422.76 955.2,-417.23 961,-409 998.01,-356.48 972.51,-276.43 954.52,-234.26"/>
<polygon fill="#aabbaa" fill-opacity="0.533333" stroke="#aabbaa" stroke-width="1.3" stroke-opacity="0.533333" points="957.76,-232.94 950.5,-225.22 951.37,-235.78 957.76,-232.94"/>
</g>
<!-- /lib/panels/layers_panel.dart -->
<g id="node8" class="node">
<title>/lib/panels/layers_panel.dart</title>
<path fill="Lavender" stroke="black" stroke-width="1.3" d="M815,-453C815,-453 739,-453 739,-453 733,-453 727,-447 727,-441 727,-441 727,-429 727,-429 727,-423 733,-417 739,-417 739,-417 815,-417 815,-417 821,-417 827,-423 827,-429 827,-429 827,-441 827,-441 827,-447 821,-453 815,-453"/>
<text text-anchor="middle" x="777" y="-429.75" font-family="Arial" font-size="15.00">layers_panel</text>
</g>
<!-- /lib/panels/layers_panel.dart&#45;&gt;/lib/panels/share_panel.dart -->
<g id="edge13" class="edge">
<title>/lib/panels/layers_panel.dart&#45;&gt;/lib/panels/share_panel.dart</title>
<path fill="none" stroke="#aabbaa" stroke-width="1.3" stroke-opacity="0.533333" d="M781.03,-416.7C782.9,-408.67 785.17,-398.9 787.29,-389.8"/>
<polygon fill="#aabbaa" fill-opacity="0.533333" stroke="#aabbaa" stroke-width="1.3" stroke-opacity="0.533333" points="790.64,-390.88 789.49,-380.35 783.82,-389.29 790.64,-390.88"/>
</g>
<!-- /lib/panels/layers_panel.dart&#45;&gt;/lib/models/app_model.dart -->
<g id="edge12" class="edge">
<title>/lib/panels/layers_panel.dart&#45;&gt;/lib/models/app_model.dart</title>
<path fill="none" stroke="#aabbaa" stroke-width="1.3" stroke-opacity="0.533333" d="M726.55,-417.89C712.86,-413.43 701.58,-409.62 701,-409 677.31,-383.92 693.92,-365.99 681,-334 667.29,-300.06 671.67,-281.99 641,-262 624.74,-251.4 573.29,-256.19 554,-254 448.85,-242.04 326.61,-224.7 256.77,-214.46"/>
<polygon fill="#aabbaa" fill-opacity="0.533333" stroke="#aabbaa" stroke-width="1.3" stroke-opacity="0.533333" points="257.54,-211.04 247.13,-213.05 256.52,-217.97 257.54,-211.04"/>
</g>
<!-- /lib/widgets/truncated_text.dart -->
<g id="node20" class="node">
<title>/lib/widgets/truncated_text.dart</title>
<path fill="Lavender" stroke="black" stroke-width="1.3" d="M666,-223C666,-223 578,-223 578,-223 572,-223 566,-217 566,-211 566,-211 566,-199 566,-199 566,-193 572,-187 578,-187 578,-187 666,-187 666,-187 672,-187 678,-193 678,-199 678,-199 678,-211 678,-211 678,-217 672,-223 666,-223"/>
<text text-anchor="middle" x="622" y="-199.75" font-family="Arial" font-size="15.00">truncated_text</text>
</g>
<!-- /lib/panels/layers_panel.dart&#45;&gt;/lib/widgets/truncated_text.dart -->
<g id="edge14" class="edge">
<title>/lib/panels/layers_panel.dart&#45;&gt;/lib/widgets/truncated_text.dart</title>
<path fill="none" stroke="#aabbaa" stroke-width="1.3" stroke-opacity="0.533333" d="M744.19,-416.64C741.22,-414.31 738.42,-411.76 736,-409 688.91,-355.28 709.4,-322.23 671,-262 664.23,-251.38 655.51,-240.73 647.3,-231.6"/>
<polygon fill="#aabbaa" fill-opacity="0.533333" stroke="#aabbaa" stroke-width="1.3" stroke-opacity="0.533333" points="650.07,-229.44 640.7,-224.49 644.94,-234.2 650.07,-229.44"/>
</g>
<!-- /lib/models/layers.dart -->
<g id="node9" class="node">
<title>/lib/models/layers.dart</title>
<path fill="Lavender" stroke="black" stroke-width="1.3" d="M168.88,-378C168.88,-378 137.12,-378 137.12,-378 131.12,-378 125.12,-372 125.12,-366 125.12,-366 125.12,-354 125.12,-354 125.12,-348 131.12,-342 137.12,-342 137.12,-342 168.88,-342 168.88,-342 174.88,-342 180.88,-348 180.88,-354 180.88,-354 180.88,-366 180.88,-366 180.88,-372 174.88,-378 168.88,-378"/>
<text text-anchor="middle" x="153" y="-354.75" font-family="Arial" font-size="15.00">layers</text>
</g>
<!-- /lib/models/layer.dart -->
<g id="node12" class="node">
<title>/lib/models/layer.dart</title>
<path fill="Lavender" stroke="black" stroke-width="1.3" d="M168,-306C168,-306 138,-306 138,-306 132,-306 126,-300 126,-294 126,-294 126,-282 126,-282 126,-276 132,-270 138,-270 138,-270 168,-270 168,-270 174,-270 180,-276 180,-282 180,-282 180,-294 180,-294 180,-300 174,-306 168,-306"/>
<text text-anchor="middle" x="153" y="-282.75" font-family="Arial" font-size="15.00">layer</text>
</g>
<!-- /lib/models/layers.dart&#45;&gt;/lib/models/layer.dart -->
<g id="edge16" class="edge">
<title>/lib/models/layers.dart&#45;&gt;/lib/models/layer.dart</title>
<path fill="none" stroke="#aabbaa" stroke-width="1.3" stroke-opacity="0.533333" d="M147.08,-341.7C146.34,-334.49 146.09,-325.93 146.34,-317.82"/>
<polygon fill="#aabbaa" fill-opacity="0.533333" stroke="#aabbaa" stroke-width="1.3" stroke-opacity="0.533333" points="149.82,-318.27 146.98,-308.07 142.84,-317.82 149.82,-318.27"/>
</g>
<!-- /lib/models/layers.dart&#45;&gt;/lib/models/layer.dart -->
<g id="edge17" class="edge">
<title>/lib/models/layers.dart&#45;&gt;/lib/models/layer.dart</title>
<path fill="none" stroke="#aabbaa" stroke-width="1.3" stroke-dasharray="5,2" stroke-opacity="0.533333" d="M158.92,-341.7C159.66,-334.49 159.91,-325.93 159.66,-317.82"/>
<polygon fill="#aabbaa" fill-opacity="0.533333" stroke="#aabbaa" stroke-width="1.3" stroke-opacity="0.533333" points="163.16,-317.82 159.02,-308.07 156.18,-318.27 163.16,-317.82"/>
</g>
<!-- /lib/helpers/list_helper.dart -->
<g id="node18" class="node">
<title>/lib/helpers/list_helper.dart</title>
<path fill="Lavender" stroke="black" stroke-width="1.3" d="M809.75,-68C809.75,-68 750.25,-68 750.25,-68 744.25,-68 738.25,-62 738.25,-56 738.25,-56 738.25,-44 738.25,-44 738.25,-38 744.25,-32 750.25,-32 750.25,-32 809.75,-32 809.75,-32 815.75,-32 821.75,-38 821.75,-44 821.75,-44 821.75,-56 821.75,-56 821.75,-62 815.75,-68 809.75,-68"/>
<text text-anchor="middle" x="780" y="-44.75" font-family="Arial" font-size="15.00">list_helper</text>
</g>
<!-- /lib/models/layers.dart&#45;&gt;/lib/helpers/list_helper.dart -->
<g id="edge15" class="edge">
<title>/lib/models/layers.dart&#45;&gt;/lib/helpers/list_helper.dart</title>
<path fill="none" stroke="#aabbaa" stroke-width="1.3" stroke-opacity="0.533333" d="M124.84,-343.64C96.13,-326.2 53.3,-294.78 35,-254 6.2,-189.83 -6.89,-144.55 44,-96 93.08,-49.17 565.38,-49.04 726.47,-50.38"/>
<polygon fill="#aabbaa" fill-opacity="0.533333" stroke="#aabbaa" stroke-width="1.3" stroke-opacity="0.533333" points="725.97,-53.87 736.01,-50.46 726.04,-46.88 725.97,-53.87"/>
</g>
<!-- /lib/models/user_action.dart -->
<g id="node10" class="node">
<title>/lib/models/user_action.dart</title>
<path fill="Lavender" stroke="black" stroke-width="1.3" d="M125.62,-223C125.62,-223 56.38,-223 56.38,-223 50.38,-223 44.38,-217 44.38,-211 44.38,-211 44.38,-199 44.38,-199 44.38,-193 50.38,-187 56.38,-187 56.38,-187 125.62,-187 125.62,-187 131.62,-187 137.62,-193 137.62,-199 137.62,-199 137.62,-211 137.62,-211 137.62,-217 131.62,-223 125.62,-223"/>
<text text-anchor="middle" x="91" y="-199.75" font-family="Arial" font-size="15.00">user_action</text>
</g>
<!-- /lib/models/user_action.dart&#45;&gt;/lib/brushes/brushes.dart -->
<g id="edge18" class="edge">
<title>/lib/models/user_action.dart&#45;&gt;/lib/brushes/brushes.dart</title>
<path fill="none" stroke="#aabbaa" stroke-width="1.3" stroke-opacity="0.533333" d="M85.36,-186.82C84.28,-176.8 83.99,-163.88 84.49,-152.29"/>
<polygon fill="#aabbaa" fill-opacity="0.533333" stroke="#aabbaa" stroke-width="1.3" stroke-opacity="0.533333" points="87.97,-152.62 85.2,-142.4 80.99,-152.12 87.97,-152.62"/>
</g>
<!-- /lib/models/user_action.dart&#45;&gt;/lib/brushes/brushes.dart -->
<g id="edge19" class="edge">
<title>/lib/models/user_action.dart&#45;&gt;/lib/brushes/brushes.dart</title>
<path fill="none" stroke="#aabbaa" stroke-width="1.3" stroke-dasharray="5,2" stroke-opacity="0.533333" d="M96.64,-186.82C97.72,-176.8 98.01,-163.88 97.51,-152.29"/>
<polygon fill="#aabbaa" fill-opacity="0.533333" stroke="#aabbaa" stroke-width="1.3" stroke-opacity="0.533333" points="101.01,-152.12 96.8,-142.4 94.03,-152.62 101.01,-152.12"/>
</g>
<!-- /lib/models/app_model.dart&#45;&gt;/lib/models/layers.dart -->
<g id="edge20" class="edge">
<title>/lib/models/app_model.dart&#45;&gt;/lib/models/layers.dart</title>
<path fill="none" stroke="#aabbaa" stroke-width="1.3" stroke-opacity="0.533333" d="M194.18,-223.2C191.73,-243.59 190.21,-278.3 180,-306 176.72,-314.9 171.63,-323.75 166.64,-331.59"/>
<polygon fill="#aabbaa" fill-opacity="0.533333" stroke="#aabbaa" stroke-width="1.3" stroke-opacity="0.533333" points="163.72,-329.66 161.14,-339.94 169.57,-333.51 163.72,-329.66"/>
</g>
<!-- /lib/models/app_model.dart&#45;&gt;/lib/models/layers.dart -->
<g id="edge21" class="edge">
<title>/lib/models/app_model.dart&#45;&gt;/lib/models/layers.dart</title>
<path fill="none" stroke="#aabbaa" stroke-width="1.3" stroke-dasharray="5,2" stroke-opacity="0.533333" d="M207,-223.2C209.73,-243.59 208.21,-278.3 198,-306 194.61,-315.2 189.28,-324.35 183.39,-332.39"/>
<polygon fill="#aabbaa" fill-opacity="0.533333" stroke="#aabbaa" stroke-width="1.3" stroke-opacity="0.533333" points="180.78,-330.06 177.25,-340.05 186.24,-334.44 180.78,-330.06"/>
</g>
<!-- /lib/models/layer.dart&#45;&gt;/lib/models/user_action.dart -->
<g id="edge23" class="edge">
<title>/lib/models/layer.dart&#45;&gt;/lib/models/user_action.dart</title>
<path fill="none" stroke="#aabbaa" stroke-width="1.3" stroke-dasharray="5,2" stroke-opacity="0.533333" d="M139.85,-269.82C131.61,-259.05 120.8,-244.94 111.45,-232.72"/>
<polygon fill="#aabbaa" fill-opacity="0.533333" stroke="#aabbaa" stroke-width="1.3" stroke-opacity="0.533333" points="114.4,-230.81 105.54,-224.99 108.84,-235.06 114.4,-230.81"/>
</g>
<!-- /lib/models/layer.dart&#45;&gt;/lib/models/app_model.dart -->
<g id="edge22" class="edge">
<title>/lib/models/layer.dart&#45;&gt;/lib/models/app_model.dart</title>
<path fill="none" stroke="#aabbaa" stroke-width="1.3" stroke-opacity="0.533333" d="M162.97,-269.82C169.09,-259.26 177.08,-245.49 184.07,-233.45"/>
<polygon fill="#aabbaa" fill-opacity="0.533333" stroke="#aabbaa" stroke-width="1.3" stroke-opacity="0.533333" points="186.91,-235.54 188.9,-225.13 180.85,-232.03 186.91,-235.54"/>
</g>
<!-- /lib/main.dart&#45;&gt;/lib/models/app_model.dart -->
<g id="edge25" class="edge">
<title>/lib/main.dart&#45;&gt;/lib/models/app_model.dart</title>
<path fill="none" stroke="#aabbaa" stroke-width="1.3" stroke-opacity="0.533333" d="M219,-563.59C219,-536.37 219,-482.07 219,-436 219,-436 219,-436 219,-359 219,-315.48 211.34,-265.52 205.74,-234.86"/>
<polygon fill="#aabbaa" fill-opacity="0.533333" stroke="#aabbaa" stroke-width="1.3" stroke-opacity="0.533333" points="209.23,-234.46 203.94,-225.28 202.35,-235.76 209.23,-234.46"/>
</g>
<!-- /lib/main_screen.dart -->
<g id="node17" class="node">
<title>/lib/main_screen.dart</title>
<path fill="Lavender" stroke="black" stroke-width="1.3" d="M770.75,-528C770.75,-528 693.25,-528 693.25,-528 687.25,-528 681.25,-522 681.25,-516 681.25,-516 681.25,-504 681.25,-504 681.25,-498 687.25,-492 693.25,-492 693.25,-492 770.75,-492 770.75,-492 776.75,-492 782.75,-498 782.75,-504 782.75,-504 782.75,-516 782.75,-516 782.75,-522 776.75,-528 770.75,-528"/>
<text text-anchor="middle" x="732" y="-504.75" font-family="Arial" font-size="15.00">main_screen</text>
</g>
<!-- /lib/main.dart&#45;&gt;/lib/main_screen.dart -->
<g id="edge24" class="edge">
<title>/lib/main.dart&#45;&gt;/lib/main_screen.dart</title>
<path fill="none" stroke="#aabbaa" stroke-width="1.3" stroke-opacity="0.533333" d="M246.22,-577.29C325.36,-566.49 556.91,-534.89 669.32,-519.55"/>
<polygon fill="#aabbaa" fill-opacity="0.533333" stroke="#aabbaa" stroke-width="1.3" stroke-opacity="0.533333" points="669.74,-523.03 679.17,-518.21 668.79,-516.09 669.74,-523.03"/>
</g>
<!-- /lib/files/export_download_web.dart -->
<g id="node14" class="node">
<title>/lib/files/export_download_web.dart</title>
<path fill="Lavender" stroke="black" stroke-width="1.3" d="M421.25,-453C421.25,-453 280.75,-453 280.75,-453 274.75,-453 268.75,-447 268.75,-441 268.75,-441 268.75,-429 268.75,-429 268.75,-423 274.75,-417 280.75,-417 280.75,-417 421.25,-417 421.25,-417 427.25,-417 433.25,-423 433.25,-429 433.25,-429 433.25,-441 433.25,-441 433.25,-447 427.25,-453 421.25,-453"/>
<text text-anchor="middle" x="351" y="-429.75" font-family="Arial" font-size="15.00">export_download_web</text>
</g>
<!-- /lib/files/export_download_web.dart&#45;&gt;/lib/panels/share_panel.dart -->
<g id="edge28" class="edge">
<title>/lib/files/export_download_web.dart&#45;&gt;/lib/panels/share_panel.dart</title>
<path fill="none" stroke="#aabbaa" stroke-width="1.3" stroke-opacity="0.533333" d="M433.75,-418C436.53,-417.64 439.28,-417.3 442,-417 538.8,-406.25 565.38,-427.53 661,-409 689.53,-403.47 720.11,-392.79 744.75,-382.91"/>
<polygon fill="#aabbaa" fill-opacity="0.533333" stroke="#aabbaa" stroke-width="1.3" stroke-opacity="0.533333" points="745.88,-386.23 753.8,-379.19 743.22,-379.75 745.88,-386.23"/>
</g>
<!-- /lib/files/export_download_web.dart&#45;&gt;/lib/models/app_model.dart -->
<g id="edge27" class="edge">
<title>/lib/files/export_download_web.dart&#45;&gt;/lib/models/app_model.dart</title>
<path fill="none" stroke="#aabbaa" stroke-width="1.3" stroke-opacity="0.533333" d="M348.7,-416.53C343.54,-383.21 328.33,-309.64 290,-262 279.42,-248.85 264.86,-237.93 250.54,-229.33"/>
<polygon fill="#aabbaa" fill-opacity="0.533333" stroke="#aabbaa" stroke-width="1.3" stroke-opacity="0.533333" points="252.35,-226.34 241.93,-224.46 248.9,-232.43 252.35,-226.34"/>
</g>
<!-- /lib/files/file_ora.dart -->
<g id="node15" class="node">
<title>/lib/files/file_ora.dart</title>
<path fill="Lavender" stroke="black" stroke-width="1.3" d="M570.38,-378C570.38,-378 529.62,-378 529.62,-378 523.62,-378 517.62,-372 517.62,-366 517.62,-366 517.62,-354 517.62,-354 517.62,-348 523.62,-342 529.62,-342 529.62,-342 570.38,-342 570.38,-342 576.38,-342 582.38,-348 582.38,-354 582.38,-354 582.38,-366 582.38,-366 582.38,-372 576.38,-378 570.38,-378"/>
<text text-anchor="middle" x="550" y="-354.75" font-family="Arial" font-size="15.00">file_ora</text>
</g>
<!-- /lib/files/export_download_web.dart&#45;&gt;/lib/files/file_ora.dart -->
<g id="edge26" class="edge">
<title>/lib/files/export_download_web.dart&#45;&gt;/lib/files/file_ora.dart</title>
<path fill="none" stroke="#aabbaa" stroke-width="1.3" stroke-opacity="0.533333" d="M398.67,-416.51C431.33,-404.53 474.34,-388.75 506.16,-377.08"/>
<polygon fill="#aabbaa" fill-opacity="0.533333" stroke="#aabbaa" stroke-width="1.3" stroke-opacity="0.533333" points="507.31,-380.39 515.49,-373.66 504.9,-373.82 507.31,-380.39"/>
</g>
<!-- /lib/files/file_ora.dart&#45;&gt;/lib/models/app_model.dart -->
<g id="edge30" class="edge">
<title>/lib/files/file_ora.dart&#45;&gt;/lib/models/app_model.dart</title>
<path fill="none" stroke="#aabbaa" stroke-width="1.3" stroke-opacity="0.533333" d="M535.49,-341.77C516.04,-319.82 479.38,-282.3 440,-262 381.73,-231.96 307.24,-217.82 256.82,-211.31"/>
<polygon fill="#aabbaa" fill-opacity="0.533333" stroke="#aabbaa" stroke-width="1.3" stroke-opacity="0.533333" points="257.48,-207.86 247.13,-210.12 256.63,-214.81 257.48,-207.86"/>
</g>
<!-- /lib/files/file_ora.dart&#45;&gt;/lib/helpers/list_helper.dart -->
<g id="edge29" class="edge">
<title>/lib/files/file_ora.dart&#45;&gt;/lib/helpers/list_helper.dart</title>
<path fill="none" stroke="#aabbaa" stroke-width="1.3" stroke-opacity="0.533333" d="M545.11,-341.6C536.63,-307.58 522.88,-231.05 554,-179 591.62,-116.08 672.6,-81.45 726.7,-64.56"/>
<polygon fill="#aabbaa" fill-opacity="0.533333" stroke="#aabbaa" stroke-width="1.3" stroke-opacity="0.533333" points="727.69,-67.92 736.26,-61.69 725.68,-61.21 727.69,-67.92"/>
</g>
<!-- /lib/files/export_download_non_web.dart -->
<g id="node16" class="node">
<title>/lib/files/export_download_non_web.dart</title>
<path fill="Lavender" stroke="black" stroke-width="1.3" d="M636.75,-453C636.75,-453 463.25,-453 463.25,-453 457.25,-453 451.25,-447 451.25,-441 451.25,-441 451.25,-429 451.25,-429 451.25,-423 457.25,-417 463.25,-417 463.25,-417 636.75,-417 636.75,-417 642.75,-417 648.75,-423 648.75,-429 648.75,-429 648.75,-441 648.75,-441 648.75,-447 642.75,-453 636.75,-453"/>
<text text-anchor="middle" x="550" y="-429.75" font-family="Arial" font-size="15.00">export_download_non_web</text>
</g>
<!-- /lib/files/export_download_non_web.dart&#45;&gt;/lib/panels/share_panel.dart -->
<g id="edge33" class="edge">
<title>/lib/files/export_download_non_web.dart&#45;&gt;/lib/panels/share_panel.dart</title>
<path fill="none" stroke="#aabbaa" stroke-width="1.3" stroke-opacity="0.533333" d="M632.73,-416.57C642.31,-414.2 651.9,-411.66 661,-409 687.04,-401.4 715.38,-391.42 739.18,-382.53"/>
<polygon fill="#aabbaa" fill-opacity="0.533333" stroke="#aabbaa" stroke-width="1.3" stroke-opacity="0.533333" points="740.16,-385.9 748.28,-379.09 737.69,-379.35 740.16,-385.9"/>
</g>
<!-- /lib/files/export_download_non_web.dart&#45;&gt;/lib/models/app_model.dart -->
<g id="edge32" class="edge">
<title>/lib/files/export_download_non_web.dart&#45;&gt;/lib/models/app_model.dart</title>
<path fill="none" stroke="#aabbaa" stroke-width="1.3" stroke-opacity="0.533333" d="M520.69,-416.54C516.73,-414.06 512.74,-411.5 509,-409 417.01,-347.47 402.07,-320.31 308,-262 288.78,-250.08 266.74,-238.34 247.61,-228.71"/>
<polygon fill="#aabbaa" fill-opacity="0.533333" stroke="#aabbaa" stroke-width="1.3" stroke-opacity="0.533333" points="249.29,-225.64 238.78,-224.32 246.17,-231.9 249.29,-225.64"/>
</g>
<!-- /lib/files/export_download_non_web.dart&#45;&gt;/lib/files/file_ora.dart -->
<g id="edge31" class="edge">
<title>/lib/files/export_download_non_web.dart&#45;&gt;/lib/files/file_ora.dart</title>
<path fill="none" stroke="#aabbaa" stroke-width="1.3" stroke-opacity="0.533333" d="M550,-416.7C550,-408.76 550,-399.12 550,-390.11"/>
<polygon fill="#aabbaa" fill-opacity="0.533333" stroke="#aabbaa" stroke-width="1.3" stroke-opacity="0.533333" points="553.5,-390.4 550,-380.4 546.5,-390.4 553.5,-390.4"/>
</g>
<!-- /lib/main_screen.dart&#45;&gt;/lib/panels/canvas_panel.dart -->
<g id="edge35" class="edge">
<title>/lib/main_screen.dart&#45;&gt;/lib/panels/canvas_panel.dart</title>
<path fill="none" stroke="#aabbaa" stroke-width="1.3" stroke-opacity="0.533333" d="M783.07,-506.54C842.92,-503.13 935.34,-495.98 946,-484 990.32,-434.2 985.65,-387.6 946,-334 927.29,-308.71 894.66,-297.17 864.88,-292.08"/>
<polygon fill="#aabbaa" fill-opacity="0.533333" stroke="#aabbaa" stroke-width="1.3" stroke-opacity="0.533333" points="865.56,-288.64 855.16,-290.66 864.55,-295.57 865.56,-288.64"/>
</g>
<!-- /lib/main_screen.dart&#45;&gt;/lib/panels/tools_panel.dart -->
<g id="edge37" class="edge">
<title>/lib/main_screen.dart&#45;&gt;/lib/panels/tools_panel.dart</title>
<path fill="none" stroke="#aabbaa" stroke-width="1.3" stroke-opacity="0.533333" d="M783.2,-501.79C800.61,-498.03 819.75,-492.39 836,-484 847.15,-478.24 857.9,-469.76 866.89,-461.52"/>
<polygon fill="#aabbaa" fill-opacity="0.533333" stroke="#aabbaa" stroke-width="1.3" stroke-opacity="0.533333" points="869.06,-464.29 873.83,-454.84 864.2,-459.25 869.06,-464.29"/>
</g>
<!-- /lib/main_screen.dart&#45;&gt;/lib/panels/layers_panel.dart -->
<g id="edge36" class="edge">
<title>/lib/main_screen.dart&#45;&gt;/lib/panels/layers_panel.dart</title>
<path fill="none" stroke="#aabbaa" stroke-width="1.3" stroke-opacity="0.533333" d="M742.66,-491.7C747.84,-483.31 754.18,-473.02 760,-463.58"/>
<polygon fill="#aabbaa" fill-opacity="0.533333" stroke="#aabbaa" stroke-width="1.3" stroke-opacity="0.533333" points="762.96,-465.45 765.22,-455.1 757,-461.78 762.96,-465.45"/>
</g>
<!-- /lib/main_screen.dart&#45;&gt;/lib/models/app_model.dart -->
<g id="edge38" class="edge">
<title>/lib/main_screen.dart&#45;&gt;/lib/models/app_model.dart</title>
<path fill="none" stroke="#aabbaa" stroke-width="1.3" stroke-opacity="0.533333" d="M719.82,-491.7C718.15,-489.15 716.49,-486.53 715,-484 696.01,-451.82 689.45,-444.23 677,-409 665.65,-376.86 683.13,-359.92 661,-334 608.37,-272.37 368.12,-230.32 256.85,-213.81"/>
<polygon fill="#aabbaa" fill-opacity="0.533333" stroke="#aabbaa" stroke-width="1.3" stroke-opacity="0.533333" points="257.57,-210.38 247.17,-212.4 256.55,-217.31 257.57,-210.38"/>
</g>
<!-- /lib/main_screen.dart&#45;&gt;/lib/files/file_ora.dart -->
<g id="edge34" class="edge">
<title>/lib/main_screen.dart&#45;&gt;/lib/files/file_ora.dart</title>
<path fill="none" stroke="#aabbaa" stroke-width="1.3" stroke-opacity="0.533333" d="M691.64,-491.73C688.49,-489.42 685.54,-486.85 683,-484 661.85,-460.28 683.07,-436.54 658,-417 632.61,-397.2 613.96,-424.97 586,-409 577.35,-404.06 570.14,-396.11 564.5,-388.09"/>
<polygon fill="#aabbaa" fill-opacity="0.533333" stroke="#aabbaa" stroke-width="1.3" stroke-opacity="0.533333" points="567.55,-386.37 559.26,-379.79 561.63,-390.11 567.55,-386.37"/>
</g>
<!-- /lib/helpers/color_helper.dart -->
<g id="node19" class="node">
<title>/lib/helpers/color_helper.dart</title>
<path fill="Lavender" stroke="black" stroke-width="1.3" d="M823.88,-140C823.88,-140 750.12,-140 750.12,-140 744.12,-140 738.12,-134 738.12,-128 738.12,-128 738.12,-116 738.12,-116 738.12,-110 744.12,-104 750.12,-104 750.12,-104 823.88,-104 823.88,-104 829.88,-104 835.88,-110 835.88,-116 835.88,-116 835.88,-128 835.88,-128 835.88,-134 829.88,-140 823.88,-140"/>
<text text-anchor="middle" x="787" y="-116.75" font-family="Arial" font-size="15.00">color_helper</text>
</g>
<!-- /lib/helpers/color_helper.dart&#45;&gt;/lib/helpers/list_helper.dart -->
<g id="edge39" class="edge">
<title>/lib/helpers/color_helper.dart&#45;&gt;/lib/helpers/list_helper.dart</title>
<path fill="none" stroke="#aabbaa" stroke-width="1.3" stroke-opacity="0.533333" d="M785.27,-103.7C784.55,-96.49 783.69,-87.93 782.88,-79.82"/>
<polygon fill="#aabbaa" fill-opacity="0.533333" stroke="#aabbaa" stroke-width="1.3" stroke-opacity="0.533333" points="786.38,-79.66 781.91,-70.06 779.42,-80.36 786.38,-79.66"/>
</g>
<!-- /lib/widgets/color_picker.dart&#45;&gt;/lib/helpers/list_helper.dart -->
<g id="edge41" class="edge">
<title>/lib/widgets/color_picker.dart&#45;&gt;/lib/helpers/list_helper.dart</title>
<path fill="none" stroke="#aabbaa" stroke-width="1.3" stroke-opacity="0.533333" d="M906.1,-186.6C898.64,-183.56 890.69,-180.8 883,-179 866.31,-175.1 740.8,-183.43 729,-171 706.05,-146.83 715.29,-126.38 729,-96 732.33,-88.62 737.53,-81.97 743.36,-76.19"/>
<polygon fill="#aabbaa" fill-opacity="0.533333" stroke="#aabbaa" stroke-width="1.3" stroke-opacity="0.533333" points="745.58,-78.9 750.74,-69.65 740.94,-73.66 745.58,-78.9"/>
</g>
<!-- /lib/widgets/color_picker.dart&#45;&gt;/lib/helpers/color_helper.dart -->
<g id="edge40" class="edge">
<title>/lib/widgets/color_picker.dart&#45;&gt;/lib/helpers/color_helper.dart</title>
<path fill="none" stroke="#aabbaa" stroke-width="1.3" stroke-opacity="0.533333" d="M907.96,-186.62C885.41,-174.76 855.28,-158.91 830.73,-146"/>
<polygon fill="#aabbaa" fill-opacity="0.533333" stroke="#aabbaa" stroke-width="1.3" stroke-opacity="0.533333" points="832.47,-142.96 821.99,-141.4 829.21,-149.16 832.47,-142.96"/>
</g>
</g>
</svg>
