<?xml version="1.0" encoding="UTF-8" standalone="no"?>
<!DOCTYPE svg PUBLIC "-//W3C//DTD SVG 1.1//EN"
 "http://www.w3.org/Graphics/SVG/1.1/DTD/svg11.dtd">
<!-- Generated by graphviz version 12.2.1 (20241206.2353)
 -->
<!-- Pages: 1 -->
<svg width="3127pt" height="847pt"
 viewBox="0.00 0.00 3127.00 847.00" xmlns="http://www.w3.org/2000/svg" xmlns:xlink="http://www.w3.org/1999/xlink">
<g id="graph0" class="graph" transform="scale(1 1) rotate(0) translate(4 843)">
<polygon fill="white" stroke="none" points="-4,4 -4,-843 3123,-843 3123,4 -4,4"/>
<g id="clust1" class="cluster">
<title>cluster~</title>
<path fill="none" stroke="lightgray" stroke-width="2.6" d="M20,-8C20,-8 3099,-8 3099,-8 3105,-8 3111,-14 3111,-20 3111,-20 3111,-819 3111,-819 3111,-825 3105,-831 3099,-831 3099,-831 20,-831 20,-831 14,-831 8,-825 8,-819 8,-819 8,-20 8,-20 8,-14 14,-8 20,-8"/>
<text text-anchor="middle" x="1559.5" y="-814.65" font-family="Arial Black" font-size="13.00">fpaint</text>
</g>
<g id="clust2" class="cluster">
<title>cluster~/test</title>
<path fill="none" stroke="lightgray" stroke-width="2.6" d="M2108,-647C2108,-647 2694,-647 2694,-647 2700,-647 2706,-653 2706,-659 2706,-659 2706,-788 2706,-788 2706,-794 2700,-800 2694,-800 2694,-800 2108,-800 2108,-800 2102,-800 2096,-794 2096,-788 2096,-788 2096,-659 2096,-659 2096,-653 2102,-647 2108,-647"/>
<text text-anchor="middle" x="2401" y="-783.65" font-family="Arial Black" font-size="13.00">test</text>
</g>
<g id="clust3" class="cluster">
<title>cluster~/test/panels</title>
<path fill="none" stroke="lightgray" stroke-width="2.6" d="M2254,-655C2254,-655 2366,-655 2366,-655 2372,-655 2378,-661 2378,-667 2378,-667 2378,-757 2378,-757 2378,-763 2372,-769 2366,-769 2366,-769 2254,-769 2254,-769 2248,-769 2242,-763 2242,-757 2242,-757 2242,-667 2242,-667 2242,-661 2248,-655 2254,-655"/>
<text text-anchor="middle" x="2310" y="-752.65" font-family="Arial Black" font-size="13.00">panels</text>
</g>
<g id="clust4" class="cluster">
<title>cluster~/test/panels/tools</title>
<path fill="none" stroke="lightgray" stroke-width="2.6" d="M2262,-663C2262,-663 2358,-663 2358,-663 2364,-663 2370,-669 2370,-675 2370,-675 2370,-726 2370,-726 2370,-732 2364,-738 2358,-738 2358,-738 2262,-738 2262,-738 2256,-738 2250,-732 2250,-726 2250,-726 2250,-675 2250,-675 2250,-669 2256,-663 2262,-663"/>
<text text-anchor="middle" x="2310" y="-721.65" font-family="Arial Black" font-size="13.00">tools</text>
</g>
<g id="clust5" class="cluster">
<title>cluster~/lib</title>
<path fill="none" stroke="lightgray" stroke-width="2.6" d="M28,-16C28,-16 3087,-16 3087,-16 3093,-16 3099,-22 3099,-28 3099,-28 3099,-627 3099,-627 3099,-633 3093,-639 3087,-639 3087,-639 28,-639 28,-639 22,-639 16,-633 16,-627 16,-627 16,-28 16,-28 16,-22 22,-16 28,-16"/>
<text text-anchor="middle" x="1557.5" y="-622.65" font-family="Arial Black" font-size="13.00">lib</text>
</g>
<g id="clust6" class="cluster">
<title>cluster~/lib/panels</title>
<path fill="none" stroke="lightgray" stroke-width="2.6" d="M1258,-179C1258,-179 2054,-179 2054,-179 2060,-179 2066,-185 2066,-191 2066,-191 2066,-480 2066,-480 2066,-486 2060,-492 2054,-492 2054,-492 1258,-492 1258,-492 1252,-492 1246,-486 1246,-480 1246,-480 1246,-191 1246,-191 1246,-185 1252,-179 1258,-179"/>
<text text-anchor="middle" x="1656" y="-475.65" font-family="Arial Black" font-size="13.00">panels</text>
</g>
<g id="clust7" class="cluster">
<title>cluster~/lib/panels/tools</title>
<path fill="none" stroke="lightgray" stroke-width="2.6" d="M1266,-270C1266,-270 1538,-270 1538,-270 1544,-270 1550,-276 1550,-282 1550,-282 1550,-405 1550,-405 1550,-411 1544,-417 1538,-417 1538,-417 1266,-417 1266,-417 1260,-417 1254,-411 1254,-405 1254,-405 1254,-282 1254,-282 1254,-276 1260,-270 1266,-270"/>
<text text-anchor="middle" x="1402" y="-400.65" font-family="Arial Black" font-size="13.00">tools</text>
</g>
<g id="clust8" class="cluster">
<title>cluster~/lib/panels/layers</title>
<path fill="none" stroke="lightgray" stroke-width="2.6" d="M1634,-187C1634,-187 1798,-187 1798,-187 1804,-187 1810,-193 1810,-199 1810,-199 1810,-405 1810,-405 1810,-411 1804,-417 1798,-417 1798,-417 1634,-417 1634,-417 1628,-417 1622,-411 1622,-405 1622,-405 1622,-199 1622,-199 1622,-193 1628,-187 1634,-187"/>
<text text-anchor="middle" x="1716" y="-400.65" font-family="Arial Black" font-size="13.00">layers</text>
</g>
<g id="clust9" class="cluster">
<title>cluster~/lib/models</title>
<path fill="none" stroke="lightgray" stroke-width="2.6" d="M2118,-96C2118,-96 2331,-96 2331,-96 2337,-96 2343,-102 2343,-108 2343,-108 2343,-405 2343,-405 2343,-411 2337,-417 2331,-417 2331,-417 2118,-417 2118,-417 2112,-417 2106,-411 2106,-405 2106,-405 2106,-108 2106,-108 2106,-102 2112,-96 2118,-96"/>
<text text-anchor="middle" x="2224.5" y="-400.65" font-family="Arial Black" font-size="13.00">models</text>
</g>
<g id="clust10" class="cluster">
<title>cluster~/lib/files</title>
<path fill="none" stroke="lightgray" stroke-width="2.6" d="M2363,-270C2363,-270 3079,-270 3079,-270 3085,-270 3091,-276 3091,-282 3091,-282 3091,-405 3091,-405 3091,-411 3085,-417 3079,-417 3079,-417 2363,-417 2363,-417 2357,-417 2351,-411 2351,-405 2351,-405 2351,-282 2351,-282 2351,-276 2357,-270 2363,-270"/>
<text text-anchor="middle" x="2721" y="-400.65" font-family="Arial Black" font-size="13.00">files</text>
</g>
<g id="clust11" class="cluster">
<title>cluster~/lib/helpers</title>
<path fill="none" stroke="lightgray" stroke-width="2.6" d="M1680,-24C1680,-24 1770,-24 1770,-24 1776,-24 1782,-30 1782,-36 1782,-36 1782,-159 1782,-159 1782,-165 1776,-171 1770,-171 1770,-171 1680,-171 1680,-171 1674,-171 1668,-165 1668,-159 1668,-159 1668,-36 1668,-36 1668,-30 1674,-24 1680,-24"/>
<text text-anchor="middle" x="1725" y="-154.65" font-family="Arial Black" font-size="13.00">helpers</text>
</g>
<g id="clust12" class="cluster">
<title>cluster~/lib/widgets</title>
<path fill="none" stroke="lightgray" stroke-width="2.6" d="M36,-96C36,-96 1226,-96 1226,-96 1232,-96 1238,-102 1238,-108 1238,-108 1238,-250 1238,-250 1238,-256 1232,-262 1226,-262 1226,-262 36,-262 36,-262 30,-262 24,-256 24,-250 24,-250 24,-108 24,-108 24,-102 30,-96 36,-96"/>
<text text-anchor="middle" x="631" y="-245.65" font-family="Arial Black" font-size="13.00">widgets</text>
</g>
<!-- /test/paint_model_test.dart -->
<g id="node1" class="node">
<title>/test/paint_model_test.dart</title>
<path fill="Lavender" stroke="black" stroke-width="1.3" d="M2222,-707C2222,-707 2116,-707 2116,-707 2110,-707 2104,-701 2104,-695 2104,-695 2104,-683 2104,-683 2104,-677 2110,-671 2116,-671 2116,-671 2222,-671 2222,-671 2228,-671 2234,-677 2234,-683 2234,-683 2234,-695 2234,-695 2234,-701 2228,-707 2222,-707"/>
<text text-anchor="middle" x="2169" y="-683.75" font-family="Arial" font-size="15.00">paint_model_test</text>
</g>
<!-- /lib/models/app_model.dart -->
<g id="node20" class="node">
<title>/lib/models/app_model.dart</title>
<path fill="Lavender" stroke="black" stroke-width="1.3" d="M2322.75,-231C2322.75,-231 2257.25,-231 2257.25,-231 2251.25,-231 2245.25,-225 2245.25,-219 2245.25,-219 2245.25,-207 2245.25,-207 2245.25,-201 2251.25,-195 2257.25,-195 2257.25,-195 2322.75,-195 2322.75,-195 2328.75,-195 2334.75,-201 2334.75,-207 2334.75,-207 2334.75,-219 2334.75,-219 2334.75,-225 2328.75,-231 2322.75,-231"/>
<text text-anchor="middle" x="2290" y="-207.75" font-family="Arial" font-size="15.00">app_model</text>
</g>
<!-- /test/paint_model_test.dart&#45;&gt;/lib/models/app_model.dart -->
<g id="edge1" class="edge">
<title>/test/paint_model_test.dart&#45;&gt;/lib/models/app_model.dart</title>
<path fill="none" stroke="#aabbaa" stroke-width="1.3" stroke-opacity="0.533333" d="M2103.65,-688.18C1936.11,-687.98 1494.7,-683.16 1356,-639 1259.75,-608.36 1163,-620.01 1163,-519 1163,-519 1163,-519 1163,-367 1163,-309.09 1197.21,-293.82 1250,-270 1299.98,-247.45 2185.92,-281.93 2237,-262 2248.97,-257.33 2259.92,-248.59 2268.73,-239.83"/>
<polygon fill="#aabbaa" fill-opacity="0.533333" stroke="#aabbaa" stroke-width="1.3" stroke-opacity="0.533333" points="2271.16,-242.36 2275.43,-232.66 2266.04,-237.58 2271.16,-242.36"/>
</g>
<!-- /test/panels/tools/flood_fill_test.dart -->
<g id="node2" class="node">
<title>/test/panels/tools/flood_fill_test.dart</title>
<path fill="Lavender" stroke="black" stroke-width="1.3" d="M2349.5,-707C2349.5,-707 2270.5,-707 2270.5,-707 2264.5,-707 2258.5,-701 2258.5,-695 2258.5,-695 2258.5,-683 2258.5,-683 2258.5,-677 2264.5,-671 2270.5,-671 2270.5,-671 2349.5,-671 2349.5,-671 2355.5,-671 2361.5,-677 2361.5,-683 2361.5,-683 2361.5,-695 2361.5,-695 2361.5,-701 2355.5,-707 2349.5,-707"/>
<text text-anchor="middle" x="2310" y="-683.75" font-family="Arial" font-size="15.00">flood_fill_test</text>
</g>
<!-- /lib/panels/tools/flood_fill.dart -->
<g id="node8" class="node">
<title>/lib/panels/tools/flood_fill.dart</title>
<path fill="Lavender" stroke="black" stroke-width="1.3" d="M1368,-386C1368,-386 1322,-386 1322,-386 1316,-386 1310,-380 1310,-374 1310,-374 1310,-362 1310,-362 1310,-356 1316,-350 1322,-350 1322,-350 1368,-350 1368,-350 1374,-350 1380,-356 1380,-362 1380,-362 1380,-374 1380,-374 1380,-380 1374,-386 1368,-386"/>
<text text-anchor="middle" x="1345" y="-362.75" font-family="Arial" font-size="15.00">flood_fill</text>
</g>
<!-- /test/panels/tools/flood_fill_test.dart&#45;&gt;/lib/panels/tools/flood_fill.dart -->
<g id="edge2" class="edge">
<title>/test/panels/tools/flood_fill_test.dart&#45;&gt;/lib/panels/tools/flood_fill.dart</title>
<path fill="none" stroke="#aabbaa" stroke-width="1.3" stroke-opacity="0.533333" d="M2292.86,-670.73C2282.77,-661.8 2269.22,-651.79 2255,-647 2232.65,-639.47 1424.35,-653.81 1406,-639 1333.16,-580.22 1335.85,-454.59 1341.3,-397.86"/>
<polygon fill="#aabbaa" fill-opacity="0.533333" stroke="#aabbaa" stroke-width="1.3" stroke-opacity="0.533333" points="1344.75,-398.5 1342.34,-388.19 1337.79,-397.75 1344.75,-398.5"/>
</g>
<!-- /test/widget_test.dart -->
<g id="node3" class="node">
<title>/test/widget_test.dart</title>
<path fill="Lavender" stroke="black" stroke-width="1.3" d="M2465.88,-707C2465.88,-707 2398.12,-707 2398.12,-707 2392.12,-707 2386.12,-701 2386.12,-695 2386.12,-695 2386.12,-683 2386.12,-683 2386.12,-677 2392.12,-671 2398.12,-671 2398.12,-671 2465.88,-671 2465.88,-671 2471.88,-671 2477.88,-677 2477.88,-683 2477.88,-683 2477.88,-695 2477.88,-695 2477.88,-701 2471.88,-707 2465.88,-707"/>
<text text-anchor="middle" x="2432" y="-683.75" font-family="Arial" font-size="15.00">widget_test</text>
</g>
<!-- /lib/main.dart -->
<g id="node23" class="node">
<title>/lib/main.dart</title>
<path fill="Lavender" stroke="black" stroke-width="1.3" d="M2324,-608C2324,-608 2294,-608 2294,-608 2288,-608 2282,-602 2282,-596 2282,-596 2282,-584 2282,-584 2282,-578 2288,-572 2294,-572 2294,-572 2324,-572 2324,-572 2330,-572 2336,-578 2336,-584 2336,-584 2336,-596 2336,-596 2336,-602 2330,-608 2324,-608"/>
<text text-anchor="middle" x="2309" y="-584.75" font-family="Arial" font-size="15.00">main</text>
</g>
<!-- /test/widget_test.dart&#45;&gt;/lib/main.dart -->
<g id="edge3" class="edge">
<title>/test/widget_test.dart&#45;&gt;/lib/main.dart</title>
<path fill="none" stroke="#aabbaa" stroke-width="1.3" stroke-opacity="0.533333" d="M2410.01,-670.66C2390.51,-655.28 2361.81,-632.65 2339.99,-615.44"/>
<polygon fill="#aabbaa" fill-opacity="0.533333" stroke="#aabbaa" stroke-width="1.3" stroke-opacity="0.533333" points="2342.36,-612.85 2332.34,-609.41 2338.03,-618.35 2342.36,-612.85"/>
</g>
<!-- /test/file_xcf_test.dart -->
<g id="node4" class="node">
<title>/test/file_xcf_test.dart</title>
<path fill="Lavender" stroke="black" stroke-width="1.3" d="M2579.75,-707C2579.75,-707 2508.25,-707 2508.25,-707 2502.25,-707 2496.25,-701 2496.25,-695 2496.25,-695 2496.25,-683 2496.25,-683 2496.25,-677 2502.25,-671 2508.25,-671 2508.25,-671 2579.75,-671 2579.75,-671 2585.75,-671 2591.75,-677 2591.75,-683 2591.75,-683 2591.75,-695 2591.75,-695 2591.75,-701 2585.75,-707 2579.75,-707"/>
<text text-anchor="middle" x="2544" y="-683.75" font-family="Arial" font-size="15.00">file_xcf_test</text>
</g>
<!-- /lib/files/xcf_reader.dart -->
<g id="node24" class="node">
<title>/lib/files/xcf_reader.dart</title>
<path fill="Lavender" stroke="black" stroke-width="1.3" d="M2943.62,-386C2943.62,-386 2880.38,-386 2880.38,-386 2874.38,-386 2868.38,-380 2868.38,-374 2868.38,-374 2868.38,-362 2868.38,-362 2868.38,-356 2874.38,-350 2880.38,-350 2880.38,-350 2943.62,-350 2943.62,-350 2949.62,-350 2955.62,-356 2955.62,-362 2955.62,-362 2955.62,-374 2955.62,-374 2955.62,-380 2949.62,-386 2943.62,-386"/>
<text text-anchor="middle" x="2912" y="-362.75" font-family="Arial" font-size="15.00">xcf_reader</text>
</g>
<!-- /test/file_xcf_test.dart&#45;&gt;/lib/files/xcf_reader.dart -->
<g id="edge5" class="edge">
<title>/test/file_xcf_test.dart&#45;&gt;/lib/files/xcf_reader.dart</title>
<path fill="none" stroke="#aabbaa" stroke-width="1.3" stroke-opacity="0.533333" d="M2562.19,-670.7C2572.68,-661.88 2586.6,-651.99 2601,-647 2620.23,-640.34 2767.84,-651.37 2784,-639 2863.24,-578.33 2798.67,-509.35 2852,-425 2854.43,-421.16 2869.33,-407.25 2883.67,-394.25"/>
<polygon fill="#aabbaa" fill-opacity="0.533333" stroke="#aabbaa" stroke-width="1.3" stroke-opacity="0.533333" points="2885.86,-396.99 2890.95,-387.69 2881.18,-391.79 2885.86,-396.99"/>
</g>
<!-- /lib/files/assets_helper.dart -->
<g id="node25" class="node">
<title>/lib/files/assets_helper.dart</title>
<path fill="Lavender" stroke="black" stroke-width="1.3" d="M3070.5,-386C3070.5,-386 2985.5,-386 2985.5,-386 2979.5,-386 2973.5,-380 2973.5,-374 2973.5,-374 2973.5,-362 2973.5,-362 2973.5,-356 2979.5,-350 2985.5,-350 2985.5,-350 3070.5,-350 3070.5,-350 3076.5,-350 3082.5,-356 3082.5,-362 3082.5,-362 3082.5,-374 3082.5,-374 3082.5,-380 3076.5,-386 3070.5,-386"/>
<text text-anchor="middle" x="3028" y="-362.75" font-family="Arial" font-size="15.00">assets_helper</text>
</g>
<!-- /test/file_xcf_test.dart&#45;&gt;/lib/files/assets_helper.dart -->
<g id="edge4" class="edge">
<title>/test/file_xcf_test.dart&#45;&gt;/lib/files/assets_helper.dart</title>
<path fill="none" stroke="#aabbaa" stroke-width="1.3" stroke-opacity="0.533333" d="M2562.18,-670.67C2572.66,-661.84 2586.59,-651.95 2601,-647 2622.98,-639.45 2789.23,-649.42 2810,-639 2916.05,-585.81 2987.95,-454.67 3015.48,-396.99"/>
<polygon fill="#aabbaa" fill-opacity="0.533333" stroke="#aabbaa" stroke-width="1.3" stroke-opacity="0.533333" points="3018.64,-398.49 3019.7,-387.95 3012.3,-395.53 3018.64,-398.49"/>
</g>
<!-- /test/layers_test.dart -->
<g id="node5" class="node">
<title>/test/layers_test.dart</title>
<path fill="Lavender" stroke="black" stroke-width="1.3" d="M2686.38,-707C2686.38,-707 2621.62,-707 2621.62,-707 2615.62,-707 2609.62,-701 2609.62,-695 2609.62,-695 2609.62,-683 2609.62,-683 2609.62,-677 2615.62,-671 2621.62,-671 2621.62,-671 2686.38,-671 2686.38,-671 2692.38,-671 2698.38,-677 2698.38,-683 2698.38,-683 2698.38,-695 2698.38,-695 2698.38,-701 2692.38,-707 2686.38,-707"/>
<text text-anchor="middle" x="2654" y="-683.75" font-family="Arial" font-size="15.00">layers_test</text>
</g>
<!-- /lib/models/layer.dart -->
<g id="node22" class="node">
<title>/lib/models/layer.dart</title>
<path fill="Lavender" stroke="black" stroke-width="1.3" d="M2218,-314C2218,-314 2188,-314 2188,-314 2182,-314 2176,-308 2176,-302 2176,-302 2176,-290 2176,-290 2176,-284 2182,-278 2188,-278 2188,-278 2218,-278 2218,-278 2224,-278 2230,-284 2230,-290 2230,-290 2230,-302 2230,-302 2230,-308 2224,-314 2218,-314"/>
<text text-anchor="middle" x="2203" y="-290.75" font-family="Arial" font-size="15.00">layer</text>
</g>
<!-- /test/layers_test.dart&#45;&gt;/lib/models/layer.dart -->
<g id="edge6" class="edge">
<title>/test/layers_test.dart&#45;&gt;/lib/models/layer.dart</title>
<path fill="none" stroke="#aabbaa" stroke-width="1.3" stroke-opacity="0.533333" d="M2698.59,-680.98C2811.91,-661.88 3102,-604.62 3102,-519 3102,-519 3102,-519 3102,-442 3102,-400.99 3124.4,-378.59 3095,-350 3065.17,-320.99 2388.46,-317.44 2347,-314 2311.33,-311.04 2270.86,-306.12 2241.93,-302.34"/>
<polygon fill="#aabbaa" fill-opacity="0.533333" stroke="#aabbaa" stroke-width="1.3" stroke-opacity="0.533333" points="2242.6,-298.9 2232.23,-301.05 2241.68,-305.84 2242.6,-298.9"/>
</g>
<!-- /lib/panels/about.dart -->
<g id="node6" class="node">
<title>/lib/panels/about.dart</title>
<path fill="Lavender" stroke="black" stroke-width="1.3" d="M1602,-314C1602,-314 1572,-314 1572,-314 1566,-314 1560,-308 1560,-302 1560,-302 1560,-290 1560,-290 1560,-284 1566,-278 1572,-278 1572,-278 1602,-278 1602,-278 1608,-278 1614,-284 1614,-290 1614,-290 1614,-302 1614,-302 1614,-308 1608,-314 1602,-314"/>
<text text-anchor="middle" x="1587" y="-290.75" font-family="Arial" font-size="15.00">about</text>
</g>
<!-- /lib/panels/tools/tool_selector.dart -->
<g id="node7" class="node">
<title>/lib/panels/tools/tool_selector.dart</title>
<path fill="Lavender" stroke="black" stroke-width="1.3" d="M1530.38,-314C1530.38,-314 1453.62,-314 1453.62,-314 1447.62,-314 1441.62,-308 1441.62,-302 1441.62,-302 1441.62,-290 1441.62,-290 1441.62,-284 1447.62,-278 1453.62,-278 1453.62,-278 1530.38,-278 1530.38,-278 1536.38,-278 1542.38,-284 1542.38,-290 1542.38,-290 1542.38,-302 1542.38,-302 1542.38,-308 1536.38,-314 1530.38,-314"/>
<text text-anchor="middle" x="1492" y="-290.75" font-family="Arial" font-size="15.00">tool_selector</text>
</g>
<!-- /lib/panels/tools/tools_panel.dart -->
<g id="node9" class="node">
<title>/lib/panels/tools/tools_panel.dart</title>
<path fill="Lavender" stroke="black" stroke-width="1.3" d="M1477.88,-386C1477.88,-386 1410.12,-386 1410.12,-386 1404.12,-386 1398.12,-380 1398.12,-374 1398.12,-374 1398.12,-362 1398.12,-362 1398.12,-356 1404.12,-350 1410.12,-350 1410.12,-350 1477.88,-350 1477.88,-350 1483.88,-350 1489.88,-356 1489.88,-362 1489.88,-362 1489.88,-374 1489.88,-374 1489.88,-380 1483.88,-386 1477.88,-386"/>
<text text-anchor="middle" x="1444" y="-362.75" font-family="Arial" font-size="15.00">tools_panel</text>
</g>
<!-- /lib/panels/tools/tools_panel.dart&#45;&gt;/lib/panels/tools/tool_selector.dart -->
<g id="edge9" class="edge">
<title>/lib/panels/tools/tools_panel.dart&#45;&gt;/lib/panels/tools/tool_selector.dart</title>
<path fill="none" stroke="#aabbaa" stroke-width="1.3" stroke-opacity="0.533333" d="M1455.87,-349.7C1461.21,-341.9 1467.65,-332.51 1473.6,-323.83"/>
<polygon fill="#aabbaa" fill-opacity="0.533333" stroke="#aabbaa" stroke-width="1.3" stroke-opacity="0.533333" points="1476.39,-325.95 1479.16,-315.73 1470.62,-322 1476.39,-325.95"/>
</g>
<!-- /lib/panels/tools/tool_attributes_widget.dart -->
<g id="node10" class="node">
<title>/lib/panels/tools/tool_attributes_widget.dart</title>
<path fill="Lavender" stroke="black" stroke-width="1.3" d="M1411.75,-314C1411.75,-314 1274.25,-314 1274.25,-314 1268.25,-314 1262.25,-308 1262.25,-302 1262.25,-302 1262.25,-290 1262.25,-290 1262.25,-284 1268.25,-278 1274.25,-278 1274.25,-278 1411.75,-278 1411.75,-278 1417.75,-278 1423.75,-284 1423.75,-290 1423.75,-290 1423.75,-302 1423.75,-302 1423.75,-308 1417.75,-314 1411.75,-314"/>
<text text-anchor="middle" x="1343" y="-290.75" font-family="Arial" font-size="15.00">tool_attributes_widget</text>
</g>
<!-- /lib/panels/tools/tools_panel.dart&#45;&gt;/lib/panels/tools/tool_attributes_widget.dart -->
<g id="edge8" class="edge">
<title>/lib/panels/tools/tools_panel.dart&#45;&gt;/lib/panels/tools/tool_attributes_widget.dart</title>
<path fill="none" stroke="#aabbaa" stroke-width="1.3" stroke-opacity="0.533333" d="M1418.77,-349.52C1406.27,-340.85 1390.97,-330.25 1377.41,-320.85"/>
<polygon fill="#aabbaa" fill-opacity="0.533333" stroke="#aabbaa" stroke-width="1.3" stroke-opacity="0.533333" points="1379.73,-318.2 1369.52,-315.38 1375.75,-323.95 1379.73,-318.2"/>
</g>
<!-- /lib/panels/tools/tools_panel.dart&#45;&gt;/lib/models/app_model.dart -->
<g id="edge7" class="edge">
<title>/lib/panels/tools/tools_panel.dart&#45;&gt;/lib/models/app_model.dart</title>
<path fill="none" stroke="#aabbaa" stroke-width="1.3" stroke-opacity="0.533333" d="M1490.14,-362.27C1525.2,-358.72 1574.61,-353.85 1618,-350 1718.37,-341.1 1982.1,-363.25 2070,-314 2091.09,-302.18 2080.79,-281.61 2102,-270 2128.37,-255.58 2209.29,-273.64 2237,-262 2248.67,-257.1 2259.46,-248.48 2268.21,-239.89"/>
<polygon fill="#aabbaa" fill-opacity="0.533333" stroke="#aabbaa" stroke-width="1.3" stroke-opacity="0.533333" points="2270.53,-242.53 2274.89,-232.87 2265.46,-237.7 2270.53,-242.53"/>
</g>
<!-- /lib/widgets/svg_icon.dart -->
<g id="node34" class="node">
<title>/lib/widgets/svg_icon.dart</title>
<path fill="Lavender" stroke="black" stroke-width="1.3" d="M208.25,-231C208.25,-231 157.75,-231 157.75,-231 151.75,-231 145.75,-225 145.75,-219 145.75,-219 145.75,-207 145.75,-207 145.75,-201 151.75,-195 157.75,-195 157.75,-195 208.25,-195 208.25,-195 214.25,-195 220.25,-201 220.25,-207 220.25,-207 220.25,-219 220.25,-219 220.25,-225 214.25,-231 208.25,-231"/>
<text text-anchor="middle" x="183" y="-207.75" font-family="Arial" font-size="15.00">svg_icon</text>
</g>
<!-- /lib/panels/tools/tools_panel.dart&#45;&gt;/lib/widgets/svg_icon.dart -->
<g id="edge12" class="edge">
<title>/lib/panels/tools/tools_panel.dart&#45;&gt;/lib/widgets/svg_icon.dart</title>
<path fill="none" stroke="#aabbaa" stroke-width="1.3" stroke-opacity="0.533333" d="M1397.88,-352.37C1394.89,-351.53 1391.91,-350.74 1389,-350 1309.49,-329.86 1272.28,-364.95 1208,-314 1191.17,-300.66 1206.01,-281.7 1188,-270 1165.66,-255.48 253.46,-272.56 229,-262 218.26,-257.36 208.82,-248.88 201.32,-240.31"/>
<polygon fill="#aabbaa" fill-opacity="0.533333" stroke="#aabbaa" stroke-width="1.3" stroke-opacity="0.533333" points="204.21,-238.32 195.22,-232.7 198.75,-242.7 204.21,-238.32"/>
</g>
<!-- /lib/widgets/brush_size_picker.dart -->
<g id="node37" class="node">
<title>/lib/widgets/brush_size_picker.dart</title>
<path fill="Lavender" stroke="black" stroke-width="1.3" d="M362,-231C362,-231 250,-231 250,-231 244,-231 238,-225 238,-219 238,-219 238,-207 238,-207 238,-201 244,-195 250,-195 250,-195 362,-195 362,-195 368,-195 374,-201 374,-207 374,-207 374,-219 374,-219 374,-225 368,-231 362,-231"/>
<text text-anchor="middle" x="306" y="-207.75" font-family="Arial" font-size="15.00">brush_size_picker</text>
</g>
<!-- /lib/panels/tools/tools_panel.dart&#45;&gt;/lib/widgets/brush_size_picker.dart -->
<g id="edge10" class="edge">
<title>/lib/panels/tools/tools_panel.dart&#45;&gt;/lib/widgets/brush_size_picker.dart</title>
<path fill="none" stroke="#aabbaa" stroke-width="1.3" stroke-opacity="0.533333" d="M1397.86,-352.45C1394.87,-351.59 1391.9,-350.77 1389,-350 1318.14,-331.16 1284.92,-360.22 1228,-314 1211.33,-300.46 1226,-281.72 1208,-270 1188.79,-257.5 405,-268.41 383,-262 366.37,-257.15 349.82,-247.61 336.35,-238.31"/>
<polygon fill="#aabbaa" fill-opacity="0.533333" stroke="#aabbaa" stroke-width="1.3" stroke-opacity="0.533333" points="338.44,-235.5 328.29,-232.47 334.33,-241.17 338.44,-235.5"/>
</g>
<!-- /lib/widgets/tolerance_picker.dart -->
<g id="node39" class="node">
<title>/lib/widgets/tolerance_picker.dart</title>
<path fill="Lavender" stroke="black" stroke-width="1.3" d="M505.75,-231C505.75,-231 404.25,-231 404.25,-231 398.25,-231 392.25,-225 392.25,-219 392.25,-219 392.25,-207 392.25,-207 392.25,-201 398.25,-195 404.25,-195 404.25,-195 505.75,-195 505.75,-195 511.75,-195 517.75,-201 517.75,-207 517.75,-207 517.75,-219 517.75,-219 517.75,-225 511.75,-231 505.75,-231"/>
<text text-anchor="middle" x="455" y="-207.75" font-family="Arial" font-size="15.00">tolerance_picker</text>
</g>
<!-- /lib/panels/tools/tools_panel.dart&#45;&gt;/lib/widgets/tolerance_picker.dart -->
<g id="edge13" class="edge">
<title>/lib/panels/tools/tools_panel.dart&#45;&gt;/lib/widgets/tolerance_picker.dart</title>
<path fill="none" stroke="#aabbaa" stroke-width="1.3" stroke-opacity="0.533333" d="M1397.83,-352.58C1394.84,-351.69 1391.88,-350.83 1389,-350 1328.9,-332.76 1302.53,-352.16 1253,-314 1235.18,-300.27 1247.37,-281.42 1228,-270 1211.23,-260.11 545.61,-267.75 527,-262 511.37,-257.17 496.01,-247.76 483.52,-238.55"/>
<polygon fill="#aabbaa" fill-opacity="0.533333" stroke="#aabbaa" stroke-width="1.3" stroke-opacity="0.533333" points="485.77,-235.86 475.72,-232.5 481.47,-241.39 485.77,-235.86"/>
</g>
<!-- /lib/widgets/color_picker.dart -->
<g id="node43" class="node">
<title>/lib/widgets/color_picker.dart</title>
<path fill="Lavender" stroke="black" stroke-width="1.3" d="M116.12,-231C116.12,-231 43.88,-231 43.88,-231 37.88,-231 31.88,-225 31.88,-219 31.88,-219 31.88,-207 31.88,-207 31.88,-201 37.88,-195 43.88,-195 43.88,-195 116.12,-195 116.12,-195 122.12,-195 128.12,-201 128.12,-207 128.12,-207 128.12,-219 128.12,-219 128.12,-225 122.12,-231 116.12,-231"/>
<text text-anchor="middle" x="80" y="-207.75" font-family="Arial" font-size="15.00">color_picker</text>
</g>
<!-- /lib/panels/tools/tools_panel.dart&#45;&gt;/lib/widgets/color_picker.dart -->
<g id="edge11" class="edge">
<title>/lib/panels/tools/tools_panel.dart&#45;&gt;/lib/widgets/color_picker.dart</title>
<path fill="none" stroke="#aabbaa" stroke-width="1.3" stroke-opacity="0.533333" d="M1397.68,-351.86C1394.76,-351.16 1391.85,-350.53 1389,-350 1114.85,-298.7 395.49,-366.76 137,-262 124.64,-256.99 113,-248.24 103.49,-239.56"/>
<polygon fill="#aabbaa" fill-opacity="0.533333" stroke="#aabbaa" stroke-width="1.3" stroke-opacity="0.533333" points="106.11,-237.22 96.49,-232.77 101.23,-242.24 106.11,-237.22"/>
</g>
<!-- /lib/helpers/color_helper.dart -->
<g id="node33" class="node">
<title>/lib/helpers/color_helper.dart</title>
<path fill="Lavender" stroke="black" stroke-width="1.3" d="M1761.88,-140C1761.88,-140 1688.12,-140 1688.12,-140 1682.12,-140 1676.12,-134 1676.12,-128 1676.12,-128 1676.12,-116 1676.12,-116 1676.12,-110 1682.12,-104 1688.12,-104 1688.12,-104 1761.88,-104 1761.88,-104 1767.88,-104 1773.88,-110 1773.88,-116 1773.88,-116 1773.88,-128 1773.88,-128 1773.88,-134 1767.88,-140 1761.88,-140"/>
<text text-anchor="middle" x="1725" y="-116.75" font-family="Arial" font-size="15.00">color_helper</text>
</g>
<!-- /lib/panels/tools/tool_attributes_widget.dart&#45;&gt;/lib/helpers/color_helper.dart -->
<g id="edge14" class="edge">
<title>/lib/panels/tools/tool_attributes_widget.dart&#45;&gt;/lib/helpers/color_helper.dart</title>
<path fill="none" stroke="#aabbaa" stroke-width="1.3" stroke-opacity="0.533333" d="M1381.73,-277.56C1451.51,-246.14 1598.25,-180.07 1675.32,-145.37"/>
<polygon fill="#aabbaa" fill-opacity="0.533333" stroke="#aabbaa" stroke-width="1.3" stroke-opacity="0.533333" points="1676.69,-148.59 1684.37,-141.29 1673.82,-142.21 1676.69,-148.59"/>
</g>
<!-- /lib/widgets/transparent_background.dart -->
<g id="node38" class="node">
<title>/lib/widgets/transparent_background.dart</title>
<path fill="Lavender" stroke="black" stroke-width="1.3" d="M1218.38,-140C1218.38,-140 1063.62,-140 1063.62,-140 1057.62,-140 1051.62,-134 1051.62,-128 1051.62,-128 1051.62,-116 1051.62,-116 1051.62,-110 1057.62,-104 1063.62,-104 1063.62,-104 1218.38,-104 1218.38,-104 1224.38,-104 1230.38,-110 1230.38,-116 1230.38,-116 1230.38,-128 1230.38,-128 1230.38,-134 1224.38,-140 1218.38,-140"/>
<text text-anchor="middle" x="1141" y="-116.75" font-family="Arial" font-size="15.00">transparent_background</text>
</g>
<!-- /lib/panels/tools/tool_attributes_widget.dart&#45;&gt;/lib/widgets/transparent_background.dart -->
<g id="edge15" class="edge">
<title>/lib/panels/tools/tool_attributes_widget.dart&#45;&gt;/lib/widgets/transparent_background.dart</title>
<path fill="none" stroke="#aabbaa" stroke-width="1.3" stroke-opacity="0.533333" d="M1330.35,-277.68C1312.1,-253.52 1276.45,-209.26 1239,-179 1223.47,-166.46 1204.79,-155.03 1187.91,-145.82"/>
<polygon fill="#aabbaa" fill-opacity="0.533333" stroke="#aabbaa" stroke-width="1.3" stroke-opacity="0.533333" points="1189.9,-142.91 1179.42,-141.3 1186.61,-149.09 1189.9,-142.91"/>
</g>
<!-- /lib/panels/canvas_panel.dart -->
<g id="node11" class="node">
<title>/lib/panels/canvas_panel.dart</title>
<path fill="Lavender" stroke="black" stroke-width="1.3" d="M2043.75,-231C2043.75,-231 1960.25,-231 1960.25,-231 1954.25,-231 1948.25,-225 1948.25,-219 1948.25,-219 1948.25,-207 1948.25,-207 1948.25,-201 1954.25,-195 1960.25,-195 1960.25,-195 2043.75,-195 2043.75,-195 2049.75,-195 2055.75,-201 2055.75,-207 2055.75,-207 2055.75,-219 2055.75,-219 2055.75,-225 2049.75,-231 2043.75,-231"/>
<text text-anchor="middle" x="2002" y="-207.75" font-family="Arial" font-size="15.00">canvas_panel</text>
</g>
<!-- /lib/panels/canvas_panel.dart&#45;&gt;/lib/models/app_model.dart -->
<g id="edge16" class="edge">
<title>/lib/panels/canvas_panel.dart&#45;&gt;/lib/models/app_model.dart</title>
<path fill="none" stroke="#aabbaa" stroke-width="1.3" stroke-opacity="0.533333" d="M2030.21,-231.48C2051.43,-244.17 2081.77,-259.8 2111,-266 2123.72,-268.7 2215.28,-268.7 2228,-266 2232.28,-265.09 2233.34,-264.41 2237,-262 2246.69,-255.62 2256.29,-247.46 2264.61,-239.62"/>
<polygon fill="#aabbaa" fill-opacity="0.533333" stroke="#aabbaa" stroke-width="1.3" stroke-opacity="0.533333" points="2266.96,-242.22 2271.67,-232.73 2262.07,-237.21 2266.96,-242.22"/>
</g>
<!-- /lib/panels/canvas_panel.dart&#45;&gt;/lib/widgets/transparent_background.dart -->
<g id="edge17" class="edge">
<title>/lib/panels/canvas_panel.dart&#45;&gt;/lib/widgets/transparent_background.dart</title>
<path fill="none" stroke="#aabbaa" stroke-width="1.3" stroke-opacity="0.533333" d="M1947.95,-200.73C1910.52,-193.36 1859.44,-184.18 1814,-179 1747.67,-171.44 1730.59,-175.83 1664,-171 1517.33,-160.36 1347.88,-144.08 1242.57,-133.48"/>
<polygon fill="#aabbaa" fill-opacity="0.533333" stroke="#aabbaa" stroke-width="1.3" stroke-opacity="0.533333" points="1242.94,-130 1232.64,-132.48 1242.24,-136.97 1242.94,-130"/>
</g>
<!-- /lib/panels/layers/tools_and_layers_panel.dart -->
<g id="node12" class="node">
<title>/lib/panels/layers/tools_and_layers_panel.dart</title>
<path fill="Lavender" stroke="black" stroke-width="1.3" d="M1790.38,-386C1790.38,-386 1641.62,-386 1641.62,-386 1635.62,-386 1629.62,-380 1629.62,-374 1629.62,-374 1629.62,-362 1629.62,-362 1629.62,-356 1635.62,-350 1641.62,-350 1641.62,-350 1790.38,-350 1790.38,-350 1796.38,-350 1802.38,-356 1802.38,-362 1802.38,-362 1802.38,-374 1802.38,-374 1802.38,-380 1796.38,-386 1790.38,-386"/>
<text text-anchor="middle" x="1716" y="-362.75" font-family="Arial" font-size="15.00">tools_and_layers_panel</text>
</g>
<!-- /lib/panels/layers/tools_and_layers_panel.dart&#45;&gt;/lib/panels/about.dart -->
<g id="edge20" class="edge">
<title>/lib/panels/layers/tools_and_layers_panel.dart&#45;&gt;/lib/panels/about.dart</title>
<path fill="none" stroke="#aabbaa" stroke-width="1.3" stroke-opacity="0.533333" d="M1683.75,-349.62C1667.24,-340.71 1646.57,-329.53 1624.79,-317.69"/>
<polygon fill="#aabbaa" fill-opacity="0.533333" stroke="#aabbaa" stroke-width="1.3" stroke-opacity="0.533333" points="1626.56,-314.67 1616.11,-312.97 1623.22,-320.82 1626.56,-314.67"/>
</g>
<!-- /lib/panels/layers/layer_selector.dart -->
<g id="node13" class="node">
<title>/lib/panels/layers/layer_selector.dart</title>
<path fill="Lavender" stroke="black" stroke-width="1.3" d="M1729.5,-314C1729.5,-314 1644.5,-314 1644.5,-314 1638.5,-314 1632.5,-308 1632.5,-302 1632.5,-302 1632.5,-290 1632.5,-290 1632.5,-284 1638.5,-278 1644.5,-278 1644.5,-278 1729.5,-278 1729.5,-278 1735.5,-278 1741.5,-284 1741.5,-290 1741.5,-290 1741.5,-302 1741.5,-302 1741.5,-308 1735.5,-314 1729.5,-314"/>
<text text-anchor="middle" x="1687" y="-290.75" font-family="Arial" font-size="15.00">layer_selector</text>
</g>
<!-- /lib/panels/layers/tools_and_layers_panel.dart&#45;&gt;/lib/panels/layers/layer_selector.dart -->
<g id="edge22" class="edge">
<title>/lib/panels/layers/tools_and_layers_panel.dart&#45;&gt;/lib/panels/layers/layer_selector.dart</title>
<path fill="none" stroke="#aabbaa" stroke-width="1.3" stroke-opacity="0.533333" d="M1708.83,-349.7C1705.74,-342.24 1702.05,-333.32 1698.59,-324.97"/>
<polygon fill="#aabbaa" fill-opacity="0.533333" stroke="#aabbaa" stroke-width="1.3" stroke-opacity="0.533333" points="1701.9,-323.82 1694.84,-315.92 1695.43,-326.5 1701.9,-323.82"/>
</g>
<!-- /lib/panels/share_panel.dart -->
<g id="node16" class="node">
<title>/lib/panels/share_panel.dart</title>
<path fill="Lavender" stroke="black" stroke-width="1.3" d="M2045.88,-314C2045.88,-314 1972.12,-314 1972.12,-314 1966.12,-314 1960.12,-308 1960.12,-302 1960.12,-302 1960.12,-290 1960.12,-290 1960.12,-284 1966.12,-278 1972.12,-278 1972.12,-278 2045.88,-278 2045.88,-278 2051.88,-278 2057.88,-284 2057.88,-290 2057.88,-290 2057.88,-302 2057.88,-302 2057.88,-308 2051.88,-314 2045.88,-314"/>
<text text-anchor="middle" x="2009" y="-290.75" font-family="Arial" font-size="15.00">share_panel</text>
</g>
<!-- /lib/panels/layers/tools_and_layers_panel.dart&#45;&gt;/lib/panels/share_panel.dart -->
<g id="edge23" class="edge">
<title>/lib/panels/layers/tools_and_layers_panel.dart&#45;&gt;/lib/panels/share_panel.dart</title>
<path fill="none" stroke="#aabbaa" stroke-width="1.3" stroke-opacity="0.533333" d="M1799.51,-349.51C1841.65,-340.37 1893.77,-328.59 1948.38,-314.6"/>
<polygon fill="#aabbaa" fill-opacity="0.533333" stroke="#aabbaa" stroke-width="1.3" stroke-opacity="0.533333" points="1948.98,-318.06 1957.79,-312.17 1947.24,-311.28 1948.98,-318.06"/>
</g>
<!-- /lib/panels/canvas_settings.dart -->
<g id="node17" class="node">
<title>/lib/panels/canvas_settings.dart</title>
<path fill="Lavender" stroke="black" stroke-width="1.3" d="M1929.62,-314C1929.62,-314 1830.38,-314 1830.38,-314 1824.38,-314 1818.38,-308 1818.38,-302 1818.38,-302 1818.38,-290 1818.38,-290 1818.38,-284 1824.38,-278 1830.38,-278 1830.38,-278 1929.62,-278 1929.62,-278 1935.62,-278 1941.62,-284 1941.62,-290 1941.62,-290 1941.62,-302 1941.62,-302 1941.62,-308 1935.62,-314 1929.62,-314"/>
<text text-anchor="middle" x="1880" y="-290.75" font-family="Arial" font-size="15.00">canvas_settings</text>
</g>
<!-- /lib/panels/layers/tools_and_layers_panel.dart&#45;&gt;/lib/panels/canvas_settings.dart -->
<g id="edge21" class="edge">
<title>/lib/panels/layers/tools_and_layers_panel.dart&#45;&gt;/lib/panels/canvas_settings.dart</title>
<path fill="none" stroke="#aabbaa" stroke-width="1.3" stroke-opacity="0.533333" d="M1756.96,-349.52C1778.57,-340.29 1805.3,-328.89 1828.31,-319.06"/>
<polygon fill="#aabbaa" fill-opacity="0.533333" stroke="#aabbaa" stroke-width="1.3" stroke-opacity="0.533333" points="1829.64,-322.3 1837.47,-315.15 1826.9,-315.86 1829.64,-322.3"/>
</g>
<!-- /lib/panels/layers/tools_and_layers_panel.dart&#45;&gt;/lib/models/app_model.dart -->
<g id="edge19" class="edge">
<title>/lib/panels/layers/tools_and_layers_panel.dart&#45;&gt;/lib/models/app_model.dart</title>
<path fill="none" stroke="#aabbaa" stroke-width="1.3" stroke-opacity="0.533333" d="M1802.73,-366.29C1882.85,-363.06 2003.93,-351.56 2102,-314 2134.58,-301.52 2134.28,-282.11 2167,-270 2196.37,-259.13 2208.47,-274.91 2237,-262 2248.54,-256.78 2259.29,-248.1 2268.06,-239.55"/>
<polygon fill="#aabbaa" fill-opacity="0.533333" stroke="#aabbaa" stroke-width="1.3" stroke-opacity="0.533333" points="2270.35,-242.22 2274.76,-232.58 2265.3,-237.37 2270.35,-242.22"/>
</g>
<!-- /lib/files/import_files.dart -->
<g id="node30" class="node">
<title>/lib/files/import_files.dart</title>
<path fill="Lavender" stroke="black" stroke-width="1.3" d="M2838.25,-386C2838.25,-386 2769.75,-386 2769.75,-386 2763.75,-386 2757.75,-380 2757.75,-374 2757.75,-374 2757.75,-362 2757.75,-362 2757.75,-356 2763.75,-350 2769.75,-350 2769.75,-350 2838.25,-350 2838.25,-350 2844.25,-350 2850.25,-356 2850.25,-362 2850.25,-362 2850.25,-374 2850.25,-374 2850.25,-380 2844.25,-386 2838.25,-386"/>
<text text-anchor="middle" x="2804" y="-362.75" font-family="Arial" font-size="15.00">import_files</text>
</g>
<!-- /lib/panels/layers/tools_and_layers_panel.dart&#45;&gt;/lib/files/import_files.dart -->
<g id="edge18" class="edge">
<title>/lib/panels/layers/tools_and_layers_panel.dart&#45;&gt;/lib/files/import_files.dart</title>
<path fill="none" stroke="#aabbaa" stroke-width="1.3" stroke-opacity="0.533333" d="M1802.74,-383.03C1882.55,-396.05 2004.34,-413.88 2111,-421 2145.81,-423.33 2704.87,-428.24 2739,-421 2755.68,-417.46 2770.71,-406.06 2782.1,-394.74"/>
<polygon fill="#aabbaa" fill-opacity="0.533333" stroke="#aabbaa" stroke-width="1.3" stroke-opacity="0.533333" points="2784.45,-397.35 2788.73,-387.66 2779.34,-392.57 2784.45,-397.35"/>
</g>
<!-- /lib/panels/layers/blend_mode.dart -->
<g id="node14" class="node">
<title>/lib/panels/layers/blend_mode.dart</title>
<path fill="Lavender" stroke="black" stroke-width="1.3" d="M1723.88,-231C1723.88,-231 1650.12,-231 1650.12,-231 1644.12,-231 1638.12,-225 1638.12,-219 1638.12,-219 1638.12,-207 1638.12,-207 1638.12,-201 1644.12,-195 1650.12,-195 1650.12,-195 1723.88,-195 1723.88,-195 1729.88,-195 1735.88,-201 1735.88,-207 1735.88,-207 1735.88,-219 1735.88,-219 1735.88,-225 1729.88,-231 1723.88,-231"/>
<text text-anchor="middle" x="1687" y="-207.75" font-family="Arial" font-size="15.00">blend_mode</text>
</g>
<!-- /lib/panels/layers/layer_selector.dart&#45;&gt;/lib/panels/layers/blend_mode.dart -->
<g id="edge25" class="edge">
<title>/lib/panels/layers/layer_selector.dart&#45;&gt;/lib/panels/layers/blend_mode.dart</title>
<path fill="none" stroke="#aabbaa" stroke-width="1.3" stroke-opacity="0.533333" d="M1687,-277.82C1687,-267.8 1687,-254.88 1687,-243.29"/>
<polygon fill="#aabbaa" fill-opacity="0.533333" stroke="#aabbaa" stroke-width="1.3" stroke-opacity="0.533333" points="1690.5,-243.4 1687,-233.4 1683.5,-243.4 1690.5,-243.4"/>
</g>
<!-- /lib/panels/layers/layer_selector.dart&#45;&gt;/lib/models/app_model.dart -->
<g id="edge24" class="edge">
<title>/lib/panels/layers/layer_selector.dart&#45;&gt;/lib/models/app_model.dart</title>
<path fill="none" stroke="#aabbaa" stroke-width="1.3" stroke-opacity="0.533333" d="M1722.16,-277.52C1729.84,-274.44 1738.05,-271.68 1746,-270 1772.69,-264.35 2211.63,-272.02 2237,-262 2248.95,-257.28 2259.9,-248.53 2268.71,-239.78"/>
<polygon fill="#aabbaa" fill-opacity="0.533333" stroke="#aabbaa" stroke-width="1.3" stroke-opacity="0.533333" points="2271.13,-242.31 2275.41,-232.62 2266.02,-237.53 2271.13,-242.31"/>
</g>
<!-- /lib/widgets/truncated_text.dart -->
<g id="node35" class="node">
<title>/lib/widgets/truncated_text.dart</title>
<path fill="Lavender" stroke="black" stroke-width="1.3" d="M904,-231C904,-231 816,-231 816,-231 810,-231 804,-225 804,-219 804,-219 804,-207 804,-207 804,-201 810,-195 816,-195 816,-195 904,-195 904,-195 910,-195 916,-201 916,-207 916,-207 916,-219 916,-219 916,-225 910,-231 904,-231"/>
<text text-anchor="middle" x="860" y="-207.75" font-family="Arial" font-size="15.00">truncated_text</text>
</g>
<!-- /lib/panels/layers/layer_selector.dart&#45;&gt;/lib/widgets/truncated_text.dart -->
<g id="edge29" class="edge">
<title>/lib/panels/layers/layer_selector.dart&#45;&gt;/lib/widgets/truncated_text.dart</title>
<path fill="none" stroke="#aabbaa" stroke-width="1.3" stroke-opacity="0.533333" d="M1652.77,-277.61C1645.13,-274.48 1636.94,-271.68 1629,-270 1590.74,-261.88 962.08,-274.44 925,-262 910.8,-257.24 897.15,-248.1 886.05,-239.07"/>
<polygon fill="#aabbaa" fill-opacity="0.533333" stroke="#aabbaa" stroke-width="1.3" stroke-opacity="0.533333" points="888.35,-236.43 878.49,-232.55 883.78,-241.73 888.35,-236.43"/>
</g>
<!-- /lib/widgets/container_slider.dart -->
<g id="node36" class="node">
<title>/lib/widgets/container_slider.dart</title>
<path fill="Lavender" stroke="black" stroke-width="1.3" d="M773.5,-231C773.5,-231 676.5,-231 676.5,-231 670.5,-231 664.5,-225 664.5,-219 664.5,-219 664.5,-207 664.5,-207 664.5,-201 670.5,-195 676.5,-195 676.5,-195 773.5,-195 773.5,-195 779.5,-195 785.5,-201 785.5,-207 785.5,-207 785.5,-219 785.5,-219 785.5,-225 779.5,-231 773.5,-231"/>
<text text-anchor="middle" x="725" y="-207.75" font-family="Arial" font-size="15.00">container_slider</text>
</g>
<!-- /lib/panels/layers/layer_selector.dart&#45;&gt;/lib/widgets/container_slider.dart -->
<g id="edge26" class="edge">
<title>/lib/panels/layers/layer_selector.dart&#45;&gt;/lib/widgets/container_slider.dart</title>
<path fill="none" stroke="#aabbaa" stroke-width="1.3" stroke-opacity="0.533333" d="M1652.77,-277.6C1645.13,-274.47 1636.94,-271.68 1629,-270 1583.67,-260.42 839.19,-275.93 795,-262 779.7,-257.18 764.75,-247.77 752.62,-238.56"/>
<polygon fill="#aabbaa" fill-opacity="0.533333" stroke="#aabbaa" stroke-width="1.3" stroke-opacity="0.533333" points="755.08,-236.04 745.08,-232.53 750.7,-241.51 755.08,-236.04"/>
</g>
<!-- /lib/panels/layers/layer_selector.dart&#45;&gt;/lib/widgets/transparent_background.dart -->
<g id="edge28" class="edge">
<title>/lib/panels/layers/layer_selector.dart&#45;&gt;/lib/widgets/transparent_background.dart</title>
<path fill="none" stroke="#aabbaa" stroke-width="1.3" stroke-opacity="0.533333" d="M1648.25,-277.57C1641.87,-274.91 1635.28,-272.29 1629,-270 1486.62,-218.06 1316.3,-169.82 1219.17,-143.58"/>
<polygon fill="#aabbaa" fill-opacity="0.533333" stroke="#aabbaa" stroke-width="1.3" stroke-opacity="0.533333" points="1220.16,-140.22 1209.6,-141 1218.34,-146.98 1220.16,-140.22"/>
</g>
<!-- /lib/widgets/image_painter.dart -->
<g id="node40" class="node">
<title>/lib/widgets/image_painter.dart</title>
<path fill="Lavender" stroke="black" stroke-width="1.3" d="M634.25,-231C634.25,-231 547.75,-231 547.75,-231 541.75,-231 535.75,-225 535.75,-219 535.75,-219 535.75,-207 535.75,-207 535.75,-201 541.75,-195 547.75,-195 547.75,-195 634.25,-195 634.25,-195 640.25,-195 646.25,-201 646.25,-207 646.25,-207 646.25,-219 646.25,-219 646.25,-225 640.25,-231 634.25,-231"/>
<text text-anchor="middle" x="591" y="-207.75" font-family="Arial" font-size="15.00">image_painter</text>
</g>
<!-- /lib/panels/layers/layer_selector.dart&#45;&gt;/lib/widgets/image_painter.dart -->
<g id="edge27" class="edge">
<title>/lib/panels/layers/layer_selector.dart&#45;&gt;/lib/widgets/image_painter.dart</title>
<path fill="none" stroke="#aabbaa" stroke-width="1.3" stroke-opacity="0.533333" d="M1652.78,-277.59C1645.14,-274.47 1636.94,-271.67 1629,-270 1576.1,-258.86 707.28,-279.11 656,-262 641.8,-257.26 628.14,-248.13 617.04,-239.09"/>
<polygon fill="#aabbaa" fill-opacity="0.533333" stroke="#aabbaa" stroke-width="1.3" stroke-opacity="0.533333" points="619.34,-236.46 609.48,-232.57 614.77,-241.75 619.34,-236.46"/>
</g>
<!-- /lib/panels/side_panel.dart -->
<g id="node15" class="node">
<title>/lib/panels/side_panel.dart</title>
<path fill="Lavender" stroke="black" stroke-width="1.3" d="M1990.62,-461C1990.62,-461 1927.38,-461 1927.38,-461 1921.38,-461 1915.38,-455 1915.38,-449 1915.38,-449 1915.38,-437 1915.38,-437 1915.38,-431 1921.38,-425 1927.38,-425 1927.38,-425 1990.62,-425 1990.62,-425 1996.62,-425 2002.62,-431 2002.62,-437 2002.62,-437 2002.62,-449 2002.62,-449 2002.62,-455 1996.62,-461 1990.62,-461"/>
<text text-anchor="middle" x="1959" y="-437.75" font-family="Arial" font-size="15.00">side_panel</text>
</g>
<!-- /lib/panels/side_panel.dart&#45;&gt;/lib/panels/tools/tools_panel.dart -->
<g id="edge32" class="edge">
<title>/lib/panels/side_panel.dart&#45;&gt;/lib/panels/tools/tools_panel.dart</title>
<path fill="none" stroke="#aabbaa" stroke-width="1.3" stroke-opacity="0.533333" d="M1914.94,-425.81C1913.62,-425.51 1912.3,-425.24 1911,-425 1846.96,-413.09 1682.42,-426.62 1618,-417 1578.32,-411.07 1534.81,-399.07 1501.23,-388.55"/>
<polygon fill="#aabbaa" fill-opacity="0.533333" stroke="#aabbaa" stroke-width="1.3" stroke-opacity="0.533333" points="1502.7,-385.35 1492.11,-385.65 1500.58,-392.02 1502.7,-385.35"/>
</g>
<!-- /lib/panels/side_panel.dart&#45;&gt;/lib/panels/layers/tools_and_layers_panel.dart -->
<g id="edge31" class="edge">
<title>/lib/panels/side_panel.dart&#45;&gt;/lib/panels/layers/tools_and_layers_panel.dart</title>
<path fill="none" stroke="#aabbaa" stroke-width="1.3" stroke-opacity="0.533333" d="M1914.92,-425.9C1913.61,-425.57 1912.3,-425.27 1911,-425 1865.21,-415.33 1850.94,-430.07 1806,-417 1787.03,-411.48 1767.5,-401.66 1751.5,-392.33"/>
<polygon fill="#aabbaa" fill-opacity="0.533333" stroke="#aabbaa" stroke-width="1.3" stroke-opacity="0.533333" points="1753.6,-389.51 1743.23,-387.34 1749.98,-395.5 1753.6,-389.51"/>
</g>
<!-- /lib/panels/side_panel.dart&#45;&gt;/lib/models/app_model.dart -->
<g id="edge30" class="edge">
<title>/lib/panels/side_panel.dart&#45;&gt;/lib/models/app_model.dart</title>
<path fill="none" stroke="#aabbaa" stroke-width="1.3" stroke-opacity="0.533333" d="M2003.06,-425.82C2004.38,-425.52 2005.7,-425.25 2007,-425 2019.73,-422.59 2230,-425.23 2240,-417 2291.76,-374.37 2257.23,-334.93 2274,-270 2276.33,-260.98 2279.05,-251.2 2281.59,-242.38"/>
<polygon fill="#aabbaa" fill-opacity="0.533333" stroke="#aabbaa" stroke-width="1.3" stroke-opacity="0.533333" points="2284.89,-243.56 2284.32,-232.98 2278.17,-241.61 2284.89,-243.56"/>
</g>
<!-- /lib/panels/share_panel.dart&#45;&gt;/lib/panels/canvas_panel.dart -->
<g id="edge34" class="edge">
<title>/lib/panels/share_panel.dart&#45;&gt;/lib/panels/canvas_panel.dart</title>
<path fill="none" stroke="#aabbaa" stroke-width="1.3" stroke-opacity="0.533333" d="M2007.52,-277.82C2006.65,-267.8 2005.53,-254.88 2004.53,-243.29"/>
<polygon fill="#aabbaa" fill-opacity="0.533333" stroke="#aabbaa" stroke-width="1.3" stroke-opacity="0.533333" points="2008.02,-243.05 2003.68,-233.39 2001.05,-243.66 2008.02,-243.05"/>
</g>
<!-- /lib/panels/share_panel.dart&#45;&gt;/lib/models/app_model.dart -->
<g id="edge33" class="edge">
<title>/lib/panels/share_panel.dart&#45;&gt;/lib/models/app_model.dart</title>
<path fill="none" stroke="#aabbaa" stroke-width="1.3" stroke-opacity="0.533333" d="M2058.13,-278.11C2069.16,-274.91 2080.88,-271.95 2092,-270 2123.78,-264.42 2207.22,-274.43 2237,-262 2248.68,-257.12 2259.47,-248.51 2268.22,-239.92"/>
<polygon fill="#aabbaa" fill-opacity="0.533333" stroke="#aabbaa" stroke-width="1.3" stroke-opacity="0.533333" points="2270.55,-242.55 2274.9,-232.89 2265.47,-237.73 2270.55,-242.55"/>
</g>
<!-- /lib/panels/canvas_settings.dart&#45;&gt;/lib/models/app_model.dart -->
<g id="edge35" class="edge">
<title>/lib/panels/canvas_settings.dart&#45;&gt;/lib/models/app_model.dart</title>
<path fill="none" stroke="#aabbaa" stroke-width="1.3" stroke-opacity="0.533333" d="M1922.59,-277.6C1931.82,-274.52 1941.62,-271.74 1951,-270 1982.26,-264.21 2207.5,-273.85 2237,-262 2248.92,-257.21 2259.87,-248.45 2268.68,-239.71"/>
<polygon fill="#aabbaa" fill-opacity="0.533333" stroke="#aabbaa" stroke-width="1.3" stroke-opacity="0.533333" points="2271.1,-242.25 2275.39,-232.56 2265.99,-237.46 2271.1,-242.25"/>
</g>
<!-- /lib/widgets/nine_grid_selector.dart -->
<g id="node42" class="node">
<title>/lib/widgets/nine_grid_selector.dart</title>
<path fill="Lavender" stroke="black" stroke-width="1.3" d="M1059.75,-231C1059.75,-231 946.25,-231 946.25,-231 940.25,-231 934.25,-225 934.25,-219 934.25,-219 934.25,-207 934.25,-207 934.25,-201 940.25,-195 946.25,-195 946.25,-195 1059.75,-195 1059.75,-195 1065.75,-195 1071.75,-201 1071.75,-207 1071.75,-207 1071.75,-219 1071.75,-219 1071.75,-225 1065.75,-231 1059.75,-231"/>
<text text-anchor="middle" x="1003" y="-207.75" font-family="Arial" font-size="15.00">nine_grid_selector</text>
</g>
<!-- /lib/panels/canvas_settings.dart&#45;&gt;/lib/widgets/nine_grid_selector.dart -->
<g id="edge36" class="edge">
<title>/lib/panels/canvas_settings.dart&#45;&gt;/lib/widgets/nine_grid_selector.dart</title>
<path fill="none" stroke="#aabbaa" stroke-width="1.3" stroke-opacity="0.533333" d="M1840.87,-277.61C1832.18,-274.48 1822.91,-271.68 1814,-270 1773.98,-262.45 1120.12,-273.3 1081,-262 1064.04,-257.1 1047.11,-247.42 1033.39,-238.03"/>
<polygon fill="#aabbaa" fill-opacity="0.533333" stroke="#aabbaa" stroke-width="1.3" stroke-opacity="0.533333" points="1035.77,-235.43 1025.6,-232.46 1031.7,-241.12 1035.77,-235.43"/>
</g>
<!-- /lib/models/layers.dart -->
<g id="node18" class="node">
<title>/lib/models/layers.dart</title>
<path fill="Lavender" stroke="black" stroke-width="1.3" d="M2218.88,-386C2218.88,-386 2187.12,-386 2187.12,-386 2181.12,-386 2175.12,-380 2175.12,-374 2175.12,-374 2175.12,-362 2175.12,-362 2175.12,-356 2181.12,-350 2187.12,-350 2187.12,-350 2218.88,-350 2218.88,-350 2224.88,-350 2230.88,-356 2230.88,-362 2230.88,-362 2230.88,-374 2230.88,-374 2230.88,-380 2224.88,-386 2218.88,-386"/>
<text text-anchor="middle" x="2203" y="-362.75" font-family="Arial" font-size="15.00">layers</text>
</g>
<!-- /lib/models/layers.dart&#45;&gt;/lib/models/layer.dart -->
<g id="edge38" class="edge">
<title>/lib/models/layers.dart&#45;&gt;/lib/models/layer.dart</title>
<path fill="none" stroke="#aabbaa" stroke-width="1.3" stroke-opacity="0.533333" d="M2197.08,-349.7C2196.34,-342.49 2196.09,-333.93 2196.34,-325.82"/>
<polygon fill="#aabbaa" fill-opacity="0.533333" stroke="#aabbaa" stroke-width="1.3" stroke-opacity="0.533333" points="2199.82,-326.27 2196.98,-316.07 2192.84,-325.82 2199.82,-326.27"/>
</g>
<!-- /lib/models/layers.dart&#45;&gt;/lib/models/layer.dart -->
<g id="edge39" class="edge">
<title>/lib/models/layers.dart&#45;&gt;/lib/models/layer.dart</title>
<path fill="none" stroke="#aabbaa" stroke-width="1.3" stroke-dasharray="5,2" stroke-opacity="0.533333" d="M2208.92,-349.7C2209.66,-342.49 2209.91,-333.93 2209.66,-325.82"/>
<polygon fill="#aabbaa" fill-opacity="0.533333" stroke="#aabbaa" stroke-width="1.3" stroke-opacity="0.533333" points="2213.16,-325.82 2209.02,-316.07 2206.18,-326.27 2213.16,-325.82"/>
</g>
<!-- /lib/helpers/list_helper.dart -->
<g id="node32" class="node">
<title>/lib/helpers/list_helper.dart</title>
<path fill="Lavender" stroke="black" stroke-width="1.3" d="M1761.75,-68C1761.75,-68 1702.25,-68 1702.25,-68 1696.25,-68 1690.25,-62 1690.25,-56 1690.25,-56 1690.25,-44 1690.25,-44 1690.25,-38 1696.25,-32 1702.25,-32 1702.25,-32 1761.75,-32 1761.75,-32 1767.75,-32 1773.75,-38 1773.75,-44 1773.75,-44 1773.75,-56 1773.75,-56 1773.75,-62 1767.75,-68 1761.75,-68"/>
<text text-anchor="middle" x="1732" y="-44.75" font-family="Arial" font-size="15.00">list_helper</text>
</g>
<!-- /lib/models/layers.dart&#45;&gt;/lib/helpers/list_helper.dart -->
<g id="edge37" class="edge">
<title>/lib/models/layers.dart&#45;&gt;/lib/helpers/list_helper.dart</title>
<path fill="none" stroke="#aabbaa" stroke-width="1.3" stroke-opacity="0.533333" d="M2176.04,-349.55C2163.9,-340.36 2150.43,-328.08 2142,-314 2131.7,-296.79 2145.56,-284.78 2132,-270 2124.11,-261.4 2115.69,-269.78 2107,-262 2076.92,-235.05 2099.37,-206.73 2070,-179 1989.29,-102.79 1858.73,-70.79 1785.75,-58.28"/>
<polygon fill="#aabbaa" fill-opacity="0.533333" stroke="#aabbaa" stroke-width="1.3" stroke-opacity="0.533333" points="1786.49,-54.86 1776.06,-56.69 1785.36,-61.76 1786.49,-54.86"/>
</g>
<!-- /lib/models/user_action.dart -->
<g id="node19" class="node">
<title>/lib/models/user_action.dart</title>
<path fill="Lavender" stroke="black" stroke-width="1.3" d="M2215.62,-231C2215.62,-231 2146.38,-231 2146.38,-231 2140.38,-231 2134.38,-225 2134.38,-219 2134.38,-219 2134.38,-207 2134.38,-207 2134.38,-201 2140.38,-195 2146.38,-195 2146.38,-195 2215.62,-195 2215.62,-195 2221.62,-195 2227.62,-201 2227.62,-207 2227.62,-207 2227.62,-219 2227.62,-219 2227.62,-225 2221.62,-231 2215.62,-231"/>
<text text-anchor="middle" x="2181" y="-207.75" font-family="Arial" font-size="15.00">user_action</text>
</g>
<!-- /lib/widgets/brush_style_picker.dart -->
<g id="node41" class="node">
<title>/lib/widgets/brush_style_picker.dart</title>
<path fill="Lavender" stroke="black" stroke-width="1.3" d="M1218.25,-231C1218.25,-231 1101.75,-231 1101.75,-231 1095.75,-231 1089.75,-225 1089.75,-219 1089.75,-219 1089.75,-207 1089.75,-207 1089.75,-201 1095.75,-195 1101.75,-195 1101.75,-195 1218.25,-195 1218.25,-195 1224.25,-195 1230.25,-201 1230.25,-207 1230.25,-207 1230.25,-219 1230.25,-219 1230.25,-225 1224.25,-231 1218.25,-231"/>
<text text-anchor="middle" x="1160" y="-207.75" font-family="Arial" font-size="15.00">brush_style_picker</text>
</g>
<!-- /lib/models/user_action.dart&#45;&gt;/lib/widgets/brush_style_picker.dart -->
<g id="edge40" class="edge">
<title>/lib/models/user_action.dart&#45;&gt;/lib/widgets/brush_style_picker.dart</title>
<path fill="none" stroke="#aabbaa" stroke-width="1.3" stroke-opacity="0.533333" d="M2165.63,-231.49C2153.3,-244.48 2134.69,-260.28 2114,-264.67 2100.69,-267.49 1637.59,-265.42 1624,-264.67 1489.87,-257.22 1334.94,-237.76 1242.35,-224.96"/>
<polygon fill="#aabbaa" fill-opacity="0.533333" stroke="#aabbaa" stroke-width="1.3" stroke-opacity="0.533333" points="1242.88,-221.5 1232.49,-223.59 1241.92,-228.44 1242.88,-221.5"/>
</g>
<!-- /lib/models/user_action.dart&#45;&gt;/lib/widgets/brush_style_picker.dart -->
<g id="edge41" class="edge">
<title>/lib/models/user_action.dart&#45;&gt;/lib/widgets/brush_style_picker.dart</title>
<path fill="none" stroke="#aabbaa" stroke-width="1.3" stroke-dasharray="5,2" stroke-opacity="0.533333" d="M2165.2,-231.26C2151.7,-245.08 2130.87,-262.48 2108,-267.33 2095.01,-270.09 1643.26,-268.1 1630,-267.33 1493.56,-259.47 1335.94,-238.88 1242.3,-225.42"/>
<polygon fill="#aabbaa" fill-opacity="0.533333" stroke="#aabbaa" stroke-width="1.3" stroke-opacity="0.533333" points="1242.99,-221.99 1232.59,-224.02 1241.99,-228.91 1242.99,-221.99"/>
</g>
<!-- /lib/models/app_model.dart&#45;&gt;/lib/models/layers.dart -->
<g id="edge43" class="edge">
<title>/lib/models/app_model.dart&#45;&gt;/lib/models/layers.dart</title>
<path fill="none" stroke="#aabbaa" stroke-width="1.3" stroke-dasharray="5,2" stroke-opacity="0.533333" d="M2281.97,-231.34C2272.42,-251.56 2255.67,-285.82 2239,-314 2233.9,-322.62 2227.94,-331.73 2222.35,-339.91"/>
<polygon fill="#aabbaa" fill-opacity="0.533333" stroke="#aabbaa" stroke-width="1.3" stroke-opacity="0.533333" points="2219.51,-337.86 2216.69,-348.07 2225.26,-341.86 2219.51,-337.86"/>
</g>
<!-- /lib/models/canvas.dart -->
<g id="node21" class="node">
<title>/lib/models/canvas.dart</title>
<path fill="Lavender" stroke="black" stroke-width="1.3" d="M2237.62,-140C2237.62,-140 2198.38,-140 2198.38,-140 2192.38,-140 2186.38,-134 2186.38,-128 2186.38,-128 2186.38,-116 2186.38,-116 2186.38,-110 2192.38,-104 2198.38,-104 2198.38,-104 2237.62,-104 2237.62,-104 2243.62,-104 2249.62,-110 2249.62,-116 2249.62,-116 2249.62,-128 2249.62,-128 2249.62,-134 2243.62,-140 2237.62,-140"/>
<text text-anchor="middle" x="2218" y="-116.75" font-family="Arial" font-size="15.00">canvas</text>
</g>
<!-- /lib/models/app_model.dart&#45;&gt;/lib/models/canvas.dart -->
<g id="edge42" class="edge">
<title>/lib/models/app_model.dart&#45;&gt;/lib/models/canvas.dart</title>
<path fill="none" stroke="#aabbaa" stroke-width="1.3" stroke-opacity="0.533333" d="M2276.12,-194.84C2265.73,-181.99 2251.32,-164.19 2239.45,-149.52"/>
<polygon fill="#aabbaa" fill-opacity="0.533333" stroke="#aabbaa" stroke-width="1.3" stroke-opacity="0.533333" points="2242.33,-147.51 2233.32,-141.94 2236.89,-151.92 2242.33,-147.51"/>
</g>
<!-- /lib/models/canvas.dart&#45;&gt;/lib/models/layers.dart -->
<g id="edge44" class="edge">
<title>/lib/models/canvas.dart&#45;&gt;/lib/models/layers.dart</title>
<path fill="none" stroke="#aabbaa" stroke-width="1.3" stroke-dasharray="5,2" stroke-opacity="0.533333" d="M2186.02,-132.92C2164.58,-141.43 2137.98,-156.03 2125,-179 2106.85,-211.12 2105.23,-230.85 2125,-262 2129.47,-269.05 2135.87,-264.33 2142,-270 2158.5,-285.28 2155.12,-294.9 2167,-314 2172.29,-322.5 2178.31,-331.57 2183.89,-339.77"/>
<polygon fill="#aabbaa" fill-opacity="0.533333" stroke="#aabbaa" stroke-width="1.3" stroke-opacity="0.533333" points="2180.97,-341.7 2189.53,-347.95 2186.74,-337.73 2180.97,-341.7"/>
</g>
<!-- /lib/models/layer.dart&#45;&gt;/lib/models/user_action.dart -->
<g id="edge47" class="edge">
<title>/lib/models/layer.dart&#45;&gt;/lib/models/user_action.dart</title>
<path fill="none" stroke="#aabbaa" stroke-width="1.3" stroke-dasharray="5,2" stroke-opacity="0.533333" d="M2198.33,-277.82C2195.58,-267.69 2192.03,-254.6 2188.85,-242.92"/>
<polygon fill="#aabbaa" fill-opacity="0.533333" stroke="#aabbaa" stroke-width="1.3" stroke-opacity="0.533333" points="2192.25,-242.06 2186.25,-233.33 2185.49,-243.9 2192.25,-242.06"/>
</g>
<!-- /lib/models/layer.dart&#45;&gt;/lib/models/app_model.dart -->
<g id="edge45" class="edge">
<title>/lib/models/layer.dart&#45;&gt;/lib/models/app_model.dart</title>
<path fill="none" stroke="#aabbaa" stroke-width="1.3" stroke-opacity="0.533333" d="M2221.45,-277.82C2233.48,-266.62 2249.39,-251.81 2262.85,-239.28"/>
<polygon fill="#aabbaa" fill-opacity="0.533333" stroke="#aabbaa" stroke-width="1.3" stroke-opacity="0.533333" points="2264.9,-242.15 2269.84,-232.77 2260.13,-237.03 2264.9,-242.15"/>
</g>
<!-- /lib/models/layer.dart&#45;&gt;/lib/widgets/transparent_background.dart -->
<g id="edge46" class="edge">
<title>/lib/models/layer.dart&#45;&gt;/lib/widgets/transparent_background.dart</title>
<path fill="none" stroke="#aabbaa" stroke-width="1.3" stroke-opacity="0.533333" d="M2184.67,-277.74C2180.73,-274.76 2176.41,-271.99 2172,-270 2152.68,-261.29 2142.76,-273.56 2125,-262 2087.91,-237.86 2108.78,-200.32 2070,-179 2050.23,-168.13 1686.53,-172.25 1664,-171 1517.17,-162.83 1347.76,-145.9 1242.5,-134.49"/>
<polygon fill="#aabbaa" fill-opacity="0.533333" stroke="#aabbaa" stroke-width="1.3" stroke-opacity="0.533333" points="1242.9,-131.02 1232.58,-133.41 1242.14,-137.97 1242.9,-131.02"/>
</g>
<!-- /lib/main.dart&#45;&gt;/lib/models/app_model.dart -->
<g id="edge49" class="edge">
<title>/lib/main.dart&#45;&gt;/lib/models/app_model.dart</title>
<path fill="none" stroke="#aabbaa" stroke-width="1.3" stroke-opacity="0.533333" d="M2309,-571.59C2309,-544.37 2309,-490.07 2309,-444 2309,-444 2309,-444 2309,-367 2309,-323.48 2301.34,-273.52 2295.74,-242.86"/>
<polygon fill="#aabbaa" fill-opacity="0.533333" stroke="#aabbaa" stroke-width="1.3" stroke-opacity="0.533333" points="2299.23,-242.46 2293.94,-233.28 2292.35,-243.76 2299.23,-242.46"/>
</g>
<!-- /lib/main_screen.dart -->
<g id="node31" class="node">
<title>/lib/main_screen.dart</title>
<path fill="Lavender" stroke="black" stroke-width="1.3" d="M2115.75,-536C2115.75,-536 2038.25,-536 2038.25,-536 2032.25,-536 2026.25,-530 2026.25,-524 2026.25,-524 2026.25,-512 2026.25,-512 2026.25,-506 2032.25,-500 2038.25,-500 2038.25,-500 2115.75,-500 2115.75,-500 2121.75,-500 2127.75,-506 2127.75,-512 2127.75,-512 2127.75,-524 2127.75,-524 2127.75,-530 2121.75,-536 2115.75,-536"/>
<text text-anchor="middle" x="2077" y="-512.75" font-family="Arial" font-size="15.00">main_screen</text>
</g>
<!-- /lib/main.dart&#45;&gt;/lib/main_screen.dart -->
<g id="edge48" class="edge">
<title>/lib/main.dart&#45;&gt;/lib/main_screen.dart</title>
<path fill="none" stroke="#aabbaa" stroke-width="1.3" stroke-opacity="0.533333" d="M2281.93,-580.83C2247.15,-570.34 2185.7,-551.8 2139.14,-537.75"/>
<polygon fill="#aabbaa" fill-opacity="0.533333" stroke="#aabbaa" stroke-width="1.3" stroke-opacity="0.533333" points="2140.42,-534.48 2129.83,-534.94 2138.39,-541.18 2140.42,-534.48"/>
</g>
<!-- /lib/files/xcf_reader.dart&#45;&gt;/lib/helpers/list_helper.dart -->
<g id="edge50" class="edge">
<title>/lib/files/xcf_reader.dart&#45;&gt;/lib/helpers/list_helper.dart</title>
<path fill="none" stroke="#aabbaa" stroke-width="1.3" stroke-opacity="0.533333" d="M2888.63,-349.85C2818.97,-299.8 2604.97,-153.87 2402,-96 2286.64,-63.11 1923.8,-54.02 1785.9,-51.72"/>
<polygon fill="#aabbaa" fill-opacity="0.533333" stroke="#aabbaa" stroke-width="1.3" stroke-opacity="0.533333" points="1786.06,-48.22 1776.01,-51.56 1785.95,-55.22 1786.06,-48.22"/>
</g>
<!-- /lib/files/file_jpeg.dart -->
<g id="node26" class="node">
<title>/lib/files/file_jpeg.dart</title>
<path fill="Lavender" stroke="black" stroke-width="1.3" d="M2481.38,-314C2481.38,-314 2434.62,-314 2434.62,-314 2428.62,-314 2422.62,-308 2422.62,-302 2422.62,-302 2422.62,-290 2422.62,-290 2422.62,-284 2428.62,-278 2434.62,-278 2434.62,-278 2481.38,-278 2481.38,-278 2487.38,-278 2493.38,-284 2493.38,-290 2493.38,-290 2493.38,-302 2493.38,-302 2493.38,-308 2487.38,-314 2481.38,-314"/>
<text text-anchor="middle" x="2458" y="-290.75" font-family="Arial" font-size="15.00">file_jpeg</text>
</g>
<!-- /lib/files/export_download_web.dart -->
<g id="node27" class="node">
<title>/lib/files/export_download_web.dart</title>
<path fill="Lavender" stroke="black" stroke-width="1.3" d="M2727.25,-386C2727.25,-386 2586.75,-386 2586.75,-386 2580.75,-386 2574.75,-380 2574.75,-374 2574.75,-374 2574.75,-362 2574.75,-362 2574.75,-356 2580.75,-350 2586.75,-350 2586.75,-350 2727.25,-350 2727.25,-350 2733.25,-350 2739.25,-356 2739.25,-362 2739.25,-362 2739.25,-374 2739.25,-374 2739.25,-380 2733.25,-386 2727.25,-386"/>
<text text-anchor="middle" x="2657" y="-362.75" font-family="Arial" font-size="15.00">export_download_web</text>
</g>
<!-- /lib/files/export_download_web.dart&#45;&gt;/lib/panels/share_panel.dart -->
<g id="edge54" class="edge">
<title>/lib/files/export_download_web.dart&#45;&gt;/lib/panels/share_panel.dart</title>
<path fill="none" stroke="#aabbaa" stroke-width="1.3" stroke-opacity="0.533333" d="M2574.72,-351.22C2571.78,-350.79 2568.87,-350.38 2566,-350 2360.93,-322.97 2307.12,-340.63 2102,-314 2091.48,-312.63 2080.35,-310.87 2069.58,-309.01"/>
<polygon fill="#aabbaa" fill-opacity="0.533333" stroke="#aabbaa" stroke-width="1.3" stroke-opacity="0.533333" points="2070.48,-305.61 2060.02,-307.3 2069.25,-312.5 2070.48,-305.61"/>
</g>
<!-- /lib/files/export_download_web.dart&#45;&gt;/lib/models/app_model.dart -->
<g id="edge53" class="edge">
<title>/lib/files/export_download_web.dart&#45;&gt;/lib/models/app_model.dart</title>
<path fill="none" stroke="#aabbaa" stroke-width="1.3" stroke-opacity="0.533333" d="M2574.39,-351.53C2500.64,-337.52 2403.01,-318.42 2395,-314 2371.33,-300.94 2372.45,-288.77 2353,-270 2342.33,-259.7 2330.24,-248.79 2319.52,-239.35"/>
<polygon fill="#aabbaa" fill-opacity="0.533333" stroke="#aabbaa" stroke-width="1.3" stroke-opacity="0.533333" points="2321.84,-236.73 2312.01,-232.79 2317.24,-242 2321.84,-236.73"/>
</g>
<!-- /lib/files/export_download_web.dart&#45;&gt;/lib/files/file_jpeg.dart -->
<g id="edge51" class="edge">
<title>/lib/files/export_download_web.dart&#45;&gt;/lib/files/file_jpeg.dart</title>
<path fill="none" stroke="#aabbaa" stroke-width="1.3" stroke-opacity="0.533333" d="M2605.18,-349.59C2577.82,-340.31 2543.44,-328.48 2504.83,-314.61"/>
<polygon fill="#aabbaa" fill-opacity="0.533333" stroke="#aabbaa" stroke-width="1.3" stroke-opacity="0.533333" points="2506.27,-311.41 2495.68,-311.31 2503.9,-318 2506.27,-311.41"/>
</g>
<!-- /lib/files/file_ora.dart -->
<g id="node28" class="node">
<title>/lib/files/file_ora.dart</title>
<path fill="Lavender" stroke="black" stroke-width="1.3" d="M2564.38,-314C2564.38,-314 2523.62,-314 2523.62,-314 2517.62,-314 2511.62,-308 2511.62,-302 2511.62,-302 2511.62,-290 2511.62,-290 2511.62,-284 2517.62,-278 2523.62,-278 2523.62,-278 2564.38,-278 2564.38,-278 2570.38,-278 2576.38,-284 2576.38,-290 2576.38,-290 2576.38,-302 2576.38,-302 2576.38,-308 2570.38,-314 2564.38,-314"/>
<text text-anchor="middle" x="2544" y="-290.75" font-family="Arial" font-size="15.00">file_ora</text>
</g>
<!-- /lib/files/export_download_web.dart&#45;&gt;/lib/files/file_ora.dart -->
<g id="edge52" class="edge">
<title>/lib/files/export_download_web.dart&#45;&gt;/lib/files/file_ora.dart</title>
<path fill="none" stroke="#aabbaa" stroke-width="1.3" stroke-opacity="0.533333" d="M2628.78,-349.52C2614.51,-340.68 2597.01,-329.84 2581.62,-320.3"/>
<polygon fill="#aabbaa" fill-opacity="0.533333" stroke="#aabbaa" stroke-width="1.3" stroke-opacity="0.533333" points="2583.88,-317.59 2573.54,-315.3 2580.19,-323.54 2583.88,-317.59"/>
</g>
<!-- /lib/files/file_ora.dart&#45;&gt;/lib/models/app_model.dart -->
<g id="edge56" class="edge">
<title>/lib/files/file_ora.dart&#45;&gt;/lib/models/app_model.dart</title>
<path fill="none" stroke="#aabbaa" stroke-width="1.3" stroke-opacity="0.533333" d="M2518.58,-277.7C2513.29,-274.72 2507.61,-271.96 2502,-270 2477.44,-261.4 2469.4,-267.67 2444,-262 2411.06,-254.65 2375.01,-243.58 2346.08,-233.93"/>
<polygon fill="#aabbaa" fill-opacity="0.533333" stroke="#aabbaa" stroke-width="1.3" stroke-opacity="0.533333" points="2347.41,-230.68 2336.82,-230.8 2345.17,-237.32 2347.41,-230.68"/>
</g>
<!-- /lib/files/file_ora.dart&#45;&gt;/lib/helpers/list_helper.dart -->
<g id="edge55" class="edge">
<title>/lib/files/file_ora.dart&#45;&gt;/lib/helpers/list_helper.dart</title>
<path fill="none" stroke="#aabbaa" stroke-width="1.3" stroke-opacity="0.533333" d="M2533.31,-277.66C2507.28,-237.24 2436.19,-137.09 2347,-96 2296.69,-72.82 1925.75,-57.71 1785.5,-52.77"/>
<polygon fill="#aabbaa" fill-opacity="0.533333" stroke="#aabbaa" stroke-width="1.3" stroke-opacity="0.533333" points="1785.92,-49.28 1775.81,-52.43 1785.68,-56.28 1785.92,-49.28"/>
</g>
<!-- /lib/files/export_download_non_web.dart -->
<g id="node29" class="node">
<title>/lib/files/export_download_non_web.dart</title>
<path fill="Lavender" stroke="black" stroke-width="1.3" d="M2544.75,-386C2544.75,-386 2371.25,-386 2371.25,-386 2365.25,-386 2359.25,-380 2359.25,-374 2359.25,-374 2359.25,-362 2359.25,-362 2359.25,-356 2365.25,-350 2371.25,-350 2371.25,-350 2544.75,-350 2544.75,-350 2550.75,-350 2556.75,-356 2556.75,-362 2556.75,-362 2556.75,-374 2556.75,-374 2556.75,-380 2550.75,-386 2544.75,-386"/>
<text text-anchor="middle" x="2458" y="-362.75" font-family="Arial" font-size="15.00">export_download_non_web</text>
</g>
<!-- /lib/files/export_download_non_web.dart&#45;&gt;/lib/panels/share_panel.dart -->
<g id="edge60" class="edge">
<title>/lib/files/export_download_non_web.dart&#45;&gt;/lib/panels/share_panel.dart</title>
<path fill="none" stroke="#aabbaa" stroke-width="1.3" stroke-opacity="0.533333" d="M2358.76,-351.77C2354.79,-351.17 2350.86,-350.58 2347,-350 2238.16,-333.67 2210.59,-331.9 2102,-314 2091.53,-312.28 2080.43,-310.34 2069.67,-308.4"/>
<polygon fill="#aabbaa" fill-opacity="0.533333" stroke="#aabbaa" stroke-width="1.3" stroke-opacity="0.533333" points="2070.57,-305.01 2060.11,-306.67 2069.33,-311.9 2070.57,-305.01"/>
</g>
<!-- /lib/files/export_download_non_web.dart&#45;&gt;/lib/models/app_model.dart -->
<g id="edge59" class="edge">
<title>/lib/files/export_download_non_web.dart&#45;&gt;/lib/models/app_model.dart</title>
<path fill="none" stroke="#aabbaa" stroke-width="1.3" stroke-opacity="0.533333" d="M2420.4,-349.7C2402.8,-340.54 2382.19,-328.25 2366,-314 2352.92,-302.49 2326.56,-266.39 2308.59,-240.88"/>
<polygon fill="#aabbaa" fill-opacity="0.533333" stroke="#aabbaa" stroke-width="1.3" stroke-opacity="0.533333" points="2311.66,-239.16 2303.06,-232.97 2305.93,-243.17 2311.66,-239.16"/>
</g>
<!-- /lib/files/export_download_non_web.dart&#45;&gt;/lib/files/file_jpeg.dart -->
<g id="edge57" class="edge">
<title>/lib/files/export_download_non_web.dart&#45;&gt;/lib/files/file_jpeg.dart</title>
<path fill="none" stroke="#aabbaa" stroke-width="1.3" stroke-opacity="0.533333" d="M2458,-349.7C2458,-342.49 2458,-333.93 2458,-325.82"/>
<polygon fill="#aabbaa" fill-opacity="0.533333" stroke="#aabbaa" stroke-width="1.3" stroke-opacity="0.533333" points="2461.5,-326.07 2458,-316.07 2454.5,-326.07 2461.5,-326.07"/>
</g>
<!-- /lib/files/export_download_non_web.dart&#45;&gt;/lib/files/file_ora.dart -->
<g id="edge58" class="edge">
<title>/lib/files/export_download_non_web.dart&#45;&gt;/lib/files/file_ora.dart</title>
<path fill="none" stroke="#aabbaa" stroke-width="1.3" stroke-opacity="0.533333" d="M2479.26,-349.7C2489.6,-341.28 2502.21,-331.02 2513.54,-321.79"/>
<polygon fill="#aabbaa" fill-opacity="0.533333" stroke="#aabbaa" stroke-width="1.3" stroke-opacity="0.533333" points="2515.62,-324.62 2521.16,-315.59 2511.2,-319.19 2515.62,-324.62"/>
</g>
<!-- /lib/files/import_files.dart&#45;&gt;/lib/models/app_model.dart -->
<g id="edge62" class="edge">
<title>/lib/files/import_files.dart&#45;&gt;/lib/models/app_model.dart</title>
<path fill="none" stroke="#aabbaa" stroke-width="1.3" stroke-opacity="0.533333" d="M2757.42,-352.15C2754.25,-351.35 2751.09,-350.63 2748,-350 2601.7,-320.18 2544.8,-385.99 2414,-314 2392.11,-301.95 2397.62,-286.67 2379,-270 2365.3,-257.73 2348.6,-246.45 2333.38,-237.27"/>
<polygon fill="#aabbaa" fill-opacity="0.533333" stroke="#aabbaa" stroke-width="1.3" stroke-opacity="0.533333" points="2335.23,-234.3 2324.83,-232.26 2331.69,-240.34 2335.23,-234.3"/>
</g>
<!-- /lib/files/import_files.dart&#45;&gt;/lib/files/file_ora.dart -->
<g id="edge61" class="edge">
<title>/lib/files/import_files.dart&#45;&gt;/lib/files/file_ora.dart</title>
<path fill="none" stroke="#aabbaa" stroke-width="1.3" stroke-opacity="0.533333" d="M2757.29,-352.67C2754.15,-351.75 2751.03,-350.85 2748,-350 2693.18,-334.56 2629.62,-318.31 2588.2,-307.93"/>
<polygon fill="#aabbaa" fill-opacity="0.533333" stroke="#aabbaa" stroke-width="1.3" stroke-opacity="0.533333" points="2589.07,-304.54 2578.52,-305.52 2587.38,-311.34 2589.07,-304.54"/>
</g>
<!-- /lib/main_screen.dart&#45;&gt;/lib/panels/tools/flood_fill.dart -->
<g id="edge65" class="edge">
<title>/lib/main_screen.dart&#45;&gt;/lib/panels/tools/flood_fill.dart</title>
<path fill="none" stroke="#aabbaa" stroke-width="1.3" stroke-opacity="0.533333" d="M2025.84,-515.3C1960.11,-512.63 1842.59,-506.21 1743,-492 1703.2,-486.32 1423.92,-436.94 1389,-417 1379.54,-411.6 1370.98,-403.47 1363.97,-395.43"/>
<polygon fill="#aabbaa" fill-opacity="0.533333" stroke="#aabbaa" stroke-width="1.3" stroke-opacity="0.533333" points="1366.74,-393.3 1357.73,-387.73 1361.3,-397.7 1366.74,-393.3"/>
</g>
<!-- /lib/main_screen.dart&#45;&gt;/lib/panels/canvas_panel.dart -->
<g id="edge63" class="edge">
<title>/lib/main_screen.dart&#45;&gt;/lib/panels/canvas_panel.dart</title>
<path fill="none" stroke="#aabbaa" stroke-width="1.3" stroke-opacity="0.533333" d="M2080.76,-499.71C2088.98,-457.8 2104.9,-348.45 2067,-270 2061.15,-257.88 2051.33,-247.34 2041.07,-238.78"/>
<polygon fill="#aabbaa" fill-opacity="0.533333" stroke="#aabbaa" stroke-width="1.3" stroke-opacity="0.533333" points="2043.24,-236.03 2033.19,-232.68 2038.96,-241.57 2043.24,-236.03"/>
</g>
<!-- /lib/main_screen.dart&#45;&gt;/lib/panels/side_panel.dart -->
<g id="edge64" class="edge">
<title>/lib/main_screen.dart&#45;&gt;/lib/panels/side_panel.dart</title>
<path fill="none" stroke="#aabbaa" stroke-width="1.3" stroke-opacity="0.533333" d="M2026.03,-501.83C2019.41,-498.99 2012.89,-495.73 2007,-492 1997.59,-486.05 1988.59,-477.95 1980.98,-470.11"/>
<polygon fill="#aabbaa" fill-opacity="0.533333" stroke="#aabbaa" stroke-width="1.3" stroke-opacity="0.533333" points="1983.72,-467.91 1974.36,-462.93 1978.57,-472.65 1983.72,-467.91"/>
</g>
<!-- /lib/main_screen.dart&#45;&gt;/lib/models/app_model.dart -->
<g id="edge66" class="edge">
<title>/lib/main_screen.dart&#45;&gt;/lib/models/app_model.dart</title>
<path fill="none" stroke="#aabbaa" stroke-width="1.3" stroke-opacity="0.533333" d="M2128.24,-502.91C2170.55,-488.49 2228.57,-461.73 2260,-417 2296.84,-364.56 2296.72,-285.58 2293.39,-243.25"/>
<polygon fill="#aabbaa" fill-opacity="0.533333" stroke="#aabbaa" stroke-width="1.3" stroke-opacity="0.533333" points="2296.88,-242.96 2292.47,-233.32 2289.91,-243.6 2296.88,-242.96"/>
</g>
<!-- /lib/helpers/color_helper.dart&#45;&gt;/lib/helpers/list_helper.dart -->
<g id="edge67" class="edge">
<title>/lib/helpers/color_helper.dart&#45;&gt;/lib/helpers/list_helper.dart</title>
<path fill="none" stroke="#aabbaa" stroke-width="1.3" stroke-opacity="0.533333" d="M1726.73,-103.7C1727.45,-96.49 1728.31,-87.93 1729.12,-79.82"/>
<polygon fill="#aabbaa" fill-opacity="0.533333" stroke="#aabbaa" stroke-width="1.3" stroke-opacity="0.533333" points="1732.58,-80.36 1730.09,-70.06 1725.62,-79.66 1732.58,-80.36"/>
</g>
<!-- /lib/widgets/brush_style_picker.dart&#45;&gt;/lib/models/app_model.dart -->
<g id="edge68" class="edge">
<title>/lib/widgets/brush_style_picker.dart&#45;&gt;/lib/models/app_model.dart</title>
<path fill="none" stroke="#aabbaa" stroke-width="1.3" stroke-opacity="0.533333" d="M1230.6,-223.53C1321.87,-236.56 1485.86,-258.02 1627,-266 1660.34,-267.89 2195.34,-272.93 2228,-266 2244.07,-262.59 2258.3,-251.39 2269.07,-240.16"/>
<polygon fill="#aabbaa" fill-opacity="0.533333" stroke="#aabbaa" stroke-width="1.3" stroke-opacity="0.533333" points="2271.61,-242.57 2275.62,-232.77 2266.37,-237.93 2271.61,-242.57"/>
</g>
<!-- /lib/widgets/color_picker.dart&#45;&gt;/lib/helpers/list_helper.dart -->
<g id="edge70" class="edge">
<title>/lib/widgets/color_picker.dart&#45;&gt;/lib/helpers/list_helper.dart</title>
<path fill="none" stroke="#aabbaa" stroke-width="1.3" stroke-opacity="0.533333" d="M104.72,-194.55C114.36,-188.61 125.78,-182.57 137,-179 522.32,-56.39 639.89,-127.62 1043,-96 1279.61,-77.44 1562.36,-60.67 1678.35,-54.03"/>
<polygon fill="#aabbaa" fill-opacity="0.533333" stroke="#aabbaa" stroke-width="1.3" stroke-opacity="0.533333" points="1678.28,-57.53 1688.06,-53.47 1677.88,-50.55 1678.28,-57.53"/>
</g>
<!-- /lib/widgets/color_picker.dart&#45;&gt;/lib/helpers/color_helper.dart -->
<g id="edge69" class="edge">
<title>/lib/widgets/color_picker.dart&#45;&gt;/lib/helpers/color_helper.dart</title>
<path fill="none" stroke="#aabbaa" stroke-width="1.3" stroke-opacity="0.533333" d="M103.73,-194.57C113.52,-188.39 125.31,-182.19 137,-179 166.62,-170.93 1211.35,-172.63 1242,-171 1394.21,-162.9 1572.45,-142.29 1663.96,-130.88"/>
<polygon fill="#aabbaa" fill-opacity="0.533333" stroke="#aabbaa" stroke-width="1.3" stroke-opacity="0.533333" points="1664.31,-134.37 1673.79,-129.65 1663.44,-127.42 1664.31,-134.37"/>
</g>
<!-- /lib/widgets/color_picker.dart&#45;&gt;/lib/widgets/transparent_background.dart -->
<g id="edge71" class="edge">
<title>/lib/widgets/color_picker.dart&#45;&gt;/lib/widgets/transparent_background.dart</title>
<path fill="none" stroke="#aabbaa" stroke-width="1.3" stroke-opacity="0.533333" d="M103.75,-194.64C113.54,-188.47 125.32,-182.25 137,-179 182.5,-166.32 514.83,-173.4 562,-171 729.76,-162.48 924.27,-144.73 1039.74,-133.37"/>
<polygon fill="#aabbaa" fill-opacity="0.533333" stroke="#aabbaa" stroke-width="1.3" stroke-opacity="0.533333" points="1039.79,-136.88 1049.4,-132.41 1039.1,-129.91 1039.79,-136.88"/>
</g>
</g>
</svg>
