<?xml version="1.0" encoding="UTF-8" standalone="no"?>
<!DOCTYPE svg PUBLIC "-//W3C//DTD SVG 1.1//EN"
 "http://www.w3.org/Graphics/SVG/1.1/DTD/svg11.dtd">
<!-- Generated by graphviz version 12.2.1 (20241206.2353)
 -->
<!-- Pages: 1 -->
<svg width="398pt" height="437pt"
 viewBox="0.00 0.00 398.00 437.00" xmlns="http://www.w3.org/2000/svg" xmlns:xlink="http://www.w3.org/1999/xlink">
<g id="graph0" class="graph" transform="scale(1 1) rotate(0) translate(4 433)">
<polygon fill="white" stroke="none" points="-4,4 -4,-433 394,-433 394,4 -4,4"/>
<g id="clust1" class="cluster">
<title>cluster~</title>
<path fill="none" stroke="lightgray" stroke-width="2.6" d="M20,-8C20,-8 370,-8 370,-8 376,-8 382,-14 382,-20 382,-20 382,-409 382,-409 382,-415 376,-421 370,-421 370,-421 20,-421 20,-421 14,-421 8,-415 8,-409 8,-409 8,-20 8,-20 8,-14 14,-8 20,-8"/>
<text text-anchor="middle" x="195" y="-404.65" font-family="Arial Black" font-size="13.00">fpaint</text>
</g>
<g id="clust2" class="cluster">
<title>cluster~/test</title>
<path fill="none" stroke="lightgray" stroke-width="2.6" d="M28,-315C28,-315 260,-315 260,-315 266,-315 272,-321 272,-327 272,-327 272,-378 272,-378 272,-384 266,-390 260,-390 260,-390 28,-390 28,-390 22,-390 16,-384 16,-378 16,-378 16,-327 16,-327 16,-321 22,-315 28,-315"/>
<text text-anchor="middle" x="144" y="-373.65" font-family="Arial Black" font-size="13.00">test</text>
</g>
<g id="clust3" class="cluster">
<title>cluster~/lib</title>
<path fill="none" stroke="lightgray" stroke-width="2.6" d="M40,-16C40,-16 362,-16 362,-16 368,-16 374,-22 374,-28 374,-28 374,-295 374,-295 374,-301 368,-307 362,-307 362,-307 40,-307 40,-307 34,-307 28,-301 28,-295 28,-295 28,-28 28,-28 28,-22 34,-16 40,-16"/>
<text text-anchor="middle" x="201" y="-290.65" font-family="Arial Black" font-size="13.00">lib</text>
</g>
<!-- /test/paint_model_test.dart -->
<g id="node1" class="node">
<title>/test/paint_model_test.dart</title>
<path fill="Lavender" stroke="black" stroke-width="1.3" d="M142,-359C142,-359 36,-359 36,-359 30,-359 24,-353 24,-347 24,-347 24,-335 24,-335 24,-329 30,-323 36,-323 36,-323 142,-323 142,-323 148,-323 154,-329 154,-335 154,-335 154,-347 154,-347 154,-353 148,-359 142,-359"/>
<text text-anchor="middle" x="89" y="-335.75" font-family="Arial" font-size="15.00">paint_model_test</text>
</g>
<!-- /lib/paint_model.dart -->
<g id="node5" class="node">
<title>/lib/paint_model.dart</title>
<path fill="Lavender" stroke="black" stroke-width="1.3" d="M170.5,-60C170.5,-60 97.5,-60 97.5,-60 91.5,-60 85.5,-54 85.5,-48 85.5,-48 85.5,-36 85.5,-36 85.5,-30 91.5,-24 97.5,-24 97.5,-24 170.5,-24 170.5,-24 176.5,-24 182.5,-30 182.5,-36 182.5,-36 182.5,-48 182.5,-48 182.5,-54 176.5,-60 170.5,-60"/>
<text text-anchor="middle" x="134" y="-36.75" font-family="Arial" font-size="15.00">paint_model</text>
</g>
<!-- /test/paint_model_test.dart&#45;&gt;/lib/paint_model.dart -->
<g id="edge1" class="edge">
<title>/test/paint_model_test.dart&#45;&gt;/lib/paint_model.dart</title>
<path fill="none" stroke="#aabbaa" stroke-width="1.3" stroke-opacity="0.533333" d="M77.61,-322.68C51.58,-280.75 -6.65,-171.66 38,-96 46.37,-81.82 60.05,-71.17 74.48,-63.28"/>
<polygon fill="#aabbaa" fill-opacity="0.533333" stroke="#aabbaa" stroke-width="1.3" stroke-opacity="0.533333" points="75.91,-66.48 83.31,-58.9 72.79,-60.22 75.91,-66.48"/>
</g>
<!-- /test/widget_test.dart -->
<g id="node2" class="node">
<title>/test/widget_test.dart</title>
<path fill="Lavender" stroke="black" stroke-width="1.3" d="M251.88,-359C251.88,-359 184.12,-359 184.12,-359 178.12,-359 172.12,-353 172.12,-347 172.12,-347 172.12,-335 172.12,-335 172.12,-329 178.12,-323 184.12,-323 184.12,-323 251.88,-323 251.88,-323 257.88,-323 263.88,-329 263.88,-335 263.88,-335 263.88,-347 263.88,-347 263.88,-353 257.88,-359 251.88,-359"/>
<text text-anchor="middle" x="218" y="-335.75" font-family="Arial" font-size="15.00">widget_test</text>
</g>
<!-- /lib/main.dart -->
<g id="node4" class="node">
<title>/lib/main.dart</title>
<path fill="Lavender" stroke="black" stroke-width="1.3" d="M207,-276C207,-276 177,-276 177,-276 171,-276 165,-270 165,-264 165,-264 165,-252 165,-252 165,-246 171,-240 177,-240 177,-240 207,-240 207,-240 213,-240 219,-246 219,-252 219,-252 219,-264 219,-264 219,-270 213,-276 207,-276"/>
<text text-anchor="middle" x="192" y="-252.75" font-family="Arial" font-size="15.00">main</text>
</g>
<!-- /test/widget_test.dart&#45;&gt;/lib/main.dart -->
<g id="edge2" class="edge">
<title>/test/widget_test.dart&#45;&gt;/lib/main.dart</title>
<path fill="none" stroke="#aabbaa" stroke-width="1.3" stroke-opacity="0.533333" d="M212.49,-322.82C209.2,-312.58 204.94,-299.33 201.16,-287.55"/>
<polygon fill="#aabbaa" fill-opacity="0.533333" stroke="#aabbaa" stroke-width="1.3" stroke-opacity="0.533333" points="204.59,-286.76 198.2,-278.31 197.92,-288.9 204.59,-286.76"/>
</g>
<!-- /lib/tools_panel.dart -->
<g id="node3" class="node">
<title>/lib/tools_panel.dart</title>
<path fill="Lavender" stroke="black" stroke-width="1.3" d="M135.88,-132C135.88,-132 68.12,-132 68.12,-132 62.12,-132 56.12,-126 56.12,-120 56.12,-120 56.12,-108 56.12,-108 56.12,-102 62.12,-96 68.12,-96 68.12,-96 135.88,-96 135.88,-96 141.88,-96 147.88,-102 147.88,-108 147.88,-108 147.88,-120 147.88,-120 147.88,-126 141.88,-132 135.88,-132"/>
<text text-anchor="middle" x="102" y="-108.75" font-family="Arial" font-size="15.00">tools_panel</text>
</g>
<!-- /lib/tools_panel.dart&#45;&gt;/lib/paint_model.dart -->
<g id="edge3" class="edge">
<title>/lib/tools_panel.dart&#45;&gt;/lib/paint_model.dart</title>
<path fill="none" stroke="#aabbaa" stroke-width="1.3" stroke-opacity="0.533333" d="M109.91,-95.7C113.32,-88.24 117.4,-79.32 121.22,-70.97"/>
<polygon fill="#aabbaa" fill-opacity="0.533333" stroke="#aabbaa" stroke-width="1.3" stroke-opacity="0.533333" points="124.39,-72.44 125.36,-61.89 118.02,-69.53 124.39,-72.44"/>
</g>
<!-- /lib/main.dart&#45;&gt;/lib/paint_model.dart -->
<g id="edge5" class="edge">
<title>/lib/main.dart&#45;&gt;/lib/paint_model.dart</title>
<path fill="none" stroke="#aabbaa" stroke-width="1.3" stroke-opacity="0.533333" d="M164.59,-243.1C129.7,-223.67 71.08,-184.76 47,-132 40.36,-117.44 39.16,-109.95 47,-96 53.9,-83.71 64.94,-73.94 76.86,-66.31"/>
<polygon fill="#aabbaa" fill-opacity="0.533333" stroke="#aabbaa" stroke-width="1.3" stroke-opacity="0.533333" points="78.44,-69.44 85.32,-61.38 74.92,-63.39 78.44,-69.44"/>
</g>
<!-- /lib/home_screen.dart -->
<g id="node8" class="node">
<title>/lib/home_screen.dart</title>
<path fill="Lavender" stroke="black" stroke-width="1.3" d="M233.38,-204C233.38,-204 150.62,-204 150.62,-204 144.62,-204 138.62,-198 138.62,-192 138.62,-192 138.62,-180 138.62,-180 138.62,-174 144.62,-168 150.62,-168 150.62,-168 233.38,-168 233.38,-168 239.38,-168 245.38,-174 245.38,-180 245.38,-180 245.38,-192 245.38,-192 245.38,-198 239.38,-204 233.38,-204"/>
<text text-anchor="middle" x="192" y="-180.75" font-family="Arial" font-size="15.00">home_screen</text>
</g>
<!-- /lib/main.dart&#45;&gt;/lib/home_screen.dart -->
<g id="edge4" class="edge">
<title>/lib/main.dart&#45;&gt;/lib/home_screen.dart</title>
<path fill="none" stroke="#aabbaa" stroke-width="1.3" stroke-opacity="0.533333" d="M192,-239.7C192,-232.49 192,-223.93 192,-215.82"/>
<polygon fill="#aabbaa" fill-opacity="0.533333" stroke="#aabbaa" stroke-width="1.3" stroke-opacity="0.533333" points="195.5,-216.07 192,-206.07 188.5,-216.07 195.5,-216.07"/>
</g>
<!-- /lib/layers_panel.dart -->
<g id="node6" class="node">
<title>/lib/layers_panel.dart</title>
<path fill="Lavender" stroke="black" stroke-width="1.3" d="M274,-132C274,-132 198,-132 198,-132 192,-132 186,-126 186,-120 186,-120 186,-108 186,-108 186,-102 192,-96 198,-96 198,-96 274,-96 274,-96 280,-96 286,-102 286,-108 286,-108 286,-120 286,-120 286,-126 280,-132 274,-132"/>
<text text-anchor="middle" x="236" y="-108.75" font-family="Arial" font-size="15.00">layers_panel</text>
</g>
<!-- /lib/layers_panel.dart&#45;&gt;/lib/paint_model.dart -->
<g id="edge6" class="edge">
<title>/lib/layers_panel.dart&#45;&gt;/lib/paint_model.dart</title>
<path fill="none" stroke="#aabbaa" stroke-width="1.3" stroke-opacity="0.533333" d="M210.52,-95.52C197.89,-86.85 182.45,-76.25 168.75,-66.85"/>
<polygon fill="#aabbaa" fill-opacity="0.533333" stroke="#aabbaa" stroke-width="1.3" stroke-opacity="0.533333" points="171,-64.15 160.77,-61.37 167.04,-69.92 171,-64.15"/>
</g>
<!-- /lib/painter.dart -->
<g id="node7" class="node">
<title>/lib/painter.dart</title>
<path fill="Lavender" stroke="black" stroke-width="1.3" d="M353.88,-132C353.88,-132 316.12,-132 316.12,-132 310.12,-132 304.12,-126 304.12,-120 304.12,-120 304.12,-108 304.12,-108 304.12,-102 310.12,-96 316.12,-96 316.12,-96 353.88,-96 353.88,-96 359.88,-96 365.88,-102 365.88,-108 365.88,-108 365.88,-120 365.88,-120 365.88,-126 359.88,-132 353.88,-132"/>
<text text-anchor="middle" x="335" y="-108.75" font-family="Arial" font-size="15.00">painter</text>
</g>
<!-- /lib/painter.dart&#45;&gt;/lib/paint_model.dart -->
<g id="edge7" class="edge">
<title>/lib/painter.dart&#45;&gt;/lib/paint_model.dart</title>
<path fill="none" stroke="#aabbaa" stroke-width="1.3" stroke-opacity="0.533333" d="M303.66,-99.39C300.74,-98.21 297.82,-97.06 295,-96 262.03,-83.59 224.69,-71.2 194.28,-61.52"/>
<polygon fill="#aabbaa" fill-opacity="0.533333" stroke="#aabbaa" stroke-width="1.3" stroke-opacity="0.533333" points="195.45,-58.22 184.86,-58.54 193.34,-64.9 195.45,-58.22"/>
</g>
<!-- /lib/home_screen.dart&#45;&gt;/lib/tools_panel.dart -->
<g id="edge9" class="edge">
<title>/lib/home_screen.dart&#45;&gt;/lib/tools_panel.dart</title>
<path fill="none" stroke="#aabbaa" stroke-width="1.3" stroke-opacity="0.533333" d="M169.75,-167.7C158.83,-159.2 145.47,-148.81 133.52,-139.51"/>
<polygon fill="#aabbaa" fill-opacity="0.533333" stroke="#aabbaa" stroke-width="1.3" stroke-opacity="0.533333" points="135.9,-136.93 125.86,-133.55 131.6,-142.46 135.9,-136.93"/>
</g>
<!-- /lib/home_screen.dart&#45;&gt;/lib/paint_model.dart -->
<g id="edge10" class="edge">
<title>/lib/home_screen.dart&#45;&gt;/lib/paint_model.dart</title>
<path fill="none" stroke="#aabbaa" stroke-width="1.3" stroke-opacity="0.533333" d="M185.34,-167.53C178.42,-149.54 167.21,-120.7 157,-96 153.61,-87.81 149.82,-78.96 146.31,-70.88"/>
<polygon fill="#aabbaa" fill-opacity="0.533333" stroke="#aabbaa" stroke-width="1.3" stroke-opacity="0.533333" points="149.61,-69.68 142.4,-61.92 143.2,-72.49 149.61,-69.68"/>
</g>
<!-- /lib/home_screen.dart&#45;&gt;/lib/layers_panel.dart -->
<g id="edge8" class="edge">
<title>/lib/home_screen.dart&#45;&gt;/lib/layers_panel.dart</title>
<path fill="none" stroke="#aabbaa" stroke-width="1.3" stroke-opacity="0.533333" d="M202.88,-167.7C207.73,-159.98 213.55,-150.71 218.96,-142.11"/>
<polygon fill="#aabbaa" fill-opacity="0.533333" stroke="#aabbaa" stroke-width="1.3" stroke-opacity="0.533333" points="221.84,-144.1 224.2,-133.77 215.92,-140.37 221.84,-144.1"/>
</g>
<!-- /lib/home_screen.dart&#45;&gt;/lib/painter.dart -->
<g id="edge11" class="edge">
<title>/lib/home_screen.dart&#45;&gt;/lib/painter.dart</title>
<path fill="none" stroke="#aabbaa" stroke-width="1.3" stroke-opacity="0.533333" d="M227.72,-167.52C247.72,-157.72 272.77,-145.46 293.62,-135.25"/>
<polygon fill="#aabbaa" fill-opacity="0.533333" stroke="#aabbaa" stroke-width="1.3" stroke-opacity="0.533333" points="294.89,-138.53 302.33,-130.99 291.81,-132.24 294.89,-138.53"/>
</g>
</g>
</svg>
