<?xml version="1.0" encoding="UTF-8" standalone="no"?>
<!DOCTYPE svg PUBLIC "-//W3C//DTD SVG 1.1//EN"
 "http://www.w3.org/Graphics/SVG/1.1/DTD/svg11.dtd">
<!-- Generated by graphviz version 12.2.1 (20241206.2353)
 -->
<!-- Pages: 1 -->
<svg width="824pt" height="606pt"
 viewBox="0.00 0.00 824.00 606.00" xmlns="http://www.w3.org/2000/svg" xmlns:xlink="http://www.w3.org/1999/xlink">
<g id="graph0" class="graph" transform="scale(1 1) rotate(0) translate(4 602)">
<polygon fill="white" stroke="none" points="-4,4 -4,-602 820,-602 820,4 -4,4"/>
<g id="clust1" class="cluster">
<title>cluster~</title>
<path fill="none" stroke="lightgray" stroke-width="2.6" d="M20,-8C20,-8 796,-8 796,-8 802,-8 808,-14 808,-20 808,-20 808,-578 808,-578 808,-584 802,-590 796,-590 796,-590 20,-590 20,-590 14,-590 8,-584 8,-578 8,-578 8,-20 8,-20 8,-14 14,-8 20,-8"/>
<text text-anchor="middle" x="408" y="-573.65" font-family="Arial Black" font-size="13.00">fpaint</text>
</g>
<g id="clust2" class="cluster">
<title>cluster~/test</title>
<path fill="none" stroke="lightgray" stroke-width="2.6" d="M60,-484C60,-484 292,-484 292,-484 298,-484 304,-490 304,-496 304,-496 304,-547 304,-547 304,-553 298,-559 292,-559 292,-559 60,-559 60,-559 54,-559 48,-553 48,-547 48,-547 48,-496 48,-496 48,-490 54,-484 60,-484"/>
<text text-anchor="middle" x="176" y="-542.65" font-family="Arial Black" font-size="13.00">test</text>
</g>
<g id="clust3" class="cluster">
<title>cluster~/lib</title>
<path fill="none" stroke="lightgray" stroke-width="2.6" d="M28,-16C28,-16 788,-16 788,-16 794,-16 800,-22 800,-28 800,-28 800,-464 800,-464 800,-470 794,-476 788,-476 788,-476 28,-476 28,-476 22,-476 16,-470 16,-464 16,-464 16,-28 16,-28 16,-22 22,-16 28,-16"/>
<text text-anchor="middle" x="408" y="-459.65" font-family="Arial Black" font-size="13.00">lib</text>
</g>
<g id="clust4" class="cluster">
<title>cluster~/lib/brushes</title>
<path fill="none" stroke="lightgray" stroke-width="2.6" d="M48,-96C48,-96 110,-96 110,-96 116,-96 122,-102 122,-108 122,-108 122,-159 122,-159 122,-165 116,-171 110,-171 110,-171 48,-171 48,-171 42,-171 36,-165 36,-159 36,-159 36,-108 36,-108 36,-102 42,-96 48,-96"/>
<text text-anchor="middle" x="79" y="-154.65" font-family="Arial Black" font-size="13.00">brushes</text>
</g>
<g id="clust5" class="cluster">
<title>cluster~/lib/panels</title>
<path fill="none" stroke="lightgray" stroke-width="2.6" d="M578,-179C578,-179 780,-179 780,-179 786,-179 792,-185 792,-191 792,-191 792,-317 792,-317 792,-323 786,-329 780,-329 780,-329 578,-329 578,-329 572,-329 566,-323 566,-317 566,-317 566,-191 566,-191 566,-185 572,-179 578,-179"/>
<text text-anchor="middle" x="679" y="-312.65" font-family="Arial Black" font-size="13.00">panels</text>
</g>
<g id="clust6" class="cluster">
<title>cluster~/lib/models</title>
<path fill="none" stroke="lightgray" stroke-width="2.6" d="M36,-179C36,-179 229,-179 229,-179 235,-179 241,-185 241,-191 241,-191 241,-317 241,-317 241,-323 235,-329 229,-329 229,-329 36,-329 36,-329 30,-329 24,-323 24,-317 24,-317 24,-191 24,-191 24,-185 30,-179 36,-179"/>
<text text-anchor="middle" x="132.5" y="-312.65" font-family="Arial Black" font-size="13.00">models</text>
</g>
<g id="clust7" class="cluster">
<title>cluster~/lib/helpers</title>
<path fill="none" stroke="lightgray" stroke-width="2.6" d="M423,-24C423,-24 513,-24 513,-24 519,-24 525,-30 525,-36 525,-36 525,-159 525,-159 525,-165 519,-171 513,-171 513,-171 423,-171 423,-171 417,-171 411,-165 411,-159 411,-159 411,-36 411,-36 411,-30 417,-24 423,-24"/>
<text text-anchor="middle" x="468" y="-154.65" font-family="Arial Black" font-size="13.00">helpers</text>
</g>
<g id="clust8" class="cluster">
<title>cluster~/lib/widgets</title>
<path fill="none" stroke="lightgray" stroke-width="2.6" d="M261,-179C261,-179 546,-179 546,-179 552,-179 558,-185 558,-191 558,-191 558,-242 558,-242 558,-248 552,-254 546,-254 546,-254 261,-254 261,-254 255,-254 249,-248 249,-242 249,-242 249,-191 249,-191 249,-185 255,-179 261,-179"/>
<text text-anchor="middle" x="403.5" y="-237.65" font-family="Arial Black" font-size="13.00">widgets</text>
</g>
<!-- /test/paint_model_test.dart -->
<g id="node1" class="node">
<title>/test/paint_model_test.dart</title>
<path fill="Lavender" stroke="black" stroke-width="1.3" d="M174,-528C174,-528 68,-528 68,-528 62,-528 56,-522 56,-516 56,-516 56,-504 56,-504 56,-498 62,-492 68,-492 68,-492 174,-492 174,-492 180,-492 186,-498 186,-504 186,-504 186,-516 186,-516 186,-522 180,-528 174,-528"/>
<text text-anchor="middle" x="121" y="-504.75" font-family="Arial" font-size="15.00">paint_model_test</text>
</g>
<!-- /lib/models/app_model.dart -->
<g id="node9" class="node">
<title>/lib/models/app_model.dart</title>
<path fill="Lavender" stroke="black" stroke-width="1.3" d="M220.75,-223C220.75,-223 155.25,-223 155.25,-223 149.25,-223 143.25,-217 143.25,-211 143.25,-211 143.25,-199 143.25,-199 143.25,-193 149.25,-187 155.25,-187 155.25,-187 220.75,-187 220.75,-187 226.75,-187 232.75,-193 232.75,-199 232.75,-199 232.75,-211 232.75,-211 232.75,-217 226.75,-223 220.75,-223"/>
<text text-anchor="middle" x="188" y="-199.75" font-family="Arial" font-size="15.00">app_model</text>
</g>
<!-- /test/paint_model_test.dart&#45;&gt;/lib/models/app_model.dart -->
<g id="edge1" class="edge">
<title>/test/paint_model_test.dart&#45;&gt;/lib/models/app_model.dart</title>
<path fill="none" stroke="#aabbaa" stroke-width="1.3" stroke-opacity="0.533333" d="M116.86,-491.79C107.76,-450.05 89.53,-341.06 126,-262 128.24,-257.14 131.02,-257.57 135,-254 143.19,-246.65 152.06,-238.64 160.16,-231.3"/>
<polygon fill="#aabbaa" fill-opacity="0.533333" stroke="#aabbaa" stroke-width="1.3" stroke-opacity="0.533333" points="162.39,-234 167.45,-224.69 157.69,-228.82 162.39,-234"/>
</g>
<!-- /test/widget_test.dart -->
<g id="node2" class="node">
<title>/test/widget_test.dart</title>
<path fill="Lavender" stroke="black" stroke-width="1.3" d="M283.88,-528C283.88,-528 216.12,-528 216.12,-528 210.12,-528 204.12,-522 204.12,-516 204.12,-516 204.12,-504 204.12,-504 204.12,-498 210.12,-492 216.12,-492 216.12,-492 283.88,-492 283.88,-492 289.88,-492 295.88,-498 295.88,-504 295.88,-504 295.88,-516 295.88,-516 295.88,-522 289.88,-528 283.88,-528"/>
<text text-anchor="middle" x="250" y="-504.75" font-family="Arial" font-size="15.00">widget_test</text>
</g>
<!-- /lib/main.dart -->
<g id="node10" class="node">
<title>/lib/main.dart</title>
<path fill="Lavender" stroke="black" stroke-width="1.3" d="M265,-445C265,-445 235,-445 235,-445 229,-445 223,-439 223,-433 223,-433 223,-421 223,-421 223,-415 229,-409 235,-409 235,-409 265,-409 265,-409 271,-409 277,-415 277,-421 277,-421 277,-433 277,-433 277,-439 271,-445 265,-445"/>
<text text-anchor="middle" x="250" y="-421.75" font-family="Arial" font-size="15.00">main</text>
</g>
<!-- /test/widget_test.dart&#45;&gt;/lib/main.dart -->
<g id="edge2" class="edge">
<title>/test/widget_test.dart&#45;&gt;/lib/main.dart</title>
<path fill="none" stroke="#aabbaa" stroke-width="1.3" stroke-opacity="0.533333" d="M250,-491.82C250,-481.8 250,-468.88 250,-457.29"/>
<polygon fill="#aabbaa" fill-opacity="0.533333" stroke="#aabbaa" stroke-width="1.3" stroke-opacity="0.533333" points="253.5,-457.4 250,-447.4 246.5,-457.4 253.5,-457.4"/>
</g>
<!-- /lib/brushes/brushes.dart -->
<g id="node3" class="node">
<title>/lib/brushes/brushes.dart</title>
<path fill="Lavender" stroke="black" stroke-width="1.3" d="M101.62,-140C101.62,-140 56.38,-140 56.38,-140 50.38,-140 44.38,-134 44.38,-128 44.38,-128 44.38,-116 44.38,-116 44.38,-110 50.38,-104 56.38,-104 56.38,-104 101.62,-104 101.62,-104 107.62,-104 113.62,-110 113.62,-116 113.62,-116 113.62,-128 113.62,-128 113.62,-134 107.62,-140 101.62,-140"/>
<text text-anchor="middle" x="79" y="-116.75" font-family="Arial" font-size="15.00">brushes</text>
</g>
<!-- /lib/brushes/brushes.dart&#45;&gt;/lib/models/app_model.dart -->
<g id="edge3" class="edge">
<title>/lib/brushes/brushes.dart&#45;&gt;/lib/models/app_model.dart</title>
<path fill="none" stroke="#aabbaa" stroke-width="1.3" stroke-opacity="0.533333" d="M102.34,-140.35C117.71,-151.77 138.05,-166.88 155.05,-179.52"/>
<polygon fill="#aabbaa" fill-opacity="0.533333" stroke="#aabbaa" stroke-width="1.3" stroke-opacity="0.533333" points="152.92,-182.29 163.04,-185.45 157.1,-176.68 152.92,-182.29"/>
</g>
<!-- /lib/panels/tools_panel.dart -->
<g id="node4" class="node">
<title>/lib/panels/tools_panel.dart</title>
<path fill="Lavender" stroke="black" stroke-width="1.3" d="M771.88,-298C771.88,-298 704.12,-298 704.12,-298 698.12,-298 692.12,-292 692.12,-286 692.12,-286 692.12,-274 692.12,-274 692.12,-268 698.12,-262 704.12,-262 704.12,-262 771.88,-262 771.88,-262 777.88,-262 783.88,-268 783.88,-274 783.88,-274 783.88,-286 783.88,-286 783.88,-292 777.88,-298 771.88,-298"/>
<text text-anchor="middle" x="738" y="-274.75" font-family="Arial" font-size="15.00">tools_panel</text>
</g>
<!-- /lib/panels/tool.dart -->
<g id="node6" class="node">
<title>/lib/panels/tool.dart</title>
<path fill="Lavender" stroke="black" stroke-width="1.3" d="M753,-223C753,-223 723,-223 723,-223 717,-223 711,-217 711,-211 711,-211 711,-199 711,-199 711,-193 717,-187 723,-187 723,-187 753,-187 753,-187 759,-187 765,-193 765,-199 765,-199 765,-211 765,-211 765,-217 759,-223 753,-223"/>
<text text-anchor="middle" x="738" y="-199.75" font-family="Arial" font-size="15.00">tool</text>
</g>
<!-- /lib/panels/tools_panel.dart&#45;&gt;/lib/panels/tool.dart -->
<g id="edge5" class="edge">
<title>/lib/panels/tools_panel.dart&#45;&gt;/lib/panels/tool.dart</title>
<path fill="none" stroke="#aabbaa" stroke-width="1.3" stroke-opacity="0.533333" d="M738,-261.7C738,-253.76 738,-244.12 738,-235.11"/>
<polygon fill="#aabbaa" fill-opacity="0.533333" stroke="#aabbaa" stroke-width="1.3" stroke-opacity="0.533333" points="741.5,-235.4 738,-225.4 734.5,-235.4 741.5,-235.4"/>
</g>
<!-- /lib/panels/tools_panel.dart&#45;&gt;/lib/models/app_model.dart -->
<g id="edge4" class="edge">
<title>/lib/panels/tools_panel.dart&#45;&gt;/lib/models/app_model.dart</title>
<path fill="none" stroke="#aabbaa" stroke-width="1.3" stroke-opacity="0.533333" d="M691.71,-263.69C688.78,-263.03 685.86,-262.46 683,-262 658.97,-258.15 267.79,-262.55 245,-254 232.33,-249.25 220.5,-240.37 210.94,-231.52"/>
<polygon fill="#aabbaa" fill-opacity="0.533333" stroke="#aabbaa" stroke-width="1.3" stroke-opacity="0.533333" points="213.49,-229.12 203.91,-224.58 208.56,-234.1 213.49,-229.12"/>
</g>
<!-- /lib/widgets/transparent_background.dart -->
<g id="node15" class="node">
<title>/lib/widgets/transparent_background.dart</title>
<path fill="Lavender" stroke="black" stroke-width="1.3" d="M423.38,-223C423.38,-223 268.62,-223 268.62,-223 262.62,-223 256.62,-217 256.62,-211 256.62,-211 256.62,-199 256.62,-199 256.62,-193 262.62,-187 268.62,-187 268.62,-187 423.38,-187 423.38,-187 429.38,-187 435.38,-193 435.38,-199 435.38,-199 435.38,-211 435.38,-211 435.38,-217 429.38,-223 423.38,-223"/>
<text text-anchor="middle" x="346" y="-199.75" font-family="Arial" font-size="15.00">transparent_background</text>
</g>
<!-- /lib/panels/tools_panel.dart&#45;&gt;/lib/widgets/transparent_background.dart -->
<g id="edge7" class="edge">
<title>/lib/panels/tools_panel.dart&#45;&gt;/lib/widgets/transparent_background.dart</title>
<path fill="none" stroke="#aabbaa" stroke-width="1.3" stroke-opacity="0.533333" d="M691.7,-263.74C688.77,-263.07 685.86,-262.48 683,-262 630.81,-253.22 496.37,-266.71 445,-254 423.86,-248.77 401.92,-238.68 384.08,-229.1"/>
<polygon fill="#aabbaa" fill-opacity="0.533333" stroke="#aabbaa" stroke-width="1.3" stroke-opacity="0.533333" points="385.98,-226.15 375.54,-224.35 382.58,-232.27 385.98,-226.15"/>
</g>
<!-- /lib/widgets/color_picker.dart -->
<g id="node16" class="node">
<title>/lib/widgets/color_picker.dart</title>
<path fill="Lavender" stroke="black" stroke-width="1.3" d="M538.12,-223C538.12,-223 465.88,-223 465.88,-223 459.88,-223 453.88,-217 453.88,-211 453.88,-211 453.88,-199 453.88,-199 453.88,-193 459.88,-187 465.88,-187 465.88,-187 538.12,-187 538.12,-187 544.12,-187 550.12,-193 550.12,-199 550.12,-199 550.12,-211 550.12,-211 550.12,-217 544.12,-223 538.12,-223"/>
<text text-anchor="middle" x="502" y="-199.75" font-family="Arial" font-size="15.00">color_picker</text>
</g>
<!-- /lib/panels/tools_panel.dart&#45;&gt;/lib/widgets/color_picker.dart -->
<g id="edge6" class="edge">
<title>/lib/panels/tools_panel.dart&#45;&gt;/lib/widgets/color_picker.dart</title>
<path fill="none" stroke="#aabbaa" stroke-width="1.3" stroke-opacity="0.533333" d="M691.68,-263.85C688.76,-263.15 685.85,-262.53 683,-262 656.5,-257.1 587.12,-263.75 562,-254 549.05,-248.97 536.71,-240.09 526.62,-231.33"/>
<polygon fill="#aabbaa" fill-opacity="0.533333" stroke="#aabbaa" stroke-width="1.3" stroke-opacity="0.533333" points="529.22,-228.96 519.49,-224.76 524.47,-234.11 529.22,-228.96"/>
</g>
<!-- /lib/panels/layers_panel.dart -->
<g id="node5" class="node">
<title>/lib/panels/layers_panel.dart</title>
<path fill="Lavender" stroke="black" stroke-width="1.3" d="M662,-298C662,-298 586,-298 586,-298 580,-298 574,-292 574,-286 574,-286 574,-274 574,-274 574,-268 580,-262 586,-262 586,-262 662,-262 662,-262 668,-262 674,-268 674,-274 674,-274 674,-286 674,-286 674,-292 668,-298 662,-298"/>
<text text-anchor="middle" x="624" y="-274.75" font-family="Arial" font-size="15.00">layers_panel</text>
</g>
<!-- /lib/panels/layers_panel.dart&#45;&gt;/lib/models/app_model.dart -->
<g id="edge8" class="edge">
<title>/lib/panels/layers_panel.dart&#45;&gt;/lib/models/app_model.dart</title>
<path fill="none" stroke="#aabbaa" stroke-width="1.3" stroke-opacity="0.533333" d="M573.52,-262.64C572.34,-262.41 571.16,-262.19 570,-262 534.37,-256.07 278.78,-266.8 245,-254 232.35,-249.21 220.52,-240.32 210.96,-231.48"/>
<polygon fill="#aabbaa" fill-opacity="0.533333" stroke="#aabbaa" stroke-width="1.3" stroke-opacity="0.533333" points="213.5,-229.08 203.93,-224.54 208.58,-234.06 213.5,-229.08"/>
</g>
<!-- /lib/models/layers.dart -->
<g id="node7" class="node">
<title>/lib/models/layers.dart</title>
<path fill="Lavender" stroke="black" stroke-width="1.3" d="M203.88,-298C203.88,-298 172.12,-298 172.12,-298 166.12,-298 160.12,-292 160.12,-286 160.12,-286 160.12,-274 160.12,-274 160.12,-268 166.12,-262 172.12,-262 172.12,-262 203.88,-262 203.88,-262 209.88,-262 215.88,-268 215.88,-274 215.88,-274 215.88,-286 215.88,-286 215.88,-292 209.88,-298 203.88,-298"/>
<text text-anchor="middle" x="188" y="-274.75" font-family="Arial" font-size="15.00">layers</text>
</g>
<!-- /lib/models/user_action.dart -->
<g id="node8" class="node">
<title>/lib/models/user_action.dart</title>
<path fill="Lavender" stroke="black" stroke-width="1.3" d="M113.62,-223C113.62,-223 44.38,-223 44.38,-223 38.38,-223 32.38,-217 32.38,-211 32.38,-211 32.38,-199 32.38,-199 32.38,-193 38.38,-187 44.38,-187 44.38,-187 113.62,-187 113.62,-187 119.62,-187 125.62,-193 125.62,-199 125.62,-199 125.62,-211 125.62,-211 125.62,-217 119.62,-223 113.62,-223"/>
<text text-anchor="middle" x="79" y="-199.75" font-family="Arial" font-size="15.00">user_action</text>
</g>
<!-- /lib/models/layers.dart&#45;&gt;/lib/models/user_action.dart -->
<g id="edge10" class="edge">
<title>/lib/models/layers.dart&#45;&gt;/lib/models/user_action.dart</title>
<path fill="none" stroke="#aabbaa" stroke-width="1.3" stroke-dasharray="5,2" stroke-opacity="0.533333" d="M159.73,-267.74C151.19,-263.86 141.97,-259.17 134,-254 123.9,-247.45 113.72,-239.15 104.91,-231.3"/>
<polygon fill="#aabbaa" fill-opacity="0.533333" stroke="#aabbaa" stroke-width="1.3" stroke-opacity="0.533333" points="107.47,-228.9 97.74,-224.71 102.74,-234.05 107.47,-228.9"/>
</g>
<!-- /lib/models/layers.dart&#45;&gt;/lib/models/app_model.dart -->
<g id="edge9" class="edge">
<title>/lib/models/layers.dart&#45;&gt;/lib/models/app_model.dart</title>
<path fill="none" stroke="#aabbaa" stroke-width="1.3" stroke-opacity="0.533333" d="M176.32,-261.7C174.66,-253.76 174.13,-244.12 174.75,-235.11"/>
<polygon fill="#aabbaa" fill-opacity="0.533333" stroke="#aabbaa" stroke-width="1.3" stroke-opacity="0.533333" points="178.19,-235.75 176.04,-225.38 171.25,-234.83 178.19,-235.75"/>
</g>
<!-- /lib/models/user_action.dart&#45;&gt;/lib/brushes/brushes.dart -->
<g id="edge11" class="edge">
<title>/lib/models/user_action.dart&#45;&gt;/lib/brushes/brushes.dart</title>
<path fill="none" stroke="#aabbaa" stroke-width="1.3" stroke-opacity="0.533333" d="M73.36,-186.82C72.28,-176.8 71.99,-163.88 72.49,-152.29"/>
<polygon fill="#aabbaa" fill-opacity="0.533333" stroke="#aabbaa" stroke-width="1.3" stroke-opacity="0.533333" points="75.97,-152.62 73.2,-142.4 68.99,-152.12 75.97,-152.62"/>
</g>
<!-- /lib/models/user_action.dart&#45;&gt;/lib/brushes/brushes.dart -->
<g id="edge12" class="edge">
<title>/lib/models/user_action.dart&#45;&gt;/lib/brushes/brushes.dart</title>
<path fill="none" stroke="#aabbaa" stroke-width="1.3" stroke-dasharray="5,2" stroke-opacity="0.533333" d="M84.64,-186.82C85.72,-176.8 86.01,-163.88 85.51,-152.29"/>
<polygon fill="#aabbaa" fill-opacity="0.533333" stroke="#aabbaa" stroke-width="1.3" stroke-opacity="0.533333" points="89.01,-152.12 84.8,-142.4 82.03,-152.62 89.01,-152.12"/>
</g>
<!-- /lib/models/app_model.dart&#45;&gt;/lib/models/layers.dart -->
<g id="edge13" class="edge">
<title>/lib/models/app_model.dart&#45;&gt;/lib/models/layers.dart</title>
<path fill="none" stroke="#aabbaa" stroke-width="1.3" stroke-opacity="0.533333" d="M188,-223.43C188,-231.39 188,-241.03 188,-250.04"/>
<polygon fill="#aabbaa" fill-opacity="0.533333" stroke="#aabbaa" stroke-width="1.3" stroke-opacity="0.533333" points="184.5,-249.73 188,-259.73 191.5,-249.73 184.5,-249.73"/>
</g>
<!-- /lib/models/app_model.dart&#45;&gt;/lib/models/layers.dart -->
<g id="edge14" class="edge">
<title>/lib/models/app_model.dart&#45;&gt;/lib/models/layers.dart</title>
<path fill="none" stroke="#aabbaa" stroke-width="1.3" stroke-dasharray="5,2" stroke-opacity="0.533333" d="M199.71,-223.43C201.36,-231.39 201.87,-241.03 201.24,-250.04"/>
<polygon fill="#aabbaa" fill-opacity="0.533333" stroke="#aabbaa" stroke-width="1.3" stroke-opacity="0.533333" points="197.8,-249.37 199.94,-259.75 204.74,-250.3 197.8,-249.37"/>
</g>
<!-- /lib/main.dart&#45;&gt;/lib/models/app_model.dart -->
<g id="edge16" class="edge">
<title>/lib/main.dart&#45;&gt;/lib/models/app_model.dart</title>
<path fill="none" stroke="#aabbaa" stroke-width="1.3" stroke-opacity="0.533333" d="M222.68,-408.67C198.69,-391.69 165.45,-363.38 151,-329 139.46,-301.55 142.43,-290.52 151,-262 154.09,-251.73 159.73,-241.61 165.7,-232.86"/>
<polygon fill="#aabbaa" fill-opacity="0.533333" stroke="#aabbaa" stroke-width="1.3" stroke-opacity="0.533333" points="168.47,-235.01 171.56,-224.87 162.82,-230.87 168.47,-235.01"/>
</g>
<!-- /lib/main_screen.dart -->
<g id="node12" class="node">
<title>/lib/main_screen.dart</title>
<path fill="Lavender" stroke="black" stroke-width="1.3" d="M369.75,-373C369.75,-373 292.25,-373 292.25,-373 286.25,-373 280.25,-367 280.25,-361 280.25,-361 280.25,-349 280.25,-349 280.25,-343 286.25,-337 292.25,-337 292.25,-337 369.75,-337 369.75,-337 375.75,-337 381.75,-343 381.75,-349 381.75,-349 381.75,-361 381.75,-361 381.75,-367 375.75,-373 369.75,-373"/>
<text text-anchor="middle" x="331" y="-349.75" font-family="Arial" font-size="15.00">main_screen</text>
</g>
<!-- /lib/main.dart&#45;&gt;/lib/main_screen.dart -->
<g id="edge15" class="edge">
<title>/lib/main.dart&#45;&gt;/lib/main_screen.dart</title>
<path fill="none" stroke="#aabbaa" stroke-width="1.3" stroke-opacity="0.533333" d="M270.02,-408.7C279.66,-400.37 291.4,-390.22 301.99,-381.07"/>
<polygon fill="#aabbaa" fill-opacity="0.533333" stroke="#aabbaa" stroke-width="1.3" stroke-opacity="0.533333" points="304.16,-383.82 309.44,-374.63 299.58,-378.52 304.16,-383.82"/>
</g>
<!-- /lib/canvas.dart -->
<g id="node11" class="node">
<title>/lib/canvas.dart</title>
<path fill="Lavender" stroke="black" stroke-width="1.3" d="M350.62,-298C350.62,-298 311.38,-298 311.38,-298 305.38,-298 299.38,-292 299.38,-286 299.38,-286 299.38,-274 299.38,-274 299.38,-268 305.38,-262 311.38,-262 311.38,-262 350.62,-262 350.62,-262 356.62,-262 362.62,-268 362.62,-274 362.62,-274 362.62,-286 362.62,-286 362.62,-292 356.62,-298 350.62,-298"/>
<text text-anchor="middle" x="331" y="-274.75" font-family="Arial" font-size="15.00">canvas</text>
</g>
<!-- /lib/canvas.dart&#45;&gt;/lib/models/app_model.dart -->
<g id="edge18" class="edge">
<title>/lib/canvas.dart&#45;&gt;/lib/models/app_model.dart</title>
<path fill="none" stroke="#aabbaa" stroke-width="1.3" stroke-opacity="0.533333" d="M299.14,-273.08C282.37,-269.15 261.86,-263.02 245,-254 233.71,-247.96 222.62,-239.41 213.28,-231.2"/>
<polygon fill="#aabbaa" fill-opacity="0.533333" stroke="#aabbaa" stroke-width="1.3" stroke-opacity="0.533333" points="215.75,-228.72 206.02,-224.53 211.02,-233.87 215.75,-228.72"/>
</g>
<!-- /lib/canvas.dart&#45;&gt;/lib/widgets/transparent_background.dart -->
<g id="edge17" class="edge">
<title>/lib/canvas.dart&#45;&gt;/lib/widgets/transparent_background.dart</title>
<path fill="none" stroke="#aabbaa" stroke-width="1.3" stroke-opacity="0.533333" d="M334.55,-261.7C336.19,-253.76 338.17,-244.12 340.02,-235.11"/>
<polygon fill="#aabbaa" fill-opacity="0.533333" stroke="#aabbaa" stroke-width="1.3" stroke-opacity="0.533333" points="343.44,-235.86 342.02,-225.36 336.58,-234.45 343.44,-235.86"/>
</g>
<!-- /lib/main_screen.dart&#45;&gt;/lib/panels/tools_panel.dart -->
<g id="edge21" class="edge">
<title>/lib/main_screen.dart&#45;&gt;/lib/panels/tools_panel.dart</title>
<path fill="none" stroke="#aabbaa" stroke-width="1.3" stroke-opacity="0.533333" d="M382.07,-354.33C466.23,-354.21 630.04,-351.03 683,-329 694.94,-324.03 706.09,-315.41 715.19,-306.82"/>
<polygon fill="#aabbaa" fill-opacity="0.533333" stroke="#aabbaa" stroke-width="1.3" stroke-opacity="0.533333" points="717.62,-309.35 722.18,-299.79 712.65,-304.42 717.62,-309.35"/>
</g>
<!-- /lib/main_screen.dart&#45;&gt;/lib/panels/layers_panel.dart -->
<g id="edge20" class="edge">
<title>/lib/main_screen.dart&#45;&gt;/lib/panels/layers_panel.dart</title>
<path fill="none" stroke="#aabbaa" stroke-width="1.3" stroke-opacity="0.533333" d="M382.02,-352.31C441.97,-349.7 537.41,-343.37 570,-329 581.71,-323.84 592.66,-315.17 601.59,-306.61"/>
<polygon fill="#aabbaa" fill-opacity="0.533333" stroke="#aabbaa" stroke-width="1.3" stroke-opacity="0.533333" points="603.94,-309.21 608.44,-299.62 598.94,-304.31 603.94,-309.21"/>
</g>
<!-- /lib/main_screen.dart&#45;&gt;/lib/models/app_model.dart -->
<g id="edge22" class="edge">
<title>/lib/main_screen.dart&#45;&gt;/lib/models/app_model.dart</title>
<path fill="none" stroke="#aabbaa" stroke-width="1.3" stroke-opacity="0.533333" d="M300.21,-336.79C296.64,-334.34 293.15,-331.73 290,-329 256.66,-300.16 225.41,-259.73 206.5,-233.21"/>
<polygon fill="#aabbaa" fill-opacity="0.533333" stroke="#aabbaa" stroke-width="1.3" stroke-opacity="0.533333" points="209.38,-231.23 200.78,-225.06 203.65,-235.26 209.38,-231.23"/>
</g>
<!-- /lib/main_screen.dart&#45;&gt;/lib/canvas.dart -->
<g id="edge19" class="edge">
<title>/lib/main_screen.dart&#45;&gt;/lib/canvas.dart</title>
<path fill="none" stroke="#aabbaa" stroke-width="1.3" stroke-opacity="0.533333" d="M331,-336.7C331,-328.76 331,-319.12 331,-310.11"/>
<polygon fill="#aabbaa" fill-opacity="0.533333" stroke="#aabbaa" stroke-width="1.3" stroke-opacity="0.533333" points="334.5,-310.4 331,-300.4 327.5,-310.4 334.5,-310.4"/>
</g>
<!-- /lib/helpers/list_helper.dart -->
<g id="node13" class="node">
<title>/lib/helpers/list_helper.dart</title>
<path fill="Lavender" stroke="black" stroke-width="1.3" d="M500.75,-68C500.75,-68 441.25,-68 441.25,-68 435.25,-68 429.25,-62 429.25,-56 429.25,-56 429.25,-44 429.25,-44 429.25,-38 435.25,-32 441.25,-32 441.25,-32 500.75,-32 500.75,-32 506.75,-32 512.75,-38 512.75,-44 512.75,-44 512.75,-56 512.75,-56 512.75,-62 506.75,-68 500.75,-68"/>
<text text-anchor="middle" x="471" y="-44.75" font-family="Arial" font-size="15.00">list_helper</text>
</g>
<!-- /lib/helpers/color_helper.dart -->
<g id="node14" class="node">
<title>/lib/helpers/color_helper.dart</title>
<path fill="Lavender" stroke="black" stroke-width="1.3" d="M504.88,-140C504.88,-140 431.12,-140 431.12,-140 425.12,-140 419.12,-134 419.12,-128 419.12,-128 419.12,-116 419.12,-116 419.12,-110 425.12,-104 431.12,-104 431.12,-104 504.88,-104 504.88,-104 510.88,-104 516.88,-110 516.88,-116 516.88,-116 516.88,-128 516.88,-128 516.88,-134 510.88,-140 504.88,-140"/>
<text text-anchor="middle" x="468" y="-116.75" font-family="Arial" font-size="15.00">color_helper</text>
</g>
<!-- /lib/helpers/color_helper.dart&#45;&gt;/lib/helpers/list_helper.dart -->
<g id="edge23" class="edge">
<title>/lib/helpers/color_helper.dart&#45;&gt;/lib/helpers/list_helper.dart</title>
<path fill="none" stroke="#aabbaa" stroke-width="1.3" stroke-opacity="0.533333" d="M468.74,-103.7C469.05,-96.49 469.42,-87.93 469.76,-79.82"/>
<polygon fill="#aabbaa" fill-opacity="0.533333" stroke="#aabbaa" stroke-width="1.3" stroke-opacity="0.533333" points="473.25,-80.21 470.18,-70.07 466.26,-79.91 473.25,-80.21"/>
</g>
<!-- /lib/widgets/color_picker.dart&#45;&gt;/lib/helpers/list_helper.dart -->
<g id="edge25" class="edge">
<title>/lib/widgets/color_picker.dart&#45;&gt;/lib/helpers/list_helper.dart</title>
<path fill="none" stroke="#aabbaa" stroke-width="1.3" stroke-opacity="0.533333" d="M517.7,-186.64C521.1,-181.9 524.2,-176.52 526,-171 536.31,-139.3 540.27,-126.12 526,-96 522.37,-88.34 516.72,-81.54 510.4,-75.7"/>
<polygon fill="#aabbaa" fill-opacity="0.533333" stroke="#aabbaa" stroke-width="1.3" stroke-opacity="0.533333" points="512.95,-73.27 503.01,-69.6 508.49,-78.67 512.95,-73.27"/>
</g>
<!-- /lib/widgets/color_picker.dart&#45;&gt;/lib/helpers/color_helper.dart -->
<g id="edge24" class="edge">
<title>/lib/widgets/color_picker.dart&#45;&gt;/lib/helpers/color_helper.dart</title>
<path fill="none" stroke="#aabbaa" stroke-width="1.3" stroke-opacity="0.533333" d="M494.79,-186.82C490.45,-176.48 484.81,-163.05 479.83,-151.18"/>
<polygon fill="#aabbaa" fill-opacity="0.533333" stroke="#aabbaa" stroke-width="1.3" stroke-opacity="0.533333" points="483.18,-150.11 476.08,-142.25 476.72,-152.82 483.18,-150.11"/>
</g>
</g>
</svg>
