<?xml version="1.0" encoding="UTF-8" standalone="no"?>
<!DOCTYPE svg PUBLIC "-//W3C//DTD SVG 1.1//EN"
 "http://www.w3.org/Graphics/SVG/1.1/DTD/svg11.dtd">
<!-- Generated by graphviz version 12.2.1 (20241206.2353)
 -->
<!-- Pages: 1 -->
<svg width="1015pt" height="686pt"
 viewBox="0.00 0.00 1015.00 686.00" xmlns="http://www.w3.org/2000/svg" xmlns:xlink="http://www.w3.org/1999/xlink">
<g id="graph0" class="graph" transform="scale(1 1) rotate(0) translate(4 682)">
<polygon fill="white" stroke="none" points="-4,4 -4,-682 1011,-682 1011,4 -4,4"/>
<g id="clust1" class="cluster">
<title>cluster~</title>
<path fill="none" stroke="lightgray" stroke-width="2.6" d="M20,-8C20,-8 987,-8 987,-8 993,-8 999,-14 999,-20 999,-20 999,-658 999,-658 999,-664 993,-670 987,-670 987,-670 20,-670 20,-670 14,-670 8,-664 8,-658 8,-658 8,-20 8,-20 8,-14 14,-8 20,-8"/>
<text text-anchor="middle" x="503.5" y="-653.65" font-family="Arial Black" font-size="13.00">fpaint</text>
</g>
<g id="clust2" class="cluster">
<title>cluster~/test</title>
<path fill="none" stroke="lightgray" stroke-width="2.6" d="M136,-564C136,-564 368,-564 368,-564 374,-564 380,-570 380,-576 380,-576 380,-627 380,-627 380,-633 374,-639 368,-639 368,-639 136,-639 136,-639 130,-639 124,-633 124,-627 124,-627 124,-576 124,-576 124,-570 130,-564 136,-564"/>
<text text-anchor="middle" x="252" y="-622.65" font-family="Arial Black" font-size="13.00">test</text>
</g>
<g id="clust3" class="cluster">
<title>cluster~/lib</title>
<path fill="none" stroke="lightgray" stroke-width="2.6" d="M28,-16C28,-16 979,-16 979,-16 985,-16 991,-22 991,-28 991,-28 991,-544 991,-544 991,-550 985,-556 979,-556 979,-556 28,-556 28,-556 22,-556 16,-550 16,-544 16,-544 16,-28 16,-28 16,-22 22,-16 28,-16"/>
<text text-anchor="middle" x="503.5" y="-539.65" font-family="Arial Black" font-size="13.00">lib</text>
</g>
<g id="clust4" class="cluster">
<title>cluster~/lib/brushes</title>
<path fill="none" stroke="lightgray" stroke-width="2.6" d="M60,-96C60,-96 122,-96 122,-96 128,-96 134,-102 134,-108 134,-108 134,-159 134,-159 134,-165 128,-171 122,-171 122,-171 60,-171 60,-171 54,-171 48,-165 48,-159 48,-159 48,-108 48,-108 48,-102 54,-96 60,-96"/>
<text text-anchor="middle" x="91" y="-154.65" font-family="Arial Black" font-size="13.00">brushes</text>
</g>
<g id="clust5" class="cluster">
<title>cluster~/lib/panels</title>
<path fill="none" stroke="lightgray" stroke-width="2.6" d="M273,-262C273,-262 475,-262 475,-262 481,-262 487,-268 487,-274 487,-274 487,-397 487,-397 487,-403 481,-409 475,-409 475,-409 273,-409 273,-409 267,-409 261,-403 261,-397 261,-397 261,-274 261,-274 261,-268 267,-262 273,-262"/>
<text text-anchor="middle" x="374" y="-392.65" font-family="Arial Black" font-size="13.00">panels</text>
</g>
<g id="clust6" class="cluster">
<title>cluster~/lib/models</title>
<path fill="none" stroke="lightgray" stroke-width="2.6" d="M48,-179C48,-179 241,-179 241,-179 247,-179 253,-185 253,-191 253,-191 253,-397 253,-397 253,-403 247,-409 241,-409 241,-409 48,-409 48,-409 42,-409 36,-403 36,-397 36,-397 36,-191 36,-191 36,-185 42,-179 48,-179"/>
<text text-anchor="middle" x="144.5" y="-392.65" font-family="Arial Black" font-size="13.00">models</text>
</g>
<g id="clust7" class="cluster">
<title>cluster~/lib/files</title>
<path fill="none" stroke="lightgray" stroke-width="2.6" d="M507,-262C507,-262 879,-262 879,-262 885,-262 891,-268 891,-274 891,-274 891,-397 891,-397 891,-403 885,-409 879,-409 879,-409 507,-409 507,-409 501,-409 495,-403 495,-397 495,-397 495,-274 495,-274 495,-268 501,-262 507,-262"/>
<text text-anchor="middle" x="693" y="-392.65" font-family="Arial Black" font-size="13.00">files</text>
</g>
<g id="clust8" class="cluster">
<title>cluster~/lib/helpers</title>
<path fill="none" stroke="lightgray" stroke-width="2.6" d="M404,-24C404,-24 494,-24 494,-24 500,-24 506,-30 506,-36 506,-36 506,-159 506,-159 506,-165 500,-171 494,-171 494,-171 404,-171 404,-171 398,-171 392,-165 392,-159 392,-159 392,-36 392,-36 392,-30 398,-24 404,-24"/>
<text text-anchor="middle" x="449" y="-154.65" font-family="Arial Black" font-size="13.00">helpers</text>
</g>
<g id="clust9" class="cluster">
<title>cluster~/lib/widgets</title>
<path fill="none" stroke="lightgray" stroke-width="2.6" d="M395,-179C395,-179 680,-179 680,-179 686,-179 692,-185 692,-191 692,-191 692,-242 692,-242 692,-248 686,-254 680,-254 680,-254 395,-254 395,-254 389,-254 383,-248 383,-242 383,-242 383,-191 383,-191 383,-185 389,-179 395,-179"/>
<text text-anchor="middle" x="537.5" y="-237.65" font-family="Arial Black" font-size="13.00">widgets</text>
</g>
<!-- /test/paint_model_test.dart -->
<g id="node1" class="node">
<title>/test/paint_model_test.dart</title>
<path fill="Lavender" stroke="black" stroke-width="1.3" d="M250,-608C250,-608 144,-608 144,-608 138,-608 132,-602 132,-596 132,-596 132,-584 132,-584 132,-578 138,-572 144,-572 144,-572 250,-572 250,-572 256,-572 262,-578 262,-584 262,-584 262,-596 262,-596 262,-602 256,-608 250,-608"/>
<text text-anchor="middle" x="197" y="-584.75" font-family="Arial" font-size="15.00">paint_model_test</text>
</g>
<!-- /lib/models/app_model.dart -->
<g id="node10" class="node">
<title>/lib/models/app_model.dart</title>
<path fill="Lavender" stroke="black" stroke-width="1.3" d="M232.75,-223C232.75,-223 167.25,-223 167.25,-223 161.25,-223 155.25,-217 155.25,-211 155.25,-211 155.25,-199 155.25,-199 155.25,-193 161.25,-187 167.25,-187 167.25,-187 232.75,-187 232.75,-187 238.75,-187 244.75,-193 244.75,-199 244.75,-199 244.75,-211 244.75,-211 244.75,-217 238.75,-223 232.75,-223"/>
<text text-anchor="middle" x="200" y="-199.75" font-family="Arial" font-size="15.00">app_model</text>
</g>
<!-- /test/paint_model_test.dart&#45;&gt;/lib/models/app_model.dart -->
<g id="edge1" class="edge">
<title>/test/paint_model_test.dart&#45;&gt;/lib/models/app_model.dart</title>
<path fill="none" stroke="#aabbaa" stroke-width="1.3" stroke-opacity="0.533333" d="M131.52,-578.8C105.96,-573.4 80.88,-565.82 73,-556 39.59,-514.37 68,-489.38 68,-436 68,-436 68,-436 68,-359 68,-315.83 43.34,-293.37 73,-262 84.36,-249.98 131.91,-260.77 147,-254 158.55,-248.82 169.31,-240.14 178.08,-231.58"/>
<polygon fill="#aabbaa" fill-opacity="0.533333" stroke="#aabbaa" stroke-width="1.3" stroke-opacity="0.533333" points="180.37,-234.25 184.77,-224.62 175.32,-229.4 180.37,-234.25"/>
</g>
<!-- /test/widget_test.dart -->
<g id="node2" class="node">
<title>/test/widget_test.dart</title>
<path fill="Lavender" stroke="black" stroke-width="1.3" d="M359.88,-608C359.88,-608 292.12,-608 292.12,-608 286.12,-608 280.12,-602 280.12,-596 280.12,-596 280.12,-584 280.12,-584 280.12,-578 286.12,-572 292.12,-572 292.12,-572 359.88,-572 359.88,-572 365.88,-572 371.88,-578 371.88,-584 371.88,-584 371.88,-596 371.88,-596 371.88,-602 365.88,-608 359.88,-608"/>
<text text-anchor="middle" x="326" y="-584.75" font-family="Arial" font-size="15.00">widget_test</text>
</g>
<!-- /lib/main.dart -->
<g id="node12" class="node">
<title>/lib/main.dart</title>
<path fill="Lavender" stroke="black" stroke-width="1.3" d="M448,-525C448,-525 418,-525 418,-525 412,-525 406,-519 406,-513 406,-513 406,-501 406,-501 406,-495 412,-489 418,-489 418,-489 448,-489 448,-489 454,-489 460,-495 460,-501 460,-501 460,-513 460,-513 460,-519 454,-525 448,-525"/>
<text text-anchor="middle" x="433" y="-501.75" font-family="Arial" font-size="15.00">main</text>
</g>
<!-- /test/widget_test.dart&#45;&gt;/lib/main.dart -->
<g id="edge2" class="edge">
<title>/test/widget_test.dart&#45;&gt;/lib/main.dart</title>
<path fill="none" stroke="#aabbaa" stroke-width="1.3" stroke-opacity="0.533333" d="M348.95,-571.62C364.05,-560.2 384.01,-545.08 400.7,-532.45"/>
<polygon fill="#aabbaa" fill-opacity="0.533333" stroke="#aabbaa" stroke-width="1.3" stroke-opacity="0.533333" points="402.65,-535.36 408.51,-526.54 398.43,-529.78 402.65,-535.36"/>
</g>
<!-- /lib/brushes/brushes.dart -->
<g id="node3" class="node">
<title>/lib/brushes/brushes.dart</title>
<path fill="Lavender" stroke="black" stroke-width="1.3" d="M113.62,-140C113.62,-140 68.38,-140 68.38,-140 62.38,-140 56.38,-134 56.38,-128 56.38,-128 56.38,-116 56.38,-116 56.38,-110 62.38,-104 68.38,-104 68.38,-104 113.62,-104 113.62,-104 119.62,-104 125.62,-110 125.62,-116 125.62,-116 125.62,-128 125.62,-128 125.62,-134 119.62,-140 113.62,-140"/>
<text text-anchor="middle" x="91" y="-116.75" font-family="Arial" font-size="15.00">brushes</text>
</g>
<!-- /lib/brushes/brushes.dart&#45;&gt;/lib/models/app_model.dart -->
<g id="edge3" class="edge">
<title>/lib/brushes/brushes.dart&#45;&gt;/lib/models/app_model.dart</title>
<path fill="none" stroke="#aabbaa" stroke-width="1.3" stroke-opacity="0.533333" d="M114.34,-140.35C129.71,-151.77 150.05,-166.88 167.05,-179.52"/>
<polygon fill="#aabbaa" fill-opacity="0.533333" stroke="#aabbaa" stroke-width="1.3" stroke-opacity="0.533333" points="164.92,-182.29 175.04,-185.45 169.1,-176.68 164.92,-182.29"/>
</g>
<!-- /lib/panels/tools_panel.dart -->
<g id="node4" class="node">
<title>/lib/panels/tools_panel.dart</title>
<path fill="Lavender" stroke="black" stroke-width="1.3" d="M466.88,-378C466.88,-378 399.12,-378 399.12,-378 393.12,-378 387.12,-372 387.12,-366 387.12,-366 387.12,-354 387.12,-354 387.12,-348 393.12,-342 399.12,-342 399.12,-342 466.88,-342 466.88,-342 472.88,-342 478.88,-348 478.88,-354 478.88,-354 478.88,-366 478.88,-366 478.88,-372 472.88,-378 466.88,-378"/>
<text text-anchor="middle" x="433" y="-354.75" font-family="Arial" font-size="15.00">tools_panel</text>
</g>
<!-- /lib/panels/tool.dart -->
<g id="node6" class="node">
<title>/lib/panels/tool.dart</title>
<path fill="Lavender" stroke="black" stroke-width="1.3" d="M336,-306C336,-306 306,-306 306,-306 300,-306 294,-300 294,-294 294,-294 294,-282 294,-282 294,-276 300,-270 306,-270 306,-270 336,-270 336,-270 342,-270 348,-276 348,-282 348,-282 348,-294 348,-294 348,-300 342,-306 336,-306"/>
<text text-anchor="middle" x="321" y="-282.75" font-family="Arial" font-size="15.00">tool</text>
</g>
<!-- /lib/panels/tools_panel.dart&#45;&gt;/lib/panels/tool.dart -->
<g id="edge5" class="edge">
<title>/lib/panels/tools_panel.dart&#45;&gt;/lib/panels/tool.dart</title>
<path fill="none" stroke="#aabbaa" stroke-width="1.3" stroke-opacity="0.533333" d="M405.03,-341.52C390.78,-332.61 373.28,-321.67 357.94,-312.09"/>
<polygon fill="#aabbaa" fill-opacity="0.533333" stroke="#aabbaa" stroke-width="1.3" stroke-opacity="0.533333" points="360.23,-309.39 349.9,-307.06 356.52,-315.33 360.23,-309.39"/>
</g>
<!-- /lib/panels/tools_panel.dart&#45;&gt;/lib/models/app_model.dart -->
<g id="edge4" class="edge">
<title>/lib/panels/tools_panel.dart&#45;&gt;/lib/models/app_model.dart</title>
<path fill="none" stroke="#aabbaa" stroke-width="1.3" stroke-opacity="0.533333" d="M386.79,-343.98C346.61,-330.67 293.52,-312.38 285,-306 265.65,-291.5 268.45,-280.6 253,-262 244.44,-251.7 234.48,-240.9 225.52,-231.56"/>
<polygon fill="#aabbaa" fill-opacity="0.533333" stroke="#aabbaa" stroke-width="1.3" stroke-opacity="0.533333" points="228.16,-229.26 218.68,-224.53 223.14,-234.14 228.16,-229.26"/>
</g>
<!-- /lib/widgets/transparent_background.dart -->
<g id="node20" class="node">
<title>/lib/widgets/transparent_background.dart</title>
<path fill="Lavender" stroke="black" stroke-width="1.3" d="M672.38,-223C672.38,-223 517.62,-223 517.62,-223 511.62,-223 505.62,-217 505.62,-211 505.62,-211 505.62,-199 505.62,-199 505.62,-193 511.62,-187 517.62,-187 517.62,-187 672.38,-187 672.38,-187 678.38,-187 684.38,-193 684.38,-199 684.38,-199 684.38,-211 684.38,-211 684.38,-217 678.38,-223 672.38,-223"/>
<text text-anchor="middle" x="595" y="-199.75" font-family="Arial" font-size="15.00">transparent_background</text>
</g>
<!-- /lib/panels/tools_panel.dart&#45;&gt;/lib/widgets/transparent_background.dart -->
<g id="edge7" class="edge">
<title>/lib/panels/tools_panel.dart&#45;&gt;/lib/widgets/transparent_background.dart</title>
<path fill="none" stroke="#aabbaa" stroke-width="1.3" stroke-opacity="0.533333" d="M439.92,-341.69C449.02,-320.68 466.75,-285.19 491,-262 505.12,-248.5 523.12,-237.3 540.17,-228.55"/>
<polygon fill="#aabbaa" fill-opacity="0.533333" stroke="#aabbaa" stroke-width="1.3" stroke-opacity="0.533333" points="541.42,-231.84 548.85,-224.29 538.33,-225.55 541.42,-231.84"/>
</g>
<!-- /lib/widgets/color_picker.dart -->
<g id="node21" class="node">
<title>/lib/widgets/color_picker.dart</title>
<path fill="Lavender" stroke="black" stroke-width="1.3" d="M475.12,-223C475.12,-223 402.88,-223 402.88,-223 396.88,-223 390.88,-217 390.88,-211 390.88,-211 390.88,-199 390.88,-199 390.88,-193 396.88,-187 402.88,-187 402.88,-187 475.12,-187 475.12,-187 481.12,-187 487.12,-193 487.12,-199 487.12,-199 487.12,-211 487.12,-211 487.12,-217 481.12,-223 475.12,-223"/>
<text text-anchor="middle" x="439" y="-199.75" font-family="Arial" font-size="15.00">color_picker</text>
</g>
<!-- /lib/panels/tools_panel.dart&#45;&gt;/lib/widgets/color_picker.dart -->
<g id="edge6" class="edge">
<title>/lib/panels/tools_panel.dart&#45;&gt;/lib/widgets/color_picker.dart</title>
<path fill="none" stroke="#aabbaa" stroke-width="1.3" stroke-opacity="0.533333" d="M433.68,-341.75C434.69,-315.92 436.61,-266.88 437.85,-235.35"/>
<polygon fill="#aabbaa" fill-opacity="0.533333" stroke="#aabbaa" stroke-width="1.3" stroke-opacity="0.533333" points="441.34,-235.52 438.24,-225.39 434.35,-235.25 441.34,-235.52"/>
</g>
<!-- /lib/panels/layers_panel.dart -->
<g id="node5" class="node">
<title>/lib/panels/layers_panel.dart</title>
<path fill="Lavender" stroke="black" stroke-width="1.3" d="M357,-378C357,-378 281,-378 281,-378 275,-378 269,-372 269,-366 269,-366 269,-354 269,-354 269,-348 275,-342 281,-342 281,-342 357,-342 357,-342 363,-342 369,-348 369,-354 369,-354 369,-366 369,-366 369,-372 363,-378 357,-378"/>
<text text-anchor="middle" x="319" y="-354.75" font-family="Arial" font-size="15.00">layers_panel</text>
</g>
<!-- /lib/panels/share.dart -->
<g id="node7" class="node">
<title>/lib/panels/share.dart</title>
<path fill="Lavender" stroke="black" stroke-width="1.3" d="M408,-306C408,-306 378,-306 378,-306 372,-306 366,-300 366,-294 366,-294 366,-282 366,-282 366,-276 372,-270 378,-270 378,-270 408,-270 408,-270 414,-270 420,-276 420,-282 420,-282 420,-294 420,-294 420,-300 414,-306 408,-306"/>
<text text-anchor="middle" x="393" y="-282.75" font-family="Arial" font-size="15.00">share</text>
</g>
<!-- /lib/panels/layers_panel.dart&#45;&gt;/lib/panels/share.dart -->
<g id="edge9" class="edge">
<title>/lib/panels/layers_panel.dart&#45;&gt;/lib/panels/share.dart</title>
<path fill="none" stroke="#aabbaa" stroke-width="1.3" stroke-opacity="0.533333" d="M337.29,-341.7C346.01,-333.45 356.6,-323.43 366.21,-314.35"/>
<polygon fill="#aabbaa" fill-opacity="0.533333" stroke="#aabbaa" stroke-width="1.3" stroke-opacity="0.533333" points="368.37,-317.11 373.23,-307.7 363.56,-312.03 368.37,-317.11"/>
</g>
<!-- /lib/panels/layers_panel.dart&#45;&gt;/lib/models/app_model.dart -->
<g id="edge8" class="edge">
<title>/lib/panels/layers_panel.dart&#45;&gt;/lib/models/app_model.dart</title>
<path fill="none" stroke="#aabbaa" stroke-width="1.3" stroke-opacity="0.533333" d="M298.36,-341.73C287.22,-331.87 273.62,-318.93 263,-306 244.23,-283.15 226.63,-254.34 214.83,-233.52"/>
<polygon fill="#aabbaa" fill-opacity="0.533333" stroke="#aabbaa" stroke-width="1.3" stroke-opacity="0.533333" points="217.94,-231.9 210.01,-224.87 211.82,-235.31 217.94,-231.9"/>
</g>
<!-- /lib/panels/share.dart&#45;&gt;/lib/models/app_model.dart -->
<g id="edge11" class="edge">
<title>/lib/panels/share.dart&#45;&gt;/lib/models/app_model.dart</title>
<path fill="none" stroke="#aabbaa" stroke-width="1.3" stroke-opacity="0.533333" d="M369.93,-269.66C365.75,-266.9 361.33,-264.23 357,-262 324.93,-245.52 286.9,-231.82 256.29,-222.09"/>
<polygon fill="#aabbaa" fill-opacity="0.533333" stroke="#aabbaa" stroke-width="1.3" stroke-opacity="0.533333" points="257.42,-218.78 246.83,-219.15 255.34,-225.46 257.42,-218.78"/>
</g>
<!-- /lib/canvas.dart -->
<g id="node16" class="node">
<title>/lib/canvas.dart</title>
<path fill="Lavender" stroke="black" stroke-width="1.3" d="M970.62,-306C970.62,-306 931.38,-306 931.38,-306 925.38,-306 919.38,-300 919.38,-294 919.38,-294 919.38,-282 919.38,-282 919.38,-276 925.38,-270 931.38,-270 931.38,-270 970.62,-270 970.62,-270 976.62,-270 982.62,-276 982.62,-282 982.62,-282 982.62,-294 982.62,-294 982.62,-300 976.62,-306 970.62,-306"/>
<text text-anchor="middle" x="951" y="-282.75" font-family="Arial" font-size="15.00">canvas</text>
</g>
<!-- /lib/panels/share.dart&#45;&gt;/lib/canvas.dart -->
<g id="edge10" class="edge">
<title>/lib/panels/share.dart&#45;&gt;/lib/canvas.dart</title>
<path fill="none" stroke="#aabbaa" stroke-width="1.3" stroke-opacity="0.533333" d="M420.09,-299.85C441.35,-308.47 471.95,-319.41 500,-324 586.84,-338.22 811.67,-349.15 896,-324 904.1,-321.58 912.12,-317.55 919.43,-313.04"/>
<polygon fill="#aabbaa" fill-opacity="0.533333" stroke="#aabbaa" stroke-width="1.3" stroke-opacity="0.533333" points="921.23,-316.04 927.58,-307.56 917.33,-310.23 921.23,-316.04"/>
</g>
<!-- /lib/models/layers.dart -->
<g id="node8" class="node">
<title>/lib/models/layers.dart</title>
<path fill="Lavender" stroke="black" stroke-width="1.3" d="M169.88,-378C169.88,-378 138.12,-378 138.12,-378 132.12,-378 126.12,-372 126.12,-366 126.12,-366 126.12,-354 126.12,-354 126.12,-348 132.12,-342 138.12,-342 138.12,-342 169.88,-342 169.88,-342 175.88,-342 181.88,-348 181.88,-354 181.88,-354 181.88,-366 181.88,-366 181.88,-372 175.88,-378 169.88,-378"/>
<text text-anchor="middle" x="154" y="-354.75" font-family="Arial" font-size="15.00">layers</text>
</g>
<!-- /lib/models/layer.dart -->
<g id="node11" class="node">
<title>/lib/models/layer.dart</title>
<path fill="Lavender" stroke="black" stroke-width="1.3" d="M169,-306C169,-306 139,-306 139,-306 133,-306 127,-300 127,-294 127,-294 127,-282 127,-282 127,-276 133,-270 139,-270 139,-270 169,-270 169,-270 175,-270 181,-276 181,-282 181,-282 181,-294 181,-294 181,-300 175,-306 169,-306"/>
<text text-anchor="middle" x="154" y="-282.75" font-family="Arial" font-size="15.00">layer</text>
</g>
<!-- /lib/models/layers.dart&#45;&gt;/lib/models/layer.dart -->
<g id="edge13" class="edge">
<title>/lib/models/layers.dart&#45;&gt;/lib/models/layer.dart</title>
<path fill="none" stroke="#aabbaa" stroke-width="1.3" stroke-opacity="0.533333" d="M148.08,-341.7C147.34,-334.49 147.09,-325.93 147.34,-317.82"/>
<polygon fill="#aabbaa" fill-opacity="0.533333" stroke="#aabbaa" stroke-width="1.3" stroke-opacity="0.533333" points="150.82,-318.27 147.98,-308.07 143.84,-317.82 150.82,-318.27"/>
</g>
<!-- /lib/models/layers.dart&#45;&gt;/lib/models/layer.dart -->
<g id="edge14" class="edge">
<title>/lib/models/layers.dart&#45;&gt;/lib/models/layer.dart</title>
<path fill="none" stroke="#aabbaa" stroke-width="1.3" stroke-dasharray="5,2" stroke-opacity="0.533333" d="M159.92,-341.7C160.66,-334.49 160.91,-325.93 160.66,-317.82"/>
<polygon fill="#aabbaa" fill-opacity="0.533333" stroke="#aabbaa" stroke-width="1.3" stroke-opacity="0.533333" points="164.16,-317.82 160.02,-308.07 157.18,-318.27 164.16,-317.82"/>
</g>
<!-- /lib/helpers/list_helper.dart -->
<g id="node18" class="node">
<title>/lib/helpers/list_helper.dart</title>
<path fill="Lavender" stroke="black" stroke-width="1.3" d="M471.75,-68C471.75,-68 412.25,-68 412.25,-68 406.25,-68 400.25,-62 400.25,-56 400.25,-56 400.25,-44 400.25,-44 400.25,-38 406.25,-32 412.25,-32 412.25,-32 471.75,-32 471.75,-32 477.75,-32 483.75,-38 483.75,-44 483.75,-44 483.75,-56 483.75,-56 483.75,-62 477.75,-68 471.75,-68"/>
<text text-anchor="middle" x="442" y="-44.75" font-family="Arial" font-size="15.00">list_helper</text>
</g>
<!-- /lib/models/layers.dart&#45;&gt;/lib/helpers/list_helper.dart -->
<g id="edge12" class="edge">
<title>/lib/models/layers.dart&#45;&gt;/lib/helpers/list_helper.dart</title>
<path fill="none" stroke="#aabbaa" stroke-width="1.3" stroke-opacity="0.533333" d="M125.88,-343.86C96.93,-326.5 53.53,-295.06 35,-254 6.07,-189.89 -5.62,-145.85 44,-96 67.86,-72.03 285.31,-58.5 388.33,-53.39"/>
<polygon fill="#aabbaa" fill-opacity="0.533333" stroke="#aabbaa" stroke-width="1.3" stroke-opacity="0.533333" points="388.23,-56.9 398.05,-52.92 387.89,-49.91 388.23,-56.9"/>
</g>
<!-- /lib/models/user_action.dart -->
<g id="node9" class="node">
<title>/lib/models/user_action.dart</title>
<path fill="Lavender" stroke="black" stroke-width="1.3" d="M125.62,-223C125.62,-223 56.38,-223 56.38,-223 50.38,-223 44.38,-217 44.38,-211 44.38,-211 44.38,-199 44.38,-199 44.38,-193 50.38,-187 56.38,-187 56.38,-187 125.62,-187 125.62,-187 131.62,-187 137.62,-193 137.62,-199 137.62,-199 137.62,-211 137.62,-211 137.62,-217 131.62,-223 125.62,-223"/>
<text text-anchor="middle" x="91" y="-199.75" font-family="Arial" font-size="15.00">user_action</text>
</g>
<!-- /lib/models/user_action.dart&#45;&gt;/lib/brushes/brushes.dart -->
<g id="edge15" class="edge">
<title>/lib/models/user_action.dart&#45;&gt;/lib/brushes/brushes.dart</title>
<path fill="none" stroke="#aabbaa" stroke-width="1.3" stroke-opacity="0.533333" d="M85.36,-186.82C84.28,-176.8 83.99,-163.88 84.49,-152.29"/>
<polygon fill="#aabbaa" fill-opacity="0.533333" stroke="#aabbaa" stroke-width="1.3" stroke-opacity="0.533333" points="87.97,-152.62 85.2,-142.4 80.99,-152.12 87.97,-152.62"/>
</g>
<!-- /lib/models/user_action.dart&#45;&gt;/lib/brushes/brushes.dart -->
<g id="edge16" class="edge">
<title>/lib/models/user_action.dart&#45;&gt;/lib/brushes/brushes.dart</title>
<path fill="none" stroke="#aabbaa" stroke-width="1.3" stroke-dasharray="5,2" stroke-opacity="0.533333" d="M96.64,-186.82C97.72,-176.8 98.01,-163.88 97.51,-152.29"/>
<polygon fill="#aabbaa" fill-opacity="0.533333" stroke="#aabbaa" stroke-width="1.3" stroke-opacity="0.533333" points="101.01,-152.12 96.8,-142.4 94.03,-152.62 101.01,-152.12"/>
</g>
<!-- /lib/models/app_model.dart&#45;&gt;/lib/models/layers.dart -->
<g id="edge17" class="edge">
<title>/lib/models/app_model.dart&#45;&gt;/lib/models/layers.dart</title>
<path fill="none" stroke="#aabbaa" stroke-width="1.3" stroke-opacity="0.533333" d="M194.4,-223.19C192.2,-243.58 191.06,-278.28 181,-306 177.76,-314.91 172.69,-323.77 167.7,-331.61"/>
<polygon fill="#aabbaa" fill-opacity="0.533333" stroke="#aabbaa" stroke-width="1.3" stroke-opacity="0.533333" points="164.78,-329.68 162.2,-339.96 170.62,-333.53 164.78,-329.68"/>
</g>
<!-- /lib/models/app_model.dart&#45;&gt;/lib/models/layers.dart -->
<g id="edge18" class="edge">
<title>/lib/models/app_model.dart&#45;&gt;/lib/models/layers.dart</title>
<path fill="none" stroke="#aabbaa" stroke-width="1.3" stroke-dasharray="5,2" stroke-opacity="0.533333" d="M207.22,-223.19C210.2,-243.58 209.06,-278.28 199,-306 195.65,-315.22 190.34,-324.37 184.45,-332.41"/>
<polygon fill="#aabbaa" fill-opacity="0.533333" stroke="#aabbaa" stroke-width="1.3" stroke-opacity="0.533333" points="181.84,-330.08 178.3,-340.07 187.29,-334.46 181.84,-330.08"/>
</g>
<!-- /lib/models/layer.dart&#45;&gt;/lib/models/user_action.dart -->
<g id="edge20" class="edge">
<title>/lib/models/layer.dart&#45;&gt;/lib/models/user_action.dart</title>
<path fill="none" stroke="#aabbaa" stroke-width="1.3" stroke-dasharray="5,2" stroke-opacity="0.533333" d="M140.64,-269.82C132.26,-259.05 121.28,-244.94 111.78,-232.72"/>
<polygon fill="#aabbaa" fill-opacity="0.533333" stroke="#aabbaa" stroke-width="1.3" stroke-opacity="0.533333" points="114.67,-230.73 105.77,-224.99 109.14,-235.03 114.67,-230.73"/>
</g>
<!-- /lib/models/layer.dart&#45;&gt;/lib/models/app_model.dart -->
<g id="edge19" class="edge">
<title>/lib/models/layer.dart&#45;&gt;/lib/models/app_model.dart</title>
<path fill="none" stroke="#aabbaa" stroke-width="1.3" stroke-opacity="0.533333" d="M163.76,-269.82C169.69,-259.37 177.41,-245.77 184.2,-233.81"/>
<polygon fill="#aabbaa" fill-opacity="0.533333" stroke="#aabbaa" stroke-width="1.3" stroke-opacity="0.533333" points="187.23,-235.57 189.13,-225.14 181.15,-232.11 187.23,-235.57"/>
</g>
<!-- /lib/main.dart&#45;&gt;/lib/models/app_model.dart -->
<g id="edge22" class="edge">
<title>/lib/main.dart&#45;&gt;/lib/models/app_model.dart</title>
<path fill="none" stroke="#aabbaa" stroke-width="1.3" stroke-opacity="0.533333" d="M460.43,-504.73C552.51,-499.84 848.04,-478.86 905,-409 915.35,-396.31 907.19,-272.93 895,-262 884.33,-252.43 393.2,-255.98 379,-254 337.2,-248.16 291.24,-235.71 256.36,-224.94"/>
<polygon fill="#aabbaa" fill-opacity="0.533333" stroke="#aabbaa" stroke-width="1.3" stroke-opacity="0.533333" points="257.44,-221.62 246.85,-221.96 255.35,-228.3 257.44,-221.62"/>
</g>
<!-- /lib/main_screen.dart -->
<g id="node17" class="node">
<title>/lib/main_screen.dart</title>
<path fill="Lavender" stroke="black" stroke-width="1.3" d="M471.75,-453C471.75,-453 394.25,-453 394.25,-453 388.25,-453 382.25,-447 382.25,-441 382.25,-441 382.25,-429 382.25,-429 382.25,-423 388.25,-417 394.25,-417 394.25,-417 471.75,-417 471.75,-417 477.75,-417 483.75,-423 483.75,-429 483.75,-429 483.75,-441 483.75,-441 483.75,-447 477.75,-453 471.75,-453"/>
<text text-anchor="middle" x="433" y="-429.75" font-family="Arial" font-size="15.00">main_screen</text>
</g>
<!-- /lib/main.dart&#45;&gt;/lib/main_screen.dart -->
<g id="edge21" class="edge">
<title>/lib/main.dart&#45;&gt;/lib/main_screen.dart</title>
<path fill="none" stroke="#aabbaa" stroke-width="1.3" stroke-opacity="0.533333" d="M433,-488.7C433,-481.49 433,-472.93 433,-464.82"/>
<polygon fill="#aabbaa" fill-opacity="0.533333" stroke="#aabbaa" stroke-width="1.3" stroke-opacity="0.533333" points="436.5,-465.07 433,-455.07 429.5,-465.07 436.5,-465.07"/>
</g>
<!-- /lib/files/export_download_web.dart -->
<g id="node13" class="node">
<title>/lib/files/export_download_web.dart</title>
<path fill="Lavender" stroke="black" stroke-width="1.3" d="M655.25,-378C655.25,-378 514.75,-378 514.75,-378 508.75,-378 502.75,-372 502.75,-366 502.75,-366 502.75,-354 502.75,-354 502.75,-348 508.75,-342 514.75,-342 514.75,-342 655.25,-342 655.25,-342 661.25,-342 667.25,-348 667.25,-354 667.25,-354 667.25,-366 667.25,-366 667.25,-372 661.25,-378 655.25,-378"/>
<text text-anchor="middle" x="585" y="-354.75" font-family="Arial" font-size="15.00">export_download_web</text>
</g>
<!-- /lib/files/export_download_web.dart&#45;&gt;/lib/panels/share.dart -->
<g id="edge25" class="edge">
<title>/lib/files/export_download_web.dart&#45;&gt;/lib/panels/share.dart</title>
<path fill="none" stroke="#aabbaa" stroke-width="1.3" stroke-opacity="0.533333" d="M537.05,-341.52C504.45,-329.63 461.89,-314.11 431.5,-303.04"/>
<polygon fill="#aabbaa" fill-opacity="0.533333" stroke="#aabbaa" stroke-width="1.3" stroke-opacity="0.533333" points="432.94,-299.83 422.34,-299.7 430.54,-306.41 432.94,-299.83"/>
</g>
<!-- /lib/files/export_download_web.dart&#45;&gt;/lib/models/app_model.dart -->
<g id="edge24" class="edge">
<title>/lib/files/export_download_web.dart&#45;&gt;/lib/models/app_model.dart</title>
<path fill="none" stroke="#aabbaa" stroke-width="1.3" stroke-opacity="0.533333" d="M563.27,-341.53C551.46,-331.61 536.88,-318.68 525,-306 508.11,-287.96 512.85,-273.54 491,-262 464.43,-247.96 385.57,-259.35 356,-254 322.28,-247.9 285.6,-236.85 256.28,-226.89"/>
<polygon fill="#aabbaa" fill-opacity="0.533333" stroke="#aabbaa" stroke-width="1.3" stroke-opacity="0.533333" points="257.48,-223.6 246.88,-223.64 255.19,-230.22 257.48,-223.6"/>
</g>
<!-- /lib/files/file_ora.dart -->
<g id="node14" class="node">
<title>/lib/files/file_ora.dart</title>
<path fill="Lavender" stroke="black" stroke-width="1.3" d="M605.38,-306C605.38,-306 564.62,-306 564.62,-306 558.62,-306 552.62,-300 552.62,-294 552.62,-294 552.62,-282 552.62,-282 552.62,-276 558.62,-270 564.62,-270 564.62,-270 605.38,-270 605.38,-270 611.38,-270 617.38,-276 617.38,-282 617.38,-282 617.38,-294 617.38,-294 617.38,-300 611.38,-306 605.38,-306"/>
<text text-anchor="middle" x="585" y="-282.75" font-family="Arial" font-size="15.00">file_ora</text>
</g>
<!-- /lib/files/export_download_web.dart&#45;&gt;/lib/files/file_ora.dart -->
<g id="edge23" class="edge">
<title>/lib/files/export_download_web.dart&#45;&gt;/lib/files/file_ora.dart</title>
<path fill="none" stroke="#aabbaa" stroke-width="1.3" stroke-opacity="0.533333" d="M585,-341.7C585,-334.49 585,-325.93 585,-317.82"/>
<polygon fill="#aabbaa" fill-opacity="0.533333" stroke="#aabbaa" stroke-width="1.3" stroke-opacity="0.533333" points="588.5,-318.07 585,-308.07 581.5,-318.07 588.5,-318.07"/>
</g>
<!-- /lib/files/file_ora.dart&#45;&gt;/lib/models/app_model.dart -->
<g id="edge27" class="edge">
<title>/lib/files/file_ora.dart&#45;&gt;/lib/models/app_model.dart</title>
<path fill="none" stroke="#aabbaa" stroke-width="1.3" stroke-opacity="0.533333" d="M555.12,-269.54C548.68,-266.5 541.76,-263.76 535,-262 457.92,-241.98 434.47,-267.6 356,-254 322.23,-248.15 285.55,-237.11 256.25,-227.1"/>
<polygon fill="#aabbaa" fill-opacity="0.533333" stroke="#aabbaa" stroke-width="1.3" stroke-opacity="0.533333" points="257.44,-223.81 246.85,-223.82 255.14,-230.42 257.44,-223.81"/>
</g>
<!-- /lib/files/file_ora.dart&#45;&gt;/lib/helpers/list_helper.dart -->
<g id="edge26" class="edge">
<title>/lib/files/file_ora.dart&#45;&gt;/lib/helpers/list_helper.dart</title>
<path fill="none" stroke="#aabbaa" stroke-width="1.3" stroke-opacity="0.533333" d="M554.48,-269.58C547.91,-266.54 540.87,-263.78 534,-262 517.31,-257.67 391.1,-266.29 379,-254 329.72,-203.95 343.18,-158.1 376,-96 380.28,-87.9 386.75,-80.98 394,-75.17"/>
<polygon fill="#aabbaa" fill-opacity="0.533333" stroke="#aabbaa" stroke-width="1.3" stroke-opacity="0.533333" points="395.77,-78.21 401.88,-69.55 391.7,-72.51 395.77,-78.21"/>
</g>
<!-- /lib/files/export_download_non_web.dart -->
<g id="node15" class="node">
<title>/lib/files/export_download_non_web.dart</title>
<path fill="Lavender" stroke="black" stroke-width="1.3" d="M870.75,-378C870.75,-378 697.25,-378 697.25,-378 691.25,-378 685.25,-372 685.25,-366 685.25,-366 685.25,-354 685.25,-354 685.25,-348 691.25,-342 697.25,-342 697.25,-342 870.75,-342 870.75,-342 876.75,-342 882.75,-348 882.75,-354 882.75,-354 882.75,-366 882.75,-366 882.75,-372 876.75,-378 870.75,-378"/>
<text text-anchor="middle" x="784" y="-354.75" font-family="Arial" font-size="15.00">export_download_non_web</text>
</g>
<!-- /lib/files/export_download_non_web.dart&#45;&gt;/lib/models/app_model.dart -->
<g id="edge29" class="edge">
<title>/lib/files/export_download_non_web.dart&#45;&gt;/lib/models/app_model.dart</title>
<path fill="none" stroke="#aabbaa" stroke-width="1.3" stroke-opacity="0.533333" d="M689.47,-341.5C627.8,-329.51 556.5,-314.32 544,-306 524.09,-292.75 533.95,-273.55 513,-262 497.7,-253.57 373.2,-257.04 356,-254 322.25,-248.04 285.57,-237 256.26,-227.01"/>
<polygon fill="#aabbaa" fill-opacity="0.533333" stroke="#aabbaa" stroke-width="1.3" stroke-opacity="0.533333" points="257.46,-223.72 246.86,-223.74 255.16,-230.33 257.46,-223.72"/>
</g>
<!-- /lib/files/export_download_non_web.dart&#45;&gt;/lib/files/file_ora.dart -->
<g id="edge28" class="edge">
<title>/lib/files/export_download_non_web.dart&#45;&gt;/lib/files/file_ora.dart</title>
<path fill="none" stroke="#aabbaa" stroke-width="1.3" stroke-opacity="0.533333" d="M724.13,-341.53C696.07,-332.89 662.04,-321.77 628.39,-308.83"/>
<polygon fill="#aabbaa" fill-opacity="0.533333" stroke="#aabbaa" stroke-width="1.3" stroke-opacity="0.533333" points="629.91,-305.67 619.33,-305.29 627.36,-312.19 629.91,-305.67"/>
</g>
<!-- /lib/canvas.dart&#45;&gt;/lib/models/app_model.dart -->
<g id="edge31" class="edge">
<title>/lib/canvas.dart&#45;&gt;/lib/models/app_model.dart</title>
<path fill="none" stroke="#aabbaa" stroke-width="1.3" stroke-opacity="0.533333" d="M924.17,-269.65C918.09,-266.52 911.51,-263.71 905,-262 848.46,-247.17 436.89,-262.08 379,-254 337.2,-248.17 291.24,-235.71 256.36,-224.95"/>
<polygon fill="#aabbaa" fill-opacity="0.533333" stroke="#aabbaa" stroke-width="1.3" stroke-opacity="0.533333" points="257.44,-221.62 246.85,-221.97 255.35,-228.3 257.44,-221.62"/>
</g>
<!-- /lib/canvas.dart&#45;&gt;/lib/widgets/transparent_background.dart -->
<g id="edge30" class="edge">
<title>/lib/canvas.dart&#45;&gt;/lib/widgets/transparent_background.dart</title>
<path fill="none" stroke="#aabbaa" stroke-width="1.3" stroke-opacity="0.533333" d="M922.45,-269.67C916.81,-266.78 910.83,-264.05 905,-262 837.51,-238.26 758.04,-224.16 696.47,-216.04"/>
<polygon fill="#aabbaa" fill-opacity="0.533333" stroke="#aabbaa" stroke-width="1.3" stroke-opacity="0.533333" points="697.11,-212.6 686.74,-214.8 696.22,-219.54 697.11,-212.6"/>
</g>
<!-- /lib/main_screen.dart&#45;&gt;/lib/panels/tools_panel.dart -->
<g id="edge35" class="edge">
<title>/lib/main_screen.dart&#45;&gt;/lib/panels/tools_panel.dart</title>
<path fill="none" stroke="#aabbaa" stroke-width="1.3" stroke-opacity="0.533333" d="M433,-416.7C433,-408.76 433,-399.12 433,-390.11"/>
<polygon fill="#aabbaa" fill-opacity="0.533333" stroke="#aabbaa" stroke-width="1.3" stroke-opacity="0.533333" points="436.5,-390.4 433,-380.4 429.5,-390.4 436.5,-390.4"/>
</g>
<!-- /lib/main_screen.dart&#45;&gt;/lib/panels/layers_panel.dart -->
<g id="edge34" class="edge">
<title>/lib/main_screen.dart&#45;&gt;/lib/panels/layers_panel.dart</title>
<path fill="none" stroke="#aabbaa" stroke-width="1.3" stroke-opacity="0.533333" d="M391.55,-416.56C386.89,-414.19 382.28,-411.65 378,-409 367.22,-402.32 356.23,-393.9 346.7,-385.99"/>
<polygon fill="#aabbaa" fill-opacity="0.533333" stroke="#aabbaa" stroke-width="1.3" stroke-opacity="0.533333" points="349.1,-383.43 339.22,-379.6 344.56,-388.75 349.1,-383.43"/>
</g>
<!-- /lib/main_screen.dart&#45;&gt;/lib/models/app_model.dart -->
<g id="edge36" class="edge">
<title>/lib/main_screen.dart&#45;&gt;/lib/models/app_model.dart</title>
<path fill="none" stroke="#aabbaa" stroke-width="1.3" stroke-opacity="0.533333" d="M382.01,-433.67C297.18,-432.59 134.58,-428.02 117,-409 111.75,-403.32 113.44,-267.91 118,-262 126.17,-251.41 135.28,-260.44 147,-254 157.66,-248.14 167.92,-239.74 176.53,-231.59"/>
<polygon fill="#aabbaa" fill-opacity="0.533333" stroke="#aabbaa" stroke-width="1.3" stroke-opacity="0.533333" points="178.83,-234.24 183.45,-224.71 173.9,-229.28 178.83,-234.24"/>
</g>
<!-- /lib/main_screen.dart&#45;&gt;/lib/files/file_ora.dart -->
<g id="edge33" class="edge">
<title>/lib/main_screen.dart&#45;&gt;/lib/files/file_ora.dart</title>
<path fill="none" stroke="#aabbaa" stroke-width="1.3" stroke-opacity="0.533333" d="M484.24,-433.08C601.06,-430.72 878.16,-423.61 892,-409 912.48,-387.38 911.62,-364.4 892,-342 854.24,-298.89 698.41,-320.36 629.27,-307.66"/>
<polygon fill="#aabbaa" fill-opacity="0.533333" stroke="#aabbaa" stroke-width="1.3" stroke-opacity="0.533333" points="630.25,-304.3 619.71,-305.43 628.66,-311.11 630.25,-304.3"/>
</g>
<!-- /lib/main_screen.dart&#45;&gt;/lib/canvas.dart -->
<g id="edge32" class="edge">
<title>/lib/main_screen.dart&#45;&gt;/lib/canvas.dart</title>
<path fill="none" stroke="#aabbaa" stroke-width="1.3" stroke-opacity="0.533333" d="M483.95,-434.39C599.02,-434.84 871.61,-433.28 905,-409 933.92,-387.97 944.66,-346.23 948.65,-317.96"/>
<polygon fill="#aabbaa" fill-opacity="0.533333" stroke="#aabbaa" stroke-width="1.3" stroke-opacity="0.533333" points="952.08,-318.7 949.78,-308.36 945.13,-317.88 952.08,-318.7"/>
</g>
<!-- /lib/helpers/color_helper.dart -->
<g id="node19" class="node">
<title>/lib/helpers/color_helper.dart</title>
<path fill="Lavender" stroke="black" stroke-width="1.3" d="M485.88,-140C485.88,-140 412.12,-140 412.12,-140 406.12,-140 400.12,-134 400.12,-128 400.12,-128 400.12,-116 400.12,-116 400.12,-110 406.12,-104 412.12,-104 412.12,-104 485.88,-104 485.88,-104 491.88,-104 497.88,-110 497.88,-116 497.88,-116 497.88,-128 497.88,-128 497.88,-134 491.88,-140 485.88,-140"/>
<text text-anchor="middle" x="449" y="-116.75" font-family="Arial" font-size="15.00">color_helper</text>
</g>
<!-- /lib/helpers/color_helper.dart&#45;&gt;/lib/helpers/list_helper.dart -->
<g id="edge37" class="edge">
<title>/lib/helpers/color_helper.dart&#45;&gt;/lib/helpers/list_helper.dart</title>
<path fill="none" stroke="#aabbaa" stroke-width="1.3" stroke-opacity="0.533333" d="M447.27,-103.7C446.55,-96.49 445.69,-87.93 444.88,-79.82"/>
<polygon fill="#aabbaa" fill-opacity="0.533333" stroke="#aabbaa" stroke-width="1.3" stroke-opacity="0.533333" points="448.38,-79.66 443.91,-70.06 441.42,-80.36 448.38,-79.66"/>
</g>
<!-- /lib/widgets/color_picker.dart&#45;&gt;/lib/helpers/list_helper.dart -->
<g id="edge39" class="edge">
<title>/lib/widgets/color_picker.dart&#45;&gt;/lib/helpers/list_helper.dart</title>
<path fill="none" stroke="#aabbaa" stroke-width="1.3" stroke-opacity="0.533333" d="M404.54,-186.59C399.09,-182.27 394.2,-177.09 391,-171 375.48,-141.5 377.29,-126.38 391,-96 394.33,-88.62 399.53,-81.97 405.36,-76.19"/>
<polygon fill="#aabbaa" fill-opacity="0.533333" stroke="#aabbaa" stroke-width="1.3" stroke-opacity="0.533333" points="407.58,-78.9 412.74,-69.65 402.94,-73.66 407.58,-78.9"/>
</g>
<!-- /lib/widgets/color_picker.dart&#45;&gt;/lib/helpers/color_helper.dart -->
<g id="edge38" class="edge">
<title>/lib/widgets/color_picker.dart&#45;&gt;/lib/helpers/color_helper.dart</title>
<path fill="none" stroke="#aabbaa" stroke-width="1.3" stroke-opacity="0.533333" d="M441.12,-186.82C442.36,-176.8 443.95,-163.88 445.38,-152.29"/>
<polygon fill="#aabbaa" fill-opacity="0.533333" stroke="#aabbaa" stroke-width="1.3" stroke-opacity="0.533333" points="448.86,-152.74 446.61,-142.39 441.91,-151.88 448.86,-152.74"/>
</g>
</g>
</svg>
