<?xml version="1.0" encoding="UTF-8" standalone="no"?>
<!DOCTYPE svg PUBLIC "-//W3C//DTD SVG 1.1//EN"
 "http://www.w3.org/Graphics/SVG/1.1/DTD/svg11.dtd">
<!-- Generated by graphviz version 12.2.1 (20241206.2353)
 -->
<!-- Pages: 1 -->
<svg width="616pt" height="769pt"
 viewBox="0.00 0.00 616.00 769.00" xmlns="http://www.w3.org/2000/svg" xmlns:xlink="http://www.w3.org/1999/xlink">
<g id="graph0" class="graph" transform="scale(1 1) rotate(0) translate(4 765)">
<polygon fill="white" stroke="none" points="-4,4 -4,-765 612,-765 612,4 -4,4"/>
<g id="clust1" class="cluster">
<title>cluster~</title>
<path fill="none" stroke="lightgray" stroke-width="2.6" d="M20,-8C20,-8 588,-8 588,-8 594,-8 600,-14 600,-20 600,-20 600,-741 600,-741 600,-747 594,-753 588,-753 588,-753 20,-753 20,-753 14,-753 8,-747 8,-741 8,-741 8,-20 8,-20 8,-14 14,-8 20,-8"/>
<text text-anchor="middle" x="304" y="-736.65" font-family="Arial Black" font-size="13.00">fpaint</text>
</g>
<g id="clust2" class="cluster">
<title>cluster~/test</title>
<path fill="none" stroke="lightgray" stroke-width="2.6" d="M28,-647C28,-647 260,-647 260,-647 266,-647 272,-653 272,-659 272,-659 272,-710 272,-710 272,-716 266,-722 260,-722 260,-722 28,-722 28,-722 22,-722 16,-716 16,-710 16,-710 16,-659 16,-659 16,-653 22,-647 28,-647"/>
<text text-anchor="middle" x="144" y="-705.65" font-family="Arial Black" font-size="13.00">test</text>
</g>
<g id="clust3" class="cluster">
<title>cluster~/lib</title>
<path fill="none" stroke="lightgray" stroke-width="2.6" d="M28,-16C28,-16 580,-16 580,-16 586,-16 592,-22 592,-28 592,-28 592,-627 592,-627 592,-633 586,-639 580,-639 580,-639 28,-639 28,-639 22,-639 16,-633 16,-627 16,-627 16,-28 16,-28 16,-22 22,-16 28,-16"/>
<text text-anchor="middle" x="304" y="-622.65" font-family="Arial Black" font-size="13.00">lib</text>
</g>
<g id="clust4" class="cluster">
<title>cluster~/lib/brushes</title>
<path fill="none" stroke="lightgray" stroke-width="2.6" d="M60,-96C60,-96 122,-96 122,-96 128,-96 134,-102 134,-108 134,-108 134,-159 134,-159 134,-165 128,-171 122,-171 122,-171 60,-171 60,-171 54,-171 48,-165 48,-159 48,-159 48,-108 48,-108 48,-102 54,-96 60,-96"/>
<text text-anchor="middle" x="91" y="-154.65" font-family="Arial Black" font-size="13.00">brushes</text>
</g>
<g id="clust5" class="cluster">
<title>cluster~/lib/panels</title>
<path fill="none" stroke="lightgray" stroke-width="2.6" d="M250,-345C250,-345 452,-345 452,-345 458,-345 464,-351 464,-357 464,-357 464,-480 464,-480 464,-486 458,-492 452,-492 452,-492 250,-492 250,-492 244,-492 238,-486 238,-480 238,-480 238,-357 238,-357 238,-351 244,-345 250,-345"/>
<text text-anchor="middle" x="351" y="-475.65" font-family="Arial Black" font-size="13.00">panels</text>
</g>
<g id="clust6" class="cluster">
<title>cluster~/lib/models</title>
<path fill="none" stroke="lightgray" stroke-width="2.6" d="M48,-179C48,-179 241,-179 241,-179 247,-179 253,-185 253,-191 253,-191 253,-325 253,-325 253,-331 247,-337 241,-337 241,-337 48,-337 48,-337 42,-337 36,-331 36,-325 36,-325 36,-191 36,-191 36,-185 42,-179 48,-179"/>
<text text-anchor="middle" x="144.5" y="-320.65" font-family="Arial Black" font-size="13.00">models</text>
</g>
<g id="clust7" class="cluster">
<title>cluster~/lib/files</title>
<path fill="none" stroke="lightgray" stroke-width="2.6" d="M273,-262C273,-262 319,-262 319,-262 325,-262 331,-268 331,-274 331,-274 331,-325 331,-325 331,-331 325,-337 319,-337 319,-337 273,-337 273,-337 267,-337 261,-331 261,-325 261,-325 261,-274 261,-274 261,-268 267,-262 273,-262"/>
<text text-anchor="middle" x="296" y="-320.65" font-family="Arial Black" font-size="13.00">files</text>
</g>
<g id="clust8" class="cluster">
<title>cluster~/lib/helpers</title>
<path fill="none" stroke="lightgray" stroke-width="2.6" d="M351,-24C351,-24 441,-24 441,-24 447,-24 453,-30 453,-36 453,-36 453,-159 453,-159 453,-165 447,-171 441,-171 441,-171 351,-171 351,-171 345,-171 339,-165 339,-159 339,-159 339,-36 339,-36 339,-30 345,-24 351,-24"/>
<text text-anchor="middle" x="396" y="-154.65" font-family="Arial Black" font-size="13.00">helpers</text>
</g>
<g id="clust9" class="cluster">
<title>cluster~/lib/widgets</title>
<path fill="none" stroke="lightgray" stroke-width="2.6" d="M287,-179C287,-179 572,-179 572,-179 578,-179 584,-185 584,-191 584,-191 584,-242 584,-242 584,-248 578,-254 572,-254 572,-254 287,-254 287,-254 281,-254 275,-248 275,-242 275,-242 275,-191 275,-191 275,-185 281,-179 287,-179"/>
<text text-anchor="middle" x="429.5" y="-237.65" font-family="Arial Black" font-size="13.00">widgets</text>
</g>
<!-- /test/paint_model_test.dart -->
<g id="node1" class="node">
<title>/test/paint_model_test.dart</title>
<path fill="Lavender" stroke="black" stroke-width="1.3" d="M142,-691C142,-691 36,-691 36,-691 30,-691 24,-685 24,-679 24,-679 24,-667 24,-667 24,-661 30,-655 36,-655 36,-655 142,-655 142,-655 148,-655 154,-661 154,-667 154,-667 154,-679 154,-679 154,-685 148,-691 142,-691"/>
<text text-anchor="middle" x="89" y="-667.75" font-family="Arial" font-size="15.00">paint_model_test</text>
</g>
<!-- /lib/models/app_model.dart -->
<g id="node10" class="node">
<title>/lib/models/app_model.dart</title>
<path fill="Lavender" stroke="black" stroke-width="1.3" d="M232.75,-223C232.75,-223 167.25,-223 167.25,-223 161.25,-223 155.25,-217 155.25,-211 155.25,-211 155.25,-199 155.25,-199 155.25,-193 161.25,-187 167.25,-187 167.25,-187 232.75,-187 232.75,-187 238.75,-187 244.75,-193 244.75,-199 244.75,-199 244.75,-211 244.75,-211 244.75,-217 238.75,-223 232.75,-223"/>
<text text-anchor="middle" x="200" y="-199.75" font-family="Arial" font-size="15.00">app_model</text>
</g>
<!-- /test/paint_model_test.dart&#45;&gt;/lib/models/app_model.dart -->
<g id="edge1" class="edge">
<title>/test/paint_model_test.dart&#45;&gt;/lib/models/app_model.dart</title>
<path fill="none" stroke="#aabbaa" stroke-width="1.3" stroke-opacity="0.533333" d="M83.49,-654.69C82.12,-649.68 80.8,-644.16 80,-639 71.81,-586.25 75,-572.38 75,-519 75,-519 75,-519 75,-370 75,-321.79 51.53,-296.69 85,-262 94.64,-252 134.39,-259.82 147,-254 158.5,-248.7 169.25,-240 178.02,-231.45"/>
<polygon fill="#aabbaa" fill-opacity="0.533333" stroke="#aabbaa" stroke-width="1.3" stroke-opacity="0.533333" points="180.3,-234.14 184.72,-224.51 175.26,-229.28 180.3,-234.14"/>
</g>
<!-- /test/widget_test.dart -->
<g id="node2" class="node">
<title>/test/widget_test.dart</title>
<path fill="Lavender" stroke="black" stroke-width="1.3" d="M251.88,-691C251.88,-691 184.12,-691 184.12,-691 178.12,-691 172.12,-685 172.12,-679 172.12,-679 172.12,-667 172.12,-667 172.12,-661 178.12,-655 184.12,-655 184.12,-655 251.88,-655 251.88,-655 257.88,-655 263.88,-661 263.88,-667 263.88,-667 263.88,-679 263.88,-679 263.88,-685 257.88,-691 251.88,-691"/>
<text text-anchor="middle" x="218" y="-667.75" font-family="Arial" font-size="15.00">widget_test</text>
</g>
<!-- /lib/main.dart -->
<g id="node11" class="node">
<title>/lib/main.dart</title>
<path fill="Lavender" stroke="black" stroke-width="1.3" d="M233,-608C233,-608 203,-608 203,-608 197,-608 191,-602 191,-596 191,-596 191,-584 191,-584 191,-578 197,-572 203,-572 203,-572 233,-572 233,-572 239,-572 245,-578 245,-584 245,-584 245,-596 245,-596 245,-602 239,-608 233,-608"/>
<text text-anchor="middle" x="218" y="-584.75" font-family="Arial" font-size="15.00">main</text>
</g>
<!-- /test/widget_test.dart&#45;&gt;/lib/main.dart -->
<g id="edge2" class="edge">
<title>/test/widget_test.dart&#45;&gt;/lib/main.dart</title>
<path fill="none" stroke="#aabbaa" stroke-width="1.3" stroke-opacity="0.533333" d="M218,-654.82C218,-644.8 218,-631.88 218,-620.29"/>
<polygon fill="#aabbaa" fill-opacity="0.533333" stroke="#aabbaa" stroke-width="1.3" stroke-opacity="0.533333" points="221.5,-620.4 218,-610.4 214.5,-620.4 221.5,-620.4"/>
</g>
<!-- /lib/brushes/brushes.dart -->
<g id="node3" class="node">
<title>/lib/brushes/brushes.dart</title>
<path fill="Lavender" stroke="black" stroke-width="1.3" d="M113.62,-140C113.62,-140 68.38,-140 68.38,-140 62.38,-140 56.38,-134 56.38,-128 56.38,-128 56.38,-116 56.38,-116 56.38,-110 62.38,-104 68.38,-104 68.38,-104 113.62,-104 113.62,-104 119.62,-104 125.62,-110 125.62,-116 125.62,-116 125.62,-128 125.62,-128 125.62,-134 119.62,-140 113.62,-140"/>
<text text-anchor="middle" x="91" y="-116.75" font-family="Arial" font-size="15.00">brushes</text>
</g>
<!-- /lib/brushes/brushes.dart&#45;&gt;/lib/models/app_model.dart -->
<g id="edge3" class="edge">
<title>/lib/brushes/brushes.dart&#45;&gt;/lib/models/app_model.dart</title>
<path fill="none" stroke="#aabbaa" stroke-width="1.3" stroke-opacity="0.533333" d="M114.34,-140.35C129.71,-151.77 150.05,-166.88 167.05,-179.52"/>
<polygon fill="#aabbaa" fill-opacity="0.533333" stroke="#aabbaa" stroke-width="1.3" stroke-opacity="0.533333" points="164.92,-182.29 175.04,-185.45 169.1,-176.68 164.92,-182.29"/>
</g>
<!-- /lib/panels/tools_panel.dart -->
<g id="node4" class="node">
<title>/lib/panels/tools_panel.dart</title>
<path fill="Lavender" stroke="black" stroke-width="1.3" d="M443.88,-461C443.88,-461 376.12,-461 376.12,-461 370.12,-461 364.12,-455 364.12,-449 364.12,-449 364.12,-437 364.12,-437 364.12,-431 370.12,-425 376.12,-425 376.12,-425 443.88,-425 443.88,-425 449.88,-425 455.88,-431 455.88,-437 455.88,-437 455.88,-449 455.88,-449 455.88,-455 449.88,-461 443.88,-461"/>
<text text-anchor="middle" x="410" y="-437.75" font-family="Arial" font-size="15.00">tools_panel</text>
</g>
<!-- /lib/panels/tool.dart -->
<g id="node6" class="node">
<title>/lib/panels/tool.dart</title>
<path fill="Lavender" stroke="black" stroke-width="1.3" d="M425,-389C425,-389 395,-389 395,-389 389,-389 383,-383 383,-377 383,-377 383,-365 383,-365 383,-359 389,-353 395,-353 395,-353 425,-353 425,-353 431,-353 437,-359 437,-365 437,-365 437,-377 437,-377 437,-383 431,-389 425,-389"/>
<text text-anchor="middle" x="410" y="-365.75" font-family="Arial" font-size="15.00">tool</text>
</g>
<!-- /lib/panels/tools_panel.dart&#45;&gt;/lib/panels/tool.dart -->
<g id="edge5" class="edge">
<title>/lib/panels/tools_panel.dart&#45;&gt;/lib/panels/tool.dart</title>
<path fill="none" stroke="#aabbaa" stroke-width="1.3" stroke-opacity="0.533333" d="M410,-424.7C410,-417.49 410,-408.93 410,-400.82"/>
<polygon fill="#aabbaa" fill-opacity="0.533333" stroke="#aabbaa" stroke-width="1.3" stroke-opacity="0.533333" points="413.5,-401.07 410,-391.07 406.5,-401.07 413.5,-401.07"/>
</g>
<!-- /lib/panels/tools_panel.dart&#45;&gt;/lib/models/app_model.dart -->
<g id="edge4" class="edge">
<title>/lib/panels/tools_panel.dart&#45;&gt;/lib/models/app_model.dart</title>
<path fill="none" stroke="#aabbaa" stroke-width="1.3" stroke-opacity="0.533333" d="M363.67,-427.6C322.65,-414.54 268.06,-396.25 260,-389 243.89,-374.51 248.51,-364.47 239,-345 237.25,-341.43 236.36,-340.73 235,-337 223.26,-304.79 225.98,-295.08 217,-262 214.55,-252.97 211.66,-243.18 208.96,-234.36"/>
<polygon fill="#aabbaa" fill-opacity="0.533333" stroke="#aabbaa" stroke-width="1.3" stroke-opacity="0.533333" points="212.36,-233.48 206.05,-224.96 205.67,-235.55 212.36,-233.48"/>
</g>
<!-- /lib/widgets/transparent_background.dart -->
<g id="node17" class="node">
<title>/lib/widgets/transparent_background.dart</title>
<path fill="Lavender" stroke="black" stroke-width="1.3" d="M449.38,-223C449.38,-223 294.62,-223 294.62,-223 288.62,-223 282.62,-217 282.62,-211 282.62,-211 282.62,-199 282.62,-199 282.62,-193 288.62,-187 294.62,-187 294.62,-187 449.38,-187 449.38,-187 455.38,-187 461.38,-193 461.38,-199 461.38,-199 461.38,-211 461.38,-211 461.38,-217 455.38,-223 449.38,-223"/>
<text text-anchor="middle" x="372" y="-199.75" font-family="Arial" font-size="15.00">transparent_background</text>
</g>
<!-- /lib/panels/tools_panel.dart&#45;&gt;/lib/widgets/transparent_background.dart -->
<g id="edge7" class="edge">
<title>/lib/panels/tools_panel.dart&#45;&gt;/lib/widgets/transparent_background.dart</title>
<path fill="none" stroke="#aabbaa" stroke-width="1.3" stroke-opacity="0.533333" d="M432.79,-424.64C474.22,-391.01 553.72,-315.6 510,-262 498.82,-248.29 487.76,-259.68 471,-254 451.38,-247.35 430.61,-237.71 413.18,-228.82"/>
<polygon fill="#aabbaa" fill-opacity="0.533333" stroke="#aabbaa" stroke-width="1.3" stroke-opacity="0.533333" points="415.04,-225.84 404.56,-224.32 411.8,-232.05 415.04,-225.84"/>
</g>
<!-- /lib/widgets/color_picker.dart -->
<g id="node18" class="node">
<title>/lib/widgets/color_picker.dart</title>
<path fill="Lavender" stroke="black" stroke-width="1.3" d="M564.12,-223C564.12,-223 491.88,-223 491.88,-223 485.88,-223 479.88,-217 479.88,-211 479.88,-211 479.88,-199 479.88,-199 479.88,-193 485.88,-187 491.88,-187 491.88,-187 564.12,-187 564.12,-187 570.12,-187 576.12,-193 576.12,-199 576.12,-199 576.12,-211 576.12,-211 576.12,-217 570.12,-223 564.12,-223"/>
<text text-anchor="middle" x="528" y="-199.75" font-family="Arial" font-size="15.00">color_picker</text>
</g>
<!-- /lib/panels/tools_panel.dart&#45;&gt;/lib/widgets/color_picker.dart -->
<g id="edge6" class="edge">
<title>/lib/panels/tools_panel.dart&#45;&gt;/lib/widgets/color_picker.dart</title>
<path fill="none" stroke="#aabbaa" stroke-width="1.3" stroke-opacity="0.533333" d="M426.36,-424.79C444.33,-405.04 472.88,-370.97 490,-337 506.72,-303.81 517.23,-262.07 522.85,-234.75"/>
<polygon fill="#aabbaa" fill-opacity="0.533333" stroke="#aabbaa" stroke-width="1.3" stroke-opacity="0.533333" points="526.23,-235.7 524.71,-225.22 519.36,-234.36 526.23,-235.7"/>
</g>
<!-- /lib/panels/layers_panel.dart -->
<g id="node5" class="node">
<title>/lib/panels/layers_panel.dart</title>
<path fill="Lavender" stroke="black" stroke-width="1.3" d="M334,-461C334,-461 258,-461 258,-461 252,-461 246,-455 246,-449 246,-449 246,-437 246,-437 246,-431 252,-425 258,-425 258,-425 334,-425 334,-425 340,-425 346,-431 346,-437 346,-437 346,-449 346,-449 346,-455 340,-461 334,-461"/>
<text text-anchor="middle" x="296" y="-437.75" font-family="Arial" font-size="15.00">layers_panel</text>
</g>
<!-- /lib/panels/share.dart -->
<g id="node7" class="node">
<title>/lib/panels/share.dart</title>
<path fill="Lavender" stroke="black" stroke-width="1.3" d="M311,-389C311,-389 281,-389 281,-389 275,-389 269,-383 269,-377 269,-377 269,-365 269,-365 269,-359 275,-353 281,-353 281,-353 311,-353 311,-353 317,-353 323,-359 323,-365 323,-365 323,-377 323,-377 323,-383 317,-389 311,-389"/>
<text text-anchor="middle" x="296" y="-365.75" font-family="Arial" font-size="15.00">share</text>
</g>
<!-- /lib/panels/layers_panel.dart&#45;&gt;/lib/panels/share.dart -->
<g id="edge9" class="edge">
<title>/lib/panels/layers_panel.dart&#45;&gt;/lib/panels/share.dart</title>
<path fill="none" stroke="#aabbaa" stroke-width="1.3" stroke-opacity="0.533333" d="M296,-424.7C296,-417.49 296,-408.93 296,-400.82"/>
<polygon fill="#aabbaa" fill-opacity="0.533333" stroke="#aabbaa" stroke-width="1.3" stroke-opacity="0.533333" points="299.5,-401.07 296,-391.07 292.5,-401.07 299.5,-401.07"/>
</g>
<!-- /lib/panels/layers_panel.dart&#45;&gt;/lib/models/app_model.dart -->
<g id="edge8" class="edge">
<title>/lib/panels/layers_panel.dart&#45;&gt;/lib/models/app_model.dart</title>
<path fill="none" stroke="#aabbaa" stroke-width="1.3" stroke-opacity="0.533333" d="M275.07,-424.57C264.6,-414.96 252.39,-402.3 244,-389 213.52,-340.72 204.15,-273.08 201.27,-235.01"/>
<polygon fill="#aabbaa" fill-opacity="0.533333" stroke="#aabbaa" stroke-width="1.3" stroke-opacity="0.533333" points="204.78,-235.02 200.65,-225.27 197.79,-235.47 204.78,-235.02"/>
</g>
<!-- /lib/panels/share.dart&#45;&gt;/lib/models/app_model.dart -->
<g id="edge12" class="edge">
<title>/lib/panels/share.dart&#45;&gt;/lib/models/app_model.dart</title>
<path fill="none" stroke="#aabbaa" stroke-width="1.3" stroke-opacity="0.533333" d="M271.13,-352.73C265.87,-348.13 260.77,-342.8 257,-337 238.05,-307.88 249.23,-293.69 235,-262 230.61,-252.23 224.77,-242.13 219.11,-233.24"/>
<polygon fill="#aabbaa" fill-opacity="0.533333" stroke="#aabbaa" stroke-width="1.3" stroke-opacity="0.533333" points="222.17,-231.52 213.74,-225.1 216.32,-235.38 222.17,-231.52"/>
</g>
<!-- /lib/files/ora.dart -->
<g id="node12" class="node">
<title>/lib/files/ora.dart</title>
<path fill="Lavender" stroke="black" stroke-width="1.3" d="M311,-306C311,-306 281,-306 281,-306 275,-306 269,-300 269,-294 269,-294 269,-282 269,-282 269,-276 275,-270 281,-270 281,-270 311,-270 311,-270 317,-270 323,-276 323,-282 323,-282 323,-294 323,-294 323,-300 317,-306 311,-306"/>
<text text-anchor="middle" x="296" y="-282.75" font-family="Arial" font-size="15.00">ora</text>
</g>
<!-- /lib/panels/share.dart&#45;&gt;/lib/files/ora.dart -->
<g id="edge11" class="edge">
<title>/lib/panels/share.dart&#45;&gt;/lib/files/ora.dart</title>
<path fill="none" stroke="#aabbaa" stroke-width="1.3" stroke-opacity="0.533333" d="M296,-352.82C296,-342.8 296,-329.88 296,-318.29"/>
<polygon fill="#aabbaa" fill-opacity="0.533333" stroke="#aabbaa" stroke-width="1.3" stroke-opacity="0.533333" points="299.5,-318.4 296,-308.4 292.5,-318.4 299.5,-318.4"/>
</g>
<!-- /lib/canvas.dart -->
<g id="node13" class="node">
<title>/lib/canvas.dart</title>
<path fill="Lavender" stroke="black" stroke-width="1.3" d="M392.62,-306C392.62,-306 353.38,-306 353.38,-306 347.38,-306 341.38,-300 341.38,-294 341.38,-294 341.38,-282 341.38,-282 341.38,-276 347.38,-270 353.38,-270 353.38,-270 392.62,-270 392.62,-270 398.62,-270 404.62,-276 404.62,-282 404.62,-282 404.62,-294 404.62,-294 404.62,-300 398.62,-306 392.62,-306"/>
<text text-anchor="middle" x="373" y="-282.75" font-family="Arial" font-size="15.00">canvas</text>
</g>
<!-- /lib/panels/share.dart&#45;&gt;/lib/canvas.dart -->
<g id="edge10" class="edge">
<title>/lib/panels/share.dart&#45;&gt;/lib/canvas.dart</title>
<path fill="none" stroke="#aabbaa" stroke-width="1.3" stroke-opacity="0.533333" d="M318.14,-352.58C323.84,-347.75 329.82,-342.35 335,-337 341.4,-330.38 347.82,-322.75 353.52,-315.54"/>
<polygon fill="#aabbaa" fill-opacity="0.533333" stroke="#aabbaa" stroke-width="1.3" stroke-opacity="0.533333" points="356.24,-317.74 359.56,-307.68 350.69,-313.48 356.24,-317.74"/>
</g>
<!-- /lib/models/layers.dart -->
<g id="node8" class="node">
<title>/lib/models/layers.dart</title>
<path fill="Lavender" stroke="black" stroke-width="1.3" d="M137.88,-306C137.88,-306 106.12,-306 106.12,-306 100.12,-306 94.12,-300 94.12,-294 94.12,-294 94.12,-282 94.12,-282 94.12,-276 100.12,-270 106.12,-270 106.12,-270 137.88,-270 137.88,-270 143.88,-270 149.88,-276 149.88,-282 149.88,-282 149.88,-294 149.88,-294 149.88,-300 143.88,-306 137.88,-306"/>
<text text-anchor="middle" x="122" y="-282.75" font-family="Arial" font-size="15.00">layers</text>
</g>
<!-- /lib/models/user_action.dart -->
<g id="node9" class="node">
<title>/lib/models/user_action.dart</title>
<path fill="Lavender" stroke="black" stroke-width="1.3" d="M125.62,-223C125.62,-223 56.38,-223 56.38,-223 50.38,-223 44.38,-217 44.38,-211 44.38,-211 44.38,-199 44.38,-199 44.38,-193 50.38,-187 56.38,-187 56.38,-187 125.62,-187 125.62,-187 131.62,-187 137.62,-193 137.62,-199 137.62,-199 137.62,-211 137.62,-211 137.62,-217 131.62,-223 125.62,-223"/>
<text text-anchor="middle" x="91" y="-199.75" font-family="Arial" font-size="15.00">user_action</text>
</g>
<!-- /lib/models/layers.dart&#45;&gt;/lib/models/user_action.dart -->
<g id="edge15" class="edge">
<title>/lib/models/layers.dart&#45;&gt;/lib/models/user_action.dart</title>
<path fill="none" stroke="#aabbaa" stroke-width="1.3" stroke-dasharray="5,2" stroke-opacity="0.533333" d="M115.43,-269.82C111.51,-259.58 106.43,-246.33 101.93,-234.55"/>
<polygon fill="#aabbaa" fill-opacity="0.533333" stroke="#aabbaa" stroke-width="1.3" stroke-opacity="0.533333" points="105.22,-233.36 98.37,-225.27 98.68,-235.86 105.22,-233.36"/>
</g>
<!-- /lib/models/layers.dart&#45;&gt;/lib/models/app_model.dart -->
<g id="edge14" class="edge">
<title>/lib/models/layers.dart&#45;&gt;/lib/models/app_model.dart</title>
<path fill="none" stroke="#aabbaa" stroke-width="1.3" stroke-opacity="0.533333" d="M127.27,-269.82C135.63,-258.62 149.45,-243.81 163.04,-231.28"/>
<polygon fill="#aabbaa" fill-opacity="0.533333" stroke="#aabbaa" stroke-width="1.3" stroke-opacity="0.533333" points="165.26,-233.99 170.41,-224.74 160.61,-228.76 165.26,-233.99"/>
</g>
<!-- /lib/helpers/list_helper.dart -->
<g id="node15" class="node">
<title>/lib/helpers/list_helper.dart</title>
<path fill="Lavender" stroke="black" stroke-width="1.3" d="M421.75,-68C421.75,-68 362.25,-68 362.25,-68 356.25,-68 350.25,-62 350.25,-56 350.25,-56 350.25,-44 350.25,-44 350.25,-38 356.25,-32 362.25,-32 362.25,-32 421.75,-32 421.75,-32 427.75,-32 433.75,-38 433.75,-44 433.75,-44 433.75,-56 433.75,-56 433.75,-62 427.75,-68 421.75,-68"/>
<text text-anchor="middle" x="392" y="-44.75" font-family="Arial" font-size="15.00">list_helper</text>
</g>
<!-- /lib/models/layers.dart&#45;&gt;/lib/helpers/list_helper.dart -->
<g id="edge13" class="edge">
<title>/lib/models/layers.dart&#45;&gt;/lib/helpers/list_helper.dart</title>
<path fill="none" stroke="#aabbaa" stroke-width="1.3" stroke-opacity="0.533333" d="M93.78,-284.5C73.73,-281.08 48.12,-273.01 35,-254 -4.95,-196.11 -5.22,-146.24 44,-96 83.8,-55.37 250.67,-50.07 338.08,-50.18"/>
<polygon fill="#aabbaa" fill-opacity="0.533333" stroke="#aabbaa" stroke-width="1.3" stroke-opacity="0.533333" points="337.88,-53.68 347.89,-50.22 337.91,-46.68 337.88,-53.68"/>
</g>
<!-- /lib/models/user_action.dart&#45;&gt;/lib/brushes/brushes.dart -->
<g id="edge16" class="edge">
<title>/lib/models/user_action.dart&#45;&gt;/lib/brushes/brushes.dart</title>
<path fill="none" stroke="#aabbaa" stroke-width="1.3" stroke-opacity="0.533333" d="M85.36,-186.82C84.28,-176.8 83.99,-163.88 84.49,-152.29"/>
<polygon fill="#aabbaa" fill-opacity="0.533333" stroke="#aabbaa" stroke-width="1.3" stroke-opacity="0.533333" points="87.97,-152.62 85.2,-142.4 80.99,-152.12 87.97,-152.62"/>
</g>
<!-- /lib/models/user_action.dart&#45;&gt;/lib/brushes/brushes.dart -->
<g id="edge17" class="edge">
<title>/lib/models/user_action.dart&#45;&gt;/lib/brushes/brushes.dart</title>
<path fill="none" stroke="#aabbaa" stroke-width="1.3" stroke-dasharray="5,2" stroke-opacity="0.533333" d="M96.64,-186.82C97.72,-176.8 98.01,-163.88 97.51,-152.29"/>
<polygon fill="#aabbaa" fill-opacity="0.533333" stroke="#aabbaa" stroke-width="1.3" stroke-opacity="0.533333" points="101.01,-152.12 96.8,-142.4 94.03,-152.62 101.01,-152.12"/>
</g>
<!-- /lib/models/app_model.dart&#45;&gt;/lib/models/layers.dart -->
<g id="edge18" class="edge">
<title>/lib/models/app_model.dart&#45;&gt;/lib/models/layers.dart</title>
<path fill="none" stroke="#aabbaa" stroke-width="1.3" stroke-opacity="0.533333" d="M183.21,-223.43C172.58,-234.47 158.65,-248.94 146.76,-261.29"/>
<polygon fill="#aabbaa" fill-opacity="0.533333" stroke="#aabbaa" stroke-width="1.3" stroke-opacity="0.533333" points="144.32,-258.77 139.91,-268.4 149.36,-263.63 144.32,-258.77"/>
</g>
<!-- /lib/models/app_model.dart&#45;&gt;/lib/models/layers.dart -->
<g id="edge19" class="edge">
<title>/lib/models/app_model.dart&#45;&gt;/lib/models/layers.dart</title>
<path fill="none" stroke="#aabbaa" stroke-width="1.3" stroke-dasharray="5,2" stroke-opacity="0.533333" d="M194.54,-223.43C186.09,-234.69 172.24,-249.51 158.65,-262"/>
<polygon fill="#aabbaa" fill-opacity="0.533333" stroke="#aabbaa" stroke-width="1.3" stroke-opacity="0.533333" points="156.46,-259.27 151.29,-268.52 161.1,-264.51 156.46,-259.27"/>
</g>
<!-- /lib/main.dart&#45;&gt;/lib/models/app_model.dart -->
<g id="edge21" class="edge">
<title>/lib/main.dart&#45;&gt;/lib/models/app_model.dart</title>
<path fill="none" stroke="#aabbaa" stroke-width="1.3" stroke-opacity="0.533333" d="M208.08,-571.78C193.77,-545.25 169,-492.36 169,-444 169,-444 169,-444 169,-370 169,-321.7 182.15,-266.76 191.32,-234.31"/>
<polygon fill="#aabbaa" fill-opacity="0.533333" stroke="#aabbaa" stroke-width="1.3" stroke-opacity="0.533333" points="194.61,-235.5 194.05,-224.92 187.89,-233.55 194.61,-235.5"/>
</g>
<!-- /lib/main_screen.dart -->
<g id="node14" class="node">
<title>/lib/main_screen.dart</title>
<path fill="Lavender" stroke="black" stroke-width="1.3" d="M305.75,-536C305.75,-536 228.25,-536 228.25,-536 222.25,-536 216.25,-530 216.25,-524 216.25,-524 216.25,-512 216.25,-512 216.25,-506 222.25,-500 228.25,-500 228.25,-500 305.75,-500 305.75,-500 311.75,-500 317.75,-506 317.75,-512 317.75,-512 317.75,-524 317.75,-524 317.75,-530 311.75,-536 305.75,-536"/>
<text text-anchor="middle" x="267" y="-512.75" font-family="Arial" font-size="15.00">main_screen</text>
</g>
<!-- /lib/main.dart&#45;&gt;/lib/main_screen.dart -->
<g id="edge20" class="edge">
<title>/lib/main.dart&#45;&gt;/lib/main_screen.dart</title>
<path fill="none" stroke="#aabbaa" stroke-width="1.3" stroke-opacity="0.533333" d="M230.11,-571.7C235.57,-563.9 242.14,-554.51 248.22,-545.83"/>
<polygon fill="#aabbaa" fill-opacity="0.533333" stroke="#aabbaa" stroke-width="1.3" stroke-opacity="0.533333" points="251.03,-547.92 253.9,-537.72 245.3,-543.9 251.03,-547.92"/>
</g>
<!-- /lib/files/ora.dart&#45;&gt;/lib/models/app_model.dart -->
<g id="edge23" class="edge">
<title>/lib/files/ora.dart&#45;&gt;/lib/models/app_model.dart</title>
<path fill="none" stroke="#aabbaa" stroke-width="1.3" stroke-opacity="0.533333" d="M275.64,-269.82C262.24,-258.52 244.48,-243.53 229.54,-230.92"/>
<polygon fill="#aabbaa" fill-opacity="0.533333" stroke="#aabbaa" stroke-width="1.3" stroke-opacity="0.533333" points="232.06,-228.48 222.16,-224.7 227.55,-233.83 232.06,-228.48"/>
</g>
<!-- /lib/files/ora.dart&#45;&gt;/lib/helpers/list_helper.dart -->
<g id="edge22" class="edge">
<title>/lib/files/ora.dart&#45;&gt;/lib/helpers/list_helper.dart</title>
<path fill="none" stroke="#aabbaa" stroke-width="1.3" stroke-opacity="0.533333" d="M279.65,-269.73C276.12,-264.98 272.88,-259.59 271,-254 260.38,-222.4 259.9,-210.43 271,-179 286.53,-135.03 326.5,-98.02 356.27,-75.29"/>
<polygon fill="#aabbaa" fill-opacity="0.533333" stroke="#aabbaa" stroke-width="1.3" stroke-opacity="0.533333" points="358.01,-78.36 363.96,-69.59 353.84,-72.74 358.01,-78.36"/>
</g>
<!-- /lib/canvas.dart&#45;&gt;/lib/models/app_model.dart -->
<g id="edge25" class="edge">
<title>/lib/canvas.dart&#45;&gt;/lib/models/app_model.dart</title>
<path fill="none" stroke="#aabbaa" stroke-width="1.3" stroke-opacity="0.533333" d="M350.18,-269.61C345.38,-266.65 340.19,-263.91 335,-262 308.1,-252.09 297.83,-264.08 271,-254 256.16,-248.43 241.38,-239.18 229.18,-230.28"/>
<polygon fill="#aabbaa" fill-opacity="0.533333" stroke="#aabbaa" stroke-width="1.3" stroke-opacity="0.533333" points="231.63,-227.75 221.56,-224.49 227.4,-233.33 231.63,-227.75"/>
</g>
<!-- /lib/canvas.dart&#45;&gt;/lib/widgets/transparent_background.dart -->
<g id="edge24" class="edge">
<title>/lib/canvas.dart&#45;&gt;/lib/widgets/transparent_background.dart</title>
<path fill="none" stroke="#aabbaa" stroke-width="1.3" stroke-opacity="0.533333" d="M372.79,-269.82C372.66,-259.8 372.5,-246.88 372.36,-235.29"/>
<polygon fill="#aabbaa" fill-opacity="0.533333" stroke="#aabbaa" stroke-width="1.3" stroke-opacity="0.533333" points="375.86,-235.36 372.24,-225.4 368.86,-235.44 375.86,-235.36"/>
</g>
<!-- /lib/main_screen.dart&#45;&gt;/lib/panels/tools_panel.dart -->
<g id="edge29" class="edge">
<title>/lib/main_screen.dart&#45;&gt;/lib/panels/tools_panel.dart</title>
<path fill="none" stroke="#aabbaa" stroke-width="1.3" stroke-opacity="0.533333" d="M317.83,-506.66C330.41,-503.01 343.55,-498.21 355,-492 366.03,-486.02 376.75,-477.48 385.76,-469.26"/>
<polygon fill="#aabbaa" fill-opacity="0.533333" stroke="#aabbaa" stroke-width="1.3" stroke-opacity="0.533333" points="387.9,-472.06 392.72,-462.62 383.07,-466.99 387.9,-472.06"/>
</g>
<!-- /lib/main_screen.dart&#45;&gt;/lib/panels/layers_panel.dart -->
<g id="edge28" class="edge">
<title>/lib/main_screen.dart&#45;&gt;/lib/panels/layers_panel.dart</title>
<path fill="none" stroke="#aabbaa" stroke-width="1.3" stroke-opacity="0.533333" d="M273.87,-499.7C277.1,-491.58 281.03,-481.68 284.68,-472.5"/>
<polygon fill="#aabbaa" fill-opacity="0.533333" stroke="#aabbaa" stroke-width="1.3" stroke-opacity="0.533333" points="287.91,-473.84 288.35,-463.26 281.41,-471.26 287.91,-473.84"/>
</g>
<!-- /lib/main_screen.dart&#45;&gt;/lib/models/app_model.dart -->
<g id="edge30" class="edge">
<title>/lib/main_screen.dart&#45;&gt;/lib/models/app_model.dart</title>
<path fill="none" stroke="#aabbaa" stroke-width="1.3" stroke-opacity="0.533333" d="M215.88,-502.57C211.68,-499.67 207.92,-496.19 205,-492 176.53,-451.26 189.52,-299.39 196.55,-235.07"/>
<polygon fill="#aabbaa" fill-opacity="0.533333" stroke="#aabbaa" stroke-width="1.3" stroke-opacity="0.533333" points="200,-235.72 197.64,-225.39 193.04,-234.94 200,-235.72"/>
</g>
<!-- /lib/main_screen.dart&#45;&gt;/lib/files/ora.dart -->
<g id="edge27" class="edge">
<title>/lib/main_screen.dart&#45;&gt;/lib/files/ora.dart</title>
<path fill="none" stroke="#aabbaa" stroke-width="1.3" stroke-opacity="0.533333" d="M239.49,-499.79C237.31,-497.43 235.41,-494.83 234,-492 204.92,-433.49 193.99,-396.65 234,-345 242.71,-333.75 253.46,-345.32 265,-337 272.22,-331.79 278.18,-324.34 282.89,-316.85"/>
<polygon fill="#aabbaa" fill-opacity="0.533333" stroke="#aabbaa" stroke-width="1.3" stroke-opacity="0.533333" points="285.9,-318.63 287.74,-308.2 279.8,-315.21 285.9,-318.63"/>
</g>
<!-- /lib/main_screen.dart&#45;&gt;/lib/canvas.dart -->
<g id="edge26" class="edge">
<title>/lib/main_screen.dart&#45;&gt;/lib/canvas.dart</title>
<path fill="none" stroke="#aabbaa" stroke-width="1.3" stroke-opacity="0.533333" d="M318.21,-514.11C374.47,-510.4 458.21,-503.09 468,-492 511.25,-443.03 500.41,-401.73 468,-345 456.67,-325.18 435.28,-311.67 415.66,-302.9"/>
<polygon fill="#aabbaa" fill-opacity="0.533333" stroke="#aabbaa" stroke-width="1.3" stroke-opacity="0.533333" points="417.11,-299.71 406.53,-299.13 414.45,-306.18 417.11,-299.71"/>
</g>
<!-- /lib/helpers/color_helper.dart -->
<g id="node16" class="node">
<title>/lib/helpers/color_helper.dart</title>
<path fill="Lavender" stroke="black" stroke-width="1.3" d="M432.88,-140C432.88,-140 359.12,-140 359.12,-140 353.12,-140 347.12,-134 347.12,-128 347.12,-128 347.12,-116 347.12,-116 347.12,-110 353.12,-104 359.12,-104 359.12,-104 432.88,-104 432.88,-104 438.88,-104 444.88,-110 444.88,-116 444.88,-116 444.88,-128 444.88,-128 444.88,-134 438.88,-140 432.88,-140"/>
<text text-anchor="middle" x="396" y="-116.75" font-family="Arial" font-size="15.00">color_helper</text>
</g>
<!-- /lib/helpers/color_helper.dart&#45;&gt;/lib/helpers/list_helper.dart -->
<g id="edge31" class="edge">
<title>/lib/helpers/color_helper.dart&#45;&gt;/lib/helpers/list_helper.dart</title>
<path fill="none" stroke="#aabbaa" stroke-width="1.3" stroke-opacity="0.533333" d="M395.01,-103.7C394.6,-96.49 394.11,-87.93 393.65,-79.82"/>
<polygon fill="#aabbaa" fill-opacity="0.533333" stroke="#aabbaa" stroke-width="1.3" stroke-opacity="0.533333" points="397.15,-79.85 393.09,-70.07 390.17,-80.25 397.15,-79.85"/>
</g>
<!-- /lib/widgets/color_picker.dart&#45;&gt;/lib/helpers/list_helper.dart -->
<g id="edge33" class="edge">
<title>/lib/widgets/color_picker.dart&#45;&gt;/lib/helpers/list_helper.dart</title>
<path fill="none" stroke="#aabbaa" stroke-width="1.3" stroke-opacity="0.533333" d="M518.58,-186.58C505.86,-164.05 481.58,-124.34 454,-96 446.8,-88.6 438.26,-81.55 429.87,-75.32"/>
<polygon fill="#aabbaa" fill-opacity="0.533333" stroke="#aabbaa" stroke-width="1.3" stroke-opacity="0.533333" points="431.94,-72.5 421.76,-69.55 427.88,-78.2 431.94,-72.5"/>
</g>
<!-- /lib/widgets/color_picker.dart&#45;&gt;/lib/helpers/color_helper.dart -->
<g id="edge32" class="edge">
<title>/lib/widgets/color_picker.dart&#45;&gt;/lib/helpers/color_helper.dart</title>
<path fill="none" stroke="#aabbaa" stroke-width="1.3" stroke-opacity="0.533333" d="M499.68,-186.62C480.63,-174.93 455.28,-159.37 434.41,-146.57"/>
<polygon fill="#aabbaa" fill-opacity="0.533333" stroke="#aabbaa" stroke-width="1.3" stroke-opacity="0.533333" points="436.3,-143.62 425.95,-141.38 432.64,-149.59 436.3,-143.62"/>
</g>
</g>
</svg>
