<?xml version="1.0" encoding="UTF-8" standalone="no"?>
<!DOCTYPE svg PUBLIC "-//W3C//DTD SVG 1.1//EN"
 "http://www.w3.org/Graphics/SVG/1.1/DTD/svg11.dtd">
<!-- Generated by graphviz version 12.2.1 (20241206.2353)
 -->
<!-- Pages: 1 -->
<svg width="3326pt" height="847pt"
 viewBox="0.00 0.00 3326.00 847.00" xmlns="http://www.w3.org/2000/svg" xmlns:xlink="http://www.w3.org/1999/xlink">
<g id="graph0" class="graph" transform="scale(1 1) rotate(0) translate(4 843)">
<polygon fill="white" stroke="none" points="-4,4 -4,-843 3322,-843 3322,4 -4,4"/>
<g id="clust1" class="cluster">
<title>cluster~</title>
<path fill="none" stroke="lightgray" stroke-width="2.6" d="M20,-8C20,-8 3298,-8 3298,-8 3304,-8 3310,-14 3310,-20 3310,-20 3310,-819 3310,-819 3310,-825 3304,-831 3298,-831 3298,-831 20,-831 20,-831 14,-831 8,-825 8,-819 8,-819 8,-20 8,-20 8,-14 14,-8 20,-8"/>
<text text-anchor="middle" x="1659" y="-814.65" font-family="Arial Black" font-size="13.00">fpaint</text>
</g>
<g id="clust2" class="cluster">
<title>cluster~/test</title>
<path fill="none" stroke="lightgray" stroke-width="2.6" d="M1139,-647C1139,-647 1725,-647 1725,-647 1731,-647 1737,-653 1737,-659 1737,-659 1737,-788 1737,-788 1737,-794 1731,-800 1725,-800 1725,-800 1139,-800 1139,-800 1133,-800 1127,-794 1127,-788 1127,-788 1127,-659 1127,-659 1127,-653 1133,-647 1139,-647"/>
<text text-anchor="middle" x="1432" y="-783.65" font-family="Arial Black" font-size="13.00">test</text>
</g>
<g id="clust3" class="cluster">
<title>cluster~/test/panels</title>
<path fill="none" stroke="lightgray" stroke-width="2.6" d="M1285,-655C1285,-655 1397,-655 1397,-655 1403,-655 1409,-661 1409,-667 1409,-667 1409,-757 1409,-757 1409,-763 1403,-769 1397,-769 1397,-769 1285,-769 1285,-769 1279,-769 1273,-763 1273,-757 1273,-757 1273,-667 1273,-667 1273,-661 1279,-655 1285,-655"/>
<text text-anchor="middle" x="1341" y="-752.65" font-family="Arial Black" font-size="13.00">panels</text>
</g>
<g id="clust4" class="cluster">
<title>cluster~/test/panels/tools</title>
<path fill="none" stroke="lightgray" stroke-width="2.6" d="M1293,-663C1293,-663 1389,-663 1389,-663 1395,-663 1401,-669 1401,-675 1401,-675 1401,-726 1401,-726 1401,-732 1395,-738 1389,-738 1389,-738 1293,-738 1293,-738 1287,-738 1281,-732 1281,-726 1281,-726 1281,-675 1281,-675 1281,-669 1287,-663 1293,-663"/>
<text text-anchor="middle" x="1341" y="-721.65" font-family="Arial Black" font-size="13.00">tools</text>
</g>
<g id="clust5" class="cluster">
<title>cluster~/lib</title>
<path fill="none" stroke="lightgray" stroke-width="2.6" d="M40,-16C40,-16 3290,-16 3290,-16 3296,-16 3302,-22 3302,-28 3302,-28 3302,-627 3302,-627 3302,-633 3296,-639 3290,-639 3290,-639 40,-639 40,-639 34,-639 28,-633 28,-627 28,-627 28,-28 28,-28 28,-22 34,-16 40,-16"/>
<text text-anchor="middle" x="1665" y="-622.65" font-family="Arial Black" font-size="13.00">lib</text>
</g>
<g id="clust6" class="cluster">
<title>cluster~/lib/panels</title>
<path fill="none" stroke="lightgray" stroke-width="2.6" d="M1122,-179C1122,-179 1926,-179 1926,-179 1932,-179 1938,-185 1938,-191 1938,-191 1938,-480 1938,-480 1938,-486 1932,-492 1926,-492 1926,-492 1122,-492 1122,-492 1116,-492 1110,-486 1110,-480 1110,-480 1110,-191 1110,-191 1110,-185 1116,-179 1122,-179"/>
<text text-anchor="middle" x="1524" y="-475.65" font-family="Arial Black" font-size="13.00">panels</text>
</g>
<g id="clust7" class="cluster">
<title>cluster~/lib/panels/tools</title>
<path fill="none" stroke="lightgray" stroke-width="2.6" d="M1646,-270C1646,-270 1918,-270 1918,-270 1924,-270 1930,-276 1930,-282 1930,-282 1930,-405 1930,-405 1930,-411 1924,-417 1918,-417 1918,-417 1646,-417 1646,-417 1640,-417 1634,-411 1634,-405 1634,-405 1634,-282 1634,-282 1634,-276 1640,-270 1646,-270"/>
<text text-anchor="middle" x="1782" y="-400.65" font-family="Arial Black" font-size="13.00">tools</text>
</g>
<g id="clust8" class="cluster">
<title>cluster~/lib/panels/layers</title>
<path fill="none" stroke="lightgray" stroke-width="2.6" d="M1450,-187C1450,-187 1614,-187 1614,-187 1620,-187 1626,-193 1626,-199 1626,-199 1626,-405 1626,-405 1626,-411 1620,-417 1614,-417 1614,-417 1450,-417 1450,-417 1444,-417 1438,-411 1438,-405 1438,-405 1438,-199 1438,-199 1438,-193 1444,-187 1450,-187"/>
<text text-anchor="middle" x="1532" y="-400.65" font-family="Arial Black" font-size="13.00">layers</text>
</g>
<g id="clust9" class="cluster">
<title>cluster~/lib/models</title>
<path fill="none" stroke="lightgray" stroke-width="2.6" d="M845,-187C845,-187 1038,-187 1038,-187 1044,-187 1050,-193 1050,-199 1050,-199 1050,-405 1050,-405 1050,-411 1044,-417 1038,-417 1038,-417 845,-417 845,-417 839,-417 833,-411 833,-405 833,-405 833,-199 833,-199 833,-193 839,-187 845,-187"/>
<text text-anchor="middle" x="941.5" y="-400.65" font-family="Arial Black" font-size="13.00">models</text>
</g>
<g id="clust10" class="cluster">
<title>cluster~/lib/files</title>
<path fill="none" stroke="lightgray" stroke-width="2.6" d="M98,-270C98,-270 813,-270 813,-270 819,-270 825,-276 825,-282 825,-282 825,-405 825,-405 825,-411 819,-417 813,-417 813,-417 98,-417 98,-417 92,-417 86,-411 86,-405 86,-405 86,-282 86,-282 86,-276 92,-270 98,-270"/>
<text text-anchor="middle" x="455.5" y="-400.65" font-family="Arial Black" font-size="13.00">files</text>
</g>
<g id="clust11" class="cluster">
<title>cluster~/lib/helpers</title>
<path fill="none" stroke="lightgray" stroke-width="2.6" d="M3180,-24C3180,-24 3270,-24 3270,-24 3276,-24 3282,-30 3282,-36 3282,-36 3282,-159 3282,-159 3282,-165 3276,-171 3270,-171 3270,-171 3180,-171 3180,-171 3174,-171 3168,-165 3168,-159 3168,-159 3168,-36 3168,-36 3168,-30 3174,-24 3180,-24"/>
<text text-anchor="middle" x="3225" y="-154.65" font-family="Arial Black" font-size="13.00">helpers</text>
</g>
<g id="clust12" class="cluster">
<title>cluster~/lib/widgets</title>
<path fill="none" stroke="lightgray" stroke-width="2.6" d="M1958,-96C1958,-96 3148,-96 3148,-96 3154,-96 3160,-102 3160,-108 3160,-108 3160,-250 3160,-250 3160,-256 3154,-262 3148,-262 3148,-262 1958,-262 1958,-262 1952,-262 1946,-256 1946,-250 1946,-250 1946,-108 1946,-108 1946,-102 1952,-96 1958,-96"/>
<text text-anchor="middle" x="2553" y="-245.65" font-family="Arial Black" font-size="13.00">widgets</text>
</g>
<!-- /test/paint_model_test.dart -->
<g id="node1" class="node">
<title>/test/paint_model_test.dart</title>
<path fill="Lavender" stroke="black" stroke-width="1.3" d="M1253,-707C1253,-707 1147,-707 1147,-707 1141,-707 1135,-701 1135,-695 1135,-695 1135,-683 1135,-683 1135,-677 1141,-671 1147,-671 1147,-671 1253,-671 1253,-671 1259,-671 1265,-677 1265,-683 1265,-683 1265,-695 1265,-695 1265,-701 1259,-707 1253,-707"/>
<text text-anchor="middle" x="1200" y="-683.75" font-family="Arial" font-size="15.00">paint_model_test</text>
</g>
<!-- /lib/models/app_model.dart -->
<g id="node20" class="node">
<title>/lib/models/app_model.dart</title>
<path fill="Lavender" stroke="black" stroke-width="1.3" d="M918.75,-231C918.75,-231 853.25,-231 853.25,-231 847.25,-231 841.25,-225 841.25,-219 841.25,-219 841.25,-207 841.25,-207 841.25,-201 847.25,-195 853.25,-195 853.25,-195 918.75,-195 918.75,-195 924.75,-195 930.75,-201 930.75,-207 930.75,-207 930.75,-219 930.75,-219 930.75,-225 924.75,-231 918.75,-231"/>
<text text-anchor="middle" x="886" y="-207.75" font-family="Arial" font-size="15.00">app_model</text>
</g>
<!-- /test/paint_model_test.dart&#45;&gt;/lib/models/app_model.dart -->
<g id="edge1" class="edge">
<title>/test/paint_model_test.dart&#45;&gt;/lib/models/app_model.dart</title>
<path fill="none" stroke="#aabbaa" stroke-width="1.3" stroke-opacity="0.533333" d="M1134.53,-687.7C892.69,-686.29 61.56,-678.55 22,-639 -15.75,-601.26 17,-572.38 17,-519 17,-519 17,-519 17,-367 17,-323.78 -6.67,-300.45 24,-270 80.99,-213.42 646.03,-212.32 829.09,-213.47"/>
<polygon fill="#aabbaa" fill-opacity="0.533333" stroke="#aabbaa" stroke-width="1.3" stroke-opacity="0.533333" points="828.85,-216.96 838.87,-213.53 828.89,-209.96 828.85,-216.96"/>
</g>
<!-- /test/panels/tools/flood_fill_test.dart -->
<g id="node2" class="node">
<title>/test/panels/tools/flood_fill_test.dart</title>
<path fill="Lavender" stroke="black" stroke-width="1.3" d="M1380.5,-707C1380.5,-707 1301.5,-707 1301.5,-707 1295.5,-707 1289.5,-701 1289.5,-695 1289.5,-695 1289.5,-683 1289.5,-683 1289.5,-677 1295.5,-671 1301.5,-671 1301.5,-671 1380.5,-671 1380.5,-671 1386.5,-671 1392.5,-677 1392.5,-683 1392.5,-683 1392.5,-695 1392.5,-695 1392.5,-701 1386.5,-707 1380.5,-707"/>
<text text-anchor="middle" x="1341" y="-683.75" font-family="Arial" font-size="15.00">flood_fill_test</text>
</g>
<!-- /lib/panels/tools/flood_fill.dart -->
<g id="node8" class="node">
<title>/lib/panels/tools/flood_fill.dart</title>
<path fill="Lavender" stroke="black" stroke-width="1.3" d="M1700,-386C1700,-386 1654,-386 1654,-386 1648,-386 1642,-380 1642,-374 1642,-374 1642,-362 1642,-362 1642,-356 1648,-350 1654,-350 1654,-350 1700,-350 1700,-350 1706,-350 1712,-356 1712,-362 1712,-362 1712,-374 1712,-374 1712,-380 1706,-386 1700,-386"/>
<text text-anchor="middle" x="1677" y="-362.75" font-family="Arial" font-size="15.00">flood_fill</text>
</g>
<!-- /test/panels/tools/flood_fill_test.dart&#45;&gt;/lib/panels/tools/flood_fill.dart -->
<g id="edge2" class="edge">
<title>/test/panels/tools/flood_fill_test.dart&#45;&gt;/lib/panels/tools/flood_fill.dart</title>
<path fill="none" stroke="#aabbaa" stroke-width="1.3" stroke-opacity="0.533333" d="M1323.86,-670.71C1313.77,-661.78 1300.23,-651.77 1286,-647 1269.62,-641.51 54.18,-651.26 42,-639 20.23,-617.09 20.94,-522.6 42,-500 122.8,-413.3 987.59,-430.07 1106,-425 1135.09,-423.75 1603.25,-428.49 1630,-417 1640.86,-412.34 1650.49,-403.84 1658.16,-395.28"/>
<polygon fill="#aabbaa" fill-opacity="0.533333" stroke="#aabbaa" stroke-width="1.3" stroke-opacity="0.533333" points="1660.77,-397.61 1664.42,-387.66 1655.37,-393.16 1660.77,-397.61"/>
</g>
<!-- /test/widget_test.dart -->
<g id="node3" class="node">
<title>/test/widget_test.dart</title>
<path fill="Lavender" stroke="black" stroke-width="1.3" d="M1496.88,-707C1496.88,-707 1429.12,-707 1429.12,-707 1423.12,-707 1417.12,-701 1417.12,-695 1417.12,-695 1417.12,-683 1417.12,-683 1417.12,-677 1423.12,-671 1429.12,-671 1429.12,-671 1496.88,-671 1496.88,-671 1502.88,-671 1508.88,-677 1508.88,-683 1508.88,-683 1508.88,-695 1508.88,-695 1508.88,-701 1502.88,-707 1496.88,-707"/>
<text text-anchor="middle" x="1463" y="-683.75" font-family="Arial" font-size="15.00">widget_test</text>
</g>
<!-- /lib/main.dart -->
<g id="node22" class="node">
<title>/lib/main.dart</title>
<path fill="Lavender" stroke="black" stroke-width="1.3" d="M1125,-608C1125,-608 1095,-608 1095,-608 1089,-608 1083,-602 1083,-596 1083,-596 1083,-584 1083,-584 1083,-578 1089,-572 1095,-572 1095,-572 1125,-572 1125,-572 1131,-572 1137,-578 1137,-584 1137,-584 1137,-596 1137,-596 1137,-602 1131,-608 1125,-608"/>
<text text-anchor="middle" x="1110" y="-584.75" font-family="Arial" font-size="15.00">main</text>
</g>
<!-- /test/widget_test.dart&#45;&gt;/lib/main.dart -->
<g id="edge3" class="edge">
<title>/test/widget_test.dart&#45;&gt;/lib/main.dart</title>
<path fill="none" stroke="#aabbaa" stroke-width="1.3" stroke-opacity="0.533333" d="M1443.08,-670.68C1432.44,-662.31 1418.73,-652.83 1405,-647 1318.27,-610.18 1206.96,-597.44 1149.01,-593.13"/>
<polygon fill="#aabbaa" fill-opacity="0.533333" stroke="#aabbaa" stroke-width="1.3" stroke-opacity="0.533333" points="1149.33,-589.64 1139.11,-592.44 1148.85,-596.62 1149.33,-589.64"/>
</g>
<!-- /test/file_xcf_test.dart -->
<g id="node4" class="node">
<title>/test/file_xcf_test.dart</title>
<path fill="Lavender" stroke="black" stroke-width="1.3" d="M1610.75,-707C1610.75,-707 1539.25,-707 1539.25,-707 1533.25,-707 1527.25,-701 1527.25,-695 1527.25,-695 1527.25,-683 1527.25,-683 1527.25,-677 1533.25,-671 1539.25,-671 1539.25,-671 1610.75,-671 1610.75,-671 1616.75,-671 1622.75,-677 1622.75,-683 1622.75,-683 1622.75,-695 1622.75,-695 1622.75,-701 1616.75,-707 1610.75,-707"/>
<text text-anchor="middle" x="1575" y="-683.75" font-family="Arial" font-size="15.00">file_xcf_test</text>
</g>
<!-- /lib/files/xcf_reader.dart -->
<g id="node23" class="node">
<title>/lib/files/xcf_reader.dart</title>
<path fill="Lavender" stroke="black" stroke-width="1.3" d="M169.62,-386C169.62,-386 106.38,-386 106.38,-386 100.38,-386 94.38,-380 94.38,-374 94.38,-374 94.38,-362 94.38,-362 94.38,-356 100.38,-350 106.38,-350 106.38,-350 169.62,-350 169.62,-350 175.62,-350 181.62,-356 181.62,-362 181.62,-362 181.62,-374 181.62,-374 181.62,-380 175.62,-386 169.62,-386"/>
<text text-anchor="middle" x="138" y="-362.75" font-family="Arial" font-size="15.00">xcf_reader</text>
</g>
<!-- /test/file_xcf_test.dart&#45;&gt;/lib/files/xcf_reader.dart -->
<g id="edge5" class="edge">
<title>/test/file_xcf_test.dart&#45;&gt;/lib/files/xcf_reader.dart</title>
<path fill="none" stroke="#aabbaa" stroke-width="1.3" stroke-opacity="0.533333" d="M1593.16,-670.6C1603.63,-661.75 1617.56,-651.86 1632,-647 1648.33,-641.5 1929.98,-651.34 1942,-639 1950.3,-630.49 1950.39,-433.43 1942,-425 1924.84,-407.76 213.67,-425.8 191,-417 179.02,-412.35 168.07,-403.61 159.26,-394.86"/>
<polygon fill="#aabbaa" fill-opacity="0.533333" stroke="#aabbaa" stroke-width="1.3" stroke-opacity="0.533333" points="161.95,-392.6 152.56,-387.68 156.83,-397.38 161.95,-392.6"/>
</g>
<!-- /lib/files/assets_helper.dart -->
<g id="node24" class="node">
<title>/lib/files/assets_helper.dart</title>
<path fill="Lavender" stroke="black" stroke-width="1.3" d="M296.5,-386C296.5,-386 211.5,-386 211.5,-386 205.5,-386 199.5,-380 199.5,-374 199.5,-374 199.5,-362 199.5,-362 199.5,-356 205.5,-350 211.5,-350 211.5,-350 296.5,-350 296.5,-350 302.5,-350 308.5,-356 308.5,-362 308.5,-362 308.5,-374 308.5,-374 308.5,-380 302.5,-386 296.5,-386"/>
<text text-anchor="middle" x="254" y="-362.75" font-family="Arial" font-size="15.00">assets_helper</text>
</g>
<!-- /test/file_xcf_test.dart&#45;&gt;/lib/files/assets_helper.dart -->
<g id="edge4" class="edge">
<title>/test/file_xcf_test.dart&#45;&gt;/lib/files/assets_helper.dart</title>
<path fill="none" stroke="#aabbaa" stroke-width="1.3" stroke-opacity="0.533333" d="M1593.16,-670.59C1603.63,-661.74 1617.56,-651.86 1632,-647 1648.86,-641.33 1939.58,-651.73 1952,-639 1985.2,-604.96 1985.54,-458.71 1952,-425 1935.99,-408.91 339.51,-424.23 318,-417 303.95,-412.28 290.49,-403.15 279.57,-394.11"/>
<polygon fill="#aabbaa" fill-opacity="0.533333" stroke="#aabbaa" stroke-width="1.3" stroke-opacity="0.533333" points="281.98,-391.57 272.16,-387.6 277.36,-396.83 281.98,-391.57"/>
</g>
<!-- /test/layers_test.dart -->
<g id="node5" class="node">
<title>/test/layers_test.dart</title>
<path fill="Lavender" stroke="black" stroke-width="1.3" d="M1717.38,-707C1717.38,-707 1652.62,-707 1652.62,-707 1646.62,-707 1640.62,-701 1640.62,-695 1640.62,-695 1640.62,-683 1640.62,-683 1640.62,-677 1646.62,-671 1652.62,-671 1652.62,-671 1717.38,-671 1717.38,-671 1723.38,-671 1729.38,-677 1729.38,-683 1729.38,-683 1729.38,-695 1729.38,-695 1729.38,-701 1723.38,-707 1717.38,-707"/>
<text text-anchor="middle" x="1685" y="-683.75" font-family="Arial" font-size="15.00">layers_test</text>
</g>
<!-- /lib/models/layer.dart -->
<g id="node21" class="node">
<title>/lib/models/layer.dart</title>
<path fill="Lavender" stroke="black" stroke-width="1.3" d="M1010,-314C1010,-314 980,-314 980,-314 974,-314 968,-308 968,-302 968,-302 968,-290 968,-290 968,-284 974,-278 980,-278 980,-278 1010,-278 1010,-278 1016,-278 1022,-284 1022,-290 1022,-290 1022,-302 1022,-302 1022,-308 1016,-314 1010,-314"/>
<text text-anchor="middle" x="995" y="-290.75" font-family="Arial" font-size="15.00">layer</text>
</g>
<!-- /test/layers_test.dart&#45;&gt;/lib/models/layer.dart -->
<g id="edge6" class="edge">
<title>/test/layers_test.dart&#45;&gt;/lib/models/layer.dart</title>
<path fill="none" stroke="#aabbaa" stroke-width="1.3" stroke-opacity="0.533333" d="M1729.6,-686.42C1800.8,-682.93 1935.45,-672.03 1968,-639 2005.91,-600.54 1987,-573 1987,-519 1987,-519 1987,-519 1987,-442 1987,-394.81 1974.33,-374.5 1934,-350 1855.29,-302.2 1197.65,-322.98 1106,-314 1082,-311.65 1055.27,-307.6 1034.06,-304.04"/>
<polygon fill="#aabbaa" fill-opacity="0.533333" stroke="#aabbaa" stroke-width="1.3" stroke-opacity="0.533333" points="1034.65,-300.59 1024.21,-302.35 1033.47,-307.49 1034.65,-300.59"/>
</g>
<!-- /lib/panels/about.dart -->
<g id="node6" class="node">
<title>/lib/panels/about.dart</title>
<path fill="Lavender" stroke="black" stroke-width="1.3" d="M1418,-314C1418,-314 1388,-314 1388,-314 1382,-314 1376,-308 1376,-302 1376,-302 1376,-290 1376,-290 1376,-284 1382,-278 1388,-278 1388,-278 1418,-278 1418,-278 1424,-278 1430,-284 1430,-290 1430,-290 1430,-302 1430,-302 1430,-308 1424,-314 1418,-314"/>
<text text-anchor="middle" x="1403" y="-290.75" font-family="Arial" font-size="15.00">about</text>
</g>
<!-- /lib/panels/tools/tool_selector.dart -->
<g id="node7" class="node">
<title>/lib/panels/tools/tool_selector.dart</title>
<path fill="Lavender" stroke="black" stroke-width="1.3" d="M1730.38,-314C1730.38,-314 1653.62,-314 1653.62,-314 1647.62,-314 1641.62,-308 1641.62,-302 1641.62,-302 1641.62,-290 1641.62,-290 1641.62,-284 1647.62,-278 1653.62,-278 1653.62,-278 1730.38,-278 1730.38,-278 1736.38,-278 1742.38,-284 1742.38,-290 1742.38,-290 1742.38,-302 1742.38,-302 1742.38,-308 1736.38,-314 1730.38,-314"/>
<text text-anchor="middle" x="1692" y="-290.75" font-family="Arial" font-size="15.00">tool_selector</text>
</g>
<!-- /lib/panels/tools/tools_panel.dart -->
<g id="node9" class="node">
<title>/lib/panels/tools/tools_panel.dart</title>
<path fill="Lavender" stroke="black" stroke-width="1.3" d="M1891.88,-386C1891.88,-386 1824.12,-386 1824.12,-386 1818.12,-386 1812.12,-380 1812.12,-374 1812.12,-374 1812.12,-362 1812.12,-362 1812.12,-356 1818.12,-350 1824.12,-350 1824.12,-350 1891.88,-350 1891.88,-350 1897.88,-350 1903.88,-356 1903.88,-362 1903.88,-362 1903.88,-374 1903.88,-374 1903.88,-380 1897.88,-386 1891.88,-386"/>
<text text-anchor="middle" x="1858" y="-362.75" font-family="Arial" font-size="15.00">tools_panel</text>
</g>
<!-- /lib/panels/tools/tools_panel.dart&#45;&gt;/lib/panels/tools/tool_selector.dart -->
<g id="edge9" class="edge">
<title>/lib/panels/tools/tools_panel.dart&#45;&gt;/lib/panels/tools/tool_selector.dart</title>
<path fill="none" stroke="#aabbaa" stroke-width="1.3" stroke-opacity="0.533333" d="M1816.54,-349.52C1794.57,-340.25 1767.37,-328.78 1744,-318.93"/>
<polygon fill="#aabbaa" fill-opacity="0.533333" stroke="#aabbaa" stroke-width="1.3" stroke-opacity="0.533333" points="1745.61,-315.81 1735.03,-315.15 1742.89,-322.26 1745.61,-315.81"/>
</g>
<!-- /lib/panels/tools/tool_attributes_widget.dart -->
<g id="node10" class="node">
<title>/lib/panels/tools/tool_attributes_widget.dart</title>
<path fill="Lavender" stroke="black" stroke-width="1.3" d="M1909.75,-314C1909.75,-314 1772.25,-314 1772.25,-314 1766.25,-314 1760.25,-308 1760.25,-302 1760.25,-302 1760.25,-290 1760.25,-290 1760.25,-284 1766.25,-278 1772.25,-278 1772.25,-278 1909.75,-278 1909.75,-278 1915.75,-278 1921.75,-284 1921.75,-290 1921.75,-290 1921.75,-302 1921.75,-302 1921.75,-308 1915.75,-314 1909.75,-314"/>
<text text-anchor="middle" x="1841" y="-290.75" font-family="Arial" font-size="15.00">tool_attributes_widget</text>
</g>
<!-- /lib/panels/tools/tools_panel.dart&#45;&gt;/lib/panels/tools/tool_attributes_widget.dart -->
<g id="edge8" class="edge">
<title>/lib/panels/tools/tools_panel.dart&#45;&gt;/lib/panels/tools/tool_attributes_widget.dart</title>
<path fill="none" stroke="#aabbaa" stroke-width="1.3" stroke-opacity="0.533333" d="M1853.8,-349.7C1852.03,-342.41 1849.92,-333.73 1847.93,-325.54"/>
<polygon fill="#aabbaa" fill-opacity="0.533333" stroke="#aabbaa" stroke-width="1.3" stroke-opacity="0.533333" points="1851.38,-324.91 1845.62,-316.02 1844.58,-326.56 1851.38,-324.91"/>
</g>
<!-- /lib/panels/tools/tools_panel.dart&#45;&gt;/lib/models/app_model.dart -->
<g id="edge7" class="edge">
<title>/lib/panels/tools/tools_panel.dart&#45;&gt;/lib/models/app_model.dart</title>
<path fill="none" stroke="#aabbaa" stroke-width="1.3" stroke-opacity="0.533333" d="M1811.79,-360.51C1785.27,-356.97 1751.31,-352.76 1721,-350 1652.83,-343.78 1167.38,-344.29 1106,-314 1082.83,-302.56 1091.15,-281.48 1068,-270 1042.27,-257.24 965.47,-273.16 939,-262 927.33,-257.08 916.55,-248.46 907.8,-239.87"/>
<polygon fill="#aabbaa" fill-opacity="0.533333" stroke="#aabbaa" stroke-width="1.3" stroke-opacity="0.533333" points="910.55,-237.69 901.12,-232.86 905.48,-242.51 910.55,-237.69"/>
</g>
<!-- /lib/widgets/svg_icon.dart -->
<g id="node33" class="node">
<title>/lib/widgets/svg_icon.dart</title>
<path fill="Lavender" stroke="black" stroke-width="1.3" d="M3140.25,-231C3140.25,-231 3089.75,-231 3089.75,-231 3083.75,-231 3077.75,-225 3077.75,-219 3077.75,-219 3077.75,-207 3077.75,-207 3077.75,-201 3083.75,-195 3089.75,-195 3089.75,-195 3140.25,-195 3140.25,-195 3146.25,-195 3152.25,-201 3152.25,-207 3152.25,-207 3152.25,-219 3152.25,-219 3152.25,-225 3146.25,-231 3140.25,-231"/>
<text text-anchor="middle" x="3115" y="-207.75" font-family="Arial" font-size="15.00">svg_icon</text>
</g>
<!-- /lib/panels/tools/tools_panel.dart&#45;&gt;/lib/widgets/svg_icon.dart -->
<g id="edge12" class="edge">
<title>/lib/panels/tools/tools_panel.dart&#45;&gt;/lib/widgets/svg_icon.dart</title>
<path fill="none" stroke="#aabbaa" stroke-width="1.3" stroke-opacity="0.533333" d="M1904.33,-366.77C2042.67,-365.58 2464.59,-358.31 2811,-314 2927.03,-299.16 2966.5,-318.36 3069,-262 3078.85,-256.59 3087.86,-248.35 3095.24,-240.21"/>
<polygon fill="#aabbaa" fill-opacity="0.533333" stroke="#aabbaa" stroke-width="1.3" stroke-opacity="0.533333" points="3097.78,-242.63 3101.58,-232.74 3092.44,-238.1 3097.78,-242.63"/>
</g>
<!-- /lib/widgets/brush_size_picker.dart -->
<g id="node36" class="node">
<title>/lib/widgets/brush_size_picker.dart</title>
<path fill="Lavender" stroke="black" stroke-width="1.3" d="M2790,-231C2790,-231 2678,-231 2678,-231 2672,-231 2666,-225 2666,-219 2666,-219 2666,-207 2666,-207 2666,-201 2672,-195 2678,-195 2678,-195 2790,-195 2790,-195 2796,-195 2802,-201 2802,-207 2802,-207 2802,-219 2802,-219 2802,-225 2796,-231 2790,-231"/>
<text text-anchor="middle" x="2734" y="-207.75" font-family="Arial" font-size="15.00">brush_size_picker</text>
</g>
<!-- /lib/panels/tools/tools_panel.dart&#45;&gt;/lib/widgets/brush_size_picker.dart -->
<g id="edge10" class="edge">
<title>/lib/panels/tools/tools_panel.dart&#45;&gt;/lib/widgets/brush_size_picker.dart</title>
<path fill="none" stroke="#aabbaa" stroke-width="1.3" stroke-opacity="0.533333" d="M1904.19,-367.67C2029.37,-368.07 2384.03,-359.8 2657,-262 2672.84,-256.33 2688.86,-247.03 2702.15,-238.13"/>
<polygon fill="#aabbaa" fill-opacity="0.533333" stroke="#aabbaa" stroke-width="1.3" stroke-opacity="0.533333" points="2703.92,-241.17 2710.13,-232.59 2699.92,-235.42 2703.92,-241.17"/>
</g>
<!-- /lib/widgets/tolerance_picker.dart -->
<g id="node38" class="node">
<title>/lib/widgets/tolerance_picker.dart</title>
<path fill="Lavender" stroke="black" stroke-width="1.3" d="M2933.75,-231C2933.75,-231 2832.25,-231 2832.25,-231 2826.25,-231 2820.25,-225 2820.25,-219 2820.25,-219 2820.25,-207 2820.25,-207 2820.25,-201 2826.25,-195 2832.25,-195 2832.25,-195 2933.75,-195 2933.75,-195 2939.75,-195 2945.75,-201 2945.75,-207 2945.75,-207 2945.75,-219 2945.75,-219 2945.75,-225 2939.75,-231 2933.75,-231"/>
<text text-anchor="middle" x="2883" y="-207.75" font-family="Arial" font-size="15.00">tolerance_picker</text>
</g>
<!-- /lib/panels/tools/tools_panel.dart&#45;&gt;/lib/widgets/tolerance_picker.dart -->
<g id="edge13" class="edge">
<title>/lib/panels/tools/tools_panel.dart&#45;&gt;/lib/widgets/tolerance_picker.dart</title>
<path fill="none" stroke="#aabbaa" stroke-width="1.3" stroke-opacity="0.533333" d="M1904.01,-365.52C2016.16,-361.48 2312.32,-348.18 2557,-314 2671.12,-298.06 2704.64,-306.34 2811,-262 2825.55,-255.93 2840.27,-246.77 2852.58,-238.08"/>
<polygon fill="#aabbaa" fill-opacity="0.533333" stroke="#aabbaa" stroke-width="1.3" stroke-opacity="0.533333" points="2854.29,-241.16 2860.29,-232.43 2850.16,-235.51 2854.29,-241.16"/>
</g>
<!-- /lib/widgets/color_picker.dart -->
<g id="node42" class="node">
<title>/lib/widgets/color_picker.dart</title>
<path fill="Lavender" stroke="black" stroke-width="1.3" d="M3048.12,-231C3048.12,-231 2975.88,-231 2975.88,-231 2969.88,-231 2963.88,-225 2963.88,-219 2963.88,-219 2963.88,-207 2963.88,-207 2963.88,-201 2969.88,-195 2975.88,-195 2975.88,-195 3048.12,-195 3048.12,-195 3054.12,-195 3060.12,-201 3060.12,-207 3060.12,-207 3060.12,-219 3060.12,-219 3060.12,-225 3054.12,-231 3048.12,-231"/>
<text text-anchor="middle" x="3012" y="-207.75" font-family="Arial" font-size="15.00">color_picker</text>
</g>
<!-- /lib/panels/tools/tools_panel.dart&#45;&gt;/lib/widgets/color_picker.dart -->
<g id="edge11" class="edge">
<title>/lib/panels/tools/tools_panel.dart&#45;&gt;/lib/widgets/color_picker.dart</title>
<path fill="none" stroke="#aabbaa" stroke-width="1.3" stroke-opacity="0.533333" d="M1904.36,-365.95C2029.49,-362.7 2384.35,-350.7 2677,-314 2801.72,-298.36 2841.4,-315.81 2955,-262 2966.75,-256.43 2978.06,-247.84 2987.46,-239.45"/>
<polygon fill="#aabbaa" fill-opacity="0.533333" stroke="#aabbaa" stroke-width="1.3" stroke-opacity="0.533333" points="2989.86,-242.01 2994.74,-232.61 2985.06,-236.91 2989.86,-242.01"/>
</g>
<!-- /lib/helpers/color_helper.dart -->
<g id="node32" class="node">
<title>/lib/helpers/color_helper.dart</title>
<path fill="Lavender" stroke="black" stroke-width="1.3" d="M3261.88,-140C3261.88,-140 3188.12,-140 3188.12,-140 3182.12,-140 3176.12,-134 3176.12,-128 3176.12,-128 3176.12,-116 3176.12,-116 3176.12,-110 3182.12,-104 3188.12,-104 3188.12,-104 3261.88,-104 3261.88,-104 3267.88,-104 3273.88,-110 3273.88,-116 3273.88,-116 3273.88,-128 3273.88,-128 3273.88,-134 3267.88,-140 3261.88,-140"/>
<text text-anchor="middle" x="3225" y="-116.75" font-family="Arial" font-size="15.00">color_helper</text>
</g>
<!-- /lib/panels/tools/tool_attributes_widget.dart&#45;&gt;/lib/helpers/color_helper.dart -->
<g id="edge14" class="edge">
<title>/lib/panels/tools/tool_attributes_widget.dart&#45;&gt;/lib/helpers/color_helper.dart</title>
<path fill="none" stroke="#aabbaa" stroke-width="1.3" stroke-opacity="0.533333" d="M1922.09,-292.95C2091.97,-288.66 2497.66,-278.44 2838,-270 2856.11,-269.55 3148.96,-272.09 3164,-262 3200.87,-237.26 3215.63,-184.88 3221.41,-151.96"/>
<polygon fill="#aabbaa" fill-opacity="0.533333" stroke="#aabbaa" stroke-width="1.3" stroke-opacity="0.533333" points="3224.83,-152.75 3222.92,-142.33 3217.92,-151.68 3224.83,-152.75"/>
</g>
<!-- /lib/widgets/transparent_background.dart -->
<g id="node37" class="node">
<title>/lib/widgets/transparent_background.dart</title>
<path fill="Lavender" stroke="black" stroke-width="1.3" d="M2120.38,-140C2120.38,-140 1965.62,-140 1965.62,-140 1959.62,-140 1953.62,-134 1953.62,-128 1953.62,-128 1953.62,-116 1953.62,-116 1953.62,-110 1959.62,-104 1965.62,-104 1965.62,-104 2120.38,-104 2120.38,-104 2126.38,-104 2132.38,-110 2132.38,-116 2132.38,-116 2132.38,-128 2132.38,-128 2132.38,-134 2126.38,-140 2120.38,-140"/>
<text text-anchor="middle" x="2043" y="-116.75" font-family="Arial" font-size="15.00">transparent_background</text>
</g>
<!-- /lib/panels/tools/tool_attributes_widget.dart&#45;&gt;/lib/widgets/transparent_background.dart -->
<g id="edge15" class="edge">
<title>/lib/panels/tools/tool_attributes_widget.dart&#45;&gt;/lib/widgets/transparent_background.dart</title>
<path fill="none" stroke="#aabbaa" stroke-width="1.3" stroke-opacity="0.533333" d="M1853.65,-277.68C1871.9,-253.52 1907.55,-209.26 1945,-179 1960.53,-166.46 1979.21,-155.03 1996.09,-145.82"/>
<polygon fill="#aabbaa" fill-opacity="0.533333" stroke="#aabbaa" stroke-width="1.3" stroke-opacity="0.533333" points="1997.39,-149.09 2004.58,-141.3 1994.1,-142.91 1997.39,-149.09"/>
</g>
<!-- /lib/panels/canvas_panel.dart -->
<g id="node11" class="node">
<title>/lib/panels/canvas_panel.dart</title>
<path fill="Lavender" stroke="black" stroke-width="1.3" d="M1213.75,-231C1213.75,-231 1130.25,-231 1130.25,-231 1124.25,-231 1118.25,-225 1118.25,-219 1118.25,-219 1118.25,-207 1118.25,-207 1118.25,-201 1124.25,-195 1130.25,-195 1130.25,-195 1213.75,-195 1213.75,-195 1219.75,-195 1225.75,-201 1225.75,-207 1225.75,-207 1225.75,-219 1225.75,-219 1225.75,-225 1219.75,-231 1213.75,-231"/>
<text text-anchor="middle" x="1172" y="-207.75" font-family="Arial" font-size="15.00">canvas_panel</text>
</g>
<!-- /lib/panels/canvas_panel.dart&#45;&gt;/lib/models/app_model.dart -->
<g id="edge16" class="edge">
<title>/lib/panels/canvas_panel.dart&#45;&gt;/lib/models/app_model.dart</title>
<path fill="none" stroke="#aabbaa" stroke-width="1.3" stroke-opacity="0.533333" d="M1148.35,-231.29C1129.84,-244.25 1102.82,-260.31 1076,-266 1062.09,-268.95 961.91,-268.95 948,-266 943.72,-265.09 942.66,-264.41 939,-262 929.31,-255.62 919.71,-247.46 911.39,-239.62"/>
<polygon fill="#aabbaa" fill-opacity="0.533333" stroke="#aabbaa" stroke-width="1.3" stroke-opacity="0.533333" points="913.93,-237.21 904.33,-232.73 909.04,-242.22 913.93,-237.21"/>
</g>
<!-- /lib/panels/canvas_panel.dart&#45;&gt;/lib/widgets/transparent_background.dart -->
<g id="edge17" class="edge">
<title>/lib/panels/canvas_panel.dart&#45;&gt;/lib/widgets/transparent_background.dart</title>
<path fill="none" stroke="#aabbaa" stroke-width="1.3" stroke-opacity="0.533333" d="M1226.13,-204.64C1279.07,-197.58 1361.99,-186.84 1434,-179 1612.25,-159.58 1820.34,-141.42 1941.34,-131.3"/>
<polygon fill="#aabbaa" fill-opacity="0.533333" stroke="#aabbaa" stroke-width="1.3" stroke-opacity="0.533333" points="1941.5,-134.8 1951.17,-130.48 1940.92,-127.82 1941.5,-134.8"/>
</g>
<!-- /lib/panels/layers/tools_and_layers_panel.dart -->
<g id="node12" class="node">
<title>/lib/panels/layers/tools_and_layers_panel.dart</title>
<path fill="Lavender" stroke="black" stroke-width="1.3" d="M1606.38,-386C1606.38,-386 1457.62,-386 1457.62,-386 1451.62,-386 1445.62,-380 1445.62,-374 1445.62,-374 1445.62,-362 1445.62,-362 1445.62,-356 1451.62,-350 1457.62,-350 1457.62,-350 1606.38,-350 1606.38,-350 1612.38,-350 1618.38,-356 1618.38,-362 1618.38,-362 1618.38,-374 1618.38,-374 1618.38,-380 1612.38,-386 1606.38,-386"/>
<text text-anchor="middle" x="1532" y="-362.75" font-family="Arial" font-size="15.00">tools_and_layers_panel</text>
</g>
<!-- /lib/panels/layers/tools_and_layers_panel.dart&#45;&gt;/lib/panels/about.dart -->
<g id="edge20" class="edge">
<title>/lib/panels/layers/tools_and_layers_panel.dart&#45;&gt;/lib/panels/about.dart</title>
<path fill="none" stroke="#aabbaa" stroke-width="1.3" stroke-opacity="0.533333" d="M1499.75,-349.62C1483.24,-340.71 1462.57,-329.53 1440.79,-317.69"/>
<polygon fill="#aabbaa" fill-opacity="0.533333" stroke="#aabbaa" stroke-width="1.3" stroke-opacity="0.533333" points="1442.56,-314.67 1432.11,-312.97 1439.22,-320.82 1442.56,-314.67"/>
</g>
<!-- /lib/panels/layers/layer_selector.dart -->
<g id="node13" class="node">
<title>/lib/panels/layers/layer_selector.dart</title>
<path fill="Lavender" stroke="black" stroke-width="1.3" d="M1605.5,-314C1605.5,-314 1520.5,-314 1520.5,-314 1514.5,-314 1508.5,-308 1508.5,-302 1508.5,-302 1508.5,-290 1508.5,-290 1508.5,-284 1514.5,-278 1520.5,-278 1520.5,-278 1605.5,-278 1605.5,-278 1611.5,-278 1617.5,-284 1617.5,-290 1617.5,-290 1617.5,-302 1617.5,-302 1617.5,-308 1611.5,-314 1605.5,-314"/>
<text text-anchor="middle" x="1563" y="-290.75" font-family="Arial" font-size="15.00">layer_selector</text>
</g>
<!-- /lib/panels/layers/tools_and_layers_panel.dart&#45;&gt;/lib/panels/layers/layer_selector.dart -->
<g id="edge22" class="edge">
<title>/lib/panels/layers/tools_and_layers_panel.dart&#45;&gt;/lib/panels/layers/layer_selector.dart</title>
<path fill="none" stroke="#aabbaa" stroke-width="1.3" stroke-opacity="0.533333" d="M1539.66,-349.7C1542.97,-342.24 1546.91,-333.32 1550.62,-324.97"/>
<polygon fill="#aabbaa" fill-opacity="0.533333" stroke="#aabbaa" stroke-width="1.3" stroke-opacity="0.533333" points="1553.78,-326.46 1554.63,-315.9 1547.38,-323.63 1553.78,-326.46"/>
</g>
<!-- /lib/panels/share_panel.dart -->
<g id="node16" class="node">
<title>/lib/panels/share_panel.dart</title>
<path fill="Lavender" stroke="black" stroke-width="1.3" d="M1203.88,-314C1203.88,-314 1130.12,-314 1130.12,-314 1124.12,-314 1118.12,-308 1118.12,-302 1118.12,-302 1118.12,-290 1118.12,-290 1118.12,-284 1124.12,-278 1130.12,-278 1130.12,-278 1203.88,-278 1203.88,-278 1209.88,-278 1215.88,-284 1215.88,-290 1215.88,-290 1215.88,-302 1215.88,-302 1215.88,-308 1209.88,-314 1203.88,-314"/>
<text text-anchor="middle" x="1167" y="-290.75" font-family="Arial" font-size="15.00">share_panel</text>
</g>
<!-- /lib/panels/layers/tools_and_layers_panel.dart&#45;&gt;/lib/panels/share_panel.dart -->
<g id="edge23" class="edge">
<title>/lib/panels/layers/tools_and_layers_panel.dart&#45;&gt;/lib/panels/share_panel.dart</title>
<path fill="none" stroke="#aabbaa" stroke-width="1.3" stroke-opacity="0.533333" d="M1445.31,-350.59C1444.2,-350.39 1443.1,-350.19 1442,-350 1349.41,-333.58 1322.34,-335.6 1227.81,-314.49"/>
<polygon fill="#aabbaa" fill-opacity="0.533333" stroke="#aabbaa" stroke-width="1.3" stroke-opacity="0.533333" points="1228.7,-311.11 1218.17,-312.31 1227.15,-317.93 1228.7,-311.11"/>
</g>
<!-- /lib/panels/canvas_settings.dart -->
<g id="node17" class="node">
<title>/lib/panels/canvas_settings.dart</title>
<path fill="Lavender" stroke="black" stroke-width="1.3" d="M1345.62,-314C1345.62,-314 1246.38,-314 1246.38,-314 1240.38,-314 1234.38,-308 1234.38,-302 1234.38,-302 1234.38,-290 1234.38,-290 1234.38,-284 1240.38,-278 1246.38,-278 1246.38,-278 1345.62,-278 1345.62,-278 1351.62,-278 1357.62,-284 1357.62,-290 1357.62,-290 1357.62,-302 1357.62,-302 1357.62,-308 1351.62,-314 1345.62,-314"/>
<text text-anchor="middle" x="1296" y="-290.75" font-family="Arial" font-size="15.00">canvas_settings</text>
</g>
<!-- /lib/panels/layers/tools_and_layers_panel.dart&#45;&gt;/lib/panels/canvas_settings.dart -->
<g id="edge21" class="edge">
<title>/lib/panels/layers/tools_and_layers_panel.dart&#45;&gt;/lib/panels/canvas_settings.dart</title>
<path fill="none" stroke="#aabbaa" stroke-width="1.3" stroke-opacity="0.533333" d="M1473.06,-349.52C1440.55,-339.88 1399.99,-327.84 1365.9,-317.73"/>
<polygon fill="#aabbaa" fill-opacity="0.533333" stroke="#aabbaa" stroke-width="1.3" stroke-opacity="0.533333" points="1367.07,-314.43 1356.49,-314.94 1365.08,-321.14 1367.07,-314.43"/>
</g>
<!-- /lib/panels/layers/tools_and_layers_panel.dart&#45;&gt;/lib/models/app_model.dart -->
<g id="edge19" class="edge">
<title>/lib/panels/layers/tools_and_layers_panel.dart&#45;&gt;/lib/models/app_model.dart</title>
<path fill="none" stroke="#aabbaa" stroke-width="1.3" stroke-opacity="0.533333" d="M1445.13,-361.49C1336.22,-353.72 1156.25,-337.79 1094,-314 1062.1,-301.81 1063.1,-281.65 1031,-270 992.42,-256 976.62,-278.41 939,-262 927.39,-256.94 916.62,-248.29 907.86,-239.72"/>
<polygon fill="#aabbaa" fill-opacity="0.533333" stroke="#aabbaa" stroke-width="1.3" stroke-opacity="0.533333" points="910.62,-237.53 901.18,-232.73 905.56,-242.37 910.62,-237.53"/>
</g>
<!-- /lib/files/import_files.dart -->
<g id="node29" class="node">
<title>/lib/files/import_files.dart</title>
<path fill="Lavender" stroke="black" stroke-width="1.3" d="M407.25,-386C407.25,-386 338.75,-386 338.75,-386 332.75,-386 326.75,-380 326.75,-374 326.75,-374 326.75,-362 326.75,-362 326.75,-356 332.75,-350 338.75,-350 338.75,-350 407.25,-350 407.25,-350 413.25,-350 419.25,-356 419.25,-362 419.25,-362 419.25,-374 419.25,-374 419.25,-380 413.25,-386 407.25,-386"/>
<text text-anchor="middle" x="373" y="-362.75" font-family="Arial" font-size="15.00">import_files</text>
</g>
<!-- /lib/panels/layers/tools_and_layers_panel.dart&#45;&gt;/lib/files/import_files.dart -->
<g id="edge18" class="edge">
<title>/lib/panels/layers/tools_and_layers_panel.dart&#45;&gt;/lib/files/import_files.dart</title>
<path fill="none" stroke="#aabbaa" stroke-width="1.3" stroke-opacity="0.533333" d="M1445.14,-380.33C1347.91,-393.46 1185.55,-413.37 1045,-421 1011.27,-422.83 470.04,-428.01 437,-421 420.47,-417.49 405.67,-406.1 394.47,-394.77"/>
<polygon fill="#aabbaa" fill-opacity="0.533333" stroke="#aabbaa" stroke-width="1.3" stroke-opacity="0.533333" points="397.32,-392.69 387.98,-387.7 392.16,-397.43 397.32,-392.69"/>
</g>
<!-- /lib/panels/layers/blend_mode.dart -->
<g id="node14" class="node">
<title>/lib/panels/layers/blend_mode.dart</title>
<path fill="Lavender" stroke="black" stroke-width="1.3" d="M1599.88,-231C1599.88,-231 1526.12,-231 1526.12,-231 1520.12,-231 1514.12,-225 1514.12,-219 1514.12,-219 1514.12,-207 1514.12,-207 1514.12,-201 1520.12,-195 1526.12,-195 1526.12,-195 1599.88,-195 1599.88,-195 1605.88,-195 1611.88,-201 1611.88,-207 1611.88,-207 1611.88,-219 1611.88,-219 1611.88,-225 1605.88,-231 1599.88,-231"/>
<text text-anchor="middle" x="1563" y="-207.75" font-family="Arial" font-size="15.00">blend_mode</text>
</g>
<!-- /lib/panels/layers/layer_selector.dart&#45;&gt;/lib/panels/layers/blend_mode.dart -->
<g id="edge25" class="edge">
<title>/lib/panels/layers/layer_selector.dart&#45;&gt;/lib/panels/layers/blend_mode.dart</title>
<path fill="none" stroke="#aabbaa" stroke-width="1.3" stroke-opacity="0.533333" d="M1563,-277.82C1563,-267.8 1563,-254.88 1563,-243.29"/>
<polygon fill="#aabbaa" fill-opacity="0.533333" stroke="#aabbaa" stroke-width="1.3" stroke-opacity="0.533333" points="1566.5,-243.4 1563,-233.4 1559.5,-243.4 1566.5,-243.4"/>
</g>
<!-- /lib/panels/layers/layer_selector.dart&#45;&gt;/lib/models/app_model.dart -->
<g id="edge24" class="edge">
<title>/lib/panels/layers/layer_selector.dart&#45;&gt;/lib/models/app_model.dart</title>
<path fill="none" stroke="#aabbaa" stroke-width="1.3" stroke-opacity="0.533333" d="M1528.46,-277.5C1520.91,-274.42 1512.83,-271.67 1505,-270 1474.25,-263.43 968.26,-273.52 939,-262 927.04,-257.29 916.09,-248.55 907.29,-239.8"/>
<polygon fill="#aabbaa" fill-opacity="0.533333" stroke="#aabbaa" stroke-width="1.3" stroke-opacity="0.533333" points="909.97,-237.54 900.58,-232.63 904.86,-242.32 909.97,-237.54"/>
</g>
<!-- /lib/widgets/truncated_text.dart -->
<g id="node34" class="node">
<title>/lib/widgets/truncated_text.dart</title>
<path fill="Lavender" stroke="black" stroke-width="1.3" d="M2368,-231C2368,-231 2280,-231 2280,-231 2274,-231 2268,-225 2268,-219 2268,-219 2268,-207 2268,-207 2268,-201 2274,-195 2280,-195 2280,-195 2368,-195 2368,-195 2374,-195 2380,-201 2380,-207 2380,-207 2380,-219 2380,-219 2380,-225 2374,-231 2368,-231"/>
<text text-anchor="middle" x="2324" y="-207.75" font-family="Arial" font-size="15.00">truncated_text</text>
</g>
<!-- /lib/panels/layers/layer_selector.dart&#45;&gt;/lib/widgets/truncated_text.dart -->
<g id="edge29" class="edge">
<title>/lib/panels/layers/layer_selector.dart&#45;&gt;/lib/widgets/truncated_text.dart</title>
<path fill="none" stroke="#aabbaa" stroke-width="1.3" stroke-opacity="0.533333" d="M1602.75,-277.62C1611.56,-274.49 1620.97,-271.69 1630,-270 1664.35,-263.57 2225.88,-273.14 2259,-262 2273.19,-257.23 2286.85,-248.09 2297.95,-239.06"/>
<polygon fill="#aabbaa" fill-opacity="0.533333" stroke="#aabbaa" stroke-width="1.3" stroke-opacity="0.533333" points="2300.22,-241.73 2305.51,-232.54 2295.65,-236.42 2300.22,-241.73"/>
</g>
<!-- /lib/widgets/container_slider.dart -->
<g id="node35" class="node">
<title>/lib/widgets/container_slider.dart</title>
<path fill="Lavender" stroke="black" stroke-width="1.3" d="M2507.5,-231C2507.5,-231 2410.5,-231 2410.5,-231 2404.5,-231 2398.5,-225 2398.5,-219 2398.5,-219 2398.5,-207 2398.5,-207 2398.5,-201 2404.5,-195 2410.5,-195 2410.5,-195 2507.5,-195 2507.5,-195 2513.5,-195 2519.5,-201 2519.5,-207 2519.5,-207 2519.5,-219 2519.5,-219 2519.5,-225 2513.5,-231 2507.5,-231"/>
<text text-anchor="middle" x="2459" y="-207.75" font-family="Arial" font-size="15.00">container_slider</text>
</g>
<!-- /lib/panels/layers/layer_selector.dart&#45;&gt;/lib/widgets/container_slider.dart -->
<g id="edge26" class="edge">
<title>/lib/panels/layers/layer_selector.dart&#45;&gt;/lib/widgets/container_slider.dart</title>
<path fill="none" stroke="#aabbaa" stroke-width="1.3" stroke-opacity="0.533333" d="M1602.75,-277.61C1611.56,-274.48 1620.97,-271.68 1630,-270 1671.46,-262.29 2348.79,-274.7 2389,-262 2404.3,-257.17 2419.25,-247.76 2431.38,-238.55"/>
<polygon fill="#aabbaa" fill-opacity="0.533333" stroke="#aabbaa" stroke-width="1.3" stroke-opacity="0.533333" points="2433.29,-241.5 2438.92,-232.52 2428.92,-236.03 2433.29,-241.5"/>
</g>
<!-- /lib/panels/layers/layer_selector.dart&#45;&gt;/lib/widgets/transparent_background.dart -->
<g id="edge28" class="edge">
<title>/lib/panels/layers/layer_selector.dart&#45;&gt;/lib/widgets/transparent_background.dart</title>
<path fill="none" stroke="#aabbaa" stroke-width="1.3" stroke-opacity="0.533333" d="M1605.24,-277.54C1662.83,-253.97 1769.45,-211.22 1862,-179 1897.86,-166.51 1938.19,-153.9 1971.66,-143.81"/>
<polygon fill="#aabbaa" fill-opacity="0.533333" stroke="#aabbaa" stroke-width="1.3" stroke-opacity="0.533333" points="1972.28,-147.28 1980.85,-141.06 1970.27,-140.58 1972.28,-147.28"/>
</g>
<!-- /lib/widgets/image_painter.dart -->
<g id="node39" class="node">
<title>/lib/widgets/image_painter.dart</title>
<path fill="Lavender" stroke="black" stroke-width="1.3" d="M2636.25,-231C2636.25,-231 2549.75,-231 2549.75,-231 2543.75,-231 2537.75,-225 2537.75,-219 2537.75,-219 2537.75,-207 2537.75,-207 2537.75,-201 2543.75,-195 2549.75,-195 2549.75,-195 2636.25,-195 2636.25,-195 2642.25,-195 2648.25,-201 2648.25,-207 2648.25,-207 2648.25,-219 2648.25,-219 2648.25,-225 2642.25,-231 2636.25,-231"/>
<text text-anchor="middle" x="2593" y="-207.75" font-family="Arial" font-size="15.00">image_painter</text>
</g>
<!-- /lib/panels/layers/layer_selector.dart&#45;&gt;/lib/widgets/image_painter.dart -->
<g id="edge27" class="edge">
<title>/lib/panels/layers/layer_selector.dart&#45;&gt;/lib/widgets/image_painter.dart</title>
<path fill="none" stroke="#aabbaa" stroke-width="1.3" stroke-opacity="0.533333" d="M1602.74,-277.59C1611.56,-274.47 1620.97,-271.67 1630,-270 1679.11,-260.91 2481.69,-278.01 2529,-262 2543.04,-257.25 2556.5,-248.12 2567.42,-239.08"/>
<polygon fill="#aabbaa" fill-opacity="0.533333" stroke="#aabbaa" stroke-width="1.3" stroke-opacity="0.533333" points="2569.63,-241.8 2574.84,-232.58 2565.01,-236.54 2569.63,-241.8"/>
</g>
<!-- /lib/panels/side_panel.dart -->
<g id="node15" class="node">
<title>/lib/panels/side_panel.dart</title>
<path fill="Lavender" stroke="black" stroke-width="1.3" d="M1378.62,-461C1378.62,-461 1315.38,-461 1315.38,-461 1309.38,-461 1303.38,-455 1303.38,-449 1303.38,-449 1303.38,-437 1303.38,-437 1303.38,-431 1309.38,-425 1315.38,-425 1315.38,-425 1378.62,-425 1378.62,-425 1384.62,-425 1390.62,-431 1390.62,-437 1390.62,-437 1390.62,-449 1390.62,-449 1390.62,-455 1384.62,-461 1378.62,-461"/>
<text text-anchor="middle" x="1347" y="-437.75" font-family="Arial" font-size="15.00">side_panel</text>
</g>
<!-- /lib/panels/side_panel.dart&#45;&gt;/lib/panels/tools/tools_panel.dart -->
<g id="edge32" class="edge">
<title>/lib/panels/side_panel.dart&#45;&gt;/lib/panels/tools/tools_panel.dart</title>
<path fill="none" stroke="#aabbaa" stroke-width="1.3" stroke-opacity="0.533333" d="M1390.99,-442.87C1461.42,-443.43 1603.53,-441.04 1721,-417 1750.04,-411.06 1781.3,-400.45 1806.63,-390.71"/>
<polygon fill="#aabbaa" fill-opacity="0.533333" stroke="#aabbaa" stroke-width="1.3" stroke-opacity="0.533333" points="1807.59,-394.09 1815.62,-387.18 1805.03,-387.57 1807.59,-394.09"/>
</g>
<!-- /lib/panels/side_panel.dart&#45;&gt;/lib/panels/layers/tools_and_layers_panel.dart -->
<g id="edge31" class="edge">
<title>/lib/panels/side_panel.dart&#45;&gt;/lib/panels/layers/tools_and_layers_panel.dart</title>
<path fill="none" stroke="#aabbaa" stroke-width="1.3" stroke-opacity="0.533333" d="M1391.11,-426.06C1392.42,-425.69 1393.72,-425.33 1395,-425 1415.51,-419.67 1421.95,-423.85 1442,-417 1460.28,-410.75 1479.33,-401.11 1495.17,-392.11"/>
<polygon fill="#aabbaa" fill-opacity="0.533333" stroke="#aabbaa" stroke-width="1.3" stroke-opacity="0.533333" points="1496.5,-395.38 1503.37,-387.31 1492.97,-389.33 1496.5,-395.38"/>
</g>
<!-- /lib/panels/side_panel.dart&#45;&gt;/lib/models/app_model.dart -->
<g id="edge30" class="edge">
<title>/lib/panels/side_panel.dart&#45;&gt;/lib/models/app_model.dart</title>
<path fill="none" stroke="#aabbaa" stroke-width="1.3" stroke-opacity="0.533333" d="M1302.95,-425.78C1301.62,-425.49 1300.31,-425.23 1299,-425 1282.35,-422.08 93.91,-428.99 82,-417 70.49,-405.41 70.86,-281.94 82,-270 132.76,-215.58 654.45,-212.94 829.26,-213.6"/>
<polygon fill="#aabbaa" fill-opacity="0.533333" stroke="#aabbaa" stroke-width="1.3" stroke-opacity="0.533333" points="829.01,-217.09 839.03,-213.64 829.04,-210.09 829.01,-217.09"/>
</g>
<!-- /lib/panels/share_panel.dart&#45;&gt;/lib/panels/canvas_panel.dart -->
<g id="edge34" class="edge">
<title>/lib/panels/share_panel.dart&#45;&gt;/lib/panels/canvas_panel.dart</title>
<path fill="none" stroke="#aabbaa" stroke-width="1.3" stroke-opacity="0.533333" d="M1168.06,-277.82C1168.68,-267.8 1169.48,-254.88 1170.19,-243.29"/>
<polygon fill="#aabbaa" fill-opacity="0.533333" stroke="#aabbaa" stroke-width="1.3" stroke-opacity="0.533333" points="1173.68,-243.59 1170.8,-233.4 1166.69,-243.16 1173.68,-243.59"/>
</g>
<!-- /lib/panels/share_panel.dart&#45;&gt;/lib/models/app_model.dart -->
<g id="edge33" class="edge">
<title>/lib/panels/share_panel.dart&#45;&gt;/lib/models/app_model.dart</title>
<path fill="none" stroke="#aabbaa" stroke-width="1.3" stroke-opacity="0.533333" d="M1128.98,-277.6C1120.89,-274.55 1112.28,-271.79 1104,-270 1068.12,-262.24 972.92,-276.03 939,-262 927.3,-257.16 916.51,-248.56 907.76,-239.96"/>
<polygon fill="#aabbaa" fill-opacity="0.533333" stroke="#aabbaa" stroke-width="1.3" stroke-opacity="0.533333" points="910.51,-237.77 901.09,-232.93 905.43,-242.59 910.51,-237.77"/>
</g>
<!-- /lib/panels/canvas_settings.dart&#45;&gt;/lib/models/app_model.dart -->
<g id="edge35" class="edge">
<title>/lib/panels/canvas_settings.dart&#45;&gt;/lib/models/app_model.dart</title>
<path fill="none" stroke="#aabbaa" stroke-width="1.3" stroke-opacity="0.533333" d="M1253.41,-277.6C1244.18,-274.52 1234.38,-271.74 1225,-270 1193.74,-264.21 968.5,-273.85 939,-262 927.08,-257.21 916.13,-248.45 907.32,-239.71"/>
<polygon fill="#aabbaa" fill-opacity="0.533333" stroke="#aabbaa" stroke-width="1.3" stroke-opacity="0.533333" points="910.01,-237.46 900.61,-232.56 904.9,-242.25 910.01,-237.46"/>
</g>
<!-- /lib/widgets/nine_grid_selector.dart -->
<g id="node41" class="node">
<title>/lib/widgets/nine_grid_selector.dart</title>
<path fill="Lavender" stroke="black" stroke-width="1.3" d="M2237.75,-231C2237.75,-231 2124.25,-231 2124.25,-231 2118.25,-231 2112.25,-225 2112.25,-219 2112.25,-219 2112.25,-207 2112.25,-207 2112.25,-201 2118.25,-195 2124.25,-195 2124.25,-195 2237.75,-195 2237.75,-195 2243.75,-195 2249.75,-201 2249.75,-207 2249.75,-207 2249.75,-219 2249.75,-219 2249.75,-225 2243.75,-231 2237.75,-231"/>
<text text-anchor="middle" x="2181" y="-207.75" font-family="Arial" font-size="15.00">nine_grid_selector</text>
</g>
<!-- /lib/panels/canvas_settings.dart&#45;&gt;/lib/widgets/nine_grid_selector.dart -->
<g id="edge36" class="edge">
<title>/lib/panels/canvas_settings.dart&#45;&gt;/lib/widgets/nine_grid_selector.dart</title>
<path fill="none" stroke="#aabbaa" stroke-width="1.3" stroke-opacity="0.533333" d="M1338.19,-277.61C1347.53,-274.48 1357.48,-271.68 1367,-270 1407.27,-262.89 2063.72,-273.35 2103,-262 2119.96,-257.1 2136.89,-247.42 2150.61,-238.03"/>
<polygon fill="#aabbaa" fill-opacity="0.533333" stroke="#aabbaa" stroke-width="1.3" stroke-opacity="0.533333" points="2152.3,-241.12 2158.4,-232.46 2148.23,-235.43 2152.3,-241.12"/>
</g>
<!-- /lib/models/layers.dart -->
<g id="node18" class="node">
<title>/lib/models/layers.dart</title>
<path fill="Lavender" stroke="black" stroke-width="1.3" d="M1010.88,-386C1010.88,-386 979.12,-386 979.12,-386 973.12,-386 967.12,-380 967.12,-374 967.12,-374 967.12,-362 967.12,-362 967.12,-356 973.12,-350 979.12,-350 979.12,-350 1010.88,-350 1010.88,-350 1016.88,-350 1022.88,-356 1022.88,-362 1022.88,-362 1022.88,-374 1022.88,-374 1022.88,-380 1016.88,-386 1010.88,-386"/>
<text text-anchor="middle" x="995" y="-362.75" font-family="Arial" font-size="15.00">layers</text>
</g>
<!-- /lib/models/layers.dart&#45;&gt;/lib/models/layer.dart -->
<g id="edge38" class="edge">
<title>/lib/models/layers.dart&#45;&gt;/lib/models/layer.dart</title>
<path fill="none" stroke="#aabbaa" stroke-width="1.3" stroke-opacity="0.533333" d="M989.08,-349.7C988.34,-342.49 988.09,-333.93 988.34,-325.82"/>
<polygon fill="#aabbaa" fill-opacity="0.533333" stroke="#aabbaa" stroke-width="1.3" stroke-opacity="0.533333" points="991.82,-326.27 988.98,-316.07 984.84,-325.82 991.82,-326.27"/>
</g>
<!-- /lib/models/layers.dart&#45;&gt;/lib/models/layer.dart -->
<g id="edge39" class="edge">
<title>/lib/models/layers.dart&#45;&gt;/lib/models/layer.dart</title>
<path fill="none" stroke="#aabbaa" stroke-width="1.3" stroke-dasharray="5,2" stroke-opacity="0.533333" d="M1000.92,-349.7C1001.66,-342.49 1001.91,-333.93 1001.66,-325.82"/>
<polygon fill="#aabbaa" fill-opacity="0.533333" stroke="#aabbaa" stroke-width="1.3" stroke-opacity="0.533333" points="1005.16,-325.82 1001.02,-316.07 998.18,-326.27 1005.16,-325.82"/>
</g>
<!-- /lib/helpers/list_helper.dart -->
<g id="node31" class="node">
<title>/lib/helpers/list_helper.dart</title>
<path fill="Lavender" stroke="black" stroke-width="1.3" d="M3247.75,-68C3247.75,-68 3188.25,-68 3188.25,-68 3182.25,-68 3176.25,-62 3176.25,-56 3176.25,-56 3176.25,-44 3176.25,-44 3176.25,-38 3182.25,-32 3188.25,-32 3188.25,-32 3247.75,-32 3247.75,-32 3253.75,-32 3259.75,-38 3259.75,-44 3259.75,-44 3259.75,-56 3259.75,-56 3259.75,-62 3253.75,-68 3247.75,-68"/>
<text text-anchor="middle" x="3218" y="-44.75" font-family="Arial" font-size="15.00">list_helper</text>
</g>
<!-- /lib/models/layers.dart&#45;&gt;/lib/helpers/list_helper.dart -->
<g id="edge37" class="edge">
<title>/lib/models/layers.dart&#45;&gt;/lib/helpers/list_helper.dart</title>
<path fill="none" stroke="#aabbaa" stroke-width="1.3" stroke-opacity="0.533333" d="M1023.25,-365.79C1277.86,-354.9 3167.99,-273.68 3194,-262 3245.61,-238.82 3261.64,-223.39 3283,-171 3295.58,-140.13 3298.47,-125.53 3283,-96 3278.75,-87.88 3272.29,-80.93 3265.06,-75.1"/>
<polygon fill="#aabbaa" fill-opacity="0.533333" stroke="#aabbaa" stroke-width="1.3" stroke-opacity="0.533333" points="3267.37,-72.45 3257.21,-69.45 3263.28,-78.13 3267.37,-72.45"/>
</g>
<!-- /lib/models/user_action.dart -->
<g id="node19" class="node">
<title>/lib/models/user_action.dart</title>
<path fill="Lavender" stroke="black" stroke-width="1.3" d="M1029.62,-231C1029.62,-231 960.38,-231 960.38,-231 954.38,-231 948.38,-225 948.38,-219 948.38,-219 948.38,-207 948.38,-207 948.38,-201 954.38,-195 960.38,-195 960.38,-195 1029.62,-195 1029.62,-195 1035.62,-195 1041.62,-201 1041.62,-207 1041.62,-207 1041.62,-219 1041.62,-219 1041.62,-225 1035.62,-231 1029.62,-231"/>
<text text-anchor="middle" x="995" y="-207.75" font-family="Arial" font-size="15.00">user_action</text>
</g>
<!-- /lib/widgets/brush_style_picker.dart -->
<g id="node40" class="node">
<title>/lib/widgets/brush_style_picker.dart</title>
<path fill="Lavender" stroke="black" stroke-width="1.3" d="M2082.25,-231C2082.25,-231 1965.75,-231 1965.75,-231 1959.75,-231 1953.75,-225 1953.75,-219 1953.75,-219 1953.75,-207 1953.75,-207 1953.75,-201 1959.75,-195 1965.75,-195 1965.75,-195 2082.25,-195 2082.25,-195 2088.25,-195 2094.25,-201 2094.25,-207 2094.25,-207 2094.25,-219 2094.25,-219 2094.25,-225 2088.25,-231 2082.25,-231"/>
<text text-anchor="middle" x="2024" y="-207.75" font-family="Arial" font-size="15.00">brush_style_picker</text>
</g>
<!-- /lib/models/user_action.dart&#45;&gt;/lib/widgets/brush_style_picker.dart -->
<g id="edge40" class="edge">
<title>/lib/models/user_action.dart&#45;&gt;/lib/widgets/brush_style_picker.dart</title>
<path fill="none" stroke="#aabbaa" stroke-width="1.3" stroke-opacity="0.533333" d="M1026.56,-231.26C1049.44,-243.4 1081.58,-258.25 1112,-264.67 1122.53,-266.89 1876.41,-266.6 1887,-264.67 1917.39,-259.13 1949.8,-247.2 1975.46,-236.21"/>
<polygon fill="#aabbaa" fill-opacity="0.533333" stroke="#aabbaa" stroke-width="1.3" stroke-opacity="0.533333" points="1976.83,-239.43 1984.58,-232.2 1974.02,-233.02 1976.83,-239.43"/>
</g>
<!-- /lib/models/user_action.dart&#45;&gt;/lib/widgets/brush_style_picker.dart -->
<g id="edge41" class="edge">
<title>/lib/models/user_action.dart&#45;&gt;/lib/widgets/brush_style_picker.dart</title>
<path fill="none" stroke="#aabbaa" stroke-width="1.3" stroke-dasharray="5,2" stroke-opacity="0.533333" d="M1026.65,-231.38C1050.78,-244.29 1085.34,-260.44 1118,-267.33 1128.37,-269.52 1870.58,-269.25 1881,-267.33 1913.83,-261.31 1948.89,-248.1 1976.08,-236.22"/>
<polygon fill="#aabbaa" fill-opacity="0.533333" stroke="#aabbaa" stroke-width="1.3" stroke-opacity="0.533333" points="1977.35,-239.49 1985.05,-232.21 1974.49,-233.1 1977.35,-239.49"/>
</g>
<!-- /lib/models/app_model.dart&#45;&gt;/lib/models/layers.dart -->
<g id="edge42" class="edge">
<title>/lib/models/app_model.dart&#45;&gt;/lib/models/layers.dart</title>
<path fill="none" stroke="#aabbaa" stroke-width="1.3" stroke-opacity="0.533333" d="M895.59,-231.22C904.62,-241.84 917.36,-256.07 927,-270 939.56,-288.15 938.67,-295.06 950,-314 955.25,-322.78 961.38,-332.1 967.49,-340.43"/>
<polygon fill="#aabbaa" fill-opacity="0.533333" stroke="#aabbaa" stroke-width="1.3" stroke-opacity="0.533333" points="964.53,-342.32 973.41,-348.1 970.08,-338.05 964.53,-342.32"/>
</g>
<!-- /lib/models/app_model.dart&#45;&gt;/lib/models/layers.dart -->
<g id="edge43" class="edge">
<title>/lib/models/app_model.dart&#45;&gt;/lib/models/layers.dart</title>
<path fill="none" stroke="#aabbaa" stroke-width="1.3" stroke-dasharray="5,2" stroke-opacity="0.533333" d="M911.49,-231.46C922.81,-242.06 935.43,-256.17 945,-270 957.56,-288.15 956.67,-295.06 968,-314 973.08,-322.5 978.98,-331.49 984.14,-339.61"/>
<polygon fill="#aabbaa" fill-opacity="0.533333" stroke="#aabbaa" stroke-width="1.3" stroke-opacity="0.533333" points="981.09,-341.33 989.32,-347.99 987.04,-337.64 981.09,-341.33"/>
</g>
<!-- /lib/models/layer.dart&#45;&gt;/lib/models/user_action.dart -->
<g id="edge46" class="edge">
<title>/lib/models/layer.dart&#45;&gt;/lib/models/user_action.dart</title>
<path fill="none" stroke="#aabbaa" stroke-width="1.3" stroke-dasharray="5,2" stroke-opacity="0.533333" d="M995,-277.82C995,-267.8 995,-254.88 995,-243.29"/>
<polygon fill="#aabbaa" fill-opacity="0.533333" stroke="#aabbaa" stroke-width="1.3" stroke-opacity="0.533333" points="998.5,-243.4 995,-233.4 991.5,-243.4 998.5,-243.4"/>
</g>
<!-- /lib/models/layer.dart&#45;&gt;/lib/models/app_model.dart -->
<g id="edge44" class="edge">
<title>/lib/models/layer.dart&#45;&gt;/lib/models/app_model.dart</title>
<path fill="none" stroke="#aabbaa" stroke-width="1.3" stroke-opacity="0.533333" d="M967.52,-280.29C958.2,-274.92 947.91,-268.55 939,-262 929.75,-255.19 920.26,-247.04 911.91,-239.39"/>
<polygon fill="#aabbaa" fill-opacity="0.533333" stroke="#aabbaa" stroke-width="1.3" stroke-opacity="0.533333" points="914.5,-237.02 904.81,-232.74 909.71,-242.13 914.5,-237.02"/>
</g>
<!-- /lib/models/layer.dart&#45;&gt;/lib/widgets/transparent_background.dart -->
<g id="edge45" class="edge">
<title>/lib/models/layer.dart&#45;&gt;/lib/widgets/transparent_background.dart</title>
<path fill="none" stroke="#aabbaa" stroke-width="1.3" stroke-opacity="0.533333" d="M1014.24,-277.7C1017.98,-274.87 1021.98,-272.16 1026,-270 1036.27,-264.47 1041.7,-269.04 1051,-262 1086.29,-235.3 1067.65,-201.09 1106,-179 1176.92,-138.14 1713.62,-126.92 1941.34,-123.99"/>
<polygon fill="#aabbaa" fill-opacity="0.533333" stroke="#aabbaa" stroke-width="1.3" stroke-opacity="0.533333" points="1941.34,-127.49 1951.29,-123.86 1941.25,-120.49 1941.34,-127.49"/>
</g>
<!-- /lib/main.dart&#45;&gt;/lib/models/app_model.dart -->
<g id="edge48" class="edge">
<title>/lib/main.dart&#45;&gt;/lib/models/app_model.dart</title>
<path fill="none" stroke="#aabbaa" stroke-width="1.3" stroke-opacity="0.533333" d="M1082.75,-589C932.37,-588.37 205.69,-576.98 70,-417 27.74,-367.18 25.41,-317.75 70,-270 121.6,-214.73 652.22,-212.67 829.03,-213.53"/>
<polygon fill="#aabbaa" fill-opacity="0.533333" stroke="#aabbaa" stroke-width="1.3" stroke-opacity="0.533333" points="828.9,-217.03 838.92,-213.59 828.94,-210.03 828.9,-217.03"/>
</g>
<!-- /lib/main_screen.dart -->
<g id="node30" class="node">
<title>/lib/main_screen.dart</title>
<path fill="Lavender" stroke="black" stroke-width="1.3" d="M1148.75,-536C1148.75,-536 1071.25,-536 1071.25,-536 1065.25,-536 1059.25,-530 1059.25,-524 1059.25,-524 1059.25,-512 1059.25,-512 1059.25,-506 1065.25,-500 1071.25,-500 1071.25,-500 1148.75,-500 1148.75,-500 1154.75,-500 1160.75,-506 1160.75,-512 1160.75,-512 1160.75,-524 1160.75,-524 1160.75,-530 1154.75,-536 1148.75,-536"/>
<text text-anchor="middle" x="1110" y="-512.75" font-family="Arial" font-size="15.00">main_screen</text>
</g>
<!-- /lib/main.dart&#45;&gt;/lib/main_screen.dart -->
<g id="edge47" class="edge">
<title>/lib/main.dart&#45;&gt;/lib/main_screen.dart</title>
<path fill="none" stroke="#aabbaa" stroke-width="1.3" stroke-opacity="0.533333" d="M1110,-571.7C1110,-564.49 1110,-555.93 1110,-547.82"/>
<polygon fill="#aabbaa" fill-opacity="0.533333" stroke="#aabbaa" stroke-width="1.3" stroke-opacity="0.533333" points="1113.5,-548.07 1110,-538.07 1106.5,-548.07 1113.5,-548.07"/>
</g>
<!-- /lib/files/xcf_reader.dart&#45;&gt;/lib/helpers/list_helper.dart -->
<g id="edge49" class="edge">
<title>/lib/files/xcf_reader.dart&#45;&gt;/lib/helpers/list_helper.dart</title>
<path fill="none" stroke="#aabbaa" stroke-width="1.3" stroke-opacity="0.533333" d="M172.07,-349.56C274.1,-298.42 587.42,-149.05 867,-96 1099.26,-51.93 2836.03,-50.77 3164.49,-50.95"/>
<polygon fill="#aabbaa" fill-opacity="0.533333" stroke="#aabbaa" stroke-width="1.3" stroke-opacity="0.533333" points="3164.04,-54.45 3174.05,-50.95 3164.05,-47.45 3164.04,-54.45"/>
</g>
<!-- /lib/files/file_jpeg.dart -->
<g id="node25" class="node">
<title>/lib/files/file_jpeg.dart</title>
<path fill="Lavender" stroke="black" stroke-width="1.3" d="M758.38,-314C758.38,-314 711.62,-314 711.62,-314 705.62,-314 699.62,-308 699.62,-302 699.62,-302 699.62,-290 699.62,-290 699.62,-284 705.62,-278 711.62,-278 711.62,-278 758.38,-278 758.38,-278 764.38,-278 770.38,-284 770.38,-290 770.38,-290 770.38,-302 770.38,-302 770.38,-308 764.38,-314 758.38,-314"/>
<text text-anchor="middle" x="735" y="-290.75" font-family="Arial" font-size="15.00">file_jpeg</text>
</g>
<!-- /lib/files/export_download_web.dart -->
<g id="node26" class="node">
<title>/lib/files/export_download_web.dart</title>
<path fill="Lavender" stroke="black" stroke-width="1.3" d="M805.25,-386C805.25,-386 664.75,-386 664.75,-386 658.75,-386 652.75,-380 652.75,-374 652.75,-374 652.75,-362 652.75,-362 652.75,-356 658.75,-350 664.75,-350 664.75,-350 805.25,-350 805.25,-350 811.25,-350 817.25,-356 817.25,-362 817.25,-362 817.25,-374 817.25,-374 817.25,-380 811.25,-386 805.25,-386"/>
<text text-anchor="middle" x="735" y="-362.75" font-family="Arial" font-size="15.00">export_download_web</text>
</g>
<!-- /lib/files/export_download_web.dart&#45;&gt;/lib/panels/share_panel.dart -->
<g id="edge53" class="edge">
<title>/lib/files/export_download_web.dart&#45;&gt;/lib/panels/share_panel.dart</title>
<path fill="none" stroke="#aabbaa" stroke-width="1.3" stroke-opacity="0.533333" d="M817.51,-351.96C821.39,-351.29 825.24,-350.63 829,-350 925.69,-333.68 1038.24,-316.37 1105.98,-306.13"/>
<polygon fill="#aabbaa" fill-opacity="0.533333" stroke="#aabbaa" stroke-width="1.3" stroke-opacity="0.533333" points="1106.37,-309.61 1115.74,-304.66 1105.33,-302.69 1106.37,-309.61"/>
</g>
<!-- /lib/files/export_download_web.dart&#45;&gt;/lib/models/app_model.dart -->
<g id="edge52" class="edge">
<title>/lib/files/export_download_web.dart&#45;&gt;/lib/models/app_model.dart</title>
<path fill="none" stroke="#aabbaa" stroke-width="1.3" stroke-opacity="0.533333" d="M801.87,-349.58C821.6,-341.57 841.71,-330.14 856,-314 873.38,-294.37 880.69,-265.01 883.77,-243.17"/>
<polygon fill="#aabbaa" fill-opacity="0.533333" stroke="#aabbaa" stroke-width="1.3" stroke-opacity="0.533333" points="887.25,-243.61 884.91,-233.27 880.29,-242.8 887.25,-243.61"/>
</g>
<!-- /lib/files/export_download_web.dart&#45;&gt;/lib/files/file_jpeg.dart -->
<g id="edge50" class="edge">
<title>/lib/files/export_download_web.dart&#45;&gt;/lib/files/file_jpeg.dart</title>
<path fill="none" stroke="#aabbaa" stroke-width="1.3" stroke-opacity="0.533333" d="M735,-349.7C735,-342.49 735,-333.93 735,-325.82"/>
<polygon fill="#aabbaa" fill-opacity="0.533333" stroke="#aabbaa" stroke-width="1.3" stroke-opacity="0.533333" points="738.5,-326.07 735,-316.07 731.5,-326.07 738.5,-326.07"/>
</g>
<!-- /lib/files/file_ora.dart -->
<g id="node27" class="node">
<title>/lib/files/file_ora.dart</title>
<path fill="Lavender" stroke="black" stroke-width="1.3" d="M669.38,-314C669.38,-314 628.62,-314 628.62,-314 622.62,-314 616.62,-308 616.62,-302 616.62,-302 616.62,-290 616.62,-290 616.62,-284 622.62,-278 628.62,-278 628.62,-278 669.38,-278 669.38,-278 675.38,-278 681.38,-284 681.38,-290 681.38,-290 681.38,-302 681.38,-302 681.38,-308 675.38,-314 669.38,-314"/>
<text text-anchor="middle" x="649" y="-290.75" font-family="Arial" font-size="15.00">file_ora</text>
</g>
<!-- /lib/files/export_download_web.dart&#45;&gt;/lib/files/file_ora.dart -->
<g id="edge51" class="edge">
<title>/lib/files/export_download_web.dart&#45;&gt;/lib/files/file_ora.dart</title>
<path fill="none" stroke="#aabbaa" stroke-width="1.3" stroke-opacity="0.533333" d="M713.74,-349.7C703.4,-341.28 690.79,-331.02 679.46,-321.79"/>
<polygon fill="#aabbaa" fill-opacity="0.533333" stroke="#aabbaa" stroke-width="1.3" stroke-opacity="0.533333" points="681.8,-319.19 671.84,-315.59 677.38,-324.62 681.8,-319.19"/>
</g>
<!-- /lib/files/file_ora.dart&#45;&gt;/lib/models/app_model.dart -->
<g id="edge55" class="edge">
<title>/lib/files/file_ora.dart&#45;&gt;/lib/models/app_model.dart</title>
<path fill="none" stroke="#aabbaa" stroke-width="1.3" stroke-opacity="0.533333" d="M674.91,-277.55C680.07,-274.67 685.58,-271.98 691,-270 711.73,-262.45 718.56,-267.24 740,-262 770.05,-254.65 802.83,-244.12 829.7,-234.79"/>
<polygon fill="#aabbaa" fill-opacity="0.533333" stroke="#aabbaa" stroke-width="1.3" stroke-opacity="0.533333" points="830.7,-238.14 838.97,-231.53 828.37,-231.54 830.7,-238.14"/>
</g>
<!-- /lib/files/file_ora.dart&#45;&gt;/lib/helpers/list_helper.dart -->
<g id="edge54" class="edge">
<title>/lib/files/file_ora.dart&#45;&gt;/lib/helpers/list_helper.dart</title>
<path fill="none" stroke="#aabbaa" stroke-width="1.3" stroke-opacity="0.533333" d="M668.57,-277.58C699.88,-250.88 764.32,-200.68 829,-179 1057.3,-102.47 2832.12,-59.56 3164.47,-52.16"/>
<polygon fill="#aabbaa" fill-opacity="0.533333" stroke="#aabbaa" stroke-width="1.3" stroke-opacity="0.533333" points="3164.24,-55.66 3174.16,-51.94 3164.09,-48.66 3164.24,-55.66"/>
</g>
<!-- /lib/files/export_download_non_web.dart -->
<g id="node28" class="node">
<title>/lib/files/export_download_non_web.dart</title>
<path fill="Lavender" stroke="black" stroke-width="1.3" d="M622.75,-386C622.75,-386 449.25,-386 449.25,-386 443.25,-386 437.25,-380 437.25,-374 437.25,-374 437.25,-362 437.25,-362 437.25,-356 443.25,-350 449.25,-350 449.25,-350 622.75,-350 622.75,-350 628.75,-350 634.75,-356 634.75,-362 634.75,-362 634.75,-374 634.75,-374 634.75,-380 628.75,-386 622.75,-386"/>
<text text-anchor="middle" x="536" y="-362.75" font-family="Arial" font-size="15.00">export_download_non_web</text>
</g>
<!-- /lib/files/export_download_non_web.dart&#45;&gt;/lib/panels/share_panel.dart -->
<g id="edge59" class="edge">
<title>/lib/files/export_download_non_web.dart&#45;&gt;/lib/panels/share_panel.dart</title>
<path fill="none" stroke="#aabbaa" stroke-width="1.3" stroke-opacity="0.533333" d="M635.13,-351.13C638.12,-350.73 641.08,-350.36 644,-350 825.57,-327.77 872.36,-335.62 1054,-314 1071.05,-311.97 1089.48,-309.37 1106.41,-306.82"/>
<polygon fill="#aabbaa" fill-opacity="0.533333" stroke="#aabbaa" stroke-width="1.3" stroke-opacity="0.533333" points="1106.56,-310.34 1115.92,-305.36 1105.5,-303.42 1106.56,-310.34"/>
</g>
<!-- /lib/files/export_download_non_web.dart&#45;&gt;/lib/models/app_model.dart -->
<g id="edge58" class="edge">
<title>/lib/files/export_download_non_web.dart&#45;&gt;/lib/models/app_model.dart</title>
<path fill="none" stroke="#aabbaa" stroke-width="1.3" stroke-opacity="0.533333" d="M634.92,-350.58C714.38,-337.1 814.03,-319.37 822,-314 835.69,-304.79 857.29,-267.98 871.55,-241.7"/>
<polygon fill="#aabbaa" fill-opacity="0.533333" stroke="#aabbaa" stroke-width="1.3" stroke-opacity="0.533333" points="874.62,-243.39 876.24,-232.92 868.44,-240.09 874.62,-243.39"/>
</g>
<!-- /lib/files/export_download_non_web.dart&#45;&gt;/lib/files/file_jpeg.dart -->
<g id="edge56" class="edge">
<title>/lib/files/export_download_non_web.dart&#45;&gt;/lib/files/file_jpeg.dart</title>
<path fill="none" stroke="#aabbaa" stroke-width="1.3" stroke-opacity="0.533333" d="M587.82,-349.59C615.18,-340.31 649.56,-328.48 688.17,-314.61"/>
<polygon fill="#aabbaa" fill-opacity="0.533333" stroke="#aabbaa" stroke-width="1.3" stroke-opacity="0.533333" points="689.1,-318 697.32,-311.31 686.73,-311.41 689.1,-318"/>
</g>
<!-- /lib/files/export_download_non_web.dart&#45;&gt;/lib/files/file_ora.dart -->
<g id="edge57" class="edge">
<title>/lib/files/export_download_non_web.dart&#45;&gt;/lib/files/file_ora.dart</title>
<path fill="none" stroke="#aabbaa" stroke-width="1.3" stroke-opacity="0.533333" d="M564.22,-349.52C578.49,-340.68 595.99,-329.84 611.38,-320.3"/>
<polygon fill="#aabbaa" fill-opacity="0.533333" stroke="#aabbaa" stroke-width="1.3" stroke-opacity="0.533333" points="612.81,-323.54 619.46,-315.3 609.12,-317.59 612.81,-323.54"/>
</g>
<!-- /lib/files/import_files.dart&#45;&gt;/lib/models/app_model.dart -->
<g id="edge61" class="edge">
<title>/lib/files/import_files.dart&#45;&gt;/lib/models/app_model.dart</title>
<path fill="none" stroke="#aabbaa" stroke-width="1.3" stroke-opacity="0.533333" d="M419.64,-351.9C422.46,-351.2 425.26,-350.56 428,-350 581.66,-318.69 637.76,-382.15 779,-314 803.63,-302.12 802.14,-288.79 822,-270 833.06,-259.53 845.59,-248.41 856.62,-238.86"/>
<polygon fill="#aabbaa" fill-opacity="0.533333" stroke="#aabbaa" stroke-width="1.3" stroke-opacity="0.533333" points="858.67,-241.72 863.97,-232.54 854.11,-236.41 858.67,-241.72"/>
</g>
<!-- /lib/files/import_files.dart&#45;&gt;/lib/files/file_ora.dart -->
<g id="edge60" class="edge">
<title>/lib/files/import_files.dart&#45;&gt;/lib/files/file_ora.dart</title>
<path fill="none" stroke="#aabbaa" stroke-width="1.3" stroke-opacity="0.533333" d="M419.75,-352.33C422.53,-351.52 425.3,-350.74 428,-350 488.82,-333.33 559.85,-316.81 604.63,-306.76"/>
<polygon fill="#aabbaa" fill-opacity="0.533333" stroke="#aabbaa" stroke-width="1.3" stroke-opacity="0.533333" points="605.34,-310.19 614.33,-304.59 603.81,-303.35 605.34,-310.19"/>
</g>
<!-- /lib/main_screen.dart&#45;&gt;/lib/panels/tools/flood_fill.dart -->
<g id="edge64" class="edge">
<title>/lib/main_screen.dart&#45;&gt;/lib/panels/tools/flood_fill.dart</title>
<path fill="none" stroke="#aabbaa" stroke-width="1.3" stroke-opacity="0.533333" d="M1161.07,-515.78C1267.01,-512.99 1503.71,-505.35 1538,-492 1588.67,-472.28 1632.93,-425.12 1657.22,-395.26"/>
<polygon fill="#aabbaa" fill-opacity="0.533333" stroke="#aabbaa" stroke-width="1.3" stroke-opacity="0.533333" points="1659.69,-397.78 1663.16,-387.77 1654.21,-393.43 1659.69,-397.78"/>
</g>
<!-- /lib/main_screen.dart&#45;&gt;/lib/panels/canvas_panel.dart -->
<g id="edge62" class="edge">
<title>/lib/main_screen.dart&#45;&gt;/lib/panels/canvas_panel.dart</title>
<path fill="none" stroke="#aabbaa" stroke-width="1.3" stroke-opacity="0.533333" d="M1105.23,-499.53C1094.76,-457.66 1073.43,-349.22 1109,-270 1114.46,-257.84 1124.02,-247.24 1134.06,-238.63"/>
<polygon fill="#aabbaa" fill-opacity="0.533333" stroke="#aabbaa" stroke-width="1.3" stroke-opacity="0.533333" points="1136.11,-241.47 1141.77,-232.52 1131.76,-235.99 1136.11,-241.47"/>
</g>
<!-- /lib/main_screen.dart&#45;&gt;/lib/panels/side_panel.dart -->
<g id="edge63" class="edge">
<title>/lib/main_screen.dart&#45;&gt;/lib/panels/side_panel.dart</title>
<path fill="none" stroke="#aabbaa" stroke-width="1.3" stroke-opacity="0.533333" d="M1161.13,-513.93C1208.63,-510.43 1275.48,-503.61 1299,-492 1309.55,-486.79 1319.18,-478.34 1326.99,-469.97"/>
<polygon fill="#aabbaa" fill-opacity="0.533333" stroke="#aabbaa" stroke-width="1.3" stroke-opacity="0.533333" points="1329.51,-472.41 1333.43,-462.56 1324.23,-467.82 1329.51,-472.41"/>
</g>
<!-- /lib/main_screen.dart&#45;&gt;/lib/models/app_model.dart -->
<g id="edge65" class="edge">
<title>/lib/main_screen.dart&#45;&gt;/lib/models/app_model.dart</title>
<path fill="none" stroke="#aabbaa" stroke-width="1.3" stroke-opacity="0.533333" d="M1069.79,-499.61C1035.65,-482.96 987.62,-454.79 958,-417 916.41,-363.95 897.69,-284.94 890.25,-242.85"/>
<polygon fill="#aabbaa" fill-opacity="0.533333" stroke="#aabbaa" stroke-width="1.3" stroke-opacity="0.533333" points="893.75,-242.51 888.66,-233.22 886.84,-243.66 893.75,-242.51"/>
</g>
<!-- /lib/helpers/color_helper.dart&#45;&gt;/lib/helpers/list_helper.dart -->
<g id="edge66" class="edge">
<title>/lib/helpers/color_helper.dart&#45;&gt;/lib/helpers/list_helper.dart</title>
<path fill="none" stroke="#aabbaa" stroke-width="1.3" stroke-opacity="0.533333" d="M3223.27,-103.7C3222.55,-96.49 3221.69,-87.93 3220.88,-79.82"/>
<polygon fill="#aabbaa" fill-opacity="0.533333" stroke="#aabbaa" stroke-width="1.3" stroke-opacity="0.533333" points="3224.38,-79.66 3219.91,-70.06 3217.42,-80.36 3224.38,-79.66"/>
</g>
<!-- /lib/widgets/brush_style_picker.dart&#45;&gt;/lib/models/app_model.dart -->
<g id="edge67" class="edge">
<title>/lib/widgets/brush_style_picker.dart&#45;&gt;/lib/models/app_model.dart</title>
<path fill="none" stroke="#aabbaa" stroke-width="1.3" stroke-opacity="0.533333" d="M1986.45,-231.48C1958.86,-244 1920.05,-259.41 1884,-266 1858.42,-270.68 973.43,-271.4 948,-266 931.93,-262.59 917.7,-251.39 906.93,-240.16"/>
<polygon fill="#aabbaa" fill-opacity="0.533333" stroke="#aabbaa" stroke-width="1.3" stroke-opacity="0.533333" points="909.63,-237.93 900.38,-232.77 904.39,-242.57 909.63,-237.93"/>
</g>
<!-- /lib/widgets/color_picker.dart&#45;&gt;/lib/helpers/list_helper.dart -->
<g id="edge69" class="edge">
<title>/lib/widgets/color_picker.dart&#45;&gt;/lib/helpers/list_helper.dart</title>
<path fill="none" stroke="#aabbaa" stroke-width="1.3" stroke-opacity="0.533333" d="M3034.05,-194.77C3070.73,-166.1 3144.44,-108.49 3186.56,-75.57"/>
<polygon fill="#aabbaa" fill-opacity="0.533333" stroke="#aabbaa" stroke-width="1.3" stroke-opacity="0.533333" points="3188.53,-78.48 3194.25,-69.56 3184.22,-72.96 3188.53,-78.48"/>
</g>
<!-- /lib/widgets/color_picker.dart&#45;&gt;/lib/helpers/color_helper.dart -->
<g id="edge68" class="edge">
<title>/lib/widgets/color_picker.dart&#45;&gt;/lib/helpers/color_helper.dart</title>
<path fill="none" stroke="#aabbaa" stroke-width="1.3" stroke-opacity="0.533333" d="M3036.7,-194.51C3046.34,-188.56 3057.76,-182.53 3069,-179 3109.42,-166.3 3124.58,-186.53 3164,-171 3177.05,-165.86 3189.58,-156.96 3199.85,-148.21"/>
<polygon fill="#aabbaa" fill-opacity="0.533333" stroke="#aabbaa" stroke-width="1.3" stroke-opacity="0.533333" points="3202.05,-150.94 3207.13,-141.64 3197.36,-145.74 3202.05,-150.94"/>
</g>
<!-- /lib/widgets/color_picker.dart&#45;&gt;/lib/widgets/transparent_background.dart -->
<g id="edge70" class="edge">
<title>/lib/widgets/color_picker.dart&#45;&gt;/lib/widgets/transparent_background.dart</title>
<path fill="none" stroke="#aabbaa" stroke-width="1.3" stroke-opacity="0.533333" d="M2987.62,-194.55C2977.93,-188.53 2966.38,-182.44 2955,-179 2806,-134.04 2349.63,-125.1 2144.6,-123.38"/>
<polygon fill="#aabbaa" fill-opacity="0.533333" stroke="#aabbaa" stroke-width="1.3" stroke-opacity="0.533333" points="2144.65,-119.88 2134.62,-123.3 2144.59,-126.88 2144.65,-119.88"/>
</g>
</g>
</svg>
