<?xml version="1.0" encoding="UTF-8" standalone="no"?>
<!DOCTYPE svg PUBLIC "-//W3C//DTD SVG 1.1//EN"
 "http://www.w3.org/Graphics/SVG/1.1/DTD/svg11.dtd">
<!-- Generated by graphviz version 12.2.1 (20241206.2353)
 -->
<!-- Pages: 1 -->
<svg width="1302pt" height="833pt"
 viewBox="0.00 0.00 1302.00 833.00" xmlns="http://www.w3.org/2000/svg" xmlns:xlink="http://www.w3.org/1999/xlink">
<g id="graph0" class="graph" transform="scale(1 1) rotate(0) translate(4 829)">
<polygon fill="white" stroke="none" points="-4,4 -4,-829 1298,-829 1298,4 -4,4"/>
<g id="clust1" class="cluster">
<title>cluster~</title>
<path fill="none" stroke="lightgray" stroke-width="2.6" d="M20,-8C20,-8 1274,-8 1274,-8 1280,-8 1286,-14 1286,-20 1286,-20 1286,-805 1286,-805 1286,-811 1280,-817 1274,-817 1274,-817 20,-817 20,-817 14,-817 8,-811 8,-805 8,-805 8,-20 8,-20 8,-14 14,-8 20,-8"/>
<text text-anchor="middle" x="647" y="-800.65" font-family="Arial Black" font-size="13.00">fpaint</text>
</g>
<g id="clust2" class="cluster">
<title>cluster~/test</title>
<path fill="none" stroke="lightgray" stroke-width="2.6" d="M123,-711C123,-711 355,-711 355,-711 361,-711 367,-717 367,-723 367,-723 367,-774 367,-774 367,-780 361,-786 355,-786 355,-786 123,-786 123,-786 117,-786 111,-780 111,-774 111,-774 111,-723 111,-723 111,-717 117,-711 123,-711"/>
<text text-anchor="middle" x="239" y="-769.65" font-family="Arial Black" font-size="13.00">test</text>
</g>
<g id="clust3" class="cluster">
<title>cluster~/lib</title>
<path fill="none" stroke="lightgray" stroke-width="2.6" d="M40,-16C40,-16 1266,-16 1266,-16 1272,-16 1278,-22 1278,-28 1278,-28 1278,-691 1278,-691 1278,-697 1272,-703 1266,-703 1266,-703 40,-703 40,-703 34,-703 28,-697 28,-691 28,-691 28,-28 28,-28 28,-22 34,-16 40,-16"/>
<text text-anchor="middle" x="653" y="-686.65" font-family="Arial Black" font-size="13.00">lib</text>
</g>
<g id="clust4" class="cluster">
<title>cluster~/lib/panels</title>
<path fill="none" stroke="lightgray" stroke-width="2.6" d="M120,-262C120,-262 455,-262 455,-262 461,-262 467,-268 467,-274 467,-274 467,-544 467,-544 467,-550 461,-556 455,-556 455,-556 120,-556 120,-556 114,-556 108,-550 108,-544 108,-544 108,-274 108,-274 108,-268 114,-262 120,-262"/>
<text text-anchor="middle" x="287.5" y="-539.65" font-family="Arial Black" font-size="13.00">panels</text>
</g>
<g id="clust5" class="cluster">
<title>cluster~/lib/models</title>
<path fill="none" stroke="lightgray" stroke-width="2.6" d="M1033,-262C1033,-262 1226,-262 1226,-262 1232,-262 1238,-268 1238,-274 1238,-274 1238,-469 1238,-469 1238,-475 1232,-481 1226,-481 1226,-481 1033,-481 1033,-481 1027,-481 1021,-475 1021,-469 1021,-469 1021,-274 1021,-274 1021,-268 1027,-262 1033,-262"/>
<text text-anchor="middle" x="1129.5" y="-464.65" font-family="Arial Black" font-size="13.00">models</text>
</g>
<g id="clust6" class="cluster">
<title>cluster~/lib/files</title>
<path fill="none" stroke="lightgray" stroke-width="2.6" d="M519,-334C519,-334 1001,-334 1001,-334 1007,-334 1013,-340 1013,-346 1013,-346 1013,-469 1013,-469 1013,-475 1007,-481 1001,-481 1001,-481 519,-481 519,-481 513,-481 507,-475 507,-469 507,-469 507,-346 507,-346 507,-340 513,-334 519,-334"/>
<text text-anchor="middle" x="760" y="-464.65" font-family="Arial Black" font-size="13.00">files</text>
</g>
<g id="clust7" class="cluster">
<title>cluster~/lib/helpers</title>
<path fill="none" stroke="lightgray" stroke-width="2.6" d="M553,-24C553,-24 643,-24 643,-24 649,-24 655,-30 655,-36 655,-36 655,-159 655,-159 655,-165 649,-171 643,-171 643,-171 553,-171 553,-171 547,-171 541,-165 541,-159 541,-159 541,-36 541,-36 541,-30 547,-24 553,-24"/>
<text text-anchor="middle" x="598" y="-154.65" font-family="Arial Black" font-size="13.00">helpers</text>
</g>
<g id="clust8" class="cluster">
<title>cluster~/lib/widgets</title>
<path fill="none" stroke="lightgray" stroke-width="2.6" d="M124,-179C124,-179 851,-179 851,-179 857,-179 863,-185 863,-191 863,-191 863,-242 863,-242 863,-248 857,-254 851,-254 851,-254 124,-254 124,-254 118,-254 112,-248 112,-242 112,-242 112,-191 112,-191 112,-185 118,-179 124,-179"/>
<text text-anchor="middle" x="487.5" y="-237.65" font-family="Arial Black" font-size="13.00">widgets</text>
</g>
<!-- /test/paint_model_test.dart -->
<g id="node1" class="node">
<title>/test/paint_model_test.dart</title>
<path fill="Lavender" stroke="black" stroke-width="1.3" d="M237,-755C237,-755 131,-755 131,-755 125,-755 119,-749 119,-743 119,-743 119,-731 119,-731 119,-725 125,-719 131,-719 131,-719 237,-719 237,-719 243,-719 249,-725 249,-731 249,-731 249,-743 249,-743 249,-749 243,-755 237,-755"/>
<text text-anchor="middle" x="184" y="-731.75" font-family="Arial" font-size="15.00">paint_model_test</text>
</g>
<!-- /lib/models/app_model.dart -->
<g id="node12" class="node">
<title>/lib/models/app_model.dart</title>
<path fill="Lavender" stroke="black" stroke-width="1.3" d="M1106.75,-306C1106.75,-306 1041.25,-306 1041.25,-306 1035.25,-306 1029.25,-300 1029.25,-294 1029.25,-294 1029.25,-282 1029.25,-282 1029.25,-276 1035.25,-270 1041.25,-270 1041.25,-270 1106.75,-270 1106.75,-270 1112.75,-270 1118.75,-276 1118.75,-282 1118.75,-282 1118.75,-294 1118.75,-294 1118.75,-300 1112.75,-306 1106.75,-306"/>
<text text-anchor="middle" x="1074" y="-282.75" font-family="Arial" font-size="15.00">app_model</text>
</g>
<!-- /test/paint_model_test.dart&#45;&gt;/lib/models/app_model.dart -->
<g id="edge1" class="edge">
<title>/test/paint_model_test.dart&#45;&gt;/lib/models/app_model.dart</title>
<path fill="none" stroke="#aabbaa" stroke-width="1.3" stroke-opacity="0.533333" d="M118.52,-730.51C80.01,-725.81 36.47,-717.43 24,-703 -10.94,-662.58 17,-636.42 17,-583 17,-583 17,-583 17,-431 17,-373.09 51.68,-358.82 104,-334 145.37,-314.37 815.47,-295.64 1017.07,-290.43"/>
<polygon fill="#aabbaa" fill-opacity="0.533333" stroke="#aabbaa" stroke-width="1.3" stroke-opacity="0.533333" points="1016.95,-293.93 1026.86,-290.18 1016.77,-286.93 1016.95,-293.93"/>
</g>
<!-- /test/widget_test.dart -->
<g id="node2" class="node">
<title>/test/widget_test.dart</title>
<path fill="Lavender" stroke="black" stroke-width="1.3" d="M346.88,-755C346.88,-755 279.12,-755 279.12,-755 273.12,-755 267.12,-749 267.12,-743 267.12,-743 267.12,-731 267.12,-731 267.12,-725 273.12,-719 279.12,-719 279.12,-719 346.88,-719 346.88,-719 352.88,-719 358.88,-725 358.88,-731 358.88,-731 358.88,-743 358.88,-743 358.88,-749 352.88,-755 346.88,-755"/>
<text text-anchor="middle" x="313" y="-731.75" font-family="Arial" font-size="15.00">widget_test</text>
</g>
<!-- /lib/main.dart -->
<g id="node14" class="node">
<title>/lib/main.dart</title>
<path fill="Lavender" stroke="black" stroke-width="1.3" d="M424,-672C424,-672 394,-672 394,-672 388,-672 382,-666 382,-660 382,-660 382,-648 382,-648 382,-642 388,-636 394,-636 394,-636 424,-636 424,-636 430,-636 436,-642 436,-648 436,-648 436,-660 436,-660 436,-666 430,-672 424,-672"/>
<text text-anchor="middle" x="409" y="-648.75" font-family="Arial" font-size="15.00">main</text>
</g>
<!-- /test/widget_test.dart&#45;&gt;/lib/main.dart -->
<g id="edge2" class="edge">
<title>/test/widget_test.dart&#45;&gt;/lib/main.dart</title>
<path fill="none" stroke="#aabbaa" stroke-width="1.3" stroke-opacity="0.533333" d="M333.36,-718.82C346.76,-707.52 364.52,-692.53 379.46,-679.92"/>
<polygon fill="#aabbaa" fill-opacity="0.533333" stroke="#aabbaa" stroke-width="1.3" stroke-opacity="0.533333" points="381.45,-682.83 386.84,-673.7 376.94,-677.48 381.45,-682.83"/>
</g>
<!-- /lib/panels/tool_selector.dart -->
<g id="node3" class="node">
<title>/lib/panels/tool_selector.dart</title>
<path fill="Lavender" stroke="black" stroke-width="1.3" d="M204.38,-378C204.38,-378 127.62,-378 127.62,-378 121.62,-378 115.62,-372 115.62,-366 115.62,-366 115.62,-354 115.62,-354 115.62,-348 121.62,-342 127.62,-342 127.62,-342 204.38,-342 204.38,-342 210.38,-342 216.38,-348 216.38,-354 216.38,-354 216.38,-366 216.38,-366 216.38,-372 210.38,-378 204.38,-378"/>
<text text-anchor="middle" x="166" y="-354.75" font-family="Arial" font-size="15.00">tool_selector</text>
</g>
<!-- /lib/panels/canvas_panel.dart -->
<g id="node4" class="node">
<title>/lib/panels/canvas_panel.dart</title>
<path fill="Lavender" stroke="black" stroke-width="1.3" d="M446.75,-306C446.75,-306 363.25,-306 363.25,-306 357.25,-306 351.25,-300 351.25,-294 351.25,-294 351.25,-282 351.25,-282 351.25,-276 357.25,-270 363.25,-270 363.25,-270 446.75,-270 446.75,-270 452.75,-270 458.75,-276 458.75,-282 458.75,-282 458.75,-294 458.75,-294 458.75,-300 452.75,-306 446.75,-306"/>
<text text-anchor="middle" x="405" y="-282.75" font-family="Arial" font-size="15.00">canvas_panel</text>
</g>
<!-- /lib/panels/canvas_panel.dart&#45;&gt;/lib/models/app_model.dart -->
<g id="edge3" class="edge">
<title>/lib/panels/canvas_panel.dart&#45;&gt;/lib/models/app_model.dart</title>
<path fill="none" stroke="#aabbaa" stroke-width="1.3" stroke-opacity="0.533333" d="M459.23,-288C645.15,-288 831.08,-288 1017.01,-288"/>
<polygon fill="#aabbaa" fill-opacity="0.533333" stroke="#aabbaa" stroke-width="1.3" stroke-opacity="0.533333" points="1017,-291.5 1027,-288 1017,-284.5 1017,-291.5"/>
</g>
<!-- /lib/widgets/transparent_background.dart -->
<g id="node25" class="node">
<title>/lib/widgets/transparent_background.dart</title>
<path fill="Lavender" stroke="black" stroke-width="1.3" d="M555.38,-223C555.38,-223 400.62,-223 400.62,-223 394.62,-223 388.62,-217 388.62,-211 388.62,-211 388.62,-199 388.62,-199 388.62,-193 394.62,-187 400.62,-187 400.62,-187 555.38,-187 555.38,-187 561.38,-187 567.38,-193 567.38,-199 567.38,-199 567.38,-211 567.38,-211 567.38,-217 561.38,-223 555.38,-223"/>
<text text-anchor="middle" x="478" y="-199.75" font-family="Arial" font-size="15.00">transparent_background</text>
</g>
<!-- /lib/panels/canvas_panel.dart&#45;&gt;/lib/widgets/transparent_background.dart -->
<g id="edge4" class="edge">
<title>/lib/panels/canvas_panel.dart&#45;&gt;/lib/widgets/transparent_background.dart</title>
<path fill="none" stroke="#aabbaa" stroke-width="1.3" stroke-opacity="0.533333" d="M420.48,-269.82C430.38,-258.84 443.41,-244.38 454.57,-232"/>
<polygon fill="#aabbaa" fill-opacity="0.533333" stroke="#aabbaa" stroke-width="1.3" stroke-opacity="0.533333" points="456.88,-234.67 460.97,-224.89 451.68,-229.98 456.88,-234.67"/>
</g>
<!-- /lib/panels/layer_selector.dart -->
<g id="node5" class="node">
<title>/lib/panels/layer_selector.dart</title>
<path fill="Lavender" stroke="black" stroke-width="1.3" d="M331.5,-378C331.5,-378 246.5,-378 246.5,-378 240.5,-378 234.5,-372 234.5,-366 234.5,-366 234.5,-354 234.5,-354 234.5,-348 240.5,-342 246.5,-342 246.5,-342 331.5,-342 331.5,-342 337.5,-342 343.5,-348 343.5,-354 343.5,-354 343.5,-366 343.5,-366 343.5,-372 337.5,-378 331.5,-378"/>
<text text-anchor="middle" x="289" y="-354.75" font-family="Arial" font-size="15.00">layer_selector</text>
</g>
<!-- /lib/panels/layer_selector.dart&#45;&gt;/lib/models/app_model.dart -->
<g id="edge5" class="edge">
<title>/lib/panels/layer_selector.dart&#45;&gt;/lib/models/app_model.dart</title>
<path fill="none" stroke="#aabbaa" stroke-width="1.3" stroke-opacity="0.533333" d="M327.38,-341.56C335.37,-338.56 343.85,-335.82 352,-334 478.36,-305.74 869.59,-293.81 1017.02,-290.24"/>
<polygon fill="#aabbaa" fill-opacity="0.533333" stroke="#aabbaa" stroke-width="1.3" stroke-opacity="0.533333" points="1016.98,-293.74 1026.89,-290 1016.81,-286.74 1016.98,-293.74"/>
</g>
<!-- /lib/widgets/truncated_text.dart -->
<g id="node23" class="node">
<title>/lib/widgets/truncated_text.dart</title>
<path fill="Lavender" stroke="black" stroke-width="1.3" d="M685,-223C685,-223 597,-223 597,-223 591,-223 585,-217 585,-211 585,-211 585,-199 585,-199 585,-193 591,-187 597,-187 597,-187 685,-187 685,-187 691,-187 697,-193 697,-199 697,-199 697,-211 697,-211 697,-217 691,-223 685,-223"/>
<text text-anchor="middle" x="641" y="-199.75" font-family="Arial" font-size="15.00">truncated_text</text>
</g>
<!-- /lib/panels/layer_selector.dart&#45;&gt;/lib/widgets/truncated_text.dart -->
<g id="edge7" class="edge">
<title>/lib/panels/layer_selector.dart&#45;&gt;/lib/widgets/truncated_text.dart</title>
<path fill="none" stroke="#aabbaa" stroke-width="1.3" stroke-opacity="0.533333" d="M330,-341.61C337.26,-338.85 344.8,-336.19 352,-334 408.12,-316.9 426.04,-326.52 481,-306 526.09,-289.17 535.44,-279.91 576,-254 587.2,-246.85 599.01,-238.41 609.45,-230.63"/>
<polygon fill="#aabbaa" fill-opacity="0.533333" stroke="#aabbaa" stroke-width="1.3" stroke-opacity="0.533333" points="611.53,-233.44 617.4,-224.62 607.31,-227.86 611.53,-233.44"/>
</g>
<!-- /lib/panels/layer_selector.dart&#45;&gt;/lib/widgets/transparent_background.dart -->
<g id="edge6" class="edge">
<title>/lib/panels/layer_selector.dart&#45;&gt;/lib/widgets/transparent_background.dart</title>
<path fill="none" stroke="#aabbaa" stroke-width="1.3" stroke-opacity="0.533333" d="M330.38,-341.62C337.53,-338.9 344.93,-336.24 352,-334 402.55,-317.96 433.16,-345.98 468,-306 484.75,-286.78 485.64,-256.92 483.31,-234.83"/>
<polygon fill="#aabbaa" fill-opacity="0.533333" stroke="#aabbaa" stroke-width="1.3" stroke-opacity="0.533333" points="486.81,-234.55 481.98,-225.11 479.87,-235.49 486.81,-234.55"/>
</g>
<!-- /lib/panels/side_panel.dart -->
<g id="node6" class="node">
<title>/lib/panels/side_panel.dart</title>
<path fill="Lavender" stroke="black" stroke-width="1.3" d="M440.62,-525C440.62,-525 377.38,-525 377.38,-525 371.38,-525 365.38,-519 365.38,-513 365.38,-513 365.38,-501 365.38,-501 365.38,-495 371.38,-489 377.38,-489 377.38,-489 440.62,-489 440.62,-489 446.62,-489 452.62,-495 452.62,-501 452.62,-501 452.62,-513 452.62,-513 452.62,-519 446.62,-525 440.62,-525"/>
<text text-anchor="middle" x="409" y="-501.75" font-family="Arial" font-size="15.00">side_panel</text>
</g>
<!-- /lib/panels/tools_panel.dart -->
<g id="node8" class="node">
<title>/lib/panels/tools_panel.dart</title>
<path fill="Lavender" stroke="black" stroke-width="1.3" d="M197.88,-450C197.88,-450 130.12,-450 130.12,-450 124.12,-450 118.12,-444 118.12,-438 118.12,-438 118.12,-426 118.12,-426 118.12,-420 124.12,-414 130.12,-414 130.12,-414 197.88,-414 197.88,-414 203.88,-414 209.88,-420 209.88,-426 209.88,-426 209.88,-438 209.88,-438 209.88,-444 203.88,-450 197.88,-450"/>
<text text-anchor="middle" x="164" y="-426.75" font-family="Arial" font-size="15.00">tools_panel</text>
</g>
<!-- /lib/panels/side_panel.dart&#45;&gt;/lib/panels/tools_panel.dart -->
<g id="edge10" class="edge">
<title>/lib/panels/side_panel.dart&#45;&gt;/lib/panels/tools_panel.dart</title>
<path fill="none" stroke="#aabbaa" stroke-width="1.3" stroke-opacity="0.533333" d="M365.09,-490.32C363.71,-489.87 362.35,-489.43 361,-489 314.39,-474.14 260.97,-459.07 221.53,-448.32"/>
<polygon fill="#aabbaa" fill-opacity="0.533333" stroke="#aabbaa" stroke-width="1.3" stroke-opacity="0.533333" points="222.49,-444.95 211.92,-445.71 220.66,-451.71 222.49,-444.95"/>
</g>
<!-- /lib/panels/layers_panel.dart -->
<g id="node9" class="node">
<title>/lib/panels/layers_panel.dart</title>
<path fill="Lavender" stroke="black" stroke-width="1.3" d="M447,-450C447,-450 371,-450 371,-450 365,-450 359,-444 359,-438 359,-438 359,-426 359,-426 359,-420 365,-414 371,-414 371,-414 447,-414 447,-414 453,-414 459,-420 459,-426 459,-426 459,-438 459,-438 459,-444 453,-450 447,-450"/>
<text text-anchor="middle" x="409" y="-426.75" font-family="Arial" font-size="15.00">layers_panel</text>
</g>
<!-- /lib/panels/side_panel.dart&#45;&gt;/lib/panels/layers_panel.dart -->
<g id="edge9" class="edge">
<title>/lib/panels/side_panel.dart&#45;&gt;/lib/panels/layers_panel.dart</title>
<path fill="none" stroke="#aabbaa" stroke-width="1.3" stroke-opacity="0.533333" d="M409,-488.7C409,-480.76 409,-471.12 409,-462.11"/>
<polygon fill="#aabbaa" fill-opacity="0.533333" stroke="#aabbaa" stroke-width="1.3" stroke-opacity="0.533333" points="412.5,-462.4 409,-452.4 405.5,-462.4 412.5,-462.4"/>
</g>
<!-- /lib/panels/side_panel.dart&#45;&gt;/lib/models/app_model.dart -->
<g id="edge8" class="edge">
<title>/lib/panels/side_panel.dart&#45;&gt;/lib/models/app_model.dart</title>
<path fill="none" stroke="#aabbaa" stroke-width="1.3" stroke-opacity="0.533333" d="M453.05,-489.79C454.38,-489.5 455.69,-489.23 457,-489 474.91,-485.81 1099.21,-493.94 1112,-481 1134.96,-457.76 1123.22,-364.68 1112,-334 1109.57,-327.36 1105.68,-321.02 1101.29,-315.3"/>
<polygon fill="#aabbaa" fill-opacity="0.533333" stroke="#aabbaa" stroke-width="1.3" stroke-opacity="0.533333" points="1104.05,-313.15 1094.89,-307.83 1098.74,-317.7 1104.05,-313.15"/>
</g>
<!-- /lib/panels/share_panel.dart -->
<g id="node7" class="node">
<title>/lib/panels/share_panel.dart</title>
<path fill="Lavender" stroke="black" stroke-width="1.3" d="M446.88,-378C446.88,-378 373.12,-378 373.12,-378 367.12,-378 361.12,-372 361.12,-366 361.12,-366 361.12,-354 361.12,-354 361.12,-348 367.12,-342 373.12,-342 373.12,-342 446.88,-342 446.88,-342 452.88,-342 458.88,-348 458.88,-354 458.88,-354 458.88,-366 458.88,-366 458.88,-372 452.88,-378 446.88,-378"/>
<text text-anchor="middle" x="410" y="-354.75" font-family="Arial" font-size="15.00">share_panel</text>
</g>
<!-- /lib/panels/share_panel.dart&#45;&gt;/lib/panels/canvas_panel.dart -->
<g id="edge12" class="edge">
<title>/lib/panels/share_panel.dart&#45;&gt;/lib/panels/canvas_panel.dart</title>
<path fill="none" stroke="#aabbaa" stroke-width="1.3" stroke-opacity="0.533333" d="M408.76,-341.7C408.25,-334.49 407.64,-325.93 407.06,-317.82"/>
<polygon fill="#aabbaa" fill-opacity="0.533333" stroke="#aabbaa" stroke-width="1.3" stroke-opacity="0.533333" points="410.57,-317.79 406.36,-308.07 403.58,-318.29 410.57,-317.79"/>
</g>
<!-- /lib/panels/share_panel.dart&#45;&gt;/lib/models/app_model.dart -->
<g id="edge11" class="edge">
<title>/lib/panels/share_panel.dart&#45;&gt;/lib/models/app_model.dart</title>
<path fill="none" stroke="#aabbaa" stroke-width="1.3" stroke-opacity="0.533333" d="M448.73,-341.51C456.63,-338.55 464.97,-335.85 473,-334 575.48,-310.41 887.58,-296.12 1016.92,-291.07"/>
<polygon fill="#aabbaa" fill-opacity="0.533333" stroke="#aabbaa" stroke-width="1.3" stroke-opacity="0.533333" points="1017.03,-294.57 1026.88,-290.69 1016.76,-287.57 1017.03,-294.57"/>
</g>
<!-- /lib/panels/tools_panel.dart&#45;&gt;/lib/panels/tool_selector.dart -->
<g id="edge14" class="edge">
<title>/lib/panels/tools_panel.dart&#45;&gt;/lib/panels/tool_selector.dart</title>
<path fill="none" stroke="#aabbaa" stroke-width="1.3" stroke-opacity="0.533333" d="M164.49,-413.7C164.7,-406.49 164.94,-397.93 165.18,-389.82"/>
<polygon fill="#aabbaa" fill-opacity="0.533333" stroke="#aabbaa" stroke-width="1.3" stroke-opacity="0.533333" points="168.67,-390.17 165.46,-380.07 161.67,-389.97 168.67,-390.17"/>
</g>
<!-- /lib/panels/tools_panel.dart&#45;&gt;/lib/models/app_model.dart -->
<g id="edge13" class="edge">
<title>/lib/panels/tools_panel.dart&#45;&gt;/lib/models/app_model.dart</title>
<path fill="none" stroke="#aabbaa" stroke-width="1.3" stroke-opacity="0.533333" d="M210.34,-425.55C290.57,-415.72 448.66,-394.54 468,-378 483.7,-364.57 466.67,-346.65 483,-334 524.65,-301.74 877.84,-292.3 1017.5,-289.81"/>
<polygon fill="#aabbaa" fill-opacity="0.533333" stroke="#aabbaa" stroke-width="1.3" stroke-opacity="0.533333" points="1017.24,-293.31 1027.18,-289.64 1017.12,-286.31 1017.24,-293.31"/>
</g>
<!-- /lib/widgets/brush_size_picker.dart -->
<g id="node24" class="node">
<title>/lib/widgets/brush_size_picker.dart</title>
<path fill="Lavender" stroke="black" stroke-width="1.3" d="M244,-223C244,-223 132,-223 132,-223 126,-223 120,-217 120,-211 120,-211 120,-199 120,-199 120,-193 126,-187 132,-187 132,-187 244,-187 244,-187 250,-187 256,-193 256,-199 256,-199 256,-211 256,-211 256,-217 250,-223 244,-223"/>
<text text-anchor="middle" x="188" y="-199.75" font-family="Arial" font-size="15.00">brush_size_picker</text>
</g>
<!-- /lib/panels/tools_panel.dart&#45;&gt;/lib/widgets/brush_size_picker.dart -->
<g id="edge15" class="edge">
<title>/lib/panels/tools_panel.dart&#45;&gt;/lib/widgets/brush_size_picker.dart</title>
<path fill="none" stroke="#aabbaa" stroke-width="1.3" stroke-opacity="0.533333" d="M117.9,-421.6C93.86,-414.1 66.5,-400.9 52,-378 24.42,-334.44 23.31,-304.84 52,-262 65.13,-242.4 86.49,-229.65 108.44,-221.36"/>
<polygon fill="#aabbaa" fill-opacity="0.533333" stroke="#aabbaa" stroke-width="1.3" stroke-opacity="0.533333" points="109.4,-224.74 117.72,-218.17 107.12,-218.12 109.4,-224.74"/>
</g>
<!-- /lib/panels/tools_panel.dart&#45;&gt;/lib/widgets/transparent_background.dart -->
<g id="edge17" class="edge">
<title>/lib/panels/tools_panel.dart&#45;&gt;/lib/widgets/transparent_background.dart</title>
<path fill="none" stroke="#aabbaa" stroke-width="1.3" stroke-opacity="0.533333" d="M137.12,-413.68C125.55,-404.6 113.26,-392.37 107,-378 99.19,-360.07 95.37,-349.72 107,-334 171.95,-246.17 236.3,-289.57 342,-262 358.28,-257.75 363.1,-259.49 379,-254 398.59,-247.24 419.35,-237.59 436.78,-228.71"/>
<polygon fill="#aabbaa" fill-opacity="0.533333" stroke="#aabbaa" stroke-width="1.3" stroke-opacity="0.533333" points="438.15,-231.94 445.41,-224.23 434.93,-225.73 438.15,-231.94"/>
</g>
<!-- /lib/widgets/color_picker.dart -->
<g id="node27" class="node">
<title>/lib/widgets/color_picker.dart</title>
<path fill="Lavender" stroke="black" stroke-width="1.3" d="M358.12,-223C358.12,-223 285.88,-223 285.88,-223 279.88,-223 273.88,-217 273.88,-211 273.88,-211 273.88,-199 273.88,-199 273.88,-193 279.88,-187 285.88,-187 285.88,-187 358.12,-187 358.12,-187 364.12,-187 370.12,-193 370.12,-199 370.12,-199 370.12,-211 370.12,-211 370.12,-217 364.12,-223 358.12,-223"/>
<text text-anchor="middle" x="322" y="-199.75" font-family="Arial" font-size="15.00">color_picker</text>
</g>
<!-- /lib/panels/tools_panel.dart&#45;&gt;/lib/widgets/color_picker.dart -->
<g id="edge16" class="edge">
<title>/lib/panels/tools_panel.dart&#45;&gt;/lib/widgets/color_picker.dart</title>
<path fill="none" stroke="#aabbaa" stroke-width="1.3" stroke-opacity="0.533333" d="M117.78,-415.85C100.23,-407.59 82.05,-395.4 72,-378 46.2,-333.36 36.31,-299.2 72,-262 86.86,-246.51 244.99,-261.77 265,-254 277.61,-249.1 289.43,-240.19 299,-231.37"/>
<polygon fill="#aabbaa" fill-opacity="0.533333" stroke="#aabbaa" stroke-width="1.3" stroke-opacity="0.533333" points="301.36,-233.96 306.04,-224.45 296.45,-228.97 301.36,-233.96"/>
</g>
<!-- /lib/panels/layers_panel.dart&#45;&gt;/lib/panels/layer_selector.dart -->
<g id="edge20" class="edge">
<title>/lib/panels/layers_panel.dart&#45;&gt;/lib/panels/layer_selector.dart</title>
<path fill="none" stroke="#aabbaa" stroke-width="1.3" stroke-opacity="0.533333" d="M379.03,-413.52C363.74,-404.6 344.94,-393.63 328.48,-384.03"/>
<polygon fill="#aabbaa" fill-opacity="0.533333" stroke="#aabbaa" stroke-width="1.3" stroke-opacity="0.533333" points="330.69,-381.27 320.29,-379.25 327.16,-387.31 330.69,-381.27"/>
</g>
<!-- /lib/panels/layers_panel.dart&#45;&gt;/lib/panels/share_panel.dart -->
<g id="edge21" class="edge">
<title>/lib/panels/layers_panel.dart&#45;&gt;/lib/panels/share_panel.dart</title>
<path fill="none" stroke="#aabbaa" stroke-width="1.3" stroke-opacity="0.533333" d="M409.25,-413.7C409.35,-406.49 409.47,-397.93 409.59,-389.82"/>
<polygon fill="#aabbaa" fill-opacity="0.533333" stroke="#aabbaa" stroke-width="1.3" stroke-opacity="0.533333" points="413.08,-390.12 409.73,-380.07 406.08,-390.02 413.08,-390.12"/>
</g>
<!-- /lib/panels/layers_panel.dart&#45;&gt;/lib/models/app_model.dart -->
<g id="edge19" class="edge">
<title>/lib/panels/layers_panel.dart&#45;&gt;/lib/models/app_model.dart</title>
<path fill="none" stroke="#aabbaa" stroke-width="1.3" stroke-opacity="0.533333" d="M440.37,-413.73C454.79,-404.58 471.26,-392.28 483,-378 496.64,-361.4 485.41,-346.33 503,-334 544.45,-304.95 881.15,-293.64 1017.24,-290.23"/>
<polygon fill="#aabbaa" fill-opacity="0.533333" stroke="#aabbaa" stroke-width="1.3" stroke-opacity="0.533333" points="1017.13,-293.74 1027.04,-289.99 1016.95,-286.74 1017.13,-293.74"/>
</g>
<!-- /lib/files/import_files.dart -->
<g id="node19" class="node">
<title>/lib/files/import_files.dart</title>
<path fill="Lavender" stroke="black" stroke-width="1.3" d="M993.25,-450C993.25,-450 924.75,-450 924.75,-450 918.75,-450 912.75,-444 912.75,-438 912.75,-438 912.75,-426 912.75,-426 912.75,-420 918.75,-414 924.75,-414 924.75,-414 993.25,-414 993.25,-414 999.25,-414 1005.25,-420 1005.25,-426 1005.25,-426 1005.25,-438 1005.25,-438 1005.25,-444 999.25,-450 993.25,-450"/>
<text text-anchor="middle" x="959" y="-426.75" font-family="Arial" font-size="15.00">import_files</text>
</g>
<!-- /lib/panels/layers_panel.dart&#45;&gt;/lib/files/import_files.dart -->
<g id="edge18" class="edge">
<title>/lib/panels/layers_panel.dart&#45;&gt;/lib/files/import_files.dart</title>
<path fill="none" stroke="#aabbaa" stroke-width="1.3" stroke-opacity="0.533333" d="M435.05,-450.37C455.03,-463.19 483.87,-479.03 512,-485 532.81,-489.42 874.19,-489.42 895,-485 911.53,-481.49 926.33,-470.1 937.53,-458.77"/>
<polygon fill="#aabbaa" fill-opacity="0.533333" stroke="#aabbaa" stroke-width="1.3" stroke-opacity="0.533333" points="939.84,-461.43 944.02,-451.7 934.68,-456.69 939.84,-461.43"/>
</g>
<!-- /lib/models/layers.dart -->
<g id="node10" class="node">
<title>/lib/models/layers.dart</title>
<path fill="Lavender" stroke="black" stroke-width="1.3" d="M1090.88,-450C1090.88,-450 1059.12,-450 1059.12,-450 1053.12,-450 1047.12,-444 1047.12,-438 1047.12,-438 1047.12,-426 1047.12,-426 1047.12,-420 1053.12,-414 1059.12,-414 1059.12,-414 1090.88,-414 1090.88,-414 1096.88,-414 1102.88,-420 1102.88,-426 1102.88,-426 1102.88,-438 1102.88,-438 1102.88,-444 1096.88,-450 1090.88,-450"/>
<text text-anchor="middle" x="1075" y="-426.75" font-family="Arial" font-size="15.00">layers</text>
</g>
<!-- /lib/models/layer.dart -->
<g id="node13" class="node">
<title>/lib/models/layer.dart</title>
<path fill="Lavender" stroke="black" stroke-width="1.3" d="M1091,-378C1091,-378 1061,-378 1061,-378 1055,-378 1049,-372 1049,-366 1049,-366 1049,-354 1049,-354 1049,-348 1055,-342 1061,-342 1061,-342 1091,-342 1091,-342 1097,-342 1103,-348 1103,-354 1103,-354 1103,-366 1103,-366 1103,-372 1097,-378 1091,-378"/>
<text text-anchor="middle" x="1076" y="-354.75" font-family="Arial" font-size="15.00">layer</text>
</g>
<!-- /lib/models/layers.dart&#45;&gt;/lib/models/layer.dart -->
<g id="edge23" class="edge">
<title>/lib/models/layers.dart&#45;&gt;/lib/models/layer.dart</title>
<path fill="none" stroke="#aabbaa" stroke-width="1.3" stroke-opacity="0.533333" d="M1069.33,-413.7C1068.69,-406.49 1068.57,-397.93 1068.93,-389.82"/>
<polygon fill="#aabbaa" fill-opacity="0.533333" stroke="#aabbaa" stroke-width="1.3" stroke-opacity="0.533333" points="1072.4,-390.31 1069.71,-380.07 1065.43,-389.76 1072.4,-390.31"/>
</g>
<!-- /lib/models/layers.dart&#45;&gt;/lib/models/layer.dart -->
<g id="edge24" class="edge">
<title>/lib/models/layers.dart&#45;&gt;/lib/models/layer.dart</title>
<path fill="none" stroke="#aabbaa" stroke-width="1.3" stroke-dasharray="5,2" stroke-opacity="0.533333" d="M1081.16,-413.7C1082.01,-406.49 1082.38,-397.93 1082.24,-389.82"/>
<polygon fill="#aabbaa" fill-opacity="0.533333" stroke="#aabbaa" stroke-width="1.3" stroke-opacity="0.533333" points="1085.75,-389.88 1081.75,-380.07 1078.76,-390.23 1085.75,-389.88"/>
</g>
<!-- /lib/helpers/list_helper.dart -->
<g id="node21" class="node">
<title>/lib/helpers/list_helper.dart</title>
<path fill="Lavender" stroke="black" stroke-width="1.3" d="M630.75,-68C630.75,-68 571.25,-68 571.25,-68 565.25,-68 559.25,-62 559.25,-56 559.25,-56 559.25,-44 559.25,-44 559.25,-38 565.25,-32 571.25,-32 571.25,-32 630.75,-32 630.75,-32 636.75,-32 642.75,-38 642.75,-44 642.75,-44 642.75,-56 642.75,-56 642.75,-62 636.75,-68 630.75,-68"/>
<text text-anchor="middle" x="601" y="-44.75" font-family="Arial" font-size="15.00">list_helper</text>
</g>
<!-- /lib/models/layers.dart&#45;&gt;/lib/helpers/list_helper.dart -->
<g id="edge22" class="edge">
<title>/lib/models/layers.dart&#45;&gt;/lib/helpers/list_helper.dart</title>
<path fill="none" stroke="#aabbaa" stroke-width="1.3" stroke-opacity="0.533333" d="M1103.21,-424.41C1157.01,-409.97 1269,-370.18 1269,-289 1269,-289 1269,-289 1269,-204 1269,-78.26 813.62,-55.86 654.83,-51.86"/>
<polygon fill="#aabbaa" fill-opacity="0.533333" stroke="#aabbaa" stroke-width="1.3" stroke-opacity="0.533333" points="655.09,-48.37 645.01,-51.63 654.92,-55.37 655.09,-48.37"/>
</g>
<!-- /lib/models/user_action.dart -->
<g id="node11" class="node">
<title>/lib/models/user_action.dart</title>
<path fill="Lavender" stroke="black" stroke-width="1.3" d="M1217.62,-306C1217.62,-306 1148.38,-306 1148.38,-306 1142.38,-306 1136.38,-300 1136.38,-294 1136.38,-294 1136.38,-282 1136.38,-282 1136.38,-276 1142.38,-270 1148.38,-270 1148.38,-270 1217.62,-270 1217.62,-270 1223.62,-270 1229.62,-276 1229.62,-282 1229.62,-282 1229.62,-294 1229.62,-294 1229.62,-300 1223.62,-306 1217.62,-306"/>
<text text-anchor="middle" x="1183" y="-282.75" font-family="Arial" font-size="15.00">user_action</text>
</g>
<!-- /lib/widgets/brush_style_picker.dart -->
<g id="node26" class="node">
<title>/lib/widgets/brush_style_picker.dart</title>
<path fill="Lavender" stroke="black" stroke-width="1.3" d="M843.25,-223C843.25,-223 726.75,-223 726.75,-223 720.75,-223 714.75,-217 714.75,-211 714.75,-211 714.75,-199 714.75,-199 714.75,-193 720.75,-187 726.75,-187 726.75,-187 843.25,-187 843.25,-187 849.25,-187 855.25,-193 855.25,-199 855.25,-199 855.25,-211 855.25,-211 855.25,-217 849.25,-223 843.25,-223"/>
<text text-anchor="middle" x="785" y="-199.75" font-family="Arial" font-size="15.00">brush_style_picker</text>
</g>
<!-- /lib/models/user_action.dart&#45;&gt;/lib/widgets/brush_style_picker.dart -->
<g id="edge25" class="edge">
<title>/lib/models/user_action.dart&#45;&gt;/lib/widgets/brush_style_picker.dart</title>
<path fill="none" stroke="#aabbaa" stroke-width="1.3" stroke-opacity="0.533333" d="M1139.49,-269.57C1132.7,-266.72 1125.73,-264.04 1119,-262 1034.94,-236.53 935.56,-221.92 867.13,-214.05"/>
<polygon fill="#aabbaa" fill-opacity="0.533333" stroke="#aabbaa" stroke-width="1.3" stroke-opacity="0.533333" points="867.86,-210.61 857.53,-212.97 867.07,-217.57 867.86,-210.61"/>
</g>
<!-- /lib/models/user_action.dart&#45;&gt;/lib/widgets/brush_style_picker.dart -->
<g id="edge26" class="edge">
<title>/lib/models/user_action.dart&#45;&gt;/lib/widgets/brush_style_picker.dart</title>
<path fill="none" stroke="#aabbaa" stroke-width="1.3" stroke-dasharray="5,2" stroke-opacity="0.533333" d="M1157.17,-269.57C1150.7,-266.72 1143.73,-264.04 1137,-262 1047.16,-234.78 939.82,-219.96 867.43,-212.52"/>
<polygon fill="#aabbaa" fill-opacity="0.533333" stroke="#aabbaa" stroke-width="1.3" stroke-opacity="0.533333" points="867.92,-209.05 857.63,-211.54 867.23,-216.02 867.92,-209.05"/>
</g>
<!-- /lib/models/app_model.dart&#45;&gt;/lib/models/layers.dart -->
<g id="edge27" class="edge">
<title>/lib/models/app_model.dart&#45;&gt;/lib/models/layers.dart</title>
<path fill="none" stroke="#aabbaa" stroke-width="1.3" stroke-opacity="0.533333" d="M1048.49,-306.25C1041.18,-314.04 1034.42,-323.79 1031,-334 1024.78,-352.54 1025.37,-359.27 1031,-378 1033.8,-387.31 1038.82,-396.49 1044.57,-404.53"/>
<polygon fill="#aabbaa" fill-opacity="0.533333" stroke="#aabbaa" stroke-width="1.3" stroke-opacity="0.533333" points="1041.66,-406.5 1050.62,-412.16 1047.15,-402.15 1041.66,-406.5"/>
</g>
<!-- /lib/models/app_model.dart&#45;&gt;/lib/models/layers.dart -->
<g id="edge28" class="edge">
<title>/lib/models/app_model.dart&#45;&gt;/lib/models/layers.dart</title>
<path fill="none" stroke="#aabbaa" stroke-width="1.3" stroke-dasharray="5,2" stroke-opacity="0.533333" d="M1065.06,-306.25C1059.18,-314.04 1052.42,-323.79 1049,-334 1042.78,-352.54 1043.37,-359.27 1049,-378 1051.7,-387 1056.49,-395.89 1061.34,-403.73"/>
<polygon fill="#aabbaa" fill-opacity="0.533333" stroke="#aabbaa" stroke-width="1.3" stroke-opacity="0.533333" points="1058.35,-405.56 1066.72,-412.05 1064.23,-401.76 1058.35,-405.56"/>
</g>
<!-- /lib/models/layer.dart&#45;&gt;/lib/models/user_action.dart -->
<g id="edge31" class="edge">
<title>/lib/models/layer.dart&#45;&gt;/lib/models/user_action.dart</title>
<path fill="none" stroke="#aabbaa" stroke-width="1.3" stroke-dasharray="5,2" stroke-opacity="0.533333" d="M1102.72,-341.52C1116.1,-332.76 1132.49,-322.04 1146.96,-312.58"/>
<polygon fill="#aabbaa" fill-opacity="0.533333" stroke="#aabbaa" stroke-width="1.3" stroke-opacity="0.533333" points="1148.52,-315.74 1154.97,-307.34 1144.68,-309.88 1148.52,-315.74"/>
</g>
<!-- /lib/models/layer.dart&#45;&gt;/lib/models/app_model.dart -->
<g id="edge29" class="edge">
<title>/lib/models/layer.dart&#45;&gt;/lib/models/app_model.dart</title>
<path fill="none" stroke="#aabbaa" stroke-width="1.3" stroke-opacity="0.533333" d="M1075.51,-341.7C1075.3,-334.49 1075.06,-325.93 1074.82,-317.82"/>
<polygon fill="#aabbaa" fill-opacity="0.533333" stroke="#aabbaa" stroke-width="1.3" stroke-opacity="0.533333" points="1078.33,-317.97 1074.54,-308.07 1071.33,-318.17 1078.33,-317.97"/>
</g>
<!-- /lib/models/layer.dart&#45;&gt;/lib/widgets/transparent_background.dart -->
<g id="edge30" class="edge">
<title>/lib/models/layer.dart&#45;&gt;/lib/widgets/transparent_background.dart</title>
<path fill="none" stroke="#aabbaa" stroke-width="1.3" stroke-opacity="0.533333" d="M1103.19,-359.18C1140.85,-357.79 1207.78,-348.98 1239,-306 1250.49,-290.18 1252.74,-275.91 1239,-262 1226.06,-248.9 593.92,-258.27 576,-254 554.74,-248.94 532.74,-238.69 514.98,-228.96"/>
<polygon fill="#aabbaa" fill-opacity="0.533333" stroke="#aabbaa" stroke-width="1.3" stroke-opacity="0.533333" points="517.2,-226.19 506.77,-224.3 513.74,-232.28 517.2,-226.19"/>
</g>
<!-- /lib/main.dart&#45;&gt;/lib/models/app_model.dart -->
<g id="edge33" class="edge">
<title>/lib/main.dart&#45;&gt;/lib/models/app_model.dart</title>
<path fill="none" stroke="#aabbaa" stroke-width="1.3" stroke-opacity="0.533333" d="M436.24,-650.71C571.24,-639 1162,-583.47 1162,-508 1162,-508 1162,-508 1162,-431 1162,-385.32 1154.04,-371.53 1128,-334 1122.81,-326.53 1116.07,-319.59 1109.12,-313.51"/>
<polygon fill="#aabbaa" fill-opacity="0.533333" stroke="#aabbaa" stroke-width="1.3" stroke-opacity="0.533333" points="1111.78,-311.17 1101.82,-307.54 1107.34,-316.58 1111.78,-311.17"/>
</g>
<!-- /lib/main_screen.dart -->
<g id="node20" class="node">
<title>/lib/main_screen.dart</title>
<path fill="Lavender" stroke="black" stroke-width="1.3" d="M447.75,-600C447.75,-600 370.25,-600 370.25,-600 364.25,-600 358.25,-594 358.25,-588 358.25,-588 358.25,-576 358.25,-576 358.25,-570 364.25,-564 370.25,-564 370.25,-564 447.75,-564 447.75,-564 453.75,-564 459.75,-570 459.75,-576 459.75,-576 459.75,-588 459.75,-588 459.75,-594 453.75,-600 447.75,-600"/>
<text text-anchor="middle" x="409" y="-576.75" font-family="Arial" font-size="15.00">main_screen</text>
</g>
<!-- /lib/main.dart&#45;&gt;/lib/main_screen.dart -->
<g id="edge32" class="edge">
<title>/lib/main.dart&#45;&gt;/lib/main_screen.dart</title>
<path fill="none" stroke="#aabbaa" stroke-width="1.3" stroke-opacity="0.533333" d="M409,-635.7C409,-628.49 409,-619.93 409,-611.82"/>
<polygon fill="#aabbaa" fill-opacity="0.533333" stroke="#aabbaa" stroke-width="1.3" stroke-opacity="0.533333" points="412.5,-612.07 409,-602.07 405.5,-612.07 412.5,-612.07"/>
</g>
<!-- /lib/files/file_jpeg.dart -->
<g id="node15" class="node">
<title>/lib/files/file_jpeg.dart</title>
<path fill="Lavender" stroke="black" stroke-width="1.3" d="M715.38,-378C715.38,-378 668.62,-378 668.62,-378 662.62,-378 656.62,-372 656.62,-366 656.62,-366 656.62,-354 656.62,-354 656.62,-348 662.62,-342 668.62,-342 668.62,-342 715.38,-342 715.38,-342 721.38,-342 727.38,-348 727.38,-354 727.38,-354 727.38,-366 727.38,-366 727.38,-372 721.38,-378 715.38,-378"/>
<text text-anchor="middle" x="692" y="-354.75" font-family="Arial" font-size="15.00">file_jpeg</text>
</g>
<!-- /lib/files/export_download_web.dart -->
<g id="node16" class="node">
<title>/lib/files/export_download_web.dart</title>
<path fill="Lavender" stroke="black" stroke-width="1.3" d="M667.25,-450C667.25,-450 526.75,-450 526.75,-450 520.75,-450 514.75,-444 514.75,-438 514.75,-438 514.75,-426 514.75,-426 514.75,-420 520.75,-414 526.75,-414 526.75,-414 667.25,-414 667.25,-414 673.25,-414 679.25,-420 679.25,-426 679.25,-426 679.25,-438 679.25,-438 679.25,-444 673.25,-450 667.25,-450"/>
<text text-anchor="middle" x="597" y="-426.75" font-family="Arial" font-size="15.00">export_download_web</text>
</g>
<!-- /lib/files/export_download_web.dart&#45;&gt;/lib/panels/share_panel.dart -->
<g id="edge37" class="edge">
<title>/lib/files/export_download_web.dart&#45;&gt;/lib/panels/share_panel.dart</title>
<path fill="none" stroke="#aabbaa" stroke-width="1.3" stroke-opacity="0.533333" d="M550.29,-413.52C525.21,-404.13 494.07,-392.47 467.51,-382.53"/>
<polygon fill="#aabbaa" fill-opacity="0.533333" stroke="#aabbaa" stroke-width="1.3" stroke-opacity="0.533333" points="468.87,-379.3 458.28,-379.07 466.42,-385.86 468.87,-379.3"/>
</g>
<!-- /lib/files/export_download_web.dart&#45;&gt;/lib/models/app_model.dart -->
<g id="edge36" class="edge">
<title>/lib/files/export_download_web.dart&#45;&gt;/lib/models/app_model.dart</title>
<path fill="none" stroke="#aabbaa" stroke-width="1.3" stroke-opacity="0.533333" d="M679.32,-415.52C682.25,-415 685.15,-414.49 688,-414 788.66,-396.62 826.07,-428.26 915,-378 937.24,-365.43 931.09,-348.69 952,-334 971.57,-320.25 995.84,-310.17 1017.57,-303.08"/>
<polygon fill="#aabbaa" fill-opacity="0.533333" stroke="#aabbaa" stroke-width="1.3" stroke-opacity="0.533333" points="1018.6,-306.43 1027.11,-300.13 1016.53,-299.74 1018.6,-306.43"/>
</g>
<!-- /lib/files/export_download_web.dart&#45;&gt;/lib/files/file_jpeg.dart -->
<g id="edge34" class="edge">
<title>/lib/files/export_download_web.dart&#45;&gt;/lib/files/file_jpeg.dart</title>
<path fill="none" stroke="#aabbaa" stroke-width="1.3" stroke-opacity="0.533333" d="M620.48,-413.7C632.13,-405.11 646.39,-394.61 659.11,-385.24"/>
<polygon fill="#aabbaa" fill-opacity="0.533333" stroke="#aabbaa" stroke-width="1.3" stroke-opacity="0.533333" points="660.9,-388.26 666.87,-379.51 656.75,-382.63 660.9,-388.26"/>
</g>
<!-- /lib/files/file_ora.dart -->
<g id="node17" class="node">
<title>/lib/files/file_ora.dart</title>
<path fill="Lavender" stroke="black" stroke-width="1.3" d="M894.38,-378C894.38,-378 853.62,-378 853.62,-378 847.62,-378 841.62,-372 841.62,-366 841.62,-366 841.62,-354 841.62,-354 841.62,-348 847.62,-342 853.62,-342 853.62,-342 894.38,-342 894.38,-342 900.38,-342 906.38,-348 906.38,-354 906.38,-354 906.38,-366 906.38,-366 906.38,-372 900.38,-378 894.38,-378"/>
<text text-anchor="middle" x="874" y="-354.75" font-family="Arial" font-size="15.00">file_ora</text>
</g>
<!-- /lib/files/export_download_web.dart&#45;&gt;/lib/files/file_ora.dart -->
<g id="edge35" class="edge">
<title>/lib/files/export_download_web.dart&#45;&gt;/lib/files/file_ora.dart</title>
<path fill="none" stroke="#aabbaa" stroke-width="1.3" stroke-opacity="0.533333" d="M666.18,-413.52C717.41,-400.57 785.69,-383.32 829.75,-372.18"/>
<polygon fill="#aabbaa" fill-opacity="0.533333" stroke="#aabbaa" stroke-width="1.3" stroke-opacity="0.533333" points="830.48,-375.61 839.32,-369.76 828.77,-368.82 830.48,-375.61"/>
</g>
<!-- /lib/files/file_ora.dart&#45;&gt;/lib/models/app_model.dart -->
<g id="edge39" class="edge">
<title>/lib/files/file_ora.dart&#45;&gt;/lib/models/app_model.dart</title>
<path fill="none" stroke="#aabbaa" stroke-width="1.3" stroke-opacity="0.533333" d="M906.8,-346.76C917.95,-342.65 930.5,-338.07 942,-334 966.81,-325.21 994.35,-315.77 1017.83,-307.82"/>
<polygon fill="#aabbaa" fill-opacity="0.533333" stroke="#aabbaa" stroke-width="1.3" stroke-opacity="0.533333" points="1018.79,-311.19 1027.14,-304.67 1016.54,-304.56 1018.79,-311.19"/>
</g>
<!-- /lib/files/file_ora.dart&#45;&gt;/lib/helpers/list_helper.dart -->
<g id="edge38" class="edge">
<title>/lib/files/file_ora.dart&#45;&gt;/lib/helpers/list_helper.dart</title>
<path fill="none" stroke="#aabbaa" stroke-width="1.3" stroke-opacity="0.533333" d="M878.76,-341.63C887.07,-307.34 900.36,-229.86 867,-179 819.2,-106.13 717.54,-73.59 654.66,-59.96"/>
<polygon fill="#aabbaa" fill-opacity="0.533333" stroke="#aabbaa" stroke-width="1.3" stroke-opacity="0.533333" points="655.44,-56.54 644.94,-57.95 654.03,-63.4 655.44,-56.54"/>
</g>
<!-- /lib/files/export_download_non_web.dart -->
<g id="node18" class="node">
<title>/lib/files/export_download_non_web.dart</title>
<path fill="Lavender" stroke="black" stroke-width="1.3" d="M882.75,-450C882.75,-450 709.25,-450 709.25,-450 703.25,-450 697.25,-444 697.25,-438 697.25,-438 697.25,-426 697.25,-426 697.25,-420 703.25,-414 709.25,-414 709.25,-414 882.75,-414 882.75,-414 888.75,-414 894.75,-420 894.75,-426 894.75,-426 894.75,-438 894.75,-438 894.75,-444 888.75,-450 882.75,-450"/>
<text text-anchor="middle" x="796" y="-426.75" font-family="Arial" font-size="15.00">export_download_non_web</text>
</g>
<!-- /lib/files/export_download_non_web.dart&#45;&gt;/lib/panels/share_panel.dart -->
<g id="edge43" class="edge">
<title>/lib/files/export_download_non_web.dart&#45;&gt;/lib/panels/share_panel.dart</title>
<path fill="none" stroke="#aabbaa" stroke-width="1.3" stroke-opacity="0.533333" d="M699.32,-413.56C642.21,-403.24 568.48,-389.91 503,-378 492.56,-376.1 481.47,-374.08 470.72,-372.12"/>
<polygon fill="#aabbaa" fill-opacity="0.533333" stroke="#aabbaa" stroke-width="1.3" stroke-opacity="0.533333" points="471.63,-368.72 461.16,-370.37 470.37,-375.61 471.63,-368.72"/>
</g>
<!-- /lib/files/export_download_non_web.dart&#45;&gt;/lib/models/app_model.dart -->
<g id="edge42" class="edge">
<title>/lib/files/export_download_non_web.dart&#45;&gt;/lib/models/app_model.dart</title>
<path fill="none" stroke="#aabbaa" stroke-width="1.3" stroke-opacity="0.533333" d="M870.24,-413.54C897.24,-405.24 927.19,-393.63 952,-378 975.13,-363.42 973.35,-350.71 995,-334 1005.24,-326.1 1017.01,-318.65 1028.29,-312.16"/>
<polygon fill="#aabbaa" fill-opacity="0.533333" stroke="#aabbaa" stroke-width="1.3" stroke-opacity="0.533333" points="1029.71,-315.38 1036.74,-307.46 1026.3,-309.27 1029.71,-315.38"/>
</g>
<!-- /lib/files/export_download_non_web.dart&#45;&gt;/lib/files/file_jpeg.dart -->
<g id="edge40" class="edge">
<title>/lib/files/export_download_non_web.dart&#45;&gt;/lib/files/file_jpeg.dart</title>
<path fill="none" stroke="#aabbaa" stroke-width="1.3" stroke-opacity="0.533333" d="M770.02,-413.52C757.15,-404.85 741.4,-394.25 727.43,-384.85"/>
<polygon fill="#aabbaa" fill-opacity="0.533333" stroke="#aabbaa" stroke-width="1.3" stroke-opacity="0.533333" points="729.53,-382.04 719.28,-379.36 725.62,-387.85 729.53,-382.04"/>
</g>
<!-- /lib/files/export_download_non_web.dart&#45;&gt;/lib/files/file_ora.dart -->
<g id="edge41" class="edge">
<title>/lib/files/export_download_non_web.dart&#45;&gt;/lib/files/file_ora.dart</title>
<path fill="none" stroke="#aabbaa" stroke-width="1.3" stroke-opacity="0.533333" d="M815.28,-413.7C824.56,-405.37 835.87,-395.22 846.07,-386.07"/>
<polygon fill="#aabbaa" fill-opacity="0.533333" stroke="#aabbaa" stroke-width="1.3" stroke-opacity="0.533333" points="848.1,-388.95 853.21,-379.66 843.43,-383.74 848.1,-388.95"/>
</g>
<!-- /lib/files/import_files.dart&#45;&gt;/lib/models/app_model.dart -->
<g id="edge45" class="edge">
<title>/lib/files/import_files.dart&#45;&gt;/lib/models/app_model.dart</title>
<path fill="none" stroke="#aabbaa" stroke-width="1.3" stroke-opacity="0.533333" d="M971.13,-413.76C985.21,-394.03 1009.38,-360.97 1032,-334 1037.35,-327.62 1043.34,-320.95 1049.08,-314.77"/>
<polygon fill="#aabbaa" fill-opacity="0.533333" stroke="#aabbaa" stroke-width="1.3" stroke-opacity="0.533333" points="1051.55,-317.25 1055.86,-307.57 1046.45,-312.45 1051.55,-317.25"/>
</g>
<!-- /lib/files/import_files.dart&#45;&gt;/lib/files/file_ora.dart -->
<g id="edge44" class="edge">
<title>/lib/files/import_files.dart&#45;&gt;/lib/files/file_ora.dart</title>
<path fill="none" stroke="#aabbaa" stroke-width="1.3" stroke-opacity="0.533333" d="M937.99,-413.7C927.77,-405.28 915.31,-395.02 904.1,-385.79"/>
<polygon fill="#aabbaa" fill-opacity="0.533333" stroke="#aabbaa" stroke-width="1.3" stroke-opacity="0.533333" points="906.53,-383.25 896.58,-379.6 902.08,-388.66 906.53,-383.25"/>
</g>
<!-- /lib/main_screen.dart&#45;&gt;/lib/panels/canvas_panel.dart -->
<g id="edge46" class="edge">
<title>/lib/main_screen.dart&#45;&gt;/lib/panels/canvas_panel.dart</title>
<path fill="none" stroke="#aabbaa" stroke-width="1.3" stroke-opacity="0.533333" d="M357.96,-580.7C288.64,-577.22 166.74,-559.5 109,-481 70.28,-428.37 64.39,-383.53 107,-334 136.33,-299.9 260.67,-291.31 339.18,-289.34"/>
<polygon fill="#aabbaa" fill-opacity="0.533333" stroke="#aabbaa" stroke-width="1.3" stroke-opacity="0.533333" points="339,-292.85 348.92,-289.13 338.85,-285.85 339,-292.85"/>
</g>
<!-- /lib/main_screen.dart&#45;&gt;/lib/panels/side_panel.dart -->
<g id="edge47" class="edge">
<title>/lib/main_screen.dart&#45;&gt;/lib/panels/side_panel.dart</title>
<path fill="none" stroke="#aabbaa" stroke-width="1.3" stroke-opacity="0.533333" d="M409,-563.7C409,-555.76 409,-546.12 409,-537.11"/>
<polygon fill="#aabbaa" fill-opacity="0.533333" stroke="#aabbaa" stroke-width="1.3" stroke-opacity="0.533333" points="412.5,-537.4 409,-527.4 405.5,-537.4 412.5,-537.4"/>
</g>
<!-- /lib/main_screen.dart&#45;&gt;/lib/models/app_model.dart -->
<g id="edge48" class="edge">
<title>/lib/main_screen.dart&#45;&gt;/lib/models/app_model.dart</title>
<path fill="none" stroke="#aabbaa" stroke-width="1.3" stroke-opacity="0.533333" d="M460.13,-577.67C616.49,-566.98 1080.3,-531.24 1124,-481 1129.04,-475.2 1124.61,-339.82 1122,-334 1118.74,-326.72 1113.68,-320.06 1108.05,-314.22"/>
<polygon fill="#aabbaa" fill-opacity="0.533333" stroke="#aabbaa" stroke-width="1.3" stroke-opacity="0.533333" points="1110.67,-311.89 1100.97,-307.63 1105.9,-317.01 1110.67,-311.89"/>
</g>
<!-- /lib/helpers/color_helper.dart -->
<g id="node22" class="node">
<title>/lib/helpers/color_helper.dart</title>
<path fill="Lavender" stroke="black" stroke-width="1.3" d="M634.88,-140C634.88,-140 561.12,-140 561.12,-140 555.12,-140 549.12,-134 549.12,-128 549.12,-128 549.12,-116 549.12,-116 549.12,-110 555.12,-104 561.12,-104 561.12,-104 634.88,-104 634.88,-104 640.88,-104 646.88,-110 646.88,-116 646.88,-116 646.88,-128 646.88,-128 646.88,-134 640.88,-140 634.88,-140"/>
<text text-anchor="middle" x="598" y="-116.75" font-family="Arial" font-size="15.00">color_helper</text>
</g>
<!-- /lib/helpers/color_helper.dart&#45;&gt;/lib/helpers/list_helper.dart -->
<g id="edge49" class="edge">
<title>/lib/helpers/color_helper.dart&#45;&gt;/lib/helpers/list_helper.dart</title>
<path fill="none" stroke="#aabbaa" stroke-width="1.3" stroke-opacity="0.533333" d="M598.74,-103.7C599.05,-96.49 599.42,-87.93 599.76,-79.82"/>
<polygon fill="#aabbaa" fill-opacity="0.533333" stroke="#aabbaa" stroke-width="1.3" stroke-opacity="0.533333" points="603.25,-80.21 600.18,-70.07 596.26,-79.91 603.25,-80.21"/>
</g>
<!-- /lib/widgets/brush_style_picker.dart&#45;&gt;/lib/models/app_model.dart -->
<g id="edge50" class="edge">
<title>/lib/widgets/brush_style_picker.dart&#45;&gt;/lib/models/app_model.dart</title>
<path fill="none" stroke="#aabbaa" stroke-width="1.3" stroke-opacity="0.533333" d="M847.26,-223.45C897.84,-237.63 968.56,-257.45 1017.51,-271.17"/>
<polygon fill="#aabbaa" fill-opacity="0.533333" stroke="#aabbaa" stroke-width="1.3" stroke-opacity="0.533333" points="1016.38,-274.48 1026.95,-273.81 1018.26,-267.74 1016.38,-274.48"/>
</g>
<!-- /lib/widgets/color_picker.dart&#45;&gt;/lib/helpers/list_helper.dart -->
<g id="edge52" class="edge">
<title>/lib/widgets/color_picker.dart&#45;&gt;/lib/helpers/list_helper.dart</title>
<path fill="none" stroke="#aabbaa" stroke-width="1.3" stroke-opacity="0.533333" d="M353.73,-186.6C404.18,-158.93 502.71,-104.9 558.97,-74.05"/>
<polygon fill="#aabbaa" fill-opacity="0.533333" stroke="#aabbaa" stroke-width="1.3" stroke-opacity="0.533333" points="560.49,-77.21 567.57,-69.33 557.12,-71.07 560.49,-77.21"/>
</g>
<!-- /lib/widgets/color_picker.dart&#45;&gt;/lib/helpers/color_helper.dart -->
<g id="edge51" class="edge">
<title>/lib/widgets/color_picker.dart&#45;&gt;/lib/helpers/color_helper.dart</title>
<path fill="none" stroke="#aabbaa" stroke-width="1.3" stroke-opacity="0.533333" d="M358.62,-186.58C365.61,-183.72 372.94,-181.04 380,-179 402.04,-172.63 408.6,-175.96 431,-171 466.68,-163.11 505.98,-151.94 537.49,-142.36"/>
<polygon fill="#aabbaa" fill-opacity="0.533333" stroke="#aabbaa" stroke-width="1.3" stroke-opacity="0.533333" points="538.31,-145.77 546.84,-139.49 536.26,-139.08 538.31,-145.77"/>
</g>
</g>
</svg>
