<?xml version="1.0" encoding="UTF-8" standalone="no"?>
<!DOCTYPE svg PUBLIC "-//W3C//DTD SVG 1.1//EN"
 "http://www.w3.org/Graphics/SVG/1.1/DTD/svg11.dtd">
<!-- Generated by graphviz version 12.2.1 (20241206.2353)
 -->
<!-- Pages: 1 -->
<svg width="418pt" height="603pt"
 viewBox="0.00 0.00 418.26 603.00" xmlns="http://www.w3.org/2000/svg" xmlns:xlink="http://www.w3.org/1999/xlink">
<g id="graph0" class="graph" transform="scale(1 1) rotate(0) translate(4 599)">
<polygon fill="white" stroke="none" points="-4,4 -4,-599 414.26,-599 414.26,4 -4,4"/>
<g id="clust1" class="cluster">
<title>cluster~</title>
<path fill="none" stroke="lightgray" stroke-width="2.6" d="M32.26,-8C32.26,-8 390.26,-8 390.26,-8 396.26,-8 402.26,-14 402.26,-20 402.26,-20 402.26,-575 402.26,-575 402.26,-581 396.26,-587 390.26,-587 390.26,-587 32.26,-587 32.26,-587 26.26,-587 20.26,-581 20.26,-575 20.26,-575 20.26,-20 20.26,-20 20.26,-14 26.26,-8 32.26,-8"/>
<text text-anchor="middle" x="211.26" y="-570.65" font-family="Arial Black" font-size="13.00">fpaint</text>
</g>
<g id="clust2" class="cluster">
<title>cluster~/test</title>
<path fill="none" stroke="lightgray" stroke-width="2.6" d="M40.26,-481C40.26,-481 272.26,-481 272.26,-481 278.26,-481 284.26,-487 284.26,-493 284.26,-493 284.26,-544 284.26,-544 284.26,-550 278.26,-556 272.26,-556 272.26,-556 40.26,-556 40.26,-556 34.26,-556 28.26,-550 28.26,-544 28.26,-544 28.26,-493 28.26,-493 28.26,-487 34.26,-481 40.26,-481"/>
<text text-anchor="middle" x="156.26" y="-539.65" font-family="Arial Black" font-size="13.00">test</text>
</g>
<g id="clust3" class="cluster">
<title>cluster~/lib</title>
<path fill="none" stroke="lightgray" stroke-width="2.6" d="M52.26,-16C52.26,-16 382.26,-16 382.26,-16 388.26,-16 394.26,-22 394.26,-28 394.26,-28 394.26,-461 394.26,-461 394.26,-467 388.26,-473 382.26,-473 382.26,-473 52.26,-473 52.26,-473 46.26,-473 40.26,-467 40.26,-461 40.26,-461 40.26,-28 40.26,-28 40.26,-22 46.26,-16 52.26,-16"/>
<text text-anchor="middle" x="217.26" y="-456.65" font-family="Arial Black" font-size="13.00">lib</text>
</g>
<g id="clust4" class="cluster">
<title>cluster~/lib/panels</title>
<path fill="none" stroke="lightgray" stroke-width="2.6" d="M172.26,-251C172.26,-251 374.26,-251 374.26,-251 380.26,-251 386.26,-257 386.26,-263 386.26,-263 386.26,-314 386.26,-314 386.26,-320 380.26,-326 374.26,-326 374.26,-326 172.26,-326 172.26,-326 166.26,-326 160.26,-320 160.26,-314 160.26,-314 160.26,-263 160.26,-263 160.26,-257 166.26,-251 172.26,-251"/>
<text text-anchor="middle" x="273.26" y="-309.65" font-family="Arial Black" font-size="13.00">panels</text>
</g>
<g id="clust5" class="cluster">
<title>cluster~/lib/models</title>
<path fill="none" stroke="lightgray" stroke-width="2.6" d="M67.26,-24C67.26,-24 157.26,-24 157.26,-24 163.26,-24 169.26,-30 169.26,-36 169.26,-36 169.26,-231 169.26,-231 169.26,-237 163.26,-243 157.26,-243 157.26,-243 67.26,-243 67.26,-243 61.26,-243 55.26,-237 55.26,-231 55.26,-231 55.26,-36 55.26,-36 55.26,-30 61.26,-24 67.26,-24"/>
<text text-anchor="middle" x="112.26" y="-226.65" font-family="Arial Black" font-size="13.00">models</text>
</g>
<!-- /test/paint_model_test.dart -->
<g id="node1" class="node">
<title>/test/paint_model_test.dart</title>
<path fill="Lavender" stroke="black" stroke-width="1.3" d="M154.26,-525C154.26,-525 48.26,-525 48.26,-525 42.26,-525 36.26,-519 36.26,-513 36.26,-513 36.26,-501 36.26,-501 36.26,-495 42.26,-489 48.26,-489 48.26,-489 154.26,-489 154.26,-489 160.26,-489 166.26,-495 166.26,-501 166.26,-501 166.26,-513 166.26,-513 166.26,-519 160.26,-525 154.26,-525"/>
<text text-anchor="middle" x="101.26" y="-501.75" font-family="Arial" font-size="15.00">paint_model_test</text>
</g>
<!-- /lib/models/paint_model.dart -->
<g id="node7" class="node">
<title>/lib/models/paint_model.dart</title>
<path fill="Lavender" stroke="black" stroke-width="1.3" d="M148.76,-212C148.76,-212 75.76,-212 75.76,-212 69.76,-212 63.76,-206 63.76,-200 63.76,-200 63.76,-188 63.76,-188 63.76,-182 69.76,-176 75.76,-176 75.76,-176 148.76,-176 148.76,-176 154.76,-176 160.76,-182 160.76,-188 160.76,-188 160.76,-200 160.76,-200 160.76,-206 154.76,-212 148.76,-212"/>
<text text-anchor="middle" x="112.26" y="-188.75" font-family="Arial" font-size="15.00">paint_model</text>
</g>
<!-- /test/paint_model_test.dart&#45;&gt;/lib/models/paint_model.dart -->
<g id="edge1" class="edge">
<title>/test/paint_model_test.dart&#45;&gt;/lib/models/paint_model.dart</title>
<path fill="none" stroke="#aabbaa" stroke-width="1.3" stroke-opacity="0.533333" d="M51.65,-488.54C45.54,-484.37 40.1,-479.26 36.26,-473 -15.35,-388.91 -8.23,-339.06 36.26,-251 42.79,-238.09 53.85,-227.42 65.55,-218.99"/>
<polygon fill="#aabbaa" fill-opacity="0.533333" stroke="#aabbaa" stroke-width="1.3" stroke-opacity="0.533333" points="67.4,-221.96 73.79,-213.51 63.53,-216.13 67.4,-221.96"/>
</g>
<!-- /test/widget_test.dart -->
<g id="node2" class="node">
<title>/test/widget_test.dart</title>
<path fill="Lavender" stroke="black" stroke-width="1.3" d="M264.14,-525C264.14,-525 196.39,-525 196.39,-525 190.39,-525 184.39,-519 184.39,-513 184.39,-513 184.39,-501 184.39,-501 184.39,-495 190.39,-489 196.39,-489 196.39,-489 264.14,-489 264.14,-489 270.14,-489 276.14,-495 276.14,-501 276.14,-501 276.14,-513 276.14,-513 276.14,-519 270.14,-525 264.14,-525"/>
<text text-anchor="middle" x="230.26" y="-501.75" font-family="Arial" font-size="15.00">widget_test</text>
</g>
<!-- /lib/main.dart -->
<g id="node8" class="node">
<title>/lib/main.dart</title>
<path fill="Lavender" stroke="black" stroke-width="1.3" d="M184.26,-442C184.26,-442 154.26,-442 154.26,-442 148.26,-442 142.26,-436 142.26,-430 142.26,-430 142.26,-418 142.26,-418 142.26,-412 148.26,-406 154.26,-406 154.26,-406 184.26,-406 184.26,-406 190.26,-406 196.26,-412 196.26,-418 196.26,-418 196.26,-430 196.26,-430 196.26,-436 190.26,-442 184.26,-442"/>
<text text-anchor="middle" x="169.26" y="-418.75" font-family="Arial" font-size="15.00">main</text>
</g>
<!-- /test/widget_test.dart&#45;&gt;/lib/main.dart -->
<g id="edge2" class="edge">
<title>/test/widget_test.dart&#45;&gt;/lib/main.dart</title>
<path fill="none" stroke="#aabbaa" stroke-width="1.3" stroke-opacity="0.533333" d="M217.33,-488.82C209.22,-478.05 198.59,-463.94 189.39,-451.72"/>
<polygon fill="#aabbaa" fill-opacity="0.533333" stroke="#aabbaa" stroke-width="1.3" stroke-opacity="0.533333" points="192.39,-449.89 183.58,-444 186.8,-454.1 192.39,-449.89"/>
</g>
<!-- /lib/panels/tools_panel.dart -->
<g id="node3" class="node">
<title>/lib/panels/tools_panel.dart</title>
<path fill="Lavender" stroke="black" stroke-width="1.3" d="M366.14,-295C366.14,-295 298.39,-295 298.39,-295 292.39,-295 286.39,-289 286.39,-283 286.39,-283 286.39,-271 286.39,-271 286.39,-265 292.39,-259 298.39,-259 298.39,-259 366.14,-259 366.14,-259 372.14,-259 378.14,-265 378.14,-271 378.14,-271 378.14,-283 378.14,-283 378.14,-289 372.14,-295 366.14,-295"/>
<text text-anchor="middle" x="332.26" y="-271.75" font-family="Arial" font-size="15.00">tools_panel</text>
</g>
<!-- /lib/models/shapes.dart -->
<g id="node6" class="node">
<title>/lib/models/shapes.dart</title>
<path fill="Lavender" stroke="black" stroke-width="1.3" d="M132.26,-68C132.26,-68 92.26,-68 92.26,-68 86.26,-68 80.26,-62 80.26,-56 80.26,-56 80.26,-44 80.26,-44 80.26,-38 86.26,-32 92.26,-32 92.26,-32 132.26,-32 132.26,-32 138.26,-32 144.26,-38 144.26,-44 144.26,-44 144.26,-56 144.26,-56 144.26,-62 138.26,-68 132.26,-68"/>
<text text-anchor="middle" x="112.26" y="-44.75" font-family="Arial" font-size="15.00">shapes</text>
</g>
<!-- /lib/panels/tools_panel.dart&#45;&gt;/lib/models/shapes.dart -->
<g id="edge3" class="edge">
<title>/lib/panels/tools_panel.dart&#45;&gt;/lib/models/shapes.dart</title>
<path fill="none" stroke="#aabbaa" stroke-width="1.3" stroke-opacity="0.533333" d="M315.37,-258.72C276.9,-219.37 182.61,-122.95 137.34,-76.64"/>
<polygon fill="#aabbaa" fill-opacity="0.533333" stroke="#aabbaa" stroke-width="1.3" stroke-opacity="0.533333" points="140.09,-74.45 130.6,-69.75 135.08,-79.34 140.09,-74.45"/>
</g>
<!-- /lib/panels/layers_panel.dart -->
<g id="node4" class="node">
<title>/lib/panels/layers_panel.dart</title>
<path fill="Lavender" stroke="black" stroke-width="1.3" d="M256.26,-295C256.26,-295 180.26,-295 180.26,-295 174.26,-295 168.26,-289 168.26,-283 168.26,-283 168.26,-271 168.26,-271 168.26,-265 174.26,-259 180.26,-259 180.26,-259 256.26,-259 256.26,-259 262.26,-259 268.26,-265 268.26,-271 268.26,-271 268.26,-283 268.26,-283 268.26,-289 262.26,-295 256.26,-295"/>
<text text-anchor="middle" x="218.26" y="-271.75" font-family="Arial" font-size="15.00">layers_panel</text>
</g>
<!-- /lib/panels/layers_panel.dart&#45;&gt;/lib/models/paint_model.dart -->
<g id="edge4" class="edge">
<title>/lib/panels/layers_panel.dart&#45;&gt;/lib/models/paint_model.dart</title>
<path fill="none" stroke="#aabbaa" stroke-width="1.3" stroke-opacity="0.533333" d="M195.53,-258.62C180.57,-247.2 160.79,-232.08 144.26,-219.45"/>
<polygon fill="#aabbaa" fill-opacity="0.533333" stroke="#aabbaa" stroke-width="1.3" stroke-opacity="0.533333" points="146.6,-216.83 136.53,-213.54 142.35,-222.4 146.6,-216.83"/>
</g>
<!-- /lib/models/layers.dart -->
<g id="node5" class="node">
<title>/lib/models/layers.dart</title>
<path fill="Lavender" stroke="black" stroke-width="1.3" d="M128.14,-140C128.14,-140 96.39,-140 96.39,-140 90.39,-140 84.39,-134 84.39,-128 84.39,-128 84.39,-116 84.39,-116 84.39,-110 90.39,-104 96.39,-104 96.39,-104 128.14,-104 128.14,-104 134.14,-104 140.14,-110 140.14,-116 140.14,-116 140.14,-128 140.14,-128 140.14,-134 134.14,-140 128.14,-140"/>
<text text-anchor="middle" x="112.26" y="-116.75" font-family="Arial" font-size="15.00">layers</text>
</g>
<!-- /lib/models/layers.dart&#45;&gt;/lib/models/shapes.dart -->
<g id="edge5" class="edge">
<title>/lib/models/layers.dart&#45;&gt;/lib/models/shapes.dart</title>
<path fill="none" stroke="#aabbaa" stroke-width="1.3" stroke-opacity="0.533333" d="M106.35,-103.7C105.61,-96.49 105.36,-87.93 105.61,-79.82"/>
<polygon fill="#aabbaa" fill-opacity="0.533333" stroke="#aabbaa" stroke-width="1.3" stroke-opacity="0.533333" points="109.09,-80.27 106.24,-70.07 102.1,-79.82 109.09,-80.27"/>
</g>
<!-- /lib/models/layers.dart&#45;&gt;/lib/models/shapes.dart -->
<g id="edge6" class="edge">
<title>/lib/models/layers.dart&#45;&gt;/lib/models/shapes.dart</title>
<path fill="none" stroke="#aabbaa" stroke-width="1.3" stroke-dasharray="5,2" stroke-opacity="0.533333" d="M118.18,-103.7C118.92,-96.49 119.17,-87.93 118.92,-79.82"/>
<polygon fill="#aabbaa" fill-opacity="0.533333" stroke="#aabbaa" stroke-width="1.3" stroke-opacity="0.533333" points="122.43,-79.82 118.29,-70.07 115.44,-80.27 122.43,-79.82"/>
</g>
<!-- /lib/models/paint_model.dart&#45;&gt;/lib/models/layers.dart -->
<g id="edge7" class="edge">
<title>/lib/models/paint_model.dart&#45;&gt;/lib/models/layers.dart</title>
<path fill="none" stroke="#aabbaa" stroke-width="1.3" stroke-opacity="0.533333" d="M106.35,-175.7C105.61,-168.49 105.36,-159.93 105.61,-151.82"/>
<polygon fill="#aabbaa" fill-opacity="0.533333" stroke="#aabbaa" stroke-width="1.3" stroke-opacity="0.533333" points="109.09,-152.27 106.24,-142.07 102.1,-151.82 109.09,-152.27"/>
</g>
<!-- /lib/models/paint_model.dart&#45;&gt;/lib/models/layers.dart -->
<g id="edge8" class="edge">
<title>/lib/models/paint_model.dart&#45;&gt;/lib/models/layers.dart</title>
<path fill="none" stroke="#aabbaa" stroke-width="1.3" stroke-dasharray="5,2" stroke-opacity="0.533333" d="M118.18,-175.7C118.92,-168.49 119.17,-159.93 118.92,-151.82"/>
<polygon fill="#aabbaa" fill-opacity="0.533333" stroke="#aabbaa" stroke-width="1.3" stroke-opacity="0.533333" points="122.43,-151.82 118.29,-142.07 115.44,-152.27 122.43,-151.82"/>
</g>
<!-- /lib/main.dart&#45;&gt;/lib/models/paint_model.dart -->
<g id="edge10" class="edge">
<title>/lib/main.dart&#45;&gt;/lib/models/paint_model.dart</title>
<path fill="none" stroke="#aabbaa" stroke-width="1.3" stroke-opacity="0.533333" d="M141.88,-407.51C116.05,-391.11 79.16,-362.54 64.26,-326 51.69,-295.13 52.7,-282.26 64.26,-251 68.35,-239.95 75.71,-229.6 83.45,-220.89"/>
<polygon fill="#aabbaa" fill-opacity="0.533333" stroke="#aabbaa" stroke-width="1.3" stroke-opacity="0.533333" points="85.79,-223.5 90.17,-213.86 80.73,-218.66 85.79,-223.5"/>
</g>
<!-- /lib/home_screen.dart -->
<g id="node10" class="node">
<title>/lib/home_screen.dart</title>
<path fill="Lavender" stroke="black" stroke-width="1.3" d="M210.64,-370C210.64,-370 127.89,-370 127.89,-370 121.89,-370 115.89,-364 115.89,-358 115.89,-358 115.89,-346 115.89,-346 115.89,-340 121.89,-334 127.89,-334 127.89,-334 210.64,-334 210.64,-334 216.64,-334 222.64,-340 222.64,-346 222.64,-346 222.64,-358 222.64,-358 222.64,-364 216.64,-370 210.64,-370"/>
<text text-anchor="middle" x="169.26" y="-346.75" font-family="Arial" font-size="15.00">home_screen</text>
</g>
<!-- /lib/main.dart&#45;&gt;/lib/home_screen.dart -->
<g id="edge9" class="edge">
<title>/lib/main.dart&#45;&gt;/lib/home_screen.dart</title>
<path fill="none" stroke="#aabbaa" stroke-width="1.3" stroke-opacity="0.533333" d="M169.26,-405.7C169.26,-398.49 169.26,-389.93 169.26,-381.82"/>
<polygon fill="#aabbaa" fill-opacity="0.533333" stroke="#aabbaa" stroke-width="1.3" stroke-opacity="0.533333" points="172.76,-382.07 169.26,-372.07 165.76,-382.07 172.76,-382.07"/>
</g>
<!-- /lib/painter.dart -->
<g id="node9" class="node">
<title>/lib/painter.dart</title>
<path fill="Lavender" stroke="black" stroke-width="1.3" d="M138.14,-295C138.14,-295 100.39,-295 100.39,-295 94.39,-295 88.39,-289 88.39,-283 88.39,-283 88.39,-271 88.39,-271 88.39,-265 94.39,-259 100.39,-259 100.39,-259 138.14,-259 138.14,-259 144.14,-259 150.14,-265 150.14,-271 150.14,-271 150.14,-283 150.14,-283 150.14,-289 144.14,-295 138.14,-295"/>
<text text-anchor="middle" x="119.26" y="-271.75" font-family="Arial" font-size="15.00">painter</text>
</g>
<!-- /lib/painter.dart&#45;&gt;/lib/models/paint_model.dart -->
<g id="edge11" class="edge">
<title>/lib/painter.dart&#45;&gt;/lib/models/paint_model.dart</title>
<path fill="none" stroke="#aabbaa" stroke-width="1.3" stroke-opacity="0.533333" d="M117.78,-258.82C116.91,-248.8 115.8,-235.88 114.8,-224.29"/>
<polygon fill="#aabbaa" fill-opacity="0.533333" stroke="#aabbaa" stroke-width="1.3" stroke-opacity="0.533333" points="118.29,-224.05 113.94,-214.39 111.31,-224.66 118.29,-224.05"/>
</g>
<!-- /lib/home_screen.dart&#45;&gt;/lib/panels/tools_panel.dart -->
<g id="edge13" class="edge">
<title>/lib/home_screen.dart&#45;&gt;/lib/panels/tools_panel.dart</title>
<path fill="none" stroke="#aabbaa" stroke-width="1.3" stroke-opacity="0.533333" d="M222.99,-343.94C240.91,-340.2 260.56,-334.54 277.26,-326 288.61,-320.2 299.52,-311.56 308.59,-303.2"/>
<polygon fill="#aabbaa" fill-opacity="0.533333" stroke="#aabbaa" stroke-width="1.3" stroke-opacity="0.533333" points="310.84,-305.89 315.59,-296.42 305.97,-300.87 310.84,-305.89"/>
</g>
<!-- /lib/home_screen.dart&#45;&gt;/lib/panels/layers_panel.dart -->
<g id="edge12" class="edge">
<title>/lib/home_screen.dart&#45;&gt;/lib/panels/layers_panel.dart</title>
<path fill="none" stroke="#aabbaa" stroke-width="1.3" stroke-opacity="0.533333" d="M180.88,-333.7C186.57,-325.22 193.56,-314.8 199.96,-305.28"/>
<polygon fill="#aabbaa" fill-opacity="0.533333" stroke="#aabbaa" stroke-width="1.3" stroke-opacity="0.533333" points="202.8,-307.32 205.47,-297.06 196.99,-303.41 202.8,-307.32"/>
</g>
<!-- /lib/home_screen.dart&#45;&gt;/lib/models/paint_model.dart -->
<g id="edge14" class="edge">
<title>/lib/home_screen.dart&#45;&gt;/lib/models/paint_model.dart</title>
<path fill="none" stroke="#aabbaa" stroke-width="1.3" stroke-opacity="0.533333" d="M115.48,-347.63C101.54,-344.01 88,-337.49 79.26,-326 56.11,-295.54 75.87,-250.69 93.25,-222.17"/>
<polygon fill="#aabbaa" fill-opacity="0.533333" stroke="#aabbaa" stroke-width="1.3" stroke-opacity="0.533333" points="96.2,-224.07 98.64,-213.76 90.3,-220.29 96.2,-224.07"/>
</g>
<!-- /lib/home_screen.dart&#45;&gt;/lib/painter.dart -->
<g id="edge15" class="edge">
<title>/lib/home_screen.dart&#45;&gt;/lib/painter.dart</title>
<path fill="none" stroke="#aabbaa" stroke-width="1.3" stroke-opacity="0.533333" d="M157.42,-333.7C151.6,-325.22 144.47,-314.8 137.95,-305.28"/>
<polygon fill="#aabbaa" fill-opacity="0.533333" stroke="#aabbaa" stroke-width="1.3" stroke-opacity="0.533333" points="140.85,-303.32 132.31,-297.05 135.08,-307.28 140.85,-303.32"/>
</g>
</g>
</svg>
