<?xml version="1.0" encoding="UTF-8" standalone="no"?>
<!DOCTYPE svg PUBLIC "-//W3C//DTD SVG 1.1//EN"
 "http://www.w3.org/Graphics/SVG/1.1/DTD/svg11.dtd">
<!-- Generated by graphviz version 12.2.1 (20241206.2353)
 -->
<!-- Pages: 1 -->
<svg width="836pt" height="614pt"
 viewBox="0.00 0.00 836.00 614.00" xmlns="http://www.w3.org/2000/svg" xmlns:xlink="http://www.w3.org/1999/xlink">
<g id="graph0" class="graph" transform="scale(1 1) rotate(0) translate(4 610)">
<polygon fill="white" stroke="none" points="-4,4 -4,-610 832,-610 832,4 -4,4"/>
<g id="clust1" class="cluster">
<title>cluster~</title>
<path fill="none" stroke="lightgray" stroke-width="2.6" d="M20,-8C20,-8 808,-8 808,-8 814,-8 820,-14 820,-20 820,-20 820,-586 820,-586 820,-592 814,-598 808,-598 808,-598 20,-598 20,-598 14,-598 8,-592 8,-586 8,-586 8,-20 8,-20 8,-14 14,-8 20,-8"/>
<text text-anchor="middle" x="414" y="-581.65" font-family="Arial Black" font-size="13.00">fpaint</text>
</g>
<g id="clust2" class="cluster">
<title>cluster~/test</title>
<path fill="none" stroke="lightgray" stroke-width="2.6" d="M92,-492C92,-492 324,-492 324,-492 330,-492 336,-498 336,-504 336,-504 336,-555 336,-555 336,-561 330,-567 324,-567 324,-567 92,-567 92,-567 86,-567 80,-561 80,-555 80,-555 80,-504 80,-504 80,-498 86,-492 92,-492"/>
<text text-anchor="middle" x="208" y="-550.65" font-family="Arial Black" font-size="13.00">test</text>
</g>
<g id="clust3" class="cluster">
<title>cluster~/lib</title>
<path fill="none" stroke="lightgray" stroke-width="2.6" d="M28,-16C28,-16 800,-16 800,-16 806,-16 812,-22 812,-28 812,-28 812,-472 812,-472 812,-478 806,-484 800,-484 800,-484 28,-484 28,-484 22,-484 16,-478 16,-472 16,-472 16,-28 16,-28 16,-22 22,-16 28,-16"/>
<text text-anchor="middle" x="414" y="-467.65" font-family="Arial Black" font-size="13.00">lib</text>
</g>
<g id="clust4" class="cluster">
<title>cluster~/lib/brushes</title>
<path fill="none" stroke="lightgray" stroke-width="2.6" d="M60,-96C60,-96 122,-96 122,-96 128,-96 134,-102 134,-108 134,-108 134,-159 134,-159 134,-165 128,-171 122,-171 122,-171 60,-171 60,-171 54,-171 48,-165 48,-159 48,-159 48,-108 48,-108 48,-102 54,-96 60,-96"/>
<text text-anchor="middle" x="91" y="-154.65" font-family="Arial Black" font-size="13.00">brushes</text>
</g>
<g id="clust5" class="cluster">
<title>cluster~/lib/panels</title>
<path fill="none" stroke="lightgray" stroke-width="2.6" d="M590,-179C590,-179 792,-179 792,-179 798,-179 804,-185 804,-191 804,-191 804,-325 804,-325 804,-331 798,-337 792,-337 792,-337 590,-337 590,-337 584,-337 578,-331 578,-325 578,-325 578,-191 578,-191 578,-185 584,-179 590,-179"/>
<text text-anchor="middle" x="691" y="-320.65" font-family="Arial Black" font-size="13.00">panels</text>
</g>
<g id="clust6" class="cluster">
<title>cluster~/lib/models</title>
<path fill="none" stroke="lightgray" stroke-width="2.6" d="M48,-179C48,-179 241,-179 241,-179 247,-179 253,-185 253,-191 253,-191 253,-325 253,-325 253,-331 247,-337 241,-337 241,-337 48,-337 48,-337 42,-337 36,-331 36,-325 36,-325 36,-191 36,-191 36,-185 42,-179 48,-179"/>
<text text-anchor="middle" x="144.5" y="-320.65" font-family="Arial Black" font-size="13.00">models</text>
</g>
<g id="clust7" class="cluster">
<title>cluster~/lib/files</title>
<path fill="none" stroke="lightgray" stroke-width="2.6" d="M273,-262C273,-262 319,-262 319,-262 325,-262 331,-268 331,-274 331,-274 331,-325 331,-325 331,-331 325,-337 319,-337 319,-337 273,-337 273,-337 267,-337 261,-331 261,-325 261,-325 261,-274 261,-274 261,-268 267,-262 273,-262"/>
<text text-anchor="middle" x="296" y="-320.65" font-family="Arial Black" font-size="13.00">files</text>
</g>
<g id="clust8" class="cluster">
<title>cluster~/lib/helpers</title>
<path fill="none" stroke="lightgray" stroke-width="2.6" d="M401,-24C401,-24 491,-24 491,-24 497,-24 503,-30 503,-36 503,-36 503,-159 503,-159 503,-165 497,-171 491,-171 491,-171 401,-171 401,-171 395,-171 389,-165 389,-159 389,-159 389,-36 389,-36 389,-30 395,-24 401,-24"/>
<text text-anchor="middle" x="446" y="-154.65" font-family="Arial Black" font-size="13.00">helpers</text>
</g>
<g id="clust9" class="cluster">
<title>cluster~/lib/widgets</title>
<path fill="none" stroke="lightgray" stroke-width="2.6" d="M273,-179C273,-179 558,-179 558,-179 564,-179 570,-185 570,-191 570,-191 570,-242 570,-242 570,-248 564,-254 558,-254 558,-254 273,-254 273,-254 267,-254 261,-248 261,-242 261,-242 261,-191 261,-191 261,-185 267,-179 273,-179"/>
<text text-anchor="middle" x="415.5" y="-237.65" font-family="Arial Black" font-size="13.00">widgets</text>
</g>
<!-- /test/paint_model_test.dart -->
<g id="node1" class="node">
<title>/test/paint_model_test.dart</title>
<path fill="Lavender" stroke="black" stroke-width="1.3" d="M206,-536C206,-536 100,-536 100,-536 94,-536 88,-530 88,-524 88,-524 88,-512 88,-512 88,-506 94,-500 100,-500 100,-500 206,-500 206,-500 212,-500 218,-506 218,-512 218,-512 218,-524 218,-524 218,-530 212,-536 206,-536"/>
<text text-anchor="middle" x="153" y="-512.75" font-family="Arial" font-size="15.00">paint_model_test</text>
</g>
<!-- /lib/models/app_model.dart -->
<g id="node9" class="node">
<title>/lib/models/app_model.dart</title>
<path fill="Lavender" stroke="black" stroke-width="1.3" d="M232.75,-223C232.75,-223 167.25,-223 167.25,-223 161.25,-223 155.25,-217 155.25,-211 155.25,-211 155.25,-199 155.25,-199 155.25,-193 161.25,-187 167.25,-187 167.25,-187 232.75,-187 232.75,-187 238.75,-187 244.75,-193 244.75,-199 244.75,-199 244.75,-211 244.75,-211 244.75,-217 238.75,-223 232.75,-223"/>
<text text-anchor="middle" x="200" y="-199.75" font-family="Arial" font-size="15.00">app_model</text>
</g>
<!-- /test/paint_model_test.dart&#45;&gt;/lib/models/app_model.dart -->
<g id="edge1" class="edge">
<title>/test/paint_model_test.dart&#45;&gt;/lib/models/app_model.dart</title>
<path fill="none" stroke="#aabbaa" stroke-width="1.3" stroke-opacity="0.533333" d="M150.45,-499.71C144.93,-457.67 134.54,-347.32 163,-262 166.39,-251.83 172.13,-241.74 178.08,-232.98"/>
<polygon fill="#aabbaa" fill-opacity="0.533333" stroke="#aabbaa" stroke-width="1.3" stroke-opacity="0.533333" points="180.84,-235.13 183.88,-224.98 175.18,-231.02 180.84,-235.13"/>
</g>
<!-- /test/widget_test.dart -->
<g id="node2" class="node">
<title>/test/widget_test.dart</title>
<path fill="Lavender" stroke="black" stroke-width="1.3" d="M315.88,-536C315.88,-536 248.12,-536 248.12,-536 242.12,-536 236.12,-530 236.12,-524 236.12,-524 236.12,-512 236.12,-512 236.12,-506 242.12,-500 248.12,-500 248.12,-500 315.88,-500 315.88,-500 321.88,-500 327.88,-506 327.88,-512 327.88,-512 327.88,-524 327.88,-524 327.88,-530 321.88,-536 315.88,-536"/>
<text text-anchor="middle" x="282" y="-512.75" font-family="Arial" font-size="15.00">widget_test</text>
</g>
<!-- /lib/main.dart -->
<g id="node10" class="node">
<title>/lib/main.dart</title>
<path fill="Lavender" stroke="black" stroke-width="1.3" d="M297,-453C297,-453 267,-453 267,-453 261,-453 255,-447 255,-441 255,-441 255,-429 255,-429 255,-423 261,-417 267,-417 267,-417 297,-417 297,-417 303,-417 309,-423 309,-429 309,-429 309,-441 309,-441 309,-447 303,-453 297,-453"/>
<text text-anchor="middle" x="282" y="-429.75" font-family="Arial" font-size="15.00">main</text>
</g>
<!-- /test/widget_test.dart&#45;&gt;/lib/main.dart -->
<g id="edge2" class="edge">
<title>/test/widget_test.dart&#45;&gt;/lib/main.dart</title>
<path fill="none" stroke="#aabbaa" stroke-width="1.3" stroke-opacity="0.533333" d="M282,-499.82C282,-489.8 282,-476.88 282,-465.29"/>
<polygon fill="#aabbaa" fill-opacity="0.533333" stroke="#aabbaa" stroke-width="1.3" stroke-opacity="0.533333" points="285.5,-465.4 282,-455.4 278.5,-465.4 285.5,-465.4"/>
</g>
<!-- /lib/brushes/brushes.dart -->
<g id="node3" class="node">
<title>/lib/brushes/brushes.dart</title>
<path fill="Lavender" stroke="black" stroke-width="1.3" d="M113.62,-140C113.62,-140 68.38,-140 68.38,-140 62.38,-140 56.38,-134 56.38,-128 56.38,-128 56.38,-116 56.38,-116 56.38,-110 62.38,-104 68.38,-104 68.38,-104 113.62,-104 113.62,-104 119.62,-104 125.62,-110 125.62,-116 125.62,-116 125.62,-128 125.62,-128 125.62,-134 119.62,-140 113.62,-140"/>
<text text-anchor="middle" x="91" y="-116.75" font-family="Arial" font-size="15.00">brushes</text>
</g>
<!-- /lib/brushes/brushes.dart&#45;&gt;/lib/models/app_model.dart -->
<g id="edge3" class="edge">
<title>/lib/brushes/brushes.dart&#45;&gt;/lib/models/app_model.dart</title>
<path fill="none" stroke="#aabbaa" stroke-width="1.3" stroke-opacity="0.533333" d="M114.34,-140.35C129.71,-151.77 150.05,-166.88 167.05,-179.52"/>
<polygon fill="#aabbaa" fill-opacity="0.533333" stroke="#aabbaa" stroke-width="1.3" stroke-opacity="0.533333" points="164.92,-182.29 175.04,-185.45 169.1,-176.68 164.92,-182.29"/>
</g>
<!-- /lib/panels/tools_panel.dart -->
<g id="node4" class="node">
<title>/lib/panels/tools_panel.dart</title>
<path fill="Lavender" stroke="black" stroke-width="1.3" d="M783.88,-306C783.88,-306 716.12,-306 716.12,-306 710.12,-306 704.12,-300 704.12,-294 704.12,-294 704.12,-282 704.12,-282 704.12,-276 710.12,-270 716.12,-270 716.12,-270 783.88,-270 783.88,-270 789.88,-270 795.88,-276 795.88,-282 795.88,-282 795.88,-294 795.88,-294 795.88,-300 789.88,-306 783.88,-306"/>
<text text-anchor="middle" x="750" y="-282.75" font-family="Arial" font-size="15.00">tools_panel</text>
</g>
<!-- /lib/panels/tool.dart -->
<g id="node6" class="node">
<title>/lib/panels/tool.dart</title>
<path fill="Lavender" stroke="black" stroke-width="1.3" d="M765,-223C765,-223 735,-223 735,-223 729,-223 723,-217 723,-211 723,-211 723,-199 723,-199 723,-193 729,-187 735,-187 735,-187 765,-187 765,-187 771,-187 777,-193 777,-199 777,-199 777,-211 777,-211 777,-217 771,-223 765,-223"/>
<text text-anchor="middle" x="750" y="-199.75" font-family="Arial" font-size="15.00">tool</text>
</g>
<!-- /lib/panels/tools_panel.dart&#45;&gt;/lib/panels/tool.dart -->
<g id="edge5" class="edge">
<title>/lib/panels/tools_panel.dart&#45;&gt;/lib/panels/tool.dart</title>
<path fill="none" stroke="#aabbaa" stroke-width="1.3" stroke-opacity="0.533333" d="M750,-269.82C750,-259.8 750,-246.88 750,-235.29"/>
<polygon fill="#aabbaa" fill-opacity="0.533333" stroke="#aabbaa" stroke-width="1.3" stroke-opacity="0.533333" points="753.5,-235.4 750,-225.4 746.5,-235.4 753.5,-235.4"/>
</g>
<!-- /lib/panels/tools_panel.dart&#45;&gt;/lib/models/app_model.dart -->
<g id="edge4" class="edge">
<title>/lib/panels/tools_panel.dart&#45;&gt;/lib/models/app_model.dart</title>
<path fill="none" stroke="#aabbaa" stroke-width="1.3" stroke-opacity="0.533333" d="M717.31,-269.53C710.15,-266.45 702.47,-263.69 695,-262 647.52,-251.26 302.57,-271.1 257,-254 244.33,-249.25 232.5,-240.37 222.94,-231.52"/>
<polygon fill="#aabbaa" fill-opacity="0.533333" stroke="#aabbaa" stroke-width="1.3" stroke-opacity="0.533333" points="225.49,-229.12 215.91,-224.58 220.56,-234.1 225.49,-229.12"/>
</g>
<!-- /lib/widgets/transparent_background.dart -->
<g id="node16" class="node">
<title>/lib/widgets/transparent_background.dart</title>
<path fill="Lavender" stroke="black" stroke-width="1.3" d="M435.38,-223C435.38,-223 280.62,-223 280.62,-223 274.62,-223 268.62,-217 268.62,-211 268.62,-211 268.62,-199 268.62,-199 268.62,-193 274.62,-187 280.62,-187 280.62,-187 435.38,-187 435.38,-187 441.38,-187 447.38,-193 447.38,-199 447.38,-199 447.38,-211 447.38,-211 447.38,-217 441.38,-223 435.38,-223"/>
<text text-anchor="middle" x="358" y="-199.75" font-family="Arial" font-size="15.00">transparent_background</text>
</g>
<!-- /lib/panels/tools_panel.dart&#45;&gt;/lib/widgets/transparent_background.dart -->
<g id="edge7" class="edge">
<title>/lib/panels/tools_panel.dart&#45;&gt;/lib/widgets/transparent_background.dart</title>
<path fill="none" stroke="#aabbaa" stroke-width="1.3" stroke-opacity="0.533333" d="M717.29,-269.62C710.13,-266.53 702.45,-263.75 695,-262 643.48,-249.93 508.37,-266.71 457,-254 435.86,-248.77 413.92,-238.68 396.08,-229.1"/>
<polygon fill="#aabbaa" fill-opacity="0.533333" stroke="#aabbaa" stroke-width="1.3" stroke-opacity="0.533333" points="397.98,-226.15 387.54,-224.35 394.58,-232.27 397.98,-226.15"/>
</g>
<!-- /lib/widgets/color_picker.dart -->
<g id="node17" class="node">
<title>/lib/widgets/color_picker.dart</title>
<path fill="Lavender" stroke="black" stroke-width="1.3" d="M550.12,-223C550.12,-223 477.88,-223 477.88,-223 471.88,-223 465.88,-217 465.88,-211 465.88,-211 465.88,-199 465.88,-199 465.88,-193 471.88,-187 477.88,-187 477.88,-187 550.12,-187 550.12,-187 556.12,-187 562.12,-193 562.12,-199 562.12,-199 562.12,-211 562.12,-211 562.12,-217 556.12,-223 550.12,-223"/>
<text text-anchor="middle" x="514" y="-199.75" font-family="Arial" font-size="15.00">color_picker</text>
</g>
<!-- /lib/panels/tools_panel.dart&#45;&gt;/lib/widgets/color_picker.dart -->
<g id="edge6" class="edge">
<title>/lib/panels/tools_panel.dart&#45;&gt;/lib/widgets/color_picker.dart</title>
<path fill="none" stroke="#aabbaa" stroke-width="1.3" stroke-opacity="0.533333" d="M716.66,-269.55C709.67,-266.55 702.22,-263.82 695,-262 642.73,-248.86 624.24,-273.51 574,-254 561.05,-248.97 548.71,-240.09 538.62,-231.33"/>
<polygon fill="#aabbaa" fill-opacity="0.533333" stroke="#aabbaa" stroke-width="1.3" stroke-opacity="0.533333" points="541.22,-228.96 531.49,-224.76 536.47,-234.11 541.22,-228.96"/>
</g>
<!-- /lib/panels/layers_panel.dart -->
<g id="node5" class="node">
<title>/lib/panels/layers_panel.dart</title>
<path fill="Lavender" stroke="black" stroke-width="1.3" d="M674,-306C674,-306 598,-306 598,-306 592,-306 586,-300 586,-294 586,-294 586,-282 586,-282 586,-276 592,-270 598,-270 598,-270 674,-270 674,-270 680,-270 686,-276 686,-282 686,-282 686,-294 686,-294 686,-300 680,-306 674,-306"/>
<text text-anchor="middle" x="636" y="-282.75" font-family="Arial" font-size="15.00">layers_panel</text>
</g>
<!-- /lib/panels/layers_panel.dart&#45;&gt;/lib/models/app_model.dart -->
<g id="edge8" class="edge">
<title>/lib/panels/layers_panel.dart&#45;&gt;/lib/models/app_model.dart</title>
<path fill="none" stroke="#aabbaa" stroke-width="1.3" stroke-opacity="0.533333" d="M603.93,-269.56C596.89,-266.48 589.34,-263.71 582,-262 546.82,-253.8 290.78,-266.8 257,-254 244.35,-249.21 232.52,-240.32 222.96,-231.48"/>
<polygon fill="#aabbaa" fill-opacity="0.533333" stroke="#aabbaa" stroke-width="1.3" stroke-opacity="0.533333" points="225.5,-229.08 215.93,-224.54 220.58,-234.06 225.5,-229.08"/>
</g>
<!-- /lib/models/layers.dart -->
<g id="node7" class="node">
<title>/lib/models/layers.dart</title>
<path fill="Lavender" stroke="black" stroke-width="1.3" d="M215.88,-306C215.88,-306 184.12,-306 184.12,-306 178.12,-306 172.12,-300 172.12,-294 172.12,-294 172.12,-282 172.12,-282 172.12,-276 178.12,-270 184.12,-270 184.12,-270 215.88,-270 215.88,-270 221.88,-270 227.88,-276 227.88,-282 227.88,-282 227.88,-294 227.88,-294 227.88,-300 221.88,-306 215.88,-306"/>
<text text-anchor="middle" x="200" y="-282.75" font-family="Arial" font-size="15.00">layers</text>
</g>
<!-- /lib/models/user_action.dart -->
<g id="node8" class="node">
<title>/lib/models/user_action.dart</title>
<path fill="Lavender" stroke="black" stroke-width="1.3" d="M125.62,-223C125.62,-223 56.38,-223 56.38,-223 50.38,-223 44.38,-217 44.38,-211 44.38,-211 44.38,-199 44.38,-199 44.38,-193 50.38,-187 56.38,-187 56.38,-187 125.62,-187 125.62,-187 131.62,-187 137.62,-193 137.62,-199 137.62,-199 137.62,-211 137.62,-211 137.62,-217 131.62,-223 125.62,-223"/>
<text text-anchor="middle" x="91" y="-199.75" font-family="Arial" font-size="15.00">user_action</text>
</g>
<!-- /lib/models/layers.dart&#45;&gt;/lib/models/user_action.dart -->
<g id="edge11" class="edge">
<title>/lib/models/layers.dart&#45;&gt;/lib/models/user_action.dart</title>
<path fill="none" stroke="#aabbaa" stroke-width="1.3" stroke-dasharray="5,2" stroke-opacity="0.533333" d="M171.66,-270.92C163.21,-265.79 154.06,-259.91 146,-254 136.55,-247.06 126.74,-238.87 118.07,-231.23"/>
<polygon fill="#aabbaa" fill-opacity="0.533333" stroke="#aabbaa" stroke-width="1.3" stroke-opacity="0.533333" points="120.43,-228.64 110.65,-224.57 115.75,-233.85 120.43,-228.64"/>
</g>
<!-- /lib/models/layers.dart&#45;&gt;/lib/models/app_model.dart -->
<g id="edge10" class="edge">
<title>/lib/models/layers.dart&#45;&gt;/lib/models/app_model.dart</title>
<path fill="none" stroke="#aabbaa" stroke-width="1.3" stroke-opacity="0.533333" d="M188.73,-269.82C186.54,-259.69 185.96,-246.6 187,-234.92"/>
<polygon fill="#aabbaa" fill-opacity="0.533333" stroke="#aabbaa" stroke-width="1.3" stroke-opacity="0.533333" points="190.41,-235.78 188.39,-225.38 183.49,-234.77 190.41,-235.78"/>
</g>
<!-- /lib/helpers/list_helper.dart -->
<g id="node14" class="node">
<title>/lib/helpers/list_helper.dart</title>
<path fill="Lavender" stroke="black" stroke-width="1.3" d="M475.75,-68C475.75,-68 416.25,-68 416.25,-68 410.25,-68 404.25,-62 404.25,-56 404.25,-56 404.25,-44 404.25,-44 404.25,-38 410.25,-32 416.25,-32 416.25,-32 475.75,-32 475.75,-32 481.75,-32 487.75,-38 487.75,-44 487.75,-44 487.75,-56 487.75,-56 487.75,-62 481.75,-68 475.75,-68"/>
<text text-anchor="middle" x="446" y="-44.75" font-family="Arial" font-size="15.00">list_helper</text>
</g>
<!-- /lib/models/layers.dart&#45;&gt;/lib/helpers/list_helper.dart -->
<g id="edge9" class="edge">
<title>/lib/models/layers.dart&#45;&gt;/lib/helpers/list_helper.dart</title>
<path fill="none" stroke="#aabbaa" stroke-width="1.3" stroke-opacity="0.533333" d="M171.88,-285.55C129.4,-282.7 51.99,-274.73 35,-254 -9.59,-199.61 -5.65,-145.82 44,-96 68.14,-71.78 288.28,-58.36 392.18,-53.33"/>
<polygon fill="#aabbaa" fill-opacity="0.533333" stroke="#aabbaa" stroke-width="1.3" stroke-opacity="0.533333" points="392.17,-56.84 401.99,-52.87 391.84,-49.85 392.17,-56.84"/>
</g>
<!-- /lib/models/user_action.dart&#45;&gt;/lib/brushes/brushes.dart -->
<g id="edge12" class="edge">
<title>/lib/models/user_action.dart&#45;&gt;/lib/brushes/brushes.dart</title>
<path fill="none" stroke="#aabbaa" stroke-width="1.3" stroke-opacity="0.533333" d="M85.36,-186.82C84.28,-176.8 83.99,-163.88 84.49,-152.29"/>
<polygon fill="#aabbaa" fill-opacity="0.533333" stroke="#aabbaa" stroke-width="1.3" stroke-opacity="0.533333" points="87.97,-152.62 85.2,-142.4 80.99,-152.12 87.97,-152.62"/>
</g>
<!-- /lib/models/user_action.dart&#45;&gt;/lib/brushes/brushes.dart -->
<g id="edge13" class="edge">
<title>/lib/models/user_action.dart&#45;&gt;/lib/brushes/brushes.dart</title>
<path fill="none" stroke="#aabbaa" stroke-width="1.3" stroke-dasharray="5,2" stroke-opacity="0.533333" d="M96.64,-186.82C97.72,-176.8 98.01,-163.88 97.51,-152.29"/>
<polygon fill="#aabbaa" fill-opacity="0.533333" stroke="#aabbaa" stroke-width="1.3" stroke-opacity="0.533333" points="101.01,-152.12 96.8,-142.4 94.03,-152.62 101.01,-152.12"/>
</g>
<!-- /lib/models/app_model.dart&#45;&gt;/lib/models/layers.dart -->
<g id="edge14" class="edge">
<title>/lib/models/app_model.dart&#45;&gt;/lib/models/layers.dart</title>
<path fill="none" stroke="#aabbaa" stroke-width="1.3" stroke-opacity="0.533333" d="M200,-223.43C200,-233.51 200,-246.44 200,-258.01"/>
<polygon fill="#aabbaa" fill-opacity="0.533333" stroke="#aabbaa" stroke-width="1.3" stroke-opacity="0.533333" points="196.5,-257.85 200,-267.85 203.5,-257.85 196.5,-257.85"/>
</g>
<!-- /lib/models/app_model.dart&#45;&gt;/lib/models/layers.dart -->
<g id="edge15" class="edge">
<title>/lib/models/app_model.dart&#45;&gt;/lib/models/layers.dart</title>
<path fill="none" stroke="#aabbaa" stroke-width="1.3" stroke-dasharray="5,2" stroke-opacity="0.533333" d="M211.33,-223.43C213.47,-233.51 214.03,-246.44 213,-258.01"/>
<polygon fill="#aabbaa" fill-opacity="0.533333" stroke="#aabbaa" stroke-width="1.3" stroke-opacity="0.533333" points="209.54,-257.47 211.56,-267.88 216.47,-258.49 209.54,-257.47"/>
</g>
<!-- /lib/main.dart&#45;&gt;/lib/models/app_model.dart -->
<g id="edge17" class="edge">
<title>/lib/main.dart&#45;&gt;/lib/models/app_model.dart</title>
<path fill="none" stroke="#aabbaa" stroke-width="1.3" stroke-opacity="0.533333" d="M277.55,-416.67C266.5,-373.73 238.61,-265.61 237,-262 232.56,-252.06 226.43,-241.91 220.44,-233.04"/>
<polygon fill="#aabbaa" fill-opacity="0.533333" stroke="#aabbaa" stroke-width="1.3" stroke-opacity="0.533333" points="223.33,-231.06 214.71,-224.9 217.61,-235.09 223.33,-231.06"/>
</g>
<!-- /lib/main_screen.dart -->
<g id="node13" class="node">
<title>/lib/main_screen.dart</title>
<path fill="Lavender" stroke="black" stroke-width="1.3" d="M405.75,-381C405.75,-381 328.25,-381 328.25,-381 322.25,-381 316.25,-375 316.25,-369 316.25,-369 316.25,-357 316.25,-357 316.25,-351 322.25,-345 328.25,-345 328.25,-345 405.75,-345 405.75,-345 411.75,-345 417.75,-351 417.75,-357 417.75,-357 417.75,-369 417.75,-369 417.75,-375 411.75,-381 405.75,-381"/>
<text text-anchor="middle" x="367" y="-357.75" font-family="Arial" font-size="15.00">main_screen</text>
</g>
<!-- /lib/main.dart&#45;&gt;/lib/main_screen.dart -->
<g id="edge16" class="edge">
<title>/lib/main.dart&#45;&gt;/lib/main_screen.dart</title>
<path fill="none" stroke="#aabbaa" stroke-width="1.3" stroke-opacity="0.533333" d="M303.01,-416.7C313.23,-408.28 325.69,-398.02 336.9,-388.79"/>
<polygon fill="#aabbaa" fill-opacity="0.533333" stroke="#aabbaa" stroke-width="1.3" stroke-opacity="0.533333" points="338.92,-391.66 344.42,-382.6 334.47,-386.25 338.92,-391.66"/>
</g>
<!-- /lib/files/ora.dart -->
<g id="node11" class="node">
<title>/lib/files/ora.dart</title>
<path fill="Lavender" stroke="black" stroke-width="1.3" d="M311,-306C311,-306 281,-306 281,-306 275,-306 269,-300 269,-294 269,-294 269,-282 269,-282 269,-276 275,-270 281,-270 281,-270 311,-270 311,-270 317,-270 323,-276 323,-282 323,-282 323,-294 323,-294 323,-300 317,-306 311,-306"/>
<text text-anchor="middle" x="296" y="-282.75" font-family="Arial" font-size="15.00">ora</text>
</g>
<!-- /lib/files/ora.dart&#45;&gt;/lib/models/app_model.dart -->
<g id="edge18" class="edge">
<title>/lib/files/ora.dart&#45;&gt;/lib/models/app_model.dart</title>
<path fill="none" stroke="#aabbaa" stroke-width="1.3" stroke-opacity="0.533333" d="M275.64,-269.82C262.24,-258.52 244.48,-243.53 229.54,-230.92"/>
<polygon fill="#aabbaa" fill-opacity="0.533333" stroke="#aabbaa" stroke-width="1.3" stroke-opacity="0.533333" points="232.06,-228.48 222.16,-224.7 227.55,-233.83 232.06,-228.48"/>
</g>
<!-- /lib/canvas.dart -->
<g id="node12" class="node">
<title>/lib/canvas.dart</title>
<path fill="Lavender" stroke="black" stroke-width="1.3" d="M412.62,-306C412.62,-306 373.38,-306 373.38,-306 367.38,-306 361.38,-300 361.38,-294 361.38,-294 361.38,-282 361.38,-282 361.38,-276 367.38,-270 373.38,-270 373.38,-270 412.62,-270 412.62,-270 418.62,-270 424.62,-276 424.62,-282 424.62,-282 424.62,-294 424.62,-294 424.62,-300 418.62,-306 412.62,-306"/>
<text text-anchor="middle" x="393" y="-282.75" font-family="Arial" font-size="15.00">canvas</text>
</g>
<!-- /lib/canvas.dart&#45;&gt;/lib/models/app_model.dart -->
<g id="edge20" class="edge">
<title>/lib/canvas.dart&#45;&gt;/lib/models/app_model.dart</title>
<path fill="none" stroke="#aabbaa" stroke-width="1.3" stroke-opacity="0.533333" d="M365.58,-269.75C359.64,-266.7 353.26,-263.89 347,-262 308.56,-250.39 294.08,-269.43 257,-254 244.69,-248.88 233.05,-240.1 223.54,-231.44"/>
<polygon fill="#aabbaa" fill-opacity="0.533333" stroke="#aabbaa" stroke-width="1.3" stroke-opacity="0.533333" points="226.16,-229.1 216.54,-224.67 221.29,-234.13 226.16,-229.1"/>
</g>
<!-- /lib/canvas.dart&#45;&gt;/lib/widgets/transparent_background.dart -->
<g id="edge19" class="edge">
<title>/lib/canvas.dart&#45;&gt;/lib/widgets/transparent_background.dart</title>
<path fill="none" stroke="#aabbaa" stroke-width="1.3" stroke-opacity="0.533333" d="M385.58,-269.82C381.11,-259.48 375.3,-246.05 370.18,-234.18"/>
<polygon fill="#aabbaa" fill-opacity="0.533333" stroke="#aabbaa" stroke-width="1.3" stroke-opacity="0.533333" points="373.49,-233.03 366.31,-225.24 367.07,-235.81 373.49,-233.03"/>
</g>
<!-- /lib/main_screen.dart&#45;&gt;/lib/panels/tools_panel.dart -->
<g id="edge24" class="edge">
<title>/lib/main_screen.dart&#45;&gt;/lib/panels/tools_panel.dart</title>
<path fill="none" stroke="#aabbaa" stroke-width="1.3" stroke-opacity="0.533333" d="M418.1,-362C497.49,-361.36 646.41,-357.36 695,-337 706.92,-332 718.08,-323.37 727.18,-314.79"/>
<polygon fill="#aabbaa" fill-opacity="0.533333" stroke="#aabbaa" stroke-width="1.3" stroke-opacity="0.533333" points="729.6,-317.32 734.17,-307.76 724.64,-312.38 729.6,-317.32"/>
</g>
<!-- /lib/main_screen.dart&#45;&gt;/lib/panels/layers_panel.dart -->
<g id="edge23" class="edge">
<title>/lib/main_screen.dart&#45;&gt;/lib/panels/layers_panel.dart</title>
<path fill="none" stroke="#aabbaa" stroke-width="1.3" stroke-opacity="0.533333" d="M417.97,-359.6C472.08,-356.44 553.62,-349.71 582,-337 593.68,-331.77 604.62,-323.09 613.56,-314.53"/>
<polygon fill="#aabbaa" fill-opacity="0.533333" stroke="#aabbaa" stroke-width="1.3" stroke-opacity="0.533333" points="615.9,-317.15 620.41,-307.56 610.91,-312.24 615.9,-317.15"/>
</g>
<!-- /lib/main_screen.dart&#45;&gt;/lib/models/app_model.dart -->
<g id="edge25" class="edge">
<title>/lib/main_screen.dart&#45;&gt;/lib/models/app_model.dart</title>
<path fill="none" stroke="#aabbaa" stroke-width="1.3" stroke-opacity="0.533333" d="M355.62,-344.61C354.27,-342.12 353.02,-339.54 352,-337 339.27,-305.28 360.58,-284.67 335,-262 321.96,-250.44 273.04,-260.8 257,-254 244.72,-248.79 233.09,-240 223.58,-231.35"/>
<polygon fill="#aabbaa" fill-opacity="0.533333" stroke="#aabbaa" stroke-width="1.3" stroke-opacity="0.533333" points="226.2,-229.01 216.57,-224.59 221.34,-234.05 226.2,-229.01"/>
</g>
<!-- /lib/main_screen.dart&#45;&gt;/lib/files/ora.dart -->
<g id="edge22" class="edge">
<title>/lib/main_screen.dart&#45;&gt;/lib/files/ora.dart</title>
<path fill="none" stroke="#aabbaa" stroke-width="1.3" stroke-opacity="0.533333" d="M336.24,-344.77C332.96,-342.36 329.8,-339.76 327,-337 320.92,-331.01 315.43,-323.63 310.82,-316.47"/>
<polygon fill="#aabbaa" fill-opacity="0.533333" stroke="#aabbaa" stroke-width="1.3" stroke-opacity="0.533333" points="313.88,-314.77 305.73,-308 307.88,-318.38 313.88,-314.77"/>
</g>
<!-- /lib/main_screen.dart&#45;&gt;/lib/canvas.dart -->
<g id="edge21" class="edge">
<title>/lib/main_screen.dart&#45;&gt;/lib/canvas.dart</title>
<path fill="none" stroke="#aabbaa" stroke-width="1.3" stroke-opacity="0.533333" d="M373.16,-344.7C376.05,-336.58 379.58,-326.68 382.85,-317.5"/>
<polygon fill="#aabbaa" fill-opacity="0.533333" stroke="#aabbaa" stroke-width="1.3" stroke-opacity="0.533333" points="386.07,-318.88 386.13,-308.28 379.48,-316.53 386.07,-318.88"/>
</g>
<!-- /lib/helpers/color_helper.dart -->
<g id="node15" class="node">
<title>/lib/helpers/color_helper.dart</title>
<path fill="Lavender" stroke="black" stroke-width="1.3" d="M482.88,-140C482.88,-140 409.12,-140 409.12,-140 403.12,-140 397.12,-134 397.12,-128 397.12,-128 397.12,-116 397.12,-116 397.12,-110 403.12,-104 409.12,-104 409.12,-104 482.88,-104 482.88,-104 488.88,-104 494.88,-110 494.88,-116 494.88,-116 494.88,-128 494.88,-128 494.88,-134 488.88,-140 482.88,-140"/>
<text text-anchor="middle" x="446" y="-116.75" font-family="Arial" font-size="15.00">color_helper</text>
</g>
<!-- /lib/helpers/color_helper.dart&#45;&gt;/lib/helpers/list_helper.dart -->
<g id="edge26" class="edge">
<title>/lib/helpers/color_helper.dart&#45;&gt;/lib/helpers/list_helper.dart</title>
<path fill="none" stroke="#aabbaa" stroke-width="1.3" stroke-opacity="0.533333" d="M446,-103.7C446,-96.49 446,-87.93 446,-79.82"/>
<polygon fill="#aabbaa" fill-opacity="0.533333" stroke="#aabbaa" stroke-width="1.3" stroke-opacity="0.533333" points="449.5,-80.07 446,-70.07 442.5,-80.07 449.5,-80.07"/>
</g>
<!-- /lib/widgets/color_picker.dart&#45;&gt;/lib/helpers/list_helper.dart -->
<g id="edge28" class="edge">
<title>/lib/widgets/color_picker.dart&#45;&gt;/lib/helpers/list_helper.dart</title>
<path fill="none" stroke="#aabbaa" stroke-width="1.3" stroke-opacity="0.533333" d="M516.43,-186.7C518.71,-164.3 519.76,-124.73 504,-96 499.79,-88.32 493.65,-81.52 486.94,-75.68"/>
<polygon fill="#aabbaa" fill-opacity="0.533333" stroke="#aabbaa" stroke-width="1.3" stroke-opacity="0.533333" points="489.12,-72.94 479.09,-69.53 484.8,-78.45 489.12,-72.94"/>
</g>
<!-- /lib/widgets/color_picker.dart&#45;&gt;/lib/helpers/color_helper.dart -->
<g id="edge27" class="edge">
<title>/lib/widgets/color_picker.dart&#45;&gt;/lib/helpers/color_helper.dart</title>
<path fill="none" stroke="#aabbaa" stroke-width="1.3" stroke-opacity="0.533333" d="M499.58,-186.82C490.45,-175.94 478.45,-161.66 468.13,-149.36"/>
<polygon fill="#aabbaa" fill-opacity="0.533333" stroke="#aabbaa" stroke-width="1.3" stroke-opacity="0.533333" points="471.01,-147.35 461.9,-141.94 465.65,-151.85 471.01,-147.35"/>
</g>
</g>
</svg>
