<?xml version="1.0" encoding="UTF-8" standalone="no"?>
<!DOCTYPE svg PUBLIC "-//W3C//DTD SVG 1.1//EN"
 "http://www.w3.org/Graphics/SVG/1.1/DTD/svg11.dtd">
<!-- Generated by graphviz version 12.2.1 (20241206.2353)
 -->
<!-- Pages: 1 -->
<svg width="1272pt" height="833pt"
 viewBox="0.00 0.00 1272.00 833.00" xmlns="http://www.w3.org/2000/svg" xmlns:xlink="http://www.w3.org/1999/xlink">
<g id="graph0" class="graph" transform="scale(1 1) rotate(0) translate(4 829)">
<polygon fill="white" stroke="none" points="-4,4 -4,-829 1268,-829 1268,4 -4,4"/>
<g id="clust1" class="cluster">
<title>cluster~</title>
<path fill="none" stroke="lightgray" stroke-width="2.6" d="M20,-8C20,-8 1244,-8 1244,-8 1250,-8 1256,-14 1256,-20 1256,-20 1256,-805 1256,-805 1256,-811 1250,-817 1244,-817 1244,-817 20,-817 20,-817 14,-817 8,-811 8,-805 8,-805 8,-20 8,-20 8,-14 14,-8 20,-8"/>
<text text-anchor="middle" x="632" y="-800.65" font-family="Arial Black" font-size="13.00">fpaint</text>
</g>
<g id="clust2" class="cluster">
<title>cluster~/test</title>
<path fill="none" stroke="lightgray" stroke-width="2.6" d="M28,-711C28,-711 260,-711 260,-711 266,-711 272,-717 272,-723 272,-723 272,-774 272,-774 272,-780 266,-786 260,-786 260,-786 28,-786 28,-786 22,-786 16,-780 16,-774 16,-774 16,-723 16,-723 16,-717 22,-711 28,-711"/>
<text text-anchor="middle" x="144" y="-769.65" font-family="Arial Black" font-size="13.00">test</text>
</g>
<g id="clust3" class="cluster">
<title>cluster~/lib</title>
<path fill="none" stroke="lightgray" stroke-width="2.6" d="M28,-16C28,-16 1236,-16 1236,-16 1242,-16 1248,-22 1248,-28 1248,-28 1248,-691 1248,-691 1248,-697 1242,-703 1236,-703 1236,-703 28,-703 28,-703 22,-703 16,-697 16,-691 16,-691 16,-28 16,-28 16,-22 22,-16 28,-16"/>
<text text-anchor="middle" x="632" y="-686.65" font-family="Arial Black" font-size="13.00">lib</text>
</g>
<g id="clust4" class="cluster">
<title>cluster~/lib/panels</title>
<path fill="none" stroke="lightgray" stroke-width="2.6" d="M880,-262C880,-262 1216,-262 1216,-262 1222,-262 1228,-268 1228,-274 1228,-274 1228,-544 1228,-544 1228,-550 1222,-556 1216,-556 1216,-556 880,-556 880,-556 874,-556 868,-550 868,-544 868,-544 868,-274 868,-274 868,-268 874,-262 880,-262"/>
<text text-anchor="middle" x="1048" y="-539.65" font-family="Arial Black" font-size="13.00">panels</text>
</g>
<g id="clust5" class="cluster">
<title>cluster~/lib/models</title>
<path fill="none" stroke="lightgray" stroke-width="2.6" d="M48,-262C48,-262 241,-262 241,-262 247,-262 253,-268 253,-274 253,-274 253,-469 253,-469 253,-475 247,-481 241,-481 241,-481 48,-481 48,-481 42,-481 36,-475 36,-469 36,-469 36,-274 36,-274 36,-268 42,-262 48,-262"/>
<text text-anchor="middle" x="144.5" y="-464.65" font-family="Arial Black" font-size="13.00">models</text>
</g>
<g id="clust6" class="cluster">
<title>cluster~/lib/files</title>
<path fill="none" stroke="lightgray" stroke-width="2.6" d="M273,-334C273,-334 756,-334 756,-334 762,-334 768,-340 768,-346 768,-346 768,-469 768,-469 768,-475 762,-481 756,-481 756,-481 273,-481 273,-481 267,-481 261,-475 261,-469 261,-469 261,-346 261,-346 261,-340 267,-334 273,-334"/>
<text text-anchor="middle" x="514.5" y="-464.65" font-family="Arial Black" font-size="13.00">files</text>
</g>
<g id="clust7" class="cluster">
<title>cluster~/lib/helpers</title>
<path fill="none" stroke="lightgray" stroke-width="2.6" d="M332,-24C332,-24 422,-24 422,-24 428,-24 434,-30 434,-36 434,-36 434,-159 434,-159 434,-165 428,-171 422,-171 422,-171 332,-171 332,-171 326,-171 320,-165 320,-159 320,-159 320,-36 320,-36 320,-30 326,-24 332,-24"/>
<text text-anchor="middle" x="377" y="-154.65" font-family="Arial Black" font-size="13.00">helpers</text>
</g>
<g id="clust8" class="cluster">
<title>cluster~/lib/widgets</title>
<path fill="none" stroke="lightgray" stroke-width="2.6" d="M288,-179C288,-179 1014,-179 1014,-179 1020,-179 1026,-185 1026,-191 1026,-191 1026,-242 1026,-242 1026,-248 1020,-254 1014,-254 1014,-254 288,-254 288,-254 282,-254 276,-248 276,-242 276,-242 276,-191 276,-191 276,-185 282,-179 288,-179"/>
<text text-anchor="middle" x="651" y="-237.65" font-family="Arial Black" font-size="13.00">widgets</text>
</g>
<!-- /test/paint_model_test.dart -->
<g id="node1" class="node">
<title>/test/paint_model_test.dart</title>
<path fill="Lavender" stroke="black" stroke-width="1.3" d="M142,-755C142,-755 36,-755 36,-755 30,-755 24,-749 24,-743 24,-743 24,-731 24,-731 24,-725 30,-719 36,-719 36,-719 142,-719 142,-719 148,-719 154,-725 154,-731 154,-731 154,-743 154,-743 154,-749 148,-755 142,-755"/>
<text text-anchor="middle" x="89" y="-731.75" font-family="Arial" font-size="15.00">paint_model_test</text>
</g>
<!-- /lib/models/app_model.dart -->
<g id="node12" class="node">
<title>/lib/models/app_model.dart</title>
<path fill="Lavender" stroke="black" stroke-width="1.3" d="M232.75,-306C232.75,-306 167.25,-306 167.25,-306 161.25,-306 155.25,-300 155.25,-294 155.25,-294 155.25,-282 155.25,-282 155.25,-276 161.25,-270 167.25,-270 167.25,-270 232.75,-270 232.75,-270 238.75,-270 244.75,-276 244.75,-282 244.75,-282 244.75,-294 244.75,-294 244.75,-300 238.75,-306 232.75,-306"/>
<text text-anchor="middle" x="200" y="-282.75" font-family="Arial" font-size="15.00">app_model</text>
</g>
<!-- /test/paint_model_test.dart&#45;&gt;/lib/models/app_model.dart -->
<g id="edge1" class="edge">
<title>/test/paint_model_test.dart&#45;&gt;/lib/models/app_model.dart</title>
<path fill="none" stroke="#aabbaa" stroke-width="1.3" stroke-opacity="0.533333" d="M38.13,-718.62C31.79,-714.44 26.1,-709.3 22,-703 -7.14,-658.27 17,-636.38 17,-583 17,-583 17,-583 17,-431 17,-373.38 56.78,-368.4 103,-334 115.46,-324.72 130.14,-316.71 144.25,-310.11"/>
<polygon fill="#aabbaa" fill-opacity="0.533333" stroke="#aabbaa" stroke-width="1.3" stroke-opacity="0.533333" points="145.4,-313.43 153.09,-306.15 142.54,-307.05 145.4,-313.43"/>
</g>
<!-- /test/widget_test.dart -->
<g id="node2" class="node">
<title>/test/widget_test.dart</title>
<path fill="Lavender" stroke="black" stroke-width="1.3" d="M251.88,-755C251.88,-755 184.12,-755 184.12,-755 178.12,-755 172.12,-749 172.12,-743 172.12,-743 172.12,-731 172.12,-731 172.12,-725 178.12,-719 184.12,-719 184.12,-719 251.88,-719 251.88,-719 257.88,-719 263.88,-725 263.88,-731 263.88,-731 263.88,-743 263.88,-743 263.88,-749 257.88,-755 251.88,-755"/>
<text text-anchor="middle" x="218" y="-731.75" font-family="Arial" font-size="15.00">widget_test</text>
</g>
<!-- /lib/main.dart -->
<g id="node14" class="node">
<title>/lib/main.dart</title>
<path fill="Lavender" stroke="black" stroke-width="1.3" d="M233,-672C233,-672 203,-672 203,-672 197,-672 191,-666 191,-660 191,-660 191,-648 191,-648 191,-642 197,-636 203,-636 203,-636 233,-636 233,-636 239,-636 245,-642 245,-648 245,-648 245,-660 245,-660 245,-666 239,-672 233,-672"/>
<text text-anchor="middle" x="218" y="-648.75" font-family="Arial" font-size="15.00">main</text>
</g>
<!-- /test/widget_test.dart&#45;&gt;/lib/main.dart -->
<g id="edge2" class="edge">
<title>/test/widget_test.dart&#45;&gt;/lib/main.dart</title>
<path fill="none" stroke="#aabbaa" stroke-width="1.3" stroke-opacity="0.533333" d="M218,-718.82C218,-708.8 218,-695.88 218,-684.29"/>
<polygon fill="#aabbaa" fill-opacity="0.533333" stroke="#aabbaa" stroke-width="1.3" stroke-opacity="0.533333" points="221.5,-684.4 218,-674.4 214.5,-684.4 221.5,-684.4"/>
</g>
<!-- /lib/panels/tool_selector.dart -->
<g id="node3" class="node">
<title>/lib/panels/tool_selector.dart</title>
<path fill="Lavender" stroke="black" stroke-width="1.3" d="M1080.38,-378C1080.38,-378 1003.62,-378 1003.62,-378 997.62,-378 991.62,-372 991.62,-366 991.62,-366 991.62,-354 991.62,-354 991.62,-348 997.62,-342 1003.62,-342 1003.62,-342 1080.38,-342 1080.38,-342 1086.38,-342 1092.38,-348 1092.38,-354 1092.38,-354 1092.38,-366 1092.38,-366 1092.38,-372 1086.38,-378 1080.38,-378"/>
<text text-anchor="middle" x="1042" y="-354.75" font-family="Arial" font-size="15.00">tool_selector</text>
</g>
<!-- /lib/panels/canvas_panel.dart -->
<g id="node4" class="node">
<title>/lib/panels/canvas_panel.dart</title>
<path fill="Lavender" stroke="black" stroke-width="1.3" d="M971.75,-306C971.75,-306 888.25,-306 888.25,-306 882.25,-306 876.25,-300 876.25,-294 876.25,-294 876.25,-282 876.25,-282 876.25,-276 882.25,-270 888.25,-270 888.25,-270 971.75,-270 971.75,-270 977.75,-270 983.75,-276 983.75,-282 983.75,-282 983.75,-294 983.75,-294 983.75,-300 977.75,-306 971.75,-306"/>
<text text-anchor="middle" x="930" y="-282.75" font-family="Arial" font-size="15.00">canvas_panel</text>
</g>
<!-- /lib/panels/canvas_panel.dart&#45;&gt;/lib/models/app_model.dart -->
<g id="edge3" class="edge">
<title>/lib/panels/canvas_panel.dart&#45;&gt;/lib/models/app_model.dart</title>
<path fill="none" stroke="#aabbaa" stroke-width="1.3" stroke-opacity="0.533333" d="M875.81,-288C669.41,-288 463.01,-288 256.62,-288"/>
<polygon fill="#aabbaa" fill-opacity="0.533333" stroke="#aabbaa" stroke-width="1.3" stroke-opacity="0.533333" points="256.88,-284.5 246.88,-288 256.88,-291.5 256.88,-284.5"/>
</g>
<!-- /lib/widgets/transparent_background.dart -->
<g id="node24" class="node">
<title>/lib/widgets/transparent_background.dart</title>
<path fill="Lavender" stroke="black" stroke-width="1.3" d="M1006.38,-223C1006.38,-223 851.62,-223 851.62,-223 845.62,-223 839.62,-217 839.62,-211 839.62,-211 839.62,-199 839.62,-199 839.62,-193 845.62,-187 851.62,-187 851.62,-187 1006.38,-187 1006.38,-187 1012.38,-187 1018.38,-193 1018.38,-199 1018.38,-199 1018.38,-211 1018.38,-211 1018.38,-217 1012.38,-223 1006.38,-223"/>
<text text-anchor="middle" x="929" y="-199.75" font-family="Arial" font-size="15.00">transparent_background</text>
</g>
<!-- /lib/panels/canvas_panel.dart&#45;&gt;/lib/widgets/transparent_background.dart -->
<g id="edge4" class="edge">
<title>/lib/panels/canvas_panel.dart&#45;&gt;/lib/widgets/transparent_background.dart</title>
<path fill="none" stroke="#aabbaa" stroke-width="1.3" stroke-opacity="0.533333" d="M929.79,-269.82C929.66,-259.8 929.5,-246.88 929.36,-235.29"/>
<polygon fill="#aabbaa" fill-opacity="0.533333" stroke="#aabbaa" stroke-width="1.3" stroke-opacity="0.533333" points="932.86,-235.36 929.24,-225.4 925.86,-235.44 932.86,-235.36"/>
</g>
<!-- /lib/panels/layer_selector.dart -->
<g id="node5" class="node">
<title>/lib/panels/layer_selector.dart</title>
<path fill="Lavender" stroke="black" stroke-width="1.3" d="M1207.5,-378C1207.5,-378 1122.5,-378 1122.5,-378 1116.5,-378 1110.5,-372 1110.5,-366 1110.5,-366 1110.5,-354 1110.5,-354 1110.5,-348 1116.5,-342 1122.5,-342 1122.5,-342 1207.5,-342 1207.5,-342 1213.5,-342 1219.5,-348 1219.5,-354 1219.5,-354 1219.5,-366 1219.5,-366 1219.5,-372 1213.5,-378 1207.5,-378"/>
<text text-anchor="middle" x="1165" y="-354.75" font-family="Arial" font-size="15.00">layer_selector</text>
</g>
<!-- /lib/panels/layer_selector.dart&#45;&gt;/lib/models/app_model.dart -->
<g id="edge5" class="edge">
<title>/lib/panels/layer_selector.dart&#45;&gt;/lib/models/app_model.dart</title>
<path fill="none" stroke="#aabbaa" stroke-width="1.3" stroke-opacity="0.533333" d="M1126.36,-341.61C1118.13,-338.57 1109.4,-335.8 1101,-334 938.83,-299.24 428.3,-291.19 256.82,-289.45"/>
<polygon fill="#aabbaa" fill-opacity="0.533333" stroke="#aabbaa" stroke-width="1.3" stroke-opacity="0.533333" points="257.07,-285.95 247.03,-289.36 257,-292.95 257.07,-285.95"/>
</g>
<!-- /lib/widgets/truncated_text.dart -->
<g id="node22" class="node">
<title>/lib/widgets/truncated_text.dart</title>
<path fill="Lavender" stroke="black" stroke-width="1.3" d="M810,-223C810,-223 722,-223 722,-223 716,-223 710,-217 710,-211 710,-211 710,-199 710,-199 710,-193 716,-187 722,-187 722,-187 810,-187 810,-187 816,-187 822,-193 822,-199 822,-199 822,-211 822,-211 822,-217 816,-223 810,-223"/>
<text text-anchor="middle" x="766" y="-199.75" font-family="Arial" font-size="15.00">truncated_text</text>
</g>
<!-- /lib/panels/layer_selector.dart&#45;&gt;/lib/widgets/truncated_text.dart -->
<g id="edge6" class="edge">
<title>/lib/panels/layer_selector.dart&#45;&gt;/lib/widgets/truncated_text.dart</title>
<path fill="none" stroke="#aabbaa" stroke-width="1.3" stroke-opacity="0.533333" d="M1124.88,-341.55C1117.07,-338.66 1108.87,-335.97 1101,-334 999.4,-308.52 961.33,-351.54 867,-306 865.81,-305.43 821.09,-260.94 791.56,-231.51"/>
<polygon fill="#aabbaa" fill-opacity="0.533333" stroke="#aabbaa" stroke-width="1.3" stroke-opacity="0.533333" points="794.26,-229.26 784.71,-224.67 789.32,-234.21 794.26,-229.26"/>
</g>
<!-- /lib/panels/side_panel.dart -->
<g id="node6" class="node">
<title>/lib/panels/side_panel.dart</title>
<path fill="Lavender" stroke="black" stroke-width="1.3" d="M951.62,-525C951.62,-525 888.38,-525 888.38,-525 882.38,-525 876.38,-519 876.38,-513 876.38,-513 876.38,-501 876.38,-501 876.38,-495 882.38,-489 888.38,-489 888.38,-489 951.62,-489 951.62,-489 957.62,-489 963.62,-495 963.62,-501 963.62,-501 963.62,-513 963.62,-513 963.62,-519 957.62,-525 951.62,-525"/>
<text text-anchor="middle" x="920" y="-501.75" font-family="Arial" font-size="15.00">side_panel</text>
</g>
<!-- /lib/panels/tools_panel.dart -->
<g id="node8" class="node">
<title>/lib/panels/tools_panel.dart</title>
<path fill="Lavender" stroke="black" stroke-width="1.3" d="M955.88,-450C955.88,-450 888.12,-450 888.12,-450 882.12,-450 876.12,-444 876.12,-438 876.12,-438 876.12,-426 876.12,-426 876.12,-420 882.12,-414 888.12,-414 888.12,-414 955.88,-414 955.88,-414 961.88,-414 967.88,-420 967.88,-426 967.88,-426 967.88,-438 967.88,-438 967.88,-444 961.88,-450 955.88,-450"/>
<text text-anchor="middle" x="922" y="-426.75" font-family="Arial" font-size="15.00">tools_panel</text>
</g>
<!-- /lib/panels/side_panel.dart&#45;&gt;/lib/panels/tools_panel.dart -->
<g id="edge10" class="edge">
<title>/lib/panels/side_panel.dart&#45;&gt;/lib/panels/tools_panel.dart</title>
<path fill="none" stroke="#aabbaa" stroke-width="1.3" stroke-opacity="0.533333" d="M920.47,-488.7C920.69,-480.76 920.96,-471.12 921.2,-462.11"/>
<polygon fill="#aabbaa" fill-opacity="0.533333" stroke="#aabbaa" stroke-width="1.3" stroke-opacity="0.533333" points="924.69,-462.49 921.47,-452.4 917.7,-462.3 924.69,-462.49"/>
</g>
<!-- /lib/panels/layers_panel.dart -->
<g id="node9" class="node">
<title>/lib/panels/layers_panel.dart</title>
<path fill="Lavender" stroke="black" stroke-width="1.3" d="M1074,-450C1074,-450 998,-450 998,-450 992,-450 986,-444 986,-438 986,-438 986,-426 986,-426 986,-420 992,-414 998,-414 998,-414 1074,-414 1074,-414 1080,-414 1086,-420 1086,-426 1086,-426 1086,-438 1086,-438 1086,-444 1080,-450 1074,-450"/>
<text text-anchor="middle" x="1036" y="-426.75" font-family="Arial" font-size="15.00">layers_panel</text>
</g>
<!-- /lib/panels/side_panel.dart&#45;&gt;/lib/panels/layers_panel.dart -->
<g id="edge9" class="edge">
<title>/lib/panels/side_panel.dart&#45;&gt;/lib/panels/layers_panel.dart</title>
<path fill="none" stroke="#aabbaa" stroke-width="1.3" stroke-opacity="0.533333" d="M963.27,-488.51C968,-486.16 972.67,-483.65 977,-481 987.82,-474.39 998.82,-465.99 1008.35,-458.07"/>
<polygon fill="#aabbaa" fill-opacity="0.533333" stroke="#aabbaa" stroke-width="1.3" stroke-opacity="0.533333" points="1010.5,-460.83 1015.82,-451.67 1005.95,-455.52 1010.5,-460.83"/>
</g>
<!-- /lib/panels/side_panel.dart&#45;&gt;/lib/models/app_model.dart -->
<g id="edge8" class="edge">
<title>/lib/panels/side_panel.dart&#45;&gt;/lib/models/app_model.dart</title>
<path fill="none" stroke="#aabbaa" stroke-width="1.3" stroke-opacity="0.533333" d="M875.95,-489.79C874.62,-489.5 873.31,-489.23 872,-489 855.18,-486 269.68,-492.45 257,-481 232.59,-458.96 253.44,-364.01 240,-334 236.97,-327.24 232.56,-320.77 227.75,-314.95"/>
<polygon fill="#aabbaa" fill-opacity="0.533333" stroke="#aabbaa" stroke-width="1.3" stroke-opacity="0.533333" points="230.64,-312.93 221.34,-307.86 225.45,-317.63 230.64,-312.93"/>
</g>
<!-- /lib/files/import_files.dart -->
<g id="node18" class="node">
<title>/lib/files/import_files.dart</title>
<path fill="Lavender" stroke="black" stroke-width="1.3" d="M349.25,-450C349.25,-450 280.75,-450 280.75,-450 274.75,-450 268.75,-444 268.75,-438 268.75,-438 268.75,-426 268.75,-426 268.75,-420 274.75,-414 280.75,-414 280.75,-414 349.25,-414 349.25,-414 355.25,-414 361.25,-420 361.25,-426 361.25,-426 361.25,-438 361.25,-438 361.25,-444 355.25,-450 349.25,-450"/>
<text text-anchor="middle" x="315" y="-426.75" font-family="Arial" font-size="15.00">import_files</text>
</g>
<!-- /lib/panels/side_panel.dart&#45;&gt;/lib/files/import_files.dart -->
<g id="edge7" class="edge">
<title>/lib/panels/side_panel.dart&#45;&gt;/lib/files/import_files.dart</title>
<path fill="none" stroke="#aabbaa" stroke-width="1.3" stroke-opacity="0.533333" d="M875.94,-489.79C874.62,-489.5 873.31,-489.24 872,-489 844.6,-484.07 397.03,-490.87 371,-481 358.48,-476.25 346.84,-467.38 337.46,-458.53"/>
<polygon fill="#aabbaa" fill-opacity="0.533333" stroke="#aabbaa" stroke-width="1.3" stroke-opacity="0.533333" points="340.11,-456.23 330.58,-451.6 335.14,-461.16 340.11,-456.23"/>
</g>
<!-- /lib/panels/share_panel.dart -->
<g id="node7" class="node">
<title>/lib/panels/share_panel.dart</title>
<path fill="Lavender" stroke="black" stroke-width="1.3" d="M961.88,-378C961.88,-378 888.12,-378 888.12,-378 882.12,-378 876.12,-372 876.12,-366 876.12,-366 876.12,-354 876.12,-354 876.12,-348 882.12,-342 888.12,-342 888.12,-342 961.88,-342 961.88,-342 967.88,-342 973.88,-348 973.88,-354 973.88,-354 973.88,-366 973.88,-366 973.88,-372 967.88,-378 961.88,-378"/>
<text text-anchor="middle" x="925" y="-354.75" font-family="Arial" font-size="15.00">share_panel</text>
</g>
<!-- /lib/panels/share_panel.dart&#45;&gt;/lib/panels/canvas_panel.dart -->
<g id="edge12" class="edge">
<title>/lib/panels/share_panel.dart&#45;&gt;/lib/panels/canvas_panel.dart</title>
<path fill="none" stroke="#aabbaa" stroke-width="1.3" stroke-opacity="0.533333" d="M926.24,-341.7C926.75,-334.49 927.36,-325.93 927.94,-317.82"/>
<polygon fill="#aabbaa" fill-opacity="0.533333" stroke="#aabbaa" stroke-width="1.3" stroke-opacity="0.533333" points="931.42,-318.29 928.64,-308.07 924.43,-317.79 931.42,-318.29"/>
</g>
<!-- /lib/panels/share_panel.dart&#45;&gt;/lib/models/app_model.dart -->
<g id="edge11" class="edge">
<title>/lib/panels/share_panel.dart&#45;&gt;/lib/models/app_model.dart</title>
<path fill="none" stroke="#aabbaa" stroke-width="1.3" stroke-opacity="0.533333" d="M875.85,-342.23C864.82,-339.02 853.1,-336.03 842,-334 628.6,-294.89 369.57,-289.22 256.91,-288.76"/>
<polygon fill="#aabbaa" fill-opacity="0.533333" stroke="#aabbaa" stroke-width="1.3" stroke-opacity="0.533333" points="257.16,-285.26 247.15,-288.74 257.14,-292.26 257.16,-285.26"/>
</g>
<!-- /lib/panels/tools_panel.dart&#45;&gt;/lib/panels/tool_selector.dart -->
<g id="edge14" class="edge">
<title>/lib/panels/tools_panel.dart&#45;&gt;/lib/panels/tool_selector.dart</title>
<path fill="none" stroke="#aabbaa" stroke-width="1.3" stroke-opacity="0.533333" d="M951.97,-413.52C967.26,-404.6 986.06,-393.63 1002.52,-384.03"/>
<polygon fill="#aabbaa" fill-opacity="0.533333" stroke="#aabbaa" stroke-width="1.3" stroke-opacity="0.533333" points="1003.84,-387.31 1010.71,-379.25 1000.31,-381.27 1003.84,-387.31"/>
</g>
<!-- /lib/panels/tools_panel.dart&#45;&gt;/lib/models/app_model.dart -->
<g id="edge13" class="edge">
<title>/lib/panels/tools_panel.dart&#45;&gt;/lib/models/app_model.dart</title>
<path fill="none" stroke="#aabbaa" stroke-width="1.3" stroke-opacity="0.533333" d="M875.75,-421.26C848.52,-413.49 815.02,-400.13 792,-378 776.51,-363.11 789.59,-346.33 772,-334 730.48,-304.9 393.18,-293.62 256.86,-290.23"/>
<polygon fill="#aabbaa" fill-opacity="0.533333" stroke="#aabbaa" stroke-width="1.3" stroke-opacity="0.533333" points="257.12,-286.73 247.04,-289.99 256.95,-293.73 257.12,-286.73"/>
</g>
<!-- /lib/widgets/brush_size_picker.dart -->
<g id="node23" class="node">
<title>/lib/widgets/brush_size_picker.dart</title>
<path fill="Lavender" stroke="black" stroke-width="1.3" d="M680,-223C680,-223 568,-223 568,-223 562,-223 556,-217 556,-211 556,-211 556,-199 556,-199 556,-193 562,-187 568,-187 568,-187 680,-187 680,-187 686,-187 692,-193 692,-199 692,-199 692,-211 692,-211 692,-217 686,-223 680,-223"/>
<text text-anchor="middle" x="624" y="-199.75" font-family="Arial" font-size="15.00">brush_size_picker</text>
</g>
<!-- /lib/panels/tools_panel.dart&#45;&gt;/lib/widgets/brush_size_picker.dart -->
<g id="edge15" class="edge">
<title>/lib/panels/tools_panel.dart&#45;&gt;/lib/widgets/brush_size_picker.dart</title>
<path fill="none" stroke="#aabbaa" stroke-width="1.3" stroke-opacity="0.533333" d="M890.43,-413.62C876.23,-404.53 860.19,-392.31 849,-378 840.43,-367.05 813.22,-270.22 802,-262 783.84,-248.69 722.38,-261.04 701,-254 684.79,-248.66 668.5,-239.24 655.11,-230.15"/>
<polygon fill="#aabbaa" fill-opacity="0.533333" stroke="#aabbaa" stroke-width="1.3" stroke-opacity="0.533333" points="657.27,-227.39 647.09,-224.47 653.23,-233.1 657.27,-227.39"/>
</g>
<!-- /lib/panels/tools_panel.dart&#45;&gt;/lib/widgets/transparent_background.dart -->
<g id="edge17" class="edge">
<title>/lib/panels/tools_panel.dart&#45;&gt;/lib/widgets/transparent_background.dart</title>
<path fill="none" stroke="#aabbaa" stroke-width="1.3" stroke-opacity="0.533333" d="M896.33,-413.72C885.08,-404.58 873.07,-392.28 867,-378 846.83,-330.55 846.07,-309.11 867,-262 872.37,-249.92 881.77,-239.35 891.65,-230.74"/>
<polygon fill="#aabbaa" fill-opacity="0.533333" stroke="#aabbaa" stroke-width="1.3" stroke-opacity="0.533333" points="893.64,-233.63 899.23,-224.63 889.24,-228.18 893.64,-233.63"/>
</g>
<!-- /lib/widgets/color_picker.dart -->
<g id="node26" class="node">
<title>/lib/widgets/color_picker.dart</title>
<path fill="Lavender" stroke="black" stroke-width="1.3" d="M526.12,-223C526.12,-223 453.88,-223 453.88,-223 447.88,-223 441.88,-217 441.88,-211 441.88,-211 441.88,-199 441.88,-199 441.88,-193 447.88,-187 453.88,-187 453.88,-187 526.12,-187 526.12,-187 532.12,-187 538.12,-193 538.12,-199 538.12,-199 538.12,-211 538.12,-211 538.12,-217 532.12,-223 526.12,-223"/>
<text text-anchor="middle" x="490" y="-199.75" font-family="Arial" font-size="15.00">color_picker</text>
</g>
<!-- /lib/panels/tools_panel.dart&#45;&gt;/lib/widgets/color_picker.dart -->
<g id="edge16" class="edge">
<title>/lib/panels/tools_panel.dart&#45;&gt;/lib/widgets/color_picker.dart</title>
<path fill="none" stroke="#aabbaa" stroke-width="1.3" stroke-opacity="0.533333" d="M885.1,-413.56C867.06,-404.21 845.52,-391.79 828,-378 807,-361.46 809.49,-348.45 787,-334 692.41,-273.21 645.08,-308.97 547,-254 536,-247.83 525.11,-239.4 515.84,-231.32"/>
<polygon fill="#aabbaa" fill-opacity="0.533333" stroke="#aabbaa" stroke-width="1.3" stroke-opacity="0.533333" points="518.39,-228.91 508.63,-224.78 513.68,-234.09 518.39,-228.91"/>
</g>
<!-- /lib/panels/layers_panel.dart&#45;&gt;/lib/panels/layer_selector.dart -->
<g id="edge19" class="edge">
<title>/lib/panels/layers_panel.dart&#45;&gt;/lib/panels/layer_selector.dart</title>
<path fill="none" stroke="#aabbaa" stroke-width="1.3" stroke-opacity="0.533333" d="M1068.22,-413.52C1084.74,-404.55 1105.06,-393.53 1122.81,-383.9"/>
<polygon fill="#aabbaa" fill-opacity="0.533333" stroke="#aabbaa" stroke-width="1.3" stroke-opacity="0.533333" points="1124.34,-387.04 1131.46,-379.2 1121,-380.89 1124.34,-387.04"/>
</g>
<!-- /lib/panels/layers_panel.dart&#45;&gt;/lib/panels/share_panel.dart -->
<g id="edge20" class="edge">
<title>/lib/panels/layers_panel.dart&#45;&gt;/lib/panels/share_panel.dart</title>
<path fill="none" stroke="#aabbaa" stroke-width="1.3" stroke-opacity="0.533333" d="M1008.28,-413.52C994.4,-404.76 977.4,-394.04 962.38,-384.58"/>
<polygon fill="#aabbaa" fill-opacity="0.533333" stroke="#aabbaa" stroke-width="1.3" stroke-opacity="0.533333" points="964.36,-381.68 954.03,-379.31 960.63,-387.6 964.36,-381.68"/>
</g>
<!-- /lib/panels/layers_panel.dart&#45;&gt;/lib/models/app_model.dart -->
<g id="edge18" class="edge">
<title>/lib/panels/layers_panel.dart&#45;&gt;/lib/models/app_model.dart</title>
<path fill="none" stroke="#aabbaa" stroke-width="1.3" stroke-opacity="0.533333" d="M985.63,-416.41C944.04,-404.14 888.49,-387.17 867,-378 829.68,-362.07 825.89,-345.59 787,-334 688.79,-304.73 384.26,-293.7 256.9,-290.3"/>
<polygon fill="#aabbaa" fill-opacity="0.533333" stroke="#aabbaa" stroke-width="1.3" stroke-opacity="0.533333" points="257.2,-286.81 247.11,-290.04 257.01,-293.8 257.2,-286.81"/>
</g>
<!-- /lib/models/layers.dart -->
<g id="node10" class="node">
<title>/lib/models/layers.dart</title>
<path fill="Lavender" stroke="black" stroke-width="1.3" d="M154.88,-450C154.88,-450 123.12,-450 123.12,-450 117.12,-450 111.12,-444 111.12,-438 111.12,-438 111.12,-426 111.12,-426 111.12,-420 117.12,-414 123.12,-414 123.12,-414 154.88,-414 154.88,-414 160.88,-414 166.88,-420 166.88,-426 166.88,-426 166.88,-438 166.88,-438 166.88,-444 160.88,-450 154.88,-450"/>
<text text-anchor="middle" x="139" y="-426.75" font-family="Arial" font-size="15.00">layers</text>
</g>
<!-- /lib/models/layer.dart -->
<g id="node13" class="node">
<title>/lib/models/layer.dart</title>
<path fill="Lavender" stroke="black" stroke-width="1.3" d="M154,-378C154,-378 124,-378 124,-378 118,-378 112,-372 112,-366 112,-366 112,-354 112,-354 112,-348 118,-342 124,-342 124,-342 154,-342 154,-342 160,-342 166,-348 166,-354 166,-354 166,-366 166,-366 166,-372 160,-378 154,-378"/>
<text text-anchor="middle" x="139" y="-354.75" font-family="Arial" font-size="15.00">layer</text>
</g>
<!-- /lib/models/layers.dart&#45;&gt;/lib/models/layer.dart -->
<g id="edge22" class="edge">
<title>/lib/models/layers.dart&#45;&gt;/lib/models/layer.dart</title>
<path fill="none" stroke="#aabbaa" stroke-width="1.3" stroke-opacity="0.533333" d="M133.08,-413.7C132.34,-406.49 132.09,-397.93 132.34,-389.82"/>
<polygon fill="#aabbaa" fill-opacity="0.533333" stroke="#aabbaa" stroke-width="1.3" stroke-opacity="0.533333" points="135.82,-390.27 132.98,-380.07 128.84,-389.82 135.82,-390.27"/>
</g>
<!-- /lib/models/layers.dart&#45;&gt;/lib/models/layer.dart -->
<g id="edge23" class="edge">
<title>/lib/models/layers.dart&#45;&gt;/lib/models/layer.dart</title>
<path fill="none" stroke="#aabbaa" stroke-width="1.3" stroke-dasharray="5,2" stroke-opacity="0.533333" d="M144.92,-413.7C145.66,-406.49 145.91,-397.93 145.66,-389.82"/>
<polygon fill="#aabbaa" fill-opacity="0.533333" stroke="#aabbaa" stroke-width="1.3" stroke-opacity="0.533333" points="149.16,-389.82 145.02,-380.07 142.18,-390.27 149.16,-389.82"/>
</g>
<!-- /lib/helpers/list_helper.dart -->
<g id="node20" class="node">
<title>/lib/helpers/list_helper.dart</title>
<path fill="Lavender" stroke="black" stroke-width="1.3" d="M402.75,-68C402.75,-68 343.25,-68 343.25,-68 337.25,-68 331.25,-62 331.25,-56 331.25,-56 331.25,-44 331.25,-44 331.25,-38 337.25,-32 343.25,-32 343.25,-32 402.75,-32 402.75,-32 408.75,-32 414.75,-38 414.75,-44 414.75,-44 414.75,-56 414.75,-56 414.75,-62 408.75,-68 402.75,-68"/>
<text text-anchor="middle" x="373" y="-44.75" font-family="Arial" font-size="15.00">list_helper</text>
</g>
<!-- /lib/models/layers.dart&#45;&gt;/lib/helpers/list_helper.dart -->
<g id="edge21" class="edge">
<title>/lib/models/layers.dart&#45;&gt;/lib/helpers/list_helper.dart</title>
<path fill="none" stroke="#aabbaa" stroke-width="1.3" stroke-opacity="0.533333" d="M114.43,-413.66C74.88,-383.5 4.49,-319.13 35,-262 94.39,-150.77 240.58,-90.96 319.84,-65.74"/>
<polygon fill="#aabbaa" fill-opacity="0.533333" stroke="#aabbaa" stroke-width="1.3" stroke-opacity="0.533333" points="320.64,-69.16 329.15,-62.85 318.56,-62.47 320.64,-69.16"/>
</g>
<!-- /lib/models/user_action.dart -->
<g id="node11" class="node">
<title>/lib/models/user_action.dart</title>
<path fill="Lavender" stroke="black" stroke-width="1.3" d="M125.62,-306C125.62,-306 56.38,-306 56.38,-306 50.38,-306 44.38,-300 44.38,-294 44.38,-294 44.38,-282 44.38,-282 44.38,-276 50.38,-270 56.38,-270 56.38,-270 125.62,-270 125.62,-270 131.62,-270 137.62,-276 137.62,-282 137.62,-282 137.62,-294 137.62,-294 137.62,-300 131.62,-306 125.62,-306"/>
<text text-anchor="middle" x="91" y="-282.75" font-family="Arial" font-size="15.00">user_action</text>
</g>
<!-- /lib/widgets/brush_style_picker.dart -->
<g id="node25" class="node">
<title>/lib/widgets/brush_style_picker.dart</title>
<path fill="Lavender" stroke="black" stroke-width="1.3" d="M412.25,-223C412.25,-223 295.75,-223 295.75,-223 289.75,-223 283.75,-217 283.75,-211 283.75,-211 283.75,-199 283.75,-199 283.75,-193 289.75,-187 295.75,-187 295.75,-187 412.25,-187 412.25,-187 418.25,-187 424.25,-193 424.25,-199 424.25,-199 424.25,-211 424.25,-211 424.25,-217 418.25,-223 412.25,-223"/>
<text text-anchor="middle" x="354" y="-199.75" font-family="Arial" font-size="15.00">brush_style_picker</text>
</g>
<!-- /lib/models/user_action.dart&#45;&gt;/lib/widgets/brush_style_picker.dart -->
<g id="edge24" class="edge">
<title>/lib/models/user_action.dart&#45;&gt;/lib/widgets/brush_style_picker.dart</title>
<path fill="none" stroke="#aabbaa" stroke-width="1.3" stroke-opacity="0.533333" d="M118.18,-269.61C124.29,-266.88 130.78,-264.23 137,-262 180.66,-246.32 230.85,-232.69 272.01,-222.8"/>
<polygon fill="#aabbaa" fill-opacity="0.533333" stroke="#aabbaa" stroke-width="1.3" stroke-opacity="0.533333" points="272.8,-226.21 281.72,-220.5 271.19,-219.4 272.8,-226.21"/>
</g>
<!-- /lib/models/user_action.dart&#45;&gt;/lib/widgets/brush_style_picker.dart -->
<g id="edge25" class="edge">
<title>/lib/models/user_action.dart&#45;&gt;/lib/widgets/brush_style_picker.dart</title>
<path fill="none" stroke="#aabbaa" stroke-width="1.3" stroke-dasharray="5,2" stroke-opacity="0.533333" d="M135.91,-269.61C142.29,-266.88 148.78,-264.23 155,-262 193.75,-248.08 237.65,-235.78 274.38,-226.27"/>
<polygon fill="#aabbaa" fill-opacity="0.533333" stroke="#aabbaa" stroke-width="1.3" stroke-opacity="0.533333" points="274.81,-229.77 283.63,-223.9 273.07,-222.99 274.81,-229.77"/>
</g>
<!-- /lib/models/app_model.dart&#45;&gt;/lib/models/layers.dart -->
<g id="edge26" class="edge">
<title>/lib/models/app_model.dart&#45;&gt;/lib/models/layers.dart</title>
<path fill="none" stroke="#aabbaa" stroke-width="1.3" stroke-opacity="0.533333" d="M189.73,-306.27C181.43,-328.35 171.92,-365.27 166,-378 161.89,-386.84 156.38,-395.83 151.26,-403.84"/>
<polygon fill="#aabbaa" fill-opacity="0.533333" stroke="#aabbaa" stroke-width="1.3" stroke-opacity="0.533333" points="148.45,-401.75 145.99,-412.06 154.34,-405.53 148.45,-401.75"/>
</g>
<!-- /lib/models/app_model.dart&#45;&gt;/lib/models/layers.dart -->
<g id="edge27" class="edge">
<title>/lib/models/app_model.dart&#45;&gt;/lib/models/layers.dart</title>
<path fill="none" stroke="#aabbaa" stroke-width="1.3" stroke-dasharray="5,2" stroke-opacity="0.533333" d="M201.98,-306.27C199.43,-328.35 189.92,-365.27 184,-378 179.8,-387.04 174.13,-396.24 168.15,-404.38"/>
<polygon fill="#aabbaa" fill-opacity="0.533333" stroke="#aabbaa" stroke-width="1.3" stroke-opacity="0.533333" points="165.45,-402.15 162,-412.17 170.94,-406.49 165.45,-402.15"/>
</g>
<!-- /lib/models/layer.dart&#45;&gt;/lib/models/user_action.dart -->
<g id="edge29" class="edge">
<title>/lib/models/layer.dart&#45;&gt;/lib/models/user_action.dart</title>
<path fill="none" stroke="#aabbaa" stroke-width="1.3" stroke-dasharray="5,2" stroke-opacity="0.533333" d="M127.13,-341.7C121.79,-333.9 115.35,-324.51 109.4,-315.83"/>
<polygon fill="#aabbaa" fill-opacity="0.533333" stroke="#aabbaa" stroke-width="1.3" stroke-opacity="0.533333" points="112.38,-314 103.84,-307.73 106.61,-317.95 112.38,-314"/>
</g>
<!-- /lib/models/layer.dart&#45;&gt;/lib/models/app_model.dart -->
<g id="edge28" class="edge">
<title>/lib/models/layer.dart&#45;&gt;/lib/models/app_model.dart</title>
<path fill="none" stroke="#aabbaa" stroke-width="1.3" stroke-opacity="0.533333" d="M154.08,-341.7C161.1,-333.64 169.59,-323.89 177.36,-314.98"/>
<polygon fill="#aabbaa" fill-opacity="0.533333" stroke="#aabbaa" stroke-width="1.3" stroke-opacity="0.533333" points="179.87,-317.43 183.8,-307.59 174.59,-312.83 179.87,-317.43"/>
</g>
<!-- /lib/main.dart&#45;&gt;/lib/models/app_model.dart -->
<g id="edge31" class="edge">
<title>/lib/main.dart&#45;&gt;/lib/models/app_model.dart</title>
<path fill="none" stroke="#aabbaa" stroke-width="1.3" stroke-opacity="0.533333" d="M215.43,-635.64C211.64,-608.47 205,-554.25 205,-508 205,-508 205,-508 205,-431 205,-391.89 203.08,-346.76 201.62,-318.07"/>
<polygon fill="#aabbaa" fill-opacity="0.533333" stroke="#aabbaa" stroke-width="1.3" stroke-opacity="0.533333" points="205.14,-318.25 201.12,-308.45 198.15,-318.62 205.14,-318.25"/>
</g>
<!-- /lib/main_screen.dart -->
<g id="node19" class="node">
<title>/lib/main_screen.dart</title>
<path fill="Lavender" stroke="black" stroke-width="1.3" d="M638.75,-600C638.75,-600 561.25,-600 561.25,-600 555.25,-600 549.25,-594 549.25,-588 549.25,-588 549.25,-576 549.25,-576 549.25,-570 555.25,-564 561.25,-564 561.25,-564 638.75,-564 638.75,-564 644.75,-564 650.75,-570 650.75,-576 650.75,-576 650.75,-588 650.75,-588 650.75,-594 644.75,-600 638.75,-600"/>
<text text-anchor="middle" x="600" y="-576.75" font-family="Arial" font-size="15.00">main_screen</text>
</g>
<!-- /lib/main.dart&#45;&gt;/lib/main_screen.dart -->
<g id="edge30" class="edge">
<title>/lib/main.dart&#45;&gt;/lib/main_screen.dart</title>
<path fill="none" stroke="#aabbaa" stroke-width="1.3" stroke-opacity="0.533333" d="M245.47,-647.97C306.11,-636.85 452.7,-609.99 537.17,-594.51"/>
<polygon fill="#aabbaa" fill-opacity="0.533333" stroke="#aabbaa" stroke-width="1.3" stroke-opacity="0.533333" points="537.78,-597.96 546.98,-592.72 536.52,-591.08 537.78,-597.96"/>
</g>
<!-- /lib/files/export_download_web.dart -->
<g id="node15" class="node">
<title>/lib/files/export_download_web.dart</title>
<path fill="Lavender" stroke="black" stroke-width="1.3" d="M532.25,-450C532.25,-450 391.75,-450 391.75,-450 385.75,-450 379.75,-444 379.75,-438 379.75,-438 379.75,-426 379.75,-426 379.75,-420 385.75,-414 391.75,-414 391.75,-414 532.25,-414 532.25,-414 538.25,-414 544.25,-420 544.25,-426 544.25,-426 544.25,-438 544.25,-438 544.25,-444 538.25,-450 532.25,-450"/>
<text text-anchor="middle" x="462" y="-426.75" font-family="Arial" font-size="15.00">export_download_web</text>
</g>
<!-- /lib/files/export_download_web.dart&#45;&gt;/lib/panels/share_panel.dart -->
<g id="edge34" class="edge">
<title>/lib/files/export_download_web.dart&#45;&gt;/lib/panels/share_panel.dart</title>
<path fill="none" stroke="#aabbaa" stroke-width="1.3" stroke-opacity="0.533333" d="M544.31,-415.46C547.24,-414.96 550.15,-414.47 553,-414 662.3,-396.01 790.26,-378.57 864.05,-368.86"/>
<polygon fill="#aabbaa" fill-opacity="0.533333" stroke="#aabbaa" stroke-width="1.3" stroke-opacity="0.533333" points="864.44,-372.34 873.9,-367.57 863.53,-365.4 864.44,-372.34"/>
</g>
<!-- /lib/files/export_download_web.dart&#45;&gt;/lib/models/app_model.dart -->
<g id="edge33" class="edge">
<title>/lib/files/export_download_web.dart&#45;&gt;/lib/models/app_model.dart</title>
<path fill="none" stroke="#aabbaa" stroke-width="1.3" stroke-opacity="0.533333" d="M379.28,-414.93C352.23,-406.93 323.2,-395.15 300,-378 280.76,-363.78 286.22,-350.61 269,-334 260.99,-326.27 251.47,-319.08 242.1,-312.82"/>
<polygon fill="#aabbaa" fill-opacity="0.533333" stroke="#aabbaa" stroke-width="1.3" stroke-opacity="0.533333" points="244.04,-309.9 233.73,-307.46 240.27,-315.8 244.04,-309.9"/>
</g>
<!-- /lib/files/file_ora.dart -->
<g id="node16" class="node">
<title>/lib/files/file_ora.dart</title>
<path fill="Lavender" stroke="black" stroke-width="1.3" d="M376.38,-378C376.38,-378 335.62,-378 335.62,-378 329.62,-378 323.62,-372 323.62,-366 323.62,-366 323.62,-354 323.62,-354 323.62,-348 329.62,-342 335.62,-342 335.62,-342 376.38,-342 376.38,-342 382.38,-342 388.38,-348 388.38,-354 388.38,-354 388.38,-366 388.38,-366 388.38,-372 382.38,-378 376.38,-378"/>
<text text-anchor="middle" x="356" y="-354.75" font-family="Arial" font-size="15.00">file_ora</text>
</g>
<!-- /lib/files/export_download_web.dart&#45;&gt;/lib/files/file_ora.dart -->
<g id="edge32" class="edge">
<title>/lib/files/export_download_web.dart&#45;&gt;/lib/files/file_ora.dart</title>
<path fill="none" stroke="#aabbaa" stroke-width="1.3" stroke-opacity="0.533333" d="M435.53,-413.52C422.4,-404.85 406.35,-394.25 392.11,-384.85"/>
<polygon fill="#aabbaa" fill-opacity="0.533333" stroke="#aabbaa" stroke-width="1.3" stroke-opacity="0.533333" points="394.05,-381.93 383.78,-379.34 390.2,-387.78 394.05,-381.93"/>
</g>
<!-- /lib/files/file_ora.dart&#45;&gt;/lib/models/app_model.dart -->
<g id="edge36" class="edge">
<title>/lib/files/file_ora.dart&#45;&gt;/lib/models/app_model.dart</title>
<path fill="none" stroke="#aabbaa" stroke-width="1.3" stroke-opacity="0.533333" d="M325.06,-341.59C320.07,-338.95 314.93,-336.34 310,-334 292.63,-325.76 273.34,-317.56 255.82,-310.46"/>
<polygon fill="#aabbaa" fill-opacity="0.533333" stroke="#aabbaa" stroke-width="1.3" stroke-opacity="0.533333" points="257.58,-307.39 247,-306.92 254.98,-313.89 257.58,-307.39"/>
</g>
<!-- /lib/files/file_ora.dart&#45;&gt;/lib/helpers/list_helper.dart -->
<g id="edge35" class="edge">
<title>/lib/files/file_ora.dart&#45;&gt;/lib/helpers/list_helper.dart</title>
<path fill="none" stroke="#aabbaa" stroke-width="1.3" stroke-opacity="0.533333" d="M335.78,-341.71C315.21,-322.66 284.6,-289.91 272,-254 260.97,-222.55 262.79,-211.04 272,-179 283.98,-137.32 317.79,-99.69 343.01,-76.19"/>
<polygon fill="#aabbaa" fill-opacity="0.533333" stroke="#aabbaa" stroke-width="1.3" stroke-opacity="0.533333" points="345.33,-78.81 350.4,-69.51 340.63,-73.62 345.33,-78.81"/>
</g>
<!-- /lib/files/export_download_non_web.dart -->
<g id="node17" class="node">
<title>/lib/files/export_download_non_web.dart</title>
<path fill="Lavender" stroke="black" stroke-width="1.3" d="M747.75,-450C747.75,-450 574.25,-450 574.25,-450 568.25,-450 562.25,-444 562.25,-438 562.25,-438 562.25,-426 562.25,-426 562.25,-420 568.25,-414 574.25,-414 574.25,-414 747.75,-414 747.75,-414 753.75,-414 759.75,-420 759.75,-426 759.75,-426 759.75,-438 759.75,-438 759.75,-444 753.75,-450 747.75,-450"/>
<text text-anchor="middle" x="661" y="-426.75" font-family="Arial" font-size="15.00">export_download_non_web</text>
</g>
<!-- /lib/files/export_download_non_web.dart&#45;&gt;/lib/panels/share_panel.dart -->
<g id="edge39" class="edge">
<title>/lib/files/export_download_non_web.dart&#45;&gt;/lib/panels/share_panel.dart</title>
<path fill="none" stroke="#aabbaa" stroke-width="1.3" stroke-opacity="0.533333" d="M726.94,-413.52C769.01,-402.36 823.14,-388.01 864.18,-377.13"/>
<polygon fill="#aabbaa" fill-opacity="0.533333" stroke="#aabbaa" stroke-width="1.3" stroke-opacity="0.533333" points="864.98,-380.54 873.75,-374.59 863.19,-373.77 864.98,-380.54"/>
</g>
<!-- /lib/files/export_download_non_web.dart&#45;&gt;/lib/models/app_model.dart -->
<g id="edge38" class="edge">
<title>/lib/files/export_download_non_web.dart&#45;&gt;/lib/models/app_model.dart</title>
<path fill="none" stroke="#aabbaa" stroke-width="1.3" stroke-opacity="0.533333" d="M561.84,-415.37C558.86,-414.91 555.91,-414.45 553,-414 447.27,-397.68 403.17,-438.59 315,-378 296.46,-365.26 306.32,-349.48 290,-334 280.1,-324.61 267.86,-316.76 255.63,-310.39"/>
<polygon fill="#aabbaa" fill-opacity="0.533333" stroke="#aabbaa" stroke-width="1.3" stroke-opacity="0.533333" points="257.24,-307.27 246.71,-306.03 254.16,-313.56 257.24,-307.27"/>
</g>
<!-- /lib/files/export_download_non_web.dart&#45;&gt;/lib/files/file_ora.dart -->
<g id="edge37" class="edge">
<title>/lib/files/export_download_non_web.dart&#45;&gt;/lib/files/file_ora.dart</title>
<path fill="none" stroke="#aabbaa" stroke-width="1.3" stroke-opacity="0.533333" d="M584.82,-413.52C526.59,-400.15 448.35,-382.2 400.1,-371.12"/>
<polygon fill="#aabbaa" fill-opacity="0.533333" stroke="#aabbaa" stroke-width="1.3" stroke-opacity="0.533333" points="400.95,-367.73 390.42,-368.9 399.39,-374.55 400.95,-367.73"/>
</g>
<!-- /lib/files/import_files.dart&#45;&gt;/lib/models/app_model.dart -->
<g id="edge41" class="edge">
<title>/lib/files/import_files.dart&#45;&gt;/lib/models/app_model.dart</title>
<path fill="none" stroke="#aabbaa" stroke-width="1.3" stroke-opacity="0.533333" d="M303.48,-413.57C285.65,-386.62 253.07,-337.54 250,-334 243.98,-327.05 236.93,-320.12 230.05,-313.85"/>
<polygon fill="#aabbaa" fill-opacity="0.533333" stroke="#aabbaa" stroke-width="1.3" stroke-opacity="0.533333" points="232.81,-311.62 223,-307.62 228.18,-316.86 232.81,-311.62"/>
</g>
<!-- /lib/files/import_files.dart&#45;&gt;/lib/files/file_ora.dart -->
<g id="edge40" class="edge">
<title>/lib/files/import_files.dart&#45;&gt;/lib/files/file_ora.dart</title>
<path fill="none" stroke="#aabbaa" stroke-width="1.3" stroke-opacity="0.533333" d="M325.13,-413.7C329.6,-406.07 334.96,-396.92 339.95,-388.4"/>
<polygon fill="#aabbaa" fill-opacity="0.533333" stroke="#aabbaa" stroke-width="1.3" stroke-opacity="0.533333" points="342.95,-390.2 344.99,-379.8 336.91,-386.66 342.95,-390.2"/>
</g>
<!-- /lib/main_screen.dart&#45;&gt;/lib/panels/canvas_panel.dart -->
<g id="edge42" class="edge">
<title>/lib/main_screen.dart&#45;&gt;/lib/panels/canvas_panel.dart</title>
<path fill="none" stroke="#aabbaa" stroke-width="1.3" stroke-opacity="0.533333" d="M650.92,-580.6C738.65,-579.4 914.5,-574.68 973,-556 1105.01,-513.85 1167.76,-502.31 1229,-378 1237.64,-360.46 1241.76,-348.82 1229,-334 1199.52,-299.75 1074.46,-291.22 995.72,-289.3"/>
<polygon fill="#aabbaa" fill-opacity="0.533333" stroke="#aabbaa" stroke-width="1.3" stroke-opacity="0.533333" points="996.01,-285.8 985.94,-289.09 995.86,-292.8 996.01,-285.8"/>
</g>
<!-- /lib/main_screen.dart&#45;&gt;/lib/panels/side_panel.dart -->
<g id="edge43" class="edge">
<title>/lib/main_screen.dart&#45;&gt;/lib/panels/side_panel.dart</title>
<path fill="none" stroke="#aabbaa" stroke-width="1.3" stroke-opacity="0.533333" d="M651.15,-580.41C718.85,-578.93 834.06,-573.79 872,-556 882.66,-551 892.3,-542.6 900.11,-534.21"/>
<polygon fill="#aabbaa" fill-opacity="0.533333" stroke="#aabbaa" stroke-width="1.3" stroke-opacity="0.533333" points="902.65,-536.62 906.53,-526.76 897.35,-532.05 902.65,-536.62"/>
</g>
<!-- /lib/main_screen.dart&#45;&gt;/lib/models/app_model.dart -->
<g id="edge44" class="edge">
<title>/lib/main_screen.dart&#45;&gt;/lib/models/app_model.dart</title>
<path fill="none" stroke="#aabbaa" stroke-width="1.3" stroke-opacity="0.533333" d="M548.93,-573.47C459.98,-559.32 282.03,-526.06 240,-481 194.52,-432.24 223.9,-399.22 210,-334 208.86,-328.66 207.62,-322.97 206.41,-317.5"/>
<polygon fill="#aabbaa" fill-opacity="0.533333" stroke="#aabbaa" stroke-width="1.3" stroke-opacity="0.533333" points="209.89,-317 204.3,-308 203.05,-318.52 209.89,-317"/>
</g>
<!-- /lib/helpers/color_helper.dart -->
<g id="node21" class="node">
<title>/lib/helpers/color_helper.dart</title>
<path fill="Lavender" stroke="black" stroke-width="1.3" d="M413.88,-140C413.88,-140 340.12,-140 340.12,-140 334.12,-140 328.12,-134 328.12,-128 328.12,-128 328.12,-116 328.12,-116 328.12,-110 334.12,-104 340.12,-104 340.12,-104 413.88,-104 413.88,-104 419.88,-104 425.88,-110 425.88,-116 425.88,-116 425.88,-128 425.88,-128 425.88,-134 419.88,-140 413.88,-140"/>
<text text-anchor="middle" x="377" y="-116.75" font-family="Arial" font-size="15.00">color_helper</text>
</g>
<!-- /lib/helpers/color_helper.dart&#45;&gt;/lib/helpers/list_helper.dart -->
<g id="edge45" class="edge">
<title>/lib/helpers/color_helper.dart&#45;&gt;/lib/helpers/list_helper.dart</title>
<path fill="none" stroke="#aabbaa" stroke-width="1.3" stroke-opacity="0.533333" d="M376.01,-103.7C375.6,-96.49 375.11,-87.93 374.65,-79.82"/>
<polygon fill="#aabbaa" fill-opacity="0.533333" stroke="#aabbaa" stroke-width="1.3" stroke-opacity="0.533333" points="378.15,-79.85 374.09,-70.07 371.17,-80.25 378.15,-79.85"/>
</g>
<!-- /lib/widgets/brush_style_picker.dart&#45;&gt;/lib/models/app_model.dart -->
<g id="edge46" class="edge">
<title>/lib/widgets/brush_style_picker.dart&#45;&gt;/lib/models/app_model.dart</title>
<path fill="none" stroke="#aabbaa" stroke-width="1.3" stroke-opacity="0.533333" d="M320.75,-223.49C298.15,-235.38 268.02,-251.23 243.51,-264.12"/>
<polygon fill="#aabbaa" fill-opacity="0.533333" stroke="#aabbaa" stroke-width="1.3" stroke-opacity="0.533333" points="242,-260.95 234.78,-268.71 245.26,-267.15 242,-260.95"/>
</g>
<!-- /lib/widgets/color_picker.dart&#45;&gt;/lib/helpers/list_helper.dart -->
<g id="edge48" class="edge">
<title>/lib/widgets/color_picker.dart&#45;&gt;/lib/helpers/list_helper.dart</title>
<path fill="none" stroke="#aabbaa" stroke-width="1.3" stroke-opacity="0.533333" d="M482.75,-186.57C473.54,-165.65 456.26,-130.12 435,-104 426.74,-93.85 416.35,-84.11 406.46,-75.82"/>
<polygon fill="#aabbaa" fill-opacity="0.533333" stroke="#aabbaa" stroke-width="1.3" stroke-opacity="0.533333" points="408.72,-73.15 398.74,-69.59 404.32,-78.59 408.72,-73.15"/>
</g>
<!-- /lib/widgets/color_picker.dart&#45;&gt;/lib/helpers/color_helper.dart -->
<g id="edge47" class="edge">
<title>/lib/widgets/color_picker.dart&#45;&gt;/lib/helpers/color_helper.dart</title>
<path fill="none" stroke="#aabbaa" stroke-width="1.3" stroke-opacity="0.533333" d="M465.76,-186.62C449.67,-175.09 428.34,-159.8 410.62,-147.1"/>
<polygon fill="#aabbaa" fill-opacity="0.533333" stroke="#aabbaa" stroke-width="1.3" stroke-opacity="0.533333" points="412.97,-144.48 402.8,-141.49 408.89,-150.16 412.97,-144.48"/>
</g>
</g>
</svg>
