<?xml version="1.0" encoding="UTF-8" standalone="no"?>
<!DOCTYPE svg PUBLIC "-//W3C//DTD SVG 1.1//EN"
 "http://www.w3.org/Graphics/SVG/1.1/DTD/svg11.dtd">
<!-- Generated by graphviz version 12.2.1 (20241206.2353)
 -->
<!-- Pages: 1 -->
<svg width="598pt" height="606pt"
 viewBox="0.00 0.00 598.00 606.00" xmlns="http://www.w3.org/2000/svg" xmlns:xlink="http://www.w3.org/1999/xlink">
<g id="graph0" class="graph" transform="scale(1 1) rotate(0) translate(4 602)">
<polygon fill="white" stroke="none" points="-4,4 -4,-602 594,-602 594,4 -4,4"/>
<g id="clust1" class="cluster">
<title>cluster~</title>
<path fill="none" stroke="lightgray" stroke-width="2.6" d="M20,-8C20,-8 570,-8 570,-8 576,-8 582,-14 582,-20 582,-20 582,-578 582,-578 582,-584 576,-590 570,-590 570,-590 20,-590 20,-590 14,-590 8,-584 8,-578 8,-578 8,-20 8,-20 8,-14 14,-8 20,-8"/>
<text text-anchor="middle" x="295" y="-573.65" font-family="Arial Black" font-size="13.00">fpaint</text>
</g>
<g id="clust2" class="cluster">
<title>cluster~/test</title>
<path fill="none" stroke="lightgray" stroke-width="2.6" d="M51,-484C51,-484 283,-484 283,-484 289,-484 295,-490 295,-496 295,-496 295,-547 295,-547 295,-553 289,-559 283,-559 283,-559 51,-559 51,-559 45,-559 39,-553 39,-547 39,-547 39,-496 39,-496 39,-490 45,-484 51,-484"/>
<text text-anchor="middle" x="167" y="-542.65" font-family="Arial Black" font-size="13.00">test</text>
</g>
<g id="clust3" class="cluster">
<title>cluster~/lib</title>
<path fill="none" stroke="lightgray" stroke-width="2.6" d="M28,-16C28,-16 562,-16 562,-16 568,-16 574,-22 574,-28 574,-28 574,-464 574,-464 574,-470 568,-476 562,-476 562,-476 28,-476 28,-476 22,-476 16,-470 16,-464 16,-464 16,-28 16,-28 16,-22 22,-16 28,-16"/>
<text text-anchor="middle" x="295" y="-459.65" font-family="Arial Black" font-size="13.00">lib</text>
</g>
<g id="clust4" class="cluster">
<title>cluster~/lib/brushes</title>
<path fill="none" stroke="lightgray" stroke-width="2.6" d="M36,-96C36,-96 98,-96 98,-96 104,-96 110,-102 110,-108 110,-108 110,-159 110,-159 110,-165 104,-171 98,-171 98,-171 36,-171 36,-171 30,-171 24,-165 24,-159 24,-159 24,-108 24,-108 24,-102 30,-96 36,-96"/>
<text text-anchor="middle" x="67" y="-154.65" font-family="Arial Black" font-size="13.00">brushes</text>
</g>
<g id="clust5" class="cluster">
<title>cluster~/lib/panels</title>
<path fill="none" stroke="lightgray" stroke-width="2.6" d="M352,-179C352,-179 554,-179 554,-179 560,-179 566,-185 566,-191 566,-191 566,-317 566,-317 566,-323 560,-329 554,-329 554,-329 352,-329 352,-329 346,-329 340,-323 340,-317 340,-317 340,-191 340,-191 340,-185 346,-179 352,-179"/>
<text text-anchor="middle" x="453" y="-312.65" font-family="Arial Black" font-size="13.00">panels</text>
</g>
<g id="clust6" class="cluster">
<title>cluster~/lib/models</title>
<path fill="none" stroke="lightgray" stroke-width="2.6" d="M36,-179C36,-179 200,-179 200,-179 206,-179 212,-185 212,-191 212,-191 212,-317 212,-317 212,-323 206,-329 200,-329 200,-329 36,-329 36,-329 30,-329 24,-323 24,-317 24,-317 24,-191 24,-191 24,-185 30,-179 36,-179"/>
<text text-anchor="middle" x="118" y="-312.65" font-family="Arial Black" font-size="13.00">models</text>
</g>
<g id="clust7" class="cluster">
<title>cluster~/lib/helpers</title>
<path fill="none" stroke="lightgray" stroke-width="2.6" d="M197,-24C197,-24 287,-24 287,-24 293,-24 299,-30 299,-36 299,-36 299,-159 299,-159 299,-165 293,-171 287,-171 287,-171 197,-171 197,-171 191,-171 185,-165 185,-159 185,-159 185,-36 185,-36 185,-30 191,-24 197,-24"/>
<text text-anchor="middle" x="242" y="-154.65" font-family="Arial Black" font-size="13.00">helpers</text>
</g>
<g id="clust8" class="cluster">
<title>cluster~/lib/widgets</title>
<path fill="none" stroke="lightgray" stroke-width="2.6" d="M232,-179C232,-179 320,-179 320,-179 326,-179 332,-185 332,-191 332,-191 332,-242 332,-242 332,-248 326,-254 320,-254 320,-254 232,-254 232,-254 226,-254 220,-248 220,-242 220,-242 220,-191 220,-191 220,-185 226,-179 232,-179"/>
<text text-anchor="middle" x="276" y="-237.65" font-family="Arial Black" font-size="13.00">widgets</text>
</g>
<!-- /test/paint_model_test.dart -->
<g id="node1" class="node">
<title>/test/paint_model_test.dart</title>
<path fill="Lavender" stroke="black" stroke-width="1.3" d="M165,-528C165,-528 59,-528 59,-528 53,-528 47,-522 47,-516 47,-516 47,-504 47,-504 47,-498 53,-492 59,-492 59,-492 165,-492 165,-492 171,-492 177,-498 177,-504 177,-504 177,-516 177,-516 177,-522 171,-528 165,-528"/>
<text text-anchor="middle" x="112" y="-504.75" font-family="Arial" font-size="15.00">paint_model_test</text>
</g>
<!-- /lib/models/app_model.dart -->
<g id="node9" class="node">
<title>/lib/models/app_model.dart</title>
<path fill="Lavender" stroke="black" stroke-width="1.3" d="M191.75,-223C191.75,-223 126.25,-223 126.25,-223 120.25,-223 114.25,-217 114.25,-211 114.25,-211 114.25,-199 114.25,-199 114.25,-193 120.25,-187 126.25,-187 126.25,-187 191.75,-187 191.75,-187 197.75,-187 203.75,-193 203.75,-199 203.75,-199 203.75,-211 203.75,-211 203.75,-217 197.75,-223 191.75,-223"/>
<text text-anchor="middle" x="159" y="-199.75" font-family="Arial" font-size="15.00">app_model</text>
</g>
<!-- /test/paint_model_test.dart&#45;&gt;/lib/models/app_model.dart -->
<g id="edge1" class="edge">
<title>/test/paint_model_test.dart&#45;&gt;/lib/models/app_model.dart</title>
<path fill="none" stroke="#aabbaa" stroke-width="1.3" stroke-opacity="0.533333" d="M109.45,-491.63C104.09,-450.44 94.3,-344.15 122,-262 125.43,-251.84 131.17,-241.75 137.12,-232.99"/>
<polygon fill="#aabbaa" fill-opacity="0.533333" stroke="#aabbaa" stroke-width="1.3" stroke-opacity="0.533333" points="139.88,-235.14 142.92,-224.99 134.22,-231.03 139.88,-235.14"/>
</g>
<!-- /test/widget_test.dart -->
<g id="node2" class="node">
<title>/test/widget_test.dart</title>
<path fill="Lavender" stroke="black" stroke-width="1.3" d="M274.88,-528C274.88,-528 207.12,-528 207.12,-528 201.12,-528 195.12,-522 195.12,-516 195.12,-516 195.12,-504 195.12,-504 195.12,-498 201.12,-492 207.12,-492 207.12,-492 274.88,-492 274.88,-492 280.88,-492 286.88,-498 286.88,-504 286.88,-504 286.88,-516 286.88,-516 286.88,-522 280.88,-528 274.88,-528"/>
<text text-anchor="middle" x="241" y="-504.75" font-family="Arial" font-size="15.00">widget_test</text>
</g>
<!-- /lib/main.dart -->
<g id="node10" class="node">
<title>/lib/main.dart</title>
<path fill="Lavender" stroke="black" stroke-width="1.3" d="M256,-445C256,-445 226,-445 226,-445 220,-445 214,-439 214,-433 214,-433 214,-421 214,-421 214,-415 220,-409 226,-409 226,-409 256,-409 256,-409 262,-409 268,-415 268,-421 268,-421 268,-433 268,-433 268,-439 262,-445 256,-445"/>
<text text-anchor="middle" x="241" y="-421.75" font-family="Arial" font-size="15.00">main</text>
</g>
<!-- /test/widget_test.dart&#45;&gt;/lib/main.dart -->
<g id="edge2" class="edge">
<title>/test/widget_test.dart&#45;&gt;/lib/main.dart</title>
<path fill="none" stroke="#aabbaa" stroke-width="1.3" stroke-opacity="0.533333" d="M241,-491.82C241,-481.8 241,-468.88 241,-457.29"/>
<polygon fill="#aabbaa" fill-opacity="0.533333" stroke="#aabbaa" stroke-width="1.3" stroke-opacity="0.533333" points="244.5,-457.4 241,-447.4 237.5,-457.4 244.5,-457.4"/>
</g>
<!-- /lib/brushes/brushes.dart -->
<g id="node3" class="node">
<title>/lib/brushes/brushes.dart</title>
<path fill="Lavender" stroke="black" stroke-width="1.3" d="M89.62,-140C89.62,-140 44.38,-140 44.38,-140 38.38,-140 32.38,-134 32.38,-128 32.38,-128 32.38,-116 32.38,-116 32.38,-110 38.38,-104 44.38,-104 44.38,-104 89.62,-104 89.62,-104 95.62,-104 101.62,-110 101.62,-116 101.62,-116 101.62,-128 101.62,-128 101.62,-134 95.62,-140 89.62,-140"/>
<text text-anchor="middle" x="67" y="-116.75" font-family="Arial" font-size="15.00">brushes</text>
</g>
<!-- /lib/brushes/brushes.dart&#45;&gt;/lib/models/app_model.dart -->
<g id="edge3" class="edge">
<title>/lib/brushes/brushes.dart&#45;&gt;/lib/models/app_model.dart</title>
<path fill="none" stroke="#aabbaa" stroke-width="1.3" stroke-opacity="0.533333" d="M86.8,-140.43C99.58,-151.69 116.41,-166.51 130.61,-179"/>
<polygon fill="#aabbaa" fill-opacity="0.533333" stroke="#aabbaa" stroke-width="1.3" stroke-opacity="0.533333" points="128.19,-181.54 138.01,-185.52 132.82,-176.29 128.19,-181.54"/>
</g>
<!-- /lib/panels/tools_panel.dart -->
<g id="node4" class="node">
<title>/lib/panels/tools_panel.dart</title>
<path fill="Lavender" stroke="black" stroke-width="1.3" d="M545.88,-298C545.88,-298 478.12,-298 478.12,-298 472.12,-298 466.12,-292 466.12,-286 466.12,-286 466.12,-274 466.12,-274 466.12,-268 472.12,-262 478.12,-262 478.12,-262 545.88,-262 545.88,-262 551.88,-262 557.88,-268 557.88,-274 557.88,-274 557.88,-286 557.88,-286 557.88,-292 551.88,-298 545.88,-298"/>
<text text-anchor="middle" x="512" y="-274.75" font-family="Arial" font-size="15.00">tools_panel</text>
</g>
<!-- /lib/panels/tool.dart -->
<g id="node6" class="node">
<title>/lib/panels/tool.dart</title>
<path fill="Lavender" stroke="black" stroke-width="1.3" d="M527,-223C527,-223 497,-223 497,-223 491,-223 485,-217 485,-211 485,-211 485,-199 485,-199 485,-193 491,-187 497,-187 497,-187 527,-187 527,-187 533,-187 539,-193 539,-199 539,-199 539,-211 539,-211 539,-217 533,-223 527,-223"/>
<text text-anchor="middle" x="512" y="-199.75" font-family="Arial" font-size="15.00">tool</text>
</g>
<!-- /lib/panels/tools_panel.dart&#45;&gt;/lib/panels/tool.dart -->
<g id="edge5" class="edge">
<title>/lib/panels/tools_panel.dart&#45;&gt;/lib/panels/tool.dart</title>
<path fill="none" stroke="#aabbaa" stroke-width="1.3" stroke-opacity="0.533333" d="M512,-261.7C512,-253.76 512,-244.12 512,-235.11"/>
<polygon fill="#aabbaa" fill-opacity="0.533333" stroke="#aabbaa" stroke-width="1.3" stroke-opacity="0.533333" points="515.5,-235.4 512,-225.4 508.5,-235.4 515.5,-235.4"/>
</g>
<!-- /lib/panels/tools_panel.dart&#45;&gt;/lib/models/app_model.dart -->
<g id="edge4" class="edge">
<title>/lib/panels/tools_panel.dart&#45;&gt;/lib/models/app_model.dart</title>
<path fill="none" stroke="#aabbaa" stroke-width="1.3" stroke-opacity="0.533333" d="M465.7,-263.74C462.77,-263.07 459.86,-262.48 457,-262 430.58,-257.56 241.01,-263.6 216,-254 203.37,-249.15 191.55,-240.25 181.98,-231.42"/>
<polygon fill="#aabbaa" fill-opacity="0.533333" stroke="#aabbaa" stroke-width="1.3" stroke-opacity="0.533333" points="184.52,-229.02 174.94,-224.5 179.61,-234.01 184.52,-229.02"/>
</g>
<!-- /lib/widgets/color_picker.dart -->
<g id="node15" class="node">
<title>/lib/widgets/color_picker.dart</title>
<path fill="Lavender" stroke="black" stroke-width="1.3" d="M312.12,-223C312.12,-223 239.88,-223 239.88,-223 233.88,-223 227.88,-217 227.88,-211 227.88,-211 227.88,-199 227.88,-199 227.88,-193 233.88,-187 239.88,-187 239.88,-187 312.12,-187 312.12,-187 318.12,-187 324.12,-193 324.12,-199 324.12,-199 324.12,-211 324.12,-211 324.12,-217 318.12,-223 312.12,-223"/>
<text text-anchor="middle" x="276" y="-199.75" font-family="Arial" font-size="15.00">color_picker</text>
</g>
<!-- /lib/panels/tools_panel.dart&#45;&gt;/lib/widgets/color_picker.dart -->
<g id="edge6" class="edge">
<title>/lib/panels/tools_panel.dart&#45;&gt;/lib/widgets/color_picker.dart</title>
<path fill="none" stroke="#aabbaa" stroke-width="1.3" stroke-opacity="0.533333" d="M465.68,-263.85C462.76,-263.15 459.85,-262.53 457,-262 430.5,-257.1 361.12,-263.75 336,-254 323.05,-248.97 310.71,-240.09 300.62,-231.33"/>
<polygon fill="#aabbaa" fill-opacity="0.533333" stroke="#aabbaa" stroke-width="1.3" stroke-opacity="0.533333" points="303.22,-228.96 293.49,-224.76 298.47,-234.11 303.22,-228.96"/>
</g>
<!-- /lib/panels/layers_panel.dart -->
<g id="node5" class="node">
<title>/lib/panels/layers_panel.dart</title>
<path fill="Lavender" stroke="black" stroke-width="1.3" d="M436,-298C436,-298 360,-298 360,-298 354,-298 348,-292 348,-286 348,-286 348,-274 348,-274 348,-268 354,-262 360,-262 360,-262 436,-262 436,-262 442,-262 448,-268 448,-274 448,-274 448,-286 448,-286 448,-292 442,-298 436,-298"/>
<text text-anchor="middle" x="398" y="-274.75" font-family="Arial" font-size="15.00">layers_panel</text>
</g>
<!-- /lib/panels/layers_panel.dart&#45;&gt;/lib/models/app_model.dart -->
<g id="edge7" class="edge">
<title>/lib/panels/layers_panel.dart&#45;&gt;/lib/models/app_model.dart</title>
<path fill="none" stroke="#aabbaa" stroke-width="1.3" stroke-opacity="0.533333" d="M347.51,-262.7C346.33,-262.45 345.16,-262.22 344,-262 315.98,-256.79 242.45,-264.6 216,-254 203.62,-249.04 191.97,-240.29 182.47,-231.61"/>
<polygon fill="#aabbaa" fill-opacity="0.533333" stroke="#aabbaa" stroke-width="1.3" stroke-opacity="0.533333" points="185.09,-229.27 175.48,-224.81 180.2,-234.29 185.09,-229.27"/>
</g>
<!-- /lib/models/layers.dart -->
<g id="node7" class="node">
<title>/lib/models/layers.dart</title>
<path fill="Lavender" stroke="black" stroke-width="1.3" d="M174.88,-298C174.88,-298 143.12,-298 143.12,-298 137.12,-298 131.12,-292 131.12,-286 131.12,-286 131.12,-274 131.12,-274 131.12,-268 137.12,-262 143.12,-262 143.12,-262 174.88,-262 174.88,-262 180.88,-262 186.88,-268 186.88,-274 186.88,-274 186.88,-286 186.88,-286 186.88,-292 180.88,-298 174.88,-298"/>
<text text-anchor="middle" x="159" y="-274.75" font-family="Arial" font-size="15.00">layers</text>
</g>
<!-- /lib/models/shapes.dart -->
<g id="node8" class="node">
<title>/lib/models/shapes.dart</title>
<path fill="Lavender" stroke="black" stroke-width="1.3" d="M84,-223C84,-223 44,-223 44,-223 38,-223 32,-217 32,-211 32,-211 32,-199 32,-199 32,-193 38,-187 44,-187 44,-187 84,-187 84,-187 90,-187 96,-193 96,-199 96,-199 96,-211 96,-211 96,-217 90,-223 84,-223"/>
<text text-anchor="middle" x="64" y="-199.75" font-family="Arial" font-size="15.00">shapes</text>
</g>
<!-- /lib/models/layers.dart&#45;&gt;/lib/models/shapes.dart -->
<g id="edge9" class="edge">
<title>/lib/models/layers.dart&#45;&gt;/lib/models/shapes.dart</title>
<path fill="none" stroke="#aabbaa" stroke-width="1.3" stroke-opacity="0.533333" d="M130.9,-272.09C119.2,-267.85 106.21,-261.74 96,-254 88.11,-248.01 80.68,-240.27 74.76,-232.76"/>
<polygon fill="#aabbaa" fill-opacity="0.533333" stroke="#aabbaa" stroke-width="1.3" stroke-opacity="0.533333" points="77.74,-230.9 69.09,-224.79 72.03,-234.96 77.74,-230.9"/>
</g>
<!-- /lib/models/layers.dart&#45;&gt;/lib/models/shapes.dart -->
<g id="edge10" class="edge">
<title>/lib/models/layers.dart&#45;&gt;/lib/models/shapes.dart</title>
<path fill="none" stroke="#aabbaa" stroke-width="1.3" stroke-dasharray="5,2" stroke-opacity="0.533333" d="M130.63,-264.36C124.9,-261.33 119.1,-257.87 114,-254 105.84,-247.81 98.17,-239.75 91.29,-232"/>
<polygon fill="#aabbaa" fill-opacity="0.533333" stroke="#aabbaa" stroke-width="1.3" stroke-opacity="0.533333" points="94.1,-229.89 84.88,-224.66 88.83,-234.5 94.1,-229.89"/>
</g>
<!-- /lib/models/layers.dart&#45;&gt;/lib/models/app_model.dart -->
<g id="edge8" class="edge">
<title>/lib/models/layers.dart&#45;&gt;/lib/models/app_model.dart</title>
<path fill="none" stroke="#aabbaa" stroke-width="1.3" stroke-opacity="0.533333" d="M147.32,-261.7C145.66,-253.76 145.13,-244.12 145.75,-235.11"/>
<polygon fill="#aabbaa" fill-opacity="0.533333" stroke="#aabbaa" stroke-width="1.3" stroke-opacity="0.533333" points="149.19,-235.75 147.04,-225.38 142.25,-234.83 149.19,-235.75"/>
</g>
<!-- /lib/models/shapes.dart&#45;&gt;/lib/brushes/brushes.dart -->
<g id="edge11" class="edge">
<title>/lib/models/shapes.dart&#45;&gt;/lib/brushes/brushes.dart</title>
<path fill="none" stroke="#aabbaa" stroke-width="1.3" stroke-opacity="0.533333" d="M59,-186.82C58.29,-176.8 58.47,-163.88 59.4,-152.29"/>
<polygon fill="#aabbaa" fill-opacity="0.533333" stroke="#aabbaa" stroke-width="1.3" stroke-opacity="0.533333" points="62.88,-152.71 60.48,-142.39 55.92,-151.95 62.88,-152.71"/>
</g>
<!-- /lib/models/shapes.dart&#45;&gt;/lib/brushes/brushes.dart -->
<g id="edge12" class="edge">
<title>/lib/models/shapes.dart&#45;&gt;/lib/brushes/brushes.dart</title>
<path fill="none" stroke="#aabbaa" stroke-width="1.3" stroke-dasharray="5,2" stroke-opacity="0.533333" d="M70.27,-186.82C71.73,-176.8 72.5,-163.88 72.43,-152.29"/>
<polygon fill="#aabbaa" fill-opacity="0.533333" stroke="#aabbaa" stroke-width="1.3" stroke-opacity="0.533333" points="75.93,-152.27 72.09,-142.4 68.94,-152.51 75.93,-152.27"/>
</g>
<!-- /lib/models/app_model.dart&#45;&gt;/lib/models/layers.dart -->
<g id="edge13" class="edge">
<title>/lib/models/app_model.dart&#45;&gt;/lib/models/layers.dart</title>
<path fill="none" stroke="#aabbaa" stroke-width="1.3" stroke-opacity="0.533333" d="M159,-223.43C159,-231.39 159,-241.03 159,-250.04"/>
<polygon fill="#aabbaa" fill-opacity="0.533333" stroke="#aabbaa" stroke-width="1.3" stroke-opacity="0.533333" points="155.5,-249.73 159,-259.73 162.5,-249.73 155.5,-249.73"/>
</g>
<!-- /lib/models/app_model.dart&#45;&gt;/lib/models/layers.dart -->
<g id="edge14" class="edge">
<title>/lib/models/app_model.dart&#45;&gt;/lib/models/layers.dart</title>
<path fill="none" stroke="#aabbaa" stroke-width="1.3" stroke-dasharray="5,2" stroke-opacity="0.533333" d="M170.71,-223.43C172.36,-231.39 172.87,-241.03 172.24,-250.04"/>
<polygon fill="#aabbaa" fill-opacity="0.533333" stroke="#aabbaa" stroke-width="1.3" stroke-opacity="0.533333" points="168.8,-249.37 170.94,-259.75 175.74,-250.3 168.8,-249.37"/>
</g>
<!-- /lib/main.dart&#45;&gt;/lib/models/app_model.dart -->
<g id="edge16" class="edge">
<title>/lib/main.dart&#45;&gt;/lib/models/app_model.dart</title>
<path fill="none" stroke="#aabbaa" stroke-width="1.3" stroke-opacity="0.533333" d="M236.59,-408.71C226.5,-369.37 202.14,-275.54 196,-262 191.5,-252.08 185.36,-241.95 179.37,-233.07"/>
<polygon fill="#aabbaa" fill-opacity="0.533333" stroke="#aabbaa" stroke-width="1.3" stroke-opacity="0.533333" points="182.26,-231.1 173.65,-224.93 176.53,-235.12 182.26,-231.1"/>
</g>
<!-- /lib/main_screen.dart -->
<g id="node12" class="node">
<title>/lib/main_screen.dart</title>
<path fill="Lavender" stroke="black" stroke-width="1.3" d="M346.75,-373C346.75,-373 269.25,-373 269.25,-373 263.25,-373 257.25,-367 257.25,-361 257.25,-361 257.25,-349 257.25,-349 257.25,-343 263.25,-337 269.25,-337 269.25,-337 346.75,-337 346.75,-337 352.75,-337 358.75,-343 358.75,-349 358.75,-349 358.75,-361 358.75,-361 358.75,-367 352.75,-373 346.75,-373"/>
<text text-anchor="middle" x="308" y="-349.75" font-family="Arial" font-size="15.00">main_screen</text>
</g>
<!-- /lib/main.dart&#45;&gt;/lib/main_screen.dart -->
<g id="edge15" class="edge">
<title>/lib/main.dart&#45;&gt;/lib/main_screen.dart</title>
<path fill="none" stroke="#aabbaa" stroke-width="1.3" stroke-opacity="0.533333" d="M257.56,-408.7C265.35,-400.56 274.8,-390.69 283.4,-381.7"/>
<polygon fill="#aabbaa" fill-opacity="0.533333" stroke="#aabbaa" stroke-width="1.3" stroke-opacity="0.533333" points="285.88,-384.17 290.27,-374.53 280.83,-379.33 285.88,-384.17"/>
</g>
<!-- /lib/canvas.dart -->
<g id="node11" class="node">
<title>/lib/canvas.dart</title>
<path fill="Lavender" stroke="black" stroke-width="1.3" d="M276.62,-298C276.62,-298 237.38,-298 237.38,-298 231.38,-298 225.38,-292 225.38,-286 225.38,-286 225.38,-274 225.38,-274 225.38,-268 231.38,-262 237.38,-262 237.38,-262 276.62,-262 276.62,-262 282.62,-262 288.62,-268 288.62,-274 288.62,-274 288.62,-286 288.62,-286 288.62,-292 282.62,-298 276.62,-298"/>
<text text-anchor="middle" x="257" y="-274.75" font-family="Arial" font-size="15.00">canvas</text>
</g>
<!-- /lib/canvas.dart&#45;&gt;/lib/models/app_model.dart -->
<g id="edge17" class="edge">
<title>/lib/canvas.dart&#45;&gt;/lib/models/app_model.dart</title>
<path fill="none" stroke="#aabbaa" stroke-width="1.3" stroke-opacity="0.533333" d="M227.53,-261.78C223.59,-259.26 219.65,-256.63 216,-254 206.26,-246.99 196.09,-238.76 187.09,-231.11"/>
<polygon fill="#aabbaa" fill-opacity="0.533333" stroke="#aabbaa" stroke-width="1.3" stroke-opacity="0.533333" points="189.53,-228.6 179.68,-224.71 184.96,-233.9 189.53,-228.6"/>
</g>
<!-- /lib/main_screen.dart&#45;&gt;/lib/panels/tools_panel.dart -->
<g id="edge20" class="edge">
<title>/lib/main_screen.dart&#45;&gt;/lib/panels/tools_panel.dart</title>
<path fill="none" stroke="#aabbaa" stroke-width="1.3" stroke-opacity="0.533333" d="M359.04,-352.33C388.82,-349.7 426.41,-343.47 457,-329 468.51,-323.55 479.46,-314.99 488.52,-306.59"/>
<polygon fill="#aabbaa" fill-opacity="0.533333" stroke="#aabbaa" stroke-width="1.3" stroke-opacity="0.533333" points="490.8,-309.25 495.49,-299.74 485.9,-304.25 490.8,-309.25"/>
</g>
<!-- /lib/main_screen.dart&#45;&gt;/lib/panels/layers_panel.dart -->
<g id="edge19" class="edge">
<title>/lib/main_screen.dart&#45;&gt;/lib/panels/layers_panel.dart</title>
<path fill="none" stroke="#aabbaa" stroke-width="1.3" stroke-opacity="0.533333" d="M333.84,-336.61C337.3,-334.12 340.77,-331.54 344,-329 352.98,-321.94 362.4,-313.82 370.81,-306.3"/>
<polygon fill="#aabbaa" fill-opacity="0.533333" stroke="#aabbaa" stroke-width="1.3" stroke-opacity="0.533333" points="372.96,-309.08 378.02,-299.77 368.26,-303.89 372.96,-309.08"/>
</g>
<!-- /lib/main_screen.dart&#45;&gt;/lib/models/app_model.dart -->
<g id="edge21" class="edge">
<title>/lib/main_screen.dart&#45;&gt;/lib/models/app_model.dart</title>
<path fill="none" stroke="#aabbaa" stroke-width="1.3" stroke-opacity="0.533333" d="M311.89,-336.7C315.43,-315.88 317.53,-281.32 298,-262 284.98,-249.13 232.87,-261.11 216,-254 203.71,-248.83 192.08,-240.04 182.57,-231.38"/>
<polygon fill="#aabbaa" fill-opacity="0.533333" stroke="#aabbaa" stroke-width="1.3" stroke-opacity="0.533333" points="185.18,-229.05 175.56,-224.62 180.32,-234.08 185.18,-229.05"/>
</g>
<!-- /lib/main_screen.dart&#45;&gt;/lib/canvas.dart -->
<g id="edge18" class="edge">
<title>/lib/main_screen.dart&#45;&gt;/lib/canvas.dart</title>
<path fill="none" stroke="#aabbaa" stroke-width="1.3" stroke-opacity="0.533333" d="M295.91,-336.7C289.92,-328.13 282.55,-317.58 275.84,-307.97"/>
<polygon fill="#aabbaa" fill-opacity="0.533333" stroke="#aabbaa" stroke-width="1.3" stroke-opacity="0.533333" points="278.9,-306.23 270.3,-300.04 273.16,-310.24 278.9,-306.23"/>
</g>
<!-- /lib/helpers/list_helper.dart -->
<g id="node13" class="node">
<title>/lib/helpers/list_helper.dart</title>
<path fill="Lavender" stroke="black" stroke-width="1.3" d="M274.75,-68C274.75,-68 215.25,-68 215.25,-68 209.25,-68 203.25,-62 203.25,-56 203.25,-56 203.25,-44 203.25,-44 203.25,-38 209.25,-32 215.25,-32 215.25,-32 274.75,-32 274.75,-32 280.75,-32 286.75,-38 286.75,-44 286.75,-44 286.75,-56 286.75,-56 286.75,-62 280.75,-68 274.75,-68"/>
<text text-anchor="middle" x="245" y="-44.75" font-family="Arial" font-size="15.00">list_helper</text>
</g>
<!-- /lib/helpers/color_helper.dart -->
<g id="node14" class="node">
<title>/lib/helpers/color_helper.dart</title>
<path fill="Lavender" stroke="black" stroke-width="1.3" d="M278.88,-140C278.88,-140 205.12,-140 205.12,-140 199.12,-140 193.12,-134 193.12,-128 193.12,-128 193.12,-116 193.12,-116 193.12,-110 199.12,-104 205.12,-104 205.12,-104 278.88,-104 278.88,-104 284.88,-104 290.88,-110 290.88,-116 290.88,-116 290.88,-128 290.88,-128 290.88,-134 284.88,-140 278.88,-140"/>
<text text-anchor="middle" x="242" y="-116.75" font-family="Arial" font-size="15.00">color_helper</text>
</g>
<!-- /lib/helpers/color_helper.dart&#45;&gt;/lib/helpers/list_helper.dart -->
<g id="edge22" class="edge">
<title>/lib/helpers/color_helper.dart&#45;&gt;/lib/helpers/list_helper.dart</title>
<path fill="none" stroke="#aabbaa" stroke-width="1.3" stroke-opacity="0.533333" d="M242.74,-103.7C243.05,-96.49 243.42,-87.93 243.76,-79.82"/>
<polygon fill="#aabbaa" fill-opacity="0.533333" stroke="#aabbaa" stroke-width="1.3" stroke-opacity="0.533333" points="247.25,-80.21 244.18,-70.07 240.26,-79.91 247.25,-80.21"/>
</g>
<!-- /lib/widgets/color_picker.dart&#45;&gt;/lib/helpers/list_helper.dart -->
<g id="edge24" class="edge">
<title>/lib/widgets/color_picker.dart&#45;&gt;/lib/helpers/list_helper.dart</title>
<path fill="none" stroke="#aabbaa" stroke-width="1.3" stroke-opacity="0.533333" d="M291.7,-186.64C295.1,-181.9 298.2,-176.52 300,-171 310.31,-139.3 314.27,-126.12 300,-96 296.37,-88.34 290.72,-81.54 284.4,-75.7"/>
<polygon fill="#aabbaa" fill-opacity="0.533333" stroke="#aabbaa" stroke-width="1.3" stroke-opacity="0.533333" points="286.95,-73.27 277.01,-69.6 282.49,-78.67 286.95,-73.27"/>
</g>
<!-- /lib/widgets/color_picker.dart&#45;&gt;/lib/helpers/color_helper.dart -->
<g id="edge23" class="edge">
<title>/lib/widgets/color_picker.dart&#45;&gt;/lib/helpers/color_helper.dart</title>
<path fill="none" stroke="#aabbaa" stroke-width="1.3" stroke-opacity="0.533333" d="M268.79,-186.82C264.45,-176.48 258.81,-163.05 253.83,-151.18"/>
<polygon fill="#aabbaa" fill-opacity="0.533333" stroke="#aabbaa" stroke-width="1.3" stroke-opacity="0.533333" points="257.18,-150.11 250.08,-142.25 250.72,-152.82 257.18,-150.11"/>
</g>
</g>
</svg>
