<?xml version="1.0" encoding="UTF-8" standalone="no"?>
<!DOCTYPE svg PUBLIC "-//W3C//DTD SVG 1.1//EN"
 "http://www.w3.org/Graphics/SVG/1.1/DTD/svg11.dtd">
<!-- Generated by graphviz version 12.2.1 (20241206.2353)
 -->
<!-- Pages: 1 -->
<svg width="2772pt" height="839pt"
 viewBox="0.00 0.00 2772.00 839.00" xmlns="http://www.w3.org/2000/svg" xmlns:xlink="http://www.w3.org/1999/xlink">
<g id="graph0" class="graph" transform="scale(1 1) rotate(0) translate(4 835)">
<polygon fill="white" stroke="none" points="-4,4 -4,-835 2768,-835 2768,4 -4,4"/>
<g id="clust1" class="cluster">
<title>cluster~</title>
<path fill="none" stroke="lightgray" stroke-width="2.6" d="M20,-8C20,-8 2744,-8 2744,-8 2750,-8 2756,-14 2756,-20 2756,-20 2756,-811 2756,-811 2756,-817 2750,-823 2744,-823 2744,-823 20,-823 20,-823 14,-823 8,-817 8,-811 8,-811 8,-20 8,-20 8,-14 14,-8 20,-8"/>
<text text-anchor="middle" x="1382" y="-806.65" font-family="Arial Black" font-size="13.00">fpaint</text>
</g>
<g id="clust2" class="cluster">
<title>cluster~/test</title>
<path fill="none" stroke="lightgray" stroke-width="2.6" d="M1031,-639C1031,-639 1617,-639 1617,-639 1623,-639 1629,-645 1629,-651 1629,-651 1629,-780 1629,-780 1629,-786 1623,-792 1617,-792 1617,-792 1031,-792 1031,-792 1025,-792 1019,-786 1019,-780 1019,-780 1019,-651 1019,-651 1019,-645 1025,-639 1031,-639"/>
<text text-anchor="middle" x="1324" y="-775.65" font-family="Arial Black" font-size="13.00">test</text>
</g>
<g id="clust3" class="cluster">
<title>cluster~/test/panels</title>
<path fill="none" stroke="lightgray" stroke-width="2.6" d="M1177,-647C1177,-647 1289,-647 1289,-647 1295,-647 1301,-653 1301,-659 1301,-659 1301,-749 1301,-749 1301,-755 1295,-761 1289,-761 1289,-761 1177,-761 1177,-761 1171,-761 1165,-755 1165,-749 1165,-749 1165,-659 1165,-659 1165,-653 1171,-647 1177,-647"/>
<text text-anchor="middle" x="1233" y="-744.65" font-family="Arial Black" font-size="13.00">panels</text>
</g>
<g id="clust4" class="cluster">
<title>cluster~/test/panels/tools</title>
<path fill="none" stroke="lightgray" stroke-width="2.6" d="M1185,-655C1185,-655 1281,-655 1281,-655 1287,-655 1293,-661 1293,-667 1293,-667 1293,-718 1293,-718 1293,-724 1287,-730 1281,-730 1281,-730 1185,-730 1185,-730 1179,-730 1173,-724 1173,-718 1173,-718 1173,-667 1173,-667 1173,-661 1179,-655 1185,-655"/>
<text text-anchor="middle" x="1233" y="-713.65" font-family="Arial Black" font-size="13.00">tools</text>
</g>
<g id="clust5" class="cluster">
<title>cluster~/lib</title>
<path fill="none" stroke="lightgray" stroke-width="2.6" d="M40,-16C40,-16 2736,-16 2736,-16 2742,-16 2748,-22 2748,-28 2748,-28 2748,-619 2748,-619 2748,-625 2742,-631 2736,-631 2736,-631 40,-631 40,-631 34,-631 28,-625 28,-619 28,-619 28,-28 28,-28 28,-22 34,-16 40,-16"/>
<text text-anchor="middle" x="1388" y="-614.65" font-family="Arial Black" font-size="13.00">lib</text>
</g>
<g id="clust6" class="cluster">
<title>cluster~/lib/panels</title>
<path fill="none" stroke="lightgray" stroke-width="2.6" d="M1082,-179C1082,-179 1672,-179 1672,-179 1678,-179 1684,-185 1684,-191 1684,-191 1684,-472 1684,-472 1684,-478 1678,-484 1672,-484 1672,-484 1082,-484 1082,-484 1076,-484 1070,-478 1070,-472 1070,-472 1070,-191 1070,-191 1070,-185 1076,-179 1082,-179"/>
<text text-anchor="middle" x="1377" y="-467.65" font-family="Arial Black" font-size="13.00">panels</text>
</g>
<g id="clust7" class="cluster">
<title>cluster~/lib/panels/tools</title>
<path fill="none" stroke="lightgray" stroke-width="2.6" d="M1392,-262C1392,-262 1664,-262 1664,-262 1670,-262 1676,-268 1676,-274 1676,-274 1676,-397 1676,-397 1676,-403 1670,-409 1664,-409 1664,-409 1392,-409 1392,-409 1386,-409 1380,-403 1380,-397 1380,-397 1380,-274 1380,-274 1380,-268 1386,-262 1392,-262"/>
<text text-anchor="middle" x="1528" y="-392.65" font-family="Arial Black" font-size="13.00">tools</text>
</g>
<g id="clust8" class="cluster">
<title>cluster~/lib/panels/layers</title>
<path fill="none" stroke="lightgray" stroke-width="2.6" d="M1196,-262C1196,-262 1360,-262 1360,-262 1366,-262 1372,-268 1372,-274 1372,-274 1372,-397 1372,-397 1372,-403 1366,-409 1360,-409 1360,-409 1196,-409 1196,-409 1190,-409 1184,-403 1184,-397 1184,-397 1184,-274 1184,-274 1184,-268 1190,-262 1196,-262"/>
<text text-anchor="middle" x="1278" y="-392.65" font-family="Arial Black" font-size="13.00">layers</text>
</g>
<g id="clust9" class="cluster">
<title>cluster~/lib/models</title>
<path fill="none" stroke="lightgray" stroke-width="2.6" d="M845,-179C845,-179 1038,-179 1038,-179 1044,-179 1050,-185 1050,-191 1050,-191 1050,-397 1050,-397 1050,-403 1044,-409 1038,-409 1038,-409 845,-409 845,-409 839,-409 833,-403 833,-397 833,-397 833,-191 833,-191 833,-185 839,-179 845,-179"/>
<text text-anchor="middle" x="941.5" y="-392.65" font-family="Arial Black" font-size="13.00">models</text>
</g>
<g id="clust10" class="cluster">
<title>cluster~/lib/files</title>
<path fill="none" stroke="lightgray" stroke-width="2.6" d="M98,-262C98,-262 813,-262 813,-262 819,-262 825,-268 825,-274 825,-274 825,-397 825,-397 825,-403 819,-409 813,-409 813,-409 98,-409 98,-409 92,-409 86,-403 86,-397 86,-397 86,-274 86,-274 86,-268 92,-262 98,-262"/>
<text text-anchor="middle" x="455.5" y="-392.65" font-family="Arial Black" font-size="13.00">files</text>
</g>
<g id="clust11" class="cluster">
<title>cluster~/lib/helpers</title>
<path fill="none" stroke="lightgray" stroke-width="2.6" d="M2626,-24C2626,-24 2716,-24 2716,-24 2722,-24 2728,-30 2728,-36 2728,-36 2728,-159 2728,-159 2728,-165 2722,-171 2716,-171 2716,-171 2626,-171 2626,-171 2620,-171 2614,-165 2614,-159 2614,-159 2614,-36 2614,-36 2614,-30 2620,-24 2626,-24"/>
<text text-anchor="middle" x="2671" y="-154.65" font-family="Arial Black" font-size="13.00">helpers</text>
</g>
<g id="clust12" class="cluster">
<title>cluster~/lib/widgets</title>
<path fill="none" stroke="lightgray" stroke-width="2.6" d="M1704,-96C1704,-96 2594,-96 2594,-96 2600,-96 2606,-102 2606,-108 2606,-108 2606,-242 2606,-242 2606,-248 2600,-254 2594,-254 2594,-254 1704,-254 1704,-254 1698,-254 1692,-248 1692,-242 1692,-242 1692,-108 1692,-108 1692,-102 1698,-96 1704,-96"/>
<text text-anchor="middle" x="2149" y="-237.65" font-family="Arial Black" font-size="13.00">widgets</text>
</g>
<!-- /test/paint_model_test.dart -->
<g id="node1" class="node">
<title>/test/paint_model_test.dart</title>
<path fill="Lavender" stroke="black" stroke-width="1.3" d="M1145,-699C1145,-699 1039,-699 1039,-699 1033,-699 1027,-693 1027,-687 1027,-687 1027,-675 1027,-675 1027,-669 1033,-663 1039,-663 1039,-663 1145,-663 1145,-663 1151,-663 1157,-669 1157,-675 1157,-675 1157,-687 1157,-687 1157,-693 1151,-699 1145,-699"/>
<text text-anchor="middle" x="1092" y="-675.75" font-family="Arial" font-size="15.00">paint_model_test</text>
</g>
<!-- /lib/models/app_model.dart -->
<g id="node17" class="node">
<title>/lib/models/app_model.dart</title>
<path fill="Lavender" stroke="black" stroke-width="1.3" d="M918.75,-223C918.75,-223 853.25,-223 853.25,-223 847.25,-223 841.25,-217 841.25,-211 841.25,-211 841.25,-199 841.25,-199 841.25,-193 847.25,-187 853.25,-187 853.25,-187 918.75,-187 918.75,-187 924.75,-187 930.75,-193 930.75,-199 930.75,-199 930.75,-211 930.75,-211 930.75,-217 924.75,-223 918.75,-223"/>
<text text-anchor="middle" x="886" y="-199.75" font-family="Arial" font-size="15.00">app_model</text>
</g>
<!-- /test/paint_model_test.dart&#45;&gt;/lib/models/app_model.dart -->
<g id="edge1" class="edge">
<title>/test/paint_model_test.dart&#45;&gt;/lib/models/app_model.dart</title>
<path fill="none" stroke="#aabbaa" stroke-width="1.3" stroke-opacity="0.533333" d="M1026.76,-679.42C799.95,-677.07 57.55,-666.7 22,-631 -15.67,-593.18 17,-564.38 17,-511 17,-511 17,-511 17,-359 17,-315.78 -6.67,-292.45 24,-262 80.99,-205.42 646.03,-204.32 829.09,-205.47"/>
<polygon fill="#aabbaa" fill-opacity="0.533333" stroke="#aabbaa" stroke-width="1.3" stroke-opacity="0.533333" points="828.85,-208.96 838.87,-205.53 828.89,-201.96 828.85,-208.96"/>
</g>
<!-- /test/panels/tools/flood_fill_test.dart -->
<g id="node2" class="node">
<title>/test/panels/tools/flood_fill_test.dart</title>
<path fill="Lavender" stroke="black" stroke-width="1.3" d="M1272.5,-699C1272.5,-699 1193.5,-699 1193.5,-699 1187.5,-699 1181.5,-693 1181.5,-687 1181.5,-687 1181.5,-675 1181.5,-675 1181.5,-669 1187.5,-663 1193.5,-663 1193.5,-663 1272.5,-663 1272.5,-663 1278.5,-663 1284.5,-669 1284.5,-675 1284.5,-675 1284.5,-687 1284.5,-687 1284.5,-693 1278.5,-699 1272.5,-699"/>
<text text-anchor="middle" x="1233" y="-675.75" font-family="Arial" font-size="15.00">flood_fill_test</text>
</g>
<!-- /lib/panels/tools/flood_fill.dart -->
<g id="node7" class="node">
<title>/lib/panels/tools/flood_fill.dart</title>
<path fill="Lavender" stroke="black" stroke-width="1.3" d="M1591,-378C1591,-378 1545,-378 1545,-378 1539,-378 1533,-372 1533,-366 1533,-366 1533,-354 1533,-354 1533,-348 1539,-342 1545,-342 1545,-342 1591,-342 1591,-342 1597,-342 1603,-348 1603,-354 1603,-354 1603,-366 1603,-366 1603,-372 1597,-378 1591,-378"/>
<text text-anchor="middle" x="1568" y="-354.75" font-family="Arial" font-size="15.00">flood_fill</text>
</g>
<!-- /test/panels/tools/flood_fill_test.dart&#45;&gt;/lib/panels/tools/flood_fill.dart -->
<g id="edge2" class="edge">
<title>/test/panels/tools/flood_fill_test.dart&#45;&gt;/lib/panels/tools/flood_fill.dart</title>
<path fill="none" stroke="#aabbaa" stroke-width="1.3" stroke-opacity="0.533333" d="M1215.86,-662.71C1205.77,-653.78 1192.23,-643.77 1178,-639 1163.04,-633.98 53.12,-642.2 42,-631 20.24,-609.08 20.97,-514.63 42,-492 119.67,-408.44 952.03,-422.16 1066,-417 1091.42,-415.85 1500.8,-419.45 1524,-409 1534.34,-404.35 1543.32,-395.97 1550.44,-387.51"/>
<polygon fill="#aabbaa" fill-opacity="0.533333" stroke="#aabbaa" stroke-width="1.3" stroke-opacity="0.533333" points="1553.14,-389.74 1556.44,-379.67 1547.58,-385.48 1553.14,-389.74"/>
</g>
<!-- /test/widget_test.dart -->
<g id="node3" class="node">
<title>/test/widget_test.dart</title>
<path fill="Lavender" stroke="black" stroke-width="1.3" d="M1388.88,-699C1388.88,-699 1321.12,-699 1321.12,-699 1315.12,-699 1309.12,-693 1309.12,-687 1309.12,-687 1309.12,-675 1309.12,-675 1309.12,-669 1315.12,-663 1321.12,-663 1321.12,-663 1388.88,-663 1388.88,-663 1394.88,-663 1400.88,-669 1400.88,-675 1400.88,-675 1400.88,-687 1400.88,-687 1400.88,-693 1394.88,-699 1388.88,-699"/>
<text text-anchor="middle" x="1355" y="-675.75" font-family="Arial" font-size="15.00">widget_test</text>
</g>
<!-- /lib/main.dart -->
<g id="node19" class="node">
<title>/lib/main.dart</title>
<path fill="Lavender" stroke="black" stroke-width="1.3" d="M1144,-600C1144,-600 1114,-600 1114,-600 1108,-600 1102,-594 1102,-588 1102,-588 1102,-576 1102,-576 1102,-570 1108,-564 1114,-564 1114,-564 1144,-564 1144,-564 1150,-564 1156,-570 1156,-576 1156,-576 1156,-588 1156,-588 1156,-594 1150,-600 1144,-600"/>
<text text-anchor="middle" x="1129" y="-576.75" font-family="Arial" font-size="15.00">main</text>
</g>
<!-- /test/widget_test.dart&#45;&gt;/lib/main.dart -->
<g id="edge3" class="edge">
<title>/test/widget_test.dart&#45;&gt;/lib/main.dart</title>
<path fill="none" stroke="#aabbaa" stroke-width="1.3" stroke-opacity="0.533333" d="M1333.66,-662.63C1323.09,-654.64 1309.87,-645.52 1297,-639 1254.73,-617.61 1202.49,-601.68 1167.58,-592.39"/>
<polygon fill="#aabbaa" fill-opacity="0.533333" stroke="#aabbaa" stroke-width="1.3" stroke-opacity="0.533333" points="1168.91,-589.12 1158.36,-589.99 1167.15,-595.89 1168.91,-589.12"/>
</g>
<!-- /test/file_xcf_test.dart -->
<g id="node4" class="node">
<title>/test/file_xcf_test.dart</title>
<path fill="Lavender" stroke="black" stroke-width="1.3" d="M1502.75,-699C1502.75,-699 1431.25,-699 1431.25,-699 1425.25,-699 1419.25,-693 1419.25,-687 1419.25,-687 1419.25,-675 1419.25,-675 1419.25,-669 1425.25,-663 1431.25,-663 1431.25,-663 1502.75,-663 1502.75,-663 1508.75,-663 1514.75,-669 1514.75,-675 1514.75,-675 1514.75,-687 1514.75,-687 1514.75,-693 1508.75,-699 1502.75,-699"/>
<text text-anchor="middle" x="1467" y="-675.75" font-family="Arial" font-size="15.00">file_xcf_test</text>
</g>
<!-- /lib/files/xcf_reader.dart -->
<g id="node20" class="node">
<title>/lib/files/xcf_reader.dart</title>
<path fill="Lavender" stroke="black" stroke-width="1.3" d="M169.62,-378C169.62,-378 106.38,-378 106.38,-378 100.38,-378 94.38,-372 94.38,-366 94.38,-366 94.38,-354 94.38,-354 94.38,-348 100.38,-342 106.38,-342 106.38,-342 169.62,-342 169.62,-342 175.62,-342 181.62,-348 181.62,-354 181.62,-354 181.62,-366 181.62,-366 181.62,-372 175.62,-378 169.62,-378"/>
<text text-anchor="middle" x="138" y="-354.75" font-family="Arial" font-size="15.00">xcf_reader</text>
</g>
<!-- /test/file_xcf_test.dart&#45;&gt;/lib/files/xcf_reader.dart -->
<g id="edge5" class="edge">
<title>/test/file_xcf_test.dart&#45;&gt;/lib/files/xcf_reader.dart</title>
<path fill="none" stroke="#aabbaa" stroke-width="1.3" stroke-opacity="0.533333" d="M1485.45,-662.52C1495.91,-653.76 1509.73,-643.99 1524,-639 1541.22,-632.98 1675.42,-644.21 1688,-631 1696.2,-622.39 1696.38,-425.43 1688,-417 1673.34,-402.26 210.38,-416.53 191,-409 179.02,-404.35 168.07,-395.61 159.27,-386.85"/>
<polygon fill="#aabbaa" fill-opacity="0.533333" stroke="#aabbaa" stroke-width="1.3" stroke-opacity="0.533333" points="161.95,-384.6 152.57,-379.68 156.83,-389.37 161.95,-384.6"/>
</g>
<!-- /lib/files/assets_helper.dart -->
<g id="node21" class="node">
<title>/lib/files/assets_helper.dart</title>
<path fill="Lavender" stroke="black" stroke-width="1.3" d="M296.5,-378C296.5,-378 211.5,-378 211.5,-378 205.5,-378 199.5,-372 199.5,-366 199.5,-366 199.5,-354 199.5,-354 199.5,-348 205.5,-342 211.5,-342 211.5,-342 296.5,-342 296.5,-342 302.5,-342 308.5,-348 308.5,-354 308.5,-354 308.5,-366 308.5,-366 308.5,-372 302.5,-378 296.5,-378"/>
<text text-anchor="middle" x="254" y="-354.75" font-family="Arial" font-size="15.00">assets_helper</text>
</g>
<!-- /test/file_xcf_test.dart&#45;&gt;/lib/files/assets_helper.dart -->
<g id="edge4" class="edge">
<title>/test/file_xcf_test.dart&#45;&gt;/lib/files/assets_helper.dart</title>
<path fill="none" stroke="#aabbaa" stroke-width="1.3" stroke-opacity="0.533333" d="M1485.45,-662.5C1495.9,-653.74 1509.72,-643.97 1524,-639 1542.28,-632.64 1684.63,-645 1698,-631 1730.85,-596.61 1731.53,-450.72 1698,-417 1684.49,-403.41 336.17,-415.11 318,-409 303.95,-404.27 290.49,-395.14 279.57,-386.1"/>
<polygon fill="#aabbaa" fill-opacity="0.533333" stroke="#aabbaa" stroke-width="1.3" stroke-opacity="0.533333" points="281.98,-383.56 272.16,-379.59 277.36,-388.82 281.98,-383.56"/>
</g>
<!-- /test/layers_test.dart -->
<g id="node5" class="node">
<title>/test/layers_test.dart</title>
<path fill="Lavender" stroke="black" stroke-width="1.3" d="M1609.38,-699C1609.38,-699 1544.62,-699 1544.62,-699 1538.62,-699 1532.62,-693 1532.62,-687 1532.62,-687 1532.62,-675 1532.62,-675 1532.62,-669 1538.62,-663 1544.62,-663 1544.62,-663 1609.38,-663 1609.38,-663 1615.38,-663 1621.38,-669 1621.38,-675 1621.38,-675 1621.38,-687 1621.38,-687 1621.38,-693 1615.38,-699 1609.38,-699"/>
<text text-anchor="middle" x="1577" y="-675.75" font-family="Arial" font-size="15.00">layers_test</text>
</g>
<!-- /lib/models/layer.dart -->
<g id="node18" class="node">
<title>/lib/models/layer.dart</title>
<path fill="Lavender" stroke="black" stroke-width="1.3" d="M988,-306C988,-306 958,-306 958,-306 952,-306 946,-300 946,-294 946,-294 946,-282 946,-282 946,-276 952,-270 958,-270 958,-270 988,-270 988,-270 994,-270 1000,-276 1000,-282 1000,-282 1000,-294 1000,-294 1000,-300 994,-306 988,-306"/>
<text text-anchor="middle" x="973" y="-282.75" font-family="Arial" font-size="15.00">layer</text>
</g>
<!-- /test/layers_test.dart&#45;&gt;/lib/models/layer.dart -->
<g id="edge6" class="edge">
<title>/test/layers_test.dart&#45;&gt;/lib/models/layer.dart</title>
<path fill="none" stroke="#aabbaa" stroke-width="1.3" stroke-opacity="0.533333" d="M1621.67,-675.76C1652.3,-670.41 1691.35,-658.32 1714,-631 1748.46,-589.43 1733,-565 1733,-511 1733,-511 1733,-511 1733,-434 1733,-386.81 1720.15,-366.8 1680,-342 1621.86,-306.08 1133.85,-314.16 1066,-306 1048.03,-303.84 1028.3,-300.39 1011.64,-297.16"/>
<polygon fill="#aabbaa" fill-opacity="0.533333" stroke="#aabbaa" stroke-width="1.3" stroke-opacity="0.533333" points="1012.55,-293.77 1002.06,-295.25 1011.19,-300.63 1012.55,-293.77"/>
</g>
<!-- /lib/panels/tools/tool_selector.dart -->
<g id="node6" class="node">
<title>/lib/panels/tools/tool_selector.dart</title>
<path fill="Lavender" stroke="black" stroke-width="1.3" d="M1656.38,-306C1656.38,-306 1579.62,-306 1579.62,-306 1573.62,-306 1567.62,-300 1567.62,-294 1567.62,-294 1567.62,-282 1567.62,-282 1567.62,-276 1573.62,-270 1579.62,-270 1579.62,-270 1656.38,-270 1656.38,-270 1662.38,-270 1668.38,-276 1668.38,-282 1668.38,-282 1668.38,-294 1668.38,-294 1668.38,-300 1662.38,-306 1656.38,-306"/>
<text text-anchor="middle" x="1618" y="-282.75" font-family="Arial" font-size="15.00">tool_selector</text>
</g>
<!-- /lib/panels/tools/tools_panel.dart -->
<g id="node8" class="node">
<title>/lib/panels/tools/tools_panel.dart</title>
<path fill="Lavender" stroke="black" stroke-width="1.3" d="M1502.88,-378C1502.88,-378 1435.12,-378 1435.12,-378 1429.12,-378 1423.12,-372 1423.12,-366 1423.12,-366 1423.12,-354 1423.12,-354 1423.12,-348 1429.12,-342 1435.12,-342 1435.12,-342 1502.88,-342 1502.88,-342 1508.88,-342 1514.88,-348 1514.88,-354 1514.88,-354 1514.88,-366 1514.88,-366 1514.88,-372 1508.88,-378 1502.88,-378"/>
<text text-anchor="middle" x="1469" y="-354.75" font-family="Arial" font-size="15.00">tools_panel</text>
</g>
<!-- /lib/panels/tools/tools_panel.dart&#45;&gt;/lib/panels/tools/tool_selector.dart -->
<g id="edge9" class="edge">
<title>/lib/panels/tools/tools_panel.dart&#45;&gt;/lib/panels/tools/tool_selector.dart</title>
<path fill="none" stroke="#aabbaa" stroke-width="1.3" stroke-opacity="0.533333" d="M1506.21,-341.52C1525.58,-332.42 1549.47,-321.2 1570.18,-311.46"/>
<polygon fill="#aabbaa" fill-opacity="0.533333" stroke="#aabbaa" stroke-width="1.3" stroke-opacity="0.533333" points="1571.66,-314.64 1579.22,-307.22 1568.68,-308.3 1571.66,-314.64"/>
</g>
<!-- /lib/panels/tools/tool_attributes_widget.dart -->
<g id="node9" class="node">
<title>/lib/panels/tools/tool_attributes_widget.dart</title>
<path fill="Lavender" stroke="black" stroke-width="1.3" d="M1537.75,-306C1537.75,-306 1400.25,-306 1400.25,-306 1394.25,-306 1388.25,-300 1388.25,-294 1388.25,-294 1388.25,-282 1388.25,-282 1388.25,-276 1394.25,-270 1400.25,-270 1400.25,-270 1537.75,-270 1537.75,-270 1543.75,-270 1549.75,-276 1549.75,-282 1549.75,-282 1549.75,-294 1549.75,-294 1549.75,-300 1543.75,-306 1537.75,-306"/>
<text text-anchor="middle" x="1469" y="-282.75" font-family="Arial" font-size="15.00">tool_attributes_widget</text>
</g>
<!-- /lib/panels/tools/tools_panel.dart&#45;&gt;/lib/panels/tools/tool_attributes_widget.dart -->
<g id="edge8" class="edge">
<title>/lib/panels/tools/tools_panel.dart&#45;&gt;/lib/panels/tools/tool_attributes_widget.dart</title>
<path fill="none" stroke="#aabbaa" stroke-width="1.3" stroke-opacity="0.533333" d="M1469,-341.7C1469,-334.49 1469,-325.93 1469,-317.82"/>
<polygon fill="#aabbaa" fill-opacity="0.533333" stroke="#aabbaa" stroke-width="1.3" stroke-opacity="0.533333" points="1472.5,-318.07 1469,-308.07 1465.5,-318.07 1472.5,-318.07"/>
</g>
<!-- /lib/panels/tools/tools_panel.dart&#45;&gt;/lib/models/app_model.dart -->
<g id="edge7" class="edge">
<title>/lib/panels/tools/tools_panel.dart&#45;&gt;/lib/models/app_model.dart</title>
<path fill="none" stroke="#aabbaa" stroke-width="1.3" stroke-opacity="0.533333" d="M1422.74,-349.93C1407.85,-347.18 1391.26,-344.28 1376,-342 1238.82,-321.52 1188.99,-370.12 1066,-306 1042.83,-293.92 1050.32,-273.79 1027,-262 991.95,-244.28 974.97,-269.77 939,-254 927.4,-248.91 916.63,-240.26 907.87,-231.69"/>
<polygon fill="#aabbaa" fill-opacity="0.533333" stroke="#aabbaa" stroke-width="1.3" stroke-opacity="0.533333" points="910.63,-229.51 901.19,-224.7 905.57,-234.35 910.63,-229.51"/>
</g>
<!-- /lib/widgets/svg_icon.dart -->
<g id="node30" class="node">
<title>/lib/widgets/svg_icon.dart</title>
<path fill="Lavender" stroke="black" stroke-width="1.3" d="M2586.25,-223C2586.25,-223 2535.75,-223 2535.75,-223 2529.75,-223 2523.75,-217 2523.75,-211 2523.75,-211 2523.75,-199 2523.75,-199 2523.75,-193 2529.75,-187 2535.75,-187 2535.75,-187 2586.25,-187 2586.25,-187 2592.25,-187 2598.25,-193 2598.25,-199 2598.25,-199 2598.25,-211 2598.25,-211 2598.25,-217 2592.25,-223 2586.25,-223"/>
<text text-anchor="middle" x="2561" y="-199.75" font-family="Arial" font-size="15.00">svg_icon</text>
</g>
<!-- /lib/panels/tools/tools_panel.dart&#45;&gt;/lib/widgets/svg_icon.dart -->
<g id="edge12" class="edge">
<title>/lib/panels/tools/tools_panel.dart&#45;&gt;/lib/widgets/svg_icon.dart</title>
<path fill="none" stroke="#aabbaa" stroke-width="1.3" stroke-opacity="0.533333" d="M1515.31,-343.79C1518.23,-343.11 1521.15,-342.5 1524,-342 1847.42,-285.06 1936.2,-347.18 2262,-306 2375.89,-291.61 2414.52,-309.51 2515,-254 2524.84,-248.57 2533.84,-240.32 2541.23,-232.19"/>
<polygon fill="#aabbaa" fill-opacity="0.533333" stroke="#aabbaa" stroke-width="1.3" stroke-opacity="0.533333" points="2543.77,-234.61 2547.57,-224.72 2538.43,-230.08 2543.77,-234.61"/>
</g>
<!-- /lib/widgets/brush_size_picker.dart -->
<g id="node33" class="node">
<title>/lib/widgets/brush_size_picker.dart</title>
<path fill="Lavender" stroke="black" stroke-width="1.3" d="M2380,-223C2380,-223 2268,-223 2268,-223 2262,-223 2256,-217 2256,-211 2256,-211 2256,-199 2256,-199 2256,-193 2262,-187 2268,-187 2268,-187 2380,-187 2380,-187 2386,-187 2392,-193 2392,-199 2392,-199 2392,-211 2392,-211 2392,-217 2386,-223 2380,-223"/>
<text text-anchor="middle" x="2324" y="-199.75" font-family="Arial" font-size="15.00">brush_size_picker</text>
</g>
<!-- /lib/panels/tools/tools_panel.dart&#45;&gt;/lib/widgets/brush_size_picker.dart -->
<g id="edge10" class="edge">
<title>/lib/panels/tools/tools_panel.dart&#45;&gt;/lib/widgets/brush_size_picker.dart</title>
<path fill="none" stroke="#aabbaa" stroke-width="1.3" stroke-opacity="0.533333" d="M1515.36,-344.03C1518.27,-343.29 1521.17,-342.61 1524,-342 1840.56,-274.38 1941.75,-361.73 2247,-254 2262.98,-248.36 2279.13,-238.98 2292.48,-230.01"/>
<polygon fill="#aabbaa" fill-opacity="0.533333" stroke="#aabbaa" stroke-width="1.3" stroke-opacity="0.533333" points="2294.29,-233.01 2300.48,-224.42 2290.28,-227.27 2294.29,-233.01"/>
</g>
<!-- /lib/widgets/color_picker.dart -->
<g id="node37" class="node">
<title>/lib/widgets/color_picker.dart</title>
<path fill="Lavender" stroke="black" stroke-width="1.3" d="M2494.12,-223C2494.12,-223 2421.88,-223 2421.88,-223 2415.88,-223 2409.88,-217 2409.88,-211 2409.88,-211 2409.88,-199 2409.88,-199 2409.88,-193 2415.88,-187 2421.88,-187 2421.88,-187 2494.12,-187 2494.12,-187 2500.12,-187 2506.12,-193 2506.12,-199 2506.12,-199 2506.12,-211 2506.12,-211 2506.12,-217 2500.12,-223 2494.12,-223"/>
<text text-anchor="middle" x="2458" y="-199.75" font-family="Arial" font-size="15.00">color_picker</text>
</g>
<!-- /lib/panels/tools/tools_panel.dart&#45;&gt;/lib/widgets/color_picker.dart -->
<g id="edge11" class="edge">
<title>/lib/panels/tools/tools_panel.dart&#45;&gt;/lib/widgets/color_picker.dart</title>
<path fill="none" stroke="#aabbaa" stroke-width="1.3" stroke-opacity="0.533333" d="M1515.32,-343.83C1518.24,-343.14 1521.15,-342.52 1524,-342 1790.35,-293.68 1863.42,-339.76 2132,-306 2252.82,-290.81 2291.11,-306.46 2401,-254 2412.73,-248.4 2424.04,-239.8 2433.44,-231.41"/>
<polygon fill="#aabbaa" fill-opacity="0.533333" stroke="#aabbaa" stroke-width="1.3" stroke-opacity="0.533333" points="2435.84,-233.97 2440.73,-224.57 2431.04,-228.87 2435.84,-233.97"/>
</g>
<!-- /lib/helpers/color_helper.dart -->
<g id="node29" class="node">
<title>/lib/helpers/color_helper.dart</title>
<path fill="Lavender" stroke="black" stroke-width="1.3" d="M2707.88,-140C2707.88,-140 2634.12,-140 2634.12,-140 2628.12,-140 2622.12,-134 2622.12,-128 2622.12,-128 2622.12,-116 2622.12,-116 2622.12,-110 2628.12,-104 2634.12,-104 2634.12,-104 2707.88,-104 2707.88,-104 2713.88,-104 2719.88,-110 2719.88,-116 2719.88,-116 2719.88,-128 2719.88,-128 2719.88,-134 2713.88,-140 2707.88,-140"/>
<text text-anchor="middle" x="2671" y="-116.75" font-family="Arial" font-size="15.00">color_helper</text>
</g>
<!-- /lib/panels/tools/tool_attributes_widget.dart&#45;&gt;/lib/helpers/color_helper.dart -->
<g id="edge13" class="edge">
<title>/lib/panels/tools/tool_attributes_widget.dart&#45;&gt;/lib/helpers/color_helper.dart</title>
<path fill="none" stroke="#aabbaa" stroke-width="1.3" stroke-opacity="0.533333" d="M1522.77,-269.59C1534.58,-266.46 1547.12,-263.67 1559,-262 1573.46,-259.97 2597.72,-261.89 2610,-254 2645.03,-231.48 2660.28,-183.1 2666.67,-151.86"/>
<polygon fill="#aabbaa" fill-opacity="0.533333" stroke="#aabbaa" stroke-width="1.3" stroke-opacity="0.533333" points="2670.05,-152.82 2668.42,-142.36 2663.17,-151.56 2670.05,-152.82"/>
</g>
<!-- /lib/widgets/transparent_background.dart -->
<g id="node34" class="node">
<title>/lib/widgets/transparent_background.dart</title>
<path fill="Lavender" stroke="black" stroke-width="1.3" d="M1866.38,-140C1866.38,-140 1711.62,-140 1711.62,-140 1705.62,-140 1699.62,-134 1699.62,-128 1699.62,-128 1699.62,-116 1699.62,-116 1699.62,-110 1705.62,-104 1711.62,-104 1711.62,-104 1866.38,-104 1866.38,-104 1872.38,-104 1878.38,-110 1878.38,-116 1878.38,-116 1878.38,-128 1878.38,-128 1878.38,-134 1872.38,-140 1866.38,-140"/>
<text text-anchor="middle" x="1789" y="-116.75" font-family="Arial" font-size="15.00">transparent_background</text>
</g>
<!-- /lib/panels/tools/tool_attributes_widget.dart&#45;&gt;/lib/widgets/transparent_background.dart -->
<g id="edge14" class="edge">
<title>/lib/panels/tools/tool_attributes_widget.dart&#45;&gt;/lib/widgets/transparent_background.dart</title>
<path fill="none" stroke="#aabbaa" stroke-width="1.3" stroke-opacity="0.533333" d="M1502.94,-269.6C1561.15,-239.77 1679.96,-178.88 1744.64,-145.73"/>
<polygon fill="#aabbaa" fill-opacity="0.533333" stroke="#aabbaa" stroke-width="1.3" stroke-opacity="0.533333" points="1745.87,-149.04 1753.17,-141.36 1742.68,-142.81 1745.87,-149.04"/>
</g>
<!-- /lib/panels/canvas_panel.dart -->
<g id="node10" class="node">
<title>/lib/panels/canvas_panel.dart</title>
<path fill="Lavender" stroke="black" stroke-width="1.3" d="M1175.75,-223C1175.75,-223 1092.25,-223 1092.25,-223 1086.25,-223 1080.25,-217 1080.25,-211 1080.25,-211 1080.25,-199 1080.25,-199 1080.25,-193 1086.25,-187 1092.25,-187 1092.25,-187 1175.75,-187 1175.75,-187 1181.75,-187 1187.75,-193 1187.75,-199 1187.75,-199 1187.75,-211 1187.75,-211 1187.75,-217 1181.75,-223 1175.75,-223"/>
<text text-anchor="middle" x="1134" y="-199.75" font-family="Arial" font-size="15.00">canvas_panel</text>
</g>
<!-- /lib/panels/canvas_panel.dart&#45;&gt;/lib/models/app_model.dart -->
<g id="edge15" class="edge">
<title>/lib/panels/canvas_panel.dart&#45;&gt;/lib/models/app_model.dart</title>
<path fill="none" stroke="#aabbaa" stroke-width="1.3" stroke-opacity="0.533333" d="M1116.11,-223.5C1101.66,-236.76 1080.02,-253.12 1057,-258 1033.31,-263.03 971.69,-263.03 948,-258 943.72,-257.09 942.66,-256.41 939,-254 929.31,-247.62 919.71,-239.46 911.39,-231.62"/>
<polygon fill="#aabbaa" fill-opacity="0.533333" stroke="#aabbaa" stroke-width="1.3" stroke-opacity="0.533333" points="913.93,-229.21 904.33,-224.73 909.04,-234.22 913.93,-229.21"/>
</g>
<!-- /lib/panels/canvas_panel.dart&#45;&gt;/lib/widgets/transparent_background.dart -->
<g id="edge16" class="edge">
<title>/lib/panels/canvas_panel.dart&#45;&gt;/lib/widgets/transparent_background.dart</title>
<path fill="none" stroke="#aabbaa" stroke-width="1.3" stroke-opacity="0.533333" d="M1188.16,-197.3C1297.72,-183.75 1547.16,-152.91 1687.76,-135.52"/>
<polygon fill="#aabbaa" fill-opacity="0.533333" stroke="#aabbaa" stroke-width="1.3" stroke-opacity="0.533333" points="1687.91,-139.03 1697.4,-134.33 1687.05,-132.08 1687.91,-139.03"/>
</g>
<!-- /lib/panels/layers/tools_and_layers_panel.dart -->
<g id="node11" class="node">
<title>/lib/panels/layers/tools_and_layers_panel.dart</title>
<path fill="Lavender" stroke="black" stroke-width="1.3" d="M1352.38,-378C1352.38,-378 1203.62,-378 1203.62,-378 1197.62,-378 1191.62,-372 1191.62,-366 1191.62,-366 1191.62,-354 1191.62,-354 1191.62,-348 1197.62,-342 1203.62,-342 1203.62,-342 1352.38,-342 1352.38,-342 1358.38,-342 1364.38,-348 1364.38,-354 1364.38,-354 1364.38,-366 1364.38,-366 1364.38,-372 1358.38,-378 1352.38,-378"/>
<text text-anchor="middle" x="1278" y="-354.75" font-family="Arial" font-size="15.00">tools_and_layers_panel</text>
</g>
<!-- /lib/panels/layers/layer_selector.dart -->
<g id="node12" class="node">
<title>/lib/panels/layers/layer_selector.dart</title>
<path fill="Lavender" stroke="black" stroke-width="1.3" d="M1351.5,-306C1351.5,-306 1266.5,-306 1266.5,-306 1260.5,-306 1254.5,-300 1254.5,-294 1254.5,-294 1254.5,-282 1254.5,-282 1254.5,-276 1260.5,-270 1266.5,-270 1266.5,-270 1351.5,-270 1351.5,-270 1357.5,-270 1363.5,-276 1363.5,-282 1363.5,-282 1363.5,-294 1363.5,-294 1363.5,-300 1357.5,-306 1351.5,-306"/>
<text text-anchor="middle" x="1309" y="-282.75" font-family="Arial" font-size="15.00">layer_selector</text>
</g>
<!-- /lib/panels/layers/tools_and_layers_panel.dart&#45;&gt;/lib/panels/layers/layer_selector.dart -->
<g id="edge19" class="edge">
<title>/lib/panels/layers/tools_and_layers_panel.dart&#45;&gt;/lib/panels/layers/layer_selector.dart</title>
<path fill="none" stroke="#aabbaa" stroke-width="1.3" stroke-opacity="0.533333" d="M1285.66,-341.7C1288.97,-334.24 1292.91,-325.32 1296.62,-316.97"/>
<polygon fill="#aabbaa" fill-opacity="0.533333" stroke="#aabbaa" stroke-width="1.3" stroke-opacity="0.533333" points="1299.78,-318.46 1300.63,-307.9 1293.38,-315.63 1299.78,-318.46"/>
</g>
<!-- /lib/panels/share_panel.dart -->
<g id="node14" class="node">
<title>/lib/panels/share_panel.dart</title>
<path fill="Lavender" stroke="black" stroke-width="1.3" d="M1163.88,-306C1163.88,-306 1090.12,-306 1090.12,-306 1084.12,-306 1078.12,-300 1078.12,-294 1078.12,-294 1078.12,-282 1078.12,-282 1078.12,-276 1084.12,-270 1090.12,-270 1090.12,-270 1163.88,-270 1163.88,-270 1169.88,-270 1175.88,-276 1175.88,-282 1175.88,-282 1175.88,-294 1175.88,-294 1175.88,-300 1169.88,-306 1163.88,-306"/>
<text text-anchor="middle" x="1127" y="-282.75" font-family="Arial" font-size="15.00">share_panel</text>
</g>
<!-- /lib/panels/layers/tools_and_layers_panel.dart&#45;&gt;/lib/panels/share_panel.dart -->
<g id="edge20" class="edge">
<title>/lib/panels/layers/tools_and_layers_panel.dart&#45;&gt;/lib/panels/share_panel.dart</title>
<path fill="none" stroke="#aabbaa" stroke-width="1.3" stroke-opacity="0.533333" d="M1240.29,-341.52C1220.57,-332.38 1196.23,-321.09 1175.17,-311.33"/>
<polygon fill="#aabbaa" fill-opacity="0.533333" stroke="#aabbaa" stroke-width="1.3" stroke-opacity="0.533333" points="1176.82,-308.24 1166.28,-307.21 1173.88,-314.59 1176.82,-308.24"/>
</g>
<!-- /lib/panels/layers/tools_and_layers_panel.dart&#45;&gt;/lib/models/app_model.dart -->
<g id="edge18" class="edge">
<title>/lib/panels/layers/tools_and_layers_panel.dart&#45;&gt;/lib/models/app_model.dart</title>
<path fill="none" stroke="#aabbaa" stroke-width="1.3" stroke-opacity="0.533333" d="M1191.27,-357.32C1141.14,-352.43 1079.23,-339.25 1034,-306 1015.88,-292.68 1027.76,-274.4 1009,-262 982.88,-244.74 967.53,-266.91 939,-254 927.46,-248.78 916.71,-240.1 907.94,-231.55"/>
<polygon fill="#aabbaa" fill-opacity="0.533333" stroke="#aabbaa" stroke-width="1.3" stroke-opacity="0.533333" points="910.7,-229.37 901.24,-224.58 905.65,-234.22 910.7,-229.37"/>
</g>
<!-- /lib/files/import_files.dart -->
<g id="node26" class="node">
<title>/lib/files/import_files.dart</title>
<path fill="Lavender" stroke="black" stroke-width="1.3" d="M407.25,-378C407.25,-378 338.75,-378 338.75,-378 332.75,-378 326.75,-372 326.75,-366 326.75,-366 326.75,-354 326.75,-354 326.75,-348 332.75,-342 338.75,-342 338.75,-342 407.25,-342 407.25,-342 413.25,-342 419.25,-348 419.25,-354 419.25,-354 419.25,-366 419.25,-366 419.25,-372 413.25,-378 407.25,-378"/>
<text text-anchor="middle" x="373" y="-354.75" font-family="Arial" font-size="15.00">import_files</text>
</g>
<!-- /lib/panels/layers/tools_and_layers_panel.dart&#45;&gt;/lib/files/import_files.dart -->
<g id="edge17" class="edge">
<title>/lib/panels/layers/tools_and_layers_panel.dart&#45;&gt;/lib/files/import_files.dart</title>
<path fill="none" stroke="#aabbaa" stroke-width="1.3" stroke-opacity="0.533333" d="M1214.87,-378.39C1168.37,-390.95 1103.33,-406.45 1045,-413 1028.22,-414.88 453.52,-416.51 437,-413 420.47,-409.49 405.67,-398.1 394.47,-386.77"/>
<polygon fill="#aabbaa" fill-opacity="0.533333" stroke="#aabbaa" stroke-width="1.3" stroke-opacity="0.533333" points="397.32,-384.69 387.98,-379.7 392.16,-389.43 397.32,-384.69"/>
</g>
<!-- /lib/panels/layers/layer_selector.dart&#45;&gt;/lib/models/app_model.dart -->
<g id="edge21" class="edge">
<title>/lib/panels/layers/layer_selector.dart&#45;&gt;/lib/models/app_model.dart</title>
<path fill="none" stroke="#aabbaa" stroke-width="1.3" stroke-opacity="0.533333" d="M1274.44,-269.57C1266.89,-266.49 1258.82,-263.72 1251,-262 1217.13,-254.56 971.19,-266.89 939,-254 927.07,-249.22 916.13,-240.46 907.32,-231.72"/>
<polygon fill="#aabbaa" fill-opacity="0.533333" stroke="#aabbaa" stroke-width="1.3" stroke-opacity="0.533333" points="910,-229.47 900.61,-224.57 904.9,-234.26 910,-229.47"/>
</g>
<!-- /lib/widgets/truncated_text.dart -->
<g id="node31" class="node">
<title>/lib/widgets/truncated_text.dart</title>
<path fill="Lavender" stroke="black" stroke-width="1.3" d="M1958,-223C1958,-223 1870,-223 1870,-223 1864,-223 1858,-217 1858,-211 1858,-211 1858,-199 1858,-199 1858,-193 1864,-187 1870,-187 1870,-187 1958,-187 1958,-187 1964,-187 1970,-193 1970,-199 1970,-199 1970,-211 1970,-211 1970,-217 1964,-223 1958,-223"/>
<text text-anchor="middle" x="1914" y="-199.75" font-family="Arial" font-size="15.00">truncated_text</text>
</g>
<!-- /lib/panels/layers/layer_selector.dart&#45;&gt;/lib/widgets/truncated_text.dart -->
<g id="edge25" class="edge">
<title>/lib/panels/layers/layer_selector.dart&#45;&gt;/lib/widgets/truncated_text.dart</title>
<path fill="none" stroke="#aabbaa" stroke-width="1.3" stroke-opacity="0.533333" d="M1349.11,-269.52C1357.82,-266.44 1367.09,-263.69 1376,-262 1427.65,-252.23 1799.21,-270.86 1849,-254 1863.08,-249.23 1876.64,-240.19 1887.7,-231.22"/>
<polygon fill="#aabbaa" fill-opacity="0.533333" stroke="#aabbaa" stroke-width="1.3" stroke-opacity="0.533333" points="1889.92,-233.93 1895.23,-224.76 1885.36,-228.62 1889.92,-233.93"/>
</g>
<!-- /lib/widgets/container_slider.dart -->
<g id="node32" class="node">
<title>/lib/widgets/container_slider.dart</title>
<path fill="Lavender" stroke="black" stroke-width="1.3" d="M2225.5,-223C2225.5,-223 2128.5,-223 2128.5,-223 2122.5,-223 2116.5,-217 2116.5,-211 2116.5,-211 2116.5,-199 2116.5,-199 2116.5,-193 2122.5,-187 2128.5,-187 2128.5,-187 2225.5,-187 2225.5,-187 2231.5,-187 2237.5,-193 2237.5,-199 2237.5,-199 2237.5,-211 2237.5,-211 2237.5,-217 2231.5,-223 2225.5,-223"/>
<text text-anchor="middle" x="2177" y="-199.75" font-family="Arial" font-size="15.00">container_slider</text>
</g>
<!-- /lib/panels/layers/layer_selector.dart&#45;&gt;/lib/widgets/container_slider.dart -->
<g id="edge22" class="edge">
<title>/lib/panels/layers/layer_selector.dart&#45;&gt;/lib/widgets/container_slider.dart</title>
<path fill="none" stroke="#aabbaa" stroke-width="1.3" stroke-opacity="0.533333" d="M1348.75,-269.61C1357.56,-266.48 1366.97,-263.68 1376,-262 1415.93,-254.57 2068.27,-266.24 2107,-254 2122.3,-249.17 2137.25,-239.76 2149.38,-230.55"/>
<polygon fill="#aabbaa" fill-opacity="0.533333" stroke="#aabbaa" stroke-width="1.3" stroke-opacity="0.533333" points="2151.29,-233.5 2156.92,-224.52 2146.92,-228.03 2151.29,-233.5"/>
</g>
<!-- /lib/panels/layers/layer_selector.dart&#45;&gt;/lib/widgets/transparent_background.dart -->
<g id="edge24" class="edge">
<title>/lib/panels/layers/layer_selector.dart&#45;&gt;/lib/widgets/transparent_background.dart</title>
<path fill="none" stroke="#aabbaa" stroke-width="1.3" stroke-opacity="0.533333" d="M1344.12,-269.59C1402.43,-240.77 1514.75,-185.63 1534,-179 1583.58,-161.91 1640.44,-148.83 1687.87,-139.63"/>
<polygon fill="#aabbaa" fill-opacity="0.533333" stroke="#aabbaa" stroke-width="1.3" stroke-opacity="0.533333" points="1688.29,-143.11 1697.46,-137.8 1686.98,-136.23 1688.29,-143.11"/>
</g>
<!-- /lib/widgets/image_painter.dart -->
<g id="node35" class="node">
<title>/lib/widgets/image_painter.dart</title>
<path fill="Lavender" stroke="black" stroke-width="1.3" d="M2086.25,-223C2086.25,-223 1999.75,-223 1999.75,-223 1993.75,-223 1987.75,-217 1987.75,-211 1987.75,-211 1987.75,-199 1987.75,-199 1987.75,-193 1993.75,-187 1999.75,-187 1999.75,-187 2086.25,-187 2086.25,-187 2092.25,-187 2098.25,-193 2098.25,-199 2098.25,-199 2098.25,-211 2098.25,-211 2098.25,-217 2092.25,-223 2086.25,-223"/>
<text text-anchor="middle" x="2043" y="-199.75" font-family="Arial" font-size="15.00">image_painter</text>
</g>
<!-- /lib/panels/layers/layer_selector.dart&#45;&gt;/lib/widgets/image_painter.dart -->
<g id="edge23" class="edge">
<title>/lib/panels/layers/layer_selector.dart&#45;&gt;/lib/widgets/image_painter.dart</title>
<path fill="none" stroke="#aabbaa" stroke-width="1.3" stroke-opacity="0.533333" d="M1348.75,-269.62C1357.56,-266.49 1366.97,-263.69 1376,-262 1408.93,-255.83 1947.29,-264.81 1979,-254 1992.93,-249.25 2006.29,-240.21 2017.17,-231.25"/>
<polygon fill="#aabbaa" fill-opacity="0.533333" stroke="#aabbaa" stroke-width="1.3" stroke-opacity="0.533333" points="2019.33,-234 2024.56,-224.79 2014.73,-228.73 2019.33,-234"/>
</g>
<!-- /lib/panels/side_panel.dart -->
<g id="node13" class="node">
<title>/lib/panels/side_panel.dart</title>
<path fill="Lavender" stroke="black" stroke-width="1.3" d="M1231.62,-453C1231.62,-453 1168.38,-453 1168.38,-453 1162.38,-453 1156.38,-447 1156.38,-441 1156.38,-441 1156.38,-429 1156.38,-429 1156.38,-423 1162.38,-417 1168.38,-417 1168.38,-417 1231.62,-417 1231.62,-417 1237.62,-417 1243.62,-423 1243.62,-429 1243.62,-429 1243.62,-441 1243.62,-441 1243.62,-447 1237.62,-453 1231.62,-453"/>
<text text-anchor="middle" x="1200" y="-429.75" font-family="Arial" font-size="15.00">side_panel</text>
</g>
<!-- /lib/panels/side_panel.dart&#45;&gt;/lib/panels/tools/tools_panel.dart -->
<g id="edge28" class="edge">
<title>/lib/panels/side_panel.dart&#45;&gt;/lib/panels/tools/tools_panel.dart</title>
<path fill="none" stroke="#aabbaa" stroke-width="1.3" stroke-opacity="0.533333" d="M1244.07,-417.87C1245.39,-417.56 1246.7,-417.27 1248,-417 1303.85,-405.6 1321.06,-424.17 1376,-409 1395.54,-403.6 1415.71,-393.8 1432.25,-384.44"/>
<polygon fill="#aabbaa" fill-opacity="0.533333" stroke="#aabbaa" stroke-width="1.3" stroke-opacity="0.533333" points="1433.99,-387.48 1440.86,-379.41 1430.46,-381.44 1433.99,-387.48"/>
</g>
<!-- /lib/panels/side_panel.dart&#45;&gt;/lib/panels/layers/tools_and_layers_panel.dart -->
<g id="edge27" class="edge">
<title>/lib/panels/side_panel.dart&#45;&gt;/lib/panels/layers/tools_and_layers_panel.dart</title>
<path fill="none" stroke="#aabbaa" stroke-width="1.3" stroke-opacity="0.533333" d="M1218.48,-416.7C1228.13,-407.67 1240.11,-396.46 1250.79,-386.46"/>
<polygon fill="#aabbaa" fill-opacity="0.533333" stroke="#aabbaa" stroke-width="1.3" stroke-opacity="0.533333" points="1253.03,-389.16 1257.94,-379.77 1248.25,-384.05 1253.03,-389.16"/>
</g>
<!-- /lib/panels/side_panel.dart&#45;&gt;/lib/models/app_model.dart -->
<g id="edge26" class="edge">
<title>/lib/panels/side_panel.dart&#45;&gt;/lib/models/app_model.dart</title>
<path fill="none" stroke="#aabbaa" stroke-width="1.3" stroke-opacity="0.533333" d="M1155.95,-417.78C1154.62,-417.49 1153.31,-417.23 1152,-417 1137.36,-414.43 92.47,-419.55 82,-409 70.49,-397.41 70.86,-273.94 82,-262 132.76,-207.58 654.45,-204.94 829.26,-205.6"/>
<polygon fill="#aabbaa" fill-opacity="0.533333" stroke="#aabbaa" stroke-width="1.3" stroke-opacity="0.533333" points="829.01,-209.09 839.03,-205.64 829.04,-202.09 829.01,-209.09"/>
</g>
<!-- /lib/panels/share_panel.dart&#45;&gt;/lib/panels/canvas_panel.dart -->
<g id="edge30" class="edge">
<title>/lib/panels/share_panel.dart&#45;&gt;/lib/panels/canvas_panel.dart</title>
<path fill="none" stroke="#aabbaa" stroke-width="1.3" stroke-opacity="0.533333" d="M1128.48,-269.82C1129.35,-259.8 1130.47,-246.88 1131.47,-235.29"/>
<polygon fill="#aabbaa" fill-opacity="0.533333" stroke="#aabbaa" stroke-width="1.3" stroke-opacity="0.533333" points="1134.95,-235.66 1132.32,-225.39 1127.98,-235.05 1134.95,-235.66"/>
</g>
<!-- /lib/panels/share_panel.dart&#45;&gt;/lib/models/app_model.dart -->
<g id="edge29" class="edge">
<title>/lib/panels/share_panel.dart&#45;&gt;/lib/models/app_model.dart</title>
<path fill="none" stroke="#aabbaa" stroke-width="1.3" stroke-opacity="0.533333" d="M1081.94,-269.53C1072.81,-266.57 1063.19,-263.86 1054,-262 1028.89,-256.92 962.57,-264.04 939,-254 927.35,-249.04 916.57,-240.41 907.82,-231.82"/>
<polygon fill="#aabbaa" fill-opacity="0.533333" stroke="#aabbaa" stroke-width="1.3" stroke-opacity="0.533333" points="910.57,-229.64 901.14,-224.82 905.5,-234.47 910.57,-229.64"/>
</g>
<!-- /lib/models/layers.dart -->
<g id="node15" class="node">
<title>/lib/models/layers.dart</title>
<path fill="Lavender" stroke="black" stroke-width="1.3" d="M988.88,-378C988.88,-378 957.12,-378 957.12,-378 951.12,-378 945.12,-372 945.12,-366 945.12,-366 945.12,-354 945.12,-354 945.12,-348 951.12,-342 957.12,-342 957.12,-342 988.88,-342 988.88,-342 994.88,-342 1000.88,-348 1000.88,-354 1000.88,-354 1000.88,-366 1000.88,-366 1000.88,-372 994.88,-378 988.88,-378"/>
<text text-anchor="middle" x="973" y="-354.75" font-family="Arial" font-size="15.00">layers</text>
</g>
<!-- /lib/models/layers.dart&#45;&gt;/lib/models/layer.dart -->
<g id="edge32" class="edge">
<title>/lib/models/layers.dart&#45;&gt;/lib/models/layer.dart</title>
<path fill="none" stroke="#aabbaa" stroke-width="1.3" stroke-opacity="0.533333" d="M967.08,-341.7C966.34,-334.49 966.09,-325.93 966.34,-317.82"/>
<polygon fill="#aabbaa" fill-opacity="0.533333" stroke="#aabbaa" stroke-width="1.3" stroke-opacity="0.533333" points="969.82,-318.27 966.98,-308.07 962.84,-317.82 969.82,-318.27"/>
</g>
<!-- /lib/models/layers.dart&#45;&gt;/lib/models/layer.dart -->
<g id="edge33" class="edge">
<title>/lib/models/layers.dart&#45;&gt;/lib/models/layer.dart</title>
<path fill="none" stroke="#aabbaa" stroke-width="1.3" stroke-dasharray="5,2" stroke-opacity="0.533333" d="M978.92,-341.7C979.66,-334.49 979.91,-325.93 979.66,-317.82"/>
<polygon fill="#aabbaa" fill-opacity="0.533333" stroke="#aabbaa" stroke-width="1.3" stroke-opacity="0.533333" points="983.16,-317.82 979.02,-308.07 976.18,-318.27 983.16,-317.82"/>
</g>
<!-- /lib/helpers/list_helper.dart -->
<g id="node28" class="node">
<title>/lib/helpers/list_helper.dart</title>
<path fill="Lavender" stroke="black" stroke-width="1.3" d="M2693.75,-68C2693.75,-68 2634.25,-68 2634.25,-68 2628.25,-68 2622.25,-62 2622.25,-56 2622.25,-56 2622.25,-44 2622.25,-44 2622.25,-38 2628.25,-32 2634.25,-32 2634.25,-32 2693.75,-32 2693.75,-32 2699.75,-32 2705.75,-38 2705.75,-44 2705.75,-44 2705.75,-56 2705.75,-56 2705.75,-62 2699.75,-68 2693.75,-68"/>
<text text-anchor="middle" x="2664" y="-44.75" font-family="Arial" font-size="15.00">list_helper</text>
</g>
<!-- /lib/models/layers.dart&#45;&gt;/lib/helpers/list_helper.dart -->
<g id="edge31" class="edge">
<title>/lib/models/layers.dart&#45;&gt;/lib/helpers/list_helper.dart</title>
<path fill="none" stroke="#aabbaa" stroke-width="1.3" stroke-opacity="0.533333" d="M1001.11,-356.5C1040.91,-353 1115.98,-346.56 1180,-342 1503.99,-318.93 2340.16,-381.26 2639,-254 2689.06,-232.68 2707.16,-220.84 2729,-171 2742.38,-140.47 2744.47,-125.53 2729,-96 2724.75,-87.88 2718.29,-80.93 2711.06,-75.1"/>
<polygon fill="#aabbaa" fill-opacity="0.533333" stroke="#aabbaa" stroke-width="1.3" stroke-opacity="0.533333" points="2713.37,-72.45 2703.21,-69.45 2709.28,-78.13 2713.37,-72.45"/>
</g>
<!-- /lib/models/user_action.dart -->
<g id="node16" class="node">
<title>/lib/models/user_action.dart</title>
<path fill="Lavender" stroke="black" stroke-width="1.3" d="M1029.62,-223C1029.62,-223 960.38,-223 960.38,-223 954.38,-223 948.38,-217 948.38,-211 948.38,-211 948.38,-199 948.38,-199 948.38,-193 954.38,-187 960.38,-187 960.38,-187 1029.62,-187 1029.62,-187 1035.62,-187 1041.62,-193 1041.62,-199 1041.62,-199 1041.62,-211 1041.62,-211 1041.62,-217 1035.62,-223 1029.62,-223"/>
<text text-anchor="middle" x="995" y="-199.75" font-family="Arial" font-size="15.00">user_action</text>
</g>
<!-- /lib/widgets/brush_style_picker.dart -->
<g id="node36" class="node">
<title>/lib/widgets/brush_style_picker.dart</title>
<path fill="Lavender" stroke="black" stroke-width="1.3" d="M1828.25,-223C1828.25,-223 1711.75,-223 1711.75,-223 1705.75,-223 1699.75,-217 1699.75,-211 1699.75,-211 1699.75,-199 1699.75,-199 1699.75,-193 1705.75,-187 1711.75,-187 1711.75,-187 1828.25,-187 1828.25,-187 1834.25,-187 1840.25,-193 1840.25,-199 1840.25,-199 1840.25,-211 1840.25,-211 1840.25,-217 1834.25,-223 1828.25,-223"/>
<text text-anchor="middle" x="1770" y="-199.75" font-family="Arial" font-size="15.00">brush_style_picker</text>
</g>
<!-- /lib/models/user_action.dart&#45;&gt;/lib/widgets/brush_style_picker.dart -->
<g id="edge34" class="edge">
<title>/lib/models/user_action.dart&#45;&gt;/lib/widgets/brush_style_picker.dart</title>
<path fill="none" stroke="#aabbaa" stroke-width="1.3" stroke-opacity="0.533333" d="M1013.3,-223.25C1027.79,-236.11 1049.32,-251.85 1072,-256.67 1085.64,-259.56 1560.17,-258.46 1574,-256.67 1618.12,-250.95 1666.46,-238.28 1704.1,-226.92"/>
<polygon fill="#aabbaa" fill-opacity="0.533333" stroke="#aabbaa" stroke-width="1.3" stroke-opacity="0.533333" points="1705,-230.3 1713.54,-224.02 1702.95,-223.61 1705,-230.3"/>
</g>
<!-- /lib/models/user_action.dart&#45;&gt;/lib/widgets/brush_style_picker.dart -->
<g id="edge35" class="edge">
<title>/lib/models/user_action.dart&#45;&gt;/lib/widgets/brush_style_picker.dart</title>
<path fill="none" stroke="#aabbaa" stroke-width="1.3" stroke-dasharray="5,2" stroke-opacity="0.533333" d="M1013.86,-223.3C1029.54,-236.94 1053.23,-254.08 1078,-259.33 1091.31,-262.16 1554.51,-261.12 1568,-259.33 1614.86,-253.14 1666.28,-239.2 1705.52,-226.99"/>
<polygon fill="#aabbaa" fill-opacity="0.533333" stroke="#aabbaa" stroke-width="1.3" stroke-opacity="0.533333" points="1706.41,-230.38 1714.89,-224.03 1704.3,-223.71 1706.41,-230.38"/>
</g>
<!-- /lib/models/app_model.dart&#45;&gt;/lib/models/layers.dart -->
<g id="edge36" class="edge">
<title>/lib/models/app_model.dart&#45;&gt;/lib/models/layers.dart</title>
<path fill="none" stroke="#aabbaa" stroke-width="1.3" stroke-opacity="0.533333" d="M888.83,-223.38C894.09,-234.3 902.39,-248.78 909,-262 918.52,-281.05 917.75,-287.33 928,-306 932.93,-314.97 938.96,-324.34 945.09,-332.66"/>
<polygon fill="#aabbaa" fill-opacity="0.533333" stroke="#aabbaa" stroke-width="1.3" stroke-opacity="0.533333" points="942.14,-334.58 951.05,-340.31 947.66,-330.27 942.14,-334.58"/>
</g>
<!-- /lib/models/app_model.dart&#45;&gt;/lib/models/layers.dart -->
<g id="edge37" class="edge">
<title>/lib/models/app_model.dart&#45;&gt;/lib/models/layers.dart</title>
<path fill="none" stroke="#aabbaa" stroke-width="1.3" stroke-dasharray="5,2" stroke-opacity="0.533333" d="M904.37,-223.38C912.09,-234.3 920.39,-248.78 927,-262 936.52,-281.05 935.75,-287.33 946,-306 950.76,-314.68 956.57,-323.73 961.73,-331.84"/>
<polygon fill="#aabbaa" fill-opacity="0.533333" stroke="#aabbaa" stroke-width="1.3" stroke-opacity="0.533333" points="958.69,-333.58 966.97,-340.19 964.62,-329.86 958.69,-333.58"/>
</g>
<!-- /lib/models/layer.dart&#45;&gt;/lib/models/user_action.dart -->
<g id="edge40" class="edge">
<title>/lib/models/layer.dart&#45;&gt;/lib/models/user_action.dart</title>
<path fill="none" stroke="#aabbaa" stroke-width="1.3" stroke-dasharray="5,2" stroke-opacity="0.533333" d="M977.67,-269.82C980.42,-259.69 983.97,-246.6 987.15,-234.92"/>
<polygon fill="#aabbaa" fill-opacity="0.533333" stroke="#aabbaa" stroke-width="1.3" stroke-opacity="0.533333" points="990.51,-235.9 989.75,-225.33 983.75,-234.06 990.51,-235.9"/>
</g>
<!-- /lib/models/layer.dart&#45;&gt;/lib/models/app_model.dart -->
<g id="edge38" class="edge">
<title>/lib/models/layer.dart&#45;&gt;/lib/models/app_model.dart</title>
<path fill="none" stroke="#aabbaa" stroke-width="1.3" stroke-opacity="0.533333" d="M954.55,-269.82C942.52,-258.62 926.61,-243.81 913.15,-231.28"/>
<polygon fill="#aabbaa" fill-opacity="0.533333" stroke="#aabbaa" stroke-width="1.3" stroke-opacity="0.533333" points="915.87,-229.03 906.16,-224.77 911.1,-234.15 915.87,-229.03"/>
</g>
<!-- /lib/models/layer.dart&#45;&gt;/lib/widgets/transparent_background.dart -->
<g id="edge39" class="edge">
<title>/lib/models/layer.dart&#45;&gt;/lib/widgets/transparent_background.dart</title>
<path fill="none" stroke="#aabbaa" stroke-width="1.3" stroke-opacity="0.533333" d="M991.33,-269.74C995.27,-266.76 999.59,-263.99 1004,-262 1023.32,-253.29 1035.8,-268.77 1051,-254 1075.38,-230.31 1040.56,-201.55 1066,-179 1111.45,-138.7 1499.25,-127.34 1687.41,-124.18"/>
<polygon fill="#aabbaa" fill-opacity="0.533333" stroke="#aabbaa" stroke-width="1.3" stroke-opacity="0.533333" points="1687.33,-127.69 1697.27,-124.02 1687.21,-120.69 1687.33,-127.69"/>
</g>
<!-- /lib/main.dart&#45;&gt;/lib/models/app_model.dart -->
<g id="edge42" class="edge">
<title>/lib/main.dart&#45;&gt;/lib/models/app_model.dart</title>
<path fill="none" stroke="#aabbaa" stroke-width="1.3" stroke-opacity="0.533333" d="M1101.76,-581.09C949.77,-580.94 208.49,-571.8 70,-409 27.67,-359.24 25.41,-309.75 70,-262 121.6,-206.73 652.22,-204.67 829.03,-205.53"/>
<polygon fill="#aabbaa" fill-opacity="0.533333" stroke="#aabbaa" stroke-width="1.3" stroke-opacity="0.533333" points="828.9,-209.03 838.92,-205.59 828.94,-202.03 828.9,-209.03"/>
</g>
<!-- /lib/main_screen.dart -->
<g id="node27" class="node">
<title>/lib/main_screen.dart</title>
<path fill="Lavender" stroke="black" stroke-width="1.3" d="M1167.75,-528C1167.75,-528 1090.25,-528 1090.25,-528 1084.25,-528 1078.25,-522 1078.25,-516 1078.25,-516 1078.25,-504 1078.25,-504 1078.25,-498 1084.25,-492 1090.25,-492 1090.25,-492 1167.75,-492 1167.75,-492 1173.75,-492 1179.75,-498 1179.75,-504 1179.75,-504 1179.75,-516 1179.75,-516 1179.75,-522 1173.75,-528 1167.75,-528"/>
<text text-anchor="middle" x="1129" y="-504.75" font-family="Arial" font-size="15.00">main_screen</text>
</g>
<!-- /lib/main.dart&#45;&gt;/lib/main_screen.dart -->
<g id="edge41" class="edge">
<title>/lib/main.dart&#45;&gt;/lib/main_screen.dart</title>
<path fill="none" stroke="#aabbaa" stroke-width="1.3" stroke-opacity="0.533333" d="M1129,-563.7C1129,-556.49 1129,-547.93 1129,-539.82"/>
<polygon fill="#aabbaa" fill-opacity="0.533333" stroke="#aabbaa" stroke-width="1.3" stroke-opacity="0.533333" points="1132.5,-540.07 1129,-530.07 1125.5,-540.07 1132.5,-540.07"/>
</g>
<!-- /lib/files/xcf_reader.dart&#45;&gt;/lib/helpers/list_helper.dart -->
<g id="edge43" class="edge">
<title>/lib/files/xcf_reader.dart&#45;&gt;/lib/helpers/list_helper.dart</title>
<path fill="none" stroke="#aabbaa" stroke-width="1.3" stroke-opacity="0.533333" d="M172.95,-341.63C275.44,-291.71 585.39,-148.12 861,-96 1036.36,-62.84 2329.36,-53.05 2610.25,-51.31"/>
<polygon fill="#aabbaa" fill-opacity="0.533333" stroke="#aabbaa" stroke-width="1.3" stroke-opacity="0.533333" points="2610.16,-54.81 2620.13,-51.25 2610.11,-47.81 2610.16,-54.81"/>
</g>
<!-- /lib/files/file_jpeg.dart -->
<g id="node22" class="node">
<title>/lib/files/file_jpeg.dart</title>
<path fill="Lavender" stroke="black" stroke-width="1.3" d="M758.38,-306C758.38,-306 711.62,-306 711.62,-306 705.62,-306 699.62,-300 699.62,-294 699.62,-294 699.62,-282 699.62,-282 699.62,-276 705.62,-270 711.62,-270 711.62,-270 758.38,-270 758.38,-270 764.38,-270 770.38,-276 770.38,-282 770.38,-282 770.38,-294 770.38,-294 770.38,-300 764.38,-306 758.38,-306"/>
<text text-anchor="middle" x="735" y="-282.75" font-family="Arial" font-size="15.00">file_jpeg</text>
</g>
<!-- /lib/files/export_download_web.dart -->
<g id="node23" class="node">
<title>/lib/files/export_download_web.dart</title>
<path fill="Lavender" stroke="black" stroke-width="1.3" d="M805.25,-378C805.25,-378 664.75,-378 664.75,-378 658.75,-378 652.75,-372 652.75,-366 652.75,-366 652.75,-354 652.75,-354 652.75,-348 658.75,-342 664.75,-342 664.75,-342 805.25,-342 805.25,-342 811.25,-342 817.25,-348 817.25,-354 817.25,-354 817.25,-366 817.25,-366 817.25,-372 811.25,-378 805.25,-378"/>
<text text-anchor="middle" x="735" y="-354.75" font-family="Arial" font-size="15.00">export_download_web</text>
</g>
<!-- /lib/files/export_download_web.dart&#45;&gt;/lib/panels/share_panel.dart -->
<g id="edge47" class="edge">
<title>/lib/files/export_download_web.dart&#45;&gt;/lib/panels/share_panel.dart</title>
<path fill="none" stroke="#aabbaa" stroke-width="1.3" stroke-opacity="0.533333" d="M817.52,-343.98C821.4,-343.3 825.24,-342.64 829,-342 928.83,-324.99 954.62,-325.5 1054,-306 1058.14,-305.19 1062.4,-304.31 1066.68,-303.39"/>
<polygon fill="#aabbaa" fill-opacity="0.533333" stroke="#aabbaa" stroke-width="1.3" stroke-opacity="0.533333" points="1067.08,-306.89 1076.1,-301.33 1065.58,-300.05 1067.08,-306.89"/>
</g>
<!-- /lib/files/export_download_web.dart&#45;&gt;/lib/models/app_model.dart -->
<g id="edge46" class="edge">
<title>/lib/files/export_download_web.dart&#45;&gt;/lib/models/app_model.dart</title>
<path fill="none" stroke="#aabbaa" stroke-width="1.3" stroke-opacity="0.533333" d="M789.58,-341.58C808.75,-333.28 829.17,-321.66 844,-306 862.81,-286.13 873.79,-256.6 879.78,-234.78"/>
<polygon fill="#aabbaa" fill-opacity="0.533333" stroke="#aabbaa" stroke-width="1.3" stroke-opacity="0.533333" points="883.15,-235.72 882.2,-225.17 876.37,-234.01 883.15,-235.72"/>
</g>
<!-- /lib/files/export_download_web.dart&#45;&gt;/lib/files/file_jpeg.dart -->
<g id="edge44" class="edge">
<title>/lib/files/export_download_web.dart&#45;&gt;/lib/files/file_jpeg.dart</title>
<path fill="none" stroke="#aabbaa" stroke-width="1.3" stroke-opacity="0.533333" d="M735,-341.7C735,-334.49 735,-325.93 735,-317.82"/>
<polygon fill="#aabbaa" fill-opacity="0.533333" stroke="#aabbaa" stroke-width="1.3" stroke-opacity="0.533333" points="738.5,-318.07 735,-308.07 731.5,-318.07 738.5,-318.07"/>
</g>
<!-- /lib/files/file_ora.dart -->
<g id="node24" class="node">
<title>/lib/files/file_ora.dart</title>
<path fill="Lavender" stroke="black" stroke-width="1.3" d="M669.38,-306C669.38,-306 628.62,-306 628.62,-306 622.62,-306 616.62,-300 616.62,-294 616.62,-294 616.62,-282 616.62,-282 616.62,-276 622.62,-270 628.62,-270 628.62,-270 669.38,-270 669.38,-270 675.38,-270 681.38,-276 681.38,-282 681.38,-282 681.38,-294 681.38,-294 681.38,-300 675.38,-306 669.38,-306"/>
<text text-anchor="middle" x="649" y="-282.75" font-family="Arial" font-size="15.00">file_ora</text>
</g>
<!-- /lib/files/export_download_web.dart&#45;&gt;/lib/files/file_ora.dart -->
<g id="edge45" class="edge">
<title>/lib/files/export_download_web.dart&#45;&gt;/lib/files/file_ora.dart</title>
<path fill="none" stroke="#aabbaa" stroke-width="1.3" stroke-opacity="0.533333" d="M713.74,-341.7C703.4,-333.28 690.79,-323.02 679.46,-313.79"/>
<polygon fill="#aabbaa" fill-opacity="0.533333" stroke="#aabbaa" stroke-width="1.3" stroke-opacity="0.533333" points="681.8,-311.19 671.84,-307.59 677.38,-316.62 681.8,-311.19"/>
</g>
<!-- /lib/files/file_ora.dart&#45;&gt;/lib/models/app_model.dart -->
<g id="edge49" class="edge">
<title>/lib/files/file_ora.dart&#45;&gt;/lib/models/app_model.dart</title>
<path fill="none" stroke="#aabbaa" stroke-width="1.3" stroke-opacity="0.533333" d="M674.91,-269.55C680.07,-266.67 685.58,-263.98 691,-262 711.73,-254.45 718.56,-259.24 740,-254 770.05,-246.65 802.83,-236.12 829.7,-226.79"/>
<polygon fill="#aabbaa" fill-opacity="0.533333" stroke="#aabbaa" stroke-width="1.3" stroke-opacity="0.533333" points="830.7,-230.14 838.97,-223.53 828.37,-223.54 830.7,-230.14"/>
</g>
<!-- /lib/files/file_ora.dart&#45;&gt;/lib/helpers/list_helper.dart -->
<g id="edge48" class="edge">
<title>/lib/files/file_ora.dart&#45;&gt;/lib/helpers/list_helper.dart</title>
<path fill="none" stroke="#aabbaa" stroke-width="1.3" stroke-opacity="0.533333" d="M670.7,-269.53C703.02,-244.59 766.7,-199.53 829,-179 1172.52,-65.78 2344.81,-52.71 2610.26,-51.2"/>
<polygon fill="#aabbaa" fill-opacity="0.533333" stroke="#aabbaa" stroke-width="1.3" stroke-opacity="0.533333" points="2609.91,-54.7 2619.89,-51.15 2609.87,-47.7 2609.91,-54.7"/>
</g>
<!-- /lib/files/export_download_non_web.dart -->
<g id="node25" class="node">
<title>/lib/files/export_download_non_web.dart</title>
<path fill="Lavender" stroke="black" stroke-width="1.3" d="M622.75,-378C622.75,-378 449.25,-378 449.25,-378 443.25,-378 437.25,-372 437.25,-366 437.25,-366 437.25,-354 437.25,-354 437.25,-348 443.25,-342 449.25,-342 449.25,-342 622.75,-342 622.75,-342 628.75,-342 634.75,-348 634.75,-354 634.75,-354 634.75,-366 634.75,-366 634.75,-372 628.75,-378 622.75,-378"/>
<text text-anchor="middle" x="536" y="-354.75" font-family="Arial" font-size="15.00">export_download_non_web</text>
</g>
<!-- /lib/files/export_download_non_web.dart&#45;&gt;/lib/panels/share_panel.dart -->
<g id="edge53" class="edge">
<title>/lib/files/export_download_non_web.dart&#45;&gt;/lib/panels/share_panel.dart</title>
<path fill="none" stroke="#aabbaa" stroke-width="1.3" stroke-opacity="0.533333" d="M635.13,-343.13C638.12,-342.73 641.08,-342.36 644,-342 825.57,-319.77 873.36,-334.82 1054,-306 1057.98,-305.37 1062.06,-304.64 1066.16,-303.84"/>
<polygon fill="#aabbaa" fill-opacity="0.533333" stroke="#aabbaa" stroke-width="1.3" stroke-opacity="0.533333" points="1066.69,-307.31 1075.78,-301.87 1065.28,-300.45 1066.69,-307.31"/>
</g>
<!-- /lib/files/export_download_non_web.dart&#45;&gt;/lib/models/app_model.dart -->
<g id="edge52" class="edge">
<title>/lib/files/export_download_non_web.dart&#45;&gt;/lib/models/app_model.dart</title>
<path fill="none" stroke="#aabbaa" stroke-width="1.3" stroke-opacity="0.533333" d="M635.06,-342.79C714.62,-329.43 814.32,-311.78 822,-306 839.47,-292.85 832.51,-280.6 844,-262 850.19,-251.98 857.72,-241.52 864.68,-232.39"/>
<polygon fill="#aabbaa" fill-opacity="0.533333" stroke="#aabbaa" stroke-width="1.3" stroke-opacity="0.533333" points="867.33,-234.68 870.71,-224.64 861.81,-230.38 867.33,-234.68"/>
</g>
<!-- /lib/files/export_download_non_web.dart&#45;&gt;/lib/files/file_jpeg.dart -->
<g id="edge50" class="edge">
<title>/lib/files/export_download_non_web.dart&#45;&gt;/lib/files/file_jpeg.dart</title>
<path fill="none" stroke="#aabbaa" stroke-width="1.3" stroke-opacity="0.533333" d="M587.82,-341.59C615.18,-332.31 649.56,-320.48 688.17,-306.61"/>
<polygon fill="#aabbaa" fill-opacity="0.533333" stroke="#aabbaa" stroke-width="1.3" stroke-opacity="0.533333" points="689.1,-310 697.32,-303.31 686.73,-303.41 689.1,-310"/>
</g>
<!-- /lib/files/export_download_non_web.dart&#45;&gt;/lib/files/file_ora.dart -->
<g id="edge51" class="edge">
<title>/lib/files/export_download_non_web.dart&#45;&gt;/lib/files/file_ora.dart</title>
<path fill="none" stroke="#aabbaa" stroke-width="1.3" stroke-opacity="0.533333" d="M564.22,-341.52C578.49,-332.68 595.99,-321.84 611.38,-312.3"/>
<polygon fill="#aabbaa" fill-opacity="0.533333" stroke="#aabbaa" stroke-width="1.3" stroke-opacity="0.533333" points="612.81,-315.54 619.46,-307.3 609.12,-309.59 612.81,-315.54"/>
</g>
<!-- /lib/files/import_files.dart&#45;&gt;/lib/models/app_model.dart -->
<g id="edge55" class="edge">
<title>/lib/files/import_files.dart&#45;&gt;/lib/models/app_model.dart</title>
<path fill="none" stroke="#aabbaa" stroke-width="1.3" stroke-opacity="0.533333" d="M419.64,-343.9C422.46,-343.2 425.26,-342.56 428,-342 581.66,-310.69 637.76,-374.15 779,-306 803.63,-294.12 802.14,-280.79 822,-262 833.06,-251.53 845.59,-240.41 856.62,-230.86"/>
<polygon fill="#aabbaa" fill-opacity="0.533333" stroke="#aabbaa" stroke-width="1.3" stroke-opacity="0.533333" points="858.67,-233.72 863.97,-224.54 854.11,-228.41 858.67,-233.72"/>
</g>
<!-- /lib/files/import_files.dart&#45;&gt;/lib/files/file_ora.dart -->
<g id="edge54" class="edge">
<title>/lib/files/import_files.dart&#45;&gt;/lib/files/file_ora.dart</title>
<path fill="none" stroke="#aabbaa" stroke-width="1.3" stroke-opacity="0.533333" d="M419.75,-344.33C422.53,-343.52 425.3,-342.74 428,-342 488.82,-325.33 559.85,-308.81 604.63,-298.76"/>
<polygon fill="#aabbaa" fill-opacity="0.533333" stroke="#aabbaa" stroke-width="1.3" stroke-opacity="0.533333" points="605.34,-302.19 614.33,-296.59 603.81,-295.35 605.34,-302.19"/>
</g>
<!-- /lib/main_screen.dart&#45;&gt;/lib/panels/tools/flood_fill.dart -->
<g id="edge58" class="edge">
<title>/lib/main_screen.dart&#45;&gt;/lib/panels/tools/flood_fill.dart</title>
<path fill="none" stroke="#aabbaa" stroke-width="1.3" stroke-opacity="0.533333" d="M1180.19,-507.44C1249.4,-504.81 1368.9,-498.32 1410,-484 1467.27,-464.04 1477.82,-448.32 1524,-409 1531.79,-402.36 1539.58,-394.41 1546.39,-386.91"/>
<polygon fill="#aabbaa" fill-opacity="0.533333" stroke="#aabbaa" stroke-width="1.3" stroke-opacity="0.533333" points="1548.59,-389.71 1552.57,-379.89 1543.34,-385.08 1548.59,-389.71"/>
</g>
<!-- /lib/main_screen.dart&#45;&gt;/lib/panels/canvas_panel.dart -->
<g id="edge56" class="edge">
<title>/lib/main_screen.dart&#45;&gt;/lib/panels/canvas_panel.dart</title>
<path fill="none" stroke="#aabbaa" stroke-width="1.3" stroke-opacity="0.533333" d="M1117.35,-491.79C1090.98,-450.5 1031.76,-343.23 1069,-262 1074.61,-249.77 1084.35,-239.19 1094.62,-230.63"/>
<polygon fill="#aabbaa" fill-opacity="0.533333" stroke="#aabbaa" stroke-width="1.3" stroke-opacity="0.533333" points="1096.73,-233.42 1102.52,-224.55 1092.47,-227.87 1096.73,-233.42"/>
</g>
<!-- /lib/main_screen.dart&#45;&gt;/lib/panels/side_panel.dart -->
<g id="edge57" class="edge">
<title>/lib/main_screen.dart&#45;&gt;/lib/panels/side_panel.dart</title>
<path fill="none" stroke="#aabbaa" stroke-width="1.3" stroke-opacity="0.533333" d="M1145.83,-491.7C1154.52,-482.76 1165.29,-471.68 1174.94,-461.76"/>
<polygon fill="#aabbaa" fill-opacity="0.533333" stroke="#aabbaa" stroke-width="1.3" stroke-opacity="0.533333" points="1177.21,-464.45 1181.68,-454.84 1172.2,-459.57 1177.21,-464.45"/>
</g>
<!-- /lib/main_screen.dart&#45;&gt;/lib/models/app_model.dart -->
<g id="edge59" class="edge">
<title>/lib/main_screen.dart&#45;&gt;/lib/models/app_model.dart</title>
<path fill="none" stroke="#aabbaa" stroke-width="1.3" stroke-opacity="0.533333" d="M1078.13,-496.15C1033.67,-482.21 970.92,-455.46 936,-409 896.77,-356.8 887.99,-277.73 886.23,-235.32"/>
<polygon fill="#aabbaa" fill-opacity="0.533333" stroke="#aabbaa" stroke-width="1.3" stroke-opacity="0.533333" points="889.73,-235.27 885.94,-225.37 882.73,-235.47 889.73,-235.27"/>
</g>
<!-- /lib/helpers/color_helper.dart&#45;&gt;/lib/helpers/list_helper.dart -->
<g id="edge60" class="edge">
<title>/lib/helpers/color_helper.dart&#45;&gt;/lib/helpers/list_helper.dart</title>
<path fill="none" stroke="#aabbaa" stroke-width="1.3" stroke-opacity="0.533333" d="M2669.27,-103.7C2668.55,-96.49 2667.69,-87.93 2666.88,-79.82"/>
<polygon fill="#aabbaa" fill-opacity="0.533333" stroke="#aabbaa" stroke-width="1.3" stroke-opacity="0.533333" points="2670.38,-79.66 2665.91,-70.06 2663.42,-80.36 2670.38,-79.66"/>
</g>
<!-- /lib/widgets/brush_style_picker.dart&#45;&gt;/lib/models/app_model.dart -->
<g id="edge61" class="edge">
<title>/lib/widgets/brush_style_picker.dart&#45;&gt;/lib/models/app_model.dart</title>
<path fill="none" stroke="#aabbaa" stroke-width="1.3" stroke-opacity="0.533333" d="M1716.29,-223.38C1676.67,-235.93 1621.16,-251.43 1571,-258 1553.84,-260.25 964.93,-261.59 948,-258 931.93,-254.59 917.7,-243.39 906.93,-232.16"/>
<polygon fill="#aabbaa" fill-opacity="0.533333" stroke="#aabbaa" stroke-width="1.3" stroke-opacity="0.533333" points="909.63,-229.93 900.38,-224.77 904.39,-234.57 909.63,-229.93"/>
</g>
<!-- /lib/widgets/color_picker.dart&#45;&gt;/lib/helpers/list_helper.dart -->
<g id="edge63" class="edge">
<title>/lib/widgets/color_picker.dart&#45;&gt;/lib/helpers/list_helper.dart</title>
<path fill="none" stroke="#aabbaa" stroke-width="1.3" stroke-opacity="0.533333" d="M2481.23,-186.75C2517.86,-159.54 2589.16,-106.58 2631.06,-75.46"/>
<polygon fill="#aabbaa" fill-opacity="0.533333" stroke="#aabbaa" stroke-width="1.3" stroke-opacity="0.533333" points="2633.02,-78.37 2638.96,-69.6 2628.84,-72.75 2633.02,-78.37"/>
</g>
<!-- /lib/widgets/color_picker.dart&#45;&gt;/lib/helpers/color_helper.dart -->
<g id="edge62" class="edge">
<title>/lib/widgets/color_picker.dart&#45;&gt;/lib/helpers/color_helper.dart</title>
<path fill="none" stroke="#aabbaa" stroke-width="1.3" stroke-opacity="0.533333" d="M2492.93,-186.53C2500.08,-183.57 2507.67,-180.86 2515,-179 2556.07,-168.57 2570.58,-186.53 2610,-171 2623.05,-165.86 2635.58,-156.96 2645.85,-148.21"/>
<polygon fill="#aabbaa" fill-opacity="0.533333" stroke="#aabbaa" stroke-width="1.3" stroke-opacity="0.533333" points="2648.05,-150.94 2653.13,-141.64 2643.36,-145.74 2648.05,-150.94"/>
</g>
<!-- /lib/widgets/color_picker.dart&#45;&gt;/lib/widgets/transparent_background.dart -->
<g id="edge64" class="edge">
<title>/lib/widgets/color_picker.dart&#45;&gt;/lib/widgets/transparent_background.dart</title>
<path fill="none" stroke="#aabbaa" stroke-width="1.3" stroke-opacity="0.533333" d="M2423.05,-186.58C2415.91,-183.61 2408.32,-180.89 2401,-179 2225.35,-133.72 2013.08,-123.88 1890.3,-122.38"/>
<polygon fill="#aabbaa" fill-opacity="0.533333" stroke="#aabbaa" stroke-width="1.3" stroke-opacity="0.533333" points="1890.7,-118.89 1880.67,-122.28 1890.63,-125.89 1890.7,-118.89"/>
</g>
</g>
</svg>
