<?xml version="1.0" encoding="UTF-8" standalone="no"?>
<!DOCTYPE svg PUBLIC "-//W3C//DTD SVG 1.1//EN"
 "http://www.w3.org/Graphics/SVG/1.1/DTD/svg11.dtd">
<!-- Generated by graphviz version 12.2.1 (20241206.2353)
 -->
<!-- Pages: 1 -->
<svg width="2981pt" height="839pt"
 viewBox="0.00 0.00 2981.00 839.00" xmlns="http://www.w3.org/2000/svg" xmlns:xlink="http://www.w3.org/1999/xlink">
<g id="graph0" class="graph" transform="scale(1 1) rotate(0) translate(4 835)">
<polygon fill="white" stroke="none" points="-4,4 -4,-835 2977,-835 2977,4 -4,4"/>
<g id="clust1" class="cluster">
<title>cluster~</title>
<path fill="none" stroke="lightgray" stroke-width="2.6" d="M20,-8C20,-8 2953,-8 2953,-8 2959,-8 2965,-14 2965,-20 2965,-20 2965,-811 2965,-811 2965,-817 2959,-823 2953,-823 2953,-823 20,-823 20,-823 14,-823 8,-817 8,-811 8,-811 8,-20 8,-20 8,-14 14,-8 20,-8"/>
<text text-anchor="middle" x="1486.5" y="-806.65" font-family="Arial Black" font-size="13.00">fpaint</text>
</g>
<g id="clust2" class="cluster">
<title>cluster~/test</title>
<path fill="none" stroke="lightgray" stroke-width="2.6" d="M1063,-639C1063,-639 1649,-639 1649,-639 1655,-639 1661,-645 1661,-651 1661,-651 1661,-780 1661,-780 1661,-786 1655,-792 1649,-792 1649,-792 1063,-792 1063,-792 1057,-792 1051,-786 1051,-780 1051,-780 1051,-651 1051,-651 1051,-645 1057,-639 1063,-639"/>
<text text-anchor="middle" x="1356" y="-775.65" font-family="Arial Black" font-size="13.00">test</text>
</g>
<g id="clust3" class="cluster">
<title>cluster~/test/panels</title>
<path fill="none" stroke="lightgray" stroke-width="2.6" d="M1209,-647C1209,-647 1321,-647 1321,-647 1327,-647 1333,-653 1333,-659 1333,-659 1333,-749 1333,-749 1333,-755 1327,-761 1321,-761 1321,-761 1209,-761 1209,-761 1203,-761 1197,-755 1197,-749 1197,-749 1197,-659 1197,-659 1197,-653 1203,-647 1209,-647"/>
<text text-anchor="middle" x="1265" y="-744.65" font-family="Arial Black" font-size="13.00">panels</text>
</g>
<g id="clust4" class="cluster">
<title>cluster~/test/panels/tools</title>
<path fill="none" stroke="lightgray" stroke-width="2.6" d="M1217,-655C1217,-655 1313,-655 1313,-655 1319,-655 1325,-661 1325,-667 1325,-667 1325,-718 1325,-718 1325,-724 1319,-730 1313,-730 1313,-730 1217,-730 1217,-730 1211,-730 1205,-724 1205,-718 1205,-718 1205,-667 1205,-667 1205,-661 1211,-655 1217,-655"/>
<text text-anchor="middle" x="1265" y="-713.65" font-family="Arial Black" font-size="13.00">tools</text>
</g>
<g id="clust5" class="cluster">
<title>cluster~/lib</title>
<path fill="none" stroke="lightgray" stroke-width="2.6" d="M40,-16C40,-16 2945,-16 2945,-16 2951,-16 2957,-22 2957,-28 2957,-28 2957,-619 2957,-619 2957,-625 2951,-631 2945,-631 2945,-631 40,-631 40,-631 34,-631 28,-625 28,-619 28,-619 28,-28 28,-28 28,-22 34,-16 40,-16"/>
<text text-anchor="middle" x="1492.5" y="-614.65" font-family="Arial Black" font-size="13.00">lib</text>
</g>
<g id="clust6" class="cluster">
<title>cluster~/lib/panels</title>
<path fill="none" stroke="lightgray" stroke-width="2.6" d="M1082,-179C1082,-179 1736,-179 1736,-179 1742,-179 1748,-185 1748,-191 1748,-191 1748,-472 1748,-472 1748,-478 1742,-484 1736,-484 1736,-484 1082,-484 1082,-484 1076,-484 1070,-478 1070,-472 1070,-472 1070,-191 1070,-191 1070,-185 1076,-179 1082,-179"/>
<text text-anchor="middle" x="1409" y="-467.65" font-family="Arial Black" font-size="13.00">panels</text>
</g>
<g id="clust7" class="cluster">
<title>cluster~/lib/panels/tools</title>
<path fill="none" stroke="lightgray" stroke-width="2.6" d="M1456,-262C1456,-262 1728,-262 1728,-262 1734,-262 1740,-268 1740,-274 1740,-274 1740,-397 1740,-397 1740,-403 1734,-409 1728,-409 1728,-409 1456,-409 1456,-409 1450,-409 1444,-403 1444,-397 1444,-397 1444,-274 1444,-274 1444,-268 1450,-262 1456,-262"/>
<text text-anchor="middle" x="1592" y="-392.65" font-family="Arial Black" font-size="13.00">tools</text>
</g>
<g id="clust8" class="cluster">
<title>cluster~/lib/panels/layers</title>
<path fill="none" stroke="lightgray" stroke-width="2.6" d="M1196,-262C1196,-262 1360,-262 1360,-262 1366,-262 1372,-268 1372,-274 1372,-274 1372,-397 1372,-397 1372,-403 1366,-409 1360,-409 1360,-409 1196,-409 1196,-409 1190,-409 1184,-403 1184,-397 1184,-397 1184,-274 1184,-274 1184,-268 1190,-262 1196,-262"/>
<text text-anchor="middle" x="1278" y="-392.65" font-family="Arial Black" font-size="13.00">layers</text>
</g>
<g id="clust9" class="cluster">
<title>cluster~/lib/models</title>
<path fill="none" stroke="lightgray" stroke-width="2.6" d="M845,-179C845,-179 1038,-179 1038,-179 1044,-179 1050,-185 1050,-191 1050,-191 1050,-397 1050,-397 1050,-403 1044,-409 1038,-409 1038,-409 845,-409 845,-409 839,-409 833,-403 833,-397 833,-397 833,-191 833,-191 833,-185 839,-179 845,-179"/>
<text text-anchor="middle" x="941.5" y="-392.65" font-family="Arial Black" font-size="13.00">models</text>
</g>
<g id="clust10" class="cluster">
<title>cluster~/lib/files</title>
<path fill="none" stroke="lightgray" stroke-width="2.6" d="M98,-262C98,-262 813,-262 813,-262 819,-262 825,-268 825,-274 825,-274 825,-397 825,-397 825,-403 819,-409 813,-409 813,-409 98,-409 98,-409 92,-409 86,-403 86,-397 86,-397 86,-274 86,-274 86,-268 92,-262 98,-262"/>
<text text-anchor="middle" x="455.5" y="-392.65" font-family="Arial Black" font-size="13.00">files</text>
</g>
<g id="clust11" class="cluster">
<title>cluster~/lib/helpers</title>
<path fill="none" stroke="lightgray" stroke-width="2.6" d="M2835,-24C2835,-24 2925,-24 2925,-24 2931,-24 2937,-30 2937,-36 2937,-36 2937,-159 2937,-159 2937,-165 2931,-171 2925,-171 2925,-171 2835,-171 2835,-171 2829,-171 2823,-165 2823,-159 2823,-159 2823,-36 2823,-36 2823,-30 2829,-24 2835,-24"/>
<text text-anchor="middle" x="2880" y="-154.65" font-family="Arial Black" font-size="13.00">helpers</text>
</g>
<g id="clust12" class="cluster">
<title>cluster~/lib/widgets</title>
<path fill="none" stroke="lightgray" stroke-width="2.6" d="M1768,-96C1768,-96 2803,-96 2803,-96 2809,-96 2815,-102 2815,-108 2815,-108 2815,-242 2815,-242 2815,-248 2809,-254 2803,-254 2803,-254 1768,-254 1768,-254 1762,-254 1756,-248 1756,-242 1756,-242 1756,-108 1756,-108 1756,-102 1762,-96 1768,-96"/>
<text text-anchor="middle" x="2285.5" y="-237.65" font-family="Arial Black" font-size="13.00">widgets</text>
</g>
<!-- /test/paint_model_test.dart -->
<g id="node1" class="node">
<title>/test/paint_model_test.dart</title>
<path fill="Lavender" stroke="black" stroke-width="1.3" d="M1177,-699C1177,-699 1071,-699 1071,-699 1065,-699 1059,-693 1059,-687 1059,-687 1059,-675 1059,-675 1059,-669 1065,-663 1071,-663 1071,-663 1177,-663 1177,-663 1183,-663 1189,-669 1189,-675 1189,-675 1189,-687 1189,-687 1189,-693 1183,-699 1177,-699"/>
<text text-anchor="middle" x="1124" y="-675.75" font-family="Arial" font-size="15.00">paint_model_test</text>
</g>
<!-- /lib/models/app_model.dart -->
<g id="node18" class="node">
<title>/lib/models/app_model.dart</title>
<path fill="Lavender" stroke="black" stroke-width="1.3" d="M918.75,-223C918.75,-223 853.25,-223 853.25,-223 847.25,-223 841.25,-217 841.25,-211 841.25,-211 841.25,-199 841.25,-199 841.25,-193 847.25,-187 853.25,-187 853.25,-187 918.75,-187 918.75,-187 924.75,-187 930.75,-193 930.75,-199 930.75,-199 930.75,-211 930.75,-211 930.75,-217 924.75,-223 918.75,-223"/>
<text text-anchor="middle" x="886" y="-199.75" font-family="Arial" font-size="15.00">app_model</text>
</g>
<!-- /test/paint_model_test.dart&#45;&gt;/lib/models/app_model.dart -->
<g id="edge1" class="edge">
<title>/test/paint_model_test.dart&#45;&gt;/lib/models/app_model.dart</title>
<path fill="none" stroke="#aabbaa" stroke-width="1.3" stroke-opacity="0.533333" d="M1058.82,-679.51C827.64,-677.45 58.74,-667.85 22,-631 -15.69,-593.2 17,-564.38 17,-511 17,-511 17,-511 17,-359 17,-315.78 -6.67,-292.45 24,-262 80.99,-205.42 646.03,-204.32 829.09,-205.47"/>
<polygon fill="#aabbaa" fill-opacity="0.533333" stroke="#aabbaa" stroke-width="1.3" stroke-opacity="0.533333" points="828.85,-208.96 838.87,-205.53 828.89,-201.96 828.85,-208.96"/>
</g>
<!-- /test/panels/tools/flood_fill_test.dart -->
<g id="node2" class="node">
<title>/test/panels/tools/flood_fill_test.dart</title>
<path fill="Lavender" stroke="black" stroke-width="1.3" d="M1304.5,-699C1304.5,-699 1225.5,-699 1225.5,-699 1219.5,-699 1213.5,-693 1213.5,-687 1213.5,-687 1213.5,-675 1213.5,-675 1213.5,-669 1219.5,-663 1225.5,-663 1225.5,-663 1304.5,-663 1304.5,-663 1310.5,-663 1316.5,-669 1316.5,-675 1316.5,-675 1316.5,-687 1316.5,-687 1316.5,-693 1310.5,-699 1304.5,-699"/>
<text text-anchor="middle" x="1265" y="-675.75" font-family="Arial" font-size="15.00">flood_fill_test</text>
</g>
<!-- /lib/panels/tools/flood_fill.dart -->
<g id="node8" class="node">
<title>/lib/panels/tools/flood_fill.dart</title>
<path fill="Lavender" stroke="black" stroke-width="1.3" d="M1687,-378C1687,-378 1641,-378 1641,-378 1635,-378 1629,-372 1629,-366 1629,-366 1629,-354 1629,-354 1629,-348 1635,-342 1641,-342 1641,-342 1687,-342 1687,-342 1693,-342 1699,-348 1699,-354 1699,-354 1699,-366 1699,-366 1699,-372 1693,-378 1687,-378"/>
<text text-anchor="middle" x="1664" y="-354.75" font-family="Arial" font-size="15.00">flood_fill</text>
</g>
<!-- /test/panels/tools/flood_fill_test.dart&#45;&gt;/lib/panels/tools/flood_fill.dart -->
<g id="edge2" class="edge">
<title>/test/panels/tools/flood_fill_test.dart&#45;&gt;/lib/panels/tools/flood_fill.dart</title>
<path fill="none" stroke="#aabbaa" stroke-width="1.3" stroke-opacity="0.533333" d="M1247.86,-662.71C1237.77,-653.78 1224.23,-643.77 1210,-639 1194.62,-633.84 53.43,-642.51 42,-631 20.23,-609.08 20.97,-514.63 42,-492 119.67,-408.44 952.03,-421.99 1066,-417 1081.38,-416.33 1605.96,-415.3 1620,-409 1630.34,-404.36 1639.33,-395.99 1646.44,-387.53"/>
<polygon fill="#aabbaa" fill-opacity="0.533333" stroke="#aabbaa" stroke-width="1.3" stroke-opacity="0.533333" points="1649.15,-389.75 1652.45,-379.69 1643.59,-385.5 1649.15,-389.75"/>
</g>
<!-- /test/widget_test.dart -->
<g id="node3" class="node">
<title>/test/widget_test.dart</title>
<path fill="Lavender" stroke="black" stroke-width="1.3" d="M1420.88,-699C1420.88,-699 1353.12,-699 1353.12,-699 1347.12,-699 1341.12,-693 1341.12,-687 1341.12,-687 1341.12,-675 1341.12,-675 1341.12,-669 1347.12,-663 1353.12,-663 1353.12,-663 1420.88,-663 1420.88,-663 1426.88,-663 1432.88,-669 1432.88,-675 1432.88,-675 1432.88,-687 1432.88,-687 1432.88,-693 1426.88,-699 1420.88,-699"/>
<text text-anchor="middle" x="1387" y="-675.75" font-family="Arial" font-size="15.00">widget_test</text>
</g>
<!-- /lib/main.dart -->
<g id="node20" class="node">
<title>/lib/main.dart</title>
<path fill="Lavender" stroke="black" stroke-width="1.3" d="M1144,-600C1144,-600 1114,-600 1114,-600 1108,-600 1102,-594 1102,-588 1102,-588 1102,-576 1102,-576 1102,-570 1108,-564 1114,-564 1114,-564 1144,-564 1144,-564 1150,-564 1156,-570 1156,-576 1156,-576 1156,-588 1156,-588 1156,-594 1150,-600 1144,-600"/>
<text text-anchor="middle" x="1129" y="-576.75" font-family="Arial" font-size="15.00">main</text>
</g>
<!-- /test/widget_test.dart&#45;&gt;/lib/main.dart -->
<g id="edge3" class="edge">
<title>/test/widget_test.dart&#45;&gt;/lib/main.dart</title>
<path fill="none" stroke="#aabbaa" stroke-width="1.3" stroke-opacity="0.533333" d="M1366.06,-662.55C1355.49,-654.45 1342.14,-645.25 1329,-639 1275.92,-613.74 1209.34,-597.94 1167.98,-589.8"/>
<polygon fill="#aabbaa" fill-opacity="0.533333" stroke="#aabbaa" stroke-width="1.3" stroke-opacity="0.533333" points="1168.66,-586.37 1158.18,-587.93 1167.35,-593.24 1168.66,-586.37"/>
</g>
<!-- /test/file_xcf_test.dart -->
<g id="node4" class="node">
<title>/test/file_xcf_test.dart</title>
<path fill="Lavender" stroke="black" stroke-width="1.3" d="M1534.75,-699C1534.75,-699 1463.25,-699 1463.25,-699 1457.25,-699 1451.25,-693 1451.25,-687 1451.25,-687 1451.25,-675 1451.25,-675 1451.25,-669 1457.25,-663 1463.25,-663 1463.25,-663 1534.75,-663 1534.75,-663 1540.75,-663 1546.75,-669 1546.75,-675 1546.75,-675 1546.75,-687 1546.75,-687 1546.75,-693 1540.75,-699 1534.75,-699"/>
<text text-anchor="middle" x="1499" y="-675.75" font-family="Arial" font-size="15.00">file_xcf_test</text>
</g>
<!-- /lib/files/xcf_reader.dart -->
<g id="node21" class="node">
<title>/lib/files/xcf_reader.dart</title>
<path fill="Lavender" stroke="black" stroke-width="1.3" d="M169.62,-378C169.62,-378 106.38,-378 106.38,-378 100.38,-378 94.38,-372 94.38,-366 94.38,-366 94.38,-354 94.38,-354 94.38,-348 100.38,-342 106.38,-342 106.38,-342 169.62,-342 169.62,-342 175.62,-342 181.62,-348 181.62,-354 181.62,-354 181.62,-366 181.62,-366 181.62,-372 175.62,-378 169.62,-378"/>
<text text-anchor="middle" x="138" y="-354.75" font-family="Arial" font-size="15.00">xcf_reader</text>
</g>
<!-- /test/file_xcf_test.dart&#45;&gt;/lib/files/xcf_reader.dart -->
<g id="edge5" class="edge">
<title>/test/file_xcf_test.dart&#45;&gt;/lib/files/xcf_reader.dart</title>
<path fill="none" stroke="#aabbaa" stroke-width="1.3" stroke-opacity="0.533333" d="M1517.19,-662.68C1527.67,-653.86 1541.6,-643.97 1556,-639 1576.6,-631.89 1736.91,-646.72 1752,-631 1760.23,-622.42 1760.39,-425.43 1752,-417 1736.71,-401.63 211.21,-416.85 191,-409 179.02,-404.35 168.07,-395.61 159.27,-386.85"/>
<polygon fill="#aabbaa" fill-opacity="0.533333" stroke="#aabbaa" stroke-width="1.3" stroke-opacity="0.533333" points="161.95,-384.6 152.57,-379.68 156.83,-389.38 161.95,-384.6"/>
</g>
<!-- /lib/files/assets_helper.dart -->
<g id="node22" class="node">
<title>/lib/files/assets_helper.dart</title>
<path fill="Lavender" stroke="black" stroke-width="1.3" d="M296.5,-378C296.5,-378 211.5,-378 211.5,-378 205.5,-378 199.5,-372 199.5,-366 199.5,-366 199.5,-354 199.5,-354 199.5,-348 205.5,-342 211.5,-342 211.5,-342 296.5,-342 296.5,-342 302.5,-342 308.5,-348 308.5,-354 308.5,-354 308.5,-366 308.5,-366 308.5,-372 302.5,-378 296.5,-378"/>
<text text-anchor="middle" x="254" y="-354.75" font-family="Arial" font-size="15.00">assets_helper</text>
</g>
<!-- /test/file_xcf_test.dart&#45;&gt;/lib/files/assets_helper.dart -->
<g id="edge4" class="edge">
<title>/test/file_xcf_test.dart&#45;&gt;/lib/files/assets_helper.dart</title>
<path fill="none" stroke="#aabbaa" stroke-width="1.3" stroke-opacity="0.533333" d="M1517.18,-662.67C1527.66,-653.85 1541.59,-643.95 1556,-639 1577.66,-631.55 1746.12,-647.51 1762,-631 1794.97,-596.73 1795.53,-450.72 1762,-417 1747.86,-402.78 337.01,-415.39 318,-409 303.95,-404.27 290.49,-395.14 279.57,-386.11"/>
<polygon fill="#aabbaa" fill-opacity="0.533333" stroke="#aabbaa" stroke-width="1.3" stroke-opacity="0.533333" points="281.98,-383.56 272.16,-379.6 277.36,-388.82 281.98,-383.56"/>
</g>
<!-- /test/layers_test.dart -->
<g id="node5" class="node">
<title>/test/layers_test.dart</title>
<path fill="Lavender" stroke="black" stroke-width="1.3" d="M1641.38,-699C1641.38,-699 1576.62,-699 1576.62,-699 1570.62,-699 1564.62,-693 1564.62,-687 1564.62,-687 1564.62,-675 1564.62,-675 1564.62,-669 1570.62,-663 1576.62,-663 1576.62,-663 1641.38,-663 1641.38,-663 1647.38,-663 1653.38,-669 1653.38,-675 1653.38,-675 1653.38,-687 1653.38,-687 1653.38,-693 1647.38,-699 1641.38,-699"/>
<text text-anchor="middle" x="1609" y="-675.75" font-family="Arial" font-size="15.00">layers_test</text>
</g>
<!-- /lib/models/layer.dart -->
<g id="node19" class="node">
<title>/lib/models/layer.dart</title>
<path fill="Lavender" stroke="black" stroke-width="1.3" d="M988,-306C988,-306 958,-306 958,-306 952,-306 946,-300 946,-294 946,-294 946,-282 946,-282 946,-276 952,-270 958,-270 958,-270 988,-270 988,-270 994,-270 1000,-276 1000,-282 1000,-282 1000,-294 1000,-294 1000,-300 994,-306 988,-306"/>
<text text-anchor="middle" x="973" y="-282.75" font-family="Arial" font-size="15.00">layer</text>
</g>
<!-- /test/layers_test.dart&#45;&gt;/lib/models/layer.dart -->
<g id="edge6" class="edge">
<title>/test/layers_test.dart&#45;&gt;/lib/models/layer.dart</title>
<path fill="none" stroke="#aabbaa" stroke-width="1.3" stroke-opacity="0.533333" d="M1653.66,-679.64C1692.4,-676.78 1746.98,-666.17 1778,-631 1813.72,-590.5 1797,-565 1797,-511 1797,-511 1797,-511 1797,-434 1797,-386.81 1784.21,-366.69 1744,-342 1679.71,-302.53 1140.92,-314.8 1066,-306 1048.03,-303.89 1028.29,-300.44 1011.64,-297.2"/>
<polygon fill="#aabbaa" fill-opacity="0.533333" stroke="#aabbaa" stroke-width="1.3" stroke-opacity="0.533333" points="1012.55,-293.82 1002.06,-295.29 1011.18,-300.68 1012.55,-293.82"/>
</g>
<!-- /lib/panels/about.dart -->
<g id="node6" class="node">
<title>/lib/panels/about.dart</title>
<path fill="Lavender" stroke="black" stroke-width="1.3" d="M1422,-306C1422,-306 1392,-306 1392,-306 1386,-306 1380,-300 1380,-294 1380,-294 1380,-282 1380,-282 1380,-276 1386,-270 1392,-270 1392,-270 1422,-270 1422,-270 1428,-270 1434,-276 1434,-282 1434,-282 1434,-294 1434,-294 1434,-300 1428,-306 1422,-306"/>
<text text-anchor="middle" x="1407" y="-282.75" font-family="Arial" font-size="15.00">about</text>
</g>
<!-- /lib/panels/tools/tool_selector.dart -->
<g id="node7" class="node">
<title>/lib/panels/tools/tool_selector.dart</title>
<path fill="Lavender" stroke="black" stroke-width="1.3" d="M1720.38,-306C1720.38,-306 1643.62,-306 1643.62,-306 1637.62,-306 1631.62,-300 1631.62,-294 1631.62,-294 1631.62,-282 1631.62,-282 1631.62,-276 1637.62,-270 1643.62,-270 1643.62,-270 1720.38,-270 1720.38,-270 1726.38,-270 1732.38,-276 1732.38,-282 1732.38,-282 1732.38,-294 1732.38,-294 1732.38,-300 1726.38,-306 1720.38,-306"/>
<text text-anchor="middle" x="1682" y="-282.75" font-family="Arial" font-size="15.00">tool_selector</text>
</g>
<!-- /lib/panels/tools/tools_panel.dart -->
<g id="node9" class="node">
<title>/lib/panels/tools/tools_panel.dart</title>
<path fill="Lavender" stroke="black" stroke-width="1.3" d="M1598.88,-378C1598.88,-378 1531.12,-378 1531.12,-378 1525.12,-378 1519.12,-372 1519.12,-366 1519.12,-366 1519.12,-354 1519.12,-354 1519.12,-348 1525.12,-342 1531.12,-342 1531.12,-342 1598.88,-342 1598.88,-342 1604.88,-342 1610.88,-348 1610.88,-354 1610.88,-354 1610.88,-366 1610.88,-366 1610.88,-372 1604.88,-378 1598.88,-378"/>
<text text-anchor="middle" x="1565" y="-354.75" font-family="Arial" font-size="15.00">tools_panel</text>
</g>
<!-- /lib/panels/tools/tools_panel.dart&#45;&gt;/lib/panels/tools/tool_selector.dart -->
<g id="edge9" class="edge">
<title>/lib/panels/tools/tools_panel.dart&#45;&gt;/lib/panels/tools/tool_selector.dart</title>
<path fill="none" stroke="#aabbaa" stroke-width="1.3" stroke-opacity="0.533333" d="M1594.22,-341.52C1608.99,-332.68 1627.11,-321.84 1643.05,-312.3"/>
<polygon fill="#aabbaa" fill-opacity="0.533333" stroke="#aabbaa" stroke-width="1.3" stroke-opacity="0.533333" points="1644.68,-315.41 1651.46,-307.27 1641.08,-309.4 1644.68,-315.41"/>
</g>
<!-- /lib/panels/tools/tool_attributes_widget.dart -->
<g id="node10" class="node">
<title>/lib/panels/tools/tool_attributes_widget.dart</title>
<path fill="Lavender" stroke="black" stroke-width="1.3" d="M1601.75,-306C1601.75,-306 1464.25,-306 1464.25,-306 1458.25,-306 1452.25,-300 1452.25,-294 1452.25,-294 1452.25,-282 1452.25,-282 1452.25,-276 1458.25,-270 1464.25,-270 1464.25,-270 1601.75,-270 1601.75,-270 1607.75,-270 1613.75,-276 1613.75,-282 1613.75,-282 1613.75,-294 1613.75,-294 1613.75,-300 1607.75,-306 1601.75,-306"/>
<text text-anchor="middle" x="1533" y="-282.75" font-family="Arial" font-size="15.00">tool_attributes_widget</text>
</g>
<!-- /lib/panels/tools/tools_panel.dart&#45;&gt;/lib/panels/tools/tool_attributes_widget.dart -->
<g id="edge8" class="edge">
<title>/lib/panels/tools/tools_panel.dart&#45;&gt;/lib/panels/tools/tool_attributes_widget.dart</title>
<path fill="none" stroke="#aabbaa" stroke-width="1.3" stroke-opacity="0.533333" d="M1557.09,-341.7C1553.68,-334.24 1549.6,-325.32 1545.78,-316.97"/>
<polygon fill="#aabbaa" fill-opacity="0.533333" stroke="#aabbaa" stroke-width="1.3" stroke-opacity="0.533333" points="1548.98,-315.53 1541.64,-307.89 1542.61,-318.44 1548.98,-315.53"/>
</g>
<!-- /lib/panels/tools/tools_panel.dart&#45;&gt;/lib/models/app_model.dart -->
<g id="edge7" class="edge">
<title>/lib/panels/tools/tools_panel.dart&#45;&gt;/lib/models/app_model.dart</title>
<path fill="none" stroke="#aabbaa" stroke-width="1.3" stroke-opacity="0.533333" d="M1518.7,-354.53C1396.87,-342.7 1076.03,-311.17 1066,-306 1042.77,-294.03 1050.32,-273.79 1027,-262 991.95,-244.28 974.97,-269.77 939,-254 927.4,-248.91 916.63,-240.26 907.87,-231.69"/>
<polygon fill="#aabbaa" fill-opacity="0.533333" stroke="#aabbaa" stroke-width="1.3" stroke-opacity="0.533333" points="910.63,-229.51 901.19,-224.7 905.57,-234.35 910.63,-229.51"/>
</g>
<!-- /lib/widgets/svg_icon.dart -->
<g id="node31" class="node">
<title>/lib/widgets/svg_icon.dart</title>
<path fill="Lavender" stroke="black" stroke-width="1.3" d="M2383.25,-223C2383.25,-223 2332.75,-223 2332.75,-223 2326.75,-223 2320.75,-217 2320.75,-211 2320.75,-211 2320.75,-199 2320.75,-199 2320.75,-193 2326.75,-187 2332.75,-187 2332.75,-187 2383.25,-187 2383.25,-187 2389.25,-187 2395.25,-193 2395.25,-199 2395.25,-199 2395.25,-211 2395.25,-211 2395.25,-217 2389.25,-223 2383.25,-223"/>
<text text-anchor="middle" x="2358" y="-199.75" font-family="Arial" font-size="15.00">svg_icon</text>
</g>
<!-- /lib/panels/tools/tools_panel.dart&#45;&gt;/lib/widgets/svg_icon.dart -->
<g id="edge12" class="edge">
<title>/lib/panels/tools/tools_panel.dart&#45;&gt;/lib/widgets/svg_icon.dart</title>
<path fill="none" stroke="#aabbaa" stroke-width="1.3" stroke-opacity="0.533333" d="M1611.36,-344.05C1614.27,-343.31 1617.17,-342.61 1620,-342 1638.91,-337.91 2293.67,-262.61 2311,-254 2321.43,-248.82 2330.88,-240.37 2338.52,-232"/>
<polygon fill="#aabbaa" fill-opacity="0.533333" stroke="#aabbaa" stroke-width="1.3" stroke-opacity="0.533333" points="2340.99,-234.49 2344.79,-224.6 2335.65,-229.96 2340.99,-234.49"/>
</g>
<!-- /lib/widgets/brush_size_picker.dart -->
<g id="node34" class="node">
<title>/lib/widgets/brush_size_picker.dart</title>
<path fill="Lavender" stroke="black" stroke-width="1.3" d="M2537,-223C2537,-223 2425,-223 2425,-223 2419,-223 2413,-217 2413,-211 2413,-211 2413,-199 2413,-199 2413,-193 2419,-187 2425,-187 2425,-187 2537,-187 2537,-187 2543,-187 2549,-193 2549,-199 2549,-199 2549,-211 2549,-211 2549,-217 2543,-223 2537,-223"/>
<text text-anchor="middle" x="2481" y="-199.75" font-family="Arial" font-size="15.00">brush_size_picker</text>
</g>
<!-- /lib/panels/tools/tools_panel.dart&#45;&gt;/lib/widgets/brush_size_picker.dart -->
<g id="edge10" class="edge">
<title>/lib/panels/tools/tools_panel.dart&#45;&gt;/lib/widgets/brush_size_picker.dart</title>
<path fill="none" stroke="#aabbaa" stroke-width="1.3" stroke-opacity="0.533333" d="M1611.33,-343.88C1614.24,-343.18 1617.15,-342.54 1620,-342 1964.48,-276.62 2076.17,-378.37 2404,-254 2419.61,-248.08 2435.49,-238.83 2448.75,-230.03"/>
<polygon fill="#aabbaa" fill-opacity="0.533333" stroke="#aabbaa" stroke-width="1.3" stroke-opacity="0.533333" points="2450.44,-233.11 2456.7,-224.56 2446.48,-227.34 2450.44,-233.11"/>
</g>
<!-- /lib/widgets/tolerance_picker.dart -->
<g id="node36" class="node">
<title>/lib/widgets/tolerance_picker.dart</title>
<path fill="Lavender" stroke="black" stroke-width="1.3" d="M2680.75,-223C2680.75,-223 2579.25,-223 2579.25,-223 2573.25,-223 2567.25,-217 2567.25,-211 2567.25,-211 2567.25,-199 2567.25,-199 2567.25,-193 2573.25,-187 2579.25,-187 2579.25,-187 2680.75,-187 2680.75,-187 2686.75,-187 2692.75,-193 2692.75,-199 2692.75,-199 2692.75,-211 2692.75,-211 2692.75,-217 2686.75,-223 2680.75,-223"/>
<text text-anchor="middle" x="2630" y="-199.75" font-family="Arial" font-size="15.00">tolerance_picker</text>
</g>
<!-- /lib/panels/tools/tools_panel.dart&#45;&gt;/lib/widgets/tolerance_picker.dart -->
<g id="edge13" class="edge">
<title>/lib/panels/tools/tools_panel.dart&#45;&gt;/lib/widgets/tolerance_picker.dart</title>
<path fill="none" stroke="#aabbaa" stroke-width="1.3" stroke-opacity="0.533333" d="M1611.31,-343.8C1614.23,-343.12 1617.15,-342.51 1620,-342 1919.27,-288.71 2001.47,-344.47 2303,-306 2417.74,-291.36 2451.22,-298.46 2558,-254 2572.55,-247.94 2587.28,-238.78 2599.58,-230.08"/>
<polygon fill="#aabbaa" fill-opacity="0.533333" stroke="#aabbaa" stroke-width="1.3" stroke-opacity="0.533333" points="2601.29,-233.17 2607.29,-224.44 2597.16,-227.52 2601.29,-233.17"/>
</g>
<!-- /lib/widgets/color_picker.dart -->
<g id="node39" class="node">
<title>/lib/widgets/color_picker.dart</title>
<path fill="Lavender" stroke="black" stroke-width="1.3" d="M2795.12,-223C2795.12,-223 2722.88,-223 2722.88,-223 2716.88,-223 2710.88,-217 2710.88,-211 2710.88,-211 2710.88,-199 2710.88,-199 2710.88,-193 2716.88,-187 2722.88,-187 2722.88,-187 2795.12,-187 2795.12,-187 2801.12,-187 2807.12,-193 2807.12,-199 2807.12,-199 2807.12,-211 2807.12,-211 2807.12,-217 2801.12,-223 2795.12,-223"/>
<text text-anchor="middle" x="2759" y="-199.75" font-family="Arial" font-size="15.00">color_picker</text>
</g>
<!-- /lib/panels/tools/tools_panel.dart&#45;&gt;/lib/widgets/color_picker.dart -->
<g id="edge11" class="edge">
<title>/lib/panels/tools/tools_panel.dart&#45;&gt;/lib/widgets/color_picker.dart</title>
<path fill="none" stroke="#aabbaa" stroke-width="1.3" stroke-opacity="0.533333" d="M1611.31,-343.78C1614.23,-343.1 1617.14,-342.5 1620,-342 1971.96,-280.75 2068.09,-346.83 2423,-306 2548.31,-291.58 2587.99,-307.96 2702,-254 2713.75,-248.44 2725.06,-239.84 2734.46,-231.46"/>
<polygon fill="#aabbaa" fill-opacity="0.533333" stroke="#aabbaa" stroke-width="1.3" stroke-opacity="0.533333" points="2736.86,-234.01 2741.75,-224.61 2732.06,-228.91 2736.86,-234.01"/>
</g>
<!-- /lib/helpers/color_helper.dart -->
<g id="node30" class="node">
<title>/lib/helpers/color_helper.dart</title>
<path fill="Lavender" stroke="black" stroke-width="1.3" d="M2916.88,-140C2916.88,-140 2843.12,-140 2843.12,-140 2837.12,-140 2831.12,-134 2831.12,-128 2831.12,-128 2831.12,-116 2831.12,-116 2831.12,-110 2837.12,-104 2843.12,-104 2843.12,-104 2916.88,-104 2916.88,-104 2922.88,-104 2928.88,-110 2928.88,-116 2928.88,-116 2928.88,-128 2928.88,-128 2928.88,-134 2922.88,-140 2916.88,-140"/>
<text text-anchor="middle" x="2880" y="-116.75" font-family="Arial" font-size="15.00">color_helper</text>
</g>
<!-- /lib/panels/tools/tool_attributes_widget.dart&#45;&gt;/lib/helpers/color_helper.dart -->
<g id="edge14" class="edge">
<title>/lib/panels/tools/tool_attributes_widget.dart&#45;&gt;/lib/helpers/color_helper.dart</title>
<path fill="none" stroke="#aabbaa" stroke-width="1.3" stroke-opacity="0.533333" d="M1586.77,-269.58C1598.58,-266.45 1611.12,-263.66 1623,-262 1639.45,-259.7 2805.02,-262.98 2819,-254 2854.04,-231.5 2869.28,-183.11 2875.67,-151.86"/>
<polygon fill="#aabbaa" fill-opacity="0.533333" stroke="#aabbaa" stroke-width="1.3" stroke-opacity="0.533333" points="2879.05,-152.83 2877.42,-142.36 2872.17,-151.56 2879.05,-152.83"/>
</g>
<!-- /lib/widgets/transparent_background.dart -->
<g id="node35" class="node">
<title>/lib/widgets/transparent_background.dart</title>
<path fill="Lavender" stroke="black" stroke-width="1.3" d="M1930.38,-140C1930.38,-140 1775.62,-140 1775.62,-140 1769.62,-140 1763.62,-134 1763.62,-128 1763.62,-128 1763.62,-116 1763.62,-116 1763.62,-110 1769.62,-104 1775.62,-104 1775.62,-104 1930.38,-104 1930.38,-104 1936.38,-104 1942.38,-110 1942.38,-116 1942.38,-116 1942.38,-128 1942.38,-128 1942.38,-134 1936.38,-140 1930.38,-140"/>
<text text-anchor="middle" x="1853" y="-116.75" font-family="Arial" font-size="15.00">transparent_background</text>
</g>
<!-- /lib/panels/tools/tool_attributes_widget.dart&#45;&gt;/lib/widgets/transparent_background.dart -->
<g id="edge15" class="edge">
<title>/lib/panels/tools/tool_attributes_widget.dart&#45;&gt;/lib/widgets/transparent_background.dart</title>
<path fill="none" stroke="#aabbaa" stroke-width="1.3" stroke-opacity="0.533333" d="M1566.94,-269.6C1625.15,-239.77 1743.96,-178.88 1808.64,-145.73"/>
<polygon fill="#aabbaa" fill-opacity="0.533333" stroke="#aabbaa" stroke-width="1.3" stroke-opacity="0.533333" points="1809.87,-149.04 1817.17,-141.36 1806.68,-142.81 1809.87,-149.04"/>
</g>
<!-- /lib/panels/canvas_panel.dart -->
<g id="node11" class="node">
<title>/lib/panels/canvas_panel.dart</title>
<path fill="Lavender" stroke="black" stroke-width="1.3" d="M1175.75,-223C1175.75,-223 1092.25,-223 1092.25,-223 1086.25,-223 1080.25,-217 1080.25,-211 1080.25,-211 1080.25,-199 1080.25,-199 1080.25,-193 1086.25,-187 1092.25,-187 1092.25,-187 1175.75,-187 1175.75,-187 1181.75,-187 1187.75,-193 1187.75,-199 1187.75,-199 1187.75,-211 1187.75,-211 1187.75,-217 1181.75,-223 1175.75,-223"/>
<text text-anchor="middle" x="1134" y="-199.75" font-family="Arial" font-size="15.00">canvas_panel</text>
</g>
<!-- /lib/panels/canvas_panel.dart&#45;&gt;/lib/models/app_model.dart -->
<g id="edge16" class="edge">
<title>/lib/panels/canvas_panel.dart&#45;&gt;/lib/models/app_model.dart</title>
<path fill="none" stroke="#aabbaa" stroke-width="1.3" stroke-opacity="0.533333" d="M1116.11,-223.5C1101.66,-236.76 1080.02,-253.12 1057,-258 1033.31,-263.03 971.69,-263.03 948,-258 943.72,-257.09 942.66,-256.41 939,-254 929.31,-247.62 919.71,-239.46 911.39,-231.62"/>
<polygon fill="#aabbaa" fill-opacity="0.533333" stroke="#aabbaa" stroke-width="1.3" stroke-opacity="0.533333" points="913.93,-229.21 904.33,-224.73 909.04,-234.22 913.93,-229.21"/>
</g>
<!-- /lib/panels/canvas_panel.dart&#45;&gt;/lib/widgets/transparent_background.dart -->
<g id="edge17" class="edge">
<title>/lib/panels/canvas_panel.dart&#45;&gt;/lib/widgets/transparent_background.dart</title>
<path fill="none" stroke="#aabbaa" stroke-width="1.3" stroke-opacity="0.533333" d="M1188.04,-197.91C1307.72,-184.43 1596.72,-151.87 1751.36,-134.45"/>
<polygon fill="#aabbaa" fill-opacity="0.533333" stroke="#aabbaa" stroke-width="1.3" stroke-opacity="0.533333" points="1751.66,-137.94 1761.21,-133.34 1750.88,-130.98 1751.66,-137.94"/>
</g>
<!-- /lib/panels/layers/tools_and_layers_panel.dart -->
<g id="node12" class="node">
<title>/lib/panels/layers/tools_and_layers_panel.dart</title>
<path fill="Lavender" stroke="black" stroke-width="1.3" d="M1352.38,-378C1352.38,-378 1203.62,-378 1203.62,-378 1197.62,-378 1191.62,-372 1191.62,-366 1191.62,-366 1191.62,-354 1191.62,-354 1191.62,-348 1197.62,-342 1203.62,-342 1203.62,-342 1352.38,-342 1352.38,-342 1358.38,-342 1364.38,-348 1364.38,-354 1364.38,-354 1364.38,-366 1364.38,-366 1364.38,-372 1358.38,-378 1352.38,-378"/>
<text text-anchor="middle" x="1278" y="-354.75" font-family="Arial" font-size="15.00">tools_and_layers_panel</text>
</g>
<!-- /lib/panels/layers/tools_and_layers_panel.dart&#45;&gt;/lib/panels/about.dart -->
<g id="edge20" class="edge">
<title>/lib/panels/layers/tools_and_layers_panel.dart&#45;&gt;/lib/panels/about.dart</title>
<path fill="none" stroke="#aabbaa" stroke-width="1.3" stroke-opacity="0.533333" d="M1310.25,-341.62C1326.76,-332.71 1347.43,-321.53 1369.21,-309.69"/>
<polygon fill="#aabbaa" fill-opacity="0.533333" stroke="#aabbaa" stroke-width="1.3" stroke-opacity="0.533333" points="1370.78,-312.82 1377.89,-304.97 1367.44,-306.67 1370.78,-312.82"/>
</g>
<!-- /lib/panels/layers/layer_selector.dart -->
<g id="node13" class="node">
<title>/lib/panels/layers/layer_selector.dart</title>
<path fill="Lavender" stroke="black" stroke-width="1.3" d="M1349.5,-306C1349.5,-306 1264.5,-306 1264.5,-306 1258.5,-306 1252.5,-300 1252.5,-294 1252.5,-294 1252.5,-282 1252.5,-282 1252.5,-276 1258.5,-270 1264.5,-270 1264.5,-270 1349.5,-270 1349.5,-270 1355.5,-270 1361.5,-276 1361.5,-282 1361.5,-282 1361.5,-294 1361.5,-294 1361.5,-300 1355.5,-306 1349.5,-306"/>
<text text-anchor="middle" x="1307" y="-282.75" font-family="Arial" font-size="15.00">layer_selector</text>
</g>
<!-- /lib/panels/layers/tools_and_layers_panel.dart&#45;&gt;/lib/panels/layers/layer_selector.dart -->
<g id="edge21" class="edge">
<title>/lib/panels/layers/tools_and_layers_panel.dart&#45;&gt;/lib/panels/layers/layer_selector.dart</title>
<path fill="none" stroke="#aabbaa" stroke-width="1.3" stroke-opacity="0.533333" d="M1285.17,-341.7C1288.26,-334.24 1291.95,-325.32 1295.41,-316.97"/>
<polygon fill="#aabbaa" fill-opacity="0.533333" stroke="#aabbaa" stroke-width="1.3" stroke-opacity="0.533333" points="1298.57,-318.5 1299.16,-307.92 1292.1,-315.82 1298.57,-318.5"/>
</g>
<!-- /lib/panels/share_panel.dart -->
<g id="node15" class="node">
<title>/lib/panels/share_panel.dart</title>
<path fill="Lavender" stroke="black" stroke-width="1.3" d="M1163.88,-306C1163.88,-306 1090.12,-306 1090.12,-306 1084.12,-306 1078.12,-300 1078.12,-294 1078.12,-294 1078.12,-282 1078.12,-282 1078.12,-276 1084.12,-270 1090.12,-270 1090.12,-270 1163.88,-270 1163.88,-270 1169.88,-270 1175.88,-276 1175.88,-282 1175.88,-282 1175.88,-294 1175.88,-294 1175.88,-300 1169.88,-306 1163.88,-306"/>
<text text-anchor="middle" x="1127" y="-282.75" font-family="Arial" font-size="15.00">share_panel</text>
</g>
<!-- /lib/panels/layers/tools_and_layers_panel.dart&#45;&gt;/lib/panels/share_panel.dart -->
<g id="edge22" class="edge">
<title>/lib/panels/layers/tools_and_layers_panel.dart&#45;&gt;/lib/panels/share_panel.dart</title>
<path fill="none" stroke="#aabbaa" stroke-width="1.3" stroke-opacity="0.533333" d="M1240.29,-341.52C1220.57,-332.38 1196.23,-321.09 1175.17,-311.33"/>
<polygon fill="#aabbaa" fill-opacity="0.533333" stroke="#aabbaa" stroke-width="1.3" stroke-opacity="0.533333" points="1176.82,-308.24 1166.28,-307.21 1173.88,-314.59 1176.82,-308.24"/>
</g>
<!-- /lib/panels/layers/tools_and_layers_panel.dart&#45;&gt;/lib/models/app_model.dart -->
<g id="edge19" class="edge">
<title>/lib/panels/layers/tools_and_layers_panel.dart&#45;&gt;/lib/models/app_model.dart</title>
<path fill="none" stroke="#aabbaa" stroke-width="1.3" stroke-opacity="0.533333" d="M1191.27,-357.32C1141.14,-352.43 1079.23,-339.25 1034,-306 1015.88,-292.68 1027.76,-274.4 1009,-262 982.88,-244.74 967.53,-266.91 939,-254 927.46,-248.78 916.71,-240.1 907.94,-231.55"/>
<polygon fill="#aabbaa" fill-opacity="0.533333" stroke="#aabbaa" stroke-width="1.3" stroke-opacity="0.533333" points="910.7,-229.37 901.24,-224.58 905.65,-234.22 910.7,-229.37"/>
</g>
<!-- /lib/files/import_files.dart -->
<g id="node27" class="node">
<title>/lib/files/import_files.dart</title>
<path fill="Lavender" stroke="black" stroke-width="1.3" d="M407.25,-378C407.25,-378 338.75,-378 338.75,-378 332.75,-378 326.75,-372 326.75,-366 326.75,-366 326.75,-354 326.75,-354 326.75,-348 332.75,-342 338.75,-342 338.75,-342 407.25,-342 407.25,-342 413.25,-342 419.25,-348 419.25,-354 419.25,-354 419.25,-366 419.25,-366 419.25,-372 413.25,-378 407.25,-378"/>
<text text-anchor="middle" x="373" y="-354.75" font-family="Arial" font-size="15.00">import_files</text>
</g>
<!-- /lib/panels/layers/tools_and_layers_panel.dart&#45;&gt;/lib/files/import_files.dart -->
<g id="edge18" class="edge">
<title>/lib/panels/layers/tools_and_layers_panel.dart&#45;&gt;/lib/files/import_files.dart</title>
<path fill="none" stroke="#aabbaa" stroke-width="1.3" stroke-opacity="0.533333" d="M1214.87,-378.39C1168.37,-390.95 1103.33,-406.45 1045,-413 1028.22,-414.88 453.52,-416.51 437,-413 420.47,-409.49 405.67,-398.1 394.47,-386.77"/>
<polygon fill="#aabbaa" fill-opacity="0.533333" stroke="#aabbaa" stroke-width="1.3" stroke-opacity="0.533333" points="397.32,-384.69 387.98,-379.7 392.16,-389.43 397.32,-384.69"/>
</g>
<!-- /lib/panels/layers/layer_selector.dart&#45;&gt;/lib/models/app_model.dart -->
<g id="edge23" class="edge">
<title>/lib/panels/layers/layer_selector.dart&#45;&gt;/lib/models/app_model.dart</title>
<path fill="none" stroke="#aabbaa" stroke-width="1.3" stroke-opacity="0.533333" d="M1272.44,-269.57C1264.89,-266.49 1256.82,-263.72 1249,-262 1215.35,-254.6 970.99,-266.81 939,-254 927.07,-249.22 916.13,-240.46 907.32,-231.72"/>
<polygon fill="#aabbaa" fill-opacity="0.533333" stroke="#aabbaa" stroke-width="1.3" stroke-opacity="0.533333" points="910,-229.47 900.61,-224.57 904.9,-234.26 910,-229.47"/>
</g>
<!-- /lib/widgets/truncated_text.dart -->
<g id="node32" class="node">
<title>/lib/widgets/truncated_text.dart</title>
<path fill="Lavender" stroke="black" stroke-width="1.3" d="M2022,-223C2022,-223 1934,-223 1934,-223 1928,-223 1922,-217 1922,-211 1922,-211 1922,-199 1922,-199 1922,-193 1928,-187 1934,-187 1934,-187 2022,-187 2022,-187 2028,-187 2034,-193 2034,-199 2034,-199 2034,-211 2034,-211 2034,-217 2028,-223 2022,-223"/>
<text text-anchor="middle" x="1978" y="-199.75" font-family="Arial" font-size="15.00">truncated_text</text>
</g>
<!-- /lib/panels/layers/layer_selector.dart&#45;&gt;/lib/widgets/truncated_text.dart -->
<g id="edge27" class="edge">
<title>/lib/panels/layers/layer_selector.dart&#45;&gt;/lib/widgets/truncated_text.dart</title>
<path fill="none" stroke="#aabbaa" stroke-width="1.3" stroke-opacity="0.533333" d="M1342.16,-269.51C1349.84,-266.43 1358.05,-263.67 1366,-262 1425.48,-249.47 1855.4,-273.43 1913,-254 1927.08,-249.25 1940.65,-240.21 1951.7,-231.24"/>
<polygon fill="#aabbaa" fill-opacity="0.533333" stroke="#aabbaa" stroke-width="1.3" stroke-opacity="0.533333" points="1953.93,-233.94 1959.23,-224.77 1949.37,-228.63 1953.93,-233.94"/>
</g>
<!-- /lib/widgets/container_slider.dart -->
<g id="node33" class="node">
<title>/lib/widgets/container_slider.dart</title>
<path fill="Lavender" stroke="black" stroke-width="1.3" d="M2161.5,-223C2161.5,-223 2064.5,-223 2064.5,-223 2058.5,-223 2052.5,-217 2052.5,-211 2052.5,-211 2052.5,-199 2052.5,-199 2052.5,-193 2058.5,-187 2064.5,-187 2064.5,-187 2161.5,-187 2161.5,-187 2167.5,-187 2173.5,-193 2173.5,-199 2173.5,-199 2173.5,-211 2173.5,-211 2173.5,-217 2167.5,-223 2161.5,-223"/>
<text text-anchor="middle" x="2113" y="-199.75" font-family="Arial" font-size="15.00">container_slider</text>
</g>
<!-- /lib/panels/layers/layer_selector.dart&#45;&gt;/lib/widgets/container_slider.dart -->
<g id="edge24" class="edge">
<title>/lib/panels/layers/layer_selector.dart&#45;&gt;/lib/widgets/container_slider.dart</title>
<path fill="none" stroke="#aabbaa" stroke-width="1.3" stroke-opacity="0.533333" d="M1341.84,-269.62C1349.61,-266.49 1357.94,-263.69 1366,-262 1402.82,-254.3 2007.14,-265.35 2043,-254 2058.3,-249.16 2073.25,-239.75 2085.38,-230.54"/>
<polygon fill="#aabbaa" fill-opacity="0.533333" stroke="#aabbaa" stroke-width="1.3" stroke-opacity="0.533333" points="2087.29,-233.49 2092.91,-224.51 2082.92,-228.02 2087.29,-233.49"/>
</g>
<!-- /lib/panels/layers/layer_selector.dart&#45;&gt;/lib/widgets/transparent_background.dart -->
<g id="edge26" class="edge">
<title>/lib/panels/layers/layer_selector.dart&#45;&gt;/lib/widgets/transparent_background.dart</title>
<path fill="none" stroke="#aabbaa" stroke-width="1.3" stroke-opacity="0.533333" d="M1344.99,-269.6C1351.89,-266.82 1359.1,-264.15 1366,-262 1382.9,-256.74 1388.03,-259 1405,-254 1493.28,-228 1509.91,-205.62 1598,-179 1648,-163.89 1704.67,-151.04 1751.86,-141.47"/>
<polygon fill="#aabbaa" fill-opacity="0.533333" stroke="#aabbaa" stroke-width="1.3" stroke-opacity="0.533333" points="1752.28,-144.95 1761.4,-139.56 1750.91,-138.09 1752.28,-144.95"/>
</g>
<!-- /lib/widgets/image_painter.dart -->
<g id="node37" class="node">
<title>/lib/widgets/image_painter.dart</title>
<path fill="Lavender" stroke="black" stroke-width="1.3" d="M2290.25,-223C2290.25,-223 2203.75,-223 2203.75,-223 2197.75,-223 2191.75,-217 2191.75,-211 2191.75,-211 2191.75,-199 2191.75,-199 2191.75,-193 2197.75,-187 2203.75,-187 2203.75,-187 2290.25,-187 2290.25,-187 2296.25,-187 2302.25,-193 2302.25,-199 2302.25,-199 2302.25,-211 2302.25,-211 2302.25,-217 2296.25,-223 2290.25,-223"/>
<text text-anchor="middle" x="2247" y="-199.75" font-family="Arial" font-size="15.00">image_painter</text>
</g>
<!-- /lib/panels/layers/layer_selector.dart&#45;&gt;/lib/widgets/image_painter.dart -->
<g id="edge25" class="edge">
<title>/lib/panels/layers/layer_selector.dart&#45;&gt;/lib/widgets/image_painter.dart</title>
<path fill="none" stroke="#aabbaa" stroke-width="1.3" stroke-opacity="0.533333" d="M1341.84,-269.6C1349.61,-266.48 1357.94,-263.68 1366,-262 1410.44,-252.75 2140.01,-268.56 2183,-254 2197.04,-249.24 2210.5,-240.11 2221.42,-231.07"/>
<polygon fill="#aabbaa" fill-opacity="0.533333" stroke="#aabbaa" stroke-width="1.3" stroke-opacity="0.533333" points="2223.62,-233.8 2228.83,-224.57 2219.01,-228.53 2223.62,-233.8"/>
</g>
<!-- /lib/panels/side_panel.dart -->
<g id="node14" class="node">
<title>/lib/panels/side_panel.dart</title>
<path fill="Lavender" stroke="black" stroke-width="1.3" d="M1231.62,-453C1231.62,-453 1168.38,-453 1168.38,-453 1162.38,-453 1156.38,-447 1156.38,-441 1156.38,-441 1156.38,-429 1156.38,-429 1156.38,-423 1162.38,-417 1168.38,-417 1168.38,-417 1231.62,-417 1231.62,-417 1237.62,-417 1243.62,-423 1243.62,-429 1243.62,-429 1243.62,-441 1243.62,-441 1243.62,-447 1237.62,-453 1231.62,-453"/>
<text text-anchor="middle" x="1200" y="-429.75" font-family="Arial" font-size="15.00">side_panel</text>
</g>
<!-- /lib/panels/side_panel.dart&#45;&gt;/lib/panels/tools/tools_panel.dart -->
<g id="edge30" class="edge">
<title>/lib/panels/side_panel.dart&#45;&gt;/lib/panels/tools/tools_panel.dart</title>
<path fill="none" stroke="#aabbaa" stroke-width="1.3" stroke-opacity="0.533333" d="M1244.07,-417.87C1245.39,-417.56 1246.7,-417.27 1248,-417 1303.85,-405.6 1319.69,-417.83 1376,-409 1420.86,-401.96 1470.59,-389.13 1507.78,-378.5"/>
<polygon fill="#aabbaa" fill-opacity="0.533333" stroke="#aabbaa" stroke-width="1.3" stroke-opacity="0.533333" points="1508.38,-381.97 1517.01,-375.82 1506.43,-375.24 1508.38,-381.97"/>
</g>
<!-- /lib/panels/side_panel.dart&#45;&gt;/lib/panels/layers/tools_and_layers_panel.dart -->
<g id="edge29" class="edge">
<title>/lib/panels/side_panel.dart&#45;&gt;/lib/panels/layers/tools_and_layers_panel.dart</title>
<path fill="none" stroke="#aabbaa" stroke-width="1.3" stroke-opacity="0.533333" d="M1218.48,-416.7C1228.13,-407.67 1240.11,-396.46 1250.79,-386.46"/>
<polygon fill="#aabbaa" fill-opacity="0.533333" stroke="#aabbaa" stroke-width="1.3" stroke-opacity="0.533333" points="1253.03,-389.16 1257.94,-379.77 1248.25,-384.05 1253.03,-389.16"/>
</g>
<!-- /lib/panels/side_panel.dart&#45;&gt;/lib/models/app_model.dart -->
<g id="edge28" class="edge">
<title>/lib/panels/side_panel.dart&#45;&gt;/lib/models/app_model.dart</title>
<path fill="none" stroke="#aabbaa" stroke-width="1.3" stroke-opacity="0.533333" d="M1155.95,-417.78C1154.62,-417.49 1153.31,-417.23 1152,-417 1137.36,-414.43 92.47,-419.55 82,-409 70.49,-397.41 70.86,-273.94 82,-262 132.76,-207.58 654.45,-204.94 829.26,-205.6"/>
<polygon fill="#aabbaa" fill-opacity="0.533333" stroke="#aabbaa" stroke-width="1.3" stroke-opacity="0.533333" points="829.01,-209.09 839.03,-205.64 829.04,-202.09 829.01,-209.09"/>
</g>
<!-- /lib/panels/share_panel.dart&#45;&gt;/lib/panels/canvas_panel.dart -->
<g id="edge32" class="edge">
<title>/lib/panels/share_panel.dart&#45;&gt;/lib/panels/canvas_panel.dart</title>
<path fill="none" stroke="#aabbaa" stroke-width="1.3" stroke-opacity="0.533333" d="M1128.48,-269.82C1129.35,-259.8 1130.47,-246.88 1131.47,-235.29"/>
<polygon fill="#aabbaa" fill-opacity="0.533333" stroke="#aabbaa" stroke-width="1.3" stroke-opacity="0.533333" points="1134.95,-235.66 1132.32,-225.39 1127.98,-235.05 1134.95,-235.66"/>
</g>
<!-- /lib/panels/share_panel.dart&#45;&gt;/lib/models/app_model.dart -->
<g id="edge31" class="edge">
<title>/lib/panels/share_panel.dart&#45;&gt;/lib/models/app_model.dart</title>
<path fill="none" stroke="#aabbaa" stroke-width="1.3" stroke-opacity="0.533333" d="M1081.94,-269.53C1072.81,-266.57 1063.19,-263.86 1054,-262 1028.89,-256.92 962.57,-264.04 939,-254 927.35,-249.04 916.57,-240.41 907.82,-231.82"/>
<polygon fill="#aabbaa" fill-opacity="0.533333" stroke="#aabbaa" stroke-width="1.3" stroke-opacity="0.533333" points="910.57,-229.64 901.14,-224.82 905.5,-234.47 910.57,-229.64"/>
</g>
<!-- /lib/models/layers.dart -->
<g id="node16" class="node">
<title>/lib/models/layers.dart</title>
<path fill="Lavender" stroke="black" stroke-width="1.3" d="M988.88,-378C988.88,-378 957.12,-378 957.12,-378 951.12,-378 945.12,-372 945.12,-366 945.12,-366 945.12,-354 945.12,-354 945.12,-348 951.12,-342 957.12,-342 957.12,-342 988.88,-342 988.88,-342 994.88,-342 1000.88,-348 1000.88,-354 1000.88,-354 1000.88,-366 1000.88,-366 1000.88,-372 994.88,-378 988.88,-378"/>
<text text-anchor="middle" x="973" y="-354.75" font-family="Arial" font-size="15.00">layers</text>
</g>
<!-- /lib/models/layers.dart&#45;&gt;/lib/models/layer.dart -->
<g id="edge34" class="edge">
<title>/lib/models/layers.dart&#45;&gt;/lib/models/layer.dart</title>
<path fill="none" stroke="#aabbaa" stroke-width="1.3" stroke-opacity="0.533333" d="M967.08,-341.7C966.34,-334.49 966.09,-325.93 966.34,-317.82"/>
<polygon fill="#aabbaa" fill-opacity="0.533333" stroke="#aabbaa" stroke-width="1.3" stroke-opacity="0.533333" points="969.82,-318.27 966.98,-308.07 962.84,-317.82 969.82,-318.27"/>
</g>
<!-- /lib/models/layers.dart&#45;&gt;/lib/models/layer.dart -->
<g id="edge35" class="edge">
<title>/lib/models/layers.dart&#45;&gt;/lib/models/layer.dart</title>
<path fill="none" stroke="#aabbaa" stroke-width="1.3" stroke-dasharray="5,2" stroke-opacity="0.533333" d="M978.92,-341.7C979.66,-334.49 979.91,-325.93 979.66,-317.82"/>
<polygon fill="#aabbaa" fill-opacity="0.533333" stroke="#aabbaa" stroke-width="1.3" stroke-opacity="0.533333" points="983.16,-317.82 979.02,-308.07 976.18,-318.27 983.16,-317.82"/>
</g>
<!-- /lib/helpers/list_helper.dart -->
<g id="node29" class="node">
<title>/lib/helpers/list_helper.dart</title>
<path fill="Lavender" stroke="black" stroke-width="1.3" d="M2902.75,-68C2902.75,-68 2843.25,-68 2843.25,-68 2837.25,-68 2831.25,-62 2831.25,-56 2831.25,-56 2831.25,-44 2831.25,-44 2831.25,-38 2837.25,-32 2843.25,-32 2843.25,-32 2902.75,-32 2902.75,-32 2908.75,-32 2914.75,-38 2914.75,-44 2914.75,-44 2914.75,-56 2914.75,-56 2914.75,-62 2908.75,-68 2902.75,-68"/>
<text text-anchor="middle" x="2873" y="-44.75" font-family="Arial" font-size="15.00">list_helper</text>
</g>
<!-- /lib/models/layers.dart&#45;&gt;/lib/helpers/list_helper.dart -->
<g id="edge33" class="edge">
<title>/lib/models/layers.dart&#45;&gt;/lib/helpers/list_helper.dart</title>
<path fill="none" stroke="#aabbaa" stroke-width="1.3" stroke-opacity="0.533333" d="M1001.11,-356.43C1040.9,-352.85 1115.96,-346.32 1180,-342 1365.17,-329.51 2676.98,-326.07 2848,-254 2898.14,-232.87 2916.16,-220.84 2938,-171 2951.38,-140.47 2953.47,-125.53 2938,-96 2933.75,-87.88 2927.29,-80.93 2920.06,-75.1"/>
<polygon fill="#aabbaa" fill-opacity="0.533333" stroke="#aabbaa" stroke-width="1.3" stroke-opacity="0.533333" points="2922.37,-72.45 2912.21,-69.45 2918.28,-78.13 2922.37,-72.45"/>
</g>
<!-- /lib/models/user_action.dart -->
<g id="node17" class="node">
<title>/lib/models/user_action.dart</title>
<path fill="Lavender" stroke="black" stroke-width="1.3" d="M1029.62,-223C1029.62,-223 960.38,-223 960.38,-223 954.38,-223 948.38,-217 948.38,-211 948.38,-211 948.38,-199 948.38,-199 948.38,-193 954.38,-187 960.38,-187 960.38,-187 1029.62,-187 1029.62,-187 1035.62,-187 1041.62,-193 1041.62,-199 1041.62,-199 1041.62,-211 1041.62,-211 1041.62,-217 1035.62,-223 1029.62,-223"/>
<text text-anchor="middle" x="995" y="-199.75" font-family="Arial" font-size="15.00">user_action</text>
</g>
<!-- /lib/widgets/brush_style_picker.dart -->
<g id="node38" class="node">
<title>/lib/widgets/brush_style_picker.dart</title>
<path fill="Lavender" stroke="black" stroke-width="1.3" d="M1892.25,-223C1892.25,-223 1775.75,-223 1775.75,-223 1769.75,-223 1763.75,-217 1763.75,-211 1763.75,-211 1763.75,-199 1763.75,-199 1763.75,-193 1769.75,-187 1775.75,-187 1775.75,-187 1892.25,-187 1892.25,-187 1898.25,-187 1904.25,-193 1904.25,-199 1904.25,-199 1904.25,-211 1904.25,-211 1904.25,-217 1898.25,-223 1892.25,-223"/>
<text text-anchor="middle" x="1834" y="-199.75" font-family="Arial" font-size="15.00">brush_style_picker</text>
</g>
<!-- /lib/models/user_action.dart&#45;&gt;/lib/widgets/brush_style_picker.dart -->
<g id="edge36" class="edge">
<title>/lib/models/user_action.dart&#45;&gt;/lib/widgets/brush_style_picker.dart</title>
<path fill="none" stroke="#aabbaa" stroke-width="1.3" stroke-opacity="0.533333" d="M1013.3,-223.25C1027.79,-236.11 1049.32,-251.85 1072,-256.67 1087.38,-259.93 1622.41,-258.69 1638,-256.67 1682.12,-250.95 1730.46,-238.28 1768.1,-226.92"/>
<polygon fill="#aabbaa" fill-opacity="0.533333" stroke="#aabbaa" stroke-width="1.3" stroke-opacity="0.533333" points="1769,-230.3 1777.54,-224.02 1766.95,-223.61 1769,-230.3"/>
</g>
<!-- /lib/models/user_action.dart&#45;&gt;/lib/widgets/brush_style_picker.dart -->
<g id="edge37" class="edge">
<title>/lib/models/user_action.dart&#45;&gt;/lib/widgets/brush_style_picker.dart</title>
<path fill="none" stroke="#aabbaa" stroke-width="1.3" stroke-dasharray="5,2" stroke-opacity="0.533333" d="M1013.86,-223.3C1029.54,-236.94 1053.23,-254.08 1078,-259.33 1093.05,-262.53 1616.74,-261.35 1632,-259.33 1678.86,-253.14 1730.28,-239.2 1769.52,-226.99"/>
<polygon fill="#aabbaa" fill-opacity="0.533333" stroke="#aabbaa" stroke-width="1.3" stroke-opacity="0.533333" points="1770.41,-230.38 1778.89,-224.03 1768.3,-223.71 1770.41,-230.38"/>
</g>
<!-- /lib/models/app_model.dart&#45;&gt;/lib/models/layers.dart -->
<g id="edge38" class="edge">
<title>/lib/models/app_model.dart&#45;&gt;/lib/models/layers.dart</title>
<path fill="none" stroke="#aabbaa" stroke-width="1.3" stroke-opacity="0.533333" d="M887.57,-223.34C894.58,-243.56 911.33,-277.82 928,-306 933.21,-314.81 939.32,-324.13 945.44,-332.46"/>
<polygon fill="#aabbaa" fill-opacity="0.533333" stroke="#aabbaa" stroke-width="1.3" stroke-opacity="0.533333" points="942.48,-334.35 951.36,-340.13 948.02,-330.08 942.48,-334.35"/>
</g>
<!-- /lib/models/app_model.dart&#45;&gt;/lib/models/layers.dart -->
<g id="edge39" class="edge">
<title>/lib/models/app_model.dart&#45;&gt;/lib/models/layers.dart</title>
<path fill="none" stroke="#aabbaa" stroke-width="1.3" stroke-dasharray="5,2" stroke-opacity="0.533333" d="M900.48,-223.34C912.58,-243.56 929.33,-277.82 946,-306 951.04,-314.52 956.93,-323.52 962.08,-331.64"/>
<polygon fill="#aabbaa" fill-opacity="0.533333" stroke="#aabbaa" stroke-width="1.3" stroke-opacity="0.533333" points="959.03,-333.36 967.27,-340.02 964.98,-329.67 959.03,-333.36"/>
</g>
<!-- /lib/models/layer.dart&#45;&gt;/lib/models/user_action.dart -->
<g id="edge42" class="edge">
<title>/lib/models/layer.dart&#45;&gt;/lib/models/user_action.dart</title>
<path fill="none" stroke="#aabbaa" stroke-width="1.3" stroke-dasharray="5,2" stroke-opacity="0.533333" d="M977.67,-269.82C980.42,-259.69 983.97,-246.6 987.15,-234.92"/>
<polygon fill="#aabbaa" fill-opacity="0.533333" stroke="#aabbaa" stroke-width="1.3" stroke-opacity="0.533333" points="990.51,-235.9 989.75,-225.33 983.75,-234.06 990.51,-235.9"/>
</g>
<!-- /lib/models/layer.dart&#45;&gt;/lib/models/app_model.dart -->
<g id="edge40" class="edge">
<title>/lib/models/layer.dart&#45;&gt;/lib/models/app_model.dart</title>
<path fill="none" stroke="#aabbaa" stroke-width="1.3" stroke-opacity="0.533333" d="M954.55,-269.82C942.52,-258.62 926.61,-243.81 913.15,-231.28"/>
<polygon fill="#aabbaa" fill-opacity="0.533333" stroke="#aabbaa" stroke-width="1.3" stroke-opacity="0.533333" points="915.87,-229.03 906.16,-224.77 911.1,-234.15 915.87,-229.03"/>
</g>
<!-- /lib/models/layer.dart&#45;&gt;/lib/widgets/transparent_background.dart -->
<g id="edge41" class="edge">
<title>/lib/models/layer.dart&#45;&gt;/lib/widgets/transparent_background.dart</title>
<path fill="none" stroke="#aabbaa" stroke-width="1.3" stroke-opacity="0.533333" d="M991.33,-269.74C995.27,-266.76 999.59,-263.99 1004,-262 1023.32,-253.29 1035.8,-268.77 1051,-254 1075.38,-230.31 1040.49,-201.47 1066,-179 1116.32,-134.67 1550.26,-125.39 1751.4,-123.48"/>
<polygon fill="#aabbaa" fill-opacity="0.533333" stroke="#aabbaa" stroke-width="1.3" stroke-opacity="0.533333" points="1751.21,-126.98 1761.18,-123.39 1751.14,-119.98 1751.21,-126.98"/>
</g>
<!-- /lib/main.dart&#45;&gt;/lib/models/app_model.dart -->
<g id="edge44" class="edge">
<title>/lib/main.dart&#45;&gt;/lib/models/app_model.dart</title>
<path fill="none" stroke="#aabbaa" stroke-width="1.3" stroke-opacity="0.533333" d="M1101.76,-581.09C949.77,-580.94 208.49,-571.8 70,-409 27.67,-359.24 25.41,-309.75 70,-262 121.6,-206.73 652.22,-204.67 829.03,-205.53"/>
<polygon fill="#aabbaa" fill-opacity="0.533333" stroke="#aabbaa" stroke-width="1.3" stroke-opacity="0.533333" points="828.9,-209.03 838.92,-205.59 828.94,-202.03 828.9,-209.03"/>
</g>
<!-- /lib/main_screen.dart -->
<g id="node28" class="node">
<title>/lib/main_screen.dart</title>
<path fill="Lavender" stroke="black" stroke-width="1.3" d="M1167.75,-528C1167.75,-528 1090.25,-528 1090.25,-528 1084.25,-528 1078.25,-522 1078.25,-516 1078.25,-516 1078.25,-504 1078.25,-504 1078.25,-498 1084.25,-492 1090.25,-492 1090.25,-492 1167.75,-492 1167.75,-492 1173.75,-492 1179.75,-498 1179.75,-504 1179.75,-504 1179.75,-516 1179.75,-516 1179.75,-522 1173.75,-528 1167.75,-528"/>
<text text-anchor="middle" x="1129" y="-504.75" font-family="Arial" font-size="15.00">main_screen</text>
</g>
<!-- /lib/main.dart&#45;&gt;/lib/main_screen.dart -->
<g id="edge43" class="edge">
<title>/lib/main.dart&#45;&gt;/lib/main_screen.dart</title>
<path fill="none" stroke="#aabbaa" stroke-width="1.3" stroke-opacity="0.533333" d="M1129,-563.7C1129,-556.49 1129,-547.93 1129,-539.82"/>
<polygon fill="#aabbaa" fill-opacity="0.533333" stroke="#aabbaa" stroke-width="1.3" stroke-opacity="0.533333" points="1132.5,-540.07 1129,-530.07 1125.5,-540.07 1132.5,-540.07"/>
</g>
<!-- /lib/files/xcf_reader.dart&#45;&gt;/lib/helpers/list_helper.dart -->
<g id="edge45" class="edge">
<title>/lib/files/xcf_reader.dart&#45;&gt;/lib/helpers/list_helper.dart</title>
<path fill="none" stroke="#aabbaa" stroke-width="1.3" stroke-opacity="0.533333" d="M173.15,-341.59C276.22,-291.58 587.93,-147.78 865,-96 1061.61,-59.25 2518.81,-52.23 2819.01,-51.17"/>
<polygon fill="#aabbaa" fill-opacity="0.533333" stroke="#aabbaa" stroke-width="1.3" stroke-opacity="0.533333" points="2818.86,-54.67 2828.85,-51.13 2818.84,-47.67 2818.86,-54.67"/>
</g>
<!-- /lib/files/file_jpeg.dart -->
<g id="node23" class="node">
<title>/lib/files/file_jpeg.dart</title>
<path fill="Lavender" stroke="black" stroke-width="1.3" d="M758.38,-306C758.38,-306 711.62,-306 711.62,-306 705.62,-306 699.62,-300 699.62,-294 699.62,-294 699.62,-282 699.62,-282 699.62,-276 705.62,-270 711.62,-270 711.62,-270 758.38,-270 758.38,-270 764.38,-270 770.38,-276 770.38,-282 770.38,-282 770.38,-294 770.38,-294 770.38,-300 764.38,-306 758.38,-306"/>
<text text-anchor="middle" x="735" y="-282.75" font-family="Arial" font-size="15.00">file_jpeg</text>
</g>
<!-- /lib/files/export_download_web.dart -->
<g id="node24" class="node">
<title>/lib/files/export_download_web.dart</title>
<path fill="Lavender" stroke="black" stroke-width="1.3" d="M805.25,-378C805.25,-378 664.75,-378 664.75,-378 658.75,-378 652.75,-372 652.75,-366 652.75,-366 652.75,-354 652.75,-354 652.75,-348 658.75,-342 664.75,-342 664.75,-342 805.25,-342 805.25,-342 811.25,-342 817.25,-348 817.25,-354 817.25,-354 817.25,-366 817.25,-366 817.25,-372 811.25,-378 805.25,-378"/>
<text text-anchor="middle" x="735" y="-354.75" font-family="Arial" font-size="15.00">export_download_web</text>
</g>
<!-- /lib/files/export_download_web.dart&#45;&gt;/lib/panels/share_panel.dart -->
<g id="edge49" class="edge">
<title>/lib/files/export_download_web.dart&#45;&gt;/lib/panels/share_panel.dart</title>
<path fill="none" stroke="#aabbaa" stroke-width="1.3" stroke-opacity="0.533333" d="M817.52,-343.98C821.4,-343.3 825.24,-342.64 829,-342 928.83,-324.99 954.62,-325.5 1054,-306 1058.14,-305.19 1062.4,-304.31 1066.68,-303.39"/>
<polygon fill="#aabbaa" fill-opacity="0.533333" stroke="#aabbaa" stroke-width="1.3" stroke-opacity="0.533333" points="1067.08,-306.89 1076.1,-301.33 1065.58,-300.05 1067.08,-306.89"/>
</g>
<!-- /lib/files/export_download_web.dart&#45;&gt;/lib/models/app_model.dart -->
<g id="edge48" class="edge">
<title>/lib/files/export_download_web.dart&#45;&gt;/lib/models/app_model.dart</title>
<path fill="none" stroke="#aabbaa" stroke-width="1.3" stroke-opacity="0.533333" d="M786.79,-341.58C805.71,-333.19 826.11,-321.51 841,-306 851.4,-295.16 866.08,-259.68 875.81,-234.06"/>
<polygon fill="#aabbaa" fill-opacity="0.533333" stroke="#aabbaa" stroke-width="1.3" stroke-opacity="0.533333" points="879,-235.54 879.21,-224.95 872.44,-233.09 879,-235.54"/>
</g>
<!-- /lib/files/export_download_web.dart&#45;&gt;/lib/files/file_jpeg.dart -->
<g id="edge46" class="edge">
<title>/lib/files/export_download_web.dart&#45;&gt;/lib/files/file_jpeg.dart</title>
<path fill="none" stroke="#aabbaa" stroke-width="1.3" stroke-opacity="0.533333" d="M735,-341.7C735,-334.49 735,-325.93 735,-317.82"/>
<polygon fill="#aabbaa" fill-opacity="0.533333" stroke="#aabbaa" stroke-width="1.3" stroke-opacity="0.533333" points="738.5,-318.07 735,-308.07 731.5,-318.07 738.5,-318.07"/>
</g>
<!-- /lib/files/file_ora.dart -->
<g id="node25" class="node">
<title>/lib/files/file_ora.dart</title>
<path fill="Lavender" stroke="black" stroke-width="1.3" d="M669.38,-306C669.38,-306 628.62,-306 628.62,-306 622.62,-306 616.62,-300 616.62,-294 616.62,-294 616.62,-282 616.62,-282 616.62,-276 622.62,-270 628.62,-270 628.62,-270 669.38,-270 669.38,-270 675.38,-270 681.38,-276 681.38,-282 681.38,-282 681.38,-294 681.38,-294 681.38,-300 675.38,-306 669.38,-306"/>
<text text-anchor="middle" x="649" y="-282.75" font-family="Arial" font-size="15.00">file_ora</text>
</g>
<!-- /lib/files/export_download_web.dart&#45;&gt;/lib/files/file_ora.dart -->
<g id="edge47" class="edge">
<title>/lib/files/export_download_web.dart&#45;&gt;/lib/files/file_ora.dart</title>
<path fill="none" stroke="#aabbaa" stroke-width="1.3" stroke-opacity="0.533333" d="M713.74,-341.7C703.4,-333.28 690.79,-323.02 679.46,-313.79"/>
<polygon fill="#aabbaa" fill-opacity="0.533333" stroke="#aabbaa" stroke-width="1.3" stroke-opacity="0.533333" points="681.8,-311.19 671.84,-307.59 677.38,-316.62 681.8,-311.19"/>
</g>
<!-- /lib/files/file_ora.dart&#45;&gt;/lib/models/app_model.dart -->
<g id="edge51" class="edge">
<title>/lib/files/file_ora.dart&#45;&gt;/lib/models/app_model.dart</title>
<path fill="none" stroke="#aabbaa" stroke-width="1.3" stroke-opacity="0.533333" d="M674.91,-269.55C680.07,-266.67 685.58,-263.98 691,-262 711.73,-254.45 718.56,-259.24 740,-254 770.05,-246.65 802.83,-236.12 829.7,-226.79"/>
<polygon fill="#aabbaa" fill-opacity="0.533333" stroke="#aabbaa" stroke-width="1.3" stroke-opacity="0.533333" points="830.7,-230.14 838.97,-223.53 828.37,-223.54 830.7,-230.14"/>
</g>
<!-- /lib/files/file_ora.dart&#45;&gt;/lib/helpers/list_helper.dart -->
<g id="edge50" class="edge">
<title>/lib/files/file_ora.dart&#45;&gt;/lib/helpers/list_helper.dart</title>
<path fill="none" stroke="#aabbaa" stroke-width="1.3" stroke-opacity="0.533333" d="M670.41,-269.68C702.63,-244.71 766.46,-199.38 829,-179 1214.55,-53.35 2535.77,-49.99 2819.19,-50.75"/>
<polygon fill="#aabbaa" fill-opacity="0.533333" stroke="#aabbaa" stroke-width="1.3" stroke-opacity="0.533333" points="2818.78,-54.25 2828.79,-50.78 2818.8,-47.25 2818.78,-54.25"/>
</g>
<!-- /lib/files/export_download_non_web.dart -->
<g id="node26" class="node">
<title>/lib/files/export_download_non_web.dart</title>
<path fill="Lavender" stroke="black" stroke-width="1.3" d="M622.75,-378C622.75,-378 449.25,-378 449.25,-378 443.25,-378 437.25,-372 437.25,-366 437.25,-366 437.25,-354 437.25,-354 437.25,-348 443.25,-342 449.25,-342 449.25,-342 622.75,-342 622.75,-342 628.75,-342 634.75,-348 634.75,-354 634.75,-354 634.75,-366 634.75,-366 634.75,-372 628.75,-378 622.75,-378"/>
<text text-anchor="middle" x="536" y="-354.75" font-family="Arial" font-size="15.00">export_download_non_web</text>
</g>
<!-- /lib/files/export_download_non_web.dart&#45;&gt;/lib/panels/share_panel.dart -->
<g id="edge55" class="edge">
<title>/lib/files/export_download_non_web.dart&#45;&gt;/lib/panels/share_panel.dart</title>
<path fill="none" stroke="#aabbaa" stroke-width="1.3" stroke-opacity="0.533333" d="M635.13,-343.13C638.12,-342.73 641.08,-342.36 644,-342 825.57,-319.77 873.36,-334.82 1054,-306 1057.98,-305.37 1062.06,-304.64 1066.16,-303.84"/>
<polygon fill="#aabbaa" fill-opacity="0.533333" stroke="#aabbaa" stroke-width="1.3" stroke-opacity="0.533333" points="1066.69,-307.31 1075.78,-301.87 1065.28,-300.45 1066.69,-307.31"/>
</g>
<!-- /lib/files/export_download_non_web.dart&#45;&gt;/lib/models/app_model.dart -->
<g id="edge54" class="edge">
<title>/lib/files/export_download_non_web.dart&#45;&gt;/lib/models/app_model.dart</title>
<path fill="none" stroke="#aabbaa" stroke-width="1.3" stroke-opacity="0.533333" d="M635.24,-341.81C711.25,-328.35 804.41,-311.07 812,-306 831.48,-292.99 827.2,-280.93 841,-262 848.2,-252.13 856.48,-241.61 863.95,-232.38"/>
<polygon fill="#aabbaa" fill-opacity="0.533333" stroke="#aabbaa" stroke-width="1.3" stroke-opacity="0.533333" points="866.5,-234.8 870.13,-224.85 861.09,-230.36 866.5,-234.8"/>
</g>
<!-- /lib/files/export_download_non_web.dart&#45;&gt;/lib/files/file_jpeg.dart -->
<g id="edge52" class="edge">
<title>/lib/files/export_download_non_web.dart&#45;&gt;/lib/files/file_jpeg.dart</title>
<path fill="none" stroke="#aabbaa" stroke-width="1.3" stroke-opacity="0.533333" d="M587.82,-341.59C615.18,-332.31 649.56,-320.48 688.17,-306.61"/>
<polygon fill="#aabbaa" fill-opacity="0.533333" stroke="#aabbaa" stroke-width="1.3" stroke-opacity="0.533333" points="689.1,-310 697.32,-303.31 686.73,-303.41 689.1,-310"/>
</g>
<!-- /lib/files/export_download_non_web.dart&#45;&gt;/lib/files/file_ora.dart -->
<g id="edge53" class="edge">
<title>/lib/files/export_download_non_web.dart&#45;&gt;/lib/files/file_ora.dart</title>
<path fill="none" stroke="#aabbaa" stroke-width="1.3" stroke-opacity="0.533333" d="M564.22,-341.52C578.49,-332.68 595.99,-321.84 611.38,-312.3"/>
<polygon fill="#aabbaa" fill-opacity="0.533333" stroke="#aabbaa" stroke-width="1.3" stroke-opacity="0.533333" points="612.81,-315.54 619.46,-307.3 609.12,-309.59 612.81,-315.54"/>
</g>
<!-- /lib/files/import_files.dart&#45;&gt;/lib/models/app_model.dart -->
<g id="edge57" class="edge">
<title>/lib/files/import_files.dart&#45;&gt;/lib/models/app_model.dart</title>
<path fill="none" stroke="#aabbaa" stroke-width="1.3" stroke-opacity="0.533333" d="M419.64,-343.9C422.46,-343.2 425.26,-342.56 428,-342 504.83,-326.35 710.75,-344.6 779,-306 800.28,-293.97 794.75,-279.32 812,-262 823.5,-250.45 837.48,-239.28 850.17,-229.99"/>
<polygon fill="#aabbaa" fill-opacity="0.533333" stroke="#aabbaa" stroke-width="1.3" stroke-opacity="0.533333" points="851.86,-233.09 857.96,-224.43 847.79,-227.39 851.86,-233.09"/>
</g>
<!-- /lib/files/import_files.dart&#45;&gt;/lib/files/file_ora.dart -->
<g id="edge56" class="edge">
<title>/lib/files/import_files.dart&#45;&gt;/lib/files/file_ora.dart</title>
<path fill="none" stroke="#aabbaa" stroke-width="1.3" stroke-opacity="0.533333" d="M419.75,-344.33C422.53,-343.52 425.3,-342.74 428,-342 488.82,-325.33 559.85,-308.81 604.63,-298.76"/>
<polygon fill="#aabbaa" fill-opacity="0.533333" stroke="#aabbaa" stroke-width="1.3" stroke-opacity="0.533333" points="605.34,-302.19 614.33,-296.59 603.81,-295.35 605.34,-302.19"/>
</g>
<!-- /lib/main_screen.dart&#45;&gt;/lib/panels/tools/flood_fill.dart -->
<g id="edge60" class="edge">
<title>/lib/main_screen.dart&#45;&gt;/lib/panels/tools/flood_fill.dart</title>
<path fill="none" stroke="#aabbaa" stroke-width="1.3" stroke-opacity="0.533333" d="M1180.2,-509.87C1242.84,-509.8 1351.7,-506.02 1442,-484 1525.4,-463.66 1549.82,-458.45 1620,-409 1628.54,-402.98 1636.65,-395.05 1643.53,-387.38"/>
<polygon fill="#aabbaa" fill-opacity="0.533333" stroke="#aabbaa" stroke-width="1.3" stroke-opacity="0.533333" points="1646.17,-389.67 1649.97,-379.79 1640.83,-385.14 1646.17,-389.67"/>
</g>
<!-- /lib/main_screen.dart&#45;&gt;/lib/panels/canvas_panel.dart -->
<g id="edge58" class="edge">
<title>/lib/main_screen.dart&#45;&gt;/lib/panels/canvas_panel.dart</title>
<path fill="none" stroke="#aabbaa" stroke-width="1.3" stroke-opacity="0.533333" d="M1117.35,-491.79C1090.98,-450.5 1031.76,-343.23 1069,-262 1074.61,-249.77 1084.35,-239.19 1094.62,-230.63"/>
<polygon fill="#aabbaa" fill-opacity="0.533333" stroke="#aabbaa" stroke-width="1.3" stroke-opacity="0.533333" points="1096.73,-233.42 1102.52,-224.55 1092.47,-227.87 1096.73,-233.42"/>
</g>
<!-- /lib/main_screen.dart&#45;&gt;/lib/panels/side_panel.dart -->
<g id="edge59" class="edge">
<title>/lib/main_screen.dart&#45;&gt;/lib/panels/side_panel.dart</title>
<path fill="none" stroke="#aabbaa" stroke-width="1.3" stroke-opacity="0.533333" d="M1145.83,-491.7C1154.52,-482.76 1165.29,-471.68 1174.94,-461.76"/>
<polygon fill="#aabbaa" fill-opacity="0.533333" stroke="#aabbaa" stroke-width="1.3" stroke-opacity="0.533333" points="1177.21,-464.45 1181.68,-454.84 1172.2,-459.57 1177.21,-464.45"/>
</g>
<!-- /lib/main_screen.dart&#45;&gt;/lib/models/app_model.dart -->
<g id="edge61" class="edge">
<title>/lib/main_screen.dart&#45;&gt;/lib/models/app_model.dart</title>
<path fill="none" stroke="#aabbaa" stroke-width="1.3" stroke-opacity="0.533333" d="M1077.86,-495.89C1033.53,-481.83 971.15,-455.05 936,-409 896.38,-357.1 887.76,-277.9 886.13,-235.4"/>
<polygon fill="#aabbaa" fill-opacity="0.533333" stroke="#aabbaa" stroke-width="1.3" stroke-opacity="0.533333" points="889.63,-235.33 885.87,-225.42 882.63,-235.51 889.63,-235.33"/>
</g>
<!-- /lib/helpers/color_helper.dart&#45;&gt;/lib/helpers/list_helper.dart -->
<g id="edge62" class="edge">
<title>/lib/helpers/color_helper.dart&#45;&gt;/lib/helpers/list_helper.dart</title>
<path fill="none" stroke="#aabbaa" stroke-width="1.3" stroke-opacity="0.533333" d="M2878.27,-103.7C2877.55,-96.49 2876.69,-87.93 2875.88,-79.82"/>
<polygon fill="#aabbaa" fill-opacity="0.533333" stroke="#aabbaa" stroke-width="1.3" stroke-opacity="0.533333" points="2879.38,-79.66 2874.91,-70.06 2872.42,-80.36 2879.38,-79.66"/>
</g>
<!-- /lib/widgets/brush_style_picker.dart&#45;&gt;/lib/models/app_model.dart -->
<g id="edge63" class="edge">
<title>/lib/widgets/brush_style_picker.dart&#45;&gt;/lib/models/app_model.dart</title>
<path fill="none" stroke="#aabbaa" stroke-width="1.3" stroke-opacity="0.533333" d="M1780.29,-223.38C1740.67,-235.93 1685.16,-251.43 1635,-258 1616.08,-260.48 966.67,-261.96 948,-258 931.93,-254.59 917.7,-243.39 906.93,-232.16"/>
<polygon fill="#aabbaa" fill-opacity="0.533333" stroke="#aabbaa" stroke-width="1.3" stroke-opacity="0.533333" points="909.63,-229.93 900.38,-224.77 904.39,-234.57 909.63,-229.93"/>
</g>
<!-- /lib/widgets/color_picker.dart&#45;&gt;/lib/helpers/list_helper.dart -->
<g id="edge65" class="edge">
<title>/lib/widgets/color_picker.dart&#45;&gt;/lib/helpers/list_helper.dart</title>
<path fill="none" stroke="#aabbaa" stroke-width="1.3" stroke-opacity="0.533333" d="M2766.87,-186.84C2777.53,-164.59 2798.02,-125.18 2822,-96 2827.67,-89.1 2834.44,-82.35 2841.17,-76.26"/>
<polygon fill="#aabbaa" fill-opacity="0.533333" stroke="#aabbaa" stroke-width="1.3" stroke-opacity="0.533333" points="2843.46,-78.91 2848.72,-69.71 2838.87,-73.62 2843.46,-78.91"/>
</g>
<!-- /lib/widgets/color_picker.dart&#45;&gt;/lib/helpers/color_helper.dart -->
<g id="edge64" class="edge">
<title>/lib/widgets/color_picker.dart&#45;&gt;/lib/helpers/color_helper.dart</title>
<path fill="none" stroke="#aabbaa" stroke-width="1.3" stroke-opacity="0.533333" d="M2792.9,-186.62C2801.57,-181.83 2810.77,-176.45 2819,-171 2829.62,-163.97 2840.71,-155.59 2850.48,-147.81"/>
<polygon fill="#aabbaa" fill-opacity="0.533333" stroke="#aabbaa" stroke-width="1.3" stroke-opacity="0.533333" points="2852.64,-150.56 2858.21,-141.55 2848.24,-145.13 2852.64,-150.56"/>
</g>
<!-- /lib/widgets/color_picker.dart&#45;&gt;/lib/widgets/transparent_background.dart -->
<g id="edge66" class="edge">
<title>/lib/widgets/color_picker.dart&#45;&gt;/lib/widgets/transparent_background.dart</title>
<path fill="none" stroke="#aabbaa" stroke-width="1.3" stroke-opacity="0.533333" d="M2724.4,-186.55C2717.16,-183.55 2709.45,-180.82 2702,-179 2563.03,-145.05 2148.32,-130.42 1954.69,-125.3"/>
<polygon fill="#aabbaa" fill-opacity="0.533333" stroke="#aabbaa" stroke-width="1.3" stroke-opacity="0.533333" points="1954.88,-121.81 1944.79,-125.05 1954.7,-128.81 1954.88,-121.81"/>
</g>
</g>
</svg>
