<?xml version="1.0" encoding="UTF-8" standalone="no"?>
<!DOCTYPE svg PUBLIC "-//W3C//DTD SVG 1.1//EN"
 "http://www.w3.org/Graphics/SVG/1.1/DTD/svg11.dtd">
<!-- Generated by graphviz version 12.2.1 (20241206.2353)
 -->
<!-- Pages: 1 -->
<svg width="1072pt" height="761pt"
 viewBox="0.00 0.00 1072.00 761.00" xmlns="http://www.w3.org/2000/svg" xmlns:xlink="http://www.w3.org/1999/xlink">
<g id="graph0" class="graph" transform="scale(1 1) rotate(0) translate(4 757)">
<polygon fill="white" stroke="none" points="-4,4 -4,-757 1068,-757 1068,4 -4,4"/>
<g id="clust1" class="cluster">
<title>cluster~</title>
<path fill="none" stroke="lightgray" stroke-width="2.6" d="M20,-8C20,-8 1044,-8 1044,-8 1050,-8 1056,-14 1056,-20 1056,-20 1056,-733 1056,-733 1056,-739 1050,-745 1044,-745 1044,-745 20,-745 20,-745 14,-745 8,-739 8,-733 8,-733 8,-20 8,-20 8,-14 14,-8 20,-8"/>
<text text-anchor="middle" x="532" y="-728.65" font-family="Arial Black" font-size="13.00">fpaint</text>
</g>
<g id="clust2" class="cluster">
<title>cluster~/test</title>
<path fill="none" stroke="lightgray" stroke-width="2.6" d="M28,-639C28,-639 260,-639 260,-639 266,-639 272,-645 272,-651 272,-651 272,-702 272,-702 272,-708 266,-714 260,-714 260,-714 28,-714 28,-714 22,-714 16,-708 16,-702 16,-702 16,-651 16,-651 16,-645 22,-639 28,-639"/>
<text text-anchor="middle" x="144" y="-697.65" font-family="Arial Black" font-size="13.00">test</text>
</g>
<g id="clust3" class="cluster">
<title>cluster~/lib</title>
<path fill="none" stroke="lightgray" stroke-width="2.6" d="M40,-16C40,-16 1036,-16 1036,-16 1042,-16 1048,-22 1048,-28 1048,-28 1048,-619 1048,-619 1048,-625 1042,-631 1036,-631 1036,-631 40,-631 40,-631 34,-631 28,-625 28,-619 28,-619 28,-28 28,-28 28,-22 34,-16 40,-16"/>
<text text-anchor="middle" x="538" y="-614.65" font-family="Arial Black" font-size="13.00">lib</text>
</g>
<g id="clust4" class="cluster">
<title>cluster~/lib/brushes</title>
<path fill="none" stroke="lightgray" stroke-width="2.6" d="M623,-96C623,-96 685,-96 685,-96 691,-96 697,-102 697,-108 697,-108 697,-159 697,-159 697,-165 691,-171 685,-171 685,-171 623,-171 623,-171 617,-171 611,-165 611,-159 611,-159 611,-108 611,-108 611,-102 617,-96 623,-96"/>
<text text-anchor="middle" x="654" y="-154.65" font-family="Arial Black" font-size="13.00">brushes</text>
</g>
<g id="clust5" class="cluster">
<title>cluster~/lib/panels</title>
<path fill="none" stroke="lightgray" stroke-width="2.6" d="M729,-262C729,-262 931,-262 931,-262 937,-262 943,-268 943,-274 943,-274 943,-472 943,-472 943,-478 937,-484 931,-484 931,-484 729,-484 729,-484 723,-484 717,-478 717,-472 717,-472 717,-274 717,-274 717,-268 723,-262 729,-262"/>
<text text-anchor="middle" x="830" y="-467.65" font-family="Arial Black" font-size="13.00">panels</text>
</g>
<g id="clust6" class="cluster">
<title>cluster~/lib/models</title>
<path fill="none" stroke="lightgray" stroke-width="2.6" d="M504,-179C504,-179 697,-179 697,-179 703,-179 709,-185 709,-191 709,-191 709,-397 709,-397 709,-403 703,-409 697,-409 697,-409 504,-409 504,-409 498,-409 492,-403 492,-397 492,-397 492,-191 492,-191 492,-185 498,-179 504,-179"/>
<text text-anchor="middle" x="600.5" y="-392.65" font-family="Arial Black" font-size="13.00">models</text>
</g>
<g id="clust7" class="cluster">
<title>cluster~/lib/files</title>
<path fill="none" stroke="lightgray" stroke-width="2.6" d="M100,-334C100,-334 472,-334 472,-334 478,-334 484,-340 484,-346 484,-346 484,-472 484,-472 484,-478 478,-484 472,-484 472,-484 100,-484 100,-484 94,-484 88,-478 88,-472 88,-472 88,-346 88,-346 88,-340 94,-334 100,-334"/>
<text text-anchor="middle" x="286" y="-467.65" font-family="Arial Black" font-size="13.00">files</text>
</g>
<g id="clust8" class="cluster">
<title>cluster~/lib/helpers</title>
<path fill="none" stroke="lightgray" stroke-width="2.6" d="M807,-24C807,-24 897,-24 897,-24 903,-24 909,-30 909,-36 909,-36 909,-159 909,-159 909,-165 903,-171 897,-171 897,-171 807,-171 807,-171 801,-171 795,-165 795,-159 795,-159 795,-36 795,-36 795,-30 801,-24 807,-24"/>
<text text-anchor="middle" x="852" y="-154.65" font-family="Arial Black" font-size="13.00">helpers</text>
</g>
<g id="clust9" class="cluster">
<title>cluster~/lib/widgets</title>
<path fill="none" stroke="lightgray" stroke-width="2.6" d="M743,-179C743,-179 1028,-179 1028,-179 1034,-179 1040,-185 1040,-191 1040,-191 1040,-242 1040,-242 1040,-248 1034,-254 1028,-254 1028,-254 743,-254 743,-254 737,-254 731,-248 731,-242 731,-242 731,-191 731,-191 731,-185 737,-179 743,-179"/>
<text text-anchor="middle" x="885.5" y="-237.65" font-family="Arial Black" font-size="13.00">widgets</text>
</g>
<!-- /test/paint_model_test.dart -->
<g id="node1" class="node">
<title>/test/paint_model_test.dart</title>
<path fill="Lavender" stroke="black" stroke-width="1.3" d="M142,-683C142,-683 36,-683 36,-683 30,-683 24,-677 24,-671 24,-671 24,-659 24,-659 24,-653 30,-647 36,-647 36,-647 142,-647 142,-647 148,-647 154,-653 154,-659 154,-659 154,-671 154,-671 154,-677 148,-683 142,-683"/>
<text text-anchor="middle" x="89" y="-659.75" font-family="Arial" font-size="15.00">paint_model_test</text>
</g>
<!-- /lib/models/app_model.dart -->
<g id="node11" class="node">
<title>/lib/models/app_model.dart</title>
<path fill="Lavender" stroke="black" stroke-width="1.3" d="M577.75,-223C577.75,-223 512.25,-223 512.25,-223 506.25,-223 500.25,-217 500.25,-211 500.25,-211 500.25,-199 500.25,-199 500.25,-193 506.25,-187 512.25,-187 512.25,-187 577.75,-187 577.75,-187 583.75,-187 589.75,-193 589.75,-199 589.75,-199 589.75,-211 589.75,-211 589.75,-217 583.75,-223 577.75,-223"/>
<text text-anchor="middle" x="545" y="-199.75" font-family="Arial" font-size="15.00">app_model</text>
</g>
<!-- /test/paint_model_test.dart&#45;&gt;/lib/models/app_model.dart -->
<g id="edge1" class="edge">
<title>/test/paint_model_test.dart&#45;&gt;/lib/models/app_model.dart</title>
<path fill="none" stroke="#aabbaa" stroke-width="1.3" stroke-opacity="0.533333" d="M40.03,-646.55C33.75,-642.37 28.09,-637.25 24,-631 -5.26,-586.3 17,-564.42 17,-511 17,-511 17,-511 17,-359 17,-315.78 -6.02,-293.09 24,-262 55.79,-229.07 359.6,-213.31 488.08,-208.07"/>
<polygon fill="#aabbaa" fill-opacity="0.533333" stroke="#aabbaa" stroke-width="1.3" stroke-opacity="0.533333" points="488.13,-211.57 497.98,-207.67 487.85,-204.58 488.13,-211.57"/>
</g>
<!-- /test/widget_test.dart -->
<g id="node2" class="node">
<title>/test/widget_test.dart</title>
<path fill="Lavender" stroke="black" stroke-width="1.3" d="M251.88,-683C251.88,-683 184.12,-683 184.12,-683 178.12,-683 172.12,-677 172.12,-671 172.12,-671 172.12,-659 172.12,-659 172.12,-653 178.12,-647 184.12,-647 184.12,-647 251.88,-647 251.88,-647 257.88,-647 263.88,-653 263.88,-659 263.88,-659 263.88,-671 263.88,-671 263.88,-677 257.88,-683 251.88,-683"/>
<text text-anchor="middle" x="218" y="-659.75" font-family="Arial" font-size="15.00">widget_test</text>
</g>
<!-- /lib/main.dart -->
<g id="node13" class="node">
<title>/lib/main.dart</title>
<path fill="Lavender" stroke="black" stroke-width="1.3" d="M233,-600C233,-600 203,-600 203,-600 197,-600 191,-594 191,-588 191,-588 191,-576 191,-576 191,-570 197,-564 203,-564 203,-564 233,-564 233,-564 239,-564 245,-570 245,-576 245,-576 245,-588 245,-588 245,-594 239,-600 233,-600"/>
<text text-anchor="middle" x="218" y="-576.75" font-family="Arial" font-size="15.00">main</text>
</g>
<!-- /test/widget_test.dart&#45;&gt;/lib/main.dart -->
<g id="edge2" class="edge">
<title>/test/widget_test.dart&#45;&gt;/lib/main.dart</title>
<path fill="none" stroke="#aabbaa" stroke-width="1.3" stroke-opacity="0.533333" d="M218,-646.82C218,-636.8 218,-623.88 218,-612.29"/>
<polygon fill="#aabbaa" fill-opacity="0.533333" stroke="#aabbaa" stroke-width="1.3" stroke-opacity="0.533333" points="221.5,-612.4 218,-602.4 214.5,-612.4 221.5,-612.4"/>
</g>
<!-- /lib/brushes/brushes.dart -->
<g id="node3" class="node">
<title>/lib/brushes/brushes.dart</title>
<path fill="Lavender" stroke="black" stroke-width="1.3" d="M676.62,-140C676.62,-140 631.38,-140 631.38,-140 625.38,-140 619.38,-134 619.38,-128 619.38,-128 619.38,-116 619.38,-116 619.38,-110 625.38,-104 631.38,-104 631.38,-104 676.62,-104 676.62,-104 682.62,-104 688.62,-110 688.62,-116 688.62,-116 688.62,-128 688.62,-128 688.62,-134 682.62,-140 676.62,-140"/>
<text text-anchor="middle" x="654" y="-116.75" font-family="Arial" font-size="15.00">brushes</text>
</g>
<!-- /lib/brushes/brushes.dart&#45;&gt;/lib/models/app_model.dart -->
<g id="edge3" class="edge">
<title>/lib/brushes/brushes.dart&#45;&gt;/lib/models/app_model.dart</title>
<path fill="none" stroke="#aabbaa" stroke-width="1.3" stroke-opacity="0.533333" d="M630.66,-140.35C615.29,-151.77 594.95,-166.88 577.95,-179.52"/>
<polygon fill="#aabbaa" fill-opacity="0.533333" stroke="#aabbaa" stroke-width="1.3" stroke-opacity="0.533333" points="575.9,-176.68 569.96,-185.45 580.08,-182.29 575.9,-176.68"/>
</g>
<!-- /lib/panels/canvas_panel.dart -->
<g id="node4" class="node">
<title>/lib/panels/canvas_panel.dart</title>
<path fill="Lavender" stroke="black" stroke-width="1.3" d="M846.75,-306C846.75,-306 763.25,-306 763.25,-306 757.25,-306 751.25,-300 751.25,-294 751.25,-294 751.25,-282 751.25,-282 751.25,-276 757.25,-270 763.25,-270 763.25,-270 846.75,-270 846.75,-270 852.75,-270 858.75,-276 858.75,-282 858.75,-282 858.75,-294 858.75,-294 858.75,-300 852.75,-306 846.75,-306"/>
<text text-anchor="middle" x="805" y="-282.75" font-family="Arial" font-size="15.00">canvas_panel</text>
</g>
<!-- /lib/panels/canvas_panel.dart&#45;&gt;/lib/models/app_model.dart -->
<g id="edge5" class="edge">
<title>/lib/panels/canvas_panel.dart&#45;&gt;/lib/models/app_model.dart</title>
<path fill="none" stroke="#aabbaa" stroke-width="1.3" stroke-opacity="0.533333" d="M750.91,-270.41C738.55,-267.15 725.4,-264.1 713,-262 687.74,-257.73 621.57,-264.04 598,-254 586.35,-249.04 575.57,-240.41 566.82,-231.82"/>
<polygon fill="#aabbaa" fill-opacity="0.533333" stroke="#aabbaa" stroke-width="1.3" stroke-opacity="0.533333" points="569.57,-229.64 560.14,-224.82 564.5,-234.47 569.57,-229.64"/>
</g>
<!-- /lib/widgets/transparent_background.dart -->
<g id="node20" class="node">
<title>/lib/widgets/transparent_background.dart</title>
<path fill="Lavender" stroke="black" stroke-width="1.3" d="M905.38,-223C905.38,-223 750.62,-223 750.62,-223 744.62,-223 738.62,-217 738.62,-211 738.62,-211 738.62,-199 738.62,-199 738.62,-193 744.62,-187 750.62,-187 750.62,-187 905.38,-187 905.38,-187 911.38,-187 917.38,-193 917.38,-199 917.38,-199 917.38,-211 917.38,-211 917.38,-217 911.38,-223 905.38,-223"/>
<text text-anchor="middle" x="828" y="-199.75" font-family="Arial" font-size="15.00">transparent_background</text>
</g>
<!-- /lib/panels/canvas_panel.dart&#45;&gt;/lib/widgets/transparent_background.dart -->
<g id="edge4" class="edge">
<title>/lib/panels/canvas_panel.dart&#45;&gt;/lib/widgets/transparent_background.dart</title>
<path fill="none" stroke="#aabbaa" stroke-width="1.3" stroke-opacity="0.533333" d="M809.88,-269.82C812.76,-259.69 816.47,-246.6 819.79,-234.92"/>
<polygon fill="#aabbaa" fill-opacity="0.533333" stroke="#aabbaa" stroke-width="1.3" stroke-opacity="0.533333" points="823.15,-235.9 822.51,-225.33 816.41,-233.99 823.15,-235.9"/>
</g>
<!-- /lib/panels/tool_item.dart -->
<g id="node5" class="node">
<title>/lib/panels/tool_item.dart</title>
<path fill="Lavender" stroke="black" stroke-width="1.3" d="M905.38,-378C905.38,-378 852.62,-378 852.62,-378 846.62,-378 840.62,-372 840.62,-366 840.62,-366 840.62,-354 840.62,-354 840.62,-348 846.62,-342 852.62,-342 852.62,-342 905.38,-342 905.38,-342 911.38,-342 917.38,-348 917.38,-354 917.38,-354 917.38,-366 917.38,-366 917.38,-372 911.38,-378 905.38,-378"/>
<text text-anchor="middle" x="879" y="-354.75" font-family="Arial" font-size="15.00">tool_item</text>
</g>
<!-- /lib/panels/share_panel.dart -->
<g id="node6" class="node">
<title>/lib/panels/share_panel.dart</title>
<path fill="Lavender" stroke="black" stroke-width="1.3" d="M810.88,-378C810.88,-378 737.12,-378 737.12,-378 731.12,-378 725.12,-372 725.12,-366 725.12,-366 725.12,-354 725.12,-354 725.12,-348 731.12,-342 737.12,-342 737.12,-342 810.88,-342 810.88,-342 816.88,-342 822.88,-348 822.88,-354 822.88,-354 822.88,-366 822.88,-366 822.88,-372 816.88,-378 810.88,-378"/>
<text text-anchor="middle" x="774" y="-354.75" font-family="Arial" font-size="15.00">share_panel</text>
</g>
<!-- /lib/panels/share_panel.dart&#45;&gt;/lib/panels/canvas_panel.dart -->
<g id="edge7" class="edge">
<title>/lib/panels/share_panel.dart&#45;&gt;/lib/panels/canvas_panel.dart</title>
<path fill="none" stroke="#aabbaa" stroke-width="1.3" stroke-opacity="0.533333" d="M781.66,-341.7C784.97,-334.24 788.91,-325.32 792.62,-316.97"/>
<polygon fill="#aabbaa" fill-opacity="0.533333" stroke="#aabbaa" stroke-width="1.3" stroke-opacity="0.533333" points="795.78,-318.46 796.63,-307.9 789.38,-315.63 795.78,-318.46"/>
</g>
<!-- /lib/panels/share_panel.dart&#45;&gt;/lib/models/app_model.dart -->
<g id="edge6" class="edge">
<title>/lib/panels/share_panel.dart&#45;&gt;/lib/models/app_model.dart</title>
<path fill="none" stroke="#aabbaa" stroke-width="1.3" stroke-opacity="0.533333" d="M761.45,-341.82C743.84,-319.18 709.49,-280.14 670,-262 640.74,-248.56 627.36,-267.23 598,-254 586.46,-248.8 575.7,-240.12 566.93,-231.57"/>
<polygon fill="#aabbaa" fill-opacity="0.533333" stroke="#aabbaa" stroke-width="1.3" stroke-opacity="0.533333" points="569.69,-229.38 560.24,-224.6 564.64,-234.24 569.69,-229.38"/>
</g>
<!-- /lib/panels/tools_panel.dart -->
<g id="node7" class="node">
<title>/lib/panels/tools_panel.dart</title>
<path fill="Lavender" stroke="black" stroke-width="1.3" d="M922.88,-453C922.88,-453 855.12,-453 855.12,-453 849.12,-453 843.12,-447 843.12,-441 843.12,-441 843.12,-429 843.12,-429 843.12,-423 849.12,-417 855.12,-417 855.12,-417 922.88,-417 922.88,-417 928.88,-417 934.88,-423 934.88,-429 934.88,-429 934.88,-441 934.88,-441 934.88,-447 928.88,-453 922.88,-453"/>
<text text-anchor="middle" x="889" y="-429.75" font-family="Arial" font-size="15.00">tools_panel</text>
</g>
<!-- /lib/panels/tools_panel.dart&#45;&gt;/lib/panels/tool_item.dart -->
<g id="edge9" class="edge">
<title>/lib/panels/tools_panel.dart&#45;&gt;/lib/panels/tool_item.dart</title>
<path fill="none" stroke="#aabbaa" stroke-width="1.3" stroke-opacity="0.533333" d="M886.63,-416.7C885.54,-408.76 884.22,-399.12 882.99,-390.11"/>
<polygon fill="#aabbaa" fill-opacity="0.533333" stroke="#aabbaa" stroke-width="1.3" stroke-opacity="0.533333" points="886.48,-389.81 881.65,-380.38 879.54,-390.76 886.48,-389.81"/>
</g>
<!-- /lib/panels/tools_panel.dart&#45;&gt;/lib/models/app_model.dart -->
<g id="edge8" class="edge">
<title>/lib/panels/tools_panel.dart&#45;&gt;/lib/models/app_model.dart</title>
<path fill="none" stroke="#aabbaa" stroke-width="1.3" stroke-opacity="0.533333" d="M842.68,-418.85C839.76,-418.16 836.85,-417.53 834,-417 808.16,-412.2 737.94,-423.48 716,-409 685.39,-388.8 670.38,-283.94 641,-262 625.43,-250.37 615.42,-262.63 598,-254 586.94,-248.52 576.47,-240.05 567.81,-231.75"/>
<polygon fill="#aabbaa" fill-opacity="0.533333" stroke="#aabbaa" stroke-width="1.3" stroke-opacity="0.533333" points="570.37,-229.36 560.86,-224.69 565.38,-234.27 570.37,-229.36"/>
</g>
<!-- /lib/panels/tools_panel.dart&#45;&gt;/lib/widgets/transparent_background.dart -->
<g id="edge11" class="edge">
<title>/lib/panels/tools_panel.dart&#45;&gt;/lib/widgets/transparent_background.dart</title>
<path fill="none" stroke="#aabbaa" stroke-width="1.3" stroke-opacity="0.533333" d="M920.14,-416.83C922.45,-414.48 924.47,-411.88 926,-409 941.64,-379.56 936.7,-365.57 926,-334 912.16,-293.16 879.48,-255.11 855.65,-231.29"/>
<polygon fill="#aabbaa" fill-opacity="0.533333" stroke="#aabbaa" stroke-width="1.3" stroke-opacity="0.533333" points="858.34,-229.02 848.73,-224.55 853.45,-234.04 858.34,-229.02"/>
</g>
<!-- /lib/widgets/color_picker.dart -->
<g id="node21" class="node">
<title>/lib/widgets/color_picker.dart</title>
<path fill="Lavender" stroke="black" stroke-width="1.3" d="M1020.12,-223C1020.12,-223 947.88,-223 947.88,-223 941.88,-223 935.88,-217 935.88,-211 935.88,-211 935.88,-199 935.88,-199 935.88,-193 941.88,-187 947.88,-187 947.88,-187 1020.12,-187 1020.12,-187 1026.12,-187 1032.12,-193 1032.12,-199 1032.12,-199 1032.12,-211 1032.12,-211 1032.12,-217 1026.12,-223 1020.12,-223"/>
<text text-anchor="middle" x="984" y="-199.75" font-family="Arial" font-size="15.00">color_picker</text>
</g>
<!-- /lib/panels/tools_panel.dart&#45;&gt;/lib/widgets/color_picker.dart -->
<g id="edge10" class="edge">
<title>/lib/panels/tools_panel.dart&#45;&gt;/lib/widgets/color_picker.dart</title>
<path fill="none" stroke="#aabbaa" stroke-width="1.3" stroke-opacity="0.533333" d="M928.53,-416.54C931.31,-414.29 933.85,-411.78 936,-409 975.89,-357.29 983.4,-277.69 984.35,-235.16"/>
<polygon fill="#aabbaa" fill-opacity="0.533333" stroke="#aabbaa" stroke-width="1.3" stroke-opacity="0.533333" points="987.85,-235.22 984.45,-225.19 980.85,-235.16 987.85,-235.22"/>
</g>
<!-- /lib/panels/layers_panel.dart -->
<g id="node8" class="node">
<title>/lib/panels/layers_panel.dart</title>
<path fill="Lavender" stroke="black" stroke-width="1.3" d="M813,-453C813,-453 737,-453 737,-453 731,-453 725,-447 725,-441 725,-441 725,-429 725,-429 725,-423 731,-417 737,-417 737,-417 813,-417 813,-417 819,-417 825,-423 825,-429 825,-429 825,-441 825,-441 825,-447 819,-453 813,-453"/>
<text text-anchor="middle" x="775" y="-429.75" font-family="Arial" font-size="15.00">layers_panel</text>
</g>
<!-- /lib/panels/layers_panel.dart&#45;&gt;/lib/panels/share_panel.dart -->
<g id="edge13" class="edge">
<title>/lib/panels/layers_panel.dart&#45;&gt;/lib/panels/share_panel.dart</title>
<path fill="none" stroke="#aabbaa" stroke-width="1.3" stroke-opacity="0.533333" d="M774.76,-416.7C774.65,-408.76 774.52,-399.12 774.4,-390.11"/>
<polygon fill="#aabbaa" fill-opacity="0.533333" stroke="#aabbaa" stroke-width="1.3" stroke-opacity="0.533333" points="777.9,-390.35 774.27,-380.4 770.9,-390.44 777.9,-390.35"/>
</g>
<!-- /lib/panels/layers_panel.dart&#45;&gt;/lib/models/app_model.dart -->
<g id="edge12" class="edge">
<title>/lib/panels/layers_panel.dart&#45;&gt;/lib/models/app_model.dart</title>
<path fill="none" stroke="#aabbaa" stroke-width="1.3" stroke-opacity="0.533333" d="M724.77,-428.46C698.25,-424.51 669.31,-418.25 660,-409 612.49,-361.81 673.19,-310.48 627,-262 617.78,-252.32 609.72,-260.44 598,-254 587.34,-248.14 577.08,-239.74 568.47,-231.59"/>
<polygon fill="#aabbaa" fill-opacity="0.533333" stroke="#aabbaa" stroke-width="1.3" stroke-opacity="0.533333" points="571.1,-229.28 561.55,-224.71 566.17,-234.24 571.1,-229.28"/>
</g>
<!-- /lib/models/layers.dart -->
<g id="node9" class="node">
<title>/lib/models/layers.dart</title>
<path fill="Lavender" stroke="black" stroke-width="1.3" d="M606.88,-378C606.88,-378 575.12,-378 575.12,-378 569.12,-378 563.12,-372 563.12,-366 563.12,-366 563.12,-354 563.12,-354 563.12,-348 569.12,-342 575.12,-342 575.12,-342 606.88,-342 606.88,-342 612.88,-342 618.88,-348 618.88,-354 618.88,-354 618.88,-366 618.88,-366 618.88,-372 612.88,-378 606.88,-378"/>
<text text-anchor="middle" x="591" y="-354.75" font-family="Arial" font-size="15.00">layers</text>
</g>
<!-- /lib/models/layer.dart -->
<g id="node12" class="node">
<title>/lib/models/layer.dart</title>
<path fill="Lavender" stroke="black" stroke-width="1.3" d="M606,-306C606,-306 576,-306 576,-306 570,-306 564,-300 564,-294 564,-294 564,-282 564,-282 564,-276 570,-270 576,-270 576,-270 606,-270 606,-270 612,-270 618,-276 618,-282 618,-282 618,-294 618,-294 618,-300 612,-306 606,-306"/>
<text text-anchor="middle" x="591" y="-282.75" font-family="Arial" font-size="15.00">layer</text>
</g>
<!-- /lib/models/layers.dart&#45;&gt;/lib/models/layer.dart -->
<g id="edge15" class="edge">
<title>/lib/models/layers.dart&#45;&gt;/lib/models/layer.dart</title>
<path fill="none" stroke="#aabbaa" stroke-width="1.3" stroke-opacity="0.533333" d="M585.08,-341.7C584.34,-334.49 584.09,-325.93 584.34,-317.82"/>
<polygon fill="#aabbaa" fill-opacity="0.533333" stroke="#aabbaa" stroke-width="1.3" stroke-opacity="0.533333" points="587.82,-318.27 584.98,-308.07 580.84,-317.82 587.82,-318.27"/>
</g>
<!-- /lib/models/layers.dart&#45;&gt;/lib/models/layer.dart -->
<g id="edge16" class="edge">
<title>/lib/models/layers.dart&#45;&gt;/lib/models/layer.dart</title>
<path fill="none" stroke="#aabbaa" stroke-width="1.3" stroke-dasharray="5,2" stroke-opacity="0.533333" d="M596.92,-341.7C597.66,-334.49 597.91,-325.93 597.66,-317.82"/>
<polygon fill="#aabbaa" fill-opacity="0.533333" stroke="#aabbaa" stroke-width="1.3" stroke-opacity="0.533333" points="601.16,-317.82 597.02,-308.07 594.18,-318.27 601.16,-317.82"/>
</g>
<!-- /lib/helpers/list_helper.dart -->
<g id="node18" class="node">
<title>/lib/helpers/list_helper.dart</title>
<path fill="Lavender" stroke="black" stroke-width="1.3" d="M877.75,-68C877.75,-68 818.25,-68 818.25,-68 812.25,-68 806.25,-62 806.25,-56 806.25,-56 806.25,-44 806.25,-44 806.25,-38 812.25,-32 818.25,-32 818.25,-32 877.75,-32 877.75,-32 883.75,-32 889.75,-38 889.75,-44 889.75,-44 889.75,-56 889.75,-56 889.75,-62 883.75,-68 877.75,-68"/>
<text text-anchor="middle" x="848" y="-44.75" font-family="Arial" font-size="15.00">list_helper</text>
</g>
<!-- /lib/models/layers.dart&#45;&gt;/lib/helpers/list_helper.dart -->
<g id="edge14" class="edge">
<title>/lib/models/layers.dart&#45;&gt;/lib/helpers/list_helper.dart</title>
<path fill="none" stroke="#aabbaa" stroke-width="1.3" stroke-opacity="0.533333" d="M619.16,-341.77C646.65,-323.45 687.51,-291.92 710,-254 727.44,-224.6 712.1,-209.76 727,-179 747.66,-136.33 760.74,-129.78 794,-96 800.74,-89.15 808.45,-82.26 815.88,-76"/>
<polygon fill="#aabbaa" fill-opacity="0.533333" stroke="#aabbaa" stroke-width="1.3" stroke-opacity="0.533333" points="818.04,-78.75 823.55,-69.7 813.6,-73.34 818.04,-78.75"/>
</g>
<!-- /lib/models/user_action.dart -->
<g id="node10" class="node">
<title>/lib/models/user_action.dart</title>
<path fill="Lavender" stroke="black" stroke-width="1.3" d="M688.62,-223C688.62,-223 619.38,-223 619.38,-223 613.38,-223 607.38,-217 607.38,-211 607.38,-211 607.38,-199 607.38,-199 607.38,-193 613.38,-187 619.38,-187 619.38,-187 688.62,-187 688.62,-187 694.62,-187 700.62,-193 700.62,-199 700.62,-199 700.62,-211 700.62,-211 700.62,-217 694.62,-223 688.62,-223"/>
<text text-anchor="middle" x="654" y="-199.75" font-family="Arial" font-size="15.00">user_action</text>
</g>
<!-- /lib/models/user_action.dart&#45;&gt;/lib/brushes/brushes.dart -->
<g id="edge17" class="edge">
<title>/lib/models/user_action.dart&#45;&gt;/lib/brushes/brushes.dart</title>
<path fill="none" stroke="#aabbaa" stroke-width="1.3" stroke-opacity="0.533333" d="M648.36,-186.82C647.28,-176.8 646.99,-163.88 647.49,-152.29"/>
<polygon fill="#aabbaa" fill-opacity="0.533333" stroke="#aabbaa" stroke-width="1.3" stroke-opacity="0.533333" points="650.97,-152.62 648.2,-142.4 643.99,-152.12 650.97,-152.62"/>
</g>
<!-- /lib/models/user_action.dart&#45;&gt;/lib/brushes/brushes.dart -->
<g id="edge18" class="edge">
<title>/lib/models/user_action.dart&#45;&gt;/lib/brushes/brushes.dart</title>
<path fill="none" stroke="#aabbaa" stroke-width="1.3" stroke-dasharray="5,2" stroke-opacity="0.533333" d="M659.64,-186.82C660.72,-176.8 661.01,-163.88 660.51,-152.29"/>
<polygon fill="#aabbaa" fill-opacity="0.533333" stroke="#aabbaa" stroke-width="1.3" stroke-opacity="0.533333" points="664.01,-152.12 659.8,-142.4 657.03,-152.62 664.01,-152.12"/>
</g>
<!-- /lib/models/app_model.dart&#45;&gt;/lib/models/layers.dart -->
<g id="edge19" class="edge">
<title>/lib/models/app_model.dart&#45;&gt;/lib/models/layers.dart</title>
<path fill="none" stroke="#aabbaa" stroke-width="1.3" stroke-opacity="0.533333" d="M537.78,-223.19C534.8,-243.58 535.94,-278.28 546,-306 549.35,-315.22 554.66,-324.37 560.55,-332.41"/>
<polygon fill="#aabbaa" fill-opacity="0.533333" stroke="#aabbaa" stroke-width="1.3" stroke-opacity="0.533333" points="557.71,-334.46 566.7,-340.07 563.16,-330.08 557.71,-334.46"/>
</g>
<!-- /lib/models/app_model.dart&#45;&gt;/lib/models/layers.dart -->
<g id="edge20" class="edge">
<title>/lib/models/app_model.dart&#45;&gt;/lib/models/layers.dart</title>
<path fill="none" stroke="#aabbaa" stroke-width="1.3" stroke-dasharray="5,2" stroke-opacity="0.533333" d="M550.6,-223.19C552.8,-243.58 553.94,-278.28 564,-306 567.24,-314.91 572.31,-323.77 577.3,-331.61"/>
<polygon fill="#aabbaa" fill-opacity="0.533333" stroke="#aabbaa" stroke-width="1.3" stroke-opacity="0.533333" points="574.38,-333.53 582.8,-339.96 580.22,-329.68 574.38,-333.53"/>
</g>
<!-- /lib/models/layer.dart&#45;&gt;/lib/models/user_action.dart -->
<g id="edge22" class="edge">
<title>/lib/models/layer.dart&#45;&gt;/lib/models/user_action.dart</title>
<path fill="none" stroke="#aabbaa" stroke-width="1.3" stroke-dasharray="5,2" stroke-opacity="0.533333" d="M604.36,-269.82C612.74,-259.05 623.72,-244.94 633.22,-232.72"/>
<polygon fill="#aabbaa" fill-opacity="0.533333" stroke="#aabbaa" stroke-width="1.3" stroke-opacity="0.533333" points="635.86,-235.03 639.23,-224.99 630.33,-230.73 635.86,-235.03"/>
</g>
<!-- /lib/models/layer.dart&#45;&gt;/lib/models/app_model.dart -->
<g id="edge21" class="edge">
<title>/lib/models/layer.dart&#45;&gt;/lib/models/app_model.dart</title>
<path fill="none" stroke="#aabbaa" stroke-width="1.3" stroke-opacity="0.533333" d="M581.24,-269.82C575.31,-259.37 567.59,-245.77 560.8,-233.81"/>
<polygon fill="#aabbaa" fill-opacity="0.533333" stroke="#aabbaa" stroke-width="1.3" stroke-opacity="0.533333" points="563.85,-232.11 555.87,-225.14 557.77,-235.57 563.85,-232.11"/>
</g>
<!-- /lib/main.dart&#45;&gt;/lib/models/app_model.dart -->
<g id="edge24" class="edge">
<title>/lib/main.dart&#45;&gt;/lib/models/app_model.dart</title>
<path fill="none" stroke="#aabbaa" stroke-width="1.3" stroke-opacity="0.533333" d="M190.51,-573.1C139.88,-556.66 37,-513.71 37,-436 37,-436 37,-436 37,-359 37,-335.5 59.32,-293.39 118,-262 180.88,-228.37 387.11,-213.76 488.17,-208.5"/>
<polygon fill="#aabbaa" fill-opacity="0.533333" stroke="#aabbaa" stroke-width="1.3" stroke-opacity="0.533333" points="488.18,-212.01 497.99,-208.01 487.83,-205.02 488.18,-212.01"/>
</g>
<!-- /lib/main_screen.dart -->
<g id="node17" class="node">
<title>/lib/main_screen.dart</title>
<path fill="Lavender" stroke="black" stroke-width="1.3" d="M534.75,-528C534.75,-528 457.25,-528 457.25,-528 451.25,-528 445.25,-522 445.25,-516 445.25,-516 445.25,-504 445.25,-504 445.25,-498 451.25,-492 457.25,-492 457.25,-492 534.75,-492 534.75,-492 540.75,-492 546.75,-498 546.75,-504 546.75,-504 546.75,-516 546.75,-516 546.75,-522 540.75,-528 534.75,-528"/>
<text text-anchor="middle" x="496" y="-504.75" font-family="Arial" font-size="15.00">main_screen</text>
</g>
<!-- /lib/main.dart&#45;&gt;/lib/main_screen.dart -->
<g id="edge23" class="edge">
<title>/lib/main.dart&#45;&gt;/lib/main_screen.dart</title>
<path fill="none" stroke="#aabbaa" stroke-width="1.3" stroke-opacity="0.533333" d="M245.42,-574.1C288.82,-563.17 374.48,-541.6 433.47,-526.75"/>
<polygon fill="#aabbaa" fill-opacity="0.533333" stroke="#aabbaa" stroke-width="1.3" stroke-opacity="0.533333" points="434.14,-530.19 442.98,-524.35 432.43,-523.4 434.14,-530.19"/>
</g>
<!-- /lib/files/export_download_web.dart -->
<g id="node14" class="node">
<title>/lib/files/export_download_web.dart</title>
<path fill="Lavender" stroke="black" stroke-width="1.3" d="M464.25,-453C464.25,-453 323.75,-453 323.75,-453 317.75,-453 311.75,-447 311.75,-441 311.75,-441 311.75,-429 311.75,-429 311.75,-423 317.75,-417 323.75,-417 323.75,-417 464.25,-417 464.25,-417 470.25,-417 476.25,-423 476.25,-429 476.25,-429 476.25,-441 476.25,-441 476.25,-447 470.25,-453 464.25,-453"/>
<text text-anchor="middle" x="394" y="-429.75" font-family="Arial" font-size="15.00">export_download_web</text>
</g>
<!-- /lib/files/export_download_web.dart&#45;&gt;/lib/panels/share_panel.dart -->
<g id="edge27" class="edge">
<title>/lib/files/export_download_web.dart&#45;&gt;/lib/panels/share_panel.dart</title>
<path fill="none" stroke="#aabbaa" stroke-width="1.3" stroke-opacity="0.533333" d="M476.72,-432.93C556.63,-430.93 671.48,-425.22 713,-409 726.07,-403.89 738.6,-395 748.87,-386.25"/>
<polygon fill="#aabbaa" fill-opacity="0.533333" stroke="#aabbaa" stroke-width="1.3" stroke-opacity="0.533333" points="751.07,-388.97 756.15,-379.67 746.38,-383.78 751.07,-388.97"/>
</g>
<!-- /lib/files/export_download_web.dart&#45;&gt;/lib/models/app_model.dart -->
<g id="edge26" class="edge">
<title>/lib/files/export_download_web.dart&#45;&gt;/lib/models/app_model.dart</title>
<path fill="none" stroke="#aabbaa" stroke-width="1.3" stroke-opacity="0.533333" d="M405.35,-416.86C431.37,-377.58 495.48,-280.77 526.97,-233.23"/>
<polygon fill="#aabbaa" fill-opacity="0.533333" stroke="#aabbaa" stroke-width="1.3" stroke-opacity="0.533333" points="529.83,-235.25 532.43,-224.98 523.99,-231.38 529.83,-235.25"/>
</g>
<!-- /lib/files/file_ora.dart -->
<g id="node15" class="node">
<title>/lib/files/file_ora.dart</title>
<path fill="Lavender" stroke="black" stroke-width="1.3" d="M215.38,-378C215.38,-378 174.62,-378 174.62,-378 168.62,-378 162.62,-372 162.62,-366 162.62,-366 162.62,-354 162.62,-354 162.62,-348 168.62,-342 174.62,-342 174.62,-342 215.38,-342 215.38,-342 221.38,-342 227.38,-348 227.38,-354 227.38,-354 227.38,-366 227.38,-366 227.38,-372 221.38,-378 215.38,-378"/>
<text text-anchor="middle" x="195" y="-354.75" font-family="Arial" font-size="15.00">file_ora</text>
</g>
<!-- /lib/files/export_download_web.dart&#45;&gt;/lib/files/file_ora.dart -->
<g id="edge25" class="edge">
<title>/lib/files/export_download_web.dart&#45;&gt;/lib/files/file_ora.dart</title>
<path fill="none" stroke="#aabbaa" stroke-width="1.3" stroke-opacity="0.533333" d="M346.33,-416.51C313.67,-404.53 270.66,-388.75 238.84,-377.08"/>
<polygon fill="#aabbaa" fill-opacity="0.533333" stroke="#aabbaa" stroke-width="1.3" stroke-opacity="0.533333" points="240.1,-373.82 229.51,-373.66 237.69,-380.39 240.1,-373.82"/>
</g>
<!-- /lib/files/file_ora.dart&#45;&gt;/lib/models/app_model.dart -->
<g id="edge29" class="edge">
<title>/lib/files/file_ora.dart&#45;&gt;/lib/models/app_model.dart</title>
<path fill="none" stroke="#aabbaa" stroke-width="1.3" stroke-opacity="0.533333" d="M222.33,-341.63C256.06,-320.72 315.63,-285.49 370,-262 408.54,-245.34 453.71,-231.01 488.51,-221.02"/>
<polygon fill="#aabbaa" fill-opacity="0.533333" stroke="#aabbaa" stroke-width="1.3" stroke-opacity="0.533333" points="489.32,-224.42 497.99,-218.33 487.41,-217.69 489.32,-224.42"/>
</g>
<!-- /lib/files/file_ora.dart&#45;&gt;/lib/helpers/list_helper.dart -->
<g id="edge28" class="edge">
<title>/lib/files/file_ora.dart&#45;&gt;/lib/helpers/list_helper.dart</title>
<path fill="none" stroke="#aabbaa" stroke-width="1.3" stroke-opacity="0.533333" d="M207.45,-341.84C223.24,-320.98 252.14,-285.65 283,-262 411.44,-163.6 453.88,-148.28 607,-96 669.52,-74.65 744.81,-62.65 794.41,-56.51"/>
<polygon fill="#aabbaa" fill-opacity="0.533333" stroke="#aabbaa" stroke-width="1.3" stroke-opacity="0.533333" points="794.67,-60 804.18,-55.34 793.84,-53.05 794.67,-60"/>
</g>
<!-- /lib/files/export_download_non_web.dart -->
<g id="node16" class="node">
<title>/lib/files/export_download_non_web.dart</title>
<path fill="Lavender" stroke="black" stroke-width="1.3" d="M281.75,-453C281.75,-453 108.25,-453 108.25,-453 102.25,-453 96.25,-447 96.25,-441 96.25,-441 96.25,-429 96.25,-429 96.25,-423 102.25,-417 108.25,-417 108.25,-417 281.75,-417 281.75,-417 287.75,-417 293.75,-423 293.75,-429 293.75,-429 293.75,-441 293.75,-441 293.75,-447 287.75,-453 281.75,-453"/>
<text text-anchor="middle" x="195" y="-429.75" font-family="Arial" font-size="15.00">export_download_non_web</text>
</g>
<!-- /lib/files/export_download_non_web.dart&#45;&gt;/lib/models/app_model.dart -->
<g id="edge31" class="edge">
<title>/lib/files/export_download_non_web.dart&#45;&gt;/lib/models/app_model.dart</title>
<path fill="none" stroke="#aabbaa" stroke-width="1.3" stroke-opacity="0.533333" d="M223.75,-416.64C227.87,-414.1 232.06,-411.5 236,-409 336.02,-345.68 452.3,-268.24 509.5,-229.88"/>
<polygon fill="#aabbaa" fill-opacity="0.533333" stroke="#aabbaa" stroke-width="1.3" stroke-opacity="0.533333" points="511.16,-232.98 517.51,-224.5 507.26,-227.17 511.16,-232.98"/>
</g>
<!-- /lib/files/export_download_non_web.dart&#45;&gt;/lib/files/file_ora.dart -->
<g id="edge30" class="edge">
<title>/lib/files/export_download_non_web.dart&#45;&gt;/lib/files/file_ora.dart</title>
<path fill="none" stroke="#aabbaa" stroke-width="1.3" stroke-opacity="0.533333" d="M195,-416.7C195,-408.76 195,-399.12 195,-390.11"/>
<polygon fill="#aabbaa" fill-opacity="0.533333" stroke="#aabbaa" stroke-width="1.3" stroke-opacity="0.533333" points="198.5,-390.4 195,-380.4 191.5,-390.4 198.5,-390.4"/>
</g>
<!-- /lib/main_screen.dart&#45;&gt;/lib/panels/canvas_panel.dart -->
<g id="edge33" class="edge">
<title>/lib/main_screen.dart&#45;&gt;/lib/panels/canvas_panel.dart</title>
<path fill="none" stroke="#aabbaa" stroke-width="1.3" stroke-opacity="0.533333" d="M546.86,-508.01C661.37,-505.54 930.53,-498.24 944,-484 990.14,-435.22 969.98,-384.74 926,-334 911.69,-317.5 890.75,-307.04 870.28,-300.41"/>
<polygon fill="#aabbaa" fill-opacity="0.533333" stroke="#aabbaa" stroke-width="1.3" stroke-opacity="0.533333" points="871.48,-297.11 860.9,-297.66 869.51,-303.83 871.48,-297.11"/>
</g>
<!-- /lib/main_screen.dart&#45;&gt;/lib/panels/tools_panel.dart -->
<g id="edge35" class="edge">
<title>/lib/main_screen.dart&#45;&gt;/lib/panels/tools_panel.dart</title>
<path fill="none" stroke="#aabbaa" stroke-width="1.3" stroke-opacity="0.533333" d="M547,-509.14C628.38,-508.72 783.57,-505.06 834,-484 845.93,-479.02 857.08,-470.39 866.19,-461.8"/>
<polygon fill="#aabbaa" fill-opacity="0.533333" stroke="#aabbaa" stroke-width="1.3" stroke-opacity="0.533333" points="868.61,-464.33 873.17,-454.77 863.64,-459.4 868.61,-464.33"/>
</g>
<!-- /lib/main_screen.dart&#45;&gt;/lib/panels/layers_panel.dart -->
<g id="edge34" class="edge">
<title>/lib/main_screen.dart&#45;&gt;/lib/panels/layers_panel.dart</title>
<path fill="none" stroke="#aabbaa" stroke-width="1.3" stroke-opacity="0.533333" d="M547.17,-495.61C594.02,-483.35 663.45,-465.19 713.34,-452.13"/>
<polygon fill="#aabbaa" fill-opacity="0.533333" stroke="#aabbaa" stroke-width="1.3" stroke-opacity="0.533333" points="713.93,-455.6 722.72,-449.68 712.16,-448.82 713.93,-455.6"/>
</g>
<!-- /lib/main_screen.dart&#45;&gt;/lib/models/app_model.dart -->
<g id="edge36" class="edge">
<title>/lib/main_screen.dart&#45;&gt;/lib/models/app_model.dart</title>
<path fill="none" stroke="#aabbaa" stroke-width="1.3" stroke-opacity="0.533333" d="M444.94,-507.87C334.18,-505.16 80.75,-497.52 68,-484 45,-459.61 62.22,-359.49 84,-334 136.64,-272.38 376.89,-230.33 488.15,-213.82"/>
<polygon fill="#aabbaa" fill-opacity="0.533333" stroke="#aabbaa" stroke-width="1.3" stroke-opacity="0.533333" points="488.45,-217.31 497.84,-212.4 487.43,-210.38 488.45,-217.31"/>
</g>
<!-- /lib/main_screen.dart&#45;&gt;/lib/files/file_ora.dart -->
<g id="edge32" class="edge">
<title>/lib/main_screen.dart&#45;&gt;/lib/files/file_ora.dart</title>
<path fill="none" stroke="#aabbaa" stroke-width="1.3" stroke-opacity="0.533333" d="M445.06,-509.69C340.85,-510.57 111.04,-509.55 87,-484 66.6,-462.31 67.14,-439.19 87,-417 97.74,-405 145.02,-416.98 159,-409 167.65,-404.06 174.86,-396.11 180.5,-388.09"/>
<polygon fill="#aabbaa" fill-opacity="0.533333" stroke="#aabbaa" stroke-width="1.3" stroke-opacity="0.533333" points="183.37,-390.11 185.74,-379.79 177.45,-386.37 183.37,-390.11"/>
</g>
<!-- /lib/helpers/color_helper.dart -->
<g id="node19" class="node">
<title>/lib/helpers/color_helper.dart</title>
<path fill="Lavender" stroke="black" stroke-width="1.3" d="M888.88,-140C888.88,-140 815.12,-140 815.12,-140 809.12,-140 803.12,-134 803.12,-128 803.12,-128 803.12,-116 803.12,-116 803.12,-110 809.12,-104 815.12,-104 815.12,-104 888.88,-104 888.88,-104 894.88,-104 900.88,-110 900.88,-116 900.88,-116 900.88,-128 900.88,-128 900.88,-134 894.88,-140 888.88,-140"/>
<text text-anchor="middle" x="852" y="-116.75" font-family="Arial" font-size="15.00">color_helper</text>
</g>
<!-- /lib/helpers/color_helper.dart&#45;&gt;/lib/helpers/list_helper.dart -->
<g id="edge37" class="edge">
<title>/lib/helpers/color_helper.dart&#45;&gt;/lib/helpers/list_helper.dart</title>
<path fill="none" stroke="#aabbaa" stroke-width="1.3" stroke-opacity="0.533333" d="M851.01,-103.7C850.6,-96.49 850.11,-87.93 849.65,-79.82"/>
<polygon fill="#aabbaa" fill-opacity="0.533333" stroke="#aabbaa" stroke-width="1.3" stroke-opacity="0.533333" points="853.15,-79.85 849.09,-70.07 846.17,-80.25 853.15,-79.85"/>
</g>
<!-- /lib/widgets/color_picker.dart&#45;&gt;/lib/helpers/list_helper.dart -->
<g id="edge39" class="edge">
<title>/lib/widgets/color_picker.dart&#45;&gt;/lib/helpers/list_helper.dart</title>
<path fill="none" stroke="#aabbaa" stroke-width="1.3" stroke-opacity="0.533333" d="M974.58,-186.58C961.86,-164.05 937.58,-124.34 910,-96 902.8,-88.6 894.26,-81.55 885.87,-75.32"/>
<polygon fill="#aabbaa" fill-opacity="0.533333" stroke="#aabbaa" stroke-width="1.3" stroke-opacity="0.533333" points="887.94,-72.5 877.76,-69.55 883.88,-78.2 887.94,-72.5"/>
</g>
<!-- /lib/widgets/color_picker.dart&#45;&gt;/lib/helpers/color_helper.dart -->
<g id="edge38" class="edge">
<title>/lib/widgets/color_picker.dart&#45;&gt;/lib/helpers/color_helper.dart</title>
<path fill="none" stroke="#aabbaa" stroke-width="1.3" stroke-opacity="0.533333" d="M955.68,-186.62C936.63,-174.93 911.28,-159.37 890.41,-146.57"/>
<polygon fill="#aabbaa" fill-opacity="0.533333" stroke="#aabbaa" stroke-width="1.3" stroke-opacity="0.533333" points="892.3,-143.62 881.95,-141.38 888.64,-149.59 892.3,-143.62"/>
</g>
</g>
</svg>
