<?xml version="1.0" encoding="UTF-8" standalone="no"?>
<!DOCTYPE svg PUBLIC "-//W3C//DTD SVG 1.1//EN"
 "http://www.w3.org/Graphics/SVG/1.1/DTD/svg11.dtd">
<!-- Generated by graphviz version 12.2.1 (20241206.2353)
 -->
<!-- Pages: 1 -->
<svg width="627pt" height="606pt"
 viewBox="0.00 0.00 627.00 606.00" xmlns="http://www.w3.org/2000/svg" xmlns:xlink="http://www.w3.org/1999/xlink">
<g id="graph0" class="graph" transform="scale(1 1) rotate(0) translate(4 602)">
<polygon fill="white" stroke="none" points="-4,4 -4,-602 623,-602 623,4 -4,4"/>
<g id="clust1" class="cluster">
<title>cluster~</title>
<path fill="none" stroke="lightgray" stroke-width="2.6" d="M20,-8C20,-8 599,-8 599,-8 605,-8 611,-14 611,-20 611,-20 611,-578 611,-578 611,-584 605,-590 599,-590 599,-590 20,-590 20,-590 14,-590 8,-584 8,-578 8,-578 8,-20 8,-20 8,-14 14,-8 20,-8"/>
<text text-anchor="middle" x="309.5" y="-573.65" font-family="Arial Black" font-size="13.00">fpaint</text>
</g>
<g id="clust2" class="cluster">
<title>cluster~/test</title>
<path fill="none" stroke="lightgray" stroke-width="2.6" d="M80,-484C80,-484 312,-484 312,-484 318,-484 324,-490 324,-496 324,-496 324,-547 324,-547 324,-553 318,-559 312,-559 312,-559 80,-559 80,-559 74,-559 68,-553 68,-547 68,-547 68,-496 68,-496 68,-490 74,-484 80,-484"/>
<text text-anchor="middle" x="196" y="-542.65" font-family="Arial Black" font-size="13.00">test</text>
</g>
<g id="clust3" class="cluster">
<title>cluster~/lib</title>
<path fill="none" stroke="lightgray" stroke-width="2.6" d="M28,-16C28,-16 591,-16 591,-16 597,-16 603,-22 603,-28 603,-28 603,-464 603,-464 603,-470 597,-476 591,-476 591,-476 28,-476 28,-476 22,-476 16,-470 16,-464 16,-464 16,-28 16,-28 16,-22 22,-16 28,-16"/>
<text text-anchor="middle" x="309.5" y="-459.65" font-family="Arial Black" font-size="13.00">lib</text>
</g>
<g id="clust4" class="cluster">
<title>cluster~/lib/brushes</title>
<path fill="none" stroke="lightgray" stroke-width="2.6" d="M48,-96C48,-96 110,-96 110,-96 116,-96 122,-102 122,-108 122,-108 122,-159 122,-159 122,-165 116,-171 110,-171 110,-171 48,-171 48,-171 42,-171 36,-165 36,-159 36,-159 36,-108 36,-108 36,-102 42,-96 48,-96"/>
<text text-anchor="middle" x="79" y="-154.65" font-family="Arial Black" font-size="13.00">brushes</text>
</g>
<g id="clust5" class="cluster">
<title>cluster~/lib/panels</title>
<path fill="none" stroke="lightgray" stroke-width="2.6" d="M381,-179C381,-179 583,-179 583,-179 589,-179 595,-185 595,-191 595,-191 595,-317 595,-317 595,-323 589,-329 583,-329 583,-329 381,-329 381,-329 375,-329 369,-323 369,-317 369,-317 369,-191 369,-191 369,-185 375,-179 381,-179"/>
<text text-anchor="middle" x="482" y="-312.65" font-family="Arial Black" font-size="13.00">panels</text>
</g>
<g id="clust6" class="cluster">
<title>cluster~/lib/models</title>
<path fill="none" stroke="lightgray" stroke-width="2.6" d="M36,-179C36,-179 229,-179 229,-179 235,-179 241,-185 241,-191 241,-191 241,-317 241,-317 241,-323 235,-329 229,-329 229,-329 36,-329 36,-329 30,-329 24,-323 24,-317 24,-317 24,-191 24,-191 24,-185 30,-179 36,-179"/>
<text text-anchor="middle" x="132.5" y="-312.65" font-family="Arial Black" font-size="13.00">models</text>
</g>
<g id="clust7" class="cluster">
<title>cluster~/lib/helpers</title>
<path fill="none" stroke="lightgray" stroke-width="2.6" d="M226,-24C226,-24 316,-24 316,-24 322,-24 328,-30 328,-36 328,-36 328,-159 328,-159 328,-165 322,-171 316,-171 316,-171 226,-171 226,-171 220,-171 214,-165 214,-159 214,-159 214,-36 214,-36 214,-30 220,-24 226,-24"/>
<text text-anchor="middle" x="271" y="-154.65" font-family="Arial Black" font-size="13.00">helpers</text>
</g>
<g id="clust8" class="cluster">
<title>cluster~/lib/widgets</title>
<path fill="none" stroke="lightgray" stroke-width="2.6" d="M261,-179C261,-179 349,-179 349,-179 355,-179 361,-185 361,-191 361,-191 361,-242 361,-242 361,-248 355,-254 349,-254 349,-254 261,-254 261,-254 255,-254 249,-248 249,-242 249,-242 249,-191 249,-191 249,-185 255,-179 261,-179"/>
<text text-anchor="middle" x="305" y="-237.65" font-family="Arial Black" font-size="13.00">widgets</text>
</g>
<!-- /test/paint_model_test.dart -->
<g id="node1" class="node">
<title>/test/paint_model_test.dart</title>
<path fill="Lavender" stroke="black" stroke-width="1.3" d="M194,-528C194,-528 88,-528 88,-528 82,-528 76,-522 76,-516 76,-516 76,-504 76,-504 76,-498 82,-492 88,-492 88,-492 194,-492 194,-492 200,-492 206,-498 206,-504 206,-504 206,-516 206,-516 206,-522 200,-528 194,-528"/>
<text text-anchor="middle" x="141" y="-504.75" font-family="Arial" font-size="15.00">paint_model_test</text>
</g>
<!-- /lib/models/app_model.dart -->
<g id="node9" class="node">
<title>/lib/models/app_model.dart</title>
<path fill="Lavender" stroke="black" stroke-width="1.3" d="M220.75,-223C220.75,-223 155.25,-223 155.25,-223 149.25,-223 143.25,-217 143.25,-211 143.25,-211 143.25,-199 143.25,-199 143.25,-193 149.25,-187 155.25,-187 155.25,-187 220.75,-187 220.75,-187 226.75,-187 232.75,-193 232.75,-199 232.75,-199 232.75,-211 232.75,-211 232.75,-217 226.75,-223 220.75,-223"/>
<text text-anchor="middle" x="188" y="-199.75" font-family="Arial" font-size="15.00">app_model</text>
</g>
<!-- /test/paint_model_test.dart&#45;&gt;/lib/models/app_model.dart -->
<g id="edge1" class="edge">
<title>/test/paint_model_test.dart&#45;&gt;/lib/models/app_model.dart</title>
<path fill="none" stroke="#aabbaa" stroke-width="1.3" stroke-opacity="0.533333" d="M138.45,-491.63C133.09,-450.44 123.3,-344.15 151,-262 154.43,-251.84 160.17,-241.75 166.12,-232.99"/>
<polygon fill="#aabbaa" fill-opacity="0.533333" stroke="#aabbaa" stroke-width="1.3" stroke-opacity="0.533333" points="168.88,-235.14 171.92,-224.99 163.22,-231.03 168.88,-235.14"/>
</g>
<!-- /test/widget_test.dart -->
<g id="node2" class="node">
<title>/test/widget_test.dart</title>
<path fill="Lavender" stroke="black" stroke-width="1.3" d="M303.88,-528C303.88,-528 236.12,-528 236.12,-528 230.12,-528 224.12,-522 224.12,-516 224.12,-516 224.12,-504 224.12,-504 224.12,-498 230.12,-492 236.12,-492 236.12,-492 303.88,-492 303.88,-492 309.88,-492 315.88,-498 315.88,-504 315.88,-504 315.88,-516 315.88,-516 315.88,-522 309.88,-528 303.88,-528"/>
<text text-anchor="middle" x="270" y="-504.75" font-family="Arial" font-size="15.00">widget_test</text>
</g>
<!-- /lib/main.dart -->
<g id="node10" class="node">
<title>/lib/main.dart</title>
<path fill="Lavender" stroke="black" stroke-width="1.3" d="M285,-445C285,-445 255,-445 255,-445 249,-445 243,-439 243,-433 243,-433 243,-421 243,-421 243,-415 249,-409 255,-409 255,-409 285,-409 285,-409 291,-409 297,-415 297,-421 297,-421 297,-433 297,-433 297,-439 291,-445 285,-445"/>
<text text-anchor="middle" x="270" y="-421.75" font-family="Arial" font-size="15.00">main</text>
</g>
<!-- /test/widget_test.dart&#45;&gt;/lib/main.dart -->
<g id="edge2" class="edge">
<title>/test/widget_test.dart&#45;&gt;/lib/main.dart</title>
<path fill="none" stroke="#aabbaa" stroke-width="1.3" stroke-opacity="0.533333" d="M270,-491.82C270,-481.8 270,-468.88 270,-457.29"/>
<polygon fill="#aabbaa" fill-opacity="0.533333" stroke="#aabbaa" stroke-width="1.3" stroke-opacity="0.533333" points="273.5,-457.4 270,-447.4 266.5,-457.4 273.5,-457.4"/>
</g>
<!-- /lib/brushes/brushes.dart -->
<g id="node3" class="node">
<title>/lib/brushes/brushes.dart</title>
<path fill="Lavender" stroke="black" stroke-width="1.3" d="M101.62,-140C101.62,-140 56.38,-140 56.38,-140 50.38,-140 44.38,-134 44.38,-128 44.38,-128 44.38,-116 44.38,-116 44.38,-110 50.38,-104 56.38,-104 56.38,-104 101.62,-104 101.62,-104 107.62,-104 113.62,-110 113.62,-116 113.62,-116 113.62,-128 113.62,-128 113.62,-134 107.62,-140 101.62,-140"/>
<text text-anchor="middle" x="79" y="-116.75" font-family="Arial" font-size="15.00">brushes</text>
</g>
<!-- /lib/brushes/brushes.dart&#45;&gt;/lib/models/app_model.dart -->
<g id="edge3" class="edge">
<title>/lib/brushes/brushes.dart&#45;&gt;/lib/models/app_model.dart</title>
<path fill="none" stroke="#aabbaa" stroke-width="1.3" stroke-opacity="0.533333" d="M102.34,-140.35C117.71,-151.77 138.05,-166.88 155.05,-179.52"/>
<polygon fill="#aabbaa" fill-opacity="0.533333" stroke="#aabbaa" stroke-width="1.3" stroke-opacity="0.533333" points="152.92,-182.29 163.04,-185.45 157.1,-176.68 152.92,-182.29"/>
</g>
<!-- /lib/panels/tools_panel.dart -->
<g id="node4" class="node">
<title>/lib/panels/tools_panel.dart</title>
<path fill="Lavender" stroke="black" stroke-width="1.3" d="M574.88,-298C574.88,-298 507.12,-298 507.12,-298 501.12,-298 495.12,-292 495.12,-286 495.12,-286 495.12,-274 495.12,-274 495.12,-268 501.12,-262 507.12,-262 507.12,-262 574.88,-262 574.88,-262 580.88,-262 586.88,-268 586.88,-274 586.88,-274 586.88,-286 586.88,-286 586.88,-292 580.88,-298 574.88,-298"/>
<text text-anchor="middle" x="541" y="-274.75" font-family="Arial" font-size="15.00">tools_panel</text>
</g>
<!-- /lib/panels/tool.dart -->
<g id="node6" class="node">
<title>/lib/panels/tool.dart</title>
<path fill="Lavender" stroke="black" stroke-width="1.3" d="M556,-223C556,-223 526,-223 526,-223 520,-223 514,-217 514,-211 514,-211 514,-199 514,-199 514,-193 520,-187 526,-187 526,-187 556,-187 556,-187 562,-187 568,-193 568,-199 568,-199 568,-211 568,-211 568,-217 562,-223 556,-223"/>
<text text-anchor="middle" x="541" y="-199.75" font-family="Arial" font-size="15.00">tool</text>
</g>
<!-- /lib/panels/tools_panel.dart&#45;&gt;/lib/panels/tool.dart -->
<g id="edge5" class="edge">
<title>/lib/panels/tools_panel.dart&#45;&gt;/lib/panels/tool.dart</title>
<path fill="none" stroke="#aabbaa" stroke-width="1.3" stroke-opacity="0.533333" d="M541,-261.7C541,-253.76 541,-244.12 541,-235.11"/>
<polygon fill="#aabbaa" fill-opacity="0.533333" stroke="#aabbaa" stroke-width="1.3" stroke-opacity="0.533333" points="544.5,-235.4 541,-225.4 537.5,-235.4 544.5,-235.4"/>
</g>
<!-- /lib/panels/tools_panel.dart&#45;&gt;/lib/models/app_model.dart -->
<g id="edge4" class="edge">
<title>/lib/panels/tools_panel.dart&#45;&gt;/lib/models/app_model.dart</title>
<path fill="none" stroke="#aabbaa" stroke-width="1.3" stroke-opacity="0.533333" d="M494.7,-263.74C491.77,-263.07 488.86,-262.48 486,-262 459.58,-257.56 270.01,-263.6 245,-254 232.37,-249.15 220.55,-240.25 210.98,-231.42"/>
<polygon fill="#aabbaa" fill-opacity="0.533333" stroke="#aabbaa" stroke-width="1.3" stroke-opacity="0.533333" points="213.52,-229.02 203.94,-224.5 208.61,-234.01 213.52,-229.02"/>
</g>
<!-- /lib/widgets/color_picker.dart -->
<g id="node15" class="node">
<title>/lib/widgets/color_picker.dart</title>
<path fill="Lavender" stroke="black" stroke-width="1.3" d="M341.12,-223C341.12,-223 268.88,-223 268.88,-223 262.88,-223 256.88,-217 256.88,-211 256.88,-211 256.88,-199 256.88,-199 256.88,-193 262.88,-187 268.88,-187 268.88,-187 341.12,-187 341.12,-187 347.12,-187 353.12,-193 353.12,-199 353.12,-199 353.12,-211 353.12,-211 353.12,-217 347.12,-223 341.12,-223"/>
<text text-anchor="middle" x="305" y="-199.75" font-family="Arial" font-size="15.00">color_picker</text>
</g>
<!-- /lib/panels/tools_panel.dart&#45;&gt;/lib/widgets/color_picker.dart -->
<g id="edge6" class="edge">
<title>/lib/panels/tools_panel.dart&#45;&gt;/lib/widgets/color_picker.dart</title>
<path fill="none" stroke="#aabbaa" stroke-width="1.3" stroke-opacity="0.533333" d="M494.68,-263.85C491.76,-263.15 488.85,-262.53 486,-262 459.5,-257.1 390.12,-263.75 365,-254 352.05,-248.97 339.71,-240.09 329.62,-231.33"/>
<polygon fill="#aabbaa" fill-opacity="0.533333" stroke="#aabbaa" stroke-width="1.3" stroke-opacity="0.533333" points="332.22,-228.96 322.49,-224.76 327.47,-234.11 332.22,-228.96"/>
</g>
<!-- /lib/panels/layers_panel.dart -->
<g id="node5" class="node">
<title>/lib/panels/layers_panel.dart</title>
<path fill="Lavender" stroke="black" stroke-width="1.3" d="M465,-298C465,-298 389,-298 389,-298 383,-298 377,-292 377,-286 377,-286 377,-274 377,-274 377,-268 383,-262 389,-262 389,-262 465,-262 465,-262 471,-262 477,-268 477,-274 477,-274 477,-286 477,-286 477,-292 471,-298 465,-298"/>
<text text-anchor="middle" x="427" y="-274.75" font-family="Arial" font-size="15.00">layers_panel</text>
</g>
<!-- /lib/panels/layers_panel.dart&#45;&gt;/lib/models/app_model.dart -->
<g id="edge7" class="edge">
<title>/lib/panels/layers_panel.dart&#45;&gt;/lib/models/app_model.dart</title>
<path fill="none" stroke="#aabbaa" stroke-width="1.3" stroke-opacity="0.533333" d="M376.51,-262.7C375.33,-262.45 374.16,-262.22 373,-262 344.98,-256.79 271.45,-264.6 245,-254 232.62,-249.04 220.97,-240.29 211.47,-231.61"/>
<polygon fill="#aabbaa" fill-opacity="0.533333" stroke="#aabbaa" stroke-width="1.3" stroke-opacity="0.533333" points="214.09,-229.27 204.48,-224.81 209.2,-234.29 214.09,-229.27"/>
</g>
<!-- /lib/models/layers.dart -->
<g id="node7" class="node">
<title>/lib/models/layers.dart</title>
<path fill="Lavender" stroke="black" stroke-width="1.3" d="M203.88,-298C203.88,-298 172.12,-298 172.12,-298 166.12,-298 160.12,-292 160.12,-286 160.12,-286 160.12,-274 160.12,-274 160.12,-268 166.12,-262 172.12,-262 172.12,-262 203.88,-262 203.88,-262 209.88,-262 215.88,-268 215.88,-274 215.88,-274 215.88,-286 215.88,-286 215.88,-292 209.88,-298 203.88,-298"/>
<text text-anchor="middle" x="188" y="-274.75" font-family="Arial" font-size="15.00">layers</text>
</g>
<!-- /lib/models/user_action.dart -->
<g id="node8" class="node">
<title>/lib/models/user_action.dart</title>
<path fill="Lavender" stroke="black" stroke-width="1.3" d="M113.62,-223C113.62,-223 44.38,-223 44.38,-223 38.38,-223 32.38,-217 32.38,-211 32.38,-211 32.38,-199 32.38,-199 32.38,-193 38.38,-187 44.38,-187 44.38,-187 113.62,-187 113.62,-187 119.62,-187 125.62,-193 125.62,-199 125.62,-199 125.62,-211 125.62,-211 125.62,-217 119.62,-223 113.62,-223"/>
<text text-anchor="middle" x="79" y="-199.75" font-family="Arial" font-size="15.00">user_action</text>
</g>
<!-- /lib/models/layers.dart&#45;&gt;/lib/models/user_action.dart -->
<g id="edge9" class="edge">
<title>/lib/models/layers.dart&#45;&gt;/lib/models/user_action.dart</title>
<path fill="none" stroke="#aabbaa" stroke-width="1.3" stroke-dasharray="5,2" stroke-opacity="0.533333" d="M159.73,-267.74C151.19,-263.86 141.97,-259.17 134,-254 123.9,-247.45 113.72,-239.15 104.91,-231.3"/>
<polygon fill="#aabbaa" fill-opacity="0.533333" stroke="#aabbaa" stroke-width="1.3" stroke-opacity="0.533333" points="107.47,-228.9 97.74,-224.71 102.74,-234.05 107.47,-228.9"/>
</g>
<!-- /lib/models/layers.dart&#45;&gt;/lib/models/app_model.dart -->
<g id="edge8" class="edge">
<title>/lib/models/layers.dart&#45;&gt;/lib/models/app_model.dart</title>
<path fill="none" stroke="#aabbaa" stroke-width="1.3" stroke-opacity="0.533333" d="M176.32,-261.7C174.66,-253.76 174.13,-244.12 174.75,-235.11"/>
<polygon fill="#aabbaa" fill-opacity="0.533333" stroke="#aabbaa" stroke-width="1.3" stroke-opacity="0.533333" points="178.19,-235.75 176.04,-225.38 171.25,-234.83 178.19,-235.75"/>
</g>
<!-- /lib/models/user_action.dart&#45;&gt;/lib/brushes/brushes.dart -->
<g id="edge10" class="edge">
<title>/lib/models/user_action.dart&#45;&gt;/lib/brushes/brushes.dart</title>
<path fill="none" stroke="#aabbaa" stroke-width="1.3" stroke-opacity="0.533333" d="M73.36,-186.82C72.28,-176.8 71.99,-163.88 72.49,-152.29"/>
<polygon fill="#aabbaa" fill-opacity="0.533333" stroke="#aabbaa" stroke-width="1.3" stroke-opacity="0.533333" points="75.97,-152.62 73.2,-142.4 68.99,-152.12 75.97,-152.62"/>
</g>
<!-- /lib/models/user_action.dart&#45;&gt;/lib/brushes/brushes.dart -->
<g id="edge11" class="edge">
<title>/lib/models/user_action.dart&#45;&gt;/lib/brushes/brushes.dart</title>
<path fill="none" stroke="#aabbaa" stroke-width="1.3" stroke-dasharray="5,2" stroke-opacity="0.533333" d="M84.64,-186.82C85.72,-176.8 86.01,-163.88 85.51,-152.29"/>
<polygon fill="#aabbaa" fill-opacity="0.533333" stroke="#aabbaa" stroke-width="1.3" stroke-opacity="0.533333" points="89.01,-152.12 84.8,-142.4 82.03,-152.62 89.01,-152.12"/>
</g>
<!-- /lib/models/app_model.dart&#45;&gt;/lib/models/layers.dart -->
<g id="edge12" class="edge">
<title>/lib/models/app_model.dart&#45;&gt;/lib/models/layers.dart</title>
<path fill="none" stroke="#aabbaa" stroke-width="1.3" stroke-opacity="0.533333" d="M188,-223.43C188,-231.39 188,-241.03 188,-250.04"/>
<polygon fill="#aabbaa" fill-opacity="0.533333" stroke="#aabbaa" stroke-width="1.3" stroke-opacity="0.533333" points="184.5,-249.73 188,-259.73 191.5,-249.73 184.5,-249.73"/>
</g>
<!-- /lib/models/app_model.dart&#45;&gt;/lib/models/layers.dart -->
<g id="edge13" class="edge">
<title>/lib/models/app_model.dart&#45;&gt;/lib/models/layers.dart</title>
<path fill="none" stroke="#aabbaa" stroke-width="1.3" stroke-dasharray="5,2" stroke-opacity="0.533333" d="M199.71,-223.43C201.36,-231.39 201.87,-241.03 201.24,-250.04"/>
<polygon fill="#aabbaa" fill-opacity="0.533333" stroke="#aabbaa" stroke-width="1.3" stroke-opacity="0.533333" points="197.8,-249.37 199.94,-259.75 204.74,-250.3 197.8,-249.37"/>
</g>
<!-- /lib/main.dart&#45;&gt;/lib/models/app_model.dart -->
<g id="edge15" class="edge">
<title>/lib/main.dart&#45;&gt;/lib/models/app_model.dart</title>
<path fill="none" stroke="#aabbaa" stroke-width="1.3" stroke-opacity="0.533333" d="M265.59,-408.71C255.5,-369.37 231.14,-275.54 225,-262 220.5,-252.08 214.36,-241.95 208.37,-233.07"/>
<polygon fill="#aabbaa" fill-opacity="0.533333" stroke="#aabbaa" stroke-width="1.3" stroke-opacity="0.533333" points="211.26,-231.1 202.65,-224.93 205.53,-235.12 211.26,-231.1"/>
</g>
<!-- /lib/main_screen.dart -->
<g id="node12" class="node">
<title>/lib/main_screen.dart</title>
<path fill="Lavender" stroke="black" stroke-width="1.3" d="M375.75,-373C375.75,-373 298.25,-373 298.25,-373 292.25,-373 286.25,-367 286.25,-361 286.25,-361 286.25,-349 286.25,-349 286.25,-343 292.25,-337 298.25,-337 298.25,-337 375.75,-337 375.75,-337 381.75,-337 387.75,-343 387.75,-349 387.75,-349 387.75,-361 387.75,-361 387.75,-367 381.75,-373 375.75,-373"/>
<text text-anchor="middle" x="337" y="-349.75" font-family="Arial" font-size="15.00">main_screen</text>
</g>
<!-- /lib/main.dart&#45;&gt;/lib/main_screen.dart -->
<g id="edge14" class="edge">
<title>/lib/main.dart&#45;&gt;/lib/main_screen.dart</title>
<path fill="none" stroke="#aabbaa" stroke-width="1.3" stroke-opacity="0.533333" d="M286.56,-408.7C294.35,-400.56 303.8,-390.69 312.4,-381.7"/>
<polygon fill="#aabbaa" fill-opacity="0.533333" stroke="#aabbaa" stroke-width="1.3" stroke-opacity="0.533333" points="314.88,-384.17 319.27,-374.53 309.83,-379.33 314.88,-384.17"/>
</g>
<!-- /lib/canvas.dart -->
<g id="node11" class="node">
<title>/lib/canvas.dart</title>
<path fill="Lavender" stroke="black" stroke-width="1.3" d="M305.62,-298C305.62,-298 266.38,-298 266.38,-298 260.38,-298 254.38,-292 254.38,-286 254.38,-286 254.38,-274 254.38,-274 254.38,-268 260.38,-262 266.38,-262 266.38,-262 305.62,-262 305.62,-262 311.62,-262 317.62,-268 317.62,-274 317.62,-274 317.62,-286 317.62,-286 317.62,-292 311.62,-298 305.62,-298"/>
<text text-anchor="middle" x="286" y="-274.75" font-family="Arial" font-size="15.00">canvas</text>
</g>
<!-- /lib/canvas.dart&#45;&gt;/lib/models/app_model.dart -->
<g id="edge16" class="edge">
<title>/lib/canvas.dart&#45;&gt;/lib/models/app_model.dart</title>
<path fill="none" stroke="#aabbaa" stroke-width="1.3" stroke-opacity="0.533333" d="M256.53,-261.78C252.59,-259.26 248.65,-256.63 245,-254 235.26,-246.99 225.09,-238.76 216.09,-231.11"/>
<polygon fill="#aabbaa" fill-opacity="0.533333" stroke="#aabbaa" stroke-width="1.3" stroke-opacity="0.533333" points="218.53,-228.6 208.68,-224.71 213.96,-233.9 218.53,-228.6"/>
</g>
<!-- /lib/main_screen.dart&#45;&gt;/lib/panels/tools_panel.dart -->
<g id="edge19" class="edge">
<title>/lib/main_screen.dart&#45;&gt;/lib/panels/tools_panel.dart</title>
<path fill="none" stroke="#aabbaa" stroke-width="1.3" stroke-opacity="0.533333" d="M388.04,-352.33C417.82,-349.7 455.41,-343.47 486,-329 497.51,-323.55 508.46,-314.99 517.52,-306.59"/>
<polygon fill="#aabbaa" fill-opacity="0.533333" stroke="#aabbaa" stroke-width="1.3" stroke-opacity="0.533333" points="519.8,-309.25 524.49,-299.74 514.9,-304.25 519.8,-309.25"/>
</g>
<!-- /lib/main_screen.dart&#45;&gt;/lib/panels/layers_panel.dart -->
<g id="edge18" class="edge">
<title>/lib/main_screen.dart&#45;&gt;/lib/panels/layers_panel.dart</title>
<path fill="none" stroke="#aabbaa" stroke-width="1.3" stroke-opacity="0.533333" d="M362.84,-336.61C366.3,-334.12 369.77,-331.54 373,-329 381.98,-321.94 391.4,-313.82 399.81,-306.3"/>
<polygon fill="#aabbaa" fill-opacity="0.533333" stroke="#aabbaa" stroke-width="1.3" stroke-opacity="0.533333" points="401.96,-309.08 407.02,-299.77 397.26,-303.89 401.96,-309.08"/>
</g>
<!-- /lib/main_screen.dart&#45;&gt;/lib/models/app_model.dart -->
<g id="edge20" class="edge">
<title>/lib/main_screen.dart&#45;&gt;/lib/models/app_model.dart</title>
<path fill="none" stroke="#aabbaa" stroke-width="1.3" stroke-opacity="0.533333" d="M340.89,-336.7C344.43,-315.88 346.53,-281.32 327,-262 313.98,-249.13 261.87,-261.11 245,-254 232.71,-248.83 221.08,-240.04 211.57,-231.38"/>
<polygon fill="#aabbaa" fill-opacity="0.533333" stroke="#aabbaa" stroke-width="1.3" stroke-opacity="0.533333" points="214.18,-229.05 204.56,-224.62 209.32,-234.08 214.18,-229.05"/>
</g>
<!-- /lib/main_screen.dart&#45;&gt;/lib/canvas.dart -->
<g id="edge17" class="edge">
<title>/lib/main_screen.dart&#45;&gt;/lib/canvas.dart</title>
<path fill="none" stroke="#aabbaa" stroke-width="1.3" stroke-opacity="0.533333" d="M324.91,-336.7C318.92,-328.13 311.55,-317.58 304.84,-307.97"/>
<polygon fill="#aabbaa" fill-opacity="0.533333" stroke="#aabbaa" stroke-width="1.3" stroke-opacity="0.533333" points="307.9,-306.23 299.3,-300.04 302.16,-310.24 307.9,-306.23"/>
</g>
<!-- /lib/helpers/list_helper.dart -->
<g id="node13" class="node">
<title>/lib/helpers/list_helper.dart</title>
<path fill="Lavender" stroke="black" stroke-width="1.3" d="M303.75,-68C303.75,-68 244.25,-68 244.25,-68 238.25,-68 232.25,-62 232.25,-56 232.25,-56 232.25,-44 232.25,-44 232.25,-38 238.25,-32 244.25,-32 244.25,-32 303.75,-32 303.75,-32 309.75,-32 315.75,-38 315.75,-44 315.75,-44 315.75,-56 315.75,-56 315.75,-62 309.75,-68 303.75,-68"/>
<text text-anchor="middle" x="274" y="-44.75" font-family="Arial" font-size="15.00">list_helper</text>
</g>
<!-- /lib/helpers/color_helper.dart -->
<g id="node14" class="node">
<title>/lib/helpers/color_helper.dart</title>
<path fill="Lavender" stroke="black" stroke-width="1.3" d="M307.88,-140C307.88,-140 234.12,-140 234.12,-140 228.12,-140 222.12,-134 222.12,-128 222.12,-128 222.12,-116 222.12,-116 222.12,-110 228.12,-104 234.12,-104 234.12,-104 307.88,-104 307.88,-104 313.88,-104 319.88,-110 319.88,-116 319.88,-116 319.88,-128 319.88,-128 319.88,-134 313.88,-140 307.88,-140"/>
<text text-anchor="middle" x="271" y="-116.75" font-family="Arial" font-size="15.00">color_helper</text>
</g>
<!-- /lib/helpers/color_helper.dart&#45;&gt;/lib/helpers/list_helper.dart -->
<g id="edge21" class="edge">
<title>/lib/helpers/color_helper.dart&#45;&gt;/lib/helpers/list_helper.dart</title>
<path fill="none" stroke="#aabbaa" stroke-width="1.3" stroke-opacity="0.533333" d="M271.74,-103.7C272.05,-96.49 272.42,-87.93 272.76,-79.82"/>
<polygon fill="#aabbaa" fill-opacity="0.533333" stroke="#aabbaa" stroke-width="1.3" stroke-opacity="0.533333" points="276.25,-80.21 273.18,-70.07 269.26,-79.91 276.25,-80.21"/>
</g>
<!-- /lib/widgets/color_picker.dart&#45;&gt;/lib/helpers/list_helper.dart -->
<g id="edge23" class="edge">
<title>/lib/widgets/color_picker.dart&#45;&gt;/lib/helpers/list_helper.dart</title>
<path fill="none" stroke="#aabbaa" stroke-width="1.3" stroke-opacity="0.533333" d="M320.7,-186.64C324.1,-181.9 327.2,-176.52 329,-171 339.31,-139.3 343.27,-126.12 329,-96 325.37,-88.34 319.72,-81.54 313.4,-75.7"/>
<polygon fill="#aabbaa" fill-opacity="0.533333" stroke="#aabbaa" stroke-width="1.3" stroke-opacity="0.533333" points="315.95,-73.27 306.01,-69.6 311.49,-78.67 315.95,-73.27"/>
</g>
<!-- /lib/widgets/color_picker.dart&#45;&gt;/lib/helpers/color_helper.dart -->
<g id="edge22" class="edge">
<title>/lib/widgets/color_picker.dart&#45;&gt;/lib/helpers/color_helper.dart</title>
<path fill="none" stroke="#aabbaa" stroke-width="1.3" stroke-opacity="0.533333" d="M297.79,-186.82C293.45,-176.48 287.81,-163.05 282.83,-151.18"/>
<polygon fill="#aabbaa" fill-opacity="0.533333" stroke="#aabbaa" stroke-width="1.3" stroke-opacity="0.533333" points="286.18,-150.11 279.08,-142.25 279.72,-152.82 286.18,-150.11"/>
</g>
</g>
</svg>
