<?xml version="1.0" encoding="UTF-8" standalone="no"?>
<svg height="24" viewBox="0 -960 960 960" width="24" version="1.1" xmlns="http://www.w3.org/2000/svg"
   xmlns:svg="http://www.w3.org/2000/svg">
   <defs id="defs1" />
   <path
      d="m 840,-520 h -80 v -240 h -80 v 120 H 280 v -120 h -80 v 560 h 200 v 80 H 200 c -22,0 -40.83333,-7.83333 -56.5,-23.5 C 127.83333,-159.16667 120,-178 120,-200 v -560 c 0,-22 7.83333,-40.83333 23.5,-56.5 15.66667,-15.66667 34.5,-23.5 56.5,-23.5 h 167 c 7.33333,-23.33333 21.66667,-42.5 43,-57.5 21.33333,-15 44.66667,-22.5 70,-22.5 26.66667,0 50.5,7.5 71.5,22.5 21,15 35.16667,34.16667 42.5,57.5 h 166 c 22,0 40.83333,7.83333 56.5,23.5 15.66667,15.66667 23.5,34.5 23.5,56.5 z M 508.5,-771.5 c 7.66667,-7.66667 11.5,-17.16667 11.5,-28.5 0,-11.33333 -3.83333,-20.83333 -11.5,-28.5 -7.66667,-7.66667 -17.16667,-11.5 -28.5,-11.5 -11.33333,0 -20.83333,3.83333 -28.5,11.5 -7.66667,7.66667 -11.5,17.16667 -11.5,28.5 0,11.33333 3.83333,20.83333 11.5,28.5 7.66667,7.66667 17.16667,11.5 28.5,11.5 11.33333,0 20.83333,-3.83333 28.5,-11.5 z"
      id="path1" />
   <path d="m 584.30726,-171.87348 56,-57 -63,-63 h 247 v -80 h -247 l 63,-64 -56,-56 -160,160 z" id="path1-9" />
</svg>