<svg xmlns="http://www.w3.org/2000/svg" fill="none" viewBox="0 0 24 24">
   <path fill="#000" d="m5.81 13.7-1.36-.58c.09-.76 2.51-2.06 2.48-2.84C6.9 9.52 5.7 8.52 5.55 7.8l1.26-.31c.05.56 1.88 2.8 1.67 3.4-.22.61-2.57 2.17-2.67 2.8zm-.62 6.08c-.53-.52-2.23-1.47-2.64-2.1-.41-.63 1.07-2.98 1.32-3.65l1.18.42c-.18.6-1.44 2.07-1.1 2.6.33.54 1.87 1.2 2.32 1.65zM6.4 6.52l-1.4.3c-.4-1.1-1.43-2.41-.4-3.93.47-.7 3.73-.75 4.53-.85l.15 1.5c-.68.09-2.84-.3-3.44.72-.43.73.33.71.57 2.26Zm6.4 15.35c-.63 0-1.84.03-2.44-.07-.6-.1-3-.83-3.53-1.02l1-1.25c.45.17 2.32.69 2.85.77.54.08 1.64.05 2.12.07zM17.86 5.6a14.54 14.54 0 0 0-1.92-1.55c-.55-.35-2.7-.32-3.34-.54l-.16-1.39c1.2.04 3.46.12 4.1.54.65.43 1.87 1.33 2.4 1.86zm2.46 15.46-3.27-3.27v3.25h-1.5v-5.8h5.8v1.5H18.1l3.27 3.27zm-.43-8.8c-.02-.49.52-1.74.45-2.24-.08-.5-.8-1.9-1-2.34l1.25-.73c.2.53 1.02 2.1 1.12 2.66.1.56-.32 2.06-.32 2.64z"/>
</svg>