<?xml version="1.0" encoding="UTF-8" standalone="no"?>
<svg
   fill="none"
   viewBox="0 0 24 24"
   id="Lasso-Select--Streamline-Outlined-Material"
   height="24"
   width="24"
   version="1.1"
   sodipodi:docname="lasso.svg"
   inkscape:version="1.4 (e7c3feb1, 2024-10-09)"
   xmlns:inkscape="http://www.inkscape.org/namespaces/inkscape"
   xmlns:sodipodi="http://sodipodi.sourceforge.net/DTD/sodipodi-0.dtd"
   xmlns="http://www.w3.org/2000/svg"
   xmlns:svg="http://www.w3.org/2000/svg">
  <defs
     id="defs1" />
  <sodipodi:namedview
     id="namedview1"
     pagecolor="#ffffff"
     bordercolor="#000000"
     borderopacity="0.25"
     inkscape:showpageshadow="2"
     inkscape:pageopacity="0.0"
     inkscape:pagecheckerboard="0"
     inkscape:deskcolor="#d1d1d1"
     inkscape:zoom="35.436461"
     inkscape:cx="15.887591"
     inkscape:cy="13.079749"
     inkscape:window-width="1976"
     inkscape:window-height="1074"
     inkscape:window-x="0"
     inkscape:window-y="44"
     inkscape:window-maximized="0"
     inkscape:current-layer="Lasso-Select--Streamline-Outlined-Material" />
  <desc
     id="desc1">Lasso Select Streamline Icon: https://streamlinehq.com</desc>
  <path
     fill="#000000"
     d="M 5.8132267,13.698069 4.4543243,13.124776 C 4.5376593,12.358126 6.9600954,11.056267 6.9273705,10.282167 6.8951753,9.5205971 5.6998651,8.5151304 5.5521395,7.7971218 l 1.253892,-0.3108923 c 0.050189,0.56665 1.8859155,2.7979945 1.6692457,3.4063445 -0.216665,0.60835 -2.5620505,2.172145 -2.6620505,2.805495 z m -0.6216999,6.078904 c -0.53333,-0.51665 -2.2364675,-1.463219 -2.6448025,-2.096569 -0.40833,-0.63335 1.074639,-2.985385 1.3210359,-3.650727 l 1.1795567,0.423383 c -0.1784034,0.588431 -1.4367639,2.06653 -1.103434,2.59988 0.33335,0.53335 1.8726439,1.199033 2.3226439,1.649033 z M 6.3986661,6.5247604 4.9856968,6.8183767 C 4.5940772,5.7173321 3.5615072,4.4062793 4.5812716,2.893501 5.0556449,2.1897879 8.3201964,2.1423668 9.1201964,2.0423668 l 0.15,1.5 C 8.5868464,3.6257018 6.4334472,3.2374202 5.8306227,4.262062 5.4038656,4.987436 6.1638324,4.9706774 6.3986661,6.5247604 Z M 12.79251,21.865341 C 12.15916,21.865341 10.9499,21.9 10.3499,21.8 9.7499,21.7 7.348981,20.96574 6.815631,20.78239 l 1.0015124,-1.252464 c 0.45,0.16665 2.3244066,0.686724 2.8577566,0.770074 0.53335,0.08335 1.63426,0.04869 2.11761,0.06534 z M 17.856407,5.6093404 c -0.48335,-0.48335 -1.366854,-1.1863452 -1.916854,-1.5446952 -0.55,-0.358335 -2.707946,-0.3236684 -3.341296,-0.5403334 L 12.44359,2.1322471 c 1.194891,0.033873 3.459615,0.1163004 4.101265,0.5413004 0.64165,0.425 1.869899,1.3274579 2.386549,1.8607929 z M 20.3249,21.075 17.0499,17.8 v 3.25 h -1.5 v -5.8 h 5.8 v 1.5 h -3.25 l 3.275,3.275 z M 19.891647,12.264533 C 19.874997,11.781183 20.4124,10.529927 20.3374,10.029927 20.2624,9.5299267 19.541647,8.1376797 19.341647,7.6876797 L 20.59411,6.9554845 c 0.2,0.53335 1.017912,2.1092751 1.117912,2.6676251 0.1,0.5583504 -0.320375,2.0580734 -0.320375,2.6414234 z"
     stroke-width="0.5"
     id="path1"
     sodipodi:nodetypes="ccscccccccccccccsccsccsccsccccccscccccccccccccsccscc" />
</svg>
