<?xml version="1.0" encoding="UTF-8" standalone="no"?>
<svg height="24" viewBox="0 -960 960 960" width="24" version="1.1" id="svg2" xmlns:svg="http://www.w3.org/2000/svg">
   <path fill="gray"
      d="m 840,-176 -56,56 z m -560,56 v -80 h 80 v 80 z m -80,-640 h -80 c 0,-22 7.83333,-40.83333 23.5,-56.5 15.66667,-15.66667 34.5,-23.5 56.5,-23.5 z m 80,0 v -80 h 80 v 80 z m 160,0 v -80 h 80 v 80 z m 160,0 v -80 h 80 v 80 z m 160,0 v -80 c 22,0 40.83333,7.83333 56.5,23.5 15.66667,15.66667 23.5,34.5 23.5,56.5 z m -560,560 v 80 c -22,0 -40.83333,-7.83333 -56.5,-23.5 C 127.83333,-159.16667 120,-178 120,-200 Z m -80,-80 v -80 h 80 v 80 z m 0,-160 v -80 h 80 v 80 z m 0,-160 v -80 h 80 v 80 z m 640,0 v -80 h 80 v 80 z"
      opacity="0.5" />
   <path
      d="m 409.75118,-47.00652 -56,-56 224,-224 -224,-224 56,-56 224,224 224,-224 56,56 -224,224 224,224 -56,56 -224,-224 z"
      style="fill:#ff0000" />
</svg>