<?xml version="1.0" encoding="UTF-8" standalone="no"?>
<svg
   height="24"
   viewBox="0 -960 960 960"
   width="24"
   version="1.1"
   id="svg2"
   sodipodi:docname="selector_cancel.svg"
   inkscape:version="1.4.3 (0d15f75, 2025-12-25)"
   xmlns:inkscape="http://www.inkscape.org/namespaces/inkscape"
   xmlns:sodipodi="http://sodipodi.sourceforge.net/DTD/sodipodi-0.dtd"
   xmlns="http://www.w3.org/2000/svg"
   xmlns:svg="http://www.w3.org/2000/svg">
  <defs
     id="defs2" />
  <sodipodi:namedview
     id="namedview2"
     pagecolor="#ffffff"
     bordercolor="#000000"
     borderopacity="0.25"
     inkscape:showpageshadow="2"
     inkscape:pageopacity="0.0"
     inkscape:pagecheckerboard="0"
     inkscape:deskcolor="#d1d1d1"
     inkscape:zoom="7.2844968"
     inkscape:cx="12.286367"
     inkscape:cy="13.933701"
     inkscape:window-width="1603"
     inkscape:window-height="596"
     inkscape:window-x="837"
     inkscape:window-y="241"
     inkscape:window-maximized="0"
     inkscape:current-layer="svg2" />
  <path
     d="m 840,-176 -56,56 z m -560,56 v -80 h 80 v 80 z m -80,-640 h -80 c 0,-22 7.83333,-40.83333 23.5,-56.5 15.66667,-15.66667 34.5,-23.5 56.5,-23.5 z m 80,0 v -80 h 80 v 80 z m 160,0 v -80 h 80 v 80 z m 160,0 v -80 h 80 v 80 z m 160,0 v -80 c 22,0 40.83333,7.83333 56.5,23.5 15.66667,15.66667 23.5,34.5 23.5,56.5 z m -560,560 v 80 c -22,0 -40.83333,-7.83333 -56.5,-23.5 C 127.83333,-159.16667 120,-178 120,-200 Z m -80,-80 v -80 h 80 v 80 z m 0,-160 v -80 h 80 v 80 z m 0,-160 v -80 h 80 v 80 z m 640,0 v -80 h 80 v 80 z"
     opacity="0.5"
     id="path1"
     sodipodi:nodetypes="ccccccccccscccccccccccccccccccsccccscccccccccccccccccccccc" />
  <path
     d="m 409.75118,-47.00652 -56,-56 224,-224 -224,-224 56,-56 224,224 224,-224 56,56 -224,224 224,224 -56,56 -224,-224 z"
     id="path2"
     style="fill:#ff0000" />
</svg>
