<svg height="24" viewBox="0 -960 960 960" width="24">
    <path fill="gray"
        d="M840-176l-56 56zm-560 56v-80h80v80zm-80-640h-80c0-22 7.833-40.833 23.5-56.5C159.167-832.167 178-840 200-840zm80 0v-80h80v80zm160 0v-80h80v80zm160 0v-80h80v80zm160 0v-80c22 0 40.833 7.833 56.5 23.5C832.167-800.833 840-782 840-760zM200-200v80c-22 0-40.833-7.833-56.5-23.5C127.833-159.167 120-178 120-200zm-80-80v-80h80v80zm0-160v-80h80v80zm0-160v-80h80v80zm640 0v-80h80v80z"
        opacity=".5" />
    <path d="M409.751-47.007l-56-56 224-224-224-224 56-56 224 224 224-224 56 56-224 224 224 224-56 56-224-224z"
        fill="red" />
</svg>